<?xml version="1.0" encoding="utf-8" standalone="no"?>
<!DOCTYPE svg PUBLIC "-//W3C//DTD SVG 1.1//EN"
  "http://www.w3.org/Graphics/SVG/1.1/DTD/svg11.dtd">
<svg xmlns:xlink="http://www.w3.org/1999/xlink" width="1478.5pt" height="418.280156pt" viewBox="0 0 1478.5 418.280156" xmlns="http://www.w3.org/2000/svg" version="1.1">
 <metadata>
  <rdf:RDF xmlns:dc="http://purl.org/dc/elements/1.1/" xmlns:cc="http://creativecommons.org/ns#" xmlns:rdf="http://www.w3.org/1999/02/22-rdf-syntax-ns#">
   <cc:Work>
    <dc:type rdf:resource="http://purl.org/dc/dcmitype/StillImage"/>
    <dc:date>2026-03-25T11:55:46.962770</dc:date>
    <dc:format>image/svg+xml</dc:format>
    <dc:creator>
     <cc:Agent>
      <dc:title>Matplotlib v3.10.7, https://matplotlib.org/</dc:title>
     </cc:Agent>
    </dc:creator>
   </cc:Work>
  </rdf:RDF>
 </metadata>
 <defs>
  <style type="text/css">*{stroke-linejoin: round; stroke-linecap: butt}</style>
 </defs>
 <g id="figure_1">
  <g id="patch_1">
   <path d="M 0 418.280156 
L 1478.5 418.280156 
L 1478.5 -0 
L 0 -0 
z
" style="fill: #ffffff"/>
  </g>
  <g id="axes_1">
   <g id="patch_2">
    <path d="M 121.92 336.640156 
L 422.86382 336.640156 
L 422.86382 31.720156 
L 121.92 31.720156 
z
" style="fill: #ffffff"/>
   </g>
   <g id="matplotlib.axis_1">
    <g id="xtick_1">
     <g id="line2d_1">
      <defs>
       <path id="m960e30428c" d="M 0 0 
L 0 5 
" style="stroke: #000000; stroke-width: 1.6"/>
      </defs>
      <g>
       <use xlink:href="#m960e30428c" x="121.92" y="336.640156" style="stroke: #000000; stroke-width: 1.6"/>
      </g>
     </g>
     <g id="text_1">
      <!-- -1 -->
      <g transform="translate(105.9675 369.455156) scale(0.32 -0.32)">
       <defs>
        <path id="DejaVuSans-2d" d="M 313 2009 
L 1997 2009 
L 1997 1497 
L 313 1497 
L 313 2009 
z
" transform="scale(0.015625)"/>
        <path id="DejaVuSans-31" d="M 794 531 
L 1825 531 
L 1825 4091 
L 703 3866 
L 703 4441 
L 1819 4666 
L 2450 4666 
L 2450 531 
L 3481 531 
L 3481 0 
L 794 0 
L 794 531 
z
" transform="scale(0.015625)"/>
       </defs>
       <use xlink:href="#DejaVuSans-2d"/>
       <use xlink:href="#DejaVuSans-31" transform="translate(36.083984 0)"/>
      </g>
     </g>
    </g>
    <g id="xtick_2">
     <g id="line2d_2">
      <g>
       <use xlink:href="#m960e30428c" x="197.155955" y="336.640156" style="stroke: #000000; stroke-width: 1.6"/>
      </g>
     </g>
     <g id="text_2">
      <!-- 0 -->
      <g transform="translate(186.975955 369.455156) scale(0.32 -0.32)">
       <defs>
        <path id="DejaVuSans-30" d="M 2034 4250 
Q 1547 4250 1301 3770 
Q 1056 3291 1056 2328 
Q 1056 1369 1301 889 
Q 1547 409 2034 409 
Q 2525 409 2770 889 
Q 3016 1369 3016 2328 
Q 3016 3291 2770 3770 
Q 2525 4250 2034 4250 
z
M 2034 4750 
Q 2819 4750 3233 4129 
Q 3647 3509 3647 2328 
Q 3647 1150 3233 529 
Q 2819 -91 2034 -91 
Q 1250 -91 836 529 
Q 422 1150 422 2328 
Q 422 3509 836 4129 
Q 1250 4750 2034 4750 
z
" transform="scale(0.015625)"/>
       </defs>
       <use xlink:href="#DejaVuSans-30"/>
      </g>
     </g>
    </g>
    <g id="xtick_3">
     <g id="line2d_3">
      <g>
       <use xlink:href="#m960e30428c" x="272.39191" y="336.640156" style="stroke: #000000; stroke-width: 1.6"/>
      </g>
     </g>
     <g id="text_3">
      <!-- 1 -->
      <g transform="translate(262.21191 369.455156) scale(0.32 -0.32)">
       <use xlink:href="#DejaVuSans-31"/>
      </g>
     </g>
    </g>
    <g id="xtick_4">
     <g id="line2d_4">
      <g>
       <use xlink:href="#m960e30428c" x="347.627865" y="336.640156" style="stroke: #000000; stroke-width: 1.6"/>
      </g>
     </g>
     <g id="text_4">
      <!-- 2 -->
      <g transform="translate(337.447865 369.455156) scale(0.32 -0.32)">
       <defs>
        <path id="DejaVuSans-32" d="M 1228 531 
L 3431 531 
L 3431 0 
L 469 0 
L 469 531 
Q 828 903 1448 1529 
Q 2069 2156 2228 2338 
Q 2531 2678 2651 2914 
Q 2772 3150 2772 3378 
Q 2772 3750 2511 3984 
Q 2250 4219 1831 4219 
Q 1534 4219 1204 4116 
Q 875 4013 500 3803 
L 500 4441 
Q 881 4594 1212 4672 
Q 1544 4750 1819 4750 
Q 2544 4750 2975 4387 
Q 3406 4025 3406 3419 
Q 3406 3131 3298 2873 
Q 3191 2616 2906 2266 
Q 2828 2175 2409 1742 
Q 1991 1309 1228 531 
z
" transform="scale(0.015625)"/>
       </defs>
       <use xlink:href="#DejaVuSans-32"/>
      </g>
     </g>
    </g>
    <g id="xtick_5">
     <g id="line2d_5">
      <g>
       <use xlink:href="#m960e30428c" x="422.86382" y="336.640156" style="stroke: #000000; stroke-width: 1.6"/>
      </g>
     </g>
     <g id="text_5">
      <!-- 3 -->
      <g transform="translate(412.68382 369.455156) scale(0.32 -0.32)">
       <defs>
        <path id="DejaVuSans-33" d="M 2597 2516 
Q 3050 2419 3304 2112 
Q 3559 1806 3559 1356 
Q 3559 666 3084 287 
Q 2609 -91 1734 -91 
Q 1441 -91 1130 -33 
Q 819 25 488 141 
L 488 750 
Q 750 597 1062 519 
Q 1375 441 1716 441 
Q 2309 441 2620 675 
Q 2931 909 2931 1356 
Q 2931 1769 2642 2001 
Q 2353 2234 1838 2234 
L 1294 2234 
L 1294 2753 
L 1863 2753 
Q 2328 2753 2575 2939 
Q 2822 3125 2822 3475 
Q 2822 3834 2567 4026 
Q 2313 4219 1838 4219 
Q 1578 4219 1281 4162 
Q 984 4106 628 3988 
L 628 4550 
Q 988 4650 1302 4700 
Q 1616 4750 1894 4750 
Q 2613 4750 3031 4423 
Q 3450 4097 3450 3541 
Q 3450 3153 3228 2886 
Q 3006 2619 2597 2516 
z
" transform="scale(0.015625)"/>
       </defs>
       <use xlink:href="#DejaVuSans-33"/>
      </g>
     </g>
    </g>
    <g id="text_6">
     <!-- Time (s) -->
     <g transform="translate(207.33941 404.425156) scale(0.32 -0.32)">
      <defs>
       <path id="DejaVuSans-54" d="M -19 4666 
L 3928 4666 
L 3928 4134 
L 2272 4134 
L 2272 0 
L 1638 0 
L 1638 4134 
L -19 4134 
L -19 4666 
z
" transform="scale(0.015625)"/>
       <path id="DejaVuSans-69" d="M 603 3500 
L 1178 3500 
L 1178 0 
L 603 0 
L 603 3500 
z
M 603 4863 
L 1178 4863 
L 1178 4134 
L 603 4134 
L 603 4863 
z
" transform="scale(0.015625)"/>
       <path id="DejaVuSans-6d" d="M 3328 2828 
Q 3544 3216 3844 3400 
Q 4144 3584 4550 3584 
Q 5097 3584 5394 3201 
Q 5691 2819 5691 2113 
L 5691 0 
L 5113 0 
L 5113 2094 
Q 5113 2597 4934 2840 
Q 4756 3084 4391 3084 
Q 3944 3084 3684 2787 
Q 3425 2491 3425 1978 
L 3425 0 
L 2847 0 
L 2847 2094 
Q 2847 2600 2669 2842 
Q 2491 3084 2119 3084 
Q 1678 3084 1418 2786 
Q 1159 2488 1159 1978 
L 1159 0 
L 581 0 
L 581 3500 
L 1159 3500 
L 1159 2956 
Q 1356 3278 1631 3431 
Q 1906 3584 2284 3584 
Q 2666 3584 2933 3390 
Q 3200 3197 3328 2828 
z
" transform="scale(0.015625)"/>
       <path id="DejaVuSans-65" d="M 3597 1894 
L 3597 1613 
L 953 1613 
Q 991 1019 1311 708 
Q 1631 397 2203 397 
Q 2534 397 2845 478 
Q 3156 559 3463 722 
L 3463 178 
Q 3153 47 2828 -22 
Q 2503 -91 2169 -91 
Q 1331 -91 842 396 
Q 353 884 353 1716 
Q 353 2575 817 3079 
Q 1281 3584 2069 3584 
Q 2775 3584 3186 3129 
Q 3597 2675 3597 1894 
z
M 3022 2063 
Q 3016 2534 2758 2815 
Q 2500 3097 2075 3097 
Q 1594 3097 1305 2825 
Q 1016 2553 972 2059 
L 3022 2063 
z
" transform="scale(0.015625)"/>
       <path id="DejaVuSans-20" transform="scale(0.015625)"/>
       <path id="DejaVuSans-28" d="M 1984 4856 
Q 1566 4138 1362 3434 
Q 1159 2731 1159 2009 
Q 1159 1288 1364 580 
Q 1569 -128 1984 -844 
L 1484 -844 
Q 1016 -109 783 600 
Q 550 1309 550 2009 
Q 550 2706 781 3412 
Q 1013 4119 1484 4856 
L 1984 4856 
z
" transform="scale(0.015625)"/>
       <path id="DejaVuSans-73" d="M 2834 3397 
L 2834 2853 
Q 2591 2978 2328 3040 
Q 2066 3103 1784 3103 
Q 1356 3103 1142 2972 
Q 928 2841 928 2578 
Q 928 2378 1081 2264 
Q 1234 2150 1697 2047 
L 1894 2003 
Q 2506 1872 2764 1633 
Q 3022 1394 3022 966 
Q 3022 478 2636 193 
Q 2250 -91 1575 -91 
Q 1294 -91 989 -36 
Q 684 19 347 128 
L 347 722 
Q 666 556 975 473 
Q 1284 391 1588 391 
Q 1994 391 2212 530 
Q 2431 669 2431 922 
Q 2431 1156 2273 1281 
Q 2116 1406 1581 1522 
L 1381 1569 
Q 847 1681 609 1914 
Q 372 2147 372 2553 
Q 372 3047 722 3315 
Q 1072 3584 1716 3584 
Q 2034 3584 2315 3537 
Q 2597 3491 2834 3397 
z
" transform="scale(0.015625)"/>
       <path id="DejaVuSans-29" d="M 513 4856 
L 1013 4856 
Q 1481 4119 1714 3412 
Q 1947 2706 1947 2009 
Q 1947 1309 1714 600 
Q 1481 -109 1013 -844 
L 513 -844 
Q 928 -128 1133 580 
Q 1338 1288 1338 2009 
Q 1338 2731 1133 3434 
Q 928 4138 513 4856 
z
" transform="scale(0.015625)"/>
      </defs>
      <use xlink:href="#DejaVuSans-54"/>
      <use xlink:href="#DejaVuSans-69" transform="translate(57.958984 0)"/>
      <use xlink:href="#DejaVuSans-6d" transform="translate(85.742188 0)"/>
      <use xlink:href="#DejaVuSans-65" transform="translate(183.154297 0)"/>
      <use xlink:href="#DejaVuSans-20" transform="translate(244.677734 0)"/>
      <use xlink:href="#DejaVuSans-28" transform="translate(276.464844 0)"/>
      <use xlink:href="#DejaVuSans-73" transform="translate(315.478516 0)"/>
      <use xlink:href="#DejaVuSans-29" transform="translate(367.578125 0)"/>
     </g>
    </g>
   </g>
   <g id="matplotlib.axis_2">
    <g id="ytick_1">
     <g id="line2d_6">
      <defs>
       <path id="ma05908a5d7" d="M 0 0 
L -5 0 
" style="stroke: #000000; stroke-width: 1.6"/>
      </defs>
      <g>
       <use xlink:href="#ma05908a5d7" x="121.92" y="315.620748" style="stroke: #000000; stroke-width: 1.6"/>
      </g>
     </g>
     <g id="text_7">
      <!-- 0.00 -->
      <g transform="translate(42.17 327.778248) scale(0.32 -0.32)">
       <defs>
        <path id="DejaVuSans-2e" d="M 684 794 
L 1344 794 
L 1344 0 
L 684 0 
L 684 794 
z
" transform="scale(0.015625)"/>
       </defs>
       <use xlink:href="#DejaVuSans-30"/>
       <use xlink:href="#DejaVuSans-2e" transform="translate(63.623047 0)"/>
       <use xlink:href="#DejaVuSans-30" transform="translate(95.410156 0)"/>
       <use xlink:href="#DejaVuSans-30" transform="translate(159.033203 0)"/>
      </g>
     </g>
    </g>
    <g id="ytick_2">
     <g id="line2d_7">
      <g>
       <use xlink:href="#ma05908a5d7" x="121.92" y="236.193943" style="stroke: #000000; stroke-width: 1.6"/>
      </g>
     </g>
     <g id="text_8">
      <!-- 0.25 -->
      <g transform="translate(42.17 248.351443) scale(0.32 -0.32)">
       <defs>
        <path id="DejaVuSans-35" d="M 691 4666 
L 3169 4666 
L 3169 4134 
L 1269 4134 
L 1269 2991 
Q 1406 3038 1543 3061 
Q 1681 3084 1819 3084 
Q 2600 3084 3056 2656 
Q 3513 2228 3513 1497 
Q 3513 744 3044 326 
Q 2575 -91 1722 -91 
Q 1428 -91 1123 -41 
Q 819 9 494 109 
L 494 744 
Q 775 591 1075 516 
Q 1375 441 1709 441 
Q 2250 441 2565 725 
Q 2881 1009 2881 1497 
Q 2881 1984 2565 2268 
Q 2250 2553 1709 2553 
Q 1456 2553 1204 2497 
Q 953 2441 691 2322 
L 691 4666 
z
" transform="scale(0.015625)"/>
       </defs>
       <use xlink:href="#DejaVuSans-30"/>
       <use xlink:href="#DejaVuSans-2e" transform="translate(63.623047 0)"/>
       <use xlink:href="#DejaVuSans-32" transform="translate(95.410156 0)"/>
       <use xlink:href="#DejaVuSans-35" transform="translate(159.033203 0)"/>
      </g>
     </g>
    </g>
    <g id="ytick_3">
     <g id="line2d_8">
      <g>
       <use xlink:href="#ma05908a5d7" x="121.92" y="156.767138" style="stroke: #000000; stroke-width: 1.6"/>
      </g>
     </g>
     <g id="text_9">
      <!-- 0.50 -->
      <g transform="translate(42.17 168.924638) scale(0.32 -0.32)">
       <use xlink:href="#DejaVuSans-30"/>
       <use xlink:href="#DejaVuSans-2e" transform="translate(63.623047 0)"/>
       <use xlink:href="#DejaVuSans-35" transform="translate(95.410156 0)"/>
       <use xlink:href="#DejaVuSans-30" transform="translate(159.033203 0)"/>
      </g>
     </g>
    </g>
    <g id="ytick_4">
     <g id="line2d_9">
      <g>
       <use xlink:href="#ma05908a5d7" x="121.92" y="77.340333" style="stroke: #000000; stroke-width: 1.6"/>
      </g>
     </g>
     <g id="text_10">
      <!-- 0.75 -->
      <g transform="translate(42.17 89.497833) scale(0.32 -0.32)">
       <defs>
        <path id="DejaVuSans-37" d="M 525 4666 
L 3525 4666 
L 3525 4397 
L 1831 0 
L 1172 0 
L 2766 4134 
L 525 4134 
L 525 4666 
z
" transform="scale(0.015625)"/>
       </defs>
       <use xlink:href="#DejaVuSans-30"/>
       <use xlink:href="#DejaVuSans-2e" transform="translate(63.623047 0)"/>
       <use xlink:href="#DejaVuSans-37" transform="translate(95.410156 0)"/>
       <use xlink:href="#DejaVuSans-35" transform="translate(159.033203 0)"/>
      </g>
     </g>
    </g>
    <g id="text_11">
     <!-- Neural Activity -->
     <g transform="translate(31.515 301.885156) rotate(-90) scale(0.32 -0.32)">
      <defs>
       <path id="DejaVuSans-4e" d="M 628 4666 
L 1478 4666 
L 3547 763 
L 3547 4666 
L 4159 4666 
L 4159 0 
L 3309 0 
L 1241 3903 
L 1241 0 
L 628 0 
L 628 4666 
z
" transform="scale(0.015625)"/>
       <path id="DejaVuSans-75" d="M 544 1381 
L 544 3500 
L 1119 3500 
L 1119 1403 
Q 1119 906 1312 657 
Q 1506 409 1894 409 
Q 2359 409 2629 706 
Q 2900 1003 2900 1516 
L 2900 3500 
L 3475 3500 
L 3475 0 
L 2900 0 
L 2900 538 
Q 2691 219 2414 64 
Q 2138 -91 1772 -91 
Q 1169 -91 856 284 
Q 544 659 544 1381 
z
M 1991 3584 
L 1991 3584 
z
" transform="scale(0.015625)"/>
       <path id="DejaVuSans-72" d="M 2631 2963 
Q 2534 3019 2420 3045 
Q 2306 3072 2169 3072 
Q 1681 3072 1420 2755 
Q 1159 2438 1159 1844 
L 1159 0 
L 581 0 
L 581 3500 
L 1159 3500 
L 1159 2956 
Q 1341 3275 1631 3429 
Q 1922 3584 2338 3584 
Q 2397 3584 2469 3576 
Q 2541 3569 2628 3553 
L 2631 2963 
z
" transform="scale(0.015625)"/>
       <path id="DejaVuSans-61" d="M 2194 1759 
Q 1497 1759 1228 1600 
Q 959 1441 959 1056 
Q 959 750 1161 570 
Q 1363 391 1709 391 
Q 2188 391 2477 730 
Q 2766 1069 2766 1631 
L 2766 1759 
L 2194 1759 
z
M 3341 1997 
L 3341 0 
L 2766 0 
L 2766 531 
Q 2569 213 2275 61 
Q 1981 -91 1556 -91 
Q 1019 -91 701 211 
Q 384 513 384 1019 
Q 384 1609 779 1909 
Q 1175 2209 1959 2209 
L 2766 2209 
L 2766 2266 
Q 2766 2663 2505 2880 
Q 2244 3097 1772 3097 
Q 1472 3097 1187 3025 
Q 903 2953 641 2809 
L 641 3341 
Q 956 3463 1253 3523 
Q 1550 3584 1831 3584 
Q 2591 3584 2966 3190 
Q 3341 2797 3341 1997 
z
" transform="scale(0.015625)"/>
       <path id="DejaVuSans-6c" d="M 603 4863 
L 1178 4863 
L 1178 0 
L 603 0 
L 603 4863 
z
" transform="scale(0.015625)"/>
       <path id="DejaVuSans-41" d="M 2188 4044 
L 1331 1722 
L 3047 1722 
L 2188 4044 
z
M 1831 4666 
L 2547 4666 
L 4325 0 
L 3669 0 
L 3244 1197 
L 1141 1197 
L 716 0 
L 50 0 
L 1831 4666 
z
" transform="scale(0.015625)"/>
       <path id="DejaVuSans-63" d="M 3122 3366 
L 3122 2828 
Q 2878 2963 2633 3030 
Q 2388 3097 2138 3097 
Q 1578 3097 1268 2742 
Q 959 2388 959 1747 
Q 959 1106 1268 751 
Q 1578 397 2138 397 
Q 2388 397 2633 464 
Q 2878 531 3122 666 
L 3122 134 
Q 2881 22 2623 -34 
Q 2366 -91 2075 -91 
Q 1284 -91 818 406 
Q 353 903 353 1747 
Q 353 2603 823 3093 
Q 1294 3584 2113 3584 
Q 2378 3584 2631 3529 
Q 2884 3475 3122 3366 
z
" transform="scale(0.015625)"/>
       <path id="DejaVuSans-74" d="M 1172 4494 
L 1172 3500 
L 2356 3500 
L 2356 3053 
L 1172 3053 
L 1172 1153 
Q 1172 725 1289 603 
Q 1406 481 1766 481 
L 2356 481 
L 2356 0 
L 1766 0 
Q 1100 0 847 248 
Q 594 497 594 1153 
L 594 3053 
L 172 3053 
L 172 3500 
L 594 3500 
L 594 4494 
L 1172 4494 
z
" transform="scale(0.015625)"/>
       <path id="DejaVuSans-76" d="M 191 3500 
L 800 3500 
L 1894 563 
L 2988 3500 
L 3597 3500 
L 2284 0 
L 1503 0 
L 191 3500 
z
" transform="scale(0.015625)"/>
       <path id="DejaVuSans-79" d="M 2059 -325 
Q 1816 -950 1584 -1140 
Q 1353 -1331 966 -1331 
L 506 -1331 
L 506 -850 
L 844 -850 
Q 1081 -850 1212 -737 
Q 1344 -625 1503 -206 
L 1606 56 
L 191 3500 
L 800 3500 
L 1894 763 
L 2988 3500 
L 3597 3500 
L 2059 -325 
z
" transform="scale(0.015625)"/>
      </defs>
      <use xlink:href="#DejaVuSans-4e"/>
      <use xlink:href="#DejaVuSans-65" transform="translate(74.804688 0)"/>
      <use xlink:href="#DejaVuSans-75" transform="translate(136.328125 0)"/>
      <use xlink:href="#DejaVuSans-72" transform="translate(199.707031 0)"/>
      <use xlink:href="#DejaVuSans-61" transform="translate(240.820312 0)"/>
      <use xlink:href="#DejaVuSans-6c" transform="translate(302.099609 0)"/>
      <use xlink:href="#DejaVuSans-20" transform="translate(329.882812 0)"/>
      <use xlink:href="#DejaVuSans-41" transform="translate(361.669922 0)"/>
      <use xlink:href="#DejaVuSans-63" transform="translate(428.328125 0)"/>
      <use xlink:href="#DejaVuSans-74" transform="translate(483.308594 0)"/>
      <use xlink:href="#DejaVuSans-69" transform="translate(522.517578 0)"/>
      <use xlink:href="#DejaVuSans-76" transform="translate(550.300781 0)"/>
      <use xlink:href="#DejaVuSans-69" transform="translate(609.480469 0)"/>
      <use xlink:href="#DejaVuSans-74" transform="translate(637.263672 0)"/>
      <use xlink:href="#DejaVuSans-79" transform="translate(676.472656 0)"/>
     </g>
    </g>
   </g>
   <g id="line2d_10">
    <path d="M 122.67236 310.878551 
L 123.424719 309.877988 
L 124.177079 310.165126 
L 124.929438 309.850343 
L 125.681798 309.376991 
L 128.691236 310.535169 
L 129.443596 310.789448 
L 130.195955 310.84318 
L 130.948315 311.082058 
L 131.700674 310.282259 
L 134.710112 311.272516 
L 137.719551 312.079086 
L 138.47191 311.261197 
L 139.22427 311.12907 
L 139.976629 311.353654 
L 140.728989 311.058281 
L 142.233708 311.473912 
L 142.986067 310.549257 
L 144.490787 311.043728 
L 145.243146 310.385114 
L 145.995506 310.646896 
L 146.747865 310.648263 
L 148.252584 311.13308 
L 149.004944 310.385218 
L 149.757303 310.646995 
L 150.509663 310.484746 
L 151.262022 309.742352 
L 153.519101 310.580759 
L 154.271461 310.218267 
L 155.77618 310.46254 
L 158.785618 311.419356 
L 160.290337 311.828992 
L 161.042697 311.535295 
L 164.804494 312.459502 
L 165.556854 312.118784 
L 167.061573 309.539876 
L 167.813933 309.487877 
L 168.566292 309.79452 
L 169.318652 309.956134 
L 170.823371 310.508434 
L 171.57573 310.18244 
L 172.32809 310.454356 
L 173.080449 310.228243 
L 173.832809 310.497869 
L 174.585169 310.444104 
L 175.337528 309.363884 
L 177.594607 310.192576 
L 179.099326 309.112126 
L 179.851685 309.251055 
L 180.604045 309.515519 
L 181.356404 309.293065 
L 182.108764 309.609449 
L 182.861124 309.625684 
L 183.613483 309.925437 
L 184.365843 309.891997 
L 185.118202 309.399977 
L 185.870562 308.323322 
L 186.622921 308.137953 
L 187.375281 307.311941 
L 188.88 308.073296 
L 189.63236 308.265286 
L 191.137079 308.982443 
L 191.889438 309.111246 
L 194.898876 310.318718 
L 197.908315 311.302211 
L 201.670112 312.279147 
L 205.43191 313.035081 
L 209.946067 313.720045 
L 215.212584 314.293417 
L 221.98382 314.784198 
L 230.259775 315.144918 
L 241.545169 315.4003 
L 259.601798 315.55638 
L 275.401348 315.528042 
L 276.153708 314.701132 
L 276.906067 312.370706 
L 278.410787 311.564984 
L 280.667865 312.143437 
L 281.420225 311.290766 
L 282.172584 311.507266 
L 282.924944 311.273877 
L 285.182022 311.89385 
L 285.934382 309.852209 
L 287.439101 310.414642 
L 288.191461 310.50163 
L 288.94382 310.757586 
L 289.69618 309.806012 
L 290.448539 310.09675 
L 291.200899 308.86179 
L 291.953258 308.516474 
L 292.705618 308.671614 
L 294.210337 309.349154 
L 294.962697 308.815837 
L 295.715056 308.902576 
L 298.724494 310.148755 
L 300.981573 310.929198 
L 301.733933 309.452536 
L 303.991011 310.332277 
L 304.743371 309.321996 
L 305.49573 309.276983 
L 308.505169 310.453712 
L 309.257528 309.026927 
L 310.009888 308.079983 
L 310.762247 307.82567 
L 313.019326 308.937443 
L 317.533483 310.680841 
L 318.285843 310.541361 
L 320.542921 311.265809 
L 321.295281 309.48069 
L 322.04764 309.787693 
L 322.8 309.847661 
L 325.057079 310.671048 
L 325.809438 310.470028 
L 327.314157 310.972224 
L 328.066517 310.349075 
L 329.571236 310.863063 
L 331.075955 311.224409 
L 331.828315 310.865831 
L 333.333034 311.329435 
L 334.085393 311.342818 
L 334.837753 311.556715 
L 335.590112 311.497214 
L 336.342472 310.366547 
L 337.094831 310.002618 
L 339.35191 310.803904 
L 340.10427 309.07332 
L 340.856629 309.049342 
L 341.608989 308.250514 
L 343.113708 308.86645 
L 344.618427 309.524995 
L 345.370787 309.338057 
L 348.380225 310.503458 
L 349.132584 310.091132 
L 349.884944 310.367613 
L 350.637303 310.083013 
L 352.142022 310.520658 
L 353.646742 309.729469 
L 355.90382 310.569713 
L 356.65618 310.600411 
L 358.160899 311.089894 
L 358.913258 310.754998 
L 359.665618 310.998286 
L 360.417978 311.065595 
L 361.170337 310.908448 
L 362.675056 311.367897 
L 364.179775 309.684479 
L 364.932135 309.981292 
L 365.684494 308.088715 
L 366.436854 307.973977 
L 367.189213 307.627779 
L 367.941573 308.027427 
L 368.693933 308.009409 
L 370.198652 308.751515 
L 370.951011 307.631686 
L 371.703371 307.995335 
L 372.45573 307.659885 
L 374.712809 308.793398 
L 379.226966 310.579486 
L 379.979326 310.831549 
L 380.731685 310.774153 
L 384.493483 311.870545 
L 385.245843 312.058055 
L 385.998202 311.747376 
L 386.750562 311.941045 
L 387.502921 310.621651 
L 388.255281 310.561628 
L 389.76 311.054892 
L 390.51236 311.04981 
L 393.521798 311.897691 
L 394.274157 311.568465 
L 395.026517 311.771079 
L 395.778876 311.764568 
L 398.788315 312.479866 
L 399.540674 311.168136 
L 401.045393 311.602266 
L 401.797753 311.238344 
L 405.559551 312.229728 
L 406.31191 312.275 
L 407.06427 311.822149 
L 407.816629 312.012079 
L 408.568989 311.06093 
L 412.330787 312.092448 
L 413.083146 312.130035 
L 413.835506 310.952975 
L 414.587865 311.186363 
L 415.340225 310.892725 
L 417.597303 311.567059 
L 419.102022 311.909036 
L 419.854382 311.560454 
L 421.359101 311.850354 
L 422.111461 312.038873 
L 422.111461 312.038873 
" clip-path="url(#p56ece4648f)" style="fill: none; stroke: #000000; stroke-width: 5; stroke-linecap: square"/>
   </g>
   <g id="line2d_11">
    <path d="M 122.67236 314.204781 
L 124.929438 314.406734 
L 125.681798 314.356915 
L 130.948315 314.738166 
L 131.700674 314.656645 
L 135.462472 314.83699 
L 136.214831 314.573055 
L 136.967191 314.569937 
L 137.719551 314.442481 
L 139.22427 313.906237 
L 139.976629 313.804911 
L 141.481348 312.421063 
L 144.490787 312.883941 
L 145.243146 312.478754 
L 148.252584 313.010661 
L 152.014382 313.601113 
L 153.519101 313.532937 
L 154.271461 313.210775 
L 155.02382 313.272345 
L 155.77618 313.006235 
L 156.528539 313.136961 
L 157.280899 312.865401 
L 160.290337 313.320374 
L 161.042697 313.435392 
L 161.795056 313.398572 
L 163.299775 312.822162 
L 164.052135 312.962091 
L 164.804494 312.713653 
L 165.556854 312.816041 
L 166.309213 312.562124 
L 167.813933 311.699299 
L 169.318652 312.08164 
L 170.071011 311.652816 
L 170.823371 311.851213 
L 172.32809 311.564911 
L 173.080449 311.434358 
L 175.337528 311.964955 
L 177.594607 312.088524 
L 178.346966 311.676791 
L 182.108764 312.568989 
L 183.613483 312.821307 
L 187.375281 312.037266 
L 188.88 312.337734 
L 189.63236 312.120443 
L 190.384719 312.295458 
L 191.137079 312.258069 
L 192.641798 312.58593 
L 193.394157 312.32629 
L 195.651236 312.724994 
L 197.908315 312.173769 
L 199.413034 312.412559 
L 200.165393 312.51572 
L 200.917753 312.502385 
L 203.927191 312.981779 
L 205.43191 313.187862 
L 206.936629 312.88757 
L 208.441348 311.867891 
L 209.193708 311.602392 
L 211.450787 312.120204 
L 212.203146 312.295232 
L 213.707865 312.185785 
L 215.964944 312.438444 
L 216.717303 312.463729 
L 217.469663 312.62158 
L 218.222022 312.537499 
L 218.974382 311.913257 
L 219.726742 311.482017 
L 220.479101 311.352786 
L 223.488539 312.144467 
L 224.993258 312.10368 
L 226.497978 312.446594 
L 227.250337 311.923897 
L 228.002697 311.95922 
L 228.755056 312.142297 
L 229.507416 312.076214 
L 230.259775 312.239785 
L 231.012135 312.206439 
L 231.764494 312.05875 
L 234.021573 312.56678 
L 234.773933 312.094606 
L 237.031011 312.536315 
L 237.783371 312.225007 
L 238.53573 311.570507 
L 239.28809 311.773019 
L 241.545169 311.181858 
L 243.049888 311.61465 
L 243.802247 311.521733 
L 245.306966 311.864649 
L 246.059326 311.659683 
L 246.811685 311.676447 
L 247.564045 311.401027 
L 248.316404 311.434057 
L 249.821124 311.81022 
L 252.078202 311.698459 
L 254.335281 312.23727 
L 255.08764 311.857805 
L 255.84 311.968803 
L 256.59236 311.910509 
L 258.097079 311.552752 
L 259.601798 311.78745 
L 261.858876 312.334175 
L 262.611236 312.25949 
L 263.363596 312.328144 
L 264.115955 312.083273 
L 267.125393 312.7041 
L 268.630112 311.972374 
L 269.382472 312.154793 
L 270.134831 311.814916 
L 271.639551 312.086851 
L 273.896629 312.50813 
L 276.153708 312.952067 
L 276.906067 312.694401 
L 277.658427 312.702233 
L 278.410787 312.47381 
L 280.667865 312.922642 
L 282.172584 312.841859 
L 282.924944 312.449466 
L 284.429663 312.705746 
L 285.934382 311.921705 
L 286.686742 311.890913 
L 288.191461 312.176374 
L 288.94382 312.348593 
L 289.69618 312.271464 
L 290.448539 312.438928 
L 291.200899 312.428511 
L 293.457978 312.80232 
L 294.210337 312.836749 
L 294.962697 312.569811 
L 295.715056 312.503519 
L 296.467416 312.181699 
L 297.219775 312.159591 
L 297.972135 312.297247 
L 298.724494 312.229329 
L 299.476854 312.3989 
L 300.229213 312.423973 
L 303.238652 312.966296 
L 303.991011 313.099019 
L 304.743371 312.864361 
L 307.752809 313.351367 
L 308.505169 312.95734 
L 309.257528 312.34872 
L 310.009888 311.986013 
L 311.514607 312.236381 
L 313.019326 312.566356 
L 313.771685 312.159399 
L 314.524045 312.193341 
L 316.028764 312.527513 
L 316.781124 312.219752 
L 317.533483 312.389802 
L 319.790562 312.241127 
L 320.542921 312.410108 
L 321.295281 312.077519 
L 322.04764 312.254681 
L 322.8 312.127336 
L 323.55236 312.302006 
L 324.304719 312.050048 
L 326.561798 311.995848 
L 327.314157 312.101561 
L 328.066517 312.05006 
L 328.818876 312.228594 
L 329.571236 312.156892 
L 330.323596 311.65569 
L 335.590112 312.695794 
L 337.847191 312.949184 
L 338.599551 312.740745 
L 339.35191 312.795116 
L 340.10427 312.70461 
L 340.856629 312.324269 
L 342.361348 312.565109 
L 343.113708 312.308716 
L 345.370787 312.598418 
L 346.123146 312.568891 
L 349.132584 313.106769 
L 349.884944 313.007471 
L 350.637303 312.484114 
L 351.389663 312.467654 
L 352.894382 312.041392 
L 354.399101 312.39038 
L 355.90382 312.442006 
L 358.160899 312.895374 
L 358.913258 312.872697 
L 363.427416 313.600678 
L 364.179775 313.338979 
L 364.932135 313.453067 
L 365.684494 313.204632 
L 366.436854 313.325438 
L 367.189213 313.293867 
L 367.941573 313.410211 
L 368.693933 313.140528 
L 370.198652 313.309874 
L 370.951011 313.168605 
L 373.20809 313.468009 
L 375.465169 313.775043 
L 376.969888 313.617421 
L 379.979326 313.957768 
L 380.731685 313.824189 
L 385.245843 314.267427 
L 386.750562 314.399375 
L 387.502921 313.999745 
L 392.769438 314.488741 
L 393.521798 314.299981 
L 395.026517 314.333513 
L 397.283596 314.517105 
L 398.035955 314.441234 
L 398.788315 314.50021 
L 399.540674 314.161501 
L 401.045393 314.303778 
L 402.550112 314.202645 
L 407.816629 314.506993 
L 409.321348 314.275193 
L 411.578427 314.467103 
L 412.330787 313.9186 
L 413.083146 313.806889 
L 413.835506 313.511413 
L 414.587865 313.61688 
L 415.340225 313.405431 
L 417.597303 313.671526 
L 418.349663 313.530494 
L 422.111461 314.003349 
L 422.111461 314.003349 
" clip-path="url(#p56ece4648f)" style="fill: none; stroke: #ff0000; stroke-width: 5; stroke-linecap: square"/>
   </g>
   <g id="patch_3">
    <path d="M 121.92 336.640156 
L 121.92 31.720156 
" style="fill: none; stroke: #000000; stroke-width: 5; stroke-linejoin: miter; stroke-linecap: square"/>
   </g>
   <g id="patch_4">
    <path d="M 121.92 336.640156 
L 422.86382 336.640156 
" style="fill: none; stroke: #000000; stroke-width: 5; stroke-linejoin: miter; stroke-linecap: square"/>
   </g>
   <g id="text_12">
    <!-- A -->
    <g transform="translate(85.806742 16.444681) scale(0.12 -0.12)">
     <defs>
      <path id="DejaVuSans-Bold-41" d="M 3419 850 
L 1538 850 
L 1241 0 
L 31 0 
L 1759 4666 
L 3194 4666 
L 4922 0 
L 3713 0 
L 3419 850 
z
M 1838 1716 
L 3116 1716 
L 2478 3572 
L 1838 1716 
z
" transform="scale(0.015625)"/>
     </defs>
     <use xlink:href="#DejaVuSans-Bold-41"/>
    </g>
   </g>
   <g id="patch_5">
    <path d="M 197.155955 330.541756 
L 272.39191 330.541756 
L 272.39191 319.869556 
L 197.155955 319.869556 
z
" style="fill: #8c5a2b; stroke: #8c5a2b; stroke-linejoin: miter"/>
   </g>
   <g id="text_13">
    <!-- Familiar | Naive -->
    <g transform="translate(198.799566 21.720156) scale(0.19 -0.19)">
     <defs>
      <path id="DejaVuSans-46" d="M 628 4666 
L 3309 4666 
L 3309 4134 
L 1259 4134 
L 1259 2759 
L 3109 2759 
L 3109 2228 
L 1259 2228 
L 1259 0 
L 628 0 
L 628 4666 
z
" transform="scale(0.015625)"/>
      <path id="DejaVuSans-7c" d="M 1344 4891 
L 1344 -1509 
L 813 -1509 
L 813 4891 
L 1344 4891 
z
" transform="scale(0.015625)"/>
     </defs>
     <use xlink:href="#DejaVuSans-46"/>
     <use xlink:href="#DejaVuSans-61" transform="translate(48.394531 0)"/>
     <use xlink:href="#DejaVuSans-6d" transform="translate(109.673828 0)"/>
     <use xlink:href="#DejaVuSans-69" transform="translate(207.085938 0)"/>
     <use xlink:href="#DejaVuSans-6c" transform="translate(234.869141 0)"/>
     <use xlink:href="#DejaVuSans-69" transform="translate(262.652344 0)"/>
     <use xlink:href="#DejaVuSans-61" transform="translate(290.435547 0)"/>
     <use xlink:href="#DejaVuSans-72" transform="translate(351.714844 0)"/>
     <use xlink:href="#DejaVuSans-20" transform="translate(392.828125 0)"/>
     <use xlink:href="#DejaVuSans-7c" transform="translate(424.615234 0)"/>
     <use xlink:href="#DejaVuSans-20" transform="translate(458.306641 0)"/>
     <use xlink:href="#DejaVuSans-4e" transform="translate(490.09375 0)"/>
     <use xlink:href="#DejaVuSans-61" transform="translate(564.898438 0)"/>
     <use xlink:href="#DejaVuSans-69" transform="translate(626.177734 0)"/>
     <use xlink:href="#DejaVuSans-76" transform="translate(653.960938 0)"/>
     <use xlink:href="#DejaVuSans-65" transform="translate(713.140625 0)"/>
    </g>
   </g>
   <g id="legend_1">
    <g id="line2d_12">
     <path d="M 130.92 46.867813 
L 145.92 46.867813 
L 160.92 46.867813 
" style="fill: none; stroke: #000000; stroke-width: 5; stroke-linecap: square"/>
    </g>
    <g id="text_14">
     <!-- Nonoccluded (NO) -->
     <g transform="translate(172.92 52.117813) scale(0.15 -0.15)">
      <defs>
       <path id="DejaVuSans-6f" d="M 1959 3097 
Q 1497 3097 1228 2736 
Q 959 2375 959 1747 
Q 959 1119 1226 758 
Q 1494 397 1959 397 
Q 2419 397 2687 759 
Q 2956 1122 2956 1747 
Q 2956 2369 2687 2733 
Q 2419 3097 1959 3097 
z
M 1959 3584 
Q 2709 3584 3137 3096 
Q 3566 2609 3566 1747 
Q 3566 888 3137 398 
Q 2709 -91 1959 -91 
Q 1206 -91 779 398 
Q 353 888 353 1747 
Q 353 2609 779 3096 
Q 1206 3584 1959 3584 
z
" transform="scale(0.015625)"/>
       <path id="DejaVuSans-6e" d="M 3513 2113 
L 3513 0 
L 2938 0 
L 2938 2094 
Q 2938 2591 2744 2837 
Q 2550 3084 2163 3084 
Q 1697 3084 1428 2787 
Q 1159 2491 1159 1978 
L 1159 0 
L 581 0 
L 581 3500 
L 1159 3500 
L 1159 2956 
Q 1366 3272 1645 3428 
Q 1925 3584 2291 3584 
Q 2894 3584 3203 3211 
Q 3513 2838 3513 2113 
z
" transform="scale(0.015625)"/>
       <path id="DejaVuSans-64" d="M 2906 2969 
L 2906 4863 
L 3481 4863 
L 3481 0 
L 2906 0 
L 2906 525 
Q 2725 213 2448 61 
Q 2172 -91 1784 -91 
Q 1150 -91 751 415 
Q 353 922 353 1747 
Q 353 2572 751 3078 
Q 1150 3584 1784 3584 
Q 2172 3584 2448 3432 
Q 2725 3281 2906 2969 
z
M 947 1747 
Q 947 1113 1208 752 
Q 1469 391 1925 391 
Q 2381 391 2643 752 
Q 2906 1113 2906 1747 
Q 2906 2381 2643 2742 
Q 2381 3103 1925 3103 
Q 1469 3103 1208 2742 
Q 947 2381 947 1747 
z
" transform="scale(0.015625)"/>
       <path id="DejaVuSans-4f" d="M 2522 4238 
Q 1834 4238 1429 3725 
Q 1025 3213 1025 2328 
Q 1025 1447 1429 934 
Q 1834 422 2522 422 
Q 3209 422 3611 934 
Q 4013 1447 4013 2328 
Q 4013 3213 3611 3725 
Q 3209 4238 2522 4238 
z
M 2522 4750 
Q 3503 4750 4090 4092 
Q 4678 3434 4678 2328 
Q 4678 1225 4090 567 
Q 3503 -91 2522 -91 
Q 1538 -91 948 565 
Q 359 1222 359 2328 
Q 359 3434 948 4092 
Q 1538 4750 2522 4750 
z
" transform="scale(0.015625)"/>
      </defs>
      <use xlink:href="#DejaVuSans-4e"/>
      <use xlink:href="#DejaVuSans-6f" transform="translate(74.804688 0)"/>
      <use xlink:href="#DejaVuSans-6e" transform="translate(135.986328 0)"/>
      <use xlink:href="#DejaVuSans-6f" transform="translate(199.365234 0)"/>
      <use xlink:href="#DejaVuSans-63" transform="translate(260.546875 0)"/>
      <use xlink:href="#DejaVuSans-63" transform="translate(315.527344 0)"/>
      <use xlink:href="#DejaVuSans-6c" transform="translate(370.507812 0)"/>
      <use xlink:href="#DejaVuSans-75" transform="translate(398.291016 0)"/>
      <use xlink:href="#DejaVuSans-64" transform="translate(461.669922 0)"/>
      <use xlink:href="#DejaVuSans-65" transform="translate(525.146484 0)"/>
      <use xlink:href="#DejaVuSans-64" transform="translate(586.669922 0)"/>
      <use xlink:href="#DejaVuSans-20" transform="translate(650.146484 0)"/>
      <use xlink:href="#DejaVuSans-28" transform="translate(681.933594 0)"/>
      <use xlink:href="#DejaVuSans-4e" transform="translate(720.947266 0)"/>
      <use xlink:href="#DejaVuSans-4f" transform="translate(795.751953 0)"/>
      <use xlink:href="#DejaVuSans-29" transform="translate(874.462891 0)"/>
     </g>
    </g>
    <g id="line2d_13">
     <path d="M 130.92 68.885 
L 145.92 68.885 
L 160.92 68.885 
" style="fill: none; stroke: #ff0000; stroke-width: 5; stroke-linecap: square"/>
    </g>
    <g id="text_15">
     <!-- Occluded (O) -->
     <g transform="translate(172.92 74.135) scale(0.15 -0.15)">
      <use xlink:href="#DejaVuSans-4f"/>
      <use xlink:href="#DejaVuSans-63" transform="translate(78.710938 0)"/>
      <use xlink:href="#DejaVuSans-63" transform="translate(133.691406 0)"/>
      <use xlink:href="#DejaVuSans-6c" transform="translate(188.671875 0)"/>
      <use xlink:href="#DejaVuSans-75" transform="translate(216.455078 0)"/>
      <use xlink:href="#DejaVuSans-64" transform="translate(279.833984 0)"/>
      <use xlink:href="#DejaVuSans-65" transform="translate(343.310547 0)"/>
      <use xlink:href="#DejaVuSans-64" transform="translate(404.833984 0)"/>
      <use xlink:href="#DejaVuSans-20" transform="translate(468.310547 0)"/>
      <use xlink:href="#DejaVuSans-28" transform="translate(500.097656 0)"/>
      <use xlink:href="#DejaVuSans-4f" transform="translate(539.111328 0)"/>
      <use xlink:href="#DejaVuSans-29" transform="translate(617.822266 0)"/>
     </g>
    </g>
    <g id="line2d_14">
     <path d="M 130.92 90.902188 
L 145.92 90.902188 
L 160.92 90.902188 
" style="fill: none; stroke: #0000ff; stroke-width: 5; stroke-linecap: square"/>
    </g>
    <g id="text_16">
     <!-- No feedback -->
     <g transform="translate(172.92 96.152188) scale(0.15 -0.15)">
      <defs>
       <path id="DejaVuSans-66" d="M 2375 4863 
L 2375 4384 
L 1825 4384 
Q 1516 4384 1395 4259 
Q 1275 4134 1275 3809 
L 1275 3500 
L 2222 3500 
L 2222 3053 
L 1275 3053 
L 1275 0 
L 697 0 
L 697 3053 
L 147 3053 
L 147 3500 
L 697 3500 
L 697 3744 
Q 697 4328 969 4595 
Q 1241 4863 1831 4863 
L 2375 4863 
z
" transform="scale(0.015625)"/>
       <path id="DejaVuSans-62" d="M 3116 1747 
Q 3116 2381 2855 2742 
Q 2594 3103 2138 3103 
Q 1681 3103 1420 2742 
Q 1159 2381 1159 1747 
Q 1159 1113 1420 752 
Q 1681 391 2138 391 
Q 2594 391 2855 752 
Q 3116 1113 3116 1747 
z
M 1159 2969 
Q 1341 3281 1617 3432 
Q 1894 3584 2278 3584 
Q 2916 3584 3314 3078 
Q 3713 2572 3713 1747 
Q 3713 922 3314 415 
Q 2916 -91 2278 -91 
Q 1894 -91 1617 61 
Q 1341 213 1159 525 
L 1159 0 
L 581 0 
L 581 4863 
L 1159 4863 
L 1159 2969 
z
" transform="scale(0.015625)"/>
       <path id="DejaVuSans-6b" d="M 581 4863 
L 1159 4863 
L 1159 1991 
L 2875 3500 
L 3609 3500 
L 1753 1863 
L 3688 0 
L 2938 0 
L 1159 1709 
L 1159 0 
L 581 0 
L 581 4863 
z
" transform="scale(0.015625)"/>
      </defs>
      <use xlink:href="#DejaVuSans-4e"/>
      <use xlink:href="#DejaVuSans-6f" transform="translate(74.804688 0)"/>
      <use xlink:href="#DejaVuSans-20" transform="translate(135.986328 0)"/>
      <use xlink:href="#DejaVuSans-66" transform="translate(167.773438 0)"/>
      <use xlink:href="#DejaVuSans-65" transform="translate(202.978516 0)"/>
      <use xlink:href="#DejaVuSans-65" transform="translate(264.501953 0)"/>
      <use xlink:href="#DejaVuSans-64" transform="translate(326.025391 0)"/>
      <use xlink:href="#DejaVuSans-62" transform="translate(389.501953 0)"/>
      <use xlink:href="#DejaVuSans-61" transform="translate(452.978516 0)"/>
      <use xlink:href="#DejaVuSans-63" transform="translate(514.257812 0)"/>
      <use xlink:href="#DejaVuSans-6b" transform="translate(569.238281 0)"/>
     </g>
    </g>
   </g>
  </g>
  <g id="axes_2">
   <g id="patch_6">
    <path d="M 468.005393 336.640156 
L 768.949213 336.640156 
L 768.949213 31.720156 
L 468.005393 31.720156 
z
" style="fill: #ffffff"/>
   </g>
   <g id="matplotlib.axis_3">
    <g id="xtick_6">
     <g id="line2d_15">
      <g>
       <use xlink:href="#m960e30428c" x="468.005393" y="336.640156" style="stroke: #000000; stroke-width: 1.6"/>
      </g>
     </g>
     <g id="text_17">
      <!-- -1 -->
      <g transform="translate(452.052893 369.455156) scale(0.32 -0.32)">
       <use xlink:href="#DejaVuSans-2d"/>
       <use xlink:href="#DejaVuSans-31" transform="translate(36.083984 0)"/>
      </g>
     </g>
    </g>
    <g id="xtick_7">
     <g id="line2d_16">
      <g>
       <use xlink:href="#m960e30428c" x="543.241348" y="336.640156" style="stroke: #000000; stroke-width: 1.6"/>
      </g>
     </g>
     <g id="text_18">
      <!-- 0 -->
      <g transform="translate(533.061348 369.455156) scale(0.32 -0.32)">
       <use xlink:href="#DejaVuSans-30"/>
      </g>
     </g>
    </g>
    <g id="xtick_8">
     <g id="line2d_17">
      <g>
       <use xlink:href="#m960e30428c" x="618.477303" y="336.640156" style="stroke: #000000; stroke-width: 1.6"/>
      </g>
     </g>
     <g id="text_19">
      <!-- 1 -->
      <g transform="translate(608.297303 369.455156) scale(0.32 -0.32)">
       <use xlink:href="#DejaVuSans-31"/>
      </g>
     </g>
    </g>
    <g id="xtick_9">
     <g id="line2d_18">
      <g>
       <use xlink:href="#m960e30428c" x="693.713258" y="336.640156" style="stroke: #000000; stroke-width: 1.6"/>
      </g>
     </g>
     <g id="text_20">
      <!-- 2 -->
      <g transform="translate(683.533258 369.455156) scale(0.32 -0.32)">
       <use xlink:href="#DejaVuSans-32"/>
      </g>
     </g>
    </g>
    <g id="xtick_10">
     <g id="line2d_19">
      <g>
       <use xlink:href="#m960e30428c" x="768.949213" y="336.640156" style="stroke: #000000; stroke-width: 1.6"/>
      </g>
     </g>
     <g id="text_21">
      <!-- 3 -->
      <g transform="translate(758.769213 369.455156) scale(0.32 -0.32)">
       <use xlink:href="#DejaVuSans-33"/>
      </g>
     </g>
    </g>
    <g id="text_22">
     <!-- Time (s) -->
     <g transform="translate(553.424803 404.425156) scale(0.32 -0.32)">
      <use xlink:href="#DejaVuSans-54"/>
      <use xlink:href="#DejaVuSans-69" transform="translate(57.958984 0)"/>
      <use xlink:href="#DejaVuSans-6d" transform="translate(85.742188 0)"/>
      <use xlink:href="#DejaVuSans-65" transform="translate(183.154297 0)"/>
      <use xlink:href="#DejaVuSans-20" transform="translate(244.677734 0)"/>
      <use xlink:href="#DejaVuSans-28" transform="translate(276.464844 0)"/>
      <use xlink:href="#DejaVuSans-73" transform="translate(315.478516 0)"/>
      <use xlink:href="#DejaVuSans-29" transform="translate(367.578125 0)"/>
     </g>
    </g>
   </g>
   <g id="matplotlib.axis_4">
    <g id="ytick_5">
     <g id="line2d_20">
      <g>
       <use xlink:href="#ma05908a5d7" x="468.005393" y="315.620748" style="stroke: #000000; stroke-width: 1.6"/>
      </g>
     </g>
    </g>
    <g id="ytick_6">
     <g id="line2d_21">
      <g>
       <use xlink:href="#ma05908a5d7" x="468.005393" y="236.193943" style="stroke: #000000; stroke-width: 1.6"/>
      </g>
     </g>
    </g>
    <g id="ytick_7">
     <g id="line2d_22">
      <g>
       <use xlink:href="#ma05908a5d7" x="468.005393" y="156.767138" style="stroke: #000000; stroke-width: 1.6"/>
      </g>
     </g>
    </g>
    <g id="ytick_8">
     <g id="line2d_23">
      <g>
       <use xlink:href="#ma05908a5d7" x="468.005393" y="77.340333" style="stroke: #000000; stroke-width: 1.6"/>
      </g>
     </g>
    </g>
   </g>
   <g id="line2d_24">
    <path d="M 468.757753 311.865149 
L 469.510112 311.414307 
L 471.014831 311.724156 
L 471.767191 310.851905 
L 475.528989 311.930708 
L 477.033708 312.290487 
L 477.786067 311.685173 
L 481.547865 312.575475 
L 483.804944 313.009807 
L 484.557303 312.278901 
L 485.309663 311.753718 
L 488.319101 312.471028 
L 489.071461 312.353572 
L 490.57618 312.672122 
L 491.328539 312.636575 
L 494.337978 313.190121 
L 495.090337 311.836117 
L 496.595056 312.205118 
L 497.347416 312.039868 
L 501.109213 312.849931 
L 505.623371 313.583943 
L 506.37573 313.685783 
L 507.12809 313.633538 
L 511.642247 314.159966 
L 512.394607 313.788537 
L 513.146966 312.252587 
L 516.908764 313.014529 
L 517.661124 312.629989 
L 519.918202 313.056546 
L 520.670562 312.726557 
L 521.422921 311.858085 
L 523.68 312.394735 
L 524.43236 311.830228 
L 525.184719 311.592615 
L 528.946517 312.503856 
L 530.451236 312.788893 
L 531.203596 312.292879 
L 531.955955 311.446387 
L 532.708315 311.655105 
L 533.460674 311.556884 
L 537.222472 312.476208 
L 541.736629 313.309222 
L 547.003146 314.006523 
L 553.022022 314.549838 
L 560.545618 314.979555 
L 570.326292 315.291596 
L 584.621124 315.496541 
L 610.201348 315.599033 
L 622.239101 315.611191 
L 622.991461 313.919488 
L 623.74382 314.004551 
L 624.49618 313.820102 
L 629.762697 314.363289 
L 631.267416 314.485892 
L 632.019775 312.229435 
L 635.029213 312.858503 
L 635.781573 312.830469 
L 636.533933 312.969983 
L 637.286292 312.422055 
L 638.791011 312.050112 
L 640.29573 312.398249 
L 641.04809 312.429892 
L 644.809888 313.151724 
L 645.562247 312.708774 
L 647.066966 312.992692 
L 647.819326 311.021128 
L 650.076404 311.677149 
L 650.828764 310.37829 
L 651.581124 310.384004 
L 654.590562 311.355388 
L 656.095281 308.821754 
L 659.104719 310.082925 
L 659.857079 310.214759 
L 662.114157 310.985788 
L 662.866517 310.912689 
L 663.618876 311.148092 
L 664.371236 310.455441 
L 665.123596 310.668657 
L 665.875955 310.514328 
L 666.628315 310.769649 
L 667.380674 308.743377 
L 668.885393 309.338582 
L 671.894831 310.503885 
L 673.399551 311.002779 
L 674.15191 310.251505 
L 677.161348 311.247467 
L 680.923146 312.236786 
L 681.675506 312.188439 
L 682.427865 311.566428 
L 683.932584 311.887521 
L 685.437303 312.251511 
L 686.189663 310.703061 
L 686.942022 310.948945 
L 687.694382 310.809705 
L 691.45618 311.898054 
L 694.465618 312.588591 
L 695.217978 312.551794 
L 698.979775 313.24605 
L 701.236854 313.536266 
L 706.503371 314.165077 
L 708.00809 314.237097 
L 708.760449 314.30628 
L 709.512809 312.641089 
L 710.265169 311.646136 
L 711.017528 311.844866 
L 711.769888 309.727388 
L 712.522247 309.859219 
L 714.026966 310.403834 
L 714.779326 309.34331 
L 716.284045 309.95536 
L 717.036404 309.542014 
L 717.788764 309.845951 
L 718.541124 309.654411 
L 721.550562 310.761129 
L 723.80764 311.377747 
L 724.56 311.589897 
L 725.31236 311.26909 
L 726.064719 311.486673 
L 726.817079 311.045644 
L 730.578876 312.08062 
L 732.835955 312.585531 
L 733.588315 311.005454 
L 734.340674 310.872817 
L 737.350112 311.707913 
L 739.607191 312.265981 
L 740.359551 310.918583 
L 741.11191 311.153691 
L 741.86427 310.662993 
L 744.873708 311.582625 
L 745.626067 310.201858 
L 748.635506 311.207028 
L 752.397303 312.205496 
L 753.902022 312.487627 
L 754.654382 311.973826 
L 758.41618 312.79883 
L 759.168539 312.939926 
L 759.920899 311.708268 
L 760.673258 311.903892 
L 761.425618 310.826902 
L 763.682697 311.510624 
L 764.435056 311.594827 
L 765.187416 311.796123 
L 765.939775 311.324092 
L 766.692135 311.335657 
L 767.444494 311.50939 
L 768.196854 311.276611 
L 768.196854 311.276611 
" clip-path="url(#pe96a45ca59)" style="fill: none; stroke: #000000; stroke-width: 5; stroke-linecap: square"/>
   </g>
   <g id="line2d_25">
    <path d="M 468.757753 311.404532 
L 470.262472 311.815613 
L 471.767191 311.205574 
L 472.519551 310.489082 
L 473.27191 310.745665 
L 474.02427 310.800358 
L 477.033708 311.652771 
L 477.786067 311.541391 
L 480.043146 312.12321 
L 480.795506 311.890211 
L 483.804944 312.582202 
L 484.557303 312.455902 
L 485.309663 312.175767 
L 486.062022 312.348016 
L 486.814382 311.995881 
L 488.319101 312.275349 
L 489.071461 312.08122 
L 489.82382 312.089847 
L 490.57618 312.266392 
L 491.328539 312.09581 
L 494.337978 312.72674 
L 495.842697 312.975593 
L 496.595056 312.432599 
L 497.347416 312.275981 
L 498.099775 312.255337 
L 499.604494 312.583465 
L 500.356854 312.395811 
L 501.109213 312.024689 
L 501.861573 311.469839 
L 502.613933 311.677385 
L 503.366292 311.037087 
L 504.118652 311.26627 
L 505.623371 310.880107 
L 506.37573 310.129881 
L 507.12809 309.967085 
L 507.880449 310.249768 
L 509.385169 309.710757 
L 511.642247 310.55367 
L 512.394607 310.251633 
L 513.146966 309.770665 
L 513.899326 310.050993 
L 514.651685 310.070755 
L 516.908764 310.862323 
L 517.661124 310.624493 
L 520.670562 311.500298 
L 521.422921 311.447295 
L 524.43236 312.221444 
L 525.184719 311.728303 
L 525.937079 311.686602 
L 526.689438 310.99373 
L 528.194157 310.773193 
L 528.946517 310.221069 
L 529.698876 310.491053 
L 530.451236 310.591542 
L 531.203596 309.794127 
L 531.955955 309.373981 
L 533.460674 309.903025 
L 534.213034 309.892232 
L 534.965393 310.178658 
L 535.717753 309.392859 
L 536.470112 309.704254 
L 537.222472 309.204793 
L 537.974831 308.164365 
L 538.727191 308.285082 
L 542.488989 309.793841 
L 543.993708 298.149159 
L 545.498427 288.09128 
L 547.003146 276.999432 
L 548.507865 267.281933 
L 550.012584 259.295431 
L 550.764944 255.890206 
L 551.517303 253.887727 
L 553.022022 248.130222 
L 555.279101 242.436401 
L 556.78382 238.613326 
L 557.53618 237.665116 
L 558.288539 235.261683 
L 559.040899 234.161065 
L 561.297978 227.967198 
L 562.802697 226.031362 
L 563.555056 225.426729 
L 564.307416 224.406583 
L 565.059775 222.891627 
L 565.812135 220.703363 
L 566.564494 219.393569 
L 567.316854 219.328304 
L 568.821573 218.673288 
L 569.573933 218.228254 
L 570.326292 217.283723 
L 571.078652 217.319968 
L 571.831011 217.688374 
L 572.583371 217.190317 
L 574.08809 214.864373 
L 574.840449 215.056515 
L 575.592809 215.060265 
L 576.345169 213.959098 
L 577.097528 213.713951 
L 577.849888 213.256116 
L 578.602247 214.333697 
L 579.354607 214.826443 
L 580.859326 213.421131 
L 581.611685 213.217418 
L 582.364045 213.422154 
L 583.116404 213.119127 
L 583.868764 212.266203 
L 584.621124 212.428027 
L 585.373483 212.81699 
L 586.125843 212.014201 
L 586.878202 211.816775 
L 587.630562 211.993323 
L 588.382921 211.889312 
L 589.135281 211.065362 
L 589.88764 209.822642 
L 590.64 209.732465 
L 591.39236 210.135232 
L 592.144719 210.378513 
L 592.897079 210.267061 
L 593.649438 208.796758 
L 594.401798 208.326027 
L 595.154157 207.426007 
L 596.658876 208.117892 
L 597.411236 207.952138 
L 598.163596 208.083872 
L 598.915955 207.434036 
L 599.668315 207.056871 
L 600.420674 207.31962 
L 601.173034 206.499305 
L 601.925393 207.305559 
L 602.677753 206.935571 
L 603.430112 206.736574 
L 604.182472 206.004381 
L 605.687191 206.832527 
L 606.439551 206.872294 
L 607.19191 206.16382 
L 607.94427 206.367429 
L 608.696629 205.827426 
L 609.448989 207.003233 
L 610.201348 206.978387 
L 611.706067 207.987692 
L 612.458427 207.894693 
L 613.210787 207.488243 
L 613.963146 206.737729 
L 615.467865 206.612746 
L 616.220225 206.375013 
L 616.972584 205.892995 
L 617.724944 206.210054 
L 619.982022 221.814766 
L 622.239101 235.193851 
L 624.49618 246.664739 
L 626.753258 256.499594 
L 627.505618 258.545694 
L 631.267416 271.258501 
L 632.019775 272.6937 
L 634.276854 278.81617 
L 635.781573 282.222223 
L 638.038652 286.977291 
L 641.04809 291.885131 
L 642.552809 293.589086 
L 644.809888 296.731351 
L 647.066966 299.425452 
L 647.819326 299.622219 
L 650.076404 301.904009 
L 650.828764 302.579293 
L 651.581124 302.867483 
L 653.838202 304.675739 
L 654.590562 305.22299 
L 655.342921 304.746707 
L 656.095281 304.779959 
L 658.35236 306.326127 
L 659.857079 307.162831 
L 660.609438 307.579047 
L 661.361798 307.728512 
L 663.618876 308.854142 
L 666.628315 310.069281 
L 667.380674 310.100816 
L 668.885393 310.53638 
L 670.390112 311.032106 
L 671.142472 310.970747 
L 673.399551 311.633954 
L 674.15191 311.230349 
L 675.656629 311.576041 
L 676.408989 311.145589 
L 677.161348 311.369347 
L 677.913708 311.272194 
L 678.666067 311.489621 
L 679.418427 311.548436 
L 680.923146 311.945487 
L 682.427865 311.924405 
L 683.180225 311.624762 
L 683.932584 311.824562 
L 684.684944 311.530835 
L 685.437303 311.735331 
L 686.189663 311.421855 
L 686.942022 311.449292 
L 687.694382 311.225231 
L 689.199101 311.566232 
L 692.960899 312.483441 
L 695.970337 313.015712 
L 697.475056 313.238879 
L 698.227416 313.125652 
L 698.979775 312.783518 
L 703.493933 313.535123 
L 704.246292 312.665474 
L 704.998652 312.227759 
L 705.751011 311.927927 
L 706.503371 311.976153 
L 708.760449 311.760464 
L 711.017528 312.232792 
L 711.769888 311.7056 
L 712.522247 310.922264 
L 713.274607 310.551162 
L 714.026966 310.804641 
L 714.779326 310.349507 
L 716.284045 310.863453 
L 717.036404 310.948042 
L 717.788764 311.181677 
L 719.293483 311.005827 
L 720.045843 311.236573 
L 720.798202 311.106452 
L 722.302921 311.546596 
L 723.055281 311.537017 
L 726.064719 312.294524 
L 726.817079 311.879863 
L 728.321798 312.244599 
L 729.074157 311.723277 
L 730.578876 312.103281 
L 731.331236 311.939631 
L 732.083596 312.123687 
L 733.588315 311.521883 
L 734.340674 311.472594 
L 738.102472 312.410985 
L 739.607191 312.723937 
L 740.359551 312.341736 
L 741.11191 312.505687 
L 741.86427 311.907234 
L 744.873708 312.563688 
L 745.626067 311.909442 
L 746.378427 312.095008 
L 747.883146 311.68004 
L 749.387865 312.064259 
L 750.140225 311.893907 
L 751.644944 312.178452 
L 752.397303 312.043796 
L 753.902022 312.310943 
L 757.66382 313.059684 
L 759.920899 311.350008 
L 760.673258 311.520552 
L 761.425618 311.335437 
L 762.177978 311.364229 
L 763.682697 311.77924 
L 765.187416 311.763926 
L 765.939775 311.682842 
L 768.196854 312.231047 
L 768.196854 312.231047 
" clip-path="url(#pe96a45ca59)" style="fill: none; stroke: #ff0000; stroke-width: 5; stroke-linecap: square"/>
   </g>
   <g id="patch_7">
    <path d="M 468.005393 336.640156 
L 468.005393 31.720156 
" style="fill: none; stroke: #000000; stroke-width: 5; stroke-linejoin: miter; stroke-linecap: square"/>
   </g>
   <g id="patch_8">
    <path d="M 468.005393 336.640156 
L 768.949213 336.640156 
" style="fill: none; stroke: #000000; stroke-width: 5; stroke-linejoin: miter; stroke-linecap: square"/>
   </g>
   <g id="patch_9">
    <path d="M 543.241348 330.541756 
L 618.477303 330.541756 
L 618.477303 319.869556 
L 543.241348 319.869556 
z
" style="fill: #8c5a2b; stroke: #8c5a2b; stroke-linejoin: miter"/>
   </g>
   <g id="text_23">
    <!-- Familiar | Expert -->
    <g transform="translate(540.789569 21.720156) scale(0.19 -0.19)">
     <defs>
      <path id="DejaVuSans-45" d="M 628 4666 
L 3578 4666 
L 3578 4134 
L 1259 4134 
L 1259 2753 
L 3481 2753 
L 3481 2222 
L 1259 2222 
L 1259 531 
L 3634 531 
L 3634 0 
L 628 0 
L 628 4666 
z
" transform="scale(0.015625)"/>
      <path id="DejaVuSans-78" d="M 3513 3500 
L 2247 1797 
L 3578 0 
L 2900 0 
L 1881 1375 
L 863 0 
L 184 0 
L 1544 1831 
L 300 3500 
L 978 3500 
L 1906 2253 
L 2834 3500 
L 3513 3500 
z
" transform="scale(0.015625)"/>
      <path id="DejaVuSans-70" d="M 1159 525 
L 1159 -1331 
L 581 -1331 
L 581 3500 
L 1159 3500 
L 1159 2969 
Q 1341 3281 1617 3432 
Q 1894 3584 2278 3584 
Q 2916 3584 3314 3078 
Q 3713 2572 3713 1747 
Q 3713 922 3314 415 
Q 2916 -91 2278 -91 
Q 1894 -91 1617 61 
Q 1341 213 1159 525 
z
M 3116 1747 
Q 3116 2381 2855 2742 
Q 2594 3103 2138 3103 
Q 1681 3103 1420 2742 
Q 1159 2381 1159 1747 
Q 1159 1113 1420 752 
Q 1681 391 2138 391 
Q 2594 391 2855 752 
Q 3116 1113 3116 1747 
z
" transform="scale(0.015625)"/>
     </defs>
     <use xlink:href="#DejaVuSans-46"/>
     <use xlink:href="#DejaVuSans-61" transform="translate(48.394531 0)"/>
     <use xlink:href="#DejaVuSans-6d" transform="translate(109.673828 0)"/>
     <use xlink:href="#DejaVuSans-69" transform="translate(207.085938 0)"/>
     <use xlink:href="#DejaVuSans-6c" transform="translate(234.869141 0)"/>
     <use xlink:href="#DejaVuSans-69" transform="translate(262.652344 0)"/>
     <use xlink:href="#DejaVuSans-61" transform="translate(290.435547 0)"/>
     <use xlink:href="#DejaVuSans-72" transform="translate(351.714844 0)"/>
     <use xlink:href="#DejaVuSans-20" transform="translate(392.828125 0)"/>
     <use xlink:href="#DejaVuSans-7c" transform="translate(424.615234 0)"/>
     <use xlink:href="#DejaVuSans-20" transform="translate(458.306641 0)"/>
     <use xlink:href="#DejaVuSans-45" transform="translate(490.09375 0)"/>
     <use xlink:href="#DejaVuSans-78" transform="translate(553.277344 0)"/>
     <use xlink:href="#DejaVuSans-70" transform="translate(612.457031 0)"/>
     <use xlink:href="#DejaVuSans-65" transform="translate(675.933594 0)"/>
     <use xlink:href="#DejaVuSans-72" transform="translate(737.457031 0)"/>
     <use xlink:href="#DejaVuSans-74" transform="translate(778.570312 0)"/>
    </g>
   </g>
  </g>
  <g id="axes_3">
   <g id="patch_10">
    <path d="M 814.090787 336.640156 
L 1115.034607 336.640156 
L 1115.034607 31.720156 
L 814.090787 31.720156 
z
" style="fill: #ffffff"/>
   </g>
   <g id="matplotlib.axis_5">
    <g id="xtick_11">
     <g id="line2d_26">
      <g>
       <use xlink:href="#m960e30428c" x="814.090787" y="336.640156" style="stroke: #000000; stroke-width: 1.6"/>
      </g>
     </g>
     <g id="text_24">
      <!-- -1 -->
      <g transform="translate(798.138287 369.455156) scale(0.32 -0.32)">
       <use xlink:href="#DejaVuSans-2d"/>
       <use xlink:href="#DejaVuSans-31" transform="translate(36.083984 0)"/>
      </g>
     </g>
    </g>
    <g id="xtick_12">
     <g id="line2d_27">
      <g>
       <use xlink:href="#m960e30428c" x="889.326742" y="336.640156" style="stroke: #000000; stroke-width: 1.6"/>
      </g>
     </g>
     <g id="text_25">
      <!-- 0 -->
      <g transform="translate(879.146742 369.455156) scale(0.32 -0.32)">
       <use xlink:href="#DejaVuSans-30"/>
      </g>
     </g>
    </g>
    <g id="xtick_13">
     <g id="line2d_28">
      <g>
       <use xlink:href="#m960e30428c" x="964.562697" y="336.640156" style="stroke: #000000; stroke-width: 1.6"/>
      </g>
     </g>
     <g id="text_26">
      <!-- 1 -->
      <g transform="translate(954.382697 369.455156) scale(0.32 -0.32)">
       <use xlink:href="#DejaVuSans-31"/>
      </g>
     </g>
    </g>
    <g id="xtick_14">
     <g id="line2d_29">
      <g>
       <use xlink:href="#m960e30428c" x="1039.798652" y="336.640156" style="stroke: #000000; stroke-width: 1.6"/>
      </g>
     </g>
     <g id="text_27">
      <!-- 2 -->
      <g transform="translate(1029.618652 369.455156) scale(0.32 -0.32)">
       <use xlink:href="#DejaVuSans-32"/>
      </g>
     </g>
    </g>
    <g id="xtick_15">
     <g id="line2d_30">
      <g>
       <use xlink:href="#m960e30428c" x="1115.034607" y="336.640156" style="stroke: #000000; stroke-width: 1.6"/>
      </g>
     </g>
     <g id="text_28">
      <!-- 3 -->
      <g transform="translate(1104.854607 369.455156) scale(0.32 -0.32)">
       <use xlink:href="#DejaVuSans-33"/>
      </g>
     </g>
    </g>
    <g id="text_29">
     <!-- Time (s) -->
     <g transform="translate(899.510197 404.425156) scale(0.32 -0.32)">
      <use xlink:href="#DejaVuSans-54"/>
      <use xlink:href="#DejaVuSans-69" transform="translate(57.958984 0)"/>
      <use xlink:href="#DejaVuSans-6d" transform="translate(85.742188 0)"/>
      <use xlink:href="#DejaVuSans-65" transform="translate(183.154297 0)"/>
      <use xlink:href="#DejaVuSans-20" transform="translate(244.677734 0)"/>
      <use xlink:href="#DejaVuSans-28" transform="translate(276.464844 0)"/>
      <use xlink:href="#DejaVuSans-73" transform="translate(315.478516 0)"/>
      <use xlink:href="#DejaVuSans-29" transform="translate(367.578125 0)"/>
     </g>
    </g>
   </g>
   <g id="matplotlib.axis_6">
    <g id="ytick_9">
     <g id="line2d_31">
      <g>
       <use xlink:href="#ma05908a5d7" x="814.090787" y="315.620748" style="stroke: #000000; stroke-width: 1.6"/>
      </g>
     </g>
    </g>
    <g id="ytick_10">
     <g id="line2d_32">
      <g>
       <use xlink:href="#ma05908a5d7" x="814.090787" y="236.193943" style="stroke: #000000; stroke-width: 1.6"/>
      </g>
     </g>
    </g>
    <g id="ytick_11">
     <g id="line2d_33">
      <g>
       <use xlink:href="#ma05908a5d7" x="814.090787" y="156.767138" style="stroke: #000000; stroke-width: 1.6"/>
      </g>
     </g>
    </g>
    <g id="ytick_12">
     <g id="line2d_34">
      <g>
       <use xlink:href="#ma05908a5d7" x="814.090787" y="77.340333" style="stroke: #000000; stroke-width: 1.6"/>
      </g>
     </g>
    </g>
   </g>
   <g id="line2d_35">
    <path d="M 814.843146 310.4222 
L 815.595506 309.808827 
L 817.100225 310.37549 
L 817.852584 310.360199 
L 819.357303 310.76702 
L 820.862022 311.154179 
L 821.614382 311.210907 
L 822.366742 311.431399 
L 823.119101 311.311739 
L 823.871461 310.9021 
L 824.62382 311.138032 
L 825.37618 310.849645 
L 826.128539 310.714135 
L 827.633258 311.19253 
L 828.385618 311.12893 
L 829.137978 310.283081 
L 830.642697 310.79859 
L 831.395056 310.772875 
L 835.156854 311.869556 
L 836.661573 312.235297 
L 837.413933 311.880331 
L 838.166292 311.947472 
L 839.671011 312.305616 
L 841.17573 312.530707 
L 845.689888 313.349284 
L 847.946966 313.673252 
L 848.699326 313.211391 
L 849.451685 312.571016 
L 850.204045 311.756032 
L 850.956404 311.949268 
L 851.708764 312.01613 
L 852.461124 312.196361 
L 853.213483 311.419417 
L 856.222921 312.168226 
L 858.48 312.660642 
L 859.23236 312.61365 
L 860.737079 312.906842 
L 862.241798 311.903896 
L 862.994157 311.534729 
L 863.746517 311.526611 
L 864.498876 311.731318 
L 865.251236 311.539642 
L 866.003596 311.743697 
L 866.755955 311.716813 
L 867.508315 311.88433 
L 868.260674 311.062645 
L 869.013034 311.29055 
L 869.765393 311.31453 
L 870.517753 310.192845 
L 874.279551 311.373307 
L 875.03191 311.328257 
L 875.78427 310.776367 
L 879.546067 311.872258 
L 880.298427 311.281594 
L 881.050787 310.851618 
L 881.803146 310.723769 
L 885.564944 311.83156 
L 886.317303 311.852143 
L 888.574382 312.389641 
L 890.079101 287.694961 
L 892.33618 257.115234 
L 893.840899 239.261353 
L 894.593258 232.087056 
L 897.602697 207.774302 
L 898.355056 203.470994 
L 899.859775 192.930444 
L 900.612135 189.307072 
L 901.364494 184.844012 
L 902.116854 178.598126 
L 902.869213 174.235706 
L 905.126292 165.746545 
L 906.631011 161.461255 
L 907.383371 157.543557 
L 908.88809 151.34026 
L 910.392809 146.330579 
L 912.649888 140.229645 
L 913.402247 138.699834 
L 914.154607 136.495568 
L 917.164045 130.408553 
L 917.916404 127.794835 
L 919.421124 125.986065 
L 920.173483 124.022165 
L 920.925843 123.513882 
L 921.678202 122.075459 
L 923.182921 122.620291 
L 923.935281 123.085701 
L 924.68764 123.10282 
L 925.44 123.784925 
L 926.19236 122.780174 
L 926.944719 122.54604 
L 928.449438 122.369889 
L 929.201798 122.570941 
L 929.954157 122.266153 
L 930.706517 121.275057 
L 931.458876 120.043992 
L 932.211236 119.243003 
L 932.963596 118.763712 
L 933.715955 118.796946 
L 934.468315 119.339789 
L 935.220674 118.932893 
L 935.973034 118.356835 
L 937.477753 118.02722 
L 938.230112 118.443054 
L 938.982472 118.091151 
L 939.734831 116.605349 
L 940.487191 115.744254 
L 941.239551 115.444048 
L 941.99191 115.628038 
L 942.74427 114.018048 
L 943.496629 114.798586 
L 945.753708 112.811318 
L 946.506067 113.694967 
L 947.258427 112.200378 
L 948.010787 111.540486 
L 948.763146 111.034248 
L 949.515506 111.15071 
L 950.267865 110.397195 
L 951.020225 111.216496 
L 951.772584 111.407891 
L 952.524944 111.983911 
L 953.277303 112.402169 
L 954.029663 112.107152 
L 954.782022 111.373899 
L 955.534382 111.176956 
L 956.286742 110.000582 
L 957.039101 109.321715 
L 957.791461 109.620008 
L 959.29618 110.962762 
L 960.048539 112.187671 
L 960.800899 112.12037 
L 961.553258 111.712641 
L 962.305618 111.899851 
L 963.057978 111.629357 
L 963.810337 110.581696 
L 966.067416 139.825401 
L 968.324494 164.898222 
L 970.581573 186.395033 
L 972.838652 204.825848 
L 975.84809 225.094946 
L 977.352809 233.058809 
L 979.609888 244.83421 
L 981.866966 254.930143 
L 984.124045 263.586142 
L 984.876404 266.187873 
L 985.628764 268.216433 
L 986.381124 269.858843 
L 987.133483 272.146937 
L 988.638202 275.521635 
L 990.895281 281.240772 
L 993.15236 285.896746 
L 993.904719 286.825687 
L 995.409438 289.483421 
L 996.161798 290.051493 
L 998.418876 293.598005 
L 999.171236 293.654775 
L 999.923596 294.003693 
L 1001.428315 296.111356 
L 1005.190112 300.462477 
L 1007.447191 302.624425 
L 1008.199551 303.274241 
L 1008.95191 303.175494 
L 1012.713708 305.886569 
L 1014.970787 307.274907 
L 1017.227865 308.465233 
L 1017.980225 308.691429 
L 1018.732584 308.611099 
L 1020.989663 309.610851 
L 1021.742022 309.603158 
L 1022.494382 309.904037 
L 1023.246742 309.771167 
L 1023.999101 309.766308 
L 1026.25618 310.601298 
L 1027.008539 310.126933 
L 1027.760899 310.27574 
L 1030.770337 311.267206 
L 1034.532135 312.252061 
L 1035.284494 312.420495 
L 1036.036854 311.469028 
L 1039.798652 312.408226 
L 1040.551011 311.94533 
L 1041.303371 312.129101 
L 1042.05573 311.898647 
L 1043.560449 312.261552 
L 1044.312809 312.227116 
L 1045.817528 311.706346 
L 1046.569888 309.925514 
L 1049.579326 310.981945 
L 1050.331685 311.213885 
L 1051.836404 310.15685 
L 1052.588764 310.430045 
L 1053.341124 310.261989 
L 1054.845843 310.784468 
L 1055.598202 309.712046 
L 1056.350562 309.022522 
L 1059.36 310.246452 
L 1060.11236 309.827276 
L 1060.864719 310.11695 
L 1061.617079 309.2179 
L 1062.369438 309.34256 
L 1063.121798 309.048681 
L 1063.874157 309.144062 
L 1066.883596 310.336209 
L 1069.140674 311.089917 
L 1069.893034 311.135182 
L 1070.645393 311.35946 
L 1071.397753 311.42705 
L 1072.150112 311.636735 
L 1072.902472 311.258337 
L 1073.654831 311.322923 
L 1074.407191 310.356385 
L 1075.159551 310.619603 
L 1075.91191 310.586165 
L 1076.66427 310.829242 
L 1077.416629 310.178021 
L 1078.921348 309.818462 
L 1079.673708 309.226763 
L 1080.426067 309.546462 
L 1081.178427 309.68442 
L 1081.930787 309.981237 
L 1082.683146 310.132803 
L 1083.435506 309.790428 
L 1084.187865 310.081944 
L 1084.940225 309.647362 
L 1085.692584 309.946031 
L 1086.444944 310.073035 
L 1087.949663 310.613937 
L 1088.702022 310.707634 
L 1091.711461 311.618986 
L 1092.46382 311.01096 
L 1094.720899 311.668431 
L 1095.473258 311.13519 
L 1096.225618 310.993282 
L 1096.977978 310.487545 
L 1097.730337 309.468068 
L 1099.235056 310.067954 
L 1099.987416 309.024688 
L 1102.996854 310.248216 
L 1105.253933 310.936646 
L 1106.758652 311.393346 
L 1107.511011 311.0545 
L 1109.01573 311.499709 
L 1109.76809 311.257781 
L 1110.520449 311.404974 
L 1111.272809 311.248729 
L 1113.529888 311.862946 
L 1114.282247 310.785205 
L 1114.282247 310.785205 
" clip-path="url(#pf11288f6bb)" style="fill: none; stroke: #000000; stroke-width: 5; stroke-linecap: square"/>
   </g>
   <g id="line2d_36">
    <path d="M 814.843146 312.796973 
L 815.595506 311.944734 
L 817.852584 311.350936 
L 818.604944 311.544239 
L 819.357303 311.472926 
L 820.109663 311.549729 
L 820.862022 311.425835 
L 822.366742 310.450485 
L 823.119101 310.439975 
L 824.62382 310.945101 
L 826.128539 310.979445 
L 826.880899 311.21151 
L 828.385618 311.170305 
L 829.137978 311.335174 
L 829.890337 311.354437 
L 832.147416 311.896324 
L 832.899775 311.768129 
L 835.156854 312.285788 
L 835.909213 312.046296 
L 838.166292 312.468641 
L 838.918652 312.626246 
L 839.671011 312.410192 
L 840.423371 312.358487 
L 841.17573 312.058771 
L 841.92809 312.084846 
L 842.680449 311.644439 
L 843.432809 311.722886 
L 846.442247 312.445915 
L 847.194607 312.237167 
L 847.946966 312.406346 
L 848.699326 312.109749 
L 852.461124 312.904004 
L 853.965843 313.084087 
L 856.222921 313.311574 
L 857.72764 313.536718 
L 859.23236 313.162811 
L 860.737079 312.641837 
L 861.489438 312.64798 
L 862.994157 312.865533 
L 864.498876 312.502617 
L 866.003596 312.723008 
L 866.755955 312.849324 
L 867.508315 312.506705 
L 868.260674 312.314746 
L 870.517753 312.720994 
L 871.270112 312.749681 
L 872.022472 312.893234 
L 873.527191 312.551726 
L 874.279551 312.705177 
L 875.03191 312.565659 
L 875.78427 312.54426 
L 876.536629 312.698085 
L 879.546067 312.88087 
L 880.298427 313.017864 
L 881.050787 312.553897 
L 881.803146 311.926996 
L 882.555506 311.991028 
L 886.317303 312.81214 
L 888.574382 313.209484 
L 890.831461 306.753333 
L 892.33618 303.124076 
L 895.345618 297.964238 
L 896.097978 296.52489 
L 897.602697 294.582999 
L 898.355056 293.876246 
L 899.107416 293.414396 
L 900.612135 292.004168 
L 902.116854 289.425799 
L 902.869213 288.419363 
L 903.621573 287.860741 
L 904.373933 286.989261 
L 905.126292 286.594963 
L 905.878652 285.94637 
L 907.383371 284.296913 
L 908.13573 283.819596 
L 908.88809 283.521348 
L 909.640449 282.972528 
L 910.392809 282.120333 
L 911.897528 281.765386 
L 912.649888 281.285098 
L 913.402247 280.95863 
L 914.154607 281.055437 
L 914.906966 280.753421 
L 915.659326 280.727151 
L 916.411685 280.956975 
L 917.164045 280.917099 
L 917.916404 280.75388 
L 918.668764 280.745844 
L 920.173483 280.024876 
L 920.925843 279.874549 
L 921.678202 279.033392 
L 922.430562 278.662817 
L 923.935281 278.283933 
L 924.68764 278.779406 
L 925.44 278.775943 
L 929.201798 278.136323 
L 929.954157 278.200581 
L 930.706517 278.637567 
L 931.458876 278.876258 
L 932.211236 278.805527 
L 932.963596 278.397102 
L 933.715955 278.954252 
L 934.468315 278.640689 
L 935.220674 278.470847 
L 936.725393 278.756493 
L 937.477753 278.063854 
L 938.982472 277.658571 
L 942.74427 275.903766 
L 944.248989 276.1523 
L 945.001348 276.427088 
L 945.753708 276.06382 
L 946.506067 275.99641 
L 947.258427 275.775692 
L 948.010787 275.91999 
L 948.763146 275.662734 
L 950.267865 274.812555 
L 951.772584 274.419171 
L 953.277303 274.115609 
L 954.029663 274.50744 
L 954.782022 274.607768 
L 955.534382 274.483064 
L 956.286742 274.58225 
L 957.039101 274.460349 
L 959.29618 273.593365 
L 960.048539 273.462805 
L 962.305618 274.032633 
L 963.810337 274.970479 
L 966.067416 280.768225 
L 968.324494 285.739066 
L 970.581573 290.000941 
L 972.838652 293.654967 
L 975.09573 296.787836 
L 975.84809 297.729482 
L 976.600449 298.218899 
L 978.857528 300.700838 
L 981.114607 302.786774 
L 987.885843 307.328725 
L 988.638202 307.270518 
L 990.142921 308.084666 
L 992.4 309.080433 
L 995.409438 310.293621 
L 996.161798 310.551666 
L 996.914157 310.621536 
L 997.666517 310.871497 
L 998.418876 310.79586 
L 999.171236 310.357318 
L 1000.675955 310.445494 
L 1001.428315 310.704257 
L 1002.933034 310.449799 
L 1005.942472 311.408978 
L 1009.70427 312.361761 
L 1012.713708 312.912446 
L 1014.970787 313.249487 
L 1019.484944 313.852634 
L 1020.989663 313.948034 
L 1023.246742 314.155611 
L 1023.999101 313.970817 
L 1026.25618 314.171109 
L 1029.265618 314.230892 
L 1035.284494 314.67684 
L 1036.036854 314.254133 
L 1036.789213 314.190849 
L 1039.798652 314.456086 
L 1040.551011 314.280986 
L 1042.80809 314.377112 
L 1043.560449 314.12245 
L 1044.312809 313.688237 
L 1045.065169 313.448094 
L 1045.817528 312.660562 
L 1046.569888 312.309386 
L 1048.826966 312.781669 
L 1051.084045 313.014713 
L 1051.836404 312.704351 
L 1056.350562 313.476928 
L 1059.36 313.874593 
L 1060.11236 313.665157 
L 1063.121798 314.026289 
L 1063.874157 313.680105 
L 1064.626517 313.777137 
L 1066.131236 313.274122 
L 1067.635955 313.415135 
L 1069.140674 313.630182 
L 1069.893034 313.546718 
L 1070.645393 313.650419 
L 1071.397753 313.356908 
L 1073.654831 313.667664 
L 1075.159551 313.540604 
L 1080.426067 313.844103 
L 1081.178427 313.760031 
L 1084.940225 314.18096 
L 1087.197303 313.975276 
L 1093.21618 314.529108 
L 1096.225618 314.731601 
L 1097.730337 314.378486 
L 1098.482697 313.794817 
L 1099.235056 313.886114 
L 1099.987416 313.247603 
L 1103.749213 313.782655 
L 1105.253933 313.886868 
L 1106.758652 314.055921 
L 1107.511011 313.816392 
L 1108.263371 313.90661 
L 1109.01573 313.767307 
L 1109.76809 313.405999 
L 1111.272809 313.098157 
L 1113.529888 313.369787 
L 1114.282247 313.482335 
L 1114.282247 313.482335 
" clip-path="url(#pf11288f6bb)" style="fill: none; stroke: #ff0000; stroke-width: 5; stroke-linecap: square"/>
   </g>
   <g id="line2d_37">
    <path d="M 814.843146 311.259772 
L 815.595506 310.745161 
L 817.100225 311.220531 
L 818.604944 310.950394 
L 820.109663 311.405754 
L 820.862022 311.277562 
L 821.614382 311.030638 
L 823.119101 311.478174 
L 823.871461 311.534059 
L 824.62382 311.738394 
L 825.37618 311.695086 
L 827.633258 312.254983 
L 828.385618 311.693274 
L 829.137978 310.700172 
L 830.642697 311.179928 
L 831.395056 310.801621 
L 835.156854 311.8918 
L 836.661573 312.255372 
L 837.413933 312.08527 
L 839.671011 312.589518 
L 840.423371 312.378888 
L 841.92809 312.69497 
L 842.680449 312.451149 
L 847.194607 313.290801 
L 847.946966 313.407299 
L 849.451685 312.202328 
L 850.204045 311.811425 
L 852.461124 312.35473 
L 853.213483 312.191129 
L 853.965843 312.36261 
L 854.718202 312.119257 
L 855.470562 311.733162 
L 856.975281 312.010042 
L 859.984719 312.623611 
L 860.737079 312.741734 
L 861.489438 312.031875 
L 862.241798 311.645543 
L 863.746517 310.5378 
L 864.498876 310.608895 
L 865.251236 310.519624 
L 866.003596 310.77468 
L 867.508315 310.73345 
L 868.260674 310.187089 
L 869.765393 310.716871 
L 870.517753 309.941276 
L 872.022472 310.423383 
L 874.279551 311.164658 
L 875.78427 310.781659 
L 878.793708 311.67928 
L 879.546067 311.67745 
L 880.298427 311.106165 
L 881.050787 310.850871 
L 884.812584 311.929909 
L 888.574382 312.764847 
L 889.326742 301.762724 
L 891.58382 274.627424 
L 893.840899 253.172365 
L 895.345618 242.753991 
L 896.097978 239.203336 
L 897.602697 229.61884 
L 898.355056 226.599278 
L 899.859775 218.016464 
L 901.364494 211.483856 
L 902.116854 206.013452 
L 902.869213 202.31918 
L 903.621573 200.224493 
L 904.373933 198.663019 
L 905.126292 195.759681 
L 905.878652 194.186419 
L 906.631011 193.250486 
L 907.383371 189.589874 
L 908.13573 187.009826 
L 910.392809 182.234224 
L 911.145169 180.329132 
L 913.402247 175.508147 
L 914.154607 173.504527 
L 914.906966 172.138841 
L 915.659326 170.467666 
L 916.411685 169.270527 
L 917.164045 167.66691 
L 917.916404 164.939779 
L 918.668764 164.016609 
L 919.421124 163.714832 
L 920.173483 161.892882 
L 920.925843 161.522392 
L 921.678202 160.285676 
L 922.430562 160.492191 
L 923.182921 160.318749 
L 923.935281 160.393606 
L 925.44 161.862753 
L 926.19236 160.98364 
L 926.944719 160.840354 
L 927.697079 161.414282 
L 928.449438 161.5235 
L 929.201798 161.784232 
L 929.954157 161.79406 
L 931.458876 160.020996 
L 932.211236 159.05322 
L 932.963596 158.73261 
L 933.715955 157.964068 
L 934.468315 158.78194 
L 935.220674 158.527268 
L 935.973034 157.830933 
L 937.477753 157.018325 
L 938.230112 157.664005 
L 938.982472 157.18051 
L 939.734831 155.957058 
L 940.487191 155.231702 
L 941.239551 155.347235 
L 941.99191 156.133057 
L 942.74427 154.755706 
L 943.496629 155.47006 
L 944.248989 154.352995 
L 945.001348 153.632373 
L 945.753708 153.283102 
L 946.506067 154.710901 
L 947.258427 153.759136 
L 948.010787 153.526876 
L 949.515506 154.159158 
L 950.267865 153.104509 
L 951.020225 154.176447 
L 951.772584 154.441676 
L 953.277303 155.329189 
L 954.029663 155.357518 
L 954.782022 154.845618 
L 955.534382 155.260713 
L 956.286742 154.441752 
L 957.039101 153.999823 
L 957.791461 153.941631 
L 958.54382 154.325348 
L 960.048539 154.667687 
L 960.800899 153.8695 
L 961.553258 153.810285 
L 962.305618 154.760383 
L 963.057978 154.032281 
L 963.810337 152.860849 
L 966.067416 176.074491 
L 968.324494 195.977275 
L 970.581573 213.041429 
L 972.838652 227.671803 
L 974.343371 236.246833 
L 977.352809 250.773566 
L 979.609888 260.022397 
L 981.866966 267.952112 
L 983.371685 272.506665 
L 984.876404 276.71029 
L 987.133483 282.073604 
L 987.885843 282.768673 
L 990.142921 287.425165 
L 990.895281 288.834946 
L 991.64764 289.825692 
L 992.4 290.473945 
L 993.904719 292.92576 
L 994.657079 294.013034 
L 995.409438 294.890706 
L 996.161798 295.358931 
L 997.666517 297.156014 
L 998.418876 298.079251 
L 999.171236 297.892599 
L 999.923596 298.384184 
L 1001.428315 300.003416 
L 1002.180674 300.144759 
L 1004.437753 302.352024 
L 1006.694831 304.244477 
L 1008.199551 305.307162 
L 1008.95191 305.233451 
L 1010.456629 306.246213 
L 1011.208989 306.369171 
L 1011.961348 306.613549 
L 1014.218427 307.898201 
L 1017.227865 309.330686 
L 1017.980225 309.645189 
L 1018.732584 309.77283 
L 1019.484944 309.724637 
L 1020.989663 310.299509 
L 1021.742022 309.792241 
L 1022.494382 309.864689 
L 1023.246742 310.079653 
L 1023.999101 309.650061 
L 1025.50382 310.232204 
L 1027.008539 310.232825 
L 1027.760899 309.795224 
L 1030.770337 310.875822 
L 1034.532135 311.949215 
L 1035.284494 312.132792 
L 1036.036854 311.068286 
L 1039.798652 312.09814 
L 1040.551011 311.828041 
L 1041.303371 312.017676 
L 1042.05573 311.90587 
L 1045.065169 312.594957 
L 1045.817528 312.598055 
L 1046.569888 311.086883 
L 1050.331685 312.11253 
L 1051.084045 312.287941 
L 1051.836404 312.049628 
L 1052.588764 312.228183 
L 1053.341124 312.079344 
L 1054.845843 312.424631 
L 1055.598202 312.134024 
L 1056.350562 311.643054 
L 1059.36 312.380891 
L 1060.864719 312.592473 
L 1061.617079 311.576368 
L 1062.369438 311.664158 
L 1063.874157 310.997977 
L 1064.626517 311.229115 
L 1065.378876 311.212392 
L 1066.131236 310.572498 
L 1069.140674 311.508917 
L 1069.893034 311.412371 
L 1070.645393 311.62279 
L 1071.397753 311.61904 
L 1073.654831 312.189784 
L 1074.407191 311.416736 
L 1075.159551 311.626937 
L 1075.91191 311.594896 
L 1076.66427 311.757459 
L 1077.416629 310.840442 
L 1078.168989 310.889785 
L 1078.921348 310.577286 
L 1079.673708 309.663925 
L 1080.426067 309.961766 
L 1081.178427 309.724708 
L 1082.683146 310.299572 
L 1083.435506 310.210568 
L 1084.187865 310.481077 
L 1084.940225 310.35241 
L 1087.949663 311.329654 
L 1088.702022 311.02156 
L 1089.454382 310.884958 
L 1091.711461 311.560401 
L 1092.46382 310.987704 
L 1095.473258 311.683649 
L 1096.225618 311.634683 
L 1096.977978 311.17482 
L 1097.730337 310.366961 
L 1099.235056 310.879205 
L 1099.987416 310.27903 
L 1102.996854 311.269886 
L 1103.749213 311.487429 
L 1104.501573 311.526204 
L 1106.758652 312.110188 
L 1107.511011 311.748483 
L 1109.01573 312.126029 
L 1109.76809 312.017505 
L 1110.520449 312.197667 
L 1111.272809 312.120891 
L 1112.025169 312.295884 
L 1112.777528 311.708998 
L 1113.529888 311.904585 
L 1114.282247 310.920424 
L 1114.282247 310.920424 
" clip-path="url(#pf11288f6bb)" style="fill: none; stroke: #0000ff; stroke-width: 5; stroke-linecap: square"/>
   </g>
   <g id="patch_11">
    <path d="M 814.090787 336.640156 
L 814.090787 31.720156 
" style="fill: none; stroke: #000000; stroke-width: 5; stroke-linejoin: miter; stroke-linecap: square"/>
   </g>
   <g id="patch_12">
    <path d="M 814.090787 336.640156 
L 1115.034607 336.640156 
" style="fill: none; stroke: #000000; stroke-width: 5; stroke-linejoin: miter; stroke-linecap: square"/>
   </g>
   <g id="patch_13">
    <path d="M 889.326742 330.541756 
L 964.562697 330.541756 
L 964.562697 319.869556 
L 889.326742 319.869556 
z
" style="fill: #8c5a2b; stroke: #8c5a2b; stroke-linejoin: miter"/>
   </g>
   <g id="text_30">
    <!-- Novel | Naive -->
    <g transform="translate(901.26004 21.720156) scale(0.19 -0.19)">
     <use xlink:href="#DejaVuSans-4e"/>
     <use xlink:href="#DejaVuSans-6f" transform="translate(74.804688 0)"/>
     <use xlink:href="#DejaVuSans-76" transform="translate(135.986328 0)"/>
     <use xlink:href="#DejaVuSans-65" transform="translate(195.166016 0)"/>
     <use xlink:href="#DejaVuSans-6c" transform="translate(256.689453 0)"/>
     <use xlink:href="#DejaVuSans-20" transform="translate(284.472656 0)"/>
     <use xlink:href="#DejaVuSans-7c" transform="translate(316.259766 0)"/>
     <use xlink:href="#DejaVuSans-20" transform="translate(349.951172 0)"/>
     <use xlink:href="#DejaVuSans-4e" transform="translate(381.738281 0)"/>
     <use xlink:href="#DejaVuSans-61" transform="translate(456.542969 0)"/>
     <use xlink:href="#DejaVuSans-69" transform="translate(517.822266 0)"/>
     <use xlink:href="#DejaVuSans-76" transform="translate(545.605469 0)"/>
     <use xlink:href="#DejaVuSans-65" transform="translate(604.785156 0)"/>
    </g>
   </g>
  </g>
  <g id="axes_4">
   <g id="patch_14">
    <path d="M 1160.17618 336.640156 
L 1461.12 336.640156 
L 1461.12 31.720156 
L 1160.17618 31.720156 
z
" style="fill: #ffffff"/>
   </g>
   <g id="matplotlib.axis_7">
    <g id="xtick_16">
     <g id="line2d_38">
      <g>
       <use xlink:href="#m960e30428c" x="1160.17618" y="336.640156" style="stroke: #000000; stroke-width: 1.6"/>
      </g>
     </g>
     <g id="text_31">
      <!-- -1 -->
      <g transform="translate(1144.22368 369.455156) scale(0.32 -0.32)">
       <use xlink:href="#DejaVuSans-2d"/>
       <use xlink:href="#DejaVuSans-31" transform="translate(36.083984 0)"/>
      </g>
     </g>
    </g>
    <g id="xtick_17">
     <g id="line2d_39">
      <g>
       <use xlink:href="#m960e30428c" x="1235.412135" y="336.640156" style="stroke: #000000; stroke-width: 1.6"/>
      </g>
     </g>
     <g id="text_32">
      <!-- 0 -->
      <g transform="translate(1225.232135 369.455156) scale(0.32 -0.32)">
       <use xlink:href="#DejaVuSans-30"/>
      </g>
     </g>
    </g>
    <g id="xtick_18">
     <g id="line2d_40">
      <g>
       <use xlink:href="#m960e30428c" x="1310.64809" y="336.640156" style="stroke: #000000; stroke-width: 1.6"/>
      </g>
     </g>
     <g id="text_33">
      <!-- 1 -->
      <g transform="translate(1300.46809 369.455156) scale(0.32 -0.32)">
       <use xlink:href="#DejaVuSans-31"/>
      </g>
     </g>
    </g>
    <g id="xtick_19">
     <g id="line2d_41">
      <g>
       <use xlink:href="#m960e30428c" x="1385.884045" y="336.640156" style="stroke: #000000; stroke-width: 1.6"/>
      </g>
     </g>
     <g id="text_34">
      <!-- 2 -->
      <g transform="translate(1375.704045 369.455156) scale(0.32 -0.32)">
       <use xlink:href="#DejaVuSans-32"/>
      </g>
     </g>
    </g>
    <g id="xtick_20">
     <g id="line2d_42">
      <g>
       <use xlink:href="#m960e30428c" x="1461.12" y="336.640156" style="stroke: #000000; stroke-width: 1.6"/>
      </g>
     </g>
     <g id="text_35">
      <!-- 3 -->
      <g transform="translate(1450.94 369.455156) scale(0.32 -0.32)">
       <use xlink:href="#DejaVuSans-33"/>
      </g>
     </g>
    </g>
    <g id="text_36">
     <!-- Time (s) -->
     <g transform="translate(1245.59559 404.425156) scale(0.32 -0.32)">
      <use xlink:href="#DejaVuSans-54"/>
      <use xlink:href="#DejaVuSans-69" transform="translate(57.958984 0)"/>
      <use xlink:href="#DejaVuSans-6d" transform="translate(85.742188 0)"/>
      <use xlink:href="#DejaVuSans-65" transform="translate(183.154297 0)"/>
      <use xlink:href="#DejaVuSans-20" transform="translate(244.677734 0)"/>
      <use xlink:href="#DejaVuSans-28" transform="translate(276.464844 0)"/>
      <use xlink:href="#DejaVuSans-73" transform="translate(315.478516 0)"/>
      <use xlink:href="#DejaVuSans-29" transform="translate(367.578125 0)"/>
     </g>
    </g>
   </g>
   <g id="matplotlib.axis_8">
    <g id="ytick_13">
     <g id="line2d_43">
      <g>
       <use xlink:href="#ma05908a5d7" x="1160.17618" y="315.620748" style="stroke: #000000; stroke-width: 1.6"/>
      </g>
     </g>
    </g>
    <g id="ytick_14">
     <g id="line2d_44">
      <g>
       <use xlink:href="#ma05908a5d7" x="1160.17618" y="236.193943" style="stroke: #000000; stroke-width: 1.6"/>
      </g>
     </g>
    </g>
    <g id="ytick_15">
     <g id="line2d_45">
      <g>
       <use xlink:href="#ma05908a5d7" x="1160.17618" y="156.767138" style="stroke: #000000; stroke-width: 1.6"/>
      </g>
     </g>
    </g>
    <g id="ytick_16">
     <g id="line2d_46">
      <g>
       <use xlink:href="#ma05908a5d7" x="1160.17618" y="77.340333" style="stroke: #000000; stroke-width: 1.6"/>
      </g>
     </g>
    </g>
   </g>
   <g id="line2d_47">
    <path d="M 1160.928539 312.506473 
L 1161.680899 311.784789 
L 1165.442697 312.652556 
L 1169.956854 313.438854 
L 1174.471011 314.016855 
L 1175.97573 314.075463 
L 1181.994607 314.595575 
L 1182.746966 314.646833 
L 1183.499326 314.561763 
L 1185.756404 314.712801 
L 1186.508764 314.473137 
L 1193.28 314.897467 
L 1194.784719 314.967987 
L 1195.537079 314.193769 
L 1196.289438 314.088471 
L 1198.546517 314.307012 
L 1199.298876 313.091862 
L 1200.051236 313.218307 
L 1200.803596 312.852259 
L 1201.555955 312.728893 
L 1203.060674 312.912605 
L 1206.822472 313.525238 
L 1208.327191 312.359011 
L 1209.079551 311.977372 
L 1209.83191 311.737802 
L 1213.593708 312.616198 
L 1214.346067 312.341129 
L 1215.850787 312.660892 
L 1216.603146 311.772683 
L 1220.364944 312.643188 
L 1224.879101 313.431968 
L 1225.631461 313.541407 
L 1226.38382 313.078354 
L 1227.13618 312.845354 
L 1231.650337 313.580578 
L 1234.659775 313.959017 
L 1235.412135 296.702685 
L 1237.669213 256.399574 
L 1239.173933 236.232597 
L 1239.926292 226.229461 
L 1241.431011 211.775152 
L 1242.183371 206.196533 
L 1242.93573 199.637925 
L 1243.68809 190.175458 
L 1244.440449 183.942231 
L 1245.945169 169.424891 
L 1247.449888 155.134802 
L 1248.202247 146.002272 
L 1248.954607 139.429697 
L 1249.706966 134.032247 
L 1251.211685 125.524708 
L 1253.468764 118.088992 
L 1254.221124 114.61969 
L 1254.973483 111.778257 
L 1255.725843 110.116021 
L 1256.478202 105.95685 
L 1257.230562 102.805364 
L 1260.24 87.121014 
L 1261.744719 80.243897 
L 1262.497079 78.052603 
L 1264.001798 72.598551 
L 1264.754157 72.446583 
L 1265.506517 73.62773 
L 1266.258876 72.993611 
L 1267.011236 71.865071 
L 1267.763596 70.081033 
L 1268.515955 69.607366 
L 1269.268315 70.071451 
L 1270.020674 70.18956 
L 1270.773034 70.101466 
L 1271.525393 70.205467 
L 1272.277753 69.48867 
L 1273.030112 69.04248 
L 1273.782472 70.56182 
L 1274.534831 70.394305 
L 1276.039551 69.820765 
L 1276.79191 68.457787 
L 1277.54427 66.065119 
L 1278.296629 64.752721 
L 1279.048989 64.895032 
L 1279.801348 65.777563 
L 1280.553708 65.55 
L 1281.306067 65.438878 
L 1282.058427 64.372678 
L 1282.810787 64.508891 
L 1283.563146 64.213779 
L 1284.315506 64.671842 
L 1285.067865 64.471926 
L 1285.820225 65.327227 
L 1286.572584 66.579936 
L 1287.324944 65.873668 
L 1288.077303 64.595565 
L 1288.829663 61.808291 
L 1289.582022 64.083172 
L 1290.334382 63.073991 
L 1291.086742 62.755454 
L 1291.839101 63.74852 
L 1292.591461 66.926233 
L 1293.34382 66.059438 
L 1294.09618 64.110289 
L 1294.848539 63.219293 
L 1295.600899 61.749076 
L 1296.353258 59.247862 
L 1297.105618 59.989958 
L 1297.857978 58.259075 
L 1298.610337 58.380252 
L 1299.362697 58.145511 
L 1300.115056 58.757606 
L 1300.867416 57.690194 
L 1301.619775 55.982452 
L 1302.372135 55.265504 
L 1303.124494 54.371118 
L 1303.876854 52.749122 
L 1304.629213 53.64311 
L 1305.381573 52.752057 
L 1306.133933 54.068166 
L 1307.638652 53.252709 
L 1308.391011 53.355327 
L 1309.143371 53.760803 
L 1309.89573 53.676818 
L 1312.152809 91.036581 
L 1314.409888 123.06792 
L 1316.666966 150.530786 
L 1318.924045 174.076751 
L 1321.181124 194.264468 
L 1322.685843 205.640359 
L 1324.942921 221.326319 
L 1327.2 234.775063 
L 1329.457079 246.305678 
L 1331.714157 256.191742 
L 1333.971236 264.667809 
L 1336.228315 271.934972 
L 1336.980674 274.119259 
L 1339.990112 281.459975 
L 1341.494831 283.841059 
L 1342.247191 284.621431 
L 1344.50427 288.922562 
L 1345.256629 289.411942 
L 1346.008989 290.177598 
L 1347.513708 292.453582 
L 1348.266067 293.052099 
L 1350.523146 296.270955 
L 1352.780225 299.030719 
L 1354.284944 300.648247 
L 1360.30382 305.545845 
L 1362.560899 306.982778 
L 1365.570337 308.585068 
L 1367.075056 309.271047 
L 1367.827416 309.428587 
L 1369.332135 309.947218 
L 1370.084494 309.755919 
L 1372.341573 310.592391 
L 1373.093933 310.605573 
L 1373.846292 310.411902 
L 1376.85573 311.37811 
L 1380.617528 312.337876 
L 1381.369888 312.502019 
L 1382.122247 312.338572 
L 1385.884045 313.081063 
L 1387.388764 313.328682 
L 1388.893483 313.44803 
L 1391.902921 313.851056 
L 1392.655281 311.56235 
L 1396.417079 312.480437 
L 1397.169438 311.772 
L 1397.921798 310.755241 
L 1398.674157 310.998517 
L 1399.426517 310.771711 
L 1400.931236 311.244492 
L 1402.435955 309.701545 
L 1405.445393 310.770861 
L 1406.950112 311.243725 
L 1407.702472 310.845468 
L 1410.71191 311.684274 
L 1411.46427 311.881098 
L 1412.216629 311.159252 
L 1415.978427 312.168528 
L 1418.235506 312.660901 
L 1418.987865 312.687586 
L 1419.740225 312.834244 
L 1420.492584 311.55956 
L 1422.749663 312.138787 
L 1423.502022 311.101669 
L 1424.254382 311.327623 
L 1425.006742 310.443271 
L 1425.759101 309.747828 
L 1426.511461 310.041474 
L 1427.26382 309.997537 
L 1430.273258 311.040607 
L 1431.025618 311.126183 
L 1434.787416 312.14294 
L 1435.539775 312.169548 
L 1437.796854 312.661776 
L 1438.549213 312.081737 
L 1440.806292 312.586489 
L 1441.558652 312.375759 
L 1442.311011 312.538008 
L 1443.063371 311.796666 
L 1443.81573 310.083849 
L 1445.320449 310.623697 
L 1446.072809 310.506738 
L 1449.082247 311.455355 
L 1452.844045 312.397646 
L 1457.358202 313.251472 
L 1459.615281 313.58939 
L 1460.36764 312.501107 
L 1460.36764 312.501107 
" clip-path="url(#p669f187e56)" style="fill: none; stroke: #000000; stroke-width: 5; stroke-linecap: square"/>
   </g>
   <g id="line2d_48">
    <path d="M 1160.928539 312.925887 
L 1161.680899 312.902389 
L 1162.433258 313.038307 
L 1163.185618 312.955375 
L 1163.937978 312.483274 
L 1166.195056 312.930757 
L 1166.947416 312.925013 
L 1167.699775 312.299489 
L 1171.461573 312.886416 
L 1172.213933 312.789691 
L 1173.718652 313.065719 
L 1174.471011 312.62271 
L 1175.223371 312.375829 
L 1177.480449 312.838636 
L 1178.232809 312.435807 
L 1180.489888 312.89006 
L 1181.242247 312.424689 
L 1185.756404 313.271351 
L 1186.508764 313.388821 
L 1187.261124 313.322422 
L 1188.013483 313.437338 
L 1188.765843 313.198291 
L 1192.52764 313.746297 
L 1193.28 313.647367 
L 1194.784719 313.839772 
L 1195.537079 313.782018 
L 1198.546517 314.123091 
L 1199.298876 313.746172 
L 1200.051236 313.839901 
L 1200.803596 313.615815 
L 1202.308315 313.811296 
L 1203.060674 313.55698 
L 1203.813034 313.660168 
L 1204.565393 313.531847 
L 1206.822472 313.829776 
L 1207.574831 313.012524 
L 1209.079551 312.765844 
L 1209.83191 312.908589 
L 1211.336629 313.001869 
L 1212.088989 313.132813 
L 1212.841348 312.892035 
L 1215.850787 313.394866 
L 1216.603146 312.910877 
L 1217.355506 313.042575 
L 1218.107865 312.975149 
L 1218.860225 313.107429 
L 1219.612584 312.490961 
L 1220.364944 312.64745 
L 1221.117303 312.544112 
L 1221.869663 311.439879 
L 1225.631461 312.385672 
L 1226.38382 312.547426 
L 1228.640899 312.573309 
L 1231.650337 313.094427 
L 1232.402697 312.78631 
L 1234.659775 313.190572 
L 1236.916854 293.815461 
L 1237.669213 289.354951 
L 1238.421573 283.894747 
L 1239.926292 274.797174 
L 1240.678652 271.923283 
L 1244.440449 253.729396 
L 1246.697528 245.865306 
L 1248.202247 239.743651 
L 1250.459326 234.238981 
L 1251.964045 231.841834 
L 1252.716404 230.051594 
L 1254.221124 227.520848 
L 1255.725843 226.576128 
L 1256.478202 224.037817 
L 1257.230562 223.711289 
L 1257.982921 222.789567 
L 1259.48764 219.579406 
L 1261.744719 218.509769 
L 1262.497079 218.588622 
L 1264.001798 217.867754 
L 1264.754157 217.5823 
L 1265.506517 217.824748 
L 1266.258876 217.512669 
L 1267.011236 216.69528 
L 1267.763596 215.470617 
L 1268.515955 214.497008 
L 1269.268315 214.625125 
L 1270.020674 214.298152 
L 1270.773034 214.879664 
L 1271.525393 215.068398 
L 1272.277753 215.383403 
L 1273.030112 214.780795 
L 1273.782472 215.016464 
L 1275.287191 213.800445 
L 1276.79191 214.403782 
L 1277.54427 213.9783 
L 1278.296629 213.832477 
L 1279.048989 213.467034 
L 1279.801348 214.311437 
L 1281.306067 213.261191 
L 1282.058427 212.447551 
L 1282.810787 212.245505 
L 1283.563146 212.163527 
L 1284.315506 211.651419 
L 1285.067865 211.306304 
L 1286.572584 211.993758 
L 1287.324944 210.947594 
L 1288.077303 210.448646 
L 1289.582022 208.958886 
L 1290.334382 208.415626 
L 1291.086742 209.148737 
L 1291.839101 209.001304 
L 1292.591461 209.927694 
L 1293.34382 210.02305 
L 1294.09618 209.057282 
L 1294.848539 208.981676 
L 1295.600899 208.619008 
L 1296.353258 208.644478 
L 1297.105618 208.883016 
L 1297.857978 208.010918 
L 1298.610337 208.002586 
L 1299.362697 207.674846 
L 1300.115056 207.990229 
L 1300.867416 208.059586 
L 1301.619775 207.638771 
L 1302.372135 207.996194 
L 1303.124494 207.886863 
L 1303.876854 207.305881 
L 1304.629213 207.153979 
L 1305.381573 206.053731 
L 1306.133933 206.204714 
L 1306.886292 206.0427 
L 1307.638652 205.56749 
L 1308.391011 205.278836 
L 1309.89573 205.859675 
L 1312.152809 221.514352 
L 1314.409888 234.936282 
L 1316.666966 246.443907 
L 1318.171685 253.18865 
L 1320.428764 262.001859 
L 1322.685843 269.649254 
L 1324.942921 276.158701 
L 1327.2 281.786976 
L 1329.457079 286.612518 
L 1330.961798 289.323007 
L 1331.714157 290.337675 
L 1332.466517 291.113519 
L 1334.723596 294.608865 
L 1336.980674 297.605684 
L 1337.733034 298.087879 
L 1339.237753 299.775691 
L 1339.990112 300.197226 
L 1340.742472 300.801332 
L 1341.494831 300.952473 
L 1342.999551 302.245176 
L 1345.256629 304.152868 
L 1347.513708 305.788475 
L 1349.018427 306.747122 
L 1350.523146 307.373004 
L 1353.532584 308.90291 
L 1355.789663 309.828128 
L 1358.799101 310.902624 
L 1362.560899 311.969953 
L 1364.817978 312.490648 
L 1365.570337 311.739668 
L 1369.332135 312.617642 
L 1371.589213 313.045961 
L 1372.341573 312.88005 
L 1374.598652 313.091109 
L 1376.85573 313.451898 
L 1377.60809 313.282854 
L 1379.865169 313.591409 
L 1380.617528 313.404573 
L 1381.369888 313.368208 
L 1382.122247 312.31753 
L 1382.874607 312.482691 
L 1383.626966 312.330742 
L 1384.379326 312.495242 
L 1385.131685 312.374698 
L 1388.893483 313.109016 
L 1390.398202 313.35391 
L 1391.150562 312.700358 
L 1391.902921 312.778635 
L 1392.655281 312.571568 
L 1396.417079 313.261351 
L 1397.921798 312.108751 
L 1400.931236 312.760204 
L 1402.435955 311.404246 
L 1406.197753 312.358099 
L 1406.950112 311.947949 
L 1408.454831 312.215011 
L 1409.207191 312.385298 
L 1409.959551 312.403446 
L 1412.968989 313.000235 
L 1413.721348 312.965176 
L 1415.226067 313.224094 
L 1415.978427 313.115931 
L 1418.987865 313.541959 
L 1419.740225 313.504144 
L 1420.492584 312.751309 
L 1421.244944 312.89478 
L 1421.997303 312.843637 
L 1424.254382 313.191098 
L 1425.006742 312.817298 
L 1425.759101 312.678658 
L 1426.511461 312.825763 
L 1427.26382 312.653218 
L 1428.01618 312.33814 
L 1429.520899 312.558464 
L 1432.530337 313.036811 
L 1434.787416 313.343541 
L 1435.539775 313.03775 
L 1436.292135 313.1669 
L 1437.044494 312.837579 
L 1437.796854 312.976738 
L 1438.549213 312.686884 
L 1443.063371 313.464088 
L 1443.81573 312.906169 
L 1444.56809 312.745197 
L 1445.320449 312.888975 
L 1446.072809 312.73435 
L 1449.834607 313.387308 
L 1451.339326 313.459004 
L 1452.844045 313.634523 
L 1453.596404 312.887833 
L 1456.605843 313.394772 
L 1457.358202 312.803806 
L 1458.862921 312.211798 
L 1459.615281 312.382246 
L 1460.36764 311.864481 
L 1460.36764 311.864481 
" clip-path="url(#p669f187e56)" style="fill: none; stroke: #ff0000; stroke-width: 5; stroke-linecap: square"/>
   </g>
   <g id="line2d_49">
    <path d="M 1160.928539 313.494837 
L 1166.195056 314.136145 
L 1170.709213 314.47368 
L 1176.72809 314.859396 
L 1177.480449 314.459857 
L 1184.251685 314.889097 
L 1193.28 315.225393 
L 1194.784719 315.181728 
L 1195.537079 314.350491 
L 1196.289438 313.859089 
L 1198.546517 314.110345 
L 1199.298876 313.983529 
L 1200.051236 314.065389 
L 1201.555955 313.540658 
L 1202.308315 313.644662 
L 1203.060674 313.42751 
L 1206.070112 313.782908 
L 1206.822472 313.848741 
L 1207.574831 313.637786 
L 1208.327191 313.143394 
L 1209.079551 312.242636 
L 1210.58427 312.503936 
L 1213.593708 313.082085 
L 1214.346067 312.803859 
L 1218.860225 313.550075 
L 1224.126742 314.17472 
L 1225.631461 314.315708 
L 1226.38382 313.69571 
L 1227.13618 313.451109 
L 1232.402697 314.105608 
L 1234.659775 314.321705 
L 1235.412135 303.345445 
L 1237.669213 280.058503 
L 1239.926292 264.387908 
L 1240.678652 260.369793 
L 1241.431011 257.173617 
L 1242.183371 255.853161 
L 1242.93573 252.392826 
L 1243.68809 246.723471 
L 1244.440449 243.61857 
L 1245.192809 238.535708 
L 1247.449888 225.973501 
L 1248.202247 220.218647 
L 1248.954607 215.664899 
L 1249.706966 212.346069 
L 1251.211685 207.333974 
L 1251.964045 206.398116 
L 1252.716404 206.040939 
L 1253.468764 203.92828 
L 1254.221124 201.469153 
L 1255.725843 198.415287 
L 1256.478202 196.518594 
L 1257.982921 191.787569 
L 1258.735281 190.310686 
L 1259.48764 188.205791 
L 1260.24 184.836636 
L 1260.99236 182.296564 
L 1263.249438 176.117885 
L 1264.001798 173.096685 
L 1264.754157 173.241627 
L 1265.506517 174.524285 
L 1266.258876 174.500964 
L 1267.763596 173.462165 
L 1268.515955 174.288256 
L 1269.268315 174.825863 
L 1270.020674 175.099832 
L 1270.773034 174.408552 
L 1271.525393 174.397995 
L 1272.277753 173.590765 
L 1273.030112 173.44783 
L 1274.534831 175.222618 
L 1275.287191 175.873647 
L 1276.039551 176.200752 
L 1276.79191 175.283102 
L 1277.54427 173.435398 
L 1278.296629 172.186761 
L 1279.048989 172.630147 
L 1279.801348 173.491641 
L 1280.553708 174.157289 
L 1281.306067 174.430879 
L 1282.058427 173.318785 
L 1282.810787 173.535091 
L 1283.563146 172.305201 
L 1284.315506 172.189933 
L 1285.067865 171.622661 
L 1285.820225 171.497744 
L 1286.572584 172.348699 
L 1287.324944 171.908901 
L 1288.077303 172.253532 
L 1288.829663 170.525139 
L 1289.582022 173.389306 
L 1290.334382 173.569092 
L 1291.086742 172.792152 
L 1291.839101 173.852832 
L 1292.591461 175.699097 
L 1294.09618 172.26016 
L 1294.848539 171.002584 
L 1295.600899 169.387633 
L 1296.353258 167.464731 
L 1297.105618 167.784204 
L 1297.857978 166.903187 
L 1298.610337 167.609313 
L 1299.362697 167.708277 
L 1300.115056 168.706873 
L 1300.867416 167.815005 
L 1301.619775 167.923106 
L 1302.372135 167.40239 
L 1303.124494 166.16324 
L 1303.876854 165.662986 
L 1304.629213 166.870985 
L 1305.381573 166.875038 
L 1306.133933 168.275141 
L 1306.886292 168.152989 
L 1307.638652 167.803151 
L 1308.391011 167.620969 
L 1309.143371 167.223949 
L 1309.89573 166.961882 
L 1312.152809 188.164348 
L 1314.409888 206.34282 
L 1316.666966 221.928595 
L 1318.924045 235.291442 
L 1321.181124 246.748411 
L 1321.933483 250.19203 
L 1323.438202 256.064733 
L 1325.695281 264.558913 
L 1327.95236 271.841609 
L 1330.209438 278.085613 
L 1332.466517 283.439063 
L 1334.723596 288.028978 
L 1336.228315 290.678536 
L 1338.485393 294.23592 
L 1339.990112 296.320942 
L 1340.742472 297.002716 
L 1342.247191 298.71428 
L 1344.50427 301.125565 
L 1345.256629 301.004267 
L 1346.761348 301.851179 
L 1349.018427 303.815064 
L 1351.275506 305.498851 
L 1353.532584 306.942487 
L 1356.542022 308.55225 
L 1364.065618 311.345384 
L 1367.075056 312.138437 
L 1368.579775 311.87303 
L 1369.332135 311.946345 
L 1370.084494 310.935121 
L 1371.589213 311.39197 
L 1372.341573 311.470271 
L 1373.093933 311.343976 
L 1373.846292 311.104791 
L 1377.60809 312.126387 
L 1381.369888 312.916878 
L 1385.884045 313.633155 
L 1391.150562 314.232738 
L 1391.902921 314.08715 
L 1392.655281 312.727871 
L 1397.169438 313.494218 
L 1397.921798 313.42669 
L 1398.674157 313.536393 
L 1399.426517 313.408676 
L 1401.683596 313.724173 
L 1402.435955 313.301704 
L 1406.950112 313.916038 
L 1407.702472 313.777724 
L 1408.454831 313.869875 
L 1409.207191 313.786033 
L 1414.473708 314.339498 
L 1418.235506 314.629341 
L 1418.987865 313.871463 
L 1419.740225 313.958928 
L 1420.492584 313.110995 
L 1422.749663 313.468949 
L 1425.006742 312.764064 
L 1425.759101 311.928593 
L 1426.511461 311.967839 
L 1430.273258 312.794197 
L 1431.777978 313.069786 
L 1433.282697 313.225553 
L 1434.035056 313.345313 
L 1434.787416 313.122123 
L 1439.301573 313.784029 
L 1440.806292 313.963109 
L 1441.558652 313.399085 
L 1442.311011 313.257238 
L 1443.063371 312.305601 
L 1443.81573 310.659615 
L 1445.320449 311.048127 
L 1446.072809 310.419462 
L 1449.082247 311.384268 
L 1452.844045 312.342641 
L 1456.605843 313.084211 
L 1459.615281 313.554723 
L 1460.36764 313.1057 
L 1460.36764 313.1057 
" clip-path="url(#p669f187e56)" style="fill: none; stroke: #0000ff; stroke-width: 5; stroke-linecap: square"/>
   </g>
   <g id="patch_15">
    <path d="M 1160.17618 336.640156 
L 1160.17618 31.720156 
" style="fill: none; stroke: #000000; stroke-width: 5; stroke-linejoin: miter; stroke-linecap: square"/>
   </g>
   <g id="patch_16">
    <path d="M 1160.17618 336.640156 
L 1461.12 336.640156 
" style="fill: none; stroke: #000000; stroke-width: 5; stroke-linejoin: miter; stroke-linecap: square"/>
   </g>
   <g id="patch_17">
    <path d="M 1235.412135 330.541756 
L 1310.64809 330.541756 
L 1310.64809 319.869556 
L 1235.412135 319.869556 
z
" style="fill: #8c5a2b; stroke: #8c5a2b; stroke-linejoin: miter"/>
   </g>
   <g id="text_37">
    <!-- Novel | Expert -->
    <g transform="translate(1243.250043 21.720156) scale(0.19 -0.19)">
     <use xlink:href="#DejaVuSans-4e"/>
     <use xlink:href="#DejaVuSans-6f" transform="translate(74.804688 0)"/>
     <use xlink:href="#DejaVuSans-76" transform="translate(135.986328 0)"/>
     <use xlink:href="#DejaVuSans-65" transform="translate(195.166016 0)"/>
     <use xlink:href="#DejaVuSans-6c" transform="translate(256.689453 0)"/>
     <use xlink:href="#DejaVuSans-20" transform="translate(284.472656 0)"/>
     <use xlink:href="#DejaVuSans-7c" transform="translate(316.259766 0)"/>
     <use xlink:href="#DejaVuSans-20" transform="translate(349.951172 0)"/>
     <use xlink:href="#DejaVuSans-45" transform="translate(381.738281 0)"/>
     <use xlink:href="#DejaVuSans-78" transform="translate(444.921875 0)"/>
     <use xlink:href="#DejaVuSans-70" transform="translate(504.101562 0)"/>
     <use xlink:href="#DejaVuSans-65" transform="translate(567.578125 0)"/>
     <use xlink:href="#DejaVuSans-72" transform="translate(629.101562 0)"/>
     <use xlink:href="#DejaVuSans-74" transform="translate(670.214844 0)"/>
    </g>
   </g>
  </g>
 </g>
 <defs>
  <clipPath id="p56ece4648f">
   <rect x="121.92" y="31.720156" width="300.94382" height="304.92"/>
  </clipPath>
  <clipPath id="pe96a45ca59">
   <rect x="468.005393" y="31.720156" width="300.94382" height="304.92"/>
  </clipPath>
  <clipPath id="pf11288f6bb">
   <rect x="814.090787" y="31.720156" width="300.94382" height="304.92"/>
  </clipPath>
  <clipPath id="p669f187e56">
   <rect x="1160.17618" y="31.720156" width="300.94382" height="304.92"/>
  </clipPath>
 </defs>
</svg>
