<?xml version="1.0" encoding="utf-8" standalone="no"?>
<!DOCTYPE svg PUBLIC "-//W3C//DTD SVG 1.1//EN"
  "http://www.w3.org/Graphics/SVG/1.1/DTD/svg11.dtd">
<svg xmlns:xlink="http://www.w3.org/1999/xlink" width="1478.5pt" height="418.280156pt" viewBox="0 0 1478.5 418.280156" xmlns="http://www.w3.org/2000/svg" version="1.1">
 <metadata>
  <rdf:RDF xmlns:dc="http://purl.org/dc/elements/1.1/" xmlns:cc="http://creativecommons.org/ns#" xmlns:rdf="http://www.w3.org/1999/02/22-rdf-syntax-ns#">
   <cc:Work>
    <dc:type rdf:resource="http://purl.org/dc/dcmitype/StillImage"/>
    <dc:date>2026-03-25T11:55:23.269432</dc:date>
    <dc:format>image/svg+xml</dc:format>
    <dc:creator>
     <cc:Agent>
      <dc:title>Matplotlib v3.10.7, https://matplotlib.org/</dc:title>
     </cc:Agent>
    </dc:creator>
   </cc:Work>
  </rdf:RDF>
 </metadata>
 <defs>
  <style type="text/css">*{stroke-linejoin: round; stroke-linecap: butt}</style>
 </defs>
 <g id="figure_1">
  <g id="patch_1">
   <path d="M 0 418.280156 
L 1478.5 418.280156 
L 1478.5 -0 
L 0 -0 
z
" style="fill: #ffffff"/>
  </g>
  <g id="axes_1">
   <g id="patch_2">
    <path d="M 121.92 336.640156 
L 422.86382 336.640156 
L 422.86382 31.720156 
L 121.92 31.720156 
z
" style="fill: #ffffff"/>
   </g>
   <g id="matplotlib.axis_1">
    <g id="xtick_1">
     <g id="line2d_1">
      <defs>
       <path id="m0dc7d2440f" d="M 0 0 
L 0 5 
" style="stroke: #000000; stroke-width: 1.6"/>
      </defs>
      <g>
       <use xlink:href="#m0dc7d2440f" x="121.92" y="336.640156" style="stroke: #000000; stroke-width: 1.6"/>
      </g>
     </g>
     <g id="text_1">
      <!-- -1 -->
      <g transform="translate(105.9675 369.455156) scale(0.32 -0.32)">
       <defs>
        <path id="DejaVuSans-2d" d="M 313 2009 
L 1997 2009 
L 1997 1497 
L 313 1497 
L 313 2009 
z
" transform="scale(0.015625)"/>
        <path id="DejaVuSans-31" d="M 794 531 
L 1825 531 
L 1825 4091 
L 703 3866 
L 703 4441 
L 1819 4666 
L 2450 4666 
L 2450 531 
L 3481 531 
L 3481 0 
L 794 0 
L 794 531 
z
" transform="scale(0.015625)"/>
       </defs>
       <use xlink:href="#DejaVuSans-2d"/>
       <use xlink:href="#DejaVuSans-31" transform="translate(36.083984 0)"/>
      </g>
     </g>
    </g>
    <g id="xtick_2">
     <g id="line2d_2">
      <g>
       <use xlink:href="#m0dc7d2440f" x="197.155955" y="336.640156" style="stroke: #000000; stroke-width: 1.6"/>
      </g>
     </g>
     <g id="text_2">
      <!-- 0 -->
      <g transform="translate(186.975955 369.455156) scale(0.32 -0.32)">
       <defs>
        <path id="DejaVuSans-30" d="M 2034 4250 
Q 1547 4250 1301 3770 
Q 1056 3291 1056 2328 
Q 1056 1369 1301 889 
Q 1547 409 2034 409 
Q 2525 409 2770 889 
Q 3016 1369 3016 2328 
Q 3016 3291 2770 3770 
Q 2525 4250 2034 4250 
z
M 2034 4750 
Q 2819 4750 3233 4129 
Q 3647 3509 3647 2328 
Q 3647 1150 3233 529 
Q 2819 -91 2034 -91 
Q 1250 -91 836 529 
Q 422 1150 422 2328 
Q 422 3509 836 4129 
Q 1250 4750 2034 4750 
z
" transform="scale(0.015625)"/>
       </defs>
       <use xlink:href="#DejaVuSans-30"/>
      </g>
     </g>
    </g>
    <g id="xtick_3">
     <g id="line2d_3">
      <g>
       <use xlink:href="#m0dc7d2440f" x="272.39191" y="336.640156" style="stroke: #000000; stroke-width: 1.6"/>
      </g>
     </g>
     <g id="text_3">
      <!-- 1 -->
      <g transform="translate(262.21191 369.455156) scale(0.32 -0.32)">
       <use xlink:href="#DejaVuSans-31"/>
      </g>
     </g>
    </g>
    <g id="xtick_4">
     <g id="line2d_4">
      <g>
       <use xlink:href="#m0dc7d2440f" x="347.627865" y="336.640156" style="stroke: #000000; stroke-width: 1.6"/>
      </g>
     </g>
     <g id="text_4">
      <!-- 2 -->
      <g transform="translate(337.447865 369.455156) scale(0.32 -0.32)">
       <defs>
        <path id="DejaVuSans-32" d="M 1228 531 
L 3431 531 
L 3431 0 
L 469 0 
L 469 531 
Q 828 903 1448 1529 
Q 2069 2156 2228 2338 
Q 2531 2678 2651 2914 
Q 2772 3150 2772 3378 
Q 2772 3750 2511 3984 
Q 2250 4219 1831 4219 
Q 1534 4219 1204 4116 
Q 875 4013 500 3803 
L 500 4441 
Q 881 4594 1212 4672 
Q 1544 4750 1819 4750 
Q 2544 4750 2975 4387 
Q 3406 4025 3406 3419 
Q 3406 3131 3298 2873 
Q 3191 2616 2906 2266 
Q 2828 2175 2409 1742 
Q 1991 1309 1228 531 
z
" transform="scale(0.015625)"/>
       </defs>
       <use xlink:href="#DejaVuSans-32"/>
      </g>
     </g>
    </g>
    <g id="xtick_5">
     <g id="line2d_5">
      <g>
       <use xlink:href="#m0dc7d2440f" x="422.86382" y="336.640156" style="stroke: #000000; stroke-width: 1.6"/>
      </g>
     </g>
     <g id="text_5">
      <!-- 3 -->
      <g transform="translate(412.68382 369.455156) scale(0.32 -0.32)">
       <defs>
        <path id="DejaVuSans-33" d="M 2597 2516 
Q 3050 2419 3304 2112 
Q 3559 1806 3559 1356 
Q 3559 666 3084 287 
Q 2609 -91 1734 -91 
Q 1441 -91 1130 -33 
Q 819 25 488 141 
L 488 750 
Q 750 597 1062 519 
Q 1375 441 1716 441 
Q 2309 441 2620 675 
Q 2931 909 2931 1356 
Q 2931 1769 2642 2001 
Q 2353 2234 1838 2234 
L 1294 2234 
L 1294 2753 
L 1863 2753 
Q 2328 2753 2575 2939 
Q 2822 3125 2822 3475 
Q 2822 3834 2567 4026 
Q 2313 4219 1838 4219 
Q 1578 4219 1281 4162 
Q 984 4106 628 3988 
L 628 4550 
Q 988 4650 1302 4700 
Q 1616 4750 1894 4750 
Q 2613 4750 3031 4423 
Q 3450 4097 3450 3541 
Q 3450 3153 3228 2886 
Q 3006 2619 2597 2516 
z
" transform="scale(0.015625)"/>
       </defs>
       <use xlink:href="#DejaVuSans-33"/>
      </g>
     </g>
    </g>
    <g id="text_6">
     <!-- Time (s) -->
     <g transform="translate(207.33941 404.425156) scale(0.32 -0.32)">
      <defs>
       <path id="DejaVuSans-54" d="M -19 4666 
L 3928 4666 
L 3928 4134 
L 2272 4134 
L 2272 0 
L 1638 0 
L 1638 4134 
L -19 4134 
L -19 4666 
z
" transform="scale(0.015625)"/>
       <path id="DejaVuSans-69" d="M 603 3500 
L 1178 3500 
L 1178 0 
L 603 0 
L 603 3500 
z
M 603 4863 
L 1178 4863 
L 1178 4134 
L 603 4134 
L 603 4863 
z
" transform="scale(0.015625)"/>
       <path id="DejaVuSans-6d" d="M 3328 2828 
Q 3544 3216 3844 3400 
Q 4144 3584 4550 3584 
Q 5097 3584 5394 3201 
Q 5691 2819 5691 2113 
L 5691 0 
L 5113 0 
L 5113 2094 
Q 5113 2597 4934 2840 
Q 4756 3084 4391 3084 
Q 3944 3084 3684 2787 
Q 3425 2491 3425 1978 
L 3425 0 
L 2847 0 
L 2847 2094 
Q 2847 2600 2669 2842 
Q 2491 3084 2119 3084 
Q 1678 3084 1418 2786 
Q 1159 2488 1159 1978 
L 1159 0 
L 581 0 
L 581 3500 
L 1159 3500 
L 1159 2956 
Q 1356 3278 1631 3431 
Q 1906 3584 2284 3584 
Q 2666 3584 2933 3390 
Q 3200 3197 3328 2828 
z
" transform="scale(0.015625)"/>
       <path id="DejaVuSans-65" d="M 3597 1894 
L 3597 1613 
L 953 1613 
Q 991 1019 1311 708 
Q 1631 397 2203 397 
Q 2534 397 2845 478 
Q 3156 559 3463 722 
L 3463 178 
Q 3153 47 2828 -22 
Q 2503 -91 2169 -91 
Q 1331 -91 842 396 
Q 353 884 353 1716 
Q 353 2575 817 3079 
Q 1281 3584 2069 3584 
Q 2775 3584 3186 3129 
Q 3597 2675 3597 1894 
z
M 3022 2063 
Q 3016 2534 2758 2815 
Q 2500 3097 2075 3097 
Q 1594 3097 1305 2825 
Q 1016 2553 972 2059 
L 3022 2063 
z
" transform="scale(0.015625)"/>
       <path id="DejaVuSans-20" transform="scale(0.015625)"/>
       <path id="DejaVuSans-28" d="M 1984 4856 
Q 1566 4138 1362 3434 
Q 1159 2731 1159 2009 
Q 1159 1288 1364 580 
Q 1569 -128 1984 -844 
L 1484 -844 
Q 1016 -109 783 600 
Q 550 1309 550 2009 
Q 550 2706 781 3412 
Q 1013 4119 1484 4856 
L 1984 4856 
z
" transform="scale(0.015625)"/>
       <path id="DejaVuSans-73" d="M 2834 3397 
L 2834 2853 
Q 2591 2978 2328 3040 
Q 2066 3103 1784 3103 
Q 1356 3103 1142 2972 
Q 928 2841 928 2578 
Q 928 2378 1081 2264 
Q 1234 2150 1697 2047 
L 1894 2003 
Q 2506 1872 2764 1633 
Q 3022 1394 3022 966 
Q 3022 478 2636 193 
Q 2250 -91 1575 -91 
Q 1294 -91 989 -36 
Q 684 19 347 128 
L 347 722 
Q 666 556 975 473 
Q 1284 391 1588 391 
Q 1994 391 2212 530 
Q 2431 669 2431 922 
Q 2431 1156 2273 1281 
Q 2116 1406 1581 1522 
L 1381 1569 
Q 847 1681 609 1914 
Q 372 2147 372 2553 
Q 372 3047 722 3315 
Q 1072 3584 1716 3584 
Q 2034 3584 2315 3537 
Q 2597 3491 2834 3397 
z
" transform="scale(0.015625)"/>
       <path id="DejaVuSans-29" d="M 513 4856 
L 1013 4856 
Q 1481 4119 1714 3412 
Q 1947 2706 1947 2009 
Q 1947 1309 1714 600 
Q 1481 -109 1013 -844 
L 513 -844 
Q 928 -128 1133 580 
Q 1338 1288 1338 2009 
Q 1338 2731 1133 3434 
Q 928 4138 513 4856 
z
" transform="scale(0.015625)"/>
      </defs>
      <use xlink:href="#DejaVuSans-54"/>
      <use xlink:href="#DejaVuSans-69" transform="translate(57.958984 0)"/>
      <use xlink:href="#DejaVuSans-6d" transform="translate(85.742188 0)"/>
      <use xlink:href="#DejaVuSans-65" transform="translate(183.154297 0)"/>
      <use xlink:href="#DejaVuSans-20" transform="translate(244.677734 0)"/>
      <use xlink:href="#DejaVuSans-28" transform="translate(276.464844 0)"/>
      <use xlink:href="#DejaVuSans-73" transform="translate(315.478516 0)"/>
      <use xlink:href="#DejaVuSans-29" transform="translate(367.578125 0)"/>
     </g>
    </g>
   </g>
   <g id="matplotlib.axis_2">
    <g id="ytick_1">
     <g id="line2d_6">
      <defs>
       <path id="mfacd0d1ee0" d="M 0 0 
L -5 0 
" style="stroke: #000000; stroke-width: 1.6"/>
      </defs>
      <g>
       <use xlink:href="#mfacd0d1ee0" x="121.92" y="315.612332" style="stroke: #000000; stroke-width: 1.6"/>
      </g>
     </g>
     <g id="text_7">
      <!-- 0.00 -->
      <g transform="translate(42.17 327.769832) scale(0.32 -0.32)">
       <defs>
        <path id="DejaVuSans-2e" d="M 684 794 
L 1344 794 
L 1344 0 
L 684 0 
L 684 794 
z
" transform="scale(0.015625)"/>
       </defs>
       <use xlink:href="#DejaVuSans-30"/>
       <use xlink:href="#DejaVuSans-2e" transform="translate(63.623047 0)"/>
       <use xlink:href="#DejaVuSans-30" transform="translate(95.410156 0)"/>
       <use xlink:href="#DejaVuSans-30" transform="translate(159.033203 0)"/>
      </g>
     </g>
    </g>
    <g id="ytick_2">
     <g id="line2d_7">
      <g>
       <use xlink:href="#mfacd0d1ee0" x="121.92" y="219.802121" style="stroke: #000000; stroke-width: 1.6"/>
      </g>
     </g>
     <g id="text_8">
      <!-- 0.05 -->
      <g transform="translate(42.17 231.959621) scale(0.32 -0.32)">
       <defs>
        <path id="DejaVuSans-35" d="M 691 4666 
L 3169 4666 
L 3169 4134 
L 1269 4134 
L 1269 2991 
Q 1406 3038 1543 3061 
Q 1681 3084 1819 3084 
Q 2600 3084 3056 2656 
Q 3513 2228 3513 1497 
Q 3513 744 3044 326 
Q 2575 -91 1722 -91 
Q 1428 -91 1123 -41 
Q 819 9 494 109 
L 494 744 
Q 775 591 1075 516 
Q 1375 441 1709 441 
Q 2250 441 2565 725 
Q 2881 1009 2881 1497 
Q 2881 1984 2565 2268 
Q 2250 2553 1709 2553 
Q 1456 2553 1204 2497 
Q 953 2441 691 2322 
L 691 4666 
z
" transform="scale(0.015625)"/>
       </defs>
       <use xlink:href="#DejaVuSans-30"/>
       <use xlink:href="#DejaVuSans-2e" transform="translate(63.623047 0)"/>
       <use xlink:href="#DejaVuSans-30" transform="translate(95.410156 0)"/>
       <use xlink:href="#DejaVuSans-35" transform="translate(159.033203 0)"/>
      </g>
     </g>
    </g>
    <g id="ytick_3">
     <g id="line2d_8">
      <g>
       <use xlink:href="#mfacd0d1ee0" x="121.92" y="123.991911" style="stroke: #000000; stroke-width: 1.6"/>
      </g>
     </g>
     <g id="text_9">
      <!-- 0.10 -->
      <g transform="translate(42.17 136.149411) scale(0.32 -0.32)">
       <use xlink:href="#DejaVuSans-30"/>
       <use xlink:href="#DejaVuSans-2e" transform="translate(63.623047 0)"/>
       <use xlink:href="#DejaVuSans-31" transform="translate(95.410156 0)"/>
       <use xlink:href="#DejaVuSans-30" transform="translate(159.033203 0)"/>
      </g>
     </g>
    </g>
    <g id="text_10">
     <!-- Neural Activity -->
     <g transform="translate(31.515 301.885156) rotate(-90) scale(0.32 -0.32)">
      <defs>
       <path id="DejaVuSans-4e" d="M 628 4666 
L 1478 4666 
L 3547 763 
L 3547 4666 
L 4159 4666 
L 4159 0 
L 3309 0 
L 1241 3903 
L 1241 0 
L 628 0 
L 628 4666 
z
" transform="scale(0.015625)"/>
       <path id="DejaVuSans-75" d="M 544 1381 
L 544 3500 
L 1119 3500 
L 1119 1403 
Q 1119 906 1312 657 
Q 1506 409 1894 409 
Q 2359 409 2629 706 
Q 2900 1003 2900 1516 
L 2900 3500 
L 3475 3500 
L 3475 0 
L 2900 0 
L 2900 538 
Q 2691 219 2414 64 
Q 2138 -91 1772 -91 
Q 1169 -91 856 284 
Q 544 659 544 1381 
z
M 1991 3584 
L 1991 3584 
z
" transform="scale(0.015625)"/>
       <path id="DejaVuSans-72" d="M 2631 2963 
Q 2534 3019 2420 3045 
Q 2306 3072 2169 3072 
Q 1681 3072 1420 2755 
Q 1159 2438 1159 1844 
L 1159 0 
L 581 0 
L 581 3500 
L 1159 3500 
L 1159 2956 
Q 1341 3275 1631 3429 
Q 1922 3584 2338 3584 
Q 2397 3584 2469 3576 
Q 2541 3569 2628 3553 
L 2631 2963 
z
" transform="scale(0.015625)"/>
       <path id="DejaVuSans-61" d="M 2194 1759 
Q 1497 1759 1228 1600 
Q 959 1441 959 1056 
Q 959 750 1161 570 
Q 1363 391 1709 391 
Q 2188 391 2477 730 
Q 2766 1069 2766 1631 
L 2766 1759 
L 2194 1759 
z
M 3341 1997 
L 3341 0 
L 2766 0 
L 2766 531 
Q 2569 213 2275 61 
Q 1981 -91 1556 -91 
Q 1019 -91 701 211 
Q 384 513 384 1019 
Q 384 1609 779 1909 
Q 1175 2209 1959 2209 
L 2766 2209 
L 2766 2266 
Q 2766 2663 2505 2880 
Q 2244 3097 1772 3097 
Q 1472 3097 1187 3025 
Q 903 2953 641 2809 
L 641 3341 
Q 956 3463 1253 3523 
Q 1550 3584 1831 3584 
Q 2591 3584 2966 3190 
Q 3341 2797 3341 1997 
z
" transform="scale(0.015625)"/>
       <path id="DejaVuSans-6c" d="M 603 4863 
L 1178 4863 
L 1178 0 
L 603 0 
L 603 4863 
z
" transform="scale(0.015625)"/>
       <path id="DejaVuSans-41" d="M 2188 4044 
L 1331 1722 
L 3047 1722 
L 2188 4044 
z
M 1831 4666 
L 2547 4666 
L 4325 0 
L 3669 0 
L 3244 1197 
L 1141 1197 
L 716 0 
L 50 0 
L 1831 4666 
z
" transform="scale(0.015625)"/>
       <path id="DejaVuSans-63" d="M 3122 3366 
L 3122 2828 
Q 2878 2963 2633 3030 
Q 2388 3097 2138 3097 
Q 1578 3097 1268 2742 
Q 959 2388 959 1747 
Q 959 1106 1268 751 
Q 1578 397 2138 397 
Q 2388 397 2633 464 
Q 2878 531 3122 666 
L 3122 134 
Q 2881 22 2623 -34 
Q 2366 -91 2075 -91 
Q 1284 -91 818 406 
Q 353 903 353 1747 
Q 353 2603 823 3093 
Q 1294 3584 2113 3584 
Q 2378 3584 2631 3529 
Q 2884 3475 3122 3366 
z
" transform="scale(0.015625)"/>
       <path id="DejaVuSans-74" d="M 1172 4494 
L 1172 3500 
L 2356 3500 
L 2356 3053 
L 1172 3053 
L 1172 1153 
Q 1172 725 1289 603 
Q 1406 481 1766 481 
L 2356 481 
L 2356 0 
L 1766 0 
Q 1100 0 847 248 
Q 594 497 594 1153 
L 594 3053 
L 172 3053 
L 172 3500 
L 594 3500 
L 594 4494 
L 1172 4494 
z
" transform="scale(0.015625)"/>
       <path id="DejaVuSans-76" d="M 191 3500 
L 800 3500 
L 1894 563 
L 2988 3500 
L 3597 3500 
L 2284 0 
L 1503 0 
L 191 3500 
z
" transform="scale(0.015625)"/>
       <path id="DejaVuSans-79" d="M 2059 -325 
Q 1816 -950 1584 -1140 
Q 1353 -1331 966 -1331 
L 506 -1331 
L 506 -850 
L 844 -850 
Q 1081 -850 1212 -737 
Q 1344 -625 1503 -206 
L 1606 56 
L 191 3500 
L 800 3500 
L 1894 763 
L 2988 3500 
L 3597 3500 
L 2059 -325 
z
" transform="scale(0.015625)"/>
      </defs>
      <use xlink:href="#DejaVuSans-4e"/>
      <use xlink:href="#DejaVuSans-65" transform="translate(74.804688 0)"/>
      <use xlink:href="#DejaVuSans-75" transform="translate(136.328125 0)"/>
      <use xlink:href="#DejaVuSans-72" transform="translate(199.707031 0)"/>
      <use xlink:href="#DejaVuSans-61" transform="translate(240.820312 0)"/>
      <use xlink:href="#DejaVuSans-6c" transform="translate(302.099609 0)"/>
      <use xlink:href="#DejaVuSans-20" transform="translate(329.882812 0)"/>
      <use xlink:href="#DejaVuSans-41" transform="translate(361.669922 0)"/>
      <use xlink:href="#DejaVuSans-63" transform="translate(428.328125 0)"/>
      <use xlink:href="#DejaVuSans-74" transform="translate(483.308594 0)"/>
      <use xlink:href="#DejaVuSans-69" transform="translate(522.517578 0)"/>
      <use xlink:href="#DejaVuSans-76" transform="translate(550.300781 0)"/>
      <use xlink:href="#DejaVuSans-69" transform="translate(609.480469 0)"/>
      <use xlink:href="#DejaVuSans-74" transform="translate(637.263672 0)"/>
      <use xlink:href="#DejaVuSans-79" transform="translate(676.472656 0)"/>
     </g>
    </g>
   </g>
   <g id="line2d_9">
    <path d="M 122.67236 301.691102 
L 124.929438 303.676618 
L 127.186517 305.378949 
L 128.691236 306.376704 
L 129.443596 304.892868 
L 131.700674 306.421732 
L 133.957753 307.732541 
L 135.462472 308.500821 
L 136.214831 304.30964 
L 136.967191 301.51631 
L 137.719551 300.761157 
L 139.976629 302.879306 
L 142.233708 304.695355 
L 144.490787 306.252389 
L 146.747865 307.587351 
L 147.500225 307.394569 
L 150.509663 308.918913 
L 153.519101 310.160501 
L 155.77618 310.938069 
L 156.528539 309.878663 
L 159.537978 310.942223 
L 163.299775 311.998691 
L 164.804494 312.351021 
L 165.556854 310.490233 
L 166.309213 307.50006 
L 167.061573 307.905674 
L 167.813933 306.564654 
L 168.566292 307.017038 
L 169.318652 304.630955 
L 170.071011 302.902008 
L 170.823371 296.798101 
L 173.080449 299.48148 
L 173.832809 298.504389 
L 174.585169 299.359786 
L 175.337528 299.782785 
L 176.089888 297.86496 
L 178.346966 300.396181 
L 180.604045 302.566385 
L 182.861124 304.427064 
L 185.118202 306.022363 
L 185.870562 305.676065 
L 186.622921 305.111814 
L 188.88 306.609451 
L 191.137079 307.893487 
L 194.146517 309.325285 
L 197.155955 310.491493 
L 200.165393 311.441377 
L 203.927191 312.384927 
L 208.441348 313.239893 
L 212.955506 313.868371 
L 218.974382 314.455353 
L 225.745618 314.883147 
L 234.773933 315.218309 
L 247.564045 315.447583 
L 268.630112 315.57315 
L 276.153708 315.588873 
L 276.906067 308.560231 
L 279.163146 309.566038 
L 279.915506 308.917821 
L 282.924944 310.159611 
L 284.429663 310.691251 
L 285.182022 309.172494 
L 286.686742 309.800379 
L 287.439101 309.533431 
L 288.191461 307.913321 
L 288.94382 304.892091 
L 289.69618 305.428103 
L 290.448539 305.229751 
L 292.705618 306.710566 
L 294.962697 307.980181 
L 297.972135 309.395898 
L 298.724494 307.510555 
L 299.476854 307.915644 
L 300.229213 302.430924 
L 300.981573 298.5341 
L 301.733933 297.865214 
L 303.238652 299.595559 
L 303.991011 297.62275 
L 306.24809 300.188517 
L 307.000449 298.445001 
L 307.752809 293.677992 
L 308.505169 286.206416 
L 309.257528 282.709252 
L 310.009888 284.354407 
L 310.762247 284.366039 
L 311.514607 281.915506 
L 313.771685 286.721519 
L 316.028764 290.842072 
L 318.285843 294.374931 
L 319.790562 296.445577 
L 320.542921 292.845425 
L 321.295281 291.160827 
L 323.55236 294.648224 
L 324.304719 295.696429 
L 325.057079 296.149879 
L 326.561798 298.047468 
L 327.314157 296.054701 
L 329.571236 298.844109 
L 331.828315 301.235675 
L 334.085393 303.286146 
L 335.590112 304.48795 
L 336.342472 299.646627 
L 337.094831 300.022124 
L 338.599551 301.54217 
L 339.35191 296.809135 
L 340.10427 295.910817 
L 342.361348 298.720746 
L 343.113708 299.565326 
L 343.866067 299.176011 
L 346.123146 301.520241 
L 348.380225 303.530126 
L 350.637303 305.253351 
L 352.894382 306.730802 
L 353.646742 307.174878 
L 354.399101 303.197204 
L 355.151461 296.6246 
L 355.90382 292.898264 
L 358.160899 296.13786 
L 360.417978 298.915407 
L 362.675056 301.296808 
L 364.932135 303.33856 
L 367.189213 305.089107 
L 369.446292 306.589982 
L 371.703371 307.876795 
L 373.20809 308.63101 
L 373.960449 307.663602 
L 376.969888 309.138043 
L 379.979326 310.338983 
L 381.484045 310.853135 
L 382.236404 307.97061 
L 382.988764 307.905567 
L 385.998202 309.335124 
L 389.00764 310.499507 
L 392.017079 311.447905 
L 395.778876 312.389978 
L 400.293034 313.243606 
L 402.550112 313.581445 
L 403.302472 307.353359 
L 404.054831 307.766308 
L 404.807191 305.290305 
L 407.06427 306.762485 
L 407.816629 307.204978 
L 408.568989 304.131414 
L 410.826067 305.768881 
L 413.083146 307.172803 
L 416.092584 308.738283 
L 416.844944 309.081986 
L 417.597303 308.025191 
L 420.606742 309.432558 
L 421.359101 307.096342 
L 422.111461 307.522142 
L 422.111461 307.522142 
" clip-path="url(#p06971f3ea9)" style="fill: none; stroke: #000000; stroke-width: 5; stroke-linecap: square"/>
   </g>
   <g id="line2d_10">
    <path d="M 122.67236 303.915604 
L 124.929438 305.583849 
L 127.186517 307.014161 
L 130.195955 308.609069 
L 132.453034 309.607909 
L 133.205393 308.913497 
L 135.462472 309.868919 
L 136.214831 304.75966 
L 136.967191 304.890299 
L 137.719551 293.012914 
L 138.47191 290.419038 
L 139.22427 288.877456 
L 139.976629 285.032632 
L 140.728989 275.662685 
L 141.481348 263.116624 
L 143.738427 270.603824 
L 145.995506 277.023164 
L 148.252584 282.526947 
L 150.509663 287.245753 
L 152.766742 291.291537 
L 153.519101 290.605433 
L 154.271461 289.097846 
L 155.02382 290.423571 
L 155.77618 289.990598 
L 156.528539 291.242362 
L 157.280899 292.006494 
L 159.537978 295.373278 
L 161.795056 298.259874 
L 162.547416 289.130982 
L 163.299775 283.244722 
L 164.052135 284.863105 
L 164.804494 282.119265 
L 165.556854 283.79392 
L 166.309213 282.511425 
L 167.061573 284.16647 
L 167.813933 281.859884 
L 169.318652 285.150747 
L 170.071011 273.892704 
L 171.57573 277.960366 
L 172.32809 278.930363 
L 174.585169 284.16213 
L 176.842247 288.647717 
L 177.594607 288.595858 
L 178.346966 281.393409 
L 180.604045 286.273884 
L 182.861124 290.458282 
L 185.118202 294.045879 
L 185.870562 291.097088 
L 188.12764 294.593576 
L 189.63236 296.588951 
L 191.889438 299.302161 
L 192.641798 300.11767 
L 193.394157 295.047047 
L 195.651236 297.880654 
L 196.403596 295.190201 
L 197.155955 296.094706 
L 197.908315 295.129929 
L 200.165393 298.051232 
L 202.422472 300.555885 
L 204.679551 302.703311 
L 205.43191 301.524756 
L 206.18427 302.229135 
L 206.936629 300.02252 
L 207.688989 290.347444 
L 208.441348 282.865305 
L 209.193708 271.834719 
L 211.450787 278.078504 
L 213.707865 283.43177 
L 215.964944 288.021524 
L 217.469663 290.711628 
L 218.222022 288.961977 
L 218.974382 282.711704 
L 219.726742 279.103552 
L 221.98382 284.310616 
L 224.240899 288.775025 
L 226.497978 292.602698 
L 228.755056 295.884448 
L 229.507416 295.15949 
L 231.764494 298.076577 
L 234.021573 300.577614 
L 234.773933 293.601277 
L 237.031011 296.740603 
L 237.783371 295.863719 
L 238.53573 290.027626 
L 239.28809 291.306863 
L 240.040449 291.58969 
L 240.792809 292.41688 
L 243.049888 295.725132 
L 245.306966 298.561545 
L 246.059326 293.794644 
L 247.564045 295.921869 
L 248.316404 296.376244 
L 250.573483 299.119791 
L 251.325843 294.424493 
L 252.078202 292.454952 
L 254.335281 295.757775 
L 256.59236 298.589533 
L 257.344719 299.440673 
L 258.097079 292.666001 
L 258.849438 291.433812 
L 261.106517 294.882275 
L 262.611236 296.903457 
L 263.363596 297.41561 
L 265.620674 300.010917 
L 267.877753 302.236069 
L 269.382472 303.540255 
L 270.134831 299.704165 
L 272.39191 301.973068 
L 273.14427 302.655031 
L 273.896629 302.994586 
L 276.153708 304.794192 
L 276.906067 305.3351 
L 277.658427 305.360365 
L 279.915506 306.822552 
L 280.667865 307.262041 
L 281.420225 306.348852 
L 282.172584 299.45561 
L 282.924944 291.050831 
L 284.429663 293.445577 
L 285.182022 283.969578 
L 285.934382 279.718833 
L 288.191461 284.838149 
L 290.448539 289.227317 
L 292.705618 292.99048 
L 294.210337 295.196112 
L 294.962697 289.400404 
L 295.715056 286.964364 
L 296.467416 280.922963 
L 298.724494 285.870535 
L 299.476854 287.357625 
L 300.229213 286.738588 
L 302.486292 290.856707 
L 304.743371 294.387479 
L 307.000449 297.414674 
L 307.752809 294.81928 
L 308.505169 289.337934 
L 309.257528 280.136498 
L 310.009888 279.75434 
L 312.266966 284.868587 
L 313.019326 286.405776 
L 314.524045 289.056837 
L 316.028764 291.592464 
L 316.781124 289.547184 
L 318.285843 292.088536 
L 319.038202 292.181963 
L 321.295281 295.523722 
L 322.04764 296.528153 
L 322.8 294.221373 
L 323.55236 295.290922 
L 324.304719 288.355213 
L 325.057079 286.688621 
L 327.314157 290.813866 
L 328.818876 293.231717 
L 329.571236 288.660113 
L 330.323596 281.000943 
L 332.580674 285.937394 
L 334.837753 290.169783 
L 337.094831 293.798527 
L 339.35191 296.909722 
L 340.10427 297.844853 
L 340.856629 292.127154 
L 342.361348 294.416959 
L 343.113708 294.869952 
L 344.618427 296.892335 
L 345.370787 292.088735 
L 347.627865 295.44379 
L 349.132584 297.410224 
L 349.884944 289.377897 
L 350.637303 279.427671 
L 351.389663 280.165074 
L 352.142022 280.09909 
L 352.894382 277.362085 
L 354.399101 281.091487 
L 355.151461 281.568997 
L 357.408539 286.424427 
L 359.665618 290.587351 
L 361.922697 294.15654 
L 364.179775 297.216673 
L 366.436854 299.840355 
L 367.941573 301.378122 
L 368.693933 298.681217 
L 369.446292 296.67399 
L 371.703371 299.375073 
L 373.960449 301.690913 
L 375.465169 303.048252 
L 376.217528 302.707695 
L 378.474607 304.548219 
L 380.731685 306.126238 
L 382.988764 307.479193 
L 385.998202 308.98784 
L 386.750562 309.319064 
L 388.255281 309.825474 
L 389.00764 310.114817 
L 389.76 309.400047 
L 392.769438 310.552387 
L 393.521798 307.83 
L 396.531236 309.273575 
L 397.283596 309.590513 
L 398.035955 305.932498 
L 398.788315 304.79866 
L 399.540674 296.737353 
L 401.797753 299.429398 
L 404.054831 301.737489 
L 406.31191 303.716389 
L 407.816629 304.876244 
L 408.568989 303.996504 
L 409.321348 303.426445 
L 411.578427 305.164458 
L 412.330787 291.784273 
L 413.083146 291.844793 
L 415.340225 295.234638 
L 417.597303 298.141007 
L 418.349663 296.956654 
L 420.606742 299.61742 
L 422.111461 301.176924 
L 422.111461 301.176924 
" clip-path="url(#p06971f3ea9)" style="fill: none; stroke: #ff0000; stroke-width: 5; stroke-linecap: square"/>
   </g>
   <g id="patch_3">
    <path d="M 121.92 336.640156 
L 121.92 31.720156 
" style="fill: none; stroke: #000000; stroke-width: 5; stroke-linejoin: miter; stroke-linecap: square"/>
   </g>
   <g id="patch_4">
    <path d="M 121.92 336.640156 
L 422.86382 336.640156 
" style="fill: none; stroke: #000000; stroke-width: 5; stroke-linejoin: miter; stroke-linecap: square"/>
   </g>
   <g id="text_11">
    <!-- A -->
    <g transform="translate(85.806742 16.444681) scale(0.12 -0.12)">
     <defs>
      <path id="DejaVuSans-Bold-41" d="M 3419 850 
L 1538 850 
L 1241 0 
L 31 0 
L 1759 4666 
L 3194 4666 
L 4922 0 
L 3713 0 
L 3419 850 
z
M 1838 1716 
L 3116 1716 
L 2478 3572 
L 1838 1716 
z
" transform="scale(0.015625)"/>
     </defs>
     <use xlink:href="#DejaVuSans-Bold-41"/>
    </g>
   </g>
   <g id="patch_5">
    <path d="M 197.155955 330.541756 
L 272.39191 330.541756 
L 272.39191 319.869556 
L 197.155955 319.869556 
z
" style="fill: #8c5a2b; stroke: #8c5a2b; stroke-linejoin: miter"/>
   </g>
   <g id="text_12">
    <!-- Familiar | Naive -->
    <g transform="translate(198.799566 21.720156) scale(0.19 -0.19)">
     <defs>
      <path id="DejaVuSans-46" d="M 628 4666 
L 3309 4666 
L 3309 4134 
L 1259 4134 
L 1259 2759 
L 3109 2759 
L 3109 2228 
L 1259 2228 
L 1259 0 
L 628 0 
L 628 4666 
z
" transform="scale(0.015625)"/>
      <path id="DejaVuSans-7c" d="M 1344 4891 
L 1344 -1509 
L 813 -1509 
L 813 4891 
L 1344 4891 
z
" transform="scale(0.015625)"/>
     </defs>
     <use xlink:href="#DejaVuSans-46"/>
     <use xlink:href="#DejaVuSans-61" transform="translate(48.394531 0)"/>
     <use xlink:href="#DejaVuSans-6d" transform="translate(109.673828 0)"/>
     <use xlink:href="#DejaVuSans-69" transform="translate(207.085938 0)"/>
     <use xlink:href="#DejaVuSans-6c" transform="translate(234.869141 0)"/>
     <use xlink:href="#DejaVuSans-69" transform="translate(262.652344 0)"/>
     <use xlink:href="#DejaVuSans-61" transform="translate(290.435547 0)"/>
     <use xlink:href="#DejaVuSans-72" transform="translate(351.714844 0)"/>
     <use xlink:href="#DejaVuSans-20" transform="translate(392.828125 0)"/>
     <use xlink:href="#DejaVuSans-7c" transform="translate(424.615234 0)"/>
     <use xlink:href="#DejaVuSans-20" transform="translate(458.306641 0)"/>
     <use xlink:href="#DejaVuSans-4e" transform="translate(490.09375 0)"/>
     <use xlink:href="#DejaVuSans-61" transform="translate(564.898438 0)"/>
     <use xlink:href="#DejaVuSans-69" transform="translate(626.177734 0)"/>
     <use xlink:href="#DejaVuSans-76" transform="translate(653.960938 0)"/>
     <use xlink:href="#DejaVuSans-65" transform="translate(713.140625 0)"/>
    </g>
   </g>
   <g id="legend_1">
    <g id="line2d_11">
     <path d="M 130.92 46.867813 
L 145.92 46.867813 
L 160.92 46.867813 
" style="fill: none; stroke: #000000; stroke-width: 5; stroke-linecap: square"/>
    </g>
    <g id="text_13">
     <!-- Nonoccluded (NO) -->
     <g transform="translate(172.92 52.117813) scale(0.15 -0.15)">
      <defs>
       <path id="DejaVuSans-6f" d="M 1959 3097 
Q 1497 3097 1228 2736 
Q 959 2375 959 1747 
Q 959 1119 1226 758 
Q 1494 397 1959 397 
Q 2419 397 2687 759 
Q 2956 1122 2956 1747 
Q 2956 2369 2687 2733 
Q 2419 3097 1959 3097 
z
M 1959 3584 
Q 2709 3584 3137 3096 
Q 3566 2609 3566 1747 
Q 3566 888 3137 398 
Q 2709 -91 1959 -91 
Q 1206 -91 779 398 
Q 353 888 353 1747 
Q 353 2609 779 3096 
Q 1206 3584 1959 3584 
z
" transform="scale(0.015625)"/>
       <path id="DejaVuSans-6e" d="M 3513 2113 
L 3513 0 
L 2938 0 
L 2938 2094 
Q 2938 2591 2744 2837 
Q 2550 3084 2163 3084 
Q 1697 3084 1428 2787 
Q 1159 2491 1159 1978 
L 1159 0 
L 581 0 
L 581 3500 
L 1159 3500 
L 1159 2956 
Q 1366 3272 1645 3428 
Q 1925 3584 2291 3584 
Q 2894 3584 3203 3211 
Q 3513 2838 3513 2113 
z
" transform="scale(0.015625)"/>
       <path id="DejaVuSans-64" d="M 2906 2969 
L 2906 4863 
L 3481 4863 
L 3481 0 
L 2906 0 
L 2906 525 
Q 2725 213 2448 61 
Q 2172 -91 1784 -91 
Q 1150 -91 751 415 
Q 353 922 353 1747 
Q 353 2572 751 3078 
Q 1150 3584 1784 3584 
Q 2172 3584 2448 3432 
Q 2725 3281 2906 2969 
z
M 947 1747 
Q 947 1113 1208 752 
Q 1469 391 1925 391 
Q 2381 391 2643 752 
Q 2906 1113 2906 1747 
Q 2906 2381 2643 2742 
Q 2381 3103 1925 3103 
Q 1469 3103 1208 2742 
Q 947 2381 947 1747 
z
" transform="scale(0.015625)"/>
       <path id="DejaVuSans-4f" d="M 2522 4238 
Q 1834 4238 1429 3725 
Q 1025 3213 1025 2328 
Q 1025 1447 1429 934 
Q 1834 422 2522 422 
Q 3209 422 3611 934 
Q 4013 1447 4013 2328 
Q 4013 3213 3611 3725 
Q 3209 4238 2522 4238 
z
M 2522 4750 
Q 3503 4750 4090 4092 
Q 4678 3434 4678 2328 
Q 4678 1225 4090 567 
Q 3503 -91 2522 -91 
Q 1538 -91 948 565 
Q 359 1222 359 2328 
Q 359 3434 948 4092 
Q 1538 4750 2522 4750 
z
" transform="scale(0.015625)"/>
      </defs>
      <use xlink:href="#DejaVuSans-4e"/>
      <use xlink:href="#DejaVuSans-6f" transform="translate(74.804688 0)"/>
      <use xlink:href="#DejaVuSans-6e" transform="translate(135.986328 0)"/>
      <use xlink:href="#DejaVuSans-6f" transform="translate(199.365234 0)"/>
      <use xlink:href="#DejaVuSans-63" transform="translate(260.546875 0)"/>
      <use xlink:href="#DejaVuSans-63" transform="translate(315.527344 0)"/>
      <use xlink:href="#DejaVuSans-6c" transform="translate(370.507812 0)"/>
      <use xlink:href="#DejaVuSans-75" transform="translate(398.291016 0)"/>
      <use xlink:href="#DejaVuSans-64" transform="translate(461.669922 0)"/>
      <use xlink:href="#DejaVuSans-65" transform="translate(525.146484 0)"/>
      <use xlink:href="#DejaVuSans-64" transform="translate(586.669922 0)"/>
      <use xlink:href="#DejaVuSans-20" transform="translate(650.146484 0)"/>
      <use xlink:href="#DejaVuSans-28" transform="translate(681.933594 0)"/>
      <use xlink:href="#DejaVuSans-4e" transform="translate(720.947266 0)"/>
      <use xlink:href="#DejaVuSans-4f" transform="translate(795.751953 0)"/>
      <use xlink:href="#DejaVuSans-29" transform="translate(874.462891 0)"/>
     </g>
    </g>
    <g id="line2d_12">
     <path d="M 130.92 68.885 
L 145.92 68.885 
L 160.92 68.885 
" style="fill: none; stroke: #ff0000; stroke-width: 5; stroke-linecap: square"/>
    </g>
    <g id="text_14">
     <!-- Occluded (O) -->
     <g transform="translate(172.92 74.135) scale(0.15 -0.15)">
      <use xlink:href="#DejaVuSans-4f"/>
      <use xlink:href="#DejaVuSans-63" transform="translate(78.710938 0)"/>
      <use xlink:href="#DejaVuSans-63" transform="translate(133.691406 0)"/>
      <use xlink:href="#DejaVuSans-6c" transform="translate(188.671875 0)"/>
      <use xlink:href="#DejaVuSans-75" transform="translate(216.455078 0)"/>
      <use xlink:href="#DejaVuSans-64" transform="translate(279.833984 0)"/>
      <use xlink:href="#DejaVuSans-65" transform="translate(343.310547 0)"/>
      <use xlink:href="#DejaVuSans-64" transform="translate(404.833984 0)"/>
      <use xlink:href="#DejaVuSans-20" transform="translate(468.310547 0)"/>
      <use xlink:href="#DejaVuSans-28" transform="translate(500.097656 0)"/>
      <use xlink:href="#DejaVuSans-4f" transform="translate(539.111328 0)"/>
      <use xlink:href="#DejaVuSans-29" transform="translate(617.822266 0)"/>
     </g>
    </g>
    <g id="line2d_13">
     <path d="M 130.92 90.902188 
L 145.92 90.902188 
L 160.92 90.902188 
" style="fill: none; stroke: #0000ff; stroke-width: 5; stroke-linecap: square"/>
    </g>
    <g id="text_15">
     <!-- No feedback -->
     <g transform="translate(172.92 96.152188) scale(0.15 -0.15)">
      <defs>
       <path id="DejaVuSans-66" d="M 2375 4863 
L 2375 4384 
L 1825 4384 
Q 1516 4384 1395 4259 
Q 1275 4134 1275 3809 
L 1275 3500 
L 2222 3500 
L 2222 3053 
L 1275 3053 
L 1275 0 
L 697 0 
L 697 3053 
L 147 3053 
L 147 3500 
L 697 3500 
L 697 3744 
Q 697 4328 969 4595 
Q 1241 4863 1831 4863 
L 2375 4863 
z
" transform="scale(0.015625)"/>
       <path id="DejaVuSans-62" d="M 3116 1747 
Q 3116 2381 2855 2742 
Q 2594 3103 2138 3103 
Q 1681 3103 1420 2742 
Q 1159 2381 1159 1747 
Q 1159 1113 1420 752 
Q 1681 391 2138 391 
Q 2594 391 2855 752 
Q 3116 1113 3116 1747 
z
M 1159 2969 
Q 1341 3281 1617 3432 
Q 1894 3584 2278 3584 
Q 2916 3584 3314 3078 
Q 3713 2572 3713 1747 
Q 3713 922 3314 415 
Q 2916 -91 2278 -91 
Q 1894 -91 1617 61 
Q 1341 213 1159 525 
L 1159 0 
L 581 0 
L 581 4863 
L 1159 4863 
L 1159 2969 
z
" transform="scale(0.015625)"/>
       <path id="DejaVuSans-6b" d="M 581 4863 
L 1159 4863 
L 1159 1991 
L 2875 3500 
L 3609 3500 
L 1753 1863 
L 3688 0 
L 2938 0 
L 1159 1709 
L 1159 0 
L 581 0 
L 581 4863 
z
" transform="scale(0.015625)"/>
      </defs>
      <use xlink:href="#DejaVuSans-4e"/>
      <use xlink:href="#DejaVuSans-6f" transform="translate(74.804688 0)"/>
      <use xlink:href="#DejaVuSans-20" transform="translate(135.986328 0)"/>
      <use xlink:href="#DejaVuSans-66" transform="translate(167.773438 0)"/>
      <use xlink:href="#DejaVuSans-65" transform="translate(202.978516 0)"/>
      <use xlink:href="#DejaVuSans-65" transform="translate(264.501953 0)"/>
      <use xlink:href="#DejaVuSans-64" transform="translate(326.025391 0)"/>
      <use xlink:href="#DejaVuSans-62" transform="translate(389.501953 0)"/>
      <use xlink:href="#DejaVuSans-61" transform="translate(452.978516 0)"/>
      <use xlink:href="#DejaVuSans-63" transform="translate(514.257812 0)"/>
      <use xlink:href="#DejaVuSans-6b" transform="translate(569.238281 0)"/>
     </g>
    </g>
   </g>
  </g>
  <g id="axes_2">
   <g id="patch_6">
    <path d="M 468.005393 336.640156 
L 768.949213 336.640156 
L 768.949213 31.720156 
L 468.005393 31.720156 
z
" style="fill: #ffffff"/>
   </g>
   <g id="matplotlib.axis_3">
    <g id="xtick_6">
     <g id="line2d_14">
      <g>
       <use xlink:href="#m0dc7d2440f" x="468.005393" y="336.640156" style="stroke: #000000; stroke-width: 1.6"/>
      </g>
     </g>
     <g id="text_16">
      <!-- -1 -->
      <g transform="translate(452.052893 369.455156) scale(0.32 -0.32)">
       <use xlink:href="#DejaVuSans-2d"/>
       <use xlink:href="#DejaVuSans-31" transform="translate(36.083984 0)"/>
      </g>
     </g>
    </g>
    <g id="xtick_7">
     <g id="line2d_15">
      <g>
       <use xlink:href="#m0dc7d2440f" x="543.241348" y="336.640156" style="stroke: #000000; stroke-width: 1.6"/>
      </g>
     </g>
     <g id="text_17">
      <!-- 0 -->
      <g transform="translate(533.061348 369.455156) scale(0.32 -0.32)">
       <use xlink:href="#DejaVuSans-30"/>
      </g>
     </g>
    </g>
    <g id="xtick_8">
     <g id="line2d_16">
      <g>
       <use xlink:href="#m0dc7d2440f" x="618.477303" y="336.640156" style="stroke: #000000; stroke-width: 1.6"/>
      </g>
     </g>
     <g id="text_18">
      <!-- 1 -->
      <g transform="translate(608.297303 369.455156) scale(0.32 -0.32)">
       <use xlink:href="#DejaVuSans-31"/>
      </g>
     </g>
    </g>
    <g id="xtick_9">
     <g id="line2d_17">
      <g>
       <use xlink:href="#m0dc7d2440f" x="693.713258" y="336.640156" style="stroke: #000000; stroke-width: 1.6"/>
      </g>
     </g>
     <g id="text_19">
      <!-- 2 -->
      <g transform="translate(683.533258 369.455156) scale(0.32 -0.32)">
       <use xlink:href="#DejaVuSans-32"/>
      </g>
     </g>
    </g>
    <g id="xtick_10">
     <g id="line2d_18">
      <g>
       <use xlink:href="#m0dc7d2440f" x="768.949213" y="336.640156" style="stroke: #000000; stroke-width: 1.6"/>
      </g>
     </g>
     <g id="text_20">
      <!-- 3 -->
      <g transform="translate(758.769213 369.455156) scale(0.32 -0.32)">
       <use xlink:href="#DejaVuSans-33"/>
      </g>
     </g>
    </g>
    <g id="text_21">
     <!-- Time (s) -->
     <g transform="translate(553.424803 404.425156) scale(0.32 -0.32)">
      <use xlink:href="#DejaVuSans-54"/>
      <use xlink:href="#DejaVuSans-69" transform="translate(57.958984 0)"/>
      <use xlink:href="#DejaVuSans-6d" transform="translate(85.742188 0)"/>
      <use xlink:href="#DejaVuSans-65" transform="translate(183.154297 0)"/>
      <use xlink:href="#DejaVuSans-20" transform="translate(244.677734 0)"/>
      <use xlink:href="#DejaVuSans-28" transform="translate(276.464844 0)"/>
      <use xlink:href="#DejaVuSans-73" transform="translate(315.478516 0)"/>
      <use xlink:href="#DejaVuSans-29" transform="translate(367.578125 0)"/>
     </g>
    </g>
   </g>
   <g id="matplotlib.axis_4">
    <g id="ytick_4">
     <g id="line2d_19">
      <g>
       <use xlink:href="#mfacd0d1ee0" x="468.005393" y="315.612332" style="stroke: #000000; stroke-width: 1.6"/>
      </g>
     </g>
    </g>
    <g id="ytick_5">
     <g id="line2d_20">
      <g>
       <use xlink:href="#mfacd0d1ee0" x="468.005393" y="219.802121" style="stroke: #000000; stroke-width: 1.6"/>
      </g>
     </g>
    </g>
    <g id="ytick_6">
     <g id="line2d_21">
      <g>
       <use xlink:href="#mfacd0d1ee0" x="468.005393" y="123.991911" style="stroke: #000000; stroke-width: 1.6"/>
      </g>
     </g>
    </g>
   </g>
   <g id="line2d_22">
    <path d="M 468.757753 313.038146 
L 473.27191 313.720069 
L 476.281348 314.071072 
L 477.033708 311.980976 
L 480.795506 312.802458 
L 485.309663 313.546817 
L 490.57618 314.169905 
L 494.337978 314.49621 
L 495.090337 312.05895 
L 498.852135 312.862793 
L 503.366292 313.591169 
L 508.632809 314.200878 
L 514.651685 314.675945 
L 522.175281 315.051682 
L 522.92764 311.207763 
L 526.689438 312.204161 
L 530.451236 312.975155 
L 534.965393 313.673764 
L 540.23191 314.258558 
L 547.003146 314.759117 
L 555.279101 315.127023 
L 566.564494 315.387493 
L 584.621124 315.546681 
L 623.74382 315.607773 
L 644.057528 315.611191 
L 644.809888 313.836372 
L 645.562247 296.61774 
L 646.314607 292.305552 
L 647.066966 292.229732 
L 647.819326 284.620795 
L 650.076404 289.040963 
L 652.333483 292.830704 
L 653.838202 295.051914 
L 655.342921 294.867641 
L 657.6 297.826354 
L 659.857079 300.363078 
L 662.114157 302.538004 
L 662.866517 295.29588 
L 663.618876 296.311703 
L 664.371236 288.604217 
L 665.123596 288.413843 
L 666.628315 291.012996 
L 667.380674 290.534955 
L 669.637753 294.111616 
L 671.894831 297.178157 
L 674.15191 299.807331 
L 676.408989 302.061519 
L 678.666067 303.994204 
L 680.923146 305.65124 
L 683.180225 307.071942 
L 686.189663 308.656131 
L 689.199101 309.946463 
L 692.208539 310.997446 
L 692.960899 311.228191 
L 693.713258 310.332185 
L 696.722697 311.311619 
L 700.484494 312.284523 
L 704.246292 313.037337 
L 708.760449 313.719474 
L 709.512809 306.160287 
L 711.769888 307.508386 
L 714.779326 309.011618 
L 717.788764 310.236009 
L 720.798202 311.233284 
L 724.56 312.223909 
L 725.31236 311.875321 
L 727.569438 312.408312 
L 728.321798 312.109449 
L 732.083596 312.901868 
L 736.597753 313.619892 
L 739.607191 313.989477 
L 740.359551 308.47088 
L 743.368989 309.795575 
L 746.378427 310.874547 
L 750.140225 311.946325 
L 753.902022 312.775646 
L 758.41618 313.527107 
L 759.920899 313.730416 
L 760.673258 310.335235 
L 761.425618 310.392767 
L 764.435056 311.360963 
L 765.939775 311.775472 
L 766.692135 309.651985 
L 767.444494 300.092264 
L 768.196854 296.894 
L 768.196854 296.894 
" clip-path="url(#pb9232233e5)" style="fill: none; stroke: #000000; stroke-width: 5; stroke-linecap: square"/>
   </g>
   <g id="line2d_23">
    <path d="M 468.757753 288.657479 
L 470.262472 291.285578 
L 471.014831 289.635251 
L 471.767191 290.934105 
L 472.519551 281.569479 
L 474.776629 286.424844 
L 477.033708 290.58771 
L 478.538427 288.628996 
L 479.290787 287.22071 
L 480.043146 288.640291 
L 480.795506 286.457513 
L 483.052584 290.615721 
L 485.309663 294.180864 
L 487.566742 297.237527 
L 489.82382 299.858235 
L 492.080899 302.105163 
L 494.337978 304.031624 
L 495.842697 305.160743 
L 496.595056 290.740246 
L 498.852135 294.287628 
L 500.356854 296.366787 
L 501.109213 292.643412 
L 501.861573 289.958489 
L 502.613933 291.241182 
L 503.366292 287.025899 
L 504.118652 288.455221 
L 504.871011 281.658634 
L 505.623371 273.459084 
L 506.37573 270.086564 
L 508.632809 276.579675 
L 509.385169 275.965757 
L 511.642247 281.62035 
L 512.394607 283.31995 
L 513.146966 284.124932 
L 515.404045 288.615824 
L 516.908764 291.247985 
L 517.661124 289.608027 
L 519.918202 293.316893 
L 522.175281 296.496781 
L 524.43236 299.223137 
L 525.937079 300.821084 
L 526.689438 295.779961 
L 527.441798 296.205428 
L 528.946517 290.463953 
L 529.698876 291.721373 
L 530.451236 289.175928 
L 531.203596 276.961894 
L 533.460674 282.474416 
L 534.213034 283.466656 
L 534.965393 285.073942 
L 535.717753 276.003184 
L 536.470112 277.983641 
L 537.222472 266.51042 
L 537.974831 261.653506 
L 540.23191 269.349387 
L 542.488989 275.94764 
L 543.241348 232.828068 
L 543.993708 201.678914 
L 545.498427 152.989057 
L 546.250787 119.705331 
L 547.755506 69.423065 
L 548.507865 64.216646 
L 549.260225 56.794891 
L 550.012584 52.749122 
L 550.764944 57.04168 
L 551.517303 67.776746 
L 552.269663 68.639809 
L 553.022022 64.934257 
L 555.279101 100.687218 
L 556.031461 111.433477 
L 556.78382 109.205834 
L 557.53618 112.11845 
L 558.288539 96.291095 
L 559.040899 99.803696 
L 559.793258 103.943978 
L 560.545618 98.895218 
L 561.297978 97.580108 
L 562.050337 101.524155 
L 562.802697 104.194779 
L 563.555056 112.670521 
L 564.307416 112.462508 
L 565.059775 107.701398 
L 565.812135 90.712865 
L 566.564494 86.086314 
L 568.069213 108.410828 
L 568.821573 109.705608 
L 569.573933 109.319734 
L 570.326292 100.808371 
L 571.831011 116.859087 
L 572.583371 110.116524 
L 573.33573 113.270234 
L 574.08809 105.301034 
L 574.840449 112.249112 
L 575.592809 117.625654 
L 576.345169 116.18248 
L 577.097528 120.286498 
L 577.849888 119.05021 
L 579.354607 138.215032 
L 580.106966 129.694347 
L 580.859326 119.734727 
L 581.611685 124.526789 
L 582.364045 132.759497 
L 583.116404 129.605188 
L 583.868764 123.994364 
L 584.621124 131.310127 
L 585.373483 133.49307 
L 586.125843 128.47105 
L 586.878202 122.302245 
L 587.630562 120.253876 
L 588.382921 115.011551 
L 589.88764 87.284897 
L 590.64 86.638614 
L 591.39236 93.268247 
L 592.144719 104.38546 
L 592.897079 106.556653 
L 593.649438 96.394602 
L 594.401798 95.587419 
L 595.154157 84.91323 
L 595.906517 88.022553 
L 596.658876 89.640404 
L 597.411236 86.829266 
L 598.163596 85.43559 
L 598.915955 77.738549 
L 599.668315 74.539482 
L 600.420674 78.672997 
L 601.173034 77.528452 
L 601.925393 85.839539 
L 602.677753 90.730611 
L 603.430112 89.37237 
L 604.182472 76.904069 
L 604.934831 77.885472 
L 606.439551 95.791592 
L 607.19191 87.93208 
L 607.94427 84.982072 
L 608.696629 77.875521 
L 609.448989 89.762371 
L 610.201348 96.332184 
L 610.953708 101.25161 
L 611.706067 108.776329 
L 612.458427 106.182514 
L 613.210787 102.241565 
L 613.963146 94.671803 
L 614.715506 96.291466 
L 615.467865 92.721373 
L 616.220225 82.751174 
L 616.972584 81.703212 
L 617.724944 86.761509 
L 619.982022 119.401349 
L 622.239101 147.385942 
L 624.49618 171.379247 
L 626.753258 191.950494 
L 629.010337 209.587773 
L 631.267416 224.709532 
L 633.524494 237.674553 
L 635.781573 248.790432 
L 638.038652 258.320904 
L 640.29573 266.492096 
L 641.800449 271.281321 
L 642.552809 271.327906 
L 644.809888 277.643974 
L 647.066966 283.059213 
L 647.819326 283.481943 
L 650.076404 288.064539 
L 652.333483 291.993543 
L 653.085843 292.753467 
L 654.590562 294.982207 
L 655.342921 282.874959 
L 657.6 287.544127 
L 659.857079 291.547356 
L 660.609438 290.712814 
L 661.361798 290.527408 
L 663.618876 294.105145 
L 665.875955 297.172609 
L 668.133034 299.802577 
L 670.390112 302.057444 
L 672.647191 303.99071 
L 674.90427 305.648244 
L 677.161348 307.069372 
L 680.170787 308.654037 
L 682.427865 309.646464 
L 683.180225 300.617611 
L 683.932584 299.07713 
L 684.684944 293.234778 
L 685.437303 294.353655 
L 686.189663 293.8172 
L 688.446742 296.92573 
L 690.70382 299.590906 
L 691.45618 300.391978 
L 692.208539 300.461235 
L 695.970337 303.846641 
L 698.227416 305.524723 
L 698.979775 305.000143 
L 701.236854 306.513707 
L 703.493933 307.811399 
L 704.246292 294.395194 
L 705.751011 284.76473 
L 707.25573 287.772372 
L 708.00809 285.986147 
L 708.760449 285.243725 
L 711.017528 289.575049 
L 711.769888 290.876914 
L 712.522247 281.31776 
L 713.274607 279.170128 
L 714.026966 280.992238 
L 714.779326 280.533287 
L 717.036404 285.53644 
L 719.293483 289.826016 
L 721.550562 293.503791 
L 723.055281 295.659373 
L 723.80764 291.8607 
L 726.064719 295.248279 
L 726.817079 293.650098 
L 728.321798 295.791416 
L 729.074157 293.471552 
L 730.578876 295.630279 
L 731.331236 295.290917 
L 732.835955 297.166923 
L 735.093034 299.797701 
L 737.350112 302.053263 
L 739.607191 303.987126 
L 740.359551 300.114329 
L 741.11191 300.889229 
L 741.86427 292.105372 
L 744.121348 295.458052 
L 744.873708 296.465766 
L 745.626067 296.993777 
L 747.883146 299.649251 
L 749.387865 301.20565 
L 750.892584 302.520875 
L 751.644944 297.790623 
L 752.397303 298.681708 
L 753.149663 296.135631 
L 755.406742 298.913496 
L 757.66382 301.295166 
L 758.41618 293.428866 
L 759.168539 287.760963 
L 759.920899 278.692679 
L 762.177978 283.958346 
L 764.435056 288.472999 
L 765.187416 287.875412 
L 767.444494 291.83139 
L 768.196854 293.020438 
L 768.196854 293.020438 
" clip-path="url(#pb9232233e5)" style="fill: none; stroke: #ff0000; stroke-width: 5; stroke-linecap: square"/>
   </g>
   <g id="patch_7">
    <path d="M 468.005393 336.640156 
L 468.005393 31.720156 
" style="fill: none; stroke: #000000; stroke-width: 5; stroke-linejoin: miter; stroke-linecap: square"/>
   </g>
   <g id="patch_8">
    <path d="M 468.005393 336.640156 
L 768.949213 336.640156 
" style="fill: none; stroke: #000000; stroke-width: 5; stroke-linejoin: miter; stroke-linecap: square"/>
   </g>
   <g id="patch_9">
    <path d="M 543.241348 330.541756 
L 618.477303 330.541756 
L 618.477303 319.869556 
L 543.241348 319.869556 
z
" style="fill: #8c5a2b; stroke: #8c5a2b; stroke-linejoin: miter"/>
   </g>
   <g id="text_22">
    <!-- Familiar | Expert -->
    <g transform="translate(540.789569 21.720156) scale(0.19 -0.19)">
     <defs>
      <path id="DejaVuSans-45" d="M 628 4666 
L 3578 4666 
L 3578 4134 
L 1259 4134 
L 1259 2753 
L 3481 2753 
L 3481 2222 
L 1259 2222 
L 1259 531 
L 3634 531 
L 3634 0 
L 628 0 
L 628 4666 
z
" transform="scale(0.015625)"/>
      <path id="DejaVuSans-78" d="M 3513 3500 
L 2247 1797 
L 3578 0 
L 2900 0 
L 1881 1375 
L 863 0 
L 184 0 
L 1544 1831 
L 300 3500 
L 978 3500 
L 1906 2253 
L 2834 3500 
L 3513 3500 
z
" transform="scale(0.015625)"/>
      <path id="DejaVuSans-70" d="M 1159 525 
L 1159 -1331 
L 581 -1331 
L 581 3500 
L 1159 3500 
L 1159 2969 
Q 1341 3281 1617 3432 
Q 1894 3584 2278 3584 
Q 2916 3584 3314 3078 
Q 3713 2572 3713 1747 
Q 3713 922 3314 415 
Q 2916 -91 2278 -91 
Q 1894 -91 1617 61 
Q 1341 213 1159 525 
z
M 3116 1747 
Q 3116 2381 2855 2742 
Q 2594 3103 2138 3103 
Q 1681 3103 1420 2742 
Q 1159 2381 1159 1747 
Q 1159 1113 1420 752 
Q 1681 391 2138 391 
Q 2594 391 2855 752 
Q 3116 1113 3116 1747 
z
" transform="scale(0.015625)"/>
     </defs>
     <use xlink:href="#DejaVuSans-46"/>
     <use xlink:href="#DejaVuSans-61" transform="translate(48.394531 0)"/>
     <use xlink:href="#DejaVuSans-6d" transform="translate(109.673828 0)"/>
     <use xlink:href="#DejaVuSans-69" transform="translate(207.085938 0)"/>
     <use xlink:href="#DejaVuSans-6c" transform="translate(234.869141 0)"/>
     <use xlink:href="#DejaVuSans-69" transform="translate(262.652344 0)"/>
     <use xlink:href="#DejaVuSans-61" transform="translate(290.435547 0)"/>
     <use xlink:href="#DejaVuSans-72" transform="translate(351.714844 0)"/>
     <use xlink:href="#DejaVuSans-20" transform="translate(392.828125 0)"/>
     <use xlink:href="#DejaVuSans-7c" transform="translate(424.615234 0)"/>
     <use xlink:href="#DejaVuSans-20" transform="translate(458.306641 0)"/>
     <use xlink:href="#DejaVuSans-45" transform="translate(490.09375 0)"/>
     <use xlink:href="#DejaVuSans-78" transform="translate(553.277344 0)"/>
     <use xlink:href="#DejaVuSans-70" transform="translate(612.457031 0)"/>
     <use xlink:href="#DejaVuSans-65" transform="translate(675.933594 0)"/>
     <use xlink:href="#DejaVuSans-72" transform="translate(737.457031 0)"/>
     <use xlink:href="#DejaVuSans-74" transform="translate(778.570312 0)"/>
    </g>
   </g>
  </g>
  <g id="axes_3">
   <g id="patch_10">
    <path d="M 814.090787 336.640156 
L 1115.034607 336.640156 
L 1115.034607 31.720156 
L 814.090787 31.720156 
z
" style="fill: #ffffff"/>
   </g>
   <g id="matplotlib.axis_5">
    <g id="xtick_11">
     <g id="line2d_24">
      <g>
       <use xlink:href="#m0dc7d2440f" x="814.090787" y="336.640156" style="stroke: #000000; stroke-width: 1.6"/>
      </g>
     </g>
     <g id="text_23">
      <!-- -1 -->
      <g transform="translate(798.138287 369.455156) scale(0.32 -0.32)">
       <use xlink:href="#DejaVuSans-2d"/>
       <use xlink:href="#DejaVuSans-31" transform="translate(36.083984 0)"/>
      </g>
     </g>
    </g>
    <g id="xtick_12">
     <g id="line2d_25">
      <g>
       <use xlink:href="#m0dc7d2440f" x="889.326742" y="336.640156" style="stroke: #000000; stroke-width: 1.6"/>
      </g>
     </g>
     <g id="text_24">
      <!-- 0 -->
      <g transform="translate(879.146742 369.455156) scale(0.32 -0.32)">
       <use xlink:href="#DejaVuSans-30"/>
      </g>
     </g>
    </g>
    <g id="xtick_13">
     <g id="line2d_26">
      <g>
       <use xlink:href="#m0dc7d2440f" x="964.562697" y="336.640156" style="stroke: #000000; stroke-width: 1.6"/>
      </g>
     </g>
     <g id="text_25">
      <!-- 1 -->
      <g transform="translate(954.382697 369.455156) scale(0.32 -0.32)">
       <use xlink:href="#DejaVuSans-31"/>
      </g>
     </g>
    </g>
    <g id="xtick_14">
     <g id="line2d_27">
      <g>
       <use xlink:href="#m0dc7d2440f" x="1039.798652" y="336.640156" style="stroke: #000000; stroke-width: 1.6"/>
      </g>
     </g>
     <g id="text_26">
      <!-- 2 -->
      <g transform="translate(1029.618652 369.455156) scale(0.32 -0.32)">
       <use xlink:href="#DejaVuSans-32"/>
      </g>
     </g>
    </g>
    <g id="xtick_15">
     <g id="line2d_28">
      <g>
       <use xlink:href="#m0dc7d2440f" x="1115.034607" y="336.640156" style="stroke: #000000; stroke-width: 1.6"/>
      </g>
     </g>
     <g id="text_27">
      <!-- 3 -->
      <g transform="translate(1104.854607 369.455156) scale(0.32 -0.32)">
       <use xlink:href="#DejaVuSans-33"/>
      </g>
     </g>
    </g>
    <g id="text_28">
     <!-- Time (s) -->
     <g transform="translate(899.510197 404.425156) scale(0.32 -0.32)">
      <use xlink:href="#DejaVuSans-54"/>
      <use xlink:href="#DejaVuSans-69" transform="translate(57.958984 0)"/>
      <use xlink:href="#DejaVuSans-6d" transform="translate(85.742188 0)"/>
      <use xlink:href="#DejaVuSans-65" transform="translate(183.154297 0)"/>
      <use xlink:href="#DejaVuSans-20" transform="translate(244.677734 0)"/>
      <use xlink:href="#DejaVuSans-28" transform="translate(276.464844 0)"/>
      <use xlink:href="#DejaVuSans-73" transform="translate(315.478516 0)"/>
      <use xlink:href="#DejaVuSans-29" transform="translate(367.578125 0)"/>
     </g>
    </g>
   </g>
   <g id="matplotlib.axis_6">
    <g id="ytick_7">
     <g id="line2d_29">
      <g>
       <use xlink:href="#mfacd0d1ee0" x="814.090787" y="315.612332" style="stroke: #000000; stroke-width: 1.6"/>
      </g>
     </g>
    </g>
    <g id="ytick_8">
     <g id="line2d_30">
      <g>
       <use xlink:href="#mfacd0d1ee0" x="814.090787" y="219.802121" style="stroke: #000000; stroke-width: 1.6"/>
      </g>
     </g>
    </g>
    <g id="ytick_9">
     <g id="line2d_31">
      <g>
       <use xlink:href="#mfacd0d1ee0" x="814.090787" y="123.991911" style="stroke: #000000; stroke-width: 1.6"/>
      </g>
     </g>
    </g>
   </g>
   <g id="line2d_32">
    <path d="M 814.843146 306.604394 
L 817.100225 307.889151 
L 820.109663 309.321754 
L 820.862022 305.737499 
L 822.366742 306.700296 
L 823.119101 301.790711 
L 823.871461 298.989775 
L 825.37618 300.610474 
L 826.128539 296.956825 
L 828.385618 299.617567 
L 829.890337 301.177056 
L 830.642697 300.315643 
L 832.147416 301.807071 
L 832.899775 298.025357 
L 833.652135 295.023401 
L 834.404494 289.880338 
L 836.661573 293.550364 
L 838.166292 295.701406 
L 842.680449 300.892974 
L 843.432809 301.628942 
L 844.185169 299.597033 
L 846.442247 301.881215 
L 847.194607 300.041605 
L 849.451685 302.26238 
L 850.956404 303.564 
L 851.708764 301.896198 
L 852.461124 294.777006 
L 854.718202 297.748645 
L 856.975281 300.296453 
L 857.72764 294.480276 
L 859.984719 297.494236 
L 862.241798 300.078328 
L 864.498876 302.293866 
L 866.755955 304.193412 
L 869.013034 305.822036 
L 871.270112 307.218377 
L 873.527191 308.415565 
L 874.279551 307.83773 
L 875.03191 306.126006 
L 876.536629 307.050923 
L 877.288989 301.147642 
L 879.546067 303.210668 
L 880.298427 301.477523 
L 881.050787 302.184264 
L 881.803146 291.077636 
L 883.307865 278.218284 
L 884.060225 278.351916 
L 886.317303 283.666181 
L 888.574382 288.222501 
L 890.831461 292.128976 
L 893.088539 295.478291 
L 895.345618 298.349911 
L 897.602697 300.811965 
L 899.859775 302.922867 
L 902.116854 304.732703 
L 904.373933 306.28441 
L 906.631011 307.614806 
L 909.640449 309.098297 
L 912.649888 310.30661 
L 915.659326 311.290788 
L 919.421124 312.268404 
L 923.182921 313.024865 
L 927.697079 313.710306 
L 932.963596 314.284076 
L 939.734831 314.7752 
L 948.010787 315.136171 
L 959.29618 315.391731 
L 970.581573 315.510129 
L 971.333933 313.361384 
L 972.086292 308.329799 
L 975.09573 309.680664 
L 975.84809 309.977247 
L 976.600449 302.909301 
L 977.352809 298.395896 
L 978.857528 300.074499 
L 979.609888 296.271728 
L 980.362247 297.238759 
L 981.114607 295.558352 
L 981.866966 289.593709 
L 982.619326 290.894641 
L 983.371685 291.485527 
L 984.876404 293.83789 
L 985.628764 293.735761 
L 986.381124 294.82959 
L 987.133483 291.432483 
L 987.885843 292.641476 
L 988.638202 292.664037 
L 989.390562 293.811451 
L 990.142921 290.910897 
L 990.895281 288.810312 
L 993.15236 292.63295 
L 993.904719 293.401274 
L 996.161798 296.569129 
L 998.418876 299.285165 
L 1000.675955 301.613827 
L 1001.428315 300.874239 
L 1003.685393 302.976261 
L 1005.190112 304.208277 
L 1005.942472 301.839817 
L 1008.199551 303.804122 
L 1010.456629 305.488269 
L 1012.713708 306.932213 
L 1014.218427 307.778525 
L 1014.970787 302.563613 
L 1015.723146 303.216049 
L 1016.475506 301.03025 
L 1017.227865 290.626868 
L 1017.980225 285.415436 
L 1020.237303 289.722268 
L 1022.494382 293.414839 
L 1023.246742 293.598657 
L 1023.999101 294.69934 
L 1024.751461 291.607681 
L 1025.50382 286.880073 
L 1027.760899 290.978014 
L 1030.017978 294.491486 
L 1032.275056 297.503848 
L 1034.532135 300.08657 
L 1036.789213 302.300932 
L 1039.046292 304.19947 
L 1041.303371 305.82723 
L 1042.05573 303.118948 
L 1042.80809 296.787481 
L 1043.560449 296.831523 
L 1045.817528 299.510135 
L 1048.074607 301.806711 
L 1050.331685 303.775738 
L 1052.588764 305.463934 
L 1054.845843 306.91135 
L 1056.350562 307.759695 
L 1057.102921 307.258267 
L 1057.855281 304.249686 
L 1060.11236 305.870284 
L 1061.617079 306.820133 
L 1062.369438 305.729162 
L 1063.121798 302.201968 
L 1065.378876 304.114622 
L 1067.635955 305.754483 
L 1068.388315 306.247376 
L 1069.140674 303.343892 
L 1071.397753 305.093678 
L 1072.150112 305.619611 
L 1072.902472 298.001827 
L 1073.654831 293.002126 
L 1075.91191 296.226908 
L 1077.416629 298.116988 
L 1078.168989 297.050535 
L 1080.426067 299.697911 
L 1081.930787 301.249568 
L 1082.683146 301.051235 
L 1084.940225 303.128012 
L 1087.197303 304.908588 
L 1089.454382 306.43521 
L 1091.711461 307.744098 
L 1094.720899 309.203606 
L 1097.730337 310.392385 
L 1099.235056 310.90133 
L 1099.987416 303.657183 
L 1101.492135 304.822811 
L 1102.996854 289.539953 
L 1103.749213 286.196111 
L 1106.006292 290.3916 
L 1107.511011 292.850622 
L 1108.263371 284.996818 
L 1109.76809 273.183848 
L 1110.520449 261.260782 
L 1112.777528 269.012671 
L 1114.282247 273.556138 
L 1114.282247 273.556138 
" clip-path="url(#pde88eaf9fb)" style="fill: none; stroke: #000000; stroke-width: 5; stroke-linecap: square"/>
   </g>
   <g id="line2d_33">
    <path d="M 814.843146 285.701574 
L 815.595506 274.384919 
L 816.347865 268.668025 
L 817.100225 268.127786 
L 817.852584 269.683365 
L 820.109663 276.233987 
L 820.862022 275.91824 
L 822.366742 260.939339 
L 824.62382 268.737075 
L 826.880899 275.422659 
L 829.137978 281.154712 
L 831.395056 286.069233 
L 832.147416 287.546388 
L 832.899775 283.979858 
L 833.652135 278.406193 
L 835.909213 283.71272 
L 838.166292 288.262403 
L 839.671011 290.929023 
L 840.423371 292.068609 
L 841.17573 287.971413 
L 841.92809 287.258734 
L 842.680449 277.447243 
L 843.432809 274.611849 
L 845.689888 280.459544 
L 847.946966 285.468339 
L 848.699326 284.766915 
L 850.956404 289.166244 
L 853.213483 292.938118 
L 855.470562 296.172028 
L 857.72764 298.944701 
L 859.23236 300.569796 
L 859.984719 296.890595 
L 860.737079 289.548747 
L 862.241798 291.87613 
L 862.994157 292.560795 
L 863.746517 287.957858 
L 864.498876 287.312911 
L 865.251236 288.727883 
L 866.003596 288.517964 
L 868.260674 292.382299 
L 870.517753 295.695483 
L 872.022472 297.637377 
L 872.774831 290.889164 
L 873.527191 289.668048 
L 875.78427 293.368352 
L 878.041348 296.5409 
L 880.298427 299.260963 
L 881.803146 280.675656 
L 882.555506 280.745273 
L 884.812584 285.718189 
L 887.069663 289.981842 
L 889.326742 293.637392 
L 891.58382 296.771567 
L 893.840899 299.458732 
L 895.345618 301.033707 
L 896.097978 298.328822 
L 898.355056 300.793881 
L 900.612135 302.907363 
L 901.364494 297.205319 
L 902.116854 297.343015 
L 902.869213 293.466541 
L 905.126292 296.625085 
L 905.878652 297.574448 
L 906.631011 295.024923 
L 907.383371 293.68781 
L 908.13573 294.274474 
L 908.88809 295.341368 
L 909.640449 295.084838 
L 911.897528 298.012572 
L 914.154607 300.522739 
L 916.411685 302.674894 
L 918.668764 304.520096 
L 919.421124 304.380364 
L 920.173483 304.941963 
L 920.925843 302.85064 
L 921.678202 291.8067 
L 926.19236 298.00049 
L 928.449438 300.51238 
L 930.706517 302.666011 
L 932.211236 303.928277 
L 932.963596 304.175897 
L 935.220674 305.807019 
L 936.725393 306.763036 
L 937.477753 304.915063 
L 938.982472 305.958047 
L 939.734831 300.705995 
L 940.487191 301.451312 
L 941.239551 296.677162 
L 941.99191 297.623921 
L 942.74427 297.207468 
L 943.496629 293.364606 
L 944.248989 294.476993 
L 945.001348 294.867047 
L 945.753708 295.90431 
L 947.258427 287.873532 
L 948.763146 290.578066 
L 950.267865 283.223271 
L 951.020225 283.84047 
L 953.277303 288.371933 
L 955.534382 292.257095 
L 957.039101 294.534232 
L 957.791461 286.339936 
L 958.54382 284.765009 
L 959.29618 286.307376 
L 960.048539 283.198515 
L 962.305618 287.821538 
L 964.562697 291.785199 
L 966.819775 295.183544 
L 967.572135 295.520456 
L 968.324494 295.181278 
L 969.076854 290.76921 
L 969.829213 291.597532 
L 972.086292 295.022644 
L 974.343371 297.959248 
L 975.09573 298.841903 
L 975.84809 298.124619 
L 976.600449 292.100683 
L 977.352809 293.276266 
L 978.105169 291.784505 
L 980.362247 295.18295 
L 981.114607 296.20442 
L 981.866966 294.179306 
L 984.124045 297.236193 
L 986.381124 299.857089 
L 987.885843 301.393226 
L 988.638202 292.278914 
L 990.142921 294.553922 
L 993.15236 298.413798 
L 995.409438 300.866741 
L 996.161798 301.60402 
L 996.914157 300.589 
L 997.666517 298.08326 
L 998.418876 287.731642 
L 999.171236 283.208366 
L 1001.428315 287.829984 
L 1003.685393 291.792443 
L 1005.942472 295.189755 
L 1008.199551 298.102527 
L 1010.456629 300.599865 
L 1012.713708 302.741018 
L 1013.466067 301.123521 
L 1016.475506 303.78763 
L 1018.732584 305.474128 
L 1020.989663 306.920091 
L 1023.246742 308.159822 
L 1023.999101 302.588742 
L 1024.751461 302.985113 
L 1027.008539 304.786071 
L 1029.265618 306.330166 
L 1030.770337 307.235178 
L 1031.522697 305.280905 
L 1032.275056 304.694565 
L 1034.532135 306.251712 
L 1035.284494 306.719743 
L 1036.036854 306.241549 
L 1036.789213 303.335373 
L 1039.046292 305.086376 
L 1039.798652 305.612673 
L 1040.551011 303.602592 
L 1042.05573 304.773542 
L 1042.80809 298.018583 
L 1043.560449 294.118 
L 1044.312809 289.002946 
L 1045.065169 286.453483 
L 1045.817528 273.136881 
L 1049.579326 282.58893 
L 1051.836404 287.298893 
L 1054.093483 291.337099 
L 1056.350562 294.799355 
L 1058.60764 297.767807 
L 1060.864719 300.312884 
L 1063.121798 302.494968 
L 1063.874157 296.019888 
L 1064.626517 296.999511 
L 1065.378876 289.99028 
L 1066.131236 289.524812 
L 1066.883596 287.951136 
L 1069.140674 291.896314 
L 1070.645393 294.208628 
L 1071.397753 292.781927 
L 1073.654831 296.038115 
L 1074.407191 297.016825 
L 1075.159551 297.438442 
L 1077.416629 300.030494 
L 1079.673708 302.252854 
L 1081.930787 304.158249 
L 1084.187865 305.791889 
L 1084.940225 306.282911 
L 1085.692584 303.63059 
L 1086.444944 303.581476 
L 1087.197303 298.516312 
L 1089.454382 300.954632 
L 1091.711461 303.045187 
L 1093.21618 304.270484 
L 1093.968539 303.207837 
L 1096.225618 304.977029 
L 1097.730337 306.013971 
L 1098.482697 291.888617 
L 1099.235056 292.583355 
L 1099.987416 289.471531 
L 1102.244494 293.199864 
L 1104.501573 296.396443 
L 1106.758652 299.137112 
L 1107.511011 298.72794 
L 1108.263371 299.572159 
L 1109.01573 291.438815 
L 1109.76809 286.97459 
L 1110.520449 283.933572 
L 1112.777528 288.451757 
L 1114.282247 291.099913 
L 1114.282247 291.099913 
" clip-path="url(#pde88eaf9fb)" style="fill: none; stroke: #ff0000; stroke-width: 5; stroke-linecap: square"/>
   </g>
   <g id="line2d_34">
    <path d="M 814.843146 296.825327 
L 817.100225 299.504823 
L 819.357303 301.802157 
L 820.109663 302.492666 
L 820.862022 295.540974 
L 823.119101 298.403652 
L 825.37618 300.858042 
L 827.633258 302.962373 
L 829.890337 304.766575 
L 830.642697 305.308862 
L 831.395056 304.74806 
L 833.652135 306.297578 
L 834.404494 303.319802 
L 836.661573 305.073025 
L 838.918652 306.576194 
L 841.17573 307.864974 
L 844.185169 309.302061 
L 844.937528 304.772715 
L 847.194607 306.318715 
L 847.946966 306.783396 
L 848.699326 306.336785 
L 850.204045 307.241152 
L 850.956404 306.052696 
L 852.461124 298.043903 
L 854.718202 300.549599 
L 856.222921 292.440506 
L 856.975281 293.443423 
L 857.72764 288.982359 
L 859.984719 292.780459 
L 862.241798 296.036855 
L 862.994157 296.450053 
L 863.746517 291.940902 
L 864.498876 292.495743 
L 866.755955 295.792748 
L 869.013034 298.619518 
L 869.765393 298.059445 
L 872.022472 300.562925 
L 874.279551 302.709347 
L 875.03191 295.219367 
L 876.536629 297.20768 
L 877.288989 295.181544 
L 878.041348 296.203083 
L 878.793708 294.103898 
L 879.546067 293.876961 
L 880.298427 294.263647 
L 882.555506 297.308503 
L 884.812584 299.919088 
L 887.069663 302.157338 
L 889.326742 304.076358 
L 891.58382 305.721677 
L 893.840899 307.132332 
L 896.850337 308.70532 
L 899.859775 309.986527 
L 902.869213 311.030079 
L 906.631011 312.066672 
L 910.392809 312.868768 
L 914.906966 313.595561 
L 920.173483 314.203946 
L 926.19236 314.67798 
L 934.468315 315.080872 
L 945.001348 315.353153 
L 961.553258 315.528479 
L 966.819775 315.553774 
L 967.572135 312.71445 
L 968.324494 311.887373 
L 969.076854 308.768631 
L 969.829213 309.110816 
L 970.581573 307.716161 
L 971.333933 304.472161 
L 972.086292 303.916842 
L 974.343371 305.584911 
L 976.600449 307.015072 
L 978.105169 307.853306 
L 978.857528 303.242769 
L 979.609888 301.637643 
L 980.362247 301.773493 
L 981.114607 302.465435 
L 981.866966 299.096673 
L 983.371685 300.227437 
L 984.124045 300.996682 
L 984.876404 301.522365 
L 987.133483 303.531947 
L 987.885843 300.736328 
L 988.638202 300.873741 
L 989.390562 297.381745 
L 991.64764 299.981883 
L 992.4 296.661313 
L 993.15236 289.656331 
L 995.409438 293.358305 
L 997.666517 296.532284 
L 999.923596 299.253577 
L 1001.428315 300.848555 
L 1002.180674 296.815395 
L 1002.933034 294.085559 
L 1005.190112 267.204985 
L 1005.942472 266.126345 
L 1007.447191 270.95123 
L 1008.199551 269.908796 
L 1010.456629 276.427263 
L 1012.713708 282.016033 
L 1014.970787 286.807708 
L 1015.723146 287.661459 
L 1017.980225 291.647952 
L 1018.732584 288.125253 
L 1019.484944 289.216952 
L 1020.989663 291.790503 
L 1021.742022 289.594264 
L 1023.246742 292.131025 
L 1023.999101 292.80391 
L 1025.50382 295.027732 
L 1026.25618 294.320656 
L 1027.008539 295.38524 
L 1027.760899 295.674087 
L 1030.017978 298.517779 
L 1031.522697 300.184498 
L 1032.275056 298.343741 
L 1033.027416 299.20717 
L 1033.779775 296.15116 
L 1036.036854 298.926811 
L 1038.293933 301.306583 
L 1040.551011 303.34694 
L 1042.05573 298.52581 
L 1044.312809 300.962775 
L 1046.569888 303.052168 
L 1048.826966 304.843562 
L 1051.084045 306.379458 
L 1053.341124 307.696298 
L 1056.350562 309.164673 
L 1057.102921 305.03275 
L 1057.855281 305.561729 
L 1058.60764 305.82863 
L 1060.864719 307.224031 
L 1062.369438 308.04189 
L 1063.121798 300.953893 
L 1063.874157 301.686814 
L 1064.626517 297.892115 
L 1065.378876 277.558373 
L 1066.131236 277.962519 
L 1068.388315 283.332321 
L 1070.645393 287.936258 
L 1072.902472 291.883559 
L 1075.159551 295.267876 
L 1077.416629 298.169503 
L 1079.673708 300.657287 
L 1080.426067 301.40504 
L 1081.178427 298.395837 
L 1081.930787 298.278401 
L 1084.187865 300.750653 
L 1084.940225 301.493737 
L 1085.692584 298.564231 
L 1087.949663 300.995717 
L 1088.702022 294.899323 
L 1090.959101 297.853516 
L 1093.21618 300.386367 
L 1095.473258 302.557971 
L 1097.730337 304.419849 
L 1099.987416 306.016178 
L 1102.244494 307.384829 
L 1105.253933 308.91098 
L 1107.511011 309.86676 
L 1108.263371 309.102473 
L 1109.01573 309.427966 
L 1109.76809 306.000455 
L 1112.025169 307.37135 
L 1112.777528 304.298685 
L 1114.282247 305.401766 
L 1114.282247 305.401766 
" clip-path="url(#pde88eaf9fb)" style="fill: none; stroke: #0000ff; stroke-width: 5; stroke-linecap: square"/>
   </g>
   <g id="patch_11">
    <path d="M 814.090787 336.640156 
L 814.090787 31.720156 
" style="fill: none; stroke: #000000; stroke-width: 5; stroke-linejoin: miter; stroke-linecap: square"/>
   </g>
   <g id="patch_12">
    <path d="M 814.090787 336.640156 
L 1115.034607 336.640156 
" style="fill: none; stroke: #000000; stroke-width: 5; stroke-linejoin: miter; stroke-linecap: square"/>
   </g>
   <g id="patch_13">
    <path d="M 889.326742 330.541756 
L 964.562697 330.541756 
L 964.562697 319.869556 
L 889.326742 319.869556 
z
" style="fill: #8c5a2b; stroke: #8c5a2b; stroke-linejoin: miter"/>
   </g>
   <g id="text_29">
    <!-- Novel | Naive -->
    <g transform="translate(901.26004 21.720156) scale(0.19 -0.19)">
     <use xlink:href="#DejaVuSans-4e"/>
     <use xlink:href="#DejaVuSans-6f" transform="translate(74.804688 0)"/>
     <use xlink:href="#DejaVuSans-76" transform="translate(135.986328 0)"/>
     <use xlink:href="#DejaVuSans-65" transform="translate(195.166016 0)"/>
     <use xlink:href="#DejaVuSans-6c" transform="translate(256.689453 0)"/>
     <use xlink:href="#DejaVuSans-20" transform="translate(284.472656 0)"/>
     <use xlink:href="#DejaVuSans-7c" transform="translate(316.259766 0)"/>
     <use xlink:href="#DejaVuSans-20" transform="translate(349.951172 0)"/>
     <use xlink:href="#DejaVuSans-4e" transform="translate(381.738281 0)"/>
     <use xlink:href="#DejaVuSans-61" transform="translate(456.542969 0)"/>
     <use xlink:href="#DejaVuSans-69" transform="translate(517.822266 0)"/>
     <use xlink:href="#DejaVuSans-76" transform="translate(545.605469 0)"/>
     <use xlink:href="#DejaVuSans-65" transform="translate(604.785156 0)"/>
    </g>
   </g>
  </g>
  <g id="axes_4">
   <g id="patch_14">
    <path d="M 1160.17618 336.640156 
L 1461.12 336.640156 
L 1461.12 31.720156 
L 1160.17618 31.720156 
z
" style="fill: #ffffff"/>
   </g>
   <g id="matplotlib.axis_7">
    <g id="xtick_16">
     <g id="line2d_35">
      <g>
       <use xlink:href="#m0dc7d2440f" x="1160.17618" y="336.640156" style="stroke: #000000; stroke-width: 1.6"/>
      </g>
     </g>
     <g id="text_30">
      <!-- -1 -->
      <g transform="translate(1144.22368 369.455156) scale(0.32 -0.32)">
       <use xlink:href="#DejaVuSans-2d"/>
       <use xlink:href="#DejaVuSans-31" transform="translate(36.083984 0)"/>
      </g>
     </g>
    </g>
    <g id="xtick_17">
     <g id="line2d_36">
      <g>
       <use xlink:href="#m0dc7d2440f" x="1235.412135" y="336.640156" style="stroke: #000000; stroke-width: 1.6"/>
      </g>
     </g>
     <g id="text_31">
      <!-- 0 -->
      <g transform="translate(1225.232135 369.455156) scale(0.32 -0.32)">
       <use xlink:href="#DejaVuSans-30"/>
      </g>
     </g>
    </g>
    <g id="xtick_18">
     <g id="line2d_37">
      <g>
       <use xlink:href="#m0dc7d2440f" x="1310.64809" y="336.640156" style="stroke: #000000; stroke-width: 1.6"/>
      </g>
     </g>
     <g id="text_32">
      <!-- 1 -->
      <g transform="translate(1300.46809 369.455156) scale(0.32 -0.32)">
       <use xlink:href="#DejaVuSans-31"/>
      </g>
     </g>
    </g>
    <g id="xtick_19">
     <g id="line2d_38">
      <g>
       <use xlink:href="#m0dc7d2440f" x="1385.884045" y="336.640156" style="stroke: #000000; stroke-width: 1.6"/>
      </g>
     </g>
     <g id="text_33">
      <!-- 2 -->
      <g transform="translate(1375.704045 369.455156) scale(0.32 -0.32)">
       <use xlink:href="#DejaVuSans-32"/>
      </g>
     </g>
    </g>
    <g id="xtick_20">
     <g id="line2d_39">
      <g>
       <use xlink:href="#m0dc7d2440f" x="1461.12" y="336.640156" style="stroke: #000000; stroke-width: 1.6"/>
      </g>
     </g>
     <g id="text_34">
      <!-- 3 -->
      <g transform="translate(1450.94 369.455156) scale(0.32 -0.32)">
       <use xlink:href="#DejaVuSans-33"/>
      </g>
     </g>
    </g>
    <g id="text_35">
     <!-- Time (s) -->
     <g transform="translate(1245.59559 404.425156) scale(0.32 -0.32)">
      <use xlink:href="#DejaVuSans-54"/>
      <use xlink:href="#DejaVuSans-69" transform="translate(57.958984 0)"/>
      <use xlink:href="#DejaVuSans-6d" transform="translate(85.742188 0)"/>
      <use xlink:href="#DejaVuSans-65" transform="translate(183.154297 0)"/>
      <use xlink:href="#DejaVuSans-20" transform="translate(244.677734 0)"/>
      <use xlink:href="#DejaVuSans-28" transform="translate(276.464844 0)"/>
      <use xlink:href="#DejaVuSans-73" transform="translate(315.478516 0)"/>
      <use xlink:href="#DejaVuSans-29" transform="translate(367.578125 0)"/>
     </g>
    </g>
   </g>
   <g id="matplotlib.axis_8">
    <g id="ytick_10">
     <g id="line2d_40">
      <g>
       <use xlink:href="#mfacd0d1ee0" x="1160.17618" y="315.612332" style="stroke: #000000; stroke-width: 1.6"/>
      </g>
     </g>
    </g>
    <g id="ytick_11">
     <g id="line2d_41">
      <g>
       <use xlink:href="#mfacd0d1ee0" x="1160.17618" y="219.802121" style="stroke: #000000; stroke-width: 1.6"/>
      </g>
     </g>
    </g>
    <g id="ytick_12">
     <g id="line2d_42">
      <g>
       <use xlink:href="#mfacd0d1ee0" x="1160.17618" y="123.991911" style="stroke: #000000; stroke-width: 1.6"/>
      </g>
     </g>
    </g>
   </g>
   <g id="line2d_43">
    <path d="M 1160.928539 312.263684 
L 1164.690337 313.021212 
L 1169.204494 313.707621 
L 1174.471011 314.282201 
L 1181.242247 314.774018 
L 1189.518202 315.135499 
L 1200.803596 315.391419 
L 1201.555955 315.402465 
L 1202.308315 313.020663 
L 1206.822472 313.707217 
L 1212.088989 314.28192 
L 1218.860225 314.773841 
L 1227.13618 315.135398 
L 1230.145618 315.223866 
L 1230.897978 310.894238 
L 1234.659775 311.961562 
L 1238.421573 312.787435 
L 1242.93573 313.535773 
L 1248.202247 314.162194 
L 1254.221124 314.650281 
L 1261.744719 315.036317 
L 1272.277753 315.331424 
L 1288.077303 315.516665 
L 1318.171685 315.600038 
L 1321.933483 315.602819 
L 1322.685843 313.207596 
L 1326.44764 313.751593 
L 1327.2 311.861529 
L 1330.961798 312.710032 
L 1335.475955 313.478875 
L 1336.228315 312.521308 
L 1339.990112 313.220557 
L 1340.742472 310.138415 
L 1341.494831 300.81328 
L 1342.247191 293.629356 
L 1342.999551 292.922927 
L 1345.256629 296.159005 
L 1347.513708 298.933535 
L 1348.266067 298.577919 
L 1349.018427 296.412937 
L 1349.770787 296.377302 
L 1352.027865 299.120699 
L 1354.284944 301.472819 
L 1356.542022 303.489467 
L 1358.799101 305.218492 
L 1361.05618 306.700913 
L 1363.313258 307.971904 
L 1366.322697 309.389156 
L 1369.332135 310.543516 
L 1372.341573 311.483751 
L 1376.103371 312.417715 
L 1380.617528 313.263995 
L 1385.131685 313.886089 
L 1391.150562 314.467107 
L 1397.921798 314.890555 
L 1398.674157 314.926644 
L 1399.426517 312.747501 
L 1403.940674 313.506418 
L 1404.693034 310.427424 
L 1407.702472 311.389192 
L 1411.46427 312.344547 
L 1412.216629 312.507937 
L 1412.968989 312.050095 
L 1416.730787 312.855941 
L 1421.244944 313.586131 
L 1424.254382 313.961979 
L 1425.006742 312.007424 
L 1428.768539 312.822923 
L 1431.777978 313.340341 
L 1432.530337 311.585983 
L 1436.292135 312.49682 
L 1440.806292 313.322145 
L 1446.072809 314.013009 
L 1452.091685 314.551309 
L 1459.615281 314.977058 
L 1460.36764 315.008822 
L 1460.36764 315.008822 
" clip-path="url(#pf05b810290)" style="fill: none; stroke: #000000; stroke-width: 5; stroke-linecap: square"/>
   </g>
   <g id="line2d_44">
    <path d="M 1160.928539 304.677041 
L 1163.185618 306.236687 
L 1163.937978 304.347418 
L 1164.690337 304.910664 
L 1165.442697 302.519609 
L 1166.195056 303.174245 
L 1166.947416 295.182479 
L 1167.699775 285.427771 
L 1169.956854 289.732845 
L 1172.213933 293.42391 
L 1174.471011 296.588533 
L 1176.72809 299.301804 
L 1178.985169 301.628094 
L 1180.489888 302.991557 
L 1181.242247 298.499175 
L 1181.994607 299.354834 
L 1182.746966 299.844636 
L 1185.004045 302.093503 
L 1187.261124 304.021626 
L 1189.518202 305.674751 
L 1191.775281 307.092099 
L 1192.52764 307.51811 
L 1193.28 306.339223 
L 1195.537079 307.661801 
L 1198.546517 309.136575 
L 1199.298876 304.880568 
L 1201.555955 306.411187 
L 1202.308315 306.871244 
L 1203.060674 301.951344 
L 1203.813034 302.634393 
L 1204.565393 302.58287 
L 1206.822472 304.441198 
L 1207.574831 301.741206 
L 1208.327191 297.503068 
L 1210.58427 300.085902 
L 1212.088989 301.599729 
L 1212.841348 299.200192 
L 1215.098427 301.540975 
L 1217.355506 303.547902 
L 1218.107865 302.59483 
L 1218.860225 300.66531 
L 1219.612584 292.827836 
L 1220.364944 290.051961 
L 1221.117303 289.50672 
L 1221.869663 280.311911 
L 1224.126742 285.346633 
L 1226.38382 289.66328 
L 1228.640899 293.364265 
L 1230.897978 296.537395 
L 1231.650337 297.491143 
L 1232.402697 293.324499 
L 1233.155056 290.418092 
L 1234.659775 292.874532 
L 1235.412135 253.378421 
L 1236.164494 226.462013 
L 1236.916854 209.775564 
L 1237.669213 209.495788 
L 1239.173933 185.149153 
L 1239.926292 180.380591 
L 1240.678652 187.142185 
L 1241.431011 180.141397 
L 1242.93573 167.844874 
L 1243.68809 154.91386 
L 1244.440449 151.351704 
L 1245.192809 155.092848 
L 1245.945169 157.758619 
L 1246.697528 165.65131 
L 1247.449888 162.98701 
L 1248.202247 155.704868 
L 1248.954607 162.415565 
L 1249.706966 165.9876 
L 1250.459326 171.383173 
L 1251.211685 178.59463 
L 1251.964045 180.485126 
L 1252.716404 177.449157 
L 1254.221124 166.523938 
L 1255.725843 181.060054 
L 1256.478202 166.94896 
L 1257.230562 174.382136 
L 1257.982921 178.890318 
L 1258.735281 166.966906 
L 1259.48764 157.534187 
L 1261.744719 180.080092 
L 1264.001798 199.410382 
L 1264.754157 203.811473 
L 1265.506517 209.401518 
L 1266.258876 203.839913 
L 1267.011236 187.162087 
L 1267.763596 175.418006 
L 1268.515955 168.022063 
L 1269.268315 175.401573 
L 1270.020674 174.293191 
L 1270.773034 179.190959 
L 1271.525393 182.053936 
L 1272.277753 188.731853 
L 1273.030112 191.137029 
L 1273.782472 197.264075 
L 1275.287191 196.667596 
L 1276.79191 208.264711 
L 1278.296629 196.845564 
L 1279.048989 195.520673 
L 1279.801348 201.52526 
L 1280.553708 205.364557 
L 1281.306067 198.899193 
L 1282.058427 189.556954 
L 1282.810787 183.343105 
L 1283.563146 183.716773 
L 1284.315506 180.424492 
L 1285.067865 174.080267 
L 1285.820225 178.152734 
L 1286.572584 183.543323 
L 1287.324944 168.856687 
L 1288.077303 162.282505 
L 1288.829663 154.467752 
L 1289.582022 149.628619 
L 1290.334382 153.031459 
L 1291.086742 161.160503 
L 1291.839101 163.001929 
L 1292.591461 170.632454 
L 1293.34382 175.194616 
L 1294.09618 165.269561 
L 1294.848539 167.755544 
L 1295.600899 162.698632 
L 1296.353258 163.660405 
L 1297.105618 168.989348 
L 1297.857978 157.906598 
L 1298.610337 162.448587 
L 1299.362697 161.557684 
L 1300.867416 170.359124 
L 1301.619775 169.643155 
L 1302.372135 172.255302 
L 1303.876854 165.902596 
L 1304.629213 169.769605 
L 1305.381573 158.546215 
L 1306.133933 160.682986 
L 1306.886292 165.017133 
L 1307.638652 155.624832 
L 1308.391011 153.665736 
L 1309.143371 151.16345 
L 1311.400449 174.617975 
L 1313.657528 194.727295 
L 1315.914607 211.968528 
L 1318.171685 226.750726 
L 1320.428764 239.424615 
L 1322.685843 250.290891 
L 1324.942921 259.607368 
L 1327.2 267.595078 
L 1329.457079 274.44354 
L 1330.961798 278.4575 
L 1331.714157 278.623875 
L 1332.466517 276.30152 
L 1334.723596 281.908225 
L 1336.980674 286.715276 
L 1339.237753 290.83672 
L 1339.990112 285.476784 
L 1340.742472 286.983561 
L 1341.494831 281.181723 
L 1342.247191 281.215242 
L 1344.50427 286.121128 
L 1346.761348 290.327311 
L 1349.018427 293.933588 
L 1349.770787 294.558219 
L 1350.523146 290.589663 
L 1351.275506 285.765485 
L 1352.027865 279.62855 
L 1354.284944 284.760736 
L 1356.542022 289.160946 
L 1358.799101 292.933576 
L 1361.05618 296.168134 
L 1363.313258 298.941364 
L 1364.817978 300.566785 
L 1365.570337 295.690149 
L 1367.827416 298.531551 
L 1370.084494 300.967698 
L 1371.589213 302.39555 
L 1372.341573 301.380153 
L 1373.846292 302.767791 
L 1374.598652 301.452226 
L 1376.85573 303.471811 
L 1377.60809 304.078837 
L 1378.360449 304.322158 
L 1380.617528 305.932419 
L 1381.369888 304.129601 
L 1382.122247 299.998581 
L 1384.379326 302.225493 
L 1385.131685 294.312752 
L 1387.388764 297.350604 
L 1389.645843 299.955183 
L 1391.902921 302.188286 
L 1394.16 304.10289 
L 1396.417079 305.744424 
L 1397.169438 299.202987 
L 1397.921798 289.271702 
L 1398.674157 287.548918 
L 1400.931236 291.551464 
L 1401.683596 288.749891 
L 1402.435955 286.821895 
L 1404.693034 290.928132 
L 1406.950112 294.448717 
L 1409.207191 297.467177 
L 1411.46427 300.055128 
L 1413.721348 302.273975 
L 1415.978427 304.176359 
L 1418.235506 305.807415 
L 1418.987865 306.297661 
L 1419.740225 305.45509 
L 1420.492584 303.107184 
L 1422.749663 304.89073 
L 1424.254382 305.936086 
L 1425.006742 305.198514 
L 1425.759101 303.735008 
L 1426.511461 302.614639 
L 1427.26382 300.108727 
L 1428.01618 296.200489 
L 1430.273258 298.969104 
L 1432.530337 301.342844 
L 1434.787416 303.37803 
L 1436.292135 304.570875 
L 1437.044494 298.619455 
L 1439.301573 301.043066 
L 1441.558652 303.121008 
L 1443.063371 304.338912 
L 1443.81573 303.700608 
L 1445.320449 304.862002 
L 1446.072809 304.008098 
L 1448.329888 305.663152 
L 1450.586966 307.082154 
L 1451.339326 307.508663 
L 1452.091685 306.593903 
L 1454.348764 307.880157 
L 1455.853483 308.634044 
L 1456.605843 305.412782 
L 1457.358202 303.894671 
L 1458.110562 301.734159 
L 1458.862921 301.590605 
L 1459.615281 302.291691 
L 1460.36764 300.567665 
L 1460.36764 300.567665 
" clip-path="url(#pf05b810290)" style="fill: none; stroke: #ff0000; stroke-width: 5; stroke-linecap: square"/>
   </g>
   <g id="line2d_45">
    <path d="M 1160.928539 312.674963 
L 1165.442697 313.453096 
L 1170.709213 314.104457 
L 1176.72809 314.611977 
L 1184.251685 315.013383 
L 1188.765843 315.172049 
L 1189.518202 314.277775 
L 1194.784719 314.680361 
L 1195.537079 314.614074 
L 1196.289438 314.663987 
L 1197.041798 309.350569 
L 1197.794157 300.923372 
L 1198.546517 300.099836 
L 1200.803596 302.312306 
L 1201.555955 302.977307 
L 1202.308315 302.05545 
L 1203.060674 302.733295 
L 1203.813034 292.195612 
L 1206.070112 295.535422 
L 1206.822472 293.932983 
L 1209.079551 297.025001 
L 1211.336629 299.67602 
L 1213.593708 301.948935 
L 1215.850787 303.897678 
L 1218.107865 305.56848 
L 1220.364944 307.000985 
L 1223.374382 308.598337 
L 1226.38382 309.89939 
L 1229.393258 310.959105 
L 1230.145618 306.640179 
L 1232.402697 307.919833 
L 1235.412135 309.346744 
L 1238.421573 310.508972 
L 1241.431011 311.455614 
L 1245.192809 312.395943 
L 1249.706966 313.247991 
L 1254.221124 313.874324 
L 1260.24 314.459302 
L 1267.011236 314.885636 
L 1276.039551 315.219654 
L 1288.829663 315.448146 
L 1310.64809 315.575236 
L 1312.905169 315.580527 
L 1313.657528 309.595505 
L 1316.666966 310.711589 
L 1320.428764 311.820231 
L 1323.438202 312.523642 
L 1324.190562 312.141431 
L 1324.942921 309.649128 
L 1327.95236 310.755265 
L 1331.714157 311.854026 
L 1335.475955 312.704227 
L 1336.228315 309.557154 
L 1339.237753 310.680352 
L 1342.247191 311.595204 
L 1346.008989 312.503955 
L 1346.761348 308.807356 
L 1349.018427 309.777916 
L 1349.770787 307.528165 
L 1351.275506 308.316372 
L 1352.027865 304.897832 
L 1352.780225 305.433557 
L 1353.532584 302.836791 
L 1355.789663 304.658903 
L 1358.046742 306.221137 
L 1360.30382 307.560556 
L 1363.313258 309.05411 
L 1366.322697 310.27062 
L 1367.827416 310.791437 
L 1368.579775 308.874606 
L 1369.332135 305.638868 
L 1370.084494 294.940745 
L 1370.836854 290.040004 
L 1371.589213 287.187696 
L 1373.846292 291.24176 
L 1376.103371 294.717615 
L 1378.360449 297.697723 
L 1380.617528 300.252795 
L 1382.874607 302.443449 
L 1385.131685 304.321661 
L 1387.388764 305.931994 
L 1389.645843 307.312652 
L 1392.655281 308.852191 
L 1395.664719 310.106155 
L 1398.674157 311.127517 
L 1402.435955 312.142068 
L 1406.197753 312.927108 
L 1410.71191 313.638446 
L 1415.978427 314.233894 
L 1417.483146 314.368292 
L 1418.235506 307.02551 
L 1418.987865 297.652785 
L 1421.244944 300.214265 
L 1423.502022 302.410415 
L 1425.759101 304.293339 
L 1428.01618 305.90771 
L 1430.273258 307.291832 
L 1433.282697 308.835233 
L 1436.292135 310.092343 
L 1439.301573 311.116266 
L 1442.311011 311.950259 
L 1443.063371 310.43405 
L 1443.81573 303.431667 
L 1446.072809 305.168936 
L 1446.825169 304.068294 
L 1449.082247 305.714763 
L 1451.339326 307.126403 
L 1454.348764 308.70049 
L 1457.358202 309.982594 
L 1460.36764 311.026876 
L 1460.36764 311.026876 
" clip-path="url(#pf05b810290)" style="fill: none; stroke: #0000ff; stroke-width: 5; stroke-linecap: square"/>
   </g>
   <g id="patch_15">
    <path d="M 1160.17618 336.640156 
L 1160.17618 31.720156 
" style="fill: none; stroke: #000000; stroke-width: 5; stroke-linejoin: miter; stroke-linecap: square"/>
   </g>
   <g id="patch_16">
    <path d="M 1160.17618 336.640156 
L 1461.12 336.640156 
" style="fill: none; stroke: #000000; stroke-width: 5; stroke-linejoin: miter; stroke-linecap: square"/>
   </g>
   <g id="patch_17">
    <path d="M 1235.412135 330.541756 
L 1310.64809 330.541756 
L 1310.64809 319.869556 
L 1235.412135 319.869556 
z
" style="fill: #8c5a2b; stroke: #8c5a2b; stroke-linejoin: miter"/>
   </g>
   <g id="text_36">
    <!-- Novel | Expert -->
    <g transform="translate(1243.250043 21.720156) scale(0.19 -0.19)">
     <use xlink:href="#DejaVuSans-4e"/>
     <use xlink:href="#DejaVuSans-6f" transform="translate(74.804688 0)"/>
     <use xlink:href="#DejaVuSans-76" transform="translate(135.986328 0)"/>
     <use xlink:href="#DejaVuSans-65" transform="translate(195.166016 0)"/>
     <use xlink:href="#DejaVuSans-6c" transform="translate(256.689453 0)"/>
     <use xlink:href="#DejaVuSans-20" transform="translate(284.472656 0)"/>
     <use xlink:href="#DejaVuSans-7c" transform="translate(316.259766 0)"/>
     <use xlink:href="#DejaVuSans-20" transform="translate(349.951172 0)"/>
     <use xlink:href="#DejaVuSans-45" transform="translate(381.738281 0)"/>
     <use xlink:href="#DejaVuSans-78" transform="translate(444.921875 0)"/>
     <use xlink:href="#DejaVuSans-70" transform="translate(504.101562 0)"/>
     <use xlink:href="#DejaVuSans-65" transform="translate(567.578125 0)"/>
     <use xlink:href="#DejaVuSans-72" transform="translate(629.101562 0)"/>
     <use xlink:href="#DejaVuSans-74" transform="translate(670.214844 0)"/>
    </g>
   </g>
  </g>
 </g>
 <defs>
  <clipPath id="p06971f3ea9">
   <rect x="121.92" y="31.720156" width="300.94382" height="304.92"/>
  </clipPath>
  <clipPath id="pb9232233e5">
   <rect x="468.005393" y="31.720156" width="300.94382" height="304.92"/>
  </clipPath>
  <clipPath id="pde88eaf9fb">
   <rect x="814.090787" y="31.720156" width="300.94382" height="304.92"/>
  </clipPath>
  <clipPath id="pf05b810290">
   <rect x="1160.17618" y="31.720156" width="300.94382" height="304.92"/>
  </clipPath>
 </defs>
</svg>
