<?xml version="1.0" encoding="utf-8" standalone="no"?>
<!DOCTYPE svg PUBLIC "-//W3C//DTD SVG 1.1//EN"
  "http://www.w3.org/Graphics/SVG/1.1/DTD/svg11.dtd">
<svg xmlns:xlink="http://www.w3.org/1999/xlink" width="872.39952pt" height="404.39952pt" viewBox="0 0 872.39952 404.39952" xmlns="http://www.w3.org/2000/svg" version="1.1">
 <metadata>
  <rdf:RDF xmlns:dc="http://purl.org/dc/elements/1.1/" xmlns:cc="http://creativecommons.org/ns#" xmlns:rdf="http://www.w3.org/1999/02/22-rdf-syntax-ns#">
   <cc:Work>
    <dc:type rdf:resource="http://purl.org/dc/dcmitype/StillImage"/>
    <dc:date>2026-03-25T11:55:23.389679</dc:date>
    <dc:format>image/svg+xml</dc:format>
    <dc:creator>
     <cc:Agent>
      <dc:title>Matplotlib v3.10.7, https://matplotlib.org/</dc:title>
     </cc:Agent>
    </dc:creator>
   </cc:Work>
  </rdf:RDF>
 </metadata>
 <defs>
  <style type="text/css">*{stroke-linejoin: round; stroke-linecap: butt}</style>
 </defs>
 <g id="figure_1">
  <g id="patch_1">
   <path d="M 0 404.39952 
L 872.39952 404.39952 
L 872.39952 0 
L 0 0 
z
" style="fill: #ffffff"/>
  </g>
  <g id="axes_1">
   <g id="patch_2">
    <path d="M 121.92 322.75952 
L 471.08351 322.75952 
L 471.08351 31.720156 
L 121.92 31.720156 
z
" style="fill: #ffffff"/>
   </g>
   <g id="matplotlib.axis_1">
    <g id="xtick_1">
     <g id="line2d_1">
      <defs>
       <path id="m2aafbd9866" d="M 0 0 
L 0 5 
" style="stroke: #000000; stroke-width: 1.6"/>
      </defs>
      <g>
       <use xlink:href="#m2aafbd9866" x="121.92" y="322.75952" style="stroke: #000000; stroke-width: 1.6"/>
      </g>
     </g>
     <g id="text_1">
      <!-- -1 -->
      <g transform="translate(105.9675 355.57452) scale(0.32 -0.32)">
       <defs>
        <path id="DejaVuSans-2d" d="M 313 2009 
L 1997 2009 
L 1997 1497 
L 313 1497 
L 313 2009 
z
" transform="scale(0.015625)"/>
        <path id="DejaVuSans-31" d="M 794 531 
L 1825 531 
L 1825 4091 
L 703 3866 
L 703 4441 
L 1819 4666 
L 2450 4666 
L 2450 531 
L 3481 531 
L 3481 0 
L 794 0 
L 794 531 
z
" transform="scale(0.015625)"/>
       </defs>
       <use xlink:href="#DejaVuSans-2d"/>
       <use xlink:href="#DejaVuSans-31" transform="translate(36.083984 0)"/>
      </g>
     </g>
    </g>
    <g id="xtick_2">
     <g id="line2d_2">
      <g>
       <use xlink:href="#m2aafbd9866" x="209.210878" y="322.75952" style="stroke: #000000; stroke-width: 1.6"/>
      </g>
     </g>
     <g id="text_2">
      <!-- 0 -->
      <g transform="translate(199.030878 355.57452) scale(0.32 -0.32)">
       <defs>
        <path id="DejaVuSans-30" d="M 2034 4250 
Q 1547 4250 1301 3770 
Q 1056 3291 1056 2328 
Q 1056 1369 1301 889 
Q 1547 409 2034 409 
Q 2525 409 2770 889 
Q 3016 1369 3016 2328 
Q 3016 3291 2770 3770 
Q 2525 4250 2034 4250 
z
M 2034 4750 
Q 2819 4750 3233 4129 
Q 3647 3509 3647 2328 
Q 3647 1150 3233 529 
Q 2819 -91 2034 -91 
Q 1250 -91 836 529 
Q 422 1150 422 2328 
Q 422 3509 836 4129 
Q 1250 4750 2034 4750 
z
" transform="scale(0.015625)"/>
       </defs>
       <use xlink:href="#DejaVuSans-30"/>
      </g>
     </g>
    </g>
    <g id="xtick_3">
     <g id="line2d_3">
      <g>
       <use xlink:href="#m2aafbd9866" x="296.501755" y="322.75952" style="stroke: #000000; stroke-width: 1.6"/>
      </g>
     </g>
     <g id="text_3">
      <!-- 1 -->
      <g transform="translate(286.321755 355.57452) scale(0.32 -0.32)">
       <use xlink:href="#DejaVuSans-31"/>
      </g>
     </g>
    </g>
    <g id="xtick_4">
     <g id="line2d_4">
      <g>
       <use xlink:href="#m2aafbd9866" x="383.792633" y="322.75952" style="stroke: #000000; stroke-width: 1.6"/>
      </g>
     </g>
     <g id="text_4">
      <!-- 2 -->
      <g transform="translate(373.612633 355.57452) scale(0.32 -0.32)">
       <defs>
        <path id="DejaVuSans-32" d="M 1228 531 
L 3431 531 
L 3431 0 
L 469 0 
L 469 531 
Q 828 903 1448 1529 
Q 2069 2156 2228 2338 
Q 2531 2678 2651 2914 
Q 2772 3150 2772 3378 
Q 2772 3750 2511 3984 
Q 2250 4219 1831 4219 
Q 1534 4219 1204 4116 
Q 875 4013 500 3803 
L 500 4441 
Q 881 4594 1212 4672 
Q 1544 4750 1819 4750 
Q 2544 4750 2975 4387 
Q 3406 4025 3406 3419 
Q 3406 3131 3298 2873 
Q 3191 2616 2906 2266 
Q 2828 2175 2409 1742 
Q 1991 1309 1228 531 
z
" transform="scale(0.015625)"/>
       </defs>
       <use xlink:href="#DejaVuSans-32"/>
      </g>
     </g>
    </g>
    <g id="xtick_5">
     <g id="line2d_5">
      <g>
       <use xlink:href="#m2aafbd9866" x="471.08351" y="322.75952" style="stroke: #000000; stroke-width: 1.6"/>
      </g>
     </g>
     <g id="text_5">
      <!-- 3 -->
      <g transform="translate(460.90351 355.57452) scale(0.32 -0.32)">
       <defs>
        <path id="DejaVuSans-33" d="M 2597 2516 
Q 3050 2419 3304 2112 
Q 3559 1806 3559 1356 
Q 3559 666 3084 287 
Q 2609 -91 1734 -91 
Q 1441 -91 1130 -33 
Q 819 25 488 141 
L 488 750 
Q 750 597 1062 519 
Q 1375 441 1716 441 
Q 2309 441 2620 675 
Q 2931 909 2931 1356 
Q 2931 1769 2642 2001 
Q 2353 2234 1838 2234 
L 1294 2234 
L 1294 2753 
L 1863 2753 
Q 2328 2753 2575 2939 
Q 2822 3125 2822 3475 
Q 2822 3834 2567 4026 
Q 2313 4219 1838 4219 
Q 1578 4219 1281 4162 
Q 984 4106 628 3988 
L 628 4550 
Q 988 4650 1302 4700 
Q 1616 4750 1894 4750 
Q 2613 4750 3031 4423 
Q 3450 4097 3450 3541 
Q 3450 3153 3228 2886 
Q 3006 2619 2597 2516 
z
" transform="scale(0.015625)"/>
       </defs>
       <use xlink:href="#DejaVuSans-33"/>
      </g>
     </g>
    </g>
    <g id="text_6">
     <!-- Time (s) -->
     <g transform="translate(231.449255 390.54452) scale(0.32 -0.32)">
      <defs>
       <path id="DejaVuSans-54" d="M -19 4666 
L 3928 4666 
L 3928 4134 
L 2272 4134 
L 2272 0 
L 1638 0 
L 1638 4134 
L -19 4134 
L -19 4666 
z
" transform="scale(0.015625)"/>
       <path id="DejaVuSans-69" d="M 603 3500 
L 1178 3500 
L 1178 0 
L 603 0 
L 603 3500 
z
M 603 4863 
L 1178 4863 
L 1178 4134 
L 603 4134 
L 603 4863 
z
" transform="scale(0.015625)"/>
       <path id="DejaVuSans-6d" d="M 3328 2828 
Q 3544 3216 3844 3400 
Q 4144 3584 4550 3584 
Q 5097 3584 5394 3201 
Q 5691 2819 5691 2113 
L 5691 0 
L 5113 0 
L 5113 2094 
Q 5113 2597 4934 2840 
Q 4756 3084 4391 3084 
Q 3944 3084 3684 2787 
Q 3425 2491 3425 1978 
L 3425 0 
L 2847 0 
L 2847 2094 
Q 2847 2600 2669 2842 
Q 2491 3084 2119 3084 
Q 1678 3084 1418 2786 
Q 1159 2488 1159 1978 
L 1159 0 
L 581 0 
L 581 3500 
L 1159 3500 
L 1159 2956 
Q 1356 3278 1631 3431 
Q 1906 3584 2284 3584 
Q 2666 3584 2933 3390 
Q 3200 3197 3328 2828 
z
" transform="scale(0.015625)"/>
       <path id="DejaVuSans-65" d="M 3597 1894 
L 3597 1613 
L 953 1613 
Q 991 1019 1311 708 
Q 1631 397 2203 397 
Q 2534 397 2845 478 
Q 3156 559 3463 722 
L 3463 178 
Q 3153 47 2828 -22 
Q 2503 -91 2169 -91 
Q 1331 -91 842 396 
Q 353 884 353 1716 
Q 353 2575 817 3079 
Q 1281 3584 2069 3584 
Q 2775 3584 3186 3129 
Q 3597 2675 3597 1894 
z
M 3022 2063 
Q 3016 2534 2758 2815 
Q 2500 3097 2075 3097 
Q 1594 3097 1305 2825 
Q 1016 2553 972 2059 
L 3022 2063 
z
" transform="scale(0.015625)"/>
       <path id="DejaVuSans-20" transform="scale(0.015625)"/>
       <path id="DejaVuSans-28" d="M 1984 4856 
Q 1566 4138 1362 3434 
Q 1159 2731 1159 2009 
Q 1159 1288 1364 580 
Q 1569 -128 1984 -844 
L 1484 -844 
Q 1016 -109 783 600 
Q 550 1309 550 2009 
Q 550 2706 781 3412 
Q 1013 4119 1484 4856 
L 1984 4856 
z
" transform="scale(0.015625)"/>
       <path id="DejaVuSans-73" d="M 2834 3397 
L 2834 2853 
Q 2591 2978 2328 3040 
Q 2066 3103 1784 3103 
Q 1356 3103 1142 2972 
Q 928 2841 928 2578 
Q 928 2378 1081 2264 
Q 1234 2150 1697 2047 
L 1894 2003 
Q 2506 1872 2764 1633 
Q 3022 1394 3022 966 
Q 3022 478 2636 193 
Q 2250 -91 1575 -91 
Q 1294 -91 989 -36 
Q 684 19 347 128 
L 347 722 
Q 666 556 975 473 
Q 1284 391 1588 391 
Q 1994 391 2212 530 
Q 2431 669 2431 922 
Q 2431 1156 2273 1281 
Q 2116 1406 1581 1522 
L 1381 1569 
Q 847 1681 609 1914 
Q 372 2147 372 2553 
Q 372 3047 722 3315 
Q 1072 3584 1716 3584 
Q 2034 3584 2315 3537 
Q 2597 3491 2834 3397 
z
" transform="scale(0.015625)"/>
       <path id="DejaVuSans-29" d="M 513 4856 
L 1013 4856 
Q 1481 4119 1714 3412 
Q 1947 2706 1947 2009 
Q 1947 1309 1714 600 
Q 1481 -109 1013 -844 
L 513 -844 
Q 928 -128 1133 580 
Q 1338 1288 1338 2009 
Q 1338 2731 1133 3434 
Q 928 4138 513 4856 
z
" transform="scale(0.015625)"/>
      </defs>
      <use xlink:href="#DejaVuSans-54"/>
      <use xlink:href="#DejaVuSans-69" transform="translate(57.958984 0)"/>
      <use xlink:href="#DejaVuSans-6d" transform="translate(85.742188 0)"/>
      <use xlink:href="#DejaVuSans-65" transform="translate(183.154297 0)"/>
      <use xlink:href="#DejaVuSans-20" transform="translate(244.677734 0)"/>
      <use xlink:href="#DejaVuSans-28" transform="translate(276.464844 0)"/>
      <use xlink:href="#DejaVuSans-73" transform="translate(315.478516 0)"/>
      <use xlink:href="#DejaVuSans-29" transform="translate(367.578125 0)"/>
     </g>
    </g>
   </g>
   <g id="matplotlib.axis_2">
    <g id="ytick_1">
     <g id="line2d_6">
      <defs>
       <path id="maa19342948" d="M 0 0 
L -5 0 
" style="stroke: #000000; stroke-width: 1.6"/>
      </defs>
      <g>
       <use xlink:href="#maa19342948" x="121.92" y="302.70222" style="stroke: #000000; stroke-width: 1.6"/>
      </g>
     </g>
     <g id="text_7">
      <!-- 0.00 -->
      <g transform="translate(42.17 314.85972) scale(0.32 -0.32)">
       <defs>
        <path id="DejaVuSans-2e" d="M 684 794 
L 1344 794 
L 1344 0 
L 684 0 
L 684 794 
z
" transform="scale(0.015625)"/>
       </defs>
       <use xlink:href="#DejaVuSans-30"/>
       <use xlink:href="#DejaVuSans-2e" transform="translate(63.623047 0)"/>
       <use xlink:href="#DejaVuSans-30" transform="translate(95.410156 0)"/>
       <use xlink:href="#DejaVuSans-30" transform="translate(159.033203 0)"/>
      </g>
     </g>
    </g>
    <g id="ytick_2">
     <g id="line2d_7">
      <g>
       <use xlink:href="#maa19342948" x="121.92" y="157.870078" style="stroke: #000000; stroke-width: 1.6"/>
      </g>
     </g>
     <g id="text_8">
      <!-- 0.05 -->
      <g transform="translate(42.17 170.027578) scale(0.32 -0.32)">
       <defs>
        <path id="DejaVuSans-35" d="M 691 4666 
L 3169 4666 
L 3169 4134 
L 1269 4134 
L 1269 2991 
Q 1406 3038 1543 3061 
Q 1681 3084 1819 3084 
Q 2600 3084 3056 2656 
Q 3513 2228 3513 1497 
Q 3513 744 3044 326 
Q 2575 -91 1722 -91 
Q 1428 -91 1123 -41 
Q 819 9 494 109 
L 494 744 
Q 775 591 1075 516 
Q 1375 441 1709 441 
Q 2250 441 2565 725 
Q 2881 1009 2881 1497 
Q 2881 1984 2565 2268 
Q 2250 2553 1709 2553 
Q 1456 2553 1204 2497 
Q 953 2441 691 2322 
L 691 4666 
z
" transform="scale(0.015625)"/>
       </defs>
       <use xlink:href="#DejaVuSans-30"/>
       <use xlink:href="#DejaVuSans-2e" transform="translate(63.623047 0)"/>
       <use xlink:href="#DejaVuSans-30" transform="translate(95.410156 0)"/>
       <use xlink:href="#DejaVuSans-35" transform="translate(159.033203 0)"/>
      </g>
     </g>
    </g>
    <g id="text_9">
     <!-- Neural Activity -->
     <g transform="translate(31.515 294.944838) rotate(-90) scale(0.32 -0.32)">
      <defs>
       <path id="DejaVuSans-4e" d="M 628 4666 
L 1478 4666 
L 3547 763 
L 3547 4666 
L 4159 4666 
L 4159 0 
L 3309 0 
L 1241 3903 
L 1241 0 
L 628 0 
L 628 4666 
z
" transform="scale(0.015625)"/>
       <path id="DejaVuSans-75" d="M 544 1381 
L 544 3500 
L 1119 3500 
L 1119 1403 
Q 1119 906 1312 657 
Q 1506 409 1894 409 
Q 2359 409 2629 706 
Q 2900 1003 2900 1516 
L 2900 3500 
L 3475 3500 
L 3475 0 
L 2900 0 
L 2900 538 
Q 2691 219 2414 64 
Q 2138 -91 1772 -91 
Q 1169 -91 856 284 
Q 544 659 544 1381 
z
M 1991 3584 
L 1991 3584 
z
" transform="scale(0.015625)"/>
       <path id="DejaVuSans-72" d="M 2631 2963 
Q 2534 3019 2420 3045 
Q 2306 3072 2169 3072 
Q 1681 3072 1420 2755 
Q 1159 2438 1159 1844 
L 1159 0 
L 581 0 
L 581 3500 
L 1159 3500 
L 1159 2956 
Q 1341 3275 1631 3429 
Q 1922 3584 2338 3584 
Q 2397 3584 2469 3576 
Q 2541 3569 2628 3553 
L 2631 2963 
z
" transform="scale(0.015625)"/>
       <path id="DejaVuSans-61" d="M 2194 1759 
Q 1497 1759 1228 1600 
Q 959 1441 959 1056 
Q 959 750 1161 570 
Q 1363 391 1709 391 
Q 2188 391 2477 730 
Q 2766 1069 2766 1631 
L 2766 1759 
L 2194 1759 
z
M 3341 1997 
L 3341 0 
L 2766 0 
L 2766 531 
Q 2569 213 2275 61 
Q 1981 -91 1556 -91 
Q 1019 -91 701 211 
Q 384 513 384 1019 
Q 384 1609 779 1909 
Q 1175 2209 1959 2209 
L 2766 2209 
L 2766 2266 
Q 2766 2663 2505 2880 
Q 2244 3097 1772 3097 
Q 1472 3097 1187 3025 
Q 903 2953 641 2809 
L 641 3341 
Q 956 3463 1253 3523 
Q 1550 3584 1831 3584 
Q 2591 3584 2966 3190 
Q 3341 2797 3341 1997 
z
" transform="scale(0.015625)"/>
       <path id="DejaVuSans-6c" d="M 603 4863 
L 1178 4863 
L 1178 0 
L 603 0 
L 603 4863 
z
" transform="scale(0.015625)"/>
       <path id="DejaVuSans-41" d="M 2188 4044 
L 1331 1722 
L 3047 1722 
L 2188 4044 
z
M 1831 4666 
L 2547 4666 
L 4325 0 
L 3669 0 
L 3244 1197 
L 1141 1197 
L 716 0 
L 50 0 
L 1831 4666 
z
" transform="scale(0.015625)"/>
       <path id="DejaVuSans-63" d="M 3122 3366 
L 3122 2828 
Q 2878 2963 2633 3030 
Q 2388 3097 2138 3097 
Q 1578 3097 1268 2742 
Q 959 2388 959 1747 
Q 959 1106 1268 751 
Q 1578 397 2138 397 
Q 2388 397 2633 464 
Q 2878 531 3122 666 
L 3122 134 
Q 2881 22 2623 -34 
Q 2366 -91 2075 -91 
Q 1284 -91 818 406 
Q 353 903 353 1747 
Q 353 2603 823 3093 
Q 1294 3584 2113 3584 
Q 2378 3584 2631 3529 
Q 2884 3475 3122 3366 
z
" transform="scale(0.015625)"/>
       <path id="DejaVuSans-74" d="M 1172 4494 
L 1172 3500 
L 2356 3500 
L 2356 3053 
L 1172 3053 
L 1172 1153 
Q 1172 725 1289 603 
Q 1406 481 1766 481 
L 2356 481 
L 2356 0 
L 1766 0 
Q 1100 0 847 248 
Q 594 497 594 1153 
L 594 3053 
L 172 3053 
L 172 3500 
L 594 3500 
L 594 4494 
L 1172 4494 
z
" transform="scale(0.015625)"/>
       <path id="DejaVuSans-76" d="M 191 3500 
L 800 3500 
L 1894 563 
L 2988 3500 
L 3597 3500 
L 2284 0 
L 1503 0 
L 191 3500 
z
" transform="scale(0.015625)"/>
       <path id="DejaVuSans-79" d="M 2059 -325 
Q 1816 -950 1584 -1140 
Q 1353 -1331 966 -1331 
L 506 -1331 
L 506 -850 
L 844 -850 
Q 1081 -850 1212 -737 
Q 1344 -625 1503 -206 
L 1606 56 
L 191 3500 
L 800 3500 
L 1894 763 
L 2988 3500 
L 3597 3500 
L 2059 -325 
z
" transform="scale(0.015625)"/>
      </defs>
      <use xlink:href="#DejaVuSans-4e"/>
      <use xlink:href="#DejaVuSans-65" transform="translate(74.804688 0)"/>
      <use xlink:href="#DejaVuSans-75" transform="translate(136.328125 0)"/>
      <use xlink:href="#DejaVuSans-72" transform="translate(199.707031 0)"/>
      <use xlink:href="#DejaVuSans-61" transform="translate(240.820312 0)"/>
      <use xlink:href="#DejaVuSans-6c" transform="translate(302.099609 0)"/>
      <use xlink:href="#DejaVuSans-20" transform="translate(329.882812 0)"/>
      <use xlink:href="#DejaVuSans-41" transform="translate(361.669922 0)"/>
      <use xlink:href="#DejaVuSans-63" transform="translate(428.328125 0)"/>
      <use xlink:href="#DejaVuSans-74" transform="translate(483.308594 0)"/>
      <use xlink:href="#DejaVuSans-69" transform="translate(522.517578 0)"/>
      <use xlink:href="#DejaVuSans-76" transform="translate(550.300781 0)"/>
      <use xlink:href="#DejaVuSans-69" transform="translate(609.480469 0)"/>
      <use xlink:href="#DejaVuSans-74" transform="translate(637.263672 0)"/>
      <use xlink:href="#DejaVuSans-79" transform="translate(676.472656 0)"/>
     </g>
    </g>
   </g>
   <g id="line2d_8">
    <path d="M 122.792909 289.085311 
L 125.411635 291.027423 
L 128.030361 292.692541 
L 128.90327 293.193026 
L 129.776179 287.774864 
L 131.521997 289.230282 
L 132.394905 281.808676 
L 133.267814 277.574621 
L 135.013632 280.024562 
L 135.88654 274.501499 
L 138.505267 278.523627 
L 140.251084 280.88104 
L 141.123993 279.578879 
L 142.869811 281.833405 
L 143.742719 276.116753 
L 144.615628 271.578826 
L 145.488537 263.80428 
L 147.234354 267.59683 
L 148.980172 271.019604 
L 149.853081 272.603737 
L 154.217625 279.28052 
L 155.963442 281.564136 
L 156.836351 278.492587 
L 159.455077 281.945486 
L 160.327986 279.164627 
L 162.946712 282.521676 
L 164.69253 284.48928 
L 165.565439 281.968136 
L 166.438348 271.206361 
L 168.184165 274.277209 
L 170.802891 278.331326 
L 171.6758 279.54987 
L 172.548709 270.757808 
L 174.294527 273.872388 
L 176.913253 277.984242 
L 179.531979 281.509644 
L 182.150705 284.532235 
L 184.769432 287.12373 
L 187.388158 289.345613 
L 190.006884 291.250599 
L 190.879793 291.82318 
L 191.752702 290.949692 
L 192.625611 288.362152 
L 194.371428 289.76031 
L 195.244337 280.836575 
L 197.863063 283.955163 
L 198.735972 281.335242 
L 199.608881 282.403592 
L 200.48179 265.614184 
L 202.227607 246.17526 
L 203.100516 246.377264 
L 204.846334 251.868947 
L 206.592151 256.825188 
L 208.337969 261.2982 
L 210.083786 265.335092 
L 211.829604 268.978388 
L 213.575421 272.266464 
L 215.321239 275.233952 
L 217.939965 279.151616 
L 220.558692 282.510521 
L 223.177418 285.390363 
L 225.796144 287.859467 
L 228.414871 289.976415 
L 231.033597 291.791434 
L 233.652323 293.347585 
L 236.27105 294.68179 
L 239.762685 296.16953 
L 243.25432 297.381303 
L 246.745955 298.368301 
L 251.110499 299.348716 
L 255.475043 300.107343 
L 260.712495 300.794747 
L 266.822857 301.370161 
L 274.679036 301.86269 
L 284.281032 302.224696 
L 297.374664 302.480987 
L 303.485025 302.547725 
L 304.357934 299.29956 
L 305.230843 291.693531 
L 307.849569 293.263646 
L 309.595387 294.183907 
L 310.468295 283.499599 
L 311.341204 276.676881 
L 313.087022 279.214351 
L 313.959931 273.465868 
L 314.832839 274.927686 
L 315.705748 272.387488 
L 316.578657 263.370995 
L 317.451566 265.337558 
L 318.324474 266.230775 
L 320.070292 269.786741 
L 320.943201 269.632356 
L 321.816109 271.285849 
L 322.689018 266.150591 
L 323.561927 267.978172 
L 324.434836 268.012277 
L 325.307745 269.746774 
L 326.180653 265.362131 
L 327.053562 262.186769 
L 328.79938 266.137026 
L 329.672288 267.965285 
L 330.545197 269.126727 
L 332.291015 272.40034 
L 334.036832 275.354774 
L 336.655559 279.255202 
L 338.401376 281.541287 
L 339.274285 280.423285 
L 341.893011 283.600819 
L 343.638829 285.463205 
L 344.511738 281.882906 
L 347.130464 284.852262 
L 349.74919 287.398112 
L 352.367917 289.580861 
L 354.113734 290.860194 
L 354.986643 282.977037 
L 355.859552 283.963296 
L 356.73246 280.65912 
L 357.605369 264.932777 
L 358.478278 257.054882 
L 360.224096 261.505497 
L 361.969913 265.522178 
L 363.715731 269.147233 
L 364.588639 269.425102 
L 365.461548 271.088957 
L 366.334457 266.41543 
L 367.207366 259.268911 
L 368.953183 263.503661 
L 370.699001 267.325521 
L 372.444818 270.774752 
L 374.190636 273.887682 
L 376.809362 277.997355 
L 379.428089 281.520887 
L 382.046815 284.541874 
L 384.665541 287.131994 
L 385.53845 287.910506 
L 386.411359 283.816513 
L 387.284268 274.245508 
L 388.157176 274.312085 
L 390.775903 278.361228 
L 393.394629 281.832862 
L 396.013355 284.809355 
L 398.632082 287.361327 
L 401.250808 289.549322 
L 402.996626 290.831729 
L 403.869534 290.073742 
L 404.742443 285.525801 
L 407.361169 287.975588 
L 409.106987 289.411434 
L 409.979896 287.76226 
L 410.852805 282.430354 
L 413.471531 285.321631 
L 416.090257 287.800538 
L 416.963166 288.545622 
L 417.836075 284.156551 
L 420.454801 286.801627 
L 421.32771 287.596657 
L 422.200619 276.081183 
L 423.073527 268.523352 
L 424.819345 271.855794 
L 426.565162 274.863322 
L 427.438071 276.255266 
L 428.31098 274.643156 
L 430.929706 278.64508 
L 432.675524 280.990652 
L 433.548433 280.690841 
L 436.167159 283.830214 
L 438.785885 286.521835 
L 441.404612 288.829563 
L 444.023338 290.808151 
L 446.642064 292.504544 
L 449.260791 293.958988 
L 451.879517 295.205991 
L 452.752426 295.580803 
L 453.625335 284.63014 
L 455.371152 286.392169 
L 457.11697 263.289735 
L 457.989878 258.234995 
L 459.735696 262.57055 
L 461.481513 266.483388 
L 462.354422 268.29433 
L 463.227331 256.422075 
L 464.973149 238.56492 
L 465.846057 220.541339 
L 467.591875 228.552023 
L 469.337692 235.781667 
L 470.210601 239.127695 
L 470.210601 239.127695 
" clip-path="url(#p33597819f9)" style="fill: none; stroke: #000000; stroke-width: 5; stroke-linecap: square"/>
   </g>
   <g id="line2d_9">
    <path d="M 122.792909 257.487425 
L 123.665818 240.380527 
L 124.538726 231.738546 
L 125.411635 230.92189 
L 126.284544 233.273391 
L 128.030361 240.042704 
L 128.90327 243.175683 
L 129.776179 242.698382 
L 131.521997 220.055427 
L 133.267814 228.113489 
L 135.013632 235.385892 
L 136.759449 241.949234 
L 138.505267 247.872653 
L 140.251084 253.218535 
L 141.996902 258.043198 
L 142.869811 260.276149 
L 143.742719 254.88478 
L 144.615628 246.459312 
L 146.361446 251.942999 
L 148.107263 256.892021 
L 149.853081 261.358518 
L 151.598898 265.389532 
L 152.471807 267.112194 
L 153.344716 260.918641 
L 154.217625 259.841316 
L 155.090533 245.009709 
L 155.963442 240.723568 
L 157.70926 246.766489 
L 159.455077 252.220221 
L 161.200895 257.134853 
L 162.073804 256.07454 
L 163.819621 260.620741 
L 165.565439 264.723686 
L 167.311256 268.426594 
L 169.057074 271.768467 
L 170.802891 274.784508 
L 173.421618 278.766272 
L 174.294527 279.96307 
L 175.167435 274.401382 
L 176.040344 263.303029 
L 176.913253 264.932758 
L 177.786162 266.821233 
L 178.65907 267.856212 
L 179.531979 260.898151 
L 180.404888 259.923213 
L 181.277797 262.062164 
L 182.150705 261.744838 
L 183.896523 265.738184 
L 185.642341 269.34218 
L 187.388158 272.594783 
L 189.133976 275.53026 
L 190.006884 265.329279 
L 190.879793 263.483371 
L 192.625611 267.307209 
L 194.371428 270.758223 
L 196.117246 273.872763 
L 198.735972 277.984565 
L 200.48179 249.889962 
L 201.354699 249.995199 
L 203.100516 255.134135 
L 204.846334 259.772025 
L 206.592151 263.95772 
L 208.337969 267.735308 
L 210.083786 271.144584 
L 211.829604 274.221453 
L 214.44833 278.283523 
L 216.194148 280.664345 
L 217.067056 276.575487 
L 219.685783 280.301811 
L 222.304509 283.49667 
L 223.177418 274.877137 
L 224.050327 275.085286 
L 224.923235 269.225388 
L 226.669053 272.489381 
L 228.414871 275.435133 
L 229.287779 271.581127 
L 230.160688 269.559871 
L 231.033597 270.446705 
L 231.906506 272.059482 
L 232.779414 271.671697 
L 234.525232 274.697172 
L 237.143958 278.691395 
L 239.762685 282.115941 
L 242.381411 285.052059 
L 243.25432 285.934568 
L 244.127229 285.723341 
L 245.000137 286.572286 
L 245.873046 283.410924 
L 246.745955 266.716279 
L 251.983407 276.079163 
L 254.602134 279.876277 
L 257.22086 283.131828 
L 258.966678 285.039941 
L 259.839586 285.414257 
L 262.458313 287.879953 
L 264.20413 289.325124 
L 265.077039 286.531622 
L 266.822857 288.108256 
L 267.695765 280.168957 
L 268.568674 281.29562 
L 269.441583 274.078744 
L 270.314492 275.509919 
L 271.187401 274.880385 
L 272.060309 269.071297 
L 272.933218 270.752844 
L 273.806127 271.342472 
L 274.679036 272.910458 
L 276.424853 260.770679 
L 278.170671 264.859006 
L 279.04358 259.671152 
L 279.916488 253.741081 
L 280.789397 254.674073 
L 282.535215 259.356818 
L 284.281032 263.582998 
L 286.02685 267.397121 
L 287.772667 270.83937 
L 288.645576 258.452409 
L 289.518485 256.071659 
L 290.391394 258.403189 
L 291.264302 253.703659 
L 293.01012 258.48102 
L 294.755937 262.792588 
L 296.501755 266.683777 
L 298.247573 270.195576 
L 299.120481 271.820908 
L 299.99339 272.330203 
L 300.866299 271.817481 
L 301.739208 265.147949 
L 302.612116 266.400088 
L 304.357934 269.939547 
L 306.103752 273.133909 
L 308.722478 277.351089 
L 309.595387 276.266802 
L 310.468295 267.16068 
L 311.341204 268.937758 
L 312.214113 266.682727 
L 313.959931 270.194629 
L 315.705748 273.364121 
L 316.578657 270.302845 
L 318.324474 273.461784 
L 320.943201 277.632201 
L 323.561927 281.207813 
L 324.434836 267.430103 
L 326.180653 270.869134 
L 329.672288 276.703941 
L 332.291015 280.411949 
L 333.163924 281.526463 
L 334.036832 279.9921 
L 334.909741 276.204282 
L 335.78265 260.55619 
L 336.655559 253.71855 
L 338.401376 258.49446 
L 340.147194 262.804719 
L 341.893011 266.694727 
L 343.638829 270.205457 
L 345.384646 273.373892 
L 348.003373 277.556849 
L 350.622099 281.143209 
L 352.367917 283.245212 
L 353.240825 280.800113 
L 355.859552 283.886547 
L 358.478278 286.570133 
L 361.097004 288.870973 
L 363.715731 290.843655 
L 364.588639 291.436583 
L 365.461548 283.015024 
L 366.334457 283.614201 
L 368.953183 286.33663 
L 371.57191 288.670773 
L 373.317727 290.038839 
L 374.190636 287.08465 
L 375.063545 286.198305 
L 377.682271 288.552176 
L 378.55518 289.259679 
L 379.428089 288.536814 
L 380.300997 284.143673 
L 382.919724 286.790588 
L 383.792633 287.58617 
L 384.665541 284.547616 
L 386.411359 286.317691 
L 387.284268 276.106512 
L 388.157176 270.21017 
L 389.030085 262.477965 
L 389.902994 258.624053 
L 390.775903 238.493922 
L 395.140447 252.782175 
L 396.886264 257.649379 
L 398.632082 262.042034 
L 400.377899 266.006403 
L 402.123717 269.584245 
L 403.869534 272.813249 
L 405.615352 275.727425 
L 408.234078 279.574708 
L 410.852805 282.87327 
L 411.725713 273.085173 
L 412.598622 274.566026 
L 413.471531 263.970475 
L 414.34444 263.266848 
L 415.217348 260.887989 
L 416.963166 264.964877 
L 418.708984 268.644269 
L 419.581892 270.347168 
L 420.454801 268.190487 
L 422.200619 271.555383 
L 423.946436 274.592199 
L 424.819345 275.229538 
L 427.438071 279.147831 
L 430.056798 282.507277 
L 432.675524 285.38758 
L 435.29425 287.857082 
L 436.167159 288.599339 
L 437.040068 284.589941 
L 437.912977 284.515697 
L 438.785885 276.858909 
L 441.404612 280.544811 
L 444.023338 283.705012 
L 445.769156 285.55724 
L 446.642064 283.950883 
L 449.260791 286.625293 
L 451.006608 288.192794 
L 451.879517 266.840109 
L 452.752426 267.890313 
L 453.625335 263.186305 
L 455.371152 267.039108 
L 457.11697 270.516263 
L 458.862787 273.654395 
L 461.481513 277.797344 
L 462.354422 277.178816 
L 463.227331 278.454986 
L 464.10024 266.160162 
L 464.973149 259.411787 
L 465.846057 254.814813 
L 467.591875 259.483837 
L 469.337692 263.697629 
L 470.210601 265.647859 
L 470.210601 265.647859 
" clip-path="url(#p33597819f9)" style="fill: none; stroke: #ff0000; stroke-width: 5; stroke-linecap: square"/>
   </g>
   <g id="line2d_10">
    <path d="M 122.792909 274.302719 
L 125.411635 278.353196 
L 128.030361 281.825977 
L 128.90327 282.86979 
L 129.776179 272.361218 
L 131.521997 275.319466 
L 134.140723 279.224934 
L 136.759449 282.573383 
L 139.378176 285.44426 
L 141.123993 287.126912 
L 141.996902 286.279172 
L 144.615628 288.62151 
L 145.488537 284.120136 
L 148.107263 286.770407 
L 150.72599 289.042682 
L 153.344716 290.990875 
L 155.963442 292.661206 
L 156.836351 293.163257 
L 157.70926 286.316442 
L 160.327986 288.653463 
L 161.200895 289.355901 
L 162.073804 288.680779 
L 163.819621 290.04787 
L 164.69253 288.251333 
L 166.438348 276.144787 
L 169.057074 279.93254 
L 170.802891 267.674375 
L 171.6758 269.190442 
L 172.548709 262.446844 
L 174.294527 266.371743 
L 176.040344 269.913965 
L 177.786162 273.11082 
L 178.65907 273.735434 
L 179.531979 266.919146 
L 180.404888 267.757875 
L 182.150705 271.164949 
L 183.896523 274.239835 
L 185.642341 277.01492 
L 186.515249 276.168282 
L 189.133976 279.952684 
L 191.752702 283.197337 
L 192.625611 271.875059 
L 194.371428 274.880706 
L 195.244337 271.817883 
L 196.117246 273.362101 
L 196.990155 270.188853 
L 197.863063 269.845802 
L 198.735972 270.430338 
L 200.48179 273.576846 
L 203.100516 277.730854 
L 205.719242 281.292397 
L 208.337969 284.345975 
L 210.956695 286.964036 
L 213.575421 289.208695 
L 216.194148 291.13321 
L 218.812874 292.783241 
L 221.4316 294.197935 
L 224.923235 295.775427 
L 228.414871 297.060304 
L 231.906506 298.106845 
L 236.27105 299.146407 
L 240.635593 299.9508 
L 245.873046 300.679674 
L 251.983407 301.2898 
L 258.966678 301.765192 
L 267.695765 302.141187 
L 279.916488 302.428618 
L 298.247573 302.609042 
L 299.120481 302.613701 
L 299.99339 298.321617 
L 300.866299 297.071361 
L 301.739208 292.356894 
L 302.612116 292.87416 
L 303.485025 290.76592 
L 304.357934 285.862107 
L 305.230843 285.022654 
L 307.849569 287.544203 
L 310.468295 289.706116 
L 312.214113 290.973236 
L 313.087022 284.003688 
L 313.959931 281.577289 
L 314.832839 281.782647 
L 315.705748 282.828625 
L 316.578657 277.736214 
L 318.324474 279.445542 
L 319.197383 280.608376 
L 320.070292 281.403028 
L 322.689018 284.440826 
L 323.561927 280.21481 
L 324.434836 280.422531 
L 325.307745 275.143832 
L 327.926471 279.074348 
L 328.79938 274.054786 
L 329.672288 263.465658 
L 331.418106 267.291222 
L 333.163924 270.743793 
L 334.909741 273.859739 
L 337.528467 277.973399 
L 339.274285 280.384459 
L 340.147194 274.287706 
L 341.020103 270.161131 
L 342.76592 243.044461 
L 343.638829 229.526932 
L 344.511738 227.896399 
L 346.257555 235.189968 
L 347.130464 233.614166 
L 348.876282 240.350253 
L 350.622099 246.429567 
L 352.367917 251.916151 
L 354.113734 256.867796 
L 354.986643 259.159519 
L 355.859552 260.450097 
L 357.605369 264.569679 
L 358.478278 266.476307 
L 359.351187 261.151194 
L 360.224096 262.801469 
L 361.969913 266.691794 
L 362.842822 263.371834 
L 364.588639 267.206547 
L 365.461548 268.223718 
L 367.207366 271.585373 
L 368.080275 270.516517 
L 368.953183 272.125803 
L 369.826092 272.56244 
L 371.57191 275.501068 
L 374.190636 279.380632 
L 375.063545 276.59804 
L 375.936454 277.903248 
L 376.809362 273.283611 
L 379.428089 277.479441 
L 382.046815 281.07684 
L 384.665541 284.161159 
L 386.411359 276.873266 
L 389.030085 280.557119 
L 391.648811 283.715565 
L 394.267538 286.423538 
L 396.886264 288.745285 
L 399.50499 290.735895 
L 402.123717 292.442593 
L 402.996626 292.955574 
L 403.869534 286.709525 
L 404.742443 287.50916 
L 405.615352 287.912622 
L 408.234078 290.021989 
L 409.979896 291.258311 
L 410.852805 280.543693 
L 411.725713 281.651619 
L 412.598622 275.915336 
L 413.471531 245.177701 
L 414.34444 245.788629 
L 416.090257 251.337703 
L 417.836075 256.345741 
L 419.581892 260.865498 
L 421.32771 264.94458 
L 423.073527 268.625952 
L 424.819345 271.948388 
L 426.565162 274.946886 
L 429.183889 278.90549 
L 430.929706 281.225672 
L 431.802615 276.676792 
L 432.675524 276.499269 
L 435.29425 280.236464 
L 436.167159 281.359753 
L 437.040068 276.931345 
L 439.658794 280.606918 
L 440.531703 271.391262 
L 442.27752 274.444081 
L 444.896247 278.474396 
L 447.514973 281.929892 
L 450.133699 284.892545 
L 452.752426 287.432651 
L 455.371152 289.610474 
L 457.989878 291.477684 
L 460.608605 293.078584 
L 462.354422 294.016889 
L 463.227331 292.861548 
L 464.10024 293.353582 
L 464.973149 288.172363 
L 467.591875 290.244685 
L 468.464784 285.599871 
L 470.210601 287.26735 
L 470.210601 287.26735 
" clip-path="url(#p33597819f9)" style="fill: none; stroke: #0000ff; stroke-width: 5; stroke-linecap: square"/>
   </g>
   <g id="patch_3">
    <path d="M 121.92 322.75952 
L 121.92 31.720156 
" style="fill: none; stroke: #000000; stroke-width: 5; stroke-linejoin: miter; stroke-linecap: square"/>
   </g>
   <g id="patch_4">
    <path d="M 121.92 322.75952 
L 471.08351 322.75952 
" style="fill: none; stroke: #000000; stroke-width: 5; stroke-linejoin: miter; stroke-linecap: square"/>
   </g>
   <g id="patch_5">
    <path d="M 209.210878 316.938733 
L 296.501755 316.938733 
L 296.501755 306.752355 
L 209.210878 306.752355 
z
" style="fill: #8c5a2b; stroke: #8c5a2b; stroke-linejoin: miter"/>
   </g>
   <g id="text_10">
    <!-- Novel | Naive -->
    <g transform="translate(233.199099 21.720156) scale(0.19 -0.19)">
     <defs>
      <path id="DejaVuSans-6f" d="M 1959 3097 
Q 1497 3097 1228 2736 
Q 959 2375 959 1747 
Q 959 1119 1226 758 
Q 1494 397 1959 397 
Q 2419 397 2687 759 
Q 2956 1122 2956 1747 
Q 2956 2369 2687 2733 
Q 2419 3097 1959 3097 
z
M 1959 3584 
Q 2709 3584 3137 3096 
Q 3566 2609 3566 1747 
Q 3566 888 3137 398 
Q 2709 -91 1959 -91 
Q 1206 -91 779 398 
Q 353 888 353 1747 
Q 353 2609 779 3096 
Q 1206 3584 1959 3584 
z
" transform="scale(0.015625)"/>
      <path id="DejaVuSans-7c" d="M 1344 4891 
L 1344 -1509 
L 813 -1509 
L 813 4891 
L 1344 4891 
z
" transform="scale(0.015625)"/>
     </defs>
     <use xlink:href="#DejaVuSans-4e"/>
     <use xlink:href="#DejaVuSans-6f" transform="translate(74.804688 0)"/>
     <use xlink:href="#DejaVuSans-76" transform="translate(135.986328 0)"/>
     <use xlink:href="#DejaVuSans-65" transform="translate(195.166016 0)"/>
     <use xlink:href="#DejaVuSans-6c" transform="translate(256.689453 0)"/>
     <use xlink:href="#DejaVuSans-20" transform="translate(284.472656 0)"/>
     <use xlink:href="#DejaVuSans-7c" transform="translate(316.259766 0)"/>
     <use xlink:href="#DejaVuSans-20" transform="translate(349.951172 0)"/>
     <use xlink:href="#DejaVuSans-4e" transform="translate(381.738281 0)"/>
     <use xlink:href="#DejaVuSans-61" transform="translate(456.542969 0)"/>
     <use xlink:href="#DejaVuSans-69" transform="translate(517.822266 0)"/>
     <use xlink:href="#DejaVuSans-76" transform="translate(545.605469 0)"/>
     <use xlink:href="#DejaVuSans-65" transform="translate(604.785156 0)"/>
    </g>
   </g>
   <g id="legend_1">
    <g id="line2d_11">
     <path d="M 130.92 46.867812 
L 145.92 46.867812 
L 160.92 46.867812 
" style="fill: none; stroke: #000000; stroke-width: 5; stroke-linecap: square"/>
    </g>
    <g id="text_11">
     <!-- Nonoccluded (NO) -->
     <g transform="translate(172.92 52.117812) scale(0.15 -0.15)">
      <defs>
       <path id="DejaVuSans-6e" d="M 3513 2113 
L 3513 0 
L 2938 0 
L 2938 2094 
Q 2938 2591 2744 2837 
Q 2550 3084 2163 3084 
Q 1697 3084 1428 2787 
Q 1159 2491 1159 1978 
L 1159 0 
L 581 0 
L 581 3500 
L 1159 3500 
L 1159 2956 
Q 1366 3272 1645 3428 
Q 1925 3584 2291 3584 
Q 2894 3584 3203 3211 
Q 3513 2838 3513 2113 
z
" transform="scale(0.015625)"/>
       <path id="DejaVuSans-64" d="M 2906 2969 
L 2906 4863 
L 3481 4863 
L 3481 0 
L 2906 0 
L 2906 525 
Q 2725 213 2448 61 
Q 2172 -91 1784 -91 
Q 1150 -91 751 415 
Q 353 922 353 1747 
Q 353 2572 751 3078 
Q 1150 3584 1784 3584 
Q 2172 3584 2448 3432 
Q 2725 3281 2906 2969 
z
M 947 1747 
Q 947 1113 1208 752 
Q 1469 391 1925 391 
Q 2381 391 2643 752 
Q 2906 1113 2906 1747 
Q 2906 2381 2643 2742 
Q 2381 3103 1925 3103 
Q 1469 3103 1208 2742 
Q 947 2381 947 1747 
z
" transform="scale(0.015625)"/>
       <path id="DejaVuSans-4f" d="M 2522 4238 
Q 1834 4238 1429 3725 
Q 1025 3213 1025 2328 
Q 1025 1447 1429 934 
Q 1834 422 2522 422 
Q 3209 422 3611 934 
Q 4013 1447 4013 2328 
Q 4013 3213 3611 3725 
Q 3209 4238 2522 4238 
z
M 2522 4750 
Q 3503 4750 4090 4092 
Q 4678 3434 4678 2328 
Q 4678 1225 4090 567 
Q 3503 -91 2522 -91 
Q 1538 -91 948 565 
Q 359 1222 359 2328 
Q 359 3434 948 4092 
Q 1538 4750 2522 4750 
z
" transform="scale(0.015625)"/>
      </defs>
      <use xlink:href="#DejaVuSans-4e"/>
      <use xlink:href="#DejaVuSans-6f" transform="translate(74.804688 0)"/>
      <use xlink:href="#DejaVuSans-6e" transform="translate(135.986328 0)"/>
      <use xlink:href="#DejaVuSans-6f" transform="translate(199.365234 0)"/>
      <use xlink:href="#DejaVuSans-63" transform="translate(260.546875 0)"/>
      <use xlink:href="#DejaVuSans-63" transform="translate(315.527344 0)"/>
      <use xlink:href="#DejaVuSans-6c" transform="translate(370.507812 0)"/>
      <use xlink:href="#DejaVuSans-75" transform="translate(398.291016 0)"/>
      <use xlink:href="#DejaVuSans-64" transform="translate(461.669922 0)"/>
      <use xlink:href="#DejaVuSans-65" transform="translate(525.146484 0)"/>
      <use xlink:href="#DejaVuSans-64" transform="translate(586.669922 0)"/>
      <use xlink:href="#DejaVuSans-20" transform="translate(650.146484 0)"/>
      <use xlink:href="#DejaVuSans-28" transform="translate(681.933594 0)"/>
      <use xlink:href="#DejaVuSans-4e" transform="translate(720.947266 0)"/>
      <use xlink:href="#DejaVuSans-4f" transform="translate(795.751953 0)"/>
      <use xlink:href="#DejaVuSans-29" transform="translate(874.462891 0)"/>
     </g>
    </g>
    <g id="line2d_12">
     <path d="M 130.92 68.885 
L 145.92 68.885 
L 160.92 68.885 
" style="fill: none; stroke: #ff0000; stroke-width: 5; stroke-linecap: square"/>
    </g>
    <g id="text_12">
     <!-- Occluded (O) -->
     <g transform="translate(172.92 74.135) scale(0.15 -0.15)">
      <use xlink:href="#DejaVuSans-4f"/>
      <use xlink:href="#DejaVuSans-63" transform="translate(78.710938 0)"/>
      <use xlink:href="#DejaVuSans-63" transform="translate(133.691406 0)"/>
      <use xlink:href="#DejaVuSans-6c" transform="translate(188.671875 0)"/>
      <use xlink:href="#DejaVuSans-75" transform="translate(216.455078 0)"/>
      <use xlink:href="#DejaVuSans-64" transform="translate(279.833984 0)"/>
      <use xlink:href="#DejaVuSans-65" transform="translate(343.310547 0)"/>
      <use xlink:href="#DejaVuSans-64" transform="translate(404.833984 0)"/>
      <use xlink:href="#DejaVuSans-20" transform="translate(468.310547 0)"/>
      <use xlink:href="#DejaVuSans-28" transform="translate(500.097656 0)"/>
      <use xlink:href="#DejaVuSans-4f" transform="translate(539.111328 0)"/>
      <use xlink:href="#DejaVuSans-29" transform="translate(617.822266 0)"/>
     </g>
    </g>
    <g id="line2d_13">
     <path d="M 130.92 90.902187 
L 145.92 90.902187 
L 160.92 90.902187 
" style="fill: none; stroke: #0000ff; stroke-width: 5; stroke-linecap: square"/>
    </g>
    <g id="text_13">
     <!-- No feedback -->
     <g transform="translate(172.92 96.152187) scale(0.15 -0.15)">
      <defs>
       <path id="DejaVuSans-66" d="M 2375 4863 
L 2375 4384 
L 1825 4384 
Q 1516 4384 1395 4259 
Q 1275 4134 1275 3809 
L 1275 3500 
L 2222 3500 
L 2222 3053 
L 1275 3053 
L 1275 0 
L 697 0 
L 697 3053 
L 147 3053 
L 147 3500 
L 697 3500 
L 697 3744 
Q 697 4328 969 4595 
Q 1241 4863 1831 4863 
L 2375 4863 
z
" transform="scale(0.015625)"/>
       <path id="DejaVuSans-62" d="M 3116 1747 
Q 3116 2381 2855 2742 
Q 2594 3103 2138 3103 
Q 1681 3103 1420 2742 
Q 1159 2381 1159 1747 
Q 1159 1113 1420 752 
Q 1681 391 2138 391 
Q 2594 391 2855 752 
Q 3116 1113 3116 1747 
z
M 1159 2969 
Q 1341 3281 1617 3432 
Q 1894 3584 2278 3584 
Q 2916 3584 3314 3078 
Q 3713 2572 3713 1747 
Q 3713 922 3314 415 
Q 2916 -91 2278 -91 
Q 1894 -91 1617 61 
Q 1341 213 1159 525 
L 1159 0 
L 581 0 
L 581 4863 
L 1159 4863 
L 1159 2969 
z
" transform="scale(0.015625)"/>
       <path id="DejaVuSans-6b" d="M 581 4863 
L 1159 4863 
L 1159 1991 
L 2875 3500 
L 3609 3500 
L 1753 1863 
L 3688 0 
L 2938 0 
L 1159 1709 
L 1159 0 
L 581 0 
L 581 4863 
z
" transform="scale(0.015625)"/>
      </defs>
      <use xlink:href="#DejaVuSans-4e"/>
      <use xlink:href="#DejaVuSans-6f" transform="translate(74.804688 0)"/>
      <use xlink:href="#DejaVuSans-20" transform="translate(135.986328 0)"/>
      <use xlink:href="#DejaVuSans-66" transform="translate(167.773438 0)"/>
      <use xlink:href="#DejaVuSans-65" transform="translate(202.978516 0)"/>
      <use xlink:href="#DejaVuSans-65" transform="translate(264.501953 0)"/>
      <use xlink:href="#DejaVuSans-64" transform="translate(326.025391 0)"/>
      <use xlink:href="#DejaVuSans-62" transform="translate(389.501953 0)"/>
      <use xlink:href="#DejaVuSans-61" transform="translate(452.978516 0)"/>
      <use xlink:href="#DejaVuSans-63" transform="translate(514.257812 0)"/>
      <use xlink:href="#DejaVuSans-6b" transform="translate(569.238281 0)"/>
     </g>
    </g>
   </g>
  </g>
  <g id="axes_2">
   <g id="patch_6">
    <path d="M 505.85601 322.75952 
L 855.01952 322.75952 
L 855.01952 31.720156 
L 505.85601 31.720156 
z
" style="fill: #ffffff"/>
   </g>
   <g id="matplotlib.axis_3">
    <g id="xtick_6">
     <g id="line2d_14">
      <g>
       <use xlink:href="#m2aafbd9866" x="505.85601" y="322.75952" style="stroke: #000000; stroke-width: 1.6"/>
      </g>
     </g>
     <g id="text_14">
      <!-- -1 -->
      <g transform="translate(489.90351 355.57452) scale(0.32 -0.32)">
       <use xlink:href="#DejaVuSans-2d"/>
       <use xlink:href="#DejaVuSans-31" transform="translate(36.083984 0)"/>
      </g>
     </g>
    </g>
    <g id="xtick_7">
     <g id="line2d_15">
      <g>
       <use xlink:href="#m2aafbd9866" x="593.146888" y="322.75952" style="stroke: #000000; stroke-width: 1.6"/>
      </g>
     </g>
     <g id="text_15">
      <!-- 0 -->
      <g transform="translate(582.966888 355.57452) scale(0.32 -0.32)">
       <use xlink:href="#DejaVuSans-30"/>
      </g>
     </g>
    </g>
    <g id="xtick_8">
     <g id="line2d_16">
      <g>
       <use xlink:href="#m2aafbd9866" x="680.437765" y="322.75952" style="stroke: #000000; stroke-width: 1.6"/>
      </g>
     </g>
     <g id="text_16">
      <!-- 1 -->
      <g transform="translate(670.257765 355.57452) scale(0.32 -0.32)">
       <use xlink:href="#DejaVuSans-31"/>
      </g>
     </g>
    </g>
    <g id="xtick_9">
     <g id="line2d_17">
      <g>
       <use xlink:href="#m2aafbd9866" x="767.728643" y="322.75952" style="stroke: #000000; stroke-width: 1.6"/>
      </g>
     </g>
     <g id="text_17">
      <!-- 2 -->
      <g transform="translate(757.548643 355.57452) scale(0.32 -0.32)">
       <use xlink:href="#DejaVuSans-32"/>
      </g>
     </g>
    </g>
    <g id="xtick_10">
     <g id="line2d_18">
      <g>
       <use xlink:href="#m2aafbd9866" x="855.01952" y="322.75952" style="stroke: #000000; stroke-width: 1.6"/>
      </g>
     </g>
     <g id="text_18">
      <!-- 3 -->
      <g transform="translate(844.83952 355.57452) scale(0.32 -0.32)">
       <use xlink:href="#DejaVuSans-33"/>
      </g>
     </g>
    </g>
    <g id="text_19">
     <!-- Time (s) -->
     <g transform="translate(615.385265 390.54452) scale(0.32 -0.32)">
      <use xlink:href="#DejaVuSans-54"/>
      <use xlink:href="#DejaVuSans-69" transform="translate(57.958984 0)"/>
      <use xlink:href="#DejaVuSans-6d" transform="translate(85.742188 0)"/>
      <use xlink:href="#DejaVuSans-65" transform="translate(183.154297 0)"/>
      <use xlink:href="#DejaVuSans-20" transform="translate(244.677734 0)"/>
      <use xlink:href="#DejaVuSans-28" transform="translate(276.464844 0)"/>
      <use xlink:href="#DejaVuSans-73" transform="translate(315.478516 0)"/>
      <use xlink:href="#DejaVuSans-29" transform="translate(367.578125 0)"/>
     </g>
    </g>
   </g>
   <g id="matplotlib.axis_4">
    <g id="ytick_3">
     <g id="line2d_19">
      <g>
       <use xlink:href="#maa19342948" x="505.85601" y="302.70222" style="stroke: #000000; stroke-width: 1.6"/>
      </g>
     </g>
    </g>
    <g id="ytick_4">
     <g id="line2d_20">
      <g>
       <use xlink:href="#maa19342948" x="505.85601" y="157.870078" style="stroke: #000000; stroke-width: 1.6"/>
      </g>
     </g>
    </g>
   </g>
   <g id="line2d_21">
    <path d="M 506.728919 297.640214 
L 510.220554 298.579185 
L 514.585098 299.511894 
L 519.82255 300.357037 
L 525.060003 300.978295 
L 532.043273 301.558533 
L 539.899452 301.981412 
L 550.374358 302.312724 
L 553.865993 302.384974 
L 554.738901 298.784506 
L 559.103445 299.670768 
L 564.340898 300.473825 
L 570.451259 301.146049 
L 577.43453 301.669825 
L 586.163617 302.084087 
L 587.036526 302.114994 
L 587.909435 295.570082 
L 591.40107 296.89305 
L 594.892705 297.970615 
L 599.257249 299.040994 
L 603.621793 299.869234 
L 608.859245 300.619715 
L 614.969607 301.247929 
L 621.952877 301.737414 
L 630.681965 302.124555 
L 642.902688 302.420508 
L 661.233772 302.60628 
L 693.531397 302.68784 
L 694.404305 299.067085 
L 698.768849 299.889422 
L 699.641758 297.032294 
L 703.133393 298.08403 
L 707.497937 299.128753 
L 709.243755 299.477166 
L 710.116663 298.029653 
L 714.481207 299.086677 
L 715.354116 294.427537 
L 716.227025 280.331135 
L 717.099934 269.471508 
L 717.972842 268.403631 
L 719.71866 271.747746 
L 721.464477 274.765807 
L 723.210295 277.489606 
L 724.083204 276.952036 
L 724.956113 273.679327 
L 725.829021 273.625459 
L 728.447748 277.772533 
L 731.066474 281.328131 
L 733.6852 284.376611 
L 736.303927 286.990303 
L 738.922653 289.231215 
L 741.541379 291.152517 
L 744.160106 292.799793 
L 746.778832 294.212127 
L 750.270467 295.786987 
L 753.762102 297.06972 
L 757.253737 298.114514 
L 761.618281 299.152341 
L 765.982825 299.955392 
L 771.220278 300.683049 
L 777.330639 301.292158 
L 782.568092 301.665695 
L 783.441 298.371579 
L 787.805544 299.351253 
L 788.678453 299.518801 
L 789.551362 294.86442 
L 793.042997 296.318283 
L 796.534632 297.502464 
L 798.28045 298.00944 
L 799.153358 297.31734 
L 802.644994 298.316202 
L 807.009537 299.308403 
L 811.374081 300.07615 
L 812.24699 300.207453 
L 813.119899 297.252837 
L 816.611534 298.263664 
L 820.976078 299.267751 
L 821.848987 296.615764 
L 825.340622 297.744763 
L 828.832257 298.664341 
L 833.196801 299.577786 
L 838.434253 300.405474 
L 844.544615 301.098317 
L 851.527885 301.638158 
L 854.146611 301.78992 
L 854.146611 301.78992 
" clip-path="url(#p2c37984229)" style="fill: none; stroke: #000000; stroke-width: 5; stroke-linecap: square"/>
   </g>
   <g id="line2d_22">
    <path d="M 506.728919 286.171815 
L 509.347645 288.529464 
L 510.220554 285.673539 
L 511.093463 286.524973 
L 511.966371 282.910518 
L 512.83928 283.900104 
L 513.712189 271.819297 
L 514.585098 257.073529 
L 516.330915 261.522328 
L 518.076733 265.537369 
L 519.82255 269.160945 
L 521.568368 272.431218 
L 523.314186 275.382641 
L 525.932912 279.279099 
L 528.551638 282.619823 
L 529.424547 283.623942 
L 530.297456 276.833002 
L 531.170364 278.126465 
L 532.043273 278.866878 
L 534.662 282.266393 
L 537.280726 285.181053 
L 539.899452 287.68001 
L 542.518179 289.822553 
L 543.391087 290.466536 
L 544.263996 288.684464 
L 546.882722 290.683747 
L 549.501449 292.397882 
L 550.374358 292.913099 
L 551.247266 286.479478 
L 553.865993 288.793247 
L 554.738901 289.488697 
L 555.61181 282.051496 
L 556.484719 283.084032 
L 557.357628 283.006147 
L 559.976354 285.815301 
L 560.849263 281.73384 
L 561.722172 275.32723 
L 564.340898 279.231589 
L 566.086715 281.519976 
L 566.959624 277.8927 
L 569.578351 281.43116 
L 572.197077 284.464945 
L 573.069986 283.024227 
L 573.942894 280.107454 
L 574.815803 268.259886 
L 575.688712 264.063716 
L 576.561621 263.239498 
L 577.43453 249.340104 
L 579.180347 254.54291 
L 580.926165 259.238443 
L 582.671982 263.476163 
L 584.4178 267.300705 
L 586.163617 270.752353 
L 587.909435 273.867465 
L 588.782344 275.309204 
L 589.655252 269.010669 
L 590.528161 264.61718 
L 592.273979 268.330474 
L 593.146888 208.625915 
L 594.019796 167.937548 
L 594.892705 142.713366 
L 595.765614 142.290441 
L 597.511431 105.486688 
L 598.38434 98.278259 
L 599.257249 108.499468 
L 600.130158 97.91668 
L 601.003066 89.190412 
L 601.875975 79.328559 
L 602.748884 59.781306 
L 603.621793 54.39655 
L 604.494702 60.051876 
L 605.36761 64.081605 
L 606.240519 76.012644 
L 607.113428 71.985137 
L 607.986337 60.977039 
L 608.859245 71.121309 
L 609.732154 76.521 
L 610.605063 84.677253 
L 611.477972 95.5785 
L 612.350881 98.43628 
L 613.223789 93.846938 
L 614.969607 77.331759 
L 616.715424 99.305374 
L 617.588333 77.974245 
L 618.461242 89.210656 
L 619.334151 96.025478 
L 620.20706 78.001373 
L 621.079968 63.742341 
L 622.825786 87.040942 
L 624.571603 108.067921 
L 626.317421 127.044771 
L 627.19033 133.697709 
L 628.063239 142.147937 
L 628.936147 133.7407 
L 629.809056 108.529553 
L 630.681965 90.776535 
L 631.554874 79.59641 
L 632.427782 90.751695 
L 633.300691 89.076202 
L 634.1736 96.479945 
L 635.046509 100.807782 
L 635.919417 110.902501 
L 636.792326 114.5383 
L 637.665235 123.80029 
L 638.538144 123.261795 
L 639.411053 122.898619 
L 641.15687 140.429475 
L 642.902688 123.167645 
L 643.775596 121.164866 
L 644.648505 130.241739 
L 645.521414 136.045439 
L 646.394323 126.272028 
L 647.267232 112.14977 
L 648.14014 102.756564 
L 649.013049 103.321421 
L 649.885958 98.344623 
L 650.758867 88.754333 
L 651.631775 94.910504 
L 652.504684 103.059225 
L 653.377593 80.858074 
L 654.250502 70.920168 
L 655.123411 59.106944 
L 655.996319 51.791837 
L 656.869228 56.935763 
L 657.742137 69.224086 
L 658.615046 72.00769 
L 659.487954 83.542424 
L 660.360863 90.438847 
L 661.233772 75.435571 
L 662.106681 79.193523 
L 662.97959 71.549209 
L 663.852498 73.00308 
L 664.725407 81.058611 
L 665.598316 64.305299 
L 666.471225 71.171227 
L 667.344133 69.824488 
L 668.217042 76.96651 
L 669.089951 83.129243 
L 669.96286 82.046944 
L 670.835768 85.995612 
L 671.708677 80.840463 
L 672.581586 76.392503 
L 673.454495 82.238092 
L 674.327404 65.27218 
L 675.200312 68.502244 
L 676.073221 75.053986 
L 676.94613 60.856052 
L 677.819039 57.894572 
L 678.691947 54.111974 
L 680.437765 78.349529 
L 682.183583 100.223912 
L 683.9294 119.965551 
L 685.675218 137.782386 
L 687.421035 153.862069 
L 689.166853 168.373983 
L 690.91267 181.470982 
L 692.658488 193.291037 
L 694.404305 203.95863 
L 696.150123 213.586138 
L 697.895941 222.274956 
L 699.641758 230.116619 
L 701.387576 237.193718 
L 703.133393 243.580797 
L 704.006302 246.536871 
L 704.879211 246.788373 
L 705.752119 243.277769 
L 707.497937 249.071655 
L 709.243755 254.300635 
L 710.989572 259.019793 
L 712.73539 263.278831 
L 713.608298 265.250001 
L 714.481207 257.147619 
L 715.354116 259.425348 
L 716.227025 250.654962 
L 717.099934 250.70563 
L 718.845751 255.775299 
L 720.591569 260.350676 
L 722.337386 264.479951 
L 724.083204 268.206622 
L 724.956113 269.931403 
L 725.829021 270.87563 
L 726.70193 264.876536 
L 727.574839 257.584035 
L 728.447748 248.307097 
L 730.193565 253.61062 
L 731.939383 258.397052 
L 733.6852 262.716806 
L 735.431018 266.615387 
L 737.176835 270.133852 
L 738.922653 273.309269 
L 741.541379 277.501441 
L 743.287197 279.958519 
L 744.160106 272.58672 
L 745.905923 275.522982 
L 748.524649 279.399422 
L 751.143376 282.722984 
L 752.016285 281.188053 
L 753.762102 283.285685 
L 754.635011 281.297002 
L 757.253737 284.349921 
L 758.126646 285.267536 
L 758.999555 285.635354 
L 761.618281 288.069516 
L 762.49119 285.344274 
L 763.364099 279.09959 
L 765.982825 282.465916 
L 766.855734 270.504569 
L 768.601551 273.643838 
L 771.220278 277.788291 
L 773.839004 281.341641 
L 776.45773 284.388195 
L 779.076457 287.000233 
L 779.949365 287.785332 
L 780.822274 277.896925 
L 781.695183 262.884232 
L 782.568092 260.279974 
L 784.313909 264.416145 
L 785.186818 266.33045 
L 786.059727 262.095432 
L 786.932636 259.180965 
L 788.678453 263.424289 
L 790.424271 267.253889 
L 792.170088 270.710102 
L 793.915906 273.829333 
L 796.534632 277.947326 
L 799.153358 281.477993 
L 801.772085 284.505099 
L 804.390811 287.100463 
L 806.136629 288.621635 
L 807.009537 287.347958 
L 807.882446 283.79873 
L 810.501172 286.49484 
L 812.24699 288.075059 
L 813.119899 286.960103 
L 813.992808 284.747785 
L 814.865716 283.054171 
L 815.738625 279.266093 
L 816.611534 273.358178 
L 819.23026 277.543374 
L 821.848987 281.131653 
L 824.467713 284.208157 
L 826.21353 286.011328 
L 827.086439 277.014825 
L 829.705166 280.678492 
L 832.323892 283.819627 
L 834.069709 285.66068 
L 834.942618 284.695784 
L 836.688436 286.451412 
L 837.561345 285.160603 
L 840.180071 287.662476 
L 842.798797 289.80752 
L 843.671706 290.452255 
L 844.544615 289.069452 
L 847.163341 291.013826 
L 848.909159 292.153445 
L 849.782067 287.284002 
L 850.654976 284.989139 
L 851.527885 281.723188 
L 852.400794 281.506183 
L 853.273702 282.565984 
L 854.146611 279.959849 
L 854.146611 279.959849 
" clip-path="url(#p2c37984229)" style="fill: none; stroke: #ff0000; stroke-width: 5; stroke-linecap: square"/>
   </g>
   <g id="line2d_23">
    <path d="M 506.728919 298.261927 
L 511.093463 299.266406 
L 515.458007 300.043653 
L 520.695459 300.747929 
L 526.805821 301.337466 
L 534.662 301.842085 
L 539.026543 302.036664 
L 539.899452 300.684829 
L 546.009814 301.293401 
L 546.882722 301.193197 
L 547.755631 301.268648 
L 548.62854 293.236585 
L 549.501449 280.497557 
L 550.374358 279.252653 
L 552.993084 282.597147 
L 553.865993 283.602401 
L 554.738901 282.20887 
L 555.61181 283.233538 
L 556.484719 267.304179 
L 558.230537 270.755488 
L 559.103445 272.352826 
L 559.976354 269.930488 
L 561.722172 273.125733 
L 564.340898 277.344081 
L 566.959624 280.960784 
L 569.578351 284.061656 
L 572.197077 286.720267 
L 574.815803 288.999694 
L 577.43453 290.954018 
L 580.053256 292.629606 
L 582.671982 294.066213 
L 585.290709 295.297924 
L 586.163617 295.668139 
L 587.036526 289.139405 
L 589.655252 291.073803 
L 592.273979 292.732306 
L 594.892705 294.154266 
L 597.511431 295.373419 
L 601.003066 296.732866 
L 604.494702 297.840144 
L 607.986337 298.742029 
L 612.350881 299.6379 
L 617.588333 300.449664 
L 623.698695 301.129176 
L 630.681965 301.658631 
L 639.411053 302.077385 
L 650.758867 302.381466 
L 667.344133 302.581183 
L 683.056491 302.654142 
L 683.9294 293.606844 
L 686.548126 294.904072 
L 690.039762 296.35058 
L 693.531397 297.52877 
L 695.277214 298.033182 
L 696.150123 297.455409 
L 697.023032 293.687903 
L 699.641758 294.97357 
L 703.133393 296.407187 
L 706.625028 297.574876 
L 709.243755 298.306164 
L 710.116663 293.54887 
L 712.73539 294.854367 
L 716.227025 296.310095 
L 719.71866 297.495794 
L 721.464477 298.003421 
L 722.337386 292.415434 
L 724.956113 293.882587 
L 725.829021 290.481735 
L 727.574839 291.673233 
L 728.447748 286.505576 
L 729.320656 287.315407 
L 730.193565 283.389989 
L 732.812292 286.144397 
L 735.431018 288.505958 
L 738.049744 290.530699 
L 740.66847 292.266662 
L 743.287197 293.755034 
L 745.905923 295.031127 
L 746.778832 295.414682 
L 747.651741 292.517092 
L 748.524649 287.625767 
L 749.397558 271.453879 
L 750.270467 264.045641 
L 751.143376 259.733931 
L 752.889193 263.923341 
L 754.635011 267.704282 
L 756.380828 271.116582 
L 758.126646 274.196181 
L 760.745372 278.261855 
L 763.364099 281.747663 
L 765.982825 284.736307 
L 768.601551 287.298695 
L 771.220278 289.495623 
L 773.839004 291.379215 
L 776.45773 292.994159 
L 779.076457 294.378771 
L 782.568092 295.92272 
L 786.059727 297.180275 
L 789.551362 298.204562 
L 793.915906 299.222018 
L 798.28045 300.009306 
L 803.517902 300.722681 
L 804.390811 300.821658 
L 805.26372 289.721893 
L 806.136629 275.553552 
L 808.755355 279.42563 
L 811.374081 282.745455 
L 813.992808 285.591789 
L 816.611534 288.032164 
L 819.23026 290.124482 
L 821.848987 291.918382 
L 824.467713 293.456427 
L 827.086439 294.775108 
L 830.578074 296.245538 
L 833.196801 297.166423 
L 834.069709 294.874436 
L 834.942618 284.289238 
L 837.561345 286.915391 
L 838.434253 285.251598 
L 841.05298 287.740494 
L 843.671706 289.87441 
L 846.290432 291.703976 
L 848.909159 293.272602 
L 851.527885 294.617501 
L 854.146611 295.770585 
L 854.146611 295.770585 
" clip-path="url(#p2c37984229)" style="fill: none; stroke: #0000ff; stroke-width: 5; stroke-linecap: square"/>
   </g>
   <g id="patch_7">
    <path d="M 505.85601 322.75952 
L 505.85601 31.720156 
" style="fill: none; stroke: #000000; stroke-width: 5; stroke-linejoin: miter; stroke-linecap: square"/>
   </g>
   <g id="patch_8">
    <path d="M 505.85601 322.75952 
L 855.01952 322.75952 
" style="fill: none; stroke: #000000; stroke-width: 5; stroke-linejoin: miter; stroke-linecap: square"/>
   </g>
   <g id="patch_9">
    <path d="M 593.146888 316.938733 
L 680.437765 316.938733 
L 680.437765 306.752355 
L 593.146888 306.752355 
z
" style="fill: #8c5a2b; stroke: #8c5a2b; stroke-linejoin: miter"/>
   </g>
   <g id="text_20">
    <!-- Novel | Expert -->
    <g transform="translate(613.039718 21.720156) scale(0.19 -0.19)">
     <defs>
      <path id="DejaVuSans-45" d="M 628 4666 
L 3578 4666 
L 3578 4134 
L 1259 4134 
L 1259 2753 
L 3481 2753 
L 3481 2222 
L 1259 2222 
L 1259 531 
L 3634 531 
L 3634 0 
L 628 0 
L 628 4666 
z
" transform="scale(0.015625)"/>
      <path id="DejaVuSans-78" d="M 3513 3500 
L 2247 1797 
L 3578 0 
L 2900 0 
L 1881 1375 
L 863 0 
L 184 0 
L 1544 1831 
L 300 3500 
L 978 3500 
L 1906 2253 
L 2834 3500 
L 3513 3500 
z
" transform="scale(0.015625)"/>
      <path id="DejaVuSans-70" d="M 1159 525 
L 1159 -1331 
L 581 -1331 
L 581 3500 
L 1159 3500 
L 1159 2969 
Q 1341 3281 1617 3432 
Q 1894 3584 2278 3584 
Q 2916 3584 3314 3078 
Q 3713 2572 3713 1747 
Q 3713 922 3314 415 
Q 2916 -91 2278 -91 
Q 1894 -91 1617 61 
Q 1341 213 1159 525 
z
M 3116 1747 
Q 3116 2381 2855 2742 
Q 2594 3103 2138 3103 
Q 1681 3103 1420 2742 
Q 1159 2381 1159 1747 
Q 1159 1113 1420 752 
Q 1681 391 2138 391 
Q 2594 391 2855 752 
Q 3116 1113 3116 1747 
z
" transform="scale(0.015625)"/>
     </defs>
     <use xlink:href="#DejaVuSans-4e"/>
     <use xlink:href="#DejaVuSans-6f" transform="translate(74.804688 0)"/>
     <use xlink:href="#DejaVuSans-76" transform="translate(135.986328 0)"/>
     <use xlink:href="#DejaVuSans-65" transform="translate(195.166016 0)"/>
     <use xlink:href="#DejaVuSans-6c" transform="translate(256.689453 0)"/>
     <use xlink:href="#DejaVuSans-20" transform="translate(284.472656 0)"/>
     <use xlink:href="#DejaVuSans-7c" transform="translate(316.259766 0)"/>
     <use xlink:href="#DejaVuSans-20" transform="translate(349.951172 0)"/>
     <use xlink:href="#DejaVuSans-45" transform="translate(381.738281 0)"/>
     <use xlink:href="#DejaVuSans-78" transform="translate(444.921875 0)"/>
     <use xlink:href="#DejaVuSans-70" transform="translate(504.101562 0)"/>
     <use xlink:href="#DejaVuSans-65" transform="translate(567.578125 0)"/>
     <use xlink:href="#DejaVuSans-72" transform="translate(629.101562 0)"/>
     <use xlink:href="#DejaVuSans-74" transform="translate(670.214844 0)"/>
    </g>
   </g>
  </g>
 </g>
 <defs>
  <clipPath id="p33597819f9">
   <rect x="121.92" y="31.720156" width="349.16351" height="291.039364"/>
  </clipPath>
  <clipPath id="p2c37984229">
   <rect x="505.85601" y="31.720156" width="349.16351" height="291.039364"/>
  </clipPath>
 </defs>
</svg>
