<?xml version="1.0" encoding="utf-8" standalone="no"?>
<!DOCTYPE svg PUBLIC "-//W3C//DTD SVG 1.1//EN"
  "http://www.w3.org/Graphics/SVG/1.1/DTD/svg11.dtd">
<svg xmlns:xlink="http://www.w3.org/1999/xlink" width="872.39952pt" height="404.39952pt" viewBox="0 0 872.39952 404.39952" xmlns="http://www.w3.org/2000/svg" version="1.1">
 <metadata>
  <rdf:RDF xmlns:dc="http://purl.org/dc/elements/1.1/" xmlns:cc="http://creativecommons.org/ns#" xmlns:rdf="http://www.w3.org/1999/02/22-rdf-syntax-ns#">
   <cc:Work>
    <dc:type rdf:resource="http://purl.org/dc/dcmitype/StillImage"/>
    <dc:date>2026-03-25T11:55:28.217963</dc:date>
    <dc:format>image/svg+xml</dc:format>
    <dc:creator>
     <cc:Agent>
      <dc:title>Matplotlib v3.10.7, https://matplotlib.org/</dc:title>
     </cc:Agent>
    </dc:creator>
   </cc:Work>
  </rdf:RDF>
 </metadata>
 <defs>
  <style type="text/css">*{stroke-linejoin: round; stroke-linecap: butt}</style>
 </defs>
 <g id="figure_1">
  <g id="patch_1">
   <path d="M 0 404.39952 
L 872.39952 404.39952 
L 872.39952 0 
L 0 0 
z
" style="fill: #ffffff"/>
  </g>
  <g id="axes_1">
   <g id="patch_2">
    <path d="M 101.56 322.75952 
L 460.90351 322.75952 
L 460.90351 31.720156 
L 101.56 31.720156 
z
" style="fill: #ffffff"/>
   </g>
   <g id="matplotlib.axis_1">
    <g id="xtick_1">
     <g id="line2d_1">
      <defs>
       <path id="m4350f7b43f" d="M 0 0 
L 0 5 
" style="stroke: #000000; stroke-width: 1.6"/>
      </defs>
      <g>
       <use xlink:href="#m4350f7b43f" x="101.56" y="322.75952" style="stroke: #000000; stroke-width: 1.6"/>
      </g>
     </g>
     <g id="text_1">
      <!-- -1 -->
      <g transform="translate(85.6075 355.57452) scale(0.32 -0.32)">
       <defs>
        <path id="DejaVuSans-2d" d="M 313 2009 
L 1997 2009 
L 1997 1497 
L 313 1497 
L 313 2009 
z
" transform="scale(0.015625)"/>
        <path id="DejaVuSans-31" d="M 794 531 
L 1825 531 
L 1825 4091 
L 703 3866 
L 703 4441 
L 1819 4666 
L 2450 4666 
L 2450 531 
L 3481 531 
L 3481 0 
L 794 0 
L 794 531 
z
" transform="scale(0.015625)"/>
       </defs>
       <use xlink:href="#DejaVuSans-2d"/>
       <use xlink:href="#DejaVuSans-31" transform="translate(36.083984 0)"/>
      </g>
     </g>
    </g>
    <g id="xtick_2">
     <g id="line2d_2">
      <g>
       <use xlink:href="#m4350f7b43f" x="191.395877" y="322.75952" style="stroke: #000000; stroke-width: 1.6"/>
      </g>
     </g>
     <g id="text_2">
      <!-- 0 -->
      <g transform="translate(181.215877 355.57452) scale(0.32 -0.32)">
       <defs>
        <path id="DejaVuSans-30" d="M 2034 4250 
Q 1547 4250 1301 3770 
Q 1056 3291 1056 2328 
Q 1056 1369 1301 889 
Q 1547 409 2034 409 
Q 2525 409 2770 889 
Q 3016 1369 3016 2328 
Q 3016 3291 2770 3770 
Q 2525 4250 2034 4250 
z
M 2034 4750 
Q 2819 4750 3233 4129 
Q 3647 3509 3647 2328 
Q 3647 1150 3233 529 
Q 2819 -91 2034 -91 
Q 1250 -91 836 529 
Q 422 1150 422 2328 
Q 422 3509 836 4129 
Q 1250 4750 2034 4750 
z
" transform="scale(0.015625)"/>
       </defs>
       <use xlink:href="#DejaVuSans-30"/>
      </g>
     </g>
    </g>
    <g id="xtick_3">
     <g id="line2d_3">
      <g>
       <use xlink:href="#m4350f7b43f" x="281.231755" y="322.75952" style="stroke: #000000; stroke-width: 1.6"/>
      </g>
     </g>
     <g id="text_3">
      <!-- 1 -->
      <g transform="translate(271.051755 355.57452) scale(0.32 -0.32)">
       <use xlink:href="#DejaVuSans-31"/>
      </g>
     </g>
    </g>
    <g id="xtick_4">
     <g id="line2d_4">
      <g>
       <use xlink:href="#m4350f7b43f" x="371.067632" y="322.75952" style="stroke: #000000; stroke-width: 1.6"/>
      </g>
     </g>
     <g id="text_4">
      <!-- 2 -->
      <g transform="translate(360.887632 355.57452) scale(0.32 -0.32)">
       <defs>
        <path id="DejaVuSans-32" d="M 1228 531 
L 3431 531 
L 3431 0 
L 469 0 
L 469 531 
Q 828 903 1448 1529 
Q 2069 2156 2228 2338 
Q 2531 2678 2651 2914 
Q 2772 3150 2772 3378 
Q 2772 3750 2511 3984 
Q 2250 4219 1831 4219 
Q 1534 4219 1204 4116 
Q 875 4013 500 3803 
L 500 4441 
Q 881 4594 1212 4672 
Q 1544 4750 1819 4750 
Q 2544 4750 2975 4387 
Q 3406 4025 3406 3419 
Q 3406 3131 3298 2873 
Q 3191 2616 2906 2266 
Q 2828 2175 2409 1742 
Q 1991 1309 1228 531 
z
" transform="scale(0.015625)"/>
       </defs>
       <use xlink:href="#DejaVuSans-32"/>
      </g>
     </g>
    </g>
    <g id="xtick_5">
     <g id="line2d_5">
      <g>
       <use xlink:href="#m4350f7b43f" x="460.90351" y="322.75952" style="stroke: #000000; stroke-width: 1.6"/>
      </g>
     </g>
     <g id="text_5">
      <!-- 3 -->
      <g transform="translate(450.72351 355.57452) scale(0.32 -0.32)">
       <defs>
        <path id="DejaVuSans-33" d="M 2597 2516 
Q 3050 2419 3304 2112 
Q 3559 1806 3559 1356 
Q 3559 666 3084 287 
Q 2609 -91 1734 -91 
Q 1441 -91 1130 -33 
Q 819 25 488 141 
L 488 750 
Q 750 597 1062 519 
Q 1375 441 1716 441 
Q 2309 441 2620 675 
Q 2931 909 2931 1356 
Q 2931 1769 2642 2001 
Q 2353 2234 1838 2234 
L 1294 2234 
L 1294 2753 
L 1863 2753 
Q 2328 2753 2575 2939 
Q 2822 3125 2822 3475 
Q 2822 3834 2567 4026 
Q 2313 4219 1838 4219 
Q 1578 4219 1281 4162 
Q 984 4106 628 3988 
L 628 4550 
Q 988 4650 1302 4700 
Q 1616 4750 1894 4750 
Q 2613 4750 3031 4423 
Q 3450 4097 3450 3541 
Q 3450 3153 3228 2886 
Q 3006 2619 2597 2516 
z
" transform="scale(0.015625)"/>
       </defs>
       <use xlink:href="#DejaVuSans-33"/>
      </g>
     </g>
    </g>
    <g id="text_6">
     <!-- Time (s) -->
     <g transform="translate(216.179255 390.54452) scale(0.32 -0.32)">
      <defs>
       <path id="DejaVuSans-54" d="M -19 4666 
L 3928 4666 
L 3928 4134 
L 2272 4134 
L 2272 0 
L 1638 0 
L 1638 4134 
L -19 4134 
L -19 4666 
z
" transform="scale(0.015625)"/>
       <path id="DejaVuSans-69" d="M 603 3500 
L 1178 3500 
L 1178 0 
L 603 0 
L 603 3500 
z
M 603 4863 
L 1178 4863 
L 1178 4134 
L 603 4134 
L 603 4863 
z
" transform="scale(0.015625)"/>
       <path id="DejaVuSans-6d" d="M 3328 2828 
Q 3544 3216 3844 3400 
Q 4144 3584 4550 3584 
Q 5097 3584 5394 3201 
Q 5691 2819 5691 2113 
L 5691 0 
L 5113 0 
L 5113 2094 
Q 5113 2597 4934 2840 
Q 4756 3084 4391 3084 
Q 3944 3084 3684 2787 
Q 3425 2491 3425 1978 
L 3425 0 
L 2847 0 
L 2847 2094 
Q 2847 2600 2669 2842 
Q 2491 3084 2119 3084 
Q 1678 3084 1418 2786 
Q 1159 2488 1159 1978 
L 1159 0 
L 581 0 
L 581 3500 
L 1159 3500 
L 1159 2956 
Q 1356 3278 1631 3431 
Q 1906 3584 2284 3584 
Q 2666 3584 2933 3390 
Q 3200 3197 3328 2828 
z
" transform="scale(0.015625)"/>
       <path id="DejaVuSans-65" d="M 3597 1894 
L 3597 1613 
L 953 1613 
Q 991 1019 1311 708 
Q 1631 397 2203 397 
Q 2534 397 2845 478 
Q 3156 559 3463 722 
L 3463 178 
Q 3153 47 2828 -22 
Q 2503 -91 2169 -91 
Q 1331 -91 842 396 
Q 353 884 353 1716 
Q 353 2575 817 3079 
Q 1281 3584 2069 3584 
Q 2775 3584 3186 3129 
Q 3597 2675 3597 1894 
z
M 3022 2063 
Q 3016 2534 2758 2815 
Q 2500 3097 2075 3097 
Q 1594 3097 1305 2825 
Q 1016 2553 972 2059 
L 3022 2063 
z
" transform="scale(0.015625)"/>
       <path id="DejaVuSans-20" transform="scale(0.015625)"/>
       <path id="DejaVuSans-28" d="M 1984 4856 
Q 1566 4138 1362 3434 
Q 1159 2731 1159 2009 
Q 1159 1288 1364 580 
Q 1569 -128 1984 -844 
L 1484 -844 
Q 1016 -109 783 600 
Q 550 1309 550 2009 
Q 550 2706 781 3412 
Q 1013 4119 1484 4856 
L 1984 4856 
z
" transform="scale(0.015625)"/>
       <path id="DejaVuSans-73" d="M 2834 3397 
L 2834 2853 
Q 2591 2978 2328 3040 
Q 2066 3103 1784 3103 
Q 1356 3103 1142 2972 
Q 928 2841 928 2578 
Q 928 2378 1081 2264 
Q 1234 2150 1697 2047 
L 1894 2003 
Q 2506 1872 2764 1633 
Q 3022 1394 3022 966 
Q 3022 478 2636 193 
Q 2250 -91 1575 -91 
Q 1294 -91 989 -36 
Q 684 19 347 128 
L 347 722 
Q 666 556 975 473 
Q 1284 391 1588 391 
Q 1994 391 2212 530 
Q 2431 669 2431 922 
Q 2431 1156 2273 1281 
Q 2116 1406 1581 1522 
L 1381 1569 
Q 847 1681 609 1914 
Q 372 2147 372 2553 
Q 372 3047 722 3315 
Q 1072 3584 1716 3584 
Q 2034 3584 2315 3537 
Q 2597 3491 2834 3397 
z
" transform="scale(0.015625)"/>
       <path id="DejaVuSans-29" d="M 513 4856 
L 1013 4856 
Q 1481 4119 1714 3412 
Q 1947 2706 1947 2009 
Q 1947 1309 1714 600 
Q 1481 -109 1013 -844 
L 513 -844 
Q 928 -128 1133 580 
Q 1338 1288 1338 2009 
Q 1338 2731 1133 3434 
Q 928 4138 513 4856 
z
" transform="scale(0.015625)"/>
      </defs>
      <use xlink:href="#DejaVuSans-54"/>
      <use xlink:href="#DejaVuSans-69" transform="translate(57.958984 0)"/>
      <use xlink:href="#DejaVuSans-6d" transform="translate(85.742188 0)"/>
      <use xlink:href="#DejaVuSans-65" transform="translate(183.154297 0)"/>
      <use xlink:href="#DejaVuSans-20" transform="translate(244.677734 0)"/>
      <use xlink:href="#DejaVuSans-28" transform="translate(276.464844 0)"/>
      <use xlink:href="#DejaVuSans-73" transform="translate(315.478516 0)"/>
      <use xlink:href="#DejaVuSans-29" transform="translate(367.578125 0)"/>
     </g>
    </g>
   </g>
   <g id="matplotlib.axis_2">
    <g id="ytick_1">
     <g id="line2d_6">
      <defs>
       <path id="m11e9a7f10b" d="M 0 0 
L -5 0 
" style="stroke: #000000; stroke-width: 1.6"/>
      </defs>
      <g>
       <use xlink:href="#m11e9a7f10b" x="101.56" y="303.115351" style="stroke: #000000; stroke-width: 1.6"/>
      </g>
     </g>
     <g id="text_7">
      <!-- 0.0 -->
      <g transform="translate(42.17 315.272851) scale(0.32 -0.32)">
       <defs>
        <path id="DejaVuSans-2e" d="M 684 794 
L 1344 794 
L 1344 0 
L 684 0 
L 684 794 
z
" transform="scale(0.015625)"/>
       </defs>
       <use xlink:href="#DejaVuSans-30"/>
       <use xlink:href="#DejaVuSans-2e" transform="translate(63.623047 0)"/>
       <use xlink:href="#DejaVuSans-30" transform="translate(95.410156 0)"/>
      </g>
     </g>
    </g>
    <g id="ytick_2">
     <g id="line2d_7">
      <g>
       <use xlink:href="#m11e9a7f10b" x="101.56" y="175.340322" style="stroke: #000000; stroke-width: 1.6"/>
      </g>
     </g>
     <g id="text_8">
      <!-- 0.2 -->
      <g transform="translate(42.17 187.497822) scale(0.32 -0.32)">
       <use xlink:href="#DejaVuSans-30"/>
       <use xlink:href="#DejaVuSans-2e" transform="translate(63.623047 0)"/>
       <use xlink:href="#DejaVuSans-32" transform="translate(95.410156 0)"/>
      </g>
     </g>
    </g>
    <g id="ytick_3">
     <g id="line2d_8">
      <g>
       <use xlink:href="#m11e9a7f10b" x="101.56" y="47.565292" style="stroke: #000000; stroke-width: 1.6"/>
      </g>
     </g>
     <g id="text_9">
      <!-- 0.4 -->
      <g transform="translate(42.17 59.722792) scale(0.32 -0.32)">
       <defs>
        <path id="DejaVuSans-34" d="M 2419 4116 
L 825 1625 
L 2419 1625 
L 2419 4116 
z
M 2253 4666 
L 3047 4666 
L 3047 1625 
L 3713 1625 
L 3713 1100 
L 3047 1100 
L 3047 0 
L 2419 0 
L 2419 1100 
L 313 1100 
L 313 1709 
L 2253 4666 
z
" transform="scale(0.015625)"/>
       </defs>
       <use xlink:href="#DejaVuSans-30"/>
       <use xlink:href="#DejaVuSans-2e" transform="translate(63.623047 0)"/>
       <use xlink:href="#DejaVuSans-34" transform="translate(95.410156 0)"/>
      </g>
     </g>
    </g>
    <g id="text_10">
     <!-- Neural Activity -->
     <g transform="translate(31.515 294.944838) rotate(-90) scale(0.32 -0.32)">
      <defs>
       <path id="DejaVuSans-4e" d="M 628 4666 
L 1478 4666 
L 3547 763 
L 3547 4666 
L 4159 4666 
L 4159 0 
L 3309 0 
L 1241 3903 
L 1241 0 
L 628 0 
L 628 4666 
z
" transform="scale(0.015625)"/>
       <path id="DejaVuSans-75" d="M 544 1381 
L 544 3500 
L 1119 3500 
L 1119 1403 
Q 1119 906 1312 657 
Q 1506 409 1894 409 
Q 2359 409 2629 706 
Q 2900 1003 2900 1516 
L 2900 3500 
L 3475 3500 
L 3475 0 
L 2900 0 
L 2900 538 
Q 2691 219 2414 64 
Q 2138 -91 1772 -91 
Q 1169 -91 856 284 
Q 544 659 544 1381 
z
M 1991 3584 
L 1991 3584 
z
" transform="scale(0.015625)"/>
       <path id="DejaVuSans-72" d="M 2631 2963 
Q 2534 3019 2420 3045 
Q 2306 3072 2169 3072 
Q 1681 3072 1420 2755 
Q 1159 2438 1159 1844 
L 1159 0 
L 581 0 
L 581 3500 
L 1159 3500 
L 1159 2956 
Q 1341 3275 1631 3429 
Q 1922 3584 2338 3584 
Q 2397 3584 2469 3576 
Q 2541 3569 2628 3553 
L 2631 2963 
z
" transform="scale(0.015625)"/>
       <path id="DejaVuSans-61" d="M 2194 1759 
Q 1497 1759 1228 1600 
Q 959 1441 959 1056 
Q 959 750 1161 570 
Q 1363 391 1709 391 
Q 2188 391 2477 730 
Q 2766 1069 2766 1631 
L 2766 1759 
L 2194 1759 
z
M 3341 1997 
L 3341 0 
L 2766 0 
L 2766 531 
Q 2569 213 2275 61 
Q 1981 -91 1556 -91 
Q 1019 -91 701 211 
Q 384 513 384 1019 
Q 384 1609 779 1909 
Q 1175 2209 1959 2209 
L 2766 2209 
L 2766 2266 
Q 2766 2663 2505 2880 
Q 2244 3097 1772 3097 
Q 1472 3097 1187 3025 
Q 903 2953 641 2809 
L 641 3341 
Q 956 3463 1253 3523 
Q 1550 3584 1831 3584 
Q 2591 3584 2966 3190 
Q 3341 2797 3341 1997 
z
" transform="scale(0.015625)"/>
       <path id="DejaVuSans-6c" d="M 603 4863 
L 1178 4863 
L 1178 0 
L 603 0 
L 603 4863 
z
" transform="scale(0.015625)"/>
       <path id="DejaVuSans-41" d="M 2188 4044 
L 1331 1722 
L 3047 1722 
L 2188 4044 
z
M 1831 4666 
L 2547 4666 
L 4325 0 
L 3669 0 
L 3244 1197 
L 1141 1197 
L 716 0 
L 50 0 
L 1831 4666 
z
" transform="scale(0.015625)"/>
       <path id="DejaVuSans-63" d="M 3122 3366 
L 3122 2828 
Q 2878 2963 2633 3030 
Q 2388 3097 2138 3097 
Q 1578 3097 1268 2742 
Q 959 2388 959 1747 
Q 959 1106 1268 751 
Q 1578 397 2138 397 
Q 2388 397 2633 464 
Q 2878 531 3122 666 
L 3122 134 
Q 2881 22 2623 -34 
Q 2366 -91 2075 -91 
Q 1284 -91 818 406 
Q 353 903 353 1747 
Q 353 2603 823 3093 
Q 1294 3584 2113 3584 
Q 2378 3584 2631 3529 
Q 2884 3475 3122 3366 
z
" transform="scale(0.015625)"/>
       <path id="DejaVuSans-74" d="M 1172 4494 
L 1172 3500 
L 2356 3500 
L 2356 3053 
L 1172 3053 
L 1172 1153 
Q 1172 725 1289 603 
Q 1406 481 1766 481 
L 2356 481 
L 2356 0 
L 1766 0 
Q 1100 0 847 248 
Q 594 497 594 1153 
L 594 3053 
L 172 3053 
L 172 3500 
L 594 3500 
L 594 4494 
L 1172 4494 
z
" transform="scale(0.015625)"/>
       <path id="DejaVuSans-76" d="M 191 3500 
L 800 3500 
L 1894 563 
L 2988 3500 
L 3597 3500 
L 2284 0 
L 1503 0 
L 191 3500 
z
" transform="scale(0.015625)"/>
       <path id="DejaVuSans-79" d="M 2059 -325 
Q 1816 -950 1584 -1140 
Q 1353 -1331 966 -1331 
L 506 -1331 
L 506 -850 
L 844 -850 
Q 1081 -850 1212 -737 
Q 1344 -625 1503 -206 
L 1606 56 
L 191 3500 
L 800 3500 
L 1894 763 
L 2988 3500 
L 3597 3500 
L 2059 -325 
z
" transform="scale(0.015625)"/>
      </defs>
      <use xlink:href="#DejaVuSans-4e"/>
      <use xlink:href="#DejaVuSans-65" transform="translate(74.804688 0)"/>
      <use xlink:href="#DejaVuSans-75" transform="translate(136.328125 0)"/>
      <use xlink:href="#DejaVuSans-72" transform="translate(199.707031 0)"/>
      <use xlink:href="#DejaVuSans-61" transform="translate(240.820312 0)"/>
      <use xlink:href="#DejaVuSans-6c" transform="translate(302.099609 0)"/>
      <use xlink:href="#DejaVuSans-20" transform="translate(329.882812 0)"/>
      <use xlink:href="#DejaVuSans-41" transform="translate(361.669922 0)"/>
      <use xlink:href="#DejaVuSans-63" transform="translate(428.328125 0)"/>
      <use xlink:href="#DejaVuSans-74" transform="translate(483.308594 0)"/>
      <use xlink:href="#DejaVuSans-69" transform="translate(522.517578 0)"/>
      <use xlink:href="#DejaVuSans-76" transform="translate(550.300781 0)"/>
      <use xlink:href="#DejaVuSans-69" transform="translate(609.480469 0)"/>
      <use xlink:href="#DejaVuSans-74" transform="translate(637.263672 0)"/>
      <use xlink:href="#DejaVuSans-79" transform="translate(676.472656 0)"/>
     </g>
    </g>
   </g>
   <g id="line2d_9">
    <path d="M 102.458359 295.079955 
L 103.356718 293.752828 
L 104.255076 294.220954 
L 105.153435 293.738095 
L 106.051794 293.612483 
L 108.74687 294.96783 
L 109.645229 295.375206 
L 110.543588 295.034384 
L 111.441947 294.955036 
L 114.137023 296.118901 
L 115.93374 295.227383 
L 117.730458 295.99646 
L 118.628817 294.251489 
L 119.527176 293.470114 
L 121.323893 294.410525 
L 122.222252 294.637588 
L 123.120611 293.727977 
L 125.815687 295.066852 
L 126.714046 294.840359 
L 128.510763 295.647171 
L 129.409122 295.198239 
L 130.307481 295.132207 
L 133.002557 296.270803 
L 133.900916 296.081535 
L 137.494351 297.386264 
L 139.291069 297.94485 
L 140.189427 297.643308 
L 141.087786 297.490822 
L 142.884504 298.039214 
L 143.782862 297.397284 
L 144.681221 297.118424 
L 147.376298 297.973736 
L 148.274656 297.430772 
L 149.173015 297.516152 
L 151.868091 298.314738 
L 152.76645 298.151482 
L 154.563168 298.577901 
L 157.258244 299.171688 
L 158.156603 298.234061 
L 160.851679 298.930255 
L 161.750038 298.658938 
L 162.648397 297.445131 
L 164.445114 297.997978 
L 166.241832 297.035776 
L 168.038549 297.576301 
L 168.936908 296.046312 
L 169.835267 296.399764 
L 170.733626 295.897876 
L 171.631984 296.25875 
L 172.530343 296.172132 
L 173.428702 296.519293 
L 174.327061 296.354674 
L 175.22542 294.030249 
L 177.920496 295.326013 
L 180.615572 296.436967 
L 181.513931 296.063482 
L 182.41229 295.929981 
L 186.005725 297.262822 
L 186.904084 297.555449 
L 187.802442 297.078875 
L 190.497519 297.939827 
L 191.395877 286.018797 
L 192.294236 272.396831 
L 193.192595 261.823773 
L 194.989313 238.657984 
L 197.684389 207.921152 
L 199.481106 192.201445 
L 201.277824 177.278864 
L 203.074542 166.766139 
L 203.9729 160.657862 
L 204.871259 157.91604 
L 205.769618 153.33077 
L 206.667977 145.862811 
L 207.566335 140.390459 
L 208.464694 137.257395 
L 209.363053 133.332725 
L 210.261412 128.78998 
L 212.058129 121.319289 
L 212.956488 116.024199 
L 213.854847 112.044333 
L 214.753206 108.632562 
L 215.651564 104.773656 
L 216.549923 102.108538 
L 217.448282 100.78943 
L 218.346641 98.557451 
L 219.245 95.745915 
L 220.143358 94.343393 
L 221.940076 92.197094 
L 222.838435 89.830884 
L 223.736793 88.036862 
L 224.635152 87.291067 
L 225.533511 83.70628 
L 226.43187 81.263357 
L 228.228587 75.245016 
L 229.126946 74.9887 
L 230.025305 72.549452 
L 230.923664 72.475006 
L 231.822022 72.025777 
L 232.720381 72.614035 
L 233.61874 72.383271 
L 234.517099 73.613576 
L 235.415457 71.808359 
L 236.313816 70.974523 
L 237.212175 69.81855 
L 238.110534 69.38878 
L 239.008893 69.521565 
L 239.907251 69.498279 
L 240.80561 68.825844 
L 241.703969 67.964286 
L 242.602328 66.61342 
L 243.500686 65.009455 
L 244.399045 63.843752 
L 245.297404 64.584788 
L 246.195763 63.804816 
L 247.094122 63.768811 
L 247.99248 62.530795 
L 248.890839 62.483823 
L 249.789198 62.994684 
L 250.687557 61.9242 
L 251.585915 59.296724 
L 252.484274 57.604947 
L 254.280992 58.709931 
L 255.179351 57.286637 
L 256.077709 56.342159 
L 256.976068 55.745028 
L 257.874427 54.654076 
L 258.772786 52.844366 
L 259.671144 53.235028 
L 260.569503 51.80446 
L 261.467862 52.923001 
L 262.366221 52.514822 
L 263.26458 53.742424 
L 264.162938 54.096434 
L 265.061297 54.922768 
L 265.959656 56.336657 
L 266.858015 56.05319 
L 267.756373 57.120056 
L 268.654732 55.169983 
L 269.553091 54.93463 
L 270.45145 56.26261 
L 271.349808 54.58776 
L 272.248167 54.05386 
L 273.146526 54.808414 
L 274.044885 54.667594 
L 274.943244 56.49069 
L 275.841602 56.720407 
L 276.739961 56.690076 
L 277.63832 56.163945 
L 278.536679 56.878039 
L 279.435037 55.571974 
L 280.333396 53.982346 
L 282.130114 78.272808 
L 283.926831 100.194964 
L 284.82519 110.34098 
L 289.316984 153.186228 
L 290.215343 160.68269 
L 291.113702 166.219321 
L 293.808778 185.657942 
L 294.707137 191.53081 
L 296.503854 200.798645 
L 298.300572 210.774529 
L 300.995648 223.783536 
L 302.792366 231.237134 
L 304.589083 237.920866 
L 305.487442 240.296858 
L 306.385801 242.001977 
L 307.284159 243.299055 
L 309.080877 249.131148 
L 310.877595 254.009401 
L 312.674312 258.797233 
L 313.572671 259.636953 
L 315.369388 263.78394 
L 316.267747 265.024177 
L 318.064465 268.738067 
L 318.962824 270.042623 
L 320.759541 273.267215 
L 321.6579 274.759622 
L 322.556259 275.850993 
L 325.251335 279.739574 
L 327.946411 283.073545 
L 330.641488 285.932009 
L 331.539846 286.791177 
L 332.438205 287.372645 
L 333.336564 288.159781 
L 335.133281 287.99812 
L 337.828358 290.154215 
L 338.726717 290.802272 
L 339.625075 291.144013 
L 342.320152 292.851426 
L 344.116869 293.852159 
L 345.913587 293.91884 
L 346.811946 293.524211 
L 347.710304 293.646363 
L 350.405381 294.996878 
L 353.998816 296.502805 
L 354.897175 296.833432 
L 355.795533 296.093303 
L 356.693892 296.444405 
L 357.592251 295.799038 
L 360.287327 296.842528 
L 361.185686 296.677667 
L 363.880762 297.595842 
L 364.779121 297.701704 
L 365.67748 297.972386 
L 366.575839 295.905299 
L 367.474197 296.265802 
L 368.372556 296.387453 
L 369.270915 296.723848 
L 370.169274 296.530625 
L 371.067632 296.859862 
L 371.965991 296.457486 
L 375.559426 297.692479 
L 376.457785 297.963622 
L 377.356144 296.006852 
L 378.254503 296.362277 
L 379.152861 295.954304 
L 380.05122 296.312356 
L 380.949579 296.260838 
L 383.644655 297.238463 
L 384.543014 296.670819 
L 389.034808 298.10505 
L 389.933167 296.108431 
L 390.831526 296.127138 
L 391.729884 296.476548 
L 393.526602 296.931113 
L 394.424961 296.639956 
L 395.323319 296.963726 
L 396.221678 296.109757 
L 398.018396 296.128368 
L 399.815113 295.36562 
L 402.51019 296.458709 
L 403.408548 296.791541 
L 404.306907 296.43069 
L 407.001983 297.38409 
L 408.798701 297.602161 
L 409.69706 297.87782 
L 410.595419 297.802265 
L 411.493777 297.202966 
L 412.392136 296.042075 
L 413.290495 296.395739 
L 414.188854 296.336685 
L 415.087212 296.675618 
L 415.985571 295.819131 
L 416.88393 296.183942 
L 417.782289 295.877947 
L 418.680648 296.004195 
L 419.579006 296.359753 
L 422.274083 295.906377 
L 423.172441 294.342382 
L 424.969159 293.973284 
L 426.765877 294.864636 
L 427.664235 294.866331 
L 429.460953 295.670611 
L 430.359312 295.74924 
L 433.054388 296.799832 
L 433.952747 295.883301 
L 436.647823 296.91469 
L 437.546182 296.974301 
L 438.444541 297.281353 
L 439.342899 297.372317 
L 440.241258 296.619212 
L 441.139617 296.696439 
L 444.733052 297.887107 
L 445.631411 298.14852 
L 446.52977 297.738731 
L 447.428128 298.007563 
L 448.326487 297.656269 
L 449.224846 297.929223 
L 450.123205 298.060168 
L 451.021563 298.312927 
L 451.919922 296.833837 
L 452.818281 297.147913 
L 453.71664 296.047759 
L 455.513357 296.73685 
L 456.411716 295.381089 
L 457.310075 295.506375 
L 458.208434 295.256384 
L 459.106792 295.649333 
L 460.005151 295.103731 
L 460.005151 295.103731 
" clip-path="url(#pee4bca9d37)" style="fill: none; stroke: #000000; stroke-width: 5; stroke-linecap: square"/>
   </g>
   <g id="line2d_10">
    <path d="M 102.458359 300.034467 
L 103.356718 299.358042 
L 104.255076 299.207232 
L 105.153435 299.378051 
L 106.051794 299.128216 
L 106.950153 299.327573 
L 107.848511 298.786316 
L 108.74687 298.610787 
L 109.645229 298.5588 
L 110.543588 298.196833 
L 111.441947 297.625155 
L 112.340305 297.578471 
L 114.137023 298.118317 
L 115.93374 297.984625 
L 116.832099 298.241161 
L 118.628817 298.082451 
L 119.527176 298.298503 
L 120.425534 298.191279 
L 123.120611 298.893574 
L 124.018969 298.6792 
L 126.714046 299.244227 
L 127.612404 298.510018 
L 130.307481 299.166854 
L 131.20584 299.277452 
L 132.104198 298.496789 
L 133.002557 298.727718 
L 133.900916 298.553574 
L 134.799275 298.011429 
L 135.697633 297.87867 
L 139.291069 298.850042 
L 140.189427 299.063307 
L 141.087786 298.70059 
L 141.986145 298.921328 
L 142.884504 298.735156 
L 145.57958 299.359881 
L 148.274656 299.564413 
L 149.173015 299.44403 
L 151.868091 299.568556 
L 152.76645 299.745896 
L 153.664809 299.619833 
L 154.563168 299.26187 
L 155.461527 298.776585 
L 157.258244 298.439469 
L 160.851679 299.306816 
L 161.750038 298.987912 
L 162.648397 299.194284 
L 163.546755 299.110828 
L 164.445114 299.311054 
L 165.343473 298.789898 
L 166.241832 298.73404 
L 168.038549 299.161218 
L 168.936908 299.266332 
L 169.835267 299.087892 
L 170.733626 299.289265 
L 171.631984 298.836665 
L 172.530343 298.810289 
L 173.428702 299.025542 
L 174.327061 298.787397 
L 175.22542 298.951871 
L 177.022137 298.807341 
L 178.818855 298.177886 
L 180.615572 298.659289 
L 181.513931 298.510759 
L 182.41229 297.639027 
L 183.310649 297.759939 
L 186.904084 298.753335 
L 187.802442 298.971436 
L 188.700801 298.889997 
L 189.59916 298.687013 
L 193.192595 299.464022 
L 196.78603 300.141321 
L 197.684389 299.981887 
L 203.9729 300.918771 
L 204.871259 301.0286 
L 209.363053 301.08926 
L 210.261412 301.190565 
L 212.956488 300.920787 
L 215.651564 301.233786 
L 216.549923 301.11361 
L 218.346641 301.30878 
L 219.245 301.077664 
L 221.940076 301.277149 
L 227.330228 301.736849 
L 228.228587 301.529012 
L 229.126946 301.562665 
L 230.025305 301.328722 
L 232.720381 301.329393 
L 236.313816 301.579942 
L 238.110534 301.64321 
L 242.602328 301.950225 
L 243.500686 301.594272 
L 247.99248 301.911261 
L 248.890839 301.157732 
L 251.585915 300.942113 
L 253.382633 300.452392 
L 254.280992 300.58554 
L 255.179351 300.530165 
L 257.874427 300.898877 
L 258.772786 300.752078 
L 259.671144 300.870242 
L 260.569503 300.663821 
L 261.467862 300.786397 
L 263.26458 300.323003 
L 264.162938 300.46262 
L 265.959656 300.187554 
L 266.858015 299.534942 
L 267.756373 299.481035 
L 270.45145 299.920318 
L 272.248167 299.860812 
L 274.943244 299.781713 
L 275.841602 299.493872 
L 280.333396 300.31312 
L 281.231755 300.453232 
L 282.130114 300.342609 
L 283.926831 300.612951 
L 284.82519 300.562987 
L 286.621908 300.811843 
L 291.113702 300.76315 
L 293.808778 301.098633 
L 295.605495 300.382287 
L 297.402213 300.619655 
L 298.300572 300.535379 
L 299.19893 300.664377 
L 300.097289 300.609419 
L 300.995648 300.734715 
L 302.792366 300.256612 
L 303.690724 300.399549 
L 304.589083 300.137071 
L 309.080877 300.810815 
L 309.979236 300.434501 
L 310.877595 300.304275 
L 311.775953 300.444829 
L 312.674312 300.085303 
L 317.166106 300.762478 
L 318.962824 300.991883 
L 319.861182 300.934157 
L 320.759541 301.043217 
L 321.6579 300.778347 
L 322.556259 300.222679 
L 323.454617 300.252107 
L 324.352976 300.066022 
L 325.251335 300.218488 
L 327.048053 299.122508 
L 329.743129 299.691987 
L 330.641488 299.418438 
L 335.133281 300.25475 
L 336.03164 300.39778 
L 336.929999 300.337118 
L 337.828358 300.47603 
L 338.726717 300.411545 
L 344.116869 301.06673 
L 348.608663 301.324533 
L 349.507022 301.125462 
L 353.100457 301.455995 
L 353.998816 301.052314 
L 354.897175 301.155466 
L 356.693892 300.720505 
L 357.592251 300.633832 
L 358.49061 300.757908 
L 359.388968 300.652514 
L 362.982404 301.043459 
L 365.67748 301.338963 
L 366.575839 301.016621 
L 367.474197 300.934805 
L 368.372556 301.043832 
L 370.169274 301.016067 
L 371.965991 301.114947 
L 373.762709 301.309986 
L 374.661068 301.256924 
L 376.457785 300.472108 
L 377.356144 300.450214 
L 378.254503 299.934091 
L 381.847938 300.524196 
L 382.746297 300.456433 
L 384.543014 300.698103 
L 385.441373 300.442908 
L 390.831526 301.15086 
L 394.424961 301.515261 
L 395.323319 301.30694 
L 396.221678 301.272545 
L 398.916755 301.498127 
L 399.815113 301.304742 
L 400.713472 301.395273 
L 401.611831 301.047728 
L 403.408548 300.980781 
L 406.103625 301.285224 
L 407.001983 301.239434 
L 407.900342 301.33323 
L 408.798701 300.939652 
L 412.392136 301.273682 
L 415.087212 300.8858 
L 415.985571 300.997278 
L 416.88393 300.621708 
L 417.782289 300.74639 
L 421.375724 300.805274 
L 424.969159 301.18607 
L 425.867518 300.839892 
L 429.460953 301.123035 
L 431.25767 301.317286 
L 432.156029 300.981764 
L 438.444541 301.625388 
L 439.342899 301.517107 
L 440.241258 301.597019 
L 441.139617 301.142647 
L 442.037976 301.241282 
L 442.936334 300.481534 
L 445.631411 300.857182 
L 447.428128 300.270705 
L 451.021563 300.798369 
L 451.919922 300.788479 
L 453.71664 300.92612 
L 454.614999 300.535542 
L 457.310075 300.437082 
L 458.208434 300.570995 
L 459.106792 300.399806 
L 460.005151 300.535584 
L 460.005151 300.535584 
" clip-path="url(#pee4bca9d37)" style="fill: none; stroke: #ff0000; stroke-width: 5; stroke-linecap: square"/>
   </g>
   <g id="line2d_11">
    <path d="M 102.458359 295.292198 
L 103.356718 293.749524 
L 104.255076 294.217815 
L 105.153435 293.996157 
L 106.051794 293.637308 
L 108.74687 294.989114 
L 109.645229 295.395427 
L 110.543588 294.612771 
L 111.441947 294.397248 
L 114.137023 295.640668 
L 115.035382 295.259058 
L 117.730458 296.379562 
L 118.628817 294.250087 
L 119.527176 293.473056 
L 121.323893 294.41318 
L 122.222252 293.914654 
L 123.120611 293.027347 
L 125.815687 294.466148 
L 126.714046 294.289829 
L 128.510763 295.150318 
L 129.409122 294.726895 
L 130.307481 294.854677 
L 132.104198 295.660093 
L 133.002557 295.958635 
L 133.900916 295.941459 
L 134.799275 296.300153 
L 135.697633 295.575774 
L 138.39271 296.651106 
L 140.189427 296.783256 
L 141.087786 296.846128 
L 142.884504 297.457377 
L 143.782862 296.786698 
L 147.376298 297.930841 
L 148.274656 297.594354 
L 149.173015 297.870404 
L 150.071374 297.124671 
L 151.868091 297.708762 
L 152.76645 297.498533 
L 153.664809 297.779374 
L 154.563168 297.820859 
L 157.258244 298.575986 
L 158.156603 297.571264 
L 159.95332 297.803075 
L 160.851679 297.701305 
L 161.750038 296.993532 
L 162.648397 295.801921 
L 163.546755 296.167593 
L 164.445114 296.361804 
L 165.343473 295.770143 
L 166.241832 295.520677 
L 168.038549 296.261158 
L 168.936908 295.16732 
L 169.835267 295.564721 
L 170.733626 295.413436 
L 173.428702 296.511922 
L 174.327061 296.303289 
L 175.22542 294.40427 
L 177.022137 295.253601 
L 177.920496 295.480183 
L 179.717213 296.133418 
L 180.615572 296.482514 
L 181.513931 296.241999 
L 182.41229 296.24826 
L 186.005725 297.522063 
L 186.904084 297.801727 
L 187.802442 297.598091 
L 190.497519 298.38499 
L 194.989313 237.790328 
L 196.78603 215.953399 
L 198.582748 198.85417 
L 201.277824 178.179178 
L 203.074542 167.373618 
L 203.9729 160.962625 
L 204.871259 157.679183 
L 205.769618 152.857941 
L 206.667977 145.320038 
L 207.566335 139.953225 
L 208.464694 137.125238 
L 209.363053 133.842387 
L 210.261412 128.62875 
L 211.159771 124.863293 
L 212.058129 121.924322 
L 212.956488 115.954608 
L 213.854847 112.509936 
L 214.753206 109.52506 
L 215.651564 105.573982 
L 216.549923 103.569074 
L 217.448282 102.164248 
L 218.346641 100.339877 
L 219.245 97.878619 
L 220.143358 96.025955 
L 221.940076 93.888529 
L 222.838435 91.471043 
L 223.736793 89.713674 
L 224.635152 88.794234 
L 225.533511 84.593599 
L 226.43187 81.867476 
L 227.330228 79.665257 
L 228.228587 76.350647 
L 229.126946 76.482061 
L 230.025305 73.882801 
L 230.923664 73.580694 
L 231.822022 72.343439 
L 232.720381 71.908928 
L 234.517099 73.649181 
L 235.415457 71.446162 
L 236.313816 70.647245 
L 237.212175 70.358219 
L 238.110534 69.934008 
L 239.008893 69.695894 
L 239.907251 70.14638 
L 241.703969 68.636835 
L 244.399045 62.688465 
L 245.297404 64.042606 
L 246.195763 62.826523 
L 247.094122 62.406863 
L 247.99248 61.186402 
L 248.890839 60.720665 
L 249.789198 61.235887 
L 250.687557 60.011865 
L 251.585915 57.773507 
L 252.484274 55.979296 
L 254.280992 57.849953 
L 255.179351 56.344463 
L 256.077709 55.804375 
L 257.874427 53.860776 
L 258.772786 51.791837 
L 259.671144 52.689361 
L 260.569503 52.032483 
L 262.366221 54.191595 
L 263.26458 55.705844 
L 264.162938 55.808374 
L 265.061297 56.252671 
L 265.959656 57.942316 
L 266.858015 57.471895 
L 267.756373 58.493428 
L 268.654732 57.37879 
L 269.553091 57.533775 
L 270.45145 59.489313 
L 271.349808 58.47692 
L 272.248167 58.067941 
L 273.146526 58.418677 
L 274.044885 57.865166 
L 274.943244 58.632629 
L 275.841602 57.878684 
L 276.739961 57.369422 
L 277.63832 57.925999 
L 278.536679 59.58139 
L 280.333396 56.00896 
L 282.130114 80.101825 
L 283.926831 101.845653 
L 285.723549 120.850716 
L 287.520266 138.621513 
L 289.316984 154.659664 
L 290.215343 162.082451 
L 291.113702 167.796029 
L 292.910419 180.977301 
L 296.503854 203.338081 
L 298.300572 213.06636 
L 301.894007 229.534086 
L 302.792366 233.213149 
L 303.690724 235.683456 
L 304.589083 239.055052 
L 306.385801 243.89969 
L 307.284159 245.618718 
L 308.182518 248.493552 
L 309.080877 250.478159 
L 310.877595 255.610286 
L 312.674312 260.242033 
L 313.572671 260.792198 
L 318.064465 269.360288 
L 320.759541 274.110428 
L 321.6579 275.560674 
L 322.556259 276.160639 
L 325.251335 280.005058 
L 326.149694 280.488245 
L 328.84477 283.715435 
L 330.641488 285.606927 
L 332.438205 286.502615 
L 334.234923 287.329589 
L 335.133281 287.848182 
L 337.828358 290.025662 
L 340.523434 291.871383 
L 341.421793 292.251504 
L 344.116869 293.800961 
L 345.015228 293.73872 
L 345.913587 294.207551 
L 346.811946 293.625193 
L 350.405381 295.114426 
L 353.998816 296.598548 
L 354.897175 296.412373 
L 355.795533 296.495002 
L 356.693892 296.415079 
L 357.592251 296.529643 
L 360.287327 297.468929 
L 361.185686 297.253513 
L 362.982404 297.106461 
L 365.67748 297.963479 
L 366.575839 294.901791 
L 367.474197 295.312469 
L 368.372556 295.53044 
L 369.270915 295.909686 
L 370.169274 296.141637 
L 371.067632 296.490323 
L 371.965991 296.089319 
L 374.661068 297.091407 
L 376.457785 297.570909 
L 377.356144 296.180496 
L 378.254503 296.527239 
L 379.152861 296.044312 
L 380.05122 296.397864 
L 380.949579 296.362172 
L 383.644655 297.325344 
L 385.441373 297.78672 
L 389.034808 298.775148 
L 389.933167 297.428367 
L 390.831526 297.068976 
L 393.526602 297.93134 
L 394.424961 297.597329 
L 395.323319 297.87323 
L 397.120037 297.080152 
L 398.018396 297.027179 
L 398.916755 296.765448 
L 399.815113 295.984888 
L 401.611831 296.680108 
L 402.51019 296.177088 
L 403.408548 296.524002 
L 404.306907 296.129239 
L 406.103625 296.810385 
L 407.900342 296.971374 
L 410.595419 297.84766 
L 411.493777 297.27316 
L 412.392136 296.341722 
L 413.290495 296.680404 
L 414.188854 296.360085 
L 415.087212 296.697848 
L 415.985571 295.188186 
L 416.88393 295.584544 
L 418.680648 294.657786 
L 419.579006 295.080664 
L 420.477365 294.659974 
L 421.375724 294.685273 
L 422.274083 294.861864 
L 423.172441 293.843455 
L 424.0708 293.363929 
L 426.765877 294.754726 
L 427.664235 295.024727 
L 429.460953 295.813563 
L 430.359312 294.736494 
L 433.054388 295.931529 
L 433.952747 294.757161 
L 434.851106 294.862751 
L 438.444541 296.393556 
L 439.342899 296.580754 
L 440.241258 295.481709 
L 445.631411 297.474901 
L 447.428128 298.024844 
L 448.326487 297.011941 
L 451.021563 297.882441 
L 451.919922 296.720356 
L 452.818281 297.040106 
L 453.71664 297.097288 
L 455.513357 297.684049 
L 456.411716 296.440852 
L 457.310075 296.50615 
L 458.208434 295.676882 
L 459.106792 296.048806 
L 460.005151 295.552839 
L 460.005151 295.552839 
" clip-path="url(#pee4bca9d37)" style="fill: none; stroke: #0000ff; stroke-width: 5; stroke-linecap: square"/>
   </g>
   <g id="patch_3">
    <path d="M 101.56 322.75952 
L 101.56 31.720156 
" style="fill: none; stroke: #000000; stroke-width: 5; stroke-linejoin: miter; stroke-linecap: square"/>
   </g>
   <g id="patch_4">
    <path d="M 101.56 322.75952 
L 460.90351 322.75952 
" style="fill: none; stroke: #000000; stroke-width: 5; stroke-linejoin: miter; stroke-linecap: square"/>
   </g>
   <g id="patch_5">
    <path d="M 191.395877 316.938733 
L 281.231755 316.938733 
L 281.231755 306.752355 
L 191.395877 306.752355 
z
" style="fill: #8c5a2b; stroke: #8c5a2b; stroke-linejoin: miter"/>
   </g>
   <g id="text_11">
    <!-- Novel | Naive -->
    <g transform="translate(217.929099 21.720156) scale(0.19 -0.19)">
     <defs>
      <path id="DejaVuSans-6f" d="M 1959 3097 
Q 1497 3097 1228 2736 
Q 959 2375 959 1747 
Q 959 1119 1226 758 
Q 1494 397 1959 397 
Q 2419 397 2687 759 
Q 2956 1122 2956 1747 
Q 2956 2369 2687 2733 
Q 2419 3097 1959 3097 
z
M 1959 3584 
Q 2709 3584 3137 3096 
Q 3566 2609 3566 1747 
Q 3566 888 3137 398 
Q 2709 -91 1959 -91 
Q 1206 -91 779 398 
Q 353 888 353 1747 
Q 353 2609 779 3096 
Q 1206 3584 1959 3584 
z
" transform="scale(0.015625)"/>
      <path id="DejaVuSans-7c" d="M 1344 4891 
L 1344 -1509 
L 813 -1509 
L 813 4891 
L 1344 4891 
z
" transform="scale(0.015625)"/>
     </defs>
     <use xlink:href="#DejaVuSans-4e"/>
     <use xlink:href="#DejaVuSans-6f" transform="translate(74.804688 0)"/>
     <use xlink:href="#DejaVuSans-76" transform="translate(135.986328 0)"/>
     <use xlink:href="#DejaVuSans-65" transform="translate(195.166016 0)"/>
     <use xlink:href="#DejaVuSans-6c" transform="translate(256.689453 0)"/>
     <use xlink:href="#DejaVuSans-20" transform="translate(284.472656 0)"/>
     <use xlink:href="#DejaVuSans-7c" transform="translate(316.259766 0)"/>
     <use xlink:href="#DejaVuSans-20" transform="translate(349.951172 0)"/>
     <use xlink:href="#DejaVuSans-4e" transform="translate(381.738281 0)"/>
     <use xlink:href="#DejaVuSans-61" transform="translate(456.542969 0)"/>
     <use xlink:href="#DejaVuSans-69" transform="translate(517.822266 0)"/>
     <use xlink:href="#DejaVuSans-76" transform="translate(545.605469 0)"/>
     <use xlink:href="#DejaVuSans-65" transform="translate(604.785156 0)"/>
    </g>
   </g>
   <g id="legend_1">
    <g id="line2d_12">
     <path d="M 110.56 46.867812 
L 125.56 46.867812 
L 140.56 46.867812 
" style="fill: none; stroke: #000000; stroke-width: 5; stroke-linecap: square"/>
    </g>
    <g id="text_12">
     <!-- Nonoccluded (NO) -->
     <g transform="translate(152.56 52.117812) scale(0.15 -0.15)">
      <defs>
       <path id="DejaVuSans-6e" d="M 3513 2113 
L 3513 0 
L 2938 0 
L 2938 2094 
Q 2938 2591 2744 2837 
Q 2550 3084 2163 3084 
Q 1697 3084 1428 2787 
Q 1159 2491 1159 1978 
L 1159 0 
L 581 0 
L 581 3500 
L 1159 3500 
L 1159 2956 
Q 1366 3272 1645 3428 
Q 1925 3584 2291 3584 
Q 2894 3584 3203 3211 
Q 3513 2838 3513 2113 
z
" transform="scale(0.015625)"/>
       <path id="DejaVuSans-64" d="M 2906 2969 
L 2906 4863 
L 3481 4863 
L 3481 0 
L 2906 0 
L 2906 525 
Q 2725 213 2448 61 
Q 2172 -91 1784 -91 
Q 1150 -91 751 415 
Q 353 922 353 1747 
Q 353 2572 751 3078 
Q 1150 3584 1784 3584 
Q 2172 3584 2448 3432 
Q 2725 3281 2906 2969 
z
M 947 1747 
Q 947 1113 1208 752 
Q 1469 391 1925 391 
Q 2381 391 2643 752 
Q 2906 1113 2906 1747 
Q 2906 2381 2643 2742 
Q 2381 3103 1925 3103 
Q 1469 3103 1208 2742 
Q 947 2381 947 1747 
z
" transform="scale(0.015625)"/>
       <path id="DejaVuSans-4f" d="M 2522 4238 
Q 1834 4238 1429 3725 
Q 1025 3213 1025 2328 
Q 1025 1447 1429 934 
Q 1834 422 2522 422 
Q 3209 422 3611 934 
Q 4013 1447 4013 2328 
Q 4013 3213 3611 3725 
Q 3209 4238 2522 4238 
z
M 2522 4750 
Q 3503 4750 4090 4092 
Q 4678 3434 4678 2328 
Q 4678 1225 4090 567 
Q 3503 -91 2522 -91 
Q 1538 -91 948 565 
Q 359 1222 359 2328 
Q 359 3434 948 4092 
Q 1538 4750 2522 4750 
z
" transform="scale(0.015625)"/>
      </defs>
      <use xlink:href="#DejaVuSans-4e"/>
      <use xlink:href="#DejaVuSans-6f" transform="translate(74.804688 0)"/>
      <use xlink:href="#DejaVuSans-6e" transform="translate(135.986328 0)"/>
      <use xlink:href="#DejaVuSans-6f" transform="translate(199.365234 0)"/>
      <use xlink:href="#DejaVuSans-63" transform="translate(260.546875 0)"/>
      <use xlink:href="#DejaVuSans-63" transform="translate(315.527344 0)"/>
      <use xlink:href="#DejaVuSans-6c" transform="translate(370.507812 0)"/>
      <use xlink:href="#DejaVuSans-75" transform="translate(398.291016 0)"/>
      <use xlink:href="#DejaVuSans-64" transform="translate(461.669922 0)"/>
      <use xlink:href="#DejaVuSans-65" transform="translate(525.146484 0)"/>
      <use xlink:href="#DejaVuSans-64" transform="translate(586.669922 0)"/>
      <use xlink:href="#DejaVuSans-20" transform="translate(650.146484 0)"/>
      <use xlink:href="#DejaVuSans-28" transform="translate(681.933594 0)"/>
      <use xlink:href="#DejaVuSans-4e" transform="translate(720.947266 0)"/>
      <use xlink:href="#DejaVuSans-4f" transform="translate(795.751953 0)"/>
      <use xlink:href="#DejaVuSans-29" transform="translate(874.462891 0)"/>
     </g>
    </g>
    <g id="line2d_13">
     <path d="M 110.56 68.885 
L 125.56 68.885 
L 140.56 68.885 
" style="fill: none; stroke: #ff0000; stroke-width: 5; stroke-linecap: square"/>
    </g>
    <g id="text_13">
     <!-- Occluded (O) -->
     <g transform="translate(152.56 74.135) scale(0.15 -0.15)">
      <use xlink:href="#DejaVuSans-4f"/>
      <use xlink:href="#DejaVuSans-63" transform="translate(78.710938 0)"/>
      <use xlink:href="#DejaVuSans-63" transform="translate(133.691406 0)"/>
      <use xlink:href="#DejaVuSans-6c" transform="translate(188.671875 0)"/>
      <use xlink:href="#DejaVuSans-75" transform="translate(216.455078 0)"/>
      <use xlink:href="#DejaVuSans-64" transform="translate(279.833984 0)"/>
      <use xlink:href="#DejaVuSans-65" transform="translate(343.310547 0)"/>
      <use xlink:href="#DejaVuSans-64" transform="translate(404.833984 0)"/>
      <use xlink:href="#DejaVuSans-20" transform="translate(468.310547 0)"/>
      <use xlink:href="#DejaVuSans-28" transform="translate(500.097656 0)"/>
      <use xlink:href="#DejaVuSans-4f" transform="translate(539.111328 0)"/>
      <use xlink:href="#DejaVuSans-29" transform="translate(617.822266 0)"/>
     </g>
    </g>
    <g id="line2d_14">
     <path d="M 110.56 90.902187 
L 125.56 90.902187 
L 140.56 90.902187 
" style="fill: none; stroke: #0000ff; stroke-width: 5; stroke-linecap: square"/>
    </g>
    <g id="text_14">
     <!-- No feedback -->
     <g transform="translate(152.56 96.152187) scale(0.15 -0.15)">
      <defs>
       <path id="DejaVuSans-66" d="M 2375 4863 
L 2375 4384 
L 1825 4384 
Q 1516 4384 1395 4259 
Q 1275 4134 1275 3809 
L 1275 3500 
L 2222 3500 
L 2222 3053 
L 1275 3053 
L 1275 0 
L 697 0 
L 697 3053 
L 147 3053 
L 147 3500 
L 697 3500 
L 697 3744 
Q 697 4328 969 4595 
Q 1241 4863 1831 4863 
L 2375 4863 
z
" transform="scale(0.015625)"/>
       <path id="DejaVuSans-62" d="M 3116 1747 
Q 3116 2381 2855 2742 
Q 2594 3103 2138 3103 
Q 1681 3103 1420 2742 
Q 1159 2381 1159 1747 
Q 1159 1113 1420 752 
Q 1681 391 2138 391 
Q 2594 391 2855 752 
Q 3116 1113 3116 1747 
z
M 1159 2969 
Q 1341 3281 1617 3432 
Q 1894 3584 2278 3584 
Q 2916 3584 3314 3078 
Q 3713 2572 3713 1747 
Q 3713 922 3314 415 
Q 2916 -91 2278 -91 
Q 1894 -91 1617 61 
Q 1341 213 1159 525 
L 1159 0 
L 581 0 
L 581 4863 
L 1159 4863 
L 1159 2969 
z
" transform="scale(0.015625)"/>
       <path id="DejaVuSans-6b" d="M 581 4863 
L 1159 4863 
L 1159 1991 
L 2875 3500 
L 3609 3500 
L 1753 1863 
L 3688 0 
L 2938 0 
L 1159 1709 
L 1159 0 
L 581 0 
L 581 4863 
z
" transform="scale(0.015625)"/>
      </defs>
      <use xlink:href="#DejaVuSans-4e"/>
      <use xlink:href="#DejaVuSans-6f" transform="translate(74.804688 0)"/>
      <use xlink:href="#DejaVuSans-20" transform="translate(135.986328 0)"/>
      <use xlink:href="#DejaVuSans-66" transform="translate(167.773438 0)"/>
      <use xlink:href="#DejaVuSans-65" transform="translate(202.978516 0)"/>
      <use xlink:href="#DejaVuSans-65" transform="translate(264.501953 0)"/>
      <use xlink:href="#DejaVuSans-64" transform="translate(326.025391 0)"/>
      <use xlink:href="#DejaVuSans-62" transform="translate(389.501953 0)"/>
      <use xlink:href="#DejaVuSans-61" transform="translate(452.978516 0)"/>
      <use xlink:href="#DejaVuSans-63" transform="translate(514.257812 0)"/>
      <use xlink:href="#DejaVuSans-6b" transform="translate(569.238281 0)"/>
     </g>
    </g>
   </g>
  </g>
  <g id="axes_2">
   <g id="patch_6">
    <path d="M 495.67601 322.75952 
L 855.01952 322.75952 
L 855.01952 31.720156 
L 495.67601 31.720156 
z
" style="fill: #ffffff"/>
   </g>
   <g id="matplotlib.axis_3">
    <g id="xtick_6">
     <g id="line2d_15">
      <g>
       <use xlink:href="#m4350f7b43f" x="495.67601" y="322.75952" style="stroke: #000000; stroke-width: 1.6"/>
      </g>
     </g>
     <g id="text_15">
      <!-- -1 -->
      <g transform="translate(479.72351 355.57452) scale(0.32 -0.32)">
       <use xlink:href="#DejaVuSans-2d"/>
       <use xlink:href="#DejaVuSans-31" transform="translate(36.083984 0)"/>
      </g>
     </g>
    </g>
    <g id="xtick_7">
     <g id="line2d_16">
      <g>
       <use xlink:href="#m4350f7b43f" x="585.511887" y="322.75952" style="stroke: #000000; stroke-width: 1.6"/>
      </g>
     </g>
     <g id="text_16">
      <!-- 0 -->
      <g transform="translate(575.331887 355.57452) scale(0.32 -0.32)">
       <use xlink:href="#DejaVuSans-30"/>
      </g>
     </g>
    </g>
    <g id="xtick_8">
     <g id="line2d_17">
      <g>
       <use xlink:href="#m4350f7b43f" x="675.347765" y="322.75952" style="stroke: #000000; stroke-width: 1.6"/>
      </g>
     </g>
     <g id="text_17">
      <!-- 1 -->
      <g transform="translate(665.167765 355.57452) scale(0.32 -0.32)">
       <use xlink:href="#DejaVuSans-31"/>
      </g>
     </g>
    </g>
    <g id="xtick_9">
     <g id="line2d_18">
      <g>
       <use xlink:href="#m4350f7b43f" x="765.183642" y="322.75952" style="stroke: #000000; stroke-width: 1.6"/>
      </g>
     </g>
     <g id="text_18">
      <!-- 2 -->
      <g transform="translate(755.003642 355.57452) scale(0.32 -0.32)">
       <use xlink:href="#DejaVuSans-32"/>
      </g>
     </g>
    </g>
    <g id="xtick_10">
     <g id="line2d_19">
      <g>
       <use xlink:href="#m4350f7b43f" x="855.01952" y="322.75952" style="stroke: #000000; stroke-width: 1.6"/>
      </g>
     </g>
     <g id="text_19">
      <!-- 3 -->
      <g transform="translate(844.83952 355.57452) scale(0.32 -0.32)">
       <use xlink:href="#DejaVuSans-33"/>
      </g>
     </g>
    </g>
    <g id="text_20">
     <!-- Time (s) -->
     <g transform="translate(610.295265 390.54452) scale(0.32 -0.32)">
      <use xlink:href="#DejaVuSans-54"/>
      <use xlink:href="#DejaVuSans-69" transform="translate(57.958984 0)"/>
      <use xlink:href="#DejaVuSans-6d" transform="translate(85.742188 0)"/>
      <use xlink:href="#DejaVuSans-65" transform="translate(183.154297 0)"/>
      <use xlink:href="#DejaVuSans-20" transform="translate(244.677734 0)"/>
      <use xlink:href="#DejaVuSans-28" transform="translate(276.464844 0)"/>
      <use xlink:href="#DejaVuSans-73" transform="translate(315.478516 0)"/>
      <use xlink:href="#DejaVuSans-29" transform="translate(367.578125 0)"/>
     </g>
    </g>
   </g>
   <g id="matplotlib.axis_4">
    <g id="ytick_4">
     <g id="line2d_20">
      <g>
       <use xlink:href="#m11e9a7f10b" x="495.67601" y="303.115351" style="stroke: #000000; stroke-width: 1.6"/>
      </g>
     </g>
    </g>
    <g id="ytick_5">
     <g id="line2d_21">
      <g>
       <use xlink:href="#m11e9a7f10b" x="495.67601" y="175.340322" style="stroke: #000000; stroke-width: 1.6"/>
      </g>
     </g>
    </g>
    <g id="ytick_6">
     <g id="line2d_22">
      <g>
       <use xlink:href="#m11e9a7f10b" x="495.67601" y="47.565292" style="stroke: #000000; stroke-width: 1.6"/>
      </g>
     </g>
    </g>
   </g>
   <g id="line2d_23">
    <path d="M 496.574369 301.284729 
L 497.472728 300.289296 
L 502.86288 301.037941 
L 509.151392 301.664618 
L 514.541544 301.991222 
L 522.626773 302.405892 
L 523.525132 302.192581 
L 533.407079 302.590479 
L 537.000514 302.68784 
L 537.898872 301.703521 
L 541.492308 301.965406 
L 542.390666 300.75789 
L 543.289025 300.875763 
L 544.187384 300.716634 
L 545.984101 300.950509 
L 546.88246 300.905145 
L 551.374254 301.405136 
L 552.272613 301.121989 
L 553.170972 300.632095 
L 554.06933 300.652865 
L 554.967689 300.465679 
L 556.764407 300.592108 
L 558.561124 300.838124 
L 559.459483 300.778696 
L 562.154559 301.111962 
L 563.052918 300.572814 
L 568.443071 301.246353 
L 573.833223 301.741466 
L 574.731582 301.777752 
L 575.629941 301.60173 
L 582.816811 302.111184 
L 584.613529 302.20909 
L 585.511887 289.671512 
L 588.206964 259.149706 
L 590.90204 234.232401 
L 591.800399 226.748829 
L 592.698758 220.613687 
L 593.597116 215.849888 
L 594.495475 210.160661 
L 595.393834 202.724965 
L 596.292193 197.740817 
L 598.08891 186.147955 
L 598.987269 181.636359 
L 599.885628 176.136019 
L 600.783987 167.962915 
L 601.682345 162.14316 
L 602.580704 158.031841 
L 603.479063 154.629981 
L 604.377422 149.91718 
L 605.275781 146.960274 
L 606.174139 144.760825 
L 608.869216 133.784048 
L 612.462651 123.773883 
L 613.36101 119.865759 
L 614.259368 117.847599 
L 615.157727 114.710651 
L 616.056086 112.604051 
L 616.954445 109.017302 
L 617.852803 106.5486 
L 618.751162 105.174847 
L 619.649521 102.493735 
L 620.54788 101.446804 
L 621.446238 100.983219 
L 622.344597 99.327884 
L 623.242956 99.110981 
L 624.141315 97.285943 
L 625.039674 97.269455 
L 625.938032 97.016833 
L 626.836391 97.187488 
L 627.73475 96.18768 
L 628.633109 95.810518 
L 629.531467 93.975922 
L 630.429826 93.38058 
L 631.328185 93.854695 
L 632.226544 93.613058 
L 633.124903 93.786417 
L 634.023261 93.720977 
L 634.92162 92.354003 
L 636.718338 88.880219 
L 637.616696 88.086138 
L 638.515055 87.628512 
L 639.413414 88.376421 
L 640.311773 88.035073 
L 641.210132 87.559131 
L 642.10849 86.712709 
L 643.006849 86.365801 
L 643.905208 86.656065 
L 644.803567 85.566884 
L 645.701925 84.858122 
L 646.600284 85.158515 
L 647.498643 85.687426 
L 648.397002 84.627833 
L 649.295361 81.9753 
L 650.193719 83.570658 
L 651.092078 82.949575 
L 651.990437 81.40393 
L 652.888796 81.651849 
L 653.787154 83.906447 
L 654.685513 82.977202 
L 656.482231 83.33203 
L 657.380589 83.264972 
L 658.278948 82.090073 
L 659.177307 82.852414 
L 660.075666 83.143287 
L 660.974025 82.371255 
L 661.872383 82.56213 
L 662.770742 81.641396 
L 663.669101 81.236416 
L 664.56746 81.333881 
L 666.364177 78.587367 
L 667.262536 77.661739 
L 668.160895 77.756882 
L 669.059254 78.516424 
L 669.957612 78.710746 
L 670.855971 78.389256 
L 671.75433 78.198609 
L 672.652689 79.075685 
L 673.551047 77.909182 
L 674.449406 77.098861 
L 676.246124 99.135466 
L 678.042841 119.023507 
L 679.839559 136.972481 
L 681.636276 153.171415 
L 683.432994 167.790946 
L 685.229712 180.985079 
L 687.026429 192.892786 
L 688.823147 203.608734 
L 690.619864 212.626051 
L 692.416582 221.44876 
L 694.213299 229.411254 
L 696.010017 236.597403 
L 697.806734 242.997777 
L 699.603452 248.859244 
L 703.196887 258.753337 
L 704.993605 263.078635 
L 706.790322 266.982216 
L 707.688681 268.3645 
L 709.485398 271.752707 
L 710.383757 273.065972 
L 711.282116 274.178394 
L 713.078834 275.874733 
L 715.77391 279.756931 
L 716.672269 280.644846 
L 717.570627 281.760057 
L 718.468986 282.615484 
L 719.367345 283.640478 
L 720.265704 283.930464 
L 722.96078 286.666709 
L 724.757498 288.270452 
L 726.554215 289.572002 
L 729.249291 291.503622 
L 731.046009 292.574043 
L 733.741085 294.077498 
L 736.436162 295.366522 
L 740.029597 296.803881 
L 743.623032 297.97462 
L 746.318108 298.647792 
L 749.911543 299.432529 
L 750.809902 299.180542 
L 755.301696 300.07067 
L 759.79349 300.759435 
L 760.691849 300.594239 
L 766.082001 301.262102 
L 770.573795 301.628595 
L 772.370513 301.773554 
L 773.268871 300.172092 
L 777.760665 300.837913 
L 778.659024 300.152361 
L 779.557383 299.284817 
L 783.150818 299.968222 
L 784.049177 299.31837 
L 784.947536 299.0058 
L 786.744253 299.406481 
L 787.642612 299.451375 
L 792.134406 300.280237 
L 793.032765 300.12632 
L 795.727841 300.55263 
L 796.6262 299.917121 
L 799.321276 300.373269 
L 800.219635 300.315383 
L 803.81307 300.834759 
L 805.609787 301.010977 
L 806.508146 299.926232 
L 809.203222 300.38108 
L 810.101581 299.516554 
L 810.99994 299.696494 
L 811.898299 298.740521 
L 812.796658 298.342334 
L 813.695016 298.580985 
L 814.593375 298.386277 
L 818.18681 299.263491 
L 820.881887 299.770437 
L 821.780245 299.598684 
L 823.576963 299.94156 
L 824.475322 299.865103 
L 827.170398 300.328669 
L 828.068757 299.826608 
L 832.560551 300.570584 
L 833.458909 300.1972 
L 834.357268 298.707955 
L 838.849062 299.704992 
L 843.340856 300.47648 
L 848.731009 301.175538 
L 853.222802 301.614361 
L 854.121161 301.072085 
L 854.121161 301.072085 
" clip-path="url(#p1da479dc98)" style="fill: none; stroke: #000000; stroke-width: 5; stroke-linecap: square"/>
   </g>
   <g id="line2d_24">
    <path d="M 496.574369 300.769556 
L 499.269445 301.104125 
L 500.167804 300.882364 
L 501.964521 300.712349 
L 502.86288 300.832499 
L 503.761239 300.284119 
L 504.659598 299.99812 
L 506.456315 300.30205 
L 507.354674 300.173932 
L 509.151392 300.46072 
L 510.04975 300.439152 
L 512.744827 300.820845 
L 514.541544 300.939133 
L 516.338262 301.151314 
L 517.236621 301.12788 
L 519.931697 301.411343 
L 520.830056 301.079906 
L 523.525132 301.070251 
L 526.220208 301.266565 
L 529.813643 301.531401 
L 533.407079 301.788845 
L 535.203796 301.87116 
L 536.102155 301.743609 
L 540.593949 302.053923 
L 541.492308 301.990931 
L 542.390666 302.047152 
L 544.187384 301.749826 
L 545.085743 301.158825 
L 546.88246 301.244578 
L 547.780819 301.338117 
L 548.679178 301.13455 
L 550.475895 301.256478 
L 551.374254 301.349421 
L 552.272613 300.670649 
L 553.170972 300.792884 
L 554.06933 300.558938 
L 554.967689 300.686759 
L 555.866048 300.502348 
L 557.662765 300.757116 
L 558.561124 300.62262 
L 561.256201 300.978146 
L 562.154559 300.677229 
L 563.052918 300.709226 
L 563.951277 300.344194 
L 564.849636 300.482752 
L 565.747994 299.571476 
L 566.646353 299.174388 
L 567.544712 299.371436 
L 569.34143 299.223111 
L 572.036506 299.754409 
L 572.934865 299.53272 
L 573.833223 299.448624 
L 575.629941 299.80613 
L 576.5283 299.546826 
L 577.426659 299.725252 
L 578.325017 299.760482 
L 579.223376 299.585682 
L 582.816811 300.183929 
L 583.71517 300.124489 
L 587.308605 300.612933 
L 589.105323 300.856919 
L 590.003681 300.817263 
L 591.800399 301.041326 
L 592.698758 300.799045 
L 595.393834 301.007319 
L 598.987269 301.380699 
L 599.885628 301.25762 
L 600.783987 301.00637 
L 601.682345 301.111819 
L 602.580704 301.066793 
L 603.479063 301.169221 
L 604.377422 301.141158 
L 606.174139 301.244114 
L 607.072498 300.905323 
L 607.970857 300.330716 
L 613.36101 301.068389 
L 614.259368 300.602202 
L 615.157727 300.552251 
L 620.54788 301.231237 
L 622.344597 301.414938 
L 623.242956 301.383264 
L 630.429826 301.966249 
L 636.718338 302.296446 
L 637.616696 302.088596 
L 640.311773 302.212281 
L 641.210132 301.891317 
L 643.006849 301.953802 
L 643.905208 301.570746 
L 646.600284 301.791045 
L 647.498643 301.436667 
L 649.295361 301.600339 
L 651.092078 301.396478 
L 654.685513 301.715318 
L 655.583872 301.606144 
L 659.177307 301.886092 
L 660.075666 301.481209 
L 661.872383 301.401608 
L 664.56746 301.646031 
L 665.465818 301.454806 
L 669.059254 301.486691 
L 669.957612 301.282883 
L 672.652689 301.544239 
L 673.551047 301.266728 
L 674.449406 301.170369 
L 679.839559 301.685611 
L 681.636276 301.769019 
L 684.331353 301.943694 
L 685.229712 301.836993 
L 686.12807 301.118154 
L 687.026429 301.218014 
L 689.721505 300.729132 
L 690.619864 300.098829 
L 693.31494 300.527413 
L 696.010017 300.748476 
L 696.908376 300.518646 
L 697.806734 300.648481 
L 698.705093 300.239407 
L 700.501811 300.040552 
L 701.400169 300.194292 
L 702.298528 300.146231 
L 706.790322 300.817902 
L 708.58704 300.715737 
L 709.485398 300.435836 
L 710.383757 300.369204 
L 711.282116 300.186463 
L 712.180475 299.55902 
L 713.977192 299.578319 
L 717.570627 300.104895 
L 718.468986 299.978998 
L 721.164063 300.42632 
L 722.062421 299.767433 
L 722.96078 299.251515 
L 723.859139 299.169505 
L 728.350933 300.062131 
L 731.046009 300.497596 
L 732.842727 300.435182 
L 735.537803 300.732755 
L 740.029597 301.271744 
L 740.927956 300.509783 
L 743.623032 300.881402 
L 744.521391 300.859947 
L 746.318108 301.050496 
L 748.114826 300.862389 
L 749.013185 300.46584 
L 754.403337 301.167717 
L 755.301696 301.124745 
L 757.996772 301.362405 
L 758.895131 301.035169 
L 759.79349 300.556945 
L 761.590207 300.481004 
L 762.488566 300.187164 
L 764.285284 300.174802 
L 768.777078 300.84001 
L 770.573795 300.964748 
L 772.370513 300.867073 
L 774.16723 300.983698 
L 775.963948 301.191534 
L 776.862307 301.070494 
L 777.760665 301.103235 
L 778.659024 300.974649 
L 779.557383 300.51135 
L 781.3541 300.758264 
L 782.252459 300.593138 
L 784.049177 300.824816 
L 784.947536 300.394159 
L 785.845894 299.575581 
L 789.439329 300.232186 
L 790.337688 300.101133 
L 799.321276 301.266522 
L 802.016352 301.155788 
L 804.711429 301.342285 
L 805.609787 301.430938 
L 806.508146 300.933926 
L 807.406505 301.042997 
L 809.203222 300.987197 
L 810.101581 301.093605 
L 810.99994 300.902087 
L 811.898299 300.52193 
L 812.796658 300.594373 
L 813.695016 299.942325 
L 814.593375 300.100977 
L 816.390093 299.876596 
L 820.881887 300.603194 
L 821.780245 300.728802 
L 822.678604 300.146409 
L 823.576963 300.080314 
L 825.37368 300.37623 
L 826.272039 299.805635 
L 827.170398 299.767248 
L 829.865474 300.244771 
L 830.763833 300.273656 
L 831.662192 300.415741 
L 832.560551 300.224593 
L 834.357268 300.44886 
L 835.255627 300.314284 
L 836.153986 300.309726 
L 837.052344 299.988855 
L 837.950703 300.14518 
L 838.849062 300.177256 
L 842.442497 300.722254 
L 845.137573 300.770353 
L 846.035932 300.559374 
L 848.731009 300.844291 
L 849.629367 300.835805 
L 850.527726 300.949783 
L 851.426085 300.616986 
L 853.222802 300.691251 
L 854.121161 300.208698 
L 854.121161 300.208698 
" clip-path="url(#p1da479dc98)" style="fill: none; stroke: #ff0000; stroke-width: 5; stroke-linecap: square"/>
   </g>
   <g id="line2d_25">
    <path d="M 496.574369 301.240909 
L 497.472728 300.844934 
L 503.761239 301.529835 
L 509.151392 301.949851 
L 510.04975 301.546629 
L 511.846468 301.69958 
L 512.744827 301.556709 
L 515.439903 301.77901 
L 516.338262 300.971838 
L 522.626773 301.618456 
L 524.423491 301.684851 
L 531.610361 302.166328 
L 537.000514 302.417732 
L 537.898872 301.323892 
L 543.289025 301.570087 
L 544.187384 301.143947 
L 545.984101 301.336159 
L 546.88246 300.271041 
L 551.374254 300.914479 
L 552.272613 300.450279 
L 553.170972 300.258276 
L 554.06933 299.353466 
L 558.561124 300.204476 
L 559.459483 300.35002 
L 560.357842 299.926836 
L 562.154559 300.237716 
L 563.052918 300.257467 
L 568.443071 301.014544 
L 573.833223 301.571065 
L 574.731582 301.362824 
L 575.629941 300.656921 
L 581.020094 301.308179 
L 584.613529 301.643398 
L 586.410246 278.019037 
L 589.105323 248.357526 
L 590.90204 231.387026 
L 592.698758 218.664737 
L 593.597116 214.284774 
L 594.495475 208.743841 
L 595.393834 201.002934 
L 596.292193 195.997699 
L 598.08891 184.076654 
L 598.987269 180.107546 
L 599.885628 174.395128 
L 600.783987 167.184228 
L 601.682345 161.002247 
L 603.479063 153.373752 
L 604.377422 148.996922 
L 605.275781 146.285307 
L 606.174139 144.219471 
L 607.970857 136.259872 
L 608.869216 133.533787 
L 609.767574 130.031729 
L 610.665933 127.158084 
L 611.564292 125.2229 
L 615.157727 114.969043 
L 617.852803 107.157993 
L 618.751162 105.599991 
L 619.649521 101.611461 
L 620.54788 100.751769 
L 621.446238 100.046871 
L 622.344597 98.62213 
L 623.242956 98.637514 
L 624.141315 97.202853 
L 625.039674 97.259497 
L 626.836391 97.083587 
L 627.73475 95.98698 
L 628.633109 95.970301 
L 629.531467 94.048731 
L 630.429826 93.2259 
L 631.328185 93.172055 
L 632.226544 93.586345 
L 634.023261 93.961928 
L 634.92162 93.014556 
L 636.718338 89.982975 
L 637.616696 89.550368 
L 638.515055 89.265359 
L 639.413414 89.856036 
L 640.311773 89.689817 
L 641.210132 88.629881 
L 642.10849 88.124522 
L 643.006849 86.412563 
L 643.905208 86.342858 
L 644.803567 84.743748 
L 645.701925 83.775452 
L 647.498643 84.170265 
L 648.397002 84.908768 
L 649.295361 83.046755 
L 650.193719 85.036107 
L 651.092078 85.55487 
L 651.990437 84.317272 
L 652.888796 84.077445 
L 653.787154 85.446761 
L 654.685513 83.527076 
L 655.583872 83.117907 
L 656.482231 82.350368 
L 657.380589 81.433822 
L 658.278948 80.717158 
L 660.075666 81.41939 
L 661.872383 81.984858 
L 662.770742 81.955612 
L 663.669101 81.647489 
L 664.56746 82.813991 
L 665.465818 82.255016 
L 666.364177 80.541971 
L 667.262536 80.10746 
L 668.160895 80.289768 
L 669.059254 80.746327 
L 669.957612 81.744478 
L 671.75433 81.262101 
L 672.652689 81.30258 
L 673.551047 80.092876 
L 674.449406 79.33202 
L 676.246124 100.86578 
L 678.042841 120.585127 
L 679.839559 138.381838 
L 681.636276 154.44336 
L 683.432994 168.938884 
L 685.229712 182.02109 
L 687.026429 193.827791 
L 688.823147 204.483335 
L 689.721505 208.338423 
L 691.518223 217.579174 
L 693.31494 225.918958 
L 695.111658 233.445608 
L 696.908376 240.23841 
L 698.705093 246.368916 
L 700.501811 251.901692 
L 702.298528 256.895027 
L 704.095246 261.40151 
L 704.993605 263.487202 
L 708.58704 270.440161 
L 710.383757 273.625992 
L 711.282116 274.771762 
L 713.078834 277.535263 
L 715.77391 281.183624 
L 716.672269 281.521089 
L 719.367345 284.600972 
L 724.757498 289.431775 
L 727.452574 291.383395 
L 728.350933 291.969992 
L 729.249291 292.294061 
L 731.944368 293.837447 
L 734.639444 295.160708 
L 738.232879 296.636246 
L 741.826314 297.83808 
L 745.419749 298.816981 
L 746.318108 298.141145 
L 748.114826 298.626131 
L 749.911543 298.114667 
L 750.809902 298.164416 
L 754.403337 299.082784 
L 758.895131 299.995028 
L 759.79349 300.151044 
L 760.691849 299.34967 
L 765.183642 300.201539 
L 770.573795 300.973431 
L 772.370513 301.182269 
L 773.268871 300.210395 
L 777.760665 300.867551 
L 783.150818 301.436658 
L 784.049177 301.232765 
L 784.947536 300.678009 
L 790.337688 301.323681 
L 792.134406 301.498368 
L 793.931123 301.181295 
L 800.219635 301.764728 
L 803.81307 302.01526 
L 804.711429 301.135535 
L 805.609787 300.997813 
L 806.508146 300.004211 
L 809.203222 300.447938 
L 810.101581 299.916842 
L 810.99994 300.069146 
L 811.898299 299.861836 
L 812.796658 299.013973 
L 815.491734 299.52442 
L 819.983528 300.336757 
L 823.576963 300.852169 
L 824.475322 300.468694 
L 827.170398 300.846173 
L 828.068757 300.479491 
L 830.763833 300.855431 
L 831.662192 300.7634 
L 832.560551 300.880997 
L 833.458909 300.19011 
L 834.357268 298.321864 
L 835.255627 298.103149 
L 836.153986 298.353759 
L 837.052344 298.469527 
L 841.544138 299.520501 
L 846.035932 300.333725 
L 851.426085 301.070601 
L 853.222802 301.269964 
L 854.121161 301.065581 
L 854.121161 301.065581 
" clip-path="url(#p1da479dc98)" style="fill: none; stroke: #0000ff; stroke-width: 5; stroke-linecap: square"/>
   </g>
   <g id="patch_7">
    <path d="M 495.67601 322.75952 
L 495.67601 31.720156 
" style="fill: none; stroke: #000000; stroke-width: 5; stroke-linejoin: miter; stroke-linecap: square"/>
   </g>
   <g id="patch_8">
    <path d="M 495.67601 322.75952 
L 855.01952 322.75952 
" style="fill: none; stroke: #000000; stroke-width: 5; stroke-linejoin: miter; stroke-linecap: square"/>
   </g>
   <g id="patch_9">
    <path d="M 585.511887 316.938733 
L 675.347765 316.938733 
L 675.347765 306.752355 
L 585.511887 306.752355 
z
" style="fill: #8c5a2b; stroke: #8c5a2b; stroke-linejoin: miter"/>
   </g>
   <g id="text_21">
    <!-- Novel | Expert -->
    <g transform="translate(607.949718 21.720156) scale(0.19 -0.19)">
     <defs>
      <path id="DejaVuSans-45" d="M 628 4666 
L 3578 4666 
L 3578 4134 
L 1259 4134 
L 1259 2753 
L 3481 2753 
L 3481 2222 
L 1259 2222 
L 1259 531 
L 3634 531 
L 3634 0 
L 628 0 
L 628 4666 
z
" transform="scale(0.015625)"/>
      <path id="DejaVuSans-78" d="M 3513 3500 
L 2247 1797 
L 3578 0 
L 2900 0 
L 1881 1375 
L 863 0 
L 184 0 
L 1544 1831 
L 300 3500 
L 978 3500 
L 1906 2253 
L 2834 3500 
L 3513 3500 
z
" transform="scale(0.015625)"/>
      <path id="DejaVuSans-70" d="M 1159 525 
L 1159 -1331 
L 581 -1331 
L 581 3500 
L 1159 3500 
L 1159 2969 
Q 1341 3281 1617 3432 
Q 1894 3584 2278 3584 
Q 2916 3584 3314 3078 
Q 3713 2572 3713 1747 
Q 3713 922 3314 415 
Q 2916 -91 2278 -91 
Q 1894 -91 1617 61 
Q 1341 213 1159 525 
z
M 3116 1747 
Q 3116 2381 2855 2742 
Q 2594 3103 2138 3103 
Q 1681 3103 1420 2742 
Q 1159 2381 1159 1747 
Q 1159 1113 1420 752 
Q 1681 391 2138 391 
Q 2594 391 2855 752 
Q 3116 1113 3116 1747 
z
" transform="scale(0.015625)"/>
     </defs>
     <use xlink:href="#DejaVuSans-4e"/>
     <use xlink:href="#DejaVuSans-6f" transform="translate(74.804688 0)"/>
     <use xlink:href="#DejaVuSans-76" transform="translate(135.986328 0)"/>
     <use xlink:href="#DejaVuSans-65" transform="translate(195.166016 0)"/>
     <use xlink:href="#DejaVuSans-6c" transform="translate(256.689453 0)"/>
     <use xlink:href="#DejaVuSans-20" transform="translate(284.472656 0)"/>
     <use xlink:href="#DejaVuSans-7c" transform="translate(316.259766 0)"/>
     <use xlink:href="#DejaVuSans-20" transform="translate(349.951172 0)"/>
     <use xlink:href="#DejaVuSans-45" transform="translate(381.738281 0)"/>
     <use xlink:href="#DejaVuSans-78" transform="translate(444.921875 0)"/>
     <use xlink:href="#DejaVuSans-70" transform="translate(504.101562 0)"/>
     <use xlink:href="#DejaVuSans-65" transform="translate(567.578125 0)"/>
     <use xlink:href="#DejaVuSans-72" transform="translate(629.101562 0)"/>
     <use xlink:href="#DejaVuSans-74" transform="translate(670.214844 0)"/>
    </g>
   </g>
  </g>
 </g>
 <defs>
  <clipPath id="pee4bca9d37">
   <rect x="101.56" y="31.720156" width="359.34351" height="291.039364"/>
  </clipPath>
  <clipPath id="p1da479dc98">
   <rect x="495.67601" y="31.720156" width="359.34351" height="291.039364"/>
  </clipPath>
 </defs>
</svg>
