<?xml version="1.0" encoding="utf-8" standalone="no"?>
<!DOCTYPE svg PUBLIC "-//W3C//DTD SVG 1.1//EN"
  "http://www.w3.org/Graphics/SVG/1.1/DTD/svg11.dtd">
<svg xmlns:xlink="http://www.w3.org/1999/xlink" width="872.39952pt" height="404.39952pt" viewBox="0 0 872.39952 404.39952" xmlns="http://www.w3.org/2000/svg" version="1.1">
 <metadata>
  <rdf:RDF xmlns:dc="http://purl.org/dc/elements/1.1/" xmlns:cc="http://creativecommons.org/ns#" xmlns:rdf="http://www.w3.org/1999/02/22-rdf-syntax-ns#">
   <cc:Work>
    <dc:type rdf:resource="http://purl.org/dc/dcmitype/StillImage"/>
    <dc:date>2026-03-25T11:55:47.086922</dc:date>
    <dc:format>image/svg+xml</dc:format>
    <dc:creator>
     <cc:Agent>
      <dc:title>Matplotlib v3.10.7, https://matplotlib.org/</dc:title>
     </cc:Agent>
    </dc:creator>
   </cc:Work>
  </rdf:RDF>
 </metadata>
 <defs>
  <style type="text/css">*{stroke-linejoin: round; stroke-linecap: butt}</style>
 </defs>
 <g id="figure_1">
  <g id="patch_1">
   <path d="M 0 404.39952 
L 872.39952 404.39952 
L 872.39952 0 
L 0 0 
z
" style="fill: #ffffff"/>
  </g>
  <g id="axes_1">
   <g id="patch_2">
    <path d="M 121.92 322.75952 
L 471.08351 322.75952 
L 471.08351 31.720156 
L 121.92 31.720156 
z
" style="fill: #ffffff"/>
   </g>
   <g id="matplotlib.axis_1">
    <g id="xtick_1">
     <g id="line2d_1">
      <defs>
       <path id="m68d3d996dc" d="M 0 0 
L 0 5 
" style="stroke: #000000; stroke-width: 1.6"/>
      </defs>
      <g>
       <use xlink:href="#m68d3d996dc" x="121.92" y="322.75952" style="stroke: #000000; stroke-width: 1.6"/>
      </g>
     </g>
     <g id="text_1">
      <!-- -1 -->
      <g transform="translate(105.9675 355.57452) scale(0.32 -0.32)">
       <defs>
        <path id="DejaVuSans-2d" d="M 313 2009 
L 1997 2009 
L 1997 1497 
L 313 1497 
L 313 2009 
z
" transform="scale(0.015625)"/>
        <path id="DejaVuSans-31" d="M 794 531 
L 1825 531 
L 1825 4091 
L 703 3866 
L 703 4441 
L 1819 4666 
L 2450 4666 
L 2450 531 
L 3481 531 
L 3481 0 
L 794 0 
L 794 531 
z
" transform="scale(0.015625)"/>
       </defs>
       <use xlink:href="#DejaVuSans-2d"/>
       <use xlink:href="#DejaVuSans-31" transform="translate(36.083984 0)"/>
      </g>
     </g>
    </g>
    <g id="xtick_2">
     <g id="line2d_2">
      <g>
       <use xlink:href="#m68d3d996dc" x="209.210878" y="322.75952" style="stroke: #000000; stroke-width: 1.6"/>
      </g>
     </g>
     <g id="text_2">
      <!-- 0 -->
      <g transform="translate(199.030878 355.57452) scale(0.32 -0.32)">
       <defs>
        <path id="DejaVuSans-30" d="M 2034 4250 
Q 1547 4250 1301 3770 
Q 1056 3291 1056 2328 
Q 1056 1369 1301 889 
Q 1547 409 2034 409 
Q 2525 409 2770 889 
Q 3016 1369 3016 2328 
Q 3016 3291 2770 3770 
Q 2525 4250 2034 4250 
z
M 2034 4750 
Q 2819 4750 3233 4129 
Q 3647 3509 3647 2328 
Q 3647 1150 3233 529 
Q 2819 -91 2034 -91 
Q 1250 -91 836 529 
Q 422 1150 422 2328 
Q 422 3509 836 4129 
Q 1250 4750 2034 4750 
z
" transform="scale(0.015625)"/>
       </defs>
       <use xlink:href="#DejaVuSans-30"/>
      </g>
     </g>
    </g>
    <g id="xtick_3">
     <g id="line2d_3">
      <g>
       <use xlink:href="#m68d3d996dc" x="296.501755" y="322.75952" style="stroke: #000000; stroke-width: 1.6"/>
      </g>
     </g>
     <g id="text_3">
      <!-- 1 -->
      <g transform="translate(286.321755 355.57452) scale(0.32 -0.32)">
       <use xlink:href="#DejaVuSans-31"/>
      </g>
     </g>
    </g>
    <g id="xtick_4">
     <g id="line2d_4">
      <g>
       <use xlink:href="#m68d3d996dc" x="383.792633" y="322.75952" style="stroke: #000000; stroke-width: 1.6"/>
      </g>
     </g>
     <g id="text_4">
      <!-- 2 -->
      <g transform="translate(373.612633 355.57452) scale(0.32 -0.32)">
       <defs>
        <path id="DejaVuSans-32" d="M 1228 531 
L 3431 531 
L 3431 0 
L 469 0 
L 469 531 
Q 828 903 1448 1529 
Q 2069 2156 2228 2338 
Q 2531 2678 2651 2914 
Q 2772 3150 2772 3378 
Q 2772 3750 2511 3984 
Q 2250 4219 1831 4219 
Q 1534 4219 1204 4116 
Q 875 4013 500 3803 
L 500 4441 
Q 881 4594 1212 4672 
Q 1544 4750 1819 4750 
Q 2544 4750 2975 4387 
Q 3406 4025 3406 3419 
Q 3406 3131 3298 2873 
Q 3191 2616 2906 2266 
Q 2828 2175 2409 1742 
Q 1991 1309 1228 531 
z
" transform="scale(0.015625)"/>
       </defs>
       <use xlink:href="#DejaVuSans-32"/>
      </g>
     </g>
    </g>
    <g id="xtick_5">
     <g id="line2d_5">
      <g>
       <use xlink:href="#m68d3d996dc" x="471.08351" y="322.75952" style="stroke: #000000; stroke-width: 1.6"/>
      </g>
     </g>
     <g id="text_5">
      <!-- 3 -->
      <g transform="translate(460.90351 355.57452) scale(0.32 -0.32)">
       <defs>
        <path id="DejaVuSans-33" d="M 2597 2516 
Q 3050 2419 3304 2112 
Q 3559 1806 3559 1356 
Q 3559 666 3084 287 
Q 2609 -91 1734 -91 
Q 1441 -91 1130 -33 
Q 819 25 488 141 
L 488 750 
Q 750 597 1062 519 
Q 1375 441 1716 441 
Q 2309 441 2620 675 
Q 2931 909 2931 1356 
Q 2931 1769 2642 2001 
Q 2353 2234 1838 2234 
L 1294 2234 
L 1294 2753 
L 1863 2753 
Q 2328 2753 2575 2939 
Q 2822 3125 2822 3475 
Q 2822 3834 2567 4026 
Q 2313 4219 1838 4219 
Q 1578 4219 1281 4162 
Q 984 4106 628 3988 
L 628 4550 
Q 988 4650 1302 4700 
Q 1616 4750 1894 4750 
Q 2613 4750 3031 4423 
Q 3450 4097 3450 3541 
Q 3450 3153 3228 2886 
Q 3006 2619 2597 2516 
z
" transform="scale(0.015625)"/>
       </defs>
       <use xlink:href="#DejaVuSans-33"/>
      </g>
     </g>
    </g>
    <g id="text_6">
     <!-- Time (s) -->
     <g transform="translate(231.449255 390.54452) scale(0.32 -0.32)">
      <defs>
       <path id="DejaVuSans-54" d="M -19 4666 
L 3928 4666 
L 3928 4134 
L 2272 4134 
L 2272 0 
L 1638 0 
L 1638 4134 
L -19 4134 
L -19 4666 
z
" transform="scale(0.015625)"/>
       <path id="DejaVuSans-69" d="M 603 3500 
L 1178 3500 
L 1178 0 
L 603 0 
L 603 3500 
z
M 603 4863 
L 1178 4863 
L 1178 4134 
L 603 4134 
L 603 4863 
z
" transform="scale(0.015625)"/>
       <path id="DejaVuSans-6d" d="M 3328 2828 
Q 3544 3216 3844 3400 
Q 4144 3584 4550 3584 
Q 5097 3584 5394 3201 
Q 5691 2819 5691 2113 
L 5691 0 
L 5113 0 
L 5113 2094 
Q 5113 2597 4934 2840 
Q 4756 3084 4391 3084 
Q 3944 3084 3684 2787 
Q 3425 2491 3425 1978 
L 3425 0 
L 2847 0 
L 2847 2094 
Q 2847 2600 2669 2842 
Q 2491 3084 2119 3084 
Q 1678 3084 1418 2786 
Q 1159 2488 1159 1978 
L 1159 0 
L 581 0 
L 581 3500 
L 1159 3500 
L 1159 2956 
Q 1356 3278 1631 3431 
Q 1906 3584 2284 3584 
Q 2666 3584 2933 3390 
Q 3200 3197 3328 2828 
z
" transform="scale(0.015625)"/>
       <path id="DejaVuSans-65" d="M 3597 1894 
L 3597 1613 
L 953 1613 
Q 991 1019 1311 708 
Q 1631 397 2203 397 
Q 2534 397 2845 478 
Q 3156 559 3463 722 
L 3463 178 
Q 3153 47 2828 -22 
Q 2503 -91 2169 -91 
Q 1331 -91 842 396 
Q 353 884 353 1716 
Q 353 2575 817 3079 
Q 1281 3584 2069 3584 
Q 2775 3584 3186 3129 
Q 3597 2675 3597 1894 
z
M 3022 2063 
Q 3016 2534 2758 2815 
Q 2500 3097 2075 3097 
Q 1594 3097 1305 2825 
Q 1016 2553 972 2059 
L 3022 2063 
z
" transform="scale(0.015625)"/>
       <path id="DejaVuSans-20" transform="scale(0.015625)"/>
       <path id="DejaVuSans-28" d="M 1984 4856 
Q 1566 4138 1362 3434 
Q 1159 2731 1159 2009 
Q 1159 1288 1364 580 
Q 1569 -128 1984 -844 
L 1484 -844 
Q 1016 -109 783 600 
Q 550 1309 550 2009 
Q 550 2706 781 3412 
Q 1013 4119 1484 4856 
L 1984 4856 
z
" transform="scale(0.015625)"/>
       <path id="DejaVuSans-73" d="M 2834 3397 
L 2834 2853 
Q 2591 2978 2328 3040 
Q 2066 3103 1784 3103 
Q 1356 3103 1142 2972 
Q 928 2841 928 2578 
Q 928 2378 1081 2264 
Q 1234 2150 1697 2047 
L 1894 2003 
Q 2506 1872 2764 1633 
Q 3022 1394 3022 966 
Q 3022 478 2636 193 
Q 2250 -91 1575 -91 
Q 1294 -91 989 -36 
Q 684 19 347 128 
L 347 722 
Q 666 556 975 473 
Q 1284 391 1588 391 
Q 1994 391 2212 530 
Q 2431 669 2431 922 
Q 2431 1156 2273 1281 
Q 2116 1406 1581 1522 
L 1381 1569 
Q 847 1681 609 1914 
Q 372 2147 372 2553 
Q 372 3047 722 3315 
Q 1072 3584 1716 3584 
Q 2034 3584 2315 3537 
Q 2597 3491 2834 3397 
z
" transform="scale(0.015625)"/>
       <path id="DejaVuSans-29" d="M 513 4856 
L 1013 4856 
Q 1481 4119 1714 3412 
Q 1947 2706 1947 2009 
Q 1947 1309 1714 600 
Q 1481 -109 1013 -844 
L 513 -844 
Q 928 -128 1133 580 
Q 1338 1288 1338 2009 
Q 1338 2731 1133 3434 
Q 928 4138 513 4856 
z
" transform="scale(0.015625)"/>
      </defs>
      <use xlink:href="#DejaVuSans-54"/>
      <use xlink:href="#DejaVuSans-69" transform="translate(57.958984 0)"/>
      <use xlink:href="#DejaVuSans-6d" transform="translate(85.742188 0)"/>
      <use xlink:href="#DejaVuSans-65" transform="translate(183.154297 0)"/>
      <use xlink:href="#DejaVuSans-20" transform="translate(244.677734 0)"/>
      <use xlink:href="#DejaVuSans-28" transform="translate(276.464844 0)"/>
      <use xlink:href="#DejaVuSans-73" transform="translate(315.478516 0)"/>
      <use xlink:href="#DejaVuSans-29" transform="translate(367.578125 0)"/>
     </g>
    </g>
   </g>
   <g id="matplotlib.axis_2">
    <g id="ytick_1">
     <g id="line2d_6">
      <defs>
       <path id="m4bd9c1a177" d="M 0 0 
L -5 0 
" style="stroke: #000000; stroke-width: 1.6"/>
      </defs>
      <g>
       <use xlink:href="#m4bd9c1a177" x="121.92" y="303.046829" style="stroke: #000000; stroke-width: 1.6"/>
      </g>
     </g>
     <g id="text_7">
      <!-- 0.00 -->
      <g transform="translate(42.17 315.204329) scale(0.32 -0.32)">
       <defs>
        <path id="DejaVuSans-2e" d="M 684 794 
L 1344 794 
L 1344 0 
L 684 0 
L 684 794 
z
" transform="scale(0.015625)"/>
       </defs>
       <use xlink:href="#DejaVuSans-30"/>
       <use xlink:href="#DejaVuSans-2e" transform="translate(63.623047 0)"/>
       <use xlink:href="#DejaVuSans-30" transform="translate(95.410156 0)"/>
       <use xlink:href="#DejaVuSans-30" transform="translate(159.033203 0)"/>
      </g>
     </g>
    </g>
    <g id="ytick_2">
     <g id="line2d_7">
      <g>
       <use xlink:href="#m4bd9c1a177" x="121.92" y="227.129996" style="stroke: #000000; stroke-width: 1.6"/>
      </g>
     </g>
     <g id="text_8">
      <!-- 0.25 -->
      <g transform="translate(42.17 239.287496) scale(0.32 -0.32)">
       <defs>
        <path id="DejaVuSans-35" d="M 691 4666 
L 3169 4666 
L 3169 4134 
L 1269 4134 
L 1269 2991 
Q 1406 3038 1543 3061 
Q 1681 3084 1819 3084 
Q 2600 3084 3056 2656 
Q 3513 2228 3513 1497 
Q 3513 744 3044 326 
Q 2575 -91 1722 -91 
Q 1428 -91 1123 -41 
Q 819 9 494 109 
L 494 744 
Q 775 591 1075 516 
Q 1375 441 1709 441 
Q 2250 441 2565 725 
Q 2881 1009 2881 1497 
Q 2881 1984 2565 2268 
Q 2250 2553 1709 2553 
Q 1456 2553 1204 2497 
Q 953 2441 691 2322 
L 691 4666 
z
" transform="scale(0.015625)"/>
       </defs>
       <use xlink:href="#DejaVuSans-30"/>
       <use xlink:href="#DejaVuSans-2e" transform="translate(63.623047 0)"/>
       <use xlink:href="#DejaVuSans-32" transform="translate(95.410156 0)"/>
       <use xlink:href="#DejaVuSans-35" transform="translate(159.033203 0)"/>
      </g>
     </g>
    </g>
    <g id="ytick_3">
     <g id="line2d_8">
      <g>
       <use xlink:href="#m4bd9c1a177" x="121.92" y="151.213163" style="stroke: #000000; stroke-width: 1.6"/>
      </g>
     </g>
     <g id="text_9">
      <!-- 0.50 -->
      <g transform="translate(42.17 163.370663) scale(0.32 -0.32)">
       <use xlink:href="#DejaVuSans-30"/>
       <use xlink:href="#DejaVuSans-2e" transform="translate(63.623047 0)"/>
       <use xlink:href="#DejaVuSans-35" transform="translate(95.410156 0)"/>
       <use xlink:href="#DejaVuSans-30" transform="translate(159.033203 0)"/>
      </g>
     </g>
    </g>
    <g id="ytick_4">
     <g id="line2d_9">
      <g>
       <use xlink:href="#m4bd9c1a177" x="121.92" y="75.29633" style="stroke: #000000; stroke-width: 1.6"/>
      </g>
     </g>
     <g id="text_10">
      <!-- 0.75 -->
      <g transform="translate(42.17 87.45383) scale(0.32 -0.32)">
       <defs>
        <path id="DejaVuSans-37" d="M 525 4666 
L 3525 4666 
L 3525 4397 
L 1831 0 
L 1172 0 
L 2766 4134 
L 525 4134 
L 525 4666 
z
" transform="scale(0.015625)"/>
       </defs>
       <use xlink:href="#DejaVuSans-30"/>
       <use xlink:href="#DejaVuSans-2e" transform="translate(63.623047 0)"/>
       <use xlink:href="#DejaVuSans-37" transform="translate(95.410156 0)"/>
       <use xlink:href="#DejaVuSans-35" transform="translate(159.033203 0)"/>
      </g>
     </g>
    </g>
    <g id="text_11">
     <!-- Neural Activity -->
     <g transform="translate(31.515 294.944838) rotate(-90) scale(0.32 -0.32)">
      <defs>
       <path id="DejaVuSans-4e" d="M 628 4666 
L 1478 4666 
L 3547 763 
L 3547 4666 
L 4159 4666 
L 4159 0 
L 3309 0 
L 1241 3903 
L 1241 0 
L 628 0 
L 628 4666 
z
" transform="scale(0.015625)"/>
       <path id="DejaVuSans-75" d="M 544 1381 
L 544 3500 
L 1119 3500 
L 1119 1403 
Q 1119 906 1312 657 
Q 1506 409 1894 409 
Q 2359 409 2629 706 
Q 2900 1003 2900 1516 
L 2900 3500 
L 3475 3500 
L 3475 0 
L 2900 0 
L 2900 538 
Q 2691 219 2414 64 
Q 2138 -91 1772 -91 
Q 1169 -91 856 284 
Q 544 659 544 1381 
z
M 1991 3584 
L 1991 3584 
z
" transform="scale(0.015625)"/>
       <path id="DejaVuSans-72" d="M 2631 2963 
Q 2534 3019 2420 3045 
Q 2306 3072 2169 3072 
Q 1681 3072 1420 2755 
Q 1159 2438 1159 1844 
L 1159 0 
L 581 0 
L 581 3500 
L 1159 3500 
L 1159 2956 
Q 1341 3275 1631 3429 
Q 1922 3584 2338 3584 
Q 2397 3584 2469 3576 
Q 2541 3569 2628 3553 
L 2631 2963 
z
" transform="scale(0.015625)"/>
       <path id="DejaVuSans-61" d="M 2194 1759 
Q 1497 1759 1228 1600 
Q 959 1441 959 1056 
Q 959 750 1161 570 
Q 1363 391 1709 391 
Q 2188 391 2477 730 
Q 2766 1069 2766 1631 
L 2766 1759 
L 2194 1759 
z
M 3341 1997 
L 3341 0 
L 2766 0 
L 2766 531 
Q 2569 213 2275 61 
Q 1981 -91 1556 -91 
Q 1019 -91 701 211 
Q 384 513 384 1019 
Q 384 1609 779 1909 
Q 1175 2209 1959 2209 
L 2766 2209 
L 2766 2266 
Q 2766 2663 2505 2880 
Q 2244 3097 1772 3097 
Q 1472 3097 1187 3025 
Q 903 2953 641 2809 
L 641 3341 
Q 956 3463 1253 3523 
Q 1550 3584 1831 3584 
Q 2591 3584 2966 3190 
Q 3341 2797 3341 1997 
z
" transform="scale(0.015625)"/>
       <path id="DejaVuSans-6c" d="M 603 4863 
L 1178 4863 
L 1178 0 
L 603 0 
L 603 4863 
z
" transform="scale(0.015625)"/>
       <path id="DejaVuSans-41" d="M 2188 4044 
L 1331 1722 
L 3047 1722 
L 2188 4044 
z
M 1831 4666 
L 2547 4666 
L 4325 0 
L 3669 0 
L 3244 1197 
L 1141 1197 
L 716 0 
L 50 0 
L 1831 4666 
z
" transform="scale(0.015625)"/>
       <path id="DejaVuSans-63" d="M 3122 3366 
L 3122 2828 
Q 2878 2963 2633 3030 
Q 2388 3097 2138 3097 
Q 1578 3097 1268 2742 
Q 959 2388 959 1747 
Q 959 1106 1268 751 
Q 1578 397 2138 397 
Q 2388 397 2633 464 
Q 2878 531 3122 666 
L 3122 134 
Q 2881 22 2623 -34 
Q 2366 -91 2075 -91 
Q 1284 -91 818 406 
Q 353 903 353 1747 
Q 353 2603 823 3093 
Q 1294 3584 2113 3584 
Q 2378 3584 2631 3529 
Q 2884 3475 3122 3366 
z
" transform="scale(0.015625)"/>
       <path id="DejaVuSans-74" d="M 1172 4494 
L 1172 3500 
L 2356 3500 
L 2356 3053 
L 1172 3053 
L 1172 1153 
Q 1172 725 1289 603 
Q 1406 481 1766 481 
L 2356 481 
L 2356 0 
L 1766 0 
Q 1100 0 847 248 
Q 594 497 594 1153 
L 594 3053 
L 172 3053 
L 172 3500 
L 594 3500 
L 594 4494 
L 1172 4494 
z
" transform="scale(0.015625)"/>
       <path id="DejaVuSans-76" d="M 191 3500 
L 800 3500 
L 1894 563 
L 2988 3500 
L 3597 3500 
L 2284 0 
L 1503 0 
L 191 3500 
z
" transform="scale(0.015625)"/>
       <path id="DejaVuSans-79" d="M 2059 -325 
Q 1816 -950 1584 -1140 
Q 1353 -1331 966 -1331 
L 506 -1331 
L 506 -850 
L 844 -850 
Q 1081 -850 1212 -737 
Q 1344 -625 1503 -206 
L 1606 56 
L 191 3500 
L 800 3500 
L 1894 763 
L 2988 3500 
L 3597 3500 
L 2059 -325 
z
" transform="scale(0.015625)"/>
      </defs>
      <use xlink:href="#DejaVuSans-4e"/>
      <use xlink:href="#DejaVuSans-65" transform="translate(74.804688 0)"/>
      <use xlink:href="#DejaVuSans-75" transform="translate(136.328125 0)"/>
      <use xlink:href="#DejaVuSans-72" transform="translate(199.707031 0)"/>
      <use xlink:href="#DejaVuSans-61" transform="translate(240.820312 0)"/>
      <use xlink:href="#DejaVuSans-6c" transform="translate(302.099609 0)"/>
      <use xlink:href="#DejaVuSans-20" transform="translate(329.882812 0)"/>
      <use xlink:href="#DejaVuSans-41" transform="translate(361.669922 0)"/>
      <use xlink:href="#DejaVuSans-63" transform="translate(428.328125 0)"/>
      <use xlink:href="#DejaVuSans-74" transform="translate(483.308594 0)"/>
      <use xlink:href="#DejaVuSans-69" transform="translate(522.517578 0)"/>
      <use xlink:href="#DejaVuSans-76" transform="translate(550.300781 0)"/>
      <use xlink:href="#DejaVuSans-69" transform="translate(609.480469 0)"/>
      <use xlink:href="#DejaVuSans-74" transform="translate(637.263672 0)"/>
      <use xlink:href="#DejaVuSans-79" transform="translate(676.472656 0)"/>
     </g>
    </g>
   </g>
   <g id="line2d_10">
    <path d="M 122.792909 298.078012 
L 123.665818 297.491744 
L 125.411635 298.033365 
L 126.284544 298.018751 
L 128.030361 298.407594 
L 129.776179 298.777644 
L 130.649088 298.831865 
L 131.521997 299.042613 
L 132.394905 298.928241 
L 133.267814 298.536704 
L 134.140723 298.76221 
L 135.013632 298.486567 
L 135.88654 298.357046 
L 137.632358 298.8143 
L 138.505267 298.75351 
L 139.378176 297.945041 
L 141.123993 298.437769 
L 141.996902 298.41319 
L 146.361446 299.461407 
L 148.107263 299.810986 
L 148.980172 299.471706 
L 150.72599 299.711427 
L 152.471807 299.937895 
L 157.70926 300.761477 
L 161.200895 301.185395 
L 162.073804 300.743945 
L 162.946712 300.131869 
L 163.819621 299.3529 
L 164.69253 299.537597 
L 166.438348 299.77377 
L 167.311256 299.031161 
L 170.802891 299.746878 
L 173.421618 300.217534 
L 174.294527 300.172619 
L 176.040344 300.452854 
L 177.786162 299.494229 
L 178.65907 299.141377 
L 179.531979 299.133617 
L 180.404888 299.329278 
L 181.277797 299.146072 
L 182.150705 299.34111 
L 183.023614 299.315414 
L 183.896523 299.475529 
L 184.769432 298.690154 
L 185.642341 298.907988 
L 186.515249 298.930909 
L 187.388158 297.858792 
L 191.752702 298.987088 
L 192.625611 298.944029 
L 193.49852 298.416528 
L 197.863063 299.46399 
L 198.735972 298.899428 
L 199.608881 298.488453 
L 200.48179 298.366254 
L 204.846334 299.42509 
L 205.719242 299.444764 
L 208.337969 299.958509 
L 210.083786 276.355118 
L 212.702513 247.126749 
L 214.44833 230.061854 
L 215.321239 223.204598 
L 218.812874 199.966256 
L 219.685783 195.853116 
L 221.4316 185.778367 
L 222.304509 182.315116 
L 223.177418 178.049285 
L 224.050327 172.079412 
L 224.923235 167.909773 
L 227.541962 159.795759 
L 229.287779 155.699841 
L 230.160688 151.955271 
L 231.906506 146.026106 
L 233.652323 141.23781 
L 236.27105 135.406484 
L 237.143958 133.944277 
L 238.016867 131.83742 
L 241.508502 126.019398 
L 242.381411 123.521184 
L 244.127229 121.792346 
L 245.000137 119.915233 
L 245.873046 119.429411 
L 246.745955 118.054555 
L 248.491772 118.575309 
L 249.364681 119.020152 
L 250.23759 119.036515 
L 251.110499 119.688476 
L 251.983407 118.728127 
L 252.856316 118.504339 
L 254.602134 118.335973 
L 255.475043 118.528141 
L 256.347951 118.236821 
L 257.22086 117.289523 
L 258.093769 116.112861 
L 258.966678 115.347268 
L 259.839586 114.889157 
L 260.712495 114.920923 
L 261.585404 115.439777 
L 262.458313 115.050862 
L 263.331222 114.500261 
L 265.077039 114.185213 
L 265.949948 114.58267 
L 266.822857 114.246318 
L 267.695765 112.826175 
L 268.568674 112.003133 
L 269.441583 111.716194 
L 270.314492 111.892053 
L 271.187401 110.353211 
L 272.060309 111.099256 
L 274.679036 109.199807 
L 275.551944 110.044407 
L 276.424853 108.615866 
L 277.297762 107.985136 
L 278.170671 107.501269 
L 279.04358 107.612584 
L 279.916488 106.892367 
L 280.789397 107.675463 
L 281.662306 107.858399 
L 282.535215 108.408965 
L 283.408123 108.808739 
L 284.281032 108.526759 
L 285.153941 107.82591 
L 286.02685 107.63767 
L 286.899758 106.513281 
L 287.772667 105.864415 
L 288.645576 106.149526 
L 290.391394 107.432941 
L 291.264302 108.603721 
L 292.137211 108.539393 
L 293.01012 108.149683 
L 293.883029 108.328619 
L 294.755937 108.070079 
L 295.628846 107.068715 
L 297.374664 126.176596 
L 299.120481 143.421446 
L 300.866299 158.984925 
L 302.612116 173.030965 
L 304.357934 185.707514 
L 306.103752 197.148097 
L 309.595387 216.521478 
L 311.341204 224.133408 
L 313.087022 231.827471 
L 314.832839 238.771358 
L 316.578657 245.038219 
L 318.324474 250.694061 
L 320.070292 255.798456 
L 320.943201 257.737371 
L 321.816109 259.307201 
L 322.689018 261.494181 
L 324.434836 264.719747 
L 326.180653 268.456638 
L 327.053562 270.186148 
L 329.672288 274.636369 
L 330.545197 275.524259 
L 332.291015 278.064544 
L 333.163924 278.607512 
L 335.78265 281.997299 
L 336.655559 282.051561 
L 337.528467 282.38506 
L 339.274285 284.399582 
L 343.638829 288.558421 
L 346.257555 290.624831 
L 347.130464 291.24593 
L 348.003373 291.151547 
L 352.367917 293.742816 
L 354.986643 295.069801 
L 357.605369 296.207525 
L 358.478278 296.423726 
L 359.351187 296.346946 
L 361.969913 297.302518 
L 362.842822 297.295164 
L 363.715731 297.582747 
L 364.588639 297.455749 
L 365.461548 297.451105 
L 368.080275 298.249195 
L 368.953183 297.795793 
L 369.826092 297.938024 
L 373.317727 298.885676 
L 377.682271 299.827008 
L 378.55518 299.988 
L 379.428089 299.078579 
L 383.792633 299.976273 
L 384.665541 299.533833 
L 385.53845 299.709483 
L 386.411359 299.489212 
L 388.157176 299.83608 
L 389.030085 299.803166 
L 390.775903 299.305409 
L 391.648811 297.603275 
L 395.140447 298.613021 
L 396.013355 298.834711 
L 397.759173 297.824388 
L 398.632082 298.08551 
L 399.50499 297.92488 
L 401.250808 298.42427 
L 402.123717 297.39924 
L 402.996626 296.740187 
L 406.488261 297.91003 
L 407.361169 297.509378 
L 408.234078 297.786251 
L 409.106987 296.926932 
L 409.979896 297.046082 
L 410.852805 296.76519 
L 411.725713 296.856356 
L 415.217348 297.99582 
L 417.836075 298.716221 
L 418.708984 298.759486 
L 419.581892 298.973853 
L 420.454801 299.038456 
L 421.32771 299.238875 
L 422.200619 298.877199 
L 423.073527 298.938931 
L 423.946436 298.015105 
L 424.819345 298.266691 
L 425.692254 298.234731 
L 426.565162 298.467066 
L 427.438071 297.844623 
L 429.183889 297.500953 
L 430.056798 296.935402 
L 430.929706 297.240974 
L 431.802615 297.372835 
L 432.675524 297.656535 
L 433.548433 297.801403 
L 434.421341 297.474159 
L 435.29425 297.752792 
L 436.167159 297.337415 
L 437.040068 297.622886 
L 437.912977 297.744277 
L 439.658794 298.261276 
L 440.531703 298.350832 
L 444.023338 299.22191 
L 444.896247 298.640754 
L 447.514973 299.26917 
L 448.387882 298.759493 
L 449.260791 298.623857 
L 450.133699 298.140469 
L 451.006608 297.166044 
L 452.752426 297.739421 
L 453.625335 296.742257 
L 457.11697 297.911716 
L 459.735696 298.569723 
L 461.481513 299.006241 
L 462.354422 298.682369 
L 464.10024 299.107904 
L 464.973149 298.876668 
L 465.846057 299.017356 
L 466.718966 298.868015 
L 469.337692 299.455089 
L 470.210601 298.424975 
L 470.210601 298.424975 
" clip-path="url(#pf2eceda849)" style="fill: none; stroke: #000000; stroke-width: 5; stroke-linecap: square"/>
   </g>
   <g id="line2d_11">
    <path d="M 122.792909 300.347841 
L 123.665818 299.533263 
L 126.284544 298.965706 
L 127.157453 299.150466 
L 128.030361 299.082305 
L 128.90327 299.155714 
L 129.776179 299.037295 
L 131.521997 298.105046 
L 132.394905 298.095002 
L 134.140723 298.577805 
L 135.88654 298.610631 
L 136.759449 298.832441 
L 138.505267 298.793057 
L 139.378176 298.95064 
L 140.251084 298.969052 
L 142.869811 299.486992 
L 143.742719 299.364463 
L 146.361446 299.859245 
L 147.234354 299.630337 
L 149.853081 300.034017 
L 150.72599 300.184658 
L 151.598898 299.978152 
L 152.471807 299.928732 
L 153.344716 299.642261 
L 154.217625 299.667183 
L 155.090533 299.246238 
L 156.836351 299.507499 
L 159.455077 300.012296 
L 160.327986 299.812773 
L 161.200895 299.974476 
L 162.073804 299.690985 
L 166.438348 300.450141 
L 168.184165 300.622267 
L 170.802891 300.8397 
L 172.548709 301.054896 
L 174.294527 300.697511 
L 176.040344 300.19956 
L 176.913253 300.205431 
L 178.65907 300.413371 
L 180.404888 300.066492 
L 182.150705 300.277144 
L 183.023614 300.397878 
L 183.896523 300.070399 
L 184.769432 299.886923 
L 187.388158 300.275219 
L 189.133976 300.439848 
L 190.879793 300.113431 
L 191.752702 300.260101 
L 192.625611 300.126749 
L 193.49852 300.106295 
L 194.371428 300.253322 
L 197.863063 300.42803 
L 198.735972 300.55897 
L 199.608881 300.115506 
L 200.48179 299.516308 
L 201.354699 299.577512 
L 205.719242 300.362338 
L 208.337969 300.742122 
L 210.956695 294.571276 
L 212.702513 291.102401 
L 216.194148 286.170583 
L 217.067056 284.794842 
L 218.812874 282.938765 
L 219.685783 282.263245 
L 220.558692 281.821804 
L 222.304509 280.473896 
L 224.050327 278.009468 
L 224.923235 277.047508 
L 225.796144 276.513572 
L 226.669053 275.680604 
L 227.541962 275.303731 
L 228.414871 274.6838 
L 230.160688 273.107235 
L 231.033597 272.651011 
L 231.906506 272.365943 
L 232.779414 271.841376 
L 233.652323 271.026841 
L 235.398141 270.687579 
L 236.27105 270.228516 
L 237.143958 269.916474 
L 238.016867 270.009004 
L 238.889776 269.720334 
L 239.762685 269.695225 
L 240.635593 269.914893 
L 241.508502 269.876779 
L 242.381411 269.720773 
L 243.25432 269.713092 
L 245.000137 269.023985 
L 245.873046 268.8803 
L 246.745955 268.076315 
L 247.618864 267.722116 
L 249.364681 267.359976 
L 250.23759 267.833553 
L 251.983407 267.719261 
L 252.856316 267.549322 
L 253.729225 267.543931 
L 256.347951 267.280307 
L 257.22086 267.697982 
L 258.093769 267.926126 
L 258.966678 267.85852 
L 259.839586 267.468144 
L 260.712495 268.000673 
L 261.585404 267.700966 
L 262.458313 267.53863 
L 264.20413 267.811652 
L 265.077039 267.149623 
L 266.822857 266.762249 
L 271.187401 265.084992 
L 272.933218 265.322543 
L 273.806127 265.585187 
L 274.679036 265.237973 
L 275.551944 265.173541 
L 276.424853 264.962577 
L 277.297762 265.100499 
L 278.170671 264.85461 
L 279.916488 264.042003 
L 281.662306 263.666003 
L 283.408123 263.375855 
L 284.281032 263.750371 
L 285.153941 263.846265 
L 286.02685 263.727072 
L 286.899758 263.821875 
L 287.772667 263.705361 
L 290.391394 262.87669 
L 291.264302 262.751899 
L 293.883029 263.296546 
L 295.628846 264.192947 
L 297.374664 267.981202 
L 299.120481 271.400101 
L 300.866299 274.485657 
L 303.485025 278.559194 
L 306.103752 282.051744 
L 308.722478 285.046168 
L 309.595387 285.946201 
L 310.468295 286.413991 
L 313.087022 288.786249 
L 314.832839 290.134382 
L 315.705748 290.780005 
L 323.561927 295.121241 
L 324.434836 295.065607 
L 326.180653 295.843776 
L 328.79938 296.795539 
L 332.291015 297.955115 
L 333.163924 298.201756 
L 334.036832 298.268539 
L 334.909741 298.507454 
L 335.78265 298.435159 
L 336.655559 298.015997 
L 338.401376 298.100276 
L 339.274285 298.347604 
L 341.020103 298.104391 
L 344.511738 299.021182 
L 348.876282 299.931861 
L 352.367917 300.458211 
L 354.986643 300.780357 
L 360.224096 301.356851 
L 361.969913 301.448034 
L 364.588639 301.646438 
L 365.461548 301.46981 
L 368.080275 301.661252 
L 371.57191 301.718393 
L 378.55518 302.144634 
L 379.428089 301.740607 
L 380.300997 301.680119 
L 383.792633 301.933635 
L 384.665541 301.766273 
L 387.284268 301.858151 
L 388.157176 301.614743 
L 389.030085 301.199718 
L 389.902994 300.970188 
L 390.775903 300.217458 
L 391.648811 299.881801 
L 394.267538 300.333213 
L 396.886264 300.555958 
L 397.759173 300.259311 
L 402.996626 300.997747 
L 406.488261 301.377839 
L 407.361169 301.177658 
L 410.852805 301.522832 
L 411.725713 301.191945 
L 412.598622 301.28469 
L 414.34444 300.803903 
L 416.090257 300.938685 
L 417.836075 301.144229 
L 418.708984 301.064453 
L 419.581892 301.163572 
L 420.454801 300.883031 
L 423.073527 301.180054 
L 424.819345 301.05861 
L 430.929706 301.348697 
L 431.802615 301.268339 
L 436.167159 301.670668 
L 438.785885 301.474073 
L 445.769156 302.003431 
L 449.260791 302.196974 
L 451.006608 301.859464 
L 451.879517 301.301588 
L 452.752426 301.38885 
L 453.625335 300.778557 
L 457.989878 301.289964 
L 459.735696 301.389571 
L 461.481513 301.551154 
L 462.354422 301.32221 
L 463.227331 301.408441 
L 464.10024 301.275294 
L 464.973149 300.929952 
L 467.591875 300.756271 
L 470.210601 301.002915 
L 470.210601 301.002915 
" clip-path="url(#pf2eceda849)" style="fill: none; stroke: #ff0000; stroke-width: 5; stroke-linecap: square"/>
   </g>
   <g id="line2d_12">
    <path d="M 122.792909 298.87857 
L 123.665818 298.3867 
L 125.411635 298.841063 
L 127.157453 298.582864 
L 128.90327 299.018101 
L 129.776179 298.895574 
L 130.649088 298.659562 
L 132.394905 299.087321 
L 133.267814 299.140736 
L 134.140723 299.336041 
L 135.013632 299.294647 
L 137.632358 299.829802 
L 138.505267 299.292916 
L 139.378176 298.3437 
L 141.123993 298.802255 
L 141.996902 298.440666 
L 146.361446 299.482668 
L 148.107263 299.830174 
L 148.980172 299.667588 
L 151.598898 300.149553 
L 152.471807 299.948231 
L 154.217625 300.250345 
L 155.090533 300.017298 
L 160.327986 300.819846 
L 161.200895 300.931195 
L 162.946712 299.779473 
L 163.819621 299.405845 
L 166.438348 299.925141 
L 167.311256 299.76877 
L 168.184165 299.932673 
L 169.057074 299.700074 
L 169.929983 299.331041 
L 171.6758 299.595684 
L 175.167435 300.182139 
L 176.040344 300.295043 
L 176.913253 299.616553 
L 177.786162 299.247293 
L 179.531979 298.188503 
L 180.404888 298.256457 
L 181.277797 298.17113 
L 182.150705 298.414915 
L 183.896523 298.375507 
L 184.769432 297.85329 
L 186.515249 298.359661 
L 187.388158 297.61834 
L 190.006884 298.327527 
L 191.752702 298.787659 
L 193.49852 298.421585 
L 196.990155 299.279539 
L 197.863063 299.27779 
L 198.735972 298.731751 
L 199.608881 298.48774 
L 203.973425 299.519093 
L 208.337969 300.317134 
L 209.210878 289.801209 
L 211.829604 263.865053 
L 214.44833 243.35812 
L 215.321239 237.998289 
L 216.194148 233.400147 
L 217.067056 230.0064 
L 218.812874 220.845456 
L 219.685783 217.959332 
L 221.4316 209.755804 
L 223.177418 203.51188 
L 224.050327 198.28322 
L 224.923235 194.752203 
L 225.796144 192.750082 
L 226.669053 191.257612 
L 227.541962 188.482577 
L 228.414871 186.978839 
L 229.287779 186.084265 
L 230.160688 182.585421 
L 231.033597 180.119389 
L 233.652323 175.554826 
L 234.525232 173.733923 
L 237.143958 169.125984 
L 238.016867 167.210906 
L 238.889776 165.905571 
L 239.762685 164.308248 
L 240.635593 163.164012 
L 241.508502 161.63126 
L 242.381411 159.024645 
L 243.25432 158.142271 
L 244.127229 157.85383 
L 245.000137 156.112394 
L 245.873046 155.758277 
L 246.745955 154.576212 
L 247.618864 154.773602 
L 248.491772 154.607824 
L 249.364681 154.679373 
L 251.110499 156.083597 
L 251.983407 155.243333 
L 252.856316 155.106379 
L 253.729225 155.654944 
L 254.602134 155.759336 
L 255.475043 156.008546 
L 256.347951 156.017939 
L 258.093769 154.323229 
L 258.966678 153.39822 
L 259.839586 153.091778 
L 260.712495 152.3572 
L 261.585404 153.138929 
L 262.458313 152.895511 
L 263.331222 152.229948 
L 265.077039 151.45325 
L 265.949948 152.070396 
L 266.822857 151.608268 
L 267.695765 150.438882 
L 268.568674 149.74558 
L 269.441583 149.856008 
L 270.314492 150.607103 
L 271.187401 149.290619 
L 272.060309 149.973405 
L 272.933218 148.905705 
L 273.806127 148.216928 
L 274.679036 147.883092 
L 275.551944 149.247795 
L 276.424853 148.338089 
L 277.297762 148.116093 
L 279.04358 148.720433 
L 279.916488 147.712391 
L 280.789397 148.736959 
L 281.662306 148.990467 
L 283.408123 149.838759 
L 284.281032 149.865837 
L 285.153941 149.376558 
L 286.02685 149.773309 
L 286.899758 148.990539 
L 287.772667 148.56814 
L 288.645576 148.512519 
L 289.518485 148.879279 
L 291.264302 149.20649 
L 292.137211 148.443576 
L 293.01012 148.386977 
L 293.883029 149.29509 
L 294.755937 148.599164 
L 295.628846 147.479499 
L 297.374664 162.647321 
L 299.120481 176.336275 
L 300.866299 188.690554 
L 302.612116 199.840289 
L 304.357934 209.90293 
L 306.103752 218.98446 
L 307.849569 227.180549 
L 311.341204 241.065327 
L 313.087022 247.108522 
L 314.832839 252.562509 
L 316.578657 257.484732 
L 318.324474 261.838013 
L 320.070292 265.855874 
L 322.689018 270.982177 
L 323.561927 271.64653 
L 326.180653 276.097245 
L 327.053562 277.444726 
L 327.926471 278.39169 
L 328.79938 279.011295 
L 330.545197 281.354761 
L 331.418106 282.393988 
L 332.291015 283.232874 
L 333.163924 283.680408 
L 334.909741 285.398076 
L 335.78265 286.280513 
L 336.655559 286.10211 
L 337.528467 286.571971 
L 339.274285 288.119647 
L 340.147194 288.254744 
L 342.76592 290.364467 
L 345.384646 292.17329 
L 347.130464 293.189013 
L 348.003373 293.11856 
L 349.74919 294.086567 
L 350.622099 294.204091 
L 351.495008 294.43767 
L 354.113734 295.665552 
L 357.605369 297.034733 
L 358.478278 297.335338 
L 359.351187 297.457338 
L 360.224096 297.411275 
L 361.969913 297.960742 
L 362.842822 297.475892 
L 363.715731 297.545138 
L 364.588639 297.750602 
L 365.461548 297.339995 
L 367.207366 297.896411 
L 368.953183 297.897005 
L 369.826092 297.478742 
L 373.317727 298.511588 
L 377.682271 299.537546 
L 378.55518 299.71301 
L 379.428089 298.695546 
L 383.792633 299.67989 
L 384.665541 299.421726 
L 385.53845 299.602982 
L 386.411359 299.496116 
L 389.902994 300.154751 
L 390.775903 300.157712 
L 391.648811 298.713322 
L 396.013355 299.693644 
L 396.886264 299.861303 
L 397.759173 299.633521 
L 398.632082 299.804186 
L 399.50499 299.661924 
L 401.250808 299.991952 
L 402.123717 299.714188 
L 402.996626 299.244915 
L 406.488261 299.950146 
L 408.234078 300.152378 
L 409.106987 299.181176 
L 409.979896 299.265086 
L 411.725713 298.628344 
L 412.598622 298.849268 
L 413.471531 298.833284 
L 414.34444 298.221668 
L 417.836075 299.116705 
L 418.708984 299.024426 
L 419.581892 299.225546 
L 420.454801 299.221962 
L 423.073527 299.767484 
L 423.946436 299.028598 
L 424.819345 299.22951 
L 425.692254 299.198885 
L 426.565162 299.354264 
L 427.438071 298.477771 
L 428.31098 298.524933 
L 429.183889 298.226245 
L 430.056798 297.353246 
L 430.929706 297.637925 
L 431.802615 297.411343 
L 433.548433 297.960803 
L 434.421341 297.875732 
L 435.29425 298.134287 
L 436.167159 298.011306 
L 439.658794 298.945364 
L 440.531703 298.650885 
L 441.404612 298.52032 
L 444.023338 299.165914 
L 444.896247 298.618525 
L 448.387882 299.283715 
L 449.260791 299.236913 
L 450.133699 298.797373 
L 451.006608 298.025214 
L 452.752426 298.514821 
L 453.625335 297.941169 
L 457.11697 298.888237 
L 457.989878 299.096167 
L 458.862787 299.133228 
L 461.481513 299.691405 
L 462.354422 299.345685 
L 464.10024 299.706547 
L 464.973149 299.602818 
L 465.846057 299.775019 
L 466.718966 299.701635 
L 467.591875 299.868895 
L 468.464784 299.307944 
L 469.337692 299.494888 
L 470.210601 298.554218 
L 470.210601 298.554218 
" clip-path="url(#pf2eceda849)" style="fill: none; stroke: #0000ff; stroke-width: 5; stroke-linecap: square"/>
   </g>
   <g id="patch_3">
    <path d="M 121.92 322.75952 
L 121.92 31.720156 
" style="fill: none; stroke: #000000; stroke-width: 5; stroke-linejoin: miter; stroke-linecap: square"/>
   </g>
   <g id="patch_4">
    <path d="M 121.92 322.75952 
L 471.08351 322.75952 
" style="fill: none; stroke: #000000; stroke-width: 5; stroke-linejoin: miter; stroke-linecap: square"/>
   </g>
   <g id="patch_5">
    <path d="M 209.210878 316.938733 
L 296.501755 316.938733 
L 296.501755 306.752355 
L 209.210878 306.752355 
z
" style="fill: #8c5a2b; stroke: #8c5a2b; stroke-linejoin: miter"/>
   </g>
   <g id="text_12">
    <!-- Novel | Naive -->
    <g transform="translate(233.199099 21.720156) scale(0.19 -0.19)">
     <defs>
      <path id="DejaVuSans-6f" d="M 1959 3097 
Q 1497 3097 1228 2736 
Q 959 2375 959 1747 
Q 959 1119 1226 758 
Q 1494 397 1959 397 
Q 2419 397 2687 759 
Q 2956 1122 2956 1747 
Q 2956 2369 2687 2733 
Q 2419 3097 1959 3097 
z
M 1959 3584 
Q 2709 3584 3137 3096 
Q 3566 2609 3566 1747 
Q 3566 888 3137 398 
Q 2709 -91 1959 -91 
Q 1206 -91 779 398 
Q 353 888 353 1747 
Q 353 2609 779 3096 
Q 1206 3584 1959 3584 
z
" transform="scale(0.015625)"/>
      <path id="DejaVuSans-7c" d="M 1344 4891 
L 1344 -1509 
L 813 -1509 
L 813 4891 
L 1344 4891 
z
" transform="scale(0.015625)"/>
     </defs>
     <use xlink:href="#DejaVuSans-4e"/>
     <use xlink:href="#DejaVuSans-6f" transform="translate(74.804688 0)"/>
     <use xlink:href="#DejaVuSans-76" transform="translate(135.986328 0)"/>
     <use xlink:href="#DejaVuSans-65" transform="translate(195.166016 0)"/>
     <use xlink:href="#DejaVuSans-6c" transform="translate(256.689453 0)"/>
     <use xlink:href="#DejaVuSans-20" transform="translate(284.472656 0)"/>
     <use xlink:href="#DejaVuSans-7c" transform="translate(316.259766 0)"/>
     <use xlink:href="#DejaVuSans-20" transform="translate(349.951172 0)"/>
     <use xlink:href="#DejaVuSans-4e" transform="translate(381.738281 0)"/>
     <use xlink:href="#DejaVuSans-61" transform="translate(456.542969 0)"/>
     <use xlink:href="#DejaVuSans-69" transform="translate(517.822266 0)"/>
     <use xlink:href="#DejaVuSans-76" transform="translate(545.605469 0)"/>
     <use xlink:href="#DejaVuSans-65" transform="translate(604.785156 0)"/>
    </g>
   </g>
   <g id="legend_1">
    <g id="line2d_13">
     <path d="M 130.92 46.867812 
L 145.92 46.867812 
L 160.92 46.867812 
" style="fill: none; stroke: #000000; stroke-width: 5; stroke-linecap: square"/>
    </g>
    <g id="text_13">
     <!-- Nonoccluded (NO) -->
     <g transform="translate(172.92 52.117812) scale(0.15 -0.15)">
      <defs>
       <path id="DejaVuSans-6e" d="M 3513 2113 
L 3513 0 
L 2938 0 
L 2938 2094 
Q 2938 2591 2744 2837 
Q 2550 3084 2163 3084 
Q 1697 3084 1428 2787 
Q 1159 2491 1159 1978 
L 1159 0 
L 581 0 
L 581 3500 
L 1159 3500 
L 1159 2956 
Q 1366 3272 1645 3428 
Q 1925 3584 2291 3584 
Q 2894 3584 3203 3211 
Q 3513 2838 3513 2113 
z
" transform="scale(0.015625)"/>
       <path id="DejaVuSans-64" d="M 2906 2969 
L 2906 4863 
L 3481 4863 
L 3481 0 
L 2906 0 
L 2906 525 
Q 2725 213 2448 61 
Q 2172 -91 1784 -91 
Q 1150 -91 751 415 
Q 353 922 353 1747 
Q 353 2572 751 3078 
Q 1150 3584 1784 3584 
Q 2172 3584 2448 3432 
Q 2725 3281 2906 2969 
z
M 947 1747 
Q 947 1113 1208 752 
Q 1469 391 1925 391 
Q 2381 391 2643 752 
Q 2906 1113 2906 1747 
Q 2906 2381 2643 2742 
Q 2381 3103 1925 3103 
Q 1469 3103 1208 2742 
Q 947 2381 947 1747 
z
" transform="scale(0.015625)"/>
       <path id="DejaVuSans-4f" d="M 2522 4238 
Q 1834 4238 1429 3725 
Q 1025 3213 1025 2328 
Q 1025 1447 1429 934 
Q 1834 422 2522 422 
Q 3209 422 3611 934 
Q 4013 1447 4013 2328 
Q 4013 3213 3611 3725 
Q 3209 4238 2522 4238 
z
M 2522 4750 
Q 3503 4750 4090 4092 
Q 4678 3434 4678 2328 
Q 4678 1225 4090 567 
Q 3503 -91 2522 -91 
Q 1538 -91 948 565 
Q 359 1222 359 2328 
Q 359 3434 948 4092 
Q 1538 4750 2522 4750 
z
" transform="scale(0.015625)"/>
      </defs>
      <use xlink:href="#DejaVuSans-4e"/>
      <use xlink:href="#DejaVuSans-6f" transform="translate(74.804688 0)"/>
      <use xlink:href="#DejaVuSans-6e" transform="translate(135.986328 0)"/>
      <use xlink:href="#DejaVuSans-6f" transform="translate(199.365234 0)"/>
      <use xlink:href="#DejaVuSans-63" transform="translate(260.546875 0)"/>
      <use xlink:href="#DejaVuSans-63" transform="translate(315.527344 0)"/>
      <use xlink:href="#DejaVuSans-6c" transform="translate(370.507812 0)"/>
      <use xlink:href="#DejaVuSans-75" transform="translate(398.291016 0)"/>
      <use xlink:href="#DejaVuSans-64" transform="translate(461.669922 0)"/>
      <use xlink:href="#DejaVuSans-65" transform="translate(525.146484 0)"/>
      <use xlink:href="#DejaVuSans-64" transform="translate(586.669922 0)"/>
      <use xlink:href="#DejaVuSans-20" transform="translate(650.146484 0)"/>
      <use xlink:href="#DejaVuSans-28" transform="translate(681.933594 0)"/>
      <use xlink:href="#DejaVuSans-4e" transform="translate(720.947266 0)"/>
      <use xlink:href="#DejaVuSans-4f" transform="translate(795.751953 0)"/>
      <use xlink:href="#DejaVuSans-29" transform="translate(874.462891 0)"/>
     </g>
    </g>
    <g id="line2d_14">
     <path d="M 130.92 68.885 
L 145.92 68.885 
L 160.92 68.885 
" style="fill: none; stroke: #ff0000; stroke-width: 5; stroke-linecap: square"/>
    </g>
    <g id="text_14">
     <!-- Occluded (O) -->
     <g transform="translate(172.92 74.135) scale(0.15 -0.15)">
      <use xlink:href="#DejaVuSans-4f"/>
      <use xlink:href="#DejaVuSans-63" transform="translate(78.710938 0)"/>
      <use xlink:href="#DejaVuSans-63" transform="translate(133.691406 0)"/>
      <use xlink:href="#DejaVuSans-6c" transform="translate(188.671875 0)"/>
      <use xlink:href="#DejaVuSans-75" transform="translate(216.455078 0)"/>
      <use xlink:href="#DejaVuSans-64" transform="translate(279.833984 0)"/>
      <use xlink:href="#DejaVuSans-65" transform="translate(343.310547 0)"/>
      <use xlink:href="#DejaVuSans-64" transform="translate(404.833984 0)"/>
      <use xlink:href="#DejaVuSans-20" transform="translate(468.310547 0)"/>
      <use xlink:href="#DejaVuSans-28" transform="translate(500.097656 0)"/>
      <use xlink:href="#DejaVuSans-4f" transform="translate(539.111328 0)"/>
      <use xlink:href="#DejaVuSans-29" transform="translate(617.822266 0)"/>
     </g>
    </g>
    <g id="line2d_15">
     <path d="M 130.92 90.902187 
L 145.92 90.902187 
L 160.92 90.902187 
" style="fill: none; stroke: #0000ff; stroke-width: 5; stroke-linecap: square"/>
    </g>
    <g id="text_15">
     <!-- No feedback -->
     <g transform="translate(172.92 96.152187) scale(0.15 -0.15)">
      <defs>
       <path id="DejaVuSans-66" d="M 2375 4863 
L 2375 4384 
L 1825 4384 
Q 1516 4384 1395 4259 
Q 1275 4134 1275 3809 
L 1275 3500 
L 2222 3500 
L 2222 3053 
L 1275 3053 
L 1275 0 
L 697 0 
L 697 3053 
L 147 3053 
L 147 3500 
L 697 3500 
L 697 3744 
Q 697 4328 969 4595 
Q 1241 4863 1831 4863 
L 2375 4863 
z
" transform="scale(0.015625)"/>
       <path id="DejaVuSans-62" d="M 3116 1747 
Q 3116 2381 2855 2742 
Q 2594 3103 2138 3103 
Q 1681 3103 1420 2742 
Q 1159 2381 1159 1747 
Q 1159 1113 1420 752 
Q 1681 391 2138 391 
Q 2594 391 2855 752 
Q 3116 1113 3116 1747 
z
M 1159 2969 
Q 1341 3281 1617 3432 
Q 1894 3584 2278 3584 
Q 2916 3584 3314 3078 
Q 3713 2572 3713 1747 
Q 3713 922 3314 415 
Q 2916 -91 2278 -91 
Q 1894 -91 1617 61 
Q 1341 213 1159 525 
L 1159 0 
L 581 0 
L 581 4863 
L 1159 4863 
L 1159 2969 
z
" transform="scale(0.015625)"/>
       <path id="DejaVuSans-6b" d="M 581 4863 
L 1159 4863 
L 1159 1991 
L 2875 3500 
L 3609 3500 
L 1753 1863 
L 3688 0 
L 2938 0 
L 1159 1709 
L 1159 0 
L 581 0 
L 581 4863 
z
" transform="scale(0.015625)"/>
      </defs>
      <use xlink:href="#DejaVuSans-4e"/>
      <use xlink:href="#DejaVuSans-6f" transform="translate(74.804688 0)"/>
      <use xlink:href="#DejaVuSans-20" transform="translate(135.986328 0)"/>
      <use xlink:href="#DejaVuSans-66" transform="translate(167.773438 0)"/>
      <use xlink:href="#DejaVuSans-65" transform="translate(202.978516 0)"/>
      <use xlink:href="#DejaVuSans-65" transform="translate(264.501953 0)"/>
      <use xlink:href="#DejaVuSans-64" transform="translate(326.025391 0)"/>
      <use xlink:href="#DejaVuSans-62" transform="translate(389.501953 0)"/>
      <use xlink:href="#DejaVuSans-61" transform="translate(452.978516 0)"/>
      <use xlink:href="#DejaVuSans-63" transform="translate(514.257812 0)"/>
      <use xlink:href="#DejaVuSans-6b" transform="translate(569.238281 0)"/>
     </g>
    </g>
   </g>
  </g>
  <g id="axes_2">
   <g id="patch_6">
    <path d="M 505.85601 322.75952 
L 855.01952 322.75952 
L 855.01952 31.720156 
L 505.85601 31.720156 
z
" style="fill: #ffffff"/>
   </g>
   <g id="matplotlib.axis_3">
    <g id="xtick_6">
     <g id="line2d_16">
      <g>
       <use xlink:href="#m68d3d996dc" x="505.85601" y="322.75952" style="stroke: #000000; stroke-width: 1.6"/>
      </g>
     </g>
     <g id="text_16">
      <!-- -1 -->
      <g transform="translate(489.90351 355.57452) scale(0.32 -0.32)">
       <use xlink:href="#DejaVuSans-2d"/>
       <use xlink:href="#DejaVuSans-31" transform="translate(36.083984 0)"/>
      </g>
     </g>
    </g>
    <g id="xtick_7">
     <g id="line2d_17">
      <g>
       <use xlink:href="#m68d3d996dc" x="593.146888" y="322.75952" style="stroke: #000000; stroke-width: 1.6"/>
      </g>
     </g>
     <g id="text_17">
      <!-- 0 -->
      <g transform="translate(582.966888 355.57452) scale(0.32 -0.32)">
       <use xlink:href="#DejaVuSans-30"/>
      </g>
     </g>
    </g>
    <g id="xtick_8">
     <g id="line2d_18">
      <g>
       <use xlink:href="#m68d3d996dc" x="680.437765" y="322.75952" style="stroke: #000000; stroke-width: 1.6"/>
      </g>
     </g>
     <g id="text_18">
      <!-- 1 -->
      <g transform="translate(670.257765 355.57452) scale(0.32 -0.32)">
       <use xlink:href="#DejaVuSans-31"/>
      </g>
     </g>
    </g>
    <g id="xtick_9">
     <g id="line2d_19">
      <g>
       <use xlink:href="#m68d3d996dc" x="767.728643" y="322.75952" style="stroke: #000000; stroke-width: 1.6"/>
      </g>
     </g>
     <g id="text_19">
      <!-- 2 -->
      <g transform="translate(757.548643 355.57452) scale(0.32 -0.32)">
       <use xlink:href="#DejaVuSans-32"/>
      </g>
     </g>
    </g>
    <g id="xtick_10">
     <g id="line2d_20">
      <g>
       <use xlink:href="#m68d3d996dc" x="855.01952" y="322.75952" style="stroke: #000000; stroke-width: 1.6"/>
      </g>
     </g>
     <g id="text_20">
      <!-- 3 -->
      <g transform="translate(844.83952 355.57452) scale(0.32 -0.32)">
       <use xlink:href="#DejaVuSans-33"/>
      </g>
     </g>
    </g>
    <g id="text_21">
     <!-- Time (s) -->
     <g transform="translate(615.385265 390.54452) scale(0.32 -0.32)">
      <use xlink:href="#DejaVuSans-54"/>
      <use xlink:href="#DejaVuSans-69" transform="translate(57.958984 0)"/>
      <use xlink:href="#DejaVuSans-6d" transform="translate(85.742188 0)"/>
      <use xlink:href="#DejaVuSans-65" transform="translate(183.154297 0)"/>
      <use xlink:href="#DejaVuSans-20" transform="translate(244.677734 0)"/>
      <use xlink:href="#DejaVuSans-28" transform="translate(276.464844 0)"/>
      <use xlink:href="#DejaVuSans-73" transform="translate(315.478516 0)"/>
      <use xlink:href="#DejaVuSans-29" transform="translate(367.578125 0)"/>
     </g>
    </g>
   </g>
   <g id="matplotlib.axis_4">
    <g id="ytick_5">
     <g id="line2d_21">
      <g>
       <use xlink:href="#m4bd9c1a177" x="505.85601" y="303.046829" style="stroke: #000000; stroke-width: 1.6"/>
      </g>
     </g>
    </g>
    <g id="ytick_6">
     <g id="line2d_22">
      <g>
       <use xlink:href="#m4bd9c1a177" x="505.85601" y="227.129996" style="stroke: #000000; stroke-width: 1.6"/>
      </g>
     </g>
    </g>
    <g id="ytick_7">
     <g id="line2d_23">
      <g>
       <use xlink:href="#m4bd9c1a177" x="505.85601" y="151.213163" style="stroke: #000000; stroke-width: 1.6"/>
      </g>
     </g>
    </g>
    <g id="ytick_8">
     <g id="line2d_24">
      <g>
       <use xlink:href="#m4bd9c1a177" x="505.85601" y="75.29633" style="stroke: #000000; stroke-width: 1.6"/>
      </g>
     </g>
    </g>
   </g>
   <g id="line2d_25">
    <path d="M 506.728919 300.070178 
L 507.601828 299.380386 
L 511.966371 300.209805 
L 517.203824 300.961356 
L 522.441277 301.513815 
L 524.187094 301.569833 
L 531.170364 302.066959 
L 532.043273 302.115953 
L 532.916182 302.034642 
L 535.534908 302.179005 
L 536.407817 301.949932 
L 545.136905 302.390076 
L 546.009814 302.422914 
L 546.882722 301.682911 
L 547.755631 301.582266 
L 550.374358 301.791149 
L 551.247266 300.629698 
L 552.120175 300.750555 
L 552.993084 300.400683 
L 553.865993 300.282769 
L 556.484719 300.587786 
L 559.976354 301.043923 
L 561.722172 299.929233 
L 562.59508 299.564458 
L 563.467989 299.335475 
L 567.832533 300.175054 
L 568.705442 299.91214 
L 570.451259 300.217773 
L 571.324168 299.368815 
L 575.688712 300.200852 
L 580.926165 300.954774 
L 581.799073 301.059377 
L 582.671982 300.616787 
L 583.544891 300.394083 
L 588.782344 301.096817 
L 592.273979 301.458532 
L 593.146888 284.964779 
L 595.765614 246.442715 
L 597.511431 227.166943 
L 598.38434 217.605857 
L 599.257249 210.154365 
L 600.130158 203.790303 
L 601.003066 198.45821 
L 601.875975 192.189435 
L 602.748884 183.145127 
L 603.621793 177.187354 
L 605.36761 163.311554 
L 607.113428 149.652963 
L 607.986337 140.92401 
L 608.859245 134.641886 
L 609.732154 129.482957 
L 611.477972 121.351376 
L 614.096698 114.244255 
L 614.969607 110.928265 
L 615.842516 108.212399 
L 616.715424 106.623619 
L 617.588333 102.648247 
L 618.461242 99.63603 
L 621.952877 84.644791 
L 623.698695 78.071583 
L 624.571603 75.977125 
L 626.317421 70.764094 
L 627.19033 70.618842 
L 628.063239 71.747792 
L 628.936147 71.141696 
L 629.809056 70.063028 
L 630.681965 68.357828 
L 631.554874 67.905093 
L 632.427782 68.34867 
L 633.300691 68.461559 
L 634.1736 68.377358 
L 635.046509 68.476763 
L 635.919417 67.791643 
L 636.792326 67.365171 
L 637.665235 68.817369 
L 638.538144 68.657256 
L 640.283961 68.109062 
L 641.15687 66.806316 
L 642.029779 64.519383 
L 642.902688 63.264982 
L 643.775596 63.401003 
L 644.648505 64.244535 
L 646.394323 63.920816 
L 647.267232 62.901733 
L 648.14014 63.031926 
L 649.013049 62.749856 
L 649.885958 63.187677 
L 650.758867 62.996595 
L 651.631775 63.814099 
L 652.504684 65.011449 
L 653.377593 64.336392 
L 654.250502 63.11477 
L 655.123411 60.450669 
L 655.996319 62.62502 
L 656.869228 61.660436 
L 657.742137 61.355976 
L 658.615046 62.305158 
L 659.487954 65.342443 
L 660.360863 64.513953 
L 661.233772 62.65094 
L 662.106681 61.799317 
L 662.97959 60.394071 
L 663.852498 58.003389 
L 664.725407 58.712691 
L 665.598316 57.058298 
L 666.471225 57.17412 
L 667.344133 56.949753 
L 668.217042 57.534798 
L 669.089951 56.514557 
L 669.96286 54.882282 
L 670.835768 54.197017 
L 671.708677 53.342154 
L 672.581586 51.791837 
L 673.454495 52.646319 
L 674.327404 51.794642 
L 675.200312 53.052591 
L 676.94613 52.273169 
L 677.819039 52.371253 
L 678.691947 52.75881 
L 679.564856 52.678537 
L 681.310674 77.089459 
L 683.056491 99.120307 
L 684.802309 119.003157 
L 686.548126 136.947426 
L 688.293944 153.142124 
L 690.039762 167.757842 
L 691.785579 180.948522 
L 693.531397 192.853107 
L 697.023032 212.919391 
L 698.768849 221.706816 
L 700.514667 229.637468 
L 702.260484 236.79488 
L 704.006302 243.254448 
L 705.752119 249.084208 
L 707.497937 254.345566 
L 709.243755 259.093938 
L 710.989572 263.379344 
L 714.481207 270.395665 
L 716.227025 272.671525 
L 717.099934 273.417412 
L 719.71866 277.52847 
L 720.591569 277.996223 
L 721.464477 278.728044 
L 723.210295 280.903449 
L 724.083204 281.475518 
L 726.70193 284.552128 
L 729.320656 287.189935 
L 731.066474 288.735982 
L 738.049744 293.417149 
L 740.66847 294.790582 
L 744.160106 296.322065 
L 745.905923 296.977729 
L 746.778832 297.128308 
L 748.524649 297.62402 
L 749.397558 297.441175 
L 752.016285 298.240682 
L 752.889193 298.253281 
L 753.762102 298.068168 
L 757.253737 298.991679 
L 761.618281 299.909031 
L 762.49119 300.065921 
L 763.364099 299.909697 
L 768.601551 300.740749 
L 770.347369 300.860826 
L 774.711913 301.355342 
L 775.584821 299.167777 
L 779.949365 300.045292 
L 780.822274 299.368162 
L 781.695183 298.396335 
L 782.568092 298.62886 
L 783.441 298.412078 
L 785.186818 298.863966 
L 786.932636 297.389203 
L 790.424271 298.411265 
L 792.170088 298.863232 
L 793.042997 298.482575 
L 796.534632 299.284313 
L 797.407541 299.472439 
L 798.28045 298.782493 
L 802.644994 299.747167 
L 805.26372 300.217781 
L 806.136629 300.243287 
L 807.009537 300.383464 
L 807.882446 299.16511 
L 810.501172 299.718741 
L 811.374081 298.727454 
L 812.24699 298.943423 
L 813.119899 298.098152 
L 813.992808 297.433441 
L 814.865716 297.714111 
L 815.738625 297.672115 
L 819.23026 298.669091 
L 820.103169 298.750885 
L 824.467713 299.72271 
L 825.340622 299.748142 
L 827.959348 300.218617 
L 828.832257 299.664212 
L 831.450983 300.146658 
L 832.323892 299.94524 
L 833.196801 300.10032 
L 834.069709 299.391738 
L 834.942618 297.754613 
L 836.688436 298.270604 
L 837.561345 298.158814 
L 841.05298 299.06551 
L 845.417523 299.966161 
L 850.654976 300.782255 
L 853.273702 301.10524 
L 854.146611 300.065049 
L 854.146611 300.065049 
" clip-path="url(#pa792d0a1c7)" style="fill: none; stroke: #000000; stroke-width: 5; stroke-linecap: square"/>
   </g>
   <g id="line2d_26">
    <path d="M 506.728919 300.471058 
L 507.601828 300.448598 
L 508.474736 300.578509 
L 509.347645 300.499242 
L 510.220554 300.048004 
L 512.83928 300.475712 
L 513.712189 300.470222 
L 514.585098 299.872341 
L 518.949642 300.433331 
L 519.82255 300.34088 
L 521.568368 300.60471 
L 522.441277 300.181279 
L 523.314186 299.945307 
L 525.932912 300.387662 
L 526.805821 300.002635 
L 529.424547 300.436813 
L 530.297456 299.992008 
L 535.534908 300.801255 
L 536.407817 300.913534 
L 537.280726 300.850069 
L 538.153635 300.959907 
L 539.026543 300.731424 
L 543.391087 301.255213 
L 544.263996 301.160654 
L 546.009814 301.344556 
L 546.882722 301.289355 
L 550.374358 301.615355 
L 551.247266 301.255093 
L 552.120175 301.34468 
L 552.993084 301.130497 
L 554.738901 301.31734 
L 555.61181 301.074262 
L 556.484719 301.17289 
L 557.357628 301.050239 
L 559.976354 301.335003 
L 560.849263 300.553866 
L 562.59508 300.318087 
L 563.467989 300.454524 
L 565.213807 300.543682 
L 566.086715 300.668839 
L 566.959624 300.438701 
L 570.451259 300.919312 
L 571.324168 300.456711 
L 572.197077 300.582589 
L 573.069986 300.518142 
L 573.942894 300.644577 
L 574.815803 300.055351 
L 575.688712 300.204925 
L 576.561621 300.106154 
L 577.43453 299.050719 
L 581.799073 299.954715 
L 582.671982 300.109321 
L 585.290709 300.13406 
L 588.782344 300.632149 
L 589.655252 300.337649 
L 592.273979 300.724046 
L 594.892705 282.205146 
L 595.765614 277.941751 
L 596.638523 272.722841 
L 598.38434 264.027301 
L 599.257249 261.280411 
L 603.621793 243.890535 
L 604.494702 241.409145 
L 605.36761 238.564842 
L 606.240519 236.37397 
L 607.986337 230.522838 
L 610.605063 225.261426 
L 612.350881 222.970213 
L 613.223789 221.259085 
L 614.969607 218.840176 
L 616.715424 217.937204 
L 617.588333 215.511065 
L 618.461242 215.198967 
L 619.334151 214.317977 
L 621.079968 211.249677 
L 623.698695 210.227308 
L 624.571603 210.302677 
L 626.317421 209.613665 
L 627.19033 209.340826 
L 628.063239 209.57256 
L 628.936147 209.274272 
L 629.809056 208.493004 
L 630.681965 207.32246 
L 631.554874 206.391877 
L 632.427782 206.514332 
L 633.300691 206.201809 
L 634.1736 206.757623 
L 635.046509 206.938017 
L 635.919417 207.239101 
L 636.792326 206.663123 
L 637.665235 206.888377 
L 639.411053 205.726096 
L 641.15687 206.30277 
L 642.029779 205.896091 
L 642.902688 205.756712 
L 643.775596 205.407419 
L 644.648505 206.214506 
L 646.394323 205.210672 
L 647.267232 204.432988 
L 648.14014 204.23987 
L 649.013049 204.161515 
L 649.885958 203.672037 
L 650.758867 203.342174 
L 652.504684 203.999249 
L 653.377593 202.999315 
L 654.250502 202.522417 
L 655.996319 201.098491 
L 656.869228 200.579239 
L 657.742137 201.279953 
L 658.615046 201.139035 
L 659.487954 202.024486 
L 660.360863 202.115629 
L 661.233772 201.192539 
L 662.106681 201.120275 
L 662.97959 200.773633 
L 663.852498 200.797977 
L 664.725407 201.025974 
L 665.598316 200.192415 
L 666.471225 200.184451 
L 667.344133 199.871195 
L 668.217042 200.172641 
L 669.089951 200.238932 
L 669.96286 199.836714 
L 670.835768 200.178342 
L 671.708677 200.073842 
L 672.581586 199.518535 
L 673.454495 199.373346 
L 674.327404 198.321718 
L 675.200312 198.46603 
L 676.073221 198.311175 
L 676.94613 197.856965 
L 677.819039 197.581067 
L 679.564856 198.136239 
L 681.310674 208.365019 
L 683.056491 217.596499 
L 684.802309 225.927913 
L 686.548126 233.447008 
L 688.293944 240.232995 
L 690.039762 246.260787 
L 691.785579 251.797427 
L 693.531397 256.794244 
L 695.277214 261.253845 
L 697.023032 265.32866 
L 698.768849 269.006183 
L 700.514667 272.325146 
L 702.260484 275.32051 
L 704.006302 277.911219 
L 704.879211 278.881048 
L 705.752119 279.622606 
L 708.370846 282.963488 
L 710.989572 285.827874 
L 711.862481 286.28876 
L 713.608298 287.901986 
L 714.481207 288.304892 
L 715.354116 288.882302 
L 716.227025 289.026764 
L 717.972842 290.262341 
L 720.591569 292.085729 
L 723.210295 293.649057 
L 724.956113 294.56534 
L 726.70193 295.163564 
L 730.193565 296.625861 
L 732.812292 297.510193 
L 736.303927 298.537205 
L 740.66847 299.557368 
L 743.287197 300.055052 
L 744.160106 299.337259 
L 748.524649 300.176435 
L 751.143376 300.585825 
L 752.016285 300.427246 
L 755.50792 300.74987 
L 757.253737 300.973824 
L 758.126646 300.812249 
L 760.745372 301.107169 
L 761.618281 300.928589 
L 762.49119 300.893832 
L 763.364099 299.889585 
L 764.237007 300.047447 
L 765.109916 299.902212 
L 765.982825 300.059443 
L 766.855734 299.944226 
L 772.093186 300.766131 
L 772.966095 300.880166 
L 773.839004 300.255495 
L 774.711913 300.330313 
L 775.584821 300.132397 
L 779.949365 300.791697 
L 781.695183 299.690031 
L 785.186818 300.312697 
L 786.932636 299.01666 
L 791.297179 299.928361 
L 792.170088 299.536336 
L 793.915906 299.791596 
L 794.788815 299.954358 
L 795.661723 299.971703 
L 799.153358 300.54212 
L 800.026267 300.50861 
L 801.772085 300.756087 
L 802.644994 300.652703 
L 806.136629 301.059905 
L 807.009537 301.023761 
L 807.882446 300.304194 
L 808.755355 300.441326 
L 809.628264 300.392442 
L 812.24699 300.724549 
L 813.119899 300.367267 
L 813.992808 300.234754 
L 814.865716 300.375358 
L 815.738625 300.210438 
L 816.611534 299.909283 
L 818.357351 300.119871 
L 821.848987 300.57708 
L 824.467713 300.870255 
L 825.340622 300.577977 
L 826.21353 300.701419 
L 827.086439 300.386652 
L 827.959348 300.519661 
L 828.832257 300.242616 
L 834.069709 300.985475 
L 834.942618 300.45221 
L 835.815527 300.298352 
L 836.688436 300.435776 
L 837.561345 300.287985 
L 841.925888 300.912088 
L 843.671706 300.980616 
L 845.417523 301.148378 
L 846.290432 300.434685 
L 849.782067 300.919222 
L 850.654976 300.354371 
L 852.400794 299.788525 
L 853.273702 299.95144 
L 854.146611 299.456557 
L 854.146611 299.456557 
" clip-path="url(#pa792d0a1c7)" style="fill: none; stroke: #ff0000; stroke-width: 5; stroke-linecap: square"/>
   </g>
   <g id="line2d_27">
    <path d="M 506.728919 301.014864 
L 512.83928 301.627832 
L 518.076733 301.950451 
L 525.060003 302.319122 
L 525.932912 301.93724 
L 534.662 302.382477 
L 545.136905 302.68784 
L 546.009814 302.62721 
L 546.882722 301.832706 
L 547.755631 301.36302 
L 550.374358 301.603173 
L 551.247266 301.481961 
L 552.120175 301.560204 
L 553.865993 301.058661 
L 554.738901 301.158069 
L 555.61181 300.950513 
L 559.103445 301.290206 
L 559.976354 301.353129 
L 560.849263 301.151497 
L 561.722172 300.678953 
L 562.59508 299.818 
L 564.340898 300.067753 
L 567.832533 300.620353 
L 568.705442 300.354422 
L 573.942894 301.067662 
L 580.053256 301.664703 
L 581.799073 301.799461 
L 582.671982 301.206861 
L 583.544891 300.973069 
L 589.655252 301.598645 
L 592.273979 301.805192 
L 593.146888 291.313988 
L 595.765614 269.056126 
L 598.38434 254.078034 
L 599.257249 250.237485 
L 600.130158 247.182551 
L 601.003066 245.920449 
L 601.875975 242.61303 
L 602.748884 237.194211 
L 603.621793 234.22652 
L 604.494702 229.368276 
L 607.113428 217.361209 
L 607.986337 211.860669 
L 608.859245 207.508157 
L 609.732154 204.33599 
L 611.477972 199.545386 
L 612.350881 198.650885 
L 613.223789 198.309492 
L 614.096698 196.290194 
L 614.969607 193.93974 
L 616.715424 191.020828 
L 617.588333 189.207951 
L 619.334151 184.685996 
L 620.20706 183.274379 
L 621.079968 181.262502 
L 621.952877 178.042235 
L 622.825786 175.614411 
L 625.444512 169.708776 
L 626.317421 166.821087 
L 627.19033 166.959624 
L 628.063239 168.185599 
L 628.936147 168.163309 
L 630.681965 167.170416 
L 631.554874 167.960001 
L 632.427782 168.47385 
L 633.300691 168.735712 
L 634.1736 168.074981 
L 635.046509 168.06489 
L 635.919417 167.293333 
L 636.792326 167.156715 
L 638.538144 168.853072 
L 639.411053 169.475331 
L 640.283961 169.787982 
L 641.15687 168.910883 
L 642.029779 167.144832 
L 642.902688 165.951373 
L 643.775596 166.375166 
L 644.648505 167.198589 
L 645.521414 167.834821 
L 646.394323 168.096321 
L 647.267232 167.033372 
L 648.14014 167.240119 
L 649.013049 166.06458 
L 649.885958 165.954405 
L 650.758867 165.412202 
L 651.631775 165.292805 
L 652.504684 166.106155 
L 653.377593 165.685792 
L 654.250502 166.015194 
L 655.123411 164.363181 
L 655.996319 167.100777 
L 656.869228 167.272618 
L 657.742137 166.530012 
L 658.615046 167.543819 
L 659.487954 169.308495 
L 661.233772 166.021529 
L 662.106681 164.819527 
L 662.97959 163.275942 
L 663.852498 161.438016 
L 664.725407 161.743371 
L 665.598316 160.901288 
L 666.471225 161.576209 
L 667.344133 161.6708 
L 668.217042 162.625266 
L 669.089951 161.772811 
L 669.96286 161.876135 
L 670.835768 161.378431 
L 671.708677 160.19404 
L 672.581586 159.715893 
L 673.454495 160.870509 
L 674.327404 160.874382 
L 675.200312 162.212614 
L 676.073221 162.09586 
L 676.94613 161.761481 
L 677.819039 161.58735 
L 678.691947 161.207874 
L 679.564856 160.957389 
L 681.310674 174.811107 
L 683.056491 187.314087 
L 684.802309 198.598033 
L 686.548126 208.781798 
L 688.293944 217.972644 
L 690.039762 226.267378 
L 691.785579 233.753377 
L 693.531397 240.50949 
L 694.404305 243.126662 
L 696.150123 248.968879 
L 697.895941 254.241482 
L 699.641758 259.000003 
L 701.387576 263.294573 
L 703.133393 267.17042 
L 704.879211 270.66837 
L 706.625028 273.825272 
L 709.243755 277.992997 
L 711.862481 281.531245 
L 714.481207 284.599906 
L 715.354116 285.251552 
L 717.099934 286.887479 
L 719.71866 289.192207 
L 720.591569 289.07627 
L 722.337386 289.885755 
L 724.956113 291.762854 
L 727.574839 293.372232 
L 730.193565 294.752071 
L 733.6852 296.290697 
L 742.414288 298.960399 
L 745.905923 299.718406 
L 747.651741 299.464728 
L 748.524649 299.534803 
L 749.397558 298.568266 
L 751.143376 299.004926 
L 752.016285 299.079767 
L 753.762102 298.730438 
L 758.126646 299.706888 
L 762.49119 300.462447 
L 767.728643 301.147071 
L 773.839004 301.720157 
L 774.711913 301.581003 
L 775.584821 300.281792 
L 780.822274 301.014273 
L 781.695183 300.949729 
L 782.568092 301.054584 
L 783.441 300.932511 
L 786.059727 301.234066 
L 786.932636 300.830267 
L 792.170088 301.417452 
L 793.042997 301.28525 
L 793.915906 301.373329 
L 794.788815 301.293192 
L 801.772085 301.883431 
L 805.26372 302.099234 
L 806.136629 301.374847 
L 807.009537 301.458447 
L 807.882446 300.647986 
L 810.501172 300.990121 
L 813.119899 300.316385 
L 813.992808 299.517835 
L 814.865716 299.555347 
L 819.23026 300.345187 
L 820.976078 300.608597 
L 822.721895 300.757481 
L 823.594804 300.871948 
L 824.467713 300.658622 
L 829.705166 301.291277 
L 831.450983 301.462444 
L 832.323892 300.923345 
L 833.196801 300.787766 
L 834.069709 299.878183 
L 834.942618 298.304935 
L 836.688436 298.676278 
L 837.561345 298.075395 
L 841.05298 298.997565 
L 845.417523 299.913586 
L 850.654976 300.743608 
L 853.273702 301.072105 
L 854.146611 300.642924 
L 854.146611 300.642924 
" clip-path="url(#pa792d0a1c7)" style="fill: none; stroke: #0000ff; stroke-width: 5; stroke-linecap: square"/>
   </g>
   <g id="patch_7">
    <path d="M 505.85601 322.75952 
L 505.85601 31.720156 
" style="fill: none; stroke: #000000; stroke-width: 5; stroke-linejoin: miter; stroke-linecap: square"/>
   </g>
   <g id="patch_8">
    <path d="M 505.85601 322.75952 
L 855.01952 322.75952 
" style="fill: none; stroke: #000000; stroke-width: 5; stroke-linejoin: miter; stroke-linecap: square"/>
   </g>
   <g id="patch_9">
    <path d="M 593.146888 316.938733 
L 680.437765 316.938733 
L 680.437765 306.752355 
L 593.146888 306.752355 
z
" style="fill: #8c5a2b; stroke: #8c5a2b; stroke-linejoin: miter"/>
   </g>
   <g id="text_22">
    <!-- Novel | Expert -->
    <g transform="translate(613.039718 21.720156) scale(0.19 -0.19)">
     <defs>
      <path id="DejaVuSans-45" d="M 628 4666 
L 3578 4666 
L 3578 4134 
L 1259 4134 
L 1259 2753 
L 3481 2753 
L 3481 2222 
L 1259 2222 
L 1259 531 
L 3634 531 
L 3634 0 
L 628 0 
L 628 4666 
z
" transform="scale(0.015625)"/>
      <path id="DejaVuSans-78" d="M 3513 3500 
L 2247 1797 
L 3578 0 
L 2900 0 
L 1881 1375 
L 863 0 
L 184 0 
L 1544 1831 
L 300 3500 
L 978 3500 
L 1906 2253 
L 2834 3500 
L 3513 3500 
z
" transform="scale(0.015625)"/>
      <path id="DejaVuSans-70" d="M 1159 525 
L 1159 -1331 
L 581 -1331 
L 581 3500 
L 1159 3500 
L 1159 2969 
Q 1341 3281 1617 3432 
Q 1894 3584 2278 3584 
Q 2916 3584 3314 3078 
Q 3713 2572 3713 1747 
Q 3713 922 3314 415 
Q 2916 -91 2278 -91 
Q 1894 -91 1617 61 
Q 1341 213 1159 525 
z
M 3116 1747 
Q 3116 2381 2855 2742 
Q 2594 3103 2138 3103 
Q 1681 3103 1420 2742 
Q 1159 2381 1159 1747 
Q 1159 1113 1420 752 
Q 1681 391 2138 391 
Q 2594 391 2855 752 
Q 3116 1113 3116 1747 
z
" transform="scale(0.015625)"/>
     </defs>
     <use xlink:href="#DejaVuSans-4e"/>
     <use xlink:href="#DejaVuSans-6f" transform="translate(74.804688 0)"/>
     <use xlink:href="#DejaVuSans-76" transform="translate(135.986328 0)"/>
     <use xlink:href="#DejaVuSans-65" transform="translate(195.166016 0)"/>
     <use xlink:href="#DejaVuSans-6c" transform="translate(256.689453 0)"/>
     <use xlink:href="#DejaVuSans-20" transform="translate(284.472656 0)"/>
     <use xlink:href="#DejaVuSans-7c" transform="translate(316.259766 0)"/>
     <use xlink:href="#DejaVuSans-20" transform="translate(349.951172 0)"/>
     <use xlink:href="#DejaVuSans-45" transform="translate(381.738281 0)"/>
     <use xlink:href="#DejaVuSans-78" transform="translate(444.921875 0)"/>
     <use xlink:href="#DejaVuSans-70" transform="translate(504.101562 0)"/>
     <use xlink:href="#DejaVuSans-65" transform="translate(567.578125 0)"/>
     <use xlink:href="#DejaVuSans-72" transform="translate(629.101562 0)"/>
     <use xlink:href="#DejaVuSans-74" transform="translate(670.214844 0)"/>
    </g>
   </g>
  </g>
 </g>
 <defs>
  <clipPath id="pf2eceda849">
   <rect x="121.92" y="31.720156" width="349.16351" height="291.039364"/>
  </clipPath>
  <clipPath id="pa792d0a1c7">
   <rect x="505.85601" y="31.720156" width="349.16351" height="291.039364"/>
  </clipPath>
 </defs>
</svg>
