<?xml version="1.0" encoding="utf-8" standalone="no"?>
<!DOCTYPE svg PUBLIC "-//W3C//DTD SVG 1.1//EN"
  "http://www.w3.org/Graphics/SVG/1.1/DTD/svg11.dtd">
<svg xmlns:xlink="http://www.w3.org/1999/xlink" width="1458.14pt" height="418.280156pt" viewBox="0 0 1458.14 418.280156" xmlns="http://www.w3.org/2000/svg" version="1.1">
 <metadata>
  <rdf:RDF xmlns:dc="http://purl.org/dc/elements/1.1/" xmlns:cc="http://creativecommons.org/ns#" xmlns:rdf="http://www.w3.org/1999/02/22-rdf-syntax-ns#">
   <cc:Work>
    <dc:type rdf:resource="http://purl.org/dc/dcmitype/StillImage"/>
    <dc:date>2026-03-25T11:55:51.701603</dc:date>
    <dc:format>image/svg+xml</dc:format>
    <dc:creator>
     <cc:Agent>
      <dc:title>Matplotlib v3.10.7, https://matplotlib.org/</dc:title>
     </cc:Agent>
    </dc:creator>
   </cc:Work>
  </rdf:RDF>
 </metadata>
 <defs>
  <style type="text/css">*{stroke-linejoin: round; stroke-linecap: butt}</style>
 </defs>
 <g id="figure_1">
  <g id="patch_1">
   <path d="M 0 418.280156 
L 1458.14 418.280156 
L 1458.14 -0 
L 0 -0 
z
" style="fill: #ffffff"/>
  </g>
  <g id="axes_1">
   <g id="patch_2">
    <path d="M 101.56 336.640156 
L 402.50382 336.640156 
L 402.50382 31.720156 
L 101.56 31.720156 
z
" style="fill: #ffffff"/>
   </g>
   <g id="matplotlib.axis_1">
    <g id="xtick_1">
     <g id="line2d_1">
      <defs>
       <path id="m8834b1820d" d="M 0 0 
L 0 5 
" style="stroke: #000000; stroke-width: 1.6"/>
      </defs>
      <g>
       <use xlink:href="#m8834b1820d" x="101.56" y="336.640156" style="stroke: #000000; stroke-width: 1.6"/>
      </g>
     </g>
     <g id="text_1">
      <!-- -1 -->
      <g transform="translate(85.6075 369.455156) scale(0.32 -0.32)">
       <defs>
        <path id="DejaVuSans-2d" d="M 313 2009 
L 1997 2009 
L 1997 1497 
L 313 1497 
L 313 2009 
z
" transform="scale(0.015625)"/>
        <path id="DejaVuSans-31" d="M 794 531 
L 1825 531 
L 1825 4091 
L 703 3866 
L 703 4441 
L 1819 4666 
L 2450 4666 
L 2450 531 
L 3481 531 
L 3481 0 
L 794 0 
L 794 531 
z
" transform="scale(0.015625)"/>
       </defs>
       <use xlink:href="#DejaVuSans-2d"/>
       <use xlink:href="#DejaVuSans-31" transform="translate(36.083984 0)"/>
      </g>
     </g>
    </g>
    <g id="xtick_2">
     <g id="line2d_2">
      <g>
       <use xlink:href="#m8834b1820d" x="176.795955" y="336.640156" style="stroke: #000000; stroke-width: 1.6"/>
      </g>
     </g>
     <g id="text_2">
      <!-- 0 -->
      <g transform="translate(166.615955 369.455156) scale(0.32 -0.32)">
       <defs>
        <path id="DejaVuSans-30" d="M 2034 4250 
Q 1547 4250 1301 3770 
Q 1056 3291 1056 2328 
Q 1056 1369 1301 889 
Q 1547 409 2034 409 
Q 2525 409 2770 889 
Q 3016 1369 3016 2328 
Q 3016 3291 2770 3770 
Q 2525 4250 2034 4250 
z
M 2034 4750 
Q 2819 4750 3233 4129 
Q 3647 3509 3647 2328 
Q 3647 1150 3233 529 
Q 2819 -91 2034 -91 
Q 1250 -91 836 529 
Q 422 1150 422 2328 
Q 422 3509 836 4129 
Q 1250 4750 2034 4750 
z
" transform="scale(0.015625)"/>
       </defs>
       <use xlink:href="#DejaVuSans-30"/>
      </g>
     </g>
    </g>
    <g id="xtick_3">
     <g id="line2d_3">
      <g>
       <use xlink:href="#m8834b1820d" x="252.03191" y="336.640156" style="stroke: #000000; stroke-width: 1.6"/>
      </g>
     </g>
     <g id="text_3">
      <!-- 1 -->
      <g transform="translate(241.85191 369.455156) scale(0.32 -0.32)">
       <use xlink:href="#DejaVuSans-31"/>
      </g>
     </g>
    </g>
    <g id="xtick_4">
     <g id="line2d_4">
      <g>
       <use xlink:href="#m8834b1820d" x="327.267865" y="336.640156" style="stroke: #000000; stroke-width: 1.6"/>
      </g>
     </g>
     <g id="text_4">
      <!-- 2 -->
      <g transform="translate(317.087865 369.455156) scale(0.32 -0.32)">
       <defs>
        <path id="DejaVuSans-32" d="M 1228 531 
L 3431 531 
L 3431 0 
L 469 0 
L 469 531 
Q 828 903 1448 1529 
Q 2069 2156 2228 2338 
Q 2531 2678 2651 2914 
Q 2772 3150 2772 3378 
Q 2772 3750 2511 3984 
Q 2250 4219 1831 4219 
Q 1534 4219 1204 4116 
Q 875 4013 500 3803 
L 500 4441 
Q 881 4594 1212 4672 
Q 1544 4750 1819 4750 
Q 2544 4750 2975 4387 
Q 3406 4025 3406 3419 
Q 3406 3131 3298 2873 
Q 3191 2616 2906 2266 
Q 2828 2175 2409 1742 
Q 1991 1309 1228 531 
z
" transform="scale(0.015625)"/>
       </defs>
       <use xlink:href="#DejaVuSans-32"/>
      </g>
     </g>
    </g>
    <g id="xtick_5">
     <g id="line2d_5">
      <g>
       <use xlink:href="#m8834b1820d" x="402.50382" y="336.640156" style="stroke: #000000; stroke-width: 1.6"/>
      </g>
     </g>
     <g id="text_5">
      <!-- 3 -->
      <g transform="translate(392.32382 369.455156) scale(0.32 -0.32)">
       <defs>
        <path id="DejaVuSans-33" d="M 2597 2516 
Q 3050 2419 3304 2112 
Q 3559 1806 3559 1356 
Q 3559 666 3084 287 
Q 2609 -91 1734 -91 
Q 1441 -91 1130 -33 
Q 819 25 488 141 
L 488 750 
Q 750 597 1062 519 
Q 1375 441 1716 441 
Q 2309 441 2620 675 
Q 2931 909 2931 1356 
Q 2931 1769 2642 2001 
Q 2353 2234 1838 2234 
L 1294 2234 
L 1294 2753 
L 1863 2753 
Q 2328 2753 2575 2939 
Q 2822 3125 2822 3475 
Q 2822 3834 2567 4026 
Q 2313 4219 1838 4219 
Q 1578 4219 1281 4162 
Q 984 4106 628 3988 
L 628 4550 
Q 988 4650 1302 4700 
Q 1616 4750 1894 4750 
Q 2613 4750 3031 4423 
Q 3450 4097 3450 3541 
Q 3450 3153 3228 2886 
Q 3006 2619 2597 2516 
z
" transform="scale(0.015625)"/>
       </defs>
       <use xlink:href="#DejaVuSans-33"/>
      </g>
     </g>
    </g>
    <g id="text_6">
     <!-- Time (s) -->
     <g transform="translate(186.97941 404.425156) scale(0.32 -0.32)">
      <defs>
       <path id="DejaVuSans-54" d="M -19 4666 
L 3928 4666 
L 3928 4134 
L 2272 4134 
L 2272 0 
L 1638 0 
L 1638 4134 
L -19 4134 
L -19 4666 
z
" transform="scale(0.015625)"/>
       <path id="DejaVuSans-69" d="M 603 3500 
L 1178 3500 
L 1178 0 
L 603 0 
L 603 3500 
z
M 603 4863 
L 1178 4863 
L 1178 4134 
L 603 4134 
L 603 4863 
z
" transform="scale(0.015625)"/>
       <path id="DejaVuSans-6d" d="M 3328 2828 
Q 3544 3216 3844 3400 
Q 4144 3584 4550 3584 
Q 5097 3584 5394 3201 
Q 5691 2819 5691 2113 
L 5691 0 
L 5113 0 
L 5113 2094 
Q 5113 2597 4934 2840 
Q 4756 3084 4391 3084 
Q 3944 3084 3684 2787 
Q 3425 2491 3425 1978 
L 3425 0 
L 2847 0 
L 2847 2094 
Q 2847 2600 2669 2842 
Q 2491 3084 2119 3084 
Q 1678 3084 1418 2786 
Q 1159 2488 1159 1978 
L 1159 0 
L 581 0 
L 581 3500 
L 1159 3500 
L 1159 2956 
Q 1356 3278 1631 3431 
Q 1906 3584 2284 3584 
Q 2666 3584 2933 3390 
Q 3200 3197 3328 2828 
z
" transform="scale(0.015625)"/>
       <path id="DejaVuSans-65" d="M 3597 1894 
L 3597 1613 
L 953 1613 
Q 991 1019 1311 708 
Q 1631 397 2203 397 
Q 2534 397 2845 478 
Q 3156 559 3463 722 
L 3463 178 
Q 3153 47 2828 -22 
Q 2503 -91 2169 -91 
Q 1331 -91 842 396 
Q 353 884 353 1716 
Q 353 2575 817 3079 
Q 1281 3584 2069 3584 
Q 2775 3584 3186 3129 
Q 3597 2675 3597 1894 
z
M 3022 2063 
Q 3016 2534 2758 2815 
Q 2500 3097 2075 3097 
Q 1594 3097 1305 2825 
Q 1016 2553 972 2059 
L 3022 2063 
z
" transform="scale(0.015625)"/>
       <path id="DejaVuSans-20" transform="scale(0.015625)"/>
       <path id="DejaVuSans-28" d="M 1984 4856 
Q 1566 4138 1362 3434 
Q 1159 2731 1159 2009 
Q 1159 1288 1364 580 
Q 1569 -128 1984 -844 
L 1484 -844 
Q 1016 -109 783 600 
Q 550 1309 550 2009 
Q 550 2706 781 3412 
Q 1013 4119 1484 4856 
L 1984 4856 
z
" transform="scale(0.015625)"/>
       <path id="DejaVuSans-73" d="M 2834 3397 
L 2834 2853 
Q 2591 2978 2328 3040 
Q 2066 3103 1784 3103 
Q 1356 3103 1142 2972 
Q 928 2841 928 2578 
Q 928 2378 1081 2264 
Q 1234 2150 1697 2047 
L 1894 2003 
Q 2506 1872 2764 1633 
Q 3022 1394 3022 966 
Q 3022 478 2636 193 
Q 2250 -91 1575 -91 
Q 1294 -91 989 -36 
Q 684 19 347 128 
L 347 722 
Q 666 556 975 473 
Q 1284 391 1588 391 
Q 1994 391 2212 530 
Q 2431 669 2431 922 
Q 2431 1156 2273 1281 
Q 2116 1406 1581 1522 
L 1381 1569 
Q 847 1681 609 1914 
Q 372 2147 372 2553 
Q 372 3047 722 3315 
Q 1072 3584 1716 3584 
Q 2034 3584 2315 3537 
Q 2597 3491 2834 3397 
z
" transform="scale(0.015625)"/>
       <path id="DejaVuSans-29" d="M 513 4856 
L 1013 4856 
Q 1481 4119 1714 3412 
Q 1947 2706 1947 2009 
Q 1947 1309 1714 600 
Q 1481 -109 1013 -844 
L 513 -844 
Q 928 -128 1133 580 
Q 1338 1288 1338 2009 
Q 1338 2731 1133 3434 
Q 928 4138 513 4856 
z
" transform="scale(0.015625)"/>
      </defs>
      <use xlink:href="#DejaVuSans-54"/>
      <use xlink:href="#DejaVuSans-69" transform="translate(57.958984 0)"/>
      <use xlink:href="#DejaVuSans-6d" transform="translate(85.742188 0)"/>
      <use xlink:href="#DejaVuSans-65" transform="translate(183.154297 0)"/>
      <use xlink:href="#DejaVuSans-20" transform="translate(244.677734 0)"/>
      <use xlink:href="#DejaVuSans-28" transform="translate(276.464844 0)"/>
      <use xlink:href="#DejaVuSans-73" transform="translate(315.478516 0)"/>
      <use xlink:href="#DejaVuSans-29" transform="translate(367.578125 0)"/>
     </g>
    </g>
   </g>
   <g id="matplotlib.axis_2">
    <g id="ytick_1">
     <g id="line2d_6">
      <defs>
       <path id="m9e7d568624" d="M 0 0 
L -5 0 
" style="stroke: #000000; stroke-width: 1.6"/>
      </defs>
      <g>
       <use xlink:href="#m9e7d568624" x="101.56" y="315.612291" style="stroke: #000000; stroke-width: 1.6"/>
      </g>
     </g>
     <g id="text_7">
      <!-- 0.0 -->
      <g transform="translate(42.17 327.769791) scale(0.32 -0.32)">
       <defs>
        <path id="DejaVuSans-2e" d="M 684 794 
L 1344 794 
L 1344 0 
L 684 0 
L 684 794 
z
" transform="scale(0.015625)"/>
       </defs>
       <use xlink:href="#DejaVuSans-30"/>
       <use xlink:href="#DejaVuSans-2e" transform="translate(63.623047 0)"/>
       <use xlink:href="#DejaVuSans-30" transform="translate(95.410156 0)"/>
      </g>
     </g>
    </g>
    <g id="ytick_2">
     <g id="line2d_7">
      <g>
       <use xlink:href="#m9e7d568624" x="101.56" y="210.024804" style="stroke: #000000; stroke-width: 1.6"/>
      </g>
     </g>
     <g id="text_8">
      <!-- 0.1 -->
      <g transform="translate(42.17 222.182304) scale(0.32 -0.32)">
       <use xlink:href="#DejaVuSans-30"/>
       <use xlink:href="#DejaVuSans-2e" transform="translate(63.623047 0)"/>
       <use xlink:href="#DejaVuSans-31" transform="translate(95.410156 0)"/>
      </g>
     </g>
    </g>
    <g id="ytick_3">
     <g id="line2d_8">
      <g>
       <use xlink:href="#m9e7d568624" x="101.56" y="104.437317" style="stroke: #000000; stroke-width: 1.6"/>
      </g>
     </g>
     <g id="text_9">
      <!-- 0.2 -->
      <g transform="translate(42.17 116.594817) scale(0.32 -0.32)">
       <use xlink:href="#DejaVuSans-30"/>
       <use xlink:href="#DejaVuSans-2e" transform="translate(63.623047 0)"/>
       <use xlink:href="#DejaVuSans-32" transform="translate(95.410156 0)"/>
      </g>
     </g>
    </g>
    <g id="text_10">
     <!-- Neural Activity -->
     <g transform="translate(31.515 301.885156) rotate(-90) scale(0.32 -0.32)">
      <defs>
       <path id="DejaVuSans-4e" d="M 628 4666 
L 1478 4666 
L 3547 763 
L 3547 4666 
L 4159 4666 
L 4159 0 
L 3309 0 
L 1241 3903 
L 1241 0 
L 628 0 
L 628 4666 
z
" transform="scale(0.015625)"/>
       <path id="DejaVuSans-75" d="M 544 1381 
L 544 3500 
L 1119 3500 
L 1119 1403 
Q 1119 906 1312 657 
Q 1506 409 1894 409 
Q 2359 409 2629 706 
Q 2900 1003 2900 1516 
L 2900 3500 
L 3475 3500 
L 3475 0 
L 2900 0 
L 2900 538 
Q 2691 219 2414 64 
Q 2138 -91 1772 -91 
Q 1169 -91 856 284 
Q 544 659 544 1381 
z
M 1991 3584 
L 1991 3584 
z
" transform="scale(0.015625)"/>
       <path id="DejaVuSans-72" d="M 2631 2963 
Q 2534 3019 2420 3045 
Q 2306 3072 2169 3072 
Q 1681 3072 1420 2755 
Q 1159 2438 1159 1844 
L 1159 0 
L 581 0 
L 581 3500 
L 1159 3500 
L 1159 2956 
Q 1341 3275 1631 3429 
Q 1922 3584 2338 3584 
Q 2397 3584 2469 3576 
Q 2541 3569 2628 3553 
L 2631 2963 
z
" transform="scale(0.015625)"/>
       <path id="DejaVuSans-61" d="M 2194 1759 
Q 1497 1759 1228 1600 
Q 959 1441 959 1056 
Q 959 750 1161 570 
Q 1363 391 1709 391 
Q 2188 391 2477 730 
Q 2766 1069 2766 1631 
L 2766 1759 
L 2194 1759 
z
M 3341 1997 
L 3341 0 
L 2766 0 
L 2766 531 
Q 2569 213 2275 61 
Q 1981 -91 1556 -91 
Q 1019 -91 701 211 
Q 384 513 384 1019 
Q 384 1609 779 1909 
Q 1175 2209 1959 2209 
L 2766 2209 
L 2766 2266 
Q 2766 2663 2505 2880 
Q 2244 3097 1772 3097 
Q 1472 3097 1187 3025 
Q 903 2953 641 2809 
L 641 3341 
Q 956 3463 1253 3523 
Q 1550 3584 1831 3584 
Q 2591 3584 2966 3190 
Q 3341 2797 3341 1997 
z
" transform="scale(0.015625)"/>
       <path id="DejaVuSans-6c" d="M 603 4863 
L 1178 4863 
L 1178 0 
L 603 0 
L 603 4863 
z
" transform="scale(0.015625)"/>
       <path id="DejaVuSans-41" d="M 2188 4044 
L 1331 1722 
L 3047 1722 
L 2188 4044 
z
M 1831 4666 
L 2547 4666 
L 4325 0 
L 3669 0 
L 3244 1197 
L 1141 1197 
L 716 0 
L 50 0 
L 1831 4666 
z
" transform="scale(0.015625)"/>
       <path id="DejaVuSans-63" d="M 3122 3366 
L 3122 2828 
Q 2878 2963 2633 3030 
Q 2388 3097 2138 3097 
Q 1578 3097 1268 2742 
Q 959 2388 959 1747 
Q 959 1106 1268 751 
Q 1578 397 2138 397 
Q 2388 397 2633 464 
Q 2878 531 3122 666 
L 3122 134 
Q 2881 22 2623 -34 
Q 2366 -91 2075 -91 
Q 1284 -91 818 406 
Q 353 903 353 1747 
Q 353 2603 823 3093 
Q 1294 3584 2113 3584 
Q 2378 3584 2631 3529 
Q 2884 3475 3122 3366 
z
" transform="scale(0.015625)"/>
       <path id="DejaVuSans-74" d="M 1172 4494 
L 1172 3500 
L 2356 3500 
L 2356 3053 
L 1172 3053 
L 1172 1153 
Q 1172 725 1289 603 
Q 1406 481 1766 481 
L 2356 481 
L 2356 0 
L 1766 0 
Q 1100 0 847 248 
Q 594 497 594 1153 
L 594 3053 
L 172 3053 
L 172 3500 
L 594 3500 
L 594 4494 
L 1172 4494 
z
" transform="scale(0.015625)"/>
       <path id="DejaVuSans-76" d="M 191 3500 
L 800 3500 
L 1894 563 
L 2988 3500 
L 3597 3500 
L 2284 0 
L 1503 0 
L 191 3500 
z
" transform="scale(0.015625)"/>
       <path id="DejaVuSans-79" d="M 2059 -325 
Q 1816 -950 1584 -1140 
Q 1353 -1331 966 -1331 
L 506 -1331 
L 506 -850 
L 844 -850 
Q 1081 -850 1212 -737 
Q 1344 -625 1503 -206 
L 1606 56 
L 191 3500 
L 800 3500 
L 1894 763 
L 2988 3500 
L 3597 3500 
L 2059 -325 
z
" transform="scale(0.015625)"/>
      </defs>
      <use xlink:href="#DejaVuSans-4e"/>
      <use xlink:href="#DejaVuSans-65" transform="translate(74.804688 0)"/>
      <use xlink:href="#DejaVuSans-75" transform="translate(136.328125 0)"/>
      <use xlink:href="#DejaVuSans-72" transform="translate(199.707031 0)"/>
      <use xlink:href="#DejaVuSans-61" transform="translate(240.820312 0)"/>
      <use xlink:href="#DejaVuSans-6c" transform="translate(302.099609 0)"/>
      <use xlink:href="#DejaVuSans-20" transform="translate(329.882812 0)"/>
      <use xlink:href="#DejaVuSans-41" transform="translate(361.669922 0)"/>
      <use xlink:href="#DejaVuSans-63" transform="translate(428.328125 0)"/>
      <use xlink:href="#DejaVuSans-74" transform="translate(483.308594 0)"/>
      <use xlink:href="#DejaVuSans-69" transform="translate(522.517578 0)"/>
      <use xlink:href="#DejaVuSans-76" transform="translate(550.300781 0)"/>
      <use xlink:href="#DejaVuSans-69" transform="translate(609.480469 0)"/>
      <use xlink:href="#DejaVuSans-74" transform="translate(637.263672 0)"/>
      <use xlink:href="#DejaVuSans-79" transform="translate(676.472656 0)"/>
     </g>
    </g>
   </g>
   <g id="line2d_9">
    <path d="M 102.31236 307.981811 
L 103.064719 307.821459 
L 106.074157 309.26661 
L 108.331236 310.171663 
L 109.083596 310.187446 
L 112.093034 311.193721 
L 115.102472 312.013339 
L 115.854831 311.514002 
L 116.607191 309.045373 
L 119.616629 310.263496 
L 122.626067 311.255664 
L 126.387865 312.241216 
L 129.397303 312.86653 
L 131.654382 313.205418 
L 136.168539 313.843018 
L 141.435056 314.376742 
L 144.444494 314.605929 
L 145.196854 313.72071 
L 145.949213 308.722466 
L 147.453933 309.30948 
L 149.711011 310.152622 
L 150.463371 309.777315 
L 151.21573 309.72438 
L 153.472809 310.564144 
L 154.225169 309.844179 
L 154.977528 308.08996 
L 155.729888 306.77109 
L 157.986966 308.032067 
L 159.491685 308.672845 
L 162.501124 309.960069 
L 164.758202 310.766218 
L 165.510562 308.31617 
L 167.015281 308.926999 
L 170.024719 310.167079 
L 173.034157 311.177132 
L 176.795955 312.18045 
L 180.557753 312.956798 
L 185.07191 313.66026 
L 190.338427 314.249115 
L 197.109663 314.75315 
L 205.385618 315.123612 
L 216.671011 315.38589 
L 233.975281 315.542705 
L 255.793708 315.596569 
L 256.546067 309.651167 
L 259.555506 310.756918 
L 263.317303 311.855296 
L 264.822022 312.221603 
L 265.574382 311.543362 
L 267.079101 311.940083 
L 267.831461 310.74753 
L 271.593258 311.848032 
L 274.602697 312.546279 
L 275.355056 311.60663 
L 279.116854 312.512787 
L 279.869213 312.667762 
L 280.621573 312.575265 
L 281.373933 310.198956 
L 282.878652 310.726756 
L 284.383371 309.810622 
L 285.13573 309.949919 
L 285.88809 310.233038 
L 286.640449 309.493115 
L 287.392809 309.609811 
L 288.145169 307.290477 
L 288.897528 302.377981 
L 290.402247 302.775468 
L 292.659326 304.60632 
L 294.916404 306.176047 
L 297.173483 307.521891 
L 300.182921 309.02261 
L 300.935281 305.017725 
L 303.19236 306.528775 
L 303.944719 306.982951 
L 304.697079 305.910072 
L 306.201798 306.856039 
L 306.954157 306.08985 
L 309.211236 307.447989 
L 312.220674 308.962416 
L 315.230112 310.195926 
L 315.982472 305.32603 
L 316.734831 305.605741 
L 318.239551 306.581379 
L 318.99191 304.246834 
L 319.74427 302.801321 
L 320.496629 303.133532 
L 322.753708 304.913315 
L 325.010787 306.439257 
L 327.267865 307.747561 
L 330.277303 309.20642 
L 332.534382 310.079265 
L 334.039101 310.618735 
L 334.791461 308.849331 
L 335.54382 305.877657 
L 337.800899 307.26606 
L 340.810337 308.814235 
L 343.819775 310.075232 
L 346.829213 311.102322 
L 349.838652 311.938894 
L 350.591011 311.258786 
L 354.352809 312.243632 
L 358.114607 313.005687 
L 361.124045 313.489196 
L 361.876404 313.433091 
L 362.628764 310.783543 
L 366.390562 311.875898 
L 370.15236 312.721142 
L 374.666517 313.487031 
L 379.933034 314.128142 
L 382.190112 314.339819 
L 382.942472 310.564498 
L 383.694831 310.816887 
L 384.447191 310.865045 
L 387.456629 311.74563 
L 388.208989 310.277216 
L 391.218427 311.266839 
L 391.970787 311.484111 
L 392.723146 310.799556 
L 396.484944 311.888289 
L 400.246742 312.730729 
L 401.751461 313.011682 
L 401.751461 313.011682 
" clip-path="url(#p85bd564c4d)" style="fill: none; stroke: #000000; stroke-width: 5; stroke-linecap: square"/>
   </g>
   <g id="line2d_10">
    <path d="M 102.31236 309.374338 
L 104.569438 310.264027 
L 105.321798 308.918669 
L 108.331236 310.160295 
L 111.340674 311.171606 
L 115.102472 312.176174 
L 116.607191 310.267421 
L 117.359551 307.234059 
L 118.11191 302.512095 
L 118.86427 298.591293 
L 119.616629 299.442343 
L 120.368989 289.569053 
L 121.121348 281.802664 
L 123.378427 286.624763 
L 125.635506 290.759109 
L 127.892584 294.303796 
L 130.149663 297.34292 
L 132.406742 299.94859 
L 133.159101 300.731775 
L 133.911461 297.86944 
L 134.66382 298.756582 
L 135.41618 296.80737 
L 136.168539 297.747616 
L 136.920899 296.867548 
L 139.177978 299.541017 
L 141.435056 301.833182 
L 142.187416 295.725241 
L 142.939775 291.850248 
L 143.692135 293.038349 
L 144.444494 292.458759 
L 145.196854 293.616435 
L 145.949213 289.790071 
L 146.701573 291.081181 
L 147.453933 291.983528 
L 148.958652 294.287333 
L 149.711011 291.133284 
L 151.21573 293.519987 
L 151.96809 293.769782 
L 154.225169 296.885071 
L 156.482247 299.556042 
L 157.234607 300.358855 
L 157.986966 295.595882 
L 160.244045 298.450722 
L 162.501124 300.898392 
L 164.758202 302.996962 
L 165.510562 298.255454 
L 167.76764 300.730974 
L 168.52 301.47504 
L 169.27236 301.188415 
L 171.529438 303.245621 
L 172.281798 303.863955 
L 173.034157 301.250411 
L 175.291236 303.298774 
L 176.043596 301.760388 
L 177.548315 246.630602 
L 178.300674 232.606503 
L 179.805393 213.290266 
L 181.310112 202.601102 
L 182.062472 203.24938 
L 182.814831 200.973665 
L 183.567191 201.741535 
L 184.319551 203.216166 
L 185.07191 205.196197 
L 185.82427 203.64333 
L 186.576629 200.732655 
L 187.328989 195.912853 
L 188.833708 180.058272 
L 189.586067 184.044082 
L 191.843146 202.809 
L 192.595506 203.80055 
L 193.347865 200.369386 
L 194.852584 202.591662 
L 195.604944 202.606145 
L 196.357303 200.002357 
L 197.109663 203.835605 
L 197.862022 198.314494 
L 198.614382 188.438514 
L 199.366742 180.801016 
L 200.119101 181.803949 
L 202.37618 200.888372 
L 203.128539 206.58847 
L 203.880899 203.042977 
L 204.633258 202.237141 
L 205.385618 204.615968 
L 206.137978 208.29224 
L 206.890337 201.455087 
L 207.642697 199.575484 
L 208.395056 202.083595 
L 209.147416 199.303959 
L 209.899775 194.476141 
L 210.652135 194.499167 
L 211.404494 192.48412 
L 213.661573 208.348284 
L 214.413933 199.766956 
L 215.166292 196.953225 
L 215.918652 197.365032 
L 216.671011 201.623627 
L 218.17573 188.956941 
L 218.92809 191.202716 
L 219.680449 187.339196 
L 220.432809 188.416927 
L 221.937528 195.297333 
L 222.689888 195.190894 
L 223.442247 191.29464 
L 224.194607 193.681908 
L 224.946966 199.778426 
L 225.699326 194.51708 
L 226.451685 194.197716 
L 227.204045 191.478497 
L 227.956404 188.059708 
L 228.708764 190.594205 
L 229.461124 195.829252 
L 230.213483 199.192548 
L 230.965843 195.460429 
L 231.718202 196.02583 
L 232.470562 202.005155 
L 233.222921 204.815094 
L 233.975281 209.720197 
L 234.72764 203.16209 
L 235.48 206.111808 
L 236.23236 206.736627 
L 236.984719 202.432216 
L 237.737079 193.586963 
L 238.489438 192.627502 
L 239.241798 197.371908 
L 240.746517 201.86451 
L 241.498876 202.562877 
L 242.251236 199.146582 
L 243.003596 202.295616 
L 243.755955 199.297657 
L 244.508315 201.744761 
L 245.260674 205.526819 
L 246.013034 205.812992 
L 246.765393 203.476568 
L 247.517753 198.340423 
L 248.270112 196.165923 
L 249.022472 196.011307 
L 249.774831 193.405639 
L 250.527191 196.442318 
L 251.279551 200.930043 
L 253.536629 217.286602 
L 255.793708 231.310308 
L 258.050787 243.333876 
L 260.307865 253.642585 
L 262.564944 262.481018 
L 264.822022 270.058866 
L 267.079101 276.555926 
L 269.33618 282.126342 
L 271.593258 286.902277 
L 273.850337 290.997043 
L 274.602697 292.227805 
L 275.355056 292.596681 
L 276.107416 289.056577 
L 278.364494 292.844086 
L 280.621573 296.091401 
L 282.878652 298.875567 
L 283.631011 299.712403 
L 284.383371 298.651457 
L 286.640449 301.070497 
L 287.392809 301.797586 
L 288.145169 301.881048 
L 288.897528 294.785023 
L 289.649888 291.631741 
L 291.906966 295.05197 
L 294.164045 297.984387 
L 295.668764 299.703108 
L 296.421124 299.386345 
L 297.925843 300.968376 
L 298.678202 301.608936 
L 299.430562 301.919396 
L 300.182921 302.604041 
L 300.935281 301.891979 
L 301.68764 302.577994 
L 302.44 300.507315 
L 303.19236 301.262564 
L 303.944719 301.631184 
L 304.697079 299.687205 
L 305.449438 299.085296 
L 306.954157 300.696678 
L 307.706517 300.276728 
L 308.458876 301.043506 
L 309.211236 297.84498 
L 309.963596 290.591336 
L 312.220674 294.15995 
L 314.477753 297.219592 
L 316.734831 299.84285 
L 318.99191 302.091967 
L 319.74427 302.572313 
L 320.496629 298.460463 
L 322.753708 300.906742 
L 324.258427 302.340535 
L 325.010787 301.195584 
L 327.267865 303.251766 
L 328.772584 304.456917 
L 329.524944 299.343017 
L 330.277303 292.451207 
L 331.029663 293.609261 
L 331.782022 291.81881 
L 332.534382 288.281691 
L 334.791461 292.179719 
L 337.048539 295.52179 
L 341.562697 300.752112 
L 343.819775 302.871546 
L 346.076854 304.688695 
L 347.581573 305.753746 
L 348.333933 302.893455 
L 350.591011 304.707479 
L 352.84809 306.262779 
L 355.105169 307.596253 
L 355.857528 306.759661 
L 358.866966 308.401769 
L 361.876404 309.739276 
L 364.885843 310.828684 
L 366.390562 311.295085 
L 367.142921 307.811592 
L 370.15236 309.258573 
L 373.161798 310.437148 
L 373.914157 309.426949 
L 376.923596 310.574292 
L 378.428315 311.065497 
L 379.180674 302.853649 
L 380.685393 304.097617 
L 381.437753 303.37963 
L 383.694831 305.079064 
L 385.95191 306.581366 
L 388.208989 307.869402 
L 391.218427 309.30566 
L 391.970787 300.457555 
L 392.723146 299.100314 
L 394.227865 300.710232 
L 394.980225 300.581865 
L 397.237303 302.725579 
L 397.989663 302.97058 
L 400.246742 304.773605 
L 401.751461 305.830377 
L 401.751461 305.830377 
" clip-path="url(#p85bd564c4d)" style="fill: none; stroke: #ff0000; stroke-width: 5; stroke-linecap: square"/>
   </g>
   <g id="patch_3">
    <path d="M 101.56 336.640156 
L 101.56 31.720156 
" style="fill: none; stroke: #000000; stroke-width: 5; stroke-linejoin: miter; stroke-linecap: square"/>
   </g>
   <g id="patch_4">
    <path d="M 101.56 336.640156 
L 402.50382 336.640156 
" style="fill: none; stroke: #000000; stroke-width: 5; stroke-linejoin: miter; stroke-linecap: square"/>
   </g>
   <g id="text_11">
    <!-- A -->
    <g transform="translate(65.446742 16.444681) scale(0.12 -0.12)">
     <defs>
      <path id="DejaVuSans-Bold-41" d="M 3419 850 
L 1538 850 
L 1241 0 
L 31 0 
L 1759 4666 
L 3194 4666 
L 4922 0 
L 3713 0 
L 3419 850 
z
M 1838 1716 
L 3116 1716 
L 2478 3572 
L 1838 1716 
z
" transform="scale(0.015625)"/>
     </defs>
     <use xlink:href="#DejaVuSans-Bold-41"/>
    </g>
   </g>
   <g id="patch_5">
    <path d="M 176.795955 330.541756 
L 252.03191 330.541756 
L 252.03191 319.869556 
L 176.795955 319.869556 
z
" style="fill: #8c5a2b; stroke: #8c5a2b; stroke-linejoin: miter"/>
   </g>
   <g id="text_12">
    <!-- Familiar | Naive -->
    <g transform="translate(178.439566 21.720156) scale(0.19 -0.19)">
     <defs>
      <path id="DejaVuSans-46" d="M 628 4666 
L 3309 4666 
L 3309 4134 
L 1259 4134 
L 1259 2759 
L 3109 2759 
L 3109 2228 
L 1259 2228 
L 1259 0 
L 628 0 
L 628 4666 
z
" transform="scale(0.015625)"/>
      <path id="DejaVuSans-7c" d="M 1344 4891 
L 1344 -1509 
L 813 -1509 
L 813 4891 
L 1344 4891 
z
" transform="scale(0.015625)"/>
     </defs>
     <use xlink:href="#DejaVuSans-46"/>
     <use xlink:href="#DejaVuSans-61" transform="translate(48.394531 0)"/>
     <use xlink:href="#DejaVuSans-6d" transform="translate(109.673828 0)"/>
     <use xlink:href="#DejaVuSans-69" transform="translate(207.085938 0)"/>
     <use xlink:href="#DejaVuSans-6c" transform="translate(234.869141 0)"/>
     <use xlink:href="#DejaVuSans-69" transform="translate(262.652344 0)"/>
     <use xlink:href="#DejaVuSans-61" transform="translate(290.435547 0)"/>
     <use xlink:href="#DejaVuSans-72" transform="translate(351.714844 0)"/>
     <use xlink:href="#DejaVuSans-20" transform="translate(392.828125 0)"/>
     <use xlink:href="#DejaVuSans-7c" transform="translate(424.615234 0)"/>
     <use xlink:href="#DejaVuSans-20" transform="translate(458.306641 0)"/>
     <use xlink:href="#DejaVuSans-4e" transform="translate(490.09375 0)"/>
     <use xlink:href="#DejaVuSans-61" transform="translate(564.898438 0)"/>
     <use xlink:href="#DejaVuSans-69" transform="translate(626.177734 0)"/>
     <use xlink:href="#DejaVuSans-76" transform="translate(653.960938 0)"/>
     <use xlink:href="#DejaVuSans-65" transform="translate(713.140625 0)"/>
    </g>
   </g>
   <g id="legend_1">
    <g id="line2d_11">
     <path d="M 110.56 46.867813 
L 125.56 46.867813 
L 140.56 46.867813 
" style="fill: none; stroke: #000000; stroke-width: 5; stroke-linecap: square"/>
    </g>
    <g id="text_13">
     <!-- Nonoccluded (NO) -->
     <g transform="translate(152.56 52.117813) scale(0.15 -0.15)">
      <defs>
       <path id="DejaVuSans-6f" d="M 1959 3097 
Q 1497 3097 1228 2736 
Q 959 2375 959 1747 
Q 959 1119 1226 758 
Q 1494 397 1959 397 
Q 2419 397 2687 759 
Q 2956 1122 2956 1747 
Q 2956 2369 2687 2733 
Q 2419 3097 1959 3097 
z
M 1959 3584 
Q 2709 3584 3137 3096 
Q 3566 2609 3566 1747 
Q 3566 888 3137 398 
Q 2709 -91 1959 -91 
Q 1206 -91 779 398 
Q 353 888 353 1747 
Q 353 2609 779 3096 
Q 1206 3584 1959 3584 
z
" transform="scale(0.015625)"/>
       <path id="DejaVuSans-6e" d="M 3513 2113 
L 3513 0 
L 2938 0 
L 2938 2094 
Q 2938 2591 2744 2837 
Q 2550 3084 2163 3084 
Q 1697 3084 1428 2787 
Q 1159 2491 1159 1978 
L 1159 0 
L 581 0 
L 581 3500 
L 1159 3500 
L 1159 2956 
Q 1366 3272 1645 3428 
Q 1925 3584 2291 3584 
Q 2894 3584 3203 3211 
Q 3513 2838 3513 2113 
z
" transform="scale(0.015625)"/>
       <path id="DejaVuSans-64" d="M 2906 2969 
L 2906 4863 
L 3481 4863 
L 3481 0 
L 2906 0 
L 2906 525 
Q 2725 213 2448 61 
Q 2172 -91 1784 -91 
Q 1150 -91 751 415 
Q 353 922 353 1747 
Q 353 2572 751 3078 
Q 1150 3584 1784 3584 
Q 2172 3584 2448 3432 
Q 2725 3281 2906 2969 
z
M 947 1747 
Q 947 1113 1208 752 
Q 1469 391 1925 391 
Q 2381 391 2643 752 
Q 2906 1113 2906 1747 
Q 2906 2381 2643 2742 
Q 2381 3103 1925 3103 
Q 1469 3103 1208 2742 
Q 947 2381 947 1747 
z
" transform="scale(0.015625)"/>
       <path id="DejaVuSans-4f" d="M 2522 4238 
Q 1834 4238 1429 3725 
Q 1025 3213 1025 2328 
Q 1025 1447 1429 934 
Q 1834 422 2522 422 
Q 3209 422 3611 934 
Q 4013 1447 4013 2328 
Q 4013 3213 3611 3725 
Q 3209 4238 2522 4238 
z
M 2522 4750 
Q 3503 4750 4090 4092 
Q 4678 3434 4678 2328 
Q 4678 1225 4090 567 
Q 3503 -91 2522 -91 
Q 1538 -91 948 565 
Q 359 1222 359 2328 
Q 359 3434 948 4092 
Q 1538 4750 2522 4750 
z
" transform="scale(0.015625)"/>
      </defs>
      <use xlink:href="#DejaVuSans-4e"/>
      <use xlink:href="#DejaVuSans-6f" transform="translate(74.804688 0)"/>
      <use xlink:href="#DejaVuSans-6e" transform="translate(135.986328 0)"/>
      <use xlink:href="#DejaVuSans-6f" transform="translate(199.365234 0)"/>
      <use xlink:href="#DejaVuSans-63" transform="translate(260.546875 0)"/>
      <use xlink:href="#DejaVuSans-63" transform="translate(315.527344 0)"/>
      <use xlink:href="#DejaVuSans-6c" transform="translate(370.507812 0)"/>
      <use xlink:href="#DejaVuSans-75" transform="translate(398.291016 0)"/>
      <use xlink:href="#DejaVuSans-64" transform="translate(461.669922 0)"/>
      <use xlink:href="#DejaVuSans-65" transform="translate(525.146484 0)"/>
      <use xlink:href="#DejaVuSans-64" transform="translate(586.669922 0)"/>
      <use xlink:href="#DejaVuSans-20" transform="translate(650.146484 0)"/>
      <use xlink:href="#DejaVuSans-28" transform="translate(681.933594 0)"/>
      <use xlink:href="#DejaVuSans-4e" transform="translate(720.947266 0)"/>
      <use xlink:href="#DejaVuSans-4f" transform="translate(795.751953 0)"/>
      <use xlink:href="#DejaVuSans-29" transform="translate(874.462891 0)"/>
     </g>
    </g>
    <g id="line2d_12">
     <path d="M 110.56 68.885 
L 125.56 68.885 
L 140.56 68.885 
" style="fill: none; stroke: #ff0000; stroke-width: 5; stroke-linecap: square"/>
    </g>
    <g id="text_14">
     <!-- Occluded (O) -->
     <g transform="translate(152.56 74.135) scale(0.15 -0.15)">
      <use xlink:href="#DejaVuSans-4f"/>
      <use xlink:href="#DejaVuSans-63" transform="translate(78.710938 0)"/>
      <use xlink:href="#DejaVuSans-63" transform="translate(133.691406 0)"/>
      <use xlink:href="#DejaVuSans-6c" transform="translate(188.671875 0)"/>
      <use xlink:href="#DejaVuSans-75" transform="translate(216.455078 0)"/>
      <use xlink:href="#DejaVuSans-64" transform="translate(279.833984 0)"/>
      <use xlink:href="#DejaVuSans-65" transform="translate(343.310547 0)"/>
      <use xlink:href="#DejaVuSans-64" transform="translate(404.833984 0)"/>
      <use xlink:href="#DejaVuSans-20" transform="translate(468.310547 0)"/>
      <use xlink:href="#DejaVuSans-28" transform="translate(500.097656 0)"/>
      <use xlink:href="#DejaVuSans-4f" transform="translate(539.111328 0)"/>
      <use xlink:href="#DejaVuSans-29" transform="translate(617.822266 0)"/>
     </g>
    </g>
    <g id="line2d_13">
     <path d="M 110.56 90.902188 
L 125.56 90.902188 
L 140.56 90.902188 
" style="fill: none; stroke: #0000ff; stroke-width: 5; stroke-linecap: square"/>
    </g>
    <g id="text_15">
     <!-- No feedback -->
     <g transform="translate(152.56 96.152188) scale(0.15 -0.15)">
      <defs>
       <path id="DejaVuSans-66" d="M 2375 4863 
L 2375 4384 
L 1825 4384 
Q 1516 4384 1395 4259 
Q 1275 4134 1275 3809 
L 1275 3500 
L 2222 3500 
L 2222 3053 
L 1275 3053 
L 1275 0 
L 697 0 
L 697 3053 
L 147 3053 
L 147 3500 
L 697 3500 
L 697 3744 
Q 697 4328 969 4595 
Q 1241 4863 1831 4863 
L 2375 4863 
z
" transform="scale(0.015625)"/>
       <path id="DejaVuSans-62" d="M 3116 1747 
Q 3116 2381 2855 2742 
Q 2594 3103 2138 3103 
Q 1681 3103 1420 2742 
Q 1159 2381 1159 1747 
Q 1159 1113 1420 752 
Q 1681 391 2138 391 
Q 2594 391 2855 752 
Q 3116 1113 3116 1747 
z
M 1159 2969 
Q 1341 3281 1617 3432 
Q 1894 3584 2278 3584 
Q 2916 3584 3314 3078 
Q 3713 2572 3713 1747 
Q 3713 922 3314 415 
Q 2916 -91 2278 -91 
Q 1894 -91 1617 61 
Q 1341 213 1159 525 
L 1159 0 
L 581 0 
L 581 4863 
L 1159 4863 
L 1159 2969 
z
" transform="scale(0.015625)"/>
       <path id="DejaVuSans-6b" d="M 581 4863 
L 1159 4863 
L 1159 1991 
L 2875 3500 
L 3609 3500 
L 1753 1863 
L 3688 0 
L 2938 0 
L 1159 1709 
L 1159 0 
L 581 0 
L 581 4863 
z
" transform="scale(0.015625)"/>
      </defs>
      <use xlink:href="#DejaVuSans-4e"/>
      <use xlink:href="#DejaVuSans-6f" transform="translate(74.804688 0)"/>
      <use xlink:href="#DejaVuSans-20" transform="translate(135.986328 0)"/>
      <use xlink:href="#DejaVuSans-66" transform="translate(167.773438 0)"/>
      <use xlink:href="#DejaVuSans-65" transform="translate(202.978516 0)"/>
      <use xlink:href="#DejaVuSans-65" transform="translate(264.501953 0)"/>
      <use xlink:href="#DejaVuSans-64" transform="translate(326.025391 0)"/>
      <use xlink:href="#DejaVuSans-62" transform="translate(389.501953 0)"/>
      <use xlink:href="#DejaVuSans-61" transform="translate(452.978516 0)"/>
      <use xlink:href="#DejaVuSans-63" transform="translate(514.257812 0)"/>
      <use xlink:href="#DejaVuSans-6b" transform="translate(569.238281 0)"/>
     </g>
    </g>
   </g>
  </g>
  <g id="axes_2">
   <g id="patch_6">
    <path d="M 447.645393 336.640156 
L 748.589213 336.640156 
L 748.589213 31.720156 
L 447.645393 31.720156 
z
" style="fill: #ffffff"/>
   </g>
   <g id="matplotlib.axis_3">
    <g id="xtick_6">
     <g id="line2d_14">
      <g>
       <use xlink:href="#m8834b1820d" x="447.645393" y="336.640156" style="stroke: #000000; stroke-width: 1.6"/>
      </g>
     </g>
     <g id="text_16">
      <!-- -1 -->
      <g transform="translate(431.692893 369.455156) scale(0.32 -0.32)">
       <use xlink:href="#DejaVuSans-2d"/>
       <use xlink:href="#DejaVuSans-31" transform="translate(36.083984 0)"/>
      </g>
     </g>
    </g>
    <g id="xtick_7">
     <g id="line2d_15">
      <g>
       <use xlink:href="#m8834b1820d" x="522.881348" y="336.640156" style="stroke: #000000; stroke-width: 1.6"/>
      </g>
     </g>
     <g id="text_17">
      <!-- 0 -->
      <g transform="translate(512.701348 369.455156) scale(0.32 -0.32)">
       <use xlink:href="#DejaVuSans-30"/>
      </g>
     </g>
    </g>
    <g id="xtick_8">
     <g id="line2d_16">
      <g>
       <use xlink:href="#m8834b1820d" x="598.117303" y="336.640156" style="stroke: #000000; stroke-width: 1.6"/>
      </g>
     </g>
     <g id="text_18">
      <!-- 1 -->
      <g transform="translate(587.937303 369.455156) scale(0.32 -0.32)">
       <use xlink:href="#DejaVuSans-31"/>
      </g>
     </g>
    </g>
    <g id="xtick_9">
     <g id="line2d_17">
      <g>
       <use xlink:href="#m8834b1820d" x="673.353258" y="336.640156" style="stroke: #000000; stroke-width: 1.6"/>
      </g>
     </g>
     <g id="text_19">
      <!-- 2 -->
      <g transform="translate(663.173258 369.455156) scale(0.32 -0.32)">
       <use xlink:href="#DejaVuSans-32"/>
      </g>
     </g>
    </g>
    <g id="xtick_10">
     <g id="line2d_18">
      <g>
       <use xlink:href="#m8834b1820d" x="748.589213" y="336.640156" style="stroke: #000000; stroke-width: 1.6"/>
      </g>
     </g>
     <g id="text_20">
      <!-- 3 -->
      <g transform="translate(738.409213 369.455156) scale(0.32 -0.32)">
       <use xlink:href="#DejaVuSans-33"/>
      </g>
     </g>
    </g>
    <g id="text_21">
     <!-- Time (s) -->
     <g transform="translate(533.064803 404.425156) scale(0.32 -0.32)">
      <use xlink:href="#DejaVuSans-54"/>
      <use xlink:href="#DejaVuSans-69" transform="translate(57.958984 0)"/>
      <use xlink:href="#DejaVuSans-6d" transform="translate(85.742188 0)"/>
      <use xlink:href="#DejaVuSans-65" transform="translate(183.154297 0)"/>
      <use xlink:href="#DejaVuSans-20" transform="translate(244.677734 0)"/>
      <use xlink:href="#DejaVuSans-28" transform="translate(276.464844 0)"/>
      <use xlink:href="#DejaVuSans-73" transform="translate(315.478516 0)"/>
      <use xlink:href="#DejaVuSans-29" transform="translate(367.578125 0)"/>
     </g>
    </g>
   </g>
   <g id="matplotlib.axis_4">
    <g id="ytick_4">
     <g id="line2d_19">
      <g>
       <use xlink:href="#m9e7d568624" x="447.645393" y="315.612291" style="stroke: #000000; stroke-width: 1.6"/>
      </g>
     </g>
    </g>
    <g id="ytick_5">
     <g id="line2d_20">
      <g>
       <use xlink:href="#m9e7d568624" x="447.645393" y="210.024804" style="stroke: #000000; stroke-width: 1.6"/>
      </g>
     </g>
    </g>
    <g id="ytick_6">
     <g id="line2d_21">
      <g>
       <use xlink:href="#m9e7d568624" x="447.645393" y="104.437317" style="stroke: #000000; stroke-width: 1.6"/>
      </g>
     </g>
    </g>
   </g>
   <g id="line2d_22">
    <path d="M 448.397753 313.108533 
L 452.91191 313.771799 
L 458.178427 314.327007 
L 464.949663 314.802242 
L 473.225618 315.151535 
L 473.977978 315.174573 
L 474.730337 313.172482 
L 479.244494 313.818807 
L 484.511011 314.359835 
L 491.282247 314.822931 
L 500.310562 315.185753 
L 501.815281 315.22734 
L 502.56764 314.187463 
L 503.32 314.258704 
L 504.07236 314.009947 
L 510.091236 314.549263 
L 517.614831 314.975817 
L 527.395506 315.285562 
L 541.690337 315.488999 
L 567.270562 315.590737 
L 610.907416 315.611191 
L 611.659775 314.948131 
L 621.440449 315.27135 
L 624.449888 315.334592 
L 625.202247 308.768428 
L 626.706966 309.435704 
L 627.459326 302.317445 
L 629.716404 304.213623 
L 631.973483 305.839359 
L 634.230562 307.233224 
L 634.982921 304.98192 
L 637.24 306.498078 
L 639.497079 307.797993 
L 641.754157 308.912507 
L 642.506517 304.898209 
L 643.258876 305.433913 
L 644.011236 300.926755 
L 646.268315 302.943934 
L 647.020674 300.314039 
L 649.277753 302.495952 
L 651.534831 304.36667 
L 653.79191 305.970578 
L 656.048989 307.345727 
L 659.058427 308.879124 
L 662.067865 310.128085 
L 665.077303 311.145371 
L 668.839101 312.155874 
L 672.600899 312.937781 
L 673.353258 312.827696 
L 677.867416 313.565358 
L 683.133933 314.182842 
L 688.400449 314.614053 
L 689.152809 309.229289 
L 692.162247 310.413296 
L 695.171685 311.377677 
L 698.933483 312.335628 
L 702.695281 313.076872 
L 704.2 313.324075 
L 704.95236 312.934562 
L 709.466517 313.643915 
L 714.733034 314.237701 
L 719.247191 314.601841 
L 719.999551 310.357931 
L 723.008989 311.332582 
L 726.770787 312.300734 
L 730.532584 313.049871 
L 735.046742 313.728677 
L 739.560899 314.227662 
L 740.313258 313.587538 
L 741.065618 312.729341 
L 745.579775 313.493058 
L 746.332135 313.569052 
L 747.084494 310.984999 
L 747.836854 309.302706 
L 747.836854 309.302706 
" clip-path="url(#p1202f23c15)" style="fill: none; stroke: #000000; stroke-width: 5; stroke-linecap: square"/>
   </g>
   <g id="line2d_23">
    <path d="M 448.397753 298.778112 
L 449.902472 300.419444 
L 450.654831 298.503941 
L 451.407191 299.359359 
L 452.159551 293.134461 
L 454.416629 296.340362 
L 456.673708 299.089023 
L 457.426067 298.542568 
L 459.683146 300.977138 
L 460.435506 298.543931 
L 462.692584 300.978306 
L 464.949663 303.065479 
L 465.702022 303.692819 
L 466.454382 302.151212 
L 467.959101 303.463668 
L 469.46382 303.524262 
L 470.21618 304.128664 
L 470.968539 304.072105 
L 473.225618 305.718025 
L 473.977978 306.212738 
L 474.730337 306.411391 
L 475.482697 306.871436 
L 476.235056 298.57339 
L 476.987416 298.585368 
L 479.244494 301.013833 
L 479.996854 301.49256 
L 481.501573 296.063106 
L 482.253933 297.040566 
L 483.006292 293.647972 
L 483.758652 294.746188 
L 484.511011 292.945699 
L 486.01573 287.328243 
L 487.520449 290.085938 
L 488.272809 291.098953 
L 489.025169 289.614167 
L 491.282247 293.322151 
L 492.034607 294.142631 
L 492.786966 293.310962 
L 495.044045 296.49169 
L 496.548764 298.35595 
L 497.301124 297.281139 
L 499.558202 299.895621 
L 501.815281 302.137212 
L 504.07236 304.059095 
L 504.824719 302.577198 
L 505.577079 303.228952 
L 506.329438 298.186149 
L 507.081798 299.057457 
L 507.834157 298.643223 
L 508.586517 295.585429 
L 509.338876 296.586773 
L 510.091236 296.696437 
L 510.843596 289.384893 
L 511.595955 288.785081 
L 513.853034 292.611311 
L 514.605393 293.761361 
L 515.357753 288.545934 
L 516.110112 289.899251 
L 516.862472 283.85292 
L 517.614831 276.359647 
L 519.87191 281.958058 
L 522.128989 286.757994 
L 522.881348 234.940079 
L 523.633708 193.14582 
L 525.890787 105.32056 
L 527.395506 67.544239 
L 528.900225 55.020101 
L 529.652584 52.749122 
L 530.404944 56.569688 
L 531.157303 68.575791 
L 531.909663 69.757177 
L 532.662022 68.285267 
L 533.414382 78.843676 
L 534.166742 84.542066 
L 534.919101 91.824155 
L 535.671461 96.232173 
L 536.42382 94.692278 
L 537.17618 98.957953 
L 537.928539 88.033262 
L 538.680899 90.91339 
L 539.433258 86.651177 
L 540.185618 80.581485 
L 540.937978 77.470952 
L 542.442697 83.076057 
L 543.195056 90.434077 
L 543.947416 90.509678 
L 544.699775 85.337739 
L 545.452135 73.268228 
L 546.204494 69.532357 
L 546.956854 81.836363 
L 547.709213 87.581058 
L 548.461573 89.530817 
L 549.213933 89.946629 
L 549.966292 84.187144 
L 550.718652 90.222694 
L 551.471011 97.837331 
L 552.223371 95.356337 
L 552.97573 90.899466 
L 553.72809 83.319317 
L 555.232809 92.526069 
L 555.985169 86.787542 
L 556.737528 88.991637 
L 557.489888 88.298345 
L 558.242247 99.664052 
L 558.994607 108.656621 
L 559.746966 103.105482 
L 560.499326 95.691246 
L 561.251685 97.11759 
L 562.004045 101.122131 
L 562.756404 96.857936 
L 563.508764 91.103202 
L 564.261124 95.023411 
L 565.013483 99.70463 
L 565.765843 94.925578 
L 566.518202 93.632452 
L 567.270562 95.458434 
L 568.022921 93.406546 
L 568.775281 84.288847 
L 569.52764 71.327736 
L 570.28 72.392692 
L 571.03236 78.640962 
L 571.784719 86.280049 
L 572.537079 88.10976 
L 573.289438 76.821053 
L 574.041798 74.252092 
L 574.794157 67.783109 
L 575.546517 73.657482 
L 576.298876 77.430658 
L 577.051236 76.753021 
L 577.803596 79.364967 
L 578.555955 74.044973 
L 579.308315 72.092806 
L 580.060674 76.365545 
L 580.813034 70.247409 
L 581.565393 80.352874 
L 582.317753 81.709863 
L 583.070112 79.049096 
L 583.822472 69.830102 
L 584.574831 72.254691 
L 585.327191 78.920598 
L 586.079551 82.825497 
L 586.83191 76.731402 
L 587.58427 76.287584 
L 588.336629 69.152182 
L 589.088989 81.475194 
L 589.841348 82.430407 
L 591.346067 90.09931 
L 592.098427 87.317471 
L 592.850787 82.58839 
L 593.603146 75.605384 
L 594.355506 76.217286 
L 595.107865 74.098971 
L 595.860225 70.288647 
L 596.612584 70.028222 
L 597.364944 73.645178 
L 599.622022 108.155752 
L 601.879101 137.74424 
L 604.13618 163.112665 
L 606.393258 184.86293 
L 608.650337 203.511064 
L 610.907416 219.499508 
L 613.164494 233.207595 
L 615.421573 244.960566 
L 617.678652 255.037265 
L 619.93573 263.676784 
L 622.192809 271.084086 
L 624.449888 277.43492 
L 626.706966 282.879968 
L 628.964045 287.548415 
L 631.221124 291.551027 
L 633.478202 294.982767 
L 634.230562 296.014243 
L 634.982921 289.442054 
L 635.735281 289.629789 
L 637.99236 293.335544 
L 640.249438 296.512767 
L 642.506517 299.236838 
L 644.763596 301.572387 
L 647.020674 303.574828 
L 649.277753 305.291671 
L 650.030112 305.807702 
L 650.782472 305.696634 
L 653.039551 307.110856 
L 653.79191 306.305085 
L 655.296629 307.212537 
L 656.048989 304.943245 
L 658.306067 306.464918 
L 659.058427 306.462715 
L 661.315506 307.767673 
L 662.067865 308.068031 
L 662.820225 303.524638 
L 663.572584 304.129021 
L 664.324944 301.436346 
L 665.077303 302.145143 
L 665.829663 301.084346 
L 666.582022 301.276483 
L 667.334382 300.708269 
L 669.591461 302.833956 
L 671.848539 304.656467 
L 674.105618 306.219042 
L 676.362697 307.558754 
L 677.867416 308.343974 
L 678.619775 305.564973 
L 680.876854 306.997972 
L 683.133933 308.226589 
L 683.886292 299.351378 
L 684.638652 295.984406 
L 685.391011 293.892899 
L 687.64809 296.990627 
L 688.400449 297.269876 
L 690.657528 299.885964 
L 691.409888 299.493572 
L 692.162247 291.381669 
L 692.914607 291.727149 
L 693.666966 292.921406 
L 694.419326 291.736137 
L 696.676404 295.141473 
L 698.181124 297.137378 
L 698.933483 297.682958 
L 701.190562 300.24013 
L 702.695281 301.738916 
L 703.44764 302.217251 
L 705.704719 304.127719 
L 706.457079 301.560883 
L 707.961798 302.930896 
L 708.714157 298.908803 
L 710.218876 300.537393 
L 710.971236 300.438051 
L 711.723596 301.196764 
L 712.475955 300.389859 
L 713.228315 301.075923 
L 713.980674 301.199824 
L 716.237753 303.255404 
L 718.494831 305.017804 
L 719.247191 305.547529 
L 719.999551 302.457489 
L 720.75191 303.115229 
L 721.50427 298.717236 
L 723.761348 301.126893 
L 724.513708 301.851164 
L 725.266067 299.467579 
L 727.523146 301.770219 
L 729.780225 303.744444 
L 730.532584 304.337837 
L 731.284944 304.540507 
L 732.037303 304.988268 
L 732.789663 303.634147 
L 735.046742 305.34253 
L 737.30382 306.807255 
L 738.05618 301.090078 
L 739.560899 291.668928 
L 741.817978 295.08385 
L 744.075056 298.011721 
L 746.332135 300.522002 
L 747.836854 301.993305 
L 747.836854 301.993305 
" clip-path="url(#p1202f23c15)" style="fill: none; stroke: #ff0000; stroke-width: 5; stroke-linecap: square"/>
   </g>
   <g id="patch_7">
    <path d="M 447.645393 336.640156 
L 447.645393 31.720156 
" style="fill: none; stroke: #000000; stroke-width: 5; stroke-linejoin: miter; stroke-linecap: square"/>
   </g>
   <g id="patch_8">
    <path d="M 447.645393 336.640156 
L 748.589213 336.640156 
" style="fill: none; stroke: #000000; stroke-width: 5; stroke-linejoin: miter; stroke-linecap: square"/>
   </g>
   <g id="patch_9">
    <path d="M 522.881348 330.541756 
L 598.117303 330.541756 
L 598.117303 319.869556 
L 522.881348 319.869556 
z
" style="fill: #8c5a2b; stroke: #8c5a2b; stroke-linejoin: miter"/>
   </g>
   <g id="text_22">
    <!-- Familiar | Expert -->
    <g transform="translate(520.429569 21.720156) scale(0.19 -0.19)">
     <defs>
      <path id="DejaVuSans-45" d="M 628 4666 
L 3578 4666 
L 3578 4134 
L 1259 4134 
L 1259 2753 
L 3481 2753 
L 3481 2222 
L 1259 2222 
L 1259 531 
L 3634 531 
L 3634 0 
L 628 0 
L 628 4666 
z
" transform="scale(0.015625)"/>
      <path id="DejaVuSans-78" d="M 3513 3500 
L 2247 1797 
L 3578 0 
L 2900 0 
L 1881 1375 
L 863 0 
L 184 0 
L 1544 1831 
L 300 3500 
L 978 3500 
L 1906 2253 
L 2834 3500 
L 3513 3500 
z
" transform="scale(0.015625)"/>
      <path id="DejaVuSans-70" d="M 1159 525 
L 1159 -1331 
L 581 -1331 
L 581 3500 
L 1159 3500 
L 1159 2969 
Q 1341 3281 1617 3432 
Q 1894 3584 2278 3584 
Q 2916 3584 3314 3078 
Q 3713 2572 3713 1747 
Q 3713 922 3314 415 
Q 2916 -91 2278 -91 
Q 1894 -91 1617 61 
Q 1341 213 1159 525 
z
M 3116 1747 
Q 3116 2381 2855 2742 
Q 2594 3103 2138 3103 
Q 1681 3103 1420 2742 
Q 1159 2381 1159 1747 
Q 1159 1113 1420 752 
Q 1681 391 2138 391 
Q 2594 391 2855 752 
Q 3116 1113 3116 1747 
z
" transform="scale(0.015625)"/>
     </defs>
     <use xlink:href="#DejaVuSans-46"/>
     <use xlink:href="#DejaVuSans-61" transform="translate(48.394531 0)"/>
     <use xlink:href="#DejaVuSans-6d" transform="translate(109.673828 0)"/>
     <use xlink:href="#DejaVuSans-69" transform="translate(207.085938 0)"/>
     <use xlink:href="#DejaVuSans-6c" transform="translate(234.869141 0)"/>
     <use xlink:href="#DejaVuSans-69" transform="translate(262.652344 0)"/>
     <use xlink:href="#DejaVuSans-61" transform="translate(290.435547 0)"/>
     <use xlink:href="#DejaVuSans-72" transform="translate(351.714844 0)"/>
     <use xlink:href="#DejaVuSans-20" transform="translate(392.828125 0)"/>
     <use xlink:href="#DejaVuSans-7c" transform="translate(424.615234 0)"/>
     <use xlink:href="#DejaVuSans-20" transform="translate(458.306641 0)"/>
     <use xlink:href="#DejaVuSans-45" transform="translate(490.09375 0)"/>
     <use xlink:href="#DejaVuSans-78" transform="translate(553.277344 0)"/>
     <use xlink:href="#DejaVuSans-70" transform="translate(612.457031 0)"/>
     <use xlink:href="#DejaVuSans-65" transform="translate(675.933594 0)"/>
     <use xlink:href="#DejaVuSans-72" transform="translate(737.457031 0)"/>
     <use xlink:href="#DejaVuSans-74" transform="translate(778.570312 0)"/>
    </g>
   </g>
  </g>
  <g id="axes_3">
   <g id="patch_10">
    <path d="M 793.730787 336.640156 
L 1094.674607 336.640156 
L 1094.674607 31.720156 
L 793.730787 31.720156 
z
" style="fill: #ffffff"/>
   </g>
   <g id="matplotlib.axis_5">
    <g id="xtick_11">
     <g id="line2d_24">
      <g>
       <use xlink:href="#m8834b1820d" x="793.730787" y="336.640156" style="stroke: #000000; stroke-width: 1.6"/>
      </g>
     </g>
     <g id="text_23">
      <!-- -1 -->
      <g transform="translate(777.778287 369.455156) scale(0.32 -0.32)">
       <use xlink:href="#DejaVuSans-2d"/>
       <use xlink:href="#DejaVuSans-31" transform="translate(36.083984 0)"/>
      </g>
     </g>
    </g>
    <g id="xtick_12">
     <g id="line2d_25">
      <g>
       <use xlink:href="#m8834b1820d" x="868.966742" y="336.640156" style="stroke: #000000; stroke-width: 1.6"/>
      </g>
     </g>
     <g id="text_24">
      <!-- 0 -->
      <g transform="translate(858.786742 369.455156) scale(0.32 -0.32)">
       <use xlink:href="#DejaVuSans-30"/>
      </g>
     </g>
    </g>
    <g id="xtick_13">
     <g id="line2d_26">
      <g>
       <use xlink:href="#m8834b1820d" x="944.202697" y="336.640156" style="stroke: #000000; stroke-width: 1.6"/>
      </g>
     </g>
     <g id="text_25">
      <!-- 1 -->
      <g transform="translate(934.022697 369.455156) scale(0.32 -0.32)">
       <use xlink:href="#DejaVuSans-31"/>
      </g>
     </g>
    </g>
    <g id="xtick_14">
     <g id="line2d_27">
      <g>
       <use xlink:href="#m8834b1820d" x="1019.438652" y="336.640156" style="stroke: #000000; stroke-width: 1.6"/>
      </g>
     </g>
     <g id="text_26">
      <!-- 2 -->
      <g transform="translate(1009.258652 369.455156) scale(0.32 -0.32)">
       <use xlink:href="#DejaVuSans-32"/>
      </g>
     </g>
    </g>
    <g id="xtick_15">
     <g id="line2d_28">
      <g>
       <use xlink:href="#m8834b1820d" x="1094.674607" y="336.640156" style="stroke: #000000; stroke-width: 1.6"/>
      </g>
     </g>
     <g id="text_27">
      <!-- 3 -->
      <g transform="translate(1084.494607 369.455156) scale(0.32 -0.32)">
       <use xlink:href="#DejaVuSans-33"/>
      </g>
     </g>
    </g>
    <g id="text_28">
     <!-- Time (s) -->
     <g transform="translate(879.150197 404.425156) scale(0.32 -0.32)">
      <use xlink:href="#DejaVuSans-54"/>
      <use xlink:href="#DejaVuSans-69" transform="translate(57.958984 0)"/>
      <use xlink:href="#DejaVuSans-6d" transform="translate(85.742188 0)"/>
      <use xlink:href="#DejaVuSans-65" transform="translate(183.154297 0)"/>
      <use xlink:href="#DejaVuSans-20" transform="translate(244.677734 0)"/>
      <use xlink:href="#DejaVuSans-28" transform="translate(276.464844 0)"/>
      <use xlink:href="#DejaVuSans-73" transform="translate(315.478516 0)"/>
      <use xlink:href="#DejaVuSans-29" transform="translate(367.578125 0)"/>
     </g>
    </g>
   </g>
   <g id="matplotlib.axis_6">
    <g id="ytick_7">
     <g id="line2d_29">
      <g>
       <use xlink:href="#m9e7d568624" x="793.730787" y="315.612291" style="stroke: #000000; stroke-width: 1.6"/>
      </g>
     </g>
    </g>
    <g id="ytick_8">
     <g id="line2d_30">
      <g>
       <use xlink:href="#m9e7d568624" x="793.730787" y="210.024804" style="stroke: #000000; stroke-width: 1.6"/>
      </g>
     </g>
    </g>
    <g id="ytick_9">
     <g id="line2d_31">
      <g>
       <use xlink:href="#m9e7d568624" x="793.730787" y="104.437317" style="stroke: #000000; stroke-width: 1.6"/>
      </g>
     </g>
    </g>
   </g>
   <g id="line2d_32">
    <path d="M 794.483146 310.349407 
L 797.492584 311.325639 
L 801.254382 312.295362 
L 802.006742 312.461208 
L 802.759101 310.955716 
L 803.511461 310.738506 
L 805.01618 311.2137 
L 805.768539 308.067158 
L 808.777978 309.466733 
L 811.787416 310.606696 
L 812.539775 309.480081 
L 813.292135 309.786691 
L 814.044494 309.112404 
L 817.053933 310.318093 
L 820.063371 311.300134 
L 823.825169 312.275626 
L 826.082247 312.751518 
L 826.834607 310.303213 
L 829.844045 311.288014 
L 831.348764 311.709631 
L 832.101124 309.92013 
L 832.853483 309.790217 
L 835.862921 310.870175 
L 836.615281 311.107281 
L 837.36764 310.17174 
L 840.377079 311.180928 
L 843.386517 312.002918 
L 848.653034 313.080502 
L 853.167191 313.751193 
L 853.919551 313.844248 
L 854.67191 312.544704 
L 856.176629 312.843794 
L 856.928989 311.96286 
L 859.186067 312.48336 
L 859.938427 311.495863 
L 860.690787 311.659579 
L 861.443146 304.976943 
L 862.195506 303.186793 
L 862.947865 303.808068 
L 863.700225 303.733553 
L 865.957303 305.427758 
L 868.214382 306.880328 
L 871.22382 308.500053 
L 874.233258 309.819328 
L 877.242697 310.893887 
L 881.004494 311.96128 
L 884.766292 312.787209 
L 889.280449 313.535596 
L 894.546966 314.162057 
L 900.565843 314.650177 
L 908.089438 315.036238 
L 918.622472 315.331364 
L 934.422022 315.516618 
L 951.726292 315.582885 
L 952.478652 315.305499 
L 955.48809 315.362407 
L 956.240449 310.014621 
L 956.992809 307.015533 
L 958.497528 307.853717 
L 959.249888 305.129069 
L 960.754607 306.151183 
L 961.506966 304.55033 
L 962.259326 305.103427 
L 963.011685 303.632398 
L 963.764045 304.231394 
L 964.516404 304.339291 
L 965.268764 303.171684 
L 966.021124 303.103973 
L 967.525843 304.323534 
L 969.030562 305.327172 
L 969.782921 304.06306 
L 972.04 305.71027 
L 972.79236 306.194702 
L 973.544719 305.232698 
L 975.801798 306.713089 
L 978.058876 307.982338 
L 981.068315 309.397647 
L 984.077753 310.550425 
L 984.830112 310.803518 
L 985.582472 310.901274 
L 989.34427 311.966996 
L 993.106067 312.791632 
L 993.858427 312.932665 
L 994.610787 310.142858 
L 996.115506 310.676128 
L 997.620225 302.779493 
L 999.877303 304.609772 
L 1002.134382 306.179006 
L 1004.391461 307.524429 
L 1005.14382 305.055683 
L 1007.400899 306.56132 
L 1008.153258 305.786902 
L 1010.410337 307.188248 
L 1013.419775 308.750856 
L 1016.429213 310.023609 
L 1019.438652 311.060275 
L 1020.943371 311.504096 
L 1021.69573 310.231561 
L 1022.44809 310.438809 
L 1023.200449 309.487105 
L 1026.209888 310.623289 
L 1029.219326 311.548718 
L 1032.981124 312.467976 
L 1036.742921 313.17928 
L 1037.495281 312.926565 
L 1038.24764 313.060851 
L 1039 312.302957 
L 1041.257079 312.774951 
L 1042.009438 311.730907 
L 1042.761798 309.128924 
L 1045.771236 310.331548 
L 1048.028315 311.084715 
L 1048.780674 309.833466 
L 1051.790112 310.905402 
L 1052.542472 306.266785 
L 1053.294831 302.703658 
L 1055.55191 304.544752 
L 1057.808989 306.12326 
L 1060.066067 307.476634 
L 1061.570787 308.269861 
L 1062.323146 308.419147 
L 1065.332584 309.753431 
L 1068.342022 310.840213 
L 1072.10382 311.919748 
L 1075.865618 312.755072 
L 1078.875056 313.285068 
L 1079.627416 309.491634 
L 1081.132135 310.088398 
L 1081.884494 306.945999 
L 1082.636854 302.194036 
L 1084.893933 304.107815 
L 1087.151011 305.748641 
L 1087.903371 303.955434 
L 1088.65573 299.1261 
L 1089.40809 296.557474 
L 1090.160449 290.940282 
L 1092.417528 294.45913 
L 1093.922247 296.521564 
L 1093.922247 296.521564 
" clip-path="url(#p8740cb9865)" style="fill: none; stroke: #000000; stroke-width: 5; stroke-linecap: square"/>
   </g>
   <g id="line2d_33">
    <path d="M 794.483146 298.28656 
L 795.235506 287.974424 
L 795.987865 286.754057 
L 796.740225 284.937342 
L 797.492584 284.74246 
L 799.749663 289.145272 
L 800.502022 290.468623 
L 801.254382 285.603047 
L 802.006742 282.330327 
L 804.26382 287.077167 
L 806.520899 291.14699 
L 808.777978 294.636353 
L 811.035056 297.628047 
L 811.787416 298.527259 
L 812.539775 298.262969 
L 813.292135 298.152426 
L 815.549213 300.64264 
L 816.301573 301.391123 
L 817.053933 301.30017 
L 819.311011 303.341437 
L 820.063371 303.231766 
L 820.81573 298.65068 
L 821.56809 299.498762 
L 822.320449 292.568895 
L 824.577528 295.85546 
L 826.082247 297.781752 
L 826.834607 297.81212 
L 827.586966 298.70213 
L 828.339326 298.995661 
L 830.596404 301.365609 
L 832.853483 303.397543 
L 835.110562 305.139672 
L 837.36764 306.63333 
L 838.87236 307.508779 
L 840.377079 305.242593 
L 841.129438 302.563147 
L 841.881798 303.215604 
L 842.634157 302.660055 
L 843.386517 300.321864 
L 844.138876 299.093523 
L 846.395955 301.449513 
L 847.148315 300.409374 
L 847.900674 300.734589 
L 850.157753 302.856521 
L 852.414831 304.675813 
L 853.167191 302.190497 
L 854.67191 303.497353 
L 855.42427 301.080887 
L 856.928989 302.497699 
L 857.681348 302.849766 
L 859.938427 304.67002 
L 860.690787 297.979366 
L 861.443146 293.8918 
L 863.700225 296.989685 
L 865.957303 299.645734 
L 868.214382 301.922965 
L 869.719101 247.44311 
L 870.471461 226.131981 
L 871.22382 216.760536 
L 871.97618 210.479642 
L 872.728539 212.646118 
L 873.480899 211.55989 
L 874.985618 214.527994 
L 875.737978 206.324875 
L 876.490337 207.447203 
L 877.242697 206.823281 
L 878.747416 217.164264 
L 879.499775 220.330904 
L 880.252135 219.437336 
L 881.004494 206.682047 
L 882.509213 194.494274 
L 883.261573 197.943358 
L 884.013933 196.190664 
L 884.766292 202.161745 
L 885.518652 203.220092 
L 886.271011 198.066443 
L 887.023371 198.053148 
L 887.77573 198.836501 
L 888.52809 203.571458 
L 889.280449 201.833861 
L 890.032809 194.582422 
L 890.785169 197.74549 
L 891.537528 199.585058 
L 892.289888 196.199916 
L 893.042247 196.436197 
L 893.794607 202.395006 
L 894.546966 202.279748 
L 895.299326 199.552607 
L 896.051685 203.865869 
L 896.804045 206.422337 
L 897.556404 206.738861 
L 898.308764 209.517727 
L 899.061124 206.896726 
L 899.813483 207.489637 
L 900.565843 203.338174 
L 901.318202 191.847155 
L 902.070562 188.630073 
L 903.575281 195.266196 
L 905.08 206.999939 
L 905.83236 208.310176 
L 906.584719 203.235716 
L 907.337079 205.789148 
L 908.841798 197.596617 
L 910.346517 209.103142 
L 911.098876 214.202533 
L 911.851236 212.901052 
L 912.603596 208.798285 
L 913.355955 214.138984 
L 914.108315 206.755193 
L 914.860674 205.177089 
L 916.365393 208.082178 
L 917.117753 204.772534 
L 917.870112 206.271639 
L 918.622472 205.219712 
L 919.374831 202.775259 
L 920.127191 203.428407 
L 920.879551 196.898684 
L 921.63191 195.087075 
L 923.136629 187.20221 
L 923.888989 189.360056 
L 924.641348 193.458504 
L 926.146067 192.917436 
L 926.898427 190.148923 
L 927.650787 191.066422 
L 928.403146 192.267451 
L 929.155506 188.454201 
L 929.907865 186.01472 
L 930.660225 186.805263 
L 931.412584 186.806671 
L 932.164944 193.246956 
L 932.917303 195.970124 
L 933.669663 200.261319 
L 934.422022 200.755949 
L 935.174382 199.654019 
L 935.926742 204.352585 
L 936.679101 203.237682 
L 937.431461 192.597616 
L 938.93618 185.512593 
L 939.688539 184.454899 
L 940.440899 183.864222 
L 941.193258 186.069458 
L 943.450337 204.369939 
L 945.707416 220.23588 
L 947.964494 233.838944 
L 950.221573 245.50187 
L 952.478652 255.501372 
L 954.73573 264.074691 
L 956.992809 271.425241 
L 959.249888 277.727419 
L 961.506966 283.13075 
L 963.764045 287.763433 
L 966.021124 291.735377 
L 967.525843 294.063378 
L 968.278202 293.554956 
L 970.535281 296.700884 
L 972.79236 299.398125 
L 975.049438 301.710671 
L 977.306517 303.69339 
L 978.811236 297.116932 
L 981.068315 299.754833 
L 983.325393 302.016503 
L 985.582472 303.955603 
L 987.839551 305.618139 
L 990.096629 307.043556 
L 992.353708 308.265672 
L 993.106067 307.119156 
L 996.115506 308.69458 
L 999.124944 309.977772 
L 999.877303 309.964843 
L 1002.886742 311.01241 
L 1003.639101 308.641902 
L 1006.648539 309.934866 
L 1009.657978 310.987993 
L 1010.410337 311.219208 
L 1011.162697 308.494604 
L 1011.915056 307.833806 
L 1014.924494 309.276667 
L 1015.676854 304.053833 
L 1016.429213 303.202438 
L 1018.686292 304.972394 
L 1019.438652 305.504389 
L 1020.191011 304.664758 
L 1022.44809 306.22615 
L 1023.952809 302.085305 
L 1024.705169 296.849985 
L 1025.457528 289.004671 
L 1026.209888 288.407561 
L 1028.466966 292.287636 
L 1030.724045 295.614316 
L 1032.981124 298.466527 
L 1035.238202 300.911942 
L 1037.495281 303.008578 
L 1039.75236 304.806183 
L 1040.504719 305.139165 
L 1042.761798 306.632895 
L 1043.514157 301.520517 
L 1044.266517 302.225106 
L 1045.771236 299.875058 
L 1046.523596 300.470705 
L 1048.780674 302.630274 
L 1050.285393 303.896021 
L 1051.037753 303.133358 
L 1053.294831 304.913167 
L 1054.047191 304.602497 
L 1056.30427 306.17277 
L 1058.561348 307.519082 
L 1060.066067 308.30817 
L 1060.818427 308.359773 
L 1063.827865 309.70507 
L 1066.084944 310.547588 
L 1066.837303 307.23146 
L 1069.846742 308.786052 
L 1072.85618 310.052277 
L 1075.865618 311.083625 
L 1076.617978 311.198205 
L 1077.370337 308.520691 
L 1078.122697 299.604949 
L 1078.875056 300.405316 
L 1079.627416 299.348274 
L 1081.884494 301.66793 
L 1083.389213 303.027505 
L 1084.893933 304.116246 
L 1086.398652 305.23711 
L 1087.151011 301.392168 
L 1087.903371 302.103175 
L 1088.65573 297.630989 
L 1089.40809 297.449868 
L 1090.160449 298.357989 
L 1090.912809 296.632422 
L 1093.169888 299.339427 
L 1093.922247 300.15307 
L 1093.922247 300.15307 
" clip-path="url(#p8740cb9865)" style="fill: none; stroke: #ff0000; stroke-width: 5; stroke-linecap: square"/>
   </g>
   <g id="line2d_34">
    <path d="M 794.483146 305.84379 
L 796.740225 307.237024 
L 799.749663 308.790584 
L 800.502022 304.815461 
L 802.759101 306.35536 
L 805.01618 307.67563 
L 808.025618 309.147831 
L 810.282697 310.069825 
L 813.292135 311.067676 
L 814.044494 309.38795 
L 817.053933 310.542526 
L 820.063371 311.482936 
L 823.825169 312.417075 
L 824.577528 309.880928 
L 827.586966 310.94406 
L 828.339326 310.542045 
L 829.844045 311.036393 
L 830.596404 310.451806 
L 832.101124 306.039277 
L 834.358202 307.404629 
L 835.862921 302.970003 
L 836.615281 303.602118 
L 837.36764 301.209697 
L 839.624719 303.263868 
L 841.881798 305.025062 
L 842.634157 305.446613 
L 843.386517 302.976078 
L 844.891236 304.068538 
L 847.148315 305.714967 
L 848.653034 306.679956 
L 849.405393 306.032621 
L 851.662472 307.398922 
L 853.919551 308.570354 
L 854.67191 304.552068 
L 856.176629 305.630441 
L 856.928989 304.781465 
L 857.681348 305.323007 
L 858.433708 304.104815 
L 859.186067 303.779487 
L 859.938427 303.818332 
L 862.195506 305.500446 
L 864.452584 306.942648 
L 867.462022 308.550813 
L 870.471461 309.860673 
L 873.480899 310.927563 
L 877.242697 311.987337 
L 881.004494 312.807371 
L 885.518652 313.550417 
L 890.785169 314.172408 
L 896.804045 314.657043 
L 904.32764 315.040349 
L 914.860674 315.333369 
L 930.660225 315.517301 
L 946.459775 315.579941 
L 947.212135 314.376335 
L 947.964494 314.363702 
L 948.716854 312.776519 
L 949.469213 312.918308 
L 950.221573 312.104786 
L 950.973933 310.233204 
L 951.726292 309.836138 
L 954.73573 310.907579 
L 957.745169 311.780274 
L 958.497528 309.231477 
L 959.249888 308.479062 
L 960.002247 308.395633 
L 960.754607 308.756467 
L 961.506966 306.824045 
L 966.773483 309.417689 
L 967.525843 308.121369 
L 968.278202 308.169288 
L 969.030562 306.160771 
L 971.28764 307.508794 
L 972.04 305.876663 
L 972.79236 302.049285 
L 975.049438 303.983709 
L 977.306517 305.642235 
L 979.563596 307.064214 
L 981.068315 307.897652 
L 981.820674 305.648043 
L 982.573034 304.099677 
L 984.077753 293.64311 
L 984.830112 288.185564 
L 985.582472 287.18762 
L 987.087191 289.959028 
L 987.839551 289.60548 
L 990.096629 293.314703 
L 992.353708 296.494897 
L 994.610787 299.221515 
L 995.363146 299.730202 
L 997.620225 301.968645 
L 998.372584 300.031029 
L 1000.629663 302.253307 
L 1001.382022 301.195241 
L 1002.886742 302.600904 
L 1003.639101 302.731698 
L 1005.14382 303.987556 
L 1005.89618 303.563149 
L 1006.648539 304.165607 
L 1007.400899 304.555834 
L 1009.657978 306.132763 
L 1011.162697 307.057017 
L 1011.915056 306.165486 
L 1012.667416 306.637826 
L 1013.419775 304.982688 
L 1015.676854 306.498736 
L 1017.933933 307.798557 
L 1020.191011 308.912991 
L 1021.69573 306.247015 
L 1023.952809 307.582738 
L 1026.962247 309.07217 
L 1029.971685 310.285322 
L 1032.981124 311.273442 
L 1035.990562 312.078271 
L 1036.742921 310.062263 
L 1037.495281 310.339764 
L 1038.24764 310.410013 
L 1041.257079 311.375003 
L 1042.009438 311.586868 
L 1042.761798 307.979095 
L 1043.514157 308.360755 
L 1044.266517 306.448377 
L 1045.018876 295.335738 
L 1045.771236 295.887615 
L 1048.028315 298.700847 
L 1050.285393 301.112843 
L 1052.542472 303.180827 
L 1054.799551 304.953864 
L 1057.056629 306.474022 
L 1059.313708 307.777368 
L 1060.066067 308.169114 
L 1060.818427 306.725685 
L 1061.570787 306.975197 
L 1064.580225 308.577325 
L 1065.332584 307.153341 
L 1067.589663 308.359799 
L 1068.342022 304.671751 
L 1070.599101 306.232146 
L 1072.85618 307.569989 
L 1075.865618 309.061786 
L 1078.875056 310.276864 
L 1081.884494 311.266553 
L 1085.646292 312.249642 
L 1087.151011 312.5775 
L 1088.65573 312.771679 
L 1089.40809 310.848805 
L 1091.665169 311.528198 
L 1092.417528 310.695304 
L 1093.922247 311.17471 
L 1093.922247 311.17471 
" clip-path="url(#p8740cb9865)" style="fill: none; stroke: #0000ff; stroke-width: 5; stroke-linecap: square"/>
   </g>
   <g id="patch_11">
    <path d="M 793.730787 336.640156 
L 793.730787 31.720156 
" style="fill: none; stroke: #000000; stroke-width: 5; stroke-linejoin: miter; stroke-linecap: square"/>
   </g>
   <g id="patch_12">
    <path d="M 793.730787 336.640156 
L 1094.674607 336.640156 
" style="fill: none; stroke: #000000; stroke-width: 5; stroke-linejoin: miter; stroke-linecap: square"/>
   </g>
   <g id="patch_13">
    <path d="M 868.966742 330.541756 
L 944.202697 330.541756 
L 944.202697 319.869556 
L 868.966742 319.869556 
z
" style="fill: #8c5a2b; stroke: #8c5a2b; stroke-linejoin: miter"/>
   </g>
   <g id="text_29">
    <!-- Novel | Naive -->
    <g transform="translate(880.90004 21.720156) scale(0.19 -0.19)">
     <use xlink:href="#DejaVuSans-4e"/>
     <use xlink:href="#DejaVuSans-6f" transform="translate(74.804688 0)"/>
     <use xlink:href="#DejaVuSans-76" transform="translate(135.986328 0)"/>
     <use xlink:href="#DejaVuSans-65" transform="translate(195.166016 0)"/>
     <use xlink:href="#DejaVuSans-6c" transform="translate(256.689453 0)"/>
     <use xlink:href="#DejaVuSans-20" transform="translate(284.472656 0)"/>
     <use xlink:href="#DejaVuSans-7c" transform="translate(316.259766 0)"/>
     <use xlink:href="#DejaVuSans-20" transform="translate(349.951172 0)"/>
     <use xlink:href="#DejaVuSans-4e" transform="translate(381.738281 0)"/>
     <use xlink:href="#DejaVuSans-61" transform="translate(456.542969 0)"/>
     <use xlink:href="#DejaVuSans-69" transform="translate(517.822266 0)"/>
     <use xlink:href="#DejaVuSans-76" transform="translate(545.605469 0)"/>
     <use xlink:href="#DejaVuSans-65" transform="translate(604.785156 0)"/>
    </g>
   </g>
  </g>
  <g id="axes_4">
   <g id="patch_14">
    <path d="M 1139.81618 336.640156 
L 1440.76 336.640156 
L 1440.76 31.720156 
L 1139.81618 31.720156 
z
" style="fill: #ffffff"/>
   </g>
   <g id="matplotlib.axis_7">
    <g id="xtick_16">
     <g id="line2d_35">
      <g>
       <use xlink:href="#m8834b1820d" x="1139.81618" y="336.640156" style="stroke: #000000; stroke-width: 1.6"/>
      </g>
     </g>
     <g id="text_30">
      <!-- -1 -->
      <g transform="translate(1123.86368 369.455156) scale(0.32 -0.32)">
       <use xlink:href="#DejaVuSans-2d"/>
       <use xlink:href="#DejaVuSans-31" transform="translate(36.083984 0)"/>
      </g>
     </g>
    </g>
    <g id="xtick_17">
     <g id="line2d_36">
      <g>
       <use xlink:href="#m8834b1820d" x="1215.052135" y="336.640156" style="stroke: #000000; stroke-width: 1.6"/>
      </g>
     </g>
     <g id="text_31">
      <!-- 0 -->
      <g transform="translate(1204.872135 369.455156) scale(0.32 -0.32)">
       <use xlink:href="#DejaVuSans-30"/>
      </g>
     </g>
    </g>
    <g id="xtick_18">
     <g id="line2d_37">
      <g>
       <use xlink:href="#m8834b1820d" x="1290.28809" y="336.640156" style="stroke: #000000; stroke-width: 1.6"/>
      </g>
     </g>
     <g id="text_32">
      <!-- 1 -->
      <g transform="translate(1280.10809 369.455156) scale(0.32 -0.32)">
       <use xlink:href="#DejaVuSans-31"/>
      </g>
     </g>
    </g>
    <g id="xtick_19">
     <g id="line2d_38">
      <g>
       <use xlink:href="#m8834b1820d" x="1365.524045" y="336.640156" style="stroke: #000000; stroke-width: 1.6"/>
      </g>
     </g>
     <g id="text_33">
      <!-- 2 -->
      <g transform="translate(1355.344045 369.455156) scale(0.32 -0.32)">
       <use xlink:href="#DejaVuSans-32"/>
      </g>
     </g>
    </g>
    <g id="xtick_20">
     <g id="line2d_39">
      <g>
       <use xlink:href="#m8834b1820d" x="1440.76" y="336.640156" style="stroke: #000000; stroke-width: 1.6"/>
      </g>
     </g>
     <g id="text_34">
      <!-- 3 -->
      <g transform="translate(1430.58 369.455156) scale(0.32 -0.32)">
       <use xlink:href="#DejaVuSans-33"/>
      </g>
     </g>
    </g>
    <g id="text_35">
     <!-- Time (s) -->
     <g transform="translate(1225.23559 404.425156) scale(0.32 -0.32)">
      <use xlink:href="#DejaVuSans-54"/>
      <use xlink:href="#DejaVuSans-69" transform="translate(57.958984 0)"/>
      <use xlink:href="#DejaVuSans-6d" transform="translate(85.742188 0)"/>
      <use xlink:href="#DejaVuSans-65" transform="translate(183.154297 0)"/>
      <use xlink:href="#DejaVuSans-20" transform="translate(244.677734 0)"/>
      <use xlink:href="#DejaVuSans-28" transform="translate(276.464844 0)"/>
      <use xlink:href="#DejaVuSans-73" transform="translate(315.478516 0)"/>
      <use xlink:href="#DejaVuSans-29" transform="translate(367.578125 0)"/>
     </g>
    </g>
   </g>
   <g id="matplotlib.axis_8">
    <g id="ytick_10">
     <g id="line2d_40">
      <g>
       <use xlink:href="#m9e7d568624" x="1139.81618" y="315.612291" style="stroke: #000000; stroke-width: 1.6"/>
      </g>
     </g>
    </g>
    <g id="ytick_11">
     <g id="line2d_41">
      <g>
       <use xlink:href="#m9e7d568624" x="1139.81618" y="210.024804" style="stroke: #000000; stroke-width: 1.6"/>
      </g>
     </g>
    </g>
    <g id="ytick_12">
     <g id="line2d_42">
      <g>
       <use xlink:href="#m9e7d568624" x="1139.81618" y="104.437317" style="stroke: #000000; stroke-width: 1.6"/>
      </g>
     </g>
    </g>
   </g>
   <g id="line2d_43">
    <path d="M 1140.568539 313.194645 
L 1145.082697 313.835099 
L 1150.349213 314.371212 
L 1157.120449 314.830102 
L 1166.148764 315.189627 
L 1178.186517 315.426265 
L 1197.747865 315.56327 
L 1214.299775 315.596431 
L 1215.052135 299.621423 
L 1217.309213 301.90212 
L 1219.566292 303.857534 
L 1221.823371 305.534056 
L 1224.080449 306.971464 
L 1227.089888 308.574284 
L 1230.099326 309.87979 
L 1233.108764 310.943134 
L 1236.870562 311.999386 
L 1240.63236 312.816694 
L 1245.146517 313.557271 
L 1250.413034 314.177194 
L 1256.43191 314.660218 
L 1263.955506 315.04225 
L 1274.488539 315.334296 
L 1290.28809 315.517617 
L 1301.573483 315.568429 
L 1302.325843 312.92232 
L 1303.078202 312.895921 
L 1307.59236 313.61551 
L 1312.858876 314.217864 
L 1318.877753 314.6872 
L 1319.630112 314.733455 
L 1320.382472 312.811372 
L 1321.887191 302.434394 
L 1322.639551 301.451198 
L 1324.896629 303.470925 
L 1327.153708 305.202587 
L 1327.906067 304.378067 
L 1328.658427 304.176977 
L 1330.915506 305.807939 
L 1333.172584 307.206285 
L 1336.182022 308.765547 
L 1339.191461 310.035576 
L 1342.200899 311.070021 
L 1345.962697 312.097569 
L 1349.724494 312.892666 
L 1354.238652 313.613117 
L 1359.505169 314.216194 
L 1365.524045 314.686092 
L 1373.8 315.085469 
L 1378.314157 315.225028 
L 1379.066517 314.407706 
L 1383.580674 314.726811 
L 1384.333034 313.602971 
L 1389.599551 314.209108 
L 1395.618427 314.681391 
L 1403.894382 315.082795 
L 1404.646742 313.254407 
L 1409.160899 313.87903 
L 1415.179775 314.46241 
L 1421.951011 314.887579 
L 1430.979326 315.220686 
L 1440.00764 315.400683 
L 1440.00764 315.400683 
" clip-path="url(#pc3879d11a8)" style="fill: none; stroke: #000000; stroke-width: 5; stroke-linecap: square"/>
   </g>
   <g id="line2d_44">
    <path d="M 1140.568539 305.982375 
L 1142.073258 306.921292 
L 1142.825618 306.624036 
L 1143.577978 304.47593 
L 1145.835056 306.064253 
L 1146.587416 304.754957 
L 1147.339775 298.107868 
L 1149.596854 300.604437 
L 1151.853933 302.744933 
L 1153.358652 303.9995 
L 1154.111011 303.414618 
L 1156.36809 305.154311 
L 1157.120449 305.67721 
L 1157.872809 304.762072 
L 1160.129888 306.309584 
L 1160.882247 302.870118 
L 1163.139326 304.687471 
L 1165.396404 306.245624 
L 1167.653483 307.581544 
L 1168.405843 307.006133 
L 1171.415281 308.602522 
L 1172.16764 308.95301 
L 1172.92 308.20242 
L 1175.929438 309.576905 
L 1178.186517 310.437702 
L 1178.938876 306.175136 
L 1181.195955 307.52111 
L 1181.948315 307.925669 
L 1182.700674 305.078756 
L 1183.453034 305.605433 
L 1184.957753 306.468172 
L 1186.462472 307.359725 
L 1187.214831 303.931729 
L 1187.967191 302.194488 
L 1190.22427 304.108203 
L 1191.728989 305.229852 
L 1192.481348 303.958111 
L 1194.738427 305.620288 
L 1195.490787 306.119888 
L 1196.243146 304.90675 
L 1196.995506 305.442027 
L 1197.747865 304.273229 
L 1198.500225 304.840182 
L 1199.252584 299.796031 
L 1200.004944 300.586845 
L 1200.757303 300.823878 
L 1201.509663 291.257407 
L 1203.766742 294.731023 
L 1206.02382 297.709213 
L 1208.280899 300.262641 
L 1210.537978 302.451885 
L 1211.290337 303.109906 
L 1212.042697 300.131777 
L 1214.299775 302.256029 
L 1215.052135 250.369086 
L 1215.804494 207.44526 
L 1216.556854 174.395675 
L 1217.309213 163.985007 
L 1218.061573 145.720297 
L 1218.813933 136.645693 
L 1219.566292 128.958224 
L 1220.318652 136.633184 
L 1221.071011 134.569465 
L 1221.823371 128.717592 
L 1222.57573 126.761209 
L 1223.32809 115.942312 
L 1224.080449 113.388093 
L 1224.832809 117.117703 
L 1225.585169 117.218242 
L 1226.337528 122.737928 
L 1227.842247 112.098161 
L 1228.594607 116.292593 
L 1229.346966 119.598791 
L 1230.099326 122.106139 
L 1230.851685 131.031068 
L 1231.604045 133.311488 
L 1232.356404 129.850737 
L 1233.108764 129.157319 
L 1233.861124 127.750406 
L 1234.613483 135.866714 
L 1235.365843 141.059642 
L 1236.118202 124.617625 
L 1236.870562 129.682213 
L 1237.622921 129.671152 
L 1238.375281 119.009373 
L 1239.12764 112.672601 
L 1239.88 120.668199 
L 1240.63236 127.141808 
L 1241.384719 130.667618 
L 1242.137079 139.914854 
L 1242.889438 143.880312 
L 1244.394157 146.965325 
L 1245.146517 152.573058 
L 1245.898876 148.473343 
L 1247.403596 126.695001 
L 1248.155955 119.633217 
L 1248.908315 128.577467 
L 1249.660674 127.793391 
L 1250.413034 135.157027 
L 1251.165393 137.801432 
L 1251.917753 145.567884 
L 1252.670112 142.364553 
L 1253.422472 145.414968 
L 1254.927191 136.828015 
L 1255.679551 143.777445 
L 1256.43191 148.860709 
L 1257.18427 144.44635 
L 1257.936629 141.775654 
L 1258.688989 140.259376 
L 1259.441348 149.02703 
L 1260.193708 145.75724 
L 1260.946067 140.321383 
L 1261.698427 133.16518 
L 1262.450787 130.552982 
L 1263.203146 131.250727 
L 1263.955506 129.484093 
L 1264.707865 125.035325 
L 1266.212584 134.902675 
L 1266.964944 124.539712 
L 1267.717303 119.664731 
L 1268.469663 112.249284 
L 1269.222022 108.605801 
L 1269.974382 109.169022 
L 1270.726742 119.357593 
L 1271.479101 119.223557 
L 1272.231461 129.042997 
L 1272.98382 130.876988 
L 1273.73618 121.713251 
L 1274.488539 121.221524 
L 1275.240899 117.352545 
L 1275.993258 118.526882 
L 1276.745618 122.748376 
L 1277.497978 115.233821 
L 1278.250337 118.648079 
L 1279.002697 117.869305 
L 1279.755056 122.308743 
L 1280.507416 125.035309 
L 1281.259775 121.720111 
L 1282.012135 126.182977 
L 1282.764494 124.70092 
L 1283.516854 119.979391 
L 1284.269213 121.638799 
L 1285.021573 111.493607 
L 1285.773933 114.935289 
L 1286.526292 116.712621 
L 1287.278652 109.889534 
L 1288.031011 107.191005 
L 1288.783371 109.972593 
L 1289.53573 118.377049 
L 1291.792809 146.507725 
L 1294.049888 170.62626 
L 1296.306966 191.304899 
L 1298.564045 209.034244 
L 1300.821124 224.234946 
L 1303.078202 237.267645 
L 1305.335281 248.441558 
L 1307.59236 258.021787 
L 1309.849438 266.235637 
L 1312.106517 273.277982 
L 1314.363596 279.315911 
L 1316.620674 284.492682 
L 1318.877753 288.931118 
L 1319.630112 288.775853 
L 1320.382472 290.117675 
L 1321.134831 289.289403 
L 1323.39191 293.043707 
L 1325.648989 296.262551 
L 1327.906067 299.022308 
L 1329.410787 300.639832 
L 1330.915506 301.816232 
L 1331.667865 299.879819 
L 1333.924944 302.123663 
L 1336.182022 304.04748 
L 1338.439101 305.696911 
L 1340.69618 307.111092 
L 1343.705618 308.688011 
L 1344.457978 309.034225 
L 1345.210337 303.683621 
L 1347.467416 305.384948 
L 1349.724494 306.843622 
L 1351.229213 307.698568 
L 1351.981573 307.314219 
L 1353.486292 308.123281 
L 1354.238652 306.655603 
L 1356.49573 307.933052 
L 1357.24809 308.317014 
L 1358.000449 308.176183 
L 1360.257528 309.236758 
L 1361.009888 309.510784 
L 1361.762247 301.959373 
L 1364.019326 303.906621 
L 1364.771685 300.74486 
L 1367.028764 302.865327 
L 1369.285843 304.683364 
L 1370.038202 305.22981 
L 1370.790562 302.662144 
L 1371.542921 303.309651 
L 1372.295281 303.766238 
L 1374.55236 305.455781 
L 1376.057079 306.446041 
L 1377.561798 296.551189 
L 1379.818876 299.269779 
L 1380.571236 300.086905 
L 1381.323596 295.343037 
L 1382.075955 293.536858 
L 1384.333034 296.685366 
L 1386.590112 299.38482 
L 1388.847191 301.699263 
L 1391.10427 303.683609 
L 1392.608989 304.846655 
L 1393.361348 304.699557 
L 1395.618427 306.255985 
L 1397.875506 307.590429 
L 1398.627865 307.991523 
L 1399.380225 307.213893 
L 1400.132584 303.89467 
L 1402.389663 305.565896 
L 1403.894382 306.54542 
L 1405.399101 305.409586 
L 1406.151461 305.919722 
L 1406.90382 304.075378 
L 1407.65618 301.643367 
L 1409.913258 303.635685 
L 1412.170337 305.343849 
L 1414.427416 306.808386 
L 1415.179775 304.720266 
L 1415.932135 305.264868 
L 1416.684494 303.080085 
L 1417.436854 303.706696 
L 1418.189213 303.756733 
L 1420.446292 305.447633 
L 1422.703371 306.897367 
L 1423.45573 304.138534 
L 1425.712809 305.77498 
L 1427.969888 307.178026 
L 1430.979326 308.74253 
L 1432.484045 309.412332 
L 1433.236404 306.214652 
L 1435.493483 307.554991 
L 1436.245843 307.957856 
L 1436.998202 304.134083 
L 1437.750562 303.45007 
L 1438.502921 302.188799 
L 1439.255281 302.859974 
L 1440.00764 301.684547 
L 1440.00764 301.684547 
" clip-path="url(#pc3879d11a8)" style="fill: none; stroke: #ff0000; stroke-width: 5; stroke-linecap: square"/>
   </g>
   <g id="line2d_45">
    <path d="M 1140.568539 314.071398 
L 1146.587416 314.590031 
L 1154.111011 315.000226 
L 1163.891685 315.298093 
L 1175.929438 315.474004 
L 1176.681798 312.376446 
L 1177.434157 307.649654 
L 1178.186517 307.142577 
L 1181.195955 308.713656 
L 1181.948315 308.420277 
L 1182.700674 308.779878 
L 1183.453034 303.740535 
L 1185.710112 305.433744 
L 1186.462472 304.698001 
L 1188.719551 306.254651 
L 1190.976629 307.589284 
L 1193.986067 309.077502 
L 1196.995506 310.289665 
L 1200.004944 311.276979 
L 1203.766742 312.257709 
L 1207.528539 313.01658 
L 1209.033258 313.269662 
L 1209.785618 311.07065 
L 1213.547416 312.098056 
L 1217.309213 312.893043 
L 1221.823371 313.613394 
L 1227.089888 314.216387 
L 1233.108764 314.68622 
L 1241.384719 315.085542 
L 1251.917753 315.355409 
L 1268.469663 315.529181 
L 1292.545169 315.596192 
L 1293.297528 312.810571 
L 1297.811685 313.55277 
L 1303.078202 314.174051 
L 1303.830562 313.692779 
L 1304.582921 312.179537 
L 1308.344719 312.956091 
L 1312.858876 313.65974 
L 1315.115955 313.938223 
L 1315.868315 312.23297 
L 1319.630112 312.997437 
L 1324.14427 313.690133 
L 1325.648989 313.877543 
L 1326.401348 311.358433 
L 1328.658427 311.965139 
L 1329.410787 310.631626 
L 1330.915506 311.117241 
L 1331.667865 309.318961 
L 1332.420225 309.633628 
L 1333.172584 309.129741 
L 1336.182022 310.332214 
L 1339.191461 311.311635 
L 1342.953258 312.284526 
L 1346.715056 313.03733 
L 1347.467416 313.166078 
L 1348.219775 312.363535 
L 1348.972135 310.689258 
L 1349.724494 304.790466 
L 1350.476854 302.045969 
L 1351.229213 300.338171 
L 1353.486292 302.516643 
L 1355.743371 304.384409 
L 1358.000449 305.985787 
L 1360.257528 307.358768 
L 1363.266966 308.889745 
L 1366.276404 310.136735 
L 1369.285843 311.152417 
L 1373.04764 312.161326 
L 1376.809438 312.942 
L 1381.323596 313.649382 
L 1386.590112 314.241519 
L 1393.361348 314.748363 
L 1397.123146 314.9438 
L 1397.875506 311.529481 
L 1398.627865 306.550072 
L 1400.884944 307.842571 
L 1403.894382 309.283806 
L 1406.90382 310.457701 
L 1409.913258 311.413845 
L 1413.675056 312.363613 
L 1417.436854 313.098526 
L 1421.951011 313.764443 
L 1422.703371 312.020681 
L 1423.45573 308.457667 
L 1425.712809 309.478095 
L 1426.465169 308.713023 
L 1429.474607 309.992795 
L 1432.484045 311.035177 
L 1436.245843 312.070608 
L 1440.00764 312.871804 
L 1440.00764 312.871804 
" clip-path="url(#pc3879d11a8)" style="fill: none; stroke: #0000ff; stroke-width: 5; stroke-linecap: square"/>
   </g>
   <g id="patch_15">
    <path d="M 1139.81618 336.640156 
L 1139.81618 31.720156 
" style="fill: none; stroke: #000000; stroke-width: 5; stroke-linejoin: miter; stroke-linecap: square"/>
   </g>
   <g id="patch_16">
    <path d="M 1139.81618 336.640156 
L 1440.76 336.640156 
" style="fill: none; stroke: #000000; stroke-width: 5; stroke-linejoin: miter; stroke-linecap: square"/>
   </g>
   <g id="patch_17">
    <path d="M 1215.052135 330.541756 
L 1290.28809 330.541756 
L 1290.28809 319.869556 
L 1215.052135 319.869556 
z
" style="fill: #8c5a2b; stroke: #8c5a2b; stroke-linejoin: miter"/>
   </g>
   <g id="text_36">
    <!-- Novel | Expert -->
    <g transform="translate(1222.890043 21.720156) scale(0.19 -0.19)">
     <use xlink:href="#DejaVuSans-4e"/>
     <use xlink:href="#DejaVuSans-6f" transform="translate(74.804688 0)"/>
     <use xlink:href="#DejaVuSans-76" transform="translate(135.986328 0)"/>
     <use xlink:href="#DejaVuSans-65" transform="translate(195.166016 0)"/>
     <use xlink:href="#DejaVuSans-6c" transform="translate(256.689453 0)"/>
     <use xlink:href="#DejaVuSans-20" transform="translate(284.472656 0)"/>
     <use xlink:href="#DejaVuSans-7c" transform="translate(316.259766 0)"/>
     <use xlink:href="#DejaVuSans-20" transform="translate(349.951172 0)"/>
     <use xlink:href="#DejaVuSans-45" transform="translate(381.738281 0)"/>
     <use xlink:href="#DejaVuSans-78" transform="translate(444.921875 0)"/>
     <use xlink:href="#DejaVuSans-70" transform="translate(504.101562 0)"/>
     <use xlink:href="#DejaVuSans-65" transform="translate(567.578125 0)"/>
     <use xlink:href="#DejaVuSans-72" transform="translate(629.101562 0)"/>
     <use xlink:href="#DejaVuSans-74" transform="translate(670.214844 0)"/>
    </g>
   </g>
  </g>
 </g>
 <defs>
  <clipPath id="p85bd564c4d">
   <rect x="101.56" y="31.720156" width="300.94382" height="304.92"/>
  </clipPath>
  <clipPath id="p1202f23c15">
   <rect x="447.645393" y="31.720156" width="300.94382" height="304.92"/>
  </clipPath>
  <clipPath id="p8740cb9865">
   <rect x="793.730787" y="31.720156" width="300.94382" height="304.92"/>
  </clipPath>
  <clipPath id="pc3879d11a8">
   <rect x="1139.81618" y="31.720156" width="300.94382" height="304.92"/>
  </clipPath>
 </defs>
</svg>
