<?xml version="1.0" encoding="utf-8" standalone="no"?>
<!DOCTYPE svg PUBLIC "-//W3C//DTD SVG 1.1//EN"
  "http://www.w3.org/Graphics/SVG/1.1/DTD/svg11.dtd">
<svg xmlns:xlink="http://www.w3.org/1999/xlink" width="1458.14pt" height="418.280156pt" viewBox="0 0 1458.14 418.280156" xmlns="http://www.w3.org/2000/svg" version="1.1">
 <metadata>
  <rdf:RDF xmlns:dc="http://purl.org/dc/elements/1.1/" xmlns:cc="http://creativecommons.org/ns#" xmlns:rdf="http://www.w3.org/1999/02/22-rdf-syntax-ns#">
   <cc:Work>
    <dc:type rdf:resource="http://purl.org/dc/dcmitype/StillImage"/>
    <dc:date>2026-03-25T11:55:28.096372</dc:date>
    <dc:format>image/svg+xml</dc:format>
    <dc:creator>
     <cc:Agent>
      <dc:title>Matplotlib v3.10.7, https://matplotlib.org/</dc:title>
     </cc:Agent>
    </dc:creator>
   </cc:Work>
  </rdf:RDF>
 </metadata>
 <defs>
  <style type="text/css">*{stroke-linejoin: round; stroke-linecap: butt}</style>
 </defs>
 <g id="figure_1">
  <g id="patch_1">
   <path d="M 0 418.280156 
L 1458.14 418.280156 
L 1458.14 -0 
L 0 -0 
z
" style="fill: #ffffff"/>
  </g>
  <g id="axes_1">
   <g id="patch_2">
    <path d="M 101.56 336.640156 
L 402.50382 336.640156 
L 402.50382 31.720156 
L 101.56 31.720156 
z
" style="fill: #ffffff"/>
   </g>
   <g id="matplotlib.axis_1">
    <g id="xtick_1">
     <g id="line2d_1">
      <defs>
       <path id="m3569f7f55a" d="M 0 0 
L 0 5 
" style="stroke: #000000; stroke-width: 1.6"/>
      </defs>
      <g>
       <use xlink:href="#m3569f7f55a" x="101.56" y="336.640156" style="stroke: #000000; stroke-width: 1.6"/>
      </g>
     </g>
     <g id="text_1">
      <!-- -1 -->
      <g transform="translate(85.6075 369.455156) scale(0.32 -0.32)">
       <defs>
        <path id="DejaVuSans-2d" d="M 313 2009 
L 1997 2009 
L 1997 1497 
L 313 1497 
L 313 2009 
z
" transform="scale(0.015625)"/>
        <path id="DejaVuSans-31" d="M 794 531 
L 1825 531 
L 1825 4091 
L 703 3866 
L 703 4441 
L 1819 4666 
L 2450 4666 
L 2450 531 
L 3481 531 
L 3481 0 
L 794 0 
L 794 531 
z
" transform="scale(0.015625)"/>
       </defs>
       <use xlink:href="#DejaVuSans-2d"/>
       <use xlink:href="#DejaVuSans-31" transform="translate(36.083984 0)"/>
      </g>
     </g>
    </g>
    <g id="xtick_2">
     <g id="line2d_2">
      <g>
       <use xlink:href="#m3569f7f55a" x="176.795955" y="336.640156" style="stroke: #000000; stroke-width: 1.6"/>
      </g>
     </g>
     <g id="text_2">
      <!-- 0 -->
      <g transform="translate(166.615955 369.455156) scale(0.32 -0.32)">
       <defs>
        <path id="DejaVuSans-30" d="M 2034 4250 
Q 1547 4250 1301 3770 
Q 1056 3291 1056 2328 
Q 1056 1369 1301 889 
Q 1547 409 2034 409 
Q 2525 409 2770 889 
Q 3016 1369 3016 2328 
Q 3016 3291 2770 3770 
Q 2525 4250 2034 4250 
z
M 2034 4750 
Q 2819 4750 3233 4129 
Q 3647 3509 3647 2328 
Q 3647 1150 3233 529 
Q 2819 -91 2034 -91 
Q 1250 -91 836 529 
Q 422 1150 422 2328 
Q 422 3509 836 4129 
Q 1250 4750 2034 4750 
z
" transform="scale(0.015625)"/>
       </defs>
       <use xlink:href="#DejaVuSans-30"/>
      </g>
     </g>
    </g>
    <g id="xtick_3">
     <g id="line2d_3">
      <g>
       <use xlink:href="#m3569f7f55a" x="252.03191" y="336.640156" style="stroke: #000000; stroke-width: 1.6"/>
      </g>
     </g>
     <g id="text_3">
      <!-- 1 -->
      <g transform="translate(241.85191 369.455156) scale(0.32 -0.32)">
       <use xlink:href="#DejaVuSans-31"/>
      </g>
     </g>
    </g>
    <g id="xtick_4">
     <g id="line2d_4">
      <g>
       <use xlink:href="#m3569f7f55a" x="327.267865" y="336.640156" style="stroke: #000000; stroke-width: 1.6"/>
      </g>
     </g>
     <g id="text_4">
      <!-- 2 -->
      <g transform="translate(317.087865 369.455156) scale(0.32 -0.32)">
       <defs>
        <path id="DejaVuSans-32" d="M 1228 531 
L 3431 531 
L 3431 0 
L 469 0 
L 469 531 
Q 828 903 1448 1529 
Q 2069 2156 2228 2338 
Q 2531 2678 2651 2914 
Q 2772 3150 2772 3378 
Q 2772 3750 2511 3984 
Q 2250 4219 1831 4219 
Q 1534 4219 1204 4116 
Q 875 4013 500 3803 
L 500 4441 
Q 881 4594 1212 4672 
Q 1544 4750 1819 4750 
Q 2544 4750 2975 4387 
Q 3406 4025 3406 3419 
Q 3406 3131 3298 2873 
Q 3191 2616 2906 2266 
Q 2828 2175 2409 1742 
Q 1991 1309 1228 531 
z
" transform="scale(0.015625)"/>
       </defs>
       <use xlink:href="#DejaVuSans-32"/>
      </g>
     </g>
    </g>
    <g id="xtick_5">
     <g id="line2d_5">
      <g>
       <use xlink:href="#m3569f7f55a" x="402.50382" y="336.640156" style="stroke: #000000; stroke-width: 1.6"/>
      </g>
     </g>
     <g id="text_5">
      <!-- 3 -->
      <g transform="translate(392.32382 369.455156) scale(0.32 -0.32)">
       <defs>
        <path id="DejaVuSans-33" d="M 2597 2516 
Q 3050 2419 3304 2112 
Q 3559 1806 3559 1356 
Q 3559 666 3084 287 
Q 2609 -91 1734 -91 
Q 1441 -91 1130 -33 
Q 819 25 488 141 
L 488 750 
Q 750 597 1062 519 
Q 1375 441 1716 441 
Q 2309 441 2620 675 
Q 2931 909 2931 1356 
Q 2931 1769 2642 2001 
Q 2353 2234 1838 2234 
L 1294 2234 
L 1294 2753 
L 1863 2753 
Q 2328 2753 2575 2939 
Q 2822 3125 2822 3475 
Q 2822 3834 2567 4026 
Q 2313 4219 1838 4219 
Q 1578 4219 1281 4162 
Q 984 4106 628 3988 
L 628 4550 
Q 988 4650 1302 4700 
Q 1616 4750 1894 4750 
Q 2613 4750 3031 4423 
Q 3450 4097 3450 3541 
Q 3450 3153 3228 2886 
Q 3006 2619 2597 2516 
z
" transform="scale(0.015625)"/>
       </defs>
       <use xlink:href="#DejaVuSans-33"/>
      </g>
     </g>
    </g>
    <g id="text_6">
     <!-- Time (s) -->
     <g transform="translate(186.97941 404.425156) scale(0.32 -0.32)">
      <defs>
       <path id="DejaVuSans-54" d="M -19 4666 
L 3928 4666 
L 3928 4134 
L 2272 4134 
L 2272 0 
L 1638 0 
L 1638 4134 
L -19 4134 
L -19 4666 
z
" transform="scale(0.015625)"/>
       <path id="DejaVuSans-69" d="M 603 3500 
L 1178 3500 
L 1178 0 
L 603 0 
L 603 3500 
z
M 603 4863 
L 1178 4863 
L 1178 4134 
L 603 4134 
L 603 4863 
z
" transform="scale(0.015625)"/>
       <path id="DejaVuSans-6d" d="M 3328 2828 
Q 3544 3216 3844 3400 
Q 4144 3584 4550 3584 
Q 5097 3584 5394 3201 
Q 5691 2819 5691 2113 
L 5691 0 
L 5113 0 
L 5113 2094 
Q 5113 2597 4934 2840 
Q 4756 3084 4391 3084 
Q 3944 3084 3684 2787 
Q 3425 2491 3425 1978 
L 3425 0 
L 2847 0 
L 2847 2094 
Q 2847 2600 2669 2842 
Q 2491 3084 2119 3084 
Q 1678 3084 1418 2786 
Q 1159 2488 1159 1978 
L 1159 0 
L 581 0 
L 581 3500 
L 1159 3500 
L 1159 2956 
Q 1356 3278 1631 3431 
Q 1906 3584 2284 3584 
Q 2666 3584 2933 3390 
Q 3200 3197 3328 2828 
z
" transform="scale(0.015625)"/>
       <path id="DejaVuSans-65" d="M 3597 1894 
L 3597 1613 
L 953 1613 
Q 991 1019 1311 708 
Q 1631 397 2203 397 
Q 2534 397 2845 478 
Q 3156 559 3463 722 
L 3463 178 
Q 3153 47 2828 -22 
Q 2503 -91 2169 -91 
Q 1331 -91 842 396 
Q 353 884 353 1716 
Q 353 2575 817 3079 
Q 1281 3584 2069 3584 
Q 2775 3584 3186 3129 
Q 3597 2675 3597 1894 
z
M 3022 2063 
Q 3016 2534 2758 2815 
Q 2500 3097 2075 3097 
Q 1594 3097 1305 2825 
Q 1016 2553 972 2059 
L 3022 2063 
z
" transform="scale(0.015625)"/>
       <path id="DejaVuSans-20" transform="scale(0.015625)"/>
       <path id="DejaVuSans-28" d="M 1984 4856 
Q 1566 4138 1362 3434 
Q 1159 2731 1159 2009 
Q 1159 1288 1364 580 
Q 1569 -128 1984 -844 
L 1484 -844 
Q 1016 -109 783 600 
Q 550 1309 550 2009 
Q 550 2706 781 3412 
Q 1013 4119 1484 4856 
L 1984 4856 
z
" transform="scale(0.015625)"/>
       <path id="DejaVuSans-73" d="M 2834 3397 
L 2834 2853 
Q 2591 2978 2328 3040 
Q 2066 3103 1784 3103 
Q 1356 3103 1142 2972 
Q 928 2841 928 2578 
Q 928 2378 1081 2264 
Q 1234 2150 1697 2047 
L 1894 2003 
Q 2506 1872 2764 1633 
Q 3022 1394 3022 966 
Q 3022 478 2636 193 
Q 2250 -91 1575 -91 
Q 1294 -91 989 -36 
Q 684 19 347 128 
L 347 722 
Q 666 556 975 473 
Q 1284 391 1588 391 
Q 1994 391 2212 530 
Q 2431 669 2431 922 
Q 2431 1156 2273 1281 
Q 2116 1406 1581 1522 
L 1381 1569 
Q 847 1681 609 1914 
Q 372 2147 372 2553 
Q 372 3047 722 3315 
Q 1072 3584 1716 3584 
Q 2034 3584 2315 3537 
Q 2597 3491 2834 3397 
z
" transform="scale(0.015625)"/>
       <path id="DejaVuSans-29" d="M 513 4856 
L 1013 4856 
Q 1481 4119 1714 3412 
Q 1947 2706 1947 2009 
Q 1947 1309 1714 600 
Q 1481 -109 1013 -844 
L 513 -844 
Q 928 -128 1133 580 
Q 1338 1288 1338 2009 
Q 1338 2731 1133 3434 
Q 928 4138 513 4856 
z
" transform="scale(0.015625)"/>
      </defs>
      <use xlink:href="#DejaVuSans-54"/>
      <use xlink:href="#DejaVuSans-69" transform="translate(57.958984 0)"/>
      <use xlink:href="#DejaVuSans-6d" transform="translate(85.742188 0)"/>
      <use xlink:href="#DejaVuSans-65" transform="translate(183.154297 0)"/>
      <use xlink:href="#DejaVuSans-20" transform="translate(244.677734 0)"/>
      <use xlink:href="#DejaVuSans-28" transform="translate(276.464844 0)"/>
      <use xlink:href="#DejaVuSans-73" transform="translate(315.478516 0)"/>
      <use xlink:href="#DejaVuSans-29" transform="translate(367.578125 0)"/>
     </g>
    </g>
   </g>
   <g id="matplotlib.axis_2">
    <g id="ytick_1">
     <g id="line2d_6">
      <defs>
       <path id="m221851b22c" d="M 0 0 
L -5 0 
" style="stroke: #000000; stroke-width: 1.6"/>
      </defs>
      <g>
       <use xlink:href="#m221851b22c" x="101.56" y="315.617594" style="stroke: #000000; stroke-width: 1.6"/>
      </g>
     </g>
     <g id="text_7">
      <!-- 0.0 -->
      <g transform="translate(42.17 327.775094) scale(0.32 -0.32)">
       <defs>
        <path id="DejaVuSans-2e" d="M 684 794 
L 1344 794 
L 1344 0 
L 684 0 
L 684 794 
z
" transform="scale(0.015625)"/>
       </defs>
       <use xlink:href="#DejaVuSans-30"/>
       <use xlink:href="#DejaVuSans-2e" transform="translate(63.623047 0)"/>
       <use xlink:href="#DejaVuSans-30" transform="translate(95.410156 0)"/>
      </g>
     </g>
    </g>
    <g id="ytick_2">
     <g id="line2d_7">
      <g>
       <use xlink:href="#m221851b22c" x="101.56" y="181.973009" style="stroke: #000000; stroke-width: 1.6"/>
      </g>
     </g>
     <g id="text_8">
      <!-- 0.2 -->
      <g transform="translate(42.17 194.130509) scale(0.32 -0.32)">
       <use xlink:href="#DejaVuSans-30"/>
       <use xlink:href="#DejaVuSans-2e" transform="translate(63.623047 0)"/>
       <use xlink:href="#DejaVuSans-32" transform="translate(95.410156 0)"/>
      </g>
     </g>
    </g>
    <g id="ytick_3">
     <g id="line2d_8">
      <g>
       <use xlink:href="#m221851b22c" x="101.56" y="48.328424" style="stroke: #000000; stroke-width: 1.6"/>
      </g>
     </g>
     <g id="text_9">
      <!-- 0.4 -->
      <g transform="translate(42.17 60.485924) scale(0.32 -0.32)">
       <defs>
        <path id="DejaVuSans-34" d="M 2419 4116 
L 825 1625 
L 2419 1625 
L 2419 4116 
z
M 2253 4666 
L 3047 4666 
L 3047 1625 
L 3713 1625 
L 3713 1100 
L 3047 1100 
L 3047 0 
L 2419 0 
L 2419 1100 
L 313 1100 
L 313 1709 
L 2253 4666 
z
" transform="scale(0.015625)"/>
       </defs>
       <use xlink:href="#DejaVuSans-30"/>
       <use xlink:href="#DejaVuSans-2e" transform="translate(63.623047 0)"/>
       <use xlink:href="#DejaVuSans-34" transform="translate(95.410156 0)"/>
      </g>
     </g>
    </g>
    <g id="text_10">
     <!-- Neural Activity -->
     <g transform="translate(31.515 301.885156) rotate(-90) scale(0.32 -0.32)">
      <defs>
       <path id="DejaVuSans-4e" d="M 628 4666 
L 1478 4666 
L 3547 763 
L 3547 4666 
L 4159 4666 
L 4159 0 
L 3309 0 
L 1241 3903 
L 1241 0 
L 628 0 
L 628 4666 
z
" transform="scale(0.015625)"/>
       <path id="DejaVuSans-75" d="M 544 1381 
L 544 3500 
L 1119 3500 
L 1119 1403 
Q 1119 906 1312 657 
Q 1506 409 1894 409 
Q 2359 409 2629 706 
Q 2900 1003 2900 1516 
L 2900 3500 
L 3475 3500 
L 3475 0 
L 2900 0 
L 2900 538 
Q 2691 219 2414 64 
Q 2138 -91 1772 -91 
Q 1169 -91 856 284 
Q 544 659 544 1381 
z
M 1991 3584 
L 1991 3584 
z
" transform="scale(0.015625)"/>
       <path id="DejaVuSans-72" d="M 2631 2963 
Q 2534 3019 2420 3045 
Q 2306 3072 2169 3072 
Q 1681 3072 1420 2755 
Q 1159 2438 1159 1844 
L 1159 0 
L 581 0 
L 581 3500 
L 1159 3500 
L 1159 2956 
Q 1341 3275 1631 3429 
Q 1922 3584 2338 3584 
Q 2397 3584 2469 3576 
Q 2541 3569 2628 3553 
L 2631 2963 
z
" transform="scale(0.015625)"/>
       <path id="DejaVuSans-61" d="M 2194 1759 
Q 1497 1759 1228 1600 
Q 959 1441 959 1056 
Q 959 750 1161 570 
Q 1363 391 1709 391 
Q 2188 391 2477 730 
Q 2766 1069 2766 1631 
L 2766 1759 
L 2194 1759 
z
M 3341 1997 
L 3341 0 
L 2766 0 
L 2766 531 
Q 2569 213 2275 61 
Q 1981 -91 1556 -91 
Q 1019 -91 701 211 
Q 384 513 384 1019 
Q 384 1609 779 1909 
Q 1175 2209 1959 2209 
L 2766 2209 
L 2766 2266 
Q 2766 2663 2505 2880 
Q 2244 3097 1772 3097 
Q 1472 3097 1187 3025 
Q 903 2953 641 2809 
L 641 3341 
Q 956 3463 1253 3523 
Q 1550 3584 1831 3584 
Q 2591 3584 2966 3190 
Q 3341 2797 3341 1997 
z
" transform="scale(0.015625)"/>
       <path id="DejaVuSans-6c" d="M 603 4863 
L 1178 4863 
L 1178 0 
L 603 0 
L 603 4863 
z
" transform="scale(0.015625)"/>
       <path id="DejaVuSans-41" d="M 2188 4044 
L 1331 1722 
L 3047 1722 
L 2188 4044 
z
M 1831 4666 
L 2547 4666 
L 4325 0 
L 3669 0 
L 3244 1197 
L 1141 1197 
L 716 0 
L 50 0 
L 1831 4666 
z
" transform="scale(0.015625)"/>
       <path id="DejaVuSans-63" d="M 3122 3366 
L 3122 2828 
Q 2878 2963 2633 3030 
Q 2388 3097 2138 3097 
Q 1578 3097 1268 2742 
Q 959 2388 959 1747 
Q 959 1106 1268 751 
Q 1578 397 2138 397 
Q 2388 397 2633 464 
Q 2878 531 3122 666 
L 3122 134 
Q 2881 22 2623 -34 
Q 2366 -91 2075 -91 
Q 1284 -91 818 406 
Q 353 903 353 1747 
Q 353 2603 823 3093 
Q 1294 3584 2113 3584 
Q 2378 3584 2631 3529 
Q 2884 3475 3122 3366 
z
" transform="scale(0.015625)"/>
       <path id="DejaVuSans-74" d="M 1172 4494 
L 1172 3500 
L 2356 3500 
L 2356 3053 
L 1172 3053 
L 1172 1153 
Q 1172 725 1289 603 
Q 1406 481 1766 481 
L 2356 481 
L 2356 0 
L 1766 0 
Q 1100 0 847 248 
Q 594 497 594 1153 
L 594 3053 
L 172 3053 
L 172 3500 
L 594 3500 
L 594 4494 
L 1172 4494 
z
" transform="scale(0.015625)"/>
       <path id="DejaVuSans-76" d="M 191 3500 
L 800 3500 
L 1894 563 
L 2988 3500 
L 3597 3500 
L 2284 0 
L 1503 0 
L 191 3500 
z
" transform="scale(0.015625)"/>
       <path id="DejaVuSans-79" d="M 2059 -325 
Q 1816 -950 1584 -1140 
Q 1353 -1331 966 -1331 
L 506 -1331 
L 506 -850 
L 844 -850 
Q 1081 -850 1212 -737 
Q 1344 -625 1503 -206 
L 1606 56 
L 191 3500 
L 800 3500 
L 1894 763 
L 2988 3500 
L 3597 3500 
L 2059 -325 
z
" transform="scale(0.015625)"/>
      </defs>
      <use xlink:href="#DejaVuSans-4e"/>
      <use xlink:href="#DejaVuSans-65" transform="translate(74.804688 0)"/>
      <use xlink:href="#DejaVuSans-75" transform="translate(136.328125 0)"/>
      <use xlink:href="#DejaVuSans-72" transform="translate(199.707031 0)"/>
      <use xlink:href="#DejaVuSans-61" transform="translate(240.820312 0)"/>
      <use xlink:href="#DejaVuSans-6c" transform="translate(302.099609 0)"/>
      <use xlink:href="#DejaVuSans-20" transform="translate(329.882812 0)"/>
      <use xlink:href="#DejaVuSans-41" transform="translate(361.669922 0)"/>
      <use xlink:href="#DejaVuSans-63" transform="translate(428.328125 0)"/>
      <use xlink:href="#DejaVuSans-74" transform="translate(483.308594 0)"/>
      <use xlink:href="#DejaVuSans-69" transform="translate(522.517578 0)"/>
      <use xlink:href="#DejaVuSans-76" transform="translate(550.300781 0)"/>
      <use xlink:href="#DejaVuSans-69" transform="translate(609.480469 0)"/>
      <use xlink:href="#DejaVuSans-74" transform="translate(637.263672 0)"/>
      <use xlink:href="#DejaVuSans-79" transform="translate(676.472656 0)"/>
     </g>
    </g>
   </g>
   <g id="line2d_9">
    <path d="M 102.31236 308.381067 
L 103.064719 307.474638 
L 103.817079 307.692834 
L 104.569438 307.330768 
L 105.321798 307.155644 
L 106.074157 306.560874 
L 106.826517 307.01371 
L 107.578876 307.140019 
L 110.588315 308.712557 
L 111.340674 308.7979 
L 113.597753 309.770559 
L 114.350112 309.854799 
L 115.854831 310.416672 
L 116.607191 310.089261 
L 117.359551 310.365678 
L 118.11191 309.172309 
L 118.86427 308.47809 
L 119.616629 308.835066 
L 120.368989 306.88363 
L 121.121348 305.95334 
L 121.873708 306.436553 
L 122.626067 304.974402 
L 123.378427 304.996416 
L 124.130787 305.527475 
L 124.883146 305.072522 
L 125.635506 305.599776 
L 127.140225 306.468169 
L 127.892584 306.615616 
L 128.644944 305.632265 
L 129.397303 306.131531 
L 130.149663 305.642446 
L 130.902022 304.924226 
L 133.159101 306.449367 
L 133.911461 305.235476 
L 134.66382 304.943362 
L 135.41618 304.367959 
L 136.168539 304.93044 
L 136.920899 305.099423 
L 139.177978 306.599578 
L 139.930337 306.995388 
L 140.682697 306.351091 
L 141.435056 306.814416 
L 142.187416 305.850697 
L 142.939775 305.139054 
L 143.692135 305.662981 
L 144.444494 305.482003 
L 145.196854 305.672517 
L 145.949213 303.693809 
L 146.701573 303.195409 
L 147.453933 303.816517 
L 148.206292 304.00861 
L 150.463371 305.664341 
L 151.21573 305.923136 
L 153.472809 307.305809 
L 154.225169 307.556798 
L 154.977528 306.679257 
L 155.729888 306.959707 
L 157.234607 307.803851 
L 157.986966 307.649043 
L 158.739326 306.553565 
L 159.491685 305.97229 
L 160.244045 305.22161 
L 160.996404 305.71669 
L 161.748764 306.009247 
L 162.501124 305.143336 
L 163.253483 305.667049 
L 164.005843 306.010458 
L 164.758202 305.624683 
L 165.510562 304.236438 
L 166.262921 304.763466 
L 167.76764 305.508049 
L 168.52 306.013527 
L 169.27236 305.366883 
L 170.024719 305.879419 
L 170.777079 306.226927 
L 171.529438 303.989343 
L 172.281798 304.425989 
L 173.034157 304.686515 
L 175.291236 306.245561 
L 176.043596 306.622758 
L 177.548315 276.418619 
L 179.053034 253.924539 
L 180.557753 233.849701 
L 184.319551 193.818109 
L 185.82427 178.807074 
L 186.576629 174.475003 
L 187.328989 169.162795 
L 188.081348 161.450071 
L 188.833708 155.302167 
L 189.586067 150.787389 
L 190.338427 147.351314 
L 191.843146 135.998103 
L 192.595506 131.623225 
L 193.347865 127.931956 
L 194.100225 124.845412 
L 194.852584 120.849509 
L 197.109663 111.042945 
L 197.862022 107.958294 
L 198.614382 107.223684 
L 199.366742 101.696349 
L 200.871461 95.66609 
L 202.37618 90.46145 
L 203.128539 88.151755 
L 203.880899 87.980072 
L 204.633258 85.025104 
L 206.890337 78.76752 
L 207.642697 76.959992 
L 208.395056 76.256489 
L 209.147416 75.730246 
L 209.899775 72.926948 
L 210.652135 71.848752 
L 211.404494 71.367217 
L 212.156854 69.593842 
L 212.909213 68.527575 
L 213.661573 67.952103 
L 215.166292 65.551876 
L 215.918652 63.919756 
L 216.671011 62.640004 
L 217.423371 61.645569 
L 218.17573 61.114526 
L 219.680449 57.793967 
L 220.432809 57.414355 
L 221.185169 56.196796 
L 221.937528 55.632237 
L 222.689888 55.436238 
L 223.442247 55.788866 
L 224.194607 57.791756 
L 224.946966 56.978066 
L 225.699326 57.263382 
L 226.451685 56.447421 
L 227.956404 59.873389 
L 228.708764 60.38856 
L 229.461124 60.308662 
L 230.213483 60.692098 
L 230.965843 60.196981 
L 231.718202 60.57968 
L 232.470562 59.906348 
L 233.222921 58.351874 
L 233.975281 59.185798 
L 234.72764 57.160941 
L 235.48 57.270412 
L 236.23236 57.064973 
L 236.984719 58.879989 
L 237.737079 59.6002 
L 238.489438 57.239783 
L 239.241798 58.540804 
L 239.994157 57.68828 
L 240.746517 56.223163 
L 241.498876 58.187917 
L 242.251236 57.044501 
L 243.003596 57.94484 
L 243.755955 56.238258 
L 244.508315 56.646468 
L 245.260674 55.643111 
L 246.013034 54.219516 
L 246.765393 54.025568 
L 247.517753 52.852817 
L 248.270112 54.203584 
L 249.022472 53.426796 
L 249.774831 54.138683 
L 250.527191 54.586522 
L 251.279551 56.946023 
L 253.536629 93.839065 
L 256.546067 132.523026 
L 260.307865 172.31185 
L 261.060225 176.191969 
L 264.822022 207.123617 
L 265.574382 211.170601 
L 267.079101 221.354189 
L 268.58382 229.942587 
L 269.33618 231.865898 
L 270.088539 236.053485 
L 273.097978 249.61495 
L 274.602697 256.050207 
L 275.355056 258.466117 
L 276.107416 260.319573 
L 278.364494 268.206455 
L 280.621573 274.968473 
L 281.373933 275.805277 
L 283.631011 281.483508 
L 284.383371 281.821615 
L 285.13573 282.437041 
L 285.88809 283.667118 
L 288.145169 288.224055 
L 289.649888 287.74567 
L 291.906966 291.720904 
L 292.659326 292.91574 
L 294.164045 294.94518 
L 296.421124 297.893585 
L 297.173483 298.779785 
L 300.182921 301.342104 
L 300.935281 300.424974 
L 301.68764 301.184605 
L 302.44 301.627439 
L 303.944719 302.991479 
L 304.697079 303.465503 
L 305.449438 303.194556 
L 306.954157 304.324235 
L 307.706517 303.673096 
L 308.458876 304.270321 
L 309.211236 304.390247 
L 309.963596 303.149505 
L 310.715955 303.772909 
L 311.468315 303.811865 
L 312.220674 304.402151 
L 312.973034 303.860713 
L 314.477753 305.007009 
L 315.230112 304.864036 
L 315.982472 303.302268 
L 316.734831 302.928706 
L 318.239551 304.165873 
L 318.99191 304.206209 
L 321.248989 302.484018 
L 322.001348 302.836736 
L 324.258427 304.659607 
L 326.515506 306.222491 
L 328.020225 307.138513 
L 328.772584 306.153974 
L 329.524944 305.723673 
L 330.277303 305.553543 
L 331.029663 306.056746 
L 332.534382 303.921496 
L 333.286742 304.239131 
L 334.791461 305.348532 
L 335.54382 305.474632 
L 337.048539 306.46357 
L 337.800899 305.807479 
L 338.553258 305.772059 
L 339.305618 306.264336 
L 340.810337 306.286496 
L 341.562697 306.753051 
L 342.315056 306.968828 
L 343.067416 306.33565 
L 344.572135 307.238994 
L 345.324494 305.757874 
L 346.076854 304.538887 
L 347.581573 305.619062 
L 348.333933 305.751807 
L 349.838652 306.713722 
L 350.591011 306.531839 
L 351.343371 306.986127 
L 352.09573 305.49886 
L 352.84809 304.895531 
L 353.600449 305.431635 
L 355.105169 305.03652 
L 357.362247 306.545646 
L 359.619326 307.839533 
L 360.371685 307.755297 
L 361.876404 308.521871 
L 362.628764 307.878636 
L 363.381124 307.840149 
L 364.885843 308.596085 
L 365.638202 308.776871 
L 366.390562 308.158284 
L 367.142921 307.167244 
L 367.895281 306.661704 
L 369.4 307.534903 
L 373.161798 309.128434 
L 373.914157 309.056945 
L 375.418876 309.61926 
L 376.171236 309.919177 
L 376.923596 309.572402 
L 378.428315 310.161808 
L 379.180674 308.008191 
L 379.933034 308.388661 
L 380.685393 307.627094 
L 381.437753 306.365129 
L 382.190112 306.722839 
L 382.942472 306.349822 
L 385.199551 307.671638 
L 385.95191 307.700531 
L 386.70427 307.960451 
L 387.456629 308.343308 
L 388.208989 308.482453 
L 391.218427 309.805977 
L 391.970787 309.639427 
L 392.723146 308.65389 
L 393.475506 308.725852 
L 394.227865 309.070439 
L 394.980225 308.725015 
L 397.237303 309.664184 
L 397.989663 309.714792 
L 398.742022 310.009932 
L 399.494382 309.262902 
L 401.751461 310.16924 
L 401.751461 310.16924 
" clip-path="url(#p90dec2ecc0)" style="fill: none; stroke: #000000; stroke-width: 5; stroke-linecap: square"/>
   </g>
   <g id="line2d_10">
    <path d="M 102.31236 313.437942 
L 103.064719 313.546924 
L 103.817079 313.370441 
L 108.331236 313.945156 
L 113.597753 314.328654 
L 114.350112 314.279299 
L 115.102472 314.114929 
L 115.854831 313.710924 
L 116.607191 313.691068 
L 117.359551 313.787395 
L 118.86427 313.792621 
L 119.616629 313.883869 
L 121.121348 312.671182 
L 124.130787 313.16661 
L 124.883146 312.626093 
L 126.387865 312.917765 
L 127.140225 312.845359 
L 127.892584 312.98397 
L 129.397303 312.850142 
L 131.654382 313.24485 
L 132.406742 312.894084 
L 133.159101 312.877049 
L 133.911461 312.632924 
L 134.66382 312.782157 
L 135.41618 312.575668 
L 136.168539 312.727765 
L 136.920899 312.387992 
L 138.425618 312.702878 
L 139.930337 312.246136 
L 140.682697 312.414709 
L 141.435056 312.236451 
L 142.187416 312.342861 
L 142.939775 312.093683 
L 143.692135 312.269878 
L 144.444494 311.82916 
L 145.949213 312.17087 
L 147.453933 311.158596 
L 148.958652 311.593349 
L 149.711011 311.174165 
L 150.463371 311.396337 
L 151.21573 310.951438 
L 151.96809 310.939156 
L 152.720449 310.644209 
L 154.977528 311.353538 
L 156.482247 311.07897 
L 157.234607 311.198285 
L 157.986966 311.084344 
L 158.739326 311.311006 
L 159.491685 311.342687 
L 161.748764 311.952396 
L 162.501124 311.990186 
L 163.253483 312.171556 
L 164.005843 311.815546 
L 164.758202 311.600602 
L 166.262921 311.727073 
L 167.015281 311.505094 
L 167.76764 311.710719 
L 168.52 311.503303 
L 169.27236 311.076692 
L 170.024719 311.303737 
L 170.777079 310.903288 
L 172.281798 311.362933 
L 173.034157 311.095293 
L 173.786517 311.321408 
L 174.538876 311.211032 
L 175.291236 311.43136 
L 176.043596 311.148344 
L 176.795955 311.043237 
L 178.300674 311.216347 
L 179.805393 311.645469 
L 180.557753 311.59427 
L 184.319551 312.504423 
L 185.82427 312.807957 
L 186.576629 312.832356 
L 188.081348 311.980337 
L 191.843146 312.803154 
L 193.347865 313.001954 
L 194.852584 313.256979 
L 196.357303 313.327076 
L 197.862022 313.550401 
L 198.614382 313.423389 
L 199.366742 313.082046 
L 200.119101 312.945822 
L 203.128539 313.441419 
L 204.633258 313.420173 
L 206.137978 313.350234 
L 206.890337 312.868479 
L 208.395056 313.136517 
L 209.147416 312.898848 
L 209.899775 313.034785 
L 210.652135 312.958229 
L 212.156854 313.138 
L 213.661573 313.379761 
L 214.413933 312.948436 
L 217.423371 313.408739 
L 218.17573 312.725156 
L 219.680449 313.007169 
L 220.432809 312.92256 
L 221.185169 312.130848 
L 224.946966 312.919617 
L 225.699326 312.91063 
L 226.451685 313.045978 
L 227.204045 312.669549 
L 229.461124 313.090014 
L 230.213483 313.0217 
L 233.975281 313.595713 
L 236.23236 312.7635 
L 237.737079 312.938219 
L 239.241798 313.095246 
L 243.003596 313.665849 
L 243.755955 313.185793 
L 246.765393 313.636877 
L 248.270112 313.111305 
L 249.022472 313.23662 
L 249.774831 312.578342 
L 252.03191 313.011815 
L 252.78427 312.871317 
L 255.793708 313.380734 
L 256.546067 313.000698 
L 257.298427 313.105973 
L 258.050787 312.440348 
L 258.803146 312.1259 
L 261.060225 312.623903 
L 261.812584 312.590154 
L 262.564944 312.335008 
L 263.317303 312.345639 
L 264.069663 312.509237 
L 264.822022 311.979043 
L 265.574382 312.106447 
L 266.326742 311.960223 
L 267.079101 311.958209 
L 268.58382 312.314999 
L 269.33618 312.315391 
L 270.088539 312.480501 
L 270.840899 312.440355 
L 271.593258 312.599217 
L 272.345618 312.317146 
L 273.850337 312.616615 
L 275.355056 312.82335 
L 276.107416 312.591312 
L 276.859775 312.080641 
L 278.364494 311.294037 
L 279.116854 311.510215 
L 279.869213 311.598262 
L 283.631011 312.507512 
L 284.383371 312.503208 
L 286.640449 312.947397 
L 287.392809 313.007279 
L 288.145169 312.2445 
L 288.897528 311.927162 
L 289.649888 311.741894 
L 291.906966 312.239638 
L 292.659326 312.408536 
L 293.411685 311.609768 
L 294.164045 311.31388 
L 295.668764 311.733492 
L 296.421124 311.242414 
L 297.173483 311.461173 
L 297.925843 311.2809 
L 299.430562 311.198171 
L 300.182921 311.378093 
L 300.935281 311.116879 
L 303.19236 311.651266 
L 303.944719 311.18783 
L 305.449438 311.535797 
L 306.954157 311.221526 
L 309.211236 311.837461 
L 309.963596 311.363345 
L 310.715955 311.441925 
L 312.220674 311.849053 
L 312.973034 311.694541 
L 315.982472 312.422243 
L 317.487191 312.625649 
L 318.239551 312.056612 
L 318.99191 311.979008 
L 319.74427 312.160937 
L 320.496629 311.720862 
L 322.001348 312.100794 
L 322.753708 311.629963 
L 323.506067 311.466424 
L 325.010787 311.871163 
L 325.763146 311.790242 
L 329.524944 312.656062 
L 330.277303 312.413765 
L 331.029663 312.447012 
L 331.782022 312.210526 
L 334.039101 312.665037 
L 334.791461 312.59986 
L 335.54382 312.122812 
L 336.29618 312.176273 
L 337.800899 312.511802 
L 338.553258 312.366789 
L 342.315056 313.102183 
L 343.067416 313.227954 
L 343.819775 312.954524 
L 346.829213 312.828 
L 347.581573 312.96748 
L 349.086292 312.887849 
L 350.591011 313.085912 
L 351.343371 312.945558 
L 352.09573 313.07916 
L 352.84809 313.08946 
L 354.352809 313.230102 
L 355.857528 313.383609 
L 356.609888 313.111745 
L 357.362247 313.011504 
L 358.866966 313.265598 
L 360.371685 312.784621 
L 363.381124 313.31012 
L 364.133483 312.775272 
L 364.885843 312.628773 
L 366.390562 312.920183 
L 367.142921 312.812421 
L 370.904719 313.447005 
L 372.409438 313.607239 
L 373.161798 313.200037 
L 376.923596 313.693978 
L 377.675955 313.525203 
L 378.428315 313.19725 
L 381.437753 313.646208 
L 382.190112 313.52735 
L 382.942472 313.631862 
L 383.694831 313.564187 
L 385.199551 313.745971 
L 385.95191 313.728876 
L 386.70427 313.823312 
L 387.456629 313.797735 
L 388.208989 313.888728 
L 388.961348 313.591344 
L 391.218427 313.880338 
L 391.970787 313.475659 
L 393.475506 313.290135 
L 394.227865 313.406508 
L 396.484944 312.970894 
L 397.237303 313.103229 
L 397.989663 313.00252 
L 401.751461 313.562613 
L 401.751461 313.562613 
" clip-path="url(#p90dec2ecc0)" style="fill: none; stroke: #ff0000; stroke-width: 5; stroke-linecap: square"/>
   </g>
   <g id="patch_3">
    <path d="M 101.56 336.640156 
L 101.56 31.720156 
" style="fill: none; stroke: #000000; stroke-width: 5; stroke-linejoin: miter; stroke-linecap: square"/>
   </g>
   <g id="patch_4">
    <path d="M 101.56 336.640156 
L 402.50382 336.640156 
" style="fill: none; stroke: #000000; stroke-width: 5; stroke-linejoin: miter; stroke-linecap: square"/>
   </g>
   <g id="text_11">
    <!-- A -->
    <g transform="translate(65.446742 16.444681) scale(0.12 -0.12)">
     <defs>
      <path id="DejaVuSans-Bold-41" d="M 3419 850 
L 1538 850 
L 1241 0 
L 31 0 
L 1759 4666 
L 3194 4666 
L 4922 0 
L 3713 0 
L 3419 850 
z
M 1838 1716 
L 3116 1716 
L 2478 3572 
L 1838 1716 
z
" transform="scale(0.015625)"/>
     </defs>
     <use xlink:href="#DejaVuSans-Bold-41"/>
    </g>
   </g>
   <g id="patch_5">
    <path d="M 176.795955 330.541756 
L 252.03191 330.541756 
L 252.03191 319.869556 
L 176.795955 319.869556 
z
" style="fill: #8c5a2b; stroke: #8c5a2b; stroke-linejoin: miter"/>
   </g>
   <g id="text_12">
    <!-- Familiar | Naive -->
    <g transform="translate(178.439566 21.720156) scale(0.19 -0.19)">
     <defs>
      <path id="DejaVuSans-46" d="M 628 4666 
L 3309 4666 
L 3309 4134 
L 1259 4134 
L 1259 2759 
L 3109 2759 
L 3109 2228 
L 1259 2228 
L 1259 0 
L 628 0 
L 628 4666 
z
" transform="scale(0.015625)"/>
      <path id="DejaVuSans-7c" d="M 1344 4891 
L 1344 -1509 
L 813 -1509 
L 813 4891 
L 1344 4891 
z
" transform="scale(0.015625)"/>
     </defs>
     <use xlink:href="#DejaVuSans-46"/>
     <use xlink:href="#DejaVuSans-61" transform="translate(48.394531 0)"/>
     <use xlink:href="#DejaVuSans-6d" transform="translate(109.673828 0)"/>
     <use xlink:href="#DejaVuSans-69" transform="translate(207.085938 0)"/>
     <use xlink:href="#DejaVuSans-6c" transform="translate(234.869141 0)"/>
     <use xlink:href="#DejaVuSans-69" transform="translate(262.652344 0)"/>
     <use xlink:href="#DejaVuSans-61" transform="translate(290.435547 0)"/>
     <use xlink:href="#DejaVuSans-72" transform="translate(351.714844 0)"/>
     <use xlink:href="#DejaVuSans-20" transform="translate(392.828125 0)"/>
     <use xlink:href="#DejaVuSans-7c" transform="translate(424.615234 0)"/>
     <use xlink:href="#DejaVuSans-20" transform="translate(458.306641 0)"/>
     <use xlink:href="#DejaVuSans-4e" transform="translate(490.09375 0)"/>
     <use xlink:href="#DejaVuSans-61" transform="translate(564.898438 0)"/>
     <use xlink:href="#DejaVuSans-69" transform="translate(626.177734 0)"/>
     <use xlink:href="#DejaVuSans-76" transform="translate(653.960938 0)"/>
     <use xlink:href="#DejaVuSans-65" transform="translate(713.140625 0)"/>
    </g>
   </g>
   <g id="legend_1">
    <g id="line2d_11">
     <path d="M 110.56 46.867813 
L 125.56 46.867813 
L 140.56 46.867813 
" style="fill: none; stroke: #000000; stroke-width: 5; stroke-linecap: square"/>
    </g>
    <g id="text_13">
     <!-- Nonoccluded (NO) -->
     <g transform="translate(152.56 52.117813) scale(0.15 -0.15)">
      <defs>
       <path id="DejaVuSans-6f" d="M 1959 3097 
Q 1497 3097 1228 2736 
Q 959 2375 959 1747 
Q 959 1119 1226 758 
Q 1494 397 1959 397 
Q 2419 397 2687 759 
Q 2956 1122 2956 1747 
Q 2956 2369 2687 2733 
Q 2419 3097 1959 3097 
z
M 1959 3584 
Q 2709 3584 3137 3096 
Q 3566 2609 3566 1747 
Q 3566 888 3137 398 
Q 2709 -91 1959 -91 
Q 1206 -91 779 398 
Q 353 888 353 1747 
Q 353 2609 779 3096 
Q 1206 3584 1959 3584 
z
" transform="scale(0.015625)"/>
       <path id="DejaVuSans-6e" d="M 3513 2113 
L 3513 0 
L 2938 0 
L 2938 2094 
Q 2938 2591 2744 2837 
Q 2550 3084 2163 3084 
Q 1697 3084 1428 2787 
Q 1159 2491 1159 1978 
L 1159 0 
L 581 0 
L 581 3500 
L 1159 3500 
L 1159 2956 
Q 1366 3272 1645 3428 
Q 1925 3584 2291 3584 
Q 2894 3584 3203 3211 
Q 3513 2838 3513 2113 
z
" transform="scale(0.015625)"/>
       <path id="DejaVuSans-64" d="M 2906 2969 
L 2906 4863 
L 3481 4863 
L 3481 0 
L 2906 0 
L 2906 525 
Q 2725 213 2448 61 
Q 2172 -91 1784 -91 
Q 1150 -91 751 415 
Q 353 922 353 1747 
Q 353 2572 751 3078 
Q 1150 3584 1784 3584 
Q 2172 3584 2448 3432 
Q 2725 3281 2906 2969 
z
M 947 1747 
Q 947 1113 1208 752 
Q 1469 391 1925 391 
Q 2381 391 2643 752 
Q 2906 1113 2906 1747 
Q 2906 2381 2643 2742 
Q 2381 3103 1925 3103 
Q 1469 3103 1208 2742 
Q 947 2381 947 1747 
z
" transform="scale(0.015625)"/>
       <path id="DejaVuSans-4f" d="M 2522 4238 
Q 1834 4238 1429 3725 
Q 1025 3213 1025 2328 
Q 1025 1447 1429 934 
Q 1834 422 2522 422 
Q 3209 422 3611 934 
Q 4013 1447 4013 2328 
Q 4013 3213 3611 3725 
Q 3209 4238 2522 4238 
z
M 2522 4750 
Q 3503 4750 4090 4092 
Q 4678 3434 4678 2328 
Q 4678 1225 4090 567 
Q 3503 -91 2522 -91 
Q 1538 -91 948 565 
Q 359 1222 359 2328 
Q 359 3434 948 4092 
Q 1538 4750 2522 4750 
z
" transform="scale(0.015625)"/>
      </defs>
      <use xlink:href="#DejaVuSans-4e"/>
      <use xlink:href="#DejaVuSans-6f" transform="translate(74.804688 0)"/>
      <use xlink:href="#DejaVuSans-6e" transform="translate(135.986328 0)"/>
      <use xlink:href="#DejaVuSans-6f" transform="translate(199.365234 0)"/>
      <use xlink:href="#DejaVuSans-63" transform="translate(260.546875 0)"/>
      <use xlink:href="#DejaVuSans-63" transform="translate(315.527344 0)"/>
      <use xlink:href="#DejaVuSans-6c" transform="translate(370.507812 0)"/>
      <use xlink:href="#DejaVuSans-75" transform="translate(398.291016 0)"/>
      <use xlink:href="#DejaVuSans-64" transform="translate(461.669922 0)"/>
      <use xlink:href="#DejaVuSans-65" transform="translate(525.146484 0)"/>
      <use xlink:href="#DejaVuSans-64" transform="translate(586.669922 0)"/>
      <use xlink:href="#DejaVuSans-20" transform="translate(650.146484 0)"/>
      <use xlink:href="#DejaVuSans-28" transform="translate(681.933594 0)"/>
      <use xlink:href="#DejaVuSans-4e" transform="translate(720.947266 0)"/>
      <use xlink:href="#DejaVuSans-4f" transform="translate(795.751953 0)"/>
      <use xlink:href="#DejaVuSans-29" transform="translate(874.462891 0)"/>
     </g>
    </g>
    <g id="line2d_12">
     <path d="M 110.56 68.885 
L 125.56 68.885 
L 140.56 68.885 
" style="fill: none; stroke: #ff0000; stroke-width: 5; stroke-linecap: square"/>
    </g>
    <g id="text_14">
     <!-- Occluded (O) -->
     <g transform="translate(152.56 74.135) scale(0.15 -0.15)">
      <use xlink:href="#DejaVuSans-4f"/>
      <use xlink:href="#DejaVuSans-63" transform="translate(78.710938 0)"/>
      <use xlink:href="#DejaVuSans-63" transform="translate(133.691406 0)"/>
      <use xlink:href="#DejaVuSans-6c" transform="translate(188.671875 0)"/>
      <use xlink:href="#DejaVuSans-75" transform="translate(216.455078 0)"/>
      <use xlink:href="#DejaVuSans-64" transform="translate(279.833984 0)"/>
      <use xlink:href="#DejaVuSans-65" transform="translate(343.310547 0)"/>
      <use xlink:href="#DejaVuSans-64" transform="translate(404.833984 0)"/>
      <use xlink:href="#DejaVuSans-20" transform="translate(468.310547 0)"/>
      <use xlink:href="#DejaVuSans-28" transform="translate(500.097656 0)"/>
      <use xlink:href="#DejaVuSans-4f" transform="translate(539.111328 0)"/>
      <use xlink:href="#DejaVuSans-29" transform="translate(617.822266 0)"/>
     </g>
    </g>
    <g id="line2d_13">
     <path d="M 110.56 90.902188 
L 125.56 90.902188 
L 140.56 90.902188 
" style="fill: none; stroke: #0000ff; stroke-width: 5; stroke-linecap: square"/>
    </g>
    <g id="text_15">
     <!-- No feedback -->
     <g transform="translate(152.56 96.152188) scale(0.15 -0.15)">
      <defs>
       <path id="DejaVuSans-66" d="M 2375 4863 
L 2375 4384 
L 1825 4384 
Q 1516 4384 1395 4259 
Q 1275 4134 1275 3809 
L 1275 3500 
L 2222 3500 
L 2222 3053 
L 1275 3053 
L 1275 0 
L 697 0 
L 697 3053 
L 147 3053 
L 147 3500 
L 697 3500 
L 697 3744 
Q 697 4328 969 4595 
Q 1241 4863 1831 4863 
L 2375 4863 
z
" transform="scale(0.015625)"/>
       <path id="DejaVuSans-62" d="M 3116 1747 
Q 3116 2381 2855 2742 
Q 2594 3103 2138 3103 
Q 1681 3103 1420 2742 
Q 1159 2381 1159 1747 
Q 1159 1113 1420 752 
Q 1681 391 2138 391 
Q 2594 391 2855 752 
Q 3116 1113 3116 1747 
z
M 1159 2969 
Q 1341 3281 1617 3432 
Q 1894 3584 2278 3584 
Q 2916 3584 3314 3078 
Q 3713 2572 3713 1747 
Q 3713 922 3314 415 
Q 2916 -91 2278 -91 
Q 1894 -91 1617 61 
Q 1341 213 1159 525 
L 1159 0 
L 581 0 
L 581 4863 
L 1159 4863 
L 1159 2969 
z
" transform="scale(0.015625)"/>
       <path id="DejaVuSans-6b" d="M 581 4863 
L 1159 4863 
L 1159 1991 
L 2875 3500 
L 3609 3500 
L 1753 1863 
L 3688 0 
L 2938 0 
L 1159 1709 
L 1159 0 
L 581 0 
L 581 4863 
z
" transform="scale(0.015625)"/>
      </defs>
      <use xlink:href="#DejaVuSans-4e"/>
      <use xlink:href="#DejaVuSans-6f" transform="translate(74.804688 0)"/>
      <use xlink:href="#DejaVuSans-20" transform="translate(135.986328 0)"/>
      <use xlink:href="#DejaVuSans-66" transform="translate(167.773438 0)"/>
      <use xlink:href="#DejaVuSans-65" transform="translate(202.978516 0)"/>
      <use xlink:href="#DejaVuSans-65" transform="translate(264.501953 0)"/>
      <use xlink:href="#DejaVuSans-64" transform="translate(326.025391 0)"/>
      <use xlink:href="#DejaVuSans-62" transform="translate(389.501953 0)"/>
      <use xlink:href="#DejaVuSans-61" transform="translate(452.978516 0)"/>
      <use xlink:href="#DejaVuSans-63" transform="translate(514.257812 0)"/>
      <use xlink:href="#DejaVuSans-6b" transform="translate(569.238281 0)"/>
     </g>
    </g>
   </g>
  </g>
  <g id="axes_2">
   <g id="patch_6">
    <path d="M 447.645393 336.640156 
L 748.589213 336.640156 
L 748.589213 31.720156 
L 447.645393 31.720156 
z
" style="fill: #ffffff"/>
   </g>
   <g id="matplotlib.axis_3">
    <g id="xtick_6">
     <g id="line2d_14">
      <g>
       <use xlink:href="#m3569f7f55a" x="447.645393" y="336.640156" style="stroke: #000000; stroke-width: 1.6"/>
      </g>
     </g>
     <g id="text_16">
      <!-- -1 -->
      <g transform="translate(431.692893 369.455156) scale(0.32 -0.32)">
       <use xlink:href="#DejaVuSans-2d"/>
       <use xlink:href="#DejaVuSans-31" transform="translate(36.083984 0)"/>
      </g>
     </g>
    </g>
    <g id="xtick_7">
     <g id="line2d_15">
      <g>
       <use xlink:href="#m3569f7f55a" x="522.881348" y="336.640156" style="stroke: #000000; stroke-width: 1.6"/>
      </g>
     </g>
     <g id="text_17">
      <!-- 0 -->
      <g transform="translate(512.701348 369.455156) scale(0.32 -0.32)">
       <use xlink:href="#DejaVuSans-30"/>
      </g>
     </g>
    </g>
    <g id="xtick_8">
     <g id="line2d_16">
      <g>
       <use xlink:href="#m3569f7f55a" x="598.117303" y="336.640156" style="stroke: #000000; stroke-width: 1.6"/>
      </g>
     </g>
     <g id="text_18">
      <!-- 1 -->
      <g transform="translate(587.937303 369.455156) scale(0.32 -0.32)">
       <use xlink:href="#DejaVuSans-31"/>
      </g>
     </g>
    </g>
    <g id="xtick_9">
     <g id="line2d_17">
      <g>
       <use xlink:href="#m3569f7f55a" x="673.353258" y="336.640156" style="stroke: #000000; stroke-width: 1.6"/>
      </g>
     </g>
     <g id="text_19">
      <!-- 2 -->
      <g transform="translate(663.173258 369.455156) scale(0.32 -0.32)">
       <use xlink:href="#DejaVuSans-32"/>
      </g>
     </g>
    </g>
    <g id="xtick_10">
     <g id="line2d_18">
      <g>
       <use xlink:href="#m3569f7f55a" x="748.589213" y="336.640156" style="stroke: #000000; stroke-width: 1.6"/>
      </g>
     </g>
     <g id="text_20">
      <!-- 3 -->
      <g transform="translate(738.409213 369.455156) scale(0.32 -0.32)">
       <use xlink:href="#DejaVuSans-33"/>
      </g>
     </g>
    </g>
    <g id="text_21">
     <!-- Time (s) -->
     <g transform="translate(533.064803 404.425156) scale(0.32 -0.32)">
      <use xlink:href="#DejaVuSans-54"/>
      <use xlink:href="#DejaVuSans-69" transform="translate(57.958984 0)"/>
      <use xlink:href="#DejaVuSans-6d" transform="translate(85.742188 0)"/>
      <use xlink:href="#DejaVuSans-65" transform="translate(183.154297 0)"/>
      <use xlink:href="#DejaVuSans-20" transform="translate(244.677734 0)"/>
      <use xlink:href="#DejaVuSans-28" transform="translate(276.464844 0)"/>
      <use xlink:href="#DejaVuSans-73" transform="translate(315.478516 0)"/>
      <use xlink:href="#DejaVuSans-29" transform="translate(367.578125 0)"/>
     </g>
    </g>
   </g>
   <g id="matplotlib.axis_4">
    <g id="ytick_4">
     <g id="line2d_19">
      <g>
       <use xlink:href="#m221851b22c" x="447.645393" y="315.617594" style="stroke: #000000; stroke-width: 1.6"/>
      </g>
     </g>
    </g>
    <g id="ytick_5">
     <g id="line2d_20">
      <g>
       <use xlink:href="#m221851b22c" x="447.645393" y="181.973009" style="stroke: #000000; stroke-width: 1.6"/>
      </g>
     </g>
    </g>
    <g id="ytick_6">
     <g id="line2d_21">
      <g>
       <use xlink:href="#m221851b22c" x="447.645393" y="48.328424" style="stroke: #000000; stroke-width: 1.6"/>
      </g>
     </g>
    </g>
   </g>
   <g id="line2d_22">
    <path d="M 448.397753 312.382752 
L 449.150112 312.320335 
L 450.654831 312.641818 
L 451.407191 312.024694 
L 455.168989 312.837476 
L 459.683146 313.573952 
L 463.444944 314.036263 
L 464.197303 313.554152 
L 464.949663 312.475433 
L 467.959101 313.058284 
L 469.46382 313.228597 
L 470.21618 313.348047 
L 470.968539 313.316251 
L 473.977978 313.743136 
L 474.730337 312.379439 
L 479.244494 313.237252 
L 483.758652 313.867824 
L 489.777528 314.456761 
L 491.282247 314.569942 
L 492.034607 314.014712 
L 492.786966 312.733027 
L 497.301124 313.492124 
L 499.558202 313.795269 
L 501.062921 312.901985 
L 503.32 313.289298 
L 504.07236 313.312232 
L 504.824719 312.682637 
L 509.338876 313.460131 
L 510.091236 313.568004 
L 510.843596 313.389507 
L 511.595955 312.600602 
L 516.110112 313.399828 
L 521.376629 314.068845 
L 527.395506 314.590123 
L 534.919101 315.002409 
L 544.699775 315.301794 
L 558.994607 315.498426 
L 585.327191 315.597802 
L 601.879101 315.611191 
L 602.631461 314.73937 
L 603.38382 314.783281 
L 604.13618 314.468776 
L 610.907416 314.893552 
L 611.659775 313.552128 
L 616.926292 314.175202 
L 617.678652 314.247322 
L 618.431011 314.009331 
L 624.449888 314.55064 
L 625.202247 314.212572 
L 626.706966 314.349562 
L 627.459326 312.695019 
L 629.716404 313.111852 
L 630.468764 311.895689 
L 631.221124 311.578869 
L 634.230562 312.328027 
L 634.982921 311.577838 
L 635.735281 310.146975 
L 638.744719 311.161741 
L 640.249438 311.49785 
L 641.754157 311.899525 
L 642.506517 311.822143 
L 643.258876 312.011916 
L 644.011236 311.486708 
L 644.763596 311.394995 
L 645.515955 311.07393 
L 646.268315 311.301113 
L 647.020674 309.654006 
L 650.030112 310.760214 
L 653.039551 311.661228 
L 653.79191 310.944462 
L 657.553708 312.001614 
L 660.563146 312.672356 
L 661.315506 312.43989 
L 662.067865 311.783167 
L 663.572584 312.052003 
L 665.077303 312.399648 
L 665.829663 311.493168 
L 667.334382 311.8953 
L 668.086742 311.947053 
L 671.848539 312.777399 
L 675.610337 313.375285 
L 681.629213 314.125798 
L 687.64809 314.627906 
L 688.400449 314.456823 
L 689.152809 313.1667 
L 689.905169 313.064395 
L 690.657528 313.192056 
L 691.409888 311.856389 
L 692.162247 311.66556 
L 693.666966 312.050883 
L 694.419326 310.918323 
L 697.428764 311.790009 
L 698.181124 311.453049 
L 701.942921 312.395148 
L 702.695281 312.100961 
L 704.2 312.443833 
L 704.95236 312.213931 
L 705.704719 312.384114 
L 706.457079 311.783899 
L 710.218876 312.651155 
L 712.475955 313.074243 
L 713.228315 312.063192 
L 713.980674 311.702409 
L 717.742472 312.588099 
L 719.247191 312.883475 
L 719.999551 311.608315 
L 720.75191 311.808779 
L 721.50427 311.305739 
L 724.513708 312.105562 
L 725.266067 310.693011 
L 728.275506 311.606491 
L 732.037303 312.513879 
L 733.542022 312.736428 
L 734.294382 312.276587 
L 738.05618 313.032387 
L 738.808539 313.161647 
L 739.560899 312.723309 
L 740.313258 312.868023 
L 741.065618 311.8859 
L 743.322697 312.418133 
L 744.075056 312.420303 
L 744.827416 312.580168 
L 745.579775 312.173711 
L 747.084494 312.50949 
L 747.836854 312.305919 
L 747.836854 312.305919 
" clip-path="url(#p3cecb961ee)" style="fill: none; stroke: #000000; stroke-width: 5; stroke-linecap: square"/>
   </g>
   <g id="line2d_23">
    <path d="M 448.397753 311.456323 
L 449.150112 311.664386 
L 451.407191 311.745405 
L 452.159551 311.105503 
L 452.91191 311.331107 
L 455.168989 310.699025 
L 455.921348 310.944954 
L 456.673708 310.99918 
L 457.426067 311.2301 
L 458.178427 310.593723 
L 458.930787 310.666326 
L 459.683146 310.235437 
L 461.187865 310.713763 
L 461.940225 310.702839 
L 463.444944 311.182028 
L 465.702022 311.658609 
L 469.46382 312.537638 
L 473.225618 313.234383 
L 474.730337 313.365544 
L 475.482697 313.478147 
L 476.235056 313.358041 
L 476.987416 313.471019 
L 477.739775 313.252633 
L 479.996854 313.589935 
L 481.501573 313.190442 
L 482.253933 313.3118 
L 483.006292 312.91442 
L 483.758652 313.048444 
L 485.263371 312.335912 
L 486.01573 311.456391 
L 488.272809 311.976451 
L 489.777528 312.235009 
L 492.034607 312.717451 
L 492.786966 312.416717 
L 493.539326 312.437976 
L 494.291685 312.319904 
L 495.044045 312.03423 
L 495.796404 312.213398 
L 498.053483 312.392293 
L 501.062921 312.942734 
L 501.815281 313.076477 
L 503.32 312.362067 
L 504.824719 312.646876 
L 506.329438 312.330905 
L 507.834157 311.761519 
L 508.586517 311.6015 
L 510.091236 311.993069 
L 510.843596 311.431279 
L 512.348315 311.807575 
L 513.853034 311.448664 
L 514.605393 311.539065 
L 515.357753 310.719154 
L 516.110112 310.826876 
L 516.862472 310.673576 
L 518.367191 311.096432 
L 520.62427 311.387638 
L 521.376629 311.191199 
L 522.128989 311.412519 
L 522.881348 311.312262 
L 523.633708 311.397413 
L 524.386067 311.608422 
L 525.138427 311.669139 
L 525.890787 311.125277 
L 526.643146 310.228309 
L 527.395506 309.54403 
L 528.147865 309.632006 
L 529.652584 310.192148 
L 530.404944 310.138885 
L 531.909663 310.673059 
L 532.662022 310.617921 
L 535.671461 311.545329 
L 536.42382 311.303285 
L 537.17618 311.519001 
L 537.928539 311.061467 
L 539.433258 311.505689 
L 540.937978 311.319848 
L 543.947416 312.087869 
L 544.699775 312.264355 
L 545.452135 311.4852 
L 546.204494 311.685002 
L 546.956854 311.587772 
L 549.966292 312.301052 
L 551.471011 312.624415 
L 552.223371 312.235701 
L 552.97573 312.404796 
L 553.72809 312.359226 
L 557.489888 313.096331 
L 558.994607 313.342154 
L 560.499326 312.949492 
L 564.261124 313.511427 
L 565.013483 313.616735 
L 565.765843 313.606831 
L 566.518202 313.370052 
L 567.270562 313.268799 
L 568.022921 313.386239 
L 568.775281 313.107313 
L 571.784719 313.535655 
L 572.537079 313.470265 
L 573.289438 313.271946 
L 574.041798 313.389229 
L 574.794157 312.855805 
L 575.546517 312.781062 
L 576.298876 312.922889 
L 577.051236 312.86132 
L 578.555955 311.735495 
L 579.308315 311.250593 
L 580.060674 311.050529 
L 580.813034 311.278882 
L 582.317753 310.117493 
L 583.070112 310.392498 
L 583.822472 310.288099 
L 584.574831 310.554573 
L 585.327191 310.600476 
L 586.079551 310.830639 
L 586.83191 310.360598 
L 588.336629 310.813147 
L 589.088989 310.749154 
L 592.850787 311.850488 
L 593.603146 311.874914 
L 595.107865 312.239825 
L 595.860225 312.085195 
L 596.612584 311.548109 
L 598.869663 312.078503 
L 602.631461 312.579748 
L 603.38382 312.260071 
L 604.888539 312.58743 
L 605.640899 312.423721 
L 607.145618 312.735123 
L 607.897978 312.268084 
L 608.650337 312.316034 
L 609.402697 312.074453 
L 610.155056 312.25161 
L 610.907416 311.252132 
L 611.659775 310.622669 
L 613.164494 311.01629 
L 616.926292 312.057193 
L 617.678652 311.210086 
L 618.431011 310.996431 
L 619.183371 311.038721 
L 619.93573 311.267665 
L 620.68809 310.835389 
L 621.440449 310.698386 
L 623.697528 311.399988 
L 625.202247 311.700524 
L 626.706966 312.082438 
L 627.459326 311.558551 
L 630.468764 312.311479 
L 631.973483 312.591086 
L 632.725843 312.461097 
L 633.478202 312.618922 
L 634.230562 312.400756 
L 634.982921 311.904318 
L 638.744719 312.744332 
L 639.497079 312.531377 
L 640.249438 312.685688 
L 641.001798 312.244464 
L 643.258876 312.725557 
L 644.011236 312.574593 
L 647.773034 313.262978 
L 650.030112 313.406988 
L 650.782472 313.343303 
L 653.039551 313.667674 
L 654.54427 313.780919 
L 656.801348 314.04042 
L 657.553708 313.774289 
L 662.067865 314.260943 
L 662.820225 313.997209 
L 663.572584 314.078229 
L 664.324944 313.566108 
L 665.077303 313.668683 
L 665.829663 313.459371 
L 670.34382 314.031102 
L 671.09618 313.919199 
L 671.848539 314.004118 
L 672.600899 313.654391 
L 677.867416 314.246616 
L 683.133933 314.660189 
L 683.886292 314.063167 
L 686.143371 313.831761 
L 686.89573 313.921052 
L 688.400449 313.32134 
L 690.657528 313.574222 
L 691.409888 313.44 
L 692.162247 313.447346 
L 692.914607 312.49225 
L 693.666966 312.605838 
L 694.419326 312.382258 
L 695.171685 312.544025 
L 695.924045 312.479135 
L 698.933483 313.0613 
L 699.685843 312.912082 
L 701.190562 313.106709 
L 701.942921 313.232253 
L 702.695281 313.102505 
L 705.704719 313.569038 
L 706.457079 313.375513 
L 707.209438 313.487617 
L 707.961798 313.238719 
L 710.218876 313.55948 
L 710.971236 313.478372 
L 714.733034 313.901309 
L 719.247191 314.355967 
L 720.75191 314.402953 
L 721.50427 313.619115 
L 723.008989 313.726186 
L 723.761348 313.318294 
L 724.513708 313.084089 
L 725.266067 313.01462 
L 726.018427 312.762497 
L 729.027865 313.2921 
L 729.780225 312.845826 
L 730.532584 312.984415 
L 731.284944 312.566092 
L 732.037303 312.588558 
L 734.294382 312.935626 
L 736.551461 313.318142 
L 739.560899 311.904666 
L 740.313258 311.86461 
L 743.322697 312.560765 
L 744.827416 312.05615 
L 745.579775 312.234222 
L 746.332135 312.093952 
L 747.084494 312.123449 
L 747.836854 312.298157 
L 747.836854 312.298157 
" clip-path="url(#p3cecb961ee)" style="fill: none; stroke: #ff0000; stroke-width: 5; stroke-linecap: square"/>
   </g>
   <g id="patch_7">
    <path d="M 447.645393 336.640156 
L 447.645393 31.720156 
" style="fill: none; stroke: #000000; stroke-width: 5; stroke-linejoin: miter; stroke-linecap: square"/>
   </g>
   <g id="patch_8">
    <path d="M 447.645393 336.640156 
L 748.589213 336.640156 
" style="fill: none; stroke: #000000; stroke-width: 5; stroke-linejoin: miter; stroke-linecap: square"/>
   </g>
   <g id="patch_9">
    <path d="M 522.881348 330.541756 
L 598.117303 330.541756 
L 598.117303 319.869556 
L 522.881348 319.869556 
z
" style="fill: #8c5a2b; stroke: #8c5a2b; stroke-linejoin: miter"/>
   </g>
   <g id="text_22">
    <!-- Familiar | Expert -->
    <g transform="translate(520.429569 21.720156) scale(0.19 -0.19)">
     <defs>
      <path id="DejaVuSans-45" d="M 628 4666 
L 3578 4666 
L 3578 4134 
L 1259 4134 
L 1259 2753 
L 3481 2753 
L 3481 2222 
L 1259 2222 
L 1259 531 
L 3634 531 
L 3634 0 
L 628 0 
L 628 4666 
z
" transform="scale(0.015625)"/>
      <path id="DejaVuSans-78" d="M 3513 3500 
L 2247 1797 
L 3578 0 
L 2900 0 
L 1881 1375 
L 863 0 
L 184 0 
L 1544 1831 
L 300 3500 
L 978 3500 
L 1906 2253 
L 2834 3500 
L 3513 3500 
z
" transform="scale(0.015625)"/>
      <path id="DejaVuSans-70" d="M 1159 525 
L 1159 -1331 
L 581 -1331 
L 581 3500 
L 1159 3500 
L 1159 2969 
Q 1341 3281 1617 3432 
Q 1894 3584 2278 3584 
Q 2916 3584 3314 3078 
Q 3713 2572 3713 1747 
Q 3713 922 3314 415 
Q 2916 -91 2278 -91 
Q 1894 -91 1617 61 
Q 1341 213 1159 525 
z
M 3116 1747 
Q 3116 2381 2855 2742 
Q 2594 3103 2138 3103 
Q 1681 3103 1420 2742 
Q 1159 2381 1159 1747 
Q 1159 1113 1420 752 
Q 1681 391 2138 391 
Q 2594 391 2855 752 
Q 3116 1113 3116 1747 
z
" transform="scale(0.015625)"/>
     </defs>
     <use xlink:href="#DejaVuSans-46"/>
     <use xlink:href="#DejaVuSans-61" transform="translate(48.394531 0)"/>
     <use xlink:href="#DejaVuSans-6d" transform="translate(109.673828 0)"/>
     <use xlink:href="#DejaVuSans-69" transform="translate(207.085938 0)"/>
     <use xlink:href="#DejaVuSans-6c" transform="translate(234.869141 0)"/>
     <use xlink:href="#DejaVuSans-69" transform="translate(262.652344 0)"/>
     <use xlink:href="#DejaVuSans-61" transform="translate(290.435547 0)"/>
     <use xlink:href="#DejaVuSans-72" transform="translate(351.714844 0)"/>
     <use xlink:href="#DejaVuSans-20" transform="translate(392.828125 0)"/>
     <use xlink:href="#DejaVuSans-7c" transform="translate(424.615234 0)"/>
     <use xlink:href="#DejaVuSans-20" transform="translate(458.306641 0)"/>
     <use xlink:href="#DejaVuSans-45" transform="translate(490.09375 0)"/>
     <use xlink:href="#DejaVuSans-78" transform="translate(553.277344 0)"/>
     <use xlink:href="#DejaVuSans-70" transform="translate(612.457031 0)"/>
     <use xlink:href="#DejaVuSans-65" transform="translate(675.933594 0)"/>
     <use xlink:href="#DejaVuSans-72" transform="translate(737.457031 0)"/>
     <use xlink:href="#DejaVuSans-74" transform="translate(778.570312 0)"/>
    </g>
   </g>
  </g>
  <g id="axes_3">
   <g id="patch_10">
    <path d="M 793.730787 336.640156 
L 1094.674607 336.640156 
L 1094.674607 31.720156 
L 793.730787 31.720156 
z
" style="fill: #ffffff"/>
   </g>
   <g id="matplotlib.axis_5">
    <g id="xtick_11">
     <g id="line2d_24">
      <g>
       <use xlink:href="#m3569f7f55a" x="793.730787" y="336.640156" style="stroke: #000000; stroke-width: 1.6"/>
      </g>
     </g>
     <g id="text_23">
      <!-- -1 -->
      <g transform="translate(777.778287 369.455156) scale(0.32 -0.32)">
       <use xlink:href="#DejaVuSans-2d"/>
       <use xlink:href="#DejaVuSans-31" transform="translate(36.083984 0)"/>
      </g>
     </g>
    </g>
    <g id="xtick_12">
     <g id="line2d_25">
      <g>
       <use xlink:href="#m3569f7f55a" x="868.966742" y="336.640156" style="stroke: #000000; stroke-width: 1.6"/>
      </g>
     </g>
     <g id="text_24">
      <!-- 0 -->
      <g transform="translate(858.786742 369.455156) scale(0.32 -0.32)">
       <use xlink:href="#DejaVuSans-30"/>
      </g>
     </g>
    </g>
    <g id="xtick_13">
     <g id="line2d_26">
      <g>
       <use xlink:href="#m3569f7f55a" x="944.202697" y="336.640156" style="stroke: #000000; stroke-width: 1.6"/>
      </g>
     </g>
     <g id="text_25">
      <!-- 1 -->
      <g transform="translate(934.022697 369.455156) scale(0.32 -0.32)">
       <use xlink:href="#DejaVuSans-31"/>
      </g>
     </g>
    </g>
    <g id="xtick_14">
     <g id="line2d_27">
      <g>
       <use xlink:href="#m3569f7f55a" x="1019.438652" y="336.640156" style="stroke: #000000; stroke-width: 1.6"/>
      </g>
     </g>
     <g id="text_26">
      <!-- 2 -->
      <g transform="translate(1009.258652 369.455156) scale(0.32 -0.32)">
       <use xlink:href="#DejaVuSans-32"/>
      </g>
     </g>
    </g>
    <g id="xtick_15">
     <g id="line2d_28">
      <g>
       <use xlink:href="#m3569f7f55a" x="1094.674607" y="336.640156" style="stroke: #000000; stroke-width: 1.6"/>
      </g>
     </g>
     <g id="text_27">
      <!-- 3 -->
      <g transform="translate(1084.494607 369.455156) scale(0.32 -0.32)">
       <use xlink:href="#DejaVuSans-33"/>
      </g>
     </g>
    </g>
    <g id="text_28">
     <!-- Time (s) -->
     <g transform="translate(879.150197 404.425156) scale(0.32 -0.32)">
      <use xlink:href="#DejaVuSans-54"/>
      <use xlink:href="#DejaVuSans-69" transform="translate(57.958984 0)"/>
      <use xlink:href="#DejaVuSans-6d" transform="translate(85.742188 0)"/>
      <use xlink:href="#DejaVuSans-65" transform="translate(183.154297 0)"/>
      <use xlink:href="#DejaVuSans-20" transform="translate(244.677734 0)"/>
      <use xlink:href="#DejaVuSans-28" transform="translate(276.464844 0)"/>
      <use xlink:href="#DejaVuSans-73" transform="translate(315.478516 0)"/>
      <use xlink:href="#DejaVuSans-29" transform="translate(367.578125 0)"/>
     </g>
    </g>
   </g>
   <g id="matplotlib.axis_6">
    <g id="ytick_7">
     <g id="line2d_29">
      <g>
       <use xlink:href="#m221851b22c" x="793.730787" y="315.617594" style="stroke: #000000; stroke-width: 1.6"/>
      </g>
     </g>
    </g>
    <g id="ytick_8">
     <g id="line2d_30">
      <g>
       <use xlink:href="#m221851b22c" x="793.730787" y="181.973009" style="stroke: #000000; stroke-width: 1.6"/>
      </g>
     </g>
    </g>
    <g id="ytick_9">
     <g id="line2d_31">
      <g>
       <use xlink:href="#m221851b22c" x="793.730787" y="48.328424" style="stroke: #000000; stroke-width: 1.6"/>
      </g>
     </g>
    </g>
   </g>
   <g id="line2d_32">
    <path d="M 794.483146 307.213079 
L 795.235506 305.824988 
L 795.987865 306.314618 
L 796.740225 305.809579 
L 797.492584 305.678197 
L 799.749663 307.095803 
L 800.502022 307.521893 
L 801.254382 307.165414 
L 802.006742 307.082422 
L 804.26382 308.299751 
L 805.768539 307.367279 
L 807.273258 308.171685 
L 808.025618 306.346556 
L 808.777978 305.529287 
L 810.282697 306.512898 
L 811.035056 306.750392 
L 811.787416 305.798995 
L 814.044494 307.199374 
L 814.796854 306.962477 
L 816.301573 307.806351 
L 817.053933 307.336796 
L 817.806292 307.267731 
L 820.063371 308.458631 
L 820.81573 308.260668 
L 823.825169 309.625332 
L 825.329888 310.209578 
L 826.082247 309.894184 
L 826.834607 309.734693 
L 828.339326 310.308276 
L 829.091685 309.636858 
L 829.844045 309.345188 
L 832.101124 310.23979 
L 832.853483 309.671885 
L 833.605843 309.761187 
L 835.862921 310.596458 
L 836.615281 310.425702 
L 838.12 310.871709 
L 840.377079 311.492772 
L 841.129438 310.512074 
L 843.386517 311.240249 
L 844.138876 310.956469 
L 844.891236 309.686903 
L 846.395955 310.265146 
L 847.900674 309.258744 
L 849.405393 309.824099 
L 850.157753 308.223828 
L 850.910112 308.593516 
L 851.662472 308.068572 
L 852.414831 308.446024 
L 853.167191 308.355427 
L 853.919551 308.718535 
L 854.67191 308.546354 
L 855.42427 306.115153 
L 857.681348 307.47044 
L 859.938427 308.632428 
L 860.690787 308.241786 
L 861.443146 308.102152 
L 864.452584 309.49622 
L 865.204944 309.802288 
L 865.957303 309.303822 
L 868.214382 310.204324 
L 872.728539 237.158496 
L 873.480899 225.55573 
L 874.985618 207.636129 
L 877.242697 184.000602 
L 878.747416 173.004957 
L 879.499775 166.616086 
L 880.252135 163.748315 
L 881.004494 158.952412 
L 881.756854 151.1414 
L 882.509213 145.417667 
L 883.261573 142.140681 
L 884.013933 138.035725 
L 884.766292 133.284302 
L 886.271011 125.470432 
L 887.023371 119.932103 
L 888.52809 112.200919 
L 889.280449 108.164748 
L 890.032809 105.377203 
L 890.785169 103.9975 
L 891.537528 101.662992 
L 892.289888 98.722303 
L 893.042247 97.255354 
L 894.546966 95.010461 
L 895.299326 92.535555 
L 896.051685 90.659122 
L 896.804045 89.879068 
L 897.556404 86.129607 
L 898.308764 83.574465 
L 899.813483 77.279661 
L 900.565843 77.011571 
L 901.318202 74.460272 
L 902.070562 74.382406 
L 902.822921 73.912541 
L 903.575281 74.527822 
L 904.32764 74.286458 
L 905.08 75.573279 
L 905.83236 73.685136 
L 906.584719 72.812997 
L 907.337079 71.603922 
L 908.089438 71.15441 
L 908.841798 71.293294 
L 909.594157 71.268938 
L 910.346517 70.565615 
L 911.098876 69.664479 
L 911.851236 68.251559 
L 912.603596 66.573913 
L 913.355955 65.354662 
L 914.108315 66.129738 
L 914.860674 65.313937 
L 915.613034 65.276278 
L 916.365393 63.981391 
L 917.117753 63.932262 
L 917.870112 64.466591 
L 918.622472 63.346932 
L 919.374831 60.598758 
L 920.127191 58.829267 
L 921.63191 59.98501 
L 922.38427 58.496334 
L 923.136629 57.508471 
L 923.888989 56.883909 
L 924.641348 55.742843 
L 925.393708 53.850001 
L 926.146067 54.258608 
L 926.898427 52.762325 
L 927.650787 53.932248 
L 928.403146 53.505319 
L 929.155506 54.789312 
L 929.907865 55.159584 
L 930.660225 56.023878 
L 931.412584 57.502716 
L 932.164944 57.206227 
L 932.917303 58.322102 
L 933.669663 56.282449 
L 934.422022 56.036285 
L 935.174382 57.425268 
L 935.926742 55.67348 
L 936.679101 55.115055 
L 937.431461 55.904271 
L 938.18382 55.756982 
L 938.93618 57.663825 
L 939.688539 57.904094 
L 940.440899 57.87237 
L 941.193258 57.32207 
L 941.945618 58.068967 
L 942.697978 56.702906 
L 943.450337 55.040256 
L 945.707416 92.205092 
L 947.212135 113.987816 
L 950.973933 158.801231 
L 951.726292 166.642055 
L 952.478652 172.43302 
L 954.73573 192.764587 
L 955.48809 198.907234 
L 956.992809 208.600802 
L 958.497528 219.034945 
L 960.754607 232.641542 
L 962.259326 240.437533 
L 963.764045 247.428293 
L 964.516404 249.91343 
L 965.268764 251.696877 
L 966.021124 253.053539 
L 967.525843 259.153539 
L 969.030562 264.255882 
L 970.535281 269.263651 
L 971.28764 270.141944 
L 972.79236 274.47943 
L 973.544719 275.776639 
L 975.049438 279.661133 
L 975.801798 281.025616 
L 978.058876 285.959298 
L 978.811236 287.100803 
L 981.068315 291.168013 
L 983.325393 294.655135 
L 985.582472 297.644907 
L 986.334831 298.543542 
L 987.087191 299.151721 
L 987.839551 299.975016 
L 989.34427 299.805928 
L 991.601348 302.061067 
L 992.353708 302.738894 
L 993.106067 303.096334 
L 995.363146 304.882179 
L 996.867865 305.928882 
L 998.372584 305.998626 
L 999.124944 305.585869 
L 999.877303 305.713633 
L 1002.134382 307.126186 
L 1005.14382 308.701289 
L 1005.89618 309.047105 
L 1006.648539 308.272977 
L 1007.400899 308.640208 
L 1008.153258 307.965194 
L 1010.410337 309.056619 
L 1011.162697 308.884184 
L 1013.419775 309.844537 
L 1014.172135 309.955262 
L 1014.924494 310.238379 
L 1015.676854 308.076336 
L 1016.429213 308.453399 
L 1017.181573 308.580639 
L 1017.933933 308.932487 
L 1018.686292 308.730388 
L 1019.438652 309.074748 
L 1020.191011 308.653889 
L 1023.200449 309.945613 
L 1023.952809 310.229212 
L 1024.705169 308.182555 
L 1025.457528 308.554307 
L 1026.209888 308.127592 
L 1026.962247 308.502092 
L 1027.714607 308.448207 
L 1029.971685 309.470741 
L 1030.724045 308.877022 
L 1034.485843 310.377137 
L 1035.238202 308.2888 
L 1035.990562 308.308366 
L 1036.742921 308.673827 
L 1038.24764 309.149273 
L 1039 308.844741 
L 1039.75236 309.183384 
L 1040.504719 308.290186 
L 1042.009438 308.309653 
L 1043.514157 307.511867 
L 1045.771236 308.655168 
L 1046.523596 309.00329 
L 1047.275955 308.625862 
L 1049.533034 309.623058 
L 1051.037753 309.851146 
L 1051.790112 310.139469 
L 1052.542472 310.060443 
L 1053.294831 309.433614 
L 1054.047191 308.219395 
L 1054.799551 308.589305 
L 1055.55191 308.527539 
L 1056.30427 308.882042 
L 1057.056629 307.98621 
L 1057.808989 308.367779 
L 1058.561348 308.047729 
L 1059.313708 308.179776 
L 1060.066067 308.551667 
L 1062.323146 308.077464 
L 1063.075506 306.441625 
L 1064.580225 306.055571 
L 1066.084944 306.987869 
L 1066.837303 306.989642 
L 1068.342022 307.830867 
L 1069.094382 307.913109 
L 1071.351461 309.011961 
L 1072.10382 308.053328 
L 1074.360899 309.132095 
L 1075.113258 309.194445 
L 1075.865618 309.515602 
L 1076.617978 309.610744 
L 1077.370337 308.823044 
L 1078.122697 308.903819 
L 1081.132135 310.149183 
L 1081.884494 310.422603 
L 1082.636854 309.993991 
L 1083.389213 310.275171 
L 1084.141573 309.90774 
L 1084.893933 310.193232 
L 1085.646292 310.330193 
L 1086.398652 310.594563 
L 1087.151011 309.047529 
L 1087.903371 309.376032 
L 1088.65573 308.225341 
L 1090.160449 308.946086 
L 1090.912809 307.528047 
L 1091.665169 307.659088 
L 1092.417528 307.397613 
L 1093.169888 307.808612 
L 1093.922247 307.237948 
L 1093.922247 307.237948 
" clip-path="url(#p815250f217)" style="fill: none; stroke: #000000; stroke-width: 5; stroke-linecap: square"/>
   </g>
   <g id="line2d_33">
    <path d="M 794.483146 312.395185 
L 795.235506 311.687686 
L 795.987865 311.529949 
L 796.740225 311.708615 
L 797.492584 311.447304 
L 798.244944 311.655818 
L 798.997303 311.089698 
L 799.749663 310.906105 
L 800.502022 310.85173 
L 801.254382 310.473136 
L 802.006742 309.875197 
L 802.759101 309.826369 
L 804.26382 310.391014 
L 805.768539 310.25118 
L 806.520899 310.5195 
L 808.025618 310.353499 
L 808.777978 310.579477 
L 809.530337 310.467326 
L 811.787416 311.201883 
L 812.539775 310.977661 
L 814.796854 311.568643 
L 815.549213 310.800708 
L 817.806292 311.487716 
L 818.558652 311.603395 
L 819.311011 310.786871 
L 820.063371 311.028408 
L 820.81573 310.846265 
L 821.56809 310.279215 
L 822.320449 310.140357 
L 825.329888 311.156351 
L 826.082247 311.379413 
L 826.834607 311.000034 
L 827.586966 311.230912 
L 828.339326 311.036187 
L 830.596404 311.68961 
L 831.348764 311.756883 
L 832.101124 311.708061 
L 832.853483 311.903538 
L 833.605843 311.777625 
L 835.862921 311.907871 
L 836.615281 312.093357 
L 837.36764 311.961504 
L 838.12 311.587097 
L 838.87236 311.07952 
L 840.377079 310.726917 
L 843.386517 311.634107 
L 844.138876 311.300555 
L 844.891236 311.516407 
L 845.643596 311.429117 
L 846.395955 311.638541 
L 847.148315 311.093445 
L 847.900674 311.03502 
L 849.405393 311.481822 
L 850.157753 311.591764 
L 850.910112 311.405127 
L 851.662472 311.61575 
L 852.414831 311.14236 
L 853.167191 311.114772 
L 853.919551 311.339913 
L 854.67191 311.090829 
L 855.42427 311.262858 
L 856.928989 311.111689 
L 858.433708 310.453319 
L 859.938427 310.956836 
L 860.690787 310.801483 
L 861.443146 309.889707 
L 862.195506 310.016172 
L 865.204944 311.055201 
L 865.957303 311.283321 
L 866.709663 311.198142 
L 867.462022 310.985833 
L 870.471461 311.798535 
L 873.480899 312.506947 
L 874.233258 312.340189 
L 879.499775 313.320111 
L 880.252135 313.434985 
L 884.013933 313.498431 
L 884.766292 313.604389 
L 887.023371 313.322219 
L 889.280449 313.649597 
L 890.032809 313.5239 
L 891.537528 313.728035 
L 892.289888 313.486303 
L 894.546966 313.694952 
L 899.061124 314.175768 
L 899.813483 313.958384 
L 900.565843 313.993582 
L 901.318202 313.748894 
L 903.575281 313.749595 
L 906.584719 314.011654 
L 908.089438 314.077828 
L 911.851236 314.398946 
L 912.603596 314.026641 
L 916.365393 314.358193 
L 917.117753 313.570049 
L 919.374831 313.344524 
L 920.879551 312.832308 
L 921.63191 312.971572 
L 922.38427 312.913653 
L 924.641348 313.299303 
L 925.393708 313.14576 
L 926.146067 313.269352 
L 926.898427 313.053449 
L 927.650787 313.181656 
L 929.155506 312.696975 
L 929.907865 312.843006 
L 931.412584 312.555304 
L 932.164944 311.872713 
L 932.917303 311.81633 
L 935.174382 312.275792 
L 936.679101 312.213553 
L 938.93618 312.13082 
L 939.688539 311.829757 
L 943.450337 312.686638 
L 944.202697 312.833186 
L 944.955056 312.717481 
L 946.459775 313.000242 
L 947.212135 312.947983 
L 948.716854 313.20827 
L 952.478652 313.157341 
L 954.73573 313.508235 
L 956.240449 312.758983 
L 957.745169 313.007254 
L 958.497528 312.919107 
L 959.249888 313.054031 
L 960.002247 312.996548 
L 960.754607 313.1276 
L 962.259326 312.627534 
L 963.011685 312.777037 
L 963.764045 312.502501 
L 967.525843 313.207195 
L 968.278202 312.813595 
L 969.030562 312.677387 
L 969.782921 312.824397 
L 970.535281 312.448356 
L 974.297079 313.156638 
L 975.801798 313.396581 
L 976.554157 313.336203 
L 977.306517 313.450273 
L 978.058876 313.173236 
L 978.811236 312.592042 
L 979.563596 312.622823 
L 980.315955 312.428189 
L 981.068315 312.587659 
L 982.573034 311.441333 
L 984.830112 312.036972 
L 985.582472 311.750857 
L 989.34427 312.625587 
L 990.096629 312.775187 
L 990.848989 312.711739 
L 991.601348 312.857032 
L 992.353708 312.789584 
L 996.867865 313.474866 
L 1000.629663 313.744512 
L 1001.382022 313.536296 
L 1004.391461 313.882013 
L 1005.14382 313.459788 
L 1005.89618 313.567678 
L 1007.400899 313.112737 
L 1008.153258 313.022082 
L 1008.905618 313.151858 
L 1009.657978 313.041623 
L 1012.667416 313.450526 
L 1014.924494 313.759605 
L 1015.676854 313.422456 
L 1016.429213 313.336881 
L 1017.181573 313.450917 
L 1018.686292 313.421876 
L 1019.438652 313.531662 
L 1020.943371 313.629913 
L 1021.69573 313.729297 
L 1022.44809 313.673797 
L 1023.952809 312.85293 
L 1024.705169 312.83003 
L 1025.457528 312.290198 
L 1028.466966 312.90741 
L 1029.219326 312.836534 
L 1030.724045 313.089306 
L 1031.476404 312.822388 
L 1035.990562 313.562861 
L 1039 313.944001 
L 1039.75236 313.72611 
L 1040.504719 313.690136 
L 1042.761798 313.926081 
L 1043.514157 313.723812 
L 1044.266517 313.818501 
L 1045.018876 313.454991 
L 1046.523596 313.384969 
L 1048.780674 313.703398 
L 1049.533034 313.655504 
L 1050.285393 313.753609 
L 1051.037753 313.341951 
L 1054.047191 313.691325 
L 1056.30427 313.285625 
L 1057.056629 313.402224 
L 1057.808989 313.009402 
L 1058.561348 313.139811 
L 1061.570787 313.2014 
L 1064.580225 313.599688 
L 1065.332584 313.237609 
L 1067.589663 313.424082 
L 1069.846742 313.736932 
L 1070.599101 313.385997 
L 1075.865618 314.059187 
L 1076.617978 313.945932 
L 1077.370337 314.029515 
L 1078.122697 313.554271 
L 1078.875056 313.657437 
L 1079.627416 312.862788 
L 1081.884494 313.255692 
L 1083.389213 312.642274 
L 1086.398652 313.194178 
L 1087.151011 313.183834 
L 1088.65573 313.327797 
L 1089.40809 312.919278 
L 1090.160449 312.851428 
L 1090.912809 312.668857 
L 1092.417528 312.956359 
L 1093.169888 312.777306 
L 1093.922247 312.919321 
L 1093.922247 312.919321 
" clip-path="url(#p815250f217)" style="fill: none; stroke: #ff0000; stroke-width: 5; stroke-linecap: square"/>
   </g>
   <g id="line2d_34">
    <path d="M 794.483146 307.435072 
L 795.235506 305.821532 
L 795.987865 306.311335 
L 796.740225 306.079495 
L 797.492584 305.704162 
L 799.749663 307.118065 
L 800.502022 307.543042 
L 801.254382 306.724434 
L 802.006742 306.499011 
L 804.26382 307.799549 
L 805.01618 307.40041 
L 807.273258 308.572385 
L 808.025618 306.345089 
L 808.777978 305.532364 
L 810.282697 306.515674 
L 811.035056 305.994248 
L 811.787416 305.066181 
L 814.044494 306.571076 
L 814.796854 306.386658 
L 816.301573 307.286674 
L 817.053933 306.8438 
L 817.806292 306.977452 
L 819.311011 307.819866 
L 820.063371 308.132122 
L 820.81573 308.114157 
L 821.56809 308.489329 
L 822.320449 307.731674 
L 824.577528 308.856403 
L 826.082247 308.994624 
L 826.834607 309.060384 
L 828.339326 309.699712 
L 829.091685 308.998224 
L 832.101124 310.194925 
L 832.853483 309.842981 
L 833.605843 310.131712 
L 834.358202 309.351722 
L 835.862921 309.962645 
L 836.615281 309.742758 
L 837.36764 310.0365 
L 838.12 310.079891 
L 840.377079 310.869706 
L 841.129438 309.81883 
L 842.634157 310.06129 
L 843.386517 309.954845 
L 844.138876 309.214559 
L 844.891236 307.96821 
L 845.643596 308.350679 
L 846.395955 308.553812 
L 847.148315 307.934972 
L 847.900674 307.674046 
L 849.405393 308.448542 
L 850.157753 307.304457 
L 850.910112 307.720114 
L 851.662472 307.561879 
L 853.919551 308.710825 
L 854.67191 308.492609 
L 855.42427 306.506356 
L 856.928989 307.394702 
L 857.681348 307.631692 
L 859.186067 308.314934 
L 859.938427 308.680067 
L 860.690787 308.428503 
L 861.443146 308.435052 
L 864.452584 309.767369 
L 865.204944 310.05988 
L 865.957303 309.84689 
L 868.214382 310.669936 
L 871.97618 247.291759 
L 873.480899 224.451715 
L 874.985618 206.567004 
L 877.242697 184.942273 
L 878.747416 173.640342 
L 879.499775 166.934849 
L 880.252135 163.500577 
L 881.004494 158.457863 
L 881.756854 150.573695 
L 882.509213 144.960348 
L 883.261573 142.002453 
L 884.013933 138.568799 
L 884.766292 133.115665 
L 885.518652 129.177235 
L 886.271011 126.103258 
L 887.023371 119.859316 
L 889.280449 109.001839 
L 890.032809 106.904832 
L 890.785169 105.435473 
L 891.537528 103.527296 
L 892.289888 100.952977 
L 893.042247 99.015207 
L 894.546966 96.779594 
L 895.299326 94.251058 
L 896.051685 92.412961 
L 896.804045 91.451285 
L 897.556404 87.057687 
L 898.308764 84.206336 
L 899.061124 81.902954 
L 899.813483 78.436082 
L 900.565843 78.573532 
L 901.318202 75.854871 
L 902.070562 75.538886 
L 902.822921 74.244796 
L 903.575281 73.790325 
L 905.08 75.610519 
L 905.83236 73.306301 
L 906.584719 72.470685 
L 907.337079 72.168381 
L 908.089438 71.724684 
L 908.841798 71.475632 
L 909.594157 71.946811 
L 911.098876 70.367922 
L 913.355955 64.146304 
L 914.108315 65.56265 
L 914.860674 64.290705 
L 915.613034 63.851767 
L 916.365393 62.575242 
L 917.117753 62.088111 
L 917.870112 62.627 
L 918.622472 61.34675 
L 919.374831 59.005571 
L 920.127191 57.128939 
L 921.63191 59.085528 
L 922.38427 57.510881 
L 923.136629 56.945983 
L 924.641348 54.913101 
L 925.393708 52.749122 
L 926.146067 53.687876 
L 926.898427 53.000822 
L 928.403146 55.259117 
L 929.155506 56.842925 
L 929.907865 56.950165 
L 930.660225 57.414872 
L 931.412584 59.182133 
L 932.164944 58.690103 
L 932.917303 59.758561 
L 933.669663 58.592721 
L 934.422022 58.754826 
L 935.174382 60.800194 
L 935.926742 59.741295 
L 936.679101 59.31353 
L 937.431461 59.680377 
L 938.18382 59.101439 
L 938.93618 59.904157 
L 939.688539 59.115579 
L 940.440899 58.582923 
L 941.193258 59.165067 
L 941.945618 60.896501 
L 943.450337 57.159966 
L 945.707416 94.022478 
L 947.212135 115.628022 
L 950.221573 152.169969 
L 951.726292 168.106116 
L 952.478652 174.082158 
L 953.983371 187.868932 
L 956.992809 211.256891 
L 958.497528 221.432055 
L 961.506966 238.656253 
L 962.259326 242.50432 
L 963.011685 245.088104 
L 963.764045 248.614581 
L 965.268764 253.681765 
L 966.021124 255.479759 
L 966.773483 258.486654 
L 967.525843 260.562427 
L 969.782921 268.414672 
L 970.535281 270.77482 
L 971.28764 271.350257 
L 975.801798 282.002845 
L 978.058876 286.797147 
L 978.811236 287.424674 
L 981.068315 291.445692 
L 981.820674 291.951074 
L 984.077753 295.326511 
L 985.582472 297.304892 
L 987.087191 298.241725 
L 988.59191 299.106687 
L 989.34427 299.649102 
L 991.601348 301.926609 
L 993.858427 303.857116 
L 994.610787 304.254698 
L 996.867865 305.875332 
L 997.620225 305.810232 
L 998.372584 306.3006 
L 999.124944 305.69149 
L 1002.134382 307.249133 
L 1005.14382 308.801431 
L 1005.89618 308.606704 
L 1006.648539 308.693129 
L 1007.400899 308.609534 
L 1008.153258 308.72936 
L 1010.410337 309.711795 
L 1011.162697 309.486483 
L 1012.667416 309.332675 
L 1014.924494 310.229062 
L 1015.676854 307.02673 
L 1016.429213 307.456274 
L 1017.181573 307.684258 
L 1017.933933 308.080925 
L 1018.686292 308.323531 
L 1019.438652 308.688235 
L 1020.191011 308.26881 
L 1022.44809 309.31693 
L 1023.952809 309.818459 
L 1024.705169 308.364175 
L 1025.457528 308.726846 
L 1026.209888 308.221735 
L 1026.962247 308.591528 
L 1027.714607 308.554197 
L 1029.971685 309.561614 
L 1031.476404 310.044183 
L 1034.485843 311.078016 
L 1035.238202 309.66937 
L 1035.990562 309.293469 
L 1038.24764 310.195447 
L 1039 309.846093 
L 1039.75236 310.134668 
L 1041.257079 309.305158 
L 1042.009438 309.249752 
L 1042.761798 308.975998 
L 1043.514157 308.159581 
L 1045.018876 308.886738 
L 1045.771236 308.360611 
L 1046.523596 308.723461 
L 1047.275955 308.310563 
L 1048.780674 309.022999 
L 1050.285393 309.191384 
L 1052.542472 310.107923 
L 1053.294831 309.507033 
L 1054.047191 308.532808 
L 1054.799551 308.887047 
L 1055.55191 308.552013 
L 1056.30427 308.905293 
L 1057.056629 307.326281 
L 1057.808989 307.740847 
L 1059.313708 306.771517 
L 1060.066067 307.21382 
L 1060.818427 306.773806 
L 1061.570787 306.800266 
L 1062.323146 306.98497 
L 1063.075506 305.919779 
L 1063.827865 305.418224 
L 1066.084944 306.87291 
L 1066.837303 307.155314 
L 1068.342022 307.980387 
L 1069.094382 306.85384 
L 1071.351461 308.103771 
L 1072.10382 306.875457 
L 1072.85618 306.985897 
L 1075.865618 308.587023 
L 1076.617978 308.78282 
L 1077.370337 307.633288 
L 1081.884494 309.71804 
L 1083.389213 310.293247 
L 1084.141573 309.233814 
L 1086.398652 310.144302 
L 1087.151011 308.928834 
L 1087.903371 309.263272 
L 1088.65573 309.323081 
L 1090.160449 309.936797 
L 1090.912809 308.636491 
L 1091.665169 308.704789 
L 1092.417528 307.837427 
L 1093.169888 308.226435 
L 1093.922247 307.707686 
L 1093.922247 307.707686 
" clip-path="url(#p815250f217)" style="fill: none; stroke: #0000ff; stroke-width: 5; stroke-linecap: square"/>
   </g>
   <g id="patch_11">
    <path d="M 793.730787 336.640156 
L 793.730787 31.720156 
" style="fill: none; stroke: #000000; stroke-width: 5; stroke-linejoin: miter; stroke-linecap: square"/>
   </g>
   <g id="patch_12">
    <path d="M 793.730787 336.640156 
L 1094.674607 336.640156 
" style="fill: none; stroke: #000000; stroke-width: 5; stroke-linejoin: miter; stroke-linecap: square"/>
   </g>
   <g id="patch_13">
    <path d="M 868.966742 330.541756 
L 944.202697 330.541756 
L 944.202697 319.869556 
L 868.966742 319.869556 
z
" style="fill: #8c5a2b; stroke: #8c5a2b; stroke-linejoin: miter"/>
   </g>
   <g id="text_29">
    <!-- Novel | Naive -->
    <g transform="translate(880.90004 21.720156) scale(0.19 -0.19)">
     <use xlink:href="#DejaVuSans-4e"/>
     <use xlink:href="#DejaVuSans-6f" transform="translate(74.804688 0)"/>
     <use xlink:href="#DejaVuSans-76" transform="translate(135.986328 0)"/>
     <use xlink:href="#DejaVuSans-65" transform="translate(195.166016 0)"/>
     <use xlink:href="#DejaVuSans-6c" transform="translate(256.689453 0)"/>
     <use xlink:href="#DejaVuSans-20" transform="translate(284.472656 0)"/>
     <use xlink:href="#DejaVuSans-7c" transform="translate(316.259766 0)"/>
     <use xlink:href="#DejaVuSans-20" transform="translate(349.951172 0)"/>
     <use xlink:href="#DejaVuSans-4e" transform="translate(381.738281 0)"/>
     <use xlink:href="#DejaVuSans-61" transform="translate(456.542969 0)"/>
     <use xlink:href="#DejaVuSans-69" transform="translate(517.822266 0)"/>
     <use xlink:href="#DejaVuSans-76" transform="translate(545.605469 0)"/>
     <use xlink:href="#DejaVuSans-65" transform="translate(604.785156 0)"/>
    </g>
   </g>
  </g>
  <g id="axes_4">
   <g id="patch_14">
    <path d="M 1139.81618 336.640156 
L 1440.76 336.640156 
L 1440.76 31.720156 
L 1139.81618 31.720156 
z
" style="fill: #ffffff"/>
   </g>
   <g id="matplotlib.axis_7">
    <g id="xtick_16">
     <g id="line2d_35">
      <g>
       <use xlink:href="#m3569f7f55a" x="1139.81618" y="336.640156" style="stroke: #000000; stroke-width: 1.6"/>
      </g>
     </g>
     <g id="text_30">
      <!-- -1 -->
      <g transform="translate(1123.86368 369.455156) scale(0.32 -0.32)">
       <use xlink:href="#DejaVuSans-2d"/>
       <use xlink:href="#DejaVuSans-31" transform="translate(36.083984 0)"/>
      </g>
     </g>
    </g>
    <g id="xtick_17">
     <g id="line2d_36">
      <g>
       <use xlink:href="#m3569f7f55a" x="1215.052135" y="336.640156" style="stroke: #000000; stroke-width: 1.6"/>
      </g>
     </g>
     <g id="text_31">
      <!-- 0 -->
      <g transform="translate(1204.872135 369.455156) scale(0.32 -0.32)">
       <use xlink:href="#DejaVuSans-30"/>
      </g>
     </g>
    </g>
    <g id="xtick_18">
     <g id="line2d_37">
      <g>
       <use xlink:href="#m3569f7f55a" x="1290.28809" y="336.640156" style="stroke: #000000; stroke-width: 1.6"/>
      </g>
     </g>
     <g id="text_32">
      <!-- 1 -->
      <g transform="translate(1280.10809 369.455156) scale(0.32 -0.32)">
       <use xlink:href="#DejaVuSans-31"/>
      </g>
     </g>
    </g>
    <g id="xtick_19">
     <g id="line2d_38">
      <g>
       <use xlink:href="#m3569f7f55a" x="1365.524045" y="336.640156" style="stroke: #000000; stroke-width: 1.6"/>
      </g>
     </g>
     <g id="text_33">
      <!-- 2 -->
      <g transform="translate(1355.344045 369.455156) scale(0.32 -0.32)">
       <use xlink:href="#DejaVuSans-32"/>
      </g>
     </g>
    </g>
    <g id="xtick_20">
     <g id="line2d_39">
      <g>
       <use xlink:href="#m3569f7f55a" x="1440.76" y="336.640156" style="stroke: #000000; stroke-width: 1.6"/>
      </g>
     </g>
     <g id="text_34">
      <!-- 3 -->
      <g transform="translate(1430.58 369.455156) scale(0.32 -0.32)">
       <use xlink:href="#DejaVuSans-33"/>
      </g>
     </g>
    </g>
    <g id="text_35">
     <!-- Time (s) -->
     <g transform="translate(1225.23559 404.425156) scale(0.32 -0.32)">
      <use xlink:href="#DejaVuSans-54"/>
      <use xlink:href="#DejaVuSans-69" transform="translate(57.958984 0)"/>
      <use xlink:href="#DejaVuSans-6d" transform="translate(85.742188 0)"/>
      <use xlink:href="#DejaVuSans-65" transform="translate(183.154297 0)"/>
      <use xlink:href="#DejaVuSans-20" transform="translate(244.677734 0)"/>
      <use xlink:href="#DejaVuSans-28" transform="translate(276.464844 0)"/>
      <use xlink:href="#DejaVuSans-73" transform="translate(315.478516 0)"/>
      <use xlink:href="#DejaVuSans-29" transform="translate(367.578125 0)"/>
     </g>
    </g>
   </g>
   <g id="matplotlib.axis_8">
    <g id="ytick_10">
     <g id="line2d_40">
      <g>
       <use xlink:href="#m221851b22c" x="1139.81618" y="315.617594" style="stroke: #000000; stroke-width: 1.6"/>
      </g>
     </g>
    </g>
    <g id="ytick_11">
     <g id="line2d_41">
      <g>
       <use xlink:href="#m221851b22c" x="1139.81618" y="181.973009" style="stroke: #000000; stroke-width: 1.6"/>
      </g>
     </g>
    </g>
    <g id="ytick_12">
     <g id="line2d_42">
      <g>
       <use xlink:href="#m221851b22c" x="1139.81618" y="48.328424" style="stroke: #000000; stroke-width: 1.6"/>
      </g>
     </g>
    </g>
   </g>
   <g id="line2d_43">
    <path d="M 1140.568539 313.70288 
L 1141.320899 312.661719 
L 1145.835056 313.444755 
L 1151.101573 314.100219 
L 1154.863371 314.379944 
L 1161.634607 314.83649 
L 1162.386966 314.875545 
L 1163.139326 314.652435 
L 1170.662921 315.039718 
L 1174.424719 315.170444 
L 1175.177079 314.140909 
L 1178.186517 314.414825 
L 1178.938876 313.151839 
L 1179.691236 313.275127 
L 1180.443596 313.108688 
L 1181.948315 313.353306 
L 1182.700674 313.305858 
L 1186.462472 313.828817 
L 1187.214831 313.532663 
L 1187.967191 313.020265 
L 1188.719551 313.04199 
L 1189.47191 312.846205 
L 1190.976629 312.978441 
L 1192.481348 313.235759 
L 1193.233708 313.173601 
L 1195.490787 313.522176 
L 1196.243146 312.958262 
L 1200.757303 313.662741 
L 1205.271461 314.180597 
L 1206.02382 314.21855 
L 1206.77618 314.034442 
L 1212.795056 314.567299 
L 1214.299775 314.669702 
L 1215.052135 301.55619 
L 1217.309213 269.632315 
L 1219.566292 243.570393 
L 1220.318652 235.743051 
L 1221.071011 229.326081 
L 1221.823371 224.343449 
L 1222.57573 218.392878 
L 1223.32809 210.615612 
L 1224.080449 205.402508 
L 1225.585169 193.277109 
L 1226.337528 188.558266 
L 1227.089888 182.805258 
L 1227.842247 174.256709 
L 1228.594607 168.169614 
L 1229.346966 163.869435 
L 1230.099326 160.311305 
L 1230.851685 155.382014 
L 1231.604045 152.289278 
L 1232.356404 149.988793 
L 1234.613483 138.50778 
L 1237.622921 128.037782 
L 1238.375281 123.950132 
L 1239.12764 121.839264 
L 1239.88 118.558215 
L 1240.63236 116.354845 
L 1241.384719 112.603333 
L 1242.137079 110.021227 
L 1242.889438 108.584369 
L 1243.641798 105.780095 
L 1244.394157 104.685071 
L 1245.146517 104.200191 
L 1245.898876 102.468816 
L 1246.651236 102.241949 
L 1247.403596 100.333075 
L 1248.155955 100.315829 
L 1248.908315 100.051602 
L 1249.660674 100.230097 
L 1250.413034 99.184361 
L 1251.165393 98.789873 
L 1251.917753 96.871002 
L 1252.670112 96.248313 
L 1253.422472 96.744206 
L 1254.174831 96.49147 
L 1254.927191 96.672792 
L 1255.679551 96.604346 
L 1256.43191 95.174578 
L 1257.936629 91.541219 
L 1258.688989 90.710661 
L 1259.441348 90.232014 
L 1260.193708 91.014279 
L 1260.946067 90.65725 
L 1261.698427 90.159445 
L 1262.450787 89.274142 
L 1263.203146 88.911298 
L 1263.955506 89.214896 
L 1264.707865 88.075682 
L 1265.460225 87.334361 
L 1266.212584 87.648553 
L 1266.964944 88.201761 
L 1267.717303 87.093494 
L 1268.469663 84.319112 
L 1269.222022 85.987756 
L 1269.974382 85.338142 
L 1270.726742 83.721495 
L 1271.479101 83.980803 
L 1272.231461 86.33897 
L 1272.98382 85.367038 
L 1274.488539 85.738166 
L 1275.240899 85.668027 
L 1275.993258 84.439157 
L 1276.745618 85.236518 
L 1277.497978 85.540753 
L 1278.250337 84.733256 
L 1279.002697 84.9329 
L 1279.755056 83.96987 
L 1280.507416 83.546286 
L 1281.259775 83.648229 
L 1282.764494 80.775549 
L 1283.516854 79.807401 
L 1284.269213 79.906914 
L 1285.021573 80.701347 
L 1285.773933 80.904595 
L 1286.526292 80.568337 
L 1287.278652 80.368933 
L 1288.031011 81.286298 
L 1288.783371 80.066211 
L 1289.53573 79.218665 
L 1291.792809 112.935071 
L 1294.049888 141.842679 
L 1296.306966 166.627328 
L 1298.564045 187.877067 
L 1300.068764 200.331774 
L 1301.573483 211.539977 
L 1303.078202 220.97152 
L 1305.335281 234.470419 
L 1307.59236 246.044035 
L 1309.097079 252.73842 
L 1310.601798 258.869143 
L 1313.611236 269.217738 
L 1315.868315 275.835519 
L 1316.620674 277.824624 
L 1317.373034 279.270406 
L 1318.877753 282.814256 
L 1320.382472 285.35137 
L 1321.887191 287.125634 
L 1324.14427 291.186167 
L 1324.896629 292.114869 
L 1325.648989 293.28131 
L 1326.401348 294.176033 
L 1327.153708 295.248111 
L 1327.906067 295.551418 
L 1330.163146 298.413357 
L 1331.667865 300.090771 
L 1333.172584 301.452109 
L 1335.429663 303.472462 
L 1336.934382 304.592054 
L 1339.191461 306.164572 
L 1341.448539 307.512809 
L 1344.457978 309.016196 
L 1347.467416 310.240715 
L 1349.724494 310.944811 
L 1352.733933 311.765596 
L 1353.486292 311.502033 
L 1357.24809 312.433051 
L 1361.009888 313.153456 
L 1361.762247 312.98067 
L 1366.276404 313.679213 
L 1370.038202 314.062542 
L 1371.542921 314.21416 
L 1372.295281 312.539131 
L 1376.057079 313.235539 
L 1376.809438 312.518494 
L 1377.561798 311.611099 
L 1380.571236 312.325896 
L 1381.323596 311.646193 
L 1382.075955 311.319264 
L 1383.580674 311.738351 
L 1384.333034 311.785308 
L 1388.094831 312.652244 
L 1388.847191 312.491257 
L 1391.10427 312.937151 
L 1391.856629 312.272448 
L 1394.113708 312.74955 
L 1394.866067 312.689004 
L 1397.875506 313.23224 
L 1399.380225 313.416553 
L 1400.132584 312.281977 
L 1402.389663 312.75772 
L 1403.142022 311.85348 
L 1403.894382 312.041686 
L 1404.646742 311.041799 
L 1405.399101 310.625321 
L 1406.151461 310.874935 
L 1406.90382 310.671282 
L 1409.913258 311.588792 
L 1412.170337 312.119026 
L 1412.922697 311.939384 
L 1414.427416 312.298009 
L 1415.179775 312.21804 
L 1417.436854 312.702901 
L 1418.189213 312.177777 
L 1421.951011 312.955929 
L 1422.703371 312.565393 
L 1423.45573 311.007737 
L 1427.217528 312.050574 
L 1430.979326 312.857502 
L 1435.493483 313.588673 
L 1439.255281 314.047654 
L 1440.00764 313.480467 
L 1440.00764 313.480467 
" clip-path="url(#p704fab4bc7)" style="fill: none; stroke: #000000; stroke-width: 5; stroke-linecap: square"/>
   </g>
   <g id="line2d_44">
    <path d="M 1140.568539 313.164041 
L 1142.825618 313.513979 
L 1143.577978 313.282031 
L 1145.082697 313.104207 
L 1145.835056 313.229876 
L 1146.587416 312.656304 
L 1147.339775 312.357168 
L 1148.844494 312.67506 
L 1149.596854 312.541056 
L 1151.101573 312.841019 
L 1151.853933 312.81846 
L 1154.111011 313.217686 
L 1154.863371 313.221609 
L 1157.120449 313.563336 
L 1157.872809 313.538825 
L 1160.129888 313.835309 
L 1160.882247 313.488647 
L 1163.139326 313.478549 
L 1164.644045 313.582106 
L 1167.653483 313.959677 
L 1169.158202 313.999351 
L 1172.92 314.316249 
L 1173.67236 314.182839 
L 1177.434157 314.507408 
L 1178.186517 314.441522 
L 1178.938876 314.500326 
L 1180.443596 314.189342 
L 1181.195955 313.571191 
L 1181.948315 313.673512 
L 1185.710112 313.67333 
L 1186.462472 313.770544 
L 1187.214831 313.060591 
L 1187.967191 313.188441 
L 1188.719551 312.943748 
L 1189.47191 313.07744 
L 1190.22427 312.884558 
L 1191.728989 313.151029 
L 1192.481348 313.010355 
L 1194.738427 313.382213 
L 1195.490787 313.067472 
L 1196.243146 313.10094 
L 1196.995506 312.71914 
L 1197.747865 312.864063 
L 1198.500225 311.910925 
L 1199.252584 311.495597 
L 1200.004944 311.701697 
L 1201.509663 311.546557 
L 1203.766742 312.102262 
L 1204.519101 311.870389 
L 1205.271461 311.78243 
L 1206.77618 312.156359 
L 1207.528539 311.885143 
L 1208.280899 312.071766 
L 1209.033258 312.108613 
L 1209.785618 311.925783 
L 1212.795056 312.551512 
L 1213.547416 312.489342 
L 1215.804494 312.862467 
L 1218.061573 313.255417 
L 1218.813933 313.213939 
L 1220.318652 313.448296 
L 1221.071011 313.194885 
L 1223.32809 313.412726 
L 1226.337528 313.803258 
L 1227.089888 313.674525 
L 1227.842247 313.411733 
L 1228.594607 313.522026 
L 1229.346966 313.474933 
L 1230.099326 313.582066 
L 1230.851685 313.552713 
L 1232.356404 313.660399 
L 1233.108764 313.306045 
L 1233.861124 312.705043 
L 1238.375281 313.476601 
L 1239.12764 312.988999 
L 1239.88 312.936754 
L 1244.394157 313.64693 
L 1245.898876 313.83907 
L 1246.651236 313.80594 
L 1251.917753 314.352449 
L 1257.936629 314.761071 
L 1258.688989 314.543674 
L 1260.946067 314.67304 
L 1261.698427 314.337333 
L 1263.203146 314.402688 
L 1263.955506 314.002035 
L 1266.212584 314.232454 
L 1266.964944 313.861797 
L 1268.469663 314.032988 
L 1269.974382 313.819761 
L 1272.98382 314.153248 
L 1273.73618 314.039059 
L 1276.745618 314.331867 
L 1277.497978 313.908386 
L 1279.002697 313.825128 
L 1281.259775 314.080778 
L 1282.012135 313.880769 
L 1285.021573 313.914119 
L 1285.773933 313.700949 
L 1288.031011 313.974311 
L 1288.783371 313.684051 
L 1289.53573 313.583267 
L 1294.049888 314.122176 
L 1295.554607 314.209416 
L 1297.811685 314.392115 
L 1298.564045 314.280513 
L 1299.316404 313.528652 
L 1300.068764 313.633099 
L 1302.325843 313.121761 
L 1303.078202 312.462503 
L 1305.335281 312.910775 
L 1307.59236 313.141993 
L 1308.344719 312.901605 
L 1309.097079 313.037405 
L 1309.849438 312.609539 
L 1311.354157 312.401549 
L 1312.106517 312.562352 
L 1312.858876 312.512082 
L 1316.620674 313.214608 
L 1318.125393 313.10775 
L 1318.877753 312.814991 
L 1319.630112 312.745298 
L 1320.382472 312.554163 
L 1321.134831 311.897897 
L 1322.639551 311.918083 
L 1325.648989 312.468847 
L 1326.401348 312.337167 
L 1328.658427 312.805038 
L 1330.163146 311.576266 
L 1330.915506 311.49049 
L 1334.677303 312.424119 
L 1336.934382 312.879589 
L 1338.439101 312.814307 
L 1340.69618 313.125549 
L 1344.457978 313.689298 
L 1345.210337 312.892335 
L 1347.467416 313.281025 
L 1348.219775 313.258584 
L 1349.724494 313.457886 
L 1351.229213 313.261139 
L 1351.981573 312.846373 
L 1356.49573 313.580492 
L 1357.24809 313.535546 
L 1359.505169 313.784123 
L 1360.257528 313.441855 
L 1361.009888 312.941663 
L 1362.514607 312.862234 
L 1363.266966 312.554896 
L 1364.771685 312.541966 
L 1368.533483 313.237732 
L 1370.038202 313.3682 
L 1371.542921 313.266038 
L 1372.295281 313.383615 
L 1373.8 313.499499 
L 1374.55236 313.605404 
L 1375.304719 313.478803 
L 1376.057079 313.513048 
L 1376.809438 313.378555 
L 1377.561798 312.893974 
L 1379.066517 313.15223 
L 1379.818876 312.979519 
L 1381.323596 313.22184 
L 1382.075955 312.7714 
L 1382.828315 311.915218 
L 1385.837753 312.601986 
L 1386.590112 312.464913 
L 1394.113708 313.683836 
L 1394.866067 313.62806 
L 1395.618427 313.460143 
L 1397.875506 313.76785 
L 1399.380225 313.855805 
L 1400.132584 313.335961 
L 1400.884944 313.450043 
L 1402.389663 313.39168 
L 1403.142022 313.502976 
L 1403.894382 313.30266 
L 1404.646742 312.90504 
L 1405.399101 312.980811 
L 1406.151461 312.29881 
L 1406.90382 312.46475 
L 1408.408539 312.230061 
L 1412.170337 312.990037 
L 1412.922697 313.121415 
L 1413.675056 312.512269 
L 1414.427416 312.443137 
L 1415.932135 312.752647 
L 1416.684494 312.155841 
L 1417.436854 312.11569 
L 1419.693933 312.61515 
L 1420.446292 312.645361 
L 1421.198652 312.793973 
L 1421.951011 312.594044 
L 1423.45573 312.828613 
L 1424.20809 312.687855 
L 1424.960449 312.683088 
L 1425.712809 312.347477 
L 1426.465169 312.510983 
L 1427.217528 312.544532 
L 1430.226966 313.114566 
L 1432.484045 313.164875 
L 1433.236404 312.944204 
L 1435.493483 313.242209 
L 1436.245843 313.233334 
L 1436.998202 313.352547 
L 1437.750562 313.004463 
L 1439.255281 313.082139 
L 1440.00764 312.577419 
L 1440.00764 312.577419 
" clip-path="url(#p704fab4bc7)" style="fill: none; stroke: #ff0000; stroke-width: 5; stroke-linecap: square"/>
   </g>
   <g id="line2d_45">
    <path d="M 1140.568539 313.657046 
L 1141.320899 313.242882 
L 1145.835056 313.871963 
L 1151.101573 314.398555 
L 1151.853933 313.976811 
L 1153.358652 314.136787 
L 1154.111011 313.987353 
L 1156.36809 314.219866 
L 1157.120449 313.375615 
L 1162.386966 314.051936 
L 1163.891685 314.121382 
L 1169.910562 314.624977 
L 1174.424719 314.887929 
L 1175.177079 313.743841 
L 1178.186517 314.058807 
L 1178.938876 314.136747 
L 1179.691236 314.001346 
L 1180.443596 313.55563 
L 1181.948315 313.756671 
L 1182.700674 312.642626 
L 1186.462472 313.315621 
L 1187.214831 312.830098 
L 1187.967191 312.629275 
L 1188.719551 311.682901 
L 1192.481348 312.573003 
L 1193.233708 312.725233 
L 1193.986067 312.282609 
L 1195.490787 312.607771 
L 1196.243146 312.628429 
L 1200.757303 313.420283 
L 1205.271461 314.002369 
L 1206.02382 313.784562 
L 1206.77618 313.046232 
L 1211.290337 313.727407 
L 1214.299775 314.078025 
L 1215.804494 289.36844 
L 1218.061573 258.344379 
L 1219.566292 240.594311 
L 1221.071011 227.287603 
L 1221.823371 222.706439 
L 1222.57573 216.910974 
L 1223.32809 208.814476 
L 1224.080449 203.579317 
L 1225.585169 191.11066 
L 1226.337528 186.959223 
L 1227.089888 180.984397 
L 1228.594607 166.976291 
L 1230.099326 158.99737 
L 1230.851685 154.419482 
L 1231.604045 151.583305 
L 1232.356404 149.422572 
L 1233.861124 141.097335 
L 1234.613483 138.246023 
L 1235.365843 134.583092 
L 1236.118202 131.577442 
L 1236.870562 129.553362 
L 1239.88 118.828476 
L 1242.137079 110.658613 
L 1242.889438 109.029042 
L 1243.641798 104.857293 
L 1245.146517 103.220831 
L 1245.898876 101.730641 
L 1246.651236 101.746732 
L 1247.403596 100.246168 
L 1248.155955 100.305414 
L 1249.660674 100.121423 
L 1250.413034 98.974442 
L 1251.165393 98.956996 
L 1251.917753 96.947156 
L 1252.670112 96.086527 
L 1253.422472 96.030208 
L 1254.174831 96.46353 
L 1255.679551 96.856365 
L 1256.43191 95.865475 
L 1257.936629 92.694633 
L 1258.688989 92.242153 
L 1259.441348 91.944052 
L 1260.193708 92.561862 
L 1260.946067 92.388008 
L 1261.698427 91.279382 
L 1262.450787 90.750809 
L 1263.203146 88.960208 
L 1263.955506 88.887301 
L 1264.707865 87.214734 
L 1265.460225 86.201957 
L 1266.964944 86.614906 
L 1267.717303 87.387334 
L 1268.469663 85.439786 
L 1269.222022 87.520522 
L 1269.974382 88.063116 
L 1270.726742 86.768667 
L 1271.479101 86.517823 
L 1272.231461 87.95004 
L 1272.98382 85.942171 
L 1273.73618 85.514207 
L 1275.993258 83.003175 
L 1277.497978 83.737665 
L 1279.002697 84.329109 
L 1279.755056 84.29852 
L 1280.507416 83.976242 
L 1281.259775 85.19633 
L 1282.012135 84.611677 
L 1282.764494 82.819941 
L 1283.516854 82.36547 
L 1284.269213 82.556152 
L 1285.021573 83.033685 
L 1285.773933 84.077687 
L 1287.278652 83.573151 
L 1288.031011 83.615489 
L 1288.783371 82.350216 
L 1289.53573 81.554409 
L 1291.040449 104.077357 
L 1293.297528 134.248307 
L 1295.554607 160.116112 
L 1297.811685 182.294518 
L 1300.068764 201.30973 
L 1301.573483 212.454754 
L 1302.325843 216.486932 
L 1304.582921 230.625448 
L 1306.84 242.747457 
L 1309.097079 253.140566 
L 1311.354157 262.051351 
L 1313.611236 269.691242 
L 1315.115955 274.169061 
L 1318.125393 281.441416 
L 1319.630112 284.773593 
L 1320.382472 285.971996 
L 1322.639551 290.200201 
L 1324.14427 292.678398 
L 1324.896629 293.031364 
L 1327.153708 296.252726 
L 1331.667865 301.30544 
L 1333.924944 303.346711 
L 1334.677303 303.960255 
L 1335.429663 304.29921 
L 1337.686742 305.913494 
L 1339.94382 307.297542 
L 1342.953258 308.84086 
L 1345.962697 310.097903 
L 1348.972135 311.121772 
L 1349.724494 310.41489 
L 1351.229213 310.922154 
L 1352.733933 310.387195 
L 1353.486292 310.43923 
L 1356.49573 311.399785 
L 1360.257528 312.353934 
L 1361.009888 312.517117 
L 1361.762247 311.67893 
L 1365.524045 312.569931 
L 1370.038202 313.377282 
L 1371.542921 313.595713 
L 1372.295281 312.579194 
L 1376.057079 313.266538 
L 1380.571236 313.861787 
L 1381.323596 313.648528 
L 1382.075955 313.068289 
L 1386.590112 313.74362 
L 1388.094831 313.926333 
L 1389.599551 313.594695 
L 1394.866067 314.204928 
L 1397.875506 314.466969 
L 1398.627865 313.546832 
L 1399.380225 313.402783 
L 1400.132584 312.363539 
L 1402.389663 312.827649 
L 1403.142022 312.272156 
L 1403.894382 312.431457 
L 1404.646742 312.214624 
L 1405.399101 311.327812 
L 1407.65618 311.861708 
L 1411.417978 312.711361 
L 1414.427416 313.250449 
L 1415.179775 312.849358 
L 1417.436854 313.244178 
L 1418.189213 312.860651 
L 1420.446292 313.253861 
L 1421.198652 313.157602 
L 1421.951011 313.280602 
L 1422.703371 312.557977 
L 1423.45573 310.60391 
L 1424.20809 310.375148 
L 1424.960449 310.637271 
L 1425.712809 310.758357 
L 1429.474607 311.857609 
L 1433.236404 312.70819 
L 1437.750562 313.478915 
L 1439.255281 313.687436 
L 1440.00764 313.473664 
L 1440.00764 313.473664 
" clip-path="url(#p704fab4bc7)" style="fill: none; stroke: #0000ff; stroke-width: 5; stroke-linecap: square"/>
   </g>
   <g id="patch_15">
    <path d="M 1139.81618 336.640156 
L 1139.81618 31.720156 
" style="fill: none; stroke: #000000; stroke-width: 5; stroke-linejoin: miter; stroke-linecap: square"/>
   </g>
   <g id="patch_16">
    <path d="M 1139.81618 336.640156 
L 1440.76 336.640156 
" style="fill: none; stroke: #000000; stroke-width: 5; stroke-linejoin: miter; stroke-linecap: square"/>
   </g>
   <g id="patch_17">
    <path d="M 1215.052135 330.541756 
L 1290.28809 330.541756 
L 1290.28809 319.869556 
L 1215.052135 319.869556 
z
" style="fill: #8c5a2b; stroke: #8c5a2b; stroke-linejoin: miter"/>
   </g>
   <g id="text_36">
    <!-- Novel | Expert -->
    <g transform="translate(1222.890043 21.720156) scale(0.19 -0.19)">
     <use xlink:href="#DejaVuSans-4e"/>
     <use xlink:href="#DejaVuSans-6f" transform="translate(74.804688 0)"/>
     <use xlink:href="#DejaVuSans-76" transform="translate(135.986328 0)"/>
     <use xlink:href="#DejaVuSans-65" transform="translate(195.166016 0)"/>
     <use xlink:href="#DejaVuSans-6c" transform="translate(256.689453 0)"/>
     <use xlink:href="#DejaVuSans-20" transform="translate(284.472656 0)"/>
     <use xlink:href="#DejaVuSans-7c" transform="translate(316.259766 0)"/>
     <use xlink:href="#DejaVuSans-20" transform="translate(349.951172 0)"/>
     <use xlink:href="#DejaVuSans-45" transform="translate(381.738281 0)"/>
     <use xlink:href="#DejaVuSans-78" transform="translate(444.921875 0)"/>
     <use xlink:href="#DejaVuSans-70" transform="translate(504.101562 0)"/>
     <use xlink:href="#DejaVuSans-65" transform="translate(567.578125 0)"/>
     <use xlink:href="#DejaVuSans-72" transform="translate(629.101562 0)"/>
     <use xlink:href="#DejaVuSans-74" transform="translate(670.214844 0)"/>
    </g>
   </g>
  </g>
 </g>
 <defs>
  <clipPath id="p90dec2ecc0">
   <rect x="101.56" y="31.720156" width="300.94382" height="304.92"/>
  </clipPath>
  <clipPath id="p3cecb961ee">
   <rect x="447.645393" y="31.720156" width="300.94382" height="304.92"/>
  </clipPath>
  <clipPath id="p815250f217">
   <rect x="793.730787" y="31.720156" width="300.94382" height="304.92"/>
  </clipPath>
  <clipPath id="p704fab4bc7">
   <rect x="1139.81618" y="31.720156" width="300.94382" height="304.92"/>
  </clipPath>
 </defs>
</svg>
