<?xml version="1.0" encoding="utf-8" standalone="no"?>
<!DOCTYPE svg PUBLIC "-//W3C//DTD SVG 1.1//EN"
  "http://www.w3.org/Graphics/SVG/1.1/DTD/svg11.dtd">
<svg xmlns:xlink="http://www.w3.org/1999/xlink" width="872.39952pt" height="404.39952pt" viewBox="0 0 872.39952 404.39952" xmlns="http://www.w3.org/2000/svg" version="1.1">
 <metadata>
  <rdf:RDF xmlns:dc="http://purl.org/dc/elements/1.1/" xmlns:cc="http://creativecommons.org/ns#" xmlns:rdf="http://www.w3.org/1999/02/22-rdf-syntax-ns#">
   <cc:Work>
    <dc:type rdf:resource="http://purl.org/dc/dcmitype/StillImage"/>
    <dc:date>2026-03-25T11:55:32.920020</dc:date>
    <dc:format>image/svg+xml</dc:format>
    <dc:creator>
     <cc:Agent>
      <dc:title>Matplotlib v3.10.7, https://matplotlib.org/</dc:title>
     </cc:Agent>
    </dc:creator>
   </cc:Work>
  </rdf:RDF>
 </metadata>
 <defs>
  <style type="text/css">*{stroke-linejoin: round; stroke-linecap: butt}</style>
 </defs>
 <g id="figure_1">
  <g id="patch_1">
   <path d="M 0 404.39952 
L 872.39952 404.39952 
L 872.39952 0 
L 0 0 
z
" style="fill: #ffffff"/>
  </g>
  <g id="axes_1">
   <g id="patch_2">
    <path d="M 101.56 322.75952 
L 460.90351 322.75952 
L 460.90351 31.720156 
L 101.56 31.720156 
z
" style="fill: #ffffff"/>
   </g>
   <g id="matplotlib.axis_1">
    <g id="xtick_1">
     <g id="line2d_1">
      <defs>
       <path id="md52c3989ce" d="M 0 0 
L 0 5 
" style="stroke: #000000; stroke-width: 1.6"/>
      </defs>
      <g>
       <use xlink:href="#md52c3989ce" x="101.56" y="322.75952" style="stroke: #000000; stroke-width: 1.6"/>
      </g>
     </g>
     <g id="text_1">
      <!-- -1 -->
      <g transform="translate(85.6075 355.57452) scale(0.32 -0.32)">
       <defs>
        <path id="DejaVuSans-2d" d="M 313 2009 
L 1997 2009 
L 1997 1497 
L 313 1497 
L 313 2009 
z
" transform="scale(0.015625)"/>
        <path id="DejaVuSans-31" d="M 794 531 
L 1825 531 
L 1825 4091 
L 703 3866 
L 703 4441 
L 1819 4666 
L 2450 4666 
L 2450 531 
L 3481 531 
L 3481 0 
L 794 0 
L 794 531 
z
" transform="scale(0.015625)"/>
       </defs>
       <use xlink:href="#DejaVuSans-2d"/>
       <use xlink:href="#DejaVuSans-31" transform="translate(36.083984 0)"/>
      </g>
     </g>
    </g>
    <g id="xtick_2">
     <g id="line2d_2">
      <g>
       <use xlink:href="#md52c3989ce" x="191.395877" y="322.75952" style="stroke: #000000; stroke-width: 1.6"/>
      </g>
     </g>
     <g id="text_2">
      <!-- 0 -->
      <g transform="translate(181.215877 355.57452) scale(0.32 -0.32)">
       <defs>
        <path id="DejaVuSans-30" d="M 2034 4250 
Q 1547 4250 1301 3770 
Q 1056 3291 1056 2328 
Q 1056 1369 1301 889 
Q 1547 409 2034 409 
Q 2525 409 2770 889 
Q 3016 1369 3016 2328 
Q 3016 3291 2770 3770 
Q 2525 4250 2034 4250 
z
M 2034 4750 
Q 2819 4750 3233 4129 
Q 3647 3509 3647 2328 
Q 3647 1150 3233 529 
Q 2819 -91 2034 -91 
Q 1250 -91 836 529 
Q 422 1150 422 2328 
Q 422 3509 836 4129 
Q 1250 4750 2034 4750 
z
" transform="scale(0.015625)"/>
       </defs>
       <use xlink:href="#DejaVuSans-30"/>
      </g>
     </g>
    </g>
    <g id="xtick_3">
     <g id="line2d_3">
      <g>
       <use xlink:href="#md52c3989ce" x="281.231755" y="322.75952" style="stroke: #000000; stroke-width: 1.6"/>
      </g>
     </g>
     <g id="text_3">
      <!-- 1 -->
      <g transform="translate(271.051755 355.57452) scale(0.32 -0.32)">
       <use xlink:href="#DejaVuSans-31"/>
      </g>
     </g>
    </g>
    <g id="xtick_4">
     <g id="line2d_4">
      <g>
       <use xlink:href="#md52c3989ce" x="371.067632" y="322.75952" style="stroke: #000000; stroke-width: 1.6"/>
      </g>
     </g>
     <g id="text_4">
      <!-- 2 -->
      <g transform="translate(360.887632 355.57452) scale(0.32 -0.32)">
       <defs>
        <path id="DejaVuSans-32" d="M 1228 531 
L 3431 531 
L 3431 0 
L 469 0 
L 469 531 
Q 828 903 1448 1529 
Q 2069 2156 2228 2338 
Q 2531 2678 2651 2914 
Q 2772 3150 2772 3378 
Q 2772 3750 2511 3984 
Q 2250 4219 1831 4219 
Q 1534 4219 1204 4116 
Q 875 4013 500 3803 
L 500 4441 
Q 881 4594 1212 4672 
Q 1544 4750 1819 4750 
Q 2544 4750 2975 4387 
Q 3406 4025 3406 3419 
Q 3406 3131 3298 2873 
Q 3191 2616 2906 2266 
Q 2828 2175 2409 1742 
Q 1991 1309 1228 531 
z
" transform="scale(0.015625)"/>
       </defs>
       <use xlink:href="#DejaVuSans-32"/>
      </g>
     </g>
    </g>
    <g id="xtick_5">
     <g id="line2d_5">
      <g>
       <use xlink:href="#md52c3989ce" x="460.90351" y="322.75952" style="stroke: #000000; stroke-width: 1.6"/>
      </g>
     </g>
     <g id="text_5">
      <!-- 3 -->
      <g transform="translate(450.72351 355.57452) scale(0.32 -0.32)">
       <defs>
        <path id="DejaVuSans-33" d="M 2597 2516 
Q 3050 2419 3304 2112 
Q 3559 1806 3559 1356 
Q 3559 666 3084 287 
Q 2609 -91 1734 -91 
Q 1441 -91 1130 -33 
Q 819 25 488 141 
L 488 750 
Q 750 597 1062 519 
Q 1375 441 1716 441 
Q 2309 441 2620 675 
Q 2931 909 2931 1356 
Q 2931 1769 2642 2001 
Q 2353 2234 1838 2234 
L 1294 2234 
L 1294 2753 
L 1863 2753 
Q 2328 2753 2575 2939 
Q 2822 3125 2822 3475 
Q 2822 3834 2567 4026 
Q 2313 4219 1838 4219 
Q 1578 4219 1281 4162 
Q 984 4106 628 3988 
L 628 4550 
Q 988 4650 1302 4700 
Q 1616 4750 1894 4750 
Q 2613 4750 3031 4423 
Q 3450 4097 3450 3541 
Q 3450 3153 3228 2886 
Q 3006 2619 2597 2516 
z
" transform="scale(0.015625)"/>
       </defs>
       <use xlink:href="#DejaVuSans-33"/>
      </g>
     </g>
    </g>
    <g id="text_6">
     <!-- Time (s) -->
     <g transform="translate(216.179255 390.54452) scale(0.32 -0.32)">
      <defs>
       <path id="DejaVuSans-54" d="M -19 4666 
L 3928 4666 
L 3928 4134 
L 2272 4134 
L 2272 0 
L 1638 0 
L 1638 4134 
L -19 4134 
L -19 4666 
z
" transform="scale(0.015625)"/>
       <path id="DejaVuSans-69" d="M 603 3500 
L 1178 3500 
L 1178 0 
L 603 0 
L 603 3500 
z
M 603 4863 
L 1178 4863 
L 1178 4134 
L 603 4134 
L 603 4863 
z
" transform="scale(0.015625)"/>
       <path id="DejaVuSans-6d" d="M 3328 2828 
Q 3544 3216 3844 3400 
Q 4144 3584 4550 3584 
Q 5097 3584 5394 3201 
Q 5691 2819 5691 2113 
L 5691 0 
L 5113 0 
L 5113 2094 
Q 5113 2597 4934 2840 
Q 4756 3084 4391 3084 
Q 3944 3084 3684 2787 
Q 3425 2491 3425 1978 
L 3425 0 
L 2847 0 
L 2847 2094 
Q 2847 2600 2669 2842 
Q 2491 3084 2119 3084 
Q 1678 3084 1418 2786 
Q 1159 2488 1159 1978 
L 1159 0 
L 581 0 
L 581 3500 
L 1159 3500 
L 1159 2956 
Q 1356 3278 1631 3431 
Q 1906 3584 2284 3584 
Q 2666 3584 2933 3390 
Q 3200 3197 3328 2828 
z
" transform="scale(0.015625)"/>
       <path id="DejaVuSans-65" d="M 3597 1894 
L 3597 1613 
L 953 1613 
Q 991 1019 1311 708 
Q 1631 397 2203 397 
Q 2534 397 2845 478 
Q 3156 559 3463 722 
L 3463 178 
Q 3153 47 2828 -22 
Q 2503 -91 2169 -91 
Q 1331 -91 842 396 
Q 353 884 353 1716 
Q 353 2575 817 3079 
Q 1281 3584 2069 3584 
Q 2775 3584 3186 3129 
Q 3597 2675 3597 1894 
z
M 3022 2063 
Q 3016 2534 2758 2815 
Q 2500 3097 2075 3097 
Q 1594 3097 1305 2825 
Q 1016 2553 972 2059 
L 3022 2063 
z
" transform="scale(0.015625)"/>
       <path id="DejaVuSans-20" transform="scale(0.015625)"/>
       <path id="DejaVuSans-28" d="M 1984 4856 
Q 1566 4138 1362 3434 
Q 1159 2731 1159 2009 
Q 1159 1288 1364 580 
Q 1569 -128 1984 -844 
L 1484 -844 
Q 1016 -109 783 600 
Q 550 1309 550 2009 
Q 550 2706 781 3412 
Q 1013 4119 1484 4856 
L 1984 4856 
z
" transform="scale(0.015625)"/>
       <path id="DejaVuSans-73" d="M 2834 3397 
L 2834 2853 
Q 2591 2978 2328 3040 
Q 2066 3103 1784 3103 
Q 1356 3103 1142 2972 
Q 928 2841 928 2578 
Q 928 2378 1081 2264 
Q 1234 2150 1697 2047 
L 1894 2003 
Q 2506 1872 2764 1633 
Q 3022 1394 3022 966 
Q 3022 478 2636 193 
Q 2250 -91 1575 -91 
Q 1294 -91 989 -36 
Q 684 19 347 128 
L 347 722 
Q 666 556 975 473 
Q 1284 391 1588 391 
Q 1994 391 2212 530 
Q 2431 669 2431 922 
Q 2431 1156 2273 1281 
Q 2116 1406 1581 1522 
L 1381 1569 
Q 847 1681 609 1914 
Q 372 2147 372 2553 
Q 372 3047 722 3315 
Q 1072 3584 1716 3584 
Q 2034 3584 2315 3537 
Q 2597 3491 2834 3397 
z
" transform="scale(0.015625)"/>
       <path id="DejaVuSans-29" d="M 513 4856 
L 1013 4856 
Q 1481 4119 1714 3412 
Q 1947 2706 1947 2009 
Q 1947 1309 1714 600 
Q 1481 -109 1013 -844 
L 513 -844 
Q 928 -128 1133 580 
Q 1338 1288 1338 2009 
Q 1338 2731 1133 3434 
Q 928 4138 513 4856 
z
" transform="scale(0.015625)"/>
      </defs>
      <use xlink:href="#DejaVuSans-54"/>
      <use xlink:href="#DejaVuSans-69" transform="translate(57.958984 0)"/>
      <use xlink:href="#DejaVuSans-6d" transform="translate(85.742188 0)"/>
      <use xlink:href="#DejaVuSans-65" transform="translate(183.154297 0)"/>
      <use xlink:href="#DejaVuSans-20" transform="translate(244.677734 0)"/>
      <use xlink:href="#DejaVuSans-28" transform="translate(276.464844 0)"/>
      <use xlink:href="#DejaVuSans-73" transform="translate(315.478516 0)"/>
      <use xlink:href="#DejaVuSans-29" transform="translate(367.578125 0)"/>
     </g>
    </g>
   </g>
   <g id="matplotlib.axis_2">
    <g id="ytick_1">
     <g id="line2d_6">
      <defs>
       <path id="m3ebfe07585" d="M 0 0 
L -5 0 
" style="stroke: #000000; stroke-width: 1.6"/>
      </defs>
      <g>
       <use xlink:href="#m3ebfe07585" x="101.56" y="303.399984" style="stroke: #000000; stroke-width: 1.6"/>
      </g>
     </g>
     <g id="text_7">
      <!-- 0.0 -->
      <g transform="translate(42.17 315.557484) scale(0.32 -0.32)">
       <defs>
        <path id="DejaVuSans-2e" d="M 684 794 
L 1344 794 
L 1344 0 
L 684 0 
L 684 794 
z
" transform="scale(0.015625)"/>
       </defs>
       <use xlink:href="#DejaVuSans-30"/>
       <use xlink:href="#DejaVuSans-2e" transform="translate(63.623047 0)"/>
       <use xlink:href="#DejaVuSans-30" transform="translate(95.410156 0)"/>
      </g>
     </g>
    </g>
    <g id="ytick_2">
     <g id="line2d_7">
      <g>
       <use xlink:href="#m3ebfe07585" x="101.56" y="201.736645" style="stroke: #000000; stroke-width: 1.6"/>
      </g>
     </g>
     <g id="text_8">
      <!-- 0.2 -->
      <g transform="translate(42.17 213.894145) scale(0.32 -0.32)">
       <use xlink:href="#DejaVuSans-30"/>
       <use xlink:href="#DejaVuSans-2e" transform="translate(63.623047 0)"/>
       <use xlink:href="#DejaVuSans-32" transform="translate(95.410156 0)"/>
      </g>
     </g>
    </g>
    <g id="ytick_3">
     <g id="line2d_8">
      <g>
       <use xlink:href="#m3ebfe07585" x="101.56" y="100.073305" style="stroke: #000000; stroke-width: 1.6"/>
      </g>
     </g>
     <g id="text_9">
      <!-- 0.4 -->
      <g transform="translate(42.17 112.230805) scale(0.32 -0.32)">
       <defs>
        <path id="DejaVuSans-34" d="M 2419 4116 
L 825 1625 
L 2419 1625 
L 2419 4116 
z
M 2253 4666 
L 3047 4666 
L 3047 1625 
L 3713 1625 
L 3713 1100 
L 3047 1100 
L 3047 0 
L 2419 0 
L 2419 1100 
L 313 1100 
L 313 1709 
L 2253 4666 
z
" transform="scale(0.015625)"/>
       </defs>
       <use xlink:href="#DejaVuSans-30"/>
       <use xlink:href="#DejaVuSans-2e" transform="translate(63.623047 0)"/>
       <use xlink:href="#DejaVuSans-34" transform="translate(95.410156 0)"/>
      </g>
     </g>
    </g>
    <g id="text_10">
     <!-- Neural Activity -->
     <g transform="translate(31.515 294.944838) rotate(-90) scale(0.32 -0.32)">
      <defs>
       <path id="DejaVuSans-4e" d="M 628 4666 
L 1478 4666 
L 3547 763 
L 3547 4666 
L 4159 4666 
L 4159 0 
L 3309 0 
L 1241 3903 
L 1241 0 
L 628 0 
L 628 4666 
z
" transform="scale(0.015625)"/>
       <path id="DejaVuSans-75" d="M 544 1381 
L 544 3500 
L 1119 3500 
L 1119 1403 
Q 1119 906 1312 657 
Q 1506 409 1894 409 
Q 2359 409 2629 706 
Q 2900 1003 2900 1516 
L 2900 3500 
L 3475 3500 
L 3475 0 
L 2900 0 
L 2900 538 
Q 2691 219 2414 64 
Q 2138 -91 1772 -91 
Q 1169 -91 856 284 
Q 544 659 544 1381 
z
M 1991 3584 
L 1991 3584 
z
" transform="scale(0.015625)"/>
       <path id="DejaVuSans-72" d="M 2631 2963 
Q 2534 3019 2420 3045 
Q 2306 3072 2169 3072 
Q 1681 3072 1420 2755 
Q 1159 2438 1159 1844 
L 1159 0 
L 581 0 
L 581 3500 
L 1159 3500 
L 1159 2956 
Q 1341 3275 1631 3429 
Q 1922 3584 2338 3584 
Q 2397 3584 2469 3576 
Q 2541 3569 2628 3553 
L 2631 2963 
z
" transform="scale(0.015625)"/>
       <path id="DejaVuSans-61" d="M 2194 1759 
Q 1497 1759 1228 1600 
Q 959 1441 959 1056 
Q 959 750 1161 570 
Q 1363 391 1709 391 
Q 2188 391 2477 730 
Q 2766 1069 2766 1631 
L 2766 1759 
L 2194 1759 
z
M 3341 1997 
L 3341 0 
L 2766 0 
L 2766 531 
Q 2569 213 2275 61 
Q 1981 -91 1556 -91 
Q 1019 -91 701 211 
Q 384 513 384 1019 
Q 384 1609 779 1909 
Q 1175 2209 1959 2209 
L 2766 2209 
L 2766 2266 
Q 2766 2663 2505 2880 
Q 2244 3097 1772 3097 
Q 1472 3097 1187 3025 
Q 903 2953 641 2809 
L 641 3341 
Q 956 3463 1253 3523 
Q 1550 3584 1831 3584 
Q 2591 3584 2966 3190 
Q 3341 2797 3341 1997 
z
" transform="scale(0.015625)"/>
       <path id="DejaVuSans-6c" d="M 603 4863 
L 1178 4863 
L 1178 0 
L 603 0 
L 603 4863 
z
" transform="scale(0.015625)"/>
       <path id="DejaVuSans-41" d="M 2188 4044 
L 1331 1722 
L 3047 1722 
L 2188 4044 
z
M 1831 4666 
L 2547 4666 
L 4325 0 
L 3669 0 
L 3244 1197 
L 1141 1197 
L 716 0 
L 50 0 
L 1831 4666 
z
" transform="scale(0.015625)"/>
       <path id="DejaVuSans-63" d="M 3122 3366 
L 3122 2828 
Q 2878 2963 2633 3030 
Q 2388 3097 2138 3097 
Q 1578 3097 1268 2742 
Q 959 2388 959 1747 
Q 959 1106 1268 751 
Q 1578 397 2138 397 
Q 2388 397 2633 464 
Q 2878 531 3122 666 
L 3122 134 
Q 2881 22 2623 -34 
Q 2366 -91 2075 -91 
Q 1284 -91 818 406 
Q 353 903 353 1747 
Q 353 2603 823 3093 
Q 1294 3584 2113 3584 
Q 2378 3584 2631 3529 
Q 2884 3475 3122 3366 
z
" transform="scale(0.015625)"/>
       <path id="DejaVuSans-74" d="M 1172 4494 
L 1172 3500 
L 2356 3500 
L 2356 3053 
L 1172 3053 
L 1172 1153 
Q 1172 725 1289 603 
Q 1406 481 1766 481 
L 2356 481 
L 2356 0 
L 1766 0 
Q 1100 0 847 248 
Q 594 497 594 1153 
L 594 3053 
L 172 3053 
L 172 3500 
L 594 3500 
L 594 4494 
L 1172 4494 
z
" transform="scale(0.015625)"/>
       <path id="DejaVuSans-76" d="M 191 3500 
L 800 3500 
L 1894 563 
L 2988 3500 
L 3597 3500 
L 2284 0 
L 1503 0 
L 191 3500 
z
" transform="scale(0.015625)"/>
       <path id="DejaVuSans-79" d="M 2059 -325 
Q 1816 -950 1584 -1140 
Q 1353 -1331 966 -1331 
L 506 -1331 
L 506 -850 
L 844 -850 
Q 1081 -850 1212 -737 
Q 1344 -625 1503 -206 
L 1606 56 
L 191 3500 
L 800 3500 
L 1894 763 
L 2988 3500 
L 3597 3500 
L 2059 -325 
z
" transform="scale(0.015625)"/>
      </defs>
      <use xlink:href="#DejaVuSans-4e"/>
      <use xlink:href="#DejaVuSans-65" transform="translate(74.804688 0)"/>
      <use xlink:href="#DejaVuSans-75" transform="translate(136.328125 0)"/>
      <use xlink:href="#DejaVuSans-72" transform="translate(199.707031 0)"/>
      <use xlink:href="#DejaVuSans-61" transform="translate(240.820312 0)"/>
      <use xlink:href="#DejaVuSans-6c" transform="translate(302.099609 0)"/>
      <use xlink:href="#DejaVuSans-20" transform="translate(329.882812 0)"/>
      <use xlink:href="#DejaVuSans-41" transform="translate(361.669922 0)"/>
      <use xlink:href="#DejaVuSans-63" transform="translate(428.328125 0)"/>
      <use xlink:href="#DejaVuSans-74" transform="translate(483.308594 0)"/>
      <use xlink:href="#DejaVuSans-69" transform="translate(522.517578 0)"/>
      <use xlink:href="#DejaVuSans-76" transform="translate(550.300781 0)"/>
      <use xlink:href="#DejaVuSans-69" transform="translate(609.480469 0)"/>
      <use xlink:href="#DejaVuSans-74" transform="translate(637.263672 0)"/>
      <use xlink:href="#DejaVuSans-79" transform="translate(676.472656 0)"/>
     </g>
    </g>
   </g>
   <g id="line2d_9">
    <path d="M 102.458359 295.917214 
L 103.356718 294.724778 
L 104.255076 295.158539 
L 105.153435 294.681682 
L 106.051794 294.459748 
L 108.74687 295.734849 
L 109.645229 296.118106 
L 110.543588 295.80175 
L 111.441947 295.720816 
L 114.137023 296.816058 
L 115.035382 296.396444 
L 115.93374 296.166897 
L 117.730458 296.872123 
L 118.628817 295.265198 
L 119.527176 294.493973 
L 121.323893 295.362309 
L 122.222252 295.552431 
L 123.120611 294.754306 
L 125.815687 295.987397 
L 126.714046 295.755791 
L 128.510763 296.5011 
L 129.409122 296.123465 
L 130.307481 296.008426 
L 133.002557 297.062647 
L 133.900916 296.750706 
L 134.799275 297.08317 
L 136.595992 297.601316 
L 139.291069 298.428351 
L 140.189427 298.152714 
L 141.087786 298.08384 
L 142.884504 298.602164 
L 143.782862 298.049261 
L 144.681221 297.799064 
L 147.376298 298.597896 
L 148.274656 298.152918 
L 149.173015 298.190215 
L 151.868091 298.884369 
L 152.76645 298.674412 
L 153.664809 298.910691 
L 155.461527 299.137801 
L 157.258244 299.553364 
L 158.156603 298.691808 
L 160.851679 299.318506 
L 161.750038 299.09895 
L 162.648397 298.012321 
L 164.445114 298.476928 
L 165.343473 297.949206 
L 166.241832 297.55425 
L 168.038549 298.057272 
L 168.936908 296.76733 
L 169.835267 297.098962 
L 170.733626 296.516029 
L 171.631984 296.860227 
L 172.530343 296.76055 
L 173.428702 297.092522 
L 174.327061 297.018557 
L 175.22542 295.048999 
L 178.818855 296.598055 
L 180.615572 297.261243 
L 181.513931 296.948789 
L 182.41229 296.971967 
L 186.005725 298.164325 
L 186.904084 298.426108 
L 187.802442 297.937726 
L 190.497519 298.716781 
L 191.395877 288.234511 
L 192.294236 275.761017 
L 193.192595 265.505045 
L 194.989313 242.854745 
L 197.684389 212.164682 
L 199.481106 196.099194 
L 201.277824 181.162429 
L 203.074542 170.266308 
L 203.9729 164.197172 
L 204.871259 160.958615 
L 205.769618 156.299474 
L 206.667977 149.06703 
L 207.566335 143.471225 
L 208.464694 140.017794 
L 209.363053 135.992457 
L 210.261412 131.337967 
L 212.058129 123.714193 
L 212.956488 118.604354 
L 213.854847 114.593212 
L 214.753206 111.314192 
L 215.651564 107.539208 
L 216.549923 104.737261 
L 217.448282 103.196969 
L 218.346641 100.985137 
L 219.245 98.267964 
L 220.143358 96.672954 
L 221.940076 94.366304 
L 222.838435 92.091573 
L 223.736793 90.194325 
L 224.635152 89.307516 
L 225.533511 85.992896 
L 226.43187 83.609652 
L 228.228587 77.72229 
L 229.126946 77.211404 
L 230.025305 74.878607 
L 230.923664 74.53283 
L 231.822022 73.847686 
L 232.720381 74.147939 
L 233.61874 73.829537 
L 234.517099 74.849612 
L 235.415457 73.289687 
L 237.212175 71.36305 
L 238.110534 70.856103 
L 239.907251 70.764149 
L 240.80561 70.19753 
L 241.703969 69.417734 
L 242.602328 68.158351 
L 244.399045 65.279447 
L 245.297404 65.64928 
L 246.195763 64.960242 
L 247.094122 64.81516 
L 247.99248 63.581742 
L 248.890839 63.303242 
L 249.789198 63.593982 
L 250.687557 62.553835 
L 251.585915 60.252533 
L 252.484274 58.78579 
L 253.382633 59.08774 
L 254.280992 59.545604 
L 255.179351 58.280843 
L 256.077709 57.413016 
L 256.976068 56.817902 
L 257.874427 55.909991 
L 258.772786 54.283229 
L 259.671144 54.623976 
L 260.569503 53.386316 
L 261.467862 54.350793 
L 262.366221 54.047904 
L 263.26458 55.143845 
L 264.162938 55.422314 
L 265.061297 56.231135 
L 265.959656 57.470264 
L 266.858015 57.22891 
L 267.756373 58.141775 
L 268.654732 56.544992 
L 269.553091 56.333391 
L 270.45145 57.655628 
L 271.349808 56.367825 
L 272.248167 55.95562 
L 273.146526 56.520072 
L 274.044885 56.255676 
L 274.943244 57.708164 
L 275.841602 57.822948 
L 276.739961 57.710846 
L 277.63832 57.291551 
L 278.536679 58.037262 
L 279.435037 56.906963 
L 280.333396 55.469458 
L 282.130114 79.642685 
L 283.926831 101.459028 
L 284.82519 111.556076 
L 289.316984 154.133422 
L 290.215343 161.596752 
L 291.113702 167.29298 
L 293.808778 186.521954 
L 294.707137 192.365855 
L 296.503854 201.888747 
L 298.300572 211.786101 
L 300.995648 224.74582 
L 302.792366 232.125808 
L 304.589083 238.813365 
L 305.487442 241.269983 
L 306.385801 243.179801 
L 307.284159 244.691279 
L 309.080877 250.415381 
L 310.877595 255.249027 
L 312.674312 259.94375 
L 313.572671 260.809592 
L 315.369388 264.853092 
L 316.267747 266.179915 
L 318.064465 269.808874 
L 318.962824 271.097805 
L 320.759541 274.247267 
L 321.6579 275.704904 
L 322.556259 276.768217 
L 326.149694 281.63134 
L 328.84477 284.736093 
L 331.539846 287.398031 
L 332.438205 287.996887 
L 333.336564 288.767042 
L 334.234923 288.786353 
L 335.133281 288.647826 
L 337.828358 290.751853 
L 338.726717 291.38426 
L 339.625075 291.649034 
L 342.320152 293.325014 
L 344.116869 294.307324 
L 345.913587 294.575394 
L 346.811946 294.206915 
L 347.710304 294.283704 
L 350.405381 295.575539 
L 353.998816 297.026925 
L 354.897175 297.345578 
L 355.795533 296.763435 
L 356.693892 297.095263 
L 357.592251 296.586749 
L 360.287327 297.558487 
L 361.185686 297.314114 
L 362.084045 297.618408 
L 362.982404 297.770414 
L 363.880762 298.051893 
L 364.779121 298.087855 
L 365.67748 298.353462 
L 366.575839 296.550925 
L 367.474197 296.893378 
L 368.372556 296.920448 
L 369.270915 297.244425 
L 370.169274 297.080365 
L 371.067632 297.396346 
L 371.965991 297.064997 
L 375.559426 298.240098 
L 376.457785 298.498092 
L 377.356144 296.818163 
L 378.254503 297.017126 
L 379.152861 296.47669 
L 380.05122 296.822855 
L 380.949579 296.706502 
L 383.644655 297.661159 
L 384.543014 297.191116 
L 385.441373 297.376371 
L 389.034808 298.493714 
L 389.933167 296.803716 
L 390.831526 296.750812 
L 391.729884 297.083271 
L 393.526602 297.505093 
L 394.424961 297.268881 
L 395.323319 297.575436 
L 396.221678 296.777388 
L 397.120037 296.6283 
L 398.018396 296.681838 
L 399.815113 296.089786 
L 401.611831 296.80253 
L 402.51019 296.921629 
L 403.408548 297.245547 
L 404.306907 296.786708 
L 407.001983 297.729926 
L 407.900342 297.696533 
L 408.798701 297.813143 
L 409.69706 298.092485 
L 410.595419 298.157688 
L 411.493777 297.76769 
L 412.392136 296.72271 
L 413.290495 297.056574 
L 414.188854 297.047773 
L 415.087212 297.365383 
L 415.985571 296.555969 
L 416.88393 296.89817 
L 417.782289 296.558709 
L 418.680648 296.627798 
L 419.579006 296.966407 
L 421.375724 296.531491 
L 422.274083 296.589573 
L 423.172441 295.259463 
L 424.969159 294.909655 
L 426.765877 295.737462 
L 427.664235 295.736532 
L 429.460953 296.483718 
L 430.359312 296.36376 
L 433.054388 297.367302 
L 433.952747 296.519992 
L 435.749464 297.089594 
L 436.647823 297.405114 
L 437.546182 297.410359 
L 438.444541 297.70984 
L 439.342899 297.692219 
L 440.241258 297.007111 
L 441.139617 297.00154 
L 444.733052 298.188411 
L 445.631411 298.44899 
L 446.52977 298.215359 
L 447.428128 298.47459 
L 448.326487 298.167929 
L 449.224846 298.429531 
L 450.123205 298.474199 
L 451.021563 298.720488 
L 451.919922 297.367809 
L 452.818281 297.669418 
L 453.71664 296.856508 
L 455.513357 297.494497 
L 456.411716 296.328649 
L 457.310075 296.299371 
L 458.208434 295.893088 
L 459.106792 296.268433 
L 460.005151 295.743226 
L 460.005151 295.743226 
" clip-path="url(#pe567814d4b)" style="fill: none; stroke: #000000; stroke-width: 5; stroke-linecap: square"/>
   </g>
   <g id="line2d_10">
    <path d="M 102.458359 301.180948 
L 103.356718 300.788846 
L 104.255076 300.787615 
L 105.153435 300.918234 
L 106.051794 300.781678 
L 106.950153 300.912593 
L 107.848511 300.464384 
L 108.74687 300.331503 
L 109.645229 300.363686 
L 110.543588 300.206382 
L 111.441947 299.872133 
L 112.340305 299.844995 
L 114.137023 300.191607 
L 115.93374 300.045345 
L 116.832099 300.213077 
L 118.628817 300.056545 
L 119.527176 300.148825 
L 120.425534 300.069705 
L 123.120611 300.544686 
L 124.018969 300.44454 
L 126.714046 300.842164 
L 127.612404 300.251471 
L 130.307481 300.700528 
L 131.20584 300.747377 
L 132.104198 300.130436 
L 133.002557 300.293914 
L 133.900916 300.224324 
L 134.799275 299.822235 
L 135.697633 299.84239 
L 140.189427 300.647186 
L 141.087786 300.390303 
L 141.986145 300.540788 
L 142.884504 300.443457 
L 145.57958 300.813741 
L 153.664809 300.600288 
L 155.461527 299.948238 
L 157.258244 299.841851 
L 160.851679 300.501863 
L 161.750038 300.297792 
L 162.648397 300.452901 
L 163.546755 300.440949 
L 164.445114 300.588901 
L 165.343473 300.194575 
L 166.241832 300.178231 
L 168.038549 300.492352 
L 168.936908 300.500719 
L 169.835267 300.317406 
L 170.733626 300.471535 
L 171.631984 300.199047 
L 172.530343 300.227852 
L 173.428702 300.386459 
L 174.327061 300.218883 
L 175.22542 300.348262 
L 177.022137 300.184621 
L 178.818855 299.650293 
L 180.615572 300.015888 
L 181.513931 300.013106 
L 182.41229 299.413258 
L 186.005725 300.107923 
L 187.802442 300.428899 
L 189.59916 300.082046 
L 193.192595 300.651665 
L 196.78603 301.161461 
L 197.684389 301.02224 
L 201.277824 301.424801 
L 205.769618 301.857988 
L 209.363053 301.937238 
L 210.261412 302.010375 
L 211.159771 301.916922 
L 218.346641 302.136889 
L 219.245 301.942021 
L 224.635152 302.269933 
L 226.43187 302.318409 
L 227.330228 302.372487 
L 228.228587 302.167172 
L 229.126946 302.228812 
L 230.923664 302.14727 
L 238.110534 302.234268 
L 242.602328 302.479109 
L 243.500686 302.203501 
L 247.99248 302.427437 
L 248.890839 301.837401 
L 253.382633 301.318421 
L 254.280992 301.422499 
L 255.179351 301.408867 
L 257.874427 301.69285 
L 258.772786 301.584011 
L 259.671144 301.674809 
L 260.569503 301.582732 
L 261.467862 301.673595 
L 263.26458 301.358933 
L 264.162938 301.460985 
L 265.959656 301.302752 
L 266.858015 300.698288 
L 267.756373 300.629718 
L 270.45145 300.936152 
L 271.349808 300.838853 
L 273.146526 300.963398 
L 274.044885 301.026459 
L 276.739961 300.946362 
L 279.435037 301.21064 
L 281.231755 301.416411 
L 282.130114 301.326605 
L 284.82519 301.530136 
L 287.520266 301.730172 
L 290.215343 301.529284 
L 293.808778 301.876287 
L 295.605495 301.423773 
L 297.402213 301.616454 
L 298.300572 301.53051 
L 300.995648 301.699963 
L 301.894007 301.596874 
L 302.792366 301.332226 
L 303.690724 301.435614 
L 304.589083 301.201899 
L 309.080877 301.699148 
L 310.877595 301.35037 
L 311.775953 301.452851 
L 312.674312 301.188373 
L 316.267747 301.598613 
L 318.064465 301.693629 
L 320.759541 301.852791 
L 321.6579 301.766501 
L 322.556259 301.395267 
L 323.454617 301.448745 
L 324.352976 301.285838 
L 325.251335 301.391545 
L 327.048053 300.541519 
L 329.743129 300.949208 
L 330.641488 300.680112 
L 336.03164 301.389556 
L 336.929999 301.298856 
L 337.828358 301.403912 
L 338.726717 301.312208 
L 344.116869 301.846118 
L 348.608663 301.99977 
L 349.507022 301.740867 
L 353.100457 302.026421 
L 353.998816 301.662681 
L 354.897175 301.749546 
L 356.693892 301.321935 
L 357.592251 301.233523 
L 358.49061 301.341846 
L 359.388968 301.277085 
L 362.982404 301.638608 
L 365.67748 301.849233 
L 366.575839 301.613834 
L 370.169274 301.640574 
L 374.661068 301.976534 
L 376.457785 301.485823 
L 377.356144 301.536208 
L 378.254503 301.287166 
L 381.847938 301.679081 
L 382.746297 301.633635 
L 384.543014 301.801052 
L 385.441373 301.626242 
L 390.831526 302.047446 
L 394.424961 302.298334 
L 396.221678 302.098986 
L 398.916755 302.191882 
L 399.815113 302.121696 
L 400.713472 302.18561 
L 401.611831 302.001383 
L 403.408548 302.047585 
L 407.001983 302.213525 
L 407.900342 302.272848 
L 408.798701 302.00182 
L 412.392136 302.179417 
L 414.188854 301.939917 
L 415.087212 301.763568 
L 415.985571 301.845389 
L 416.88393 301.520703 
L 417.782289 301.614667 
L 420.477365 301.51708 
L 424.0708 301.838185 
L 424.969159 301.815989 
L 425.867518 301.580692 
L 431.25767 302.039775 
L 432.156029 301.736313 
L 438.444541 302.23818 
L 439.342899 302.149794 
L 440.241258 302.212304 
L 441.139617 301.993256 
L 442.037976 302.063592 
L 442.936334 301.508931 
L 445.631411 301.778643 
L 447.428128 301.297813 
L 451.919922 301.715768 
L 453.71664 301.87998 
L 454.614999 301.639973 
L 455.513357 301.661806 
L 456.411716 301.538199 
L 458.208434 301.719723 
L 459.106792 301.53988 
L 460.005151 301.632885 
L 460.005151 301.632885 
" clip-path="url(#pe567814d4b)" style="fill: none; stroke: #ff0000; stroke-width: 5; stroke-linecap: square"/>
   </g>
   <g id="line2d_11">
    <path d="M 102.458359 296.111508 
L 103.356718 294.728972 
L 104.255076 295.162523 
L 106.051794 294.442594 
L 108.74687 295.720142 
L 109.645229 296.104134 
L 110.543588 295.492122 
L 111.441947 295.342967 
L 114.137023 296.480863 
L 115.035382 296.104102 
L 117.730458 297.144677 
L 118.628817 295.391571 
L 119.527176 294.738188 
L 121.323893 295.582713 
L 122.222252 295.207908 
L 123.120611 294.410863 
L 125.815687 295.692937 
L 126.714046 295.492104 
L 128.510763 296.263122 
L 129.409122 295.865491 
L 130.307481 295.799464 
L 132.104198 296.540515 
L 133.002557 296.693473 
L 133.900916 296.595876 
L 134.799275 296.936081 
L 135.697633 296.318089 
L 138.39271 297.328144 
L 139.291069 297.404031 
L 141.087786 297.286447 
L 142.884504 297.882517 
L 143.782862 297.33441 
L 145.57958 297.826007 
L 147.376298 298.36947 
L 148.274656 297.957754 
L 149.173015 298.229865 
L 150.071374 297.562188 
L 151.868091 298.131373 
L 152.76645 298.017156 
L 153.664809 298.286297 
L 154.563168 298.348686 
L 157.258244 299.069128 
L 158.156603 298.279206 
L 159.054962 298.237399 
L 159.95332 298.375224 
L 160.851679 298.355154 
L 161.750038 297.814085 
L 162.648397 296.752198 
L 163.546755 297.084587 
L 164.445114 297.223062 
L 165.343473 296.706697 
L 166.241832 296.462546 
L 168.038549 297.138947 
L 168.936908 296.216446 
L 169.835267 296.575623 
L 170.733626 296.262023 
L 171.631984 296.618921 
L 172.530343 296.794662 
L 173.428702 297.124928 
L 174.327061 297.077958 
L 175.22542 295.435195 
L 177.022137 296.211763 
L 177.920496 296.401809 
L 179.717213 297.007256 
L 180.615572 297.326893 
L 181.513931 297.126145 
L 182.41229 297.084938 
L 186.005725 298.25634 
L 186.904084 298.513522 
L 187.802442 298.21028 
L 190.497519 298.950462 
L 193.192595 265.384641 
L 194.989313 242.204071 
L 196.78603 220.501066 
L 198.582748 203.021454 
L 201.277824 181.678359 
L 203.074542 170.443976 
L 203.9729 164.165692 
L 204.871259 160.586449 
L 205.769618 155.698421 
L 206.667977 148.474824 
L 207.566335 143.006135 
L 209.363053 136.27229 
L 210.261412 131.136864 
L 211.159771 127.234507 
L 212.058129 123.986618 
L 212.956488 118.321325 
L 215.651564 107.514697 
L 216.549923 105.232982 
L 217.448282 103.656394 
L 218.346641 101.801639 
L 219.245 99.505169 
L 220.143358 97.602785 
L 221.940076 95.351868 
L 222.838435 93.107042 
L 223.736793 91.33747 
L 224.635152 90.342225 
L 225.533511 86.523763 
L 228.228587 78.416751 
L 229.126946 78.216345 
L 230.025305 75.772187 
L 230.923664 75.301083 
L 231.822022 74.061772 
L 232.720381 73.569141 
L 233.61874 74.038048 
L 234.517099 74.711028 
L 235.415457 72.748443 
L 236.313816 71.889524 
L 239.008893 70.590359 
L 239.907251 70.937665 
L 241.703969 69.48236 
L 243.500686 65.95479 
L 244.399045 63.898689 
L 245.297404 64.872302 
L 246.195763 63.730505 
L 247.094122 63.284215 
L 247.99248 62.159355 
L 248.890839 61.604901 
L 249.789198 61.871599 
L 250.687557 60.787217 
L 251.585915 58.748538 
L 252.484274 57.120292 
L 254.280992 58.365768 
L 255.179351 57.004235 
L 256.077709 56.595863 
L 256.976068 55.817067 
L 257.874427 54.871541 
L 258.772786 52.964931 
L 259.671144 53.564787 
L 260.569503 52.820637 
L 262.366221 54.484574 
L 263.26458 55.834503 
L 265.061297 56.347252 
L 265.959656 57.837416 
L 266.858015 57.472234 
L 267.756373 58.36651 
L 268.654732 57.431528 
L 269.553091 57.535253 
L 270.45145 59.308249 
L 271.349808 58.493232 
L 272.248167 58.123263 
L 273.146526 58.413896 
L 274.044885 57.869456 
L 274.943244 58.552813 
L 275.841602 58.022431 
L 276.739961 57.757671 
L 277.63832 58.311413 
L 278.536679 59.719484 
L 280.333396 56.604801 
L 282.130114 80.470094 
L 283.926831 102.205769 
L 285.723549 121.233042 
L 287.520266 138.994326 
L 289.316984 155.023881 
L 290.215343 162.442688 
L 291.113702 168.259457 
L 292.910419 181.290112 
L 295.605495 198.13888 
L 297.402213 208.40184 
L 299.19893 217.441789 
L 300.995648 225.822719 
L 302.792366 233.386502 
L 303.690724 236.031521 
L 304.589083 239.399943 
L 306.385801 244.39832 
L 307.284159 246.139559 
L 308.182518 249.00258 
L 309.080877 251.098617 
L 310.877595 256.198 
L 312.674312 260.800196 
L 313.572671 261.503769 
L 316.267747 266.69719 
L 318.064465 269.919541 
L 321.6579 276.051269 
L 322.556259 276.72041 
L 325.251335 280.525584 
L 326.149694 281.15356 
L 328.84477 284.326458 
L 330.641488 286.186127 
L 333.336564 287.690833 
L 335.133281 288.614071 
L 337.828358 290.722913 
L 339.625075 291.903848 
L 340.523434 292.478655 
L 341.421793 292.858155 
L 344.116869 294.361683 
L 345.015228 294.347484 
L 345.913587 294.800109 
L 346.811946 294.412198 
L 349.507022 295.475753 
L 353.100457 296.945649 
L 353.998816 297.268366 
L 354.897175 297.19154 
L 355.795533 297.280109 
L 357.592251 297.202415 
L 360.287327 298.086344 
L 361.185686 297.863419 
L 362.982404 297.746056 
L 365.67748 298.552448 
L 366.575839 295.896185 
L 367.474197 296.167206 
L 368.372556 296.251946 
L 369.270915 296.609111 
L 370.169274 296.702684 
L 371.067632 297.037549 
L 371.965991 296.670498 
L 374.661068 297.630291 
L 375.559426 297.715924 
L 376.457785 298.000127 
L 377.356144 296.688027 
L 378.254503 296.860156 
L 379.152861 296.279275 
L 380.05122 296.635311 
L 380.949579 296.521991 
L 383.644655 297.502965 
L 384.543014 297.543169 
L 388.136449 298.629572 
L 389.034808 298.868093 
L 389.933167 297.571062 
L 390.831526 297.118356 
L 393.526602 298.014274 
L 394.424961 297.641389 
L 395.323319 297.929319 
L 397.120037 297.006303 
L 398.916755 296.886901 
L 399.815113 296.298629 
L 401.611831 296.991011 
L 402.51019 296.67479 
L 403.408548 297.01105 
L 404.306907 296.570135 
L 406.103625 297.236046 
L 407.900342 297.360006 
L 410.595419 298.221458 
L 411.493777 297.719366 
L 412.392136 296.894332 
L 413.290495 297.219614 
L 414.188854 296.94943 
L 415.087212 297.271958 
L 415.985571 295.982784 
L 416.88393 296.353644 
L 418.680648 295.576802 
L 419.579006 295.967961 
L 420.477365 295.699628 
L 422.274083 295.878402 
L 423.172441 295.004649 
L 424.0708 294.636095 
L 426.765877 295.876757 
L 427.664235 296.064942 
L 429.460953 296.780109 
L 430.359312 295.829013 
L 433.054388 296.884613 
L 433.952747 295.822703 
L 434.851106 295.837408 
L 438.444541 297.240219 
L 439.342899 297.32717 
L 440.241258 296.275505 
L 441.139617 296.471868 
L 444.733052 297.75699 
L 447.428128 298.541005 
L 448.326487 297.629456 
L 451.021563 298.452477 
L 451.919922 297.463472 
L 452.818281 297.760298 
L 453.71664 297.714165 
L 455.513357 298.268533 
L 456.411716 297.214949 
L 457.310075 297.236768 
L 458.208434 296.599684 
L 459.106792 296.939699 
L 460.005151 296.494076 
L 460.005151 296.494076 
" clip-path="url(#pe567814d4b)" style="fill: none; stroke: #0000ff; stroke-width: 5; stroke-linecap: square"/>
   </g>
   <g id="patch_3">
    <path d="M 101.56 322.75952 
L 101.56 31.720156 
" style="fill: none; stroke: #000000; stroke-width: 5; stroke-linejoin: miter; stroke-linecap: square"/>
   </g>
   <g id="patch_4">
    <path d="M 101.56 322.75952 
L 460.90351 322.75952 
" style="fill: none; stroke: #000000; stroke-width: 5; stroke-linejoin: miter; stroke-linecap: square"/>
   </g>
   <g id="patch_5">
    <path d="M 191.395877 316.938733 
L 281.231755 316.938733 
L 281.231755 306.752355 
L 191.395877 306.752355 
z
" style="fill: #8c5a2b; stroke: #8c5a2b; stroke-linejoin: miter"/>
   </g>
   <g id="text_11">
    <!-- Novel | Naive -->
    <g transform="translate(217.929099 21.720156) scale(0.19 -0.19)">
     <defs>
      <path id="DejaVuSans-6f" d="M 1959 3097 
Q 1497 3097 1228 2736 
Q 959 2375 959 1747 
Q 959 1119 1226 758 
Q 1494 397 1959 397 
Q 2419 397 2687 759 
Q 2956 1122 2956 1747 
Q 2956 2369 2687 2733 
Q 2419 3097 1959 3097 
z
M 1959 3584 
Q 2709 3584 3137 3096 
Q 3566 2609 3566 1747 
Q 3566 888 3137 398 
Q 2709 -91 1959 -91 
Q 1206 -91 779 398 
Q 353 888 353 1747 
Q 353 2609 779 3096 
Q 1206 3584 1959 3584 
z
" transform="scale(0.015625)"/>
      <path id="DejaVuSans-7c" d="M 1344 4891 
L 1344 -1509 
L 813 -1509 
L 813 4891 
L 1344 4891 
z
" transform="scale(0.015625)"/>
     </defs>
     <use xlink:href="#DejaVuSans-4e"/>
     <use xlink:href="#DejaVuSans-6f" transform="translate(74.804688 0)"/>
     <use xlink:href="#DejaVuSans-76" transform="translate(135.986328 0)"/>
     <use xlink:href="#DejaVuSans-65" transform="translate(195.166016 0)"/>
     <use xlink:href="#DejaVuSans-6c" transform="translate(256.689453 0)"/>
     <use xlink:href="#DejaVuSans-20" transform="translate(284.472656 0)"/>
     <use xlink:href="#DejaVuSans-7c" transform="translate(316.259766 0)"/>
     <use xlink:href="#DejaVuSans-20" transform="translate(349.951172 0)"/>
     <use xlink:href="#DejaVuSans-4e" transform="translate(381.738281 0)"/>
     <use xlink:href="#DejaVuSans-61" transform="translate(456.542969 0)"/>
     <use xlink:href="#DejaVuSans-69" transform="translate(517.822266 0)"/>
     <use xlink:href="#DejaVuSans-76" transform="translate(545.605469 0)"/>
     <use xlink:href="#DejaVuSans-65" transform="translate(604.785156 0)"/>
    </g>
   </g>
   <g id="legend_1">
    <g id="line2d_12">
     <path d="M 110.56 46.867812 
L 125.56 46.867812 
L 140.56 46.867812 
" style="fill: none; stroke: #000000; stroke-width: 5; stroke-linecap: square"/>
    </g>
    <g id="text_12">
     <!-- Nonoccluded (NO) -->
     <g transform="translate(152.56 52.117812) scale(0.15 -0.15)">
      <defs>
       <path id="DejaVuSans-6e" d="M 3513 2113 
L 3513 0 
L 2938 0 
L 2938 2094 
Q 2938 2591 2744 2837 
Q 2550 3084 2163 3084 
Q 1697 3084 1428 2787 
Q 1159 2491 1159 1978 
L 1159 0 
L 581 0 
L 581 3500 
L 1159 3500 
L 1159 2956 
Q 1366 3272 1645 3428 
Q 1925 3584 2291 3584 
Q 2894 3584 3203 3211 
Q 3513 2838 3513 2113 
z
" transform="scale(0.015625)"/>
       <path id="DejaVuSans-64" d="M 2906 2969 
L 2906 4863 
L 3481 4863 
L 3481 0 
L 2906 0 
L 2906 525 
Q 2725 213 2448 61 
Q 2172 -91 1784 -91 
Q 1150 -91 751 415 
Q 353 922 353 1747 
Q 353 2572 751 3078 
Q 1150 3584 1784 3584 
Q 2172 3584 2448 3432 
Q 2725 3281 2906 2969 
z
M 947 1747 
Q 947 1113 1208 752 
Q 1469 391 1925 391 
Q 2381 391 2643 752 
Q 2906 1113 2906 1747 
Q 2906 2381 2643 2742 
Q 2381 3103 1925 3103 
Q 1469 3103 1208 2742 
Q 947 2381 947 1747 
z
" transform="scale(0.015625)"/>
       <path id="DejaVuSans-4f" d="M 2522 4238 
Q 1834 4238 1429 3725 
Q 1025 3213 1025 2328 
Q 1025 1447 1429 934 
Q 1834 422 2522 422 
Q 3209 422 3611 934 
Q 4013 1447 4013 2328 
Q 4013 3213 3611 3725 
Q 3209 4238 2522 4238 
z
M 2522 4750 
Q 3503 4750 4090 4092 
Q 4678 3434 4678 2328 
Q 4678 1225 4090 567 
Q 3503 -91 2522 -91 
Q 1538 -91 948 565 
Q 359 1222 359 2328 
Q 359 3434 948 4092 
Q 1538 4750 2522 4750 
z
" transform="scale(0.015625)"/>
      </defs>
      <use xlink:href="#DejaVuSans-4e"/>
      <use xlink:href="#DejaVuSans-6f" transform="translate(74.804688 0)"/>
      <use xlink:href="#DejaVuSans-6e" transform="translate(135.986328 0)"/>
      <use xlink:href="#DejaVuSans-6f" transform="translate(199.365234 0)"/>
      <use xlink:href="#DejaVuSans-63" transform="translate(260.546875 0)"/>
      <use xlink:href="#DejaVuSans-63" transform="translate(315.527344 0)"/>
      <use xlink:href="#DejaVuSans-6c" transform="translate(370.507812 0)"/>
      <use xlink:href="#DejaVuSans-75" transform="translate(398.291016 0)"/>
      <use xlink:href="#DejaVuSans-64" transform="translate(461.669922 0)"/>
      <use xlink:href="#DejaVuSans-65" transform="translate(525.146484 0)"/>
      <use xlink:href="#DejaVuSans-64" transform="translate(586.669922 0)"/>
      <use xlink:href="#DejaVuSans-20" transform="translate(650.146484 0)"/>
      <use xlink:href="#DejaVuSans-28" transform="translate(681.933594 0)"/>
      <use xlink:href="#DejaVuSans-4e" transform="translate(720.947266 0)"/>
      <use xlink:href="#DejaVuSans-4f" transform="translate(795.751953 0)"/>
      <use xlink:href="#DejaVuSans-29" transform="translate(874.462891 0)"/>
     </g>
    </g>
    <g id="line2d_13">
     <path d="M 110.56 68.885 
L 125.56 68.885 
L 140.56 68.885 
" style="fill: none; stroke: #ff0000; stroke-width: 5; stroke-linecap: square"/>
    </g>
    <g id="text_13">
     <!-- Occluded (O) -->
     <g transform="translate(152.56 74.135) scale(0.15 -0.15)">
      <use xlink:href="#DejaVuSans-4f"/>
      <use xlink:href="#DejaVuSans-63" transform="translate(78.710938 0)"/>
      <use xlink:href="#DejaVuSans-63" transform="translate(133.691406 0)"/>
      <use xlink:href="#DejaVuSans-6c" transform="translate(188.671875 0)"/>
      <use xlink:href="#DejaVuSans-75" transform="translate(216.455078 0)"/>
      <use xlink:href="#DejaVuSans-64" transform="translate(279.833984 0)"/>
      <use xlink:href="#DejaVuSans-65" transform="translate(343.310547 0)"/>
      <use xlink:href="#DejaVuSans-64" transform="translate(404.833984 0)"/>
      <use xlink:href="#DejaVuSans-20" transform="translate(468.310547 0)"/>
      <use xlink:href="#DejaVuSans-28" transform="translate(500.097656 0)"/>
      <use xlink:href="#DejaVuSans-4f" transform="translate(539.111328 0)"/>
      <use xlink:href="#DejaVuSans-29" transform="translate(617.822266 0)"/>
     </g>
    </g>
    <g id="line2d_14">
     <path d="M 110.56 90.902187 
L 125.56 90.902187 
L 140.56 90.902187 
" style="fill: none; stroke: #0000ff; stroke-width: 5; stroke-linecap: square"/>
    </g>
    <g id="text_14">
     <!-- No feedback -->
     <g transform="translate(152.56 96.152187) scale(0.15 -0.15)">
      <defs>
       <path id="DejaVuSans-66" d="M 2375 4863 
L 2375 4384 
L 1825 4384 
Q 1516 4384 1395 4259 
Q 1275 4134 1275 3809 
L 1275 3500 
L 2222 3500 
L 2222 3053 
L 1275 3053 
L 1275 0 
L 697 0 
L 697 3053 
L 147 3053 
L 147 3500 
L 697 3500 
L 697 3744 
Q 697 4328 969 4595 
Q 1241 4863 1831 4863 
L 2375 4863 
z
" transform="scale(0.015625)"/>
       <path id="DejaVuSans-62" d="M 3116 1747 
Q 3116 2381 2855 2742 
Q 2594 3103 2138 3103 
Q 1681 3103 1420 2742 
Q 1159 2381 1159 1747 
Q 1159 1113 1420 752 
Q 1681 391 2138 391 
Q 2594 391 2855 752 
Q 3116 1113 3116 1747 
z
M 1159 2969 
Q 1341 3281 1617 3432 
Q 1894 3584 2278 3584 
Q 2916 3584 3314 3078 
Q 3713 2572 3713 1747 
Q 3713 922 3314 415 
Q 2916 -91 2278 -91 
Q 1894 -91 1617 61 
Q 1341 213 1159 525 
L 1159 0 
L 581 0 
L 581 4863 
L 1159 4863 
L 1159 2969 
z
" transform="scale(0.015625)"/>
       <path id="DejaVuSans-6b" d="M 581 4863 
L 1159 4863 
L 1159 1991 
L 2875 3500 
L 3609 3500 
L 1753 1863 
L 3688 0 
L 2938 0 
L 1159 1709 
L 1159 0 
L 581 0 
L 581 4863 
z
" transform="scale(0.015625)"/>
      </defs>
      <use xlink:href="#DejaVuSans-4e"/>
      <use xlink:href="#DejaVuSans-6f" transform="translate(74.804688 0)"/>
      <use xlink:href="#DejaVuSans-20" transform="translate(135.986328 0)"/>
      <use xlink:href="#DejaVuSans-66" transform="translate(167.773438 0)"/>
      <use xlink:href="#DejaVuSans-65" transform="translate(202.978516 0)"/>
      <use xlink:href="#DejaVuSans-65" transform="translate(264.501953 0)"/>
      <use xlink:href="#DejaVuSans-64" transform="translate(326.025391 0)"/>
      <use xlink:href="#DejaVuSans-62" transform="translate(389.501953 0)"/>
      <use xlink:href="#DejaVuSans-61" transform="translate(452.978516 0)"/>
      <use xlink:href="#DejaVuSans-63" transform="translate(514.257812 0)"/>
      <use xlink:href="#DejaVuSans-6b" transform="translate(569.238281 0)"/>
     </g>
    </g>
   </g>
  </g>
  <g id="axes_2">
   <g id="patch_6">
    <path d="M 495.67601 322.75952 
L 855.01952 322.75952 
L 855.01952 31.720156 
L 495.67601 31.720156 
z
" style="fill: #ffffff"/>
   </g>
   <g id="matplotlib.axis_3">
    <g id="xtick_6">
     <g id="line2d_15">
      <g>
       <use xlink:href="#md52c3989ce" x="495.67601" y="322.75952" style="stroke: #000000; stroke-width: 1.6"/>
      </g>
     </g>
     <g id="text_15">
      <!-- -1 -->
      <g transform="translate(479.72351 355.57452) scale(0.32 -0.32)">
       <use xlink:href="#DejaVuSans-2d"/>
       <use xlink:href="#DejaVuSans-31" transform="translate(36.083984 0)"/>
      </g>
     </g>
    </g>
    <g id="xtick_7">
     <g id="line2d_16">
      <g>
       <use xlink:href="#md52c3989ce" x="585.511887" y="322.75952" style="stroke: #000000; stroke-width: 1.6"/>
      </g>
     </g>
     <g id="text_16">
      <!-- 0 -->
      <g transform="translate(575.331887 355.57452) scale(0.32 -0.32)">
       <use xlink:href="#DejaVuSans-30"/>
      </g>
     </g>
    </g>
    <g id="xtick_8">
     <g id="line2d_17">
      <g>
       <use xlink:href="#md52c3989ce" x="675.347765" y="322.75952" style="stroke: #000000; stroke-width: 1.6"/>
      </g>
     </g>
     <g id="text_17">
      <!-- 1 -->
      <g transform="translate(665.167765 355.57452) scale(0.32 -0.32)">
       <use xlink:href="#DejaVuSans-31"/>
      </g>
     </g>
    </g>
    <g id="xtick_9">
     <g id="line2d_18">
      <g>
       <use xlink:href="#md52c3989ce" x="765.183642" y="322.75952" style="stroke: #000000; stroke-width: 1.6"/>
      </g>
     </g>
     <g id="text_18">
      <!-- 2 -->
      <g transform="translate(755.003642 355.57452) scale(0.32 -0.32)">
       <use xlink:href="#DejaVuSans-32"/>
      </g>
     </g>
    </g>
    <g id="xtick_10">
     <g id="line2d_19">
      <g>
       <use xlink:href="#md52c3989ce" x="855.01952" y="322.75952" style="stroke: #000000; stroke-width: 1.6"/>
      </g>
     </g>
     <g id="text_19">
      <!-- 3 -->
      <g transform="translate(844.83952 355.57452) scale(0.32 -0.32)">
       <use xlink:href="#DejaVuSans-33"/>
      </g>
     </g>
    </g>
    <g id="text_20">
     <!-- Time (s) -->
     <g transform="translate(610.295265 390.54452) scale(0.32 -0.32)">
      <use xlink:href="#DejaVuSans-54"/>
      <use xlink:href="#DejaVuSans-69" transform="translate(57.958984 0)"/>
      <use xlink:href="#DejaVuSans-6d" transform="translate(85.742188 0)"/>
      <use xlink:href="#DejaVuSans-65" transform="translate(183.154297 0)"/>
      <use xlink:href="#DejaVuSans-20" transform="translate(244.677734 0)"/>
      <use xlink:href="#DejaVuSans-28" transform="translate(276.464844 0)"/>
      <use xlink:href="#DejaVuSans-73" transform="translate(315.478516 0)"/>
      <use xlink:href="#DejaVuSans-29" transform="translate(367.578125 0)"/>
     </g>
    </g>
   </g>
   <g id="matplotlib.axis_4">
    <g id="ytick_4">
     <g id="line2d_20">
      <g>
       <use xlink:href="#m3ebfe07585" x="495.67601" y="303.399984" style="stroke: #000000; stroke-width: 1.6"/>
      </g>
     </g>
    </g>
    <g id="ytick_5">
     <g id="line2d_21">
      <g>
       <use xlink:href="#m3ebfe07585" x="495.67601" y="201.736645" style="stroke: #000000; stroke-width: 1.6"/>
      </g>
     </g>
    </g>
    <g id="ytick_6">
     <g id="line2d_22">
      <g>
       <use xlink:href="#m3ebfe07585" x="495.67601" y="100.073305" style="stroke: #000000; stroke-width: 1.6"/>
      </g>
     </g>
    </g>
   </g>
   <g id="line2d_23">
    <path d="M 496.574369 294.607181 
L 497.472728 292.245815 
L 498.371086 292.803524 
L 499.269445 291.589858 
L 500.167804 291.389812 
L 502.86288 293.102763 
L 503.761239 293.617624 
L 504.659598 293.263795 
L 505.557957 293.302859 
L 508.253033 294.742962 
L 509.151392 294.885032 
L 510.04975 294.879004 
L 511.846468 295.7098 
L 512.744827 293.34118 
L 513.643185 293.451167 
L 515.439903 294.421176 
L 516.338262 294.211897 
L 517.236621 292.897525 
L 519.931697 294.395438 
L 520.830056 293.51078 
L 522.626773 294.474977 
L 523.525132 293.725215 
L 525.32185 294.58665 
L 526.220208 294.277282 
L 527.118567 294.733417 
L 528.016926 294.362802 
L 528.915285 294.814661 
L 529.813643 294.671098 
L 532.50872 295.916056 
L 533.407079 295.778876 
L 534.305437 295.754321 
L 537.000514 296.774417 
L 537.898872 295.901067 
L 541.492308 297.29207 
L 542.390666 296.173945 
L 543.289025 296.402154 
L 544.187384 296.315936 
L 545.984101 297.006631 
L 546.88246 296.565476 
L 547.780819 296.907202 
L 548.679178 296.599758 
L 551.374254 297.56964 
L 552.272613 296.866329 
L 554.06933 297.418378 
L 554.967689 297.717458 
L 555.866048 297.063293 
L 556.764407 295.630695 
L 558.561124 296.388201 
L 559.459483 295.408709 
L 562.154559 296.524923 
L 563.052918 295.767561 
L 563.951277 296.149182 
L 564.849636 295.155164 
L 565.747994 295.567406 
L 566.646353 295.368406 
L 568.443071 296.135049 
L 569.34143 293.886701 
L 571.138147 294.814246 
L 572.036506 294.259315 
L 574.731582 295.563003 
L 575.629941 295.187015 
L 579.223376 296.71047 
L 580.121735 297.044946 
L 581.020094 297.07978 
L 581.918452 296.532485 
L 584.613529 297.492359 
L 585.511887 287.110758 
L 586.410246 274.455316 
L 588.206964 251.995283 
L 589.105323 240.076513 
L 591.800399 209.02067 
L 593.597116 191.403089 
L 595.393834 176.872825 
L 596.292193 171.012836 
L 597.190552 166.169241 
L 598.08891 159.76722 
L 598.987269 156.647613 
L 599.885628 152.102666 
L 600.783987 145.003911 
L 601.682345 139.893239 
L 602.580704 137.060236 
L 603.479063 133.573977 
L 604.377422 128.320177 
L 606.174139 120.059675 
L 607.072498 114.8527 
L 607.970857 111.020786 
L 608.869216 107.775184 
L 609.767574 103.375485 
L 610.665933 100.851326 
L 611.564292 100.467389 
L 612.462651 99.224291 
L 613.36101 95.95742 
L 614.259368 95.174564 
L 616.056086 94.211481 
L 616.954445 91.063651 
L 617.852803 89.356463 
L 618.751162 89.630493 
L 619.649521 86.899686 
L 620.54788 84.615729 
L 621.446238 80.96377 
L 622.344597 77.840467 
L 623.242956 78.137903 
L 624.141315 75.400748 
L 625.039674 75.2164 
L 625.938032 74.34115 
L 626.836391 74.665869 
L 627.73475 74.531406 
L 628.633109 74.983892 
L 629.531467 72.811947 
L 631.328185 70.565757 
L 632.226544 69.6277 
L 633.124903 69.530973 
L 634.023261 70.186456 
L 635.819979 69.960933 
L 636.718338 68.788914 
L 638.515055 64.38929 
L 639.413414 65.14918 
L 640.311773 64.299578 
L 641.210132 64.496333 
L 642.10849 62.682541 
L 643.006849 62.454246 
L 643.905208 62.863451 
L 644.803567 60.992971 
L 645.701925 58.610652 
L 646.600284 57.388853 
L 647.498643 58.499261 
L 648.397002 58.572764 
L 649.295361 56.661776 
L 650.193719 55.708797 
L 651.092078 55.264946 
L 651.990437 54.071355 
L 652.888796 52.034857 
L 653.787154 52.404584 
L 654.685513 51.791837 
L 655.583872 53.721412 
L 656.482231 54.911368 
L 657.380589 56.480109 
L 659.177307 58.180647 
L 660.075666 60.309099 
L 660.974025 58.720316 
L 661.872383 59.51823 
L 662.770742 57.088039 
L 663.669101 57.641887 
L 664.56746 59.425639 
L 665.465818 58.559176 
L 666.364177 58.183965 
L 667.262536 58.551798 
L 668.160895 57.351996 
L 669.059254 58.879047 
L 669.957612 58.178269 
L 670.855971 58.034565 
L 671.75433 58.218005 
L 672.652689 59.663615 
L 673.551047 57.798877 
L 674.449406 56.507514 
L 676.246124 80.323058 
L 678.042841 102.073064 
L 678.9412 112.13942 
L 679.839559 120.27776 
L 681.636276 138.132181 
L 683.432994 154.245797 
L 684.331353 161.703507 
L 685.229712 166.651283 
L 687.026429 179.484645 
L 688.823147 191.566388 
L 692.416582 211.956701 
L 694.213299 220.280026 
L 696.010017 228.384221 
L 696.908376 232.135012 
L 697.806734 234.576117 
L 698.705093 238.017315 
L 699.603452 240.104834 
L 700.501811 241.762868 
L 701.400169 243.662229 
L 703.196887 249.486663 
L 704.993605 254.743213 
L 706.790322 259.487249 
L 707.688681 260.14455 
L 708.58704 262.307322 
L 709.485398 264.072334 
L 710.383757 265.549515 
L 711.282116 267.365337 
L 712.180475 268.855997 
L 713.977192 272.224036 
L 715.77391 275.263692 
L 717.570627 278.006982 
L 719.367345 280.482802 
L 720.265704 281.296556 
L 722.96078 284.449057 
L 724.757498 286.296773 
L 725.655856 286.431497 
L 726.554215 287.279922 
L 727.452574 287.308324 
L 728.350933 287.99743 
L 729.249291 288.390774 
L 731.944368 290.531463 
L 732.842727 290.767675 
L 733.741085 290.717917 
L 735.537803 291.954419 
L 736.436162 292.089867 
L 739.131238 293.688912 
L 740.029597 294.174465 
L 740.927956 293.312378 
L 741.826314 293.62984 
L 744.521391 295.023307 
L 748.114826 296.577129 
L 749.013185 296.918272 
L 749.911543 296.907534 
L 750.809902 297.068857 
L 751.708261 296.224894 
L 754.403337 297.248242 
L 755.301696 295.857652 
L 756.200055 296.146812 
L 757.098414 295.600392 
L 757.996772 295.990371 
L 758.895131 296.119758 
L 759.79349 296.48377 
L 760.691849 294.068726 
L 761.590207 293.728623 
L 763.386925 294.547401 
L 766.98036 296.185308 
L 768.777078 296.888739 
L 769.675436 297.038279 
L 770.573795 297.356364 
L 771.472154 295.508825 
L 772.370513 295.903383 
L 773.268871 295.525874 
L 774.16723 295.91958 
L 775.065589 295.832918 
L 777.760665 296.912171 
L 778.659024 296.174037 
L 779.557383 296.102754 
L 782.252459 297.12302 
L 783.150818 297.436869 
L 784.049177 295.691036 
L 784.947536 295.543885 
L 787.642612 296.663246 
L 788.540971 295.125833 
L 789.439329 295.539541 
L 790.337688 293.632223 
L 791.236047 294.050341 
L 792.134406 294.305686 
L 793.032765 294.091936 
L 793.931123 293.434626 
L 795.727841 294.406249 
L 796.6262 294.141385 
L 797.524558 294.604315 
L 798.422917 292.995608 
L 799.321276 293.515828 
L 800.219635 293.673724 
L 801.117993 294.160037 
L 802.016352 293.997326 
L 803.81307 294.914085 
L 804.711429 295.168106 
L 805.609787 294.531603 
L 806.508146 293.547349 
L 807.406505 293.935823 
L 808.304864 294.004741 
L 809.203222 294.474504 
L 810.101581 293.508057 
L 810.99994 294.002654 
L 811.898299 293.567524 
L 812.796658 293.907762 
L 813.695016 294.382373 
L 815.491734 293.525431 
L 816.390093 294.019158 
L 817.288451 293.401007 
L 818.18681 292.528693 
L 819.085169 292.51689 
L 820.881887 293.577992 
L 821.780245 293.150102 
L 823.576963 294.149466 
L 824.475322 292.746643 
L 825.37368 293.27931 
L 826.272039 293.494878 
L 827.170398 293.990134 
L 828.068757 292.813145 
L 829.865474 293.721981 
L 832.560551 295.102307 
L 833.458909 295.51719 
L 834.357268 294.40236 
L 835.255627 294.124811 
L 837.950703 295.447683 
L 839.747421 296.223033 
L 840.64578 296.112986 
L 841.544138 296.477336 
L 842.442497 295.488359 
L 843.340856 295.694087 
L 844.239215 295.513063 
L 845.137573 295.907409 
L 846.035932 294.081012 
L 846.934291 294.546961 
L 847.83265 294.077251 
L 849.629367 294.986218 
L 850.527726 293.430641 
L 851.426085 293.775897 
L 852.324444 293.036032 
L 853.222802 293.554229 
L 854.121161 293.620758 
L 854.121161 293.620758 
" clip-path="url(#p63feebd2ed)" style="fill: none; stroke: #000000; stroke-width: 5; stroke-linecap: square"/>
   </g>
   <g id="line2d_24">
    <path d="M 496.574369 301.354113 
L 499.269445 301.645906 
L 500.167804 301.429521 
L 501.066163 301.332833 
L 502.86288 301.465472 
L 503.761239 301.252083 
L 504.659598 301.182593 
L 506.456315 301.398789 
L 507.354674 301.267359 
L 510.04975 301.482531 
L 512.744827 301.756008 
L 513.643185 301.675418 
L 516.338262 301.921385 
L 517.236621 301.760627 
L 519.931697 301.923362 
L 520.830056 301.70419 
L 523.525132 301.823307 
L 526.220208 301.693522 
L 529.813643 301.952531 
L 535.203796 302.278737 
L 536.102155 302.132722 
L 539.69559 302.198937 
L 542.390666 302.277214 
L 544.187384 302.106001 
L 545.085743 301.594404 
L 547.780819 301.851925 
L 549.577536 301.77071 
L 551.374254 301.915737 
L 552.272613 301.346912 
L 553.170972 301.449565 
L 554.06933 301.318604 
L 554.967689 301.422673 
L 555.866048 301.153994 
L 557.662765 301.372978 
L 559.459483 301.465609 
L 561.256201 301.590566 
L 562.154559 301.376593 
L 563.052918 301.385204 
L 563.951277 301.197627 
L 564.849636 301.307745 
L 565.747994 300.720365 
L 566.646353 300.550905 
L 567.544712 300.693359 
L 569.34143 300.744948 
L 572.036506 301.123623 
L 573.833223 300.802647 
L 575.629941 301.055887 
L 576.5283 300.900899 
L 577.426659 301.025853 
L 578.325017 301.008062 
L 579.223376 300.879118 
L 582.816811 301.346723 
L 583.71517 301.332657 
L 585.511887 301.519823 
L 587.308605 301.618049 
L 591.800399 302.021157 
L 592.698758 301.94649 
L 598.987269 302.353238 
L 600.783987 302.131173 
L 603.479063 302.222244 
L 604.377422 302.064926 
L 606.174139 302.131203 
L 607.072498 302.013435 
L 607.970857 301.658989 
L 613.36101 302.120193 
L 614.259368 301.842487 
L 615.157727 301.698707 
L 619.649521 302.049261 
L 620.54788 301.958839 
L 625.039674 302.284854 
L 625.938032 302.185911 
L 633.124903 302.578089 
L 636.718338 302.68784 
L 637.616696 302.419862 
L 639.413414 302.515424 
L 640.311773 302.452896 
L 641.210132 302.206145 
L 643.006849 302.284587 
L 643.905208 301.995652 
L 646.600284 302.195945 
L 647.498643 302.087934 
L 650.193719 302.230864 
L 651.092078 302.136263 
L 655.583872 302.346102 
L 659.177307 302.541591 
L 660.974025 302.269965 
L 667.262536 302.424332 
L 668.160895 302.279648 
L 669.059254 302.310439 
L 669.957612 302.089936 
L 672.652689 302.276782 
L 675.347765 301.993603 
L 681.636276 302.393093 
L 684.331353 302.467797 
L 685.229712 302.42479 
L 686.12807 301.818094 
L 688.823147 301.954726 
L 689.721505 301.886206 
L 690.619864 301.441038 
L 696.010017 301.959979 
L 696.908376 301.740543 
L 697.806734 301.823515 
L 698.705093 301.588032 
L 700.501811 301.501994 
L 702.298528 301.627347 
L 704.993605 301.834804 
L 706.790322 301.987409 
L 707.688681 301.839233 
L 708.58704 301.890962 
L 709.485398 301.679453 
L 710.383757 301.76548 
L 711.282116 301.673063 
L 712.180475 301.295828 
L 713.078834 301.401036 
L 714.875551 301.385689 
L 716.672269 301.578617 
L 718.468986 301.230532 
L 721.164063 301.53995 
L 722.062421 301.03693 
L 722.96078 300.7311 
L 731.046009 301.653575 
L 732.842727 301.353502 
L 734.639444 301.553034 
L 735.537803 301.456842 
L 740.029597 301.896418 
L 740.927956 301.371523 
L 743.623032 301.660832 
L 744.521391 301.608925 
L 746.318108 301.741919 
L 748.114826 301.538505 
L 749.013185 301.304815 
L 754.403337 301.854649 
L 755.301696 301.762084 
L 756.200055 301.843979 
L 757.098414 301.723087 
L 757.996772 301.806932 
L 759.79349 301.189446 
L 761.590207 301.022501 
L 762.488566 300.777589 
L 763.386925 300.712934 
L 766.98036 301.211365 
L 771.472154 301.280417 
L 772.370513 301.232607 
L 773.268871 301.340976 
L 774.16723 301.284611 
L 775.963948 301.49086 
L 776.862307 301.402089 
L 778.659024 301.518576 
L 779.557383 301.300622 
L 781.3541 301.50531 
L 782.252459 301.381474 
L 784.049177 301.578279 
L 784.947536 301.270639 
L 785.845894 300.774994 
L 789.439329 301.261913 
L 790.337688 301.092822 
L 791.236047 301.092276 
L 794.829482 301.496883 
L 797.524558 301.722073 
L 799.321276 301.885669 
L 801.117993 301.720654 
L 803.81307 301.950221 
L 804.711429 301.898884 
L 805.609787 301.973939 
L 806.508146 301.560444 
L 807.406505 301.652421 
L 809.203222 301.553102 
L 810.101581 301.645446 
L 810.99994 301.482185 
L 811.898299 301.184435 
L 812.796658 301.295212 
L 813.695016 300.886054 
L 814.593375 301.01175 
L 816.390093 300.857785 
L 818.18681 301.027906 
L 819.983528 301.183026 
L 821.780245 301.361751 
L 822.678604 300.901863 
L 823.576963 300.901639 
L 825.37368 301.145227 
L 826.272039 300.781724 
L 827.170398 300.731986 
L 831.662192 301.335538 
L 832.560551 301.310971 
L 834.357268 301.496353 
L 835.255627 301.31681 
L 836.153986 301.342585 
L 837.052344 301.157331 
L 837.950703 301.269463 
L 838.849062 301.231559 
L 842.442497 301.596025 
L 844.239215 301.539844 
L 845.137573 301.632851 
L 846.035932 301.440889 
L 849.629367 301.769581 
L 850.527726 301.841886 
L 851.426085 301.616 
L 853.222802 301.583279 
L 854.121161 301.227448 
L 854.121161 301.227448 
" clip-path="url(#p63feebd2ed)" style="fill: none; stroke: #ff0000; stroke-width: 5; stroke-linecap: square"/>
   </g>
   <g id="line2d_25">
    <path d="M 496.574369 292.909154 
L 497.472728 290.923687 
L 498.371086 291.542136 
L 499.269445 290.335191 
L 500.167804 290.151084 
L 502.86288 292.040709 
L 503.761239 292.608673 
L 504.659598 292.518628 
L 505.557957 292.568355 
L 508.253033 294.113216 
L 509.151392 294.152916 
L 510.04975 293.650614 
L 511.846468 294.601178 
L 512.744827 291.979348 
L 513.643185 292.340734 
L 515.439903 293.419012 
L 516.338262 292.724949 
L 517.236621 290.443107 
L 519.931697 292.291082 
L 520.830056 291.394892 
L 522.626773 292.56539 
L 523.525132 292.223896 
L 525.32185 293.263019 
L 526.220208 293.432881 
L 527.118567 293.931236 
L 528.016926 293.157952 
L 528.915285 293.670054 
L 529.813643 293.289508 
L 532.50872 294.731515 
L 534.305437 294.666085 
L 535.203796 294.803209 
L 537.000514 295.634318 
L 537.898872 294.854551 
L 540.593949 296.073343 
L 541.492308 296.439675 
L 542.390666 296.59844 
L 543.289025 296.485831 
L 544.187384 296.121867 
L 545.984101 296.831484 
L 546.88246 295.576178 
L 547.780819 295.967368 
L 548.679178 295.795395 
L 551.374254 296.879999 
L 552.272613 296.098632 
L 553.170972 296.4637 
L 554.06933 296.386573 
L 554.967689 296.737244 
L 555.866048 296.32355 
L 556.764407 295.363146 
L 558.561124 296.09022 
L 559.459483 295.38717 
L 560.357842 295.35531 
L 562.154559 296.139666 
L 563.052918 295.506584 
L 563.951277 295.901254 
L 564.849636 295.298 
L 565.747994 295.703099 
L 566.646353 295.253482 
L 567.544712 295.660807 
L 568.443071 295.852156 
L 569.34143 293.688134 
L 571.138147 294.63504 
L 572.036506 294.288417 
L 573.833223 295.072665 
L 574.731582 295.489031 
L 575.629941 294.802332 
L 576.5283 294.998437 
L 580.121735 296.556872 
L 581.020094 296.899028 
L 581.918452 296.435809 
L 584.613529 297.429074 
L 585.511887 287.106617 
L 586.410246 273.899036 
L 588.206964 250.912837 
L 590.003681 227.77239 
L 590.90204 216.816241 
L 592.698758 199.04798 
L 593.597116 190.530074 
L 595.393834 176.006604 
L 596.292193 170.236495 
L 597.190552 165.513652 
L 598.08891 159.145899 
L 598.987269 156.518968 
L 599.885628 151.982382 
L 600.783987 145.501072 
L 601.682345 140.00775 
L 602.580704 137.439916 
L 603.479063 133.568009 
L 604.377422 128.480029 
L 606.174139 120.532188 
L 607.072498 115.055348 
L 607.970857 110.981262 
L 608.869216 108.086648 
L 609.767574 103.180533 
L 610.665933 100.654813 
L 611.564292 100.267528 
L 612.462651 99.064923 
L 613.36101 96.500876 
L 614.259368 95.228419 
L 615.157727 95.028604 
L 616.056086 93.941434 
L 616.954445 91.548647 
L 617.852803 89.92958 
L 618.751162 90.306958 
L 619.649521 86.864767 
L 620.54788 84.860598 
L 621.446238 81.074389 
L 622.344597 78.084109 
L 623.242956 78.666876 
L 624.141315 76.294161 
L 625.039674 75.846902 
L 625.938032 75.00954 
L 626.836391 75.066712 
L 627.73475 74.655507 
L 628.633109 75.427122 
L 629.531467 73.130592 
L 630.429826 72.052467 
L 631.328185 70.634276 
L 632.226544 70.147053 
L 633.124903 69.952904 
L 634.023261 70.31601 
L 635.819979 70.148265 
L 636.718338 69.095605 
L 638.515055 65.02467 
L 639.413414 65.700302 
L 640.311773 64.990615 
L 641.210132 64.758548 
L 642.10849 63.233738 
L 643.006849 62.069642 
L 643.905208 62.480772 
L 644.803567 60.496705 
L 645.701925 58.133185 
L 646.600284 56.916764 
L 647.498643 57.754581 
L 648.397002 58.914405 
L 649.295361 57.623209 
L 650.193719 56.945487 
L 651.092078 57.310457 
L 651.990437 56.271098 
L 652.888796 53.842908 
L 653.787154 53.771071 
L 654.685513 52.739468 
L 655.583872 54.435537 
L 656.482231 55.169598 
L 657.380589 56.101672 
L 658.278948 57.27463 
L 659.177307 57.939141 
L 660.075666 59.958399 
L 660.974025 59.104858 
L 661.872383 59.924072 
L 662.770742 57.96744 
L 663.669101 58.467433 
L 664.56746 60.743588 
L 665.465818 60.281634 
L 666.364177 59.506353 
L 667.262536 59.983365 
L 668.160895 58.593064 
L 669.059254 59.720302 
L 670.855971 59.482175 
L 671.75433 59.810666 
L 672.652689 60.848753 
L 673.551047 58.979228 
L 674.449406 57.577625 
L 675.347765 69.868751 
L 678.9412 112.34534 
L 679.839559 120.422539 
L 681.636276 138.262841 
L 683.432994 154.363717 
L 684.331353 161.815534 
L 685.229712 167.024539 
L 687.026429 180.321143 
L 688.823147 192.321332 
L 689.721505 196.977405 
L 691.518223 207.353611 
L 692.416582 212.155934 
L 693.31494 216.014858 
L 695.111658 224.534908 
L 696.908376 232.08124 
L 697.806734 234.610111 
L 698.705093 238.049605 
L 699.603452 240.180553 
L 700.501811 242.659743 
L 701.400169 244.72978 
L 703.196887 250.450129 
L 704.993605 255.61274 
L 706.790322 260.24923 
L 707.688681 260.957689 
L 708.58704 263.079805 
L 710.383757 266.103492 
L 713.977192 272.909457 
L 715.77391 275.882285 
L 716.672269 276.991837 
L 719.367345 280.7583 
L 723.859139 285.801711 
L 726.554215 288.297907 
L 727.452574 288.71402 
L 728.350933 289.373898 
L 729.249291 289.185123 
L 731.944368 291.212518 
L 732.842727 291.007156 
L 733.741085 290.98695 
L 736.436162 292.75736 
L 738.232879 293.795016 
L 739.131238 293.596785 
L 740.029597 294.086945 
L 740.927956 293.268549 
L 742.724673 293.546647 
L 745.419749 294.95198 
L 748.114826 296.156877 
L 749.013185 296.02808 
L 749.911543 295.768782 
L 750.809902 296.150343 
L 751.708261 294.701376 
L 754.403337 295.942015 
L 755.301696 294.862333 
L 757.098414 295.034013 
L 759.79349 296.22721 
L 760.691849 293.404954 
L 761.590207 293.304811 
L 762.488566 292.892692 
L 764.285284 293.917154 
L 766.082001 293.989294 
L 768.777078 295.331493 
L 769.675436 295.079954 
L 770.573795 295.495956 
L 771.472154 293.701078 
L 772.370513 294.038628 
L 773.268871 294.192437 
L 774.16723 294.652814 
L 775.065589 294.53401 
L 777.760665 295.79852 
L 778.659024 295.52231 
L 782.252459 296.98357 
L 783.150818 297.304391 
L 784.049177 295.936739 
L 784.947536 295.583163 
L 787.642612 296.698037 
L 788.540971 295.516825 
L 789.439329 295.910983 
L 790.337688 294.317547 
L 791.236047 294.771669 
L 792.134406 295.004597 
L 793.032765 295.010917 
L 793.931123 294.24924 
L 795.727841 295.141438 
L 797.524558 295.859355 
L 798.422917 294.01694 
L 801.117993 295.355198 
L 802.016352 295.015449 
L 803.81307 295.832941 
L 804.711429 295.604867 
L 806.508146 293.925058 
L 807.406505 294.398804 
L 808.304864 294.593304 
L 809.203222 295.033638 
L 810.101581 294.200737 
L 810.99994 294.6607 
L 812.796658 294.785364 
L 813.695016 295.216095 
L 814.593375 295.038375 
L 815.491734 294.577404 
L 816.390093 294.766703 
L 817.288451 294.00067 
L 818.18681 293.431221 
L 819.085169 293.68919 
L 820.881887 294.635993 
L 821.780245 294.526677 
L 823.576963 295.391825 
L 824.475322 293.704956 
L 827.170398 295.037459 
L 828.068757 293.7287 
L 830.763833 295.108067 
L 832.560551 295.916529 
L 833.458909 296.12756 
L 834.357268 294.983573 
L 835.255627 294.424682 
L 837.950703 295.704785 
L 839.747421 296.455067 
L 840.64578 295.843683 
L 841.544138 296.221499 
L 842.442497 295.382421 
L 843.340856 295.473577 
L 844.239215 295.060818 
L 845.137573 295.477776 
L 846.035932 294.190772 
L 846.934291 294.651233 
L 847.83265 294.054883 
L 849.629367 294.966031 
L 850.527726 293.060355 
L 851.426085 293.137278 
L 852.324444 292.426634 
L 853.222802 292.975302 
L 854.121161 293.288943 
L 854.121161 293.288943 
" clip-path="url(#p63feebd2ed)" style="fill: none; stroke: #0000ff; stroke-width: 5; stroke-linecap: square"/>
   </g>
   <g id="patch_7">
    <path d="M 495.67601 322.75952 
L 495.67601 31.720156 
" style="fill: none; stroke: #000000; stroke-width: 5; stroke-linejoin: miter; stroke-linecap: square"/>
   </g>
   <g id="patch_8">
    <path d="M 495.67601 322.75952 
L 855.01952 322.75952 
" style="fill: none; stroke: #000000; stroke-width: 5; stroke-linejoin: miter; stroke-linecap: square"/>
   </g>
   <g id="patch_9">
    <path d="M 585.511887 316.938733 
L 675.347765 316.938733 
L 675.347765 306.752355 
L 585.511887 306.752355 
z
" style="fill: #8c5a2b; stroke: #8c5a2b; stroke-linejoin: miter"/>
   </g>
   <g id="text_21">
    <!-- Novel | Expert -->
    <g transform="translate(607.949718 21.720156) scale(0.19 -0.19)">
     <defs>
      <path id="DejaVuSans-45" d="M 628 4666 
L 3578 4666 
L 3578 4134 
L 1259 4134 
L 1259 2753 
L 3481 2753 
L 3481 2222 
L 1259 2222 
L 1259 531 
L 3634 531 
L 3634 0 
L 628 0 
L 628 4666 
z
" transform="scale(0.015625)"/>
      <path id="DejaVuSans-78" d="M 3513 3500 
L 2247 1797 
L 3578 0 
L 2900 0 
L 1881 1375 
L 863 0 
L 184 0 
L 1544 1831 
L 300 3500 
L 978 3500 
L 1906 2253 
L 2834 3500 
L 3513 3500 
z
" transform="scale(0.015625)"/>
      <path id="DejaVuSans-70" d="M 1159 525 
L 1159 -1331 
L 581 -1331 
L 581 3500 
L 1159 3500 
L 1159 2969 
Q 1341 3281 1617 3432 
Q 1894 3584 2278 3584 
Q 2916 3584 3314 3078 
Q 3713 2572 3713 1747 
Q 3713 922 3314 415 
Q 2916 -91 2278 -91 
Q 1894 -91 1617 61 
Q 1341 213 1159 525 
z
M 3116 1747 
Q 3116 2381 2855 2742 
Q 2594 3103 2138 3103 
Q 1681 3103 1420 2742 
Q 1159 2381 1159 1747 
Q 1159 1113 1420 752 
Q 1681 391 2138 391 
Q 2594 391 2855 752 
Q 3116 1113 3116 1747 
z
" transform="scale(0.015625)"/>
     </defs>
     <use xlink:href="#DejaVuSans-4e"/>
     <use xlink:href="#DejaVuSans-6f" transform="translate(74.804688 0)"/>
     <use xlink:href="#DejaVuSans-76" transform="translate(135.986328 0)"/>
     <use xlink:href="#DejaVuSans-65" transform="translate(195.166016 0)"/>
     <use xlink:href="#DejaVuSans-6c" transform="translate(256.689453 0)"/>
     <use xlink:href="#DejaVuSans-20" transform="translate(284.472656 0)"/>
     <use xlink:href="#DejaVuSans-7c" transform="translate(316.259766 0)"/>
     <use xlink:href="#DejaVuSans-20" transform="translate(349.951172 0)"/>
     <use xlink:href="#DejaVuSans-45" transform="translate(381.738281 0)"/>
     <use xlink:href="#DejaVuSans-78" transform="translate(444.921875 0)"/>
     <use xlink:href="#DejaVuSans-70" transform="translate(504.101562 0)"/>
     <use xlink:href="#DejaVuSans-65" transform="translate(567.578125 0)"/>
     <use xlink:href="#DejaVuSans-72" transform="translate(629.101562 0)"/>
     <use xlink:href="#DejaVuSans-74" transform="translate(670.214844 0)"/>
    </g>
   </g>
  </g>
 </g>
 <defs>
  <clipPath id="pe567814d4b">
   <rect x="101.56" y="31.720156" width="359.34351" height="291.039364"/>
  </clipPath>
  <clipPath id="p63feebd2ed">
   <rect x="495.67601" y="31.720156" width="359.34351" height="291.039364"/>
  </clipPath>
 </defs>
</svg>
