<?xml version="1.0" encoding="utf-8" standalone="no"?>
<!DOCTYPE svg PUBLIC "-//W3C//DTD SVG 1.1//EN"
  "http://www.w3.org/Graphics/SVG/1.1/DTD/svg11.dtd">
<svg xmlns:xlink="http://www.w3.org/1999/xlink" width="872.39952pt" height="404.39952pt" viewBox="0 0 872.39952 404.39952" xmlns="http://www.w3.org/2000/svg" version="1.1">
 <metadata>
  <rdf:RDF xmlns:dc="http://purl.org/dc/elements/1.1/" xmlns:cc="http://creativecommons.org/ns#" xmlns:rdf="http://www.w3.org/1999/02/22-rdf-syntax-ns#">
   <cc:Work>
    <dc:type rdf:resource="http://purl.org/dc/dcmitype/StillImage"/>
    <dc:date>2026-03-25T11:55:51.824754</dc:date>
    <dc:format>image/svg+xml</dc:format>
    <dc:creator>
     <cc:Agent>
      <dc:title>Matplotlib v3.10.7, https://matplotlib.org/</dc:title>
     </cc:Agent>
    </dc:creator>
   </cc:Work>
  </rdf:RDF>
 </metadata>
 <defs>
  <style type="text/css">*{stroke-linejoin: round; stroke-linecap: butt}</style>
 </defs>
 <g id="figure_1">
  <g id="patch_1">
   <path d="M 0 404.39952 
L 872.39952 404.39952 
L 872.39952 0 
L 0 0 
z
" style="fill: #ffffff"/>
  </g>
  <g id="axes_1">
   <g id="patch_2">
    <path d="M 101.56 322.75952 
L 460.90351 322.75952 
L 460.90351 31.720156 
L 101.56 31.720156 
z
" style="fill: #ffffff"/>
   </g>
   <g id="matplotlib.axis_1">
    <g id="xtick_1">
     <g id="line2d_1">
      <defs>
       <path id="m9c27e69427" d="M 0 0 
L 0 5 
" style="stroke: #000000; stroke-width: 1.6"/>
      </defs>
      <g>
       <use xlink:href="#m9c27e69427" x="101.56" y="322.75952" style="stroke: #000000; stroke-width: 1.6"/>
      </g>
     </g>
     <g id="text_1">
      <!-- -1 -->
      <g transform="translate(85.6075 355.57452) scale(0.32 -0.32)">
       <defs>
        <path id="DejaVuSans-2d" d="M 313 2009 
L 1997 2009 
L 1997 1497 
L 313 1497 
L 313 2009 
z
" transform="scale(0.015625)"/>
        <path id="DejaVuSans-31" d="M 794 531 
L 1825 531 
L 1825 4091 
L 703 3866 
L 703 4441 
L 1819 4666 
L 2450 4666 
L 2450 531 
L 3481 531 
L 3481 0 
L 794 0 
L 794 531 
z
" transform="scale(0.015625)"/>
       </defs>
       <use xlink:href="#DejaVuSans-2d"/>
       <use xlink:href="#DejaVuSans-31" transform="translate(36.083984 0)"/>
      </g>
     </g>
    </g>
    <g id="xtick_2">
     <g id="line2d_2">
      <g>
       <use xlink:href="#m9c27e69427" x="191.395877" y="322.75952" style="stroke: #000000; stroke-width: 1.6"/>
      </g>
     </g>
     <g id="text_2">
      <!-- 0 -->
      <g transform="translate(181.215877 355.57452) scale(0.32 -0.32)">
       <defs>
        <path id="DejaVuSans-30" d="M 2034 4250 
Q 1547 4250 1301 3770 
Q 1056 3291 1056 2328 
Q 1056 1369 1301 889 
Q 1547 409 2034 409 
Q 2525 409 2770 889 
Q 3016 1369 3016 2328 
Q 3016 3291 2770 3770 
Q 2525 4250 2034 4250 
z
M 2034 4750 
Q 2819 4750 3233 4129 
Q 3647 3509 3647 2328 
Q 3647 1150 3233 529 
Q 2819 -91 2034 -91 
Q 1250 -91 836 529 
Q 422 1150 422 2328 
Q 422 3509 836 4129 
Q 1250 4750 2034 4750 
z
" transform="scale(0.015625)"/>
       </defs>
       <use xlink:href="#DejaVuSans-30"/>
      </g>
     </g>
    </g>
    <g id="xtick_3">
     <g id="line2d_3">
      <g>
       <use xlink:href="#m9c27e69427" x="281.231755" y="322.75952" style="stroke: #000000; stroke-width: 1.6"/>
      </g>
     </g>
     <g id="text_3">
      <!-- 1 -->
      <g transform="translate(271.051755 355.57452) scale(0.32 -0.32)">
       <use xlink:href="#DejaVuSans-31"/>
      </g>
     </g>
    </g>
    <g id="xtick_4">
     <g id="line2d_4">
      <g>
       <use xlink:href="#m9c27e69427" x="371.067632" y="322.75952" style="stroke: #000000; stroke-width: 1.6"/>
      </g>
     </g>
     <g id="text_4">
      <!-- 2 -->
      <g transform="translate(360.887632 355.57452) scale(0.32 -0.32)">
       <defs>
        <path id="DejaVuSans-32" d="M 1228 531 
L 3431 531 
L 3431 0 
L 469 0 
L 469 531 
Q 828 903 1448 1529 
Q 2069 2156 2228 2338 
Q 2531 2678 2651 2914 
Q 2772 3150 2772 3378 
Q 2772 3750 2511 3984 
Q 2250 4219 1831 4219 
Q 1534 4219 1204 4116 
Q 875 4013 500 3803 
L 500 4441 
Q 881 4594 1212 4672 
Q 1544 4750 1819 4750 
Q 2544 4750 2975 4387 
Q 3406 4025 3406 3419 
Q 3406 3131 3298 2873 
Q 3191 2616 2906 2266 
Q 2828 2175 2409 1742 
Q 1991 1309 1228 531 
z
" transform="scale(0.015625)"/>
       </defs>
       <use xlink:href="#DejaVuSans-32"/>
      </g>
     </g>
    </g>
    <g id="xtick_5">
     <g id="line2d_5">
      <g>
       <use xlink:href="#m9c27e69427" x="460.90351" y="322.75952" style="stroke: #000000; stroke-width: 1.6"/>
      </g>
     </g>
     <g id="text_5">
      <!-- 3 -->
      <g transform="translate(450.72351 355.57452) scale(0.32 -0.32)">
       <defs>
        <path id="DejaVuSans-33" d="M 2597 2516 
Q 3050 2419 3304 2112 
Q 3559 1806 3559 1356 
Q 3559 666 3084 287 
Q 2609 -91 1734 -91 
Q 1441 -91 1130 -33 
Q 819 25 488 141 
L 488 750 
Q 750 597 1062 519 
Q 1375 441 1716 441 
Q 2309 441 2620 675 
Q 2931 909 2931 1356 
Q 2931 1769 2642 2001 
Q 2353 2234 1838 2234 
L 1294 2234 
L 1294 2753 
L 1863 2753 
Q 2328 2753 2575 2939 
Q 2822 3125 2822 3475 
Q 2822 3834 2567 4026 
Q 2313 4219 1838 4219 
Q 1578 4219 1281 4162 
Q 984 4106 628 3988 
L 628 4550 
Q 988 4650 1302 4700 
Q 1616 4750 1894 4750 
Q 2613 4750 3031 4423 
Q 3450 4097 3450 3541 
Q 3450 3153 3228 2886 
Q 3006 2619 2597 2516 
z
" transform="scale(0.015625)"/>
       </defs>
       <use xlink:href="#DejaVuSans-33"/>
      </g>
     </g>
    </g>
    <g id="text_6">
     <!-- Time (s) -->
     <g transform="translate(216.179255 390.54452) scale(0.32 -0.32)">
      <defs>
       <path id="DejaVuSans-54" d="M -19 4666 
L 3928 4666 
L 3928 4134 
L 2272 4134 
L 2272 0 
L 1638 0 
L 1638 4134 
L -19 4134 
L -19 4666 
z
" transform="scale(0.015625)"/>
       <path id="DejaVuSans-69" d="M 603 3500 
L 1178 3500 
L 1178 0 
L 603 0 
L 603 3500 
z
M 603 4863 
L 1178 4863 
L 1178 4134 
L 603 4134 
L 603 4863 
z
" transform="scale(0.015625)"/>
       <path id="DejaVuSans-6d" d="M 3328 2828 
Q 3544 3216 3844 3400 
Q 4144 3584 4550 3584 
Q 5097 3584 5394 3201 
Q 5691 2819 5691 2113 
L 5691 0 
L 5113 0 
L 5113 2094 
Q 5113 2597 4934 2840 
Q 4756 3084 4391 3084 
Q 3944 3084 3684 2787 
Q 3425 2491 3425 1978 
L 3425 0 
L 2847 0 
L 2847 2094 
Q 2847 2600 2669 2842 
Q 2491 3084 2119 3084 
Q 1678 3084 1418 2786 
Q 1159 2488 1159 1978 
L 1159 0 
L 581 0 
L 581 3500 
L 1159 3500 
L 1159 2956 
Q 1356 3278 1631 3431 
Q 1906 3584 2284 3584 
Q 2666 3584 2933 3390 
Q 3200 3197 3328 2828 
z
" transform="scale(0.015625)"/>
       <path id="DejaVuSans-65" d="M 3597 1894 
L 3597 1613 
L 953 1613 
Q 991 1019 1311 708 
Q 1631 397 2203 397 
Q 2534 397 2845 478 
Q 3156 559 3463 722 
L 3463 178 
Q 3153 47 2828 -22 
Q 2503 -91 2169 -91 
Q 1331 -91 842 396 
Q 353 884 353 1716 
Q 353 2575 817 3079 
Q 1281 3584 2069 3584 
Q 2775 3584 3186 3129 
Q 3597 2675 3597 1894 
z
M 3022 2063 
Q 3016 2534 2758 2815 
Q 2500 3097 2075 3097 
Q 1594 3097 1305 2825 
Q 1016 2553 972 2059 
L 3022 2063 
z
" transform="scale(0.015625)"/>
       <path id="DejaVuSans-20" transform="scale(0.015625)"/>
       <path id="DejaVuSans-28" d="M 1984 4856 
Q 1566 4138 1362 3434 
Q 1159 2731 1159 2009 
Q 1159 1288 1364 580 
Q 1569 -128 1984 -844 
L 1484 -844 
Q 1016 -109 783 600 
Q 550 1309 550 2009 
Q 550 2706 781 3412 
Q 1013 4119 1484 4856 
L 1984 4856 
z
" transform="scale(0.015625)"/>
       <path id="DejaVuSans-73" d="M 2834 3397 
L 2834 2853 
Q 2591 2978 2328 3040 
Q 2066 3103 1784 3103 
Q 1356 3103 1142 2972 
Q 928 2841 928 2578 
Q 928 2378 1081 2264 
Q 1234 2150 1697 2047 
L 1894 2003 
Q 2506 1872 2764 1633 
Q 3022 1394 3022 966 
Q 3022 478 2636 193 
Q 2250 -91 1575 -91 
Q 1294 -91 989 -36 
Q 684 19 347 128 
L 347 722 
Q 666 556 975 473 
Q 1284 391 1588 391 
Q 1994 391 2212 530 
Q 2431 669 2431 922 
Q 2431 1156 2273 1281 
Q 2116 1406 1581 1522 
L 1381 1569 
Q 847 1681 609 1914 
Q 372 2147 372 2553 
Q 372 3047 722 3315 
Q 1072 3584 1716 3584 
Q 2034 3584 2315 3537 
Q 2597 3491 2834 3397 
z
" transform="scale(0.015625)"/>
       <path id="DejaVuSans-29" d="M 513 4856 
L 1013 4856 
Q 1481 4119 1714 3412 
Q 1947 2706 1947 2009 
Q 1947 1309 1714 600 
Q 1481 -109 1013 -844 
L 513 -844 
Q 928 -128 1133 580 
Q 1338 1288 1338 2009 
Q 1338 2731 1133 3434 
Q 928 4138 513 4856 
z
" transform="scale(0.015625)"/>
      </defs>
      <use xlink:href="#DejaVuSans-54"/>
      <use xlink:href="#DejaVuSans-69" transform="translate(57.958984 0)"/>
      <use xlink:href="#DejaVuSans-6d" transform="translate(85.742188 0)"/>
      <use xlink:href="#DejaVuSans-65" transform="translate(183.154297 0)"/>
      <use xlink:href="#DejaVuSans-20" transform="translate(244.677734 0)"/>
      <use xlink:href="#DejaVuSans-28" transform="translate(276.464844 0)"/>
      <use xlink:href="#DejaVuSans-73" transform="translate(315.478516 0)"/>
      <use xlink:href="#DejaVuSans-29" transform="translate(367.578125 0)"/>
     </g>
    </g>
   </g>
   <g id="matplotlib.axis_2">
    <g id="ytick_1">
     <g id="line2d_6">
      <defs>
       <path id="m75535a655a" d="M 0 0 
L -5 0 
" style="stroke: #000000; stroke-width: 1.6"/>
      </defs>
      <g>
       <use xlink:href="#m75535a655a" x="101.56" y="302.706933" style="stroke: #000000; stroke-width: 1.6"/>
      </g>
     </g>
     <g id="text_7">
      <!-- 0.0 -->
      <g transform="translate(42.17 314.864433) scale(0.32 -0.32)">
       <defs>
        <path id="DejaVuSans-2e" d="M 684 794 
L 1344 794 
L 1344 0 
L 684 0 
L 684 794 
z
" transform="scale(0.015625)"/>
       </defs>
       <use xlink:href="#DejaVuSans-30"/>
       <use xlink:href="#DejaVuSans-2e" transform="translate(63.623047 0)"/>
       <use xlink:href="#DejaVuSans-30" transform="translate(95.410156 0)"/>
      </g>
     </g>
    </g>
    <g id="ytick_2">
     <g id="line2d_7">
      <g>
       <use xlink:href="#m75535a655a" x="101.56" y="175.591824" style="stroke: #000000; stroke-width: 1.6"/>
      </g>
     </g>
     <g id="text_8">
      <!-- 0.1 -->
      <g transform="translate(42.17 187.749324) scale(0.32 -0.32)">
       <use xlink:href="#DejaVuSans-30"/>
       <use xlink:href="#DejaVuSans-2e" transform="translate(63.623047 0)"/>
       <use xlink:href="#DejaVuSans-31" transform="translate(95.410156 0)"/>
      </g>
     </g>
    </g>
    <g id="ytick_3">
     <g id="line2d_8">
      <g>
       <use xlink:href="#m75535a655a" x="101.56" y="48.476715" style="stroke: #000000; stroke-width: 1.6"/>
      </g>
     </g>
     <g id="text_9">
      <!-- 0.2 -->
      <g transform="translate(42.17 60.634215) scale(0.32 -0.32)">
       <use xlink:href="#DejaVuSans-30"/>
       <use xlink:href="#DejaVuSans-2e" transform="translate(63.623047 0)"/>
       <use xlink:href="#DejaVuSans-32" transform="translate(95.410156 0)"/>
      </g>
     </g>
    </g>
    <g id="text_10">
     <!-- Neural Activity -->
     <g transform="translate(31.515 294.944838) rotate(-90) scale(0.32 -0.32)">
      <defs>
       <path id="DejaVuSans-4e" d="M 628 4666 
L 1478 4666 
L 3547 763 
L 3547 4666 
L 4159 4666 
L 4159 0 
L 3309 0 
L 1241 3903 
L 1241 0 
L 628 0 
L 628 4666 
z
" transform="scale(0.015625)"/>
       <path id="DejaVuSans-75" d="M 544 1381 
L 544 3500 
L 1119 3500 
L 1119 1403 
Q 1119 906 1312 657 
Q 1506 409 1894 409 
Q 2359 409 2629 706 
Q 2900 1003 2900 1516 
L 2900 3500 
L 3475 3500 
L 3475 0 
L 2900 0 
L 2900 538 
Q 2691 219 2414 64 
Q 2138 -91 1772 -91 
Q 1169 -91 856 284 
Q 544 659 544 1381 
z
M 1991 3584 
L 1991 3584 
z
" transform="scale(0.015625)"/>
       <path id="DejaVuSans-72" d="M 2631 2963 
Q 2534 3019 2420 3045 
Q 2306 3072 2169 3072 
Q 1681 3072 1420 2755 
Q 1159 2438 1159 1844 
L 1159 0 
L 581 0 
L 581 3500 
L 1159 3500 
L 1159 2956 
Q 1341 3275 1631 3429 
Q 1922 3584 2338 3584 
Q 2397 3584 2469 3576 
Q 2541 3569 2628 3553 
L 2631 2963 
z
" transform="scale(0.015625)"/>
       <path id="DejaVuSans-61" d="M 2194 1759 
Q 1497 1759 1228 1600 
Q 959 1441 959 1056 
Q 959 750 1161 570 
Q 1363 391 1709 391 
Q 2188 391 2477 730 
Q 2766 1069 2766 1631 
L 2766 1759 
L 2194 1759 
z
M 3341 1997 
L 3341 0 
L 2766 0 
L 2766 531 
Q 2569 213 2275 61 
Q 1981 -91 1556 -91 
Q 1019 -91 701 211 
Q 384 513 384 1019 
Q 384 1609 779 1909 
Q 1175 2209 1959 2209 
L 2766 2209 
L 2766 2266 
Q 2766 2663 2505 2880 
Q 2244 3097 1772 3097 
Q 1472 3097 1187 3025 
Q 903 2953 641 2809 
L 641 3341 
Q 956 3463 1253 3523 
Q 1550 3584 1831 3584 
Q 2591 3584 2966 3190 
Q 3341 2797 3341 1997 
z
" transform="scale(0.015625)"/>
       <path id="DejaVuSans-6c" d="M 603 4863 
L 1178 4863 
L 1178 0 
L 603 0 
L 603 4863 
z
" transform="scale(0.015625)"/>
       <path id="DejaVuSans-41" d="M 2188 4044 
L 1331 1722 
L 3047 1722 
L 2188 4044 
z
M 1831 4666 
L 2547 4666 
L 4325 0 
L 3669 0 
L 3244 1197 
L 1141 1197 
L 716 0 
L 50 0 
L 1831 4666 
z
" transform="scale(0.015625)"/>
       <path id="DejaVuSans-63" d="M 3122 3366 
L 3122 2828 
Q 2878 2963 2633 3030 
Q 2388 3097 2138 3097 
Q 1578 3097 1268 2742 
Q 959 2388 959 1747 
Q 959 1106 1268 751 
Q 1578 397 2138 397 
Q 2388 397 2633 464 
Q 2878 531 3122 666 
L 3122 134 
Q 2881 22 2623 -34 
Q 2366 -91 2075 -91 
Q 1284 -91 818 406 
Q 353 903 353 1747 
Q 353 2603 823 3093 
Q 1294 3584 2113 3584 
Q 2378 3584 2631 3529 
Q 2884 3475 3122 3366 
z
" transform="scale(0.015625)"/>
       <path id="DejaVuSans-74" d="M 1172 4494 
L 1172 3500 
L 2356 3500 
L 2356 3053 
L 1172 3053 
L 1172 1153 
Q 1172 725 1289 603 
Q 1406 481 1766 481 
L 2356 481 
L 2356 0 
L 1766 0 
Q 1100 0 847 248 
Q 594 497 594 1153 
L 594 3053 
L 172 3053 
L 172 3500 
L 594 3500 
L 594 4494 
L 1172 4494 
z
" transform="scale(0.015625)"/>
       <path id="DejaVuSans-76" d="M 191 3500 
L 800 3500 
L 1894 563 
L 2988 3500 
L 3597 3500 
L 2284 0 
L 1503 0 
L 191 3500 
z
" transform="scale(0.015625)"/>
       <path id="DejaVuSans-79" d="M 2059 -325 
Q 1816 -950 1584 -1140 
Q 1353 -1331 966 -1331 
L 506 -1331 
L 506 -850 
L 844 -850 
Q 1081 -850 1212 -737 
Q 1344 -625 1503 -206 
L 1606 56 
L 191 3500 
L 800 3500 
L 1894 763 
L 2988 3500 
L 3597 3500 
L 2059 -325 
z
" transform="scale(0.015625)"/>
      </defs>
      <use xlink:href="#DejaVuSans-4e"/>
      <use xlink:href="#DejaVuSans-65" transform="translate(74.804688 0)"/>
      <use xlink:href="#DejaVuSans-75" transform="translate(136.328125 0)"/>
      <use xlink:href="#DejaVuSans-72" transform="translate(199.707031 0)"/>
      <use xlink:href="#DejaVuSans-61" transform="translate(240.820312 0)"/>
      <use xlink:href="#DejaVuSans-6c" transform="translate(302.099609 0)"/>
      <use xlink:href="#DejaVuSans-20" transform="translate(329.882812 0)"/>
      <use xlink:href="#DejaVuSans-41" transform="translate(361.669922 0)"/>
      <use xlink:href="#DejaVuSans-63" transform="translate(428.328125 0)"/>
      <use xlink:href="#DejaVuSans-74" transform="translate(483.308594 0)"/>
      <use xlink:href="#DejaVuSans-69" transform="translate(522.517578 0)"/>
      <use xlink:href="#DejaVuSans-76" transform="translate(550.300781 0)"/>
      <use xlink:href="#DejaVuSans-69" transform="translate(609.480469 0)"/>
      <use xlink:href="#DejaVuSans-74" transform="translate(637.263672 0)"/>
      <use xlink:href="#DejaVuSans-79" transform="translate(676.472656 0)"/>
     </g>
    </g>
   </g>
   <g id="line2d_9">
    <path d="M 102.458359 296.371031 
L 106.051794 297.546301 
L 109.645229 298.503567 
L 111.441947 298.913395 
L 112.340305 297.100956 
L 113.238664 296.83946 
L 115.035382 297.411539 
L 115.93374 293.623467 
L 118.628817 294.918996 
L 122.222252 296.36361 
L 123.120611 296.680777 
L 124.018969 295.324462 
L 124.917328 295.693586 
L 125.815687 294.881822 
L 129.409122 296.333332 
L 133.002557 297.515596 
L 136.595992 298.478556 
L 140.189427 299.262894 
L 141.087786 296.315418 
L 144.681221 297.501005 
L 146.477939 298.008583 
L 147.376298 295.854231 
L 148.274656 295.69783 
L 151.868091 296.997975 
L 152.76645 297.283423 
L 153.664809 296.157139 
L 157.258244 297.372086 
L 160.851679 298.361667 
L 167.140191 299.658952 
L 172.530343 300.466387 
L 173.428702 300.578415 
L 174.327061 299.013914 
L 176.123778 299.373983 
L 177.022137 298.313441 
L 179.717213 298.940063 
L 180.615572 297.75123 
L 181.513931 297.948326 
L 182.41229 289.903205 
L 183.310649 287.748072 
L 184.209007 288.496015 
L 185.107366 288.406308 
L 187.802442 290.445935 
L 190.497519 292.194661 
L 193.192595 293.693974 
L 195.887671 294.979447 
L 199.481106 296.412848 
L 203.074542 297.580362 
L 206.667977 298.531309 
L 211.159771 299.475915 
L 215.651564 300.206833 
L 221.041717 300.86913 
L 227.330228 301.423527 
L 235.415457 301.898067 
L 245.297404 302.24685 
L 259.671144 302.504439 
L 282.130114 302.650764 
L 290.215343 302.671532 
L 291.113702 302.337592 
L 294.707137 302.406102 
L 295.605495 295.967987 
L 296.503854 292.357432 
L 298.300572 293.366509 
L 299.19893 290.086347 
L 300.995648 291.316855 
L 301.894007 289.389613 
L 302.792366 290.055478 
L 303.690724 288.28453 
L 304.589083 289.005651 
L 305.487442 289.135546 
L 306.385801 287.729883 
L 307.284159 287.648367 
L 309.080877 289.116577 
L 310.877595 290.324841 
L 311.775953 288.802996 
L 314.47103 290.786046 
L 315.369388 291.369247 
L 316.267747 290.211105 
L 318.962824 291.993324 
L 321.6579 293.521353 
L 324.352976 294.831447 
L 327.946411 296.292301 
L 329.743129 296.917728 
L 330.641488 297.035414 
L 334.234923 298.087446 
L 338.726717 299.132463 
L 340.523434 299.480974 
L 341.421793 296.122369 
L 343.21851 296.764365 
L 345.015228 287.25773 
L 347.710304 289.461174 
L 350.405381 291.350351 
L 353.100457 292.970083 
L 353.998816 289.998 
L 356.693892 291.810612 
L 357.592251 290.878303 
L 360.287327 292.565361 
L 362.982404 294.011803 
L 365.67748 295.251946 
L 369.270915 296.6348 
L 372.86435 297.761143 
L 373.762709 296.229157 
L 374.661068 296.478661 
L 375.559426 295.332919 
L 379.152861 296.700752 
L 382.746297 297.814862 
L 386.339732 298.722311 
L 390.831526 299.623709 
L 391.729884 299.77787 
L 392.628243 299.47363 
L 393.526602 299.635295 
L 394.424961 298.722879 
L 397.120037 299.291105 
L 398.018396 298.034197 
L 398.916755 294.90171 
L 402.51019 296.349531 
L 405.205266 297.256256 
L 406.103625 295.749897 
L 409.69706 297.040384 
L 410.595419 291.456026 
L 411.493777 287.166434 
L 414.188854 289.382898 
L 416.88393 291.283239 
L 419.579006 292.912544 
L 421.375724 293.867497 
L 422.274083 294.047221 
L 424.969159 295.282313 
L 428.562594 296.659534 
L 432.156029 297.781289 
L 435.749464 298.694965 
L 440.241258 299.602549 
L 442.037976 299.905226 
L 442.936334 295.33837 
L 444.733052 296.056806 
L 445.631411 292.273722 
L 446.52977 286.552908 
L 449.224846 288.856876 
L 451.919922 290.832241 
L 452.818281 288.673427 
L 453.71664 282.859468 
L 454.614999 279.767141 
L 455.513357 273.004691 
L 457.310075 275.900662 
L 460.005151 279.723909 
L 460.005151 279.723909 
" clip-path="url(#p5c76bd49fd)" style="fill: none; stroke: #000000; stroke-width: 5; stroke-linecap: square"/>
   </g>
   <g id="line2d_10">
    <path d="M 102.458359 281.848759 
L 103.356718 269.434142 
L 104.255076 267.964961 
L 105.153435 265.777847 
L 106.051794 265.543231 
L 107.848511 269.166693 
L 109.645229 272.436868 
L 110.543588 266.579279 
L 111.441947 262.639302 
L 113.238664 266.545896 
L 115.035382 270.071599 
L 116.832099 273.253543 
L 118.628817 276.125248 
L 121.323893 279.916462 
L 123.120611 282.138533 
L 124.018969 281.820358 
L 124.917328 281.687277 
L 127.612404 284.685207 
L 128.510763 285.586294 
L 129.409122 285.476797 
L 132.104198 287.934246 
L 133.002557 287.802214 
L 133.900916 282.287118 
L 134.799275 283.30811 
L 135.697633 274.965353 
L 137.494351 277.670158 
L 140.189427 281.241029 
L 141.087786 281.277589 
L 141.986145 282.349057 
L 142.884504 282.702435 
L 145.57958 285.555578 
L 148.274656 288.00179 
L 150.969733 290.099113 
L 153.664809 291.897304 
L 155.461527 292.951244 
L 157.258244 290.223017 
L 158.156603 286.997275 
L 159.054962 287.782758 
L 159.95332 287.113941 
L 160.851679 284.29903 
L 161.750038 282.820249 
L 164.445114 285.656589 
L 165.343473 284.404381 
L 166.241832 284.795902 
L 168.936908 287.350464 
L 171.631984 289.54068 
L 172.530343 286.548648 
L 174.327061 288.12195 
L 175.22542 285.212805 
L 177.022137 286.918483 
L 177.920496 287.342331 
L 180.615572 289.533706 
L 181.513931 281.478933 
L 182.41229 276.557977 
L 185.107366 280.287472 
L 187.802442 283.485047 
L 190.497519 286.226569 
L 192.294236 220.639132 
L 193.192595 194.983001 
L 194.090954 183.700865 
L 194.989313 176.139396 
L 195.887671 178.747582 
L 196.78603 177.43989 
L 197.684389 179.104727 
L 198.582748 181.013143 
L 199.481106 171.137537 
L 200.379465 172.488691 
L 201.277824 171.737561 
L 203.074542 184.186908 
L 203.9729 187.999175 
L 204.871259 186.923423 
L 205.769618 171.567531 
L 206.667977 163.651238 
L 207.566335 156.894864 
L 208.464694 161.047162 
L 209.363053 158.937122 
L 210.261412 166.125611 
L 211.159771 167.399739 
L 212.058129 161.195342 
L 212.956488 161.179337 
L 213.854847 162.122402 
L 214.753206 167.822743 
L 215.651564 165.730877 
L 216.549923 157.000984 
L 217.448282 160.808952 
L 218.346641 163.023579 
L 219.245 158.948259 
L 220.143358 159.232715 
L 221.041717 166.40643 
L 221.940076 166.267673 
L 222.838435 162.984512 
L 223.736793 168.177179 
L 224.635152 171.254871 
L 225.533511 171.63593 
L 226.43187 174.981362 
L 227.330228 171.82598 
L 228.228587 172.539777 
L 229.126946 167.541896 
L 230.025305 153.708039 
L 230.923664 149.835045 
L 232.720381 157.824168 
L 234.517099 171.950237 
L 235.415457 173.527611 
L 236.313816 167.418548 
L 237.212175 170.492584 
L 239.008893 160.629726 
L 240.80561 174.48225 
L 241.703969 180.621326 
L 242.602328 179.054494 
L 243.500686 174.115237 
L 244.399045 180.544821 
L 245.297404 171.655591 
L 246.195763 169.755736 
L 247.99248 173.253128 
L 248.890839 169.2687 
L 249.789198 171.073448 
L 250.687557 169.807049 
L 251.585915 166.864212 
L 252.484274 167.650526 
L 253.382633 159.789495 
L 254.280992 157.608527 
L 256.077709 148.116063 
L 256.976068 150.71386 
L 257.874427 155.647917 
L 259.671144 154.996534 
L 260.569503 151.663565 
L 261.467862 152.768127 
L 262.366221 154.214027 
L 263.26458 149.623315 
L 264.162938 146.686463 
L 265.061297 147.638185 
L 265.959656 147.63988 
L 266.858015 155.393238 
L 267.756373 158.671617 
L 268.654732 163.837718 
L 269.553091 164.433196 
L 270.45145 163.1066 
L 271.349808 168.763129 
L 272.248167 167.420915 
L 273.146526 154.611507 
L 274.044885 150.022586 
L 274.943244 146.08196 
L 275.841602 144.808619 
L 276.739961 144.097512 
L 277.63832 146.752361 
L 280.333396 168.784021 
L 282.130114 181.841508 
L 283.926831 193.62589 
L 285.723549 204.261292 
L 287.520266 213.859743 
L 289.316984 222.522346 
L 291.113702 230.340347 
L 292.910419 237.396089 
L 294.707137 243.763894 
L 296.503854 249.510841 
L 298.300572 254.697461 
L 300.097289 259.378382 
L 301.894007 263.602919 
L 303.690724 267.415563 
L 305.487442 270.856473 
L 307.284159 273.961894 
L 309.080877 276.764537 
L 309.979236 276.152455 
L 312.674312 279.939789 
L 315.369388 283.186954 
L 318.064465 285.970992 
L 320.759541 288.357957 
L 322.556259 280.440662 
L 325.251335 283.616389 
L 327.946411 286.339178 
L 330.641488 288.673631 
L 333.336564 290.675131 
L 336.03164 292.391168 
L 338.726717 293.862454 
L 339.625075 292.482183 
L 342.320152 293.940488 
L 345.015228 295.190802 
L 346.811946 295.923625 
L 347.710304 295.90806 
L 351.303739 297.169209 
L 352.202098 294.315392 
L 355.795533 295.871971 
L 359.388968 297.139814 
L 360.287327 297.41817 
L 361.185686 294.138062 
L 362.084045 293.342539 
L 364.779121 294.678135 
L 365.67748 295.079575 
L 366.575839 288.791888 
L 367.474197 287.766907 
L 370.169274 289.897729 
L 371.067632 290.538189 
L 371.965991 289.527372 
L 374.661068 291.407107 
L 376.457785 286.422009 
L 377.356144 280.119289 
L 378.254503 270.67444 
L 379.152861 269.955588 
L 380.949579 273.148846 
L 382.746297 276.03076 
L 385.441373 279.835449 
L 388.136449 283.097494 
L 390.831526 285.894291 
L 393.526602 288.292193 
L 395.323319 289.697631 
L 396.221678 290.098502 
L 398.916755 291.89678 
L 399.815113 285.742069 
L 400.713472 286.590312 
L 402.51019 283.761127 
L 403.408548 284.478217 
L 406.103625 287.078088 
L 407.900342 288.6019 
L 408.798701 287.683743 
L 411.493777 289.826427 
L 412.392136 289.452416 
L 415.087212 291.342843 
L 417.782289 292.963647 
L 419.579006 293.913618 
L 420.477365 293.975742 
L 423.172441 295.221028 
L 426.765877 296.609617 
L 427.664235 292.617383 
L 430.359312 294.056406 
L 433.054388 295.290188 
L 436.647823 296.665948 
L 438.444541 297.254944 
L 439.342899 297.392885 
L 440.241258 294.169468 
L 441.139617 283.435947 
L 442.037976 284.399497 
L 442.936334 283.12694 
L 445.631411 285.919537 
L 447.428128 287.556308 
L 448.326487 288.138609 
L 451.021563 290.216417 
L 451.919922 285.587552 
L 452.818281 286.443522 
L 453.71664 281.059528 
L 454.614999 280.841479 
L 455.513357 281.934752 
L 456.411716 279.857369 
L 459.106792 283.116289 
L 460.005151 284.095821 
L 460.005151 284.095821 
" clip-path="url(#p5c76bd49fd)" style="fill: none; stroke: #ff0000; stroke-width: 5; stroke-linecap: square"/>
   </g>
   <g id="line2d_11">
    <path d="M 102.458359 290.94679 
L 105.153435 292.624081 
L 107.848511 294.062148 
L 108.74687 294.494388 
L 109.645229 289.7088 
L 112.340305 291.56266 
L 115.035382 293.152113 
L 117.730458 294.514869 
L 121.323893 296.034446 
L 124.917328 297.235743 
L 125.815687 295.213547 
L 129.409122 296.603524 
L 133.002557 297.735668 
L 136.595992 298.657807 
L 137.494351 298.860264 
L 138.39271 295.807036 
L 141.986145 297.086924 
L 142.884504 296.602944 
L 144.681221 297.198083 
L 145.57958 296.494308 
L 147.376298 291.182134 
L 150.071374 292.825858 
L 151.868091 287.487083 
L 152.76645 288.248075 
L 153.664809 285.367878 
L 156.359885 287.840862 
L 159.054962 289.961136 
L 159.95332 290.468634 
L 160.851679 287.494396 
L 161.750038 288.078152 
L 164.445114 290.164583 
L 167.140191 291.953437 
L 168.038549 291.17412 
L 170.733626 292.818988 
L 173.428702 294.229257 
L 174.327061 289.391706 
L 176.123778 290.689941 
L 177.022137 289.667874 
L 177.920496 290.319827 
L 178.818855 288.853265 
L 179.717213 288.461608 
L 180.615572 288.508372 
L 183.310649 290.533443 
L 186.005725 292.269687 
L 188.700801 293.7583 
L 191.395877 295.034599 
L 194.989313 296.457769 
L 198.582748 297.61695 
L 202.176183 298.56111 
L 206.667977 299.498975 
L 212.058129 300.348789 
L 217.448282 300.973481 
L 224.635152 301.556926 
L 232.720381 301.982142 
L 243.500686 302.315285 
L 258.772786 302.543177 
L 283.926831 302.667988 
L 284.82519 301.218985 
L 285.723549 301.203777 
L 286.621908 299.292993 
L 287.520266 299.46369 
L 288.418625 298.484303 
L 289.316984 296.231136 
L 290.215343 295.753114 
L 293.808778 297.043004 
L 297.402213 298.093628 
L 298.300572 295.025172 
L 299.19893 294.119352 
L 300.097289 294.018913 
L 300.995648 294.453315 
L 301.894007 292.126903 
L 304.589083 293.550977 
L 307.284159 294.856845 
L 308.182518 295.24935 
L 309.080877 293.688731 
L 309.979236 293.746419 
L 310.877595 291.328397 
L 313.572671 292.951261 
L 314.47103 290.986365 
L 315.369388 286.378645 
L 318.064465 288.707467 
L 320.759541 290.70414 
L 323.454617 292.416038 
L 325.251335 293.419401 
L 326.149694 290.711132 
L 327.048053 288.84708 
L 328.84477 276.258583 
L 329.743129 269.688329 
L 330.641488 268.486921 
L 332.438205 271.823375 
L 333.336564 271.397745 
L 335.133281 274.450391 
L 336.929999 277.205406 
L 339.625075 280.842561 
L 341.421793 282.974337 
L 342.320152 283.586737 
L 345.015228 286.281563 
L 345.913587 283.948898 
L 348.608663 286.624263 
L 349.507022 285.350474 
L 351.303739 287.04273 
L 352.202098 287.20019 
L 353.998816 288.712098 
L 354.897175 288.201162 
L 355.795533 288.926451 
L 356.693892 289.39624 
L 359.388968 291.294679 
L 361.185686 292.407374 
L 362.084045 291.334074 
L 362.982404 291.902717 
L 363.880762 289.910122 
L 366.575839 291.735268 
L 369.270915 293.300102 
L 371.965991 294.641752 
L 373.762709 291.432226 
L 376.457785 293.040282 
L 379.152861 294.418988 
L 382.746297 295.956351 
L 386.339732 297.208541 
L 389.933167 298.228459 
L 390.831526 298.452383 
L 391.729884 296.025342 
L 392.628243 296.359421 
L 393.526602 296.443993 
L 397.120037 297.605729 
L 398.018396 297.86079 
L 398.916755 293.517449 
L 399.815113 293.976923 
L 400.713472 291.674642 
L 401.611831 278.296311 
L 402.51019 278.960708 
L 405.205266 282.347513 
L 407.900342 285.251277 
L 410.595419 287.74089 
L 413.290495 289.875422 
L 415.985571 291.705516 
L 418.680648 293.274593 
L 419.579006 293.74621 
L 420.477365 292.008489 
L 421.375724 292.308873 
L 424.0708 293.791897 
L 424.969159 294.237649 
L 425.867518 292.523337 
L 428.562594 293.975773 
L 429.460953 289.53579 
L 432.156029 291.414325 
L 434.851106 293.024933 
L 437.546182 294.405829 
L 441.139617 295.945632 
L 444.733052 297.199812 
L 448.326487 298.221349 
L 451.919922 299.053397 
L 452.818281 299.107178 
L 453.71664 299.287165 
L 454.614999 296.972248 
L 457.310075 297.790158 
L 458.208434 296.78745 
L 460.005151 297.3646 
L 460.005151 297.3646 
" clip-path="url(#p5c76bd49fd)" style="fill: none; stroke: #0000ff; stroke-width: 5; stroke-linecap: square"/>
   </g>
   <g id="patch_3">
    <path d="M 101.56 322.75952 
L 101.56 31.720156 
" style="fill: none; stroke: #000000; stroke-width: 5; stroke-linejoin: miter; stroke-linecap: square"/>
   </g>
   <g id="patch_4">
    <path d="M 101.56 322.75952 
L 460.90351 322.75952 
" style="fill: none; stroke: #000000; stroke-width: 5; stroke-linejoin: miter; stroke-linecap: square"/>
   </g>
   <g id="patch_5">
    <path d="M 191.395877 316.938733 
L 281.231755 316.938733 
L 281.231755 306.752355 
L 191.395877 306.752355 
z
" style="fill: #8c5a2b; stroke: #8c5a2b; stroke-linejoin: miter"/>
   </g>
   <g id="text_11">
    <!-- Novel | Naive -->
    <g transform="translate(217.929099 21.720156) scale(0.19 -0.19)">
     <defs>
      <path id="DejaVuSans-6f" d="M 1959 3097 
Q 1497 3097 1228 2736 
Q 959 2375 959 1747 
Q 959 1119 1226 758 
Q 1494 397 1959 397 
Q 2419 397 2687 759 
Q 2956 1122 2956 1747 
Q 2956 2369 2687 2733 
Q 2419 3097 1959 3097 
z
M 1959 3584 
Q 2709 3584 3137 3096 
Q 3566 2609 3566 1747 
Q 3566 888 3137 398 
Q 2709 -91 1959 -91 
Q 1206 -91 779 398 
Q 353 888 353 1747 
Q 353 2609 779 3096 
Q 1206 3584 1959 3584 
z
" transform="scale(0.015625)"/>
      <path id="DejaVuSans-7c" d="M 1344 4891 
L 1344 -1509 
L 813 -1509 
L 813 4891 
L 1344 4891 
z
" transform="scale(0.015625)"/>
     </defs>
     <use xlink:href="#DejaVuSans-4e"/>
     <use xlink:href="#DejaVuSans-6f" transform="translate(74.804688 0)"/>
     <use xlink:href="#DejaVuSans-76" transform="translate(135.986328 0)"/>
     <use xlink:href="#DejaVuSans-65" transform="translate(195.166016 0)"/>
     <use xlink:href="#DejaVuSans-6c" transform="translate(256.689453 0)"/>
     <use xlink:href="#DejaVuSans-20" transform="translate(284.472656 0)"/>
     <use xlink:href="#DejaVuSans-7c" transform="translate(316.259766 0)"/>
     <use xlink:href="#DejaVuSans-20" transform="translate(349.951172 0)"/>
     <use xlink:href="#DejaVuSans-4e" transform="translate(381.738281 0)"/>
     <use xlink:href="#DejaVuSans-61" transform="translate(456.542969 0)"/>
     <use xlink:href="#DejaVuSans-69" transform="translate(517.822266 0)"/>
     <use xlink:href="#DejaVuSans-76" transform="translate(545.605469 0)"/>
     <use xlink:href="#DejaVuSans-65" transform="translate(604.785156 0)"/>
    </g>
   </g>
   <g id="legend_1">
    <g id="line2d_12">
     <path d="M 110.56 46.867812 
L 125.56 46.867812 
L 140.56 46.867812 
" style="fill: none; stroke: #000000; stroke-width: 5; stroke-linecap: square"/>
    </g>
    <g id="text_12">
     <!-- Nonoccluded (NO) -->
     <g transform="translate(152.56 52.117812) scale(0.15 -0.15)">
      <defs>
       <path id="DejaVuSans-6e" d="M 3513 2113 
L 3513 0 
L 2938 0 
L 2938 2094 
Q 2938 2591 2744 2837 
Q 2550 3084 2163 3084 
Q 1697 3084 1428 2787 
Q 1159 2491 1159 1978 
L 1159 0 
L 581 0 
L 581 3500 
L 1159 3500 
L 1159 2956 
Q 1366 3272 1645 3428 
Q 1925 3584 2291 3584 
Q 2894 3584 3203 3211 
Q 3513 2838 3513 2113 
z
" transform="scale(0.015625)"/>
       <path id="DejaVuSans-64" d="M 2906 2969 
L 2906 4863 
L 3481 4863 
L 3481 0 
L 2906 0 
L 2906 525 
Q 2725 213 2448 61 
Q 2172 -91 1784 -91 
Q 1150 -91 751 415 
Q 353 922 353 1747 
Q 353 2572 751 3078 
Q 1150 3584 1784 3584 
Q 2172 3584 2448 3432 
Q 2725 3281 2906 2969 
z
M 947 1747 
Q 947 1113 1208 752 
Q 1469 391 1925 391 
Q 2381 391 2643 752 
Q 2906 1113 2906 1747 
Q 2906 2381 2643 2742 
Q 2381 3103 1925 3103 
Q 1469 3103 1208 2742 
Q 947 2381 947 1747 
z
" transform="scale(0.015625)"/>
       <path id="DejaVuSans-4f" d="M 2522 4238 
Q 1834 4238 1429 3725 
Q 1025 3213 1025 2328 
Q 1025 1447 1429 934 
Q 1834 422 2522 422 
Q 3209 422 3611 934 
Q 4013 1447 4013 2328 
Q 4013 3213 3611 3725 
Q 3209 4238 2522 4238 
z
M 2522 4750 
Q 3503 4750 4090 4092 
Q 4678 3434 4678 2328 
Q 4678 1225 4090 567 
Q 3503 -91 2522 -91 
Q 1538 -91 948 565 
Q 359 1222 359 2328 
Q 359 3434 948 4092 
Q 1538 4750 2522 4750 
z
" transform="scale(0.015625)"/>
      </defs>
      <use xlink:href="#DejaVuSans-4e"/>
      <use xlink:href="#DejaVuSans-6f" transform="translate(74.804688 0)"/>
      <use xlink:href="#DejaVuSans-6e" transform="translate(135.986328 0)"/>
      <use xlink:href="#DejaVuSans-6f" transform="translate(199.365234 0)"/>
      <use xlink:href="#DejaVuSans-63" transform="translate(260.546875 0)"/>
      <use xlink:href="#DejaVuSans-63" transform="translate(315.527344 0)"/>
      <use xlink:href="#DejaVuSans-6c" transform="translate(370.507812 0)"/>
      <use xlink:href="#DejaVuSans-75" transform="translate(398.291016 0)"/>
      <use xlink:href="#DejaVuSans-64" transform="translate(461.669922 0)"/>
      <use xlink:href="#DejaVuSans-65" transform="translate(525.146484 0)"/>
      <use xlink:href="#DejaVuSans-64" transform="translate(586.669922 0)"/>
      <use xlink:href="#DejaVuSans-20" transform="translate(650.146484 0)"/>
      <use xlink:href="#DejaVuSans-28" transform="translate(681.933594 0)"/>
      <use xlink:href="#DejaVuSans-4e" transform="translate(720.947266 0)"/>
      <use xlink:href="#DejaVuSans-4f" transform="translate(795.751953 0)"/>
      <use xlink:href="#DejaVuSans-29" transform="translate(874.462891 0)"/>
     </g>
    </g>
    <g id="line2d_13">
     <path d="M 110.56 68.885 
L 125.56 68.885 
L 140.56 68.885 
" style="fill: none; stroke: #ff0000; stroke-width: 5; stroke-linecap: square"/>
    </g>
    <g id="text_13">
     <!-- Occluded (O) -->
     <g transform="translate(152.56 74.135) scale(0.15 -0.15)">
      <use xlink:href="#DejaVuSans-4f"/>
      <use xlink:href="#DejaVuSans-63" transform="translate(78.710938 0)"/>
      <use xlink:href="#DejaVuSans-63" transform="translate(133.691406 0)"/>
      <use xlink:href="#DejaVuSans-6c" transform="translate(188.671875 0)"/>
      <use xlink:href="#DejaVuSans-75" transform="translate(216.455078 0)"/>
      <use xlink:href="#DejaVuSans-64" transform="translate(279.833984 0)"/>
      <use xlink:href="#DejaVuSans-65" transform="translate(343.310547 0)"/>
      <use xlink:href="#DejaVuSans-64" transform="translate(404.833984 0)"/>
      <use xlink:href="#DejaVuSans-20" transform="translate(468.310547 0)"/>
      <use xlink:href="#DejaVuSans-28" transform="translate(500.097656 0)"/>
      <use xlink:href="#DejaVuSans-4f" transform="translate(539.111328 0)"/>
      <use xlink:href="#DejaVuSans-29" transform="translate(617.822266 0)"/>
     </g>
    </g>
    <g id="line2d_14">
     <path d="M 110.56 90.902187 
L 125.56 90.902187 
L 140.56 90.902187 
" style="fill: none; stroke: #0000ff; stroke-width: 5; stroke-linecap: square"/>
    </g>
    <g id="text_14">
     <!-- No feedback -->
     <g transform="translate(152.56 96.152187) scale(0.15 -0.15)">
      <defs>
       <path id="DejaVuSans-66" d="M 2375 4863 
L 2375 4384 
L 1825 4384 
Q 1516 4384 1395 4259 
Q 1275 4134 1275 3809 
L 1275 3500 
L 2222 3500 
L 2222 3053 
L 1275 3053 
L 1275 0 
L 697 0 
L 697 3053 
L 147 3053 
L 147 3500 
L 697 3500 
L 697 3744 
Q 697 4328 969 4595 
Q 1241 4863 1831 4863 
L 2375 4863 
z
" transform="scale(0.015625)"/>
       <path id="DejaVuSans-62" d="M 3116 1747 
Q 3116 2381 2855 2742 
Q 2594 3103 2138 3103 
Q 1681 3103 1420 2742 
Q 1159 2381 1159 1747 
Q 1159 1113 1420 752 
Q 1681 391 2138 391 
Q 2594 391 2855 752 
Q 3116 1113 3116 1747 
z
M 1159 2969 
Q 1341 3281 1617 3432 
Q 1894 3584 2278 3584 
Q 2916 3584 3314 3078 
Q 3713 2572 3713 1747 
Q 3713 922 3314 415 
Q 2916 -91 2278 -91 
Q 1894 -91 1617 61 
Q 1341 213 1159 525 
L 1159 0 
L 581 0 
L 581 4863 
L 1159 4863 
L 1159 2969 
z
" transform="scale(0.015625)"/>
       <path id="DejaVuSans-6b" d="M 581 4863 
L 1159 4863 
L 1159 1991 
L 2875 3500 
L 3609 3500 
L 1753 1863 
L 3688 0 
L 2938 0 
L 1159 1709 
L 1159 0 
L 581 0 
L 581 4863 
z
" transform="scale(0.015625)"/>
      </defs>
      <use xlink:href="#DejaVuSans-4e"/>
      <use xlink:href="#DejaVuSans-6f" transform="translate(74.804688 0)"/>
      <use xlink:href="#DejaVuSans-20" transform="translate(135.986328 0)"/>
      <use xlink:href="#DejaVuSans-66" transform="translate(167.773438 0)"/>
      <use xlink:href="#DejaVuSans-65" transform="translate(202.978516 0)"/>
      <use xlink:href="#DejaVuSans-65" transform="translate(264.501953 0)"/>
      <use xlink:href="#DejaVuSans-64" transform="translate(326.025391 0)"/>
      <use xlink:href="#DejaVuSans-62" transform="translate(389.501953 0)"/>
      <use xlink:href="#DejaVuSans-61" transform="translate(452.978516 0)"/>
      <use xlink:href="#DejaVuSans-63" transform="translate(514.257812 0)"/>
      <use xlink:href="#DejaVuSans-6b" transform="translate(569.238281 0)"/>
     </g>
    </g>
   </g>
  </g>
  <g id="axes_2">
   <g id="patch_6">
    <path d="M 495.67601 322.75952 
L 855.01952 322.75952 
L 855.01952 31.720156 
L 495.67601 31.720156 
z
" style="fill: #ffffff"/>
   </g>
   <g id="matplotlib.axis_3">
    <g id="xtick_6">
     <g id="line2d_15">
      <g>
       <use xlink:href="#m9c27e69427" x="495.67601" y="322.75952" style="stroke: #000000; stroke-width: 1.6"/>
      </g>
     </g>
     <g id="text_15">
      <!-- -1 -->
      <g transform="translate(479.72351 355.57452) scale(0.32 -0.32)">
       <use xlink:href="#DejaVuSans-2d"/>
       <use xlink:href="#DejaVuSans-31" transform="translate(36.083984 0)"/>
      </g>
     </g>
    </g>
    <g id="xtick_7">
     <g id="line2d_16">
      <g>
       <use xlink:href="#m9c27e69427" x="585.511887" y="322.75952" style="stroke: #000000; stroke-width: 1.6"/>
      </g>
     </g>
     <g id="text_16">
      <!-- 0 -->
      <g transform="translate(575.331887 355.57452) scale(0.32 -0.32)">
       <use xlink:href="#DejaVuSans-30"/>
      </g>
     </g>
    </g>
    <g id="xtick_8">
     <g id="line2d_17">
      <g>
       <use xlink:href="#m9c27e69427" x="675.347765" y="322.75952" style="stroke: #000000; stroke-width: 1.6"/>
      </g>
     </g>
     <g id="text_17">
      <!-- 1 -->
      <g transform="translate(665.167765 355.57452) scale(0.32 -0.32)">
       <use xlink:href="#DejaVuSans-31"/>
      </g>
     </g>
    </g>
    <g id="xtick_9">
     <g id="line2d_18">
      <g>
       <use xlink:href="#m9c27e69427" x="765.183642" y="322.75952" style="stroke: #000000; stroke-width: 1.6"/>
      </g>
     </g>
     <g id="text_18">
      <!-- 2 -->
      <g transform="translate(755.003642 355.57452) scale(0.32 -0.32)">
       <use xlink:href="#DejaVuSans-32"/>
      </g>
     </g>
    </g>
    <g id="xtick_10">
     <g id="line2d_19">
      <g>
       <use xlink:href="#m9c27e69427" x="855.01952" y="322.75952" style="stroke: #000000; stroke-width: 1.6"/>
      </g>
     </g>
     <g id="text_19">
      <!-- 3 -->
      <g transform="translate(844.83952 355.57452) scale(0.32 -0.32)">
       <use xlink:href="#DejaVuSans-33"/>
      </g>
     </g>
    </g>
    <g id="text_20">
     <!-- Time (s) -->
     <g transform="translate(610.295265 390.54452) scale(0.32 -0.32)">
      <use xlink:href="#DejaVuSans-54"/>
      <use xlink:href="#DejaVuSans-69" transform="translate(57.958984 0)"/>
      <use xlink:href="#DejaVuSans-6d" transform="translate(85.742188 0)"/>
      <use xlink:href="#DejaVuSans-65" transform="translate(183.154297 0)"/>
      <use xlink:href="#DejaVuSans-20" transform="translate(244.677734 0)"/>
      <use xlink:href="#DejaVuSans-28" transform="translate(276.464844 0)"/>
      <use xlink:href="#DejaVuSans-73" transform="translate(315.478516 0)"/>
      <use xlink:href="#DejaVuSans-29" transform="translate(367.578125 0)"/>
     </g>
    </g>
   </g>
   <g id="matplotlib.axis_4">
    <g id="ytick_4">
     <g id="line2d_20">
      <g>
       <use xlink:href="#m75535a655a" x="495.67601" y="302.706933" style="stroke: #000000; stroke-width: 1.6"/>
      </g>
     </g>
    </g>
    <g id="ytick_5">
     <g id="line2d_21">
      <g>
       <use xlink:href="#m75535a655a" x="495.67601" y="175.591824" style="stroke: #000000; stroke-width: 1.6"/>
      </g>
     </g>
    </g>
    <g id="ytick_6">
     <g id="line2d_22">
      <g>
       <use xlink:href="#m75535a655a" x="495.67601" y="48.476715" style="stroke: #000000; stroke-width: 1.6"/>
      </g>
     </g>
    </g>
   </g>
   <g id="line2d_23">
    <path d="M 496.574369 299.796368 
L 501.964521 300.5674 
L 508.253033 301.212818 
L 515.439903 301.715707 
L 524.423491 302.113449 
L 536.102155 302.402273 
L 554.06933 302.597717 
L 584.613529 302.68784 
L 585.511887 283.45578 
L 588.206964 286.201475 
L 590.90204 288.555567 
L 593.597116 290.573905 
L 596.292193 292.304379 
L 598.987269 293.788043 
L 601.682345 295.0601 
L 605.275781 296.47854 
L 608.869216 297.633868 
L 612.462651 298.57489 
L 616.954445 299.509637 
L 622.344597 300.356627 
L 627.73475 300.979242 
L 634.92162 301.560748 
L 643.006849 301.984551 
L 653.787154 302.316587 
L 669.059254 302.543722 
L 688.823147 302.654129 
L 689.721505 299.468519 
L 690.619864 299.436739 
L 695.111658 300.176519 
L 700.501811 300.846847 
L 706.790322 301.407966 
L 710.383757 301.648916 
L 711.282116 299.334952 
L 712.180475 292.593809 
L 713.078834 286.842272 
L 713.977192 285.658618 
L 716.672269 288.090134 
L 719.367345 290.174856 
L 720.265704 289.182228 
L 721.164063 288.94014 
L 723.859139 290.903629 
L 726.554215 292.587075 
L 729.249291 294.030421 
L 731.944368 295.267909 
L 735.537803 296.647802 
L 739.131238 297.771732 
L 742.724673 298.687181 
L 747.216467 299.596526 
L 752.60662 300.420498 
L 758.895131 301.110231 
L 766.082001 301.647649 
L 775.065589 302.072701 
L 780.455742 302.240714 
L 781.3541 301.256753 
L 786.744253 301.640918 
L 787.642612 300.287945 
L 793.032765 300.928755 
L 799.321276 301.465165 
L 807.406505 301.92431 
L 810.99994 302.069482 
L 811.898299 299.868314 
L 817.288451 300.620288 
L 823.576963 301.249751 
L 830.763833 301.740209 
L 839.747421 302.12812 
L 852.324444 302.424661 
L 854.121161 302.452182 
L 854.121161 302.452182 
" clip-path="url(#pd713561294)" style="fill: none; stroke: #000000; stroke-width: 5; stroke-linecap: square"/>
   </g>
   <g id="line2d_24">
    <path d="M 496.574369 291.11363 
L 498.371086 292.243977 
L 499.269445 291.886116 
L 500.167804 289.300044 
L 502.86288 291.212201 
L 503.761239 289.63596 
L 504.659598 281.633634 
L 507.354674 284.639215 
L 510.04975 287.216124 
L 511.846468 288.726478 
L 512.744827 288.022347 
L 515.439903 290.116737 
L 516.338262 290.746246 
L 517.236621 289.644526 
L 519.931697 291.507552 
L 520.830056 287.366833 
L 523.525132 289.554715 
L 526.220208 291.430551 
L 528.915285 293.038844 
L 529.813643 292.346115 
L 532.50872 293.823828 
L 534.305437 294.689931 
L 535.203796 293.786307 
L 537.898872 295.058612 
L 541.492308 296.477328 
L 542.390666 291.345691 
L 545.085743 292.966088 
L 545.984101 293.45313 
L 546.88246 290.025777 
L 547.780819 290.659835 
L 549.577536 291.698473 
L 551.374254 292.771799 
L 552.272613 288.644889 
L 553.170972 286.553452 
L 555.866048 288.857344 
L 557.662765 290.207679 
L 558.561124 288.67665 
L 561.256201 290.677719 
L 562.154559 291.27918 
L 563.052918 289.818701 
L 563.951277 290.463113 
L 564.849636 289.056015 
L 565.747994 289.738561 
L 566.646353 283.665988 
L 567.544712 284.618036 
L 568.443071 284.903396 
L 569.34143 273.386473 
L 571.138147 276.245217 
L 573.833223 280.01932 
L 576.5283 283.255142 
L 579.223376 286.029454 
L 581.020094 287.655509 
L 581.918452 284.070187 
L 584.613529 286.62754 
L 585.511887 224.161668 
L 586.410246 172.486352 
L 587.308605 132.698479 
L 588.206964 120.165239 
L 589.105323 98.176643 
L 590.003681 87.25187 
L 590.90204 77.997048 
L 591.800399 87.236811 
L 592.698758 84.752333 
L 593.597116 77.707354 
L 594.495475 75.352096 
L 595.393834 62.327397 
L 596.292193 59.252413 
L 597.190552 63.742431 
L 598.08891 63.863468 
L 598.987269 70.508532 
L 600.783987 57.699484 
L 601.682345 62.749094 
L 602.580704 66.729374 
L 603.479063 69.747931 
L 604.377422 80.492512 
L 605.275781 83.237874 
L 606.174139 79.07153 
L 607.072498 78.236735 
L 607.970857 76.542975 
L 608.869216 86.31407 
L 609.767574 92.565754 
L 610.665933 72.771469 
L 611.564292 78.868647 
L 612.462651 78.855331 
L 613.36101 66.019783 
L 614.259368 58.391043 
L 615.157727 68.016818 
L 616.056086 75.810294 
L 616.954445 80.054961 
L 617.852803 91.187561 
L 618.751162 95.961514 
L 620.54788 99.675513 
L 621.446238 106.426574 
L 622.344597 101.490992 
L 624.141315 75.272389 
L 625.039674 66.770819 
L 625.938032 77.53866 
L 626.836391 76.594723 
L 627.73475 85.459689 
L 628.633109 88.643246 
L 629.531467 97.993155 
L 630.429826 94.136716 
L 631.328185 97.809062 
L 633.124903 87.471365 
L 634.023261 95.837674 
L 634.92162 101.957335 
L 635.819979 96.642958 
L 636.718338 93.42775 
L 637.616696 91.602326 
L 638.515055 102.157567 
L 639.413414 98.221118 
L 640.311773 91.676975 
L 641.210132 83.061736 
L 642.10849 79.916952 
L 643.006849 80.756956 
L 643.905208 78.630134 
L 644.803567 73.274332 
L 646.600284 85.153479 
L 647.498643 72.67767 
L 648.397002 66.808759 
L 649.295361 57.881418 
L 650.193719 53.495087 
L 651.092078 54.17314 
L 651.990437 66.438999 
L 652.888796 66.277635 
L 653.787154 78.099105 
L 654.685513 80.307017 
L 655.583872 69.27494 
L 656.482231 68.682957 
L 657.380589 64.025154 
L 658.278948 65.438919 
L 659.177307 70.521109 
L 660.075666 61.474455 
L 660.974025 65.584826 
L 661.872383 64.647273 
L 662.770742 69.991842 
L 663.669101 73.274313 
L 664.56746 69.283198 
L 665.465818 74.655972 
L 666.364177 72.871746 
L 667.262536 67.187572 
L 668.160895 69.185308 
L 669.059254 56.971671 
L 669.957612 61.115057 
L 670.855971 63.25476 
L 671.75433 55.040553 
L 672.652689 51.791837 
L 673.551047 55.140546 
L 674.449406 65.258538 
L 676.246124 88.409753 
L 678.042841 109.303731 
L 679.839559 128.160538 
L 681.636276 145.178814 
L 683.432994 160.537812 
L 685.229712 174.399305 
L 687.026429 186.909302 
L 688.823147 198.199583 
L 690.619864 208.389051 
L 692.416582 217.58505 
L 694.213299 225.884438 
L 696.010017 233.374634 
L 697.806734 240.134537 
L 699.603452 246.235346 
L 701.400169 251.741327 
L 703.196887 256.710473 
L 704.993605 261.195126 
L 706.790322 265.242528 
L 708.58704 268.895307 
L 709.485398 270.58589 
L 710.383757 270.398969 
L 711.282116 272.014368 
L 712.180475 271.017224 
L 713.977192 274.106973 
L 715.77391 276.895469 
L 718.468986 280.576829 
L 721.164063 283.733136 
L 722.062421 284.681826 
L 723.859139 286.098075 
L 724.757498 283.766858 
L 727.452574 286.468188 
L 730.14765 288.784239 
L 732.842727 290.769964 
L 735.537803 292.472474 
L 738.232879 293.932164 
L 740.029597 294.787704 
L 740.927956 288.346195 
L 743.623032 290.394396 
L 746.318108 292.150471 
L 748.114826 293.179727 
L 749.013185 292.717015 
L 750.809902 293.691033 
L 751.708261 291.924118 
L 754.403337 293.462018 
L 755.301696 293.924264 
L 756.200055 293.754721 
L 758.895131 295.03153 
L 759.79349 295.361425 
L 760.691849 286.270401 
L 763.386925 288.614662 
L 764.285284 284.808268 
L 766.98036 287.361065 
L 769.675436 289.54977 
L 770.573795 290.207628 
L 771.472154 287.116455 
L 772.370513 287.895979 
L 773.268871 288.445657 
L 775.963948 290.479671 
L 777.760665 291.67183 
L 778.659024 286.109484 
L 779.557383 279.759573 
L 782.252459 283.032442 
L 783.150818 284.016167 
L 784.049177 278.305098 
L 784.947536 276.130668 
L 787.642612 279.921108 
L 790.337688 283.170937 
L 793.032765 285.957258 
L 795.727841 288.346181 
L 797.524558 289.746355 
L 798.422917 289.569265 
L 801.117993 291.443025 
L 803.81307 293.049541 
L 804.711429 293.532411 
L 805.609787 292.596235 
L 806.508146 288.600275 
L 809.203222 290.612237 
L 810.99994 291.79147 
L 812.796658 290.424058 
L 813.695016 291.038202 
L 814.593375 288.817825 
L 815.491734 285.889966 
L 818.18681 288.288486 
L 820.881887 290.344918 
L 823.576963 292.108051 
L 824.475322 289.594197 
L 825.37368 290.249834 
L 826.272039 287.619609 
L 827.170398 288.373976 
L 828.068757 288.434215 
L 830.763833 290.469862 
L 833.458909 292.215174 
L 834.357268 288.893858 
L 837.052344 290.86395 
L 839.747421 292.553055 
L 842.442497 294.001253 
L 845.137573 295.242901 
L 846.035932 291.393264 
L 848.731009 293.006877 
L 849.629367 293.49188 
L 850.527726 288.8885 
L 851.426085 288.065027 
L 852.324444 286.546603 
L 853.222802 287.35462 
L 854.121161 285.939542 
L 854.121161 285.939542 
" clip-path="url(#pd713561294)" style="fill: none; stroke: #ff0000; stroke-width: 5; stroke-linecap: square"/>
   </g>
   <g id="line2d_25">
    <path d="M 496.574369 300.851877 
L 502.86288 301.411478 
L 510.948109 301.890474 
L 520.830056 302.242531 
L 534.305437 302.49178 
L 538.797231 302.540452 
L 539.69559 298.81135 
L 540.593949 293.12084 
L 541.492308 292.510378 
L 544.187384 293.964662 
L 545.085743 294.401776 
L 545.984101 294.048582 
L 546.88246 294.481499 
L 547.780819 288.414713 
L 550.475895 290.453141 
L 551.374254 289.567392 
L 554.06933 291.441418 
L 556.764407 293.048162 
L 559.459483 294.425745 
L 563.052918 295.961854 
L 566.646353 297.213024 
L 570.239788 298.23211 
L 574.731582 299.2444 
L 578.325017 299.886679 
L 579.223376 297.239323 
L 582.816811 298.253531 
L 587.308605 299.260975 
L 591.800399 300.040517 
L 597.190552 300.746873 
L 603.479063 301.33815 
L 611.564292 301.844259 
L 621.446238 302.216244 
L 634.92162 302.479601 
L 655.583872 302.637061 
L 678.042841 302.687552 
L 678.9412 299.333987 
L 683.432994 300.097012 
L 688.823147 300.788402 
L 690.619864 300.975459 
L 691.518223 300.396064 
L 692.416582 298.574295 
L 696.908376 299.509177 
L 702.298528 300.356288 
L 704.993605 300.691549 
L 705.891963 298.638622 
L 710.383757 299.558952 
L 715.77391 300.392878 
L 717.570627 300.618498 
L 718.468986 297.58578 
L 721.164063 298.316185 
L 722.062421 296.710789 
L 723.859139 297.295414 
L 724.757498 295.130493 
L 725.655856 295.509315 
L 726.554215 294.902694 
L 730.14765 296.350332 
L 733.741085 297.529442 
L 737.33452 298.489835 
L 741.826314 299.443823 
L 743.623032 299.761976 
L 744.521391 298.795807 
L 745.419749 296.780172 
L 746.318108 289.678709 
L 747.216467 286.374653 
L 748.114826 284.318661 
L 750.809902 286.941289 
L 753.504978 289.189864 
L 756.200055 291.117737 
L 758.895131 292.770647 
L 761.590207 294.18781 
L 764.285284 295.402851 
L 767.878719 296.757712 
L 771.472154 297.861256 
L 775.065589 298.760099 
L 779.557383 299.652948 
L 784.947536 300.461974 
L 791.236047 301.139195 
L 798.422917 301.666864 
L 802.914711 301.902147 
L 803.81307 297.791703 
L 804.711429 291.797071 
L 807.406505 293.35309 
L 810.101581 294.687183 
L 813.695016 296.174797 
L 817.288451 297.386467 
L 820.881887 298.37338 
L 825.37368 299.353713 
L 829.865474 300.112275 
L 832.560551 300.482338 
L 833.458909 298.383051 
L 834.357268 294.093594 
L 837.052344 295.322072 
L 837.950703 294.401014 
L 841.544138 295.94171 
L 845.137573 297.196618 
L 848.731009 298.218747 
L 853.222802 299.234061 
L 854.121161 299.407704 
L 854.121161 299.407704 
" clip-path="url(#pd713561294)" style="fill: none; stroke: #0000ff; stroke-width: 5; stroke-linecap: square"/>
   </g>
   <g id="patch_7">
    <path d="M 495.67601 322.75952 
L 495.67601 31.720156 
" style="fill: none; stroke: #000000; stroke-width: 5; stroke-linejoin: miter; stroke-linecap: square"/>
   </g>
   <g id="patch_8">
    <path d="M 495.67601 322.75952 
L 855.01952 322.75952 
" style="fill: none; stroke: #000000; stroke-width: 5; stroke-linejoin: miter; stroke-linecap: square"/>
   </g>
   <g id="patch_9">
    <path d="M 585.511887 316.938733 
L 675.347765 316.938733 
L 675.347765 306.752355 
L 585.511887 306.752355 
z
" style="fill: #8c5a2b; stroke: #8c5a2b; stroke-linejoin: miter"/>
   </g>
   <g id="text_21">
    <!-- Novel | Expert -->
    <g transform="translate(607.949718 21.720156) scale(0.19 -0.19)">
     <defs>
      <path id="DejaVuSans-45" d="M 628 4666 
L 3578 4666 
L 3578 4134 
L 1259 4134 
L 1259 2753 
L 3481 2753 
L 3481 2222 
L 1259 2222 
L 1259 531 
L 3634 531 
L 3634 0 
L 628 0 
L 628 4666 
z
" transform="scale(0.015625)"/>
      <path id="DejaVuSans-78" d="M 3513 3500 
L 2247 1797 
L 3578 0 
L 2900 0 
L 1881 1375 
L 863 0 
L 184 0 
L 1544 1831 
L 300 3500 
L 978 3500 
L 1906 2253 
L 2834 3500 
L 3513 3500 
z
" transform="scale(0.015625)"/>
      <path id="DejaVuSans-70" d="M 1159 525 
L 1159 -1331 
L 581 -1331 
L 581 3500 
L 1159 3500 
L 1159 2969 
Q 1341 3281 1617 3432 
Q 1894 3584 2278 3584 
Q 2916 3584 3314 3078 
Q 3713 2572 3713 1747 
Q 3713 922 3314 415 
Q 2916 -91 2278 -91 
Q 1894 -91 1617 61 
Q 1341 213 1159 525 
z
M 3116 1747 
Q 3116 2381 2855 2742 
Q 2594 3103 2138 3103 
Q 1681 3103 1420 2742 
Q 1159 2381 1159 1747 
Q 1159 1113 1420 752 
Q 1681 391 2138 391 
Q 2594 391 2855 752 
Q 3116 1113 3116 1747 
z
" transform="scale(0.015625)"/>
     </defs>
     <use xlink:href="#DejaVuSans-4e"/>
     <use xlink:href="#DejaVuSans-6f" transform="translate(74.804688 0)"/>
     <use xlink:href="#DejaVuSans-76" transform="translate(135.986328 0)"/>
     <use xlink:href="#DejaVuSans-65" transform="translate(195.166016 0)"/>
     <use xlink:href="#DejaVuSans-6c" transform="translate(256.689453 0)"/>
     <use xlink:href="#DejaVuSans-20" transform="translate(284.472656 0)"/>
     <use xlink:href="#DejaVuSans-7c" transform="translate(316.259766 0)"/>
     <use xlink:href="#DejaVuSans-20" transform="translate(349.951172 0)"/>
     <use xlink:href="#DejaVuSans-45" transform="translate(381.738281 0)"/>
     <use xlink:href="#DejaVuSans-78" transform="translate(444.921875 0)"/>
     <use xlink:href="#DejaVuSans-70" transform="translate(504.101562 0)"/>
     <use xlink:href="#DejaVuSans-65" transform="translate(567.578125 0)"/>
     <use xlink:href="#DejaVuSans-72" transform="translate(629.101562 0)"/>
     <use xlink:href="#DejaVuSans-74" transform="translate(670.214844 0)"/>
    </g>
   </g>
  </g>
 </g>
 <defs>
  <clipPath id="p5c76bd49fd">
   <rect x="101.56" y="31.720156" width="359.34351" height="291.039364"/>
  </clipPath>
  <clipPath id="pd713561294">
   <rect x="495.67601" y="31.720156" width="359.34351" height="291.039364"/>
  </clipPath>
 </defs>
</svg>
