<?xml version="1.0" encoding="utf-8" standalone="no"?>
<!DOCTYPE svg PUBLIC "-//W3C//DTD SVG 1.1//EN"
  "http://www.w3.org/Graphics/SVG/1.1/DTD/svg11.dtd">
<svg xmlns:xlink="http://www.w3.org/1999/xlink" width="872.39952pt" height="404.39952pt" viewBox="0 0 872.39952 404.39952" xmlns="http://www.w3.org/2000/svg" version="1.1">
 <metadata>
  <rdf:RDF xmlns:dc="http://purl.org/dc/elements/1.1/" xmlns:cc="http://creativecommons.org/ns#" xmlns:rdf="http://www.w3.org/1999/02/22-rdf-syntax-ns#">
   <cc:Work>
    <dc:type rdf:resource="http://purl.org/dc/dcmitype/StillImage"/>
    <dc:date>2026-03-25T11:55:18.572205</dc:date>
    <dc:format>image/svg+xml</dc:format>
    <dc:creator>
     <cc:Agent>
      <dc:title>Matplotlib v3.10.7, https://matplotlib.org/</dc:title>
     </cc:Agent>
    </dc:creator>
   </cc:Work>
  </rdf:RDF>
 </metadata>
 <defs>
  <style type="text/css">*{stroke-linejoin: round; stroke-linecap: butt}</style>
 </defs>
 <g id="figure_1">
  <g id="patch_1">
   <path d="M 0 404.39952 
L 872.39952 404.39952 
L 872.39952 0 
L 0 0 
z
" style="fill: #ffffff"/>
  </g>
  <g id="axes_1">
   <g id="patch_2">
    <path d="M 121.92 322.75952 
L 471.08351 322.75952 
L 471.08351 31.720156 
L 121.92 31.720156 
z
" style="fill: #ffffff"/>
   </g>
   <g id="matplotlib.axis_1">
    <g id="xtick_1">
     <g id="line2d_1">
      <defs>
       <path id="mb5e14af2ff" d="M 0 0 
L 0 5 
" style="stroke: #000000; stroke-width: 1.6"/>
      </defs>
      <g>
       <use xlink:href="#mb5e14af2ff" x="121.92" y="322.75952" style="stroke: #000000; stroke-width: 1.6"/>
      </g>
     </g>
     <g id="text_1">
      <!-- -1 -->
      <g transform="translate(105.9675 355.57452) scale(0.32 -0.32)">
       <defs>
        <path id="DejaVuSans-2d" d="M 313 2009 
L 1997 2009 
L 1997 1497 
L 313 1497 
L 313 2009 
z
" transform="scale(0.015625)"/>
        <path id="DejaVuSans-31" d="M 794 531 
L 1825 531 
L 1825 4091 
L 703 3866 
L 703 4441 
L 1819 4666 
L 2450 4666 
L 2450 531 
L 3481 531 
L 3481 0 
L 794 0 
L 794 531 
z
" transform="scale(0.015625)"/>
       </defs>
       <use xlink:href="#DejaVuSans-2d"/>
       <use xlink:href="#DejaVuSans-31" transform="translate(36.083984 0)"/>
      </g>
     </g>
    </g>
    <g id="xtick_2">
     <g id="line2d_2">
      <g>
       <use xlink:href="#mb5e14af2ff" x="209.210878" y="322.75952" style="stroke: #000000; stroke-width: 1.6"/>
      </g>
     </g>
     <g id="text_2">
      <!-- 0 -->
      <g transform="translate(199.030878 355.57452) scale(0.32 -0.32)">
       <defs>
        <path id="DejaVuSans-30" d="M 2034 4250 
Q 1547 4250 1301 3770 
Q 1056 3291 1056 2328 
Q 1056 1369 1301 889 
Q 1547 409 2034 409 
Q 2525 409 2770 889 
Q 3016 1369 3016 2328 
Q 3016 3291 2770 3770 
Q 2525 4250 2034 4250 
z
M 2034 4750 
Q 2819 4750 3233 4129 
Q 3647 3509 3647 2328 
Q 3647 1150 3233 529 
Q 2819 -91 2034 -91 
Q 1250 -91 836 529 
Q 422 1150 422 2328 
Q 422 3509 836 4129 
Q 1250 4750 2034 4750 
z
" transform="scale(0.015625)"/>
       </defs>
       <use xlink:href="#DejaVuSans-30"/>
      </g>
     </g>
    </g>
    <g id="xtick_3">
     <g id="line2d_3">
      <g>
       <use xlink:href="#mb5e14af2ff" x="296.501755" y="322.75952" style="stroke: #000000; stroke-width: 1.6"/>
      </g>
     </g>
     <g id="text_3">
      <!-- 1 -->
      <g transform="translate(286.321755 355.57452) scale(0.32 -0.32)">
       <use xlink:href="#DejaVuSans-31"/>
      </g>
     </g>
    </g>
    <g id="xtick_4">
     <g id="line2d_4">
      <g>
       <use xlink:href="#mb5e14af2ff" x="383.792633" y="322.75952" style="stroke: #000000; stroke-width: 1.6"/>
      </g>
     </g>
     <g id="text_4">
      <!-- 2 -->
      <g transform="translate(373.612633 355.57452) scale(0.32 -0.32)">
       <defs>
        <path id="DejaVuSans-32" d="M 1228 531 
L 3431 531 
L 3431 0 
L 469 0 
L 469 531 
Q 828 903 1448 1529 
Q 2069 2156 2228 2338 
Q 2531 2678 2651 2914 
Q 2772 3150 2772 3378 
Q 2772 3750 2511 3984 
Q 2250 4219 1831 4219 
Q 1534 4219 1204 4116 
Q 875 4013 500 3803 
L 500 4441 
Q 881 4594 1212 4672 
Q 1544 4750 1819 4750 
Q 2544 4750 2975 4387 
Q 3406 4025 3406 3419 
Q 3406 3131 3298 2873 
Q 3191 2616 2906 2266 
Q 2828 2175 2409 1742 
Q 1991 1309 1228 531 
z
" transform="scale(0.015625)"/>
       </defs>
       <use xlink:href="#DejaVuSans-32"/>
      </g>
     </g>
    </g>
    <g id="xtick_5">
     <g id="line2d_5">
      <g>
       <use xlink:href="#mb5e14af2ff" x="471.08351" y="322.75952" style="stroke: #000000; stroke-width: 1.6"/>
      </g>
     </g>
     <g id="text_5">
      <!-- 3 -->
      <g transform="translate(460.90351 355.57452) scale(0.32 -0.32)">
       <defs>
        <path id="DejaVuSans-33" d="M 2597 2516 
Q 3050 2419 3304 2112 
Q 3559 1806 3559 1356 
Q 3559 666 3084 287 
Q 2609 -91 1734 -91 
Q 1441 -91 1130 -33 
Q 819 25 488 141 
L 488 750 
Q 750 597 1062 519 
Q 1375 441 1716 441 
Q 2309 441 2620 675 
Q 2931 909 2931 1356 
Q 2931 1769 2642 2001 
Q 2353 2234 1838 2234 
L 1294 2234 
L 1294 2753 
L 1863 2753 
Q 2328 2753 2575 2939 
Q 2822 3125 2822 3475 
Q 2822 3834 2567 4026 
Q 2313 4219 1838 4219 
Q 1578 4219 1281 4162 
Q 984 4106 628 3988 
L 628 4550 
Q 988 4650 1302 4700 
Q 1616 4750 1894 4750 
Q 2613 4750 3031 4423 
Q 3450 4097 3450 3541 
Q 3450 3153 3228 2886 
Q 3006 2619 2597 2516 
z
" transform="scale(0.015625)"/>
       </defs>
       <use xlink:href="#DejaVuSans-33"/>
      </g>
     </g>
    </g>
    <g id="text_6">
     <!-- Time (s) -->
     <g transform="translate(231.449255 390.54452) scale(0.32 -0.32)">
      <defs>
       <path id="DejaVuSans-54" d="M -19 4666 
L 3928 4666 
L 3928 4134 
L 2272 4134 
L 2272 0 
L 1638 0 
L 1638 4134 
L -19 4134 
L -19 4666 
z
" transform="scale(0.015625)"/>
       <path id="DejaVuSans-69" d="M 603 3500 
L 1178 3500 
L 1178 0 
L 603 0 
L 603 3500 
z
M 603 4863 
L 1178 4863 
L 1178 4134 
L 603 4134 
L 603 4863 
z
" transform="scale(0.015625)"/>
       <path id="DejaVuSans-6d" d="M 3328 2828 
Q 3544 3216 3844 3400 
Q 4144 3584 4550 3584 
Q 5097 3584 5394 3201 
Q 5691 2819 5691 2113 
L 5691 0 
L 5113 0 
L 5113 2094 
Q 5113 2597 4934 2840 
Q 4756 3084 4391 3084 
Q 3944 3084 3684 2787 
Q 3425 2491 3425 1978 
L 3425 0 
L 2847 0 
L 2847 2094 
Q 2847 2600 2669 2842 
Q 2491 3084 2119 3084 
Q 1678 3084 1418 2786 
Q 1159 2488 1159 1978 
L 1159 0 
L 581 0 
L 581 3500 
L 1159 3500 
L 1159 2956 
Q 1356 3278 1631 3431 
Q 1906 3584 2284 3584 
Q 2666 3584 2933 3390 
Q 3200 3197 3328 2828 
z
" transform="scale(0.015625)"/>
       <path id="DejaVuSans-65" d="M 3597 1894 
L 3597 1613 
L 953 1613 
Q 991 1019 1311 708 
Q 1631 397 2203 397 
Q 2534 397 2845 478 
Q 3156 559 3463 722 
L 3463 178 
Q 3153 47 2828 -22 
Q 2503 -91 2169 -91 
Q 1331 -91 842 396 
Q 353 884 353 1716 
Q 353 2575 817 3079 
Q 1281 3584 2069 3584 
Q 2775 3584 3186 3129 
Q 3597 2675 3597 1894 
z
M 3022 2063 
Q 3016 2534 2758 2815 
Q 2500 3097 2075 3097 
Q 1594 3097 1305 2825 
Q 1016 2553 972 2059 
L 3022 2063 
z
" transform="scale(0.015625)"/>
       <path id="DejaVuSans-20" transform="scale(0.015625)"/>
       <path id="DejaVuSans-28" d="M 1984 4856 
Q 1566 4138 1362 3434 
Q 1159 2731 1159 2009 
Q 1159 1288 1364 580 
Q 1569 -128 1984 -844 
L 1484 -844 
Q 1016 -109 783 600 
Q 550 1309 550 2009 
Q 550 2706 781 3412 
Q 1013 4119 1484 4856 
L 1984 4856 
z
" transform="scale(0.015625)"/>
       <path id="DejaVuSans-73" d="M 2834 3397 
L 2834 2853 
Q 2591 2978 2328 3040 
Q 2066 3103 1784 3103 
Q 1356 3103 1142 2972 
Q 928 2841 928 2578 
Q 928 2378 1081 2264 
Q 1234 2150 1697 2047 
L 1894 2003 
Q 2506 1872 2764 1633 
Q 3022 1394 3022 966 
Q 3022 478 2636 193 
Q 2250 -91 1575 -91 
Q 1294 -91 989 -36 
Q 684 19 347 128 
L 347 722 
Q 666 556 975 473 
Q 1284 391 1588 391 
Q 1994 391 2212 530 
Q 2431 669 2431 922 
Q 2431 1156 2273 1281 
Q 2116 1406 1581 1522 
L 1381 1569 
Q 847 1681 609 1914 
Q 372 2147 372 2553 
Q 372 3047 722 3315 
Q 1072 3584 1716 3584 
Q 2034 3584 2315 3537 
Q 2597 3491 2834 3397 
z
" transform="scale(0.015625)"/>
       <path id="DejaVuSans-29" d="M 513 4856 
L 1013 4856 
Q 1481 4119 1714 3412 
Q 1947 2706 1947 2009 
Q 1947 1309 1714 600 
Q 1481 -109 1013 -844 
L 513 -844 
Q 928 -128 1133 580 
Q 1338 1288 1338 2009 
Q 1338 2731 1133 3434 
Q 928 4138 513 4856 
z
" transform="scale(0.015625)"/>
      </defs>
      <use xlink:href="#DejaVuSans-54"/>
      <use xlink:href="#DejaVuSans-69" transform="translate(57.958984 0)"/>
      <use xlink:href="#DejaVuSans-6d" transform="translate(85.742188 0)"/>
      <use xlink:href="#DejaVuSans-65" transform="translate(183.154297 0)"/>
      <use xlink:href="#DejaVuSans-20" transform="translate(244.677734 0)"/>
      <use xlink:href="#DejaVuSans-28" transform="translate(276.464844 0)"/>
      <use xlink:href="#DejaVuSans-73" transform="translate(315.478516 0)"/>
      <use xlink:href="#DejaVuSans-29" transform="translate(367.578125 0)"/>
     </g>
    </g>
   </g>
   <g id="matplotlib.axis_2">
    <g id="ytick_1">
     <g id="line2d_6">
      <defs>
       <path id="mac9292cd3d" d="M 0 0 
L -5 0 
" style="stroke: #000000; stroke-width: 1.6"/>
      </defs>
      <g>
       <use xlink:href="#mac9292cd3d" x="121.92" y="302.810298" style="stroke: #000000; stroke-width: 1.6"/>
      </g>
     </g>
     <g id="text_7">
      <!-- 0.00 -->
      <g transform="translate(42.17 314.967798) scale(0.32 -0.32)">
       <defs>
        <path id="DejaVuSans-2e" d="M 684 794 
L 1344 794 
L 1344 0 
L 684 0 
L 684 794 
z
" transform="scale(0.015625)"/>
       </defs>
       <use xlink:href="#DejaVuSans-30"/>
       <use xlink:href="#DejaVuSans-2e" transform="translate(63.623047 0)"/>
       <use xlink:href="#DejaVuSans-30" transform="translate(95.410156 0)"/>
       <use xlink:href="#DejaVuSans-30" transform="translate(159.033203 0)"/>
      </g>
     </g>
    </g>
    <g id="ytick_2">
     <g id="line2d_7">
      <g>
       <use xlink:href="#mac9292cd3d" x="121.92" y="214.743447" style="stroke: #000000; stroke-width: 1.6"/>
      </g>
     </g>
     <g id="text_8">
      <!-- 0.01 -->
      <g transform="translate(42.17 226.900947) scale(0.32 -0.32)">
       <use xlink:href="#DejaVuSans-30"/>
       <use xlink:href="#DejaVuSans-2e" transform="translate(63.623047 0)"/>
       <use xlink:href="#DejaVuSans-30" transform="translate(95.410156 0)"/>
       <use xlink:href="#DejaVuSans-31" transform="translate(159.033203 0)"/>
      </g>
     </g>
    </g>
    <g id="ytick_3">
     <g id="line2d_8">
      <g>
       <use xlink:href="#mac9292cd3d" x="121.92" y="126.676596" style="stroke: #000000; stroke-width: 1.6"/>
      </g>
     </g>
     <g id="text_9">
      <!-- 0.02 -->
      <g transform="translate(42.17 138.834096) scale(0.32 -0.32)">
       <use xlink:href="#DejaVuSans-30"/>
       <use xlink:href="#DejaVuSans-2e" transform="translate(63.623047 0)"/>
       <use xlink:href="#DejaVuSans-30" transform="translate(95.410156 0)"/>
       <use xlink:href="#DejaVuSans-32" transform="translate(159.033203 0)"/>
      </g>
     </g>
    </g>
    <g id="ytick_4">
     <g id="line2d_9">
      <g>
       <use xlink:href="#mac9292cd3d" x="121.92" y="38.609745" style="stroke: #000000; stroke-width: 1.6"/>
      </g>
     </g>
     <g id="text_10">
      <!-- 0.03 -->
      <g transform="translate(42.17 50.767245) scale(0.32 -0.32)">
       <use xlink:href="#DejaVuSans-30"/>
       <use xlink:href="#DejaVuSans-2e" transform="translate(63.623047 0)"/>
       <use xlink:href="#DejaVuSans-30" transform="translate(95.410156 0)"/>
       <use xlink:href="#DejaVuSans-33" transform="translate(159.033203 0)"/>
      </g>
     </g>
    </g>
    <g id="text_11">
     <!-- Neural Activity -->
     <g transform="translate(31.515 294.944838) rotate(-90) scale(0.32 -0.32)">
      <defs>
       <path id="DejaVuSans-4e" d="M 628 4666 
L 1478 4666 
L 3547 763 
L 3547 4666 
L 4159 4666 
L 4159 0 
L 3309 0 
L 1241 3903 
L 1241 0 
L 628 0 
L 628 4666 
z
" transform="scale(0.015625)"/>
       <path id="DejaVuSans-75" d="M 544 1381 
L 544 3500 
L 1119 3500 
L 1119 1403 
Q 1119 906 1312 657 
Q 1506 409 1894 409 
Q 2359 409 2629 706 
Q 2900 1003 2900 1516 
L 2900 3500 
L 3475 3500 
L 3475 0 
L 2900 0 
L 2900 538 
Q 2691 219 2414 64 
Q 2138 -91 1772 -91 
Q 1169 -91 856 284 
Q 544 659 544 1381 
z
M 1991 3584 
L 1991 3584 
z
" transform="scale(0.015625)"/>
       <path id="DejaVuSans-72" d="M 2631 2963 
Q 2534 3019 2420 3045 
Q 2306 3072 2169 3072 
Q 1681 3072 1420 2755 
Q 1159 2438 1159 1844 
L 1159 0 
L 581 0 
L 581 3500 
L 1159 3500 
L 1159 2956 
Q 1341 3275 1631 3429 
Q 1922 3584 2338 3584 
Q 2397 3584 2469 3576 
Q 2541 3569 2628 3553 
L 2631 2963 
z
" transform="scale(0.015625)"/>
       <path id="DejaVuSans-61" d="M 2194 1759 
Q 1497 1759 1228 1600 
Q 959 1441 959 1056 
Q 959 750 1161 570 
Q 1363 391 1709 391 
Q 2188 391 2477 730 
Q 2766 1069 2766 1631 
L 2766 1759 
L 2194 1759 
z
M 3341 1997 
L 3341 0 
L 2766 0 
L 2766 531 
Q 2569 213 2275 61 
Q 1981 -91 1556 -91 
Q 1019 -91 701 211 
Q 384 513 384 1019 
Q 384 1609 779 1909 
Q 1175 2209 1959 2209 
L 2766 2209 
L 2766 2266 
Q 2766 2663 2505 2880 
Q 2244 3097 1772 3097 
Q 1472 3097 1187 3025 
Q 903 2953 641 2809 
L 641 3341 
Q 956 3463 1253 3523 
Q 1550 3584 1831 3584 
Q 2591 3584 2966 3190 
Q 3341 2797 3341 1997 
z
" transform="scale(0.015625)"/>
       <path id="DejaVuSans-6c" d="M 603 4863 
L 1178 4863 
L 1178 0 
L 603 0 
L 603 4863 
z
" transform="scale(0.015625)"/>
       <path id="DejaVuSans-41" d="M 2188 4044 
L 1331 1722 
L 3047 1722 
L 2188 4044 
z
M 1831 4666 
L 2547 4666 
L 4325 0 
L 3669 0 
L 3244 1197 
L 1141 1197 
L 716 0 
L 50 0 
L 1831 4666 
z
" transform="scale(0.015625)"/>
       <path id="DejaVuSans-63" d="M 3122 3366 
L 3122 2828 
Q 2878 2963 2633 3030 
Q 2388 3097 2138 3097 
Q 1578 3097 1268 2742 
Q 959 2388 959 1747 
Q 959 1106 1268 751 
Q 1578 397 2138 397 
Q 2388 397 2633 464 
Q 2878 531 3122 666 
L 3122 134 
Q 2881 22 2623 -34 
Q 2366 -91 2075 -91 
Q 1284 -91 818 406 
Q 353 903 353 1747 
Q 353 2603 823 3093 
Q 1294 3584 2113 3584 
Q 2378 3584 2631 3529 
Q 2884 3475 3122 3366 
z
" transform="scale(0.015625)"/>
       <path id="DejaVuSans-74" d="M 1172 4494 
L 1172 3500 
L 2356 3500 
L 2356 3053 
L 1172 3053 
L 1172 1153 
Q 1172 725 1289 603 
Q 1406 481 1766 481 
L 2356 481 
L 2356 0 
L 1766 0 
Q 1100 0 847 248 
Q 594 497 594 1153 
L 594 3053 
L 172 3053 
L 172 3500 
L 594 3500 
L 594 4494 
L 1172 4494 
z
" transform="scale(0.015625)"/>
       <path id="DejaVuSans-76" d="M 191 3500 
L 800 3500 
L 1894 563 
L 2988 3500 
L 3597 3500 
L 2284 0 
L 1503 0 
L 191 3500 
z
" transform="scale(0.015625)"/>
       <path id="DejaVuSans-79" d="M 2059 -325 
Q 1816 -950 1584 -1140 
Q 1353 -1331 966 -1331 
L 506 -1331 
L 506 -850 
L 844 -850 
Q 1081 -850 1212 -737 
Q 1344 -625 1503 -206 
L 1606 56 
L 191 3500 
L 800 3500 
L 1894 763 
L 2988 3500 
L 3597 3500 
L 2059 -325 
z
" transform="scale(0.015625)"/>
      </defs>
      <use xlink:href="#DejaVuSans-4e"/>
      <use xlink:href="#DejaVuSans-65" transform="translate(74.804688 0)"/>
      <use xlink:href="#DejaVuSans-75" transform="translate(136.328125 0)"/>
      <use xlink:href="#DejaVuSans-72" transform="translate(199.707031 0)"/>
      <use xlink:href="#DejaVuSans-61" transform="translate(240.820312 0)"/>
      <use xlink:href="#DejaVuSans-6c" transform="translate(302.099609 0)"/>
      <use xlink:href="#DejaVuSans-20" transform="translate(329.882812 0)"/>
      <use xlink:href="#DejaVuSans-41" transform="translate(361.669922 0)"/>
      <use xlink:href="#DejaVuSans-63" transform="translate(428.328125 0)"/>
      <use xlink:href="#DejaVuSans-74" transform="translate(483.308594 0)"/>
      <use xlink:href="#DejaVuSans-69" transform="translate(522.517578 0)"/>
      <use xlink:href="#DejaVuSans-76" transform="translate(550.300781 0)"/>
      <use xlink:href="#DejaVuSans-69" transform="translate(609.480469 0)"/>
      <use xlink:href="#DejaVuSans-74" transform="translate(637.263672 0)"/>
      <use xlink:href="#DejaVuSans-79" transform="translate(676.472656 0)"/>
     </g>
    </g>
   </g>
   <g id="line2d_10">
    <path d="M 122.792909 261.097808 
L 124.538726 265.164777 
L 126.284544 268.835214 
L 128.030361 272.147785 
L 128.90327 273.68091 
L 129.776179 256.917753 
L 131.521997 261.392276 
L 132.394905 238.680665 
L 133.267814 225.605596 
L 135.013632 233.133055 
L 135.88654 216.601081 
L 137.632358 225.006483 
L 139.378176 232.592355 
L 140.251084 236.103253 
L 141.123993 231.935435 
L 142.869811 238.845735 
L 143.742719 221.379627 
L 144.615628 207.25139 
L 145.488537 183.322031 
L 147.234354 194.97214 
L 148.980172 205.486357 
L 149.853081 210.352556 
L 150.72599 214.200625 
L 152.471807 222.840067 
L 154.217625 230.63717 
L 155.963442 237.67405 
L 156.836351 227.866071 
L 158.582169 235.173133 
L 159.455077 238.554992 
L 160.327986 230.497738 
L 162.073804 237.548213 
L 163.819621 243.911264 
L 164.69253 246.856218 
L 165.565439 238.971445 
L 166.438348 205.968832 
L 168.184165 215.410876 
L 169.929983 223.932318 
L 171.6758 231.622919 
L 172.548709 204.61495 
L 174.294527 214.188995 
L 176.040344 222.829577 
L 177.786162 230.627705 
L 179.531979 237.665512 
L 181.277797 244.01713 
L 183.023614 249.749466 
L 184.769432 254.922899 
L 186.515249 259.591921 
L 188.261067 263.805715 
L 190.006884 267.608666 
L 190.879793 269.368747 
L 191.752702 266.464571 
L 192.625611 258.710816 
L 194.371428 263.010516 
L 195.244337 235.602546 
L 196.990155 242.155307 
L 197.863063 245.188057 
L 198.735972 237.248861 
L 199.608881 240.526933 
L 200.48179 189.625402 
L 202.227607 129.631026 
L 203.100516 130.261766 
L 204.846334 147.08525 
L 206.592151 162.268444 
L 208.337969 175.971274 
L 210.083786 188.338079 
L 211.829604 199.499127 
L 213.575421 209.571968 
L 215.321239 218.662702 
L 217.067056 226.867101 
L 218.812874 234.271564 
L 220.558692 240.95409 
L 222.304509 246.985073 
L 224.050327 252.428035 
L 225.796144 257.340304 
L 227.541962 261.77363 
L 229.287779 265.774708 
L 231.033597 269.38568 
L 232.779414 272.64458 
L 234.525232 275.585738 
L 237.143958 279.468642 
L 239.762685 282.797744 
L 242.381411 285.652034 
L 245.000137 288.099232 
L 247.618864 290.197399 
L 250.23759 291.996314 
L 252.856316 293.538659 
L 255.475043 294.861027 
L 258.966678 296.335567 
L 262.458313 297.53659 
L 265.949948 298.51483 
L 270.314492 299.486547 
L 274.679036 300.238443 
L 279.916488 300.919748 
L 286.02685 301.490057 
L 293.883029 301.978217 
L 303.485025 302.33701 
L 304.357934 291.886461 
L 305.230843 268.234862 
L 306.97666 271.605968 
L 308.722478 274.64839 
L 309.595387 276.056486 
L 310.468295 243.871461 
L 311.341204 223.280474 
L 313.087022 231.034632 
L 313.959931 213.720791 
L 314.832839 218.175265 
L 315.705748 210.129506 
L 316.578657 182.490986 
L 317.451566 188.506955 
L 318.324474 191.602995 
L 320.070292 202.445704 
L 320.943201 202.249081 
L 321.816109 207.277144 
L 322.689018 191.073228 
L 323.561927 196.660084 
L 324.434836 196.765839 
L 325.307745 201.616528 
L 326.180653 188.357476 
L 327.053562 178.228567 
L 328.79938 190.375291 
L 329.672288 195.997045 
L 330.545197 199.941371 
L 332.291015 209.971095 
L 334.036832 219.022919 
L 335.78265 227.19219 
L 337.528467 234.564957 
L 338.401376 237.977223 
L 339.274285 234.290354 
L 341.020103 240.971048 
L 342.76592 247.000378 
L 343.638829 249.790874 
L 344.511738 238.751225 
L 346.257555 244.996986 
L 348.003373 250.633783 
L 349.74919 255.720994 
L 351.495008 260.312201 
L 353.240825 264.455767 
L 354.113734 266.373494 
L 354.986643 242.418115 
L 355.859552 245.437726 
L 356.73246 234.943202 
L 357.605369 186.870888 
L 358.478278 163.185166 
L 360.224096 176.798613 
L 361.969913 189.084752 
L 363.715731 200.172992 
L 364.588639 200.914268 
L 365.461548 206.00907 
L 366.334457 191.494697 
L 367.207366 169.755196 
L 368.953183 182.728069 
L 370.699001 194.436083 
L 372.444818 205.00257 
L 374.190636 214.53882 
L 375.936454 223.145291 
L 377.682271 230.912629 
L 379.428089 237.922656 
L 381.173906 244.249202 
L 382.919724 249.958913 
L 384.665541 255.111928 
L 385.53845 257.496845 
L 386.411359 245.042306 
L 387.284268 215.426763 
L 388.157176 215.794444 
L 389.902994 224.278494 
L 391.648811 231.935353 
L 393.394629 238.845661 
L 395.140447 245.082212 
L 396.886264 250.7107 
L 398.632082 255.790414 
L 400.377899 260.374855 
L 402.123717 264.51231 
L 402.996626 266.427212 
L 403.869534 263.390541 
L 404.742443 249.469787 
L 406.488261 254.670487 
L 408.234078 259.364123 
L 409.106987 261.536432 
L 409.979896 256.780031 
L 410.852805 240.829016 
L 412.598622 246.872195 
L 414.34444 252.32616 
L 416.090257 257.248362 
L 416.963166 259.526458 
L 417.836075 246.157427 
L 419.581892 251.681083 
L 421.32771 256.666181 
L 422.200619 221.758028 
L 423.073527 198.961404 
L 424.819345 209.086672 
L 426.565162 218.22473 
L 427.438071 222.454014 
L 428.31098 217.376895 
L 430.056798 225.706652 
L 431.802615 233.224259 
L 432.675524 236.703564 
L 433.548433 235.778718 
L 435.29425 242.3143 
L 437.040068 248.212663 
L 438.785885 253.535935 
L 440.531703 258.340186 
L 442.27752 262.676023 
L 444.023338 266.589117 
L 445.769156 270.120682 
L 447.514973 273.30792 
L 450.133699 277.515698 
L 452.752426 281.12334 
L 453.625335 247.826162 
L 455.371152 253.187118 
L 457.11697 182.860307 
L 457.989878 166.74293 
L 459.735696 180.009503 
L 461.481513 191.982585 
L 462.354422 197.52397 
L 463.227331 161.175562 
L 464.973149 107.128997 
L 465.846057 52.186346 
L 467.591875 76.622194 
L 469.337692 98.675532 
L 470.210601 108.882277 
L 470.210601 108.882277 
" clip-path="url(#pa6f02bfa4f)" style="fill: none; stroke: #000000; stroke-width: 5; stroke-linecap: square"/>
   </g>
   <g id="line2d_11">
    <path d="M 122.792909 165.334465 
L 123.665818 113.94309 
L 124.538726 87.42802 
L 125.411635 85.182464 
L 126.284544 92.495476 
L 128.030361 113.001171 
L 128.90327 122.491631 
L 129.776179 120.53962 
L 131.521997 51.791837 
L 133.267814 76.266135 
L 135.013632 98.354199 
L 136.759449 118.288667 
L 138.505267 136.279523 
L 140.251084 152.516263 
L 141.996902 167.169927 
L 142.869811 173.951951 
L 143.742719 157.348555 
L 144.615628 131.337227 
L 146.361446 148.055859 
L 148.107263 163.144419 
L 149.853081 176.761844 
L 151.598898 189.051575 
L 152.471807 194.428496 
L 153.344716 175.956224 
L 154.217625 172.190543 
L 155.090533 127.384617 
L 155.963442 113.846767 
L 157.70926 132.270714 
L 159.455077 148.898338 
L 161.200895 163.904748 
L 162.073804 160.696097 
L 163.819621 174.552237 
L 165.565439 187.057407 
L 167.311256 198.34332 
L 169.057074 208.528855 
L 170.802891 217.721292 
L 172.548709 226.017478 
L 174.294527 233.504779 
L 175.167435 216.511426 
L 176.040344 182.390866 
L 177.786162 193.583048 
L 178.65907 196.876351 
L 179.531979 175.704394 
L 180.404888 172.870978 
L 181.277797 179.367945 
L 182.150705 177.639894 
L 183.896523 189.844015 
L 185.642341 200.858225 
L 187.388158 210.798557 
L 189.133976 219.769707 
L 190.006884 188.245783 
L 190.879793 183.058259 
L 192.625611 194.73409 
L 194.371428 205.271525 
L 196.117246 214.781563 
L 197.863063 223.364371 
L 198.735972 227.336666 
L 200.48179 142.306335 
L 201.354699 142.317211 
L 203.100516 157.965286 
L 204.846334 172.087683 
L 206.592151 184.833143 
L 208.337969 196.335922 
L 210.083786 206.717178 
L 211.829604 216.086266 
L 213.575421 224.541864 
L 215.321239 232.173034 
L 216.194148 235.704897 
L 217.067056 227.870517 
L 218.812874 235.177148 
L 220.558692 241.771381 
L 222.304509 247.722679 
L 223.177418 225.429691 
L 224.050327 229.144004 
L 224.923235 213.470167 
L 226.669053 222.180834 
L 228.414871 230.042206 
L 229.287779 220.006019 
L 230.160688 214.745335 
L 231.033597 218.149601 
L 231.906506 222.382641 
L 232.779414 221.923591 
L 234.525232 229.810053 
L 236.27105 236.927578 
L 238.016867 243.351143 
L 239.762685 249.148413 
L 241.508502 254.380448 
L 243.25432 259.10236 
L 244.127229 260.669634 
L 245.000137 262.776668 
L 245.873046 255.133019 
L 246.745955 206.410412 
L 248.491772 215.809404 
L 250.23759 224.291994 
L 251.983407 231.947524 
L 253.729225 238.856648 
L 255.475043 245.092128 
L 257.22086 250.719649 
L 258.966678 255.798489 
L 260.712495 260.382142 
L 262.458313 264.518888 
L 264.20413 268.252299 
L 265.077039 262.331742 
L 266.822857 266.278401 
L 267.695765 243.979373 
L 268.568674 246.920918 
L 269.441583 227.110064 
L 270.314492 230.895077 
L 271.187401 230.885252 
L 272.060309 214.568774 
L 272.933218 218.980852 
L 273.806127 221.067439 
L 274.679036 225.154584 
L 276.424853 189.450153 
L 278.170671 200.502764 
L 279.04358 185.675548 
L 279.916488 168.289621 
L 280.789397 171.55042 
L 282.535215 184.348257 
L 284.281032 195.898303 
L 286.02685 206.322225 
L 287.772667 215.729813 
L 288.645576 180.041474 
L 289.518485 174.204814 
L 290.391394 180.635092 
L 291.264302 167.176989 
L 293.01012 180.401241 
L 294.755937 192.336127 
L 296.501755 203.107365 
L 298.247573 212.828404 
L 299.120481 217.327495 
L 299.99339 215.819853 
L 300.866299 212.624579 
L 301.739208 190.566665 
L 302.612116 193.034622 
L 304.357934 203.737752 
L 306.103752 213.397326 
L 307.849569 222.115088 
L 308.722478 226.149848 
L 309.595387 221.866055 
L 310.468295 194.402808 
L 311.341204 199.823183 
L 312.214113 192.703529 
L 313.959931 203.438942 
L 315.705748 213.127649 
L 316.578657 203.696923 
L 318.324474 213.360483 
L 320.070292 222.081846 
L 321.816109 229.952872 
L 323.561927 237.056474 
L 324.434836 195.20354 
L 326.180653 205.695201 
L 327.053562 209.797995 
L 328.79938 218.86669 
L 330.545197 227.051191 
L 332.291015 234.437709 
L 333.163924 237.85634 
L 334.036832 233.315661 
L 334.909741 221.651518 
L 335.78265 174.029483 
L 336.655559 153.570284 
L 338.401376 168.121196 
L 340.147194 181.253382 
L 341.893011 193.105183 
L 343.638829 203.80144 
L 345.384646 213.454805 
L 347.130464 222.166965 
L 348.876282 230.02969 
L 350.622099 237.1258 
L 352.367917 243.530042 
L 353.240825 236.178534 
L 354.986643 242.244485 
L 356.73246 248.149656 
L 358.478278 253.479072 
L 360.224096 258.288867 
L 361.969913 262.629707 
L 363.715731 266.547316 
L 364.588639 268.360465 
L 365.461548 242.734354 
L 366.334457 244.234488 
L 368.080275 249.94563 
L 369.826092 255.099936 
L 371.57191 259.751698 
L 373.317727 263.949912 
L 374.190636 255.295457 
L 375.063545 252.725382 
L 376.809362 257.608661 
L 378.55518 262.015823 
L 379.428089 260.556776 
L 380.300997 247.124546 
L 382.046815 252.553905 
L 383.792633 257.453904 
L 384.665541 248.192293 
L 386.411359 253.517551 
L 387.284268 221.770314 
L 388.157176 203.875314 
L 389.030085 180.272349 
L 389.902994 169.121413 
L 390.775903 108.01114 
L 394.267538 143.618814 
L 396.013355 159.13999 
L 397.759173 173.147848 
L 399.50499 185.78994 
L 401.250808 197.199431 
L 402.996626 207.496486 
L 404.742443 216.789584 
L 406.488261 225.176606 
L 408.234078 232.745894 
L 409.979896 239.577173 
L 410.852805 242.738832 
L 411.725713 213.207354 
L 412.598622 217.6875 
L 413.471531 185.095242 
L 414.34444 183.096825 
L 415.217348 175.661596 
L 416.963166 188.0586 
L 418.708984 199.246895 
L 419.581892 204.425068 
L 420.454801 197.866226 
L 422.200619 208.098282 
L 423.946436 217.332704 
L 424.819345 219.186341 
L 426.565162 227.339676 
L 428.31098 234.698061 
L 430.056798 241.339004 
L 431.802615 247.332459 
L 433.548433 252.741548 
L 435.29425 257.623252 
L 436.167159 259.882604 
L 437.040068 247.233212 
L 437.912977 246.882907 
L 438.785885 223.770856 
L 440.531703 231.477197 
L 442.27752 238.432173 
L 444.023338 244.709043 
L 445.769156 250.373915 
L 446.642064 245.419669 
L 448.387882 251.015256 
L 450.133699 256.065271 
L 451.006608 258.402524 
L 451.879517 193.7498 
L 452.752426 196.557118 
L 453.625335 182.33223 
L 455.371152 194.078851 
L 457.11697 204.680171 
L 458.862787 214.247867 
L 460.608605 222.882709 
L 461.481513 226.879092 
L 462.354422 225.62378 
L 463.227331 229.48311 
L 464.10024 192.184663 
L 464.973149 171.410275 
L 465.846057 157.101252 
L 467.591875 171.307891 
L 469.337692 184.129382 
L 470.210601 190.063431 
L 470.210601 190.063431 
" clip-path="url(#pa6f02bfa4f)" style="fill: none; stroke: #ff0000; stroke-width: 5; stroke-linecap: square"/>
   </g>
   <g id="line2d_12">
    <path d="M 122.792909 216.467079 
L 124.538726 224.885538 
L 126.284544 232.483204 
L 128.030361 239.340099 
L 128.90327 242.513609 
L 129.776179 210.56432 
L 131.521997 219.558304 
L 133.267814 227.675378 
L 135.013632 235.001037 
L 136.759449 241.612442 
L 138.505267 247.579237 
L 140.251084 252.964269 
L 141.123993 255.45657 
L 141.996902 252.879179 
L 143.742719 257.747466 
L 144.615628 260.000608 
L 145.488537 246.315046 
L 147.234354 251.823337 
L 148.980172 256.794565 
L 150.72599 261.281099 
L 152.471807 265.3302 
L 154.217625 268.984512 
L 155.963442 272.282527 
L 156.836351 273.808917 
L 157.70926 252.992492 
L 159.455077 257.849726 
L 161.200895 262.233381 
L 162.073804 260.180803 
L 163.819621 264.33718 
L 164.69253 258.875156 
L 166.438348 222.067533 
L 168.184165 229.939954 
L 169.057074 233.583468 
L 170.802891 196.314876 
L 171.6758 200.924184 
L 172.548709 180.421573 
L 174.294527 192.354474 
L 176.040344 203.123916 
L 177.786162 212.843339 
L 178.65907 214.742358 
L 179.531979 194.018748 
L 180.404888 196.56874 
L 182.150705 206.927293 
L 183.896523 216.275893 
L 185.642341 224.713004 
L 186.515249 222.138964 
L 188.261067 230.00442 
L 190.006884 237.102991 
L 191.752702 243.509455 
L 192.625611 209.086245 
L 194.371428 218.224337 
L 195.244337 208.912415 
L 196.117246 213.60731 
L 196.990155 203.959662 
L 197.863063 202.91668 
L 198.735972 204.693852 
L 200.48179 214.260203 
L 202.227607 222.893839 
L 203.973425 230.6857 
L 205.719242 237.717852 
L 207.46506 244.064369 
L 209.210878 249.7921 
L 210.956695 254.961378 
L 212.702513 259.626648 
L 214.44833 263.837055 
L 216.194148 267.63695 
L 217.939965 271.066353 
L 219.685783 274.161388 
L 222.304509 278.247438 
L 224.923235 281.750717 
L 227.541962 284.75434 
L 230.160688 287.329571 
L 232.779414 289.537511 
L 235.398141 291.430543 
L 238.016867 293.053581 
L 240.635593 294.445133 
L 244.127229 295.996819 
L 247.618864 297.260677 
L 251.110499 298.290097 
L 255.475043 299.312653 
L 259.839586 300.103887 
L 265.077039 300.820837 
L 271.187401 301.420984 
L 278.170671 301.888599 
L 287.772667 302.286035 
L 299.120481 302.541172 
L 299.99339 289.491917 
L 300.866299 285.690753 
L 301.739208 271.357324 
L 302.612116 272.929972 
L 303.485025 266.520274 
L 304.357934 251.611175 
L 305.230843 249.05898 
L 306.97666 254.299734 
L 308.722478 259.029515 
L 310.468295 263.298143 
L 312.214113 267.150579 
L 313.087022 245.961009 
L 313.959931 238.58401 
L 314.832839 239.20836 
L 315.705748 242.388457 
L 316.578657 226.905961 
L 318.324474 232.102843 
L 319.197383 235.638216 
L 320.070292 238.054202 
L 321.816109 244.367924 
L 322.689018 247.290043 
L 323.561927 234.441654 
L 324.434836 235.073189 
L 325.307745 219.024322 
L 327.053562 227.193453 
L 327.926471 230.974299 
L 328.79938 215.713286 
L 329.672288 183.519081 
L 331.418106 195.149973 
L 333.163924 205.646851 
L 334.909741 215.120283 
L 336.655559 223.670063 
L 338.401376 231.386238 
L 339.274285 234.95744 
L 340.147194 216.421435 
L 341.020103 203.875379 
L 342.76592 121.43236 
L 343.638829 80.334916 
L 344.511738 75.377594 
L 346.257555 97.552287 
L 347.130464 92.761364 
L 348.876282 113.241142 
L 350.622099 131.724126 
L 352.367917 148.405029 
L 354.113734 163.459551 
L 354.986643 170.427093 
L 355.859552 174.350848 
L 357.605369 186.875645 
L 358.478278 192.672379 
L 359.351187 176.482398 
L 360.224096 181.499741 
L 361.969913 193.327527 
L 362.842822 183.233829 
L 364.588639 194.892533 
L 365.461548 197.985046 
L 367.207366 208.205513 
L 368.080275 204.95586 
L 368.953183 209.848584 
L 369.826092 211.176097 
L 371.57191 220.110429 
L 373.317727 228.173666 
L 374.190636 231.905498 
L 375.063545 223.445562 
L 375.936454 227.413796 
L 376.809362 213.368677 
L 378.55518 222.089236 
L 380.300997 229.95954 
L 382.046815 237.06249 
L 383.792633 243.472899 
L 384.665541 246.439768 
L 386.411359 224.282332 
L 388.157176 231.938806 
L 389.902994 238.848778 
L 391.648811 245.085025 
L 393.394629 250.713243 
L 395.140447 255.792707 
L 396.886264 260.376922 
L 398.632082 264.51418 
L 400.377899 268.248054 
L 402.123717 271.617875 
L 402.996626 273.177496 
L 403.869534 254.187586 
L 404.742443 256.618721 
L 405.615352 257.845371 
L 407.361169 262.229452 
L 409.106987 266.186085 
L 409.979896 268.017295 
L 410.852805 235.44156 
L 411.725713 238.809996 
L 412.598622 221.369932 
L 413.471531 127.918067 
L 414.34444 129.775477 
L 416.090257 146.646368 
L 417.836075 161.872343 
L 419.581892 175.613796 
L 421.32771 188.015458 
L 423.073527 199.207961 
L 424.819345 209.309189 
L 426.565162 218.425545 
L 428.31098 226.653057 
L 430.056798 234.078389 
L 430.929706 237.514987 
L 431.802615 223.68499 
L 432.675524 223.145267 
L 434.421341 230.912605 
L 436.167159 237.922632 
L 437.040068 224.45891 
L 438.785885 232.098176 
L 439.658794 235.633783 
L 440.531703 207.615356 
L 442.27752 216.896865 
L 444.023338 225.273421 
L 445.769156 232.833268 
L 447.514973 239.65603 
L 449.260791 245.813572 
L 451.006608 251.370754 
L 452.752426 256.386112 
L 454.498243 260.912471 
L 456.244061 264.997508 
L 457.989878 268.684256 
L 459.735696 272.011546 
L 461.481513 275.014425 
L 462.354422 276.404218 
L 463.227331 272.891628 
L 464.10024 274.387562 
L 464.973149 258.635063 
L 466.718966 262.942149 
L 467.591875 264.935559 
L 468.464784 250.813896 
L 470.210601 255.883547 
L 470.210601 255.883547 
" clip-path="url(#pa6f02bfa4f)" style="fill: none; stroke: #0000ff; stroke-width: 5; stroke-linecap: square"/>
   </g>
   <g id="patch_3">
    <path d="M 121.92 322.75952 
L 121.92 31.720156 
" style="fill: none; stroke: #000000; stroke-width: 5; stroke-linejoin: miter; stroke-linecap: square"/>
   </g>
   <g id="patch_4">
    <path d="M 121.92 322.75952 
L 471.08351 322.75952 
" style="fill: none; stroke: #000000; stroke-width: 5; stroke-linejoin: miter; stroke-linecap: square"/>
   </g>
   <g id="patch_5">
    <path d="M 209.210878 316.938733 
L 296.501755 316.938733 
L 296.501755 306.752355 
L 209.210878 306.752355 
z
" style="fill: #8c5a2b; stroke: #8c5a2b; stroke-linejoin: miter"/>
   </g>
   <g id="text_12">
    <!-- Novel | Naive -->
    <g transform="translate(233.199099 21.720156) scale(0.19 -0.19)">
     <defs>
      <path id="DejaVuSans-6f" d="M 1959 3097 
Q 1497 3097 1228 2736 
Q 959 2375 959 1747 
Q 959 1119 1226 758 
Q 1494 397 1959 397 
Q 2419 397 2687 759 
Q 2956 1122 2956 1747 
Q 2956 2369 2687 2733 
Q 2419 3097 1959 3097 
z
M 1959 3584 
Q 2709 3584 3137 3096 
Q 3566 2609 3566 1747 
Q 3566 888 3137 398 
Q 2709 -91 1959 -91 
Q 1206 -91 779 398 
Q 353 888 353 1747 
Q 353 2609 779 3096 
Q 1206 3584 1959 3584 
z
" transform="scale(0.015625)"/>
      <path id="DejaVuSans-7c" d="M 1344 4891 
L 1344 -1509 
L 813 -1509 
L 813 4891 
L 1344 4891 
z
" transform="scale(0.015625)"/>
     </defs>
     <use xlink:href="#DejaVuSans-4e"/>
     <use xlink:href="#DejaVuSans-6f" transform="translate(74.804688 0)"/>
     <use xlink:href="#DejaVuSans-76" transform="translate(135.986328 0)"/>
     <use xlink:href="#DejaVuSans-65" transform="translate(195.166016 0)"/>
     <use xlink:href="#DejaVuSans-6c" transform="translate(256.689453 0)"/>
     <use xlink:href="#DejaVuSans-20" transform="translate(284.472656 0)"/>
     <use xlink:href="#DejaVuSans-7c" transform="translate(316.259766 0)"/>
     <use xlink:href="#DejaVuSans-20" transform="translate(349.951172 0)"/>
     <use xlink:href="#DejaVuSans-4e" transform="translate(381.738281 0)"/>
     <use xlink:href="#DejaVuSans-61" transform="translate(456.542969 0)"/>
     <use xlink:href="#DejaVuSans-69" transform="translate(517.822266 0)"/>
     <use xlink:href="#DejaVuSans-76" transform="translate(545.605469 0)"/>
     <use xlink:href="#DejaVuSans-65" transform="translate(604.785156 0)"/>
    </g>
   </g>
   <g id="legend_1">
    <g id="line2d_13">
     <path d="M 130.92 46.867812 
L 145.92 46.867812 
L 160.92 46.867812 
" style="fill: none; stroke: #000000; stroke-width: 5; stroke-linecap: square"/>
    </g>
    <g id="text_13">
     <!-- Nonoccluded (NO) -->
     <g transform="translate(172.92 52.117812) scale(0.15 -0.15)">
      <defs>
       <path id="DejaVuSans-6e" d="M 3513 2113 
L 3513 0 
L 2938 0 
L 2938 2094 
Q 2938 2591 2744 2837 
Q 2550 3084 2163 3084 
Q 1697 3084 1428 2787 
Q 1159 2491 1159 1978 
L 1159 0 
L 581 0 
L 581 3500 
L 1159 3500 
L 1159 2956 
Q 1366 3272 1645 3428 
Q 1925 3584 2291 3584 
Q 2894 3584 3203 3211 
Q 3513 2838 3513 2113 
z
" transform="scale(0.015625)"/>
       <path id="DejaVuSans-64" d="M 2906 2969 
L 2906 4863 
L 3481 4863 
L 3481 0 
L 2906 0 
L 2906 525 
Q 2725 213 2448 61 
Q 2172 -91 1784 -91 
Q 1150 -91 751 415 
Q 353 922 353 1747 
Q 353 2572 751 3078 
Q 1150 3584 1784 3584 
Q 2172 3584 2448 3432 
Q 2725 3281 2906 2969 
z
M 947 1747 
Q 947 1113 1208 752 
Q 1469 391 1925 391 
Q 2381 391 2643 752 
Q 2906 1113 2906 1747 
Q 2906 2381 2643 2742 
Q 2381 3103 1925 3103 
Q 1469 3103 1208 2742 
Q 947 2381 947 1747 
z
" transform="scale(0.015625)"/>
       <path id="DejaVuSans-4f" d="M 2522 4238 
Q 1834 4238 1429 3725 
Q 1025 3213 1025 2328 
Q 1025 1447 1429 934 
Q 1834 422 2522 422 
Q 3209 422 3611 934 
Q 4013 1447 4013 2328 
Q 4013 3213 3611 3725 
Q 3209 4238 2522 4238 
z
M 2522 4750 
Q 3503 4750 4090 4092 
Q 4678 3434 4678 2328 
Q 4678 1225 4090 567 
Q 3503 -91 2522 -91 
Q 1538 -91 948 565 
Q 359 1222 359 2328 
Q 359 3434 948 4092 
Q 1538 4750 2522 4750 
z
" transform="scale(0.015625)"/>
      </defs>
      <use xlink:href="#DejaVuSans-4e"/>
      <use xlink:href="#DejaVuSans-6f" transform="translate(74.804688 0)"/>
      <use xlink:href="#DejaVuSans-6e" transform="translate(135.986328 0)"/>
      <use xlink:href="#DejaVuSans-6f" transform="translate(199.365234 0)"/>
      <use xlink:href="#DejaVuSans-63" transform="translate(260.546875 0)"/>
      <use xlink:href="#DejaVuSans-63" transform="translate(315.527344 0)"/>
      <use xlink:href="#DejaVuSans-6c" transform="translate(370.507812 0)"/>
      <use xlink:href="#DejaVuSans-75" transform="translate(398.291016 0)"/>
      <use xlink:href="#DejaVuSans-64" transform="translate(461.669922 0)"/>
      <use xlink:href="#DejaVuSans-65" transform="translate(525.146484 0)"/>
      <use xlink:href="#DejaVuSans-64" transform="translate(586.669922 0)"/>
      <use xlink:href="#DejaVuSans-20" transform="translate(650.146484 0)"/>
      <use xlink:href="#DejaVuSans-28" transform="translate(681.933594 0)"/>
      <use xlink:href="#DejaVuSans-4e" transform="translate(720.947266 0)"/>
      <use xlink:href="#DejaVuSans-4f" transform="translate(795.751953 0)"/>
      <use xlink:href="#DejaVuSans-29" transform="translate(874.462891 0)"/>
     </g>
    </g>
    <g id="line2d_14">
     <path d="M 130.92 68.885 
L 145.92 68.885 
L 160.92 68.885 
" style="fill: none; stroke: #ff0000; stroke-width: 5; stroke-linecap: square"/>
    </g>
    <g id="text_14">
     <!-- Occluded (O) -->
     <g transform="translate(172.92 74.135) scale(0.15 -0.15)">
      <use xlink:href="#DejaVuSans-4f"/>
      <use xlink:href="#DejaVuSans-63" transform="translate(78.710938 0)"/>
      <use xlink:href="#DejaVuSans-63" transform="translate(133.691406 0)"/>
      <use xlink:href="#DejaVuSans-6c" transform="translate(188.671875 0)"/>
      <use xlink:href="#DejaVuSans-75" transform="translate(216.455078 0)"/>
      <use xlink:href="#DejaVuSans-64" transform="translate(279.833984 0)"/>
      <use xlink:href="#DejaVuSans-65" transform="translate(343.310547 0)"/>
      <use xlink:href="#DejaVuSans-64" transform="translate(404.833984 0)"/>
      <use xlink:href="#DejaVuSans-20" transform="translate(468.310547 0)"/>
      <use xlink:href="#DejaVuSans-28" transform="translate(500.097656 0)"/>
      <use xlink:href="#DejaVuSans-4f" transform="translate(539.111328 0)"/>
      <use xlink:href="#DejaVuSans-29" transform="translate(617.822266 0)"/>
     </g>
    </g>
    <g id="line2d_15">
     <path d="M 130.92 90.902187 
L 145.92 90.902187 
L 160.92 90.902187 
" style="fill: none; stroke: #0000ff; stroke-width: 5; stroke-linecap: square"/>
    </g>
    <g id="text_15">
     <!-- No feedback -->
     <g transform="translate(172.92 96.152187) scale(0.15 -0.15)">
      <defs>
       <path id="DejaVuSans-66" d="M 2375 4863 
L 2375 4384 
L 1825 4384 
Q 1516 4384 1395 4259 
Q 1275 4134 1275 3809 
L 1275 3500 
L 2222 3500 
L 2222 3053 
L 1275 3053 
L 1275 0 
L 697 0 
L 697 3053 
L 147 3053 
L 147 3500 
L 697 3500 
L 697 3744 
Q 697 4328 969 4595 
Q 1241 4863 1831 4863 
L 2375 4863 
z
" transform="scale(0.015625)"/>
       <path id="DejaVuSans-62" d="M 3116 1747 
Q 3116 2381 2855 2742 
Q 2594 3103 2138 3103 
Q 1681 3103 1420 2742 
Q 1159 2381 1159 1747 
Q 1159 1113 1420 752 
Q 1681 391 2138 391 
Q 2594 391 2855 752 
Q 3116 1113 3116 1747 
z
M 1159 2969 
Q 1341 3281 1617 3432 
Q 1894 3584 2278 3584 
Q 2916 3584 3314 3078 
Q 3713 2572 3713 1747 
Q 3713 922 3314 415 
Q 2916 -91 2278 -91 
Q 1894 -91 1617 61 
Q 1341 213 1159 525 
L 1159 0 
L 581 0 
L 581 4863 
L 1159 4863 
L 1159 2969 
z
" transform="scale(0.015625)"/>
       <path id="DejaVuSans-6b" d="M 581 4863 
L 1159 4863 
L 1159 1991 
L 2875 3500 
L 3609 3500 
L 1753 1863 
L 3688 0 
L 2938 0 
L 1159 1709 
L 1159 0 
L 581 0 
L 581 4863 
z
" transform="scale(0.015625)"/>
      </defs>
      <use xlink:href="#DejaVuSans-4e"/>
      <use xlink:href="#DejaVuSans-6f" transform="translate(74.804688 0)"/>
      <use xlink:href="#DejaVuSans-20" transform="translate(135.986328 0)"/>
      <use xlink:href="#DejaVuSans-66" transform="translate(167.773438 0)"/>
      <use xlink:href="#DejaVuSans-65" transform="translate(202.978516 0)"/>
      <use xlink:href="#DejaVuSans-65" transform="translate(264.501953 0)"/>
      <use xlink:href="#DejaVuSans-64" transform="translate(326.025391 0)"/>
      <use xlink:href="#DejaVuSans-62" transform="translate(389.501953 0)"/>
      <use xlink:href="#DejaVuSans-61" transform="translate(452.978516 0)"/>
      <use xlink:href="#DejaVuSans-63" transform="translate(514.257812 0)"/>
      <use xlink:href="#DejaVuSans-6b" transform="translate(569.238281 0)"/>
     </g>
    </g>
   </g>
  </g>
  <g id="axes_2">
   <g id="patch_6">
    <path d="M 505.85601 322.75952 
L 855.01952 322.75952 
L 855.01952 31.720156 
L 505.85601 31.720156 
z
" style="fill: #ffffff"/>
   </g>
   <g id="matplotlib.axis_3">
    <g id="xtick_6">
     <g id="line2d_16">
      <g>
       <use xlink:href="#mb5e14af2ff" x="505.85601" y="322.75952" style="stroke: #000000; stroke-width: 1.6"/>
      </g>
     </g>
     <g id="text_16">
      <!-- -1 -->
      <g transform="translate(489.90351 355.57452) scale(0.32 -0.32)">
       <use xlink:href="#DejaVuSans-2d"/>
       <use xlink:href="#DejaVuSans-31" transform="translate(36.083984 0)"/>
      </g>
     </g>
    </g>
    <g id="xtick_7">
     <g id="line2d_17">
      <g>
       <use xlink:href="#mb5e14af2ff" x="593.146888" y="322.75952" style="stroke: #000000; stroke-width: 1.6"/>
      </g>
     </g>
     <g id="text_17">
      <!-- 0 -->
      <g transform="translate(582.966888 355.57452) scale(0.32 -0.32)">
       <use xlink:href="#DejaVuSans-30"/>
      </g>
     </g>
    </g>
    <g id="xtick_8">
     <g id="line2d_18">
      <g>
       <use xlink:href="#mb5e14af2ff" x="680.437765" y="322.75952" style="stroke: #000000; stroke-width: 1.6"/>
      </g>
     </g>
     <g id="text_18">
      <!-- 1 -->
      <g transform="translate(670.257765 355.57452) scale(0.32 -0.32)">
       <use xlink:href="#DejaVuSans-31"/>
      </g>
     </g>
    </g>
    <g id="xtick_9">
     <g id="line2d_19">
      <g>
       <use xlink:href="#mb5e14af2ff" x="767.728643" y="322.75952" style="stroke: #000000; stroke-width: 1.6"/>
      </g>
     </g>
     <g id="text_19">
      <!-- 2 -->
      <g transform="translate(757.548643 355.57452) scale(0.32 -0.32)">
       <use xlink:href="#DejaVuSans-32"/>
      </g>
     </g>
    </g>
    <g id="xtick_10">
     <g id="line2d_20">
      <g>
       <use xlink:href="#mb5e14af2ff" x="855.01952" y="322.75952" style="stroke: #000000; stroke-width: 1.6"/>
      </g>
     </g>
     <g id="text_20">
      <!-- 3 -->
      <g transform="translate(844.83952 355.57452) scale(0.32 -0.32)">
       <use xlink:href="#DejaVuSans-33"/>
      </g>
     </g>
    </g>
    <g id="text_21">
     <!-- Time (s) -->
     <g transform="translate(615.385265 390.54452) scale(0.32 -0.32)">
      <use xlink:href="#DejaVuSans-54"/>
      <use xlink:href="#DejaVuSans-69" transform="translate(57.958984 0)"/>
      <use xlink:href="#DejaVuSans-6d" transform="translate(85.742188 0)"/>
      <use xlink:href="#DejaVuSans-65" transform="translate(183.154297 0)"/>
      <use xlink:href="#DejaVuSans-20" transform="translate(244.677734 0)"/>
      <use xlink:href="#DejaVuSans-28" transform="translate(276.464844 0)"/>
      <use xlink:href="#DejaVuSans-73" transform="translate(315.478516 0)"/>
      <use xlink:href="#DejaVuSans-29" transform="translate(367.578125 0)"/>
     </g>
    </g>
   </g>
   <g id="matplotlib.axis_4">
    <g id="ytick_5">
     <g id="line2d_21">
      <g>
       <use xlink:href="#mac9292cd3d" x="505.85601" y="302.810298" style="stroke: #000000; stroke-width: 1.6"/>
      </g>
     </g>
    </g>
    <g id="ytick_6">
     <g id="line2d_22">
      <g>
       <use xlink:href="#mac9292cd3d" x="505.85601" y="214.743447" style="stroke: #000000; stroke-width: 1.6"/>
      </g>
     </g>
    </g>
    <g id="ytick_7">
     <g id="line2d_23">
      <g>
       <use xlink:href="#mac9292cd3d" x="505.85601" y="126.676596" style="stroke: #000000; stroke-width: 1.6"/>
      </g>
     </g>
    </g>
    <g id="ytick_8">
     <g id="line2d_24">
      <g>
       <use xlink:href="#mac9292cd3d" x="505.85601" y="38.609745" style="stroke: #000000; stroke-width: 1.6"/>
      </g>
     </g>
    </g>
   </g>
   <g id="line2d_25">
    <path d="M 506.728919 283.088551 
L 509.347645 285.901368 
L 511.966371 288.313005 
L 514.585098 290.380682 
L 517.203824 292.153456 
L 519.82255 293.673388 
L 522.441277 294.97654 
L 525.932912 296.429653 
L 529.424547 297.613223 
L 532.916182 298.577248 
L 537.280726 299.534845 
L 541.64527 300.275815 
L 546.882722 300.94722 
L 552.993084 301.509241 
L 553.865993 301.574294 
L 554.738901 279.540954 
L 557.357628 282.859744 
L 559.976354 285.705192 
L 562.59508 288.144809 
L 563.467989 288.617563 
L 566.086715 290.641802 
L 568.705442 292.377334 
L 571.324168 293.865336 
L 572.197077 282.765824 
L 574.815803 285.624669 
L 577.43453 288.07577 
L 578.307438 288.812496 
L 580.053256 290.065377 
L 582.671982 291.883122 
L 585.290709 293.44161 
L 586.163617 277.327982 
L 587.036526 278.602099 
L 587.909435 242.076228 
L 589.655252 247.997802 
L 591.40107 253.342023 
L 593.146888 258.165182 
L 594.892705 262.518084 
L 596.638523 266.446576 
L 598.38434 269.99204 
L 600.130158 273.191821 
L 602.748884 277.416158 
L 605.36761 281.037999 
L 607.986337 284.143274 
L 610.605063 286.80566 
L 613.223789 289.088322 
L 615.842516 291.045419 
L 618.461242 292.723385 
L 621.079968 294.162031 
L 623.698695 295.395491 
L 627.19033 296.770892 
L 630.681965 297.891165 
L 634.1736 298.803633 
L 638.538144 299.710017 
L 643.775596 300.531307 
L 649.885958 301.218794 
L 656.869228 301.754461 
L 665.598316 302.17813 
L 676.94613 302.485779 
L 693.531397 302.68784 
L 694.404305 297.822316 
L 697.895941 298.747556 
L 698.768849 298.950693 
L 699.641758 271.158585 
L 700.514667 272.051341 
L 702.260484 275.050341 
L 704.879211 279.009604 
L 707.497937 282.40418 
L 709.243755 284.393776 
L 710.116663 275.555781 
L 710.989572 259.26014 
L 712.73539 263.506282 
L 714.481207 267.338423 
L 715.354116 257.586164 
L 717.099934 187.978648 
L 717.972842 183.054774 
L 718.845751 184.376914 
L 720.591569 195.924172 
L 722.337386 206.345576 
L 723.210295 211.168814 
L 724.083204 211.806582 
L 724.956113 195.114574 
L 725.829021 188.32334 
L 727.574839 199.485823 
L 729.320656 209.559961 
L 731.066474 218.651867 
L 732.812292 226.857316 
L 734.558109 234.262734 
L 736.303927 240.946122 
L 738.049744 246.97788 
L 739.795562 252.421544 
L 741.541379 257.334448 
L 743.287197 261.768348 
L 745.033014 265.769939 
L 746.778832 269.381374 
L 747.651741 271.052819 
L 748.524649 261.947837 
L 749.397558 262.968826 
L 751.143376 266.853368 
L 752.889193 270.359169 
L 754.635011 273.523155 
L 757.253737 277.700234 
L 759.872464 281.281556 
L 762.49119 284.352092 
L 765.109916 286.984694 
L 767.728643 289.241821 
L 770.347369 291.177025 
L 772.966095 292.836221 
L 775.584821 294.258773 
L 778.203548 295.478435 
L 781.695183 296.83845 
L 782.568092 297.137042 
L 783.441 281.086482 
L 786.059727 284.184841 
L 788.678453 286.841297 
L 789.551362 269.979669 
L 791.297179 273.180656 
L 793.915906 277.406585 
L 796.534632 281.029789 
L 798.28045 283.153389 
L 799.153358 277.348126 
L 801.772085 280.97967 
L 804.390811 284.093263 
L 807.009537 286.762781 
L 809.628264 289.051559 
L 812.24699 291.013899 
L 813.119899 289.36233 
L 815.738625 291.280346 
L 818.357351 292.924806 
L 820.976078 294.334725 
L 821.848987 271.722321 
L 823.594804 274.7534 
L 826.21353 278.755016 
L 828.832257 282.185901 
L 831.450983 285.127457 
L 834.069709 287.649473 
L 836.688436 289.811786 
L 839.307162 291.6657 
L 841.925888 293.255198 
L 844.544615 294.617996 
L 848.03625 296.137617 
L 851.527885 297.375357 
L 854.146611 298.150516 
L 854.146611 298.150516 
" clip-path="url(#p189b146a31)" style="fill: none; stroke: #000000; stroke-width: 5; stroke-linecap: square"/>
   </g>
   <g id="line2d_26">
    <path d="M 506.728919 252.720329 
L 508.474736 257.604105 
L 510.220554 262.011709 
L 511.093463 264.05164 
L 511.966371 245.290416 
L 512.83928 245.266007 
L 513.712189 189.431215 
L 514.585098 158.987189 
L 516.330915 173.009942 
L 518.076733 185.665485 
L 519.82255 197.087106 
L 521.568368 207.395119 
L 523.314186 216.698101 
L 525.060003 225.094038 
L 526.805821 232.671372 
L 528.551638 239.509922 
L 529.424547 242.67494 
L 530.297456 237.351671 
L 532.043273 221.758438 
L 533.789091 229.660992 
L 535.534908 236.793051 
L 537.280726 243.229734 
L 539.026543 249.03884 
L 540.772361 254.281558 
L 542.518179 259.013112 
L 544.263996 263.283339 
L 546.009814 267.137219 
L 547.755631 270.615346 
L 548.62854 272.225094 
L 549.501449 257.789713 
L 550.374358 260.040744 
L 551.247266 257.689975 
L 552.993084 262.089209 
L 553.865993 264.125264 
L 554.738901 255.006837 
L 555.61181 241.161884 
L 557.357628 247.172605 
L 559.103445 252.597281 
L 560.849263 257.493052 
L 561.722172 232.432984 
L 563.467989 239.294775 
L 565.213807 245.48754 
L 566.086715 248.353677 
L 566.959624 237.88914 
L 568.705442 244.218957 
L 570.451259 249.931613 
L 571.324168 252.57555 
L 572.197077 241.012606 
L 573.069986 244.102491 
L 573.942894 202.290968 
L 574.815803 184.566656 
L 575.688712 161.941091 
L 576.561621 164.860889 
L 577.43453 164.618918 
L 579.180347 178.09258 
L 580.926165 190.252558 
L 582.671982 201.22694 
L 583.544891 206.306109 
L 584.4178 209.08221 
L 586.163617 218.220703 
L 587.036526 215.874305 
L 588.782344 224.350563 
L 589.655252 213.576069 
L 590.528161 184.531142 
L 592.273979 196.063366 
L 593.146888 194.828772 
L 594.892705 205.356972 
L 596.638523 214.858677 
L 597.511431 206.376136 
L 599.257249 215.778475 
L 600.130158 205.421193 
L 601.003066 210.290648 
L 601.875975 194.947617 
L 602.748884 185.139917 
L 603.621793 185.705337 
L 605.36761 197.123071 
L 607.113428 207.427582 
L 607.986337 197.451876 
L 609.732154 207.724326 
L 611.477972 216.995213 
L 613.223789 225.36219 
L 614.096698 202.643812 
L 614.969607 186.797891 
L 616.715424 198.109099 
L 618.461242 208.317468 
L 620.20706 217.530524 
L 621.079968 203.534715 
L 622.825786 213.21408 
L 624.571603 221.949714 
L 626.317421 229.833617 
L 628.063239 236.948849 
L 628.936147 240.241922 
L 629.809056 230.445262 
L 631.554874 237.500855 
L 633.300691 243.868529 
L 635.046509 249.615354 
L 636.792326 254.801864 
L 638.538144 259.482689 
L 640.283961 263.707129 
L 642.029779 267.519692 
L 643.775596 270.960526 
L 645.521414 274.065879 
L 648.14014 278.165552 
L 649.885958 280.568416 
L 650.758867 275.002671 
L 652.504684 277.713917 
L 653.377593 236.971732 
L 654.250502 222.634783 
L 655.123411 216.131171 
L 655.996319 207.758314 
L 657.742137 217.025888 
L 659.487954 225.389871 
L 660.360863 229.260897 
L 661.233772 224.19554 
L 662.106681 228.126275 
L 662.97959 225.203115 
L 664.725407 232.769819 
L 665.598316 207.320663 
L 667.344133 216.630911 
L 669.089951 225.033402 
L 670.835768 232.616657 
L 671.708677 227.243492 
L 673.454495 234.61126 
L 674.327404 225.910886 
L 676.073221 233.40858 
L 676.94613 217.994151 
L 677.819039 222.234958 
L 678.691947 198.457826 
L 680.437765 208.63219 
L 682.183583 217.814555 
L 683.9294 226.101645 
L 684.802309 229.937075 
L 685.675218 232.571497 
L 686.548126 222.77145 
L 688.293944 230.575237 
L 690.039762 237.618158 
L 690.91267 240.877768 
L 691.785579 228.557087 
L 692.658488 170.069467 
L 693.531397 142.924559 
L 694.404305 150.918851 
L 695.277214 155.067305 
L 697.023032 169.472256 
L 697.895941 176.139158 
L 698.768849 157.022908 
L 700.514667 171.237183 
L 702.260484 184.065563 
L 703.133393 188.787803 
L 704.006302 194.488928 
L 705.752119 179.876231 
L 707.497937 191.862305 
L 709.243755 202.679744 
L 710.989572 212.442473 
L 712.73539 221.253334 
L 713.608298 225.331187 
L 714.481207 195.693773 
L 715.354116 199.864561 
L 716.227025 167.849435 
L 717.099934 157.34406 
L 718.845751 171.52702 
L 720.591569 184.327145 
L 722.337386 195.87925 
L 724.083204 206.305034 
L 724.956113 211.130298 
L 725.829021 203.901043 
L 726.70193 177.107118 
L 728.447748 106.458659 
L 730.193565 125.602943 
L 731.939383 142.880663 
L 733.6852 158.473818 
L 735.431018 172.546635 
L 737.176835 185.247345 
L 738.922653 196.70973 
L 740.66847 207.054537 
L 742.414288 216.390728 
L 743.287197 220.711708 
L 744.160106 218.938186 
L 745.905923 227.115716 
L 747.651741 234.495942 
L 749.397558 241.156594 
L 751.143376 247.167831 
L 752.016285 241.518034 
L 753.762102 247.494032 
L 755.50792 252.887369 
L 757.253737 257.754855 
L 758.999555 262.147762 
L 760.745372 266.112359 
L 761.618281 267.947255 
L 762.49119 252.656855 
L 764.237007 257.546815 
L 765.982825 261.960005 
L 766.855734 223.365839 
L 768.601551 231.111672 
L 770.347369 238.10229 
L 772.093186 244.411324 
L 773.839004 250.105226 
L 775.584821 255.243973 
L 777.330639 259.881689 
L 779.076457 264.067232 
L 780.822274 231.779214 
L 781.695183 188.178921 
L 782.568092 164.541508 
L 784.313909 178.022716 
L 786.059727 190.18951 
L 786.932636 189.682471 
L 787.805544 161.184485 
L 789.551362 174.993005 
L 791.297179 187.455197 
L 793.042997 198.702324 
L 794.788815 208.852853 
L 796.534632 218.013704 
L 798.28045 226.281373 
L 800.026267 233.742945 
L 801.772085 240.477016 
L 803.517902 246.554512 
L 805.26372 252.039452 
L 807.009537 256.989609 
L 808.755355 261.457128 
L 810.501172 265.489062 
L 812.24699 269.127885 
L 813.119899 269.386967 
L 813.992808 260.741105 
L 814.865716 229.241893 
L 815.738625 227.766739 
L 816.611534 221.790647 
L 817.484443 224.546424 
L 819.23026 232.177152 
L 820.976078 239.063884 
L 822.721895 245.279163 
L 824.467713 250.888451 
L 826.21353 255.950831 
L 827.086439 232.28093 
L 828.832257 239.157546 
L 830.578074 245.363692 
L 831.450983 234.079267 
L 832.323892 237.515819 
L 833.196801 226.303313 
L 834.942618 233.762745 
L 836.688436 240.49488 
L 837.561345 233.29368 
L 839.307162 240.071553 
L 841.05298 246.188582 
L 842.798797 251.709199 
L 844.544615 256.691557 
L 846.290432 261.188135 
L 848.03625 265.246295 
L 848.909159 261.257757 
L 849.782067 236.046898 
L 850.654976 239.385069 
L 851.527885 238.419632 
L 853.273702 244.697725 
L 854.146611 243.282932 
L 854.146611 243.282932 
" clip-path="url(#p189b146a31)" style="fill: none; stroke: #ff0000; stroke-width: 5; stroke-linecap: square"/>
   </g>
   <g id="line2d_27">
    <path d="M 506.728919 289.299268 
L 509.347645 291.22628 
L 511.966371 292.878451 
L 514.585098 294.294981 
L 518.076733 295.874519 
L 521.568368 297.161063 
L 525.060003 298.208961 
L 529.424547 299.249871 
L 533.789091 300.055308 
L 539.026543 300.785127 
L 539.899452 296.692998 
L 543.391087 297.827719 
L 546.009814 298.53836 
L 546.882722 298.347869 
L 547.755631 298.570991 
L 548.62854 274.131057 
L 549.501449 235.339524 
L 550.374358 231.528917 
L 552.120175 238.478854 
L 553.865993 244.751172 
L 554.738901 240.555131 
L 555.61181 243.66789 
L 556.484719 195.227309 
L 558.230537 205.716657 
L 559.103445 210.571341 
L 559.976354 203.18844 
L 561.722172 212.901572 
L 563.467989 221.667668 
L 565.213807 229.57908 
L 566.959624 236.719123 
L 568.705442 243.163016 
L 570.451259 248.978631 
L 572.197077 254.227221 
L 573.942894 258.964073 
L 575.688712 263.239081 
L 577.43453 267.097275 
L 579.180347 270.579297 
L 580.926165 273.721819 
L 583.544891 277.870564 
L 586.163617 281.427596 
L 587.036526 261.57868 
L 588.782344 265.598762 
L 590.528161 269.226888 
L 592.273979 272.501271 
L 594.019796 275.456403 
L 596.638523 279.357753 
L 599.257249 282.702672 
L 601.875975 285.570524 
L 604.494702 288.029348 
L 607.113428 290.137481 
L 609.732154 291.944941 
L 612.350881 293.494613 
L 614.969607 294.823262 
L 618.461242 296.304808 
L 621.952877 297.511536 
L 625.444512 298.494423 
L 629.809056 299.470757 
L 634.1736 300.226225 
L 639.411053 300.910767 
L 645.521414 301.483784 
L 653.377593 301.974264 
L 662.97959 302.334762 
L 676.073221 302.589986 
L 683.056491 302.664139 
L 683.9294 275.067569 
L 686.548126 279.024376 
L 689.166853 282.416843 
L 691.785579 285.32546 
L 694.404305 287.819235 
L 695.277214 288.568788 
L 696.150123 286.833149 
L 697.023032 275.394883 
L 699.641758 279.305007 
L 702.260484 282.657451 
L 704.879211 285.531752 
L 707.497937 287.996105 
L 709.243755 289.440489 
L 710.116663 274.971303 
L 712.73539 278.94184 
L 715.354116 282.34608 
L 717.972842 285.264789 
L 720.591569 287.767218 
L 721.464477 288.519372 
L 722.337386 271.450202 
L 724.083204 274.507812 
L 724.956113 275.922937 
L 725.829021 265.607472 
L 727.574839 269.234749 
L 728.447748 253.586684 
L 729.320656 256.047867 
L 730.193565 244.154966 
L 731.939383 249.87386 
L 733.6852 255.035166 
L 735.431018 259.693243 
L 737.176835 263.897154 
L 738.922653 267.691189 
L 740.66847 271.115303 
L 742.414288 274.205565 
L 745.033014 278.285316 
L 746.778832 280.676502 
L 747.651741 271.804645 
L 748.524649 256.9457 
L 749.397558 207.699556 
L 750.270467 185.165368 
L 751.143376 172.049799 
L 752.889193 184.798949 
L 754.635011 196.305058 
L 756.380828 206.689324 
L 758.126646 216.061119 
L 759.872464 224.519161 
L 761.618281 232.152554 
L 763.364099 239.041686 
L 765.109916 245.259126 
L 766.855734 250.870366 
L 768.601551 255.934509 
L 770.347369 260.5049 
L 772.093186 264.629675 
L 773.839004 268.352288 
L 775.584821 271.711944 
L 777.330639 274.744034 
L 779.949365 278.746987 
L 782.568092 282.179018 
L 785.186818 285.121556 
L 787.805544 287.644414 
L 790.424271 289.807448 
L 793.042997 291.66198 
L 795.661723 293.252009 
L 798.28045 294.615261 
L 801.772085 296.135389 
L 804.390811 297.087399 
L 805.26372 263.332837 
L 806.136629 220.222294 
L 807.882446 228.274623 
L 809.628264 235.541856 
L 811.374081 242.10053 
L 813.119899 248.019734 
L 814.865716 253.361818 
L 816.611534 258.183046 
L 818.357351 262.534205 
L 820.103169 266.461122 
L 821.848987 270.005169 
L 823.594804 273.203668 
L 826.21353 277.426314 
L 828.832257 281.046705 
L 831.450983 284.15074 
L 833.196801 285.970048 
L 834.069709 279.009034 
L 834.942618 246.716314 
L 836.688436 252.185482 
L 837.561345 254.716725 
L 838.434253 249.650585 
L 840.180071 254.833659 
L 841.925888 259.511383 
L 843.671706 263.733031 
L 845.417523 267.543067 
L 847.163341 270.981623 
L 848.909159 274.08492 
L 851.527885 278.181878 
L 854.146611 281.694507 
L 854.146611 281.694507 
" clip-path="url(#p189b146a31)" style="fill: none; stroke: #0000ff; stroke-width: 5; stroke-linecap: square"/>
   </g>
   <g id="patch_7">
    <path d="M 505.85601 322.75952 
L 505.85601 31.720156 
" style="fill: none; stroke: #000000; stroke-width: 5; stroke-linejoin: miter; stroke-linecap: square"/>
   </g>
   <g id="patch_8">
    <path d="M 505.85601 322.75952 
L 855.01952 322.75952 
" style="fill: none; stroke: #000000; stroke-width: 5; stroke-linejoin: miter; stroke-linecap: square"/>
   </g>
   <g id="patch_9">
    <path d="M 593.146888 316.938733 
L 680.437765 316.938733 
L 680.437765 306.752355 
L 593.146888 306.752355 
z
" style="fill: #8c5a2b; stroke: #8c5a2b; stroke-linejoin: miter"/>
   </g>
   <g id="text_22">
    <!-- Novel | Expert -->
    <g transform="translate(613.039718 21.720156) scale(0.19 -0.19)">
     <defs>
      <path id="DejaVuSans-45" d="M 628 4666 
L 3578 4666 
L 3578 4134 
L 1259 4134 
L 1259 2753 
L 3481 2753 
L 3481 2222 
L 1259 2222 
L 1259 531 
L 3634 531 
L 3634 0 
L 628 0 
L 628 4666 
z
" transform="scale(0.015625)"/>
      <path id="DejaVuSans-78" d="M 3513 3500 
L 2247 1797 
L 3578 0 
L 2900 0 
L 1881 1375 
L 863 0 
L 184 0 
L 1544 1831 
L 300 3500 
L 978 3500 
L 1906 2253 
L 2834 3500 
L 3513 3500 
z
" transform="scale(0.015625)"/>
      <path id="DejaVuSans-70" d="M 1159 525 
L 1159 -1331 
L 581 -1331 
L 581 3500 
L 1159 3500 
L 1159 2969 
Q 1341 3281 1617 3432 
Q 1894 3584 2278 3584 
Q 2916 3584 3314 3078 
Q 3713 2572 3713 1747 
Q 3713 922 3314 415 
Q 2916 -91 2278 -91 
Q 1894 -91 1617 61 
Q 1341 213 1159 525 
z
M 3116 1747 
Q 3116 2381 2855 2742 
Q 2594 3103 2138 3103 
Q 1681 3103 1420 2742 
Q 1159 2381 1159 1747 
Q 1159 1113 1420 752 
Q 1681 391 2138 391 
Q 2594 391 2855 752 
Q 3116 1113 3116 1747 
z
" transform="scale(0.015625)"/>
     </defs>
     <use xlink:href="#DejaVuSans-4e"/>
     <use xlink:href="#DejaVuSans-6f" transform="translate(74.804688 0)"/>
     <use xlink:href="#DejaVuSans-76" transform="translate(135.986328 0)"/>
     <use xlink:href="#DejaVuSans-65" transform="translate(195.166016 0)"/>
     <use xlink:href="#DejaVuSans-6c" transform="translate(256.689453 0)"/>
     <use xlink:href="#DejaVuSans-20" transform="translate(284.472656 0)"/>
     <use xlink:href="#DejaVuSans-7c" transform="translate(316.259766 0)"/>
     <use xlink:href="#DejaVuSans-20" transform="translate(349.951172 0)"/>
     <use xlink:href="#DejaVuSans-45" transform="translate(381.738281 0)"/>
     <use xlink:href="#DejaVuSans-78" transform="translate(444.921875 0)"/>
     <use xlink:href="#DejaVuSans-70" transform="translate(504.101562 0)"/>
     <use xlink:href="#DejaVuSans-65" transform="translate(567.578125 0)"/>
     <use xlink:href="#DejaVuSans-72" transform="translate(629.101562 0)"/>
     <use xlink:href="#DejaVuSans-74" transform="translate(670.214844 0)"/>
    </g>
   </g>
  </g>
 </g>
 <defs>
  <clipPath id="pa6f02bfa4f">
   <rect x="121.92" y="31.720156" width="349.16351" height="291.039364"/>
  </clipPath>
  <clipPath id="p189b146a31">
   <rect x="505.85601" y="31.720156" width="349.16351" height="291.039364"/>
  </clipPath>
 </defs>
</svg>
