<?xml version="1.0" encoding="utf-8" standalone="no"?>
<!DOCTYPE svg PUBLIC "-//W3C//DTD SVG 1.1//EN"
  "http://www.w3.org/Graphics/SVG/1.1/DTD/svg11.dtd">
<svg xmlns:xlink="http://www.w3.org/1999/xlink" width="1478.5pt" height="418.280156pt" viewBox="0 0 1478.5 418.280156" xmlns="http://www.w3.org/2000/svg" version="1.1">
 <metadata>
  <rdf:RDF xmlns:dc="http://purl.org/dc/elements/1.1/" xmlns:cc="http://creativecommons.org/ns#" xmlns:rdf="http://www.w3.org/1999/02/22-rdf-syntax-ns#">
   <cc:Work>
    <dc:type rdf:resource="http://purl.org/dc/dcmitype/StillImage"/>
    <dc:date>2026-03-25T11:55:42.236376</dc:date>
    <dc:format>image/svg+xml</dc:format>
    <dc:creator>
     <cc:Agent>
      <dc:title>Matplotlib v3.10.7, https://matplotlib.org/</dc:title>
     </cc:Agent>
    </dc:creator>
   </cc:Work>
  </rdf:RDF>
 </metadata>
 <defs>
  <style type="text/css">*{stroke-linejoin: round; stroke-linecap: butt}</style>
 </defs>
 <g id="figure_1">
  <g id="patch_1">
   <path d="M 0 418.280156 
L 1478.5 418.280156 
L 1478.5 -0 
L 0 -0 
z
" style="fill: #ffffff"/>
  </g>
  <g id="axes_1">
   <g id="patch_2">
    <path d="M 121.92 336.640156 
L 422.86382 336.640156 
L 422.86382 31.720156 
L 121.92 31.720156 
z
" style="fill: #ffffff"/>
   </g>
   <g id="matplotlib.axis_1">
    <g id="xtick_1">
     <g id="line2d_1">
      <defs>
       <path id="mc684eb2511" d="M 0 0 
L 0 5 
" style="stroke: #000000; stroke-width: 1.6"/>
      </defs>
      <g>
       <use xlink:href="#mc684eb2511" x="121.92" y="336.640156" style="stroke: #000000; stroke-width: 1.6"/>
      </g>
     </g>
     <g id="text_1">
      <!-- -1 -->
      <g transform="translate(105.9675 369.455156) scale(0.32 -0.32)">
       <defs>
        <path id="DejaVuSans-2d" d="M 313 2009 
L 1997 2009 
L 1997 1497 
L 313 1497 
L 313 2009 
z
" transform="scale(0.015625)"/>
        <path id="DejaVuSans-31" d="M 794 531 
L 1825 531 
L 1825 4091 
L 703 3866 
L 703 4441 
L 1819 4666 
L 2450 4666 
L 2450 531 
L 3481 531 
L 3481 0 
L 794 0 
L 794 531 
z
" transform="scale(0.015625)"/>
       </defs>
       <use xlink:href="#DejaVuSans-2d"/>
       <use xlink:href="#DejaVuSans-31" transform="translate(36.083984 0)"/>
      </g>
     </g>
    </g>
    <g id="xtick_2">
     <g id="line2d_2">
      <g>
       <use xlink:href="#mc684eb2511" x="197.155955" y="336.640156" style="stroke: #000000; stroke-width: 1.6"/>
      </g>
     </g>
     <g id="text_2">
      <!-- 0 -->
      <g transform="translate(186.975955 369.455156) scale(0.32 -0.32)">
       <defs>
        <path id="DejaVuSans-30" d="M 2034 4250 
Q 1547 4250 1301 3770 
Q 1056 3291 1056 2328 
Q 1056 1369 1301 889 
Q 1547 409 2034 409 
Q 2525 409 2770 889 
Q 3016 1369 3016 2328 
Q 3016 3291 2770 3770 
Q 2525 4250 2034 4250 
z
M 2034 4750 
Q 2819 4750 3233 4129 
Q 3647 3509 3647 2328 
Q 3647 1150 3233 529 
Q 2819 -91 2034 -91 
Q 1250 -91 836 529 
Q 422 1150 422 2328 
Q 422 3509 836 4129 
Q 1250 4750 2034 4750 
z
" transform="scale(0.015625)"/>
       </defs>
       <use xlink:href="#DejaVuSans-30"/>
      </g>
     </g>
    </g>
    <g id="xtick_3">
     <g id="line2d_3">
      <g>
       <use xlink:href="#mc684eb2511" x="272.39191" y="336.640156" style="stroke: #000000; stroke-width: 1.6"/>
      </g>
     </g>
     <g id="text_3">
      <!-- 1 -->
      <g transform="translate(262.21191 369.455156) scale(0.32 -0.32)">
       <use xlink:href="#DejaVuSans-31"/>
      </g>
     </g>
    </g>
    <g id="xtick_4">
     <g id="line2d_4">
      <g>
       <use xlink:href="#mc684eb2511" x="347.627865" y="336.640156" style="stroke: #000000; stroke-width: 1.6"/>
      </g>
     </g>
     <g id="text_4">
      <!-- 2 -->
      <g transform="translate(337.447865 369.455156) scale(0.32 -0.32)">
       <defs>
        <path id="DejaVuSans-32" d="M 1228 531 
L 3431 531 
L 3431 0 
L 469 0 
L 469 531 
Q 828 903 1448 1529 
Q 2069 2156 2228 2338 
Q 2531 2678 2651 2914 
Q 2772 3150 2772 3378 
Q 2772 3750 2511 3984 
Q 2250 4219 1831 4219 
Q 1534 4219 1204 4116 
Q 875 4013 500 3803 
L 500 4441 
Q 881 4594 1212 4672 
Q 1544 4750 1819 4750 
Q 2544 4750 2975 4387 
Q 3406 4025 3406 3419 
Q 3406 3131 3298 2873 
Q 3191 2616 2906 2266 
Q 2828 2175 2409 1742 
Q 1991 1309 1228 531 
z
" transform="scale(0.015625)"/>
       </defs>
       <use xlink:href="#DejaVuSans-32"/>
      </g>
     </g>
    </g>
    <g id="xtick_5">
     <g id="line2d_5">
      <g>
       <use xlink:href="#mc684eb2511" x="422.86382" y="336.640156" style="stroke: #000000; stroke-width: 1.6"/>
      </g>
     </g>
     <g id="text_5">
      <!-- 3 -->
      <g transform="translate(412.68382 369.455156) scale(0.32 -0.32)">
       <defs>
        <path id="DejaVuSans-33" d="M 2597 2516 
Q 3050 2419 3304 2112 
Q 3559 1806 3559 1356 
Q 3559 666 3084 287 
Q 2609 -91 1734 -91 
Q 1441 -91 1130 -33 
Q 819 25 488 141 
L 488 750 
Q 750 597 1062 519 
Q 1375 441 1716 441 
Q 2309 441 2620 675 
Q 2931 909 2931 1356 
Q 2931 1769 2642 2001 
Q 2353 2234 1838 2234 
L 1294 2234 
L 1294 2753 
L 1863 2753 
Q 2328 2753 2575 2939 
Q 2822 3125 2822 3475 
Q 2822 3834 2567 4026 
Q 2313 4219 1838 4219 
Q 1578 4219 1281 4162 
Q 984 4106 628 3988 
L 628 4550 
Q 988 4650 1302 4700 
Q 1616 4750 1894 4750 
Q 2613 4750 3031 4423 
Q 3450 4097 3450 3541 
Q 3450 3153 3228 2886 
Q 3006 2619 2597 2516 
z
" transform="scale(0.015625)"/>
       </defs>
       <use xlink:href="#DejaVuSans-33"/>
      </g>
     </g>
    </g>
    <g id="text_6">
     <!-- Time (s) -->
     <g transform="translate(207.33941 404.425156) scale(0.32 -0.32)">
      <defs>
       <path id="DejaVuSans-54" d="M -19 4666 
L 3928 4666 
L 3928 4134 
L 2272 4134 
L 2272 0 
L 1638 0 
L 1638 4134 
L -19 4134 
L -19 4666 
z
" transform="scale(0.015625)"/>
       <path id="DejaVuSans-69" d="M 603 3500 
L 1178 3500 
L 1178 0 
L 603 0 
L 603 3500 
z
M 603 4863 
L 1178 4863 
L 1178 4134 
L 603 4134 
L 603 4863 
z
" transform="scale(0.015625)"/>
       <path id="DejaVuSans-6d" d="M 3328 2828 
Q 3544 3216 3844 3400 
Q 4144 3584 4550 3584 
Q 5097 3584 5394 3201 
Q 5691 2819 5691 2113 
L 5691 0 
L 5113 0 
L 5113 2094 
Q 5113 2597 4934 2840 
Q 4756 3084 4391 3084 
Q 3944 3084 3684 2787 
Q 3425 2491 3425 1978 
L 3425 0 
L 2847 0 
L 2847 2094 
Q 2847 2600 2669 2842 
Q 2491 3084 2119 3084 
Q 1678 3084 1418 2786 
Q 1159 2488 1159 1978 
L 1159 0 
L 581 0 
L 581 3500 
L 1159 3500 
L 1159 2956 
Q 1356 3278 1631 3431 
Q 1906 3584 2284 3584 
Q 2666 3584 2933 3390 
Q 3200 3197 3328 2828 
z
" transform="scale(0.015625)"/>
       <path id="DejaVuSans-65" d="M 3597 1894 
L 3597 1613 
L 953 1613 
Q 991 1019 1311 708 
Q 1631 397 2203 397 
Q 2534 397 2845 478 
Q 3156 559 3463 722 
L 3463 178 
Q 3153 47 2828 -22 
Q 2503 -91 2169 -91 
Q 1331 -91 842 396 
Q 353 884 353 1716 
Q 353 2575 817 3079 
Q 1281 3584 2069 3584 
Q 2775 3584 3186 3129 
Q 3597 2675 3597 1894 
z
M 3022 2063 
Q 3016 2534 2758 2815 
Q 2500 3097 2075 3097 
Q 1594 3097 1305 2825 
Q 1016 2553 972 2059 
L 3022 2063 
z
" transform="scale(0.015625)"/>
       <path id="DejaVuSans-20" transform="scale(0.015625)"/>
       <path id="DejaVuSans-28" d="M 1984 4856 
Q 1566 4138 1362 3434 
Q 1159 2731 1159 2009 
Q 1159 1288 1364 580 
Q 1569 -128 1984 -844 
L 1484 -844 
Q 1016 -109 783 600 
Q 550 1309 550 2009 
Q 550 2706 781 3412 
Q 1013 4119 1484 4856 
L 1984 4856 
z
" transform="scale(0.015625)"/>
       <path id="DejaVuSans-73" d="M 2834 3397 
L 2834 2853 
Q 2591 2978 2328 3040 
Q 2066 3103 1784 3103 
Q 1356 3103 1142 2972 
Q 928 2841 928 2578 
Q 928 2378 1081 2264 
Q 1234 2150 1697 2047 
L 1894 2003 
Q 2506 1872 2764 1633 
Q 3022 1394 3022 966 
Q 3022 478 2636 193 
Q 2250 -91 1575 -91 
Q 1294 -91 989 -36 
Q 684 19 347 128 
L 347 722 
Q 666 556 975 473 
Q 1284 391 1588 391 
Q 1994 391 2212 530 
Q 2431 669 2431 922 
Q 2431 1156 2273 1281 
Q 2116 1406 1581 1522 
L 1381 1569 
Q 847 1681 609 1914 
Q 372 2147 372 2553 
Q 372 3047 722 3315 
Q 1072 3584 1716 3584 
Q 2034 3584 2315 3537 
Q 2597 3491 2834 3397 
z
" transform="scale(0.015625)"/>
       <path id="DejaVuSans-29" d="M 513 4856 
L 1013 4856 
Q 1481 4119 1714 3412 
Q 1947 2706 1947 2009 
Q 1947 1309 1714 600 
Q 1481 -109 1013 -844 
L 513 -844 
Q 928 -128 1133 580 
Q 1338 1288 1338 2009 
Q 1338 2731 1133 3434 
Q 928 4138 513 4856 
z
" transform="scale(0.015625)"/>
      </defs>
      <use xlink:href="#DejaVuSans-54"/>
      <use xlink:href="#DejaVuSans-69" transform="translate(57.958984 0)"/>
      <use xlink:href="#DejaVuSans-6d" transform="translate(85.742188 0)"/>
      <use xlink:href="#DejaVuSans-65" transform="translate(183.154297 0)"/>
      <use xlink:href="#DejaVuSans-20" transform="translate(244.677734 0)"/>
      <use xlink:href="#DejaVuSans-28" transform="translate(276.464844 0)"/>
      <use xlink:href="#DejaVuSans-73" transform="translate(315.478516 0)"/>
      <use xlink:href="#DejaVuSans-29" transform="translate(367.578125 0)"/>
     </g>
    </g>
   </g>
   <g id="matplotlib.axis_2">
    <g id="ytick_1">
     <g id="line2d_6">
      <defs>
       <path id="mf224cb1eb6" d="M 0 0 
L -5 0 
" style="stroke: #000000; stroke-width: 1.6"/>
      </defs>
      <g>
       <use xlink:href="#mf224cb1eb6" x="121.92" y="315.612144" style="stroke: #000000; stroke-width: 1.6"/>
      </g>
     </g>
     <g id="text_7">
      <!-- 0.00 -->
      <g transform="translate(42.17 327.769644) scale(0.32 -0.32)">
       <defs>
        <path id="DejaVuSans-2e" d="M 684 794 
L 1344 794 
L 1344 0 
L 684 0 
L 684 794 
z
" transform="scale(0.015625)"/>
       </defs>
       <use xlink:href="#DejaVuSans-30"/>
       <use xlink:href="#DejaVuSans-2e" transform="translate(63.623047 0)"/>
       <use xlink:href="#DejaVuSans-30" transform="translate(95.410156 0)"/>
       <use xlink:href="#DejaVuSans-30" transform="translate(159.033203 0)"/>
      </g>
     </g>
    </g>
    <g id="ytick_2">
     <g id="line2d_7">
      <g>
       <use xlink:href="#mf224cb1eb6" x="121.92" y="237.556041" style="stroke: #000000; stroke-width: 1.6"/>
      </g>
     </g>
     <g id="text_8">
      <!-- 0.05 -->
      <g transform="translate(42.17 249.713541) scale(0.32 -0.32)">
       <defs>
        <path id="DejaVuSans-35" d="M 691 4666 
L 3169 4666 
L 3169 4134 
L 1269 4134 
L 1269 2991 
Q 1406 3038 1543 3061 
Q 1681 3084 1819 3084 
Q 2600 3084 3056 2656 
Q 3513 2228 3513 1497 
Q 3513 744 3044 326 
Q 2575 -91 1722 -91 
Q 1428 -91 1123 -41 
Q 819 9 494 109 
L 494 744 
Q 775 591 1075 516 
Q 1375 441 1709 441 
Q 2250 441 2565 725 
Q 2881 1009 2881 1497 
Q 2881 1984 2565 2268 
Q 2250 2553 1709 2553 
Q 1456 2553 1204 2497 
Q 953 2441 691 2322 
L 691 4666 
z
" transform="scale(0.015625)"/>
       </defs>
       <use xlink:href="#DejaVuSans-30"/>
       <use xlink:href="#DejaVuSans-2e" transform="translate(63.623047 0)"/>
       <use xlink:href="#DejaVuSans-30" transform="translate(95.410156 0)"/>
       <use xlink:href="#DejaVuSans-35" transform="translate(159.033203 0)"/>
      </g>
     </g>
    </g>
    <g id="ytick_3">
     <g id="line2d_8">
      <g>
       <use xlink:href="#mf224cb1eb6" x="121.92" y="159.499938" style="stroke: #000000; stroke-width: 1.6"/>
      </g>
     </g>
     <g id="text_9">
      <!-- 0.10 -->
      <g transform="translate(42.17 171.657438) scale(0.32 -0.32)">
       <use xlink:href="#DejaVuSans-30"/>
       <use xlink:href="#DejaVuSans-2e" transform="translate(63.623047 0)"/>
       <use xlink:href="#DejaVuSans-31" transform="translate(95.410156 0)"/>
       <use xlink:href="#DejaVuSans-30" transform="translate(159.033203 0)"/>
      </g>
     </g>
    </g>
    <g id="ytick_4">
     <g id="line2d_9">
      <g>
       <use xlink:href="#mf224cb1eb6" x="121.92" y="81.443836" style="stroke: #000000; stroke-width: 1.6"/>
      </g>
     </g>
     <g id="text_10">
      <!-- 0.15 -->
      <g transform="translate(42.17 93.601336) scale(0.32 -0.32)">
       <use xlink:href="#DejaVuSans-30"/>
       <use xlink:href="#DejaVuSans-2e" transform="translate(63.623047 0)"/>
       <use xlink:href="#DejaVuSans-31" transform="translate(95.410156 0)"/>
       <use xlink:href="#DejaVuSans-35" transform="translate(159.033203 0)"/>
      </g>
     </g>
    </g>
    <g id="text_11">
     <!-- Neural Activity -->
     <g transform="translate(31.515 301.885156) rotate(-90) scale(0.32 -0.32)">
      <defs>
       <path id="DejaVuSans-4e" d="M 628 4666 
L 1478 4666 
L 3547 763 
L 3547 4666 
L 4159 4666 
L 4159 0 
L 3309 0 
L 1241 3903 
L 1241 0 
L 628 0 
L 628 4666 
z
" transform="scale(0.015625)"/>
       <path id="DejaVuSans-75" d="M 544 1381 
L 544 3500 
L 1119 3500 
L 1119 1403 
Q 1119 906 1312 657 
Q 1506 409 1894 409 
Q 2359 409 2629 706 
Q 2900 1003 2900 1516 
L 2900 3500 
L 3475 3500 
L 3475 0 
L 2900 0 
L 2900 538 
Q 2691 219 2414 64 
Q 2138 -91 1772 -91 
Q 1169 -91 856 284 
Q 544 659 544 1381 
z
M 1991 3584 
L 1991 3584 
z
" transform="scale(0.015625)"/>
       <path id="DejaVuSans-72" d="M 2631 2963 
Q 2534 3019 2420 3045 
Q 2306 3072 2169 3072 
Q 1681 3072 1420 2755 
Q 1159 2438 1159 1844 
L 1159 0 
L 581 0 
L 581 3500 
L 1159 3500 
L 1159 2956 
Q 1341 3275 1631 3429 
Q 1922 3584 2338 3584 
Q 2397 3584 2469 3576 
Q 2541 3569 2628 3553 
L 2631 2963 
z
" transform="scale(0.015625)"/>
       <path id="DejaVuSans-61" d="M 2194 1759 
Q 1497 1759 1228 1600 
Q 959 1441 959 1056 
Q 959 750 1161 570 
Q 1363 391 1709 391 
Q 2188 391 2477 730 
Q 2766 1069 2766 1631 
L 2766 1759 
L 2194 1759 
z
M 3341 1997 
L 3341 0 
L 2766 0 
L 2766 531 
Q 2569 213 2275 61 
Q 1981 -91 1556 -91 
Q 1019 -91 701 211 
Q 384 513 384 1019 
Q 384 1609 779 1909 
Q 1175 2209 1959 2209 
L 2766 2209 
L 2766 2266 
Q 2766 2663 2505 2880 
Q 2244 3097 1772 3097 
Q 1472 3097 1187 3025 
Q 903 2953 641 2809 
L 641 3341 
Q 956 3463 1253 3523 
Q 1550 3584 1831 3584 
Q 2591 3584 2966 3190 
Q 3341 2797 3341 1997 
z
" transform="scale(0.015625)"/>
       <path id="DejaVuSans-6c" d="M 603 4863 
L 1178 4863 
L 1178 0 
L 603 0 
L 603 4863 
z
" transform="scale(0.015625)"/>
       <path id="DejaVuSans-41" d="M 2188 4044 
L 1331 1722 
L 3047 1722 
L 2188 4044 
z
M 1831 4666 
L 2547 4666 
L 4325 0 
L 3669 0 
L 3244 1197 
L 1141 1197 
L 716 0 
L 50 0 
L 1831 4666 
z
" transform="scale(0.015625)"/>
       <path id="DejaVuSans-63" d="M 3122 3366 
L 3122 2828 
Q 2878 2963 2633 3030 
Q 2388 3097 2138 3097 
Q 1578 3097 1268 2742 
Q 959 2388 959 1747 
Q 959 1106 1268 751 
Q 1578 397 2138 397 
Q 2388 397 2633 464 
Q 2878 531 3122 666 
L 3122 134 
Q 2881 22 2623 -34 
Q 2366 -91 2075 -91 
Q 1284 -91 818 406 
Q 353 903 353 1747 
Q 353 2603 823 3093 
Q 1294 3584 2113 3584 
Q 2378 3584 2631 3529 
Q 2884 3475 3122 3366 
z
" transform="scale(0.015625)"/>
       <path id="DejaVuSans-74" d="M 1172 4494 
L 1172 3500 
L 2356 3500 
L 2356 3053 
L 1172 3053 
L 1172 1153 
Q 1172 725 1289 603 
Q 1406 481 1766 481 
L 2356 481 
L 2356 0 
L 1766 0 
Q 1100 0 847 248 
Q 594 497 594 1153 
L 594 3053 
L 172 3053 
L 172 3500 
L 594 3500 
L 594 4494 
L 1172 4494 
z
" transform="scale(0.015625)"/>
       <path id="DejaVuSans-76" d="M 191 3500 
L 800 3500 
L 1894 563 
L 2988 3500 
L 3597 3500 
L 2284 0 
L 1503 0 
L 191 3500 
z
" transform="scale(0.015625)"/>
       <path id="DejaVuSans-79" d="M 2059 -325 
Q 1816 -950 1584 -1140 
Q 1353 -1331 966 -1331 
L 506 -1331 
L 506 -850 
L 844 -850 
Q 1081 -850 1212 -737 
Q 1344 -625 1503 -206 
L 1606 56 
L 191 3500 
L 800 3500 
L 1894 763 
L 2988 3500 
L 3597 3500 
L 2059 -325 
z
" transform="scale(0.015625)"/>
      </defs>
      <use xlink:href="#DejaVuSans-4e"/>
      <use xlink:href="#DejaVuSans-65" transform="translate(74.804688 0)"/>
      <use xlink:href="#DejaVuSans-75" transform="translate(136.328125 0)"/>
      <use xlink:href="#DejaVuSans-72" transform="translate(199.707031 0)"/>
      <use xlink:href="#DejaVuSans-61" transform="translate(240.820312 0)"/>
      <use xlink:href="#DejaVuSans-6c" transform="translate(302.099609 0)"/>
      <use xlink:href="#DejaVuSans-20" transform="translate(329.882812 0)"/>
      <use xlink:href="#DejaVuSans-41" transform="translate(361.669922 0)"/>
      <use xlink:href="#DejaVuSans-63" transform="translate(428.328125 0)"/>
      <use xlink:href="#DejaVuSans-74" transform="translate(483.308594 0)"/>
      <use xlink:href="#DejaVuSans-69" transform="translate(522.517578 0)"/>
      <use xlink:href="#DejaVuSans-76" transform="translate(550.300781 0)"/>
      <use xlink:href="#DejaVuSans-69" transform="translate(609.480469 0)"/>
      <use xlink:href="#DejaVuSans-74" transform="translate(637.263672 0)"/>
      <use xlink:href="#DejaVuSans-79" transform="translate(676.472656 0)"/>
     </g>
    </g>
   </g>
   <g id="line2d_10">
    <path d="M 122.67236 296.92267 
L 123.424719 297.857143 
L 124.177079 296.695162 
L 125.681798 298.539568 
L 126.434157 297.453641 
L 128.691236 300.043498 
L 130.948315 302.263978 
L 133.205393 304.16776 
L 135.462472 305.800015 
L 136.214831 306.196105 
L 136.967191 303.064106 
L 139.22427 304.85377 
L 139.976629 305.391689 
L 140.728989 304.537914 
L 141.481348 301.513037 
L 143.738427 303.523923 
L 145.995506 305.248005 
L 147.500225 306.258509 
L 148.252584 303.584518 
L 150.509663 305.299959 
L 151.262022 304.59046 
L 152.014382 302.363428 
L 152.766742 303.025864 
L 153.519101 300.44112 
L 155.77618 302.604889 
L 158.033258 304.460048 
L 160.290337 306.050617 
L 162.547416 307.414329 
L 164.052135 308.213617 
L 164.804494 308.390077 
L 165.556854 308.751181 
L 166.309213 304.433158 
L 167.813933 305.52311 
L 168.566292 305.727718 
L 170.823371 307.137485 
L 173.080449 308.346184 
L 173.832809 304.010299 
L 176.089888 305.665013 
L 178.346966 307.083723 
L 179.099326 307.510144 
L 180.604045 300.417917 
L 182.861124 302.584995 
L 185.118202 304.442993 
L 187.375281 306.035994 
L 188.12764 306.299049 
L 190.384719 307.627329 
L 193.394157 309.108463 
L 194.146517 309.433647 
L 194.898876 308.448849 
L 195.651236 308.807014 
L 196.403596 306.401427 
L 197.155955 252.396773 
L 198.660674 193.931099 
L 199.413034 170.674791 
L 200.165393 160.682917 
L 200.917753 157.586442 
L 201.670112 149.444044 
L 202.422472 139.547558 
L 203.174831 132.097767 
L 203.927191 121.136044 
L 204.679551 112.024494 
L 205.43191 100.804719 
L 206.936629 120.991083 
L 207.688989 128.479153 
L 208.441348 127.517131 
L 209.193708 126.038285 
L 210.698427 117.659307 
L 211.450787 109.751931 
L 212.203146 109.001645 
L 212.955506 110.006167 
L 213.707865 109.962736 
L 214.460225 110.108336 
L 215.212584 102.758633 
L 215.964944 110.315233 
L 216.717303 107.462712 
L 217.469663 101.233425 
L 218.222022 97.837979 
L 218.974382 95.198822 
L 219.726742 84.150701 
L 221.231461 90.980231 
L 221.98382 87.901086 
L 222.73618 81.109032 
L 223.488539 83.04694 
L 224.240899 85.67542 
L 224.993258 79.570471 
L 225.745618 77.319822 
L 226.497978 77.624165 
L 227.250337 83.680333 
L 228.002697 75.05333 
L 229.507416 85.05573 
L 230.259775 86.920129 
L 231.012135 85.388384 
L 231.764494 82.480917 
L 232.516854 80.069569 
L 233.269213 81.702692 
L 234.021573 86.945136 
L 234.773933 81.435173 
L 235.526292 78.924169 
L 236.278652 78.017046 
L 237.031011 81.310834 
L 237.783371 78.29936 
L 238.53573 77.672272 
L 239.28809 75.368305 
L 240.040449 67.505499 
L 240.792809 64.452943 
L 241.545169 62.684037 
L 243.049888 78.848496 
L 243.802247 78.673003 
L 244.554607 86.487259 
L 245.306966 86.951533 
L 246.059326 92.673441 
L 246.811685 86.409283 
L 247.564045 96.177732 
L 248.316404 94.962474 
L 249.068764 94.36144 
L 249.821124 88.172839 
L 250.573483 85.68647 
L 251.325843 78.766798 
L 252.078202 76.369966 
L 252.830562 72.773555 
L 253.582921 71.057851 
L 254.335281 80.496413 
L 255.08764 85.057754 
L 255.84 87.722384 
L 256.59236 92.693028 
L 257.344719 94.259574 
L 258.097079 94.84765 
L 258.849438 93.460971 
L 259.601798 91.274595 
L 260.354157 76.487209 
L 261.106517 73.005785 
L 261.858876 77.015082 
L 262.611236 76.984841 
L 263.363596 85.568692 
L 264.115955 90.849356 
L 264.868315 94.390472 
L 265.620674 90.448078 
L 266.373034 99.256319 
L 267.125393 104.066126 
L 268.630112 108.219907 
L 269.382472 105.035685 
L 270.134831 102.937056 
L 270.887191 90.11554 
L 271.639551 89.334477 
L 273.896629 121.607354 
L 276.153708 149.277298 
L 278.410787 173.000811 
L 280.667865 193.340755 
L 282.924944 210.779721 
L 285.182022 225.731445 
L 287.439101 238.550682 
L 289.69618 249.541576 
L 291.953258 258.964896 
L 294.210337 267.044212 
L 296.467416 273.971212 
L 298.724494 279.910253 
L 300.981573 285.002238 
L 303.238652 289.367975 
L 303.991011 285.086713 
L 304.743371 286.612985 
L 305.49573 285.549649 
L 306.24809 282.681114 
L 307.752809 285.89189 
L 308.505169 286.899105 
L 309.257528 287.365807 
L 311.514607 291.343293 
L 313.771685 294.804638 
L 316.028764 297.772309 
L 318.285843 300.316717 
L 319.038202 298.393139 
L 319.790562 297.128755 
L 321.295281 298.930886 
L 322.04764 299.007536 
L 324.304719 301.37577 
L 325.057079 300.208995 
L 326.561798 301.710802 
L 327.314157 298.500053 
L 329.571236 300.940666 
L 331.828315 303.033186 
L 332.580674 303.662134 
L 333.333034 300.663512 
L 335.590112 302.79556 
L 336.342472 297.005319 
L 337.094831 297.497285 
L 338.599551 299.263484 
L 339.35191 292.753377 
L 341.608989 296.013609 
L 343.866067 298.808851 
L 346.123146 301.205421 
L 348.380225 303.26018 
L 350.637303 305.021879 
L 351.389663 302.297331 
L 352.142022 291.919183 
L 352.894382 287.934709 
L 354.399101 290.633262 
L 355.151461 290.833369 
L 355.90382 286.498766 
L 358.160899 290.651064 
L 360.417978 294.211138 
L 362.675056 297.263457 
L 364.932135 299.88044 
L 367.189213 302.124175 
L 369.446292 304.047896 
L 371.703371 305.697247 
L 373.960449 307.11136 
L 376.969888 308.688202 
L 379.979326 309.97255 
L 380.731685 310.25453 
L 381.484045 309.6291 
L 382.236404 308.673194 
L 382.988764 302.353066 
L 385.245843 304.244143 
L 387.502921 305.865504 
L 389.76 307.255619 
L 390.51236 307.673446 
L 391.264719 307.864763 
L 394.274157 309.297295 
L 397.283596 310.46866 
L 400.293034 311.422744 
L 402.550112 312.020257 
L 403.302472 305.188029 
L 404.807191 306.20438 
L 405.559551 304.85214 
L 407.816629 306.386786 
L 410.073708 307.702553 
L 410.826067 308.098033 
L 411.578427 304.986308 
L 412.330787 303.692548 
L 413.083146 300.312457 
L 415.340225 302.494575 
L 417.597303 304.365469 
L 419.854382 305.969526 
L 422.111461 307.344806 
L 422.111461 307.344806 
" clip-path="url(#pe28d17b7f5)" style="fill: none; stroke: #000000; stroke-width: 5; stroke-linecap: square"/>
   </g>
   <g id="line2d_11">
    <path d="M 122.67236 303.479248 
L 124.929438 305.209702 
L 125.681798 302.381873 
L 127.938876 304.26884 
L 130.195955 305.886679 
L 132.453034 307.273774 
L 133.957753 307.486711 
L 134.710112 307.892982 
L 135.462472 306.868816 
L 136.214831 299.978306 
L 136.967191 296.299788 
L 137.719551 289.322977 
L 139.22427 285.816069 
L 139.976629 285.190152 
L 140.728989 282.621044 
L 141.481348 276.251772 
L 142.986067 280.089409 
L 143.738427 280.037135 
L 145.995506 285.111022 
L 148.252584 289.461246 
L 150.509663 293.191019 
L 152.766742 296.388832 
L 153.519101 297.349998 
L 154.271461 297.312778 
L 155.02382 298.227747 
L 155.77618 296.527592 
L 156.528539 295.715004 
L 158.033258 297.487247 
L 160.290337 300.072312 
L 161.795056 301.587446 
L 163.299775 300.753792 
L 164.052135 301.49671 
L 164.804494 296.969756 
L 165.556854 297.901875 
L 166.309213 296.366694 
L 167.061573 297.258922 
L 167.813933 290.114109 
L 168.566292 289.795808 
L 169.318652 291.086625 
L 170.071011 285.15163 
L 172.32809 289.496062 
L 174.585169 293.220868 
L 176.842247 296.414426 
L 177.594607 297.308285 
L 178.346966 295.596169 
L 180.604045 298.450948 
L 182.861124 300.898565 
L 184.365843 302.333139 
L 185.118202 301.968714 
L 185.870562 295.888559 
L 186.622921 294.831668 
L 188.12764 296.857764 
L 189.63236 297.780906 
L 191.889438 300.324088 
L 192.641798 300.903824 
L 193.394157 297.554519 
L 194.146517 297.579987 
L 194.898876 297.745513 
L 195.651236 298.638846 
L 196.403596 293.7312 
L 197.155955 290.585114 
L 197.908315 288.42691 
L 200.165393 292.304205 
L 202.422472 295.628501 
L 204.679551 298.478668 
L 206.936629 300.922329 
L 207.688989 296.630393 
L 208.441348 293.289794 
L 209.193708 288.976417 
L 211.450787 292.775337 
L 212.203146 293.917177 
L 212.955506 294.051153 
L 215.212584 297.12629 
L 217.469663 299.762834 
L 218.222022 300.271073 
L 218.974382 297.626034 
L 219.726742 294.550065 
L 221.98382 297.554044 
L 223.488539 299.314708 
L 224.240899 298.771673 
L 224.993258 297.411491 
L 227.250337 300.00736 
L 229.507416 302.232992 
L 230.259775 302.90195 
L 231.012135 301.471794 
L 231.764494 302.178812 
L 232.516854 301.955341 
L 234.021573 303.28688 
L 234.773933 296.428296 
L 237.031011 299.164393 
L 237.783371 297.417929 
L 238.53573 290.96657 
L 239.28809 292.198849 
L 240.040449 293.029214 
L 242.297528 296.250105 
L 243.049888 297.218207 
L 243.802247 297.942006 
L 245.306966 299.664844 
L 246.059326 296.70013 
L 246.811685 293.049759 
L 247.564045 292.137446 
L 248.316404 293.01637 
L 250.573483 296.239093 
L 251.325843 297.207746 
L 252.078202 296.197811 
L 254.335281 298.966779 
L 255.08764 299.799047 
L 255.84 300.4111 
L 256.59236 301.171152 
L 257.344719 299.697004 
L 258.849438 292.215518 
L 259.601798 292.1414 
L 261.106517 294.231058 
L 263.363596 297.280536 
L 265.620674 299.895082 
L 267.877753 302.136728 
L 269.382472 303.450582 
L 270.134831 296.961153 
L 272.39191 299.621251 
L 273.14427 300.420796 
L 273.896629 300.382163 
L 276.153708 302.55434 
L 276.906067 303.20723 
L 277.658427 301.997881 
L 279.915506 303.939617 
L 280.667865 304.523243 
L 281.420225 297.814237 
L 282.172584 293.060085 
L 282.924944 292.478894 
L 284.429663 294.734385 
L 285.934382 286.894179 
L 288.191461 290.990077 
L 290.448539 294.501801 
L 292.705618 297.512664 
L 294.210337 299.277363 
L 294.962697 296.495008 
L 295.715056 296.226078 
L 296.467416 290.054479 
L 297.219775 286.462305 
L 299.476854 290.619802 
L 301.733933 294.184335 
L 303.991011 297.240478 
L 307.000449 300.595653 
L 307.752809 301.346478 
L 308.505169 300.556127 
L 309.257528 297.262313 
L 310.009888 297.632558 
L 312.266966 300.196896 
L 313.019326 300.967659 
L 313.771685 299.289171 
L 316.028764 301.617236 
L 316.781124 301.081451 
L 318.285843 302.498194 
L 319.038202 301.219947 
L 319.790562 298.133505 
L 322.04764 300.626396 
L 322.8 298.631743 
L 323.55236 299.480763 
L 324.304719 296.655185 
L 326.561798 299.358923 
L 327.314157 296.404586 
L 328.066517 295.265521 
L 328.818876 296.282853 
L 329.571236 296.159176 
L 330.323596 291.435869 
L 332.580674 294.884011 
L 333.333034 295.222059 
L 335.590112 298.130197 
L 336.342472 299.004294 
L 337.094831 297.796989 
L 337.847191 298.329143 
L 338.599551 298.603097 
L 339.35191 295.794078 
L 340.10427 295.022433 
L 340.856629 290.146095 
L 343.113708 293.77819 
L 344.618427 295.907001 
L 345.370787 294.512584 
L 347.627865 297.52191 
L 349.132584 299.285707 
L 349.884944 299.664751 
L 350.637303 296.520597 
L 351.389663 296.839845 
L 352.142022 294.474376 
L 352.894382 292.971559 
L 355.151461 296.200673 
L 357.408539 298.969236 
L 358.160899 299.00407 
L 360.417978 301.372796 
L 362.675056 303.403684 
L 364.932135 305.144916 
L 367.189213 306.637805 
L 367.941573 307.086522 
L 368.693933 304.105937 
L 369.446292 304.630869 
L 370.198652 300.910533 
L 370.951011 294.476106 
L 373.20809 297.490633 
L 373.960449 298.396709 
L 374.712809 298.687708 
L 375.465169 299.533931 
L 376.217528 299.217046 
L 378.474607 301.555397 
L 379.979326 302.925931 
L 380.731685 303.131618 
L 382.988764 304.911653 
L 385.245843 306.437811 
L 386.750562 307.332308 
L 387.502921 307.363198 
L 390.51236 308.893326 
L 391.264719 306.903003 
L 392.769438 307.752144 
L 393.521798 306.833018 
L 395.026517 307.688983 
L 395.778876 305.500614 
L 397.283596 306.486489 
L 398.035955 305.720718 
L 398.788315 305.865479 
L 399.540674 300.736749 
L 401.797753 302.858353 
L 402.550112 303.307064 
L 403.302472 303.922318 
L 404.054831 302.816087 
L 405.559551 304.063703 
L 406.31191 302.446122 
L 407.816629 303.729809 
L 408.568989 302.944113 
L 409.321348 301.884171 
L 410.826067 303.222649 
L 411.578427 303.628206 
L 412.330787 296.92743 
L 413.083146 297.861666 
L 413.835506 296.494081 
L 416.092584 299.194659 
L 417.597303 300.795365 
L 418.349663 300.561888 
L 420.606742 302.708429 
L 422.111461 303.966542 
L 422.111461 303.966542 
" clip-path="url(#pe28d17b7f5)" style="fill: none; stroke: #ff0000; stroke-width: 5; stroke-linecap: square"/>
   </g>
   <g id="patch_3">
    <path d="M 121.92 336.640156 
L 121.92 31.720156 
" style="fill: none; stroke: #000000; stroke-width: 5; stroke-linejoin: miter; stroke-linecap: square"/>
   </g>
   <g id="patch_4">
    <path d="M 121.92 336.640156 
L 422.86382 336.640156 
" style="fill: none; stroke: #000000; stroke-width: 5; stroke-linejoin: miter; stroke-linecap: square"/>
   </g>
   <g id="text_12">
    <!-- A -->
    <g transform="translate(85.806742 16.444681) scale(0.12 -0.12)">
     <defs>
      <path id="DejaVuSans-Bold-41" d="M 3419 850 
L 1538 850 
L 1241 0 
L 31 0 
L 1759 4666 
L 3194 4666 
L 4922 0 
L 3713 0 
L 3419 850 
z
M 1838 1716 
L 3116 1716 
L 2478 3572 
L 1838 1716 
z
" transform="scale(0.015625)"/>
     </defs>
     <use xlink:href="#DejaVuSans-Bold-41"/>
    </g>
   </g>
   <g id="patch_5">
    <path d="M 197.155955 330.541756 
L 272.39191 330.541756 
L 272.39191 319.869556 
L 197.155955 319.869556 
z
" style="fill: #8c5a2b; stroke: #8c5a2b; stroke-linejoin: miter"/>
   </g>
   <g id="text_13">
    <!-- Familiar | Naive -->
    <g transform="translate(198.799566 21.720156) scale(0.19 -0.19)">
     <defs>
      <path id="DejaVuSans-46" d="M 628 4666 
L 3309 4666 
L 3309 4134 
L 1259 4134 
L 1259 2759 
L 3109 2759 
L 3109 2228 
L 1259 2228 
L 1259 0 
L 628 0 
L 628 4666 
z
" transform="scale(0.015625)"/>
      <path id="DejaVuSans-7c" d="M 1344 4891 
L 1344 -1509 
L 813 -1509 
L 813 4891 
L 1344 4891 
z
" transform="scale(0.015625)"/>
     </defs>
     <use xlink:href="#DejaVuSans-46"/>
     <use xlink:href="#DejaVuSans-61" transform="translate(48.394531 0)"/>
     <use xlink:href="#DejaVuSans-6d" transform="translate(109.673828 0)"/>
     <use xlink:href="#DejaVuSans-69" transform="translate(207.085938 0)"/>
     <use xlink:href="#DejaVuSans-6c" transform="translate(234.869141 0)"/>
     <use xlink:href="#DejaVuSans-69" transform="translate(262.652344 0)"/>
     <use xlink:href="#DejaVuSans-61" transform="translate(290.435547 0)"/>
     <use xlink:href="#DejaVuSans-72" transform="translate(351.714844 0)"/>
     <use xlink:href="#DejaVuSans-20" transform="translate(392.828125 0)"/>
     <use xlink:href="#DejaVuSans-7c" transform="translate(424.615234 0)"/>
     <use xlink:href="#DejaVuSans-20" transform="translate(458.306641 0)"/>
     <use xlink:href="#DejaVuSans-4e" transform="translate(490.09375 0)"/>
     <use xlink:href="#DejaVuSans-61" transform="translate(564.898438 0)"/>
     <use xlink:href="#DejaVuSans-69" transform="translate(626.177734 0)"/>
     <use xlink:href="#DejaVuSans-76" transform="translate(653.960938 0)"/>
     <use xlink:href="#DejaVuSans-65" transform="translate(713.140625 0)"/>
    </g>
   </g>
   <g id="legend_1">
    <g id="line2d_12">
     <path d="M 130.92 46.867813 
L 145.92 46.867813 
L 160.92 46.867813 
" style="fill: none; stroke: #000000; stroke-width: 5; stroke-linecap: square"/>
    </g>
    <g id="text_14">
     <!-- Nonoccluded (NO) -->
     <g transform="translate(172.92 52.117813) scale(0.15 -0.15)">
      <defs>
       <path id="DejaVuSans-6f" d="M 1959 3097 
Q 1497 3097 1228 2736 
Q 959 2375 959 1747 
Q 959 1119 1226 758 
Q 1494 397 1959 397 
Q 2419 397 2687 759 
Q 2956 1122 2956 1747 
Q 2956 2369 2687 2733 
Q 2419 3097 1959 3097 
z
M 1959 3584 
Q 2709 3584 3137 3096 
Q 3566 2609 3566 1747 
Q 3566 888 3137 398 
Q 2709 -91 1959 -91 
Q 1206 -91 779 398 
Q 353 888 353 1747 
Q 353 2609 779 3096 
Q 1206 3584 1959 3584 
z
" transform="scale(0.015625)"/>
       <path id="DejaVuSans-6e" d="M 3513 2113 
L 3513 0 
L 2938 0 
L 2938 2094 
Q 2938 2591 2744 2837 
Q 2550 3084 2163 3084 
Q 1697 3084 1428 2787 
Q 1159 2491 1159 1978 
L 1159 0 
L 581 0 
L 581 3500 
L 1159 3500 
L 1159 2956 
Q 1366 3272 1645 3428 
Q 1925 3584 2291 3584 
Q 2894 3584 3203 3211 
Q 3513 2838 3513 2113 
z
" transform="scale(0.015625)"/>
       <path id="DejaVuSans-64" d="M 2906 2969 
L 2906 4863 
L 3481 4863 
L 3481 0 
L 2906 0 
L 2906 525 
Q 2725 213 2448 61 
Q 2172 -91 1784 -91 
Q 1150 -91 751 415 
Q 353 922 353 1747 
Q 353 2572 751 3078 
Q 1150 3584 1784 3584 
Q 2172 3584 2448 3432 
Q 2725 3281 2906 2969 
z
M 947 1747 
Q 947 1113 1208 752 
Q 1469 391 1925 391 
Q 2381 391 2643 752 
Q 2906 1113 2906 1747 
Q 2906 2381 2643 2742 
Q 2381 3103 1925 3103 
Q 1469 3103 1208 2742 
Q 947 2381 947 1747 
z
" transform="scale(0.015625)"/>
       <path id="DejaVuSans-4f" d="M 2522 4238 
Q 1834 4238 1429 3725 
Q 1025 3213 1025 2328 
Q 1025 1447 1429 934 
Q 1834 422 2522 422 
Q 3209 422 3611 934 
Q 4013 1447 4013 2328 
Q 4013 3213 3611 3725 
Q 3209 4238 2522 4238 
z
M 2522 4750 
Q 3503 4750 4090 4092 
Q 4678 3434 4678 2328 
Q 4678 1225 4090 567 
Q 3503 -91 2522 -91 
Q 1538 -91 948 565 
Q 359 1222 359 2328 
Q 359 3434 948 4092 
Q 1538 4750 2522 4750 
z
" transform="scale(0.015625)"/>
      </defs>
      <use xlink:href="#DejaVuSans-4e"/>
      <use xlink:href="#DejaVuSans-6f" transform="translate(74.804688 0)"/>
      <use xlink:href="#DejaVuSans-6e" transform="translate(135.986328 0)"/>
      <use xlink:href="#DejaVuSans-6f" transform="translate(199.365234 0)"/>
      <use xlink:href="#DejaVuSans-63" transform="translate(260.546875 0)"/>
      <use xlink:href="#DejaVuSans-63" transform="translate(315.527344 0)"/>
      <use xlink:href="#DejaVuSans-6c" transform="translate(370.507812 0)"/>
      <use xlink:href="#DejaVuSans-75" transform="translate(398.291016 0)"/>
      <use xlink:href="#DejaVuSans-64" transform="translate(461.669922 0)"/>
      <use xlink:href="#DejaVuSans-65" transform="translate(525.146484 0)"/>
      <use xlink:href="#DejaVuSans-64" transform="translate(586.669922 0)"/>
      <use xlink:href="#DejaVuSans-20" transform="translate(650.146484 0)"/>
      <use xlink:href="#DejaVuSans-28" transform="translate(681.933594 0)"/>
      <use xlink:href="#DejaVuSans-4e" transform="translate(720.947266 0)"/>
      <use xlink:href="#DejaVuSans-4f" transform="translate(795.751953 0)"/>
      <use xlink:href="#DejaVuSans-29" transform="translate(874.462891 0)"/>
     </g>
    </g>
    <g id="line2d_13">
     <path d="M 130.92 68.885 
L 145.92 68.885 
L 160.92 68.885 
" style="fill: none; stroke: #ff0000; stroke-width: 5; stroke-linecap: square"/>
    </g>
    <g id="text_15">
     <!-- Occluded (O) -->
     <g transform="translate(172.92 74.135) scale(0.15 -0.15)">
      <use xlink:href="#DejaVuSans-4f"/>
      <use xlink:href="#DejaVuSans-63" transform="translate(78.710938 0)"/>
      <use xlink:href="#DejaVuSans-63" transform="translate(133.691406 0)"/>
      <use xlink:href="#DejaVuSans-6c" transform="translate(188.671875 0)"/>
      <use xlink:href="#DejaVuSans-75" transform="translate(216.455078 0)"/>
      <use xlink:href="#DejaVuSans-64" transform="translate(279.833984 0)"/>
      <use xlink:href="#DejaVuSans-65" transform="translate(343.310547 0)"/>
      <use xlink:href="#DejaVuSans-64" transform="translate(404.833984 0)"/>
      <use xlink:href="#DejaVuSans-20" transform="translate(468.310547 0)"/>
      <use xlink:href="#DejaVuSans-28" transform="translate(500.097656 0)"/>
      <use xlink:href="#DejaVuSans-4f" transform="translate(539.111328 0)"/>
      <use xlink:href="#DejaVuSans-29" transform="translate(617.822266 0)"/>
     </g>
    </g>
    <g id="line2d_14">
     <path d="M 130.92 90.902188 
L 145.92 90.902188 
L 160.92 90.902188 
" style="fill: none; stroke: #0000ff; stroke-width: 5; stroke-linecap: square"/>
    </g>
    <g id="text_16">
     <!-- No feedback -->
     <g transform="translate(172.92 96.152188) scale(0.15 -0.15)">
      <defs>
       <path id="DejaVuSans-66" d="M 2375 4863 
L 2375 4384 
L 1825 4384 
Q 1516 4384 1395 4259 
Q 1275 4134 1275 3809 
L 1275 3500 
L 2222 3500 
L 2222 3053 
L 1275 3053 
L 1275 0 
L 697 0 
L 697 3053 
L 147 3053 
L 147 3500 
L 697 3500 
L 697 3744 
Q 697 4328 969 4595 
Q 1241 4863 1831 4863 
L 2375 4863 
z
" transform="scale(0.015625)"/>
       <path id="DejaVuSans-62" d="M 3116 1747 
Q 3116 2381 2855 2742 
Q 2594 3103 2138 3103 
Q 1681 3103 1420 2742 
Q 1159 2381 1159 1747 
Q 1159 1113 1420 752 
Q 1681 391 2138 391 
Q 2594 391 2855 752 
Q 3116 1113 3116 1747 
z
M 1159 2969 
Q 1341 3281 1617 3432 
Q 1894 3584 2278 3584 
Q 2916 3584 3314 3078 
Q 3713 2572 3713 1747 
Q 3713 922 3314 415 
Q 2916 -91 2278 -91 
Q 1894 -91 1617 61 
Q 1341 213 1159 525 
L 1159 0 
L 581 0 
L 581 4863 
L 1159 4863 
L 1159 2969 
z
" transform="scale(0.015625)"/>
       <path id="DejaVuSans-6b" d="M 581 4863 
L 1159 4863 
L 1159 1991 
L 2875 3500 
L 3609 3500 
L 1753 1863 
L 3688 0 
L 2938 0 
L 1159 1709 
L 1159 0 
L 581 0 
L 581 4863 
z
" transform="scale(0.015625)"/>
      </defs>
      <use xlink:href="#DejaVuSans-4e"/>
      <use xlink:href="#DejaVuSans-6f" transform="translate(74.804688 0)"/>
      <use xlink:href="#DejaVuSans-20" transform="translate(135.986328 0)"/>
      <use xlink:href="#DejaVuSans-66" transform="translate(167.773438 0)"/>
      <use xlink:href="#DejaVuSans-65" transform="translate(202.978516 0)"/>
      <use xlink:href="#DejaVuSans-65" transform="translate(264.501953 0)"/>
      <use xlink:href="#DejaVuSans-64" transform="translate(326.025391 0)"/>
      <use xlink:href="#DejaVuSans-62" transform="translate(389.501953 0)"/>
      <use xlink:href="#DejaVuSans-61" transform="translate(452.978516 0)"/>
      <use xlink:href="#DejaVuSans-63" transform="translate(514.257812 0)"/>
      <use xlink:href="#DejaVuSans-6b" transform="translate(569.238281 0)"/>
     </g>
    </g>
   </g>
  </g>
  <g id="axes_2">
   <g id="patch_6">
    <path d="M 468.005393 336.640156 
L 768.949213 336.640156 
L 768.949213 31.720156 
L 468.005393 31.720156 
z
" style="fill: #ffffff"/>
   </g>
   <g id="matplotlib.axis_3">
    <g id="xtick_6">
     <g id="line2d_15">
      <g>
       <use xlink:href="#mc684eb2511" x="468.005393" y="336.640156" style="stroke: #000000; stroke-width: 1.6"/>
      </g>
     </g>
     <g id="text_17">
      <!-- -1 -->
      <g transform="translate(452.052893 369.455156) scale(0.32 -0.32)">
       <use xlink:href="#DejaVuSans-2d"/>
       <use xlink:href="#DejaVuSans-31" transform="translate(36.083984 0)"/>
      </g>
     </g>
    </g>
    <g id="xtick_7">
     <g id="line2d_16">
      <g>
       <use xlink:href="#mc684eb2511" x="543.241348" y="336.640156" style="stroke: #000000; stroke-width: 1.6"/>
      </g>
     </g>
     <g id="text_18">
      <!-- 0 -->
      <g transform="translate(533.061348 369.455156) scale(0.32 -0.32)">
       <use xlink:href="#DejaVuSans-30"/>
      </g>
     </g>
    </g>
    <g id="xtick_8">
     <g id="line2d_17">
      <g>
       <use xlink:href="#mc684eb2511" x="618.477303" y="336.640156" style="stroke: #000000; stroke-width: 1.6"/>
      </g>
     </g>
     <g id="text_19">
      <!-- 1 -->
      <g transform="translate(608.297303 369.455156) scale(0.32 -0.32)">
       <use xlink:href="#DejaVuSans-31"/>
      </g>
     </g>
    </g>
    <g id="xtick_9">
     <g id="line2d_18">
      <g>
       <use xlink:href="#mc684eb2511" x="693.713258" y="336.640156" style="stroke: #000000; stroke-width: 1.6"/>
      </g>
     </g>
     <g id="text_20">
      <!-- 2 -->
      <g transform="translate(683.533258 369.455156) scale(0.32 -0.32)">
       <use xlink:href="#DejaVuSans-32"/>
      </g>
     </g>
    </g>
    <g id="xtick_10">
     <g id="line2d_19">
      <g>
       <use xlink:href="#mc684eb2511" x="768.949213" y="336.640156" style="stroke: #000000; stroke-width: 1.6"/>
      </g>
     </g>
     <g id="text_21">
      <!-- 3 -->
      <g transform="translate(758.769213 369.455156) scale(0.32 -0.32)">
       <use xlink:href="#DejaVuSans-33"/>
      </g>
     </g>
    </g>
    <g id="text_22">
     <!-- Time (s) -->
     <g transform="translate(553.424803 404.425156) scale(0.32 -0.32)">
      <use xlink:href="#DejaVuSans-54"/>
      <use xlink:href="#DejaVuSans-69" transform="translate(57.958984 0)"/>
      <use xlink:href="#DejaVuSans-6d" transform="translate(85.742188 0)"/>
      <use xlink:href="#DejaVuSans-65" transform="translate(183.154297 0)"/>
      <use xlink:href="#DejaVuSans-20" transform="translate(244.677734 0)"/>
      <use xlink:href="#DejaVuSans-28" transform="translate(276.464844 0)"/>
      <use xlink:href="#DejaVuSans-73" transform="translate(315.478516 0)"/>
      <use xlink:href="#DejaVuSans-29" transform="translate(367.578125 0)"/>
     </g>
    </g>
   </g>
   <g id="matplotlib.axis_4">
    <g id="ytick_5">
     <g id="line2d_20">
      <g>
       <use xlink:href="#mf224cb1eb6" x="468.005393" y="315.612144" style="stroke: #000000; stroke-width: 1.6"/>
      </g>
     </g>
    </g>
    <g id="ytick_6">
     <g id="line2d_21">
      <g>
       <use xlink:href="#mf224cb1eb6" x="468.005393" y="237.556041" style="stroke: #000000; stroke-width: 1.6"/>
      </g>
     </g>
    </g>
    <g id="ytick_7">
     <g id="line2d_22">
      <g>
       <use xlink:href="#mf224cb1eb6" x="468.005393" y="159.499938" style="stroke: #000000; stroke-width: 1.6"/>
      </g>
     </g>
    </g>
    <g id="ytick_8">
     <g id="line2d_23">
      <g>
       <use xlink:href="#mf224cb1eb6" x="468.005393" y="81.443836" style="stroke: #000000; stroke-width: 1.6"/>
      </g>
     </g>
    </g>
   </g>
   <g id="line2d_24">
    <path d="M 468.757753 313.195116 
L 473.27191 313.835406 
L 478.538427 314.371382 
L 485.309663 314.830154 
L 494.337978 315.189588 
L 495.090337 311.417392 
L 495.842697 308.76552 
L 498.852135 310.035527 
L 501.861573 311.069954 
L 505.623371 312.097484 
L 509.385169 312.892568 
L 513.899326 313.613006 
L 519.165843 314.216071 
L 522.175281 314.475034 
L 522.92764 312.296176 
L 526.689438 313.046311 
L 528.946517 313.412263 
L 529.698876 313.130093 
L 534.213034 313.787609 
L 539.479551 314.338003 
L 546.250787 314.809117 
L 554.526742 315.155382 
L 566.564494 315.411111 
L 585.373483 315.556379 
L 629.010337 315.609297 
L 644.809888 315.611174 
L 645.562247 311.917384 
L 647.066966 312.277624 
L 647.819326 310.269069 
L 650.828764 311.260176 
L 654.590562 312.244674 
L 655.342921 310.883666 
L 659.104719 311.953337 
L 659.857079 312.136278 
L 660.609438 311.524829 
L 661.361798 307.632158 
L 662.114157 308.031157 
L 662.866517 303.156489 
L 663.618876 301.902442 
L 664.371236 297.880868 
L 665.123596 295.964252 
L 665.875955 291.362137 
L 666.628315 292.574638 
L 667.380674 293.054977 
L 669.637753 296.272194 
L 671.894831 299.030555 
L 674.15191 301.395503 
L 676.408989 303.423152 
L 678.666067 305.161608 
L 680.923146 306.652115 
L 683.180225 307.930039 
L 684.684944 308.679044 
L 685.437303 308.853566 
L 688.446742 310.10724 
L 691.45618 311.128366 
L 692.960899 311.565534 
L 693.713258 309.66995 
L 696.722697 310.77219 
L 700.484494 311.86708 
L 704.246292 312.714285 
L 708.00809 313.369836 
L 708.760449 312.20829 
L 709.512809 309.771005 
L 712.522247 310.8545 
L 716.284045 311.93077 
L 720.045843 312.763567 
L 723.055281 313.29196 
L 723.80764 312.910503 
L 724.56 313.045585 
L 725.31236 311.848903 
L 727.569438 312.385635 
L 728.321798 310.934296 
L 732.083596 311.992515 
L 735.845393 312.811344 
L 739.607191 313.444938 
L 740.359551 309.043139 
L 743.368989 310.261649 
L 746.378427 311.254132 
L 750.140225 312.239998 
L 753.902022 313.002841 
L 758.41618 313.694067 
L 759.920899 313.881079 
L 760.673258 312.016482 
L 761.425618 308.703199 
L 764.435056 309.984765 
L 766.692135 310.78737 
L 767.444494 308.275165 
L 768.196854 304.094831 
L 768.196854 304.094831 
" clip-path="url(#pe6dca008e6)" style="fill: none; stroke: #000000; stroke-width: 5; stroke-linecap: square"/>
   </g>
   <g id="line2d_25">
    <path d="M 468.757753 293.037866 
L 471.014831 296.257524 
L 471.767191 297.225256 
L 472.519551 291.554848 
L 474.02427 293.779375 
L 476.281348 296.893276 
L 477.033708 297.829219 
L 477.786067 297.242246 
L 478.538427 296.81554 
L 479.290787 297.130217 
L 480.043146 298.054313 
L 480.795506 294.422017 
L 481.547865 295.481524 
L 482.300225 294.647599 
L 483.052584 295.431371 
L 485.309663 298.309653 
L 487.566742 300.777421 
L 489.071461 302.223807 
L 489.82382 300.950116 
L 492.080899 303.041288 
L 494.337978 304.834206 
L 495.842697 305.885056 
L 496.595056 296.288354 
L 498.099775 294.181042 
L 498.852135 295.252597 
L 499.604494 294.273409 
L 500.356854 295.340347 
L 501.109213 295.875212 
L 501.861573 295.692176 
L 502.613933 296.688175 
L 503.366292 293.406742 
L 504.118652 294.517011 
L 504.871011 291.080301 
L 505.623371 285.945603 
L 506.37573 282.518084 
L 508.632809 287.238128 
L 509.385169 287.597237 
L 511.642247 291.592865 
L 513.899326 295.018616 
L 516.156404 297.955767 
L 516.908764 298.838586 
L 517.661124 294.252327 
L 518.413483 294.591799 
L 520.670562 297.589826 
L 522.92764 300.160259 
L 524.43236 301.666817 
L 525.937079 302.911278 
L 526.689438 299.247946 
L 527.441798 300.066156 
L 528.194157 298.865614 
L 528.946517 296.044339 
L 529.698876 297.022729 
L 530.451236 295.073809 
L 531.203596 285.785475 
L 531.955955 284.74685 
L 533.460674 287.756216 
L 534.213034 287.205141 
L 534.965393 288.62549 
L 535.717753 281.773113 
L 536.470112 283.392034 
L 537.222472 275.007538 
L 537.974831 269.308854 
L 540.23191 275.912863 
L 542.488989 281.574975 
L 543.993708 216.197471 
L 544.746067 195.68656 
L 545.498427 170.422067 
L 546.250787 139.57759 
L 547.755506 92.431022 
L 549.260225 73.519236 
L 550.012584 63.525629 
L 550.764944 60.839063 
L 551.517303 64.607709 
L 552.269663 59.714575 
L 553.022022 52.749122 
L 553.774382 58.545051 
L 554.526742 65.318263 
L 555.279101 74.545765 
L 556.031461 81.534294 
L 556.78382 85.053869 
L 557.53618 90.344652 
L 558.288539 81.328095 
L 559.040899 86.307114 
L 559.793258 87.054912 
L 560.545618 79.523388 
L 561.297978 74.799512 
L 562.050337 75.848978 
L 562.802697 75.055563 
L 563.555056 79.008449 
L 564.307416 78.667141 
L 565.059775 75.652805 
L 565.812135 63.989833 
L 566.564494 60.991199 
L 568.069213 81.524827 
L 568.821573 85.154782 
L 569.573933 84.233958 
L 570.326292 76.558532 
L 571.078652 78.319343 
L 571.831011 83.311622 
L 572.583371 81.290317 
L 573.33573 82.127 
L 574.08809 79.429221 
L 574.840449 85.716502 
L 575.592809 88.976118 
L 576.345169 84.062071 
L 577.097528 86.312535 
L 577.849888 85.587442 
L 578.602247 96.547537 
L 579.354607 105.420424 
L 580.106966 101.31396 
L 580.859326 92.325829 
L 581.611685 92.526724 
L 582.364045 96.74899 
L 583.868764 86.334332 
L 584.621124 91.738008 
L 585.373483 92.745415 
L 586.125843 86.279199 
L 586.878202 82.722149 
L 587.630562 83.639949 
L 588.382921 81.278779 
L 589.88764 66.028352 
L 590.64 61.979624 
L 591.39236 66.014045 
L 592.144719 72.632724 
L 592.897079 72.414033 
L 593.649438 63.004758 
L 594.401798 61.292007 
L 595.154157 55.950651 
L 595.906517 61.409111 
L 596.658876 63.404524 
L 597.411236 62.181241 
L 598.163596 62.652493 
L 598.915955 58.794077 
L 599.668315 57.44492 
L 600.420674 62.626113 
L 601.173034 61.817066 
L 601.925393 68.72541 
L 602.677753 70.649337 
L 603.430112 67.923969 
L 604.182472 59.694081 
L 604.934831 61.58144 
L 606.439551 70.51474 
L 607.19191 63.718289 
L 607.94427 61.881457 
L 608.696629 58.936676 
L 609.448989 71.416605 
L 610.201348 75.090736 
L 610.953708 76.952274 
L 611.706067 77.18769 
L 612.458427 72.421896 
L 613.210787 68.587951 
L 613.963146 63.05554 
L 614.715506 63.584809 
L 615.467865 62.753243 
L 616.220225 59.047336 
L 616.972584 58.765696 
L 617.724944 61.840491 
L 619.982022 98.034687 
L 622.239101 129.066694 
L 624.49618 155.672738 
L 626.753258 178.484104 
L 629.010337 198.041984 
L 631.267416 214.810443 
L 633.524494 229.187292 
L 635.781573 241.513636 
L 638.038652 252.081938 
L 640.29573 261.142932 
L 641.800449 266.453681 
L 642.552809 267.06249 
L 644.809888 273.986885 
L 647.066966 279.923687 
L 649.324045 285.013753 
L 651.581124 289.377847 
L 652.333483 290.689563 
L 653.085843 289.738765 
L 654.590562 292.261421 
L 655.342921 284.53127 
L 657.6 288.964181 
L 659.857079 292.764848 
L 664.371236 298.704552 
L 666.628315 301.115998 
L 668.885393 303.183511 
L 670.390112 304.395303 
L 671.142472 302.782964 
L 673.399551 304.612726 
L 674.15191 304.875628 
L 675.656629 305.922438 
L 676.408989 304.98055 
L 678.666067 306.496881 
L 679.418427 306.658221 
L 681.675506 307.935275 
L 682.427865 308.319118 
L 683.180225 303.190744 
L 683.932584 302.791959 
L 684.684944 298.028024 
L 685.437303 298.90723 
L 686.189663 297.993508 
L 686.942022 298.574116 
L 687.694382 299.426018 
L 688.446742 299.929981 
L 690.70382 302.166651 
L 692.208539 303.477587 
L 692.960899 302.467447 
L 695.217978 304.34221 
L 697.475056 305.949584 
L 698.227416 304.745106 
L 698.979775 302.058204 
L 701.236854 303.991334 
L 703.493933 305.648753 
L 704.246292 298.738659 
L 705.751011 292.546707 
L 707.25573 294.795587 
L 708.00809 289.955496 
L 708.760449 287.657251 
L 711.017528 291.644317 
L 711.769888 292.842708 
L 712.522247 285.666464 
L 713.274607 284.025732 
L 714.026966 285.605054 
L 714.779326 284.37695 
L 717.036404 288.83187 
L 718.541124 291.442948 
L 719.293483 288.672518 
L 720.045843 290.0195 
L 720.798202 290.055953 
L 723.055281 293.700905 
L 723.80764 291.441638 
L 726.064719 294.888956 
L 726.817079 293.16104 
L 728.321798 295.350022 
L 729.074157 293.468174 
L 730.578876 295.627211 
L 731.331236 296.298616 
L 732.083596 297.264293 
L 732.835955 294.989231 
L 733.588315 294.877707 
L 734.340674 294.267563 
L 736.597753 297.311836 
L 738.854831 299.921917 
L 741.11191 302.159736 
L 741.86427 296.409232 
L 744.121348 299.148049 
L 746.378427 301.49624 
L 748.635506 303.509522 
L 750.892584 305.235659 
L 751.644944 301.740513 
L 752.397303 302.264612 
L 754.654382 304.168305 
L 756.911461 305.800483 
L 757.66382 306.291066 
L 758.41618 300.060513 
L 759.168539 296.305177 
L 759.920899 291.284591 
L 761.425618 293.656527 
L 762.177978 293.052267 
L 764.435056 296.269871 
L 765.187416 296.512913 
L 767.444494 299.236943 
L 768.196854 300.055702 
L 768.196854 300.055702 
" clip-path="url(#pe6dca008e6)" style="fill: none; stroke: #ff0000; stroke-width: 5; stroke-linecap: square"/>
   </g>
   <g id="patch_7">
    <path d="M 468.005393 336.640156 
L 468.005393 31.720156 
" style="fill: none; stroke: #000000; stroke-width: 5; stroke-linejoin: miter; stroke-linecap: square"/>
   </g>
   <g id="patch_8">
    <path d="M 468.005393 336.640156 
L 768.949213 336.640156 
" style="fill: none; stroke: #000000; stroke-width: 5; stroke-linejoin: miter; stroke-linecap: square"/>
   </g>
   <g id="patch_9">
    <path d="M 543.241348 330.541756 
L 618.477303 330.541756 
L 618.477303 319.869556 
L 543.241348 319.869556 
z
" style="fill: #8c5a2b; stroke: #8c5a2b; stroke-linejoin: miter"/>
   </g>
   <g id="text_23">
    <!-- Familiar | Expert -->
    <g transform="translate(540.789569 21.720156) scale(0.19 -0.19)">
     <defs>
      <path id="DejaVuSans-45" d="M 628 4666 
L 3578 4666 
L 3578 4134 
L 1259 4134 
L 1259 2753 
L 3481 2753 
L 3481 2222 
L 1259 2222 
L 1259 531 
L 3634 531 
L 3634 0 
L 628 0 
L 628 4666 
z
" transform="scale(0.015625)"/>
      <path id="DejaVuSans-78" d="M 3513 3500 
L 2247 1797 
L 3578 0 
L 2900 0 
L 1881 1375 
L 863 0 
L 184 0 
L 1544 1831 
L 300 3500 
L 978 3500 
L 1906 2253 
L 2834 3500 
L 3513 3500 
z
" transform="scale(0.015625)"/>
      <path id="DejaVuSans-70" d="M 1159 525 
L 1159 -1331 
L 581 -1331 
L 581 3500 
L 1159 3500 
L 1159 2969 
Q 1341 3281 1617 3432 
Q 1894 3584 2278 3584 
Q 2916 3584 3314 3078 
Q 3713 2572 3713 1747 
Q 3713 922 3314 415 
Q 2916 -91 2278 -91 
Q 1894 -91 1617 61 
Q 1341 213 1159 525 
z
M 3116 1747 
Q 3116 2381 2855 2742 
Q 2594 3103 2138 3103 
Q 1681 3103 1420 2742 
Q 1159 2381 1159 1747 
Q 1159 1113 1420 752 
Q 1681 391 2138 391 
Q 2594 391 2855 752 
Q 3116 1113 3116 1747 
z
" transform="scale(0.015625)"/>
     </defs>
     <use xlink:href="#DejaVuSans-46"/>
     <use xlink:href="#DejaVuSans-61" transform="translate(48.394531 0)"/>
     <use xlink:href="#DejaVuSans-6d" transform="translate(109.673828 0)"/>
     <use xlink:href="#DejaVuSans-69" transform="translate(207.085938 0)"/>
     <use xlink:href="#DejaVuSans-6c" transform="translate(234.869141 0)"/>
     <use xlink:href="#DejaVuSans-69" transform="translate(262.652344 0)"/>
     <use xlink:href="#DejaVuSans-61" transform="translate(290.435547 0)"/>
     <use xlink:href="#DejaVuSans-72" transform="translate(351.714844 0)"/>
     <use xlink:href="#DejaVuSans-20" transform="translate(392.828125 0)"/>
     <use xlink:href="#DejaVuSans-7c" transform="translate(424.615234 0)"/>
     <use xlink:href="#DejaVuSans-20" transform="translate(458.306641 0)"/>
     <use xlink:href="#DejaVuSans-45" transform="translate(490.09375 0)"/>
     <use xlink:href="#DejaVuSans-78" transform="translate(553.277344 0)"/>
     <use xlink:href="#DejaVuSans-70" transform="translate(612.457031 0)"/>
     <use xlink:href="#DejaVuSans-65" transform="translate(675.933594 0)"/>
     <use xlink:href="#DejaVuSans-72" transform="translate(737.457031 0)"/>
     <use xlink:href="#DejaVuSans-74" transform="translate(778.570312 0)"/>
    </g>
   </g>
  </g>
  <g id="axes_3">
   <g id="patch_10">
    <path d="M 814.090787 336.640156 
L 1115.034607 336.640156 
L 1115.034607 31.720156 
L 814.090787 31.720156 
z
" style="fill: #ffffff"/>
   </g>
   <g id="matplotlib.axis_5">
    <g id="xtick_11">
     <g id="line2d_26">
      <g>
       <use xlink:href="#mc684eb2511" x="814.090787" y="336.640156" style="stroke: #000000; stroke-width: 1.6"/>
      </g>
     </g>
     <g id="text_24">
      <!-- -1 -->
      <g transform="translate(798.138287 369.455156) scale(0.32 -0.32)">
       <use xlink:href="#DejaVuSans-2d"/>
       <use xlink:href="#DejaVuSans-31" transform="translate(36.083984 0)"/>
      </g>
     </g>
    </g>
    <g id="xtick_12">
     <g id="line2d_27">
      <g>
       <use xlink:href="#mc684eb2511" x="889.326742" y="336.640156" style="stroke: #000000; stroke-width: 1.6"/>
      </g>
     </g>
     <g id="text_25">
      <!-- 0 -->
      <g transform="translate(879.146742 369.455156) scale(0.32 -0.32)">
       <use xlink:href="#DejaVuSans-30"/>
      </g>
     </g>
    </g>
    <g id="xtick_13">
     <g id="line2d_28">
      <g>
       <use xlink:href="#mc684eb2511" x="964.562697" y="336.640156" style="stroke: #000000; stroke-width: 1.6"/>
      </g>
     </g>
     <g id="text_26">
      <!-- 1 -->
      <g transform="translate(954.382697 369.455156) scale(0.32 -0.32)">
       <use xlink:href="#DejaVuSans-31"/>
      </g>
     </g>
    </g>
    <g id="xtick_14">
     <g id="line2d_29">
      <g>
       <use xlink:href="#mc684eb2511" x="1039.798652" y="336.640156" style="stroke: #000000; stroke-width: 1.6"/>
      </g>
     </g>
     <g id="text_27">
      <!-- 2 -->
      <g transform="translate(1029.618652 369.455156) scale(0.32 -0.32)">
       <use xlink:href="#DejaVuSans-32"/>
      </g>
     </g>
    </g>
    <g id="xtick_15">
     <g id="line2d_30">
      <g>
       <use xlink:href="#mc684eb2511" x="1115.034607" y="336.640156" style="stroke: #000000; stroke-width: 1.6"/>
      </g>
     </g>
     <g id="text_28">
      <!-- 3 -->
      <g transform="translate(1104.854607 369.455156) scale(0.32 -0.32)">
       <use xlink:href="#DejaVuSans-33"/>
      </g>
     </g>
    </g>
    <g id="text_29">
     <!-- Time (s) -->
     <g transform="translate(899.510197 404.425156) scale(0.32 -0.32)">
      <use xlink:href="#DejaVuSans-54"/>
      <use xlink:href="#DejaVuSans-69" transform="translate(57.958984 0)"/>
      <use xlink:href="#DejaVuSans-6d" transform="translate(85.742188 0)"/>
      <use xlink:href="#DejaVuSans-65" transform="translate(183.154297 0)"/>
      <use xlink:href="#DejaVuSans-20" transform="translate(244.677734 0)"/>
      <use xlink:href="#DejaVuSans-28" transform="translate(276.464844 0)"/>
      <use xlink:href="#DejaVuSans-73" transform="translate(315.478516 0)"/>
      <use xlink:href="#DejaVuSans-29" transform="translate(367.578125 0)"/>
     </g>
    </g>
   </g>
   <g id="matplotlib.axis_6">
    <g id="ytick_9">
     <g id="line2d_31">
      <g>
       <use xlink:href="#mf224cb1eb6" x="814.090787" y="315.612144" style="stroke: #000000; stroke-width: 1.6"/>
      </g>
     </g>
    </g>
    <g id="ytick_10">
     <g id="line2d_32">
      <g>
       <use xlink:href="#mf224cb1eb6" x="814.090787" y="237.556041" style="stroke: #000000; stroke-width: 1.6"/>
      </g>
     </g>
    </g>
    <g id="ytick_11">
     <g id="line2d_33">
      <g>
       <use xlink:href="#mf224cb1eb6" x="814.090787" y="159.499938" style="stroke: #000000; stroke-width: 1.6"/>
      </g>
     </g>
    </g>
    <g id="ytick_12">
     <g id="line2d_34">
      <g>
       <use xlink:href="#mf224cb1eb6" x="814.090787" y="81.443836" style="stroke: #000000; stroke-width: 1.6"/>
      </g>
     </g>
    </g>
   </g>
   <g id="line2d_35">
    <path d="M 814.843146 299.748129 
L 817.100225 302.010735 
L 819.357303 303.950636 
L 820.109663 304.533711 
L 820.862022 304.910056 
L 821.614382 303.410209 
L 822.366742 296.45551 
L 823.119101 296.672635 
L 823.871461 297.619611 
L 824.62382 297.141385 
L 825.37618 295.50805 
L 826.128539 290.285039 
L 828.385618 293.897318 
L 830.642697 296.994395 
L 831.395056 296.812067 
L 832.147416 288.366311 
L 832.899775 285.849477 
L 833.652135 285.631501 
L 834.404494 284.540927 
L 835.156854 285.752335 
L 837.413933 290.011091 
L 839.671011 293.662442 
L 841.92809 296.793019 
L 844.185169 299.477098 
L 846.442247 301.778358 
L 847.194607 296.593486 
L 847.946966 296.96353 
L 850.204045 299.62329 
L 851.708764 301.182203 
L 852.461124 300.637362 
L 853.213483 301.386101 
L 853.965843 301.628168 
L 856.222921 303.622633 
L 857.72764 304.79161 
L 858.48 304.244154 
L 860.737079 305.865514 
L 862.994157 307.255627 
L 863.746517 307.673453 
L 864.498876 305.009261 
L 866.755955 306.521497 
L 868.260674 307.407836 
L 869.013034 305.691127 
L 871.270112 307.106113 
L 874.279551 308.683929 
L 875.03191 309.03034 
L 875.78427 308.580473 
L 877.288989 309.26606 
L 878.041348 305.464674 
L 880.298427 306.911957 
L 881.050787 307.346966 
L 881.803146 300.871279 
L 882.555506 301.407971 
L 883.307865 302.11818 
L 884.060225 302.299817 
L 884.812584 302.965434 
L 885.564944 296.726789 
L 887.822022 299.420314 
L 890.079101 301.729674 
L 892.33618 303.709662 
L 894.593258 305.407253 
L 896.850337 306.862726 
L 899.859775 308.485688 
L 902.869213 309.807602 
L 905.878652 310.884308 
L 909.640449 311.953835 
L 913.402247 312.781414 
L 917.916404 313.531297 
L 923.182921 314.159011 
L 929.201798 314.648106 
L 936.725393 315.034939 
L 947.258427 315.330655 
L 963.057978 315.51628 
L 967.572135 315.541675 
L 968.324494 313.833259 
L 972.086292 314.235677 
L 972.838652 311.220628 
L 975.84809 312.035227 
L 976.600449 307.169911 
L 977.352809 304.963773 
L 978.857528 306.00199 
L 979.609888 300.486956 
L 981.866966 302.644187 
L 982.619326 303.292585 
L 983.371685 298.396786 
L 984.124045 299.257553 
L 984.876404 288.577735 
L 985.628764 281.763352 
L 986.381124 279.248341 
L 988.638202 284.434728 
L 990.895281 288.881407 
L 992.4 291.487654 
L 993.15236 289.010442 
L 995.409438 292.80451 
L 997.666517 296.057449 
L 999.923596 298.846437 
L 1002.180674 301.237647 
L 1002.933034 301.956372 
L 1003.685393 301.821228 
L 1004.437753 301.952696 
L 1005.190112 301.421453 
L 1005.942472 299.644094 
L 1006.694831 297.434631 
L 1007.447191 297.649317 
L 1009.70427 300.211266 
L 1011.961348 302.407816 
L 1012.713708 303.068033 
L 1013.466067 302.472432 
L 1014.218427 303.129418 
L 1014.970787 301.274483 
L 1015.723146 301.63461 
L 1016.475506 302.333487 
L 1017.227865 295.922737 
L 1017.980225 291.458622 
L 1018.732584 292.666298 
L 1019.484944 290.584562 
L 1021.742022 294.15412 
L 1023.999101 297.214572 
L 1024.751461 298.134451 
L 1025.50382 297.41814 
L 1027.760899 300.013059 
L 1028.513258 291.626466 
L 1029.265618 287.239986 
L 1030.770337 290.00627 
L 1031.522697 288.677072 
L 1032.275056 290.023827 
L 1033.027416 288.342106 
L 1034.532135 291.000935 
L 1035.284494 291.854904 
L 1037.541573 295.243281 
L 1038.293933 296.261724 
L 1039.046292 293.183317 
L 1039.798652 288.285133 
L 1042.05573 292.182651 
L 1042.80809 292.534689 
L 1043.560449 291.797092 
L 1045.817528 295.193714 
L 1048.074607 298.105894 
L 1050.331685 300.602722 
L 1052.588764 302.743441 
L 1054.845843 304.578841 
L 1057.102921 306.152466 
L 1057.855281 304.732141 
L 1058.60764 305.276141 
L 1059.36 301.074716 
L 1060.11236 301.801587 
L 1060.864719 295.509536 
L 1062.369438 297.469541 
L 1063.121798 296.416467 
L 1065.378876 299.154252 
L 1067.635955 301.501559 
L 1069.893034 303.514082 
L 1072.150112 305.239568 
L 1072.902472 304.383619 
L 1073.654831 300.401325 
L 1075.159551 301.88438 
L 1075.91191 297.046018 
L 1078.168989 299.694012 
L 1080.426067 301.964336 
L 1081.178427 302.646727 
L 1081.930787 298.979911 
L 1082.683146 297.723578 
L 1083.435506 295.185655 
L 1084.187865 291.439583 
L 1086.444944 294.887195 
L 1087.197303 295.444236 
L 1087.949663 293.262749 
L 1090.206742 296.450331 
L 1090.959101 295.516767 
L 1093.21618 298.38287 
L 1095.473258 300.840196 
L 1097.730337 302.947046 
L 1099.987416 304.753406 
L 1101.492135 305.812133 
L 1102.244494 302.132808 
L 1102.996854 290.516423 
L 1105.253933 294.095701 
L 1106.006292 288.636918 
L 1107.511011 291.267003 
L 1108.263371 289.726962 
L 1109.01573 280.666029 
L 1109.76809 281.12599 
L 1110.520449 275.067569 
L 1111.272809 275.531244 
L 1113.529888 281.247784 
L 1114.282247 282.966001 
L 1114.282247 282.966001 
" clip-path="url(#pa715612f34)" style="fill: none; stroke: #000000; stroke-width: 5; stroke-linecap: square"/>
   </g>
   <g id="line2d_36">
    <path d="M 814.843146 292.281101 
L 815.595506 282.891151 
L 816.347865 281.240227 
L 817.100225 280.977352 
L 817.852584 278.099881 
L 819.357303 281.757327 
L 820.109663 281.649438 
L 820.862022 277.226117 
L 821.614382 270.690695 
L 822.366742 267.166494 
L 823.119101 268.366204 
L 825.37618 275.104659 
L 826.128539 276.19812 
L 826.880899 278.168823 
L 827.633258 278.578717 
L 828.385618 279.172281 
L 829.137978 280.994275 
L 829.890337 281.427188 
L 832.147416 286.30282 
L 834.404494 290.483062 
L 836.661573 294.067097 
L 837.413933 292.176546 
L 838.918652 294.461517 
L 839.671011 291.279703 
L 840.423371 289.775407 
L 841.17573 291.067245 
L 841.92809 290.76594 
L 842.680449 286.997363 
L 847.194607 294.435142 
L 847.946966 295.493993 
L 848.699326 295.961 
L 850.956404 298.763743 
L 853.213483 301.166747 
L 853.965843 300.077059 
L 856.222921 302.292751 
L 857.72764 303.591392 
L 858.48 300.195801 
L 859.23236 299.385586 
L 859.984719 300.196915 
L 860.737079 297.132499 
L 861.489438 297.390399 
L 862.241798 298.006148 
L 862.994157 298.886448 
L 863.746517 298.127202 
L 865.251236 299.831984 
L 866.003596 299.766027 
L 867.508315 301.311024 
L 868.260674 300.70047 
L 870.517753 302.827248 
L 872.022472 304.073776 
L 872.774831 299.794765 
L 873.527191 297.749778 
L 874.279551 298.642896 
L 875.03191 296.319746 
L 876.536629 298.200755 
L 878.041348 293.030893 
L 880.298427 296.251544 
L 881.050787 293.799205 
L 881.803146 289.446082 
L 882.555506 289.552313 
L 884.812584 293.269099 
L 887.069663 296.455776 
L 887.822022 297.413595 
L 888.574382 296.826331 
L 889.326742 294.535358 
L 890.079101 295.53084 
L 890.831461 296.094622 
L 891.58382 295.888083 
L 893.840899 298.701227 
L 895.345618 300.350042 
L 896.097978 294.37964 
L 896.850337 294.201223 
L 899.107416 297.254956 
L 901.364494 299.873151 
L 902.116854 300.660101 
L 902.869213 298.745751 
L 903.621573 299.58907 
L 904.373933 299.721267 
L 905.878652 301.270627 
L 906.631011 301.56141 
L 907.383371 301.612793 
L 908.13573 299.472941 
L 908.88809 300.279901 
L 909.640449 298.687349 
L 910.392809 298.701292 
L 911.897528 300.3501 
L 912.649888 301.056573 
L 913.402247 301.014744 
L 915.659326 303.096698 
L 917.916404 304.881714 
L 918.668764 305.418236 
L 919.421124 303.567834 
L 920.173483 304.17005 
L 920.925843 302.878262 
L 921.678202 296.307273 
L 922.430562 293.59123 
L 924.68764 296.731963 
L 925.44 297.675973 
L 926.19236 295.710068 
L 926.944719 293.131377 
L 929.201798 296.337697 
L 931.458876 299.086716 
L 932.211236 299.912988 
L 932.963596 296.967042 
L 935.220674 299.626299 
L 937.477753 301.90628 
L 938.982472 303.242602 
L 939.734831 299.935381 
L 940.487191 299.839614 
L 941.239551 297.371238 
L 942.74427 299.149727 
L 943.496629 299.622737 
L 944.248989 299.300042 
L 945.001348 297.892935 
L 945.753708 298.778896 
L 947.258427 296.082859 
L 948.763146 297.986965 
L 949.515506 296.922801 
L 951.020225 289.864706 
L 953.277303 293.536935 
L 955.534382 296.685412 
L 957.039101 298.530769 
L 957.791461 297.932022 
L 958.54382 297.014677 
L 959.29618 297.944551 
L 960.048539 297.989026 
L 960.800899 298.424989 
L 963.057978 300.876307 
L 964.562697 302.313052 
L 965.315056 300.627729 
L 967.572135 302.764881 
L 968.324494 303.407244 
L 969.076854 301.225278 
L 971.333933 303.277205 
L 973.591011 305.036476 
L 975.09573 306.067604 
L 975.84809 303.744176 
L 976.600449 298.62001 
L 977.352809 299.469617 
L 978.105169 297.492839 
L 978.857528 298.135116 
L 981.114607 300.627776 
L 983.371685 302.764922 
L 985.628764 304.597257 
L 987.885843 306.168256 
L 988.638202 301.085045 
L 990.142921 302.501438 
L 990.895281 300.802274 
L 993.15236 302.805646 
L 995.409438 304.632174 
L 996.914157 305.702721 
L 997.666517 305.038675 
L 998.418876 296.478589 
L 999.171236 290.25173 
L 1001.428315 293.86876 
L 1002.180674 294.090038 
L 1004.437753 297.138409 
L 1005.942472 292.754379 
L 1008.199551 296.014467 
L 1010.456629 298.809587 
L 1012.713708 301.206052 
L 1014.970787 303.260721 
L 1017.227865 305.022343 
L 1017.980225 305.551833 
L 1018.732584 302.650795 
L 1019.484944 303.298863 
L 1020.237303 300.829304 
L 1022.494382 302.937708 
L 1023.246742 303.57143 
L 1023.999101 299.059676 
L 1024.751461 299.8873 
L 1025.50382 298.148689 
L 1027.760899 300.639414 
L 1030.017978 302.7749 
L 1030.770337 303.416763 
L 1031.522697 302.562013 
L 1032.275056 297.650368 
L 1033.779775 299.401641 
L 1035.284494 300.940122 
L 1036.036854 299.216483 
L 1038.293933 301.554916 
L 1039.798652 302.925496 
L 1040.551011 302.134016 
L 1042.05573 303.448134 
L 1042.80809 301.721997 
L 1043.560449 298.220361 
L 1044.312809 296.115307 
L 1045.065169 295.467523 
L 1045.817528 290.294382 
L 1046.569888 289.484328 
L 1047.322247 290.760043 
L 1048.074607 291.125922 
L 1048.826966 291.836134 
L 1049.579326 290.724355 
L 1051.836404 294.273976 
L 1054.093483 297.317333 
L 1056.350562 299.926632 
L 1058.60764 302.163779 
L 1060.864719 304.081853 
L 1063.121798 305.72636 
L 1064.626517 306.690224 
L 1065.378876 305.060967 
L 1066.131236 303.713903 
L 1066.883596 303.017341 
L 1069.140674 304.813675 
L 1069.893034 303.033043 
L 1072.150112 304.827138 
L 1072.902472 305.366388 
L 1073.654831 305.105506 
L 1075.91191 306.604015 
L 1077.416629 307.482308 
L 1078.168989 307.357265 
L 1081.178427 308.888493 
L 1084.187865 310.135689 
L 1084.940225 310.409512 
L 1085.692584 307.852643 
L 1088.702022 309.291983 
L 1090.959101 310.193396 
L 1091.711461 310.178076 
L 1092.46382 309.884073 
L 1093.21618 308.877064 
L 1093.968539 308.824367 
L 1096.977978 310.083457 
L 1097.730337 310.359892 
L 1098.482697 301.224187 
L 1099.987416 295.299025 
L 1102.244494 298.196184 
L 1104.501573 300.680136 
L 1106.758652 302.809813 
L 1107.511011 299.233855 
L 1108.263371 299.178199 
L 1109.01573 295.774232 
L 1109.76809 295.924591 
L 1110.520449 293.286258 
L 1112.777528 296.470487 
L 1114.282247 298.336799 
L 1114.282247 298.336799 
" clip-path="url(#pa715612f34)" style="fill: none; stroke: #ff0000; stroke-width: 5; stroke-linecap: square"/>
   </g>
   <g id="line2d_37">
    <path d="M 814.843146 302.951986 
L 817.100225 304.757642 
L 819.357303 306.305766 
L 820.862022 307.213138 
L 821.614382 305.574332 
L 822.366742 299.346527 
L 824.62382 301.666412 
L 826.880899 303.655423 
L 827.633258 304.253259 
L 828.385618 294.957115 
L 830.642697 297.90304 
L 831.395056 298.788495 
L 832.147416 289.829568 
L 833.652135 291.594644 
L 835.156854 287.641657 
L 837.413933 291.63095 
L 839.671011 295.051267 
L 841.17573 297.055954 
L 841.92809 296.64364 
L 844.185169 299.349023 
L 846.442247 301.66855 
L 847.194607 302.36573 
L 847.946966 301.099511 
L 850.204045 303.169376 
L 852.461124 304.944026 
L 854.718202 306.465567 
L 855.470562 306.922896 
L 856.975281 303.823703 
L 857.72764 304.413126 
L 858.48 304.146187 
L 860.737079 305.781519 
L 862.994157 307.183612 
L 863.746517 300.767148 
L 864.498876 296.739608 
L 865.251236 296.877383 
L 867.508315 299.54943 
L 869.765393 301.840375 
L 872.022472 303.804574 
L 874.279551 305.488629 
L 875.03191 303.58876 
L 875.78427 302.797347 
L 876.536629 303.438087 
L 877.288989 303.37165 
L 878.041348 296.811438 
L 878.793708 293.026273 
L 879.546067 292.316379 
L 881.803146 295.638939 
L 883.307865 297.586326 
L 884.060225 298.229314 
L 886.317303 300.708542 
L 888.574382 302.834169 
L 890.831461 304.656628 
L 893.088539 306.219159 
L 895.345618 307.558833 
L 898.355056 309.052672 
L 901.364494 310.269413 
L 904.373933 311.260457 
L 908.13573 312.244891 
L 911.897528 313.006628 
L 916.411685 313.69685 
L 921.678202 314.274623 
L 928.449438 314.769172 
L 936.725393 315.132661 
L 948.010787 315.390004 
L 966.067416 315.547281 
L 967.572135 315.553605 
L 968.324494 308.814441 
L 971.333933 310.075373 
L 974.343371 311.102409 
L 978.105169 312.122597 
L 978.857528 312.297074 
L 979.609888 308.005642 
L 982.619326 309.416601 
L 983.371685 306.145744 
L 984.124045 306.619064 
L 984.876404 299.254881 
L 987.133483 301.587835 
L 989.390562 303.588052 
L 991.64764 305.302989 
L 992.4 305.818446 
L 993.15236 297.69105 
L 994.657079 299.438357 
L 995.409438 296.513741 
L 997.666517 299.237652 
L 998.418876 297.507109 
L 1000.675955 300.08934 
L 1002.180674 301.528202 
L 1002.933034 302.232399 
L 1003.685393 298.710183 
L 1004.437753 288.678046 
L 1005.190112 283.189342 
L 1005.942472 282.294052 
L 1006.694831 282.04304 
L 1007.447191 283.721496 
L 1008.199551 279.015012 
L 1010.456629 284.234679 
L 1011.961348 287.293984 
L 1012.713708 287.793314 
L 1013.466067 287.701639 
L 1015.723146 291.682376 
L 1017.980225 295.095359 
L 1018.732584 292.936812 
L 1019.484944 292.635599 
L 1020.237303 293.784426 
L 1020.989663 291.166704 
L 1021.742022 289.263087 
L 1023.999101 293.021123 
L 1025.50382 295.223749 
L 1026.25618 293.005746 
L 1027.008539 294.136067 
L 1027.760899 292.855321 
L 1028.513258 292.143589 
L 1030.770337 295.490793 
L 1031.522697 290.683675 
L 1032.275056 287.831401 
L 1033.027416 283.556719 
L 1033.779775 284.671625 
L 1036.036854 289.084515 
L 1038.293933 292.868021 
L 1039.046292 292.397793 
L 1041.303371 295.708741 
L 1042.05573 296.417797 
L 1044.312809 299.155391 
L 1046.569888 301.502536 
L 1048.826966 303.514919 
L 1051.084045 305.240285 
L 1053.341124 306.719572 
L 1056.350562 308.369088 
L 1058.60764 309.402129 
L 1059.36 307.994546 
L 1062.369438 309.407563 
L 1063.874157 304.220433 
L 1064.626517 304.790019 
L 1065.378876 295.101269 
L 1066.131236 293.981392 
L 1066.883596 295.062929 
L 1067.635955 290.923477 
L 1069.893034 294.444698 
L 1070.645393 290.85282 
L 1072.902472 294.384118 
L 1075.159551 297.411766 
L 1077.416629 300.007595 
L 1078.921348 301.529039 
L 1079.673708 301.721662 
L 1080.426067 302.416186 
L 1081.178427 302.107958 
L 1081.930787 297.991483 
L 1082.683146 298.872516 
L 1083.435506 298.539711 
L 1084.187865 291.786576 
L 1086.444944 295.184698 
L 1088.702022 298.098163 
L 1090.959101 300.596095 
L 1091.711461 300.580809 
L 1093.968539 302.724653 
L 1096.225618 304.562732 
L 1098.482697 306.138654 
L 1100.739775 307.489811 
L 1103.749213 308.996453 
L 1104.501573 307.817015 
L 1106.758652 308.928796 
L 1107.511011 308.82837 
L 1108.263371 309.167559 
L 1109.01573 305.739799 
L 1110.520449 306.702352 
L 1111.272809 304.283192 
L 1112.025169 304.84964 
L 1112.777528 299.443185 
L 1114.282247 301.019659 
L 1114.282247 301.019659 
" clip-path="url(#pa715612f34)" style="fill: none; stroke: #0000ff; stroke-width: 5; stroke-linecap: square"/>
   </g>
   <g id="patch_11">
    <path d="M 814.090787 336.640156 
L 814.090787 31.720156 
" style="fill: none; stroke: #000000; stroke-width: 5; stroke-linejoin: miter; stroke-linecap: square"/>
   </g>
   <g id="patch_12">
    <path d="M 814.090787 336.640156 
L 1115.034607 336.640156 
" style="fill: none; stroke: #000000; stroke-width: 5; stroke-linejoin: miter; stroke-linecap: square"/>
   </g>
   <g id="patch_13">
    <path d="M 889.326742 330.541756 
L 964.562697 330.541756 
L 964.562697 319.869556 
L 889.326742 319.869556 
z
" style="fill: #8c5a2b; stroke: #8c5a2b; stroke-linejoin: miter"/>
   </g>
   <g id="text_30">
    <!-- Novel | Naive -->
    <g transform="translate(901.26004 21.720156) scale(0.19 -0.19)">
     <use xlink:href="#DejaVuSans-4e"/>
     <use xlink:href="#DejaVuSans-6f" transform="translate(74.804688 0)"/>
     <use xlink:href="#DejaVuSans-76" transform="translate(135.986328 0)"/>
     <use xlink:href="#DejaVuSans-65" transform="translate(195.166016 0)"/>
     <use xlink:href="#DejaVuSans-6c" transform="translate(256.689453 0)"/>
     <use xlink:href="#DejaVuSans-20" transform="translate(284.472656 0)"/>
     <use xlink:href="#DejaVuSans-7c" transform="translate(316.259766 0)"/>
     <use xlink:href="#DejaVuSans-20" transform="translate(349.951172 0)"/>
     <use xlink:href="#DejaVuSans-4e" transform="translate(381.738281 0)"/>
     <use xlink:href="#DejaVuSans-61" transform="translate(456.542969 0)"/>
     <use xlink:href="#DejaVuSans-69" transform="translate(517.822266 0)"/>
     <use xlink:href="#DejaVuSans-76" transform="translate(545.605469 0)"/>
     <use xlink:href="#DejaVuSans-65" transform="translate(604.785156 0)"/>
    </g>
   </g>
  </g>
  <g id="axes_4">
   <g id="patch_14">
    <path d="M 1160.17618 336.640156 
L 1461.12 336.640156 
L 1461.12 31.720156 
L 1160.17618 31.720156 
z
" style="fill: #ffffff"/>
   </g>
   <g id="matplotlib.axis_7">
    <g id="xtick_16">
     <g id="line2d_38">
      <g>
       <use xlink:href="#mc684eb2511" x="1160.17618" y="336.640156" style="stroke: #000000; stroke-width: 1.6"/>
      </g>
     </g>
     <g id="text_31">
      <!-- -1 -->
      <g transform="translate(1144.22368 369.455156) scale(0.32 -0.32)">
       <use xlink:href="#DejaVuSans-2d"/>
       <use xlink:href="#DejaVuSans-31" transform="translate(36.083984 0)"/>
      </g>
     </g>
    </g>
    <g id="xtick_17">
     <g id="line2d_39">
      <g>
       <use xlink:href="#mc684eb2511" x="1235.412135" y="336.640156" style="stroke: #000000; stroke-width: 1.6"/>
      </g>
     </g>
     <g id="text_32">
      <!-- 0 -->
      <g transform="translate(1225.232135 369.455156) scale(0.32 -0.32)">
       <use xlink:href="#DejaVuSans-30"/>
      </g>
     </g>
    </g>
    <g id="xtick_18">
     <g id="line2d_40">
      <g>
       <use xlink:href="#mc684eb2511" x="1310.64809" y="336.640156" style="stroke: #000000; stroke-width: 1.6"/>
      </g>
     </g>
     <g id="text_33">
      <!-- 1 -->
      <g transform="translate(1300.46809 369.455156) scale(0.32 -0.32)">
       <use xlink:href="#DejaVuSans-31"/>
      </g>
     </g>
    </g>
    <g id="xtick_19">
     <g id="line2d_41">
      <g>
       <use xlink:href="#mc684eb2511" x="1385.884045" y="336.640156" style="stroke: #000000; stroke-width: 1.6"/>
      </g>
     </g>
     <g id="text_34">
      <!-- 2 -->
      <g transform="translate(1375.704045 369.455156) scale(0.32 -0.32)">
       <use xlink:href="#DejaVuSans-32"/>
      </g>
     </g>
    </g>
    <g id="xtick_20">
     <g id="line2d_42">
      <g>
       <use xlink:href="#mc684eb2511" x="1461.12" y="336.640156" style="stroke: #000000; stroke-width: 1.6"/>
      </g>
     </g>
     <g id="text_35">
      <!-- 3 -->
      <g transform="translate(1450.94 369.455156) scale(0.32 -0.32)">
       <use xlink:href="#DejaVuSans-33"/>
      </g>
     </g>
    </g>
    <g id="text_36">
     <!-- Time (s) -->
     <g transform="translate(1245.59559 404.425156) scale(0.32 -0.32)">
      <use xlink:href="#DejaVuSans-54"/>
      <use xlink:href="#DejaVuSans-69" transform="translate(57.958984 0)"/>
      <use xlink:href="#DejaVuSans-6d" transform="translate(85.742188 0)"/>
      <use xlink:href="#DejaVuSans-65" transform="translate(183.154297 0)"/>
      <use xlink:href="#DejaVuSans-20" transform="translate(244.677734 0)"/>
      <use xlink:href="#DejaVuSans-28" transform="translate(276.464844 0)"/>
      <use xlink:href="#DejaVuSans-73" transform="translate(315.478516 0)"/>
      <use xlink:href="#DejaVuSans-29" transform="translate(367.578125 0)"/>
     </g>
    </g>
   </g>
   <g id="matplotlib.axis_8">
    <g id="ytick_13">
     <g id="line2d_43">
      <g>
       <use xlink:href="#mf224cb1eb6" x="1160.17618" y="315.612144" style="stroke: #000000; stroke-width: 1.6"/>
      </g>
     </g>
    </g>
    <g id="ytick_14">
     <g id="line2d_44">
      <g>
       <use xlink:href="#mf224cb1eb6" x="1160.17618" y="237.556041" style="stroke: #000000; stroke-width: 1.6"/>
      </g>
     </g>
    </g>
    <g id="ytick_15">
     <g id="line2d_45">
      <g>
       <use xlink:href="#mf224cb1eb6" x="1160.17618" y="159.499938" style="stroke: #000000; stroke-width: 1.6"/>
      </g>
     </g>
    </g>
    <g id="ytick_16">
     <g id="line2d_46">
      <g>
       <use xlink:href="#mf224cb1eb6" x="1160.17618" y="81.443836" style="stroke: #000000; stroke-width: 1.6"/>
      </g>
     </g>
    </g>
   </g>
   <g id="line2d_47">
    <path d="M 1160.928539 313.470061 
L 1166.195056 314.116248 
L 1172.213933 314.619736 
L 1179.737528 315.017952 
L 1189.518202 315.30712 
L 1200.051236 315.463391 
L 1200.803596 315.00183 
L 1201.555955 315.032345 
L 1202.308315 313.186049 
L 1203.060674 307.674723 
L 1206.070112 309.147065 
L 1209.079551 310.346297 
L 1212.088989 311.323079 
L 1215.850787 312.293348 
L 1219.612584 313.044123 
L 1224.126742 313.724413 
L 1229.393258 314.293871 
L 1236.164494 314.781303 
L 1244.440449 315.139562 
L 1255.725843 315.393201 
L 1273.782472 315.548215 
L 1313.657528 315.607926 
L 1335.475955 315.611191 
L 1336.228315 313.913476 
L 1339.990112 314.297747 
L 1340.742472 312.056651 
L 1341.494831 308.750406 
L 1344.50427 310.023216 
L 1347.513708 311.059927 
L 1351.275506 312.089725 
L 1352.027865 312.265846 
L 1352.780225 307.878131 
L 1353.532584 308.264832 
L 1354.284944 306.78486 
L 1357.294382 308.422267 
L 1360.30382 309.755945 
L 1363.313258 310.842233 
L 1367.075056 311.921278 
L 1370.836854 312.756223 
L 1375.351011 313.51278 
L 1380.617528 314.146079 
L 1386.636404 314.639527 
L 1394.16 315.029802 
L 1403.940674 315.313203 
L 1404.693034 313.601102 
L 1409.959551 314.207758 
L 1411.46427 314.344686 
L 1412.216629 312.856472 
L 1412.968989 309.745981 
L 1415.978427 310.834118 
L 1419.740225 311.914999 
L 1423.502022 312.751363 
L 1424.254382 312.894402 
L 1425.006742 311.999376 
L 1427.26382 312.514647 
L 1428.01618 310.426141 
L 1431.025618 311.388112 
L 1432.530337 311.799956 
L 1433.282697 308.732328 
L 1436.292135 310.008491 
L 1439.301573 311.047934 
L 1440.053933 310.824573 
L 1443.81573 311.907613 
L 1447.577528 312.745649 
L 1452.091685 313.505007 
L 1457.358202 314.140651 
L 1460.36764 314.413604 
L 1460.36764 314.413604 
" clip-path="url(#p7904a195e6)" style="fill: none; stroke: #000000; stroke-width: 5; stroke-linecap: square"/>
   </g>
   <g id="line2d_48">
    <path d="M 1160.928539 304.668292 
L 1162.433258 305.735318 
L 1163.185618 302.21661 
L 1163.937978 298.128902 
L 1164.690337 299.003064 
L 1165.442697 298.387885 
L 1166.195056 299.249099 
L 1166.947416 296.531752 
L 1167.699775 290.5059 
L 1171.461573 296.07692 
L 1172.213933 296.714469 
L 1174.471011 299.40975 
L 1176.72809 301.720616 
L 1177.480449 302.415193 
L 1178.232809 300.092143 
L 1180.489888 302.305683 
L 1181.242247 298.247118 
L 1181.994607 299.11537 
L 1182.746966 298.377062 
L 1185.004045 300.835217 
L 1187.261124 302.942777 
L 1189.518202 304.749746 
L 1191.775281 306.298995 
L 1192.52764 306.764653 
L 1193.28 306.210472 
L 1195.537079 307.551386 
L 1197.041798 308.33731 
L 1197.794157 307.445176 
L 1198.546517 307.853525 
L 1199.298876 306.549334 
L 1201.555955 307.841917 
L 1202.308315 308.230428 
L 1203.060674 308.450815 
L 1206.070112 309.779197 
L 1206.822472 310.070844 
L 1207.574831 304.833784 
L 1208.327191 301.722902 
L 1210.58427 303.703855 
L 1212.088989 304.864913 
L 1212.841348 303.752029 
L 1215.098427 305.443578 
L 1217.355506 306.89387 
L 1218.107865 306.634494 
L 1218.860225 305.494798 
L 1219.612584 301.839265 
L 1220.364944 298.756336 
L 1221.117303 296.881981 
L 1221.869663 289.541749 
L 1224.126742 293.260039 
L 1226.38382 296.448009 
L 1227.13618 297.406216 
L 1227.888539 297.719948 
L 1229.393258 299.464437 
L 1230.145618 297.361917 
L 1231.650337 299.141315 
L 1232.402697 297.411575 
L 1233.155056 296.626272 
L 1234.659775 298.477395 
L 1235.412135 262.683714 
L 1236.164494 236.526934 
L 1236.916854 219.25137 
L 1237.669213 215.906887 
L 1239.173933 192.892323 
L 1239.926292 185.0577 
L 1240.678652 189.535063 
L 1242.183371 175.927796 
L 1242.93573 171.523734 
L 1243.68809 161.398263 
L 1244.440449 156.109376 
L 1245.192809 154.223145 
L 1245.945169 150.060036 
L 1246.697528 154.487349 
L 1247.449888 149.858989 
L 1248.202247 144.054604 
L 1250.459326 155.509737 
L 1251.211685 163.514863 
L 1251.964045 166.85627 
L 1252.716404 164.804468 
L 1253.468764 163.147966 
L 1254.221124 159.614632 
L 1255.725843 173.913226 
L 1256.478202 163.043704 
L 1257.230562 167.015374 
L 1257.982921 168.7641 
L 1258.735281 159.295935 
L 1259.48764 151.583394 
L 1260.24 154.137783 
L 1260.99236 160.712065 
L 1261.744719 165.899389 
L 1262.497079 173.385027 
L 1263.249438 178.875508 
L 1264.754157 181.930785 
L 1265.506517 188.29881 
L 1266.258876 180.989234 
L 1267.011236 170.915779 
L 1267.763596 158.78067 
L 1268.515955 151.967284 
L 1269.268315 160.073427 
L 1270.020674 158.183009 
L 1270.773034 160.477532 
L 1271.525393 161.322206 
L 1272.277753 166.718346 
L 1273.030112 166.044651 
L 1273.782472 167.617175 
L 1274.534831 168.427723 
L 1275.287191 168.738336 
L 1276.79191 183.05853 
L 1277.54427 181.587756 
L 1278.296629 178.483848 
L 1279.048989 177.397313 
L 1279.801348 184.308053 
L 1280.553708 183.737516 
L 1281.306067 177.146904 
L 1282.810787 167.81942 
L 1283.563146 167.256385 
L 1284.315506 165.682605 
L 1285.067865 160.198219 
L 1286.572584 169.49609 
L 1287.324944 160.313136 
L 1288.829663 147.031743 
L 1289.582022 144.404914 
L 1290.334382 144.790712 
L 1291.086742 150.75034 
L 1291.839101 147.181588 
L 1292.591461 155.603113 
L 1293.34382 158.343625 
L 1294.09618 150.209416 
L 1294.848539 150.218058 
L 1295.600899 147.198058 
L 1296.353258 147.40777 
L 1297.105618 149.322497 
L 1297.857978 143.024551 
L 1298.610337 145.216753 
L 1299.362697 144.871084 
L 1300.115056 148.988063 
L 1300.867416 151.861172 
L 1301.619775 150.468735 
L 1302.372135 152.991277 
L 1303.124494 150.721494 
L 1303.876854 147.314115 
L 1304.629213 149.045487 
L 1305.381573 138.397017 
L 1306.133933 137.683322 
L 1306.886292 138.385176 
L 1307.638652 131.045091 
L 1308.391011 128.766561 
L 1309.143371 129.476918 
L 1309.89573 137.126289 
L 1312.152809 162.582838 
L 1314.409888 184.40864 
L 1316.666966 203.121544 
L 1318.924045 219.165526 
L 1321.181124 232.921225 
L 1323.438202 244.71502 
L 1325.695281 254.826719 
L 1327.95236 263.496246 
L 1330.209438 270.929276 
L 1331.714157 275.285856 
L 1332.466517 276.161563 
L 1334.723596 281.788205 
L 1336.980674 286.612345 
L 1339.237753 290.748443 
L 1339.990112 289.517611 
L 1340.742472 290.822337 
L 1341.494831 286.344637 
L 1342.247191 287.512038 
L 1342.999551 286.937276 
L 1345.256629 291.02703 
L 1347.513708 294.533483 
L 1349.018427 296.588653 
L 1349.770787 294.850922 
L 1351.275506 287.224714 
L 1352.027865 279.038527 
L 1352.780225 280.867209 
L 1353.532584 281.103077 
L 1354.284944 282.362263 
L 1356.542022 287.104528 
L 1358.799101 291.170429 
L 1361.05618 294.65643 
L 1363.313258 297.645239 
L 1364.817978 299.397012 
L 1365.570337 297.797363 
L 1367.827416 300.338197 
L 1370.084494 302.516644 
L 1372.341573 304.38439 
L 1373.846292 305.479096 
L 1374.598652 304.64222 
L 1376.85573 306.206806 
L 1377.60809 306.677073 
L 1378.360449 306.175622 
L 1379.865169 307.095683 
L 1380.617528 306.974635 
L 1381.369888 304.879834 
L 1382.122247 300.512449 
L 1384.379326 302.666045 
L 1385.131685 298.225024 
L 1387.388764 300.704862 
L 1389.645843 302.831014 
L 1390.398202 303.470071 
L 1391.150562 303.346477 
L 1393.40764 305.095868 
L 1395.664719 306.595751 
L 1396.417079 307.046571 
L 1397.169438 303.195238 
L 1397.921798 294.597008 
L 1398.674157 293.840671 
L 1400.931236 296.945828 
L 1401.683596 291.273627 
L 1402.435955 286.856046 
L 1404.693034 290.957385 
L 1406.950112 294.473771 
L 1409.207191 297.488633 
L 1411.46427 300.073498 
L 1412.968989 301.588516 
L 1413.721348 300.338976 
L 1415.978427 302.517311 
L 1418.235506 304.384962 
L 1418.987865 304.946321 
L 1419.740225 303.926442 
L 1420.492584 301.132135 
L 1422.749663 303.197348 
L 1424.254382 304.407791 
L 1425.006742 303.475831 
L 1425.759101 302.800918 
L 1426.511461 303.272844 
L 1427.26382 302.389021 
L 1428.01618 297.06883 
L 1428.768539 295.941609 
L 1431.025618 298.74712 
L 1433.282697 301.152493 
L 1435.539775 303.214801 
L 1436.292135 303.834668 
L 1437.044494 299.895758 
L 1439.301573 302.137308 
L 1441.558652 304.059157 
L 1443.81573 305.706902 
L 1446.072809 307.119637 
L 1446.825169 307.544263 
L 1447.577528 305.645631 
L 1449.834607 307.067105 
L 1452.844045 308.652156 
L 1455.853483 309.943191 
L 1456.605843 309.14318 
L 1457.358202 306.633574 
L 1458.862921 303.744923 
L 1459.615281 304.338284 
L 1460.36764 302.824617 
L 1460.36764 302.824617 
" clip-path="url(#p7904a195e6)" style="fill: none; stroke: #ff0000; stroke-width: 5; stroke-linecap: square"/>
   </g>
   <g id="line2d_49">
    <path d="M 1160.928539 313.491532 
L 1166.195056 314.131241 
L 1172.213933 314.629683 
L 1179.737528 315.023908 
L 1190.270562 315.325276 
L 1194.784719 315.40127 
L 1195.537079 310.671107 
L 1196.289438 310.918159 
L 1197.794157 305.52065 
L 1199.298876 306.50457 
L 1200.051236 304.799152 
L 1201.555955 305.853419 
L 1202.308315 304.833374 
L 1203.060674 303.119663 
L 1203.813034 296.957901 
L 1206.070112 299.618463 
L 1208.327191 301.899563 
L 1210.58427 303.855321 
L 1212.841348 305.532138 
L 1215.098427 306.969799 
L 1218.107865 308.572901 
L 1221.117303 309.878637 
L 1224.126742 310.942166 
L 1227.888539 311.998604 
L 1229.393258 312.350925 
L 1230.145618 307.828389 
L 1233.155056 309.272226 
L 1236.164494 310.448242 
L 1239.173933 311.406113 
L 1242.93573 312.357598 
L 1246.697528 313.093838 
L 1251.211685 313.760958 
L 1256.478202 314.319392 
L 1263.249438 314.797388 
L 1271.525393 315.14871 
L 1282.810787 315.397439 
L 1300.867416 315.549452 
L 1324.190562 315.59936 
L 1324.942921 313.013222 
L 1329.457079 313.701697 
L 1334.723596 314.278008 
L 1335.475955 314.344715 
L 1336.228315 312.234475 
L 1339.990112 312.998568 
L 1344.50427 313.690925 
L 1349.018427 314.199872 
L 1349.770787 311.487278 
L 1350.523146 311.693521 
L 1351.275506 310.967395 
L 1352.027865 305.264429 
L 1352.780225 305.781814 
L 1353.532584 302.208183 
L 1355.789663 304.119923 
L 1358.046742 305.759002 
L 1360.30382 307.164307 
L 1363.313258 308.731328 
L 1366.322697 310.007677 
L 1368.579775 310.807014 
L 1369.332135 310.679391 
L 1370.084494 306.483065 
L 1370.836854 304.865603 
L 1371.589213 302.427857 
L 1372.341573 302.319442 
L 1374.598652 304.215313 
L 1376.85573 305.840787 
L 1379.112809 307.234427 
L 1382.122247 308.788442 
L 1385.131685 310.054196 
L 1388.141124 311.085161 
L 1391.902921 312.109251 
L 1395.664719 312.901672 
L 1400.178876 313.619698 
L 1405.445393 314.220745 
L 1411.46427 314.689061 
L 1417.483146 314.999752 
L 1418.235506 310.583815 
L 1418.987865 303.539198 
L 1421.244944 305.261102 
L 1423.502022 306.73742 
L 1426.511461 308.383626 
L 1429.520899 309.724472 
L 1432.530337 310.816599 
L 1433.282697 309.742774 
L 1436.292135 310.831506 
L 1440.053933 311.912977 
L 1442.311011 312.440571 
L 1443.063371 312.204287 
L 1443.81573 309.983851 
L 1444.56809 308.971344 
L 1447.577528 310.203171 
L 1450.586966 311.206501 
L 1454.348764 312.203142 
L 1458.110562 312.974323 
L 1460.36764 313.350542 
L 1460.36764 313.350542 
" clip-path="url(#p7904a195e6)" style="fill: none; stroke: #0000ff; stroke-width: 5; stroke-linecap: square"/>
   </g>
   <g id="patch_15">
    <path d="M 1160.17618 336.640156 
L 1160.17618 31.720156 
" style="fill: none; stroke: #000000; stroke-width: 5; stroke-linejoin: miter; stroke-linecap: square"/>
   </g>
   <g id="patch_16">
    <path d="M 1160.17618 336.640156 
L 1461.12 336.640156 
" style="fill: none; stroke: #000000; stroke-width: 5; stroke-linejoin: miter; stroke-linecap: square"/>
   </g>
   <g id="patch_17">
    <path d="M 1235.412135 330.541756 
L 1310.64809 330.541756 
L 1310.64809 319.869556 
L 1235.412135 319.869556 
z
" style="fill: #8c5a2b; stroke: #8c5a2b; stroke-linejoin: miter"/>
   </g>
   <g id="text_37">
    <!-- Novel | Expert -->
    <g transform="translate(1243.250043 21.720156) scale(0.19 -0.19)">
     <use xlink:href="#DejaVuSans-4e"/>
     <use xlink:href="#DejaVuSans-6f" transform="translate(74.804688 0)"/>
     <use xlink:href="#DejaVuSans-76" transform="translate(135.986328 0)"/>
     <use xlink:href="#DejaVuSans-65" transform="translate(195.166016 0)"/>
     <use xlink:href="#DejaVuSans-6c" transform="translate(256.689453 0)"/>
     <use xlink:href="#DejaVuSans-20" transform="translate(284.472656 0)"/>
     <use xlink:href="#DejaVuSans-7c" transform="translate(316.259766 0)"/>
     <use xlink:href="#DejaVuSans-20" transform="translate(349.951172 0)"/>
     <use xlink:href="#DejaVuSans-45" transform="translate(381.738281 0)"/>
     <use xlink:href="#DejaVuSans-78" transform="translate(444.921875 0)"/>
     <use xlink:href="#DejaVuSans-70" transform="translate(504.101562 0)"/>
     <use xlink:href="#DejaVuSans-65" transform="translate(567.578125 0)"/>
     <use xlink:href="#DejaVuSans-72" transform="translate(629.101562 0)"/>
     <use xlink:href="#DejaVuSans-74" transform="translate(670.214844 0)"/>
    </g>
   </g>
  </g>
 </g>
 <defs>
  <clipPath id="pe28d17b7f5">
   <rect x="121.92" y="31.720156" width="300.94382" height="304.92"/>
  </clipPath>
  <clipPath id="pe6dca008e6">
   <rect x="468.005393" y="31.720156" width="300.94382" height="304.92"/>
  </clipPath>
  <clipPath id="pa715612f34">
   <rect x="814.090787" y="31.720156" width="300.94382" height="304.92"/>
  </clipPath>
  <clipPath id="p7904a195e6">
   <rect x="1160.17618" y="31.720156" width="300.94382" height="304.92"/>
  </clipPath>
 </defs>
</svg>
