<?xml version="1.0" encoding="utf-8" standalone="no"?>
<!DOCTYPE svg PUBLIC "-//W3C//DTD SVG 1.1//EN"
  "http://www.w3.org/Graphics/SVG/1.1/DTD/svg11.dtd">
<svg xmlns:xlink="http://www.w3.org/1999/xlink" width="1478.5pt" height="418.280156pt" viewBox="0 0 1478.5 418.280156" xmlns="http://www.w3.org/2000/svg" version="1.1">
 <metadata>
  <rdf:RDF xmlns:dc="http://purl.org/dc/elements/1.1/" xmlns:cc="http://creativecommons.org/ns#" xmlns:rdf="http://www.w3.org/1999/02/22-rdf-syntax-ns#">
   <cc:Work>
    <dc:type rdf:resource="http://purl.org/dc/dcmitype/StillImage"/>
    <dc:date>2026-03-25T11:55:18.447907</dc:date>
    <dc:format>image/svg+xml</dc:format>
    <dc:creator>
     <cc:Agent>
      <dc:title>Matplotlib v3.10.7, https://matplotlib.org/</dc:title>
     </cc:Agent>
    </dc:creator>
   </cc:Work>
  </rdf:RDF>
 </metadata>
 <defs>
  <style type="text/css">*{stroke-linejoin: round; stroke-linecap: butt}</style>
 </defs>
 <g id="figure_1">
  <g id="patch_1">
   <path d="M 0 418.280156 
L 1478.5 418.280156 
L 1478.5 -0 
L 0 -0 
z
" style="fill: #ffffff"/>
  </g>
  <g id="axes_1">
   <g id="patch_2">
    <path d="M 121.92 336.640156 
L 422.86382 336.640156 
L 422.86382 31.720156 
L 121.92 31.720156 
z
" style="fill: #ffffff"/>
   </g>
   <g id="matplotlib.axis_1">
    <g id="xtick_1">
     <g id="line2d_1">
      <defs>
       <path id="mdd91540a17" d="M 0 0 
L 0 5 
" style="stroke: #000000; stroke-width: 1.6"/>
      </defs>
      <g>
       <use xlink:href="#mdd91540a17" x="121.92" y="336.640156" style="stroke: #000000; stroke-width: 1.6"/>
      </g>
     </g>
     <g id="text_1">
      <!-- -1 -->
      <g transform="translate(105.9675 369.455156) scale(0.32 -0.32)">
       <defs>
        <path id="DejaVuSans-2d" d="M 313 2009 
L 1997 2009 
L 1997 1497 
L 313 1497 
L 313 2009 
z
" transform="scale(0.015625)"/>
        <path id="DejaVuSans-31" d="M 794 531 
L 1825 531 
L 1825 4091 
L 703 3866 
L 703 4441 
L 1819 4666 
L 2450 4666 
L 2450 531 
L 3481 531 
L 3481 0 
L 794 0 
L 794 531 
z
" transform="scale(0.015625)"/>
       </defs>
       <use xlink:href="#DejaVuSans-2d"/>
       <use xlink:href="#DejaVuSans-31" transform="translate(36.083984 0)"/>
      </g>
     </g>
    </g>
    <g id="xtick_2">
     <g id="line2d_2">
      <g>
       <use xlink:href="#mdd91540a17" x="197.155955" y="336.640156" style="stroke: #000000; stroke-width: 1.6"/>
      </g>
     </g>
     <g id="text_2">
      <!-- 0 -->
      <g transform="translate(186.975955 369.455156) scale(0.32 -0.32)">
       <defs>
        <path id="DejaVuSans-30" d="M 2034 4250 
Q 1547 4250 1301 3770 
Q 1056 3291 1056 2328 
Q 1056 1369 1301 889 
Q 1547 409 2034 409 
Q 2525 409 2770 889 
Q 3016 1369 3016 2328 
Q 3016 3291 2770 3770 
Q 2525 4250 2034 4250 
z
M 2034 4750 
Q 2819 4750 3233 4129 
Q 3647 3509 3647 2328 
Q 3647 1150 3233 529 
Q 2819 -91 2034 -91 
Q 1250 -91 836 529 
Q 422 1150 422 2328 
Q 422 3509 836 4129 
Q 1250 4750 2034 4750 
z
" transform="scale(0.015625)"/>
       </defs>
       <use xlink:href="#DejaVuSans-30"/>
      </g>
     </g>
    </g>
    <g id="xtick_3">
     <g id="line2d_3">
      <g>
       <use xlink:href="#mdd91540a17" x="272.39191" y="336.640156" style="stroke: #000000; stroke-width: 1.6"/>
      </g>
     </g>
     <g id="text_3">
      <!-- 1 -->
      <g transform="translate(262.21191 369.455156) scale(0.32 -0.32)">
       <use xlink:href="#DejaVuSans-31"/>
      </g>
     </g>
    </g>
    <g id="xtick_4">
     <g id="line2d_4">
      <g>
       <use xlink:href="#mdd91540a17" x="347.627865" y="336.640156" style="stroke: #000000; stroke-width: 1.6"/>
      </g>
     </g>
     <g id="text_4">
      <!-- 2 -->
      <g transform="translate(337.447865 369.455156) scale(0.32 -0.32)">
       <defs>
        <path id="DejaVuSans-32" d="M 1228 531 
L 3431 531 
L 3431 0 
L 469 0 
L 469 531 
Q 828 903 1448 1529 
Q 2069 2156 2228 2338 
Q 2531 2678 2651 2914 
Q 2772 3150 2772 3378 
Q 2772 3750 2511 3984 
Q 2250 4219 1831 4219 
Q 1534 4219 1204 4116 
Q 875 4013 500 3803 
L 500 4441 
Q 881 4594 1212 4672 
Q 1544 4750 1819 4750 
Q 2544 4750 2975 4387 
Q 3406 4025 3406 3419 
Q 3406 3131 3298 2873 
Q 3191 2616 2906 2266 
Q 2828 2175 2409 1742 
Q 1991 1309 1228 531 
z
" transform="scale(0.015625)"/>
       </defs>
       <use xlink:href="#DejaVuSans-32"/>
      </g>
     </g>
    </g>
    <g id="xtick_5">
     <g id="line2d_5">
      <g>
       <use xlink:href="#mdd91540a17" x="422.86382" y="336.640156" style="stroke: #000000; stroke-width: 1.6"/>
      </g>
     </g>
     <g id="text_5">
      <!-- 3 -->
      <g transform="translate(412.68382 369.455156) scale(0.32 -0.32)">
       <defs>
        <path id="DejaVuSans-33" d="M 2597 2516 
Q 3050 2419 3304 2112 
Q 3559 1806 3559 1356 
Q 3559 666 3084 287 
Q 2609 -91 1734 -91 
Q 1441 -91 1130 -33 
Q 819 25 488 141 
L 488 750 
Q 750 597 1062 519 
Q 1375 441 1716 441 
Q 2309 441 2620 675 
Q 2931 909 2931 1356 
Q 2931 1769 2642 2001 
Q 2353 2234 1838 2234 
L 1294 2234 
L 1294 2753 
L 1863 2753 
Q 2328 2753 2575 2939 
Q 2822 3125 2822 3475 
Q 2822 3834 2567 4026 
Q 2313 4219 1838 4219 
Q 1578 4219 1281 4162 
Q 984 4106 628 3988 
L 628 4550 
Q 988 4650 1302 4700 
Q 1616 4750 1894 4750 
Q 2613 4750 3031 4423 
Q 3450 4097 3450 3541 
Q 3450 3153 3228 2886 
Q 3006 2619 2597 2516 
z
" transform="scale(0.015625)"/>
       </defs>
       <use xlink:href="#DejaVuSans-33"/>
      </g>
     </g>
    </g>
    <g id="text_6">
     <!-- Time (s) -->
     <g transform="translate(207.33941 404.425156) scale(0.32 -0.32)">
      <defs>
       <path id="DejaVuSans-54" d="M -19 4666 
L 3928 4666 
L 3928 4134 
L 2272 4134 
L 2272 0 
L 1638 0 
L 1638 4134 
L -19 4134 
L -19 4666 
z
" transform="scale(0.015625)"/>
       <path id="DejaVuSans-69" d="M 603 3500 
L 1178 3500 
L 1178 0 
L 603 0 
L 603 3500 
z
M 603 4863 
L 1178 4863 
L 1178 4134 
L 603 4134 
L 603 4863 
z
" transform="scale(0.015625)"/>
       <path id="DejaVuSans-6d" d="M 3328 2828 
Q 3544 3216 3844 3400 
Q 4144 3584 4550 3584 
Q 5097 3584 5394 3201 
Q 5691 2819 5691 2113 
L 5691 0 
L 5113 0 
L 5113 2094 
Q 5113 2597 4934 2840 
Q 4756 3084 4391 3084 
Q 3944 3084 3684 2787 
Q 3425 2491 3425 1978 
L 3425 0 
L 2847 0 
L 2847 2094 
Q 2847 2600 2669 2842 
Q 2491 3084 2119 3084 
Q 1678 3084 1418 2786 
Q 1159 2488 1159 1978 
L 1159 0 
L 581 0 
L 581 3500 
L 1159 3500 
L 1159 2956 
Q 1356 3278 1631 3431 
Q 1906 3584 2284 3584 
Q 2666 3584 2933 3390 
Q 3200 3197 3328 2828 
z
" transform="scale(0.015625)"/>
       <path id="DejaVuSans-65" d="M 3597 1894 
L 3597 1613 
L 953 1613 
Q 991 1019 1311 708 
Q 1631 397 2203 397 
Q 2534 397 2845 478 
Q 3156 559 3463 722 
L 3463 178 
Q 3153 47 2828 -22 
Q 2503 -91 2169 -91 
Q 1331 -91 842 396 
Q 353 884 353 1716 
Q 353 2575 817 3079 
Q 1281 3584 2069 3584 
Q 2775 3584 3186 3129 
Q 3597 2675 3597 1894 
z
M 3022 2063 
Q 3016 2534 2758 2815 
Q 2500 3097 2075 3097 
Q 1594 3097 1305 2825 
Q 1016 2553 972 2059 
L 3022 2063 
z
" transform="scale(0.015625)"/>
       <path id="DejaVuSans-20" transform="scale(0.015625)"/>
       <path id="DejaVuSans-28" d="M 1984 4856 
Q 1566 4138 1362 3434 
Q 1159 2731 1159 2009 
Q 1159 1288 1364 580 
Q 1569 -128 1984 -844 
L 1484 -844 
Q 1016 -109 783 600 
Q 550 1309 550 2009 
Q 550 2706 781 3412 
Q 1013 4119 1484 4856 
L 1984 4856 
z
" transform="scale(0.015625)"/>
       <path id="DejaVuSans-73" d="M 2834 3397 
L 2834 2853 
Q 2591 2978 2328 3040 
Q 2066 3103 1784 3103 
Q 1356 3103 1142 2972 
Q 928 2841 928 2578 
Q 928 2378 1081 2264 
Q 1234 2150 1697 2047 
L 1894 2003 
Q 2506 1872 2764 1633 
Q 3022 1394 3022 966 
Q 3022 478 2636 193 
Q 2250 -91 1575 -91 
Q 1294 -91 989 -36 
Q 684 19 347 128 
L 347 722 
Q 666 556 975 473 
Q 1284 391 1588 391 
Q 1994 391 2212 530 
Q 2431 669 2431 922 
Q 2431 1156 2273 1281 
Q 2116 1406 1581 1522 
L 1381 1569 
Q 847 1681 609 1914 
Q 372 2147 372 2553 
Q 372 3047 722 3315 
Q 1072 3584 1716 3584 
Q 2034 3584 2315 3537 
Q 2597 3491 2834 3397 
z
" transform="scale(0.015625)"/>
       <path id="DejaVuSans-29" d="M 513 4856 
L 1013 4856 
Q 1481 4119 1714 3412 
Q 1947 2706 1947 2009 
Q 1947 1309 1714 600 
Q 1481 -109 1013 -844 
L 513 -844 
Q 928 -128 1133 580 
Q 1338 1288 1338 2009 
Q 1338 2731 1133 3434 
Q 928 4138 513 4856 
z
" transform="scale(0.015625)"/>
      </defs>
      <use xlink:href="#DejaVuSans-54"/>
      <use xlink:href="#DejaVuSans-69" transform="translate(57.958984 0)"/>
      <use xlink:href="#DejaVuSans-6d" transform="translate(85.742188 0)"/>
      <use xlink:href="#DejaVuSans-65" transform="translate(183.154297 0)"/>
      <use xlink:href="#DejaVuSans-20" transform="translate(244.677734 0)"/>
      <use xlink:href="#DejaVuSans-28" transform="translate(276.464844 0)"/>
      <use xlink:href="#DejaVuSans-73" transform="translate(315.478516 0)"/>
      <use xlink:href="#DejaVuSans-29" transform="translate(367.578125 0)"/>
     </g>
    </g>
   </g>
   <g id="matplotlib.axis_2">
    <g id="ytick_1">
     <g id="line2d_6">
      <defs>
       <path id="m901a3e8f14" d="M 0 0 
L -5 0 
" style="stroke: #000000; stroke-width: 1.6"/>
      </defs>
      <g>
       <use xlink:href="#m901a3e8f14" x="121.92" y="315.619053" style="stroke: #000000; stroke-width: 1.6"/>
      </g>
     </g>
     <g id="text_7">
      <!-- 0.00 -->
      <g transform="translate(42.17 327.776553) scale(0.32 -0.32)">
       <defs>
        <path id="DejaVuSans-2e" d="M 684 794 
L 1344 794 
L 1344 0 
L 684 0 
L 684 794 
z
" transform="scale(0.015625)"/>
       </defs>
       <use xlink:href="#DejaVuSans-30"/>
       <use xlink:href="#DejaVuSans-2e" transform="translate(63.623047 0)"/>
       <use xlink:href="#DejaVuSans-30" transform="translate(95.410156 0)"/>
       <use xlink:href="#DejaVuSans-30" transform="translate(159.033203 0)"/>
      </g>
     </g>
    </g>
    <g id="ytick_2">
     <g id="line2d_7">
      <g>
       <use xlink:href="#m901a3e8f14" x="121.92" y="223.394254" style="stroke: #000000; stroke-width: 1.6"/>
      </g>
     </g>
     <g id="text_8">
      <!-- 0.01 -->
      <g transform="translate(42.17 235.551754) scale(0.32 -0.32)">
       <use xlink:href="#DejaVuSans-30"/>
       <use xlink:href="#DejaVuSans-2e" transform="translate(63.623047 0)"/>
       <use xlink:href="#DejaVuSans-30" transform="translate(95.410156 0)"/>
       <use xlink:href="#DejaVuSans-31" transform="translate(159.033203 0)"/>
      </g>
     </g>
    </g>
    <g id="ytick_3">
     <g id="line2d_8">
      <g>
       <use xlink:href="#m901a3e8f14" x="121.92" y="131.169455" style="stroke: #000000; stroke-width: 1.6"/>
      </g>
     </g>
     <g id="text_9">
      <!-- 0.02 -->
      <g transform="translate(42.17 143.326955) scale(0.32 -0.32)">
       <use xlink:href="#DejaVuSans-30"/>
       <use xlink:href="#DejaVuSans-2e" transform="translate(63.623047 0)"/>
       <use xlink:href="#DejaVuSans-30" transform="translate(95.410156 0)"/>
       <use xlink:href="#DejaVuSans-32" transform="translate(159.033203 0)"/>
      </g>
     </g>
    </g>
    <g id="ytick_4">
     <g id="line2d_9">
      <g>
       <use xlink:href="#m901a3e8f14" x="121.92" y="38.944657" style="stroke: #000000; stroke-width: 1.6"/>
      </g>
     </g>
     <g id="text_10">
      <!-- 0.03 -->
      <g transform="translate(42.17 51.102157) scale(0.32 -0.32)">
       <use xlink:href="#DejaVuSans-30"/>
       <use xlink:href="#DejaVuSans-2e" transform="translate(63.623047 0)"/>
       <use xlink:href="#DejaVuSans-30" transform="translate(95.410156 0)"/>
       <use xlink:href="#DejaVuSans-33" transform="translate(159.033203 0)"/>
      </g>
     </g>
    </g>
    <g id="text_11">
     <!-- Neural Activity -->
     <g transform="translate(31.515 301.885156) rotate(-90) scale(0.32 -0.32)">
      <defs>
       <path id="DejaVuSans-4e" d="M 628 4666 
L 1478 4666 
L 3547 763 
L 3547 4666 
L 4159 4666 
L 4159 0 
L 3309 0 
L 1241 3903 
L 1241 0 
L 628 0 
L 628 4666 
z
" transform="scale(0.015625)"/>
       <path id="DejaVuSans-75" d="M 544 1381 
L 544 3500 
L 1119 3500 
L 1119 1403 
Q 1119 906 1312 657 
Q 1506 409 1894 409 
Q 2359 409 2629 706 
Q 2900 1003 2900 1516 
L 2900 3500 
L 3475 3500 
L 3475 0 
L 2900 0 
L 2900 538 
Q 2691 219 2414 64 
Q 2138 -91 1772 -91 
Q 1169 -91 856 284 
Q 544 659 544 1381 
z
M 1991 3584 
L 1991 3584 
z
" transform="scale(0.015625)"/>
       <path id="DejaVuSans-72" d="M 2631 2963 
Q 2534 3019 2420 3045 
Q 2306 3072 2169 3072 
Q 1681 3072 1420 2755 
Q 1159 2438 1159 1844 
L 1159 0 
L 581 0 
L 581 3500 
L 1159 3500 
L 1159 2956 
Q 1341 3275 1631 3429 
Q 1922 3584 2338 3584 
Q 2397 3584 2469 3576 
Q 2541 3569 2628 3553 
L 2631 2963 
z
" transform="scale(0.015625)"/>
       <path id="DejaVuSans-61" d="M 2194 1759 
Q 1497 1759 1228 1600 
Q 959 1441 959 1056 
Q 959 750 1161 570 
Q 1363 391 1709 391 
Q 2188 391 2477 730 
Q 2766 1069 2766 1631 
L 2766 1759 
L 2194 1759 
z
M 3341 1997 
L 3341 0 
L 2766 0 
L 2766 531 
Q 2569 213 2275 61 
Q 1981 -91 1556 -91 
Q 1019 -91 701 211 
Q 384 513 384 1019 
Q 384 1609 779 1909 
Q 1175 2209 1959 2209 
L 2766 2209 
L 2766 2266 
Q 2766 2663 2505 2880 
Q 2244 3097 1772 3097 
Q 1472 3097 1187 3025 
Q 903 2953 641 2809 
L 641 3341 
Q 956 3463 1253 3523 
Q 1550 3584 1831 3584 
Q 2591 3584 2966 3190 
Q 3341 2797 3341 1997 
z
" transform="scale(0.015625)"/>
       <path id="DejaVuSans-6c" d="M 603 4863 
L 1178 4863 
L 1178 0 
L 603 0 
L 603 4863 
z
" transform="scale(0.015625)"/>
       <path id="DejaVuSans-41" d="M 2188 4044 
L 1331 1722 
L 3047 1722 
L 2188 4044 
z
M 1831 4666 
L 2547 4666 
L 4325 0 
L 3669 0 
L 3244 1197 
L 1141 1197 
L 716 0 
L 50 0 
L 1831 4666 
z
" transform="scale(0.015625)"/>
       <path id="DejaVuSans-63" d="M 3122 3366 
L 3122 2828 
Q 2878 2963 2633 3030 
Q 2388 3097 2138 3097 
Q 1578 3097 1268 2742 
Q 959 2388 959 1747 
Q 959 1106 1268 751 
Q 1578 397 2138 397 
Q 2388 397 2633 464 
Q 2878 531 3122 666 
L 3122 134 
Q 2881 22 2623 -34 
Q 2366 -91 2075 -91 
Q 1284 -91 818 406 
Q 353 903 353 1747 
Q 353 2603 823 3093 
Q 1294 3584 2113 3584 
Q 2378 3584 2631 3529 
Q 2884 3475 3122 3366 
z
" transform="scale(0.015625)"/>
       <path id="DejaVuSans-74" d="M 1172 4494 
L 1172 3500 
L 2356 3500 
L 2356 3053 
L 1172 3053 
L 1172 1153 
Q 1172 725 1289 603 
Q 1406 481 1766 481 
L 2356 481 
L 2356 0 
L 1766 0 
Q 1100 0 847 248 
Q 594 497 594 1153 
L 594 3053 
L 172 3053 
L 172 3500 
L 594 3500 
L 594 4494 
L 1172 4494 
z
" transform="scale(0.015625)"/>
       <path id="DejaVuSans-76" d="M 191 3500 
L 800 3500 
L 1894 563 
L 2988 3500 
L 3597 3500 
L 2284 0 
L 1503 0 
L 191 3500 
z
" transform="scale(0.015625)"/>
       <path id="DejaVuSans-79" d="M 2059 -325 
Q 1816 -950 1584 -1140 
Q 1353 -1331 966 -1331 
L 506 -1331 
L 506 -850 
L 844 -850 
Q 1081 -850 1212 -737 
Q 1344 -625 1503 -206 
L 1606 56 
L 191 3500 
L 800 3500 
L 1894 763 
L 2988 3500 
L 3597 3500 
L 2059 -325 
z
" transform="scale(0.015625)"/>
      </defs>
      <use xlink:href="#DejaVuSans-4e"/>
      <use xlink:href="#DejaVuSans-65" transform="translate(74.804688 0)"/>
      <use xlink:href="#DejaVuSans-75" transform="translate(136.328125 0)"/>
      <use xlink:href="#DejaVuSans-72" transform="translate(199.707031 0)"/>
      <use xlink:href="#DejaVuSans-61" transform="translate(240.820312 0)"/>
      <use xlink:href="#DejaVuSans-6c" transform="translate(302.099609 0)"/>
      <use xlink:href="#DejaVuSans-20" transform="translate(329.882812 0)"/>
      <use xlink:href="#DejaVuSans-41" transform="translate(361.669922 0)"/>
      <use xlink:href="#DejaVuSans-63" transform="translate(428.328125 0)"/>
      <use xlink:href="#DejaVuSans-74" transform="translate(483.308594 0)"/>
      <use xlink:href="#DejaVuSans-69" transform="translate(522.517578 0)"/>
      <use xlink:href="#DejaVuSans-76" transform="translate(550.300781 0)"/>
      <use xlink:href="#DejaVuSans-69" transform="translate(609.480469 0)"/>
      <use xlink:href="#DejaVuSans-74" transform="translate(637.263672 0)"/>
      <use xlink:href="#DejaVuSans-79" transform="translate(676.472656 0)"/>
     </g>
    </g>
   </g>
   <g id="line2d_10">
    <path d="M 122.67236 248.295601 
L 124.929438 257.897609 
L 127.186517 266.130132 
L 128.691236 270.955306 
L 129.443596 263.69507 
L 131.700674 271.100728 
L 133.957753 277.450154 
L 135.462472 281.171624 
L 136.214831 260.745284 
L 136.967191 247.478464 
L 137.719551 243.328913 
L 139.976629 253.639299 
L 142.233708 262.479162 
L 144.490787 270.058239 
L 146.747865 276.556351 
L 147.500225 275.325536 
L 149.757303 281.072403 
L 152.014382 285.999619 
L 154.271461 290.224091 
L 155.77618 292.700099 
L 156.528539 287.521643 
L 158.785618 291.529035 
L 161.042697 294.964876 
L 163.299775 297.910678 
L 164.804494 299.637245 
L 165.556854 290.708091 
L 166.309213 277.029482 
L 167.061573 278.958959 
L 167.813933 272.41213 
L 168.566292 274.572478 
L 169.318652 262.837585 
L 170.071011 254.242194 
L 170.823371 224.410811 
L 173.080449 237.419387 
L 173.832809 232.396153 
L 174.585169 236.557298 
L 175.337528 239.027568 
L 176.089888 229.927404 
L 178.346966 242.149174 
L 180.604045 252.627821 
L 182.861124 261.611946 
L 185.118202 269.31471 
L 185.870562 268.17926 
L 186.622921 265.462845 
L 188.88 272.616374 
L 191.137079 278.749634 
L 193.394157 284.008135 
L 195.651236 288.516643 
L 197.908315 292.382124 
L 200.165393 295.69629 
L 202.422472 298.537775 
L 204.679551 300.973993 
L 206.936629 303.062745 
L 209.193708 304.853589 
L 211.450787 306.389015 
L 213.707865 307.705449 
L 216.717303 309.173374 
L 219.726742 310.369008 
L 222.73618 311.342859 
L 226.497978 312.310216 
L 230.259775 313.058738 
L 234.773933 313.736987 
L 240.040449 314.304736 
L 246.811685 314.790706 
L 255.08764 315.147889 
L 266.373034 315.400767 
L 276.153708 315.506998 
L 276.906067 282.063832 
L 279.163146 286.849646 
L 279.915506 283.616575 
L 282.172584 288.18093 
L 284.429663 292.094293 
L 285.182022 284.152361 
L 286.686742 287.220363 
L 287.439101 285.876325 
L 288.191461 278.250779 
L 288.94382 263.079446 
L 289.69618 265.706427 
L 290.448539 264.535703 
L 292.705618 271.821466 
L 294.962697 278.068093 
L 297.219775 283.423801 
L 297.972135 285.033564 
L 298.724494 275.822738 
L 299.476854 277.812554 
L 300.229213 250.89143 
L 300.981573 231.872123 
L 301.733933 229.054407 
L 303.238652 237.494456 
L 303.991011 227.925696 
L 306.24809 240.43296 
L 307.000449 232.12898 
L 307.752809 208.839093 
L 308.505169 172.647427 
L 309.257528 156.407407 
L 310.009888 164.367995 
L 310.762247 164.500078 
L 311.514607 152.239029 
L 313.771685 175.541113 
L 316.028764 195.519738 
L 318.285843 212.64891 
L 319.790562 222.688498 
L 320.542921 205.004814 
L 321.295281 197.509335 
L 323.55236 214.35474 
L 324.304719 219.417957 
L 325.057079 221.856309 
L 326.561798 230.998181 
L 327.314157 221.35778 
L 329.571236 234.801797 
L 331.828315 246.328362 
L 334.085393 256.21095 
L 335.590112 262.00324 
L 336.342472 239.16879 
L 337.094831 241.036198 
L 338.599551 248.30803 
L 339.35191 225.44664 
L 340.10427 221.258559 
L 342.361348 234.716731 
L 343.113708 238.761847 
L 343.866067 236.57318 
L 346.123146 247.8471 
L 348.380225 257.51308 
L 350.637303 265.800448 
L 352.894382 272.905827 
L 353.646742 275.041491 
L 354.399101 255.520193 
L 355.151461 223.637199 
L 355.90382 205.870458 
L 358.160899 221.523361 
L 360.417978 234.943758 
L 362.675056 246.450082 
L 364.932135 256.315308 
L 367.189213 264.773505 
L 369.446292 272.025354 
L 371.703371 278.242907 
L 373.20809 281.887084 
L 373.960449 276.4083 
L 376.217528 282.000737 
L 378.474607 286.79555 
L 380.731685 290.906503 
L 381.484045 292.142132 
L 382.236404 278.10418 
L 382.988764 278.398095 
L 385.245843 283.706737 
L 387.502921 288.258232 
L 389.76 292.160571 
L 392.017079 295.506336 
L 394.274157 298.374914 
L 396.531236 300.83436 
L 398.788315 302.943028 
L 401.045393 304.750946 
L 402.550112 305.810587 
L 403.302472 275.979597 
L 404.054831 277.961571 
L 404.807191 265.856844 
L 407.816629 274.98068 
L 408.568989 260.163196 
L 410.826067 268.072588 
L 413.083146 274.853905 
L 415.340225 280.668036 
L 416.844944 284.075761 
L 417.597303 278.578063 
L 419.854382 283.861036 
L 420.606742 285.448938 
L 421.359101 273.917001 
L 422.111461 276.002104 
L 422.111461 276.002104 
" clip-path="url(#p64dec58ed0)" style="fill: none; stroke: #000000; stroke-width: 5; stroke-linecap: square"/>
   </g>
   <g id="line2d_11">
    <path d="M 122.67236 259.196136 
L 124.929438 267.243456 
L 127.186517 274.143032 
L 129.443596 280.058551 
L 131.700674 285.13037 
L 132.453034 286.654805 
L 133.205393 283.032082 
L 135.462472 287.679798 
L 136.214831 262.90093 
L 136.967191 263.766372 
L 137.719551 206.14177 
L 138.47191 194.188092 
L 139.22427 187.252313 
L 139.976629 168.259992 
L 140.728989 123.882412 
L 141.481348 63.644434 
L 143.738427 99.582326 
L 145.995506 130.394585 
L 148.252584 156.812229 
L 150.509663 179.462065 
L 152.766742 198.881461 
L 153.519101 195.371885 
L 154.271461 188.427981 
L 155.02382 194.787534 
L 155.77618 192.968198 
L 156.528539 198.671544 
L 157.280899 202.596901 
L 159.537978 218.716682 
L 161.795056 232.537392 
L 162.547416 188.815178 
L 163.299775 160.623386 
L 164.052135 168.37318 
L 164.804494 155.058059 
L 165.556854 163.086105 
L 166.309213 157.393745 
L 167.061573 165.305014 
L 167.813933 153.893565 
L 169.318652 169.661803 
L 170.071011 115.033214 
L 171.57573 134.590328 
L 172.32809 139.304956 
L 174.585169 164.451756 
L 176.842247 186.011995 
L 177.594607 185.496099 
L 178.346966 150.974249 
L 180.604045 174.45673 
L 182.861124 194.590019 
L 185.118202 211.851789 
L 185.870562 198.14358 
L 188.12764 214.898525 
L 189.63236 224.612758 
L 191.889438 237.592535 
L 192.641798 241.49386 
L 193.394157 217.07046 
L 194.898876 225.9991 
L 195.651236 230.480095 
L 196.403596 217.584381 
L 197.155955 222.486113 
L 197.908315 222.307125 
L 200.165393 235.615752 
L 202.422472 247.026226 
L 204.679551 256.80928 
L 205.43191 254.076102 
L 206.18427 257.153252 
L 206.936629 249.515443 
L 207.688989 205.108055 
L 208.441348 171.274338 
L 209.193708 119.734133 
L 211.450787 147.67222 
L 213.707865 171.625641 
L 215.964944 192.162704 
L 217.469663 204.199697 
L 218.222022 198.043792 
L 218.974382 170.288412 
L 219.726742 154.84182 
L 221.98382 177.772682 
L 224.240899 197.433021 
L 226.497978 214.289308 
L 228.755056 228.741463 
L 229.507416 227.451663 
L 231.764494 240.02654 
L 234.021573 250.807923 
L 234.773933 219.923675 
L 237.031011 233.572233 
L 237.783371 232.003253 
L 238.53573 205.880224 
L 239.28809 211.367166 
L 240.040449 214.425909 
L 243.049888 232.949067 
L 245.306966 244.739876 
L 246.059326 223.404143 
L 247.564045 232.395096 
L 249.821124 244.146235 
L 250.573483 247.719878 
L 251.325843 226.487622 
L 252.078202 217.774432 
L 254.335281 231.729526 
L 256.59236 243.694272 
L 257.344719 247.290513 
L 258.097079 216.880839 
L 258.849438 212.293407 
L 261.106517 227.03023 
L 262.611236 235.667648 
L 264.115955 242.915236 
L 266.373034 253.284621 
L 268.630112 262.175073 
L 269.382472 264.847272 
L 270.134831 248.892574 
L 272.39191 258.409443 
L 273.14427 261.269923 
L 273.896629 260.55896 
L 276.153708 268.411909 
L 276.906067 270.772268 
L 277.658427 269.858709 
L 279.915506 276.385282 
L 280.667865 278.346973 
L 281.420225 274.210332 
L 282.172584 240.389653 
L 282.924944 198.932103 
L 284.429663 210.309083 
L 285.182022 163.655717 
L 285.934382 143.399914 
L 288.191461 167.962672 
L 290.448539 189.022175 
L 292.705618 207.078052 
L 294.210337 217.660798 
L 294.962697 189.52986 
L 295.715056 177.955544 
L 296.467416 149.219289 
L 298.724494 172.952057 
L 299.476854 180.08541 
L 300.229213 176.389038 
L 302.486292 196.246728 
L 304.743371 213.272204 
L 307.000449 227.869429 
L 307.752809 214.969394 
L 308.505169 188.375828 
L 309.257528 144.600653 
L 310.009888 143.361091 
L 312.266966 167.929381 
L 313.019326 175.313862 
L 314.524045 188.012157 
L 316.028764 200.116978 
L 316.781124 190.227982 
L 318.285843 202.453618 
L 319.038202 202.873367 
L 321.295281 218.953724 
L 322.04764 223.786993 
L 322.8 212.89199 
L 323.55236 218.028343 
L 324.304719 184.101005 
L 325.057079 176.291371 
L 327.314157 196.162984 
L 328.818876 207.809955 
L 329.571236 186.017947 
L 330.323596 149.699798 
L 332.580674 173.364033 
L 334.837753 193.653154 
L 337.094831 211.048545 
L 339.35191 225.962914 
L 340.10427 230.445722 
L 340.856629 203.106433 
L 342.361348 214.07641 
L 343.113708 216.013459 
L 344.618427 225.725004 
L 345.370787 202.445613 
L 347.627865 218.586978 
L 349.132584 228.04761 
L 349.884944 189.52919 
L 350.637303 141.879763 
L 351.389663 145.2537 
L 352.142022 145.22673 
L 352.894382 132.382138 
L 354.399101 150.247731 
L 355.151461 152.055051 
L 357.408539 175.383374 
L 359.665618 195.384485 
L 361.922697 212.53294 
L 364.179775 227.235596 
L 366.436854 239.841291 
L 367.941573 247.229625 
L 368.693933 234.504932 
L 369.446292 224.430412 
L 371.703371 237.436187 
L 373.960449 248.587021 
L 375.465169 255.122646 
L 376.217528 253.633828 
L 378.474607 262.474472 
L 380.731685 270.054219 
L 382.988764 276.552907 
L 385.245843 282.124716 
L 387.502921 286.901847 
L 389.00764 289.701774 
L 389.76 285.769277 
L 392.017079 290.026603 
L 392.769438 291.306225 
L 393.521798 277.934301 
L 395.778876 283.309089 
L 397.283596 286.459313 
L 398.035955 268.44487 
L 398.788315 262.567497 
L 399.540674 224.510668 
L 401.797753 237.505003 
L 404.054831 248.646024 
L 406.31191 258.198052 
L 407.816629 263.796602 
L 408.568989 259.556754 
L 409.321348 256.217542 
L 411.578427 264.689684 
L 412.330787 200.712366 
L 413.083146 201.377412 
L 415.340225 217.671122 
L 417.597303 231.640947 
L 418.349663 225.913552 
L 420.606742 238.707795 
L 422.111461 246.206645 
L 422.111461 246.206645 
" clip-path="url(#p64dec58ed0)" style="fill: none; stroke: #ff0000; stroke-width: 5; stroke-linecap: square"/>
   </g>
   <g id="patch_3">
    <path d="M 121.92 336.640156 
L 121.92 31.720156 
" style="fill: none; stroke: #000000; stroke-width: 5; stroke-linejoin: miter; stroke-linecap: square"/>
   </g>
   <g id="patch_4">
    <path d="M 121.92 336.640156 
L 422.86382 336.640156 
" style="fill: none; stroke: #000000; stroke-width: 5; stroke-linejoin: miter; stroke-linecap: square"/>
   </g>
   <g id="text_12">
    <!-- A -->
    <g transform="translate(85.806742 16.444681) scale(0.12 -0.12)">
     <defs>
      <path id="DejaVuSans-Bold-41" d="M 3419 850 
L 1538 850 
L 1241 0 
L 31 0 
L 1759 4666 
L 3194 4666 
L 4922 0 
L 3713 0 
L 3419 850 
z
M 1838 1716 
L 3116 1716 
L 2478 3572 
L 1838 1716 
z
" transform="scale(0.015625)"/>
     </defs>
     <use xlink:href="#DejaVuSans-Bold-41"/>
    </g>
   </g>
   <g id="patch_5">
    <path d="M 197.155955 330.541756 
L 272.39191 330.541756 
L 272.39191 319.869556 
L 197.155955 319.869556 
z
" style="fill: #8c5a2b; stroke: #8c5a2b; stroke-linejoin: miter"/>
   </g>
   <g id="text_13">
    <!-- Familiar | Naive -->
    <g transform="translate(198.799566 21.720156) scale(0.19 -0.19)">
     <defs>
      <path id="DejaVuSans-46" d="M 628 4666 
L 3309 4666 
L 3309 4134 
L 1259 4134 
L 1259 2759 
L 3109 2759 
L 3109 2228 
L 1259 2228 
L 1259 0 
L 628 0 
L 628 4666 
z
" transform="scale(0.015625)"/>
      <path id="DejaVuSans-7c" d="M 1344 4891 
L 1344 -1509 
L 813 -1509 
L 813 4891 
L 1344 4891 
z
" transform="scale(0.015625)"/>
     </defs>
     <use xlink:href="#DejaVuSans-46"/>
     <use xlink:href="#DejaVuSans-61" transform="translate(48.394531 0)"/>
     <use xlink:href="#DejaVuSans-6d" transform="translate(109.673828 0)"/>
     <use xlink:href="#DejaVuSans-69" transform="translate(207.085938 0)"/>
     <use xlink:href="#DejaVuSans-6c" transform="translate(234.869141 0)"/>
     <use xlink:href="#DejaVuSans-69" transform="translate(262.652344 0)"/>
     <use xlink:href="#DejaVuSans-61" transform="translate(290.435547 0)"/>
     <use xlink:href="#DejaVuSans-72" transform="translate(351.714844 0)"/>
     <use xlink:href="#DejaVuSans-20" transform="translate(392.828125 0)"/>
     <use xlink:href="#DejaVuSans-7c" transform="translate(424.615234 0)"/>
     <use xlink:href="#DejaVuSans-20" transform="translate(458.306641 0)"/>
     <use xlink:href="#DejaVuSans-4e" transform="translate(490.09375 0)"/>
     <use xlink:href="#DejaVuSans-61" transform="translate(564.898438 0)"/>
     <use xlink:href="#DejaVuSans-69" transform="translate(626.177734 0)"/>
     <use xlink:href="#DejaVuSans-76" transform="translate(653.960938 0)"/>
     <use xlink:href="#DejaVuSans-65" transform="translate(713.140625 0)"/>
    </g>
   </g>
   <g id="legend_1">
    <g id="line2d_12">
     <path d="M 130.92 46.867813 
L 145.92 46.867813 
L 160.92 46.867813 
" style="fill: none; stroke: #000000; stroke-width: 5; stroke-linecap: square"/>
    </g>
    <g id="text_14">
     <!-- Nonoccluded (NO) -->
     <g transform="translate(172.92 52.117813) scale(0.15 -0.15)">
      <defs>
       <path id="DejaVuSans-6f" d="M 1959 3097 
Q 1497 3097 1228 2736 
Q 959 2375 959 1747 
Q 959 1119 1226 758 
Q 1494 397 1959 397 
Q 2419 397 2687 759 
Q 2956 1122 2956 1747 
Q 2956 2369 2687 2733 
Q 2419 3097 1959 3097 
z
M 1959 3584 
Q 2709 3584 3137 3096 
Q 3566 2609 3566 1747 
Q 3566 888 3137 398 
Q 2709 -91 1959 -91 
Q 1206 -91 779 398 
Q 353 888 353 1747 
Q 353 2609 779 3096 
Q 1206 3584 1959 3584 
z
" transform="scale(0.015625)"/>
       <path id="DejaVuSans-6e" d="M 3513 2113 
L 3513 0 
L 2938 0 
L 2938 2094 
Q 2938 2591 2744 2837 
Q 2550 3084 2163 3084 
Q 1697 3084 1428 2787 
Q 1159 2491 1159 1978 
L 1159 0 
L 581 0 
L 581 3500 
L 1159 3500 
L 1159 2956 
Q 1366 3272 1645 3428 
Q 1925 3584 2291 3584 
Q 2894 3584 3203 3211 
Q 3513 2838 3513 2113 
z
" transform="scale(0.015625)"/>
       <path id="DejaVuSans-64" d="M 2906 2969 
L 2906 4863 
L 3481 4863 
L 3481 0 
L 2906 0 
L 2906 525 
Q 2725 213 2448 61 
Q 2172 -91 1784 -91 
Q 1150 -91 751 415 
Q 353 922 353 1747 
Q 353 2572 751 3078 
Q 1150 3584 1784 3584 
Q 2172 3584 2448 3432 
Q 2725 3281 2906 2969 
z
M 947 1747 
Q 947 1113 1208 752 
Q 1469 391 1925 391 
Q 2381 391 2643 752 
Q 2906 1113 2906 1747 
Q 2906 2381 2643 2742 
Q 2381 3103 1925 3103 
Q 1469 3103 1208 2742 
Q 947 2381 947 1747 
z
" transform="scale(0.015625)"/>
       <path id="DejaVuSans-4f" d="M 2522 4238 
Q 1834 4238 1429 3725 
Q 1025 3213 1025 2328 
Q 1025 1447 1429 934 
Q 1834 422 2522 422 
Q 3209 422 3611 934 
Q 4013 1447 4013 2328 
Q 4013 3213 3611 3725 
Q 3209 4238 2522 4238 
z
M 2522 4750 
Q 3503 4750 4090 4092 
Q 4678 3434 4678 2328 
Q 4678 1225 4090 567 
Q 3503 -91 2522 -91 
Q 1538 -91 948 565 
Q 359 1222 359 2328 
Q 359 3434 948 4092 
Q 1538 4750 2522 4750 
z
" transform="scale(0.015625)"/>
      </defs>
      <use xlink:href="#DejaVuSans-4e"/>
      <use xlink:href="#DejaVuSans-6f" transform="translate(74.804688 0)"/>
      <use xlink:href="#DejaVuSans-6e" transform="translate(135.986328 0)"/>
      <use xlink:href="#DejaVuSans-6f" transform="translate(199.365234 0)"/>
      <use xlink:href="#DejaVuSans-63" transform="translate(260.546875 0)"/>
      <use xlink:href="#DejaVuSans-63" transform="translate(315.527344 0)"/>
      <use xlink:href="#DejaVuSans-6c" transform="translate(370.507812 0)"/>
      <use xlink:href="#DejaVuSans-75" transform="translate(398.291016 0)"/>
      <use xlink:href="#DejaVuSans-64" transform="translate(461.669922 0)"/>
      <use xlink:href="#DejaVuSans-65" transform="translate(525.146484 0)"/>
      <use xlink:href="#DejaVuSans-64" transform="translate(586.669922 0)"/>
      <use xlink:href="#DejaVuSans-20" transform="translate(650.146484 0)"/>
      <use xlink:href="#DejaVuSans-28" transform="translate(681.933594 0)"/>
      <use xlink:href="#DejaVuSans-4e" transform="translate(720.947266 0)"/>
      <use xlink:href="#DejaVuSans-4f" transform="translate(795.751953 0)"/>
      <use xlink:href="#DejaVuSans-29" transform="translate(874.462891 0)"/>
     </g>
    </g>
    <g id="line2d_13">
     <path d="M 130.92 68.885 
L 145.92 68.885 
L 160.92 68.885 
" style="fill: none; stroke: #ff0000; stroke-width: 5; stroke-linecap: square"/>
    </g>
    <g id="text_15">
     <!-- Occluded (O) -->
     <g transform="translate(172.92 74.135) scale(0.15 -0.15)">
      <use xlink:href="#DejaVuSans-4f"/>
      <use xlink:href="#DejaVuSans-63" transform="translate(78.710938 0)"/>
      <use xlink:href="#DejaVuSans-63" transform="translate(133.691406 0)"/>
      <use xlink:href="#DejaVuSans-6c" transform="translate(188.671875 0)"/>
      <use xlink:href="#DejaVuSans-75" transform="translate(216.455078 0)"/>
      <use xlink:href="#DejaVuSans-64" transform="translate(279.833984 0)"/>
      <use xlink:href="#DejaVuSans-65" transform="translate(343.310547 0)"/>
      <use xlink:href="#DejaVuSans-64" transform="translate(404.833984 0)"/>
      <use xlink:href="#DejaVuSans-20" transform="translate(468.310547 0)"/>
      <use xlink:href="#DejaVuSans-28" transform="translate(500.097656 0)"/>
      <use xlink:href="#DejaVuSans-4f" transform="translate(539.111328 0)"/>
      <use xlink:href="#DejaVuSans-29" transform="translate(617.822266 0)"/>
     </g>
    </g>
    <g id="line2d_14">
     <path d="M 130.92 90.902188 
L 145.92 90.902188 
L 160.92 90.902188 
" style="fill: none; stroke: #0000ff; stroke-width: 5; stroke-linecap: square"/>
    </g>
    <g id="text_16">
     <!-- No feedback -->
     <g transform="translate(172.92 96.152188) scale(0.15 -0.15)">
      <defs>
       <path id="DejaVuSans-66" d="M 2375 4863 
L 2375 4384 
L 1825 4384 
Q 1516 4384 1395 4259 
Q 1275 4134 1275 3809 
L 1275 3500 
L 2222 3500 
L 2222 3053 
L 1275 3053 
L 1275 0 
L 697 0 
L 697 3053 
L 147 3053 
L 147 3500 
L 697 3500 
L 697 3744 
Q 697 4328 969 4595 
Q 1241 4863 1831 4863 
L 2375 4863 
z
" transform="scale(0.015625)"/>
       <path id="DejaVuSans-62" d="M 3116 1747 
Q 3116 2381 2855 2742 
Q 2594 3103 2138 3103 
Q 1681 3103 1420 2742 
Q 1159 2381 1159 1747 
Q 1159 1113 1420 752 
Q 1681 391 2138 391 
Q 2594 391 2855 752 
Q 3116 1113 3116 1747 
z
M 1159 2969 
Q 1341 3281 1617 3432 
Q 1894 3584 2278 3584 
Q 2916 3584 3314 3078 
Q 3713 2572 3713 1747 
Q 3713 922 3314 415 
Q 2916 -91 2278 -91 
Q 1894 -91 1617 61 
Q 1341 213 1159 525 
L 1159 0 
L 581 0 
L 581 4863 
L 1159 4863 
L 1159 2969 
z
" transform="scale(0.015625)"/>
       <path id="DejaVuSans-6b" d="M 581 4863 
L 1159 4863 
L 1159 1991 
L 2875 3500 
L 3609 3500 
L 1753 1863 
L 3688 0 
L 2938 0 
L 1159 1709 
L 1159 0 
L 581 0 
L 581 4863 
z
" transform="scale(0.015625)"/>
      </defs>
      <use xlink:href="#DejaVuSans-4e"/>
      <use xlink:href="#DejaVuSans-6f" transform="translate(74.804688 0)"/>
      <use xlink:href="#DejaVuSans-20" transform="translate(135.986328 0)"/>
      <use xlink:href="#DejaVuSans-66" transform="translate(167.773438 0)"/>
      <use xlink:href="#DejaVuSans-65" transform="translate(202.978516 0)"/>
      <use xlink:href="#DejaVuSans-65" transform="translate(264.501953 0)"/>
      <use xlink:href="#DejaVuSans-64" transform="translate(326.025391 0)"/>
      <use xlink:href="#DejaVuSans-62" transform="translate(389.501953 0)"/>
      <use xlink:href="#DejaVuSans-61" transform="translate(452.978516 0)"/>
      <use xlink:href="#DejaVuSans-63" transform="translate(514.257812 0)"/>
      <use xlink:href="#DejaVuSans-6b" transform="translate(569.238281 0)"/>
     </g>
    </g>
   </g>
  </g>
  <g id="axes_2">
   <g id="patch_6">
    <path d="M 468.005393 336.640156 
L 768.949213 336.640156 
L 768.949213 31.720156 
L 468.005393 31.720156 
z
" style="fill: #ffffff"/>
   </g>
   <g id="matplotlib.axis_3">
    <g id="xtick_6">
     <g id="line2d_15">
      <g>
       <use xlink:href="#mdd91540a17" x="468.005393" y="336.640156" style="stroke: #000000; stroke-width: 1.6"/>
      </g>
     </g>
     <g id="text_17">
      <!-- -1 -->
      <g transform="translate(452.052893 369.455156) scale(0.32 -0.32)">
       <use xlink:href="#DejaVuSans-2d"/>
       <use xlink:href="#DejaVuSans-31" transform="translate(36.083984 0)"/>
      </g>
     </g>
    </g>
    <g id="xtick_7">
     <g id="line2d_16">
      <g>
       <use xlink:href="#mdd91540a17" x="543.241348" y="336.640156" style="stroke: #000000; stroke-width: 1.6"/>
      </g>
     </g>
     <g id="text_18">
      <!-- 0 -->
      <g transform="translate(533.061348 369.455156) scale(0.32 -0.32)">
       <use xlink:href="#DejaVuSans-30"/>
      </g>
     </g>
    </g>
    <g id="xtick_8">
     <g id="line2d_17">
      <g>
       <use xlink:href="#mdd91540a17" x="618.477303" y="336.640156" style="stroke: #000000; stroke-width: 1.6"/>
      </g>
     </g>
     <g id="text_19">
      <!-- 1 -->
      <g transform="translate(608.297303 369.455156) scale(0.32 -0.32)">
       <use xlink:href="#DejaVuSans-31"/>
      </g>
     </g>
    </g>
    <g id="xtick_9">
     <g id="line2d_18">
      <g>
       <use xlink:href="#mdd91540a17" x="693.713258" y="336.640156" style="stroke: #000000; stroke-width: 1.6"/>
      </g>
     </g>
     <g id="text_20">
      <!-- 2 -->
      <g transform="translate(683.533258 369.455156) scale(0.32 -0.32)">
       <use xlink:href="#DejaVuSans-32"/>
      </g>
     </g>
    </g>
    <g id="xtick_10">
     <g id="line2d_19">
      <g>
       <use xlink:href="#mdd91540a17" x="768.949213" y="336.640156" style="stroke: #000000; stroke-width: 1.6"/>
      </g>
     </g>
     <g id="text_21">
      <!-- 3 -->
      <g transform="translate(758.769213 369.455156) scale(0.32 -0.32)">
       <use xlink:href="#DejaVuSans-33"/>
      </g>
     </g>
    </g>
    <g id="text_22">
     <!-- Time (s) -->
     <g transform="translate(553.424803 404.425156) scale(0.32 -0.32)">
      <use xlink:href="#DejaVuSans-54"/>
      <use xlink:href="#DejaVuSans-69" transform="translate(57.958984 0)"/>
      <use xlink:href="#DejaVuSans-6d" transform="translate(85.742188 0)"/>
      <use xlink:href="#DejaVuSans-65" transform="translate(183.154297 0)"/>
      <use xlink:href="#DejaVuSans-20" transform="translate(244.677734 0)"/>
      <use xlink:href="#DejaVuSans-28" transform="translate(276.464844 0)"/>
      <use xlink:href="#DejaVuSans-73" transform="translate(315.478516 0)"/>
      <use xlink:href="#DejaVuSans-29" transform="translate(367.578125 0)"/>
     </g>
    </g>
   </g>
   <g id="matplotlib.axis_4">
    <g id="ytick_5">
     <g id="line2d_20">
      <g>
       <use xlink:href="#m901a3e8f14" x="468.005393" y="315.619053" style="stroke: #000000; stroke-width: 1.6"/>
      </g>
     </g>
    </g>
    <g id="ytick_6">
     <g id="line2d_21">
      <g>
       <use xlink:href="#m901a3e8f14" x="468.005393" y="223.394254" style="stroke: #000000; stroke-width: 1.6"/>
      </g>
     </g>
    </g>
    <g id="ytick_7">
     <g id="line2d_22">
      <g>
       <use xlink:href="#m901a3e8f14" x="468.005393" y="131.169455" style="stroke: #000000; stroke-width: 1.6"/>
      </g>
     </g>
    </g>
    <g id="ytick_8">
     <g id="line2d_23">
      <g>
       <use xlink:href="#m901a3e8f14" x="468.005393" y="38.944657" style="stroke: #000000; stroke-width: 1.6"/>
      </g>
     </g>
    </g>
   </g>
   <g id="line2d_24">
    <path d="M 468.757753 307.591682 
L 471.767191 309.08071 
L 474.776629 310.293533 
L 476.281348 310.812771 
L 477.033708 283.360999 
L 479.290787 287.961804 
L 481.547865 291.906421 
L 483.804944 295.288434 
L 486.062022 298.18809 
L 488.319101 300.674181 
L 490.57618 302.805694 
L 492.833258 304.6332 
L 494.337978 305.70432 
L 495.090337 305.714604 
L 497.347416 307.127227 
L 500.356854 308.702408 
L 503.366292 309.985403 
L 506.37573 311.03041 
L 510.137528 312.068449 
L 513.899326 312.871663 
L 518.413483 313.599469 
L 522.175281 314.056338 
L 522.92764 286.792525 
L 525.184719 290.90391 
L 527.441798 294.428908 
L 529.698876 297.451151 
L 531.955955 300.042349 
L 534.213034 302.263976 
L 536.470112 304.168745 
L 538.727191 305.801846 
L 540.98427 307.202026 
L 543.993708 308.763332 
L 547.003146 310.035026 
L 550.012584 311.070828 
L 553.774382 312.099724 
L 557.53618 312.895863 
L 562.050337 313.617259 
L 567.316854 314.221126 
L 573.33573 314.69164 
L 581.611685 315.091541 
L 592.144719 315.361799 
L 608.696629 315.535823 
L 641.800449 315.610341 
L 643.305169 315.611191 
L 644.057528 304.022198 
L 644.809888 284.949528 
L 645.562247 178.802086 
L 646.314607 127.233039 
L 647.066966 113.423581 
L 647.819326 91.996688 
L 650.076404 123.89083 
L 652.333483 151.23608 
L 653.838202 167.263433 
L 654.590562 156.112234 
L 656.84764 178.861901 
L 659.104719 198.366897 
L 661.361798 215.089993 
L 662.114157 220.116448 
L 662.866517 192.97817 
L 663.618876 199.110215 
L 664.371236 170.862903 
L 665.123596 175.098104 
L 666.628315 188.714118 
L 668.885393 206.813945 
L 671.142472 222.332283 
L 673.399551 235.637302 
L 675.656629 247.044697 
L 677.913708 256.825118 
L 680.170787 265.210604 
L 680.923146 265.406904 
L 683.180225 272.568413 
L 685.437303 278.708514 
L 687.694382 283.972881 
L 689.199101 287.058383 
L 689.951461 276.45755 
L 692.208539 282.042961 
L 692.960899 283.721765 
L 693.713258 277.493181 
L 694.465618 265.32383 
L 696.722697 272.497188 
L 698.979775 278.647445 
L 701.236854 283.920522 
L 703.493933 288.441527 
L 705.751011 292.317723 
L 708.00809 295.641077 
L 708.760449 296.639977 
L 709.512809 275.487506 
L 710.265169 277.494083 
L 711.017528 268.924683 
L 713.274607 275.584468 
L 715.531685 281.294403 
L 717.788764 286.189958 
L 720.045843 290.387284 
L 722.302921 293.985966 
L 724.56 297.071384 
L 726.817079 299.716747 
L 727.569438 300.511862 
L 728.321798 289.436901 
L 730.578876 293.171132 
L 732.835955 296.372768 
L 735.093034 299.117769 
L 735.845393 287.346752 
L 738.102472 291.379089 
L 739.607191 293.742486 
L 740.359551 282.228681 
L 742.616629 286.990984 
L 744.873708 291.074064 
L 747.130787 294.574794 
L 749.387865 297.57623 
L 751.644944 300.149589 
L 753.902022 302.355923 
L 756.159101 304.247577 
L 758.41618 305.869434 
L 759.920899 306.820022 
L 760.673258 282.28049 
L 762.930337 287.035403 
L 765.187416 291.112148 
L 765.939775 292.337493 
L 766.692135 278.101277 
L 767.444494 212.213545 
L 768.196854 195.788731 
L 768.196854 195.788731 
" clip-path="url(#p7fb9fedf51)" style="fill: none; stroke: #000000; stroke-width: 5; stroke-linecap: square"/>
   </g>
   <g id="line2d_25">
    <path d="M 468.757753 193.235388 
L 470.262472 205.1678 
L 471.014831 203.913413 
L 471.767191 209.498693 
L 472.519551 180.432187 
L 473.27191 176.682132 
L 475.528989 196.498019 
L 477.033708 208.112326 
L 477.786067 199.909482 
L 478.538427 161.431191 
L 480.043146 126.54914 
L 482.300225 153.515233 
L 484.557303 176.635288 
L 486.814382 196.457848 
L 489.071461 213.453219 
L 489.82382 218.561511 
L 490.57618 216.869389 
L 492.833258 230.953561 
L 495.090337 243.028982 
L 495.842697 246.658488 
L 496.595056 191.662053 
L 498.852135 209.341426 
L 500.356854 219.703493 
L 501.109213 213.369544 
L 502.613933 223.338874 
L 503.366292 216.649852 
L 504.118652 221.598309 
L 505.623371 136.651232 
L 506.37573 130.227922 
L 508.632809 156.66934 
L 509.385169 162.732028 
L 511.642247 184.537546 
L 513.146966 196.900702 
L 515.404045 213.832918 
L 516.908764 223.757069 
L 517.661124 215.8598 
L 519.918202 230.087968 
L 522.175281 242.28684 
L 524.43236 252.745848 
L 525.937079 258.875986 
L 526.689438 258.023418 
L 527.441798 251.943437 
L 528.194157 234.708846 
L 528.946517 236.90453 
L 529.698876 240.840255 
L 530.451236 216.721682 
L 531.203596 161.521428 
L 533.460674 183.499613 
L 534.213034 180.248543 
L 534.965393 187.017066 
L 536.470112 120.544841 
L 537.222472 74.223084 
L 539.479551 108.652197 
L 541.736629 138.17085 
L 543.993708 163.4794 
L 545.498427 178.313023 
L 546.250787 161.016836 
L 547.003146 134.880674 
L 547.755506 85.731503 
L 548.507865 97.225889 
L 549.260225 95.634173 
L 550.012584 90.932944 
L 551.517303 112.839848 
L 552.269663 112.642849 
L 553.022022 91.304853 
L 555.279101 123.297666 
L 557.53618 150.727502 
L 558.288539 131.505397 
L 560.545618 157.764623 
L 562.802697 180.278614 
L 565.059775 199.581542 
L 565.812135 185.859461 
L 568.069213 204.366429 
L 569.573933 215.213556 
L 570.326292 218.518291 
L 571.831011 227.985622 
L 572.583371 217.943371 
L 574.840449 231.874364 
L 577.097528 243.818454 
L 579.354607 254.059019 
L 581.611685 262.83902 
L 583.868764 270.366772 
L 586.125843 276.820878 
L 588.382921 282.35447 
L 589.135281 258.973403 
L 589.88764 251.385716 
L 590.64 250.444659 
L 592.897079 259.740157 
L 594.401798 265.18835 
L 595.154157 235.409021 
L 595.906517 235.135759 
L 596.658876 227.811993 
L 597.411236 217.951917 
L 598.163596 189.732769 
L 598.915955 166.183233 
L 599.668315 153.446039 
L 600.420674 154.542404 
L 601.925393 170.210784 
L 603.430112 184.388096 
L 604.182472 157.771907 
L 604.934831 161.407777 
L 606.439551 176.443373 
L 607.19191 169.292093 
L 607.94427 170.461259 
L 608.696629 175.334219 
L 610.953708 195.342347 
L 613.210787 212.496814 
L 615.467865 227.204632 
L 616.220225 193.392174 
L 618.477303 210.82479 
L 620.734382 225.771076 
L 622.991461 238.58565 
L 623.74382 215.464547 
L 624.49618 205.62164 
L 626.753258 221.310025 
L 627.505618 226.025477 
L 628.257978 178.526539 
L 629.010337 162.079102 
L 629.762697 162.319098 
L 630.515056 139.144305 
L 631.267416 99.395874 
L 632.019775 87.894549 
L 634.276854 120.373764 
L 636.533933 148.220634 
L 638.791011 172.095852 
L 640.29573 185.558318 
L 641.04809 188.321115 
L 641.800449 181.430137 
L 642.552809 179.97498 
L 644.809888 199.321223 
L 647.066966 215.908208 
L 647.819326 207.141001 
L 650.076404 222.612691 
L 652.333483 235.877729 
L 653.085843 225.700259 
L 653.838202 230.1962 
L 654.590562 218.737846 
L 655.342921 170.665629 
L 657.6 191.339618 
L 659.857079 209.064977 
L 660.609438 202.891765 
L 661.361798 199.644509 
L 663.618876 216.185379 
L 665.875955 230.367106 
L 668.133034 242.526167 
L 670.390112 252.951046 
L 672.647191 261.889069 
L 674.90427 269.55231 
L 677.161348 276.12258 
L 677.913708 278.097403 
L 678.666067 270.164108 
L 680.923146 276.647125 
L 682.427865 280.446888 
L 683.180225 243.956657 
L 683.932584 216.238966 
L 684.684944 194.383648 
L 685.437303 200.445417 
L 686.189663 204.145654 
L 688.446742 220.044549 
L 690.70382 233.675869 
L 691.45618 237.773026 
L 692.208539 227.861011 
L 692.960899 213.514425 
L 695.217978 228.077105 
L 697.475056 240.562784 
L 699.732135 251.267689 
L 701.989213 260.445803 
L 703.493933 265.825193 
L 704.246292 227.98996 
L 705.751011 194.713856 
L 707.25573 206.502118 
L 708.00809 181.662894 
L 708.760449 177.132597 
L 710.265169 190.439351 
L 711.769888 202.644373 
L 712.522247 181.8341 
L 713.274607 156.210957 
L 714.026966 164.181371 
L 714.779326 168.99345 
L 717.036404 189.905925 
L 719.293483 207.835765 
L 721.550562 223.208363 
L 723.055281 232.21841 
L 723.80764 201.169899 
L 726.064719 217.493207 
L 729.074157 235.371401 
L 730.578876 243.19555 
L 731.331236 244.062809 
L 733.588315 254.26852 
L 735.845393 263.018639 
L 737.350112 268.14718 
L 738.102472 257.615006 
L 739.607191 263.270399 
L 740.359551 255.679336 
L 741.11191 258.676323 
L 741.86427 216.302474 
L 744.121348 230.467512 
L 746.378427 242.612256 
L 748.635506 253.024852 
L 750.892584 261.952354 
L 751.644944 227.406794 
L 752.397303 231.81741 
L 753.149663 220.039894 
L 755.406742 233.671875 
L 757.66382 245.359601 
L 758.41618 221.852092 
L 759.168539 208.751089 
L 759.920899 157.231858 
L 760.673258 159.146301 
L 762.930337 181.46324 
L 764.435056 194.543431 
L 765.187416 184.577529 
L 767.444494 203.267332 
L 768.196854 208.884924 
L 768.196854 208.884924 
" clip-path="url(#p7fb9fedf51)" style="fill: none; stroke: #ff0000; stroke-width: 5; stroke-linecap: square"/>
   </g>
   <g id="patch_7">
    <path d="M 468.005393 336.640156 
L 468.005393 31.720156 
" style="fill: none; stroke: #000000; stroke-width: 5; stroke-linejoin: miter; stroke-linecap: square"/>
   </g>
   <g id="patch_8">
    <path d="M 468.005393 336.640156 
L 768.949213 336.640156 
" style="fill: none; stroke: #000000; stroke-width: 5; stroke-linejoin: miter; stroke-linecap: square"/>
   </g>
   <g id="patch_9">
    <path d="M 543.241348 330.541756 
L 618.477303 330.541756 
L 618.477303 319.869556 
L 543.241348 319.869556 
z
" style="fill: #8c5a2b; stroke: #8c5a2b; stroke-linejoin: miter"/>
   </g>
   <g id="text_23">
    <!-- Familiar | Expert -->
    <g transform="translate(540.789569 21.720156) scale(0.19 -0.19)">
     <defs>
      <path id="DejaVuSans-45" d="M 628 4666 
L 3578 4666 
L 3578 4134 
L 1259 4134 
L 1259 2753 
L 3481 2753 
L 3481 2222 
L 1259 2222 
L 1259 531 
L 3634 531 
L 3634 0 
L 628 0 
L 628 4666 
z
" transform="scale(0.015625)"/>
      <path id="DejaVuSans-78" d="M 3513 3500 
L 2247 1797 
L 3578 0 
L 2900 0 
L 1881 1375 
L 863 0 
L 184 0 
L 1544 1831 
L 300 3500 
L 978 3500 
L 1906 2253 
L 2834 3500 
L 3513 3500 
z
" transform="scale(0.015625)"/>
      <path id="DejaVuSans-70" d="M 1159 525 
L 1159 -1331 
L 581 -1331 
L 581 3500 
L 1159 3500 
L 1159 2969 
Q 1341 3281 1617 3432 
Q 1894 3584 2278 3584 
Q 2916 3584 3314 3078 
Q 3713 2572 3713 1747 
Q 3713 922 3314 415 
Q 2916 -91 2278 -91 
Q 1894 -91 1617 61 
Q 1341 213 1159 525 
z
M 3116 1747 
Q 3116 2381 2855 2742 
Q 2594 3103 2138 3103 
Q 1681 3103 1420 2742 
Q 1159 2381 1159 1747 
Q 1159 1113 1420 752 
Q 1681 391 2138 391 
Q 2594 391 2855 752 
Q 3116 1113 3116 1747 
z
" transform="scale(0.015625)"/>
     </defs>
     <use xlink:href="#DejaVuSans-46"/>
     <use xlink:href="#DejaVuSans-61" transform="translate(48.394531 0)"/>
     <use xlink:href="#DejaVuSans-6d" transform="translate(109.673828 0)"/>
     <use xlink:href="#DejaVuSans-69" transform="translate(207.085938 0)"/>
     <use xlink:href="#DejaVuSans-6c" transform="translate(234.869141 0)"/>
     <use xlink:href="#DejaVuSans-69" transform="translate(262.652344 0)"/>
     <use xlink:href="#DejaVuSans-61" transform="translate(290.435547 0)"/>
     <use xlink:href="#DejaVuSans-72" transform="translate(351.714844 0)"/>
     <use xlink:href="#DejaVuSans-20" transform="translate(392.828125 0)"/>
     <use xlink:href="#DejaVuSans-7c" transform="translate(424.615234 0)"/>
     <use xlink:href="#DejaVuSans-20" transform="translate(458.306641 0)"/>
     <use xlink:href="#DejaVuSans-45" transform="translate(490.09375 0)"/>
     <use xlink:href="#DejaVuSans-78" transform="translate(553.277344 0)"/>
     <use xlink:href="#DejaVuSans-70" transform="translate(612.457031 0)"/>
     <use xlink:href="#DejaVuSans-65" transform="translate(675.933594 0)"/>
     <use xlink:href="#DejaVuSans-72" transform="translate(737.457031 0)"/>
     <use xlink:href="#DejaVuSans-74" transform="translate(778.570312 0)"/>
    </g>
   </g>
  </g>
  <g id="axes_3">
   <g id="patch_10">
    <path d="M 814.090787 336.640156 
L 1115.034607 336.640156 
L 1115.034607 31.720156 
L 814.090787 31.720156 
z
" style="fill: #ffffff"/>
   </g>
   <g id="matplotlib.axis_5">
    <g id="xtick_11">
     <g id="line2d_26">
      <g>
       <use xlink:href="#mdd91540a17" x="814.090787" y="336.640156" style="stroke: #000000; stroke-width: 1.6"/>
      </g>
     </g>
     <g id="text_24">
      <!-- -1 -->
      <g transform="translate(798.138287 369.455156) scale(0.32 -0.32)">
       <use xlink:href="#DejaVuSans-2d"/>
       <use xlink:href="#DejaVuSans-31" transform="translate(36.083984 0)"/>
      </g>
     </g>
    </g>
    <g id="xtick_12">
     <g id="line2d_27">
      <g>
       <use xlink:href="#mdd91540a17" x="889.326742" y="336.640156" style="stroke: #000000; stroke-width: 1.6"/>
      </g>
     </g>
     <g id="text_25">
      <!-- 0 -->
      <g transform="translate(879.146742 369.455156) scale(0.32 -0.32)">
       <use xlink:href="#DejaVuSans-30"/>
      </g>
     </g>
    </g>
    <g id="xtick_13">
     <g id="line2d_28">
      <g>
       <use xlink:href="#mdd91540a17" x="964.562697" y="336.640156" style="stroke: #000000; stroke-width: 1.6"/>
      </g>
     </g>
     <g id="text_26">
      <!-- 1 -->
      <g transform="translate(954.382697 369.455156) scale(0.32 -0.32)">
       <use xlink:href="#DejaVuSans-31"/>
      </g>
     </g>
    </g>
    <g id="xtick_14">
     <g id="line2d_29">
      <g>
       <use xlink:href="#mdd91540a17" x="1039.798652" y="336.640156" style="stroke: #000000; stroke-width: 1.6"/>
      </g>
     </g>
     <g id="text_27">
      <!-- 2 -->
      <g transform="translate(1029.618652 369.455156) scale(0.32 -0.32)">
       <use xlink:href="#DejaVuSans-32"/>
      </g>
     </g>
    </g>
    <g id="xtick_15">
     <g id="line2d_30">
      <g>
       <use xlink:href="#mdd91540a17" x="1115.034607" y="336.640156" style="stroke: #000000; stroke-width: 1.6"/>
      </g>
     </g>
     <g id="text_28">
      <!-- 3 -->
      <g transform="translate(1104.854607 369.455156) scale(0.32 -0.32)">
       <use xlink:href="#DejaVuSans-33"/>
      </g>
     </g>
    </g>
    <g id="text_29">
     <!-- Time (s) -->
     <g transform="translate(899.510197 404.425156) scale(0.32 -0.32)">
      <use xlink:href="#DejaVuSans-54"/>
      <use xlink:href="#DejaVuSans-69" transform="translate(57.958984 0)"/>
      <use xlink:href="#DejaVuSans-6d" transform="translate(85.742188 0)"/>
      <use xlink:href="#DejaVuSans-65" transform="translate(183.154297 0)"/>
      <use xlink:href="#DejaVuSans-20" transform="translate(244.677734 0)"/>
      <use xlink:href="#DejaVuSans-28" transform="translate(276.464844 0)"/>
      <use xlink:href="#DejaVuSans-73" transform="translate(315.478516 0)"/>
      <use xlink:href="#DejaVuSans-29" transform="translate(367.578125 0)"/>
     </g>
    </g>
   </g>
   <g id="matplotlib.axis_6">
    <g id="ytick_9">
     <g id="line2d_31">
      <g>
       <use xlink:href="#m901a3e8f14" x="814.090787" y="315.619053" style="stroke: #000000; stroke-width: 1.6"/>
      </g>
     </g>
    </g>
    <g id="ytick_10">
     <g id="line2d_32">
      <g>
       <use xlink:href="#m901a3e8f14" x="814.090787" y="223.394254" style="stroke: #000000; stroke-width: 1.6"/>
      </g>
     </g>
    </g>
    <g id="ytick_11">
     <g id="line2d_33">
      <g>
       <use xlink:href="#m901a3e8f14" x="814.090787" y="131.169455" style="stroke: #000000; stroke-width: 1.6"/>
      </g>
     </g>
    </g>
    <g id="ytick_12">
     <g id="line2d_34">
      <g>
       <use xlink:href="#m901a3e8f14" x="814.090787" y="38.944657" style="stroke: #000000; stroke-width: 1.6"/>
      </g>
     </g>
    </g>
   </g>
   <g id="line2d_35">
    <path d="M 814.843146 271.937169 
L 817.100225 278.167297 
L 819.357303 283.508854 
L 820.109663 285.114364 
L 820.862022 267.559758 
L 822.366742 272.24554 
L 823.119101 248.461633 
L 823.871461 234.769245 
L 825.37618 242.652101 
L 826.128539 225.339594 
L 828.385618 238.215708 
L 829.890337 245.762533 
L 830.642697 241.397937 
L 832.147416 248.634497 
L 832.899775 230.343752 
L 833.652135 215.548471 
L 834.404494 190.489323 
L 836.661573 208.335952 
L 838.166292 218.796054 
L 838.918652 222.825804 
L 841.17573 236.060445 
L 843.432809 247.407492 
L 844.185169 237.136445 
L 846.442247 248.330026 
L 847.194607 239.892362 
L 849.451685 250.69288 
L 850.956404 257.023183 
L 851.708764 248.766142 
L 852.461124 214.205358 
L 854.718202 228.669486 
L 856.975281 241.070666 
L 857.72764 212.787555 
L 859.984719 227.453896 
L 862.241798 240.028464 
L 864.498876 250.809576 
L 866.755955 260.053032 
L 869.013034 267.978138 
L 871.270112 274.772926 
L 873.527191 280.598608 
L 874.279551 277.557316 
L 875.03191 269.437478 
L 876.536629 273.940183 
L 877.288989 245.238185 
L 879.546067 255.276262 
L 880.298427 246.962229 
L 881.050787 250.39507 
L 881.803146 197.090298 
L 883.307865 134.263375 
L 884.060225 134.923894 
L 886.317303 160.695552 
L 888.574382 182.79151 
L 890.831461 201.736041 
L 893.088539 217.978612 
L 895.345618 231.904581 
L 897.602697 243.844363 
L 899.859775 254.08123 
L 902.116854 262.858066 
L 904.373933 270.3831 
L 906.631011 276.834883 
L 908.88809 282.366476 
L 911.145169 287.109125 
L 913.402247 291.175355 
L 915.659326 294.661636 
L 917.916404 297.650687 
L 920.173483 300.213425 
L 922.430562 302.410655 
L 924.68764 304.294503 
L 926.944719 305.909667 
L 929.201798 307.294469 
L 932.211236 308.838628 
L 935.220674 310.096355 
L 938.230112 311.120781 
L 941.99191 312.138376 
L 945.753708 312.925772 
L 950.267865 313.639244 
L 955.534382 314.236479 
L 962.305618 314.747687 
L 970.581573 315.12342 
L 971.333933 304.179463 
L 972.086292 279.411188 
L 974.343371 284.575336 
L 975.84809 287.602099 
L 976.600449 253.897505 
L 977.352809 232.334345 
L 978.857528 240.454604 
L 979.609888 222.323316 
L 980.362247 226.988101 
L 981.114607 218.562473 
L 981.866966 189.61904 
L 982.619326 195.919045 
L 983.371685 199.16126 
L 984.876404 210.515892 
L 985.628764 210.309985 
L 986.381124 215.575441 
L 987.133483 198.606481 
L 987.885843 204.457112 
L 988.638202 204.56786 
L 989.390562 209.647568 
L 990.142921 195.762509 
L 990.895281 185.155378 
L 993.15236 203.762769 
L 993.904719 207.893321 
L 996.161798 223.257707 
L 998.418876 236.430747 
L 1000.675955 247.72498 
L 1001.428315 243.86404 
L 1003.685393 254.098099 
L 1005.190112 260.096394 
L 1005.942472 248.535525 
L 1008.199551 258.103314 
L 1010.456629 266.306497 
L 1012.713708 273.339701 
L 1014.218427 277.461939 
L 1014.970787 252.375542 
L 1015.723146 255.537719 
L 1016.475506 244.547712 
L 1017.227865 194.205734 
L 1017.980225 169.401725 
L 1020.237303 190.255965 
L 1022.494382 208.135877 
L 1023.246742 208.912152 
L 1023.999101 214.247497 
L 1024.751461 199.047849 
L 1025.50382 176.281949 
L 1027.760899 196.154902 
L 1030.017978 213.193476 
L 1032.275056 227.801918 
L 1034.532135 240.326841 
L 1036.789213 251.065398 
L 1039.046292 260.272368 
L 1041.303371 268.166192 
L 1042.05573 255.12363 
L 1042.80809 224.109832 
L 1043.560449 224.494873 
L 1045.817528 237.491467 
L 1048.074607 248.63442 
L 1050.331685 258.188102 
L 1052.588764 266.379195 
L 1054.845843 273.402032 
L 1056.350562 277.518193 
L 1057.102921 274.33815 
L 1057.855281 259.760148 
L 1060.11236 267.727027 
L 1061.617079 272.396502 
L 1062.369438 267.415535 
L 1063.121798 250.711416 
L 1065.378876 259.968872 
L 1067.635955 267.905977 
L 1068.388315 270.29163 
L 1069.140674 256.2914 
L 1071.397753 264.753007 
L 1072.150112 267.296309 
L 1072.902472 230.740019 
L 1073.654831 206.867086 
L 1075.91191 222.377839 
L 1077.416629 231.468864 
L 1078.168989 226.152037 
L 1080.426067 238.912267 
L 1081.930787 246.391187 
L 1082.683146 245.422675 
L 1084.940225 255.434439 
L 1087.197303 264.018273 
L 1089.454382 271.377834 
L 1091.711461 277.687742 
L 1093.968539 283.097696 
L 1096.225618 287.736055 
L 1098.482697 291.712868 
L 1099.235056 292.908177 
L 1099.987416 258.038922 
L 1101.492135 263.652987 
L 1102.996854 190.005799 
L 1103.749213 173.127463 
L 1106.006292 193.45033 
L 1107.511011 205.361785 
L 1108.263371 167.29724 
L 1109.76809 110.698946 
L 1110.520449 53.162258 
L 1112.777528 90.595169 
L 1114.282247 112.535004 
L 1114.282247 112.535004 
" clip-path="url(#p109b97b7f7)" style="fill: none; stroke: #000000; stroke-width: 5; stroke-linecap: square"/>
   </g>
   <g id="line2d_36">
    <path d="M 814.843146 171.652499 
L 815.595506 117.834756 
L 816.347865 90.067815 
L 817.100225 87.716239 
L 817.852584 95.374524 
L 820.109663 126.786904 
L 820.862022 124.742731 
L 822.366742 52.749122 
L 824.62382 90.240955 
L 826.880899 122.385503 
L 829.137978 149.945429 
L 831.395056 173.574621 
L 832.147416 180.676847 
L 832.899775 163.289547 
L 833.652135 136.050132 
L 835.909213 161.661156 
L 838.166292 183.619406 
L 839.671011 196.489379 
L 840.423371 202.120163 
L 841.17573 182.775749 
L 841.92809 178.832277 
L 842.680449 131.910905 
L 843.432809 117.733885 
L 845.689888 145.957268 
L 847.946966 170.155281 
L 848.699326 166.795138 
L 850.956404 188.021158 
L 853.213483 206.21982 
L 855.470562 221.822889 
L 857.72764 235.200572 
L 859.23236 243.041376 
L 859.984719 225.245707 
L 860.737079 189.514193 
L 862.241798 201.234798 
L 862.994157 204.68359 
L 863.746517 182.51203 
L 864.498876 179.544838 
L 865.251236 186.34855 
L 866.003596 184.538912 
L 868.260674 203.234221 
L 870.517753 219.263112 
L 872.022472 228.657822 
L 872.774831 195.645542 
L 873.527191 190.213097 
L 875.78427 208.099133 
L 878.041348 223.43417 
L 880.298427 236.582044 
L 881.803146 147.537131 
L 882.555506 147.54852 
L 884.812584 171.519583 
L 887.069663 192.071779 
L 889.326742 209.692721 
L 891.58382 224.800473 
L 893.840899 237.753477 
L 895.345618 245.345369 
L 896.097978 237.1411 
L 898.355056 248.33402 
L 900.612135 257.930553 
L 901.364494 234.585034 
L 902.116854 238.474713 
L 902.869213 222.060858 
L 905.126292 235.404598 
L 905.878652 239.415323 
L 906.631011 228.905292 
L 907.383371 223.396232 
L 908.13573 226.961225 
L 908.88809 231.394122 
L 909.640449 230.913398 
L 911.897528 242.994548 
L 914.154607 253.352621 
L 916.411685 262.233376 
L 918.668764 269.847509 
L 919.421124 271.48878 
L 920.173483 273.695295 
L 920.925843 265.690761 
L 921.678202 214.667787 
L 923.935281 229.065968 
L 926.19236 241.410597 
L 928.449438 251.99458 
L 930.706517 261.06902 
L 932.963596 268.849223 
L 935.220674 275.51977 
L 936.725393 279.429449 
L 937.477753 273.229361 
L 938.982472 277.362357 
L 939.734831 254.010512 
L 940.487191 257.090938 
L 941.239551 236.344744 
L 941.99191 240.308461 
L 942.74427 240.298171 
L 943.496629 223.211334 
L 944.248989 227.831722 
L 945.001348 230.016825 
L 945.753708 234.296938 
L 947.258427 196.906775 
L 948.763146 208.481219 
L 949.515506 192.953958 
L 950.267865 174.747179 
L 951.020225 178.161932 
L 953.277303 197.76675 
L 955.534382 214.575437 
L 957.039101 224.427191 
L 957.791461 187.053879 
L 958.54382 180.941649 
L 959.29618 187.675524 
L 960.048539 173.582016 
L 962.305618 193.840052 
L 964.562697 211.208792 
L 966.819775 226.100305 
L 967.572135 224.521482 
L 968.324494 221.175347 
L 969.076854 198.076001 
L 969.829213 200.660479 
L 972.086292 217.056451 
L 974.343371 231.113937 
L 975.09573 235.339192 
L 975.84809 230.853146 
L 976.600449 202.093262 
L 977.352809 207.769552 
L 978.105169 200.313754 
L 980.362247 216.759174 
L 981.114607 221.702169 
L 981.866966 211.826185 
L 984.124045 226.629652 
L 986.381124 239.32177 
L 987.885843 246.760759 
L 988.638202 202.931799 
L 990.142921 213.918809 
L 991.64764 223.085495 
L 993.904719 236.283091 
L 996.161798 247.598389 
L 996.914157 242.843328 
L 997.666517 230.628481 
L 998.418876 180.75804 
L 999.171236 159.33289 
L 1001.428315 181.623212 
L 1003.685393 200.734371 
L 1005.942472 217.119805 
L 1008.199551 231.168263 
L 1010.456629 243.213055 
L 1012.713708 253.539966 
L 1013.466067 245.841368 
L 1014.970787 252.193715 
L 1017.227865 261.239759 
L 1019.484944 268.995608 
L 1021.742022 275.645279 
L 1023.246742 279.542722 
L 1023.999101 252.706712 
L 1024.751461 254.277672 
L 1027.008539 263.02649 
L 1029.265618 270.527504 
L 1030.770337 274.923931 
L 1031.522697 265.860868 
L 1032.275056 263.169451 
L 1034.532135 270.650075 
L 1035.284494 272.898526 
L 1036.036854 271.370594 
L 1036.789213 257.30418 
L 1039.046292 265.62134 
L 1039.798652 268.121224 
L 1040.551011 258.422339 
L 1042.05573 263.999021 
L 1042.80809 230.752885 
L 1043.560449 212.012998 
L 1044.312809 187.295654 
L 1045.065169 175.618243 
L 1045.817528 111.622738 
L 1048.826966 148.911576 
L 1051.084045 172.688242 
L 1053.341124 193.07375 
L 1055.598202 210.551777 
L 1057.855281 225.536997 
L 1060.11236 238.384957 
L 1062.369438 249.400469 
L 1063.121798 252.711401 
L 1063.874157 221.785638 
L 1064.626517 226.477307 
L 1065.378876 192.346253 
L 1066.131236 190.253483 
L 1066.883596 182.467212 
L 1069.140674 201.458003 
L 1070.645393 212.588709 
L 1071.397753 205.7202 
L 1073.654831 221.394533 
L 1074.407191 226.105759 
L 1075.159551 228.046914 
L 1077.416629 240.536888 
L 1079.673708 251.245482 
L 1081.930787 260.426766 
L 1084.187865 268.298567 
L 1084.940225 270.664591 
L 1085.692584 257.417977 
L 1086.444944 257.051132 
L 1087.197303 232.847879 
L 1089.454382 244.653113 
L 1091.711461 254.774633 
L 1093.21618 260.706964 
L 1093.968539 255.51881 
L 1096.225618 264.090607 
L 1097.730337 269.114631 
L 1098.482697 201.409423 
L 1099.235056 204.349285 
L 1099.987416 189.45279 
L 1102.244494 207.447263 
L 1104.501573 222.875277 
L 1106.758652 236.102866 
L 1107.511011 234.788287 
L 1108.263371 238.829829 
L 1109.01573 199.770391 
L 1109.76809 178.01517 
L 1110.520449 163.030568 
L 1112.777528 184.79351 
L 1114.282247 197.549008 
L 1114.282247 197.549008 
" clip-path="url(#p109b97b7f7)" style="fill: none; stroke: #ff0000; stroke-width: 5; stroke-linecap: square"/>
   </g>
   <g id="line2d_37">
    <path d="M 814.843146 225.199265 
L 817.100225 238.095384 
L 819.357303 249.152201 
L 820.109663 252.475544 
L 820.862022 219.017816 
L 823.119101 232.795572 
L 825.37618 244.608278 
L 827.633258 254.736192 
L 829.890337 263.419617 
L 830.642697 266.029588 
L 831.395056 263.33051 
L 833.652135 270.788166 
L 834.404494 256.456461 
L 836.661573 264.89453 
L 838.918652 272.129114 
L 841.17573 278.331873 
L 843.432809 283.649958 
L 844.185169 285.248414 
L 844.937528 263.449172 
L 847.194607 270.8899 
L 847.946966 273.126357 
L 848.699326 270.976869 
L 850.204045 275.329483 
L 850.956404 269.609578 
L 852.461124 231.064137 
L 854.718202 243.12378 
L 856.222921 204.095605 
L 856.975281 208.922536 
L 857.72764 187.451924 
L 859.984719 205.731761 
L 862.241798 221.404436 
L 862.994157 223.393114 
L 863.746517 201.691069 
L 864.498876 204.361455 
L 866.755955 220.229575 
L 869.013034 233.83451 
L 869.765393 231.13894 
L 872.022472 243.187915 
L 874.279551 253.518408 
L 875.03191 217.469957 
L 876.536629 227.039489 
L 877.288989 217.287919 
L 878.041348 222.204477 
L 878.793708 212.101329 
L 879.546067 211.009104 
L 880.298427 212.870182 
L 882.555506 227.524739 
L 884.812584 240.089198 
L 887.069663 250.861648 
L 889.326742 260.097678 
L 891.58382 268.01642 
L 893.840899 274.805745 
L 896.097978 280.626748 
L 898.355056 285.617527 
L 900.612135 289.896494 
L 902.869213 293.565175 
L 905.126292 296.71061 
L 907.383371 299.407426 
L 909.640449 301.719611 
L 911.897528 303.70202 
L 914.154607 305.401687 
L 916.411685 306.85894 
L 919.421124 308.483886 
L 922.430562 309.807416 
L 925.44 310.885438 
L 929.201798 311.956272 
L 932.963596 312.784863 
L 937.477753 313.535663 
L 942.74427 314.164145 
L 948.763146 314.653837 
L 956.286742 315.041143 
L 966.819775 315.337221 
L 967.572135 301.671865 
L 968.324494 297.691234 
L 969.076854 282.681073 
L 969.829213 284.327972 
L 970.581573 277.615649 
L 971.333933 262.002638 
L 972.086292 259.329946 
L 974.343371 267.358181 
L 976.600449 274.24139 
L 978.105169 278.275713 
L 978.857528 256.085708 
L 979.609888 248.360415 
L 980.362247 249.014243 
L 981.114607 252.344483 
L 981.866966 236.131004 
L 983.371685 241.573249 
L 984.124045 245.275539 
L 984.876404 247.805593 
L 987.133483 257.477491 
L 987.885843 244.022484 
L 988.638202 244.683836 
L 989.390562 227.877245 
L 991.64764 240.391423 
L 992.4 224.409884 
L 993.15236 190.695676 
L 995.409438 208.51287 
L 997.666517 223.788883 
L 999.923596 236.886167 
L 1001.428315 244.562622 
L 1002.180674 225.151467 
L 1002.933034 212.013067 
L 1005.190112 82.639821 
L 1005.942472 77.448447 
L 1007.447191 100.670085 
L 1008.199551 95.652966 
L 1010.456629 127.025629 
L 1012.713708 153.923765 
L 1014.970787 176.985568 
L 1015.723146 181.094578 
L 1017.980225 200.281133 
L 1018.732584 183.326766 
L 1019.484944 188.580996 
L 1020.989663 200.967213 
L 1021.742022 190.396956 
L 1023.246742 202.606109 
L 1023.999101 205.84463 
L 1025.50382 216.547641 
L 1026.25618 213.144561 
L 1027.008539 218.268288 
L 1027.760899 219.658477 
L 1030.017978 233.344853 
L 1031.522697 241.366587 
L 1032.275056 232.507227 
L 1033.027416 236.662816 
L 1033.779775 221.954577 
L 1036.036854 235.313476 
L 1038.293933 246.767059 
L 1040.551011 256.587071 
L 1042.05573 233.383504 
L 1044.312809 245.112346 
L 1046.569888 255.168366 
L 1048.826966 263.790151 
L 1051.084045 271.182247 
L 1053.341124 277.520052 
L 1055.598202 282.953925 
L 1056.350562 284.587182 
L 1057.102921 264.700691 
L 1057.855281 267.246608 
L 1058.60764 268.531173 
L 1060.864719 275.247084 
L 1062.369438 279.18335 
L 1063.121798 245.069598 
L 1063.874157 248.59707 
L 1064.626517 230.3336 
L 1065.378876 132.469541 
L 1066.131236 134.414646 
L 1068.388315 160.258916 
L 1070.645393 182.417154 
L 1072.902472 201.415084 
L 1075.159551 217.703426 
L 1077.416629 231.668638 
L 1079.673708 243.642068 
L 1080.426067 247.24092 
L 1081.178427 232.75796 
L 1081.930787 232.192754 
L 1084.187865 244.091428 
L 1084.940225 247.667811 
L 1085.692584 233.568419 
L 1087.949663 245.270897 
L 1088.702022 215.929621 
L 1090.959101 230.147826 
L 1093.21618 242.33816 
L 1095.473258 252.78985 
L 1097.730337 261.750866 
L 1099.987416 269.433819 
L 1102.244494 276.020988 
L 1104.501573 281.668663 
L 1106.758652 286.510839 
L 1107.511011 287.966249 
L 1108.263371 284.287817 
L 1109.01573 285.85438 
L 1109.76809 269.358149 
L 1112.025169 275.956114 
L 1112.777528 261.167717 
L 1114.282247 266.476724 
L 1114.282247 266.476724 
" clip-path="url(#p109b97b7f7)" style="fill: none; stroke: #0000ff; stroke-width: 5; stroke-linecap: square"/>
   </g>
   <g id="patch_11">
    <path d="M 814.090787 336.640156 
L 814.090787 31.720156 
" style="fill: none; stroke: #000000; stroke-width: 5; stroke-linejoin: miter; stroke-linecap: square"/>
   </g>
   <g id="patch_12">
    <path d="M 814.090787 336.640156 
L 1115.034607 336.640156 
" style="fill: none; stroke: #000000; stroke-width: 5; stroke-linejoin: miter; stroke-linecap: square"/>
   </g>
   <g id="patch_13">
    <path d="M 889.326742 330.541756 
L 964.562697 330.541756 
L 964.562697 319.869556 
L 889.326742 319.869556 
z
" style="fill: #8c5a2b; stroke: #8c5a2b; stroke-linejoin: miter"/>
   </g>
   <g id="text_30">
    <!-- Novel | Naive -->
    <g transform="translate(901.26004 21.720156) scale(0.19 -0.19)">
     <use xlink:href="#DejaVuSans-4e"/>
     <use xlink:href="#DejaVuSans-6f" transform="translate(74.804688 0)"/>
     <use xlink:href="#DejaVuSans-76" transform="translate(135.986328 0)"/>
     <use xlink:href="#DejaVuSans-65" transform="translate(195.166016 0)"/>
     <use xlink:href="#DejaVuSans-6c" transform="translate(256.689453 0)"/>
     <use xlink:href="#DejaVuSans-20" transform="translate(284.472656 0)"/>
     <use xlink:href="#DejaVuSans-7c" transform="translate(316.259766 0)"/>
     <use xlink:href="#DejaVuSans-20" transform="translate(349.951172 0)"/>
     <use xlink:href="#DejaVuSans-4e" transform="translate(381.738281 0)"/>
     <use xlink:href="#DejaVuSans-61" transform="translate(456.542969 0)"/>
     <use xlink:href="#DejaVuSans-69" transform="translate(517.822266 0)"/>
     <use xlink:href="#DejaVuSans-76" transform="translate(545.605469 0)"/>
     <use xlink:href="#DejaVuSans-65" transform="translate(604.785156 0)"/>
    </g>
   </g>
  </g>
  <g id="axes_4">
   <g id="patch_14">
    <path d="M 1160.17618 336.640156 
L 1461.12 336.640156 
L 1461.12 31.720156 
L 1160.17618 31.720156 
z
" style="fill: #ffffff"/>
   </g>
   <g id="matplotlib.axis_7">
    <g id="xtick_16">
     <g id="line2d_38">
      <g>
       <use xlink:href="#mdd91540a17" x="1160.17618" y="336.640156" style="stroke: #000000; stroke-width: 1.6"/>
      </g>
     </g>
     <g id="text_31">
      <!-- -1 -->
      <g transform="translate(1144.22368 369.455156) scale(0.32 -0.32)">
       <use xlink:href="#DejaVuSans-2d"/>
       <use xlink:href="#DejaVuSans-31" transform="translate(36.083984 0)"/>
      </g>
     </g>
    </g>
    <g id="xtick_17">
     <g id="line2d_39">
      <g>
       <use xlink:href="#mdd91540a17" x="1235.412135" y="336.640156" style="stroke: #000000; stroke-width: 1.6"/>
      </g>
     </g>
     <g id="text_32">
      <!-- 0 -->
      <g transform="translate(1225.232135 369.455156) scale(0.32 -0.32)">
       <use xlink:href="#DejaVuSans-30"/>
      </g>
     </g>
    </g>
    <g id="xtick_18">
     <g id="line2d_40">
      <g>
       <use xlink:href="#mdd91540a17" x="1310.64809" y="336.640156" style="stroke: #000000; stroke-width: 1.6"/>
      </g>
     </g>
     <g id="text_33">
      <!-- 1 -->
      <g transform="translate(1300.46809 369.455156) scale(0.32 -0.32)">
       <use xlink:href="#DejaVuSans-31"/>
      </g>
     </g>
    </g>
    <g id="xtick_19">
     <g id="line2d_41">
      <g>
       <use xlink:href="#mdd91540a17" x="1385.884045" y="336.640156" style="stroke: #000000; stroke-width: 1.6"/>
      </g>
     </g>
     <g id="text_34">
      <!-- 2 -->
      <g transform="translate(1375.704045 369.455156) scale(0.32 -0.32)">
       <use xlink:href="#DejaVuSans-32"/>
      </g>
     </g>
    </g>
    <g id="xtick_20">
     <g id="line2d_42">
      <g>
       <use xlink:href="#mdd91540a17" x="1461.12" y="336.640156" style="stroke: #000000; stroke-width: 1.6"/>
      </g>
     </g>
     <g id="text_35">
      <!-- 3 -->
      <g transform="translate(1450.94 369.455156) scale(0.32 -0.32)">
       <use xlink:href="#DejaVuSans-33"/>
      </g>
     </g>
    </g>
    <g id="text_36">
     <!-- Time (s) -->
     <g transform="translate(1245.59559 404.425156) scale(0.32 -0.32)">
      <use xlink:href="#DejaVuSans-54"/>
      <use xlink:href="#DejaVuSans-69" transform="translate(57.958984 0)"/>
      <use xlink:href="#DejaVuSans-6d" transform="translate(85.742188 0)"/>
      <use xlink:href="#DejaVuSans-65" transform="translate(183.154297 0)"/>
      <use xlink:href="#DejaVuSans-20" transform="translate(244.677734 0)"/>
      <use xlink:href="#DejaVuSans-28" transform="translate(276.464844 0)"/>
      <use xlink:href="#DejaVuSans-73" transform="translate(315.478516 0)"/>
      <use xlink:href="#DejaVuSans-29" transform="translate(367.578125 0)"/>
     </g>
    </g>
   </g>
   <g id="matplotlib.axis_8">
    <g id="ytick_13">
     <g id="line2d_43">
      <g>
       <use xlink:href="#m901a3e8f14" x="1160.17618" y="315.619053" style="stroke: #000000; stroke-width: 1.6"/>
      </g>
     </g>
    </g>
    <g id="ytick_14">
     <g id="line2d_44">
      <g>
       <use xlink:href="#m901a3e8f14" x="1160.17618" y="223.394254" style="stroke: #000000; stroke-width: 1.6"/>
      </g>
     </g>
    </g>
    <g id="ytick_15">
     <g id="line2d_45">
      <g>
       <use xlink:href="#m901a3e8f14" x="1160.17618" y="131.169455" style="stroke: #000000; stroke-width: 1.6"/>
      </g>
     </g>
    </g>
    <g id="ytick_16">
     <g id="line2d_46">
      <g>
       <use xlink:href="#m901a3e8f14" x="1160.17618" y="38.944657" style="stroke: #000000; stroke-width: 1.6"/>
      </g>
     </g>
    </g>
   </g>
   <g id="line2d_47">
    <path d="M 1160.928539 294.966173 
L 1163.185618 297.911793 
L 1165.442697 300.437292 
L 1167.699775 302.602591 
L 1169.956854 304.459064 
L 1172.213933 306.050757 
L 1174.471011 307.415436 
L 1177.480449 308.937156 
L 1180.489888 310.176606 
L 1183.499326 311.186146 
L 1187.261124 312.188955 
L 1191.022921 312.964908 
L 1195.537079 313.668013 
L 1200.803596 314.256569 
L 1201.555955 314.324694 
L 1202.308315 291.251081 
L 1204.565393 294.726563 
L 1206.822472 297.706355 
L 1209.079551 300.261155 
L 1209.83191 300.756229 
L 1212.088989 302.87604 
L 1214.346067 304.693513 
L 1216.603146 306.251768 
L 1217.355506 294.628209 
L 1219.612584 297.622031 
L 1221.869663 300.188856 
L 1222.622022 300.960366 
L 1224.126742 302.2724 
L 1226.38382 304.175967 
L 1228.640899 305.808037 
L 1229.393258 288.933627 
L 1230.145618 290.267899 
L 1230.897978 252.017513 
L 1233.155056 261.088685 
L 1235.412135 268.866084 
L 1237.669213 275.53423 
L 1239.926292 281.251329 
L 1242.183371 286.153027 
L 1244.440449 290.355622 
L 1246.697528 293.95882 
L 1248.954607 297.048112 
L 1251.211685 299.696794 
L 1253.468764 301.967707 
L 1255.725843 303.91473 
L 1257.982921 305.58406 
L 1260.24 307.015301 
L 1263.249438 308.611244 
L 1266.258876 309.911149 
L 1269.268315 310.96993 
L 1273.030112 312.021651 
L 1276.79191 312.835452 
L 1281.306067 313.57285 
L 1286.572584 314.190114 
L 1292.591461 314.671066 
L 1300.115056 315.051458 
L 1310.64809 315.342251 
L 1321.933483 315.490813 
L 1322.685843 310.395571 
L 1325.695281 311.364495 
L 1326.44764 311.577223 
L 1327.2 282.472951 
L 1327.95236 283.407857 
L 1330.209438 288.00198 
L 1332.466517 291.940866 
L 1334.723596 295.317968 
L 1335.475955 296.333022 
L 1336.228315 287.077754 
L 1336.980674 270.012738 
L 1339.237753 276.517339 
L 1339.990112 278.472425 
L 1340.742472 268.259728 
L 1342.247191 195.365795 
L 1342.999551 190.209447 
L 1343.75191 191.59401 
L 1346.008989 209.283089 
L 1347.513708 219.65085 
L 1348.266067 220.31873 
L 1349.018427 202.838633 
L 1349.770787 195.726761 
L 1352.027865 212.826404 
L 1354.284944 227.487205 
L 1356.542022 240.057015 
L 1358.799101 250.834051 
L 1361.05618 260.074015 
L 1363.313258 267.996128 
L 1365.570337 274.788352 
L 1367.827416 280.611831 
L 1368.579775 282.362192 
L 1369.332135 272.827331 
L 1370.084494 273.896524 
L 1372.341573 279.847199 
L 1374.598652 284.949161 
L 1376.85573 289.323454 
L 1379.112809 293.073863 
L 1381.369888 296.28937 
L 1383.626966 299.046267 
L 1385.884045 301.409961 
L 1388.141124 303.436533 
L 1390.398202 305.174064 
L 1392.655281 306.663781 
L 1394.91236 307.941027 
L 1397.921798 309.365253 
L 1398.674157 309.677943 
L 1399.426517 292.86958 
L 1401.683596 296.114223 
L 1403.940674 298.8961 
L 1404.693034 281.238374 
L 1406.950112 286.141919 
L 1409.207191 290.346097 
L 1411.46427 293.950651 
L 1412.216629 295.034072 
L 1412.968989 288.954722 
L 1415.226067 292.757724 
L 1417.483146 296.018321 
L 1419.740225 298.813876 
L 1421.997303 301.210716 
L 1424.254382 303.265705 
L 1425.006742 301.536159 
L 1427.26382 303.544732 
L 1429.520899 305.266832 
L 1431.777978 306.743318 
L 1432.530337 283.063303 
L 1434.787416 287.706568 
L 1437.044494 291.687588 
L 1439.301573 295.100814 
L 1441.558652 298.027229 
L 1443.81573 300.536263 
L 1446.072809 302.687447 
L 1448.329888 304.531817 
L 1450.586966 306.113136 
L 1452.844045 307.468918 
L 1455.853483 308.980717 
L 1458.862921 310.212087 
L 1460.36764 310.739267 
L 1460.36764 310.739267 
" clip-path="url(#p8624c898e4)" style="fill: none; stroke: #000000; stroke-width: 5; stroke-linecap: square"/>
   </g>
   <g id="line2d_48">
    <path d="M 1160.928539 263.16416 
L 1163.185618 270.645544 
L 1164.690337 275.030462 
L 1165.442697 255.383454 
L 1166.195056 255.357893 
L 1166.947416 196.886943 
L 1167.699775 165.005547 
L 1169.956854 186.486801 
L 1172.213933 204.904295 
L 1174.471011 220.694993 
L 1176.72809 234.233534 
L 1178.985169 245.841145 
L 1180.489888 252.644492 
L 1181.242247 247.069893 
L 1182.746966 230.740448 
L 1185.004045 242.846257 
L 1187.261124 253.225481 
L 1189.518202 262.124368 
L 1191.775281 269.754047 
L 1194.03236 276.295547 
L 1196.289438 281.904064 
L 1197.041798 283.589813 
L 1197.794157 268.472888 
L 1198.546517 270.830197 
L 1199.298876 268.36844 
L 1201.555955 275.107562 
L 1202.308315 265.558622 
L 1203.060674 251.06 
L 1205.317753 260.267734 
L 1207.574831 268.16222 
L 1208.327191 241.918978 
L 1210.58427 252.430456 
L 1212.088989 258.591343 
L 1212.841348 247.632737 
L 1215.098427 257.32929 
L 1216.603146 263.012545 
L 1217.355506 250.903674 
L 1218.107865 254.139443 
L 1218.860225 210.35385 
L 1219.612584 191.792711 
L 1220.364944 168.098912 
L 1221.117303 171.156565 
L 1221.869663 170.903169 
L 1224.126742 191.543275 
L 1226.38382 209.239585 
L 1227.13618 214.55856 
L 1227.888539 217.465731 
L 1229.393258 227.035684 
L 1230.145618 224.578505 
L 1231.650337 233.454957 
L 1232.402697 222.171761 
L 1233.155056 191.75552 
L 1234.659775 203.832221 
L 1235.412135 202.539337 
L 1237.669213 218.667338 
L 1238.421573 223.514925 
L 1239.173933 214.631893 
L 1240.678652 224.47815 
L 1241.431011 213.631864 
L 1242.183371 218.731223 
L 1242.93573 202.663793 
L 1243.68809 192.393038 
L 1244.440449 192.985153 
L 1246.697528 210.475815 
L 1247.449888 215.732982 
L 1248.202247 205.286287 
L 1250.459326 221.022504 
L 1252.716404 234.514346 
L 1253.468764 210.723353 
L 1254.221124 194.129291 
L 1256.478202 211.456768 
L 1258.735281 226.31292 
L 1259.48764 211.656319 
L 1261.744719 226.483998 
L 1264.001798 239.196885 
L 1266.258876 250.096603 
L 1267.011236 239.837408 
L 1269.268315 250.645769 
L 1271.525393 259.912587 
L 1273.782472 267.857727 
L 1276.039551 274.669685 
L 1278.296629 280.510093 
L 1280.553708 285.517509 
L 1282.810787 289.810742 
L 1284.315506 292.327053 
L 1285.067865 286.49853 
L 1286.572584 289.337783 
L 1287.324944 246.672016 
L 1288.077303 231.658168 
L 1288.829663 224.847498 
L 1289.582022 216.079329 
L 1291.839101 230.27619 
L 1293.34382 238.597125 
L 1294.09618 233.292614 
L 1294.848539 237.408934 
L 1295.600899 234.34776 
L 1297.105618 242.271715 
L 1297.857978 215.621015 
L 1300.115056 229.883247 
L 1302.372135 242.111322 
L 1303.124494 236.484471 
L 1304.629213 244.200098 
L 1305.381573 235.088948 
L 1306.886292 242.940634 
L 1307.638652 226.798436 
L 1308.391011 231.239467 
L 1309.143371 206.339732 
L 1311.400449 221.925692 
L 1313.657528 235.288714 
L 1314.409888 239.305228 
L 1315.162247 242.064031 
L 1315.914607 231.801288 
L 1318.171685 243.755796 
L 1319.676404 250.762469 
L 1320.428764 237.860085 
L 1321.181124 176.611058 
L 1321.933483 148.184543 
L 1322.685843 156.556273 
L 1323.438202 160.900591 
L 1325.695281 182.967321 
L 1326.44764 162.948525 
L 1328.704719 184.723165 
L 1329.457079 191.267959 
L 1330.209438 196.213153 
L 1330.961798 202.183448 
L 1332.466517 186.880834 
L 1334.723596 205.242131 
L 1336.980674 220.984644 
L 1339.237753 234.481879 
L 1339.990112 203.445178 
L 1340.742472 207.812884 
L 1341.494831 174.286211 
L 1342.247191 163.28484 
L 1344.50427 185.01151 
L 1346.761348 203.639412 
L 1349.018427 219.610516 
L 1349.770787 212.039942 
L 1350.523146 183.980981 
L 1352.027865 109.996958 
L 1354.284944 139.323817 
L 1356.542022 164.467937 
L 1358.799101 186.025875 
L 1361.05618 204.509102 
L 1363.313258 220.356162 
L 1364.817978 229.644298 
L 1365.570337 227.787042 
L 1367.827416 240.314087 
L 1370.084494 251.05446 
L 1371.589213 257.349509 
L 1372.341573 251.432965 
L 1374.598652 260.587506 
L 1376.85573 268.436384 
L 1379.112809 275.165814 
L 1380.617528 279.110003 
L 1381.369888 263.097689 
L 1383.626966 270.588547 
L 1384.379326 272.840073 
L 1385.131685 232.423741 
L 1387.388764 244.289472 
L 1389.645843 254.462857 
L 1391.902921 263.185264 
L 1394.16 270.663633 
L 1395.664719 275.04679 
L 1397.169438 241.23434 
L 1397.921798 195.575524 
L 1398.674157 170.822105 
L 1400.931236 191.473772 
L 1401.683596 197.68104 
L 1402.435955 197.150061 
L 1403.188315 167.306585 
L 1405.445393 188.459658 
L 1407.702472 206.595773 
L 1409.959551 222.14522 
L 1412.216629 235.476927 
L 1414.473708 246.907203 
L 1416.730787 256.707233 
L 1418.987865 265.109532 
L 1421.244944 272.313454 
L 1423.502022 278.489917 
L 1424.254382 280.346374 
L 1425.006742 280.617689 
L 1425.759101 271.563625 
L 1426.511461 238.577224 
L 1427.26382 237.032422 
L 1428.01618 230.774178 
L 1428.768539 233.660065 
L 1431.025618 245.349466 
L 1433.282697 255.37167 
L 1435.539775 263.964454 
L 1436.292135 266.547185 
L 1437.044494 241.759744 
L 1439.301573 252.293932 
L 1440.053933 255.460189 
L 1440.806292 243.642987 
L 1441.558652 247.241791 
L 1442.311011 235.499902 
L 1444.56809 246.926898 
L 1445.320449 250.361504 
L 1446.072809 242.82031 
L 1448.329888 253.203235 
L 1450.586966 262.105291 
L 1452.844045 269.737693 
L 1455.101124 276.281521 
L 1455.853483 272.10467 
L 1456.605843 245.703517 
L 1457.358202 249.199295 
L 1458.110562 248.188276 
L 1459.615281 254.76278 
L 1460.36764 253.28119 
L 1460.36764 253.28119 
" clip-path="url(#p8624c898e4)" style="fill: none; stroke: #ff0000; stroke-width: 5; stroke-linecap: square"/>
   </g>
   <g id="line2d_49">
    <path d="M 1160.928539 301.47012 
L 1163.185618 303.488112 
L 1165.442697 305.218289 
L 1167.699775 306.701698 
L 1169.956854 307.973536 
L 1172.966292 309.391731 
L 1175.97573 310.546861 
L 1178.985169 311.487722 
L 1182.746966 312.422308 
L 1187.261124 313.269152 
L 1188.765843 313.498267 
L 1189.518202 309.212934 
L 1192.52764 310.401229 
L 1194.784719 311.145422 
L 1195.537079 310.945938 
L 1196.289438 311.179594 
L 1197.041798 285.585764 
L 1197.794157 244.962746 
L 1198.546517 240.972227 
L 1200.803596 251.618734 
L 1201.555955 254.818751 
L 1202.308315 250.4246 
L 1203.060674 253.684323 
L 1203.813034 202.95669 
L 1206.070112 219.025168 
L 1206.822472 211.293695 
L 1209.079551 226.173098 
L 1211.336629 238.93033 
L 1213.593708 249.86806 
L 1215.850787 259.245802 
L 1218.107865 267.286041 
L 1220.364944 274.17954 
L 1222.622022 280.089852 
L 1224.879101 285.157204 
L 1227.13618 289.501826 
L 1229.393258 293.226798 
L 1230.145618 272.440744 
L 1232.402697 278.59905 
L 1234.659775 283.87903 
L 1236.916854 288.405953 
L 1239.173933 292.287221 
L 1241.431011 295.614926 
L 1243.68809 298.468015 
L 1245.945169 300.914182 
L 1248.202247 303.011466 
L 1250.459326 304.809622 
L 1252.716404 306.351317 
L 1254.973483 307.673128 
L 1257.982921 309.147048 
L 1260.99236 310.347565 
L 1264.001798 311.325393 
L 1267.763596 312.296701 
L 1271.525393 313.048281 
L 1276.039551 313.729299 
L 1281.306067 314.299368 
L 1288.077303 314.787322 
L 1296.353258 315.145965 
L 1307.638652 315.399876 
L 1312.905169 315.465993 
L 1313.657528 286.566492 
L 1315.914607 290.710114 
L 1318.171685 294.262752 
L 1320.428764 297.308695 
L 1322.685843 299.92021 
L 1323.438202 300.705152 
L 1324.190562 298.887566 
L 1324.942921 286.909259 
L 1327.2 291.003994 
L 1329.457079 294.514719 
L 1331.714157 297.524726 
L 1333.971236 300.10543 
L 1335.475955 301.618008 
L 1336.228315 286.465681 
L 1338.485393 290.623681 
L 1340.742472 294.188647 
L 1342.999551 297.245159 
L 1345.256629 299.865736 
L 1346.008989 300.653402 
L 1346.761348 282.778336 
L 1349.018427 287.462245 
L 1349.770787 276.659751 
L 1351.275506 280.458284 
L 1352.027865 264.071419 
L 1352.780225 266.648802 
L 1353.532584 254.194396 
L 1355.789663 262.955088 
L 1358.046742 270.46629 
L 1360.30382 276.906202 
L 1362.560899 282.427626 
L 1364.817978 287.161553 
L 1367.075056 291.220304 
L 1367.827416 292.440243 
L 1368.579775 283.149514 
L 1369.332135 267.589026 
L 1370.084494 216.017797 
L 1370.836854 192.41969 
L 1371.589213 178.684888 
L 1373.846292 198.215127 
L 1376.103371 214.959868 
L 1378.360449 229.316383 
L 1380.617528 241.625308 
L 1382.874607 252.178666 
L 1385.131685 261.226853 
L 1387.388764 268.98454 
L 1389.645843 275.635788 
L 1391.902921 281.338403 
L 1394.16 286.227682 
L 1396.417079 290.419628 
L 1398.674157 294.013698 
L 1400.931236 297.095163 
L 1403.188315 299.737134 
L 1405.445393 302.002293 
L 1407.702472 303.944384 
L 1409.959551 305.609484 
L 1412.216629 307.0371 
L 1415.226067 308.628999 
L 1417.483146 309.625956 
L 1418.235506 274.277722 
L 1418.987865 229.131778 
L 1421.244944 241.467028 
L 1423.502022 252.042963 
L 1425.759101 261.110505 
L 1428.01618 268.884791 
L 1430.273258 275.550266 
L 1432.530337 281.265078 
L 1434.787416 286.164814 
L 1437.044494 290.365725 
L 1439.301573 293.967482 
L 1441.558652 297.055539 
L 1442.311011 297.983716 
L 1443.063371 290.694048 
L 1443.81573 256.876674 
L 1446.072809 265.254812 
L 1446.825169 259.949482 
L 1449.082247 267.889357 
L 1451.339326 274.69681 
L 1453.596404 280.533348 
L 1455.853483 285.537448 
L 1458.110562 289.827839 
L 1460.36764 293.506311 
L 1460.36764 293.506311 
" clip-path="url(#p8624c898e4)" style="fill: none; stroke: #0000ff; stroke-width: 5; stroke-linecap: square"/>
   </g>
   <g id="patch_15">
    <path d="M 1160.17618 336.640156 
L 1160.17618 31.720156 
" style="fill: none; stroke: #000000; stroke-width: 5; stroke-linejoin: miter; stroke-linecap: square"/>
   </g>
   <g id="patch_16">
    <path d="M 1160.17618 336.640156 
L 1461.12 336.640156 
" style="fill: none; stroke: #000000; stroke-width: 5; stroke-linejoin: miter; stroke-linecap: square"/>
   </g>
   <g id="patch_17">
    <path d="M 1235.412135 330.541756 
L 1310.64809 330.541756 
L 1310.64809 319.869556 
L 1235.412135 319.869556 
z
" style="fill: #8c5a2b; stroke: #8c5a2b; stroke-linejoin: miter"/>
   </g>
   <g id="text_37">
    <!-- Novel | Expert -->
    <g transform="translate(1243.250043 21.720156) scale(0.19 -0.19)">
     <use xlink:href="#DejaVuSans-4e"/>
     <use xlink:href="#DejaVuSans-6f" transform="translate(74.804688 0)"/>
     <use xlink:href="#DejaVuSans-76" transform="translate(135.986328 0)"/>
     <use xlink:href="#DejaVuSans-65" transform="translate(195.166016 0)"/>
     <use xlink:href="#DejaVuSans-6c" transform="translate(256.689453 0)"/>
     <use xlink:href="#DejaVuSans-20" transform="translate(284.472656 0)"/>
     <use xlink:href="#DejaVuSans-7c" transform="translate(316.259766 0)"/>
     <use xlink:href="#DejaVuSans-20" transform="translate(349.951172 0)"/>
     <use xlink:href="#DejaVuSans-45" transform="translate(381.738281 0)"/>
     <use xlink:href="#DejaVuSans-78" transform="translate(444.921875 0)"/>
     <use xlink:href="#DejaVuSans-70" transform="translate(504.101562 0)"/>
     <use xlink:href="#DejaVuSans-65" transform="translate(567.578125 0)"/>
     <use xlink:href="#DejaVuSans-72" transform="translate(629.101562 0)"/>
     <use xlink:href="#DejaVuSans-74" transform="translate(670.214844 0)"/>
    </g>
   </g>
  </g>
 </g>
 <defs>
  <clipPath id="p64dec58ed0">
   <rect x="121.92" y="31.720156" width="300.94382" height="304.92"/>
  </clipPath>
  <clipPath id="p7fb9fedf51">
   <rect x="468.005393" y="31.720156" width="300.94382" height="304.92"/>
  </clipPath>
  <clipPath id="p109b97b7f7">
   <rect x="814.090787" y="31.720156" width="300.94382" height="304.92"/>
  </clipPath>
  <clipPath id="p8624c898e4">
   <rect x="1160.17618" y="31.720156" width="300.94382" height="304.92"/>
  </clipPath>
 </defs>
</svg>
