<?xml version="1.0" encoding="utf-8" standalone="no"?>
<!DOCTYPE svg PUBLIC "-//W3C//DTD SVG 1.1//EN"
  "http://www.w3.org/Graphics/SVG/1.1/DTD/svg11.dtd">
<svg xmlns:xlink="http://www.w3.org/1999/xlink" width="872.39952pt" height="404.39952pt" viewBox="0 0 872.39952 404.39952" xmlns="http://www.w3.org/2000/svg" version="1.1">
 <metadata>
  <rdf:RDF xmlns:dc="http://purl.org/dc/elements/1.1/" xmlns:cc="http://creativecommons.org/ns#" xmlns:rdf="http://www.w3.org/1999/02/22-rdf-syntax-ns#">
   <cc:Work>
    <dc:type rdf:resource="http://purl.org/dc/dcmitype/StillImage"/>
    <dc:date>2026-03-25T11:55:42.363787</dc:date>
    <dc:format>image/svg+xml</dc:format>
    <dc:creator>
     <cc:Agent>
      <dc:title>Matplotlib v3.10.7, https://matplotlib.org/</dc:title>
     </cc:Agent>
    </dc:creator>
   </cc:Work>
  </rdf:RDF>
 </metadata>
 <defs>
  <style type="text/css">*{stroke-linejoin: round; stroke-linecap: butt}</style>
 </defs>
 <g id="figure_1">
  <g id="patch_1">
   <path d="M 0 404.39952 
L 872.39952 404.39952 
L 872.39952 0 
L 0 0 
z
" style="fill: #ffffff"/>
  </g>
  <g id="axes_1">
   <g id="patch_2">
    <path d="M 121.92 322.75952 
L 471.08351 322.75952 
L 471.08351 31.720156 
L 121.92 31.720156 
z
" style="fill: #ffffff"/>
   </g>
   <g id="matplotlib.axis_1">
    <g id="xtick_1">
     <g id="line2d_1">
      <defs>
       <path id="m4337f66666" d="M 0 0 
L 0 5 
" style="stroke: #000000; stroke-width: 1.6"/>
      </defs>
      <g>
       <use xlink:href="#m4337f66666" x="121.92" y="322.75952" style="stroke: #000000; stroke-width: 1.6"/>
      </g>
     </g>
     <g id="text_1">
      <!-- -1 -->
      <g transform="translate(105.9675 355.57452) scale(0.32 -0.32)">
       <defs>
        <path id="DejaVuSans-2d" d="M 313 2009 
L 1997 2009 
L 1997 1497 
L 313 1497 
L 313 2009 
z
" transform="scale(0.015625)"/>
        <path id="DejaVuSans-31" d="M 794 531 
L 1825 531 
L 1825 4091 
L 703 3866 
L 703 4441 
L 1819 4666 
L 2450 4666 
L 2450 531 
L 3481 531 
L 3481 0 
L 794 0 
L 794 531 
z
" transform="scale(0.015625)"/>
       </defs>
       <use xlink:href="#DejaVuSans-2d"/>
       <use xlink:href="#DejaVuSans-31" transform="translate(36.083984 0)"/>
      </g>
     </g>
    </g>
    <g id="xtick_2">
     <g id="line2d_2">
      <g>
       <use xlink:href="#m4337f66666" x="209.210878" y="322.75952" style="stroke: #000000; stroke-width: 1.6"/>
      </g>
     </g>
     <g id="text_2">
      <!-- 0 -->
      <g transform="translate(199.030878 355.57452) scale(0.32 -0.32)">
       <defs>
        <path id="DejaVuSans-30" d="M 2034 4250 
Q 1547 4250 1301 3770 
Q 1056 3291 1056 2328 
Q 1056 1369 1301 889 
Q 1547 409 2034 409 
Q 2525 409 2770 889 
Q 3016 1369 3016 2328 
Q 3016 3291 2770 3770 
Q 2525 4250 2034 4250 
z
M 2034 4750 
Q 2819 4750 3233 4129 
Q 3647 3509 3647 2328 
Q 3647 1150 3233 529 
Q 2819 -91 2034 -91 
Q 1250 -91 836 529 
Q 422 1150 422 2328 
Q 422 3509 836 4129 
Q 1250 4750 2034 4750 
z
" transform="scale(0.015625)"/>
       </defs>
       <use xlink:href="#DejaVuSans-30"/>
      </g>
     </g>
    </g>
    <g id="xtick_3">
     <g id="line2d_3">
      <g>
       <use xlink:href="#m4337f66666" x="296.501755" y="322.75952" style="stroke: #000000; stroke-width: 1.6"/>
      </g>
     </g>
     <g id="text_3">
      <!-- 1 -->
      <g transform="translate(286.321755 355.57452) scale(0.32 -0.32)">
       <use xlink:href="#DejaVuSans-31"/>
      </g>
     </g>
    </g>
    <g id="xtick_4">
     <g id="line2d_4">
      <g>
       <use xlink:href="#m4337f66666" x="383.792633" y="322.75952" style="stroke: #000000; stroke-width: 1.6"/>
      </g>
     </g>
     <g id="text_4">
      <!-- 2 -->
      <g transform="translate(373.612633 355.57452) scale(0.32 -0.32)">
       <defs>
        <path id="DejaVuSans-32" d="M 1228 531 
L 3431 531 
L 3431 0 
L 469 0 
L 469 531 
Q 828 903 1448 1529 
Q 2069 2156 2228 2338 
Q 2531 2678 2651 2914 
Q 2772 3150 2772 3378 
Q 2772 3750 2511 3984 
Q 2250 4219 1831 4219 
Q 1534 4219 1204 4116 
Q 875 4013 500 3803 
L 500 4441 
Q 881 4594 1212 4672 
Q 1544 4750 1819 4750 
Q 2544 4750 2975 4387 
Q 3406 4025 3406 3419 
Q 3406 3131 3298 2873 
Q 3191 2616 2906 2266 
Q 2828 2175 2409 1742 
Q 1991 1309 1228 531 
z
" transform="scale(0.015625)"/>
       </defs>
       <use xlink:href="#DejaVuSans-32"/>
      </g>
     </g>
    </g>
    <g id="xtick_5">
     <g id="line2d_5">
      <g>
       <use xlink:href="#m4337f66666" x="471.08351" y="322.75952" style="stroke: #000000; stroke-width: 1.6"/>
      </g>
     </g>
     <g id="text_5">
      <!-- 3 -->
      <g transform="translate(460.90351 355.57452) scale(0.32 -0.32)">
       <defs>
        <path id="DejaVuSans-33" d="M 2597 2516 
Q 3050 2419 3304 2112 
Q 3559 1806 3559 1356 
Q 3559 666 3084 287 
Q 2609 -91 1734 -91 
Q 1441 -91 1130 -33 
Q 819 25 488 141 
L 488 750 
Q 750 597 1062 519 
Q 1375 441 1716 441 
Q 2309 441 2620 675 
Q 2931 909 2931 1356 
Q 2931 1769 2642 2001 
Q 2353 2234 1838 2234 
L 1294 2234 
L 1294 2753 
L 1863 2753 
Q 2328 2753 2575 2939 
Q 2822 3125 2822 3475 
Q 2822 3834 2567 4026 
Q 2313 4219 1838 4219 
Q 1578 4219 1281 4162 
Q 984 4106 628 3988 
L 628 4550 
Q 988 4650 1302 4700 
Q 1616 4750 1894 4750 
Q 2613 4750 3031 4423 
Q 3450 4097 3450 3541 
Q 3450 3153 3228 2886 
Q 3006 2619 2597 2516 
z
" transform="scale(0.015625)"/>
       </defs>
       <use xlink:href="#DejaVuSans-33"/>
      </g>
     </g>
    </g>
    <g id="text_6">
     <!-- Time (s) -->
     <g transform="translate(231.449255 390.54452) scale(0.32 -0.32)">
      <defs>
       <path id="DejaVuSans-54" d="M -19 4666 
L 3928 4666 
L 3928 4134 
L 2272 4134 
L 2272 0 
L 1638 0 
L 1638 4134 
L -19 4134 
L -19 4666 
z
" transform="scale(0.015625)"/>
       <path id="DejaVuSans-69" d="M 603 3500 
L 1178 3500 
L 1178 0 
L 603 0 
L 603 3500 
z
M 603 4863 
L 1178 4863 
L 1178 4134 
L 603 4134 
L 603 4863 
z
" transform="scale(0.015625)"/>
       <path id="DejaVuSans-6d" d="M 3328 2828 
Q 3544 3216 3844 3400 
Q 4144 3584 4550 3584 
Q 5097 3584 5394 3201 
Q 5691 2819 5691 2113 
L 5691 0 
L 5113 0 
L 5113 2094 
Q 5113 2597 4934 2840 
Q 4756 3084 4391 3084 
Q 3944 3084 3684 2787 
Q 3425 2491 3425 1978 
L 3425 0 
L 2847 0 
L 2847 2094 
Q 2847 2600 2669 2842 
Q 2491 3084 2119 3084 
Q 1678 3084 1418 2786 
Q 1159 2488 1159 1978 
L 1159 0 
L 581 0 
L 581 3500 
L 1159 3500 
L 1159 2956 
Q 1356 3278 1631 3431 
Q 1906 3584 2284 3584 
Q 2666 3584 2933 3390 
Q 3200 3197 3328 2828 
z
" transform="scale(0.015625)"/>
       <path id="DejaVuSans-65" d="M 3597 1894 
L 3597 1613 
L 953 1613 
Q 991 1019 1311 708 
Q 1631 397 2203 397 
Q 2534 397 2845 478 
Q 3156 559 3463 722 
L 3463 178 
Q 3153 47 2828 -22 
Q 2503 -91 2169 -91 
Q 1331 -91 842 396 
Q 353 884 353 1716 
Q 353 2575 817 3079 
Q 1281 3584 2069 3584 
Q 2775 3584 3186 3129 
Q 3597 2675 3597 1894 
z
M 3022 2063 
Q 3016 2534 2758 2815 
Q 2500 3097 2075 3097 
Q 1594 3097 1305 2825 
Q 1016 2553 972 2059 
L 3022 2063 
z
" transform="scale(0.015625)"/>
       <path id="DejaVuSans-20" transform="scale(0.015625)"/>
       <path id="DejaVuSans-28" d="M 1984 4856 
Q 1566 4138 1362 3434 
Q 1159 2731 1159 2009 
Q 1159 1288 1364 580 
Q 1569 -128 1984 -844 
L 1484 -844 
Q 1016 -109 783 600 
Q 550 1309 550 2009 
Q 550 2706 781 3412 
Q 1013 4119 1484 4856 
L 1984 4856 
z
" transform="scale(0.015625)"/>
       <path id="DejaVuSans-73" d="M 2834 3397 
L 2834 2853 
Q 2591 2978 2328 3040 
Q 2066 3103 1784 3103 
Q 1356 3103 1142 2972 
Q 928 2841 928 2578 
Q 928 2378 1081 2264 
Q 1234 2150 1697 2047 
L 1894 2003 
Q 2506 1872 2764 1633 
Q 3022 1394 3022 966 
Q 3022 478 2636 193 
Q 2250 -91 1575 -91 
Q 1294 -91 989 -36 
Q 684 19 347 128 
L 347 722 
Q 666 556 975 473 
Q 1284 391 1588 391 
Q 1994 391 2212 530 
Q 2431 669 2431 922 
Q 2431 1156 2273 1281 
Q 2116 1406 1581 1522 
L 1381 1569 
Q 847 1681 609 1914 
Q 372 2147 372 2553 
Q 372 3047 722 3315 
Q 1072 3584 1716 3584 
Q 2034 3584 2315 3537 
Q 2597 3491 2834 3397 
z
" transform="scale(0.015625)"/>
       <path id="DejaVuSans-29" d="M 513 4856 
L 1013 4856 
Q 1481 4119 1714 3412 
Q 1947 2706 1947 2009 
Q 1947 1309 1714 600 
Q 1481 -109 1013 -844 
L 513 -844 
Q 928 -128 1133 580 
Q 1338 1288 1338 2009 
Q 1338 2731 1133 3434 
Q 928 4138 513 4856 
z
" transform="scale(0.015625)"/>
      </defs>
      <use xlink:href="#DejaVuSans-54"/>
      <use xlink:href="#DejaVuSans-69" transform="translate(57.958984 0)"/>
      <use xlink:href="#DejaVuSans-6d" transform="translate(85.742188 0)"/>
      <use xlink:href="#DejaVuSans-65" transform="translate(183.154297 0)"/>
      <use xlink:href="#DejaVuSans-20" transform="translate(244.677734 0)"/>
      <use xlink:href="#DejaVuSans-28" transform="translate(276.464844 0)"/>
      <use xlink:href="#DejaVuSans-73" transform="translate(315.478516 0)"/>
      <use xlink:href="#DejaVuSans-29" transform="translate(367.578125 0)"/>
     </g>
    </g>
   </g>
   <g id="matplotlib.axis_2">
    <g id="ytick_1">
     <g id="line2d_6">
      <defs>
       <path id="m1acb898b8c" d="M 0 0 
L -5 0 
" style="stroke: #000000; stroke-width: 1.6"/>
      </defs>
      <g>
       <use xlink:href="#m1acb898b8c" x="121.92" y="302.689119" style="stroke: #000000; stroke-width: 1.6"/>
      </g>
     </g>
     <g id="text_7">
      <!-- 0.00 -->
      <g transform="translate(42.17 314.846619) scale(0.32 -0.32)">
       <defs>
        <path id="DejaVuSans-2e" d="M 684 794 
L 1344 794 
L 1344 0 
L 684 0 
L 684 794 
z
" transform="scale(0.015625)"/>
       </defs>
       <use xlink:href="#DejaVuSans-30"/>
       <use xlink:href="#DejaVuSans-2e" transform="translate(63.623047 0)"/>
       <use xlink:href="#DejaVuSans-30" transform="translate(95.410156 0)"/>
       <use xlink:href="#DejaVuSans-30" transform="translate(159.033203 0)"/>
      </g>
     </g>
    </g>
    <g id="ytick_2">
     <g id="line2d_7">
      <g>
       <use xlink:href="#m1acb898b8c" x="121.92" y="197.874952" style="stroke: #000000; stroke-width: 1.6"/>
      </g>
     </g>
     <g id="text_8">
      <!-- 0.05 -->
      <g transform="translate(42.17 210.032452) scale(0.32 -0.32)">
       <defs>
        <path id="DejaVuSans-35" d="M 691 4666 
L 3169 4666 
L 3169 4134 
L 1269 4134 
L 1269 2991 
Q 1406 3038 1543 3061 
Q 1681 3084 1819 3084 
Q 2600 3084 3056 2656 
Q 3513 2228 3513 1497 
Q 3513 744 3044 326 
Q 2575 -91 1722 -91 
Q 1428 -91 1123 -41 
Q 819 9 494 109 
L 494 744 
Q 775 591 1075 516 
Q 1375 441 1709 441 
Q 2250 441 2565 725 
Q 2881 1009 2881 1497 
Q 2881 1984 2565 2268 
Q 2250 2553 1709 2553 
Q 1456 2553 1204 2497 
Q 953 2441 691 2322 
L 691 4666 
z
" transform="scale(0.015625)"/>
       </defs>
       <use xlink:href="#DejaVuSans-30"/>
       <use xlink:href="#DejaVuSans-2e" transform="translate(63.623047 0)"/>
       <use xlink:href="#DejaVuSans-30" transform="translate(95.410156 0)"/>
       <use xlink:href="#DejaVuSans-35" transform="translate(159.033203 0)"/>
      </g>
     </g>
    </g>
    <g id="ytick_3">
     <g id="line2d_8">
      <g>
       <use xlink:href="#m1acb898b8c" x="121.92" y="93.060785" style="stroke: #000000; stroke-width: 1.6"/>
      </g>
     </g>
     <g id="text_9">
      <!-- 0.10 -->
      <g transform="translate(42.17 105.218285) scale(0.32 -0.32)">
       <use xlink:href="#DejaVuSans-30"/>
       <use xlink:href="#DejaVuSans-2e" transform="translate(63.623047 0)"/>
       <use xlink:href="#DejaVuSans-31" transform="translate(95.410156 0)"/>
       <use xlink:href="#DejaVuSans-30" transform="translate(159.033203 0)"/>
      </g>
     </g>
    </g>
    <g id="text_10">
     <!-- Neural Activity -->
     <g transform="translate(31.515 294.944838) rotate(-90) scale(0.32 -0.32)">
      <defs>
       <path id="DejaVuSans-4e" d="M 628 4666 
L 1478 4666 
L 3547 763 
L 3547 4666 
L 4159 4666 
L 4159 0 
L 3309 0 
L 1241 3903 
L 1241 0 
L 628 0 
L 628 4666 
z
" transform="scale(0.015625)"/>
       <path id="DejaVuSans-75" d="M 544 1381 
L 544 3500 
L 1119 3500 
L 1119 1403 
Q 1119 906 1312 657 
Q 1506 409 1894 409 
Q 2359 409 2629 706 
Q 2900 1003 2900 1516 
L 2900 3500 
L 3475 3500 
L 3475 0 
L 2900 0 
L 2900 538 
Q 2691 219 2414 64 
Q 2138 -91 1772 -91 
Q 1169 -91 856 284 
Q 544 659 544 1381 
z
M 1991 3584 
L 1991 3584 
z
" transform="scale(0.015625)"/>
       <path id="DejaVuSans-72" d="M 2631 2963 
Q 2534 3019 2420 3045 
Q 2306 3072 2169 3072 
Q 1681 3072 1420 2755 
Q 1159 2438 1159 1844 
L 1159 0 
L 581 0 
L 581 3500 
L 1159 3500 
L 1159 2956 
Q 1341 3275 1631 3429 
Q 1922 3584 2338 3584 
Q 2397 3584 2469 3576 
Q 2541 3569 2628 3553 
L 2631 2963 
z
" transform="scale(0.015625)"/>
       <path id="DejaVuSans-61" d="M 2194 1759 
Q 1497 1759 1228 1600 
Q 959 1441 959 1056 
Q 959 750 1161 570 
Q 1363 391 1709 391 
Q 2188 391 2477 730 
Q 2766 1069 2766 1631 
L 2766 1759 
L 2194 1759 
z
M 3341 1997 
L 3341 0 
L 2766 0 
L 2766 531 
Q 2569 213 2275 61 
Q 1981 -91 1556 -91 
Q 1019 -91 701 211 
Q 384 513 384 1019 
Q 384 1609 779 1909 
Q 1175 2209 1959 2209 
L 2766 2209 
L 2766 2266 
Q 2766 2663 2505 2880 
Q 2244 3097 1772 3097 
Q 1472 3097 1187 3025 
Q 903 2953 641 2809 
L 641 3341 
Q 956 3463 1253 3523 
Q 1550 3584 1831 3584 
Q 2591 3584 2966 3190 
Q 3341 2797 3341 1997 
z
" transform="scale(0.015625)"/>
       <path id="DejaVuSans-6c" d="M 603 4863 
L 1178 4863 
L 1178 0 
L 603 0 
L 603 4863 
z
" transform="scale(0.015625)"/>
       <path id="DejaVuSans-41" d="M 2188 4044 
L 1331 1722 
L 3047 1722 
L 2188 4044 
z
M 1831 4666 
L 2547 4666 
L 4325 0 
L 3669 0 
L 3244 1197 
L 1141 1197 
L 716 0 
L 50 0 
L 1831 4666 
z
" transform="scale(0.015625)"/>
       <path id="DejaVuSans-63" d="M 3122 3366 
L 3122 2828 
Q 2878 2963 2633 3030 
Q 2388 3097 2138 3097 
Q 1578 3097 1268 2742 
Q 959 2388 959 1747 
Q 959 1106 1268 751 
Q 1578 397 2138 397 
Q 2388 397 2633 464 
Q 2878 531 3122 666 
L 3122 134 
Q 2881 22 2623 -34 
Q 2366 -91 2075 -91 
Q 1284 -91 818 406 
Q 353 903 353 1747 
Q 353 2603 823 3093 
Q 1294 3584 2113 3584 
Q 2378 3584 2631 3529 
Q 2884 3475 3122 3366 
z
" transform="scale(0.015625)"/>
       <path id="DejaVuSans-74" d="M 1172 4494 
L 1172 3500 
L 2356 3500 
L 2356 3053 
L 1172 3053 
L 1172 1153 
Q 1172 725 1289 603 
Q 1406 481 1766 481 
L 2356 481 
L 2356 0 
L 1766 0 
Q 1100 0 847 248 
Q 594 497 594 1153 
L 594 3053 
L 172 3053 
L 172 3500 
L 594 3500 
L 594 4494 
L 1172 4494 
z
" transform="scale(0.015625)"/>
       <path id="DejaVuSans-76" d="M 191 3500 
L 800 3500 
L 1894 563 
L 2988 3500 
L 3597 3500 
L 2284 0 
L 1503 0 
L 191 3500 
z
" transform="scale(0.015625)"/>
       <path id="DejaVuSans-79" d="M 2059 -325 
Q 1816 -950 1584 -1140 
Q 1353 -1331 966 -1331 
L 506 -1331 
L 506 -850 
L 844 -850 
Q 1081 -850 1212 -737 
Q 1344 -625 1503 -206 
L 1606 56 
L 191 3500 
L 800 3500 
L 1894 763 
L 2988 3500 
L 3597 3500 
L 2059 -325 
z
" transform="scale(0.015625)"/>
      </defs>
      <use xlink:href="#DejaVuSans-4e"/>
      <use xlink:href="#DejaVuSans-65" transform="translate(74.804688 0)"/>
      <use xlink:href="#DejaVuSans-75" transform="translate(136.328125 0)"/>
      <use xlink:href="#DejaVuSans-72" transform="translate(199.707031 0)"/>
      <use xlink:href="#DejaVuSans-61" transform="translate(240.820312 0)"/>
      <use xlink:href="#DejaVuSans-6c" transform="translate(302.099609 0)"/>
      <use xlink:href="#DejaVuSans-20" transform="translate(329.882812 0)"/>
      <use xlink:href="#DejaVuSans-41" transform="translate(361.669922 0)"/>
      <use xlink:href="#DejaVuSans-63" transform="translate(428.328125 0)"/>
      <use xlink:href="#DejaVuSans-74" transform="translate(483.308594 0)"/>
      <use xlink:href="#DejaVuSans-69" transform="translate(522.517578 0)"/>
      <use xlink:href="#DejaVuSans-76" transform="translate(550.300781 0)"/>
      <use xlink:href="#DejaVuSans-69" transform="translate(609.480469 0)"/>
      <use xlink:href="#DejaVuSans-74" transform="translate(637.263672 0)"/>
      <use xlink:href="#DejaVuSans-79" transform="translate(676.472656 0)"/>
     </g>
    </g>
   </g>
   <g id="line2d_9">
    <path d="M 122.792909 281.386833 
L 125.411635 284.425072 
L 128.030361 287.029982 
L 128.90327 287.812939 
L 129.776179 288.318297 
L 130.649088 286.304294 
L 131.521997 276.965486 
L 132.394905 277.257043 
L 133.267814 278.528647 
L 134.140723 277.886483 
L 135.013632 275.693232 
L 135.88654 268.679743 
L 137.632358 271.995658 
L 139.378176 274.98827 
L 141.123993 277.689104 
L 141.996902 277.444272 
L 142.869811 266.103264 
L 143.742719 262.723645 
L 144.615628 262.430946 
L 145.488537 260.966518 
L 146.361446 262.593203 
L 148.107263 266.502556 
L 149.853081 270.030746 
L 151.598898 273.214938 
L 154.217625 277.418694 
L 156.836351 281.02289 
L 159.455077 284.113036 
L 160.327986 277.15076 
L 161.200895 277.647658 
L 163.819621 281.219198 
L 165.565439 283.312516 
L 166.438348 282.580899 
L 167.311256 283.586311 
L 168.184165 283.911359 
L 170.802891 286.589538 
L 172.548709 288.159247 
L 173.421618 287.42412 
L 176.040344 289.601291 
L 178.65907 291.467943 
L 179.531979 292.029001 
L 180.404888 288.45151 
L 183.023614 290.482149 
L 184.769432 291.672329 
L 185.642341 289.367123 
L 188.261067 291.267174 
L 190.879793 292.896229 
L 192.625611 293.851036 
L 193.49852 293.246953 
L 195.244337 294.167564 
L 196.117246 289.063041 
L 198.735972 291.00646 
L 199.608881 291.590593 
L 200.48179 282.895005 
L 201.354699 283.615677 
L 202.227607 284.56935 
L 203.100516 284.813253 
L 203.973425 285.707047 
L 204.846334 277.329761 
L 207.46506 280.946641 
L 210.083786 284.047662 
L 212.702513 286.7064 
L 215.321239 288.985936 
L 217.939965 290.940353 
L 220.558692 292.616021 
L 223.177418 294.052697 
L 225.796144 295.284467 
L 229.287779 296.657984 
L 232.779414 297.776722 
L 236.27105 298.687941 
L 240.635593 299.593084 
L 245.873046 300.413249 
L 251.983407 301.099794 
L 258.966678 301.634729 
L 267.695765 302.057817 
L 279.04358 302.365045 
L 295.628846 302.566829 
L 299.99339 302.594493 
L 300.866299 300.300424 
L 305.230843 300.840792 
L 306.103752 296.792168 
L 309.595387 297.886016 
L 310.468295 291.352843 
L 311.341204 288.390428 
L 313.087022 289.784552 
L 313.959931 282.378934 
L 316.578657 285.275675 
L 317.451566 286.146347 
L 318.324474 279.572241 
L 319.197383 280.728085 
L 320.070292 266.387166 
L 320.943201 257.236774 
L 321.816109 253.859603 
L 323.561927 258.620482 
L 325.307745 262.917174 
L 327.053562 266.794938 
L 328.79938 270.294621 
L 329.672288 266.968207 
L 331.418106 270.450996 
L 333.163924 273.594213 
L 335.78265 277.743874 
L 338.401376 281.301691 
L 341.020103 284.352073 
L 341.893011 284.170602 
L 342.76592 284.347138 
L 343.638829 283.633781 
L 344.511738 281.247133 
L 345.384646 278.280255 
L 346.257555 278.568536 
L 348.876282 282.008736 
L 351.495008 284.958275 
L 352.367917 285.844818 
L 353.240825 285.045042 
L 354.113734 285.927247 
L 354.986643 283.436429 
L 355.859552 283.92001 
L 356.73246 284.858465 
L 357.605369 276.250075 
L 358.478278 270.255637 
L 359.351187 271.877311 
L 360.224096 269.081944 
L 361.969913 272.358643 
L 363.715731 275.315865 
L 366.334457 279.219977 
L 367.207366 278.25811 
L 369.826092 281.742582 
L 370.699001 270.481018 
L 371.57191 264.590828 
L 373.317727 268.30541 
L 374.190636 266.520556 
L 375.063545 268.328986 
L 375.936454 266.070762 
L 377.682271 269.641052 
L 378.55518 270.787766 
L 380.300997 273.898149 
L 382.046815 276.705269 
L 382.919724 272.571566 
L 383.792633 265.994259 
L 385.53845 269.57201 
L 386.411359 271.227867 
L 387.284268 271.700585 
L 388.157176 270.710136 
L 389.902994 273.828087 
L 392.52172 277.944393 
L 395.140447 281.47361 
L 397.759173 284.499471 
L 400.377899 287.093771 
L 402.996626 289.318058 
L 403.869534 289.986611 
L 404.742443 288.079391 
L 405.615352 288.809877 
L 406.488261 283.168181 
L 407.361169 284.144228 
L 408.234078 275.695227 
L 409.979896 278.327132 
L 410.852805 276.913058 
L 413.471531 280.589371 
L 416.090257 283.741348 
L 418.708984 286.443775 
L 421.32771 288.760767 
L 422.200619 287.611395 
L 423.073527 282.263948 
L 424.819345 284.255402 
L 425.692254 277.758423 
L 428.31098 281.314164 
L 430.929706 284.362768 
L 431.802615 285.279086 
L 432.675524 280.355265 
L 433.548433 278.668255 
L 434.421341 275.260317 
L 435.29425 270.230072 
L 437.040068 273.394829 
L 437.912977 274.859544 
L 438.785885 275.607541 
L 439.658794 272.678229 
L 441.404612 275.60429 
L 442.27752 276.958532 
L 443.150429 275.704936 
L 445.769156 279.553556 
L 448.387882 282.853267 
L 451.006608 285.682356 
L 453.625335 288.107946 
L 455.371152 289.52961 
L 456.244061 284.588993 
L 457.11697 268.990447 
L 458.862787 272.276068 
L 459.735696 273.796721 
L 460.608605 266.466637 
L 462.354422 269.99833 
L 463.227331 267.930355 
L 464.10024 255.763283 
L 464.973149 256.380922 
L 465.846057 248.245641 
L 466.718966 248.868265 
L 468.464784 254.115802 
L 470.210601 258.851699 
L 470.210601 258.851699 
" clip-path="url(#p264e85cce8)" style="fill: none; stroke: #000000; stroke-width: 5; stroke-linecap: square"/>
   </g>
   <g id="line2d_10">
    <path d="M 122.792909 271.360066 
L 123.665818 258.75119 
L 124.538726 256.534319 
L 125.411635 256.181329 
L 126.284544 252.317445 
L 128.030361 257.228684 
L 128.90327 257.08381 
L 129.776179 251.14415 
L 130.649088 242.368349 
L 131.521997 237.636033 
L 132.394905 239.24701 
L 134.140723 245.432619 
L 135.013632 248.295444 
L 135.88654 249.76375 
L 136.759449 252.41002 
L 137.632358 252.960429 
L 138.505267 253.75747 
L 139.378176 256.204054 
L 140.251084 256.785371 
L 141.996902 261.260989 
L 143.742719 265.300234 
L 145.488537 268.945649 
L 147.234354 272.235637 
L 148.107263 273.758311 
L 148.980172 271.219669 
L 150.72599 274.287941 
L 151.598898 270.015383 
L 152.471807 267.995406 
L 153.344716 269.730093 
L 154.217625 269.325499 
L 155.090533 264.265034 
L 160.327986 274.252524 
L 161.200895 275.674355 
L 162.073804 276.301454 
L 164.69253 280.064994 
L 167.311256 283.291761 
L 168.184165 281.828521 
L 170.802891 284.803765 
L 172.548709 286.547587 
L 173.421618 281.987969 
L 174.294527 280.900008 
L 175.167435 281.989464 
L 176.040344 277.87455 
L 176.913253 278.22086 
L 177.786162 279.047691 
L 178.65907 280.229762 
L 179.531979 279.210243 
L 181.277797 281.499433 
L 182.150705 281.410866 
L 183.896523 283.485497 
L 184.769432 282.665641 
L 187.388158 285.521491 
L 189.133976 287.195335 
L 190.006884 281.449456 
L 190.879793 278.703435 
L 191.752702 279.90272 
L 192.625611 276.78318 
L 194.371428 279.309011 
L 196.117246 272.366891 
L 197.863063 275.323309 
L 198.735972 276.691599 
L 199.608881 273.398585 
L 200.48179 267.553187 
L 201.354699 267.695835 
L 203.100516 271.107683 
L 204.846334 274.186873 
L 207.46506 278.252007 
L 208.337969 277.463426 
L 209.210878 274.387095 
L 210.083786 275.723834 
L 210.956695 276.480884 
L 211.829604 276.203542 
L 214.44833 279.981047 
L 216.194148 282.195084 
L 217.067056 274.177996 
L 217.939965 273.938416 
L 220.558692 278.038986 
L 223.177418 281.554713 
L 224.050327 282.611433 
L 224.923235 280.040834 
L 225.796144 281.173248 
L 226.669053 281.350762 
L 228.414871 283.431252 
L 229.287779 283.821717 
L 230.160688 283.890714 
L 231.033597 281.017309 
L 231.906506 282.100899 
L 232.779414 279.962412 
L 233.652323 279.981135 
L 235.398141 282.195162 
L 236.27105 283.143818 
L 237.143958 283.08765 
L 239.762685 285.88331 
L 242.381411 288.280238 
L 243.25432 289.000683 
L 244.127229 286.515954 
L 245.000137 287.324612 
L 245.873046 285.589992 
L 246.745955 276.766431 
L 247.618864 273.119314 
L 250.23759 277.336709 
L 251.110499 278.60433 
L 251.983407 275.964502 
L 252.856316 272.501822 
L 254.602134 275.445083 
L 257.22086 279.330765 
L 258.966678 281.608206 
L 259.839586 277.652373 
L 262.458313 281.223239 
L 265.077039 284.28481 
L 266.822857 286.079231 
L 267.695765 281.638276 
L 268.568674 281.509679 
L 269.441583 278.19513 
L 271.187401 280.583295 
L 272.060309 281.218456 
L 272.933218 280.785139 
L 273.806127 278.895668 
L 274.679036 280.085341 
L 275.551944 278.134335 
L 276.424853 276.465088 
L 278.170671 279.021932 
L 279.04358 277.592966 
L 280.789397 268.115317 
L 282.535215 271.486264 
L 284.281032 274.528542 
L 286.899758 278.544946 
L 287.772667 279.752155 
L 288.645576 278.948154 
L 289.518485 277.716339 
L 290.391394 278.964977 
L 291.264302 279.024699 
L 292.137211 279.610112 
L 294.755937 282.901756 
L 296.501755 284.831025 
L 297.374664 282.567965 
L 299.99339 285.437744 
L 300.866299 286.300313 
L 301.739208 283.370357 
L 304.357934 286.125696 
L 306.97666 288.488055 
L 308.722478 289.872659 
L 309.595387 286.752746 
L 310.468295 279.871988 
L 311.341204 281.012846 
L 312.214113 278.358416 
L 313.087022 279.220869 
L 315.705748 282.568027 
L 318.324474 285.437799 
L 320.943201 287.898269 
L 323.561927 290.007815 
L 324.434836 283.18205 
L 326.180653 285.083991 
L 327.053562 282.802344 
L 328.79938 284.587398 
L 331.418106 287.169156 
L 334.036832 289.382692 
L 334.909741 288.491008 
L 335.78265 276.996477 
L 336.655559 268.635016 
L 338.401376 271.955292 
L 339.274285 273.491984 
L 340.147194 273.789116 
L 342.76592 277.882487 
L 344.511738 271.995586 
L 346.257555 274.988205 
L 348.876282 278.939049 
L 351.495008 282.326403 
L 354.113734 285.230637 
L 356.73246 287.720653 
L 358.478278 289.180078 
L 359.351187 285.284548 
L 360.224096 286.154777 
L 361.097004 282.83864 
L 363.715731 285.669816 
L 364.588639 286.520782 
L 365.461548 280.462375 
L 366.334457 281.573713 
L 367.207366 279.239096 
L 369.826092 282.583656 
L 372.444818 285.451198 
L 373.317727 286.313095 
L 374.190636 285.165332 
L 375.063545 278.569948 
L 376.809362 280.921567 
L 378.55518 282.987447 
L 379.428089 280.672936 
L 382.046815 283.812996 
L 383.792633 285.653419 
L 384.665541 284.590615 
L 386.411359 286.35522 
L 387.284268 284.037354 
L 388.157176 279.335338 
L 389.030085 276.508659 
L 389.902994 275.638811 
L 390.775903 268.692289 
L 391.648811 267.604544 
L 392.52172 269.317581 
L 393.394629 269.808885 
L 394.267538 270.762562 
L 395.140447 269.269659 
L 396.886264 272.528057 
L 398.632082 275.46876 
L 401.250808 279.351066 
L 403.869534 282.679657 
L 406.488261 285.533508 
L 409.106987 287.980328 
L 411.725713 290.078169 
L 412.598622 290.708717 
L 413.471531 288.520941 
L 414.34444 286.712096 
L 415.217348 285.776749 
L 417.836075 288.188876 
L 418.708984 285.797834 
L 421.32771 288.206953 
L 422.200619 288.931062 
L 423.073527 288.580748 
L 425.692254 290.592955 
L 427.438071 291.77233 
L 428.31098 291.604423 
L 430.929706 293.185378 
L 433.548433 294.540849 
L 436.167159 295.702997 
L 437.040068 292.269619 
L 439.658794 293.755701 
L 442.27752 295.02983 
L 443.150429 295.412795 
L 444.023338 295.392223 
L 444.896247 294.997435 
L 445.769156 293.645216 
L 446.642064 293.574456 
L 449.260791 294.874435 
L 451.006608 295.636366 
L 451.879517 283.368891 
L 453.625335 275.412551 
L 456.244061 279.302873 
L 458.862787 282.638336 
L 461.481513 285.498079 
L 462.354422 280.696262 
L 463.227331 280.621527 
L 464.10024 276.050662 
L 464.973149 276.252564 
L 465.846057 272.709796 
L 467.591875 275.63278 
L 470.210601 279.491691 
L 470.210601 279.491691 
" clip-path="url(#p264e85cce8)" style="fill: none; stroke: #ff0000; stroke-width: 5; stroke-linecap: square"/>
   </g>
   <g id="line2d_11">
    <path d="M 122.792909 285.68899 
L 125.411635 288.113635 
L 128.030361 290.192464 
L 129.776179 291.410887 
L 130.649088 289.210291 
L 131.521997 280.847559 
L 134.140723 283.962713 
L 136.759449 286.633568 
L 137.632358 287.436346 
L 138.505267 274.953433 
L 141.123993 278.909237 
L 141.996902 280.098231 
L 142.869811 268.068134 
L 143.742719 269.359329 
L 144.615628 270.438288 
L 146.361446 265.130195 
L 148.107263 268.792193 
L 149.853081 272.097144 
L 151.598898 275.079861 
L 153.344716 277.771765 
L 154.217625 277.218108 
L 156.836351 280.850911 
L 159.455077 283.965585 
L 160.327986 284.901761 
L 161.200895 283.201476 
L 163.819621 285.980902 
L 166.438348 288.363912 
L 169.057074 290.407046 
L 169.929983 291.02115 
L 171.6758 286.859536 
L 172.548709 287.651016 
L 173.421618 287.292569 
L 176.040344 289.488502 
L 178.65907 291.371241 
L 179.531979 282.755176 
L 180.404888 277.346974 
L 181.277797 277.531979 
L 183.896523 281.120018 
L 186.515249 284.196312 
L 189.133976 286.83385 
L 191.752702 289.095207 
L 192.625611 286.544053 
L 193.49852 285.48134 
L 194.371428 286.341729 
L 195.244337 286.252516 
L 196.117246 277.443428 
L 196.990155 272.360687 
L 197.863063 271.407437 
L 199.608881 274.457402 
L 202.227607 278.483952 
L 203.100516 279.34736 
L 205.719242 282.67648 
L 208.337969 285.530784 
L 210.956695 287.977992 
L 213.575421 290.076167 
L 216.194148 291.87509 
L 218.812874 293.417441 
L 221.4316 294.739814 
L 224.923235 296.214361 
L 228.414871 297.415388 
L 231.906506 298.393632 
L 236.27105 299.365353 
L 240.635593 300.117253 
L 245.873046 300.798561 
L 251.983407 301.368872 
L 259.839586 301.857034 
L 269.441583 302.215829 
L 282.535215 302.469848 
L 299.99339 302.610514 
L 300.866299 293.561126 
L 303.485025 294.863007 
L 306.97666 296.314702 
L 310.468295 297.497116 
L 313.087022 298.237626 
L 313.959931 292.475067 
L 316.578657 293.931847 
L 317.451566 294.36971 
L 318.324474 289.977586 
L 319.197383 290.613162 
L 320.070292 280.724496 
L 322.689018 283.8572 
L 325.307745 286.543103 
L 327.926471 288.845929 
L 328.79938 289.538088 
L 329.672288 278.624576 
L 331.418106 280.970869 
L 332.291015 277.043678 
L 334.909741 280.701361 
L 335.78265 278.377578 
L 338.401376 281.845013 
L 340.147194 283.777124 
L 341.020103 284.722724 
L 341.893011 279.993073 
L 342.76592 266.521864 
L 343.638829 259.151602 
L 344.511738 257.949401 
L 345.384646 257.612341 
L 346.257555 259.866181 
L 347.130464 253.546288 
L 348.876282 258.337716 
L 350.622099 262.661979 
L 351.495008 264.663337 
L 352.367917 265.333841 
L 353.240825 265.210739 
L 354.986643 268.864881 
L 356.73246 272.162745 
L 358.478278 275.139067 
L 359.351187 272.240559 
L 360.224096 271.836088 
L 361.097004 273.37874 
L 361.969913 269.863647 
L 362.842822 267.30746 
L 364.588639 270.757174 
L 366.334457 273.87054 
L 367.207366 275.31147 
L 368.080275 272.333124 
L 368.953183 273.850925 
L 369.826092 272.131132 
L 370.699001 271.175414 
L 372.444818 274.248 
L 373.317727 275.670058 
L 374.190636 269.215033 
L 375.063545 265.384984 
L 375.936454 259.644917 
L 376.809362 261.142019 
L 378.55518 265.19286 
L 380.300997 268.848748 
L 382.046815 272.148185 
L 382.919724 271.516761 
L 384.665541 274.556066 
L 385.53845 275.96272 
L 386.411359 276.914845 
L 389.030085 280.590901 
L 391.648811 283.74266 
L 394.267538 286.444898 
L 396.886264 288.76173 
L 399.50499 290.748125 
L 402.123717 292.451209 
L 404.742443 293.911391 
L 405.615352 294.350278 
L 406.488261 292.460168 
L 409.106987 293.919072 
L 409.979896 294.357575 
L 411.725713 287.392268 
L 412.598622 288.157111 
L 413.471531 275.147003 
L 414.34444 273.643226 
L 415.217348 275.09552 
L 416.090257 269.53704 
L 417.836075 272.769369 
L 418.708984 274.265357 
L 419.581892 269.442162 
L 421.32771 272.68374 
L 423.073527 275.609264 
L 425.692254 279.471529 
L 428.31098 282.78294 
L 429.183889 283.778249 
L 430.056798 284.036903 
L 430.929706 284.969515 
L 431.802615 284.555624 
L 432.675524 279.027998 
L 433.548433 280.211055 
L 434.421341 279.764162 
L 435.29425 270.696015 
L 437.040068 273.815344 
L 439.658794 277.933465 
L 442.27752 281.464243 
L 443.150429 282.525486 
L 444.023338 282.50496 
L 446.642064 285.383726 
L 449.260791 287.851908 
L 451.879517 289.968065 
L 454.498243 291.782406 
L 457.11697 293.337976 
L 457.989878 293.805533 
L 458.862787 292.221778 
L 461.481513 293.714683 
L 462.354422 293.579831 
L 463.227331 294.035295 
L 464.10024 289.43248 
L 465.846057 290.725002 
L 466.718966 287.47654 
L 467.591875 288.237169 
L 468.464784 280.977353 
L 470.210601 283.094251 
L 470.210601 283.094251 
" clip-path="url(#p264e85cce8)" style="fill: none; stroke: #0000ff; stroke-width: 5; stroke-linecap: square"/>
   </g>
   <g id="patch_3">
    <path d="M 121.92 322.75952 
L 121.92 31.720156 
" style="fill: none; stroke: #000000; stroke-width: 5; stroke-linejoin: miter; stroke-linecap: square"/>
   </g>
   <g id="patch_4">
    <path d="M 121.92 322.75952 
L 471.08351 322.75952 
" style="fill: none; stroke: #000000; stroke-width: 5; stroke-linejoin: miter; stroke-linecap: square"/>
   </g>
   <g id="patch_5">
    <path d="M 209.210878 316.938733 
L 296.501755 316.938733 
L 296.501755 306.752355 
L 209.210878 306.752355 
z
" style="fill: #8c5a2b; stroke: #8c5a2b; stroke-linejoin: miter"/>
   </g>
   <g id="text_11">
    <!-- Novel | Naive -->
    <g transform="translate(233.199099 21.720156) scale(0.19 -0.19)">
     <defs>
      <path id="DejaVuSans-6f" d="M 1959 3097 
Q 1497 3097 1228 2736 
Q 959 2375 959 1747 
Q 959 1119 1226 758 
Q 1494 397 1959 397 
Q 2419 397 2687 759 
Q 2956 1122 2956 1747 
Q 2956 2369 2687 2733 
Q 2419 3097 1959 3097 
z
M 1959 3584 
Q 2709 3584 3137 3096 
Q 3566 2609 3566 1747 
Q 3566 888 3137 398 
Q 2709 -91 1959 -91 
Q 1206 -91 779 398 
Q 353 888 353 1747 
Q 353 2609 779 3096 
Q 1206 3584 1959 3584 
z
" transform="scale(0.015625)"/>
      <path id="DejaVuSans-7c" d="M 1344 4891 
L 1344 -1509 
L 813 -1509 
L 813 4891 
L 1344 4891 
z
" transform="scale(0.015625)"/>
     </defs>
     <use xlink:href="#DejaVuSans-4e"/>
     <use xlink:href="#DejaVuSans-6f" transform="translate(74.804688 0)"/>
     <use xlink:href="#DejaVuSans-76" transform="translate(135.986328 0)"/>
     <use xlink:href="#DejaVuSans-65" transform="translate(195.166016 0)"/>
     <use xlink:href="#DejaVuSans-6c" transform="translate(256.689453 0)"/>
     <use xlink:href="#DejaVuSans-20" transform="translate(284.472656 0)"/>
     <use xlink:href="#DejaVuSans-7c" transform="translate(316.259766 0)"/>
     <use xlink:href="#DejaVuSans-20" transform="translate(349.951172 0)"/>
     <use xlink:href="#DejaVuSans-4e" transform="translate(381.738281 0)"/>
     <use xlink:href="#DejaVuSans-61" transform="translate(456.542969 0)"/>
     <use xlink:href="#DejaVuSans-69" transform="translate(517.822266 0)"/>
     <use xlink:href="#DejaVuSans-76" transform="translate(545.605469 0)"/>
     <use xlink:href="#DejaVuSans-65" transform="translate(604.785156 0)"/>
    </g>
   </g>
   <g id="legend_1">
    <g id="line2d_12">
     <path d="M 130.92 46.867812 
L 145.92 46.867812 
L 160.92 46.867812 
" style="fill: none; stroke: #000000; stroke-width: 5; stroke-linecap: square"/>
    </g>
    <g id="text_12">
     <!-- Nonoccluded (NO) -->
     <g transform="translate(172.92 52.117812) scale(0.15 -0.15)">
      <defs>
       <path id="DejaVuSans-6e" d="M 3513 2113 
L 3513 0 
L 2938 0 
L 2938 2094 
Q 2938 2591 2744 2837 
Q 2550 3084 2163 3084 
Q 1697 3084 1428 2787 
Q 1159 2491 1159 1978 
L 1159 0 
L 581 0 
L 581 3500 
L 1159 3500 
L 1159 2956 
Q 1366 3272 1645 3428 
Q 1925 3584 2291 3584 
Q 2894 3584 3203 3211 
Q 3513 2838 3513 2113 
z
" transform="scale(0.015625)"/>
       <path id="DejaVuSans-64" d="M 2906 2969 
L 2906 4863 
L 3481 4863 
L 3481 0 
L 2906 0 
L 2906 525 
Q 2725 213 2448 61 
Q 2172 -91 1784 -91 
Q 1150 -91 751 415 
Q 353 922 353 1747 
Q 353 2572 751 3078 
Q 1150 3584 1784 3584 
Q 2172 3584 2448 3432 
Q 2725 3281 2906 2969 
z
M 947 1747 
Q 947 1113 1208 752 
Q 1469 391 1925 391 
Q 2381 391 2643 752 
Q 2906 1113 2906 1747 
Q 2906 2381 2643 2742 
Q 2381 3103 1925 3103 
Q 1469 3103 1208 2742 
Q 947 2381 947 1747 
z
" transform="scale(0.015625)"/>
       <path id="DejaVuSans-4f" d="M 2522 4238 
Q 1834 4238 1429 3725 
Q 1025 3213 1025 2328 
Q 1025 1447 1429 934 
Q 1834 422 2522 422 
Q 3209 422 3611 934 
Q 4013 1447 4013 2328 
Q 4013 3213 3611 3725 
Q 3209 4238 2522 4238 
z
M 2522 4750 
Q 3503 4750 4090 4092 
Q 4678 3434 4678 2328 
Q 4678 1225 4090 567 
Q 3503 -91 2522 -91 
Q 1538 -91 948 565 
Q 359 1222 359 2328 
Q 359 3434 948 4092 
Q 1538 4750 2522 4750 
z
" transform="scale(0.015625)"/>
      </defs>
      <use xlink:href="#DejaVuSans-4e"/>
      <use xlink:href="#DejaVuSans-6f" transform="translate(74.804688 0)"/>
      <use xlink:href="#DejaVuSans-6e" transform="translate(135.986328 0)"/>
      <use xlink:href="#DejaVuSans-6f" transform="translate(199.365234 0)"/>
      <use xlink:href="#DejaVuSans-63" transform="translate(260.546875 0)"/>
      <use xlink:href="#DejaVuSans-63" transform="translate(315.527344 0)"/>
      <use xlink:href="#DejaVuSans-6c" transform="translate(370.507812 0)"/>
      <use xlink:href="#DejaVuSans-75" transform="translate(398.291016 0)"/>
      <use xlink:href="#DejaVuSans-64" transform="translate(461.669922 0)"/>
      <use xlink:href="#DejaVuSans-65" transform="translate(525.146484 0)"/>
      <use xlink:href="#DejaVuSans-64" transform="translate(586.669922 0)"/>
      <use xlink:href="#DejaVuSans-20" transform="translate(650.146484 0)"/>
      <use xlink:href="#DejaVuSans-28" transform="translate(681.933594 0)"/>
      <use xlink:href="#DejaVuSans-4e" transform="translate(720.947266 0)"/>
      <use xlink:href="#DejaVuSans-4f" transform="translate(795.751953 0)"/>
      <use xlink:href="#DejaVuSans-29" transform="translate(874.462891 0)"/>
     </g>
    </g>
    <g id="line2d_13">
     <path d="M 130.92 68.885 
L 145.92 68.885 
L 160.92 68.885 
" style="fill: none; stroke: #ff0000; stroke-width: 5; stroke-linecap: square"/>
    </g>
    <g id="text_13">
     <!-- Occluded (O) -->
     <g transform="translate(172.92 74.135) scale(0.15 -0.15)">
      <use xlink:href="#DejaVuSans-4f"/>
      <use xlink:href="#DejaVuSans-63" transform="translate(78.710938 0)"/>
      <use xlink:href="#DejaVuSans-63" transform="translate(133.691406 0)"/>
      <use xlink:href="#DejaVuSans-6c" transform="translate(188.671875 0)"/>
      <use xlink:href="#DejaVuSans-75" transform="translate(216.455078 0)"/>
      <use xlink:href="#DejaVuSans-64" transform="translate(279.833984 0)"/>
      <use xlink:href="#DejaVuSans-65" transform="translate(343.310547 0)"/>
      <use xlink:href="#DejaVuSans-64" transform="translate(404.833984 0)"/>
      <use xlink:href="#DejaVuSans-20" transform="translate(468.310547 0)"/>
      <use xlink:href="#DejaVuSans-28" transform="translate(500.097656 0)"/>
      <use xlink:href="#DejaVuSans-4f" transform="translate(539.111328 0)"/>
      <use xlink:href="#DejaVuSans-29" transform="translate(617.822266 0)"/>
     </g>
    </g>
    <g id="line2d_14">
     <path d="M 130.92 90.902187 
L 145.92 90.902187 
L 160.92 90.902187 
" style="fill: none; stroke: #0000ff; stroke-width: 5; stroke-linecap: square"/>
    </g>
    <g id="text_14">
     <!-- No feedback -->
     <g transform="translate(172.92 96.152187) scale(0.15 -0.15)">
      <defs>
       <path id="DejaVuSans-66" d="M 2375 4863 
L 2375 4384 
L 1825 4384 
Q 1516 4384 1395 4259 
Q 1275 4134 1275 3809 
L 1275 3500 
L 2222 3500 
L 2222 3053 
L 1275 3053 
L 1275 0 
L 697 0 
L 697 3053 
L 147 3053 
L 147 3500 
L 697 3500 
L 697 3744 
Q 697 4328 969 4595 
Q 1241 4863 1831 4863 
L 2375 4863 
z
" transform="scale(0.015625)"/>
       <path id="DejaVuSans-62" d="M 3116 1747 
Q 3116 2381 2855 2742 
Q 2594 3103 2138 3103 
Q 1681 3103 1420 2742 
Q 1159 2381 1159 1747 
Q 1159 1113 1420 752 
Q 1681 391 2138 391 
Q 2594 391 2855 752 
Q 3116 1113 3116 1747 
z
M 1159 2969 
Q 1341 3281 1617 3432 
Q 1894 3584 2278 3584 
Q 2916 3584 3314 3078 
Q 3713 2572 3713 1747 
Q 3713 922 3314 415 
Q 2916 -91 2278 -91 
Q 1894 -91 1617 61 
Q 1341 213 1159 525 
L 1159 0 
L 581 0 
L 581 4863 
L 1159 4863 
L 1159 2969 
z
" transform="scale(0.015625)"/>
       <path id="DejaVuSans-6b" d="M 581 4863 
L 1159 4863 
L 1159 1991 
L 2875 3500 
L 3609 3500 
L 1753 1863 
L 3688 0 
L 2938 0 
L 1159 1709 
L 1159 0 
L 581 0 
L 581 4863 
z
" transform="scale(0.015625)"/>
      </defs>
      <use xlink:href="#DejaVuSans-4e"/>
      <use xlink:href="#DejaVuSans-6f" transform="translate(74.804688 0)"/>
      <use xlink:href="#DejaVuSans-20" transform="translate(135.986328 0)"/>
      <use xlink:href="#DejaVuSans-66" transform="translate(167.773438 0)"/>
      <use xlink:href="#DejaVuSans-65" transform="translate(202.978516 0)"/>
      <use xlink:href="#DejaVuSans-65" transform="translate(264.501953 0)"/>
      <use xlink:href="#DejaVuSans-64" transform="translate(326.025391 0)"/>
      <use xlink:href="#DejaVuSans-62" transform="translate(389.501953 0)"/>
      <use xlink:href="#DejaVuSans-61" transform="translate(452.978516 0)"/>
      <use xlink:href="#DejaVuSans-63" transform="translate(514.257812 0)"/>
      <use xlink:href="#DejaVuSans-6b" transform="translate(569.238281 0)"/>
     </g>
    </g>
   </g>
  </g>
  <g id="axes_2">
   <g id="patch_6">
    <path d="M 505.85601 322.75952 
L 855.01952 322.75952 
L 855.01952 31.720156 
L 505.85601 31.720156 
z
" style="fill: #ffffff"/>
   </g>
   <g id="matplotlib.axis_3">
    <g id="xtick_6">
     <g id="line2d_15">
      <g>
       <use xlink:href="#m4337f66666" x="505.85601" y="322.75952" style="stroke: #000000; stroke-width: 1.6"/>
      </g>
     </g>
     <g id="text_15">
      <!-- -1 -->
      <g transform="translate(489.90351 355.57452) scale(0.32 -0.32)">
       <use xlink:href="#DejaVuSans-2d"/>
       <use xlink:href="#DejaVuSans-31" transform="translate(36.083984 0)"/>
      </g>
     </g>
    </g>
    <g id="xtick_7">
     <g id="line2d_16">
      <g>
       <use xlink:href="#m4337f66666" x="593.146888" y="322.75952" style="stroke: #000000; stroke-width: 1.6"/>
      </g>
     </g>
     <g id="text_16">
      <!-- 0 -->
      <g transform="translate(582.966888 355.57452) scale(0.32 -0.32)">
       <use xlink:href="#DejaVuSans-30"/>
      </g>
     </g>
    </g>
    <g id="xtick_8">
     <g id="line2d_17">
      <g>
       <use xlink:href="#m4337f66666" x="680.437765" y="322.75952" style="stroke: #000000; stroke-width: 1.6"/>
      </g>
     </g>
     <g id="text_17">
      <!-- 1 -->
      <g transform="translate(670.257765 355.57452) scale(0.32 -0.32)">
       <use xlink:href="#DejaVuSans-31"/>
      </g>
     </g>
    </g>
    <g id="xtick_9">
     <g id="line2d_18">
      <g>
       <use xlink:href="#m4337f66666" x="767.728643" y="322.75952" style="stroke: #000000; stroke-width: 1.6"/>
      </g>
     </g>
     <g id="text_18">
      <!-- 2 -->
      <g transform="translate(757.548643 355.57452) scale(0.32 -0.32)">
       <use xlink:href="#DejaVuSans-32"/>
      </g>
     </g>
    </g>
    <g id="xtick_10">
     <g id="line2d_19">
      <g>
       <use xlink:href="#m4337f66666" x="855.01952" y="322.75952" style="stroke: #000000; stroke-width: 1.6"/>
      </g>
     </g>
     <g id="text_19">
      <!-- 3 -->
      <g transform="translate(844.83952 355.57452) scale(0.32 -0.32)">
       <use xlink:href="#DejaVuSans-33"/>
      </g>
     </g>
    </g>
    <g id="text_20">
     <!-- Time (s) -->
     <g transform="translate(615.385265 390.54452) scale(0.32 -0.32)">
      <use xlink:href="#DejaVuSans-54"/>
      <use xlink:href="#DejaVuSans-69" transform="translate(57.958984 0)"/>
      <use xlink:href="#DejaVuSans-6d" transform="translate(85.742188 0)"/>
      <use xlink:href="#DejaVuSans-65" transform="translate(183.154297 0)"/>
      <use xlink:href="#DejaVuSans-20" transform="translate(244.677734 0)"/>
      <use xlink:href="#DejaVuSans-28" transform="translate(276.464844 0)"/>
      <use xlink:href="#DejaVuSans-73" transform="translate(315.478516 0)"/>
      <use xlink:href="#DejaVuSans-29" transform="translate(367.578125 0)"/>
     </g>
    </g>
   </g>
   <g id="matplotlib.axis_4">
    <g id="ytick_4">
     <g id="line2d_20">
      <g>
       <use xlink:href="#m1acb898b8c" x="505.85601" y="302.689119" style="stroke: #000000; stroke-width: 1.6"/>
      </g>
     </g>
    </g>
    <g id="ytick_5">
     <g id="line2d_21">
      <g>
       <use xlink:href="#m1acb898b8c" x="505.85601" y="197.874952" style="stroke: #000000; stroke-width: 1.6"/>
      </g>
     </g>
    </g>
    <g id="ytick_6">
     <g id="line2d_22">
      <g>
       <use xlink:href="#m1acb898b8c" x="505.85601" y="93.060785" style="stroke: #000000; stroke-width: 1.6"/>
      </g>
     </g>
    </g>
   </g>
   <g id="line2d_23">
    <path d="M 506.728919 299.812719 
L 511.966371 300.574701 
L 518.076733 301.212542 
L 525.060003 301.709528 
L 533.789091 302.102602 
L 546.009814 302.403089 
L 552.120175 302.489374 
L 552.993084 301.869586 
L 553.865993 301.910563 
L 554.738901 299.431347 
L 555.61181 292.030707 
L 558.230537 293.550863 
L 560.849263 294.854207 
L 564.340898 296.307535 
L 567.832533 297.491279 
L 571.324168 298.455447 
L 575.688712 299.413185 
L 580.053256 300.154264 
L 585.290709 300.825768 
L 591.40107 301.387872 
L 599.257249 301.869009 
L 608.859245 302.22264 
L 621.952877 302.473004 
L 642.902688 302.626016 
L 689.166853 302.684956 
L 709.243755 302.68784 
L 710.116663 300.40814 
L 714.481207 300.924141 
L 715.354116 297.914784 
L 716.227025 293.47514 
L 718.845751 294.789284 
L 722.337386 296.254655 
L 725.829021 297.448207 
L 728.447748 298.195693 
L 729.320656 292.303845 
L 730.193565 292.823109 
L 731.066474 290.835794 
L 733.6852 292.526375 
L 736.303927 293.975837 
L 738.922653 295.218569 
L 742.414288 296.60431 
L 745.905923 297.733005 
L 749.397558 298.652333 
L 753.762102 299.565532 
L 758.999555 300.392995 
L 765.109916 301.08565 
L 772.093186 301.625345 
L 780.822274 302.052199 
L 788.678453 302.2877 
L 789.551362 299.988681 
L 794.788815 300.704049 
L 797.407541 300.98717 
L 798.28045 298.988788 
L 799.153358 294.812004 
L 802.644994 296.27316 
L 806.136629 297.46328 
L 809.628264 298.432641 
L 812.24699 299.039721 
L 813.119899 297.837875 
L 815.738625 298.529784 
L 816.611534 295.725326 
L 820.103169 297.017067 
L 821.848987 297.570092 
L 822.721895 293.450864 
L 825.340622 294.768471 
L 828.832257 296.237702 
L 829.705166 296.560273 
L 830.578074 296.260343 
L 834.069709 297.452841 
L 837.561345 298.424139 
L 841.925888 299.388959 
L 846.290432 300.135518 
L 851.527885 300.811988 
L 854.146611 301.079714 
L 854.146611 301.079714 
" clip-path="url(#p083baae280)" style="fill: none; stroke: #000000; stroke-width: 5; stroke-linecap: square"/>
   </g>
   <g id="line2d_24">
    <path d="M 506.728919 287.993655 
L 508.474736 289.426464 
L 509.347645 284.701522 
L 510.220554 279.212525 
L 511.093463 280.386355 
L 511.966371 279.560289 
L 512.83928 280.716732 
L 513.712189 277.067863 
L 514.585098 268.976316 
L 518.949642 276.457112 
L 519.82255 277.313217 
L 522.441277 280.932455 
L 525.060003 284.035499 
L 525.932912 284.968181 
L 526.805821 281.848777 
L 529.424547 284.821131 
L 530.297456 279.371266 
L 531.170364 280.53716 
L 532.043273 279.545756 
L 534.662 282.84658 
L 537.280726 285.676624 
L 539.899452 288.103032 
L 542.518179 290.183372 
L 543.391087 290.808659 
L 544.263996 290.064503 
L 546.882722 291.865089 
L 548.62854 292.920432 
L 549.501449 291.72247 
L 550.374358 292.270803 
L 551.247266 290.519528 
L 553.865993 292.255216 
L 554.738901 292.776911 
L 555.61181 293.072847 
L 558.230537 294.444368 
L 559.976354 295.248231 
L 560.849263 288.215878 
L 561.722172 284.038568 
L 564.340898 286.698603 
L 566.086715 288.257678 
L 566.959624 286.763292 
L 569.578351 289.034713 
L 572.197077 290.982173 
L 573.069986 290.633881 
L 573.942894 289.103492 
L 574.815803 284.194822 
L 575.688712 280.055047 
L 576.561621 277.538153 
L 577.43453 267.681649 
L 579.180347 271.094877 
L 580.926165 274.175318 
L 583.544891 278.242099 
L 584.4178 278.66338 
L 586.163617 281.00589 
L 587.036526 278.182614 
L 588.782344 280.571999 
L 589.655252 278.249296 
L 590.528161 277.194785 
L 592.273979 279.680484 
L 593.146888 231.616531 
L 594.019796 196.493062 
L 594.892705 173.295339 
L 595.765614 168.804349 
L 597.511431 137.900264 
L 598.38434 127.379889 
L 599.257249 133.392117 
L 601.003066 115.120204 
L 601.875975 109.206404 
L 602.748884 95.609867 
L 603.621793 88.507919 
L 604.494702 85.975078 
L 605.36761 80.384832 
L 606.240519 86.329853 
L 607.113428 80.114866 
L 607.986337 72.320705 
L 610.605063 87.702721 
L 611.477972 98.452048 
L 612.350881 102.938908 
L 613.223789 100.183737 
L 614.096698 97.959377 
L 614.969607 93.214797 
L 616.715424 112.415028 
L 617.588333 97.819373 
L 618.461242 103.152554 
L 619.334151 105.500752 
L 620.20706 92.786849 
L 621.079968 82.430406 
L 621.952877 85.860453 
L 622.825786 94.688436 
L 623.698695 101.654003 
L 624.571603 111.705759 
L 625.444512 119.078407 
L 626.317421 120.975371 
L 627.19033 123.181051 
L 628.063239 131.73207 
L 628.936147 121.916731 
L 629.809056 108.390039 
L 630.681965 92.094948 
L 631.554874 82.945896 
L 632.427782 93.830869 
L 633.300691 91.292406 
L 634.1736 94.373504 
L 635.046509 95.507737 
L 635.919417 102.753703 
L 636.792326 101.849062 
L 637.665235 103.960656 
L 638.538144 105.049065 
L 639.411053 105.466157 
L 641.15687 124.695392 
L 642.029779 122.720429 
L 642.902688 118.552485 
L 643.775596 117.09348 
L 644.648505 126.373259 
L 645.521414 125.607139 
L 646.394323 116.757229 
L 648.14014 104.232231 
L 649.013049 103.476185 
L 649.885958 101.362905 
L 650.758867 93.998441 
L 652.504684 106.483673 
L 653.377593 94.152752 
L 655.123411 76.318423 
L 655.996319 72.791104 
L 656.869228 73.309155 
L 657.742137 81.311776 
L 658.615046 76.519637 
L 659.487954 87.828107 
L 660.360863 91.508082 
L 661.233772 80.585421 
L 662.106681 80.597025 
L 662.97959 76.541752 
L 663.852498 76.823355 
L 664.725407 79.394461 
L 665.598316 70.937544 
L 666.471225 73.881246 
L 667.344133 73.417079 
L 668.217042 78.945381 
L 669.089951 82.803408 
L 669.96286 80.933636 
L 670.835768 84.32092 
L 671.708677 81.273042 
L 672.581586 76.697594 
L 673.454495 79.02249 
L 674.327404 64.723665 
L 675.200312 63.765312 
L 676.073221 64.707766 
L 676.94613 54.851459 
L 677.819039 51.791837 
L 678.691947 52.745707 
L 679.564856 63.017325 
L 681.310674 86.38533 
L 683.056491 107.47495 
L 684.802309 126.508328 
L 686.548126 143.68596 
L 688.293944 159.188771 
L 690.039762 173.180067 
L 691.785579 185.807201 
L 693.531397 197.20319 
L 695.277214 207.488069 
L 697.023032 216.770168 
L 698.768849 225.147267 
L 700.514667 232.707603 
L 702.260484 239.530799 
L 704.006302 245.688739 
L 704.879211 248.538757 
L 705.752119 249.714661 
L 707.497937 254.879673 
L 709.243755 259.541097 
L 710.989572 263.748029 
L 712.73539 267.544788 
L 713.608298 269.302005 
L 714.481207 267.649237 
L 715.354116 269.40123 
L 716.227025 263.388549 
L 717.099934 264.956142 
L 717.972842 264.184348 
L 719.71866 267.938562 
L 721.464477 271.326744 
L 723.210295 274.384577 
L 724.956113 277.144271 
L 725.829021 274.810836 
L 727.574839 264.570321 
L 728.447748 253.577865 
L 729.320656 256.033429 
L 730.193565 256.350153 
L 731.066474 258.040996 
L 732.812292 262.394188 
L 734.558109 266.322947 
L 736.303927 269.868649 
L 738.049744 273.068645 
L 740.66847 277.293268 
L 743.287197 280.915351 
L 744.160106 278.767333 
L 746.778832 282.179179 
L 749.397558 285.10441 
L 752.016285 287.612429 
L 753.762102 289.082407 
L 754.635011 287.958645 
L 757.253737 290.059579 
L 758.126646 290.691057 
L 758.999555 290.017706 
L 760.745372 291.253169 
L 761.618281 291.090625 
L 762.49119 288.277714 
L 763.364099 282.413166 
L 765.982825 285.305026 
L 766.855734 279.341599 
L 769.47446 282.671539 
L 772.093186 285.526548 
L 772.966095 286.384676 
L 773.839004 286.218714 
L 776.45773 288.567806 
L 779.076457 290.581858 
L 779.949365 291.187221 
L 780.822274 286.01563 
L 781.695183 274.469879 
L 782.568092 273.454265 
L 785.186818 277.623887 
L 786.059727 270.007225 
L 786.932636 264.075272 
L 788.678453 267.840123 
L 790.424271 271.2379 
L 792.170088 274.304395 
L 794.788815 278.352768 
L 797.407541 281.82374 
L 799.153358 283.858114 
L 800.026267 282.180225 
L 802.644994 285.105306 
L 805.26372 287.613197 
L 806.136629 288.366994 
L 807.009537 286.997495 
L 807.882446 283.245284 
L 810.501172 286.018463 
L 812.24699 287.643853 
L 813.119899 286.392411 
L 813.992808 285.486135 
L 814.865716 286.119839 
L 815.738625 284.933038 
L 816.611534 277.789055 
L 817.484443 276.275416 
L 820.103169 280.042672 
L 822.721895 283.27262 
L 825.340622 286.041898 
L 826.21353 286.87426 
L 827.086439 281.585069 
L 829.705166 284.595035 
L 832.323892 287.175705 
L 834.942618 289.388306 
L 837.561345 291.285335 
L 838.434253 291.855525 
L 839.307162 289.306031 
L 841.925888 291.214794 
L 844.544615 292.85132 
L 847.163341 294.254437 
L 848.909159 295.076819 
L 849.782067 294.002559 
L 850.654976 290.632646 
L 852.400794 286.75375 
L 853.273702 287.550518 
L 854.146611 285.517957 
L 854.146611 285.517957 
" clip-path="url(#p083baae280)" style="fill: none; stroke: #ff0000; stroke-width: 5; stroke-linecap: square"/>
   </g>
   <g id="line2d_25">
    <path d="M 506.728919 299.84155 
L 511.966371 300.595894 
L 518.076733 301.227342 
L 525.060003 301.719347 
L 533.789091 302.108481 
L 546.009814 302.405956 
L 546.882722 296.054268 
L 547.755631 296.38601 
L 549.501449 289.138205 
L 551.247266 290.459419 
L 552.120175 288.169374 
L 553.865993 289.585049 
L 554.738901 288.215328 
L 555.61181 285.914147 
L 556.484719 277.640099 
L 559.103445 281.212716 
L 561.722172 284.27579 
L 564.340898 286.901993 
L 566.959624 289.153632 
L 569.578351 291.084131 
L 572.197077 292.739294 
L 574.815803 294.158388 
L 577.43453 295.375084 
L 580.926165 296.731791 
L 584.4178 297.836839 
L 586.163617 298.309937 
L 587.036526 292.23705 
L 589.655252 293.727776 
L 592.273979 295.005888 
L 595.765614 296.43108 
L 599.257249 297.591907 
L 602.748884 298.537408 
L 607.113428 299.476605 
L 612.350881 300.327626 
L 617.588333 300.953205 
L 624.571603 301.537478 
L 632.427782 301.963298 
L 642.902688 302.296915 
L 657.742137 302.525131 
L 683.056491 302.652068 
L 696.150123 302.671954 
L 697.023032 299.199272 
L 701.387576 299.988743 
L 706.625028 300.704094 
L 709.243755 300.987209 
L 710.116663 298.153567 
L 714.481207 299.179595 
L 718.845751 299.973517 
L 724.083204 300.692902 
L 724.956113 300.792713 
L 725.829021 297.150226 
L 726.70193 297.427171 
L 727.574839 296.452125 
L 728.447748 288.794151 
L 729.320656 289.488899 
L 730.193565 284.690207 
L 732.812292 287.257302 
L 735.431018 289.458266 
L 738.049744 291.345318 
L 740.66847 292.963228 
L 743.287197 294.350383 
L 746.778832 295.897167 
L 747.651741 296.236765 
L 748.524649 296.065392 
L 749.397558 290.430542 
L 750.270467 288.258605 
L 751.143376 284.985186 
L 752.016285 284.839606 
L 754.635011 287.385392 
L 757.253737 289.568088 
L 759.872464 291.439475 
L 762.49119 293.043957 
L 765.109916 294.419598 
L 768.601551 295.953543 
L 772.093186 297.20295 
L 775.584821 298.220601 
L 779.949365 299.231465 
L 784.313909 300.013652 
L 789.551362 300.722406 
L 795.661723 301.31569 
L 803.517902 301.823516 
L 804.390811 301.866796 
L 805.26372 295.937051 
L 806.136629 286.477501 
L 808.755355 288.789684 
L 811.374081 290.772091 
L 813.992808 292.471757 
L 816.611534 293.92901 
L 819.23026 295.178421 
L 821.848987 296.249635 
L 822.721895 294.807698 
L 826.21353 296.269652 
L 829.705166 297.460424 
L 833.196801 298.430314 
L 834.069709 298.11303 
L 834.942618 295.131417 
L 835.815527 293.771816 
L 838.434253 295.043647 
L 841.925888 296.461834 
L 845.417523 297.616956 
L 848.909159 298.557811 
L 853.273702 299.492392 
L 854.146611 299.652229 
L 854.146611 299.652229 
" clip-path="url(#p083baae280)" style="fill: none; stroke: #0000ff; stroke-width: 5; stroke-linecap: square"/>
   </g>
   <g id="patch_7">
    <path d="M 505.85601 322.75952 
L 505.85601 31.720156 
" style="fill: none; stroke: #000000; stroke-width: 5; stroke-linejoin: miter; stroke-linecap: square"/>
   </g>
   <g id="patch_8">
    <path d="M 505.85601 322.75952 
L 855.01952 322.75952 
" style="fill: none; stroke: #000000; stroke-width: 5; stroke-linejoin: miter; stroke-linecap: square"/>
   </g>
   <g id="patch_9">
    <path d="M 593.146888 316.938733 
L 680.437765 316.938733 
L 680.437765 306.752355 
L 593.146888 306.752355 
z
" style="fill: #8c5a2b; stroke: #8c5a2b; stroke-linejoin: miter"/>
   </g>
   <g id="text_21">
    <!-- Novel | Expert -->
    <g transform="translate(613.039718 21.720156) scale(0.19 -0.19)">
     <defs>
      <path id="DejaVuSans-45" d="M 628 4666 
L 3578 4666 
L 3578 4134 
L 1259 4134 
L 1259 2753 
L 3481 2753 
L 3481 2222 
L 1259 2222 
L 1259 531 
L 3634 531 
L 3634 0 
L 628 0 
L 628 4666 
z
" transform="scale(0.015625)"/>
      <path id="DejaVuSans-78" d="M 3513 3500 
L 2247 1797 
L 3578 0 
L 2900 0 
L 1881 1375 
L 863 0 
L 184 0 
L 1544 1831 
L 300 3500 
L 978 3500 
L 1906 2253 
L 2834 3500 
L 3513 3500 
z
" transform="scale(0.015625)"/>
      <path id="DejaVuSans-70" d="M 1159 525 
L 1159 -1331 
L 581 -1331 
L 581 3500 
L 1159 3500 
L 1159 2969 
Q 1341 3281 1617 3432 
Q 1894 3584 2278 3584 
Q 2916 3584 3314 3078 
Q 3713 2572 3713 1747 
Q 3713 922 3314 415 
Q 2916 -91 2278 -91 
Q 1894 -91 1617 61 
Q 1341 213 1159 525 
z
M 3116 1747 
Q 3116 2381 2855 2742 
Q 2594 3103 2138 3103 
Q 1681 3103 1420 2742 
Q 1159 2381 1159 1747 
Q 1159 1113 1420 752 
Q 1681 391 2138 391 
Q 2594 391 2855 752 
Q 3116 1113 3116 1747 
z
" transform="scale(0.015625)"/>
     </defs>
     <use xlink:href="#DejaVuSans-4e"/>
     <use xlink:href="#DejaVuSans-6f" transform="translate(74.804688 0)"/>
     <use xlink:href="#DejaVuSans-76" transform="translate(135.986328 0)"/>
     <use xlink:href="#DejaVuSans-65" transform="translate(195.166016 0)"/>
     <use xlink:href="#DejaVuSans-6c" transform="translate(256.689453 0)"/>
     <use xlink:href="#DejaVuSans-20" transform="translate(284.472656 0)"/>
     <use xlink:href="#DejaVuSans-7c" transform="translate(316.259766 0)"/>
     <use xlink:href="#DejaVuSans-20" transform="translate(349.951172 0)"/>
     <use xlink:href="#DejaVuSans-45" transform="translate(381.738281 0)"/>
     <use xlink:href="#DejaVuSans-78" transform="translate(444.921875 0)"/>
     <use xlink:href="#DejaVuSans-70" transform="translate(504.101562 0)"/>
     <use xlink:href="#DejaVuSans-65" transform="translate(567.578125 0)"/>
     <use xlink:href="#DejaVuSans-72" transform="translate(629.101562 0)"/>
     <use xlink:href="#DejaVuSans-74" transform="translate(670.214844 0)"/>
    </g>
   </g>
  </g>
 </g>
 <defs>
  <clipPath id="p264e85cce8">
   <rect x="121.92" y="31.720156" width="349.16351" height="291.039364"/>
  </clipPath>
  <clipPath id="p083baae280">
   <rect x="505.85601" y="31.720156" width="349.16351" height="291.039364"/>
  </clipPath>
 </defs>
</svg>
