<?xml version="1.0" encoding="utf-8" standalone="no"?>
<!DOCTYPE svg PUBLIC "-//W3C//DTD SVG 1.1//EN"
  "http://www.w3.org/Graphics/SVG/1.1/DTD/svg11.dtd">
<svg xmlns:xlink="http://www.w3.org/1999/xlink" width="872.39952pt" height="404.39952pt" viewBox="0 0 872.39952 404.39952" xmlns="http://www.w3.org/2000/svg" version="1.1">
 <metadata>
  <rdf:RDF xmlns:dc="http://purl.org/dc/elements/1.1/" xmlns:cc="http://creativecommons.org/ns#" xmlns:rdf="http://www.w3.org/1999/02/22-rdf-syntax-ns#">
   <cc:Work>
    <dc:type rdf:resource="http://purl.org/dc/dcmitype/StillImage"/>
    <dc:date>2026-03-25T11:55:37.629873</dc:date>
    <dc:format>image/svg+xml</dc:format>
    <dc:creator>
     <cc:Agent>
      <dc:title>Matplotlib v3.10.7, https://matplotlib.org/</dc:title>
     </cc:Agent>
    </dc:creator>
   </cc:Work>
  </rdf:RDF>
 </metadata>
 <defs>
  <style type="text/css">*{stroke-linejoin: round; stroke-linecap: butt}</style>
 </defs>
 <g id="figure_1">
  <g id="patch_1">
   <path d="M 0 404.39952 
L 872.39952 404.39952 
L 872.39952 0 
L 0 0 
z
" style="fill: #ffffff"/>
  </g>
  <g id="axes_1">
   <g id="patch_2">
    <path d="M 101.56 322.75952 
L 460.90351 322.75952 
L 460.90351 31.720156 
L 101.56 31.720156 
z
" style="fill: #ffffff"/>
   </g>
   <g id="matplotlib.axis_1">
    <g id="xtick_1">
     <g id="line2d_1">
      <defs>
       <path id="mfb67ca7fd0" d="M 0 0 
L 0 5 
" style="stroke: #000000; stroke-width: 1.6"/>
      </defs>
      <g>
       <use xlink:href="#mfb67ca7fd0" x="101.56" y="322.75952" style="stroke: #000000; stroke-width: 1.6"/>
      </g>
     </g>
     <g id="text_1">
      <!-- -1 -->
      <g transform="translate(85.6075 355.57452) scale(0.32 -0.32)">
       <defs>
        <path id="DejaVuSans-2d" d="M 313 2009 
L 1997 2009 
L 1997 1497 
L 313 1497 
L 313 2009 
z
" transform="scale(0.015625)"/>
        <path id="DejaVuSans-31" d="M 794 531 
L 1825 531 
L 1825 4091 
L 703 3866 
L 703 4441 
L 1819 4666 
L 2450 4666 
L 2450 531 
L 3481 531 
L 3481 0 
L 794 0 
L 794 531 
z
" transform="scale(0.015625)"/>
       </defs>
       <use xlink:href="#DejaVuSans-2d"/>
       <use xlink:href="#DejaVuSans-31" transform="translate(36.083984 0)"/>
      </g>
     </g>
    </g>
    <g id="xtick_2">
     <g id="line2d_2">
      <g>
       <use xlink:href="#mfb67ca7fd0" x="191.395877" y="322.75952" style="stroke: #000000; stroke-width: 1.6"/>
      </g>
     </g>
     <g id="text_2">
      <!-- 0 -->
      <g transform="translate(181.215877 355.57452) scale(0.32 -0.32)">
       <defs>
        <path id="DejaVuSans-30" d="M 2034 4250 
Q 1547 4250 1301 3770 
Q 1056 3291 1056 2328 
Q 1056 1369 1301 889 
Q 1547 409 2034 409 
Q 2525 409 2770 889 
Q 3016 1369 3016 2328 
Q 3016 3291 2770 3770 
Q 2525 4250 2034 4250 
z
M 2034 4750 
Q 2819 4750 3233 4129 
Q 3647 3509 3647 2328 
Q 3647 1150 3233 529 
Q 2819 -91 2034 -91 
Q 1250 -91 836 529 
Q 422 1150 422 2328 
Q 422 3509 836 4129 
Q 1250 4750 2034 4750 
z
" transform="scale(0.015625)"/>
       </defs>
       <use xlink:href="#DejaVuSans-30"/>
      </g>
     </g>
    </g>
    <g id="xtick_3">
     <g id="line2d_3">
      <g>
       <use xlink:href="#mfb67ca7fd0" x="281.231755" y="322.75952" style="stroke: #000000; stroke-width: 1.6"/>
      </g>
     </g>
     <g id="text_3">
      <!-- 1 -->
      <g transform="translate(271.051755 355.57452) scale(0.32 -0.32)">
       <use xlink:href="#DejaVuSans-31"/>
      </g>
     </g>
    </g>
    <g id="xtick_4">
     <g id="line2d_4">
      <g>
       <use xlink:href="#mfb67ca7fd0" x="371.067632" y="322.75952" style="stroke: #000000; stroke-width: 1.6"/>
      </g>
     </g>
     <g id="text_4">
      <!-- 2 -->
      <g transform="translate(360.887632 355.57452) scale(0.32 -0.32)">
       <defs>
        <path id="DejaVuSans-32" d="M 1228 531 
L 3431 531 
L 3431 0 
L 469 0 
L 469 531 
Q 828 903 1448 1529 
Q 2069 2156 2228 2338 
Q 2531 2678 2651 2914 
Q 2772 3150 2772 3378 
Q 2772 3750 2511 3984 
Q 2250 4219 1831 4219 
Q 1534 4219 1204 4116 
Q 875 4013 500 3803 
L 500 4441 
Q 881 4594 1212 4672 
Q 1544 4750 1819 4750 
Q 2544 4750 2975 4387 
Q 3406 4025 3406 3419 
Q 3406 3131 3298 2873 
Q 3191 2616 2906 2266 
Q 2828 2175 2409 1742 
Q 1991 1309 1228 531 
z
" transform="scale(0.015625)"/>
       </defs>
       <use xlink:href="#DejaVuSans-32"/>
      </g>
     </g>
    </g>
    <g id="xtick_5">
     <g id="line2d_5">
      <g>
       <use xlink:href="#mfb67ca7fd0" x="460.90351" y="322.75952" style="stroke: #000000; stroke-width: 1.6"/>
      </g>
     </g>
     <g id="text_5">
      <!-- 3 -->
      <g transform="translate(450.72351 355.57452) scale(0.32 -0.32)">
       <defs>
        <path id="DejaVuSans-33" d="M 2597 2516 
Q 3050 2419 3304 2112 
Q 3559 1806 3559 1356 
Q 3559 666 3084 287 
Q 2609 -91 1734 -91 
Q 1441 -91 1130 -33 
Q 819 25 488 141 
L 488 750 
Q 750 597 1062 519 
Q 1375 441 1716 441 
Q 2309 441 2620 675 
Q 2931 909 2931 1356 
Q 2931 1769 2642 2001 
Q 2353 2234 1838 2234 
L 1294 2234 
L 1294 2753 
L 1863 2753 
Q 2328 2753 2575 2939 
Q 2822 3125 2822 3475 
Q 2822 3834 2567 4026 
Q 2313 4219 1838 4219 
Q 1578 4219 1281 4162 
Q 984 4106 628 3988 
L 628 4550 
Q 988 4650 1302 4700 
Q 1616 4750 1894 4750 
Q 2613 4750 3031 4423 
Q 3450 4097 3450 3541 
Q 3450 3153 3228 2886 
Q 3006 2619 2597 2516 
z
" transform="scale(0.015625)"/>
       </defs>
       <use xlink:href="#DejaVuSans-33"/>
      </g>
     </g>
    </g>
    <g id="text_6">
     <!-- Time (s) -->
     <g transform="translate(216.179255 390.54452) scale(0.32 -0.32)">
      <defs>
       <path id="DejaVuSans-54" d="M -19 4666 
L 3928 4666 
L 3928 4134 
L 2272 4134 
L 2272 0 
L 1638 0 
L 1638 4134 
L -19 4134 
L -19 4666 
z
" transform="scale(0.015625)"/>
       <path id="DejaVuSans-69" d="M 603 3500 
L 1178 3500 
L 1178 0 
L 603 0 
L 603 3500 
z
M 603 4863 
L 1178 4863 
L 1178 4134 
L 603 4134 
L 603 4863 
z
" transform="scale(0.015625)"/>
       <path id="DejaVuSans-6d" d="M 3328 2828 
Q 3544 3216 3844 3400 
Q 4144 3584 4550 3584 
Q 5097 3584 5394 3201 
Q 5691 2819 5691 2113 
L 5691 0 
L 5113 0 
L 5113 2094 
Q 5113 2597 4934 2840 
Q 4756 3084 4391 3084 
Q 3944 3084 3684 2787 
Q 3425 2491 3425 1978 
L 3425 0 
L 2847 0 
L 2847 2094 
Q 2847 2600 2669 2842 
Q 2491 3084 2119 3084 
Q 1678 3084 1418 2786 
Q 1159 2488 1159 1978 
L 1159 0 
L 581 0 
L 581 3500 
L 1159 3500 
L 1159 2956 
Q 1356 3278 1631 3431 
Q 1906 3584 2284 3584 
Q 2666 3584 2933 3390 
Q 3200 3197 3328 2828 
z
" transform="scale(0.015625)"/>
       <path id="DejaVuSans-65" d="M 3597 1894 
L 3597 1613 
L 953 1613 
Q 991 1019 1311 708 
Q 1631 397 2203 397 
Q 2534 397 2845 478 
Q 3156 559 3463 722 
L 3463 178 
Q 3153 47 2828 -22 
Q 2503 -91 2169 -91 
Q 1331 -91 842 396 
Q 353 884 353 1716 
Q 353 2575 817 3079 
Q 1281 3584 2069 3584 
Q 2775 3584 3186 3129 
Q 3597 2675 3597 1894 
z
M 3022 2063 
Q 3016 2534 2758 2815 
Q 2500 3097 2075 3097 
Q 1594 3097 1305 2825 
Q 1016 2553 972 2059 
L 3022 2063 
z
" transform="scale(0.015625)"/>
       <path id="DejaVuSans-20" transform="scale(0.015625)"/>
       <path id="DejaVuSans-28" d="M 1984 4856 
Q 1566 4138 1362 3434 
Q 1159 2731 1159 2009 
Q 1159 1288 1364 580 
Q 1569 -128 1984 -844 
L 1484 -844 
Q 1016 -109 783 600 
Q 550 1309 550 2009 
Q 550 2706 781 3412 
Q 1013 4119 1484 4856 
L 1984 4856 
z
" transform="scale(0.015625)"/>
       <path id="DejaVuSans-73" d="M 2834 3397 
L 2834 2853 
Q 2591 2978 2328 3040 
Q 2066 3103 1784 3103 
Q 1356 3103 1142 2972 
Q 928 2841 928 2578 
Q 928 2378 1081 2264 
Q 1234 2150 1697 2047 
L 1894 2003 
Q 2506 1872 2764 1633 
Q 3022 1394 3022 966 
Q 3022 478 2636 193 
Q 2250 -91 1575 -91 
Q 1294 -91 989 -36 
Q 684 19 347 128 
L 347 722 
Q 666 556 975 473 
Q 1284 391 1588 391 
Q 1994 391 2212 530 
Q 2431 669 2431 922 
Q 2431 1156 2273 1281 
Q 2116 1406 1581 1522 
L 1381 1569 
Q 847 1681 609 1914 
Q 372 2147 372 2553 
Q 372 3047 722 3315 
Q 1072 3584 1716 3584 
Q 2034 3584 2315 3537 
Q 2597 3491 2834 3397 
z
" transform="scale(0.015625)"/>
       <path id="DejaVuSans-29" d="M 513 4856 
L 1013 4856 
Q 1481 4119 1714 3412 
Q 1947 2706 1947 2009 
Q 1947 1309 1714 600 
Q 1481 -109 1013 -844 
L 513 -844 
Q 928 -128 1133 580 
Q 1338 1288 1338 2009 
Q 1338 2731 1133 3434 
Q 928 4138 513 4856 
z
" transform="scale(0.015625)"/>
      </defs>
      <use xlink:href="#DejaVuSans-54"/>
      <use xlink:href="#DejaVuSans-69" transform="translate(57.958984 0)"/>
      <use xlink:href="#DejaVuSans-6d" transform="translate(85.742188 0)"/>
      <use xlink:href="#DejaVuSans-65" transform="translate(183.154297 0)"/>
      <use xlink:href="#DejaVuSans-20" transform="translate(244.677734 0)"/>
      <use xlink:href="#DejaVuSans-28" transform="translate(276.464844 0)"/>
      <use xlink:href="#DejaVuSans-73" transform="translate(315.478516 0)"/>
      <use xlink:href="#DejaVuSans-29" transform="translate(367.578125 0)"/>
     </g>
    </g>
   </g>
   <g id="matplotlib.axis_2">
    <g id="ytick_1">
     <g id="line2d_6">
      <defs>
       <path id="me701ca3665" d="M 0 0 
L -5 0 
" style="stroke: #000000; stroke-width: 1.6"/>
      </defs>
      <g>
       <use xlink:href="#me701ca3665" x="101.56" y="302.823882" style="stroke: #000000; stroke-width: 1.6"/>
      </g>
     </g>
     <g id="text_7">
      <!-- 0.0 -->
      <g transform="translate(42.17 314.981382) scale(0.32 -0.32)">
       <defs>
        <path id="DejaVuSans-2e" d="M 684 794 
L 1344 794 
L 1344 0 
L 684 0 
L 684 794 
z
" transform="scale(0.015625)"/>
       </defs>
       <use xlink:href="#DejaVuSans-30"/>
       <use xlink:href="#DejaVuSans-2e" transform="translate(63.623047 0)"/>
       <use xlink:href="#DejaVuSans-30" transform="translate(95.410156 0)"/>
      </g>
     </g>
    </g>
    <g id="ytick_2">
     <g id="line2d_7">
      <g>
       <use xlink:href="#me701ca3665" x="101.56" y="204.293391" style="stroke: #000000; stroke-width: 1.6"/>
      </g>
     </g>
     <g id="text_8">
      <!-- 0.2 -->
      <g transform="translate(42.17 216.450891) scale(0.32 -0.32)">
       <use xlink:href="#DejaVuSans-30"/>
       <use xlink:href="#DejaVuSans-2e" transform="translate(63.623047 0)"/>
       <use xlink:href="#DejaVuSans-32" transform="translate(95.410156 0)"/>
      </g>
     </g>
    </g>
    <g id="ytick_3">
     <g id="line2d_8">
      <g>
       <use xlink:href="#me701ca3665" x="101.56" y="105.762899" style="stroke: #000000; stroke-width: 1.6"/>
      </g>
     </g>
     <g id="text_9">
      <!-- 0.4 -->
      <g transform="translate(42.17 117.920399) scale(0.32 -0.32)">
       <defs>
        <path id="DejaVuSans-34" d="M 2419 4116 
L 825 1625 
L 2419 1625 
L 2419 4116 
z
M 2253 4666 
L 3047 4666 
L 3047 1625 
L 3713 1625 
L 3713 1100 
L 3047 1100 
L 3047 0 
L 2419 0 
L 2419 1100 
L 313 1100 
L 313 1709 
L 2253 4666 
z
" transform="scale(0.015625)"/>
       </defs>
       <use xlink:href="#DejaVuSans-30"/>
       <use xlink:href="#DejaVuSans-2e" transform="translate(63.623047 0)"/>
       <use xlink:href="#DejaVuSans-34" transform="translate(95.410156 0)"/>
      </g>
     </g>
    </g>
    <g id="text_10">
     <!-- Neural Activity -->
     <g transform="translate(31.515 294.944838) rotate(-90) scale(0.32 -0.32)">
      <defs>
       <path id="DejaVuSans-4e" d="M 628 4666 
L 1478 4666 
L 3547 763 
L 3547 4666 
L 4159 4666 
L 4159 0 
L 3309 0 
L 1241 3903 
L 1241 0 
L 628 0 
L 628 4666 
z
" transform="scale(0.015625)"/>
       <path id="DejaVuSans-75" d="M 544 1381 
L 544 3500 
L 1119 3500 
L 1119 1403 
Q 1119 906 1312 657 
Q 1506 409 1894 409 
Q 2359 409 2629 706 
Q 2900 1003 2900 1516 
L 2900 3500 
L 3475 3500 
L 3475 0 
L 2900 0 
L 2900 538 
Q 2691 219 2414 64 
Q 2138 -91 1772 -91 
Q 1169 -91 856 284 
Q 544 659 544 1381 
z
M 1991 3584 
L 1991 3584 
z
" transform="scale(0.015625)"/>
       <path id="DejaVuSans-72" d="M 2631 2963 
Q 2534 3019 2420 3045 
Q 2306 3072 2169 3072 
Q 1681 3072 1420 2755 
Q 1159 2438 1159 1844 
L 1159 0 
L 581 0 
L 581 3500 
L 1159 3500 
L 1159 2956 
Q 1341 3275 1631 3429 
Q 1922 3584 2338 3584 
Q 2397 3584 2469 3576 
Q 2541 3569 2628 3553 
L 2631 2963 
z
" transform="scale(0.015625)"/>
       <path id="DejaVuSans-61" d="M 2194 1759 
Q 1497 1759 1228 1600 
Q 959 1441 959 1056 
Q 959 750 1161 570 
Q 1363 391 1709 391 
Q 2188 391 2477 730 
Q 2766 1069 2766 1631 
L 2766 1759 
L 2194 1759 
z
M 3341 1997 
L 3341 0 
L 2766 0 
L 2766 531 
Q 2569 213 2275 61 
Q 1981 -91 1556 -91 
Q 1019 -91 701 211 
Q 384 513 384 1019 
Q 384 1609 779 1909 
Q 1175 2209 1959 2209 
L 2766 2209 
L 2766 2266 
Q 2766 2663 2505 2880 
Q 2244 3097 1772 3097 
Q 1472 3097 1187 3025 
Q 903 2953 641 2809 
L 641 3341 
Q 956 3463 1253 3523 
Q 1550 3584 1831 3584 
Q 2591 3584 2966 3190 
Q 3341 2797 3341 1997 
z
" transform="scale(0.015625)"/>
       <path id="DejaVuSans-6c" d="M 603 4863 
L 1178 4863 
L 1178 0 
L 603 0 
L 603 4863 
z
" transform="scale(0.015625)"/>
       <path id="DejaVuSans-41" d="M 2188 4044 
L 1331 1722 
L 3047 1722 
L 2188 4044 
z
M 1831 4666 
L 2547 4666 
L 4325 0 
L 3669 0 
L 3244 1197 
L 1141 1197 
L 716 0 
L 50 0 
L 1831 4666 
z
" transform="scale(0.015625)"/>
       <path id="DejaVuSans-63" d="M 3122 3366 
L 3122 2828 
Q 2878 2963 2633 3030 
Q 2388 3097 2138 3097 
Q 1578 3097 1268 2742 
Q 959 2388 959 1747 
Q 959 1106 1268 751 
Q 1578 397 2138 397 
Q 2388 397 2633 464 
Q 2878 531 3122 666 
L 3122 134 
Q 2881 22 2623 -34 
Q 2366 -91 2075 -91 
Q 1284 -91 818 406 
Q 353 903 353 1747 
Q 353 2603 823 3093 
Q 1294 3584 2113 3584 
Q 2378 3584 2631 3529 
Q 2884 3475 3122 3366 
z
" transform="scale(0.015625)"/>
       <path id="DejaVuSans-74" d="M 1172 4494 
L 1172 3500 
L 2356 3500 
L 2356 3053 
L 1172 3053 
L 1172 1153 
Q 1172 725 1289 603 
Q 1406 481 1766 481 
L 2356 481 
L 2356 0 
L 1766 0 
Q 1100 0 847 248 
Q 594 497 594 1153 
L 594 3053 
L 172 3053 
L 172 3500 
L 594 3500 
L 594 4494 
L 1172 4494 
z
" transform="scale(0.015625)"/>
       <path id="DejaVuSans-76" d="M 191 3500 
L 800 3500 
L 1894 563 
L 2988 3500 
L 3597 3500 
L 2284 0 
L 1503 0 
L 191 3500 
z
" transform="scale(0.015625)"/>
       <path id="DejaVuSans-79" d="M 2059 -325 
Q 1816 -950 1584 -1140 
Q 1353 -1331 966 -1331 
L 506 -1331 
L 506 -850 
L 844 -850 
Q 1081 -850 1212 -737 
Q 1344 -625 1503 -206 
L 1606 56 
L 191 3500 
L 800 3500 
L 1894 763 
L 2988 3500 
L 3597 3500 
L 2059 -325 
z
" transform="scale(0.015625)"/>
      </defs>
      <use xlink:href="#DejaVuSans-4e"/>
      <use xlink:href="#DejaVuSans-65" transform="translate(74.804688 0)"/>
      <use xlink:href="#DejaVuSans-75" transform="translate(136.328125 0)"/>
      <use xlink:href="#DejaVuSans-72" transform="translate(199.707031 0)"/>
      <use xlink:href="#DejaVuSans-61" transform="translate(240.820312 0)"/>
      <use xlink:href="#DejaVuSans-6c" transform="translate(302.099609 0)"/>
      <use xlink:href="#DejaVuSans-20" transform="translate(329.882812 0)"/>
      <use xlink:href="#DejaVuSans-41" transform="translate(361.669922 0)"/>
      <use xlink:href="#DejaVuSans-63" transform="translate(428.328125 0)"/>
      <use xlink:href="#DejaVuSans-74" transform="translate(483.308594 0)"/>
      <use xlink:href="#DejaVuSans-69" transform="translate(522.517578 0)"/>
      <use xlink:href="#DejaVuSans-76" transform="translate(550.300781 0)"/>
      <use xlink:href="#DejaVuSans-69" transform="translate(609.480469 0)"/>
      <use xlink:href="#DejaVuSans-74" transform="translate(637.263672 0)"/>
      <use xlink:href="#DejaVuSans-79" transform="translate(676.472656 0)"/>
     </g>
    </g>
   </g>
   <g id="line2d_9">
    <path d="M 102.458359 297.559161 
L 103.356718 296.696014 
L 104.255076 297.002407 
L 105.153435 296.815251 
L 106.950153 297.314327 
L 109.645229 298.100128 
L 110.543588 297.988988 
L 111.441947 297.994295 
L 114.137023 298.683115 
L 115.035382 298.294879 
L 115.93374 297.734319 
L 117.730458 298.230551 
L 118.628817 297.334537 
L 119.527176 297.059874 
L 121.323893 297.621865 
L 122.222252 297.694338 
L 123.120611 296.99285 
L 125.815687 297.771193 
L 126.714046 297.744392 
L 128.510763 298.239642 
L 129.409122 297.86427 
L 132.104198 298.51587 
L 136.595992 299.490425 
L 139.291069 299.965859 
L 140.189427 299.863519 
L 141.087786 299.50918 
L 142.884504 299.832363 
L 143.782862 299.364766 
L 144.681221 299.17521 
L 147.376298 299.695602 
L 148.274656 299.154806 
L 152.76645 299.984821 
L 157.258244 300.627071 
L 158.156603 300.160709 
L 160.851679 300.540545 
L 161.750038 300.274915 
L 162.648397 299.539337 
L 164.445114 299.85958 
L 165.343473 299.813638 
L 166.241832 299.470356 
L 168.038549 299.797324 
L 168.936908 298.666178 
L 171.631984 299.25917 
L 172.530343 299.222136 
L 173.428702 299.402223 
L 174.327061 299.146248 
L 175.22542 297.396573 
L 178.818855 298.403305 
L 180.615572 298.834311 
L 181.513931 298.46519 
L 182.41229 297.873852 
L 186.005725 298.792052 
L 186.904084 298.993643 
L 187.802442 298.950939 
L 190.497519 299.503318 
L 192.294236 282.741762 
L 194.989313 266.043149 
L 195.887671 261.67928 
L 196.78603 256.556962 
L 197.684389 253.200629 
L 200.379465 244.566849 
L 201.277824 241.096039 
L 202.176183 239.425933 
L 203.074542 237.383273 
L 203.9729 234.670893 
L 204.871259 234.461804 
L 205.769618 232.570724 
L 206.667977 229.236069 
L 207.566335 227.422422 
L 208.464694 226.772736 
L 210.261412 224.130749 
L 211.159771 223.071114 
L 212.058129 221.477942 
L 212.956488 219.087352 
L 213.854847 217.60114 
L 215.651564 213.88803 
L 216.549923 212.862251 
L 217.448282 212.801812 
L 218.346641 211.784212 
L 219.245 210.351979 
L 221.041717 210.204276 
L 221.940076 209.637368 
L 222.838435 208.433054 
L 223.736793 208.119949 
L 224.635152 208.069508 
L 225.533511 206.114289 
L 227.330228 204.029602 
L 228.228587 202.595783 
L 229.126946 202.938304 
L 230.025305 201.683674 
L 231.822022 202.715553 
L 232.720381 203.564675 
L 233.61874 203.863524 
L 234.517099 204.684985 
L 235.415457 203.48004 
L 236.313816 203.266275 
L 237.212175 202.511772 
L 238.110534 202.392251 
L 239.907251 202.734691 
L 242.602328 201.097929 
L 243.500686 200.375873 
L 244.399045 200.595622 
L 245.297404 201.645633 
L 246.195763 201.027638 
L 247.094122 201.169519 
L 247.99248 200.835117 
L 249.789198 202.1433 
L 250.687557 201.738035 
L 251.585915 200.085981 
L 252.484274 198.829626 
L 254.280992 199.817223 
L 255.179351 198.81338 
L 256.077709 198.269163 
L 256.976068 197.963076 
L 257.874427 197.160056 
L 258.772786 196.006616 
L 259.671144 196.158988 
L 260.569503 195.179385 
L 261.467862 195.674798 
L 262.366221 195.31391 
L 263.26458 195.95826 
L 264.162938 196.388646 
L 265.061297 196.66716 
L 265.959656 197.566393 
L 266.858015 197.498091 
L 267.756373 198.190129 
L 268.654732 196.772094 
L 269.553091 196.65424 
L 270.45145 196.794212 
L 271.349808 195.427998 
L 272.248167 194.952449 
L 273.146526 195.587498 
L 274.044885 195.918156 
L 274.943244 197.256635 
L 275.841602 197.818067 
L 276.739961 198.071071 
L 277.63832 197.588482 
L 278.536679 197.523154 
L 280.333396 195.998651 
L 282.130114 206.414114 
L 283.926831 215.814068 
L 285.723549 224.297532 
L 287.520266 231.953852 
L 289.316984 238.863678 
L 290.215343 242.06169 
L 291.113702 244.113599 
L 292.910419 249.837854 
L 294.707137 255.00399 
L 295.605495 256.433533 
L 297.402213 260.617159 
L 298.300572 262.727496 
L 302.792366 271.622266 
L 303.690724 272.813942 
L 304.589083 274.31444 
L 305.487442 275.084475 
L 306.385801 275.370354 
L 307.284159 275.415017 
L 309.080877 278.08738 
L 309.979236 279.070221 
L 312.674312 282.458086 
L 313.572671 282.959455 
L 315.369388 284.823368 
L 316.267747 285.094151 
L 318.064465 286.822801 
L 318.962824 287.431199 
L 321.6579 289.626581 
L 322.556259 290.078899 
L 325.251335 291.896653 
L 327.946411 293.45515 
L 330.641488 294.791366 
L 331.539846 295.192992 
L 332.438205 295.430866 
L 333.336564 295.800517 
L 334.234923 295.746072 
L 335.133281 295.865014 
L 338.726717 297.155841 
L 340.523434 297.708475 
L 341.421793 297.825409 
L 344.116869 298.538317 
L 345.015228 298.091128 
L 345.913587 298.052354 
L 346.811946 297.888855 
L 348.608663 298.294688 
L 353.100457 299.319278 
L 354.897175 299.660977 
L 355.795533 299.046286 
L 356.693892 299.235166 
L 357.592251 298.581319 
L 361.185686 299.349752 
L 365.67748 300.135667 
L 366.575839 298.654369 
L 369.270915 299.249045 
L 370.169274 299.160277 
L 371.067632 299.343458 
L 371.965991 299.003806 
L 374.661068 299.506943 
L 376.457785 299.755068 
L 377.356144 298.388979 
L 380.05122 298.972663 
L 383.644655 299.673073 
L 384.543014 299.20596 
L 389.034808 300.024403 
L 389.933167 298.554335 
L 390.831526 298.590228 
L 392.628243 298.906185 
L 393.526602 299.10207 
L 394.424961 298.747485 
L 395.323319 298.951305 
L 396.221678 298.467941 
L 397.120037 298.685738 
L 398.018396 298.557907 
L 398.916755 298.035971 
L 399.815113 297.829302 
L 403.408548 298.755765 
L 407.900342 299.676051 
L 409.69706 299.982965 
L 410.595419 299.529416 
L 411.493777 298.739059 
L 412.392136 298.118172 
L 413.290495 298.353457 
L 414.188854 298.167835 
L 415.087212 298.400637 
L 415.985571 298.031093 
L 416.88393 298.270733 
L 418.680648 298.519702 
L 419.579006 298.734912 
L 420.477365 298.700978 
L 422.274083 298.445024 
L 423.172441 297.386174 
L 424.0708 297.102877 
L 424.969159 297.100793 
L 426.765877 297.658794 
L 427.664235 297.732912 
L 431.25767 298.677255 
L 433.054388 299.081552 
L 433.952747 298.580646 
L 438.444541 299.540547 
L 439.342899 299.704714 
L 440.241258 299.18426 
L 442.037976 299.539123 
L 442.936334 299.578057 
L 445.631411 300.040993 
L 446.52977 299.362149 
L 447.428128 299.535236 
L 448.326487 299.254425 
L 451.021563 299.763519 
L 451.919922 298.951204 
L 452.818281 299.144838 
L 453.71664 297.926763 
L 454.614999 298.123089 
L 455.513357 298.043835 
L 456.411716 297.052888 
L 459.106792 297.875976 
L 460.005151 297.709429 
L 460.005151 297.709429 
" clip-path="url(#pf71762a850)" style="fill: none; stroke: #000000; stroke-width: 5; stroke-linecap: square"/>
   </g>
   <g id="line2d_10">
    <path d="M 102.458359 299.065901 
L 103.356718 297.851467 
L 104.255076 297.372424 
L 105.153435 297.133546 
L 106.051794 296.696433 
L 106.950153 297.002806 
L 107.848511 296.774661 
L 108.74687 296.723088 
L 109.645229 296.55812 
L 111.441947 294.915558 
L 112.340305 294.97375 
L 114.137023 295.739138 
L 115.93374 295.827931 
L 116.832099 296.177728 
L 117.730458 296.366923 
L 118.628817 296.311841 
L 119.527176 296.637443 
L 120.425534 296.6208 
L 123.120611 297.46817 
L 124.018969 297.122416 
L 125.815687 297.509585 
L 126.714046 297.7753 
L 127.612404 297.343022 
L 130.307481 298.06558 
L 131.20584 298.303496 
L 132.104198 297.744988 
L 133.002557 297.81934 
L 135.697633 296.399258 
L 136.595992 296.549355 
L 140.189427 297.713241 
L 141.087786 297.324089 
L 141.986145 297.516844 
L 142.884504 297.24755 
L 146.477939 298.281925 
L 148.274656 298.724766 
L 149.173015 298.731162 
L 153.664809 299.617467 
L 157.258244 298.35534 
L 159.054962 298.696357 
L 159.95332 298.902734 
L 160.851679 298.750061 
L 161.750038 298.334043 
L 162.648397 298.558535 
L 163.546755 298.544852 
L 164.445114 298.758804 
L 165.343473 298.243583 
L 166.241832 298.100622 
L 168.936908 298.774277 
L 170.733626 299.09912 
L 171.631984 298.626623 
L 172.530343 298.380503 
L 173.428702 298.602672 
L 174.327061 298.366709 
L 175.22542 298.340321 
L 176.123778 298.564499 
L 177.022137 298.604373 
L 177.920496 298.298778 
L 178.818855 298.313699 
L 180.615572 298.753442 
L 181.513931 298.143306 
L 182.41229 297.136281 
L 183.310649 297.152316 
L 186.904084 298.204356 
L 189.59916 298.785076 
L 190.497519 298.987016 
L 193.192595 295.912844 
L 194.090954 295.164574 
L 194.989313 294.657251 
L 196.78603 294.404333 
L 197.684389 293.649683 
L 198.582748 293.20035 
L 199.481106 292.59774 
L 201.277824 291.926733 
L 202.176183 292.023479 
L 203.074542 292.441668 
L 204.871259 292.557098 
L 205.769618 291.427001 
L 207.566335 289.737246 
L 208.464694 289.426981 
L 209.363053 288.798147 
L 210.261412 288.821423 
L 211.159771 288.302353 
L 212.058129 287.550444 
L 212.956488 286.95606 
L 213.854847 286.627978 
L 214.753206 286.788614 
L 215.651564 286.387272 
L 216.549923 285.684497 
L 217.448282 285.688797 
L 218.346641 285.955236 
L 219.245 285.344229 
L 220.143358 285.264949 
L 221.041717 285.73377 
L 221.940076 285.429568 
L 222.838435 285.503645 
L 223.736793 286.035614 
L 224.635152 286.363133 
L 225.533511 286.204653 
L 226.43187 286.333875 
L 228.228587 285.759304 
L 229.126946 285.350781 
L 230.025305 284.338485 
L 230.923664 283.905006 
L 232.720381 283.68027 
L 233.61874 284.362667 
L 234.517099 284.628539 
L 235.415457 284.615554 
L 236.313816 284.325253 
L 238.110534 284.207836 
L 239.008893 283.920263 
L 239.907251 284.362052 
L 240.80561 285.119174 
L 241.703969 285.542619 
L 242.602328 285.53216 
L 243.500686 284.97562 
L 244.399045 285.868033 
L 246.195763 285.435358 
L 247.99248 285.875174 
L 248.890839 285.001751 
L 250.687557 284.747678 
L 251.585915 284.240351 
L 252.484274 283.919118 
L 253.382633 283.220888 
L 254.280992 283.052395 
L 255.179351 282.602028 
L 256.976068 282.872037 
L 257.874427 282.989197 
L 258.772786 282.625255 
L 259.671144 282.50207 
L 260.569503 281.927699 
L 261.467862 282.172415 
L 262.366221 281.893774 
L 263.26458 281.254816 
L 266.858015 280.071586 
L 267.756373 280.041748 
L 268.654732 280.575784 
L 269.553091 280.827642 
L 270.45145 280.818673 
L 271.349808 280.939827 
L 272.248167 280.841755 
L 273.146526 280.191868 
L 274.943244 279.596717 
L 275.841602 279.107983 
L 278.536679 280.125773 
L 279.435037 280.640203 
L 280.333396 281.351242 
L 282.130114 283.393259 
L 284.82519 286.164553 
L 286.621908 287.777949 
L 290.215343 290.531377 
L 292.910419 292.284596 
L 293.808778 292.811561 
L 294.707137 293.111505 
L 295.605495 292.945804 
L 299.19893 294.726401 
L 300.097289 294.977255 
L 300.995648 295.369586 
L 301.894007 295.396237 
L 302.792366 295.600034 
L 303.690724 295.961227 
L 304.589083 296.154322 
L 308.182518 297.391484 
L 309.080877 297.663104 
L 309.979236 297.180701 
L 311.775953 297.730911 
L 312.674312 297.689675 
L 316.267747 298.641125 
L 318.962824 299.237691 
L 319.861182 299.166968 
L 320.759541 299.349813 
L 322.556259 298.164735 
L 324.352976 298.189995 
L 325.251335 298.421689 
L 327.048053 297.686999 
L 329.743129 298.419647 
L 331.539846 298.752598 
L 336.03164 299.6736 
L 338.726717 300.120773 
L 339.625075 300.064238 
L 344.116869 300.654722 
L 346.811946 300.957239 
L 347.710304 300.927598 
L 351.303739 301.279347 
L 352.202098 301.10233 
L 353.100457 301.188407 
L 353.998816 301.118411 
L 355.795533 301.251921 
L 357.592251 301.194722 
L 360.287327 301.378734 
L 361.185686 301.193642 
L 364.779121 301.460744 
L 365.67748 301.5289 
L 366.575839 301.01611 
L 367.474197 300.777412 
L 369.270915 300.976943 
L 370.169274 300.955711 
L 371.067632 301.049119 
L 371.965991 300.864802 
L 373.762709 301.055813 
L 374.661068 300.855301 
L 377.356144 299.39883 
L 378.254503 298.375593 
L 379.152861 298.29324 
L 381.847938 298.939423 
L 383.644655 299.23342 
L 384.543014 299.368485 
L 385.441373 299.06278 
L 389.933167 299.913613 
L 394.424961 300.571972 
L 396.221678 300.372255 
L 398.916755 300.721918 
L 399.815113 300.209552 
L 400.713472 300.340268 
L 401.611831 299.835233 
L 403.408548 299.454441 
L 406.103625 299.935007 
L 407.001983 299.880376 
L 407.900342 300.027552 
L 408.798701 299.597096 
L 411.493777 300.057317 
L 412.392136 300.090183 
L 413.290495 299.928983 
L 419.579006 300.562077 
L 420.477365 300.443209 
L 424.969159 300.981763 
L 425.867518 300.730334 
L 426.765877 300.749186 
L 427.664235 300.500712 
L 431.25767 300.931646 
L 432.156029 300.83866 
L 438.444541 301.423215 
L 440.241258 301.332812 
L 441.139617 300.399961 
L 442.037976 300.521157 
L 442.936334 299.77114 
L 445.631411 300.206538 
L 447.428128 300.067887 
L 448.326487 300.092079 
L 451.021563 300.481703 
L 451.919922 300.193996 
L 452.818281 300.325491 
L 455.513357 299.180001 
L 456.411716 298.867198 
L 460.005151 299.595362 
L 460.005151 299.595362 
" clip-path="url(#pf71762a850)" style="fill: none; stroke: #ff0000; stroke-width: 5; stroke-linecap: square"/>
   </g>
   <g id="line2d_11">
    <path d="M 102.458359 298.303185 
L 103.356718 297.479997 
L 105.153435 298.001026 
L 106.051794 297.91787 
L 109.645229 298.827905 
L 110.543588 298.187305 
L 111.441947 297.916452 
L 114.137023 298.616374 
L 115.035382 298.592871 
L 117.730458 299.196319 
L 118.628817 297.53836 
L 119.527176 296.868212 
L 121.323893 297.44889 
L 123.120611 296.40966 
L 125.815687 297.324489 
L 126.714046 297.401314 
L 128.510763 297.930014 
L 129.409122 297.778934 
L 133.002557 298.71474 
L 134.799275 299.115381 
L 135.697633 298.668447 
L 139.291069 299.401195 
L 142.884504 300.036082 
L 143.782862 299.51976 
L 148.274656 300.267215 
L 149.173015 300.395049 
L 150.071374 300.092362 
L 151.868091 300.358685 
L 152.76645 300.001893 
L 153.664809 300.142992 
L 154.563168 300.074022 
L 157.258244 300.466221 
L 158.156603 299.55121 
L 159.054962 299.714844 
L 159.95332 299.64825 
L 160.851679 299.30522 
L 162.648397 298.029344 
L 164.445114 298.474134 
L 165.343473 298.123157 
L 166.241832 298.032114 
L 168.038549 298.499312 
L 168.936908 297.738592 
L 172.530343 298.681882 
L 173.428702 298.888982 
L 174.327061 298.379059 
L 175.22542 297.214446 
L 177.022137 297.761366 
L 177.920496 297.861296 
L 179.717213 298.251555 
L 180.615572 298.480171 
L 181.513931 298.279094 
L 187.802442 299.636013 
L 190.497519 300.090683 
L 191.395877 292.398978 
L 192.294236 285.74837 
L 194.989313 270.724131 
L 196.78603 263.172062 
L 198.582748 258.424041 
L 199.481106 256.589718 
L 200.379465 255.0784 
L 201.277824 253.199906 
L 202.176183 252.330419 
L 203.074542 250.757237 
L 203.9729 248.257555 
L 204.871259 247.778269 
L 205.769618 246.464614 
L 206.667977 243.332665 
L 207.566335 241.848057 
L 208.464694 241.894618 
L 209.363053 241.395104 
L 210.261412 239.640271 
L 211.159771 238.819228 
L 212.058129 238.724286 
L 212.956488 236.055541 
L 213.854847 235.258225 
L 214.753206 234.767106 
L 215.651564 233.747061 
L 216.549923 233.712638 
L 217.448282 233.564304 
L 218.346641 232.97005 
L 219.245 231.563225 
L 220.143358 231.098453 
L 221.041717 231.072172 
L 221.940076 230.518514 
L 222.838435 229.213811 
L 223.736793 228.645728 
L 224.635152 228.482748 
L 225.533511 226.257611 
L 226.43187 225.152945 
L 227.330228 224.606203 
L 228.228587 223.180871 
L 229.126946 223.912895 
L 230.025305 222.679378 
L 230.923664 222.941823 
L 231.822022 222.611437 
L 232.720381 222.658288 
L 233.61874 224.092605 
L 234.517099 224.787733 
L 235.415457 223.610787 
L 236.313816 223.552734 
L 239.907251 224.461723 
L 240.80561 224.128422 
L 241.703969 223.962066 
L 242.602328 223.031215 
L 243.500686 222.478607 
L 244.399045 221.401903 
L 245.297404 222.662589 
L 246.195763 222.182445 
L 247.094122 222.097178 
L 247.99248 221.398717 
L 248.890839 221.453041 
L 249.789198 222.305291 
L 250.687557 221.544232 
L 252.484274 219.215711 
L 254.280992 221.419573 
L 256.976068 219.108788 
L 257.874427 218.613763 
L 258.772786 217.61362 
L 259.671144 218.629047 
L 260.569503 218.723858 
L 261.467862 219.861977 
L 263.26458 221.498204 
L 264.162938 221.220615 
L 265.061297 221.899358 
L 265.959656 222.932734 
L 266.858015 222.579907 
L 267.756373 223.171621 
L 268.654732 222.328871 
L 269.553091 222.458287 
L 270.45145 223.363201 
L 271.349808 222.584142 
L 272.248167 222.385302 
L 273.146526 222.614601 
L 274.044885 222.438157 
L 274.943244 222.834474 
L 275.841602 222.030228 
L 276.739961 221.074131 
L 277.63832 221.089914 
L 278.536679 222.191739 
L 280.333396 219.994799 
L 282.130114 228.070641 
L 283.926831 235.359084 
L 285.723549 241.694654 
L 287.520266 247.654752 
L 289.316984 253.033744 
L 290.215343 255.523252 
L 291.113702 257.296295 
L 292.910419 261.735237 
L 294.707137 265.741382 
L 296.503854 269.356926 
L 298.300572 272.619954 
L 300.097289 275.356648 
L 302.792366 279.274164 
L 303.690724 279.708788 
L 304.589083 280.864542 
L 307.284159 282.674997 
L 308.182518 283.682441 
L 309.080877 284.010815 
L 311.775953 286.694029 
L 312.674312 287.500522 
L 313.572671 287.460212 
L 314.47103 287.841369 
L 315.369388 288.042414 
L 317.166106 289.483607 
L 318.064465 289.901267 
L 321.6579 292.262095 
L 322.556259 292.338587 
L 325.251335 293.834053 
L 326.149694 293.625689 
L 327.048053 294.085598 
L 328.84477 294.638384 
L 330.641488 295.43647 
L 332.438205 295.609006 
L 333.336564 295.339525 
L 334.234923 295.394698 
L 337.828358 296.765346 
L 340.523434 297.62569 
L 342.320152 298.035744 
L 344.116869 298.502588 
L 345.015228 298.440287 
L 345.913587 298.659467 
L 346.811946 297.912224 
L 347.710304 298.00597 
L 348.608663 298.246866 
L 349.507022 298.12735 
L 353.100457 298.95914 
L 353.998816 299.152377 
L 354.897175 298.836554 
L 355.795533 298.836453 
L 356.693892 298.629576 
L 360.287327 299.407594 
L 361.185686 299.362946 
L 362.084045 299.116203 
L 362.982404 299.122176 
L 365.67748 299.650132 
L 366.575839 297.842934 
L 370.169274 298.76687 
L 371.067632 298.96972 
L 371.965991 298.833705 
L 376.457785 299.73636 
L 377.356144 299.297004 
L 381.847938 300.06719 
L 387.23809 300.79746 
L 389.034808 300.995036 
L 389.933167 300.664561 
L 396.221678 301.315362 
L 398.018396 301.068724 
L 398.916755 300.430424 
L 399.815113 299.646792 
L 400.713472 299.805647 
L 401.611831 299.597204 
L 402.51019 298.929682 
L 403.408548 299.124392 
L 404.306907 299.193013 
L 407.001983 299.687036 
L 409.69706 299.987853 
L 410.595419 300.129654 
L 411.493777 299.875193 
L 412.392136 299.356762 
L 413.290495 299.530118 
L 414.188854 299.34024 
L 415.087212 299.514422 
L 415.985571 298.564449 
L 416.88393 298.777421 
L 417.782289 298.607914 
L 418.680648 298.110757 
L 419.579006 298.346414 
L 420.477365 297.74898 
L 421.375724 297.574659 
L 422.274083 297.831308 
L 424.0708 296.673593 
L 427.664235 297.814434 
L 429.460953 298.302855 
L 430.359312 297.683512 
L 433.054388 298.416657 
L 433.952747 297.842465 
L 437.546182 298.766487 
L 439.342899 299.162083 
L 440.241258 298.799808 
L 444.733052 299.71013 
L 447.428128 300.154229 
L 448.326487 299.70353 
L 451.021563 300.14857 
L 451.919922 299.252857 
L 455.513357 299.91526 
L 456.411716 299.004557 
L 457.310075 299.086779 
L 458.208434 298.209672 
L 459.106792 298.440383 
L 460.005151 298.137334 
L 460.005151 298.137334 
" clip-path="url(#pf71762a850)" style="fill: none; stroke: #0000ff; stroke-width: 5; stroke-linecap: square"/>
   </g>
   <g id="patch_3">
    <path d="M 101.56 322.75952 
L 101.56 31.720156 
" style="fill: none; stroke: #000000; stroke-width: 5; stroke-linejoin: miter; stroke-linecap: square"/>
   </g>
   <g id="patch_4">
    <path d="M 101.56 322.75952 
L 460.90351 322.75952 
" style="fill: none; stroke: #000000; stroke-width: 5; stroke-linejoin: miter; stroke-linecap: square"/>
   </g>
   <g id="patch_5">
    <path d="M 191.395877 316.938733 
L 281.231755 316.938733 
L 281.231755 306.752355 
L 191.395877 306.752355 
z
" style="fill: #8c5a2b; stroke: #8c5a2b; stroke-linejoin: miter"/>
   </g>
   <g id="text_11">
    <!-- Novel | Naive -->
    <g transform="translate(217.929099 21.720156) scale(0.19 -0.19)">
     <defs>
      <path id="DejaVuSans-6f" d="M 1959 3097 
Q 1497 3097 1228 2736 
Q 959 2375 959 1747 
Q 959 1119 1226 758 
Q 1494 397 1959 397 
Q 2419 397 2687 759 
Q 2956 1122 2956 1747 
Q 2956 2369 2687 2733 
Q 2419 3097 1959 3097 
z
M 1959 3584 
Q 2709 3584 3137 3096 
Q 3566 2609 3566 1747 
Q 3566 888 3137 398 
Q 2709 -91 1959 -91 
Q 1206 -91 779 398 
Q 353 888 353 1747 
Q 353 2609 779 3096 
Q 1206 3584 1959 3584 
z
" transform="scale(0.015625)"/>
      <path id="DejaVuSans-7c" d="M 1344 4891 
L 1344 -1509 
L 813 -1509 
L 813 4891 
L 1344 4891 
z
" transform="scale(0.015625)"/>
     </defs>
     <use xlink:href="#DejaVuSans-4e"/>
     <use xlink:href="#DejaVuSans-6f" transform="translate(74.804688 0)"/>
     <use xlink:href="#DejaVuSans-76" transform="translate(135.986328 0)"/>
     <use xlink:href="#DejaVuSans-65" transform="translate(195.166016 0)"/>
     <use xlink:href="#DejaVuSans-6c" transform="translate(256.689453 0)"/>
     <use xlink:href="#DejaVuSans-20" transform="translate(284.472656 0)"/>
     <use xlink:href="#DejaVuSans-7c" transform="translate(316.259766 0)"/>
     <use xlink:href="#DejaVuSans-20" transform="translate(349.951172 0)"/>
     <use xlink:href="#DejaVuSans-4e" transform="translate(381.738281 0)"/>
     <use xlink:href="#DejaVuSans-61" transform="translate(456.542969 0)"/>
     <use xlink:href="#DejaVuSans-69" transform="translate(517.822266 0)"/>
     <use xlink:href="#DejaVuSans-76" transform="translate(545.605469 0)"/>
     <use xlink:href="#DejaVuSans-65" transform="translate(604.785156 0)"/>
    </g>
   </g>
   <g id="legend_1">
    <g id="line2d_12">
     <path d="M 110.56 46.867812 
L 125.56 46.867812 
L 140.56 46.867812 
" style="fill: none; stroke: #000000; stroke-width: 5; stroke-linecap: square"/>
    </g>
    <g id="text_12">
     <!-- Nonoccluded (NO) -->
     <g transform="translate(152.56 52.117812) scale(0.15 -0.15)">
      <defs>
       <path id="DejaVuSans-6e" d="M 3513 2113 
L 3513 0 
L 2938 0 
L 2938 2094 
Q 2938 2591 2744 2837 
Q 2550 3084 2163 3084 
Q 1697 3084 1428 2787 
Q 1159 2491 1159 1978 
L 1159 0 
L 581 0 
L 581 3500 
L 1159 3500 
L 1159 2956 
Q 1366 3272 1645 3428 
Q 1925 3584 2291 3584 
Q 2894 3584 3203 3211 
Q 3513 2838 3513 2113 
z
" transform="scale(0.015625)"/>
       <path id="DejaVuSans-64" d="M 2906 2969 
L 2906 4863 
L 3481 4863 
L 3481 0 
L 2906 0 
L 2906 525 
Q 2725 213 2448 61 
Q 2172 -91 1784 -91 
Q 1150 -91 751 415 
Q 353 922 353 1747 
Q 353 2572 751 3078 
Q 1150 3584 1784 3584 
Q 2172 3584 2448 3432 
Q 2725 3281 2906 2969 
z
M 947 1747 
Q 947 1113 1208 752 
Q 1469 391 1925 391 
Q 2381 391 2643 752 
Q 2906 1113 2906 1747 
Q 2906 2381 2643 2742 
Q 2381 3103 1925 3103 
Q 1469 3103 1208 2742 
Q 947 2381 947 1747 
z
" transform="scale(0.015625)"/>
       <path id="DejaVuSans-4f" d="M 2522 4238 
Q 1834 4238 1429 3725 
Q 1025 3213 1025 2328 
Q 1025 1447 1429 934 
Q 1834 422 2522 422 
Q 3209 422 3611 934 
Q 4013 1447 4013 2328 
Q 4013 3213 3611 3725 
Q 3209 4238 2522 4238 
z
M 2522 4750 
Q 3503 4750 4090 4092 
Q 4678 3434 4678 2328 
Q 4678 1225 4090 567 
Q 3503 -91 2522 -91 
Q 1538 -91 948 565 
Q 359 1222 359 2328 
Q 359 3434 948 4092 
Q 1538 4750 2522 4750 
z
" transform="scale(0.015625)"/>
      </defs>
      <use xlink:href="#DejaVuSans-4e"/>
      <use xlink:href="#DejaVuSans-6f" transform="translate(74.804688 0)"/>
      <use xlink:href="#DejaVuSans-6e" transform="translate(135.986328 0)"/>
      <use xlink:href="#DejaVuSans-6f" transform="translate(199.365234 0)"/>
      <use xlink:href="#DejaVuSans-63" transform="translate(260.546875 0)"/>
      <use xlink:href="#DejaVuSans-63" transform="translate(315.527344 0)"/>
      <use xlink:href="#DejaVuSans-6c" transform="translate(370.507812 0)"/>
      <use xlink:href="#DejaVuSans-75" transform="translate(398.291016 0)"/>
      <use xlink:href="#DejaVuSans-64" transform="translate(461.669922 0)"/>
      <use xlink:href="#DejaVuSans-65" transform="translate(525.146484 0)"/>
      <use xlink:href="#DejaVuSans-64" transform="translate(586.669922 0)"/>
      <use xlink:href="#DejaVuSans-20" transform="translate(650.146484 0)"/>
      <use xlink:href="#DejaVuSans-28" transform="translate(681.933594 0)"/>
      <use xlink:href="#DejaVuSans-4e" transform="translate(720.947266 0)"/>
      <use xlink:href="#DejaVuSans-4f" transform="translate(795.751953 0)"/>
      <use xlink:href="#DejaVuSans-29" transform="translate(874.462891 0)"/>
     </g>
    </g>
    <g id="line2d_13">
     <path d="M 110.56 68.885 
L 125.56 68.885 
L 140.56 68.885 
" style="fill: none; stroke: #ff0000; stroke-width: 5; stroke-linecap: square"/>
    </g>
    <g id="text_13">
     <!-- Occluded (O) -->
     <g transform="translate(152.56 74.135) scale(0.15 -0.15)">
      <use xlink:href="#DejaVuSans-4f"/>
      <use xlink:href="#DejaVuSans-63" transform="translate(78.710938 0)"/>
      <use xlink:href="#DejaVuSans-63" transform="translate(133.691406 0)"/>
      <use xlink:href="#DejaVuSans-6c" transform="translate(188.671875 0)"/>
      <use xlink:href="#DejaVuSans-75" transform="translate(216.455078 0)"/>
      <use xlink:href="#DejaVuSans-64" transform="translate(279.833984 0)"/>
      <use xlink:href="#DejaVuSans-65" transform="translate(343.310547 0)"/>
      <use xlink:href="#DejaVuSans-64" transform="translate(404.833984 0)"/>
      <use xlink:href="#DejaVuSans-20" transform="translate(468.310547 0)"/>
      <use xlink:href="#DejaVuSans-28" transform="translate(500.097656 0)"/>
      <use xlink:href="#DejaVuSans-4f" transform="translate(539.111328 0)"/>
      <use xlink:href="#DejaVuSans-29" transform="translate(617.822266 0)"/>
     </g>
    </g>
    <g id="line2d_14">
     <path d="M 110.56 90.902187 
L 125.56 90.902187 
L 140.56 90.902187 
" style="fill: none; stroke: #0000ff; stroke-width: 5; stroke-linecap: square"/>
    </g>
    <g id="text_14">
     <!-- No feedback -->
     <g transform="translate(152.56 96.152187) scale(0.15 -0.15)">
      <defs>
       <path id="DejaVuSans-66" d="M 2375 4863 
L 2375 4384 
L 1825 4384 
Q 1516 4384 1395 4259 
Q 1275 4134 1275 3809 
L 1275 3500 
L 2222 3500 
L 2222 3053 
L 1275 3053 
L 1275 0 
L 697 0 
L 697 3053 
L 147 3053 
L 147 3500 
L 697 3500 
L 697 3744 
Q 697 4328 969 4595 
Q 1241 4863 1831 4863 
L 2375 4863 
z
" transform="scale(0.015625)"/>
       <path id="DejaVuSans-62" d="M 3116 1747 
Q 3116 2381 2855 2742 
Q 2594 3103 2138 3103 
Q 1681 3103 1420 2742 
Q 1159 2381 1159 1747 
Q 1159 1113 1420 752 
Q 1681 391 2138 391 
Q 2594 391 2855 752 
Q 3116 1113 3116 1747 
z
M 1159 2969 
Q 1341 3281 1617 3432 
Q 1894 3584 2278 3584 
Q 2916 3584 3314 3078 
Q 3713 2572 3713 1747 
Q 3713 922 3314 415 
Q 2916 -91 2278 -91 
Q 1894 -91 1617 61 
Q 1341 213 1159 525 
L 1159 0 
L 581 0 
L 581 4863 
L 1159 4863 
L 1159 2969 
z
" transform="scale(0.015625)"/>
       <path id="DejaVuSans-6b" d="M 581 4863 
L 1159 4863 
L 1159 1991 
L 2875 3500 
L 3609 3500 
L 1753 1863 
L 3688 0 
L 2938 0 
L 1159 1709 
L 1159 0 
L 581 0 
L 581 4863 
z
" transform="scale(0.015625)"/>
      </defs>
      <use xlink:href="#DejaVuSans-4e"/>
      <use xlink:href="#DejaVuSans-6f" transform="translate(74.804688 0)"/>
      <use xlink:href="#DejaVuSans-20" transform="translate(135.986328 0)"/>
      <use xlink:href="#DejaVuSans-66" transform="translate(167.773438 0)"/>
      <use xlink:href="#DejaVuSans-65" transform="translate(202.978516 0)"/>
      <use xlink:href="#DejaVuSans-65" transform="translate(264.501953 0)"/>
      <use xlink:href="#DejaVuSans-64" transform="translate(326.025391 0)"/>
      <use xlink:href="#DejaVuSans-62" transform="translate(389.501953 0)"/>
      <use xlink:href="#DejaVuSans-61" transform="translate(452.978516 0)"/>
      <use xlink:href="#DejaVuSans-63" transform="translate(514.257812 0)"/>
      <use xlink:href="#DejaVuSans-6b" transform="translate(569.238281 0)"/>
     </g>
    </g>
   </g>
  </g>
  <g id="axes_2">
   <g id="patch_6">
    <path d="M 495.67601 322.75952 
L 855.01952 322.75952 
L 855.01952 31.720156 
L 495.67601 31.720156 
z
" style="fill: #ffffff"/>
   </g>
   <g id="matplotlib.axis_3">
    <g id="xtick_6">
     <g id="line2d_15">
      <g>
       <use xlink:href="#mfb67ca7fd0" x="495.67601" y="322.75952" style="stroke: #000000; stroke-width: 1.6"/>
      </g>
     </g>
     <g id="text_15">
      <!-- -1 -->
      <g transform="translate(479.72351 355.57452) scale(0.32 -0.32)">
       <use xlink:href="#DejaVuSans-2d"/>
       <use xlink:href="#DejaVuSans-31" transform="translate(36.083984 0)"/>
      </g>
     </g>
    </g>
    <g id="xtick_7">
     <g id="line2d_16">
      <g>
       <use xlink:href="#mfb67ca7fd0" x="585.511887" y="322.75952" style="stroke: #000000; stroke-width: 1.6"/>
      </g>
     </g>
     <g id="text_16">
      <!-- 0 -->
      <g transform="translate(575.331887 355.57452) scale(0.32 -0.32)">
       <use xlink:href="#DejaVuSans-30"/>
      </g>
     </g>
    </g>
    <g id="xtick_8">
     <g id="line2d_17">
      <g>
       <use xlink:href="#mfb67ca7fd0" x="675.347765" y="322.75952" style="stroke: #000000; stroke-width: 1.6"/>
      </g>
     </g>
     <g id="text_17">
      <!-- 1 -->
      <g transform="translate(665.167765 355.57452) scale(0.32 -0.32)">
       <use xlink:href="#DejaVuSans-31"/>
      </g>
     </g>
    </g>
    <g id="xtick_9">
     <g id="line2d_18">
      <g>
       <use xlink:href="#mfb67ca7fd0" x="765.183642" y="322.75952" style="stroke: #000000; stroke-width: 1.6"/>
      </g>
     </g>
     <g id="text_18">
      <!-- 2 -->
      <g transform="translate(755.003642 355.57452) scale(0.32 -0.32)">
       <use xlink:href="#DejaVuSans-32"/>
      </g>
     </g>
    </g>
    <g id="xtick_10">
     <g id="line2d_19">
      <g>
       <use xlink:href="#mfb67ca7fd0" x="855.01952" y="322.75952" style="stroke: #000000; stroke-width: 1.6"/>
      </g>
     </g>
     <g id="text_19">
      <!-- 3 -->
      <g transform="translate(844.83952 355.57452) scale(0.32 -0.32)">
       <use xlink:href="#DejaVuSans-33"/>
      </g>
     </g>
    </g>
    <g id="text_20">
     <!-- Time (s) -->
     <g transform="translate(610.295265 390.54452) scale(0.32 -0.32)">
      <use xlink:href="#DejaVuSans-54"/>
      <use xlink:href="#DejaVuSans-69" transform="translate(57.958984 0)"/>
      <use xlink:href="#DejaVuSans-6d" transform="translate(85.742188 0)"/>
      <use xlink:href="#DejaVuSans-65" transform="translate(183.154297 0)"/>
      <use xlink:href="#DejaVuSans-20" transform="translate(244.677734 0)"/>
      <use xlink:href="#DejaVuSans-28" transform="translate(276.464844 0)"/>
      <use xlink:href="#DejaVuSans-73" transform="translate(315.478516 0)"/>
      <use xlink:href="#DejaVuSans-29" transform="translate(367.578125 0)"/>
     </g>
    </g>
   </g>
   <g id="matplotlib.axis_4">
    <g id="ytick_4">
     <g id="line2d_20">
      <g>
       <use xlink:href="#me701ca3665" x="495.67601" y="302.823882" style="stroke: #000000; stroke-width: 1.6"/>
      </g>
     </g>
    </g>
    <g id="ytick_5">
     <g id="line2d_21">
      <g>
       <use xlink:href="#me701ca3665" x="495.67601" y="204.293391" style="stroke: #000000; stroke-width: 1.6"/>
      </g>
     </g>
    </g>
    <g id="ytick_6">
     <g id="line2d_22">
      <g>
       <use xlink:href="#me701ca3665" x="495.67601" y="105.762899" style="stroke: #000000; stroke-width: 1.6"/>
      </g>
     </g>
    </g>
   </g>
   <g id="line2d_23">
    <path d="M 496.574369 300.88971 
L 497.472728 299.667887 
L 502.86288 300.503936 
L 508.253033 301.118508 
L 511.846468 301.434845 
L 512.744827 300.832449 
L 519.033338 301.43319 
L 524.423491 301.751173 
L 533.407079 302.181611 
L 537.000514 302.300749 
L 537.898872 301.509756 
L 541.492308 301.753518 
L 542.390666 300.419536 
L 543.289025 300.539754 
L 544.187384 300.083981 
L 545.984101 300.351121 
L 546.88246 299.991302 
L 551.374254 300.632086 
L 552.272613 299.935016 
L 554.967689 300.34704 
L 555.866048 300.308055 
L 562.154559 300.978711 
L 563.052918 300.001392 
L 568.443071 300.749093 
L 569.34143 300.619261 
L 574.731582 301.203283 
L 575.629941 301.060359 
L 581.918452 301.592348 
L 584.613529 301.767996 
L 585.511887 283.334148 
L 587.308605 254.44105 
L 589.105323 234.668662 
L 590.003681 227.85642 
L 590.90204 219.026913 
L 592.698758 208.467931 
L 594.495475 199.05568 
L 595.393834 189.235316 
L 597.190552 176.215328 
L 598.987269 162.883227 
L 599.885628 154.618594 
L 600.783987 145.325166 
L 602.580704 132.824062 
L 603.479063 127.732793 
L 604.377422 123.870409 
L 606.174139 119.471948 
L 607.072498 118.608768 
L 608.869216 114.064851 
L 609.767574 113.278268 
L 610.665933 108.152584 
L 611.564292 105.873072 
L 612.462651 101.278692 
L 613.36101 95.02295 
L 616.056086 83.586143 
L 616.954445 78.875289 
L 617.852803 76.485147 
L 618.751162 74.524546 
L 619.649521 72.01928 
L 620.54788 72.246531 
L 621.446238 74.737027 
L 622.344597 75.406505 
L 623.242956 74.440094 
L 624.141315 72.321146 
L 625.039674 71.080678 
L 625.938032 71.983779 
L 626.836391 72.012116 
L 627.73475 72.338222 
L 628.633109 72.206787 
L 629.531467 71.56955 
L 630.429826 70.49295 
L 631.328185 72.390035 
L 632.226544 71.775218 
L 633.124903 70.514738 
L 634.023261 70.588912 
L 634.92162 69.233189 
L 635.819979 66.308262 
L 636.718338 64.863006 
L 637.616696 65.23517 
L 638.515055 67.235383 
L 639.413414 66.408233 
L 640.311773 66.126629 
L 641.210132 65.011487 
L 643.006849 65.698144 
L 643.905208 66.405517 
L 644.803567 66.244747 
L 646.600284 71.290882 
L 647.498643 70.672351 
L 648.397002 68.511721 
L 649.295361 65.171817 
L 650.193719 67.183027 
L 651.092078 65.915293 
L 651.990437 66.017452 
L 652.888796 67.551197 
L 653.787154 71.814655 
L 654.685513 71.556762 
L 655.583872 69.585693 
L 656.482231 68.389212 
L 658.278948 63.993762 
L 659.177307 64.390445 
L 660.075666 62.082082 
L 661.872383 61.376163 
L 662.770742 61.886413 
L 663.669101 61.075633 
L 664.56746 58.489469 
L 665.465818 58.248769 
L 666.364177 57.365283 
L 667.262536 54.245524 
L 668.160895 55.072307 
L 669.059254 53.139368 
L 669.957612 54.018831 
L 670.855971 53.554257 
L 671.75433 52.527972 
L 672.652689 51.791837 
L 673.551047 52.571431 
L 674.449406 53.56659 
L 676.246124 77.869192 
L 678.042841 99.802266 
L 679.839559 119.596879 
L 681.636276 137.461504 
L 683.432994 153.584352 
L 685.229712 168.135207 
L 687.026429 181.267359 
L 688.823147 193.119129 
L 693.31494 217.51903 
L 695.111658 225.836254 
L 696.908376 233.342552 
L 698.705093 240.116987 
L 700.501811 246.23091 
L 702.298528 251.748726 
L 704.095246 256.728553 
L 705.891963 261.222847 
L 706.790322 263.302899 
L 707.688681 264.578678 
L 709.485398 268.307586 
L 710.383757 270.00346 
L 711.282116 271.435245 
L 712.180475 272.295235 
L 713.078834 273.405055 
L 714.875551 276.273391 
L 716.672269 278.788875 
L 719.367345 282.216869 
L 720.265704 282.725302 
L 722.96078 285.591863 
L 724.757498 287.271984 
L 728.350933 290.129343 
L 731.046009 291.939903 
L 733.741085 293.49223 
L 736.436162 294.823157 
L 740.029597 296.307242 
L 743.623032 297.516038 
L 747.216467 298.50061 
L 749.013185 298.92213 
L 750.809902 299.20904 
L 755.301696 300.026786 
L 759.79349 300.659543 
L 760.691849 300.175539 
L 766.082001 300.877106 
L 772.370513 301.464376 
L 773.268871 300.537216 
L 777.760665 301.054503 
L 778.659024 300.161749 
L 779.557383 299.567496 
L 783.150818 300.171536 
L 784.049177 299.045227 
L 784.947536 298.77429 
L 788.540971 299.500176 
L 793.032765 300.252062 
L 795.727841 300.618868 
L 796.6262 299.841154 
L 802.016352 300.631303 
L 805.609787 301.038013 
L 806.508146 299.709743 
L 809.203222 300.153897 
L 810.101581 298.954898 
L 810.99994 299.148348 
L 811.898299 298.096051 
L 812.796658 298.022888 
L 813.695016 298.262937 
L 814.593375 297.961229 
L 818.18681 298.863221 
L 820.881887 299.42811 
L 821.780245 299.23625 
L 823.576963 299.586044 
L 824.475322 299.197765 
L 827.170398 299.71494 
L 828.068757 299.132066 
L 832.560551 299.967225 
L 833.458909 299.903428 
L 834.357268 298.10778 
L 838.849062 299.174653 
L 843.340856 300.000178 
L 846.934291 300.464027 
L 852.324444 301.089172 
L 853.222802 301.175907 
L 854.121161 300.802842 
L 854.121161 300.802842 
" clip-path="url(#pb72a51c0dc)" style="fill: none; stroke: #000000; stroke-width: 5; stroke-linecap: square"/>
   </g>
   <g id="line2d_24">
    <path d="M 496.574369 296.637295 
L 497.472728 296.388073 
L 498.371086 296.709863 
L 499.269445 296.314625 
L 500.167804 295.610273 
L 503.761239 296.948353 
L 504.659598 295.883794 
L 505.557957 295.977602 
L 508.253033 296.954053 
L 509.151392 296.933965 
L 510.04975 296.793045 
L 511.846468 297.381051 
L 512.744827 296.190146 
L 513.643185 295.956039 
L 516.338262 296.935565 
L 517.236621 295.731668 
L 519.931697 296.743195 
L 520.830056 295.795209 
L 524.423491 297.098984 
L 527.118567 297.915498 
L 528.016926 297.685798 
L 528.915285 297.942702 
L 529.813643 297.497051 
L 533.407079 298.485145 
L 534.305437 298.702082 
L 535.203796 298.407409 
L 537.000514 298.838015 
L 537.898872 298.801057 
L 541.492308 299.547266 
L 542.390666 298.909511 
L 543.289025 299.105229 
L 544.187384 298.740694 
L 545.984101 299.138804 
L 546.88246 298.589886 
L 547.780819 298.801586 
L 548.679178 298.441967 
L 551.374254 299.066937 
L 552.272613 297.698712 
L 553.170972 297.846562 
L 554.06933 297.788983 
L 554.967689 298.040728 
L 556.764407 297.79772 
L 557.662765 298.049029 
L 558.561124 297.740175 
L 559.459483 297.789414 
L 562.154559 298.507455 
L 563.052918 297.658562 
L 563.951277 297.916828 
L 564.849636 297.494882 
L 565.747994 297.761332 
L 566.646353 296.555838 
L 567.544712 296.86924 
L 568.443071 296.78589 
L 569.34143 294.489042 
L 571.138147 295.301689 
L 572.036506 295.466232 
L 574.731582 296.515617 
L 576.5283 296.340802 
L 579.223376 297.196293 
L 581.020094 297.744983 
L 581.918452 297.175299 
L 584.613529 297.980928 
L 587.308605 265.059586 
L 588.206964 258.235129 
L 589.105323 249.202126 
L 590.90204 234.458934 
L 591.800399 230.09044 
L 592.698758 224.213873 
L 593.597116 217.528852 
L 594.495475 212.332452 
L 595.393834 205.222148 
L 596.292193 199.915293 
L 597.190552 195.919213 
L 598.08891 191.183708 
L 598.987269 187.543781 
L 599.885628 182.053597 
L 600.783987 177.271315 
L 603.479063 167.769077 
L 605.275781 163.972792 
L 606.174139 160.828014 
L 607.072498 159.360118 
L 607.970857 157.412952 
L 608.869216 157.01969 
L 609.767574 156.374584 
L 610.665933 151.704576 
L 611.564292 151.242308 
L 612.462651 149.81329 
L 613.36101 146.400152 
L 614.259368 143.827421 
L 615.157727 143.677002 
L 616.056086 143.150323 
L 616.954445 141.800399 
L 617.852803 141.926137 
L 618.751162 141.436824 
L 619.649521 140.678753 
L 620.54788 140.244292 
L 621.446238 140.92628 
L 622.344597 140.585536 
L 623.242956 138.736799 
L 625.039674 134.736196 
L 625.938032 135.223293 
L 626.836391 134.823893 
L 627.73475 136.132722 
L 629.531467 137.776598 
L 630.429826 136.346524 
L 631.328185 136.794859 
L 632.226544 135.575709 
L 633.124903 134.055559 
L 634.023261 135.101122 
L 634.92162 135.662217 
L 635.819979 134.861656 
L 636.718338 134.827652 
L 637.616696 134.258658 
L 638.515055 135.882978 
L 639.413414 134.767367 
L 640.311773 133.881341 
L 641.210132 132.36354 
L 642.10849 132.0219 
L 643.006849 132.181672 
L 644.803567 131.099198 
L 646.600284 132.723577 
L 647.498643 130.972858 
L 648.397002 130.316256 
L 649.295361 128.824193 
L 651.092078 126.191839 
L 651.990437 127.372243 
L 652.888796 127.226096 
L 653.787154 128.978077 
L 654.685513 128.75968 
L 655.583872 126.863358 
L 656.482231 126.730792 
L 657.380589 126.168186 
L 659.177307 127.129634 
L 660.075666 125.491278 
L 660.974025 125.596828 
L 661.872383 125.312611 
L 662.770742 125.918412 
L 663.669101 126.237353 
L 664.56746 125.472529 
L 665.465818 126.387215 
L 666.364177 126.415815 
L 667.262536 124.91371 
L 668.160895 124.730477 
L 669.059254 122.707007 
L 669.957612 122.769318 
L 670.855971 122.481312 
L 671.75433 121.472161 
L 672.652689 120.707895 
L 673.551047 121.089646 
L 674.449406 121.95544 
L 676.246124 139.590113 
L 678.042841 155.505413 
L 679.839559 169.868967 
L 681.636276 182.832069 
L 683.432994 194.531269 
L 684.331353 199.945898 
L 687.924788 218.660115 
L 689.721505 226.866085 
L 691.518223 234.271971 
L 693.31494 240.95578 
L 695.111658 246.98792 
L 696.908376 252.431928 
L 698.705093 257.345146 
L 700.501811 260.612413 
L 701.400169 261.756714 
L 703.196887 265.760763 
L 704.993605 269.374416 
L 706.790322 272.635739 
L 707.688681 273.278173 
L 708.58704 274.755458 
L 709.485398 275.887614 
L 710.383757 276.655529 
L 711.282116 277.854222 
L 712.180475 278.210142 
L 714.875551 281.720677 
L 717.570627 284.730523 
L 720.265704 287.31109 
L 721.164063 288.08673 
L 726.554215 291.65644 
L 727.452574 292.069375 
L 730.14765 293.598885 
L 731.944368 294.498322 
L 733.741085 295.20101 
L 737.33452 296.615006 
L 740.029597 297.500547 
L 740.927956 296.041791 
L 742.724673 296.617369 
L 746.318108 297.768639 
L 748.114826 298.261525 
L 749.013185 297.992456 
L 749.911543 298.056402 
L 750.809902 298.294776 
L 751.708261 297.864236 
L 754.403337 298.571605 
L 755.301696 297.850058 
L 757.098414 297.900695 
L 757.996772 298.146854 
L 758.895131 297.844792 
L 759.79349 297.827458 
L 760.691849 295.770239 
L 761.590207 295.93893 
L 762.488566 295.634192 
L 763.386925 295.993676 
L 764.285284 295.690326 
L 767.878719 297.013557 
L 770.573795 297.842255 
L 771.472154 296.360967 
L 772.370513 296.684113 
L 773.268871 296.826311 
L 776.862307 297.938823 
L 777.760665 298.183076 
L 778.659024 297.267568 
L 779.557383 296.546825 
L 783.150818 297.71118 
L 784.049177 296.294888 
L 784.947536 295.499805 
L 787.642612 296.544402 
L 788.540971 296.431163 
L 789.439329 296.750799 
L 790.337688 295.539968 
L 793.032765 296.578836 
L 793.931123 296.455889 
L 797.524558 297.637112 
L 798.422917 296.993202 
L 800.219635 297.561693 
L 801.117993 297.534451 
L 802.914711 297.965368 
L 804.711429 298.425237 
L 805.609787 298.199746 
L 806.508146 297.042016 
L 807.406505 297.331109 
L 808.304864 297.27016 
L 809.203222 297.547846 
L 810.101581 297.641208 
L 810.99994 297.900342 
L 811.898299 297.396052 
L 812.796658 297.41826 
L 813.695016 297.688541 
L 814.593375 297.333992 
L 815.491734 296.615862 
L 818.18681 297.085451 
L 819.983528 297.541125 
L 821.780245 298.056194 
L 822.678604 298.136019 
L 823.576963 298.370412 
L 824.475322 297.578749 
L 825.37368 297.841006 
L 826.272039 297.104527 
L 827.170398 297.390494 
L 828.068757 296.78298 
L 831.662192 297.90353 
L 833.458909 298.383264 
L 834.357268 297.511343 
L 835.255627 297.159855 
L 837.950703 297.908652 
L 839.747421 298.387887 
L 840.64578 298.439007 
L 841.544138 298.65825 
L 842.442497 298.443926 
L 843.340856 298.555872 
L 844.239215 298.226472 
L 845.137573 298.456343 
L 846.035932 296.927793 
L 849.629367 298.021481 
L 850.527726 296.677105 
L 851.426085 296.263432 
L 852.324444 295.641955 
L 853.222802 296.001051 
L 854.121161 295.440132 
L 854.121161 295.440132 
" clip-path="url(#pb72a51c0dc)" style="fill: none; stroke: #ff0000; stroke-width: 5; stroke-linecap: square"/>
   </g>
   <g id="line2d_25">
    <path d="M 496.574369 302.293133 
L 509.151392 302.565049 
L 515.439903 302.643129 
L 516.338262 302.226235 
L 528.016926 302.517085 
L 537.000514 302.640191 
L 537.898872 301.826914 
L 543.289025 302.044686 
L 544.187384 301.891811 
L 545.984101 301.982688 
L 546.88246 301.358344 
L 551.374254 301.689877 
L 553.170972 301.74314 
L 554.06933 301.074318 
L 561.256201 301.663185 
L 569.34143 302.092354 
L 574.731582 302.25767 
L 575.629941 302.150768 
L 584.613529 302.420864 
L 585.511887 294.628295 
L 586.410246 290.793802 
L 588.206964 284.283627 
L 589.105323 283.745752 
L 590.003681 282.80697 
L 590.90204 282.699924 
L 592.698758 283.506923 
L 593.597116 284.47277 
L 594.495475 284.786807 
L 595.393834 281.787009 
L 596.292193 280.795526 
L 597.190552 278.070076 
L 598.08891 275.854754 
L 598.987269 274.110982 
L 599.885628 270.833884 
L 600.783987 267.120913 
L 601.682345 264.091167 
L 603.479063 260.428677 
L 604.377422 259.195593 
L 605.275781 259.465775 
L 606.174139 260.43822 
L 607.072498 260.286785 
L 607.970857 259.520738 
L 608.869216 259.01664 
L 609.767574 258.336036 
L 611.564292 256.523098 
L 612.462651 254.640793 
L 613.36101 253.716219 
L 614.259368 252.349862 
L 616.056086 248.065324 
L 617.852803 244.571158 
L 618.751162 243.145045 
L 619.649521 240.41988 
L 620.54788 241.011528 
L 621.446238 243.289609 
L 622.344597 244.659901 
L 623.242956 245.243074 
L 624.141315 245.229728 
L 625.039674 246.351344 
L 625.938032 247.042593 
L 626.836391 247.120797 
L 629.531467 243.984267 
L 630.429826 243.762456 
L 631.328185 244.645113 
L 632.226544 245.836245 
L 633.124903 246.567947 
L 634.023261 247.141184 
L 634.92162 246.474928 
L 636.718338 243.767925 
L 637.616696 244.647818 
L 638.515055 246.307243 
L 639.413414 247.104023 
L 640.311773 247.384941 
L 641.210132 246.539574 
L 642.10849 246.997687 
L 643.006849 245.504582 
L 643.905208 244.930619 
L 644.803567 244.019108 
L 645.701925 244.605019 
L 646.600284 246.060663 
L 648.397002 246.880233 
L 649.295361 245.41697 
L 650.193719 248.287315 
L 651.092078 249.349392 
L 651.990437 248.609755 
L 652.888796 250.100103 
L 653.787154 251.873109 
L 654.685513 250.31193 
L 655.583872 249.239125 
L 658.278948 244.27039 
L 659.177307 243.943124 
L 660.075666 243.326197 
L 660.974025 243.795333 
L 661.872383 243.604571 
L 662.770742 244.514349 
L 663.669101 244.18364 
L 664.56746 244.861576 
L 665.465818 244.646324 
L 666.364177 242.987428 
L 667.262536 242.326417 
L 668.160895 243.601026 
L 669.059254 243.856532 
L 669.957612 245.192659 
L 670.855971 245.098811 
L 671.75433 244.321264 
L 672.652689 243.2689 
L 673.551047 242.582794 
L 674.449406 242.831822 
L 676.246124 248.681048 
L 678.042841 253.959977 
L 679.839559 258.724211 
L 681.636276 263.02393 
L 683.432994 266.904424 
L 685.229712 270.40657 
L 687.026429 273.567258 
L 688.823147 276.419779 
L 689.721505 277.283553 
L 692.416582 280.926242 
L 695.111658 284.049393 
L 697.806734 286.727104 
L 700.501811 289.022908 
L 703.196887 290.991272 
L 704.993605 292.144952 
L 705.891963 292.479566 
L 708.58704 293.954924 
L 711.282116 295.21986 
L 714.875551 296.630358 
L 715.77391 296.940034 
L 716.672269 296.991015 
L 720.265704 298.072975 
L 724.757498 299.14772 
L 729.249291 299.956719 
L 734.639444 300.716254 
L 740.927956 301.352047 
L 745.419749 301.685004 
L 746.318108 300.757056 
L 748.114826 300.958572 
L 749.013185 300.724411 
L 750.809902 300.614839 
L 757.098414 301.281225 
L 764.285284 301.800452 
L 773.268871 302.211117 
L 784.947536 302.509324 
L 798.422917 302.638814 
L 803.81307 302.68784 
L 804.711429 301.667204 
L 805.609787 301.725038 
L 806.508146 301.197946 
L 810.99994 301.565764 
L 811.898299 301.543956 
L 812.796658 301.046328 
L 819.085169 301.58255 
L 827.170398 302.041533 
L 830.763833 302.186654 
L 831.662192 302.110093 
L 832.560551 302.145783 
L 833.458909 301.532504 
L 834.357268 299.790599 
L 835.255627 299.599264 
L 839.747421 300.328734 
L 845.137573 300.989719 
L 851.426085 301.543018 
L 854.121161 301.725701 
L 854.121161 301.725701 
" clip-path="url(#pb72a51c0dc)" style="fill: none; stroke: #0000ff; stroke-width: 5; stroke-linecap: square"/>
   </g>
   <g id="patch_7">
    <path d="M 495.67601 322.75952 
L 495.67601 31.720156 
" style="fill: none; stroke: #000000; stroke-width: 5; stroke-linejoin: miter; stroke-linecap: square"/>
   </g>
   <g id="patch_8">
    <path d="M 495.67601 322.75952 
L 855.01952 322.75952 
" style="fill: none; stroke: #000000; stroke-width: 5; stroke-linejoin: miter; stroke-linecap: square"/>
   </g>
   <g id="patch_9">
    <path d="M 585.511887 316.938733 
L 675.347765 316.938733 
L 675.347765 306.752355 
L 585.511887 306.752355 
z
" style="fill: #8c5a2b; stroke: #8c5a2b; stroke-linejoin: miter"/>
   </g>
   <g id="text_21">
    <!-- Novel | Expert -->
    <g transform="translate(607.949718 21.720156) scale(0.19 -0.19)">
     <defs>
      <path id="DejaVuSans-45" d="M 628 4666 
L 3578 4666 
L 3578 4134 
L 1259 4134 
L 1259 2753 
L 3481 2753 
L 3481 2222 
L 1259 2222 
L 1259 531 
L 3634 531 
L 3634 0 
L 628 0 
L 628 4666 
z
" transform="scale(0.015625)"/>
      <path id="DejaVuSans-78" d="M 3513 3500 
L 2247 1797 
L 3578 0 
L 2900 0 
L 1881 1375 
L 863 0 
L 184 0 
L 1544 1831 
L 300 3500 
L 978 3500 
L 1906 2253 
L 2834 3500 
L 3513 3500 
z
" transform="scale(0.015625)"/>
      <path id="DejaVuSans-70" d="M 1159 525 
L 1159 -1331 
L 581 -1331 
L 581 3500 
L 1159 3500 
L 1159 2969 
Q 1341 3281 1617 3432 
Q 1894 3584 2278 3584 
Q 2916 3584 3314 3078 
Q 3713 2572 3713 1747 
Q 3713 922 3314 415 
Q 2916 -91 2278 -91 
Q 1894 -91 1617 61 
Q 1341 213 1159 525 
z
M 3116 1747 
Q 3116 2381 2855 2742 
Q 2594 3103 2138 3103 
Q 1681 3103 1420 2742 
Q 1159 2381 1159 1747 
Q 1159 1113 1420 752 
Q 1681 391 2138 391 
Q 2594 391 2855 752 
Q 3116 1113 3116 1747 
z
" transform="scale(0.015625)"/>
     </defs>
     <use xlink:href="#DejaVuSans-4e"/>
     <use xlink:href="#DejaVuSans-6f" transform="translate(74.804688 0)"/>
     <use xlink:href="#DejaVuSans-76" transform="translate(135.986328 0)"/>
     <use xlink:href="#DejaVuSans-65" transform="translate(195.166016 0)"/>
     <use xlink:href="#DejaVuSans-6c" transform="translate(256.689453 0)"/>
     <use xlink:href="#DejaVuSans-20" transform="translate(284.472656 0)"/>
     <use xlink:href="#DejaVuSans-7c" transform="translate(316.259766 0)"/>
     <use xlink:href="#DejaVuSans-20" transform="translate(349.951172 0)"/>
     <use xlink:href="#DejaVuSans-45" transform="translate(381.738281 0)"/>
     <use xlink:href="#DejaVuSans-78" transform="translate(444.921875 0)"/>
     <use xlink:href="#DejaVuSans-70" transform="translate(504.101562 0)"/>
     <use xlink:href="#DejaVuSans-65" transform="translate(567.578125 0)"/>
     <use xlink:href="#DejaVuSans-72" transform="translate(629.101562 0)"/>
     <use xlink:href="#DejaVuSans-74" transform="translate(670.214844 0)"/>
    </g>
   </g>
  </g>
 </g>
 <defs>
  <clipPath id="pf71762a850">
   <rect x="101.56" y="31.720156" width="359.34351" height="291.039364"/>
  </clipPath>
  <clipPath id="pb72a51c0dc">
   <rect x="495.67601" y="31.720156" width="359.34351" height="291.039364"/>
  </clipPath>
 </defs>
</svg>
