<?xml version="1.0" encoding="utf-8" standalone="no"?>
<!DOCTYPE svg PUBLIC "-//W3C//DTD SVG 1.1//EN"
  "http://www.w3.org/Graphics/SVG/1.1/DTD/svg11.dtd">
<svg xmlns:xlink="http://www.w3.org/1999/xlink" width="1458.14pt" height="418.280156pt" viewBox="0 0 1458.14 418.280156" xmlns="http://www.w3.org/2000/svg" version="1.1">
 <metadata>
  <rdf:RDF xmlns:dc="http://purl.org/dc/elements/1.1/" xmlns:cc="http://creativecommons.org/ns#" xmlns:rdf="http://www.w3.org/1999/02/22-rdf-syntax-ns#">
   <cc:Work>
    <dc:type rdf:resource="http://purl.org/dc/dcmitype/StillImage"/>
    <dc:date>2026-03-25T17:17:50.243663</dc:date>
    <dc:format>image/svg+xml</dc:format>
    <dc:creator>
     <cc:Agent>
      <dc:title>Matplotlib v3.10.7, https://matplotlib.org/</dc:title>
     </cc:Agent>
    </dc:creator>
   </cc:Work>
  </rdf:RDF>
 </metadata>
 <defs>
  <style type="text/css">*{stroke-linejoin: round; stroke-linecap: butt}</style>
 </defs>
 <g id="figure_1">
  <g id="patch_1">
   <path d="M 0 418.280156 
L 1458.14 418.280156 
L 1458.14 -0 
L 0 -0 
z
" style="fill: #ffffff"/>
  </g>
  <g id="axes_1">
   <g id="patch_2">
    <path d="M 101.56 336.640156 
L 402.50382 336.640156 
L 402.50382 31.720156 
L 101.56 31.720156 
z
" style="fill: #ffffff"/>
   </g>
   <g id="matplotlib.axis_1">
    <g id="xtick_1">
     <g id="line2d_1">
      <defs>
       <path id="m1f5865d7b0" d="M 0 0 
L 0 5 
" style="stroke: #000000; stroke-width: 1.6"/>
      </defs>
      <g>
       <use xlink:href="#m1f5865d7b0" x="101.56" y="336.640156" style="stroke: #000000; stroke-width: 1.6"/>
      </g>
     </g>
     <g id="text_1">
      <!-- -1 -->
      <g transform="translate(85.6075 369.455156) scale(0.32 -0.32)">
       <defs>
        <path id="DejaVuSans-2d" d="M 313 2009 
L 1997 2009 
L 1997 1497 
L 313 1497 
L 313 2009 
z
" transform="scale(0.015625)"/>
        <path id="DejaVuSans-31" d="M 794 531 
L 1825 531 
L 1825 4091 
L 703 3866 
L 703 4441 
L 1819 4666 
L 2450 4666 
L 2450 531 
L 3481 531 
L 3481 0 
L 794 0 
L 794 531 
z
" transform="scale(0.015625)"/>
       </defs>
       <use xlink:href="#DejaVuSans-2d"/>
       <use xlink:href="#DejaVuSans-31" transform="translate(36.083984 0)"/>
      </g>
     </g>
    </g>
    <g id="xtick_2">
     <g id="line2d_2">
      <g>
       <use xlink:href="#m1f5865d7b0" x="176.795955" y="336.640156" style="stroke: #000000; stroke-width: 1.6"/>
      </g>
     </g>
     <g id="text_2">
      <!-- 0 -->
      <g transform="translate(166.615955 369.455156) scale(0.32 -0.32)">
       <defs>
        <path id="DejaVuSans-30" d="M 2034 4250 
Q 1547 4250 1301 3770 
Q 1056 3291 1056 2328 
Q 1056 1369 1301 889 
Q 1547 409 2034 409 
Q 2525 409 2770 889 
Q 3016 1369 3016 2328 
Q 3016 3291 2770 3770 
Q 2525 4250 2034 4250 
z
M 2034 4750 
Q 2819 4750 3233 4129 
Q 3647 3509 3647 2328 
Q 3647 1150 3233 529 
Q 2819 -91 2034 -91 
Q 1250 -91 836 529 
Q 422 1150 422 2328 
Q 422 3509 836 4129 
Q 1250 4750 2034 4750 
z
" transform="scale(0.015625)"/>
       </defs>
       <use xlink:href="#DejaVuSans-30"/>
      </g>
     </g>
    </g>
    <g id="xtick_3">
     <g id="line2d_3">
      <g>
       <use xlink:href="#m1f5865d7b0" x="252.03191" y="336.640156" style="stroke: #000000; stroke-width: 1.6"/>
      </g>
     </g>
     <g id="text_3">
      <!-- 1 -->
      <g transform="translate(241.85191 369.455156) scale(0.32 -0.32)">
       <use xlink:href="#DejaVuSans-31"/>
      </g>
     </g>
    </g>
    <g id="xtick_4">
     <g id="line2d_4">
      <g>
       <use xlink:href="#m1f5865d7b0" x="327.267865" y="336.640156" style="stroke: #000000; stroke-width: 1.6"/>
      </g>
     </g>
     <g id="text_4">
      <!-- 2 -->
      <g transform="translate(317.087865 369.455156) scale(0.32 -0.32)">
       <defs>
        <path id="DejaVuSans-32" d="M 1228 531 
L 3431 531 
L 3431 0 
L 469 0 
L 469 531 
Q 828 903 1448 1529 
Q 2069 2156 2228 2338 
Q 2531 2678 2651 2914 
Q 2772 3150 2772 3378 
Q 2772 3750 2511 3984 
Q 2250 4219 1831 4219 
Q 1534 4219 1204 4116 
Q 875 4013 500 3803 
L 500 4441 
Q 881 4594 1212 4672 
Q 1544 4750 1819 4750 
Q 2544 4750 2975 4387 
Q 3406 4025 3406 3419 
Q 3406 3131 3298 2873 
Q 3191 2616 2906 2266 
Q 2828 2175 2409 1742 
Q 1991 1309 1228 531 
z
" transform="scale(0.015625)"/>
       </defs>
       <use xlink:href="#DejaVuSans-32"/>
      </g>
     </g>
    </g>
    <g id="xtick_5">
     <g id="line2d_5">
      <g>
       <use xlink:href="#m1f5865d7b0" x="402.50382" y="336.640156" style="stroke: #000000; stroke-width: 1.6"/>
      </g>
     </g>
     <g id="text_5">
      <!-- 3 -->
      <g transform="translate(392.32382 369.455156) scale(0.32 -0.32)">
       <defs>
        <path id="DejaVuSans-33" d="M 2597 2516 
Q 3050 2419 3304 2112 
Q 3559 1806 3559 1356 
Q 3559 666 3084 287 
Q 2609 -91 1734 -91 
Q 1441 -91 1130 -33 
Q 819 25 488 141 
L 488 750 
Q 750 597 1062 519 
Q 1375 441 1716 441 
Q 2309 441 2620 675 
Q 2931 909 2931 1356 
Q 2931 1769 2642 2001 
Q 2353 2234 1838 2234 
L 1294 2234 
L 1294 2753 
L 1863 2753 
Q 2328 2753 2575 2939 
Q 2822 3125 2822 3475 
Q 2822 3834 2567 4026 
Q 2313 4219 1838 4219 
Q 1578 4219 1281 4162 
Q 984 4106 628 3988 
L 628 4550 
Q 988 4650 1302 4700 
Q 1616 4750 1894 4750 
Q 2613 4750 3031 4423 
Q 3450 4097 3450 3541 
Q 3450 3153 3228 2886 
Q 3006 2619 2597 2516 
z
" transform="scale(0.015625)"/>
       </defs>
       <use xlink:href="#DejaVuSans-33"/>
      </g>
     </g>
    </g>
    <g id="text_6">
     <!-- Time (s) -->
     <g transform="translate(186.97941 404.425156) scale(0.32 -0.32)">
      <defs>
       <path id="DejaVuSans-54" d="M -19 4666 
L 3928 4666 
L 3928 4134 
L 2272 4134 
L 2272 0 
L 1638 0 
L 1638 4134 
L -19 4134 
L -19 4666 
z
" transform="scale(0.015625)"/>
       <path id="DejaVuSans-69" d="M 603 3500 
L 1178 3500 
L 1178 0 
L 603 0 
L 603 3500 
z
M 603 4863 
L 1178 4863 
L 1178 4134 
L 603 4134 
L 603 4863 
z
" transform="scale(0.015625)"/>
       <path id="DejaVuSans-6d" d="M 3328 2828 
Q 3544 3216 3844 3400 
Q 4144 3584 4550 3584 
Q 5097 3584 5394 3201 
Q 5691 2819 5691 2113 
L 5691 0 
L 5113 0 
L 5113 2094 
Q 5113 2597 4934 2840 
Q 4756 3084 4391 3084 
Q 3944 3084 3684 2787 
Q 3425 2491 3425 1978 
L 3425 0 
L 2847 0 
L 2847 2094 
Q 2847 2600 2669 2842 
Q 2491 3084 2119 3084 
Q 1678 3084 1418 2786 
Q 1159 2488 1159 1978 
L 1159 0 
L 581 0 
L 581 3500 
L 1159 3500 
L 1159 2956 
Q 1356 3278 1631 3431 
Q 1906 3584 2284 3584 
Q 2666 3584 2933 3390 
Q 3200 3197 3328 2828 
z
" transform="scale(0.015625)"/>
       <path id="DejaVuSans-65" d="M 3597 1894 
L 3597 1613 
L 953 1613 
Q 991 1019 1311 708 
Q 1631 397 2203 397 
Q 2534 397 2845 478 
Q 3156 559 3463 722 
L 3463 178 
Q 3153 47 2828 -22 
Q 2503 -91 2169 -91 
Q 1331 -91 842 396 
Q 353 884 353 1716 
Q 353 2575 817 3079 
Q 1281 3584 2069 3584 
Q 2775 3584 3186 3129 
Q 3597 2675 3597 1894 
z
M 3022 2063 
Q 3016 2534 2758 2815 
Q 2500 3097 2075 3097 
Q 1594 3097 1305 2825 
Q 1016 2553 972 2059 
L 3022 2063 
z
" transform="scale(0.015625)"/>
       <path id="DejaVuSans-20" transform="scale(0.015625)"/>
       <path id="DejaVuSans-28" d="M 1984 4856 
Q 1566 4138 1362 3434 
Q 1159 2731 1159 2009 
Q 1159 1288 1364 580 
Q 1569 -128 1984 -844 
L 1484 -844 
Q 1016 -109 783 600 
Q 550 1309 550 2009 
Q 550 2706 781 3412 
Q 1013 4119 1484 4856 
L 1984 4856 
z
" transform="scale(0.015625)"/>
       <path id="DejaVuSans-73" d="M 2834 3397 
L 2834 2853 
Q 2591 2978 2328 3040 
Q 2066 3103 1784 3103 
Q 1356 3103 1142 2972 
Q 928 2841 928 2578 
Q 928 2378 1081 2264 
Q 1234 2150 1697 2047 
L 1894 2003 
Q 2506 1872 2764 1633 
Q 3022 1394 3022 966 
Q 3022 478 2636 193 
Q 2250 -91 1575 -91 
Q 1294 -91 989 -36 
Q 684 19 347 128 
L 347 722 
Q 666 556 975 473 
Q 1284 391 1588 391 
Q 1994 391 2212 530 
Q 2431 669 2431 922 
Q 2431 1156 2273 1281 
Q 2116 1406 1581 1522 
L 1381 1569 
Q 847 1681 609 1914 
Q 372 2147 372 2553 
Q 372 3047 722 3315 
Q 1072 3584 1716 3584 
Q 2034 3584 2315 3537 
Q 2597 3491 2834 3397 
z
" transform="scale(0.015625)"/>
       <path id="DejaVuSans-29" d="M 513 4856 
L 1013 4856 
Q 1481 4119 1714 3412 
Q 1947 2706 1947 2009 
Q 1947 1309 1714 600 
Q 1481 -109 1013 -844 
L 513 -844 
Q 928 -128 1133 580 
Q 1338 1288 1338 2009 
Q 1338 2731 1133 3434 
Q 928 4138 513 4856 
z
" transform="scale(0.015625)"/>
      </defs>
      <use xlink:href="#DejaVuSans-54"/>
      <use xlink:href="#DejaVuSans-69" transform="translate(57.958984 0)"/>
      <use xlink:href="#DejaVuSans-6d" transform="translate(85.742188 0)"/>
      <use xlink:href="#DejaVuSans-65" transform="translate(183.154297 0)"/>
      <use xlink:href="#DejaVuSans-20" transform="translate(244.677734 0)"/>
      <use xlink:href="#DejaVuSans-28" transform="translate(276.464844 0)"/>
      <use xlink:href="#DejaVuSans-73" transform="translate(315.478516 0)"/>
      <use xlink:href="#DejaVuSans-29" transform="translate(367.578125 0)"/>
     </g>
    </g>
   </g>
   <g id="matplotlib.axis_2">
    <g id="ytick_1">
     <g id="line2d_6">
      <defs>
       <path id="mc830f9ddfb" d="M 0 0 
L -5 0 
" style="stroke: #000000; stroke-width: 1.6"/>
      </defs>
      <g>
       <use xlink:href="#mc830f9ddfb" x="101.56" y="315.620662" style="stroke: #000000; stroke-width: 1.6"/>
      </g>
     </g>
     <g id="text_7">
      <!-- 0.0 -->
      <g transform="translate(42.17 327.778162) scale(0.32 -0.32)">
       <defs>
        <path id="DejaVuSans-2e" d="M 684 794 
L 1344 794 
L 1344 0 
L 684 0 
L 684 794 
z
" transform="scale(0.015625)"/>
       </defs>
       <use xlink:href="#DejaVuSans-30"/>
       <use xlink:href="#DejaVuSans-2e" transform="translate(63.623047 0)"/>
       <use xlink:href="#DejaVuSans-30" transform="translate(95.410156 0)"/>
      </g>
     </g>
    </g>
    <g id="ytick_2">
     <g id="line2d_7">
      <g>
       <use xlink:href="#mc830f9ddfb" x="101.56" y="238.703208" style="stroke: #000000; stroke-width: 1.6"/>
      </g>
     </g>
     <g id="text_8">
      <!-- 0.2 -->
      <g transform="translate(42.17 250.860708) scale(0.32 -0.32)">
       <use xlink:href="#DejaVuSans-30"/>
       <use xlink:href="#DejaVuSans-2e" transform="translate(63.623047 0)"/>
       <use xlink:href="#DejaVuSans-32" transform="translate(95.410156 0)"/>
      </g>
     </g>
    </g>
    <g id="ytick_3">
     <g id="line2d_8">
      <g>
       <use xlink:href="#mc830f9ddfb" x="101.56" y="161.785754" style="stroke: #000000; stroke-width: 1.6"/>
      </g>
     </g>
     <g id="text_9">
      <!-- 0.4 -->
      <g transform="translate(42.17 173.943254) scale(0.32 -0.32)">
       <defs>
        <path id="DejaVuSans-34" d="M 2419 4116 
L 825 1625 
L 2419 1625 
L 2419 4116 
z
M 2253 4666 
L 3047 4666 
L 3047 1625 
L 3713 1625 
L 3713 1100 
L 3047 1100 
L 3047 0 
L 2419 0 
L 2419 1100 
L 313 1100 
L 313 1709 
L 2253 4666 
z
" transform="scale(0.015625)"/>
       </defs>
       <use xlink:href="#DejaVuSans-30"/>
       <use xlink:href="#DejaVuSans-2e" transform="translate(63.623047 0)"/>
       <use xlink:href="#DejaVuSans-34" transform="translate(95.410156 0)"/>
      </g>
     </g>
    </g>
    <g id="ytick_4">
     <g id="line2d_9">
      <g>
       <use xlink:href="#mc830f9ddfb" x="101.56" y="84.868299" style="stroke: #000000; stroke-width: 1.6"/>
      </g>
     </g>
     <g id="text_10">
      <!-- 0.6 -->
      <g transform="translate(42.17 97.025799) scale(0.32 -0.32)">
       <defs>
        <path id="DejaVuSans-36" d="M 2113 2584 
Q 1688 2584 1439 2293 
Q 1191 2003 1191 1497 
Q 1191 994 1439 701 
Q 1688 409 2113 409 
Q 2538 409 2786 701 
Q 3034 994 3034 1497 
Q 3034 2003 2786 2293 
Q 2538 2584 2113 2584 
z
M 3366 4563 
L 3366 3988 
Q 3128 4100 2886 4159 
Q 2644 4219 2406 4219 
Q 1781 4219 1451 3797 
Q 1122 3375 1075 2522 
Q 1259 2794 1537 2939 
Q 1816 3084 2150 3084 
Q 2853 3084 3261 2657 
Q 3669 2231 3669 1497 
Q 3669 778 3244 343 
Q 2819 -91 2113 -91 
Q 1303 -91 875 529 
Q 447 1150 447 2328 
Q 447 3434 972 4092 
Q 1497 4750 2381 4750 
Q 2619 4750 2861 4703 
Q 3103 4656 3366 4563 
z
" transform="scale(0.015625)"/>
       </defs>
       <use xlink:href="#DejaVuSans-30"/>
       <use xlink:href="#DejaVuSans-2e" transform="translate(63.623047 0)"/>
       <use xlink:href="#DejaVuSans-36" transform="translate(95.410156 0)"/>
      </g>
     </g>
    </g>
    <g id="text_11">
     <!-- Neural Activity -->
     <g transform="translate(31.515 301.885156) rotate(-90) scale(0.32 -0.32)">
      <defs>
       <path id="DejaVuSans-4e" d="M 628 4666 
L 1478 4666 
L 3547 763 
L 3547 4666 
L 4159 4666 
L 4159 0 
L 3309 0 
L 1241 3903 
L 1241 0 
L 628 0 
L 628 4666 
z
" transform="scale(0.015625)"/>
       <path id="DejaVuSans-75" d="M 544 1381 
L 544 3500 
L 1119 3500 
L 1119 1403 
Q 1119 906 1312 657 
Q 1506 409 1894 409 
Q 2359 409 2629 706 
Q 2900 1003 2900 1516 
L 2900 3500 
L 3475 3500 
L 3475 0 
L 2900 0 
L 2900 538 
Q 2691 219 2414 64 
Q 2138 -91 1772 -91 
Q 1169 -91 856 284 
Q 544 659 544 1381 
z
M 1991 3584 
L 1991 3584 
z
" transform="scale(0.015625)"/>
       <path id="DejaVuSans-72" d="M 2631 2963 
Q 2534 3019 2420 3045 
Q 2306 3072 2169 3072 
Q 1681 3072 1420 2755 
Q 1159 2438 1159 1844 
L 1159 0 
L 581 0 
L 581 3500 
L 1159 3500 
L 1159 2956 
Q 1341 3275 1631 3429 
Q 1922 3584 2338 3584 
Q 2397 3584 2469 3576 
Q 2541 3569 2628 3553 
L 2631 2963 
z
" transform="scale(0.015625)"/>
       <path id="DejaVuSans-61" d="M 2194 1759 
Q 1497 1759 1228 1600 
Q 959 1441 959 1056 
Q 959 750 1161 570 
Q 1363 391 1709 391 
Q 2188 391 2477 730 
Q 2766 1069 2766 1631 
L 2766 1759 
L 2194 1759 
z
M 3341 1997 
L 3341 0 
L 2766 0 
L 2766 531 
Q 2569 213 2275 61 
Q 1981 -91 1556 -91 
Q 1019 -91 701 211 
Q 384 513 384 1019 
Q 384 1609 779 1909 
Q 1175 2209 1959 2209 
L 2766 2209 
L 2766 2266 
Q 2766 2663 2505 2880 
Q 2244 3097 1772 3097 
Q 1472 3097 1187 3025 
Q 903 2953 641 2809 
L 641 3341 
Q 956 3463 1253 3523 
Q 1550 3584 1831 3584 
Q 2591 3584 2966 3190 
Q 3341 2797 3341 1997 
z
" transform="scale(0.015625)"/>
       <path id="DejaVuSans-6c" d="M 603 4863 
L 1178 4863 
L 1178 0 
L 603 0 
L 603 4863 
z
" transform="scale(0.015625)"/>
       <path id="DejaVuSans-41" d="M 2188 4044 
L 1331 1722 
L 3047 1722 
L 2188 4044 
z
M 1831 4666 
L 2547 4666 
L 4325 0 
L 3669 0 
L 3244 1197 
L 1141 1197 
L 716 0 
L 50 0 
L 1831 4666 
z
" transform="scale(0.015625)"/>
       <path id="DejaVuSans-63" d="M 3122 3366 
L 3122 2828 
Q 2878 2963 2633 3030 
Q 2388 3097 2138 3097 
Q 1578 3097 1268 2742 
Q 959 2388 959 1747 
Q 959 1106 1268 751 
Q 1578 397 2138 397 
Q 2388 397 2633 464 
Q 2878 531 3122 666 
L 3122 134 
Q 2881 22 2623 -34 
Q 2366 -91 2075 -91 
Q 1284 -91 818 406 
Q 353 903 353 1747 
Q 353 2603 823 3093 
Q 1294 3584 2113 3584 
Q 2378 3584 2631 3529 
Q 2884 3475 3122 3366 
z
" transform="scale(0.015625)"/>
       <path id="DejaVuSans-74" d="M 1172 4494 
L 1172 3500 
L 2356 3500 
L 2356 3053 
L 1172 3053 
L 1172 1153 
Q 1172 725 1289 603 
Q 1406 481 1766 481 
L 2356 481 
L 2356 0 
L 1766 0 
Q 1100 0 847 248 
Q 594 497 594 1153 
L 594 3053 
L 172 3053 
L 172 3500 
L 594 3500 
L 594 4494 
L 1172 4494 
z
" transform="scale(0.015625)"/>
       <path id="DejaVuSans-76" d="M 191 3500 
L 800 3500 
L 1894 563 
L 2988 3500 
L 3597 3500 
L 2284 0 
L 1503 0 
L 191 3500 
z
" transform="scale(0.015625)"/>
       <path id="DejaVuSans-79" d="M 2059 -325 
Q 1816 -950 1584 -1140 
Q 1353 -1331 966 -1331 
L 506 -1331 
L 506 -850 
L 844 -850 
Q 1081 -850 1212 -737 
Q 1344 -625 1503 -206 
L 1606 56 
L 191 3500 
L 800 3500 
L 1894 763 
L 2988 3500 
L 3597 3500 
L 2059 -325 
z
" transform="scale(0.015625)"/>
      </defs>
      <use xlink:href="#DejaVuSans-4e"/>
      <use xlink:href="#DejaVuSans-65" transform="translate(74.804688 0)"/>
      <use xlink:href="#DejaVuSans-75" transform="translate(136.328125 0)"/>
      <use xlink:href="#DejaVuSans-72" transform="translate(199.707031 0)"/>
      <use xlink:href="#DejaVuSans-61" transform="translate(240.820312 0)"/>
      <use xlink:href="#DejaVuSans-6c" transform="translate(302.099609 0)"/>
      <use xlink:href="#DejaVuSans-20" transform="translate(329.882812 0)"/>
      <use xlink:href="#DejaVuSans-41" transform="translate(361.669922 0)"/>
      <use xlink:href="#DejaVuSans-63" transform="translate(428.328125 0)"/>
      <use xlink:href="#DejaVuSans-74" transform="translate(483.308594 0)"/>
      <use xlink:href="#DejaVuSans-69" transform="translate(522.517578 0)"/>
      <use xlink:href="#DejaVuSans-76" transform="translate(550.300781 0)"/>
      <use xlink:href="#DejaVuSans-69" transform="translate(609.480469 0)"/>
      <use xlink:href="#DejaVuSans-74" transform="translate(637.263672 0)"/>
      <use xlink:href="#DejaVuSans-79" transform="translate(676.472656 0)"/>
     </g>
    </g>
   </g>
   <g id="line2d_10">
    <path d="M 102.31236 311.655034 
L 103.064719 310.551845 
L 103.817079 310.805285 
L 104.569438 310.5326 
L 105.321798 310.061274 
L 108.331236 311.092506 
L 110.588315 311.72041 
L 111.340674 310.881196 
L 115.102472 311.953354 
L 117.359551 312.476404 
L 118.11191 311.635102 
L 118.86427 311.613528 
L 119.616629 311.813885 
L 120.368989 311.589906 
L 121.873708 311.982905 
L 122.626067 310.994561 
L 124.130787 311.445606 
L 124.883146 310.782835 
L 126.387865 311.159747 
L 127.892584 311.594687 
L 128.644944 310.821812 
L 129.397303 311.061755 
L 130.149663 310.993781 
L 130.902022 310.215415 
L 133.159101 310.986339 
L 133.911461 310.678364 
L 136.920899 311.595129 
L 139.930337 312.341841 
L 140.682697 312.122639 
L 144.444494 312.913959 
L 145.196854 312.649715 
L 146.701573 309.796219 
L 147.453933 309.858979 
L 150.463371 310.927736 
L 151.21573 310.663205 
L 151.96809 310.911078 
L 152.720449 310.763915 
L 153.472809 311.006752 
L 154.225169 311.064233 
L 154.977528 309.874982 
L 157.234607 310.694459 
L 158.739326 309.63195 
L 160.244045 310.194388 
L 160.996404 310.03265 
L 161.748764 310.31205 
L 162.501124 310.438197 
L 163.253483 310.697321 
L 164.005843 310.767799 
L 164.758202 310.273642 
L 165.510562 309.064625 
L 166.262921 308.934297 
L 167.015281 308.026389 
L 170.024719 309.423556 
L 173.034157 310.543178 
L 176.043596 311.48502 
L 179.805393 312.420581 
L 184.319551 313.268309 
L 188.833708 313.891466 
L 194.852584 314.473479 
L 201.62382 314.89765 
L 210.652135 315.229976 
L 223.442247 315.457308 
L 245.260674 315.583755 
L 255.041348 315.601716 
L 255.793708 314.692838 
L 256.546067 311.958525 
L 257.298427 311.622218 
L 258.050787 311.143773 
L 260.307865 311.782289 
L 261.060225 310.831767 
L 261.812584 311.071212 
L 262.564944 310.870376 
L 264.822022 311.547886 
L 265.574382 309.163072 
L 267.079101 309.792687 
L 268.58382 310.268769 
L 269.33618 309.205832 
L 270.088539 309.526574 
L 270.840899 308.122573 
L 271.593258 307.792987 
L 273.097978 308.443041 
L 273.850337 308.801922 
L 274.602697 308.248199 
L 275.355056 308.441019 
L 278.364494 309.772798 
L 280.621573 310.60685 
L 281.373933 308.934121 
L 283.631011 309.887789 
L 284.383371 308.783327 
L 285.13573 308.841784 
L 288.145169 310.099224 
L 288.897528 308.496778 
L 289.649888 307.46892 
L 290.402247 307.276675 
L 293.411685 308.824433 
L 296.421124 310.085092 
L 297.173483 310.36187 
L 297.925843 310.338311 
L 300.182921 311.091707 
L 300.935281 309.078119 
L 302.44 309.620131 
L 304.697079 310.475957 
L 305.449438 310.377718 
L 306.954157 310.888906 
L 307.706517 310.278657 
L 310.715955 311.269566 
L 311.468315 310.980206 
L 314.477753 311.792998 
L 315.230112 311.858339 
L 315.982472 310.617631 
L 316.734831 310.297398 
L 318.99191 311.056629 
L 319.74427 309.091894 
L 320.496629 309.184983 
L 321.248989 308.333262 
L 324.258427 309.685029 
L 325.010787 309.589461 
L 328.020225 310.708212 
L 328.772584 310.349833 
L 329.524944 310.613374 
L 330.277303 310.404888 
L 331.782022 310.913426 
L 333.286742 310.211238 
L 335.54382 310.982758 
L 337.800899 311.59171 
L 338.553258 311.322797 
L 340.057978 311.741839 
L 340.810337 311.672897 
L 342.315056 312.057804 
L 343.819775 310.265031 
L 344.572135 310.532813 
L 345.324494 308.36441 
L 346.076854 308.338161 
L 346.829213 308.028859 
L 347.581573 308.408449 
L 348.333933 308.497871 
L 349.838652 309.192344 
L 350.591011 307.959821 
L 351.343371 308.342863 
L 352.09573 308.054256 
L 355.105169 309.457778 
L 358.114607 310.600954 
L 359.619326 311.090376 
L 360.371685 311.18468 
L 364.133483 312.188184 
L 364.885843 312.359808 
L 365.638202 312.157596 
L 366.390562 312.33075 
L 367.142921 310.898797 
L 367.895281 310.980845 
L 370.15236 311.586444 
L 373.161798 312.334766 
L 373.914157 312.097351 
L 377.675955 312.877399 
L 378.428315 313.014562 
L 379.180674 311.583593 
L 380.685393 311.977207 
L 381.437753 311.688566 
L 385.199551 312.578081 
L 385.95191 312.73021 
L 386.70427 312.336502 
L 387.456629 312.500711 
L 388.208989 311.499946 
L 391.970787 312.43213 
L 392.723146 312.591557 
L 393.475506 311.314646 
L 394.227865 311.529947 
L 394.980225 311.316192 
L 398.742022 312.289945 
L 399.494382 312.016793 
L 401.751461 312.530795 
L 401.751461 312.530795 
" clip-path="url(#p7104d40cce)" style="fill: none; stroke: #000000; stroke-width: 5; stroke-linecap: square"/>
   </g>
   <g id="line2d_11">
    <path d="M 102.31236 314.641887 
L 109.083596 314.98186 
L 115.102472 315.157146 
L 115.854831 314.909835 
L 116.607191 314.945376 
L 117.359551 314.855715 
L 118.86427 314.323262 
L 119.616629 314.253303 
L 121.121348 312.673866 
L 124.130787 313.181589 
L 124.883146 312.739092 
L 129.397303 313.502443 
L 131.654382 313.804554 
L 132.406742 313.76485 
L 133.159101 313.84612 
L 133.911461 313.513008 
L 134.66382 313.618391 
L 135.41618 313.348004 
L 136.168539 313.461636 
L 136.920899 313.184079 
L 140.682697 313.735281 
L 141.435056 313.747219 
L 142.187416 313.514861 
L 142.939775 313.153408 
L 143.692135 313.27677 
L 144.444494 313.026301 
L 145.196854 313.156019 
L 145.949213 312.896249 
L 146.701573 312.344692 
L 147.453933 311.940346 
L 148.958652 312.299177 
L 149.711011 311.828468 
L 150.463371 312.018078 
L 151.96809 311.770019 
L 152.720449 311.658474 
L 154.977528 312.223581 
L 156.482247 312.416558 
L 157.234607 312.51933 
L 157.986966 312.065101 
L 161.748764 312.869437 
L 163.253483 313.137681 
L 167.015281 312.469098 
L 168.52 312.776376 
L 169.27236 312.564508 
L 170.024719 312.717315 
L 170.777079 312.724159 
L 172.281798 313.006568 
L 173.034157 312.748436 
L 175.291236 313.158087 
L 177.548315 312.655627 
L 181.310112 313.225198 
L 185.07191 313.767098 
L 185.82427 313.696853 
L 186.576629 313.510693 
L 188.081348 312.371671 
L 188.833708 312.094331 
L 191.843146 312.748443 
L 193.347865 312.720345 
L 194.852584 313.003126 
L 196.357303 313.108444 
L 197.109663 313.234055 
L 197.862022 313.181423 
L 198.614382 312.472311 
L 199.366742 311.99457 
L 200.119101 311.880441 
L 203.128539 312.574229 
L 204.633258 312.635865 
L 206.137978 312.926883 
L 206.890337 312.352608 
L 210.652135 312.753982 
L 211.404494 312.628734 
L 213.661573 313.055458 
L 214.413933 312.545148 
L 216.671011 312.983793 
L 217.423371 312.670915 
L 218.17573 311.939471 
L 218.92809 312.12353 
L 220.432809 311.770572 
L 221.185169 311.584597 
L 222.689888 311.978113 
L 223.442247 311.927282 
L 224.946966 312.287386 
L 225.699326 312.10187 
L 226.451685 312.181883 
L 227.204045 311.90524 
L 228.708764 312.180288 
L 229.461124 312.352307 
L 231.718202 312.380476 
L 233.975281 312.842607 
L 234.72764 312.442916 
L 235.48 312.601803 
L 236.23236 312.586847 
L 237.737079 312.256264 
L 241.498876 313.002752 
L 242.251236 312.970662 
L 243.003596 313.103162 
L 243.755955 312.859284 
L 246.765393 313.371502 
L 248.270112 312.60704 
L 249.022472 312.757721 
L 249.774831 312.40587 
L 254.288989 313.257434 
L 255.793708 313.487849 
L 256.546067 313.248447 
L 257.298427 313.326543 
L 258.050787 313.114647 
L 260.307865 313.472067 
L 261.812584 313.510707 
L 262.564944 313.098004 
L 264.069663 313.343963 
L 264.822022 312.99338 
L 265.574382 312.514379 
L 266.326742 312.532148 
L 268.58382 312.972648 
L 269.33618 312.937328 
L 272.345618 313.361615 
L 273.850337 313.576317 
L 274.602697 313.309795 
L 275.355056 313.282811 
L 276.107416 312.943268 
L 276.859775 312.963599 
L 277.612135 313.096452 
L 278.364494 313.060083 
L 282.126292 313.601564 
L 283.631011 313.798426 
L 284.383371 313.573502 
L 287.392809 313.953238 
L 288.145169 313.54253 
L 288.897528 312.868357 
L 289.649888 312.488467 
L 292.659326 313.058222 
L 293.411685 312.628925 
L 295.668764 313.012102 
L 296.421124 312.703303 
L 297.173483 312.849171 
L 299.430562 312.850918 
L 300.182921 312.989405 
L 300.935281 312.644218 
L 301.68764 312.79304 
L 302.44 312.696948 
L 303.19236 312.843134 
L 303.944719 312.59681 
L 307.706517 312.819842 
L 308.458876 312.959883 
L 309.211236 312.920428 
L 309.963596 312.358585 
L 312.973034 312.90276 
L 316.734831 313.471416 
L 317.487191 313.578878 
L 318.239551 313.388445 
L 318.99191 313.500055 
L 319.74427 313.446071 
L 320.496629 313.037835 
L 322.001348 313.28966 
L 322.753708 313.029925 
L 325.010787 313.353327 
L 326.515506 313.47934 
L 328.772584 313.784746 
L 329.524944 313.722565 
L 330.277303 313.143734 
L 331.029663 313.175432 
L 332.534382 312.753833 
L 334.791461 313.118862 
L 337.048539 313.431613 
L 340.057978 313.769809 
L 343.067416 314.113131 
L 343.819775 313.866485 
L 344.572135 313.954194 
L 345.324494 313.721911 
L 347.581573 313.934241 
L 348.333933 313.67302 
L 349.838652 313.862915 
L 350.591011 313.753273 
L 355.105169 314.24796 
L 357.362247 314.261973 
L 359.619326 314.455756 
L 360.371685 314.360562 
L 366.390562 314.784686 
L 367.142921 314.373842 
L 372.409438 314.749961 
L 373.161798 314.598297 
L 378.428315 314.834182 
L 379.180674 314.492272 
L 382.190112 314.608263 
L 387.456629 314.883194 
L 388.961348 314.717392 
L 391.218427 314.846221 
L 391.970787 314.238151 
L 392.723146 314.155648 
L 393.475506 313.847561 
L 394.227865 313.936216 
L 394.980225 313.728807 
L 397.237303 313.998633 
L 397.989663 313.876358 
L 401.751461 314.270953 
L 401.751461 314.270953 
" clip-path="url(#p7104d40cce)" style="fill: none; stroke: #ff0000; stroke-width: 5; stroke-linecap: square"/>
   </g>
   <g id="patch_3">
    <path d="M 101.56 336.640156 
L 101.56 31.720156 
" style="fill: none; stroke: #000000; stroke-width: 5; stroke-linejoin: miter; stroke-linecap: square"/>
   </g>
   <g id="patch_4">
    <path d="M 101.56 336.640156 
L 402.50382 336.640156 
" style="fill: none; stroke: #000000; stroke-width: 5; stroke-linejoin: miter; stroke-linecap: square"/>
   </g>
   <g id="text_12">
    <!-- A -->
    <g transform="translate(65.446742 16.444681) scale(0.12 -0.12)">
     <defs>
      <path id="DejaVuSans-Bold-41" d="M 3419 850 
L 1538 850 
L 1241 0 
L 31 0 
L 1759 4666 
L 3194 4666 
L 4922 0 
L 3713 0 
L 3419 850 
z
M 1838 1716 
L 3116 1716 
L 2478 3572 
L 1838 1716 
z
" transform="scale(0.015625)"/>
     </defs>
     <use xlink:href="#DejaVuSans-Bold-41"/>
    </g>
   </g>
   <g id="patch_5">
    <path d="M 176.795955 330.541756 
L 252.03191 330.541756 
L 252.03191 319.869556 
L 176.795955 319.869556 
z
" style="fill: #8c5a2b; stroke: #8c5a2b; stroke-linejoin: miter"/>
   </g>
   <g id="text_13">
    <!-- Familiar | Naive -->
    <g transform="translate(178.439566 21.720156) scale(0.19 -0.19)">
     <defs>
      <path id="DejaVuSans-46" d="M 628 4666 
L 3309 4666 
L 3309 4134 
L 1259 4134 
L 1259 2759 
L 3109 2759 
L 3109 2228 
L 1259 2228 
L 1259 0 
L 628 0 
L 628 4666 
z
" transform="scale(0.015625)"/>
      <path id="DejaVuSans-7c" d="M 1344 4891 
L 1344 -1509 
L 813 -1509 
L 813 4891 
L 1344 4891 
z
" transform="scale(0.015625)"/>
     </defs>
     <use xlink:href="#DejaVuSans-46"/>
     <use xlink:href="#DejaVuSans-61" transform="translate(48.394531 0)"/>
     <use xlink:href="#DejaVuSans-6d" transform="translate(109.673828 0)"/>
     <use xlink:href="#DejaVuSans-69" transform="translate(207.085938 0)"/>
     <use xlink:href="#DejaVuSans-6c" transform="translate(234.869141 0)"/>
     <use xlink:href="#DejaVuSans-69" transform="translate(262.652344 0)"/>
     <use xlink:href="#DejaVuSans-61" transform="translate(290.435547 0)"/>
     <use xlink:href="#DejaVuSans-72" transform="translate(351.714844 0)"/>
     <use xlink:href="#DejaVuSans-20" transform="translate(392.828125 0)"/>
     <use xlink:href="#DejaVuSans-7c" transform="translate(424.615234 0)"/>
     <use xlink:href="#DejaVuSans-20" transform="translate(458.306641 0)"/>
     <use xlink:href="#DejaVuSans-4e" transform="translate(490.09375 0)"/>
     <use xlink:href="#DejaVuSans-61" transform="translate(564.898438 0)"/>
     <use xlink:href="#DejaVuSans-69" transform="translate(626.177734 0)"/>
     <use xlink:href="#DejaVuSans-76" transform="translate(653.960938 0)"/>
     <use xlink:href="#DejaVuSans-65" transform="translate(713.140625 0)"/>
    </g>
   </g>
   <g id="legend_1">
    <g id="line2d_12">
     <path d="M 110.56 46.867813 
L 125.56 46.867813 
L 140.56 46.867813 
" style="fill: none; stroke: #000000; stroke-width: 5; stroke-linecap: square"/>
    </g>
    <g id="text_14">
     <!-- Nonoccluded (NO) -->
     <g transform="translate(152.56 52.117813) scale(0.15 -0.15)">
      <defs>
       <path id="DejaVuSans-6f" d="M 1959 3097 
Q 1497 3097 1228 2736 
Q 959 2375 959 1747 
Q 959 1119 1226 758 
Q 1494 397 1959 397 
Q 2419 397 2687 759 
Q 2956 1122 2956 1747 
Q 2956 2369 2687 2733 
Q 2419 3097 1959 3097 
z
M 1959 3584 
Q 2709 3584 3137 3096 
Q 3566 2609 3566 1747 
Q 3566 888 3137 398 
Q 2709 -91 1959 -91 
Q 1206 -91 779 398 
Q 353 888 353 1747 
Q 353 2609 779 3096 
Q 1206 3584 1959 3584 
z
" transform="scale(0.015625)"/>
       <path id="DejaVuSans-6e" d="M 3513 2113 
L 3513 0 
L 2938 0 
L 2938 2094 
Q 2938 2591 2744 2837 
Q 2550 3084 2163 3084 
Q 1697 3084 1428 2787 
Q 1159 2491 1159 1978 
L 1159 0 
L 581 0 
L 581 3500 
L 1159 3500 
L 1159 2956 
Q 1366 3272 1645 3428 
Q 1925 3584 2291 3584 
Q 2894 3584 3203 3211 
Q 3513 2838 3513 2113 
z
" transform="scale(0.015625)"/>
       <path id="DejaVuSans-64" d="M 2906 2969 
L 2906 4863 
L 3481 4863 
L 3481 0 
L 2906 0 
L 2906 525 
Q 2725 213 2448 61 
Q 2172 -91 1784 -91 
Q 1150 -91 751 415 
Q 353 922 353 1747 
Q 353 2572 751 3078 
Q 1150 3584 1784 3584 
Q 2172 3584 2448 3432 
Q 2725 3281 2906 2969 
z
M 947 1747 
Q 947 1113 1208 752 
Q 1469 391 1925 391 
Q 2381 391 2643 752 
Q 2906 1113 2906 1747 
Q 2906 2381 2643 2742 
Q 2381 3103 1925 3103 
Q 1469 3103 1208 2742 
Q 947 2381 947 1747 
z
" transform="scale(0.015625)"/>
       <path id="DejaVuSans-4f" d="M 2522 4238 
Q 1834 4238 1429 3725 
Q 1025 3213 1025 2328 
Q 1025 1447 1429 934 
Q 1834 422 2522 422 
Q 3209 422 3611 934 
Q 4013 1447 4013 2328 
Q 4013 3213 3611 3725 
Q 3209 4238 2522 4238 
z
M 2522 4750 
Q 3503 4750 4090 4092 
Q 4678 3434 4678 2328 
Q 4678 1225 4090 567 
Q 3503 -91 2522 -91 
Q 1538 -91 948 565 
Q 359 1222 359 2328 
Q 359 3434 948 4092 
Q 1538 4750 2522 4750 
z
" transform="scale(0.015625)"/>
      </defs>
      <use xlink:href="#DejaVuSans-4e"/>
      <use xlink:href="#DejaVuSans-6f" transform="translate(74.804688 0)"/>
      <use xlink:href="#DejaVuSans-6e" transform="translate(135.986328 0)"/>
      <use xlink:href="#DejaVuSans-6f" transform="translate(199.365234 0)"/>
      <use xlink:href="#DejaVuSans-63" transform="translate(260.546875 0)"/>
      <use xlink:href="#DejaVuSans-63" transform="translate(315.527344 0)"/>
      <use xlink:href="#DejaVuSans-6c" transform="translate(370.507812 0)"/>
      <use xlink:href="#DejaVuSans-75" transform="translate(398.291016 0)"/>
      <use xlink:href="#DejaVuSans-64" transform="translate(461.669922 0)"/>
      <use xlink:href="#DejaVuSans-65" transform="translate(525.146484 0)"/>
      <use xlink:href="#DejaVuSans-64" transform="translate(586.669922 0)"/>
      <use xlink:href="#DejaVuSans-20" transform="translate(650.146484 0)"/>
      <use xlink:href="#DejaVuSans-28" transform="translate(681.933594 0)"/>
      <use xlink:href="#DejaVuSans-4e" transform="translate(720.947266 0)"/>
      <use xlink:href="#DejaVuSans-4f" transform="translate(795.751953 0)"/>
      <use xlink:href="#DejaVuSans-29" transform="translate(874.462891 0)"/>
     </g>
    </g>
    <g id="line2d_13">
     <path d="M 110.56 68.885 
L 125.56 68.885 
L 140.56 68.885 
" style="fill: none; stroke: #ff0000; stroke-width: 5; stroke-linecap: square"/>
    </g>
    <g id="text_15">
     <!-- Occluded (O) -->
     <g transform="translate(152.56 74.135) scale(0.15 -0.15)">
      <use xlink:href="#DejaVuSans-4f"/>
      <use xlink:href="#DejaVuSans-63" transform="translate(78.710938 0)"/>
      <use xlink:href="#DejaVuSans-63" transform="translate(133.691406 0)"/>
      <use xlink:href="#DejaVuSans-6c" transform="translate(188.671875 0)"/>
      <use xlink:href="#DejaVuSans-75" transform="translate(216.455078 0)"/>
      <use xlink:href="#DejaVuSans-64" transform="translate(279.833984 0)"/>
      <use xlink:href="#DejaVuSans-65" transform="translate(343.310547 0)"/>
      <use xlink:href="#DejaVuSans-64" transform="translate(404.833984 0)"/>
      <use xlink:href="#DejaVuSans-20" transform="translate(468.310547 0)"/>
      <use xlink:href="#DejaVuSans-28" transform="translate(500.097656 0)"/>
      <use xlink:href="#DejaVuSans-4f" transform="translate(539.111328 0)"/>
      <use xlink:href="#DejaVuSans-29" transform="translate(617.822266 0)"/>
     </g>
    </g>
    <g id="line2d_14">
     <path d="M 110.56 90.902188 
L 125.56 90.902188 
L 140.56 90.902188 
" style="fill: none; stroke: #0000ff; stroke-width: 5; stroke-linecap: square"/>
    </g>
    <g id="text_16">
     <!-- No feedback -->
     <g transform="translate(152.56 96.152188) scale(0.15 -0.15)">
      <defs>
       <path id="DejaVuSans-66" d="M 2375 4863 
L 2375 4384 
L 1825 4384 
Q 1516 4384 1395 4259 
Q 1275 4134 1275 3809 
L 1275 3500 
L 2222 3500 
L 2222 3053 
L 1275 3053 
L 1275 0 
L 697 0 
L 697 3053 
L 147 3053 
L 147 3500 
L 697 3500 
L 697 3744 
Q 697 4328 969 4595 
Q 1241 4863 1831 4863 
L 2375 4863 
z
" transform="scale(0.015625)"/>
       <path id="DejaVuSans-62" d="M 3116 1747 
Q 3116 2381 2855 2742 
Q 2594 3103 2138 3103 
Q 1681 3103 1420 2742 
Q 1159 2381 1159 1747 
Q 1159 1113 1420 752 
Q 1681 391 2138 391 
Q 2594 391 2855 752 
Q 3116 1113 3116 1747 
z
M 1159 2969 
Q 1341 3281 1617 3432 
Q 1894 3584 2278 3584 
Q 2916 3584 3314 3078 
Q 3713 2572 3713 1747 
Q 3713 922 3314 415 
Q 2916 -91 2278 -91 
Q 1894 -91 1617 61 
Q 1341 213 1159 525 
L 1159 0 
L 581 0 
L 581 4863 
L 1159 4863 
L 1159 2969 
z
" transform="scale(0.015625)"/>
       <path id="DejaVuSans-6b" d="M 581 4863 
L 1159 4863 
L 1159 1991 
L 2875 3500 
L 3609 3500 
L 1753 1863 
L 3688 0 
L 2938 0 
L 1159 1709 
L 1159 0 
L 581 0 
L 581 4863 
z
" transform="scale(0.015625)"/>
      </defs>
      <use xlink:href="#DejaVuSans-4e"/>
      <use xlink:href="#DejaVuSans-6f" transform="translate(74.804688 0)"/>
      <use xlink:href="#DejaVuSans-20" transform="translate(135.986328 0)"/>
      <use xlink:href="#DejaVuSans-66" transform="translate(167.773438 0)"/>
      <use xlink:href="#DejaVuSans-65" transform="translate(202.978516 0)"/>
      <use xlink:href="#DejaVuSans-65" transform="translate(264.501953 0)"/>
      <use xlink:href="#DejaVuSans-64" transform="translate(326.025391 0)"/>
      <use xlink:href="#DejaVuSans-62" transform="translate(389.501953 0)"/>
      <use xlink:href="#DejaVuSans-61" transform="translate(452.978516 0)"/>
      <use xlink:href="#DejaVuSans-63" transform="translate(514.257812 0)"/>
      <use xlink:href="#DejaVuSans-6b" transform="translate(569.238281 0)"/>
     </g>
    </g>
   </g>
  </g>
  <g id="axes_2">
   <g id="patch_6">
    <path d="M 447.645393 336.640156 
L 748.589213 336.640156 
L 748.589213 31.720156 
L 447.645393 31.720156 
z
" style="fill: #ffffff"/>
   </g>
   <g id="matplotlib.axis_3">
    <g id="xtick_6">
     <g id="line2d_15">
      <g>
       <use xlink:href="#m1f5865d7b0" x="447.645393" y="336.640156" style="stroke: #000000; stroke-width: 1.6"/>
      </g>
     </g>
     <g id="text_17">
      <!-- -1 -->
      <g transform="translate(431.692893 369.455156) scale(0.32 -0.32)">
       <use xlink:href="#DejaVuSans-2d"/>
       <use xlink:href="#DejaVuSans-31" transform="translate(36.083984 0)"/>
      </g>
     </g>
    </g>
    <g id="xtick_7">
     <g id="line2d_16">
      <g>
       <use xlink:href="#m1f5865d7b0" x="522.881348" y="336.640156" style="stroke: #000000; stroke-width: 1.6"/>
      </g>
     </g>
     <g id="text_18">
      <!-- 0 -->
      <g transform="translate(512.701348 369.455156) scale(0.32 -0.32)">
       <use xlink:href="#DejaVuSans-30"/>
      </g>
     </g>
    </g>
    <g id="xtick_8">
     <g id="line2d_17">
      <g>
       <use xlink:href="#m1f5865d7b0" x="598.117303" y="336.640156" style="stroke: #000000; stroke-width: 1.6"/>
      </g>
     </g>
     <g id="text_19">
      <!-- 1 -->
      <g transform="translate(587.937303 369.455156) scale(0.32 -0.32)">
       <use xlink:href="#DejaVuSans-31"/>
      </g>
     </g>
    </g>
    <g id="xtick_9">
     <g id="line2d_18">
      <g>
       <use xlink:href="#m1f5865d7b0" x="673.353258" y="336.640156" style="stroke: #000000; stroke-width: 1.6"/>
      </g>
     </g>
     <g id="text_20">
      <!-- 2 -->
      <g transform="translate(663.173258 369.455156) scale(0.32 -0.32)">
       <use xlink:href="#DejaVuSans-32"/>
      </g>
     </g>
    </g>
    <g id="xtick_10">
     <g id="line2d_19">
      <g>
       <use xlink:href="#m1f5865d7b0" x="748.589213" y="336.640156" style="stroke: #000000; stroke-width: 1.6"/>
      </g>
     </g>
     <g id="text_21">
      <!-- 3 -->
      <g transform="translate(738.409213 369.455156) scale(0.32 -0.32)">
       <use xlink:href="#DejaVuSans-33"/>
      </g>
     </g>
    </g>
    <g id="text_22">
     <!-- Time (s) -->
     <g transform="translate(533.064803 404.425156) scale(0.32 -0.32)">
      <use xlink:href="#DejaVuSans-54"/>
      <use xlink:href="#DejaVuSans-69" transform="translate(57.958984 0)"/>
      <use xlink:href="#DejaVuSans-6d" transform="translate(85.742188 0)"/>
      <use xlink:href="#DejaVuSans-65" transform="translate(183.154297 0)"/>
      <use xlink:href="#DejaVuSans-20" transform="translate(244.677734 0)"/>
      <use xlink:href="#DejaVuSans-28" transform="translate(276.464844 0)"/>
      <use xlink:href="#DejaVuSans-73" transform="translate(315.478516 0)"/>
      <use xlink:href="#DejaVuSans-29" transform="translate(367.578125 0)"/>
     </g>
    </g>
   </g>
   <g id="matplotlib.axis_4">
    <g id="ytick_5">
     <g id="line2d_20">
      <g>
       <use xlink:href="#mc830f9ddfb" x="447.645393" y="315.620662" style="stroke: #000000; stroke-width: 1.6"/>
      </g>
     </g>
    </g>
    <g id="ytick_6">
     <g id="line2d_21">
      <g>
       <use xlink:href="#mc830f9ddfb" x="447.645393" y="238.703208" style="stroke: #000000; stroke-width: 1.6"/>
      </g>
     </g>
    </g>
    <g id="ytick_7">
     <g id="line2d_22">
      <g>
       <use xlink:href="#mc830f9ddfb" x="447.645393" y="161.785754" style="stroke: #000000; stroke-width: 1.6"/>
      </g>
     </g>
    </g>
    <g id="ytick_8">
     <g id="line2d_23">
      <g>
       <use xlink:href="#mc830f9ddfb" x="447.645393" y="84.868299" style="stroke: #000000; stroke-width: 1.6"/>
      </g>
     </g>
    </g>
   </g>
   <g id="line2d_24">
    <path d="M 448.397753 311.858906 
L 449.150112 311.445609 
L 450.654831 311.852676 
L 451.407191 310.908684 
L 455.168989 311.974623 
L 456.673708 312.330112 
L 457.426067 311.739326 
L 461.187865 312.617359 
L 463.444944 313.045705 
L 464.197303 312.299913 
L 464.949663 311.778024 
L 467.959101 312.49081 
L 468.711461 312.443911 
L 470.968539 312.817662 
L 473.977978 313.337601 
L 474.730337 311.836092 
L 476.235056 312.205088 
L 476.987416 312.126642 
L 480.749213 312.917056 
L 485.263371 313.633264 
L 489.025169 314.023535 
L 491.282247 314.251325 
L 492.034607 313.8818 
L 492.786966 312.135911 
L 496.548764 312.924229 
L 497.301124 312.606707 
L 499.558202 313.036573 
L 500.310562 312.764558 
L 501.062921 311.836761 
L 503.32 312.37644 
L 504.07236 311.823696 
L 504.824719 311.606693 
L 508.586517 312.51473 
L 510.091236 312.817558 
L 510.843596 312.336112 
L 511.595955 311.400931 
L 512.348315 311.611917 
L 513.100674 311.593085 
L 516.862472 312.5042 
L 521.376629 313.329776 
L 526.643146 314.020851 
L 532.662022 314.559315 
L 540.185618 314.985194 
L 549.966292 315.29445 
L 564.261124 315.497565 
L 589.841348 315.599142 
L 601.879101 315.611191 
L 602.631461 313.606814 
L 603.38382 313.707506 
L 604.13618 313.509964 
L 609.402697 314.146683 
L 610.907416 314.290396 
L 611.659775 311.614612 
L 614.669213 312.357709 
L 615.421573 312.329871 
L 616.173933 312.494411 
L 616.926292 311.877815 
L 618.431011 311.544304 
L 619.93573 311.941749 
L 621.440449 312.213593 
L 624.449888 312.845583 
L 625.202247 312.406587 
L 626.706966 312.719959 
L 627.459326 310.417285 
L 629.716404 311.159417 
L 630.468764 309.648478 
L 631.221124 309.693728 
L 634.230562 310.793137 
L 635.735281 307.875442 
L 638.744719 309.312132 
L 641.754157 310.433476 
L 642.506517 310.454329 
L 643.258876 310.712646 
L 644.011236 309.983233 
L 644.763596 310.265104 
L 645.515955 310.164104 
L 646.268315 310.436932 
L 647.020674 308.075127 
L 650.030112 309.474777 
L 653.039551 310.614801 
L 653.79191 309.779332 
L 656.801348 310.862862 
L 660.563146 311.939167 
L 661.315506 311.997092 
L 662.067865 311.337016 
L 665.077303 312.131606 
L 665.829663 310.37491 
L 666.582022 310.637198 
L 667.334382 310.562148 
L 670.34382 311.500471 
L 674.105618 312.432537 
L 675.610337 312.653867 
L 680.124494 313.439795 
L 685.391011 314.097682 
L 688.400449 314.380185 
L 689.152809 312.506713 
L 689.905169 311.435114 
L 690.657528 311.644391 
L 691.409888 309.192827 
L 692.914607 309.729638 
L 693.666966 310.024189 
L 694.419326 308.846118 
L 695.924045 309.506636 
L 696.676404 309.115002 
L 697.428764 309.440285 
L 698.181124 309.286367 
L 701.190562 310.461339 
L 704.2 311.418361 
L 704.95236 311.16332 
L 705.704719 311.386187 
L 706.457079 310.964666 
L 710.218876 312.017941 
L 712.475955 312.531779 
L 713.228315 310.724811 
L 713.980674 310.670154 
L 716.990112 311.588443 
L 719.247191 312.163538 
L 719.999551 310.678521 
L 720.75191 310.925628 
L 721.50427 310.474223 
L 724.513708 311.428856 
L 725.266067 309.871748 
L 728.275506 310.938136 
L 732.037303 311.997413 
L 733.542022 312.35068 
L 734.294382 311.878747 
L 738.05618 312.72524 
L 738.808539 312.870011 
L 739.560899 311.515674 
L 740.313258 311.720923 
L 741.065618 310.56029 
L 744.075056 311.498957 
L 744.827416 311.705042 
L 745.579775 311.262687 
L 747.084494 311.632426 
L 747.836854 311.484862 
L 747.836854 311.484862 
" clip-path="url(#p775578b7e0)" style="fill: none; stroke: #000000; stroke-width: 5; stroke-linecap: square"/>
   </g>
   <g id="line2d_25">
    <path d="M 448.397753 314.618004 
L 449.902472 314.715763 
L 451.407191 314.578396 
L 452.159551 313.987878 
L 458.178427 314.53744 
L 464.197303 314.861788 
L 464.949663 314.770161 
L 465.702022 314.812686 
L 466.454382 314.62937 
L 470.968539 314.82164 
L 475.482697 315.033308 
L 476.235056 314.621453 
L 479.996854 314.75535 
L 480.749213 314.506526 
L 481.501573 314.016242 
L 482.253933 314.096463 
L 483.006292 313.492244 
L 483.758652 313.598665 
L 485.263371 313.470315 
L 486.01573 312.705788 
L 486.76809 312.629254 
L 487.520449 312.778824 
L 489.025169 312.380713 
L 491.282247 312.842811 
L 492.034607 312.609299 
L 492.786966 312.168569 
L 496.548764 312.937178 
L 497.301124 312.783502 
L 501.062921 313.399726 
L 504.07236 313.811696 
L 504.824719 313.372218 
L 505.577079 313.468114 
L 506.329438 312.774717 
L 507.834157 312.783306 
L 508.586517 312.229166 
L 510.091236 312.559837 
L 510.843596 311.713823 
L 511.595955 311.301383 
L 513.100674 311.722513 
L 514.605393 312.006257 
L 515.357753 311.168897 
L 516.110112 311.391485 
L 516.862472 310.907227 
L 517.614831 309.748371 
L 522.128989 311.259546 
L 523.633708 297.374753 
L 525.138427 285.414589 
L 526.643146 272.233925 
L 528.147865 260.758208 
L 529.652584 251.421788 
L 530.404944 247.481028 
L 531.157303 245.256677 
L 532.662022 238.730245 
L 533.414382 236.772645 
L 534.166742 234.489243 
L 536.42382 228.558258 
L 537.17618 227.747809 
L 537.928539 225.19722 
L 538.680899 224.232074 
L 540.937978 217.871949 
L 542.442697 216.360807 
L 543.195056 216.059906 
L 543.947416 215.275692 
L 544.699775 213.906192 
L 545.452135 211.739561 
L 546.204494 210.642721 
L 546.956854 211.052152 
L 548.461573 211.287252 
L 549.213933 211.269567 
L 549.966292 210.655913 
L 550.718652 211.221061 
L 551.471011 212.199996 
L 552.223371 212.152075 
L 553.72809 210.431575 
L 554.480449 211.216293 
L 555.232809 211.770186 
L 555.985169 210.978992 
L 556.737528 211.232179 
L 557.489888 211.233921 
L 558.242247 213.089519 
L 558.994607 214.233432 
L 559.746966 214.020728 
L 560.499326 213.649166 
L 561.251685 213.941299 
L 562.004045 214.728366 
L 562.756404 214.899946 
L 563.508764 214.406972 
L 564.261124 215.136869 
L 565.013483 216.140962 
L 565.765843 215.69294 
L 566.518202 215.988374 
L 567.270562 216.735234 
L 568.022921 217.139072 
L 568.775281 216.674797 
L 569.52764 215.700161 
L 570.28 216.099735 
L 571.03236 217.096068 
L 571.784719 217.877038 
L 572.537079 218.237838 
L 573.289438 216.949085 
L 574.041798 216.864636 
L 574.794157 216.272564 
L 576.298876 218.084665 
L 577.051236 218.363033 
L 577.803596 219.000171 
L 578.555955 218.688015 
L 579.308315 218.698296 
L 580.060674 219.480028 
L 580.813034 218.937534 
L 581.565393 220.36143 
L 582.317753 220.345287 
L 583.070112 220.534134 
L 583.822472 220.083922 
L 585.327191 221.923823 
L 586.079551 222.368298 
L 586.83191 221.914333 
L 587.58427 222.561306 
L 588.336629 222.308377 
L 589.088989 224.116019 
L 589.841348 224.458383 
L 591.346067 226.395891 
L 592.098427 226.63373 
L 592.850787 226.48936 
L 593.603146 225.926372 
L 595.107865 226.450757 
L 595.860225 226.507836 
L 596.612584 226.25081 
L 597.364944 226.951784 
L 599.622022 239.598191 
L 601.879101 250.440893 
L 604.13618 259.737163 
L 606.393258 267.707547 
L 608.650337 274.541158 
L 610.907416 280.400121 
L 613.164494 285.423454 
L 615.421573 289.730332 
L 617.678652 293.422942 
L 619.93573 296.588892 
L 622.192809 299.303298 
L 624.449888 301.630562 
L 626.706966 303.625901 
L 628.964045 305.336654 
L 631.221124 306.803412 
L 634.230562 308.438957 
L 637.24 309.771119 
L 640.249438 310.856173 
L 644.011236 311.933992 
L 647.773034 312.767988 
L 652.287191 313.523684 
L 657.553708 314.156265 
L 663.572584 314.649151 
L 671.09618 315.038983 
L 681.629213 315.336992 
L 691.409888 315.475042 
L 692.914607 315.429841 
L 712.475955 315.570377 
L 720.75191 315.59206 
L 721.50427 315.434658 
L 724.513708 315.469161 
L 725.266067 315.210882 
L 737.30382 315.440307 
L 739.560899 314.672996 
L 747.084494 315.05326 
L 747.836854 315.08163 
L 747.836854 315.08163 
" clip-path="url(#p775578b7e0)" style="fill: none; stroke: #ff0000; stroke-width: 5; stroke-linecap: square"/>
   </g>
   <g id="patch_7">
    <path d="M 447.645393 336.640156 
L 447.645393 31.720156 
" style="fill: none; stroke: #000000; stroke-width: 5; stroke-linejoin: miter; stroke-linecap: square"/>
   </g>
   <g id="patch_8">
    <path d="M 447.645393 336.640156 
L 748.589213 336.640156 
" style="fill: none; stroke: #000000; stroke-width: 5; stroke-linejoin: miter; stroke-linecap: square"/>
   </g>
   <g id="patch_9">
    <path d="M 522.881348 330.541756 
L 598.117303 330.541756 
L 598.117303 319.869556 
L 522.881348 319.869556 
z
" style="fill: #8c5a2b; stroke: #8c5a2b; stroke-linejoin: miter"/>
   </g>
   <g id="text_23">
    <!-- Familiar | Expert -->
    <g transform="translate(520.429569 21.720156) scale(0.19 -0.19)">
     <defs>
      <path id="DejaVuSans-45" d="M 628 4666 
L 3578 4666 
L 3578 4134 
L 1259 4134 
L 1259 2753 
L 3481 2753 
L 3481 2222 
L 1259 2222 
L 1259 531 
L 3634 531 
L 3634 0 
L 628 0 
L 628 4666 
z
" transform="scale(0.015625)"/>
      <path id="DejaVuSans-78" d="M 3513 3500 
L 2247 1797 
L 3578 0 
L 2900 0 
L 1881 1375 
L 863 0 
L 184 0 
L 1544 1831 
L 300 3500 
L 978 3500 
L 1906 2253 
L 2834 3500 
L 3513 3500 
z
" transform="scale(0.015625)"/>
      <path id="DejaVuSans-70" d="M 1159 525 
L 1159 -1331 
L 581 -1331 
L 581 3500 
L 1159 3500 
L 1159 2969 
Q 1341 3281 1617 3432 
Q 1894 3584 2278 3584 
Q 2916 3584 3314 3078 
Q 3713 2572 3713 1747 
Q 3713 922 3314 415 
Q 2916 -91 2278 -91 
Q 1894 -91 1617 61 
Q 1341 213 1159 525 
z
M 3116 1747 
Q 3116 2381 2855 2742 
Q 2594 3103 2138 3103 
Q 1681 3103 1420 2742 
Q 1159 2381 1159 1747 
Q 1159 1113 1420 752 
Q 1681 391 2138 391 
Q 2594 391 2855 752 
Q 3116 1113 3116 1747 
z
" transform="scale(0.015625)"/>
     </defs>
     <use xlink:href="#DejaVuSans-46"/>
     <use xlink:href="#DejaVuSans-61" transform="translate(48.394531 0)"/>
     <use xlink:href="#DejaVuSans-6d" transform="translate(109.673828 0)"/>
     <use xlink:href="#DejaVuSans-69" transform="translate(207.085938 0)"/>
     <use xlink:href="#DejaVuSans-6c" transform="translate(234.869141 0)"/>
     <use xlink:href="#DejaVuSans-69" transform="translate(262.652344 0)"/>
     <use xlink:href="#DejaVuSans-61" transform="translate(290.435547 0)"/>
     <use xlink:href="#DejaVuSans-72" transform="translate(351.714844 0)"/>
     <use xlink:href="#DejaVuSans-20" transform="translate(392.828125 0)"/>
     <use xlink:href="#DejaVuSans-7c" transform="translate(424.615234 0)"/>
     <use xlink:href="#DejaVuSans-20" transform="translate(458.306641 0)"/>
     <use xlink:href="#DejaVuSans-45" transform="translate(490.09375 0)"/>
     <use xlink:href="#DejaVuSans-78" transform="translate(553.277344 0)"/>
     <use xlink:href="#DejaVuSans-70" transform="translate(612.457031 0)"/>
     <use xlink:href="#DejaVuSans-65" transform="translate(675.933594 0)"/>
     <use xlink:href="#DejaVuSans-72" transform="translate(737.457031 0)"/>
     <use xlink:href="#DejaVuSans-74" transform="translate(778.570312 0)"/>
    </g>
   </g>
  </g>
  <g id="axes_3">
   <g id="patch_10">
    <path d="M 793.730787 336.640156 
L 1094.674607 336.640156 
L 1094.674607 31.720156 
L 793.730787 31.720156 
z
" style="fill: #ffffff"/>
   </g>
   <g id="matplotlib.axis_5">
    <g id="xtick_11">
     <g id="line2d_26">
      <g>
       <use xlink:href="#m1f5865d7b0" x="793.730787" y="336.640156" style="stroke: #000000; stroke-width: 1.6"/>
      </g>
     </g>
     <g id="text_24">
      <!-- -1 -->
      <g transform="translate(777.778287 369.455156) scale(0.32 -0.32)">
       <use xlink:href="#DejaVuSans-2d"/>
       <use xlink:href="#DejaVuSans-31" transform="translate(36.083984 0)"/>
      </g>
     </g>
    </g>
    <g id="xtick_12">
     <g id="line2d_27">
      <g>
       <use xlink:href="#m1f5865d7b0" x="868.966742" y="336.640156" style="stroke: #000000; stroke-width: 1.6"/>
      </g>
     </g>
     <g id="text_25">
      <!-- 0 -->
      <g transform="translate(858.786742 369.455156) scale(0.32 -0.32)">
       <use xlink:href="#DejaVuSans-30"/>
      </g>
     </g>
    </g>
    <g id="xtick_13">
     <g id="line2d_28">
      <g>
       <use xlink:href="#m1f5865d7b0" x="944.202697" y="336.640156" style="stroke: #000000; stroke-width: 1.6"/>
      </g>
     </g>
     <g id="text_26">
      <!-- 1 -->
      <g transform="translate(934.022697 369.455156) scale(0.32 -0.32)">
       <use xlink:href="#DejaVuSans-31"/>
      </g>
     </g>
    </g>
    <g id="xtick_14">
     <g id="line2d_29">
      <g>
       <use xlink:href="#m1f5865d7b0" x="1019.438652" y="336.640156" style="stroke: #000000; stroke-width: 1.6"/>
      </g>
     </g>
     <g id="text_27">
      <!-- 2 -->
      <g transform="translate(1009.258652 369.455156) scale(0.32 -0.32)">
       <use xlink:href="#DejaVuSans-32"/>
      </g>
     </g>
    </g>
    <g id="xtick_15">
     <g id="line2d_30">
      <g>
       <use xlink:href="#m1f5865d7b0" x="1094.674607" y="336.640156" style="stroke: #000000; stroke-width: 1.6"/>
      </g>
     </g>
     <g id="text_28">
      <!-- 3 -->
      <g transform="translate(1084.494607 369.455156) scale(0.32 -0.32)">
       <use xlink:href="#DejaVuSans-33"/>
      </g>
     </g>
    </g>
    <g id="text_29">
     <!-- Time (s) -->
     <g transform="translate(879.150197 404.425156) scale(0.32 -0.32)">
      <use xlink:href="#DejaVuSans-54"/>
      <use xlink:href="#DejaVuSans-69" transform="translate(57.958984 0)"/>
      <use xlink:href="#DejaVuSans-6d" transform="translate(85.742188 0)"/>
      <use xlink:href="#DejaVuSans-65" transform="translate(183.154297 0)"/>
      <use xlink:href="#DejaVuSans-20" transform="translate(244.677734 0)"/>
      <use xlink:href="#DejaVuSans-28" transform="translate(276.464844 0)"/>
      <use xlink:href="#DejaVuSans-73" transform="translate(315.478516 0)"/>
      <use xlink:href="#DejaVuSans-29" transform="translate(367.578125 0)"/>
     </g>
    </g>
   </g>
   <g id="matplotlib.axis_6">
    <g id="ytick_9">
     <g id="line2d_31">
      <g>
       <use xlink:href="#mc830f9ddfb" x="793.730787" y="315.620662" style="stroke: #000000; stroke-width: 1.6"/>
      </g>
     </g>
    </g>
    <g id="ytick_10">
     <g id="line2d_32">
      <g>
       <use xlink:href="#mc830f9ddfb" x="793.730787" y="238.703208" style="stroke: #000000; stroke-width: 1.6"/>
      </g>
     </g>
    </g>
    <g id="ytick_11">
     <g id="line2d_33">
      <g>
       <use xlink:href="#mc830f9ddfb" x="793.730787" y="161.785754" style="stroke: #000000; stroke-width: 1.6"/>
      </g>
     </g>
    </g>
    <g id="ytick_12">
     <g id="line2d_34">
      <g>
       <use xlink:href="#mc830f9ddfb" x="793.730787" y="84.868299" style="stroke: #000000; stroke-width: 1.6"/>
      </g>
     </g>
    </g>
   </g>
   <g id="line2d_35">
    <path d="M 794.483146 315.05972 
L 795.235506 314.97489 
L 805.01618 315.28916 
L 808.025618 315.350652 
L 808.777978 314.861418 
L 817.806292 315.210397 
L 827.586966 315.410056 
L 828.339326 315.372948 
L 829.091685 315.080658 
L 829.844045 314.54835 
L 832.101124 314.701288 
L 832.853483 314.188792 
L 838.87236 314.670731 
L 840.377079 314.763349 
L 842.634157 314.263931 
L 847.148315 314.62334 
L 847.900674 313.937754 
L 849.405393 314.101838 
L 850.157753 313.030516 
L 854.67191 313.716667 
L 855.42427 313.326127 
L 859.186067 313.845195 
L 859.938427 313.428018 
L 860.690787 313.17795 
L 868.214382 314.144573 
L 869.719101 284.776694 
L 871.97618 248.523105 
L 873.480899 227.476948 
L 874.233258 219.105985 
L 877.242697 191.186734 
L 877.995056 186.426952 
L 879.499775 174.657901 
L 880.252135 170.813854 
L 881.004494 165.984225 
L 881.756854 159.02729 
L 882.509213 154.382146 
L 883.261573 151.537562 
L 884.013933 149.131453 
L 884.766292 146.197858 
L 886.271011 142.547512 
L 887.023371 138.612357 
L 887.77573 135.463043 
L 888.52809 132.792446 
L 890.032809 128.511724 
L 892.289888 123.960073 
L 893.042247 123.090276 
L 893.794607 121.420597 
L 894.546966 120.643776 
L 895.299326 119.638731 
L 896.051685 119.294013 
L 896.804045 118.191063 
L 897.556404 116.092056 
L 898.308764 115.978792 
L 899.061124 116.06315 
L 899.813483 114.778878 
L 900.565843 115.264139 
L 901.318202 114.629534 
L 902.822921 117.516457 
L 903.575281 119.197254 
L 904.32764 120.335665 
L 905.08 122.278084 
L 905.83236 122.176007 
L 906.584719 123.003741 
L 909.594157 127.061901 
L 910.346517 126.945417 
L 911.098876 126.53123 
L 911.851236 126.630499 
L 912.603596 127.11184 
L 913.355955 128.205895 
L 914.108315 129.908503 
L 914.860674 130.452184 
L 915.613034 130.781578 
L 917.117753 132.406752 
L 917.870112 133.906903 
L 918.622472 134.466756 
L 919.374831 133.642954 
L 920.127191 133.5649 
L 920.879551 134.155516 
L 921.63191 135.321837 
L 922.38427 134.305652 
L 923.136629 136.173043 
L 925.393708 136.470082 
L 926.146067 138.419481 
L 926.898427 137.47876 
L 927.650787 137.537901 
L 928.403146 137.772681 
L 929.155506 138.750962 
L 929.907865 138.665631 
L 930.660225 140.473926 
L 931.412584 141.511166 
L 932.917303 144.291829 
L 933.669663 144.705455 
L 934.422022 144.576776 
L 935.174382 145.085911 
L 935.926742 144.398147 
L 936.679101 144.301972 
L 937.431461 145.378411 
L 938.93618 148.402495 
L 939.688539 150.567705 
L 940.440899 151.156567 
L 941.193258 151.321362 
L 941.945618 152.194724 
L 942.697978 152.502399 
L 943.450337 151.857902 
L 945.707416 175.214567 
L 947.964494 195.240001 
L 950.221573 212.409296 
L 952.478652 227.129822 
L 954.73573 239.750831 
L 956.992809 250.571768 
L 959.249888 259.849366 
L 961.506966 267.803747 
L 963.764045 274.623636 
L 966.021124 280.470837 
L 968.278202 285.484081 
L 970.535281 289.78231 
L 972.79236 293.467508 
L 975.049438 296.627102 
L 977.306517 299.33606 
L 979.563596 301.658652 
L 981.820674 303.649984 
L 984.077753 305.357302 
L 986.334831 306.821114 
L 989.34427 308.453375 
L 992.353708 309.782863 
L 995.363146 310.865738 
L 999.124944 311.941393 
L 1002.886742 312.773714 
L 1007.400899 313.527894 
L 1012.667416 314.159204 
L 1018.686292 314.651101 
L 1026.209888 315.04015 
L 1036.742921 315.337561 
L 1052.542472 315.524249 
L 1076.617978 315.601986 
L 1077.370337 315.290441 
L 1078.875056 315.322637 
L 1079.627416 314.945555 
L 1089.40809 315.274101 
L 1093.169888 315.3525 
L 1093.922247 314.832963 
L 1093.922247 314.832963 
" clip-path="url(#pd58174cc0d)" style="fill: none; stroke: #000000; stroke-width: 5; stroke-linecap: square"/>
   </g>
   <g id="line2d_36">
    <path d="M 794.483146 313.86524 
L 795.235506 312.950299 
L 795.987865 312.83845 
L 796.740225 312.844401 
L 797.492584 312.538463 
L 798.244944 312.692573 
L 798.997303 312.698743 
L 799.749663 312.844839 
L 800.502022 312.777794 
L 802.006742 311.747211 
L 802.759101 311.802644 
L 805.01618 312.272034 
L 810.282697 312.997588 
L 811.787416 313.253338 
L 812.539775 313.172491 
L 814.796854 313.521661 
L 815.549213 313.314505 
L 818.558652 313.742283 
L 819.311011 313.570314 
L 820.063371 313.591839 
L 820.81573 313.307616 
L 821.56809 313.412519 
L 822.320449 312.947661 
L 826.082247 313.552345 
L 826.834607 313.379833 
L 827.586966 313.491875 
L 828.339326 313.212597 
L 832.853483 313.850513 
L 837.36764 314.31944 
L 838.12 314.259221 
L 840.377079 313.599258 
L 842.634157 313.871887 
L 844.138876 313.574157 
L 846.395955 313.86604 
L 847.148315 313.519847 
L 847.900674 313.351846 
L 851.662472 313.865096 
L 852.414831 313.660207 
L 853.167191 313.582513 
L 853.919551 313.68442 
L 854.67191 313.578547 
L 856.176629 313.712215 
L 856.928989 313.807637 
L 857.681348 313.783345 
L 859.938427 314.045392 
L 860.690787 313.542363 
L 861.443146 312.838686 
L 867.462022 313.768388 
L 868.214382 313.861002 
L 870.471461 306.27332 
L 871.97618 302.024616 
L 874.985618 296.083688 
L 875.737978 294.42446 
L 877.242697 292.251705 
L 877.995056 291.491426 
L 878.747416 291.031907 
L 880.252135 289.536493 
L 881.756854 286.644361 
L 882.509213 285.547827 
L 883.261573 284.998453 
L 884.013933 284.07529 
L 884.766292 283.734738 
L 885.518652 283.09108 
L 887.023371 281.391294 
L 887.77573 280.968958 
L 888.52809 280.767861 
L 889.280449 280.267625 
L 890.032809 279.404195 
L 891.537528 279.322769 
L 892.289888 278.920759 
L 893.042247 278.708207 
L 893.794607 279.011068 
L 894.546966 278.833706 
L 895.299326 278.9925 
L 896.051685 279.463305 
L 896.804045 279.609151 
L 897.556404 279.60691 
L 898.308764 279.793542 
L 899.813483 279.315717 
L 900.565843 279.332202 
L 901.318202 278.512904 
L 902.070562 278.263981 
L 903.575281 278.206579 
L 904.32764 279.007638 
L 905.08 279.20458 
L 908.841798 279.428216 
L 909.594157 279.703277 
L 910.346517 280.428472 
L 911.098876 280.91216 
L 911.851236 281.019566 
L 912.603596 280.716413 
L 913.355955 281.580474 
L 914.108315 281.388475 
L 914.860674 281.368523 
L 916.365393 282.079764 
L 917.117753 281.420837 
L 918.622472 281.283836 
L 919.374831 281.055366 
L 920.127191 280.952977 
L 920.879551 280.457599 
L 921.63191 280.333501 
L 922.38427 280.015831 
L 923.888989 280.650394 
L 924.641348 281.147824 
L 925.393708 280.871193 
L 926.146067 280.951166 
L 926.898427 280.843997 
L 927.650787 281.177189 
L 928.403146 281.022641 
L 929.155506 280.591072 
L 929.907865 280.302775 
L 931.412584 280.131046 
L 932.917303 280.063572 
L 933.669663 280.68622 
L 934.422022 280.954573 
L 935.174382 280.948969 
L 935.926742 281.212857 
L 936.679101 281.20747 
L 938.18382 280.792601 
L 938.93618 280.575381 
L 939.688539 280.553844 
L 941.945618 281.645123 
L 943.450337 283.039572 
L 945.707416 287.686449 
L 947.964494 291.670565 
L 950.221573 295.086448 
L 952.478652 298.015141 
L 954.73573 300.526129 
L 956.992809 302.678987 
L 959.249888 304.524794 
L 961.506966 306.107343 
L 963.764045 307.46418 
L 966.773483 308.977157 
L 969.782921 310.209486 
L 972.79236 311.213225 
L 976.554157 312.210272 
L 980.315955 312.981767 
L 984.830112 313.680832 
L 990.096629 314.266007 
L 996.867865 314.766892 
L 1005.14382 315.135038 
L 1016.429213 315.39032 
L 1023.200449 315.475489 
L 1023.952809 315.365711 
L 1024.705169 315.378459 
L 1025.457528 314.789794 
L 1026.209888 314.703521 
L 1030.724045 314.946479 
L 1032.228764 314.927589 
L 1041.257079 315.246153 
L 1042.761798 315.282668 
L 1043.514157 315.170442 
L 1050.285393 315.267141 
L 1051.037753 315.156677 
L 1062.323146 315.405702 
L 1076.617978 315.504935 
L 1077.370337 315.501546 
L 1078.122697 314.971925 
L 1078.875056 315.004362 
L 1079.627416 314.397183 
L 1086.398652 314.849565 
L 1087.151011 314.726265 
L 1088.65573 314.759664 
L 1089.40809 314.469184 
L 1090.160449 314.486012 
L 1090.912809 314.360556 
L 1093.922247 314.594298 
L 1093.922247 314.594298 
" clip-path="url(#pd58174cc0d)" style="fill: none; stroke: #ff0000; stroke-width: 5; stroke-linecap: square"/>
   </g>
   <g id="line2d_37">
    <path d="M 794.483146 314.382709 
L 795.235506 314.33007 
L 802.006742 314.807268 
L 807.273258 315.052639 
L 808.025618 314.857275 
L 808.777978 314.107787 
L 811.787416 314.302551 
L 818.558652 314.789923 
L 826.834607 315.148138 
L 827.586966 315.171764 
L 829.091685 314.496561 
L 829.844045 314.377674 
L 834.358202 314.68794 
L 835.110562 314.526363 
L 840.377079 314.856472 
L 841.129438 314.300177 
L 841.881798 314.117422 
L 843.386517 313.292444 
L 847.148315 313.819066 
L 847.900674 313.353365 
L 849.405393 313.574427 
L 850.157753 312.832461 
L 853.919551 313.463205 
L 855.42427 313.411127 
L 859.186067 313.910966 
L 859.938427 313.433068 
L 860.690787 313.314564 
L 865.957303 314.010228 
L 868.214382 314.239916 
L 868.966742 301.150286 
L 871.22382 268.943929 
L 873.480899 243.666667 
L 874.233258 237.140189 
L 874.985618 231.597546 
L 875.737978 227.600733 
L 877.242697 216.664986 
L 877.995056 213.377033 
L 879.499775 203.791553 
L 881.004494 196.783602 
L 881.756854 190.647306 
L 882.509213 186.685995 
L 883.261573 184.685936 
L 884.013933 183.355268 
L 884.766292 180.422888 
L 885.518652 179.122776 
L 886.271011 178.615131 
L 887.023371 174.828644 
L 887.77573 172.369788 
L 890.032809 168.692061 
L 890.785169 167.120287 
L 891.537528 165.964534 
L 892.289888 164.579733 
L 893.042247 163.575342 
L 893.794607 161.940059 
L 894.546966 161.08915 
L 895.299326 159.879734 
L 896.051685 159.254756 
L 896.804045 158.147417 
L 897.556404 155.689181 
L 898.308764 155.423822 
L 899.061124 155.918882 
L 899.813483 154.58065 
L 900.565843 155.005978 
L 901.318202 154.388118 
L 902.070562 155.522082 
L 902.822921 156.199474 
L 903.575281 157.179704 
L 905.08 160.739136 
L 905.83236 160.563476 
L 906.584719 161.276398 
L 907.337079 162.854648 
L 909.594157 165.937794 
L 910.346517 165.816141 
L 911.851236 165.190727 
L 912.603596 165.64738 
L 913.355955 165.55547 
L 914.108315 167.377554 
L 914.860674 167.893979 
L 915.613034 167.86819 
L 917.117753 168.496102 
L 917.870112 170.071911 
L 918.622472 170.27234 
L 919.374831 169.568575 
L 920.127191 169.459758 
L 920.879551 170.360995 
L 921.63191 172.06538 
L 922.38427 171.142286 
L 923.136629 172.742863 
L 923.888989 172.117519 
L 924.641348 171.963589 
L 925.393708 172.250909 
L 926.146067 174.681122 
L 926.898427 174.221546 
L 927.650787 174.624066 
L 929.155506 176.729836 
L 929.907865 176.109282 
L 930.660225 178.054074 
L 932.164944 180.124485 
L 932.917303 181.332342 
L 933.669663 181.973836 
L 934.422022 181.951005 
L 935.174382 183.040326 
L 935.926742 182.625634 
L 936.679101 182.657681 
L 937.431461 183.144924 
L 938.18382 184.157843 
L 939.688539 185.640709 
L 940.440899 185.194441 
L 941.193258 185.633729 
L 941.945618 187.285929 
L 942.697978 186.897278 
L 943.450337 185.963124 
L 945.707416 204.455546 
L 947.964494 220.310472 
L 950.221573 233.904089 
L 952.478652 245.558919 
L 954.73573 255.551475 
L 956.992809 264.118844 
L 959.249888 271.464293 
L 961.506966 277.762098 
L 963.764045 283.161675 
L 966.021124 287.791139 
L 968.278202 291.760328 
L 970.535281 295.163409 
L 972.79236 298.081126 
L 975.049438 300.582702 
L 977.306517 302.727491 
L 979.563596 304.56638 
L 981.820674 306.142997 
L 984.077753 307.49475 
L 987.087191 309.002056 
L 990.096629 310.229767 
L 993.106067 311.229744 
L 996.867865 312.223054 
L 1000.629663 312.991658 
L 1005.14382 313.688103 
L 1010.410337 314.271084 
L 1017.181573 314.770092 
L 1025.457528 315.136858 
L 1028.466966 315.198575 
L 1040.504719 315.434891 
L 1056.30427 315.557396 
L 1057.808989 315.512754 
L 1058.561348 315.51815 
L 1059.313708 315.364913 
L 1075.865618 315.537919 
L 1076.617978 315.542056 
L 1077.370337 315.276813 
L 1089.40809 315.441367 
L 1091.665169 315.466939 
L 1092.417528 315.360694 
L 1093.169888 315.373692 
L 1093.922247 314.760746 
L 1093.922247 314.760746 
" clip-path="url(#pd58174cc0d)" style="fill: none; stroke: #0000ff; stroke-width: 5; stroke-linecap: square"/>
   </g>
   <g id="patch_11">
    <path d="M 793.730787 336.640156 
L 793.730787 31.720156 
" style="fill: none; stroke: #000000; stroke-width: 5; stroke-linejoin: miter; stroke-linecap: square"/>
   </g>
   <g id="patch_12">
    <path d="M 793.730787 336.640156 
L 1094.674607 336.640156 
" style="fill: none; stroke: #000000; stroke-width: 5; stroke-linejoin: miter; stroke-linecap: square"/>
   </g>
   <g id="patch_13">
    <path d="M 868.966742 330.541756 
L 944.202697 330.541756 
L 944.202697 319.869556 
L 868.966742 319.869556 
z
" style="fill: #8c5a2b; stroke: #8c5a2b; stroke-linejoin: miter"/>
   </g>
   <g id="text_30">
    <!-- Novel | Naive -->
    <g transform="translate(880.90004 21.720156) scale(0.19 -0.19)">
     <use xlink:href="#DejaVuSans-4e"/>
     <use xlink:href="#DejaVuSans-6f" transform="translate(74.804688 0)"/>
     <use xlink:href="#DejaVuSans-76" transform="translate(135.986328 0)"/>
     <use xlink:href="#DejaVuSans-65" transform="translate(195.166016 0)"/>
     <use xlink:href="#DejaVuSans-6c" transform="translate(256.689453 0)"/>
     <use xlink:href="#DejaVuSans-20" transform="translate(284.472656 0)"/>
     <use xlink:href="#DejaVuSans-7c" transform="translate(316.259766 0)"/>
     <use xlink:href="#DejaVuSans-20" transform="translate(349.951172 0)"/>
     <use xlink:href="#DejaVuSans-4e" transform="translate(381.738281 0)"/>
     <use xlink:href="#DejaVuSans-61" transform="translate(456.542969 0)"/>
     <use xlink:href="#DejaVuSans-69" transform="translate(517.822266 0)"/>
     <use xlink:href="#DejaVuSans-76" transform="translate(545.605469 0)"/>
     <use xlink:href="#DejaVuSans-65" transform="translate(604.785156 0)"/>
    </g>
   </g>
  </g>
  <g id="axes_4">
   <g id="patch_14">
    <path d="M 1139.81618 336.640156 
L 1440.76 336.640156 
L 1440.76 31.720156 
L 1139.81618 31.720156 
z
" style="fill: #ffffff"/>
   </g>
   <g id="matplotlib.axis_7">
    <g id="xtick_16">
     <g id="line2d_38">
      <g>
       <use xlink:href="#m1f5865d7b0" x="1139.81618" y="336.640156" style="stroke: #000000; stroke-width: 1.6"/>
      </g>
     </g>
     <g id="text_31">
      <!-- -1 -->
      <g transform="translate(1123.86368 369.455156) scale(0.32 -0.32)">
       <use xlink:href="#DejaVuSans-2d"/>
       <use xlink:href="#DejaVuSans-31" transform="translate(36.083984 0)"/>
      </g>
     </g>
    </g>
    <g id="xtick_17">
     <g id="line2d_39">
      <g>
       <use xlink:href="#m1f5865d7b0" x="1215.052135" y="336.640156" style="stroke: #000000; stroke-width: 1.6"/>
      </g>
     </g>
     <g id="text_32">
      <!-- 0 -->
      <g transform="translate(1204.872135 369.455156) scale(0.32 -0.32)">
       <use xlink:href="#DejaVuSans-30"/>
      </g>
     </g>
    </g>
    <g id="xtick_18">
     <g id="line2d_40">
      <g>
       <use xlink:href="#m1f5865d7b0" x="1290.28809" y="336.640156" style="stroke: #000000; stroke-width: 1.6"/>
      </g>
     </g>
     <g id="text_33">
      <!-- 1 -->
      <g transform="translate(1280.10809 369.455156) scale(0.32 -0.32)">
       <use xlink:href="#DejaVuSans-31"/>
      </g>
     </g>
    </g>
    <g id="xtick_19">
     <g id="line2d_41">
      <g>
       <use xlink:href="#m1f5865d7b0" x="1365.524045" y="336.640156" style="stroke: #000000; stroke-width: 1.6"/>
      </g>
     </g>
     <g id="text_34">
      <!-- 2 -->
      <g transform="translate(1355.344045 369.455156) scale(0.32 -0.32)">
       <use xlink:href="#DejaVuSans-32"/>
      </g>
     </g>
    </g>
    <g id="xtick_20">
     <g id="line2d_42">
      <g>
       <use xlink:href="#m1f5865d7b0" x="1440.76" y="336.640156" style="stroke: #000000; stroke-width: 1.6"/>
      </g>
     </g>
     <g id="text_35">
      <!-- 3 -->
      <g transform="translate(1430.58 369.455156) scale(0.32 -0.32)">
       <use xlink:href="#DejaVuSans-33"/>
      </g>
     </g>
    </g>
    <g id="text_36">
     <!-- Time (s) -->
     <g transform="translate(1225.23559 404.425156) scale(0.32 -0.32)">
      <use xlink:href="#DejaVuSans-54"/>
      <use xlink:href="#DejaVuSans-69" transform="translate(57.958984 0)"/>
      <use xlink:href="#DejaVuSans-6d" transform="translate(85.742188 0)"/>
      <use xlink:href="#DejaVuSans-65" transform="translate(183.154297 0)"/>
      <use xlink:href="#DejaVuSans-20" transform="translate(244.677734 0)"/>
      <use xlink:href="#DejaVuSans-28" transform="translate(276.464844 0)"/>
      <use xlink:href="#DejaVuSans-73" transform="translate(315.478516 0)"/>
      <use xlink:href="#DejaVuSans-29" transform="translate(367.578125 0)"/>
     </g>
    </g>
   </g>
   <g id="matplotlib.axis_8">
    <g id="ytick_13">
     <g id="line2d_43">
      <g>
       <use xlink:href="#mc830f9ddfb" x="1139.81618" y="315.620662" style="stroke: #000000; stroke-width: 1.6"/>
      </g>
     </g>
    </g>
    <g id="ytick_14">
     <g id="line2d_44">
      <g>
       <use xlink:href="#mc830f9ddfb" x="1139.81618" y="238.703208" style="stroke: #000000; stroke-width: 1.6"/>
      </g>
     </g>
    </g>
    <g id="ytick_15">
     <g id="line2d_45">
      <g>
       <use xlink:href="#mc830f9ddfb" x="1139.81618" y="161.785754" style="stroke: #000000; stroke-width: 1.6"/>
      </g>
     </g>
    </g>
    <g id="ytick_16">
     <g id="line2d_46">
      <g>
       <use xlink:href="#mc830f9ddfb" x="1139.81618" y="84.868299" style="stroke: #000000; stroke-width: 1.6"/>
      </g>
     </g>
    </g>
   </g>
   <g id="line2d_47">
    <path d="M 1140.568539 314.981957 
L 1150.349213 315.292788 
L 1164.644045 315.496938 
L 1174.424719 315.557149 
L 1175.177079 315.381792 
L 1178.186517 315.426101 
L 1178.938876 314.635585 
L 1186.462472 315.03086 
L 1188.719551 314.78815 
L 1195.490787 315.095972 
L 1196.243146 314.457158 
L 1203.014382 314.887365 
L 1205.271461 314.991951 
L 1206.02382 314.880816 
L 1214.299775 315.199838 
L 1215.052135 294.673813 
L 1217.309213 246.613592 
L 1218.813933 222.620522 
L 1219.566292 210.751159 
L 1220.318652 201.592853 
L 1221.071011 193.821709 
L 1221.823371 187.340212 
L 1222.57573 179.750631 
L 1223.32809 168.736715 
L 1224.080449 161.659032 
L 1225.585169 145.216917 
L 1227.089888 129.280098 
L 1227.842247 118.926072 
L 1228.594607 111.704924 
L 1229.346966 105.980065 
L 1230.851685 97.303661 
L 1233.108764 90.875976 
L 1233.861124 87.641492 
L 1234.613483 85.210465 
L 1235.365843 84.181786 
L 1236.118202 80.2089 
L 1236.870562 77.621972 
L 1239.88 63.651825 
L 1241.384719 57.939848 
L 1242.137079 56.574795 
L 1243.641798 52.749122 
L 1244.394157 53.862157 
L 1245.146517 56.523631 
L 1245.898876 57.017419 
L 1246.651236 57.140081 
L 1247.403596 56.365278 
L 1248.155955 57.175245 
L 1248.908315 59.092472 
L 1251.165393 63.425436 
L 1251.917753 63.919477 
L 1252.670112 64.718579 
L 1253.422472 67.876821 
L 1254.927191 70.000654 
L 1255.679551 71.044462 
L 1256.43191 70.774404 
L 1257.18427 69.264293 
L 1257.936629 69.032585 
L 1258.688989 70.489973 
L 1259.441348 72.815507 
L 1260.946067 74.975215 
L 1261.698427 74.979044 
L 1262.450787 76.391181 
L 1263.203146 77.298549 
L 1263.955506 79.107945 
L 1264.707865 80.072622 
L 1265.460225 82.270084 
L 1266.212584 84.946871 
L 1266.964944 85.305848 
L 1267.717303 84.985451 
L 1268.469663 82.790051 
L 1269.222022 86.640023 
L 1269.974382 86.543677 
L 1270.726742 87.286434 
L 1271.479101 89.53419 
L 1272.231461 94.42052 
L 1272.98382 94.432165 
L 1273.73618 93.444749 
L 1274.488539 93.577818 
L 1275.240899 92.945138 
L 1275.993258 91.303883 
L 1276.745618 93.355532 
L 1277.497978 92.640512 
L 1278.250337 93.874833 
L 1279.002697 94.587928 
L 1279.755056 96.208643 
L 1280.507416 95.8206 
L 1281.259775 94.984935 
L 1282.012135 95.123093 
L 1282.764494 94.948922 
L 1283.516854 93.857985 
L 1284.269213 95.7116 
L 1285.021573 95.441358 
L 1285.773933 97.785988 
L 1286.526292 98.118259 
L 1287.278652 98.305015 
L 1288.031011 99.184302 
L 1288.783371 100.392033 
L 1289.53573 100.988793 
L 1291.792809 131.600681 
L 1294.049888 157.846539 
L 1296.306966 180.349086 
L 1298.564045 199.642204 
L 1300.821124 216.183633 
L 1303.078202 230.365843 
L 1305.335281 242.525316 
L 1307.59236 252.950547 
L 1309.849438 261.888877 
L 1312.106517 269.552379 
L 1314.363596 276.12287 
L 1316.620674 281.756243 
L 1318.877753 286.586156 
L 1321.134831 290.727204 
L 1323.39191 294.277635 
L 1325.648989 297.321685 
L 1327.906067 299.931577 
L 1330.163146 302.169233 
L 1332.420225 304.087745 
L 1334.677303 305.732627 
L 1336.934382 307.142908 
L 1339.94382 308.715478 
L 1342.953258 309.996347 
L 1345.962697 311.039623 
L 1349.724494 312.075942 
L 1353.486292 312.877825 
L 1358.000449 313.604425 
L 1363.266966 314.212649 
L 1369.285843 314.686558 
L 1377.561798 315.089344 
L 1388.094831 315.361552 
L 1404.646742 315.536831 
L 1422.703371 315.596185 
L 1423.45573 314.902183 
L 1432.484045 315.232425 
L 1439.255281 315.375976 
L 1440.00764 315.228546 
L 1440.00764 315.228546 
" clip-path="url(#p85af7cf2eb)" style="fill: none; stroke: #000000; stroke-width: 5; stroke-linecap: square"/>
   </g>
   <g id="line2d_48">
    <path d="M 1140.568539 315.196193 
L 1142.825618 315.256733 
L 1143.577978 315.035456 
L 1146.587416 315.144008 
L 1147.339775 314.734839 
L 1153.358652 315.032989 
L 1154.111011 314.801383 
L 1156.36809 314.8694 
L 1157.120449 314.906963 
L 1157.872809 314.687894 
L 1160.129888 314.82093 
L 1160.882247 314.534283 
L 1167.653483 314.935972 
L 1169.910562 314.988947 
L 1178.186517 315.261343 
L 1178.938876 315.067584 
L 1181.948315 315.121413 
L 1183.453034 315.082665 
L 1186.462472 315.18246 
L 1187.214831 314.393364 
L 1191.728989 314.660288 
L 1192.481348 314.54409 
L 1195.490787 314.743787 
L 1196.243146 314.327861 
L 1198.500225 314.512246 
L 1199.252584 313.934538 
L 1200.757303 314.045246 
L 1201.509663 312.854002 
L 1206.02382 313.586913 
L 1209.033258 313.881846 
L 1211.290337 314.129844 
L 1212.042697 313.915913 
L 1214.299775 314.159053 
L 1216.556854 291.102892 
L 1217.309213 285.833 
L 1218.061573 279.359793 
L 1219.566292 268.638059 
L 1220.318652 265.318787 
L 1224.080449 244.289748 
L 1224.832809 241.378463 
L 1225.585169 238.016766 
L 1226.337528 235.500402 
L 1227.842247 228.675842 
L 1230.099326 223.012761 
L 1231.604045 220.861219 
L 1232.356404 219.094248 
L 1233.861124 216.893725 
L 1235.365843 216.629742 
L 1236.118202 214.029289 
L 1236.870562 214.108443 
L 1237.622921 213.476714 
L 1239.12764 210.606605 
L 1239.88 210.72772 
L 1240.63236 210.982133 
L 1241.384719 210.853396 
L 1242.137079 211.468047 
L 1242.889438 211.490455 
L 1244.394157 211.858498 
L 1245.146517 212.692294 
L 1245.898876 212.865456 
L 1246.651236 212.448632 
L 1247.403596 211.523177 
L 1248.155955 210.908435 
L 1248.908315 211.619191 
L 1249.660674 211.791493 
L 1250.413034 213.062275 
L 1251.917753 214.782511 
L 1252.670112 214.604719 
L 1253.422472 215.437954 
L 1254.927191 215.0692 
L 1256.43191 216.886298 
L 1257.18427 216.92105 
L 1257.936629 217.289551 
L 1258.688989 217.381141 
L 1259.441348 218.916582 
L 1260.946067 218.676461 
L 1261.698427 218.216531 
L 1262.450787 218.489511 
L 1263.203146 218.897716 
L 1263.955506 218.786561 
L 1264.707865 218.871228 
L 1266.212584 220.694304 
L 1266.964944 219.92507 
L 1267.717303 219.801239 
L 1268.469663 219.298918 
L 1269.222022 218.954176 
L 1269.974382 218.755306 
L 1270.726742 220.098943 
L 1271.479101 220.364141 
L 1272.231461 221.920362 
L 1272.98382 222.47492 
L 1273.73618 221.744501 
L 1274.488539 222.077907 
L 1275.240899 222.069649 
L 1275.993258 222.520668 
L 1276.745618 223.21645 
L 1277.497978 222.579484 
L 1278.250337 222.967464 
L 1279.002697 222.970576 
L 1279.755056 223.7453 
L 1280.507416 224.213844 
L 1281.259775 224.08164 
L 1282.012135 224.891092 
L 1282.764494 225.131224 
L 1283.516854 224.786901 
L 1284.269213 224.955214 
L 1285.021573 223.974022 
L 1285.773933 224.498183 
L 1286.526292 224.635206 
L 1287.278652 224.402175 
L 1288.031011 224.384702 
L 1289.53573 225.749457 
L 1291.792809 238.567341 
L 1294.049888 249.557073 
L 1296.306966 258.979397 
L 1298.564045 267.057855 
L 1300.821124 273.984128 
L 1303.078202 279.92254 
L 1305.335281 285.013986 
L 1307.59236 289.379266 
L 1309.849438 293.121945 
L 1312.106517 296.330826 
L 1314.363596 299.082038 
L 1316.620674 301.44086 
L 1318.877753 303.463254 
L 1321.134831 305.197205 
L 1323.39191 306.683851 
L 1325.648989 307.958464 
L 1328.658427 309.379755 
L 1331.667865 310.537405 
L 1334.677303 311.480317 
L 1338.439101 312.416942 
L 1342.953258 313.265634 
L 1347.467416 313.8895 
L 1353.486292 314.472174 
L 1360.257528 314.896829 
L 1369.285843 315.229531 
L 1382.075955 315.457123 
L 1399.380225 315.570397 
L 1400.132584 315.437888 
L 1420.446292 315.574906 
L 1422.703371 315.581432 
L 1423.45573 315.438329 
L 1432.484045 315.522137 
L 1433.236404 315.0833 
L 1436.245843 315.182977 
L 1436.998202 314.900007 
L 1439.255281 314.934743 
L 1440.00764 314.66711 
L 1440.00764 314.66711 
" clip-path="url(#p85af7cf2eb)" style="fill: none; stroke: #ff0000; stroke-width: 5; stroke-linecap: square"/>
   </g>
   <g id="line2d_49">
    <path d="M 1140.568539 315.453168 
L 1161.634607 315.580828 
L 1174.424719 315.604007 
L 1175.177079 315.025349 
L 1175.929438 314.83956 
L 1182.700674 315.085898 
L 1187.214831 315.227561 
L 1187.967191 314.91809 
L 1188.719551 314.100632 
L 1193.233708 314.5033 
L 1193.986067 314.416176 
L 1200.757303 314.861536 
L 1205.271461 315.062635 
L 1206.02382 314.587789 
L 1206.77618 314.528588 
L 1214.299775 314.966797 
L 1215.052135 301.881971 
L 1217.309213 273.997546 
L 1219.566292 255.239674 
L 1220.318652 250.480797 
L 1221.071011 246.744037 
L 1221.823371 245.253657 
L 1222.57573 241.238254 
L 1223.32809 234.625103 
L 1224.080449 231.132595 
L 1224.832809 225.322226 
L 1227.089888 211.219365 
L 1227.842247 204.642909 
L 1228.594607 199.541181 
L 1229.346966 196.01618 
L 1230.851685 190.874039 
L 1231.604045 190.197232 
L 1232.356404 190.223341 
L 1233.108764 188.135222 
L 1233.861124 185.676905 
L 1235.365843 183.087777 
L 1236.118202 181.392664 
L 1237.622921 177.060938 
L 1238.375281 175.940121 
L 1239.12764 174.106747 
L 1239.88 170.828135 
L 1240.63236 168.582167 
L 1242.889438 163.453677 
L 1243.641798 160.578078 
L 1244.394157 161.488816 
L 1245.146517 163.706737 
L 1245.898876 164.374444 
L 1246.651236 164.640708 
L 1247.403596 164.752505 
L 1248.155955 166.52355 
L 1248.908315 167.939378 
L 1249.660674 169.058901 
L 1250.413034 169.03035 
L 1251.165393 169.841097 
L 1251.917753 169.645551 
L 1252.670112 170.255101 
L 1254.174831 173.912989 
L 1254.927191 175.46349 
L 1255.679551 176.627484 
L 1256.43191 176.30539 
L 1257.18427 174.980797 
L 1257.936629 174.301571 
L 1258.688989 175.581166 
L 1260.193708 178.872501 
L 1260.946067 179.926348 
L 1261.698427 179.318987 
L 1262.450787 180.281302 
L 1263.203146 179.519702 
L 1263.955506 180.110376 
L 1264.707865 180.115281 
L 1265.460225 180.609734 
L 1266.212584 182.284594 
L 1266.964944 182.577415 
L 1267.717303 183.742922 
L 1268.469663 182.345192 
L 1269.222022 186.413301 
L 1269.974382 187.255636 
L 1270.726742 186.943251 
L 1271.479101 188.780017 
L 1272.231461 191.585242 
L 1272.98382 189.975427 
L 1273.73618 188.823136 
L 1274.488539 188.009466 
L 1275.240899 186.876751 
L 1275.993258 185.407088 
L 1276.745618 186.483744 
L 1277.497978 186.207932 
L 1278.250337 187.658099 
L 1279.002697 188.329645 
L 1279.755056 189.990442 
L 1280.507416 189.577125 
L 1281.259775 190.456023 
L 1282.012135 190.395999 
L 1282.764494 189.400318 
L 1283.516854 189.271146 
L 1284.269213 191.115271 
L 1285.021573 191.735698 
L 1285.773933 193.896117 
L 1286.526292 194.180789 
L 1287.278652 194.183849 
L 1288.031011 194.389986 
L 1288.783371 194.275954 
L 1289.53573 194.298396 
L 1291.792809 211.601987 
L 1294.049888 226.437657 
L 1296.306966 239.157384 
L 1298.564045 250.062959 
L 1300.821124 259.413126 
L 1303.078202 267.429726 
L 1305.335281 274.30296 
L 1307.59236 280.195899 
L 1309.849438 285.248356 
L 1312.106517 289.580208 
L 1314.363596 293.294228 
L 1316.620674 296.478537 
L 1318.877753 299.208683 
L 1321.134831 301.549441 
L 1323.39191 303.556349 
L 1325.648989 305.277022 
L 1327.906067 306.752284 
L 1330.915506 308.397313 
L 1333.924944 309.7372 
L 1336.934382 310.828545 
L 1340.69618 311.912614 
L 1344.457978 312.751445 
L 1348.972135 313.511524 
L 1354.238652 314.147773 
L 1360.257528 314.643518 
L 1367.781124 315.03561 
L 1378.314157 315.335347 
L 1393.361348 315.518381 
L 1421.951011 315.604382 
L 1422.703371 315.241672 
L 1423.45573 314.000253 
L 1424.960449 314.158243 
L 1425.712809 314.082765 
L 1431.731685 314.60039 
L 1439.255281 315.009788 
L 1440.00764 315.040331 
L 1440.00764 315.040331 
" clip-path="url(#p85af7cf2eb)" style="fill: none; stroke: #0000ff; stroke-width: 5; stroke-linecap: square"/>
   </g>
   <g id="patch_15">
    <path d="M 1139.81618 336.640156 
L 1139.81618 31.720156 
" style="fill: none; stroke: #000000; stroke-width: 5; stroke-linejoin: miter; stroke-linecap: square"/>
   </g>
   <g id="patch_16">
    <path d="M 1139.81618 336.640156 
L 1440.76 336.640156 
" style="fill: none; stroke: #000000; stroke-width: 5; stroke-linejoin: miter; stroke-linecap: square"/>
   </g>
   <g id="patch_17">
    <path d="M 1215.052135 330.541756 
L 1290.28809 330.541756 
L 1290.28809 319.869556 
L 1215.052135 319.869556 
z
" style="fill: #8c5a2b; stroke: #8c5a2b; stroke-linejoin: miter"/>
   </g>
   <g id="text_37">
    <!-- Novel | Expert -->
    <g transform="translate(1222.890043 21.720156) scale(0.19 -0.19)">
     <use xlink:href="#DejaVuSans-4e"/>
     <use xlink:href="#DejaVuSans-6f" transform="translate(74.804688 0)"/>
     <use xlink:href="#DejaVuSans-76" transform="translate(135.986328 0)"/>
     <use xlink:href="#DejaVuSans-65" transform="translate(195.166016 0)"/>
     <use xlink:href="#DejaVuSans-6c" transform="translate(256.689453 0)"/>
     <use xlink:href="#DejaVuSans-20" transform="translate(284.472656 0)"/>
     <use xlink:href="#DejaVuSans-7c" transform="translate(316.259766 0)"/>
     <use xlink:href="#DejaVuSans-20" transform="translate(349.951172 0)"/>
     <use xlink:href="#DejaVuSans-45" transform="translate(381.738281 0)"/>
     <use xlink:href="#DejaVuSans-78" transform="translate(444.921875 0)"/>
     <use xlink:href="#DejaVuSans-70" transform="translate(504.101562 0)"/>
     <use xlink:href="#DejaVuSans-65" transform="translate(567.578125 0)"/>
     <use xlink:href="#DejaVuSans-72" transform="translate(629.101562 0)"/>
     <use xlink:href="#DejaVuSans-74" transform="translate(670.214844 0)"/>
    </g>
   </g>
  </g>
 </g>
 <defs>
  <clipPath id="p7104d40cce">
   <rect x="101.56" y="31.720156" width="300.94382" height="304.92"/>
  </clipPath>
  <clipPath id="p775578b7e0">
   <rect x="447.645393" y="31.720156" width="300.94382" height="304.92"/>
  </clipPath>
  <clipPath id="pd58174cc0d">
   <rect x="793.730787" y="31.720156" width="300.94382" height="304.92"/>
  </clipPath>
  <clipPath id="p85af7cf2eb">
   <rect x="1139.81618" y="31.720156" width="300.94382" height="304.92"/>
  </clipPath>
 </defs>
</svg>
