<?xml version="1.0" encoding="utf-8" standalone="no"?>
<!DOCTYPE svg PUBLIC "-//W3C//DTD SVG 1.1//EN"
  "http://www.w3.org/Graphics/SVG/1.1/DTD/svg11.dtd">
<svg xmlns:xlink="http://www.w3.org/1999/xlink" width="872.39952pt" height="404.39952pt" viewBox="0 0 872.39952 404.39952" xmlns="http://www.w3.org/2000/svg" version="1.1">
 <metadata>
  <rdf:RDF xmlns:dc="http://purl.org/dc/elements/1.1/" xmlns:cc="http://creativecommons.org/ns#" xmlns:rdf="http://www.w3.org/1999/02/22-rdf-syntax-ns#">
   <cc:Work>
    <dc:type rdf:resource="http://purl.org/dc/dcmitype/StillImage"/>
    <dc:date>2026-03-25T17:17:45.206229</dc:date>
    <dc:format>image/svg+xml</dc:format>
    <dc:creator>
     <cc:Agent>
      <dc:title>Matplotlib v3.10.7, https://matplotlib.org/</dc:title>
     </cc:Agent>
    </dc:creator>
   </cc:Work>
  </rdf:RDF>
 </metadata>
 <defs>
  <style type="text/css">*{stroke-linejoin: round; stroke-linecap: butt}</style>
 </defs>
 <g id="figure_1">
  <g id="patch_1">
   <path d="M 0 404.39952 
L 872.39952 404.39952 
L 872.39952 0 
L 0 0 
z
" style="fill: #ffffff"/>
  </g>
  <g id="axes_1">
   <g id="patch_2">
    <path d="M 121.92 322.75952 
L 471.08351 322.75952 
L 471.08351 31.720156 
L 121.92 31.720156 
z
" style="fill: #ffffff"/>
   </g>
   <g id="matplotlib.axis_1">
    <g id="xtick_1">
     <g id="line2d_1">
      <defs>
       <path id="m41f4095f85" d="M 0 0 
L 0 5 
" style="stroke: #000000; stroke-width: 1.6"/>
      </defs>
      <g>
       <use xlink:href="#m41f4095f85" x="121.92" y="322.75952" style="stroke: #000000; stroke-width: 1.6"/>
      </g>
     </g>
     <g id="text_1">
      <!-- -1 -->
      <g transform="translate(105.9675 355.57452) scale(0.32 -0.32)">
       <defs>
        <path id="DejaVuSans-2d" d="M 313 2009 
L 1997 2009 
L 1997 1497 
L 313 1497 
L 313 2009 
z
" transform="scale(0.015625)"/>
        <path id="DejaVuSans-31" d="M 794 531 
L 1825 531 
L 1825 4091 
L 703 3866 
L 703 4441 
L 1819 4666 
L 2450 4666 
L 2450 531 
L 3481 531 
L 3481 0 
L 794 0 
L 794 531 
z
" transform="scale(0.015625)"/>
       </defs>
       <use xlink:href="#DejaVuSans-2d"/>
       <use xlink:href="#DejaVuSans-31" transform="translate(36.083984 0)"/>
      </g>
     </g>
    </g>
    <g id="xtick_2">
     <g id="line2d_2">
      <g>
       <use xlink:href="#m41f4095f85" x="209.210878" y="322.75952" style="stroke: #000000; stroke-width: 1.6"/>
      </g>
     </g>
     <g id="text_2">
      <!-- 0 -->
      <g transform="translate(199.030878 355.57452) scale(0.32 -0.32)">
       <defs>
        <path id="DejaVuSans-30" d="M 2034 4250 
Q 1547 4250 1301 3770 
Q 1056 3291 1056 2328 
Q 1056 1369 1301 889 
Q 1547 409 2034 409 
Q 2525 409 2770 889 
Q 3016 1369 3016 2328 
Q 3016 3291 2770 3770 
Q 2525 4250 2034 4250 
z
M 2034 4750 
Q 2819 4750 3233 4129 
Q 3647 3509 3647 2328 
Q 3647 1150 3233 529 
Q 2819 -91 2034 -91 
Q 1250 -91 836 529 
Q 422 1150 422 2328 
Q 422 3509 836 4129 
Q 1250 4750 2034 4750 
z
" transform="scale(0.015625)"/>
       </defs>
       <use xlink:href="#DejaVuSans-30"/>
      </g>
     </g>
    </g>
    <g id="xtick_3">
     <g id="line2d_3">
      <g>
       <use xlink:href="#m41f4095f85" x="296.501755" y="322.75952" style="stroke: #000000; stroke-width: 1.6"/>
      </g>
     </g>
     <g id="text_3">
      <!-- 1 -->
      <g transform="translate(286.321755 355.57452) scale(0.32 -0.32)">
       <use xlink:href="#DejaVuSans-31"/>
      </g>
     </g>
    </g>
    <g id="xtick_4">
     <g id="line2d_4">
      <g>
       <use xlink:href="#m41f4095f85" x="383.792633" y="322.75952" style="stroke: #000000; stroke-width: 1.6"/>
      </g>
     </g>
     <g id="text_4">
      <!-- 2 -->
      <g transform="translate(373.612633 355.57452) scale(0.32 -0.32)">
       <defs>
        <path id="DejaVuSans-32" d="M 1228 531 
L 3431 531 
L 3431 0 
L 469 0 
L 469 531 
Q 828 903 1448 1529 
Q 2069 2156 2228 2338 
Q 2531 2678 2651 2914 
Q 2772 3150 2772 3378 
Q 2772 3750 2511 3984 
Q 2250 4219 1831 4219 
Q 1534 4219 1204 4116 
Q 875 4013 500 3803 
L 500 4441 
Q 881 4594 1212 4672 
Q 1544 4750 1819 4750 
Q 2544 4750 2975 4387 
Q 3406 4025 3406 3419 
Q 3406 3131 3298 2873 
Q 3191 2616 2906 2266 
Q 2828 2175 2409 1742 
Q 1991 1309 1228 531 
z
" transform="scale(0.015625)"/>
       </defs>
       <use xlink:href="#DejaVuSans-32"/>
      </g>
     </g>
    </g>
    <g id="xtick_5">
     <g id="line2d_5">
      <g>
       <use xlink:href="#m41f4095f85" x="471.08351" y="322.75952" style="stroke: #000000; stroke-width: 1.6"/>
      </g>
     </g>
     <g id="text_5">
      <!-- 3 -->
      <g transform="translate(460.90351 355.57452) scale(0.32 -0.32)">
       <defs>
        <path id="DejaVuSans-33" d="M 2597 2516 
Q 3050 2419 3304 2112 
Q 3559 1806 3559 1356 
Q 3559 666 3084 287 
Q 2609 -91 1734 -91 
Q 1441 -91 1130 -33 
Q 819 25 488 141 
L 488 750 
Q 750 597 1062 519 
Q 1375 441 1716 441 
Q 2309 441 2620 675 
Q 2931 909 2931 1356 
Q 2931 1769 2642 2001 
Q 2353 2234 1838 2234 
L 1294 2234 
L 1294 2753 
L 1863 2753 
Q 2328 2753 2575 2939 
Q 2822 3125 2822 3475 
Q 2822 3834 2567 4026 
Q 2313 4219 1838 4219 
Q 1578 4219 1281 4162 
Q 984 4106 628 3988 
L 628 4550 
Q 988 4650 1302 4700 
Q 1616 4750 1894 4750 
Q 2613 4750 3031 4423 
Q 3450 4097 3450 3541 
Q 3450 3153 3228 2886 
Q 3006 2619 2597 2516 
z
" transform="scale(0.015625)"/>
       </defs>
       <use xlink:href="#DejaVuSans-33"/>
      </g>
     </g>
    </g>
    <g id="text_6">
     <!-- Time (s) -->
     <g transform="translate(231.449255 390.54452) scale(0.32 -0.32)">
      <defs>
       <path id="DejaVuSans-54" d="M -19 4666 
L 3928 4666 
L 3928 4134 
L 2272 4134 
L 2272 0 
L 1638 0 
L 1638 4134 
L -19 4134 
L -19 4666 
z
" transform="scale(0.015625)"/>
       <path id="DejaVuSans-69" d="M 603 3500 
L 1178 3500 
L 1178 0 
L 603 0 
L 603 3500 
z
M 603 4863 
L 1178 4863 
L 1178 4134 
L 603 4134 
L 603 4863 
z
" transform="scale(0.015625)"/>
       <path id="DejaVuSans-6d" d="M 3328 2828 
Q 3544 3216 3844 3400 
Q 4144 3584 4550 3584 
Q 5097 3584 5394 3201 
Q 5691 2819 5691 2113 
L 5691 0 
L 5113 0 
L 5113 2094 
Q 5113 2597 4934 2840 
Q 4756 3084 4391 3084 
Q 3944 3084 3684 2787 
Q 3425 2491 3425 1978 
L 3425 0 
L 2847 0 
L 2847 2094 
Q 2847 2600 2669 2842 
Q 2491 3084 2119 3084 
Q 1678 3084 1418 2786 
Q 1159 2488 1159 1978 
L 1159 0 
L 581 0 
L 581 3500 
L 1159 3500 
L 1159 2956 
Q 1356 3278 1631 3431 
Q 1906 3584 2284 3584 
Q 2666 3584 2933 3390 
Q 3200 3197 3328 2828 
z
" transform="scale(0.015625)"/>
       <path id="DejaVuSans-65" d="M 3597 1894 
L 3597 1613 
L 953 1613 
Q 991 1019 1311 708 
Q 1631 397 2203 397 
Q 2534 397 2845 478 
Q 3156 559 3463 722 
L 3463 178 
Q 3153 47 2828 -22 
Q 2503 -91 2169 -91 
Q 1331 -91 842 396 
Q 353 884 353 1716 
Q 353 2575 817 3079 
Q 1281 3584 2069 3584 
Q 2775 3584 3186 3129 
Q 3597 2675 3597 1894 
z
M 3022 2063 
Q 3016 2534 2758 2815 
Q 2500 3097 2075 3097 
Q 1594 3097 1305 2825 
Q 1016 2553 972 2059 
L 3022 2063 
z
" transform="scale(0.015625)"/>
       <path id="DejaVuSans-20" transform="scale(0.015625)"/>
       <path id="DejaVuSans-28" d="M 1984 4856 
Q 1566 4138 1362 3434 
Q 1159 2731 1159 2009 
Q 1159 1288 1364 580 
Q 1569 -128 1984 -844 
L 1484 -844 
Q 1016 -109 783 600 
Q 550 1309 550 2009 
Q 550 2706 781 3412 
Q 1013 4119 1484 4856 
L 1984 4856 
z
" transform="scale(0.015625)"/>
       <path id="DejaVuSans-73" d="M 2834 3397 
L 2834 2853 
Q 2591 2978 2328 3040 
Q 2066 3103 1784 3103 
Q 1356 3103 1142 2972 
Q 928 2841 928 2578 
Q 928 2378 1081 2264 
Q 1234 2150 1697 2047 
L 1894 2003 
Q 2506 1872 2764 1633 
Q 3022 1394 3022 966 
Q 3022 478 2636 193 
Q 2250 -91 1575 -91 
Q 1294 -91 989 -36 
Q 684 19 347 128 
L 347 722 
Q 666 556 975 473 
Q 1284 391 1588 391 
Q 1994 391 2212 530 
Q 2431 669 2431 922 
Q 2431 1156 2273 1281 
Q 2116 1406 1581 1522 
L 1381 1569 
Q 847 1681 609 1914 
Q 372 2147 372 2553 
Q 372 3047 722 3315 
Q 1072 3584 1716 3584 
Q 2034 3584 2315 3537 
Q 2597 3491 2834 3397 
z
" transform="scale(0.015625)"/>
       <path id="DejaVuSans-29" d="M 513 4856 
L 1013 4856 
Q 1481 4119 1714 3412 
Q 1947 2706 1947 2009 
Q 1947 1309 1714 600 
Q 1481 -109 1013 -844 
L 513 -844 
Q 928 -128 1133 580 
Q 1338 1288 1338 2009 
Q 1338 2731 1133 3434 
Q 928 4138 513 4856 
z
" transform="scale(0.015625)"/>
      </defs>
      <use xlink:href="#DejaVuSans-54"/>
      <use xlink:href="#DejaVuSans-69" transform="translate(57.958984 0)"/>
      <use xlink:href="#DejaVuSans-6d" transform="translate(85.742188 0)"/>
      <use xlink:href="#DejaVuSans-65" transform="translate(183.154297 0)"/>
      <use xlink:href="#DejaVuSans-20" transform="translate(244.677734 0)"/>
      <use xlink:href="#DejaVuSans-28" transform="translate(276.464844 0)"/>
      <use xlink:href="#DejaVuSans-73" transform="translate(315.478516 0)"/>
      <use xlink:href="#DejaVuSans-29" transform="translate(367.578125 0)"/>
     </g>
    </g>
   </g>
   <g id="matplotlib.axis_2">
    <g id="ytick_1">
     <g id="line2d_6">
      <defs>
       <path id="mf6b0fedd61" d="M 0 0 
L -5 0 
" style="stroke: #000000; stroke-width: 1.6"/>
      </defs>
      <g>
       <use xlink:href="#mf6b0fedd61" x="121.92" y="302.689247" style="stroke: #000000; stroke-width: 1.6"/>
      </g>
     </g>
     <g id="text_7">
      <!-- 0.00 -->
      <g transform="translate(42.17 314.846747) scale(0.32 -0.32)">
       <defs>
        <path id="DejaVuSans-2e" d="M 684 794 
L 1344 794 
L 1344 0 
L 684 0 
L 684 794 
z
" transform="scale(0.015625)"/>
       </defs>
       <use xlink:href="#DejaVuSans-30"/>
       <use xlink:href="#DejaVuSans-2e" transform="translate(63.623047 0)"/>
       <use xlink:href="#DejaVuSans-30" transform="translate(95.410156 0)"/>
       <use xlink:href="#DejaVuSans-30" transform="translate(159.033203 0)"/>
      </g>
     </g>
    </g>
    <g id="ytick_2">
     <g id="line2d_7">
      <g>
       <use xlink:href="#mf6b0fedd61" x="121.92" y="184.367807" style="stroke: #000000; stroke-width: 1.6"/>
      </g>
     </g>
     <g id="text_8">
      <!-- 0.05 -->
      <g transform="translate(42.17 196.525307) scale(0.32 -0.32)">
       <defs>
        <path id="DejaVuSans-35" d="M 691 4666 
L 3169 4666 
L 3169 4134 
L 1269 4134 
L 1269 2991 
Q 1406 3038 1543 3061 
Q 1681 3084 1819 3084 
Q 2600 3084 3056 2656 
Q 3513 2228 3513 1497 
Q 3513 744 3044 326 
Q 2575 -91 1722 -91 
Q 1428 -91 1123 -41 
Q 819 9 494 109 
L 494 744 
Q 775 591 1075 516 
Q 1375 441 1709 441 
Q 2250 441 2565 725 
Q 2881 1009 2881 1497 
Q 2881 1984 2565 2268 
Q 2250 2553 1709 2553 
Q 1456 2553 1204 2497 
Q 953 2441 691 2322 
L 691 4666 
z
" transform="scale(0.015625)"/>
       </defs>
       <use xlink:href="#DejaVuSans-30"/>
       <use xlink:href="#DejaVuSans-2e" transform="translate(63.623047 0)"/>
       <use xlink:href="#DejaVuSans-30" transform="translate(95.410156 0)"/>
       <use xlink:href="#DejaVuSans-35" transform="translate(159.033203 0)"/>
      </g>
     </g>
    </g>
    <g id="ytick_3">
     <g id="line2d_8">
      <g>
       <use xlink:href="#mf6b0fedd61" x="121.92" y="66.046368" style="stroke: #000000; stroke-width: 1.6"/>
      </g>
     </g>
     <g id="text_9">
      <!-- 0.10 -->
      <g transform="translate(42.17 78.203868) scale(0.32 -0.32)">
       <use xlink:href="#DejaVuSans-30"/>
       <use xlink:href="#DejaVuSans-2e" transform="translate(63.623047 0)"/>
       <use xlink:href="#DejaVuSans-31" transform="translate(95.410156 0)"/>
       <use xlink:href="#DejaVuSans-30" transform="translate(159.033203 0)"/>
      </g>
     </g>
    </g>
    <g id="text_10">
     <!-- Neural Activity -->
     <g transform="translate(31.515 294.944838) rotate(-90) scale(0.32 -0.32)">
      <defs>
       <path id="DejaVuSans-4e" d="M 628 4666 
L 1478 4666 
L 3547 763 
L 3547 4666 
L 4159 4666 
L 4159 0 
L 3309 0 
L 1241 3903 
L 1241 0 
L 628 0 
L 628 4666 
z
" transform="scale(0.015625)"/>
       <path id="DejaVuSans-75" d="M 544 1381 
L 544 3500 
L 1119 3500 
L 1119 1403 
Q 1119 906 1312 657 
Q 1506 409 1894 409 
Q 2359 409 2629 706 
Q 2900 1003 2900 1516 
L 2900 3500 
L 3475 3500 
L 3475 0 
L 2900 0 
L 2900 538 
Q 2691 219 2414 64 
Q 2138 -91 1772 -91 
Q 1169 -91 856 284 
Q 544 659 544 1381 
z
M 1991 3584 
L 1991 3584 
z
" transform="scale(0.015625)"/>
       <path id="DejaVuSans-72" d="M 2631 2963 
Q 2534 3019 2420 3045 
Q 2306 3072 2169 3072 
Q 1681 3072 1420 2755 
Q 1159 2438 1159 1844 
L 1159 0 
L 581 0 
L 581 3500 
L 1159 3500 
L 1159 2956 
Q 1341 3275 1631 3429 
Q 1922 3584 2338 3584 
Q 2397 3584 2469 3576 
Q 2541 3569 2628 3553 
L 2631 2963 
z
" transform="scale(0.015625)"/>
       <path id="DejaVuSans-61" d="M 2194 1759 
Q 1497 1759 1228 1600 
Q 959 1441 959 1056 
Q 959 750 1161 570 
Q 1363 391 1709 391 
Q 2188 391 2477 730 
Q 2766 1069 2766 1631 
L 2766 1759 
L 2194 1759 
z
M 3341 1997 
L 3341 0 
L 2766 0 
L 2766 531 
Q 2569 213 2275 61 
Q 1981 -91 1556 -91 
Q 1019 -91 701 211 
Q 384 513 384 1019 
Q 384 1609 779 1909 
Q 1175 2209 1959 2209 
L 2766 2209 
L 2766 2266 
Q 2766 2663 2505 2880 
Q 2244 3097 1772 3097 
Q 1472 3097 1187 3025 
Q 903 2953 641 2809 
L 641 3341 
Q 956 3463 1253 3523 
Q 1550 3584 1831 3584 
Q 2591 3584 2966 3190 
Q 3341 2797 3341 1997 
z
" transform="scale(0.015625)"/>
       <path id="DejaVuSans-6c" d="M 603 4863 
L 1178 4863 
L 1178 0 
L 603 0 
L 603 4863 
z
" transform="scale(0.015625)"/>
       <path id="DejaVuSans-41" d="M 2188 4044 
L 1331 1722 
L 3047 1722 
L 2188 4044 
z
M 1831 4666 
L 2547 4666 
L 4325 0 
L 3669 0 
L 3244 1197 
L 1141 1197 
L 716 0 
L 50 0 
L 1831 4666 
z
" transform="scale(0.015625)"/>
       <path id="DejaVuSans-63" d="M 3122 3366 
L 3122 2828 
Q 2878 2963 2633 3030 
Q 2388 3097 2138 3097 
Q 1578 3097 1268 2742 
Q 959 2388 959 1747 
Q 959 1106 1268 751 
Q 1578 397 2138 397 
Q 2388 397 2633 464 
Q 2878 531 3122 666 
L 3122 134 
Q 2881 22 2623 -34 
Q 2366 -91 2075 -91 
Q 1284 -91 818 406 
Q 353 903 353 1747 
Q 353 2603 823 3093 
Q 1294 3584 2113 3584 
Q 2378 3584 2631 3529 
Q 2884 3475 3122 3366 
z
" transform="scale(0.015625)"/>
       <path id="DejaVuSans-74" d="M 1172 4494 
L 1172 3500 
L 2356 3500 
L 2356 3053 
L 1172 3053 
L 1172 1153 
Q 1172 725 1289 603 
Q 1406 481 1766 481 
L 2356 481 
L 2356 0 
L 1766 0 
Q 1100 0 847 248 
Q 594 497 594 1153 
L 594 3053 
L 172 3053 
L 172 3500 
L 594 3500 
L 594 4494 
L 1172 4494 
z
" transform="scale(0.015625)"/>
       <path id="DejaVuSans-76" d="M 191 3500 
L 800 3500 
L 1894 563 
L 2988 3500 
L 3597 3500 
L 2284 0 
L 1503 0 
L 191 3500 
z
" transform="scale(0.015625)"/>
       <path id="DejaVuSans-79" d="M 2059 -325 
Q 1816 -950 1584 -1140 
Q 1353 -1331 966 -1331 
L 506 -1331 
L 506 -850 
L 844 -850 
Q 1081 -850 1212 -737 
Q 1344 -625 1503 -206 
L 1606 56 
L 191 3500 
L 800 3500 
L 1894 763 
L 2988 3500 
L 3597 3500 
L 2059 -325 
z
" transform="scale(0.015625)"/>
      </defs>
      <use xlink:href="#DejaVuSans-4e"/>
      <use xlink:href="#DejaVuSans-65" transform="translate(74.804688 0)"/>
      <use xlink:href="#DejaVuSans-75" transform="translate(136.328125 0)"/>
      <use xlink:href="#DejaVuSans-72" transform="translate(199.707031 0)"/>
      <use xlink:href="#DejaVuSans-61" transform="translate(240.820312 0)"/>
      <use xlink:href="#DejaVuSans-6c" transform="translate(302.099609 0)"/>
      <use xlink:href="#DejaVuSans-20" transform="translate(329.882812 0)"/>
      <use xlink:href="#DejaVuSans-41" transform="translate(361.669922 0)"/>
      <use xlink:href="#DejaVuSans-63" transform="translate(428.328125 0)"/>
      <use xlink:href="#DejaVuSans-74" transform="translate(483.308594 0)"/>
      <use xlink:href="#DejaVuSans-69" transform="translate(522.517578 0)"/>
      <use xlink:href="#DejaVuSans-76" transform="translate(550.300781 0)"/>
      <use xlink:href="#DejaVuSans-69" transform="translate(609.480469 0)"/>
      <use xlink:href="#DejaVuSans-74" transform="translate(637.263672 0)"/>
      <use xlink:href="#DejaVuSans-79" transform="translate(676.472656 0)"/>
     </g>
    </g>
   </g>
   <g id="line2d_9">
    <path d="M 122.792909 283.481569 
L 125.411635 286.221065 
L 128.030361 288.56984 
L 129.776179 289.946483 
L 130.649088 288.283638 
L 131.521997 278.426136 
L 132.394905 279.202178 
L 133.267814 280.376531 
L 134.140723 279.914541 
L 135.013632 277.638432 
L 135.88654 269.875953 
L 137.632358 273.075251 
L 140.251084 277.298947 
L 141.123993 278.568462 
L 141.996902 278.643955 
L 142.869811 266.244745 
L 143.742719 263.022159 
L 144.615628 263.375701 
L 145.488537 262.437189 
L 147.234354 266.361766 
L 148.980172 269.903696 
L 150.72599 273.100289 
L 153.344716 277.320417 
L 155.963442 280.938649 
L 158.582169 284.040826 
L 159.455077 284.973247 
L 160.327986 277.723521 
L 162.946712 281.284259 
L 165.565439 284.337146 
L 166.438348 284.398084 
L 169.057074 287.006862 
L 171.6758 289.243562 
L 172.548709 289.915847 
L 173.421618 289.902303 
L 176.040344 291.726041 
L 178.65907 293.289669 
L 179.531979 293.759648 
L 180.404888 290.246874 
L 183.023614 292.021469 
L 184.769432 293.061577 
L 185.642341 291.167683 
L 188.261067 292.810947 
L 190.879793 294.219839 
L 192.625611 295.045607 
L 193.49852 294.979702 
L 195.244337 295.731383 
L 196.117246 290.753965 
L 198.735972 292.456235 
L 199.608881 292.967886 
L 200.48179 283.739127 
L 203.100516 286.441889 
L 203.973425 287.254257 
L 204.846334 278.523707 
L 207.46506 281.970318 
L 210.083786 284.925356 
L 212.702513 287.458932 
L 215.321239 289.631156 
L 217.939965 291.493567 
L 220.558692 293.090351 
L 223.177418 294.459394 
L 226.669053 295.985981 
L 230.160688 297.229395 
L 233.652323 298.242164 
L 238.016867 299.248179 
L 242.381411 300.026614 
L 247.618864 300.731967 
L 253.729225 301.322406 
L 261.585404 301.827796 
L 271.187401 302.199254 
L 284.281032 302.462238 
L 299.99339 302.599076 
L 300.866299 300.414712 
L 305.230843 300.929255 
L 306.103752 296.712242 
L 309.595387 297.82094 
L 310.468295 290.758183 
L 311.341204 287.685617 
L 313.087022 289.148471 
L 313.959931 281.06317 
L 316.578657 284.14759 
L 317.451566 285.074673 
L 318.324474 277.923647 
L 319.197383 279.161926 
L 320.070292 263.283433 
L 320.943201 253.20469 
L 321.816109 249.606417 
L 323.561927 254.781992 
L 325.307745 259.452951 
L 327.053562 263.668491 
L 328.79938 267.473014 
L 329.672288 264.198059 
L 331.418106 267.950952 
L 333.163924 271.337936 
L 334.909741 274.394689 
L 337.528467 278.430202 
L 340.147194 281.890149 
L 341.020103 282.930105 
L 341.893011 283.379063 
L 342.76592 284.209483 
L 343.638829 284.013141 
L 344.511738 281.903178 
L 345.384646 279.106249 
L 346.257555 279.733258 
L 348.876282 283.007359 
L 351.495008 285.814488 
L 352.367917 286.658226 
L 353.240825 286.268051 
L 354.113734 287.089111 
L 354.986643 284.836142 
L 356.73246 286.57682 
L 357.605369 277.366468 
L 358.478278 270.847101 
L 359.351187 272.439209 
L 360.224096 269.364367 
L 361.969913 272.613545 
L 363.715731 275.545927 
L 366.334457 279.417244 
L 367.207366 278.884269 
L 369.826092 282.279456 
L 370.699001 270.052487 
L 371.57191 263.959464 
L 373.317727 267.735619 
L 374.190636 266.267115 
L 375.063545 268.088222 
L 375.936454 266.050565 
L 377.682271 269.622839 
L 379.428089 272.846816 
L 381.173906 275.756453 
L 382.046815 277.103094 
L 382.919724 272.987182 
L 383.792633 266.183591 
L 385.53845 269.742895 
L 386.411359 271.390213 
L 387.284268 272.522931 
L 388.157176 271.78147 
L 389.902994 274.79498 
L 392.52172 278.773401 
L 395.140447 282.184399 
L 397.759173 285.108903 
L 400.377899 287.616301 
L 402.996626 289.76608 
L 403.869534 290.412239 
L 404.742443 289.088181 
L 405.615352 289.768235 
L 406.488261 284.140417 
L 407.361169 285.067859 
L 408.234078 276.024872 
L 409.979896 278.624648 
L 410.852805 277.442666 
L 413.471531 281.04346 
L 416.090257 284.130691 
L 418.708984 286.777606 
L 421.32771 289.047004 
L 422.200619 288.461396 
L 423.073527 283.017263 
L 424.819345 284.935283 
L 425.692254 278.162129 
L 428.31098 281.660312 
L 430.929706 284.659566 
L 431.802615 285.561051 
L 432.675524 280.54853 
L 433.548433 279.138443 
L 434.421341 275.721239 
L 435.29425 270.408834 
L 437.040068 273.556177 
L 438.785885 276.304329 
L 439.658794 273.602628 
L 442.27752 277.751107 
L 443.150429 276.910968 
L 445.769156 280.587597 
L 448.387882 283.739847 
L 451.006608 286.442507 
L 453.625335 288.7597 
L 455.371152 290.117832 
L 456.244061 285.402348 
L 457.11697 268.620039 
L 458.862787 271.941787 
L 459.735696 273.479161 
L 460.608605 265.894496 
L 462.354422 269.481983 
L 463.227331 267.820989 
L 464.10024 254.819137 
L 464.973149 255.992251 
L 465.846057 247.44336 
L 466.718966 248.487572 
L 468.464784 253.772236 
L 470.210601 258.541644 
L 470.210601 258.541644 
" clip-path="url(#p07b9a9027b)" style="fill: none; stroke: #000000; stroke-width: 5; stroke-linecap: square"/>
   </g>
   <g id="line2d_10">
    <path d="M 122.792909 272.133415 
L 123.665818 258.240661 
L 124.538726 256.03465 
L 125.411635 255.893401 
L 126.284544 251.754681 
L 128.030361 256.720806 
L 128.90327 256.826523 
L 129.776179 250.381452 
L 130.649088 240.717331 
L 131.521997 235.60105 
L 132.394905 237.630537 
L 134.140723 243.973764 
L 135.013632 246.909538 
L 135.88654 248.91558 
L 136.759449 251.604264 
L 137.632358 252.605584 
L 138.505267 253.862865 
L 139.378176 256.304183 
L 140.251084 257.31259 
L 141.996902 261.736813 
L 143.742719 265.729674 
L 145.488537 269.333234 
L 147.234354 272.585447 
L 148.107263 274.090638 
L 148.980172 271.936286 
L 150.72599 274.934702 
L 151.598898 270.796389 
L 152.471807 269.134973 
L 153.344716 270.812687 
L 154.217625 270.899195 
L 155.090533 265.667524 
L 156.836351 269.277143 
L 158.582169 272.534824 
L 160.327986 275.474882 
L 162.946712 279.356333 
L 165.565439 282.684191 
L 167.311256 284.634684 
L 168.184165 283.72617 
L 170.802891 286.43078 
L 172.548709 288.015981 
L 173.421618 283.630624 
L 174.294527 283.088002 
L 175.167435 284.068064 
L 176.040344 280.007306 
L 176.913253 280.910016 
L 178.65907 283.033492 
L 179.531979 282.281797 
L 181.277797 284.271523 
L 182.150705 284.572332 
L 183.896523 286.338732 
L 184.769432 285.827361 
L 187.388158 288.232288 
L 189.133976 289.641842 
L 190.006884 283.677719 
L 190.879793 281.053622 
L 191.752702 282.135404 
L 192.625611 279.036305 
L 194.371428 281.342469 
L 196.117246 274.306109 
L 198.735972 278.354255 
L 199.608881 275.055586 
L 200.48179 268.84322 
L 201.354699 269.346542 
L 203.100516 272.597457 
L 204.846334 275.531408 
L 207.46506 279.404797 
L 208.337969 279.062642 
L 209.210878 276.091017 
L 210.956695 278.684346 
L 211.829604 278.759442 
L 214.44833 282.172432 
L 216.194148 284.172821 
L 217.067056 275.601604 
L 217.939965 275.772795 
L 220.558692 279.611755 
L 223.177418 282.903182 
L 224.050327 283.892486 
L 224.923235 281.587224 
L 225.796144 282.642325 
L 226.669053 283.395066 
L 229.287779 286.146898 
L 230.160688 286.697325 
L 231.033597 283.860957 
L 231.906506 284.802372 
L 232.779414 282.735793 
L 233.652323 283.061971 
L 236.27105 285.861312 
L 237.143958 286.125339 
L 239.762685 288.487767 
L 242.381411 290.513253 
L 243.25432 291.122053 
L 244.127229 288.824479 
L 245.000137 289.517718 
L 245.873046 288.029481 
L 246.745955 278.485511 
L 247.618864 274.727602 
L 250.23759 278.715632 
L 251.110499 279.914314 
L 251.983407 277.345039 
L 252.856316 273.815266 
L 255.475043 277.933419 
L 258.093769 281.464219 
L 258.966678 282.525472 
L 259.839586 278.605657 
L 262.458313 282.040581 
L 265.077039 284.985599 
L 266.822857 286.711705 
L 267.695765 282.376919 
L 268.568674 282.844089 
L 269.441583 279.631257 
L 272.060309 282.919903 
L 272.933218 282.853631 
L 273.806127 281.087933 
L 274.679036 282.167998 
L 275.551944 280.284163 
L 276.424853 278.681752 
L 278.170671 281.022483 
L 279.04358 279.697626 
L 280.789397 269.499153 
L 282.535215 272.73519 
L 284.281032 275.655712 
L 286.899758 279.511371 
L 287.772667 280.670266 
L 288.645576 280.259964 
L 289.518485 279.324753 
L 290.391394 280.492979 
L 291.264302 280.96614 
L 294.755937 284.938993 
L 296.501755 286.669643 
L 297.374664 284.551216 
L 299.99339 287.138153 
L 300.866299 287.915708 
L 301.739208 285.100262 
L 304.357934 287.608893 
L 306.97666 289.759728 
L 308.722478 291.020356 
L 309.595387 288.113018 
L 310.468295 280.898784 
L 311.341204 281.988309 
L 312.214113 279.469466 
L 314.832839 282.781189 
L 317.451566 285.620578 
L 320.070292 288.054998 
L 322.689018 290.142208 
L 323.561927 290.769561 
L 324.434836 283.711011 
L 326.180653 285.56139 
L 327.053562 283.579476 
L 329.672288 286.305007 
L 332.291015 288.641811 
L 334.036832 290.011436 
L 334.909741 289.632494 
L 335.78265 277.219884 
L 336.655559 268.270801 
L 338.401376 271.6266 
L 339.274285 273.179731 
L 340.147194 273.981086 
L 342.76592 278.075586 
L 344.511738 272.356058 
L 346.257555 275.313545 
L 348.876282 279.218004 
L 351.495008 282.565592 
L 354.113734 285.435729 
L 356.73246 287.896511 
L 358.478278 289.338804 
L 359.351187 285.673537 
L 360.224096 286.524323 
L 361.097004 283.431155 
L 363.715731 286.177842 
L 364.588639 287.003413 
L 365.461548 280.771094 
L 366.334457 281.867003 
L 367.207366 279.781901 
L 369.826092 283.049061 
L 372.444818 285.850242 
L 373.317727 286.692192 
L 374.190636 286.00679 
L 375.063545 279.111311 
L 377.682271 282.474114 
L 378.55518 283.484871 
L 379.428089 281.392764 
L 382.046815 284.430177 
L 383.792633 286.210437 
L 384.665541 285.569564 
L 386.411359 287.238734 
L 387.284268 285.143567 
L 388.157176 280.302887 
L 389.030085 277.51617 
L 389.902994 276.876603 
L 390.775903 269.320751 
L 391.648811 268.33303 
L 392.52172 270.050842 
L 393.394629 270.820359 
L 394.267538 272.092028 
L 395.140447 270.578145 
L 396.886264 273.708978 
L 399.50499 277.842292 
L 402.123717 281.386088 
L 404.742443 284.424452 
L 407.361169 287.029468 
L 409.979896 289.262946 
L 412.598622 291.177872 
L 413.471531 289.407044 
L 414.34444 287.990853 
L 415.217348 287.472565 
L 417.836075 289.642846 
L 418.708984 287.405618 
L 421.32771 289.585447 
L 422.200619 290.240637 
L 423.073527 290.324682 
L 425.692254 292.088179 
L 427.438071 293.121784 
L 428.31098 293.439514 
L 430.929706 294.758758 
L 434.421341 296.229814 
L 436.167159 296.859609 
L 437.040068 293.552383 
L 439.658794 294.855529 
L 443.150429 296.308635 
L 444.023338 296.627665 
L 444.896247 296.710601 
L 445.769156 295.642465 
L 451.006608 297.47221 
L 451.879517 283.983181 
L 453.625335 275.620877 
L 456.244061 279.481504 
L 458.862787 282.791508 
L 461.481513 285.629422 
L 462.354422 280.662724 
L 463.227331 280.993006 
L 464.10024 276.19548 
L 464.973149 276.734184 
L 465.846057 272.997166 
L 468.464784 277.231999 
L 470.210601 279.71408 
L 470.210601 279.71408 
" clip-path="url(#p07b9a9027b)" style="fill: none; stroke: #ff0000; stroke-width: 5; stroke-linecap: square"/>
   </g>
   <g id="line2d_11">
    <path d="M 122.792909 286.734945 
L 125.411635 289.010427 
L 128.030361 290.961369 
L 129.776179 292.104837 
L 130.649088 290.259622 
L 131.521997 281.490058 
L 134.140723 284.513592 
L 136.759449 287.105896 
L 137.632358 287.885063 
L 138.505267 274.37989 
L 141.123993 278.417514 
L 141.996902 279.631101 
L 142.869811 266.681009 
L 144.615628 270.191813 
L 145.488537 267.980376 
L 146.361446 265.343087 
L 148.107263 268.984338 
L 149.853081 272.270566 
L 151.598898 275.236388 
L 153.344716 277.913042 
L 154.217625 277.933185 
L 156.836351 281.464019 
L 159.455077 284.491267 
L 160.327986 285.401166 
L 161.200895 284.173266 
L 163.819621 286.814108 
L 166.438348 289.078301 
L 169.057074 291.019562 
L 169.929983 291.603047 
L 170.802891 290.153762 
L 171.6758 288.26154 
L 172.548709 288.982926 
L 173.421618 289.3103 
L 176.040344 291.218474 
L 178.65907 292.854494 
L 179.531979 283.577688 
L 180.404888 277.869058 
L 181.277797 278.419074 
L 183.896523 281.88061 
L 186.515249 284.848443 
L 189.133976 287.392989 
L 191.752702 289.574618 
L 192.625611 287.327483 
L 193.49852 286.653161 
L 194.371428 287.454965 
L 195.244337 288.054537 
L 196.117246 278.797347 
L 196.990155 273.725406 
L 197.863063 273.005973 
L 200.48179 277.239551 
L 203.100516 280.869316 
L 205.719242 283.981385 
L 208.337969 286.649595 
L 210.956695 288.937251 
L 213.575421 290.898629 
L 216.194148 292.580267 
L 218.812874 294.02206 
L 221.4316 295.258217 
L 224.923235 296.636627 
L 228.414871 297.75935 
L 231.906506 298.673815 
L 236.27105 299.582183 
L 241.508502 300.40527 
L 247.618864 301.094261 
L 254.602134 301.6311 
L 263.331222 302.055696 
L 274.679036 302.364018 
L 291.264302 302.566521 
L 299.99339 302.615766 
L 300.866299 292.796223 
L 303.485025 294.207216 
L 306.97666 295.78058 
L 310.468295 297.062096 
L 313.087022 297.864669 
L 313.959931 291.736919 
L 316.578657 293.298995 
L 317.451566 293.768508 
L 318.324474 289.139094 
L 319.197383 289.816602 
L 320.070292 278.981657 
L 322.689018 282.362953 
L 325.307745 285.261991 
L 327.926471 287.747554 
L 328.79938 288.494639 
L 329.672288 276.565393 
L 331.418106 279.11247 
L 332.291015 275.009262 
L 334.909741 278.957119 
L 335.78265 276.755591 
L 338.401376 280.454377 
L 341.020103 283.625628 
L 341.893011 278.751322 
L 342.76592 264.001475 
L 343.638829 256.138136 
L 344.511738 255.236672 
L 345.384646 255.130412 
L 346.257555 257.508355 
L 347.130464 250.708005 
L 348.876282 255.776175 
L 350.622099 260.350202 
L 351.495008 262.467153 
L 352.367917 263.678135 
L 353.240825 263.872361 
L 354.986643 267.65701 
L 356.73246 271.072654 
L 358.478278 274.155274 
L 359.351187 271.324655 
L 360.224096 271.240501 
L 361.097004 272.812939 
L 361.969913 269.157667 
L 362.842822 266.559972 
L 364.588639 270.082579 
L 366.334457 273.26173 
L 367.207366 274.733106 
L 368.080275 271.884644 
L 368.953183 273.424874 
L 369.826092 271.875174 
L 370.699001 271.337947 
L 372.444818 274.3947 
L 373.317727 275.809428 
L 374.190636 269.140719 
L 375.063545 265.227743 
L 375.936454 259.292939 
L 379.428089 267.206531 
L 381.173906 270.666097 
L 382.046815 272.267254 
L 382.919724 272.121035 
L 384.665541 275.101436 
L 387.284268 279.036149 
L 389.902994 282.409672 
L 392.52172 285.302046 
L 395.140447 287.781897 
L 397.759173 289.908058 
L 400.377899 291.730975 
L 402.996626 293.293899 
L 405.615352 294.633911 
L 406.488261 293.386709 
L 409.106987 294.713484 
L 409.979896 295.112272 
L 411.725713 288.444305 
L 412.598622 289.156552 
L 413.471531 275.194941 
L 414.34444 274.011687 
L 415.217348 275.445565 
L 416.090257 269.846855 
L 417.836075 273.048989 
L 418.708984 274.531003 
L 419.581892 269.445869 
L 421.32771 272.687101 
L 423.073527 275.612311 
L 425.692254 279.47416 
L 428.31098 282.785213 
L 430.056798 284.661645 
L 430.929706 285.563025 
L 431.802615 285.625186 
L 432.675524 279.850473 
L 433.548433 280.992413 
L 434.421341 280.885235 
L 435.29425 270.997919 
L 437.040068 274.087823 
L 439.658794 278.167104 
L 442.27752 281.664577 
L 443.150429 282.71581 
L 444.023338 283.485053 
L 446.642064 286.224051 
L 449.260791 288.572401 
L 451.879517 290.585817 
L 454.498243 292.312068 
L 457.11697 293.792114 
L 457.989878 294.236971 
L 458.862787 293.241084 
L 461.481513 294.588629 
L 463.227331 295.378439 
L 464.10024 290.953163 
L 465.846057 292.097431 
L 466.718966 288.987368 
L 467.591875 289.672462 
L 468.464784 281.881194 
L 470.210601 283.90998 
L 470.210601 283.90998 
" clip-path="url(#p07b9a9027b)" style="fill: none; stroke: #0000ff; stroke-width: 5; stroke-linecap: square"/>
   </g>
   <g id="patch_3">
    <path d="M 121.92 322.75952 
L 121.92 31.720156 
" style="fill: none; stroke: #000000; stroke-width: 5; stroke-linejoin: miter; stroke-linecap: square"/>
   </g>
   <g id="patch_4">
    <path d="M 121.92 322.75952 
L 471.08351 322.75952 
" style="fill: none; stroke: #000000; stroke-width: 5; stroke-linejoin: miter; stroke-linecap: square"/>
   </g>
   <g id="patch_5">
    <path d="M 209.210878 316.938733 
L 296.501755 316.938733 
L 296.501755 306.752355 
L 209.210878 306.752355 
z
" style="fill: #8c5a2b; stroke: #8c5a2b; stroke-linejoin: miter"/>
   </g>
   <g id="text_11">
    <!-- Novel | Naive -->
    <g transform="translate(233.199099 21.720156) scale(0.19 -0.19)">
     <defs>
      <path id="DejaVuSans-6f" d="M 1959 3097 
Q 1497 3097 1228 2736 
Q 959 2375 959 1747 
Q 959 1119 1226 758 
Q 1494 397 1959 397 
Q 2419 397 2687 759 
Q 2956 1122 2956 1747 
Q 2956 2369 2687 2733 
Q 2419 3097 1959 3097 
z
M 1959 3584 
Q 2709 3584 3137 3096 
Q 3566 2609 3566 1747 
Q 3566 888 3137 398 
Q 2709 -91 1959 -91 
Q 1206 -91 779 398 
Q 353 888 353 1747 
Q 353 2609 779 3096 
Q 1206 3584 1959 3584 
z
" transform="scale(0.015625)"/>
      <path id="DejaVuSans-7c" d="M 1344 4891 
L 1344 -1509 
L 813 -1509 
L 813 4891 
L 1344 4891 
z
" transform="scale(0.015625)"/>
     </defs>
     <use xlink:href="#DejaVuSans-4e"/>
     <use xlink:href="#DejaVuSans-6f" transform="translate(74.804688 0)"/>
     <use xlink:href="#DejaVuSans-76" transform="translate(135.986328 0)"/>
     <use xlink:href="#DejaVuSans-65" transform="translate(195.166016 0)"/>
     <use xlink:href="#DejaVuSans-6c" transform="translate(256.689453 0)"/>
     <use xlink:href="#DejaVuSans-20" transform="translate(284.472656 0)"/>
     <use xlink:href="#DejaVuSans-7c" transform="translate(316.259766 0)"/>
     <use xlink:href="#DejaVuSans-20" transform="translate(349.951172 0)"/>
     <use xlink:href="#DejaVuSans-4e" transform="translate(381.738281 0)"/>
     <use xlink:href="#DejaVuSans-61" transform="translate(456.542969 0)"/>
     <use xlink:href="#DejaVuSans-69" transform="translate(517.822266 0)"/>
     <use xlink:href="#DejaVuSans-76" transform="translate(545.605469 0)"/>
     <use xlink:href="#DejaVuSans-65" transform="translate(604.785156 0)"/>
    </g>
   </g>
   <g id="legend_1">
    <g id="line2d_12">
     <path d="M 130.92 46.867812 
L 145.92 46.867812 
L 160.92 46.867812 
" style="fill: none; stroke: #000000; stroke-width: 5; stroke-linecap: square"/>
    </g>
    <g id="text_12">
     <!-- Nonoccluded (NO) -->
     <g transform="translate(172.92 52.117812) scale(0.15 -0.15)">
      <defs>
       <path id="DejaVuSans-6e" d="M 3513 2113 
L 3513 0 
L 2938 0 
L 2938 2094 
Q 2938 2591 2744 2837 
Q 2550 3084 2163 3084 
Q 1697 3084 1428 2787 
Q 1159 2491 1159 1978 
L 1159 0 
L 581 0 
L 581 3500 
L 1159 3500 
L 1159 2956 
Q 1366 3272 1645 3428 
Q 1925 3584 2291 3584 
Q 2894 3584 3203 3211 
Q 3513 2838 3513 2113 
z
" transform="scale(0.015625)"/>
       <path id="DejaVuSans-64" d="M 2906 2969 
L 2906 4863 
L 3481 4863 
L 3481 0 
L 2906 0 
L 2906 525 
Q 2725 213 2448 61 
Q 2172 -91 1784 -91 
Q 1150 -91 751 415 
Q 353 922 353 1747 
Q 353 2572 751 3078 
Q 1150 3584 1784 3584 
Q 2172 3584 2448 3432 
Q 2725 3281 2906 2969 
z
M 947 1747 
Q 947 1113 1208 752 
Q 1469 391 1925 391 
Q 2381 391 2643 752 
Q 2906 1113 2906 1747 
Q 2906 2381 2643 2742 
Q 2381 3103 1925 3103 
Q 1469 3103 1208 2742 
Q 947 2381 947 1747 
z
" transform="scale(0.015625)"/>
       <path id="DejaVuSans-4f" d="M 2522 4238 
Q 1834 4238 1429 3725 
Q 1025 3213 1025 2328 
Q 1025 1447 1429 934 
Q 1834 422 2522 422 
Q 3209 422 3611 934 
Q 4013 1447 4013 2328 
Q 4013 3213 3611 3725 
Q 3209 4238 2522 4238 
z
M 2522 4750 
Q 3503 4750 4090 4092 
Q 4678 3434 4678 2328 
Q 4678 1225 4090 567 
Q 3503 -91 2522 -91 
Q 1538 -91 948 565 
Q 359 1222 359 2328 
Q 359 3434 948 4092 
Q 1538 4750 2522 4750 
z
" transform="scale(0.015625)"/>
      </defs>
      <use xlink:href="#DejaVuSans-4e"/>
      <use xlink:href="#DejaVuSans-6f" transform="translate(74.804688 0)"/>
      <use xlink:href="#DejaVuSans-6e" transform="translate(135.986328 0)"/>
      <use xlink:href="#DejaVuSans-6f" transform="translate(199.365234 0)"/>
      <use xlink:href="#DejaVuSans-63" transform="translate(260.546875 0)"/>
      <use xlink:href="#DejaVuSans-63" transform="translate(315.527344 0)"/>
      <use xlink:href="#DejaVuSans-6c" transform="translate(370.507812 0)"/>
      <use xlink:href="#DejaVuSans-75" transform="translate(398.291016 0)"/>
      <use xlink:href="#DejaVuSans-64" transform="translate(461.669922 0)"/>
      <use xlink:href="#DejaVuSans-65" transform="translate(525.146484 0)"/>
      <use xlink:href="#DejaVuSans-64" transform="translate(586.669922 0)"/>
      <use xlink:href="#DejaVuSans-20" transform="translate(650.146484 0)"/>
      <use xlink:href="#DejaVuSans-28" transform="translate(681.933594 0)"/>
      <use xlink:href="#DejaVuSans-4e" transform="translate(720.947266 0)"/>
      <use xlink:href="#DejaVuSans-4f" transform="translate(795.751953 0)"/>
      <use xlink:href="#DejaVuSans-29" transform="translate(874.462891 0)"/>
     </g>
    </g>
    <g id="line2d_13">
     <path d="M 130.92 68.885 
L 145.92 68.885 
L 160.92 68.885 
" style="fill: none; stroke: #ff0000; stroke-width: 5; stroke-linecap: square"/>
    </g>
    <g id="text_13">
     <!-- Occluded (O) -->
     <g transform="translate(172.92 74.135) scale(0.15 -0.15)">
      <use xlink:href="#DejaVuSans-4f"/>
      <use xlink:href="#DejaVuSans-63" transform="translate(78.710938 0)"/>
      <use xlink:href="#DejaVuSans-63" transform="translate(133.691406 0)"/>
      <use xlink:href="#DejaVuSans-6c" transform="translate(188.671875 0)"/>
      <use xlink:href="#DejaVuSans-75" transform="translate(216.455078 0)"/>
      <use xlink:href="#DejaVuSans-64" transform="translate(279.833984 0)"/>
      <use xlink:href="#DejaVuSans-65" transform="translate(343.310547 0)"/>
      <use xlink:href="#DejaVuSans-64" transform="translate(404.833984 0)"/>
      <use xlink:href="#DejaVuSans-20" transform="translate(468.310547 0)"/>
      <use xlink:href="#DejaVuSans-28" transform="translate(500.097656 0)"/>
      <use xlink:href="#DejaVuSans-4f" transform="translate(539.111328 0)"/>
      <use xlink:href="#DejaVuSans-29" transform="translate(617.822266 0)"/>
     </g>
    </g>
    <g id="line2d_14">
     <path d="M 130.92 90.902187 
L 145.92 90.902187 
L 160.92 90.902187 
" style="fill: none; stroke: #0000ff; stroke-width: 5; stroke-linecap: square"/>
    </g>
    <g id="text_14">
     <!-- No feedback -->
     <g transform="translate(172.92 96.152187) scale(0.15 -0.15)">
      <defs>
       <path id="DejaVuSans-66" d="M 2375 4863 
L 2375 4384 
L 1825 4384 
Q 1516 4384 1395 4259 
Q 1275 4134 1275 3809 
L 1275 3500 
L 2222 3500 
L 2222 3053 
L 1275 3053 
L 1275 0 
L 697 0 
L 697 3053 
L 147 3053 
L 147 3500 
L 697 3500 
L 697 3744 
Q 697 4328 969 4595 
Q 1241 4863 1831 4863 
L 2375 4863 
z
" transform="scale(0.015625)"/>
       <path id="DejaVuSans-62" d="M 3116 1747 
Q 3116 2381 2855 2742 
Q 2594 3103 2138 3103 
Q 1681 3103 1420 2742 
Q 1159 2381 1159 1747 
Q 1159 1113 1420 752 
Q 1681 391 2138 391 
Q 2594 391 2855 752 
Q 3116 1113 3116 1747 
z
M 1159 2969 
Q 1341 3281 1617 3432 
Q 1894 3584 2278 3584 
Q 2916 3584 3314 3078 
Q 3713 2572 3713 1747 
Q 3713 922 3314 415 
Q 2916 -91 2278 -91 
Q 1894 -91 1617 61 
Q 1341 213 1159 525 
L 1159 0 
L 581 0 
L 581 4863 
L 1159 4863 
L 1159 2969 
z
" transform="scale(0.015625)"/>
       <path id="DejaVuSans-6b" d="M 581 4863 
L 1159 4863 
L 1159 1991 
L 2875 3500 
L 3609 3500 
L 1753 1863 
L 3688 0 
L 2938 0 
L 1159 1709 
L 1159 0 
L 581 0 
L 581 4863 
z
" transform="scale(0.015625)"/>
      </defs>
      <use xlink:href="#DejaVuSans-4e"/>
      <use xlink:href="#DejaVuSans-6f" transform="translate(74.804688 0)"/>
      <use xlink:href="#DejaVuSans-20" transform="translate(135.986328 0)"/>
      <use xlink:href="#DejaVuSans-66" transform="translate(167.773438 0)"/>
      <use xlink:href="#DejaVuSans-65" transform="translate(202.978516 0)"/>
      <use xlink:href="#DejaVuSans-65" transform="translate(264.501953 0)"/>
      <use xlink:href="#DejaVuSans-64" transform="translate(326.025391 0)"/>
      <use xlink:href="#DejaVuSans-62" transform="translate(389.501953 0)"/>
      <use xlink:href="#DejaVuSans-61" transform="translate(452.978516 0)"/>
      <use xlink:href="#DejaVuSans-63" transform="translate(514.257812 0)"/>
      <use xlink:href="#DejaVuSans-6b" transform="translate(569.238281 0)"/>
     </g>
    </g>
   </g>
  </g>
  <g id="axes_2">
   <g id="patch_6">
    <path d="M 505.85601 322.75952 
L 855.01952 322.75952 
L 855.01952 31.720156 
L 505.85601 31.720156 
z
" style="fill: #ffffff"/>
   </g>
   <g id="matplotlib.axis_3">
    <g id="xtick_6">
     <g id="line2d_15">
      <g>
       <use xlink:href="#m41f4095f85" x="505.85601" y="322.75952" style="stroke: #000000; stroke-width: 1.6"/>
      </g>
     </g>
     <g id="text_15">
      <!-- -1 -->
      <g transform="translate(489.90351 355.57452) scale(0.32 -0.32)">
       <use xlink:href="#DejaVuSans-2d"/>
       <use xlink:href="#DejaVuSans-31" transform="translate(36.083984 0)"/>
      </g>
     </g>
    </g>
    <g id="xtick_7">
     <g id="line2d_16">
      <g>
       <use xlink:href="#m41f4095f85" x="593.146888" y="322.75952" style="stroke: #000000; stroke-width: 1.6"/>
      </g>
     </g>
     <g id="text_16">
      <!-- 0 -->
      <g transform="translate(582.966888 355.57452) scale(0.32 -0.32)">
       <use xlink:href="#DejaVuSans-30"/>
      </g>
     </g>
    </g>
    <g id="xtick_8">
     <g id="line2d_17">
      <g>
       <use xlink:href="#m41f4095f85" x="680.437765" y="322.75952" style="stroke: #000000; stroke-width: 1.6"/>
      </g>
     </g>
     <g id="text_17">
      <!-- 1 -->
      <g transform="translate(670.257765 355.57452) scale(0.32 -0.32)">
       <use xlink:href="#DejaVuSans-31"/>
      </g>
     </g>
    </g>
    <g id="xtick_9">
     <g id="line2d_18">
      <g>
       <use xlink:href="#m41f4095f85" x="767.728643" y="322.75952" style="stroke: #000000; stroke-width: 1.6"/>
      </g>
     </g>
     <g id="text_18">
      <!-- 2 -->
      <g transform="translate(757.548643 355.57452) scale(0.32 -0.32)">
       <use xlink:href="#DejaVuSans-32"/>
      </g>
     </g>
    </g>
    <g id="xtick_10">
     <g id="line2d_19">
      <g>
       <use xlink:href="#m41f4095f85" x="855.01952" y="322.75952" style="stroke: #000000; stroke-width: 1.6"/>
      </g>
     </g>
     <g id="text_19">
      <!-- 3 -->
      <g transform="translate(844.83952 355.57452) scale(0.32 -0.32)">
       <use xlink:href="#DejaVuSans-33"/>
      </g>
     </g>
    </g>
    <g id="text_20">
     <!-- Time (s) -->
     <g transform="translate(615.385265 390.54452) scale(0.32 -0.32)">
      <use xlink:href="#DejaVuSans-54"/>
      <use xlink:href="#DejaVuSans-69" transform="translate(57.958984 0)"/>
      <use xlink:href="#DejaVuSans-6d" transform="translate(85.742188 0)"/>
      <use xlink:href="#DejaVuSans-65" transform="translate(183.154297 0)"/>
      <use xlink:href="#DejaVuSans-20" transform="translate(244.677734 0)"/>
      <use xlink:href="#DejaVuSans-28" transform="translate(276.464844 0)"/>
      <use xlink:href="#DejaVuSans-73" transform="translate(315.478516 0)"/>
      <use xlink:href="#DejaVuSans-29" transform="translate(367.578125 0)"/>
     </g>
    </g>
   </g>
   <g id="matplotlib.axis_4">
    <g id="ytick_4">
     <g id="line2d_20">
      <g>
       <use xlink:href="#mf6b0fedd61" x="505.85601" y="302.689247" style="stroke: #000000; stroke-width: 1.6"/>
      </g>
     </g>
    </g>
    <g id="ytick_5">
     <g id="line2d_21">
      <g>
       <use xlink:href="#mf6b0fedd61" x="505.85601" y="184.367807" style="stroke: #000000; stroke-width: 1.6"/>
      </g>
     </g>
    </g>
    <g id="ytick_6">
     <g id="line2d_22">
      <g>
       <use xlink:href="#mf6b0fedd61" x="505.85601" y="66.046368" style="stroke: #000000; stroke-width: 1.6"/>
      </g>
     </g>
    </g>
   </g>
   <g id="line2d_23">
    <path d="M 506.728919 299.753011 
L 511.966371 300.530844 
L 518.076733 301.181954 
L 525.060003 301.689278 
L 533.789091 302.090529 
L 545.136905 302.3819 
L 552.120175 302.485347 
L 552.993084 301.915877 
L 553.865993 301.954546 
L 554.738901 299.309752 
L 555.61181 290.966267 
L 558.230537 292.638258 
L 560.849263 294.071781 
L 563.467989 295.300847 
L 566.959624 296.67135 
L 570.451259 297.787633 
L 573.942894 298.696852 
L 578.307438 299.600008 
L 583.544891 300.418373 
L 589.655252 301.103411 
L 596.638523 301.637171 
L 605.36761 302.05933 
L 616.715424 302.365884 
L 633.300691 302.567225 
L 662.97959 302.667915 
L 709.243755 302.68784 
L 710.116663 300.16408 
L 714.481207 300.735321 
L 715.354116 297.396217 
L 716.227025 292.541306 
L 718.845751 293.988656 
L 721.464477 295.229578 
L 724.956113 296.6133 
L 728.447748 297.740351 
L 729.320656 291.048215 
L 730.193565 291.630268 
L 731.066474 289.250227 
L 733.6852 291.166967 
L 736.303927 292.810333 
L 738.922653 294.219313 
L 742.414288 295.790433 
L 745.905923 297.07012 
L 749.397558 298.112434 
L 753.762102 299.147797 
L 758.126646 299.94894 
L 763.364099 300.67487 
L 769.47446 301.282532 
L 776.45773 301.756004 
L 786.059727 302.158418 
L 788.678453 302.234128 
L 789.551362 299.79902 
L 794.788815 300.564665 
L 797.407541 300.867683 
L 798.28045 298.66073 
L 799.153358 294.047119 
L 801.772085 295.279703 
L 805.26372 296.654127 
L 808.755355 297.773604 
L 812.24699 298.685425 
L 813.119899 297.466626 
L 815.738625 298.211503 
L 816.611534 294.900467 
L 820.103169 296.345237 
L 821.848987 296.963778 
L 822.721895 292.399383 
L 825.340622 293.866976 
L 827.959348 295.125252 
L 829.705166 295.862742 
L 830.578074 295.628147 
L 834.069709 296.937937 
L 837.561345 298.004769 
L 841.925888 299.064488 
L 846.290432 299.884478 
L 851.527885 300.627484 
L 854.146611 300.921543 
L 854.146611 300.921543 
" clip-path="url(#pbe879d1d72)" style="fill: none; stroke: #000000; stroke-width: 5; stroke-linecap: square"/>
   </g>
   <g id="line2d_24">
    <path d="M 506.728919 291.095872 
L 508.474736 292.226225 
L 509.347645 287.930384 
L 510.220554 282.69171 
L 511.093463 283.691588 
L 511.966371 283.606835 
L 512.83928 284.560955 
L 513.712189 281.234058 
L 514.585098 272.741079 
L 516.330915 275.661026 
L 518.949642 279.515927 
L 521.568368 282.821022 
L 524.187094 285.654729 
L 525.932912 287.315594 
L 526.805821 284.606075 
L 529.424547 287.185189 
L 530.297456 281.912604 
L 531.170364 282.951437 
L 532.043273 282.601394 
L 534.662 285.466426 
L 537.280726 287.922831 
L 539.899452 290.028891 
L 542.518179 291.834574 
L 543.391087 292.377308 
L 544.263996 292.580314 
L 546.882722 294.022101 
L 548.62854 294.867147 
L 549.501449 294.467376 
L 550.374358 294.87847 
L 551.247266 293.757374 
L 553.865993 295.031283 
L 557.357628 296.451788 
L 559.976354 297.341406 
L 560.849263 290.196034 
L 561.722172 286.26563 
L 564.340898 288.608049 
L 566.086715 289.980966 
L 566.959624 288.994726 
L 569.578351 290.947907 
L 572.197077 292.622516 
L 573.069986 292.946226 
L 573.942894 291.890676 
L 574.815803 286.931111 
L 575.688712 282.69845 
L 576.561621 280.158406 
L 577.43453 269.280563 
L 579.180347 272.537911 
L 580.926165 275.477667 
L 583.544891 279.35872 
L 584.4178 280.273674 
L 586.163617 282.459191 
L 587.036526 279.688506 
L 588.782344 281.931078 
L 589.655252 279.803499 
L 590.528161 279.078288 
L 592.273979 281.380356 
L 593.146888 227.441523 
L 594.019796 188.002659 
L 594.892705 161.964573 
L 595.765614 157.044664 
L 597.511431 122.609536 
L 598.38434 110.899765 
L 599.257249 117.915546 
L 601.003066 97.854654 
L 601.875975 91.545798 
L 602.748884 76.566043 
L 603.621793 68.876994 
L 604.494702 66.30669 
L 605.36761 60.261457 
L 606.240519 67.256434 
L 607.113428 60.595746 
L 607.986337 52.244149 
L 610.605063 70.83306 
L 611.477972 82.425866 
L 612.350881 88.096998 
L 613.223789 85.584878 
L 614.096698 83.745883 
L 614.969607 78.994662 
L 616.715424 100.804894 
L 617.588333 84.958227 
L 618.461242 91.508367 
L 619.334151 94.653697 
L 620.20706 80.842313 
L 621.079968 69.659135 
L 621.952877 73.883075 
L 622.825786 84.197508 
L 623.698695 92.366675 
L 624.571603 102.882809 
L 625.444512 111.665526 
L 626.317421 114.26404 
L 627.19033 117.247356 
L 628.063239 126.519447 
L 628.936147 116.001601 
L 629.809056 101.39637 
L 630.681965 83.500121 
L 631.554874 73.641386 
L 632.427782 85.093776 
L 633.300691 82.795258 
L 634.1736 86.835393 
L 635.046509 88.652895 
L 635.919417 97.19468 
L 636.792326 96.569722 
L 637.665235 99.318825 
L 638.538144 100.943881 
L 639.411053 101.762289 
L 641.15687 121.352674 
L 642.029779 119.899134 
L 642.902688 115.976653 
L 643.775596 115.000639 
L 644.648505 124.385076 
L 645.521414 124.162992 
L 646.394323 114.885648 
L 648.14014 102.070889 
L 649.013049 101.71197 
L 649.885958 99.795892 
L 650.758867 91.900733 
L 652.504684 106.681431 
L 653.377593 93.153294 
L 655.123411 73.592741 
L 655.996319 69.902552 
L 656.869228 70.668825 
L 657.742137 79.907098 
L 658.615046 74.681648 
L 659.487954 86.082027 
L 660.360863 90.659562 
L 661.233772 78.846789 
L 662.106681 79.301975 
L 662.97959 75.220266 
L 663.852498 75.960673 
L 664.725407 79.195359 
L 665.598316 70.077296 
L 666.471225 73.684882 
L 667.344133 73.479319 
L 668.217042 80.005974 
L 669.089951 84.618473 
L 669.96286 82.749488 
L 670.835768 86.838955 
L 671.708677 83.671003 
L 672.581586 78.70699 
L 673.454495 81.510203 
L 674.327404 65.592095 
L 675.200312 64.683785 
L 676.073221 65.894824 
L 676.94613 55.032499 
L 677.819039 51.791837 
L 678.691947 53.170672 
L 682.183583 98.857256 
L 683.9294 118.730869 
L 685.675218 136.666806 
L 687.421035 152.853985 
L 689.166853 167.462928 
L 690.91267 180.647493 
L 692.658488 192.546563 
L 694.404305 203.285478 
L 696.150123 212.977351 
L 697.895941 221.724267 
L 699.641758 229.618359 
L 701.387576 236.742776 
L 703.133393 243.17256 
L 704.879211 248.975438 
L 706.625028 254.212537 
L 708.370846 258.939018 
L 710.116663 263.204665 
L 711.862481 267.054413 
L 713.608298 270.528808 
L 715.354116 273.664452 
L 716.227025 271.595165 
L 717.972842 274.62684 
L 720.591569 278.629241 
L 723.210295 282.0608 
L 725.829021 285.002933 
L 726.70193 282.783062 
L 727.574839 279.347491 
L 728.447748 269.020401 
L 730.193565 272.303114 
L 731.939383 275.265762 
L 734.558109 279.177038 
L 737.176835 282.530468 
L 739.795562 285.405615 
L 742.414288 287.870694 
L 743.287197 288.611621 
L 744.160106 288.912395 
L 746.778832 290.87732 
L 749.397558 292.561996 
L 752.016285 294.006396 
L 754.635011 295.244787 
L 758.126646 296.625689 
L 761.618281 297.750441 
L 762.49119 297.008439 
L 763.364099 292.431981 
L 765.982825 293.894925 
L 766.855734 288.885667 
L 769.47446 290.854404 
L 772.093186 292.54235 
L 774.711913 293.989552 
L 777.330639 295.230346 
L 779.949365 296.294173 
L 780.822274 292.492286 
L 781.695183 281.240214 
L 782.568092 281.57402 
L 785.186818 284.585582 
L 786.059727 277.073747 
L 786.932636 271.337162 
L 788.678453 274.393992 
L 791.297179 278.429605 
L 793.915906 281.889637 
L 796.534632 284.856182 
L 799.153358 287.399624 
L 800.026267 287.08737 
L 802.644994 289.312589 
L 805.26372 291.220435 
L 806.136629 291.793876 
L 807.009537 291.864787 
L 807.882446 289.022189 
L 810.501172 290.971453 
L 812.24699 292.113938 
L 813.119899 291.933057 
L 813.992808 292.020154 
L 814.865716 292.553609 
L 815.738625 292.089752 
L 816.611534 284.704128 
L 817.484443 283.515908 
L 820.103169 286.250506 
L 822.721895 288.595082 
L 825.340622 290.605263 
L 826.21353 291.209462 
L 827.086439 286.240113 
L 829.705166 288.586172 
L 832.323892 290.597624 
L 834.942618 292.322192 
L 837.561345 293.800793 
L 838.434253 294.245216 
L 839.307162 292.600472 
L 841.925888 294.039384 
L 844.544615 295.273071 
L 848.03625 296.648725 
L 848.909159 296.950752 
L 849.782067 297.097581 
L 850.654976 294.381447 
L 851.527885 293.198129 
L 852.400794 291.646878 
L 853.273702 292.198997 
L 854.146611 290.435817 
L 854.146611 290.435817 
" clip-path="url(#pbe879d1d72)" style="fill: none; stroke: #ff0000; stroke-width: 5; stroke-linecap: square"/>
   </g>
   <g id="line2d_25">
    <path d="M 506.728919 299.806837 
L 511.966371 300.570411 
L 518.076733 301.209585 
L 525.060003 301.707609 
L 533.789091 302.101504 
L 546.009814 302.40262 
L 546.882722 295.436785 
L 547.755631 295.799409 
L 549.501449 288.250127 
L 551.247266 289.657942 
L 552.120175 287.219878 
L 553.865993 288.728142 
L 554.738901 287.419528 
L 555.61181 284.867611 
L 556.484719 275.802784 
L 559.103445 279.637466 
L 561.722172 282.925225 
L 564.340898 285.74407 
L 566.959624 288.160877 
L 569.578351 290.232986 
L 572.197077 292.009561 
L 574.815803 293.532752 
L 577.43453 294.838698 
L 580.926165 296.294927 
L 584.4178 297.481034 
L 586.163617 297.988835 
L 587.036526 291.541342 
L 589.655252 293.131312 
L 592.273979 294.494513 
L 595.765614 296.014585 
L 599.257249 297.252693 
L 602.748884 298.261141 
L 607.113428 299.262863 
L 611.477972 300.037976 
L 616.715424 300.740319 
L 622.825786 301.328238 
L 630.681965 301.831472 
L 640.283961 302.201345 
L 653.377593 302.463206 
L 673.454495 302.619772 
L 696.150123 302.670939 
L 697.023032 298.906502 
L 701.387576 299.762231 
L 706.625028 300.537621 
L 709.243755 300.844497 
L 710.116663 297.804687 
L 713.608298 298.710743 
L 717.972842 299.610757 
L 723.210295 300.426274 
L 724.956113 300.646914 
L 725.829021 296.676813 
L 726.70193 296.977435 
L 727.574839 295.910369 
L 728.447748 287.385134 
L 729.320656 288.15034 
L 730.193565 282.827623 
L 732.812292 285.660387 
L 735.431018 288.08913 
L 738.049744 290.171473 
L 740.66847 291.956822 
L 743.287197 293.487534 
L 745.905923 294.799928 
L 747.651741 295.569137 
L 748.524649 295.63415 
L 749.397558 289.581492 
L 750.270467 287.380277 
L 751.143376 283.930499 
L 752.016285 283.838058 
L 754.635011 286.52671 
L 757.253737 288.831892 
L 759.872464 290.808298 
L 762.49119 292.502819 
L 765.109916 293.955658 
L 767.728643 295.201287 
L 771.220278 296.590257 
L 774.711913 297.721582 
L 778.203548 298.643053 
L 782.568092 299.55838 
L 787.805544 300.387772 
L 793.915906 301.082041 
L 800.899176 301.622994 
L 804.390811 301.820777 
L 805.26372 295.424191 
L 806.136629 285.016945 
L 808.755355 287.537457 
L 811.374081 289.698482 
L 813.992808 291.55129 
L 816.611534 293.139841 
L 819.23026 294.501825 
L 821.848987 295.669557 
L 822.721895 294.135772 
L 825.340622 295.355712 
L 828.832257 296.716037 
L 832.323892 297.82403 
L 833.196801 298.06729 
L 834.069709 298.009636 
L 834.942618 294.989186 
L 835.815527 293.618861 
L 838.434253 294.912525 
L 841.925888 296.355058 
L 845.417523 297.530011 
L 848.909159 298.487017 
L 853.273702 299.437642 
L 854.146611 299.600223 
L 854.146611 299.600223 
" clip-path="url(#pbe879d1d72)" style="fill: none; stroke: #0000ff; stroke-width: 5; stroke-linecap: square"/>
   </g>
   <g id="patch_7">
    <path d="M 505.85601 322.75952 
L 505.85601 31.720156 
" style="fill: none; stroke: #000000; stroke-width: 5; stroke-linejoin: miter; stroke-linecap: square"/>
   </g>
   <g id="patch_8">
    <path d="M 505.85601 322.75952 
L 855.01952 322.75952 
" style="fill: none; stroke: #000000; stroke-width: 5; stroke-linejoin: miter; stroke-linecap: square"/>
   </g>
   <g id="patch_9">
    <path d="M 593.146888 316.938733 
L 680.437765 316.938733 
L 680.437765 306.752355 
L 593.146888 306.752355 
z
" style="fill: #8c5a2b; stroke: #8c5a2b; stroke-linejoin: miter"/>
   </g>
   <g id="text_21">
    <!-- Novel | Expert -->
    <g transform="translate(613.039718 21.720156) scale(0.19 -0.19)">
     <defs>
      <path id="DejaVuSans-45" d="M 628 4666 
L 3578 4666 
L 3578 4134 
L 1259 4134 
L 1259 2753 
L 3481 2753 
L 3481 2222 
L 1259 2222 
L 1259 531 
L 3634 531 
L 3634 0 
L 628 0 
L 628 4666 
z
" transform="scale(0.015625)"/>
      <path id="DejaVuSans-78" d="M 3513 3500 
L 2247 1797 
L 3578 0 
L 2900 0 
L 1881 1375 
L 863 0 
L 184 0 
L 1544 1831 
L 300 3500 
L 978 3500 
L 1906 2253 
L 2834 3500 
L 3513 3500 
z
" transform="scale(0.015625)"/>
      <path id="DejaVuSans-70" d="M 1159 525 
L 1159 -1331 
L 581 -1331 
L 581 3500 
L 1159 3500 
L 1159 2969 
Q 1341 3281 1617 3432 
Q 1894 3584 2278 3584 
Q 2916 3584 3314 3078 
Q 3713 2572 3713 1747 
Q 3713 922 3314 415 
Q 2916 -91 2278 -91 
Q 1894 -91 1617 61 
Q 1341 213 1159 525 
z
M 3116 1747 
Q 3116 2381 2855 2742 
Q 2594 3103 2138 3103 
Q 1681 3103 1420 2742 
Q 1159 2381 1159 1747 
Q 1159 1113 1420 752 
Q 1681 391 2138 391 
Q 2594 391 2855 752 
Q 3116 1113 3116 1747 
z
" transform="scale(0.015625)"/>
     </defs>
     <use xlink:href="#DejaVuSans-4e"/>
     <use xlink:href="#DejaVuSans-6f" transform="translate(74.804688 0)"/>
     <use xlink:href="#DejaVuSans-76" transform="translate(135.986328 0)"/>
     <use xlink:href="#DejaVuSans-65" transform="translate(195.166016 0)"/>
     <use xlink:href="#DejaVuSans-6c" transform="translate(256.689453 0)"/>
     <use xlink:href="#DejaVuSans-20" transform="translate(284.472656 0)"/>
     <use xlink:href="#DejaVuSans-7c" transform="translate(316.259766 0)"/>
     <use xlink:href="#DejaVuSans-20" transform="translate(349.951172 0)"/>
     <use xlink:href="#DejaVuSans-45" transform="translate(381.738281 0)"/>
     <use xlink:href="#DejaVuSans-78" transform="translate(444.921875 0)"/>
     <use xlink:href="#DejaVuSans-70" transform="translate(504.101562 0)"/>
     <use xlink:href="#DejaVuSans-65" transform="translate(567.578125 0)"/>
     <use xlink:href="#DejaVuSans-72" transform="translate(629.101562 0)"/>
     <use xlink:href="#DejaVuSans-74" transform="translate(670.214844 0)"/>
    </g>
   </g>
  </g>
 </g>
 <defs>
  <clipPath id="p07b9a9027b">
   <rect x="121.92" y="31.720156" width="349.16351" height="291.039364"/>
  </clipPath>
  <clipPath id="pbe879d1d72">
   <rect x="505.85601" y="31.720156" width="349.16351" height="291.039364"/>
  </clipPath>
 </defs>
</svg>
