<?xml version="1.0" encoding="utf-8" standalone="no"?>
<!DOCTYPE svg PUBLIC "-//W3C//DTD SVG 1.1//EN"
  "http://www.w3.org/Graphics/SVG/1.1/DTD/svg11.dtd">
<svg xmlns:xlink="http://www.w3.org/1999/xlink" width="1458.14pt" height="418.280156pt" viewBox="0 0 1458.14 418.280156" xmlns="http://www.w3.org/2000/svg" version="1.1">
 <metadata>
  <rdf:RDF xmlns:dc="http://purl.org/dc/elements/1.1/" xmlns:cc="http://creativecommons.org/ns#" xmlns:rdf="http://www.w3.org/1999/02/22-rdf-syntax-ns#">
   <cc:Work>
    <dc:type rdf:resource="http://purl.org/dc/dcmitype/StillImage"/>
    <dc:date>2026-03-25T17:17:55.540038</dc:date>
    <dc:format>image/svg+xml</dc:format>
    <dc:creator>
     <cc:Agent>
      <dc:title>Matplotlib v3.10.7, https://matplotlib.org/</dc:title>
     </cc:Agent>
    </dc:creator>
   </cc:Work>
  </rdf:RDF>
 </metadata>
 <defs>
  <style type="text/css">*{stroke-linejoin: round; stroke-linecap: butt}</style>
 </defs>
 <g id="figure_1">
  <g id="patch_1">
   <path d="M 0 418.280156 
L 1458.14 418.280156 
L 1458.14 -0 
L 0 -0 
z
" style="fill: #ffffff"/>
  </g>
  <g id="axes_1">
   <g id="patch_2">
    <path d="M 101.56 336.640156 
L 402.50382 336.640156 
L 402.50382 31.720156 
L 101.56 31.720156 
z
" style="fill: #ffffff"/>
   </g>
   <g id="matplotlib.axis_1">
    <g id="xtick_1">
     <g id="line2d_1">
      <defs>
       <path id="md26f8569bb" d="M 0 0 
L 0 5 
" style="stroke: #000000; stroke-width: 1.6"/>
      </defs>
      <g>
       <use xlink:href="#md26f8569bb" x="101.56" y="336.640156" style="stroke: #000000; stroke-width: 1.6"/>
      </g>
     </g>
     <g id="text_1">
      <!-- -1 -->
      <g transform="translate(85.6075 369.455156) scale(0.32 -0.32)">
       <defs>
        <path id="DejaVuSans-2d" d="M 313 2009 
L 1997 2009 
L 1997 1497 
L 313 1497 
L 313 2009 
z
" transform="scale(0.015625)"/>
        <path id="DejaVuSans-31" d="M 794 531 
L 1825 531 
L 1825 4091 
L 703 3866 
L 703 4441 
L 1819 4666 
L 2450 4666 
L 2450 531 
L 3481 531 
L 3481 0 
L 794 0 
L 794 531 
z
" transform="scale(0.015625)"/>
       </defs>
       <use xlink:href="#DejaVuSans-2d"/>
       <use xlink:href="#DejaVuSans-31" transform="translate(36.083984 0)"/>
      </g>
     </g>
    </g>
    <g id="xtick_2">
     <g id="line2d_2">
      <g>
       <use xlink:href="#md26f8569bb" x="176.795955" y="336.640156" style="stroke: #000000; stroke-width: 1.6"/>
      </g>
     </g>
     <g id="text_2">
      <!-- 0 -->
      <g transform="translate(166.615955 369.455156) scale(0.32 -0.32)">
       <defs>
        <path id="DejaVuSans-30" d="M 2034 4250 
Q 1547 4250 1301 3770 
Q 1056 3291 1056 2328 
Q 1056 1369 1301 889 
Q 1547 409 2034 409 
Q 2525 409 2770 889 
Q 3016 1369 3016 2328 
Q 3016 3291 2770 3770 
Q 2525 4250 2034 4250 
z
M 2034 4750 
Q 2819 4750 3233 4129 
Q 3647 3509 3647 2328 
Q 3647 1150 3233 529 
Q 2819 -91 2034 -91 
Q 1250 -91 836 529 
Q 422 1150 422 2328 
Q 422 3509 836 4129 
Q 1250 4750 2034 4750 
z
" transform="scale(0.015625)"/>
       </defs>
       <use xlink:href="#DejaVuSans-30"/>
      </g>
     </g>
    </g>
    <g id="xtick_3">
     <g id="line2d_3">
      <g>
       <use xlink:href="#md26f8569bb" x="252.03191" y="336.640156" style="stroke: #000000; stroke-width: 1.6"/>
      </g>
     </g>
     <g id="text_3">
      <!-- 1 -->
      <g transform="translate(241.85191 369.455156) scale(0.32 -0.32)">
       <use xlink:href="#DejaVuSans-31"/>
      </g>
     </g>
    </g>
    <g id="xtick_4">
     <g id="line2d_4">
      <g>
       <use xlink:href="#md26f8569bb" x="327.267865" y="336.640156" style="stroke: #000000; stroke-width: 1.6"/>
      </g>
     </g>
     <g id="text_4">
      <!-- 2 -->
      <g transform="translate(317.087865 369.455156) scale(0.32 -0.32)">
       <defs>
        <path id="DejaVuSans-32" d="M 1228 531 
L 3431 531 
L 3431 0 
L 469 0 
L 469 531 
Q 828 903 1448 1529 
Q 2069 2156 2228 2338 
Q 2531 2678 2651 2914 
Q 2772 3150 2772 3378 
Q 2772 3750 2511 3984 
Q 2250 4219 1831 4219 
Q 1534 4219 1204 4116 
Q 875 4013 500 3803 
L 500 4441 
Q 881 4594 1212 4672 
Q 1544 4750 1819 4750 
Q 2544 4750 2975 4387 
Q 3406 4025 3406 3419 
Q 3406 3131 3298 2873 
Q 3191 2616 2906 2266 
Q 2828 2175 2409 1742 
Q 1991 1309 1228 531 
z
" transform="scale(0.015625)"/>
       </defs>
       <use xlink:href="#DejaVuSans-32"/>
      </g>
     </g>
    </g>
    <g id="xtick_5">
     <g id="line2d_5">
      <g>
       <use xlink:href="#md26f8569bb" x="402.50382" y="336.640156" style="stroke: #000000; stroke-width: 1.6"/>
      </g>
     </g>
     <g id="text_5">
      <!-- 3 -->
      <g transform="translate(392.32382 369.455156) scale(0.32 -0.32)">
       <defs>
        <path id="DejaVuSans-33" d="M 2597 2516 
Q 3050 2419 3304 2112 
Q 3559 1806 3559 1356 
Q 3559 666 3084 287 
Q 2609 -91 1734 -91 
Q 1441 -91 1130 -33 
Q 819 25 488 141 
L 488 750 
Q 750 597 1062 519 
Q 1375 441 1716 441 
Q 2309 441 2620 675 
Q 2931 909 2931 1356 
Q 2931 1769 2642 2001 
Q 2353 2234 1838 2234 
L 1294 2234 
L 1294 2753 
L 1863 2753 
Q 2328 2753 2575 2939 
Q 2822 3125 2822 3475 
Q 2822 3834 2567 4026 
Q 2313 4219 1838 4219 
Q 1578 4219 1281 4162 
Q 984 4106 628 3988 
L 628 4550 
Q 988 4650 1302 4700 
Q 1616 4750 1894 4750 
Q 2613 4750 3031 4423 
Q 3450 4097 3450 3541 
Q 3450 3153 3228 2886 
Q 3006 2619 2597 2516 
z
" transform="scale(0.015625)"/>
       </defs>
       <use xlink:href="#DejaVuSans-33"/>
      </g>
     </g>
    </g>
    <g id="text_6">
     <!-- Time (s) -->
     <g transform="translate(186.97941 404.425156) scale(0.32 -0.32)">
      <defs>
       <path id="DejaVuSans-54" d="M -19 4666 
L 3928 4666 
L 3928 4134 
L 2272 4134 
L 2272 0 
L 1638 0 
L 1638 4134 
L -19 4134 
L -19 4666 
z
" transform="scale(0.015625)"/>
       <path id="DejaVuSans-69" d="M 603 3500 
L 1178 3500 
L 1178 0 
L 603 0 
L 603 3500 
z
M 603 4863 
L 1178 4863 
L 1178 4134 
L 603 4134 
L 603 4863 
z
" transform="scale(0.015625)"/>
       <path id="DejaVuSans-6d" d="M 3328 2828 
Q 3544 3216 3844 3400 
Q 4144 3584 4550 3584 
Q 5097 3584 5394 3201 
Q 5691 2819 5691 2113 
L 5691 0 
L 5113 0 
L 5113 2094 
Q 5113 2597 4934 2840 
Q 4756 3084 4391 3084 
Q 3944 3084 3684 2787 
Q 3425 2491 3425 1978 
L 3425 0 
L 2847 0 
L 2847 2094 
Q 2847 2600 2669 2842 
Q 2491 3084 2119 3084 
Q 1678 3084 1418 2786 
Q 1159 2488 1159 1978 
L 1159 0 
L 581 0 
L 581 3500 
L 1159 3500 
L 1159 2956 
Q 1356 3278 1631 3431 
Q 1906 3584 2284 3584 
Q 2666 3584 2933 3390 
Q 3200 3197 3328 2828 
z
" transform="scale(0.015625)"/>
       <path id="DejaVuSans-65" d="M 3597 1894 
L 3597 1613 
L 953 1613 
Q 991 1019 1311 708 
Q 1631 397 2203 397 
Q 2534 397 2845 478 
Q 3156 559 3463 722 
L 3463 178 
Q 3153 47 2828 -22 
Q 2503 -91 2169 -91 
Q 1331 -91 842 396 
Q 353 884 353 1716 
Q 353 2575 817 3079 
Q 1281 3584 2069 3584 
Q 2775 3584 3186 3129 
Q 3597 2675 3597 1894 
z
M 3022 2063 
Q 3016 2534 2758 2815 
Q 2500 3097 2075 3097 
Q 1594 3097 1305 2825 
Q 1016 2553 972 2059 
L 3022 2063 
z
" transform="scale(0.015625)"/>
       <path id="DejaVuSans-20" transform="scale(0.015625)"/>
       <path id="DejaVuSans-28" d="M 1984 4856 
Q 1566 4138 1362 3434 
Q 1159 2731 1159 2009 
Q 1159 1288 1364 580 
Q 1569 -128 1984 -844 
L 1484 -844 
Q 1016 -109 783 600 
Q 550 1309 550 2009 
Q 550 2706 781 3412 
Q 1013 4119 1484 4856 
L 1984 4856 
z
" transform="scale(0.015625)"/>
       <path id="DejaVuSans-73" d="M 2834 3397 
L 2834 2853 
Q 2591 2978 2328 3040 
Q 2066 3103 1784 3103 
Q 1356 3103 1142 2972 
Q 928 2841 928 2578 
Q 928 2378 1081 2264 
Q 1234 2150 1697 2047 
L 1894 2003 
Q 2506 1872 2764 1633 
Q 3022 1394 3022 966 
Q 3022 478 2636 193 
Q 2250 -91 1575 -91 
Q 1294 -91 989 -36 
Q 684 19 347 128 
L 347 722 
Q 666 556 975 473 
Q 1284 391 1588 391 
Q 1994 391 2212 530 
Q 2431 669 2431 922 
Q 2431 1156 2273 1281 
Q 2116 1406 1581 1522 
L 1381 1569 
Q 847 1681 609 1914 
Q 372 2147 372 2553 
Q 372 3047 722 3315 
Q 1072 3584 1716 3584 
Q 2034 3584 2315 3537 
Q 2597 3491 2834 3397 
z
" transform="scale(0.015625)"/>
       <path id="DejaVuSans-29" d="M 513 4856 
L 1013 4856 
Q 1481 4119 1714 3412 
Q 1947 2706 1947 2009 
Q 1947 1309 1714 600 
Q 1481 -109 1013 -844 
L 513 -844 
Q 928 -128 1133 580 
Q 1338 1288 1338 2009 
Q 1338 2731 1133 3434 
Q 928 4138 513 4856 
z
" transform="scale(0.015625)"/>
      </defs>
      <use xlink:href="#DejaVuSans-54"/>
      <use xlink:href="#DejaVuSans-69" transform="translate(57.958984 0)"/>
      <use xlink:href="#DejaVuSans-6d" transform="translate(85.742188 0)"/>
      <use xlink:href="#DejaVuSans-65" transform="translate(183.154297 0)"/>
      <use xlink:href="#DejaVuSans-20" transform="translate(244.677734 0)"/>
      <use xlink:href="#DejaVuSans-28" transform="translate(276.464844 0)"/>
      <use xlink:href="#DejaVuSans-73" transform="translate(315.478516 0)"/>
      <use xlink:href="#DejaVuSans-29" transform="translate(367.578125 0)"/>
     </g>
    </g>
   </g>
   <g id="matplotlib.axis_2">
    <g id="ytick_1">
     <g id="line2d_6">
      <defs>
       <path id="m31ab51ed2c" d="M 0 0 
L -5 0 
" style="stroke: #000000; stroke-width: 1.6"/>
      </defs>
      <g>
       <use xlink:href="#m31ab51ed2c" x="101.56" y="315.612186" style="stroke: #000000; stroke-width: 1.6"/>
      </g>
     </g>
     <g id="text_7">
      <!-- 0.0 -->
      <g transform="translate(42.17 327.769686) scale(0.32 -0.32)">
       <defs>
        <path id="DejaVuSans-2e" d="M 684 794 
L 1344 794 
L 1344 0 
L 684 0 
L 684 794 
z
" transform="scale(0.015625)"/>
       </defs>
       <use xlink:href="#DejaVuSans-30"/>
       <use xlink:href="#DejaVuSans-2e" transform="translate(63.623047 0)"/>
       <use xlink:href="#DejaVuSans-30" transform="translate(95.410156 0)"/>
      </g>
     </g>
    </g>
    <g id="ytick_2">
     <g id="line2d_7">
      <g>
       <use xlink:href="#m31ab51ed2c" x="101.56" y="207.645678" style="stroke: #000000; stroke-width: 1.6"/>
      </g>
     </g>
     <g id="text_8">
      <!-- 0.1 -->
      <g transform="translate(42.17 219.803178) scale(0.32 -0.32)">
       <use xlink:href="#DejaVuSans-30"/>
       <use xlink:href="#DejaVuSans-2e" transform="translate(63.623047 0)"/>
       <use xlink:href="#DejaVuSans-31" transform="translate(95.410156 0)"/>
      </g>
     </g>
    </g>
    <g id="ytick_3">
     <g id="line2d_8">
      <g>
       <use xlink:href="#m31ab51ed2c" x="101.56" y="99.679169" style="stroke: #000000; stroke-width: 1.6"/>
      </g>
     </g>
     <g id="text_9">
      <!-- 0.2 -->
      <g transform="translate(42.17 111.836669) scale(0.32 -0.32)">
       <use xlink:href="#DejaVuSans-30"/>
       <use xlink:href="#DejaVuSans-2e" transform="translate(63.623047 0)"/>
       <use xlink:href="#DejaVuSans-32" transform="translate(95.410156 0)"/>
      </g>
     </g>
    </g>
    <g id="text_10">
     <!-- Neural Activity -->
     <g transform="translate(31.515 301.885156) rotate(-90) scale(0.32 -0.32)">
      <defs>
       <path id="DejaVuSans-4e" d="M 628 4666 
L 1478 4666 
L 3547 763 
L 3547 4666 
L 4159 4666 
L 4159 0 
L 3309 0 
L 1241 3903 
L 1241 0 
L 628 0 
L 628 4666 
z
" transform="scale(0.015625)"/>
       <path id="DejaVuSans-75" d="M 544 1381 
L 544 3500 
L 1119 3500 
L 1119 1403 
Q 1119 906 1312 657 
Q 1506 409 1894 409 
Q 2359 409 2629 706 
Q 2900 1003 2900 1516 
L 2900 3500 
L 3475 3500 
L 3475 0 
L 2900 0 
L 2900 538 
Q 2691 219 2414 64 
Q 2138 -91 1772 -91 
Q 1169 -91 856 284 
Q 544 659 544 1381 
z
M 1991 3584 
L 1991 3584 
z
" transform="scale(0.015625)"/>
       <path id="DejaVuSans-72" d="M 2631 2963 
Q 2534 3019 2420 3045 
Q 2306 3072 2169 3072 
Q 1681 3072 1420 2755 
Q 1159 2438 1159 1844 
L 1159 0 
L 581 0 
L 581 3500 
L 1159 3500 
L 1159 2956 
Q 1341 3275 1631 3429 
Q 1922 3584 2338 3584 
Q 2397 3584 2469 3576 
Q 2541 3569 2628 3553 
L 2631 2963 
z
" transform="scale(0.015625)"/>
       <path id="DejaVuSans-61" d="M 2194 1759 
Q 1497 1759 1228 1600 
Q 959 1441 959 1056 
Q 959 750 1161 570 
Q 1363 391 1709 391 
Q 2188 391 2477 730 
Q 2766 1069 2766 1631 
L 2766 1759 
L 2194 1759 
z
M 3341 1997 
L 3341 0 
L 2766 0 
L 2766 531 
Q 2569 213 2275 61 
Q 1981 -91 1556 -91 
Q 1019 -91 701 211 
Q 384 513 384 1019 
Q 384 1609 779 1909 
Q 1175 2209 1959 2209 
L 2766 2209 
L 2766 2266 
Q 2766 2663 2505 2880 
Q 2244 3097 1772 3097 
Q 1472 3097 1187 3025 
Q 903 2953 641 2809 
L 641 3341 
Q 956 3463 1253 3523 
Q 1550 3584 1831 3584 
Q 2591 3584 2966 3190 
Q 3341 2797 3341 1997 
z
" transform="scale(0.015625)"/>
       <path id="DejaVuSans-6c" d="M 603 4863 
L 1178 4863 
L 1178 0 
L 603 0 
L 603 4863 
z
" transform="scale(0.015625)"/>
       <path id="DejaVuSans-41" d="M 2188 4044 
L 1331 1722 
L 3047 1722 
L 2188 4044 
z
M 1831 4666 
L 2547 4666 
L 4325 0 
L 3669 0 
L 3244 1197 
L 1141 1197 
L 716 0 
L 50 0 
L 1831 4666 
z
" transform="scale(0.015625)"/>
       <path id="DejaVuSans-63" d="M 3122 3366 
L 3122 2828 
Q 2878 2963 2633 3030 
Q 2388 3097 2138 3097 
Q 1578 3097 1268 2742 
Q 959 2388 959 1747 
Q 959 1106 1268 751 
Q 1578 397 2138 397 
Q 2388 397 2633 464 
Q 2878 531 3122 666 
L 3122 134 
Q 2881 22 2623 -34 
Q 2366 -91 2075 -91 
Q 1284 -91 818 406 
Q 353 903 353 1747 
Q 353 2603 823 3093 
Q 1294 3584 2113 3584 
Q 2378 3584 2631 3529 
Q 2884 3475 3122 3366 
z
" transform="scale(0.015625)"/>
       <path id="DejaVuSans-74" d="M 1172 4494 
L 1172 3500 
L 2356 3500 
L 2356 3053 
L 1172 3053 
L 1172 1153 
Q 1172 725 1289 603 
Q 1406 481 1766 481 
L 2356 481 
L 2356 0 
L 1766 0 
Q 1100 0 847 248 
Q 594 497 594 1153 
L 594 3053 
L 172 3053 
L 172 3500 
L 594 3500 
L 594 4494 
L 1172 4494 
z
" transform="scale(0.015625)"/>
       <path id="DejaVuSans-76" d="M 191 3500 
L 800 3500 
L 1894 563 
L 2988 3500 
L 3597 3500 
L 2284 0 
L 1503 0 
L 191 3500 
z
" transform="scale(0.015625)"/>
       <path id="DejaVuSans-79" d="M 2059 -325 
Q 1816 -950 1584 -1140 
Q 1353 -1331 966 -1331 
L 506 -1331 
L 506 -850 
L 844 -850 
Q 1081 -850 1212 -737 
Q 1344 -625 1503 -206 
L 1606 56 
L 191 3500 
L 800 3500 
L 1894 763 
L 2988 3500 
L 3597 3500 
L 2059 -325 
z
" transform="scale(0.015625)"/>
      </defs>
      <use xlink:href="#DejaVuSans-4e"/>
      <use xlink:href="#DejaVuSans-65" transform="translate(74.804688 0)"/>
      <use xlink:href="#DejaVuSans-75" transform="translate(136.328125 0)"/>
      <use xlink:href="#DejaVuSans-72" transform="translate(199.707031 0)"/>
      <use xlink:href="#DejaVuSans-61" transform="translate(240.820312 0)"/>
      <use xlink:href="#DejaVuSans-6c" transform="translate(302.099609 0)"/>
      <use xlink:href="#DejaVuSans-20" transform="translate(329.882812 0)"/>
      <use xlink:href="#DejaVuSans-41" transform="translate(361.669922 0)"/>
      <use xlink:href="#DejaVuSans-63" transform="translate(428.328125 0)"/>
      <use xlink:href="#DejaVuSans-74" transform="translate(483.308594 0)"/>
      <use xlink:href="#DejaVuSans-69" transform="translate(522.517578 0)"/>
      <use xlink:href="#DejaVuSans-76" transform="translate(550.300781 0)"/>
      <use xlink:href="#DejaVuSans-69" transform="translate(609.480469 0)"/>
      <use xlink:href="#DejaVuSans-74" transform="translate(637.263672 0)"/>
      <use xlink:href="#DejaVuSans-79" transform="translate(676.472656 0)"/>
     </g>
    </g>
   </g>
   <g id="line2d_9">
    <path d="M 102.31236 308.645511 
L 103.064719 308.529703 
L 106.074157 309.84346 
L 109.083596 310.88292 
L 112.845393 311.95277 
L 115.102472 312.474695 
L 115.854831 312.18858 
L 116.607191 309.838213 
L 119.616629 310.909249 
L 123.378427 311.973143 
L 127.140225 312.796365 
L 131.654382 313.542299 
L 136.920899 314.166707 
L 142.939775 314.653226 
L 144.444494 314.746724 
L 145.196854 314.031008 
L 145.949213 309.068464 
L 148.958652 310.282284 
L 149.711011 310.548779 
L 150.463371 310.351345 
L 151.21573 310.398843 
L 153.472809 311.142396 
L 154.225169 310.466636 
L 154.977528 308.708838 
L 155.729888 307.380687 
L 158.739326 308.907579 
L 161.748764 310.151242 
L 164.758202 311.164213 
L 165.510562 308.763802 
L 168.52 310.034135 
L 171.529438 311.068829 
L 175.291236 312.096623 
L 179.053034 312.89191 
L 183.567191 313.612534 
L 188.833708 314.215755 
L 194.852584 314.685765 
L 203.128539 315.085238 
L 213.661573 315.355207 
L 230.213483 315.529045 
L 255.793708 315.597651 
L 256.546067 309.612167 
L 259.555506 310.725134 
L 263.317303 311.830678 
L 264.822022 312.199376 
L 265.574382 311.60847 
L 267.079101 311.998832 
L 267.831461 310.867679 
L 271.593258 311.940977 
L 274.602697 312.621964 
L 275.355056 311.746038 
L 279.116854 312.620634 
L 279.869213 312.770212 
L 280.621573 312.78899 
L 281.373933 310.451449 
L 282.878652 310.954621 
L 284.383371 310.153862 
L 285.88809 310.583644 
L 286.640449 309.873826 
L 287.392809 310.069722 
L 288.145169 307.787604 
L 288.897528 302.782602 
L 290.402247 303.187807 
L 292.659326 304.959833 
L 294.916404 306.479126 
L 297.173483 307.781729 
L 300.182921 309.23423 
L 300.935281 305.247759 
L 303.19236 306.725986 
L 303.944719 307.170297 
L 304.697079 306.202118 
L 306.201798 307.119599 
L 306.954157 306.460611 
L 309.211236 307.765855 
L 312.220674 309.221301 
L 315.230112 310.406771 
L 315.982472 305.57047 
L 317.487191 306.45576 
L 318.239551 306.913582 
L 318.99191 304.65238 
L 319.74427 303.30032 
L 320.496629 303.713741 
L 322.753708 305.410758 
L 325.010787 306.865738 
L 328.020225 308.48815 
L 331.029663 309.809614 
L 334.039101 310.885955 
L 334.791461 309.306237 
L 335.54382 306.460384 
L 337.800899 307.76566 
L 340.810337 309.221142 
L 343.819775 310.406641 
L 346.829213 311.372237 
L 349.838652 312.158722 
L 350.591011 311.694546 
L 354.352809 312.580791 
L 358.866966 313.383833 
L 361.876404 313.797179 
L 362.628764 311.265247 
L 366.390562 312.248608 
L 370.15236 313.009513 
L 374.666517 313.698983 
L 379.933034 314.276125 
L 382.190112 314.466681 
L 382.942472 310.790823 
L 386.70427 311.881508 
L 387.456629 312.068042 
L 388.208989 310.725401 
L 391.970787 311.830885 
L 392.723146 311.241644 
L 396.484944 312.230344 
L 400.246742 312.995382 
L 401.751461 313.25052 
L 401.751461 313.25052 
" clip-path="url(#p5e64a61435)" style="fill: none; stroke: #000000; stroke-width: 5; stroke-linecap: square"/>
   </g>
   <g id="line2d_10">
    <path d="M 102.31236 311.263379 
L 104.569438 311.883628 
L 105.321798 311.028323 
L 109.083596 312.065281 
L 112.845393 312.867659 
L 115.102472 313.259097 
L 115.854831 312.895328 
L 116.607191 312.345576 
L 117.359551 309.60456 
L 118.11191 305.031756 
L 118.86427 301.192511 
L 119.616629 301.913495 
L 120.368989 291.919274 
L 121.121348 284.06101 
L 123.378427 288.560998 
L 125.635506 292.419175 
L 127.892584 295.727079 
L 130.149663 298.56319 
L 132.406742 300.994804 
L 133.159101 301.725673 
L 133.911461 299.321241 
L 134.66382 300.135789 
L 135.41618 298.576087 
L 136.168539 299.427892 
L 136.920899 298.871883 
L 139.177978 301.259469 
L 141.435056 303.306525 
L 142.187416 297.437927 
L 142.939775 293.802082 
L 143.692135 294.892587 
L 144.444494 294.554763 
L 145.196854 295.607635 
L 145.949213 291.908825 
L 148.206292 295.278956 
L 148.958652 296.295618 
L 149.711011 293.272297 
L 151.21573 295.450437 
L 151.96809 295.927953 
L 154.225169 298.735417 
L 156.482247 301.142467 
L 157.234607 301.865953 
L 157.986966 297.365877 
L 160.244045 299.968258 
L 162.501124 302.199474 
L 164.758202 304.112463 
L 165.510562 299.74721 
L 167.76764 302.009953 
L 168.52 302.690065 
L 169.27236 302.837556 
L 171.529438 304.659538 
L 172.281798 305.20717 
L 173.034157 302.939093 
L 175.291236 304.746594 
L 176.043596 303.53698 
L 177.548315 247.727541 
L 178.300674 233.599416 
L 179.805393 214.194637 
L 181.310112 203.573326 
L 182.062472 204.390843 
L 182.814831 202.219941 
L 183.567191 203.163438 
L 184.319551 204.830688 
L 185.07191 207.014268 
L 185.82427 205.583346 
L 186.576629 202.762623 
L 187.328989 197.989677 
L 188.833708 182.097843 
L 189.586067 186.343834 
L 191.843146 204.780734 
L 192.595506 206.220714 
L 193.347865 203.128454 
L 194.852584 206.096199 
L 195.604944 206.380431 
L 196.357303 203.943541 
L 197.109663 208.055734 
L 197.862022 202.576658 
L 198.614382 192.628899 
L 199.366742 184.964909 
L 200.119101 186.137703 
L 202.37618 204.604005 
L 203.128539 210.154416 
L 203.880899 207.086118 
L 204.633258 206.791574 
L 205.385618 209.683102 
L 206.137978 213.818678 
L 206.890337 207.125349 
L 207.642697 205.439661 
L 208.395056 208.194487 
L 209.147416 205.508125 
L 209.899775 200.705312 
L 210.652135 200.850943 
L 211.404494 198.905984 
L 213.661573 214.973132 
L 214.413933 206.407218 
L 215.166292 203.731152 
L 215.918652 204.336883 
L 216.671011 208.85668 
L 218.17573 196.180391 
L 218.92809 198.600259 
L 219.680449 194.766844 
L 220.432809 195.983447 
L 221.937528 203.240356 
L 222.689888 203.236124 
L 223.442247 199.353109 
L 224.194607 201.894347 
L 224.946966 207.580237 
L 225.699326 202.399325 
L 226.451685 202.289949 
L 227.204045 199.717967 
L 227.956404 196.411547 
L 228.708764 199.171972 
L 229.461124 204.672999 
L 230.213483 208.239888 
L 230.965843 204.53382 
L 231.718202 205.210725 
L 232.470562 210.730802 
L 233.222921 213.797546 
L 233.975281 218.888283 
L 234.72764 212.394047 
L 235.48 215.602336 
L 236.23236 216.40477 
L 236.984719 212.138283 
L 237.737079 203.2062 
L 238.489438 202.324451 
L 239.241798 207.266267 
L 240.746517 212.017364 
L 241.498876 212.800492 
L 242.251236 209.371545 
L 243.003596 212.654298 
L 243.755955 209.649123 
L 244.508315 212.211421 
L 245.260674 216.137415 
L 246.013034 216.485734 
L 246.765393 214.149686 
L 247.517753 208.949863 
L 248.270112 206.780345 
L 249.022472 206.678956 
L 249.774831 204.073454 
L 250.527191 207.240196 
L 252.03191 217.077083 
L 254.288989 231.130655 
L 256.546067 243.179832 
L 258.803146 253.510504 
L 261.060225 262.367757 
L 263.317303 269.961743 
L 265.574382 276.472639 
L 267.831461 282.054916 
L 270.088539 286.841022 
L 272.345618 290.944511 
L 274.602697 294.462738 
L 275.355056 295.520212 
L 276.107416 294.401098 
L 278.364494 297.426331 
L 280.621573 300.020089 
L 282.878652 302.243912 
L 285.13573 304.150563 
L 287.392809 305.785276 
L 288.145169 306.276622 
L 288.897528 300.72165 
L 289.649888 298.886503 
L 291.906966 301.272004 
L 294.164045 303.317274 
L 296.421124 305.070835 
L 298.678202 306.574296 
L 300.935281 307.863325 
L 301.68764 308.250768 
L 302.44 307.085631 
L 303.944719 307.91697 
L 304.697079 306.635061 
L 305.449438 306.583639 
L 306.954157 307.463923 
L 307.706517 307.46982 
L 308.458876 307.876938 
L 309.211236 304.995489 
L 309.963596 297.899429 
L 312.220674 300.42571 
L 314.477753 302.591681 
L 316.734831 304.448731 
L 318.99191 306.04092 
L 319.74427 306.519483 
L 320.496629 303.261748 
L 322.753708 305.023229 
L 324.258427 306.055652 
L 325.010787 305.783337 
L 327.267865 307.185177 
L 328.772584 308.00681 
L 329.524944 303.642315 
L 330.277303 297.327374 
L 331.029663 298.241616 
L 331.782022 296.949043 
L 332.534382 293.758259 
L 334.791461 296.875175 
L 337.048539 299.547544 
L 339.305618 301.838764 
L 341.562697 303.803198 
L 343.819775 305.487455 
L 346.076854 306.931494 
L 347.581573 307.777862 
L 348.333933 305.881142 
L 350.591011 307.269033 
L 353.600449 308.816636 
L 355.105169 309.479202 
L 355.857528 309.581702 
L 358.866966 310.700319 
L 362.628764 311.811478 
L 366.390562 312.671271 
L 367.142921 310.04948 
L 370.15236 311.081328 
L 373.161798 311.921774 
L 373.914157 311.694506 
L 377.675955 312.58076 
L 378.428315 312.732331 
L 379.180674 305.019545 
L 380.685393 306.052328 
L 381.437753 305.87655 
L 383.694831 307.265095 
L 386.70427 308.813429 
L 389.713708 310.074556 
L 391.218427 310.614476 
L 391.970787 302.21321 
L 392.723146 301.371707 
L 394.227865 302.760155 
L 394.980225 303.022615 
L 397.237303 304.818202 
L 399.494382 306.357694 
L 401.751461 307.677617 
L 401.751461 307.677617 
" clip-path="url(#p5e64a61435)" style="fill: none; stroke: #ff0000; stroke-width: 5; stroke-linecap: square"/>
   </g>
   <g id="patch_3">
    <path d="M 101.56 336.640156 
L 101.56 31.720156 
" style="fill: none; stroke: #000000; stroke-width: 5; stroke-linejoin: miter; stroke-linecap: square"/>
   </g>
   <g id="patch_4">
    <path d="M 101.56 336.640156 
L 402.50382 336.640156 
" style="fill: none; stroke: #000000; stroke-width: 5; stroke-linejoin: miter; stroke-linecap: square"/>
   </g>
   <g id="text_11">
    <!-- A -->
    <g transform="translate(65.446742 16.444681) scale(0.12 -0.12)">
     <defs>
      <path id="DejaVuSans-Bold-41" d="M 3419 850 
L 1538 850 
L 1241 0 
L 31 0 
L 1759 4666 
L 3194 4666 
L 4922 0 
L 3713 0 
L 3419 850 
z
M 1838 1716 
L 3116 1716 
L 2478 3572 
L 1838 1716 
z
" transform="scale(0.015625)"/>
     </defs>
     <use xlink:href="#DejaVuSans-Bold-41"/>
    </g>
   </g>
   <g id="patch_5">
    <path d="M 176.795955 330.541756 
L 252.03191 330.541756 
L 252.03191 319.869556 
L 176.795955 319.869556 
z
" style="fill: #8c5a2b; stroke: #8c5a2b; stroke-linejoin: miter"/>
   </g>
   <g id="text_12">
    <!-- Familiar | Naive -->
    <g transform="translate(178.439566 21.720156) scale(0.19 -0.19)">
     <defs>
      <path id="DejaVuSans-46" d="M 628 4666 
L 3309 4666 
L 3309 4134 
L 1259 4134 
L 1259 2759 
L 3109 2759 
L 3109 2228 
L 1259 2228 
L 1259 0 
L 628 0 
L 628 4666 
z
" transform="scale(0.015625)"/>
      <path id="DejaVuSans-7c" d="M 1344 4891 
L 1344 -1509 
L 813 -1509 
L 813 4891 
L 1344 4891 
z
" transform="scale(0.015625)"/>
     </defs>
     <use xlink:href="#DejaVuSans-46"/>
     <use xlink:href="#DejaVuSans-61" transform="translate(48.394531 0)"/>
     <use xlink:href="#DejaVuSans-6d" transform="translate(109.673828 0)"/>
     <use xlink:href="#DejaVuSans-69" transform="translate(207.085938 0)"/>
     <use xlink:href="#DejaVuSans-6c" transform="translate(234.869141 0)"/>
     <use xlink:href="#DejaVuSans-69" transform="translate(262.652344 0)"/>
     <use xlink:href="#DejaVuSans-61" transform="translate(290.435547 0)"/>
     <use xlink:href="#DejaVuSans-72" transform="translate(351.714844 0)"/>
     <use xlink:href="#DejaVuSans-20" transform="translate(392.828125 0)"/>
     <use xlink:href="#DejaVuSans-7c" transform="translate(424.615234 0)"/>
     <use xlink:href="#DejaVuSans-20" transform="translate(458.306641 0)"/>
     <use xlink:href="#DejaVuSans-4e" transform="translate(490.09375 0)"/>
     <use xlink:href="#DejaVuSans-61" transform="translate(564.898438 0)"/>
     <use xlink:href="#DejaVuSans-69" transform="translate(626.177734 0)"/>
     <use xlink:href="#DejaVuSans-76" transform="translate(653.960938 0)"/>
     <use xlink:href="#DejaVuSans-65" transform="translate(713.140625 0)"/>
    </g>
   </g>
   <g id="legend_1">
    <g id="line2d_11">
     <path d="M 110.56 46.867813 
L 125.56 46.867813 
L 140.56 46.867813 
" style="fill: none; stroke: #000000; stroke-width: 5; stroke-linecap: square"/>
    </g>
    <g id="text_13">
     <!-- Nonoccluded (NO) -->
     <g transform="translate(152.56 52.117813) scale(0.15 -0.15)">
      <defs>
       <path id="DejaVuSans-6f" d="M 1959 3097 
Q 1497 3097 1228 2736 
Q 959 2375 959 1747 
Q 959 1119 1226 758 
Q 1494 397 1959 397 
Q 2419 397 2687 759 
Q 2956 1122 2956 1747 
Q 2956 2369 2687 2733 
Q 2419 3097 1959 3097 
z
M 1959 3584 
Q 2709 3584 3137 3096 
Q 3566 2609 3566 1747 
Q 3566 888 3137 398 
Q 2709 -91 1959 -91 
Q 1206 -91 779 398 
Q 353 888 353 1747 
Q 353 2609 779 3096 
Q 1206 3584 1959 3584 
z
" transform="scale(0.015625)"/>
       <path id="DejaVuSans-6e" d="M 3513 2113 
L 3513 0 
L 2938 0 
L 2938 2094 
Q 2938 2591 2744 2837 
Q 2550 3084 2163 3084 
Q 1697 3084 1428 2787 
Q 1159 2491 1159 1978 
L 1159 0 
L 581 0 
L 581 3500 
L 1159 3500 
L 1159 2956 
Q 1366 3272 1645 3428 
Q 1925 3584 2291 3584 
Q 2894 3584 3203 3211 
Q 3513 2838 3513 2113 
z
" transform="scale(0.015625)"/>
       <path id="DejaVuSans-64" d="M 2906 2969 
L 2906 4863 
L 3481 4863 
L 3481 0 
L 2906 0 
L 2906 525 
Q 2725 213 2448 61 
Q 2172 -91 1784 -91 
Q 1150 -91 751 415 
Q 353 922 353 1747 
Q 353 2572 751 3078 
Q 1150 3584 1784 3584 
Q 2172 3584 2448 3432 
Q 2725 3281 2906 2969 
z
M 947 1747 
Q 947 1113 1208 752 
Q 1469 391 1925 391 
Q 2381 391 2643 752 
Q 2906 1113 2906 1747 
Q 2906 2381 2643 2742 
Q 2381 3103 1925 3103 
Q 1469 3103 1208 2742 
Q 947 2381 947 1747 
z
" transform="scale(0.015625)"/>
       <path id="DejaVuSans-4f" d="M 2522 4238 
Q 1834 4238 1429 3725 
Q 1025 3213 1025 2328 
Q 1025 1447 1429 934 
Q 1834 422 2522 422 
Q 3209 422 3611 934 
Q 4013 1447 4013 2328 
Q 4013 3213 3611 3725 
Q 3209 4238 2522 4238 
z
M 2522 4750 
Q 3503 4750 4090 4092 
Q 4678 3434 4678 2328 
Q 4678 1225 4090 567 
Q 3503 -91 2522 -91 
Q 1538 -91 948 565 
Q 359 1222 359 2328 
Q 359 3434 948 4092 
Q 1538 4750 2522 4750 
z
" transform="scale(0.015625)"/>
      </defs>
      <use xlink:href="#DejaVuSans-4e"/>
      <use xlink:href="#DejaVuSans-6f" transform="translate(74.804688 0)"/>
      <use xlink:href="#DejaVuSans-6e" transform="translate(135.986328 0)"/>
      <use xlink:href="#DejaVuSans-6f" transform="translate(199.365234 0)"/>
      <use xlink:href="#DejaVuSans-63" transform="translate(260.546875 0)"/>
      <use xlink:href="#DejaVuSans-63" transform="translate(315.527344 0)"/>
      <use xlink:href="#DejaVuSans-6c" transform="translate(370.507812 0)"/>
      <use xlink:href="#DejaVuSans-75" transform="translate(398.291016 0)"/>
      <use xlink:href="#DejaVuSans-64" transform="translate(461.669922 0)"/>
      <use xlink:href="#DejaVuSans-65" transform="translate(525.146484 0)"/>
      <use xlink:href="#DejaVuSans-64" transform="translate(586.669922 0)"/>
      <use xlink:href="#DejaVuSans-20" transform="translate(650.146484 0)"/>
      <use xlink:href="#DejaVuSans-28" transform="translate(681.933594 0)"/>
      <use xlink:href="#DejaVuSans-4e" transform="translate(720.947266 0)"/>
      <use xlink:href="#DejaVuSans-4f" transform="translate(795.751953 0)"/>
      <use xlink:href="#DejaVuSans-29" transform="translate(874.462891 0)"/>
     </g>
    </g>
    <g id="line2d_12">
     <path d="M 110.56 68.885 
L 125.56 68.885 
L 140.56 68.885 
" style="fill: none; stroke: #ff0000; stroke-width: 5; stroke-linecap: square"/>
    </g>
    <g id="text_14">
     <!-- Occluded (O) -->
     <g transform="translate(152.56 74.135) scale(0.15 -0.15)">
      <use xlink:href="#DejaVuSans-4f"/>
      <use xlink:href="#DejaVuSans-63" transform="translate(78.710938 0)"/>
      <use xlink:href="#DejaVuSans-63" transform="translate(133.691406 0)"/>
      <use xlink:href="#DejaVuSans-6c" transform="translate(188.671875 0)"/>
      <use xlink:href="#DejaVuSans-75" transform="translate(216.455078 0)"/>
      <use xlink:href="#DejaVuSans-64" transform="translate(279.833984 0)"/>
      <use xlink:href="#DejaVuSans-65" transform="translate(343.310547 0)"/>
      <use xlink:href="#DejaVuSans-64" transform="translate(404.833984 0)"/>
      <use xlink:href="#DejaVuSans-20" transform="translate(468.310547 0)"/>
      <use xlink:href="#DejaVuSans-28" transform="translate(500.097656 0)"/>
      <use xlink:href="#DejaVuSans-4f" transform="translate(539.111328 0)"/>
      <use xlink:href="#DejaVuSans-29" transform="translate(617.822266 0)"/>
     </g>
    </g>
    <g id="line2d_13">
     <path d="M 110.56 90.902188 
L 125.56 90.902188 
L 140.56 90.902188 
" style="fill: none; stroke: #0000ff; stroke-width: 5; stroke-linecap: square"/>
    </g>
    <g id="text_15">
     <!-- No feedback -->
     <g transform="translate(152.56 96.152188) scale(0.15 -0.15)">
      <defs>
       <path id="DejaVuSans-66" d="M 2375 4863 
L 2375 4384 
L 1825 4384 
Q 1516 4384 1395 4259 
Q 1275 4134 1275 3809 
L 1275 3500 
L 2222 3500 
L 2222 3053 
L 1275 3053 
L 1275 0 
L 697 0 
L 697 3053 
L 147 3053 
L 147 3500 
L 697 3500 
L 697 3744 
Q 697 4328 969 4595 
Q 1241 4863 1831 4863 
L 2375 4863 
z
" transform="scale(0.015625)"/>
       <path id="DejaVuSans-62" d="M 3116 1747 
Q 3116 2381 2855 2742 
Q 2594 3103 2138 3103 
Q 1681 3103 1420 2742 
Q 1159 2381 1159 1747 
Q 1159 1113 1420 752 
Q 1681 391 2138 391 
Q 2594 391 2855 752 
Q 3116 1113 3116 1747 
z
M 1159 2969 
Q 1341 3281 1617 3432 
Q 1894 3584 2278 3584 
Q 2916 3584 3314 3078 
Q 3713 2572 3713 1747 
Q 3713 922 3314 415 
Q 2916 -91 2278 -91 
Q 1894 -91 1617 61 
Q 1341 213 1159 525 
L 1159 0 
L 581 0 
L 581 4863 
L 1159 4863 
L 1159 2969 
z
" transform="scale(0.015625)"/>
       <path id="DejaVuSans-6b" d="M 581 4863 
L 1159 4863 
L 1159 1991 
L 2875 3500 
L 3609 3500 
L 1753 1863 
L 3688 0 
L 2938 0 
L 1159 1709 
L 1159 0 
L 581 0 
L 581 4863 
z
" transform="scale(0.015625)"/>
      </defs>
      <use xlink:href="#DejaVuSans-4e"/>
      <use xlink:href="#DejaVuSans-6f" transform="translate(74.804688 0)"/>
      <use xlink:href="#DejaVuSans-20" transform="translate(135.986328 0)"/>
      <use xlink:href="#DejaVuSans-66" transform="translate(167.773438 0)"/>
      <use xlink:href="#DejaVuSans-65" transform="translate(202.978516 0)"/>
      <use xlink:href="#DejaVuSans-65" transform="translate(264.501953 0)"/>
      <use xlink:href="#DejaVuSans-64" transform="translate(326.025391 0)"/>
      <use xlink:href="#DejaVuSans-62" transform="translate(389.501953 0)"/>
      <use xlink:href="#DejaVuSans-61" transform="translate(452.978516 0)"/>
      <use xlink:href="#DejaVuSans-63" transform="translate(514.257812 0)"/>
      <use xlink:href="#DejaVuSans-6b" transform="translate(569.238281 0)"/>
     </g>
    </g>
   </g>
  </g>
  <g id="axes_2">
   <g id="patch_6">
    <path d="M 447.645393 336.640156 
L 748.589213 336.640156 
L 748.589213 31.720156 
L 447.645393 31.720156 
z
" style="fill: #ffffff"/>
   </g>
   <g id="matplotlib.axis_3">
    <g id="xtick_6">
     <g id="line2d_14">
      <g>
       <use xlink:href="#md26f8569bb" x="447.645393" y="336.640156" style="stroke: #000000; stroke-width: 1.6"/>
      </g>
     </g>
     <g id="text_16">
      <!-- -1 -->
      <g transform="translate(431.692893 369.455156) scale(0.32 -0.32)">
       <use xlink:href="#DejaVuSans-2d"/>
       <use xlink:href="#DejaVuSans-31" transform="translate(36.083984 0)"/>
      </g>
     </g>
    </g>
    <g id="xtick_7">
     <g id="line2d_15">
      <g>
       <use xlink:href="#md26f8569bb" x="522.881348" y="336.640156" style="stroke: #000000; stroke-width: 1.6"/>
      </g>
     </g>
     <g id="text_17">
      <!-- 0 -->
      <g transform="translate(512.701348 369.455156) scale(0.32 -0.32)">
       <use xlink:href="#DejaVuSans-30"/>
      </g>
     </g>
    </g>
    <g id="xtick_8">
     <g id="line2d_16">
      <g>
       <use xlink:href="#md26f8569bb" x="598.117303" y="336.640156" style="stroke: #000000; stroke-width: 1.6"/>
      </g>
     </g>
     <g id="text_18">
      <!-- 1 -->
      <g transform="translate(587.937303 369.455156) scale(0.32 -0.32)">
       <use xlink:href="#DejaVuSans-31"/>
      </g>
     </g>
    </g>
    <g id="xtick_9">
     <g id="line2d_17">
      <g>
       <use xlink:href="#md26f8569bb" x="673.353258" y="336.640156" style="stroke: #000000; stroke-width: 1.6"/>
      </g>
     </g>
     <g id="text_19">
      <!-- 2 -->
      <g transform="translate(663.173258 369.455156) scale(0.32 -0.32)">
       <use xlink:href="#DejaVuSans-32"/>
      </g>
     </g>
    </g>
    <g id="xtick_10">
     <g id="line2d_18">
      <g>
       <use xlink:href="#md26f8569bb" x="748.589213" y="336.640156" style="stroke: #000000; stroke-width: 1.6"/>
      </g>
     </g>
     <g id="text_20">
      <!-- 3 -->
      <g transform="translate(738.409213 369.455156) scale(0.32 -0.32)">
       <use xlink:href="#DejaVuSans-33"/>
      </g>
     </g>
    </g>
    <g id="text_21">
     <!-- Time (s) -->
     <g transform="translate(533.064803 404.425156) scale(0.32 -0.32)">
      <use xlink:href="#DejaVuSans-54"/>
      <use xlink:href="#DejaVuSans-69" transform="translate(57.958984 0)"/>
      <use xlink:href="#DejaVuSans-6d" transform="translate(85.742188 0)"/>
      <use xlink:href="#DejaVuSans-65" transform="translate(183.154297 0)"/>
      <use xlink:href="#DejaVuSans-20" transform="translate(244.677734 0)"/>
      <use xlink:href="#DejaVuSans-28" transform="translate(276.464844 0)"/>
      <use xlink:href="#DejaVuSans-73" transform="translate(315.478516 0)"/>
      <use xlink:href="#DejaVuSans-29" transform="translate(367.578125 0)"/>
     </g>
    </g>
   </g>
   <g id="matplotlib.axis_4">
    <g id="ytick_4">
     <g id="line2d_19">
      <g>
       <use xlink:href="#m31ab51ed2c" x="447.645393" y="315.612186" style="stroke: #000000; stroke-width: 1.6"/>
      </g>
     </g>
    </g>
    <g id="ytick_5">
     <g id="line2d_20">
      <g>
       <use xlink:href="#m31ab51ed2c" x="447.645393" y="207.645678" style="stroke: #000000; stroke-width: 1.6"/>
      </g>
     </g>
    </g>
    <g id="ytick_6">
     <g id="line2d_21">
      <g>
       <use xlink:href="#m31ab51ed2c" x="447.645393" y="99.679169" style="stroke: #000000; stroke-width: 1.6"/>
      </g>
     </g>
    </g>
   </g>
   <g id="line2d_22">
    <path d="M 448.397753 313.201115 
L 452.91191 313.839828 
L 458.178427 314.374482 
L 464.949663 314.832124 
L 473.977978 315.190672 
L 474.730337 313.248408 
L 479.244494 313.874592 
L 485.263371 314.459431 
L 492.034607 314.885663 
L 501.062921 315.219602 
L 501.815281 315.239232 
L 502.56764 314.267283 
L 503.32 314.334528 
L 504.07236 314.16208 
L 510.091236 314.650156 
L 517.614831 315.036183 
L 528.147865 315.331284 
L 543.947416 315.516522 
L 574.041798 315.599892 
L 610.907416 315.611191 
L 611.659775 314.958265 
L 621.440449 315.276501 
L 624.449888 315.338769 
L 625.202247 308.65457 
L 626.706966 309.332938 
L 627.459326 302.088814 
L 629.716404 304.017585 
L 631.973483 305.671266 
L 634.230562 307.089089 
L 634.982921 304.863865 
L 637.24 306.396844 
L 639.497079 307.711182 
L 641.754157 308.838064 
L 642.506517 304.834214 
L 643.258876 305.373113 
L 644.011236 300.858402 
L 646.268315 302.962031 
L 647.020674 300.370596 
L 649.277753 302.544429 
L 651.534831 304.408218 
L 653.79191 306.006184 
L 656.048989 307.37624 
L 659.058427 308.903957 
L 662.067865 310.148292 
L 665.077303 311.161811 
L 668.839101 312.168571 
L 672.600899 312.947583 
L 675.610337 313.403301 
L 680.876854 314.069639 
L 686.89573 314.588829 
L 688.400449 314.688607 
L 689.152809 309.345537 
L 692.162247 310.507962 
L 695.171685 311.454763 
L 698.933483 312.395252 
L 703.44764 313.247444 
L 704.2 313.365681 
L 704.95236 313.129581 
L 709.466517 313.787244 
L 714.733034 314.337761 
L 719.247191 314.675367 
L 719.999551 310.482746 
L 723.008989 311.434226 
L 726.770787 312.37936 
L 731.284944 313.235762 
L 735.799101 313.865296 
L 739.560899 314.260476 
L 740.313258 313.756238 
L 741.065618 312.995147 
L 745.579775 313.688422 
L 746.332135 313.78461 
L 747.084494 311.276173 
L 747.836854 309.685345 
L 747.836854 309.685345 
" clip-path="url(#p628260365c)" style="fill: none; stroke: #000000; stroke-width: 5; stroke-linecap: square"/>
   </g>
   <g id="line2d_23">
    <path d="M 448.397753 301.792049 
L 449.902472 303.139513 
L 450.654831 301.87757 
L 451.407191 302.5643 
L 452.159551 296.783939 
L 454.416629 299.469319 
L 456.673708 301.771697 
L 457.426067 301.843179 
L 459.683146 303.806985 
L 460.435506 301.893973 
L 462.692584 303.850533 
L 464.949663 305.528039 
L 465.702022 306.032246 
L 466.454382 305.107183 
L 468.711461 306.60546 
L 470.21618 307.483616 
L 471.720899 308.179791 
L 474.730337 309.558454 
L 475.482697 309.861141 
L 476.235056 301.758632 
L 476.987416 302.090771 
L 479.244494 304.019264 
L 479.996854 304.59891 
L 480.749213 302.29092 
L 481.501573 299.579831 
L 482.253933 300.381449 
L 483.006292 297.098452 
L 483.758652 298.024139 
L 484.511011 296.35653 
L 486.01573 290.874661 
L 488.272809 294.40285 
L 489.025169 293.026581 
L 491.282247 296.247854 
L 492.034607 297.216072 
L 492.786966 296.584591 
L 495.044045 299.298402 
L 496.548764 300.888996 
L 497.301124 300.128832 
L 499.558202 302.337146 
L 501.815281 304.230499 
L 504.07236 305.853812 
L 504.824719 304.872268 
L 505.577079 305.409264 
L 506.329438 300.699072 
L 507.081798 301.444728 
L 507.834157 301.378492 
L 508.586517 298.53949 
L 509.338876 299.393125 
L 510.091236 299.718296 
L 510.843596 292.413771 
L 511.595955 291.925949 
L 513.853034 295.304199 
L 514.605393 296.319597 
L 515.357753 291.204308 
L 516.110112 292.424701 
L 516.862472 286.466513 
L 517.614831 278.999015 
L 519.87191 284.22097 
L 522.128989 288.698143 
L 522.881348 236.092582 
L 523.633708 193.709998 
L 525.890787 104.834199 
L 527.395506 66.824068 
L 528.900225 54.703234 
L 529.652584 52.749122 
L 530.404944 57.035823 
L 531.157303 69.699797 
L 531.909663 71.292149 
L 532.662022 70.166935 
L 533.414382 81.333381 
L 534.166742 87.519383 
L 534.919101 95.3122 
L 535.671461 100.154107 
L 536.42382 98.906559 
L 537.17618 103.58279 
L 537.928539 92.71631 
L 538.680899 95.958626 
L 539.433258 91.888633 
L 540.185618 85.970067 
L 540.937978 83.077928 
L 542.442697 89.392684 
L 543.195056 97.205595 
L 543.947416 97.568208 
L 544.699775 92.55961 
L 545.452135 80.496051 
L 546.204494 76.954236 
L 546.956854 88.887142 
L 547.709213 95.191007 
L 548.461573 97.638836 
L 549.213933 98.497627 
L 549.966292 93.006864 
L 550.718652 99.536591 
L 551.471011 107.64646 
L 552.223371 105.40419 
L 552.97573 101.110265 
L 553.72809 93.610624 
L 555.232809 103.496508 
L 555.985169 97.851812 
L 556.737528 100.327523 
L 557.489888 99.839228 
L 558.994607 120.205489 
L 559.746966 114.937934 
L 560.499326 107.743263 
L 561.251685 109.549782 
L 562.004045 113.953477 
L 562.756404 109.864951 
L 563.508764 104.223344 
L 564.261124 108.453367 
L 565.013483 113.446472 
L 565.765843 108.751595 
L 566.518202 107.616825 
L 567.270562 109.667097 
L 568.022921 107.748411 
L 568.775281 98.6041 
L 569.52764 85.531629 
L 570.28 86.805048 
L 571.03236 93.38526 
L 571.784719 101.385487 
L 572.537079 103.446651 
L 573.289438 92.089688 
L 574.041798 89.648841 
L 574.794157 83.225055 
L 575.546517 89.425279 
L 576.298876 93.47611 
L 577.051236 92.97332 
L 577.803596 95.832317 
L 578.555955 90.576877 
L 579.308315 88.762748 
L 580.060674 93.313297 
L 580.813034 87.234363 
L 581.565393 97.745389 
L 582.317753 99.3041 
L 583.070112 96.750973 
L 583.822472 87.491292 
L 584.574831 90.13741 
L 585.327191 97.117544 
L 586.079551 101.269619 
L 586.83191 95.1963 
L 587.58427 94.899149 
L 588.336629 87.75913 
L 589.088989 99.151792 
L 589.841348 100.502257 
L 591.346067 109.142137 
L 592.098427 106.63742 
L 592.850787 102.089155 
L 593.603146 95.190524 
L 594.355506 96.021869 
L 595.107865 94.037237 
L 595.860225 90.306771 
L 596.612584 90.192287 
L 597.364944 94.035306 
L 599.622022 125.637724 
L 601.879101 152.732837 
L 604.13618 175.963517 
L 606.393258 195.880908 
L 608.650337 212.957578 
L 610.907416 227.598702 
L 613.164494 240.151634 
L 615.421573 250.914196 
L 617.678652 260.141748 
L 619.93573 268.053224 
L 622.192809 274.836322 
L 624.449888 280.65198 
L 626.706966 285.638179 
L 628.964045 289.913221 
L 631.221124 293.578537 
L 633.478202 296.721086 
L 634.230562 297.665642 
L 634.982921 296.211575 
L 637.24 298.978589 
L 639.497079 301.350955 
L 641.754157 303.384964 
L 644.011236 305.128872 
L 646.268315 306.624055 
L 648.525393 307.905987 
L 651.534831 309.335439 
L 654.54427 310.499737 
L 657.553708 311.448064 
L 661.315506 312.390069 
L 662.067865 312.551174 
L 662.820225 310.753502 
L 663.572584 310.996437 
L 664.324944 310.475263 
L 667.334382 311.428131 
L 671.09618 312.374644 
L 675.610337 313.232295 
L 677.867416 313.571727 
L 678.619775 312.580228 
L 683.133933 313.383419 
L 683.886292 305.963489 
L 684.638652 303.906992 
L 685.391011 302.822695 
L 687.64809 304.646796 
L 689.905169 306.210736 
L 691.409888 307.127378 
L 692.162247 299.584566 
L 693.666966 301.147259 
L 694.419326 300.359211 
L 696.676404 302.534668 
L 698.933483 304.399849 
L 701.190562 305.999009 
L 703.44764 307.370089 
L 705.704719 308.545618 
L 706.457079 307.071212 
L 707.961798 307.903957 
L 708.714157 304.750386 
L 710.971236 306.299551 
L 711.723596 306.765183 
L 712.475955 306.639247 
L 714.733034 307.919013 
L 717.742472 309.346049 
L 719.247191 309.956997 
L 719.999551 307.610864 
L 720.75191 308.01093 
L 721.50427 304.199818 
L 723.761348 305.827508 
L 724.513708 306.316742 
L 725.266067 304.544354 
L 727.523146 306.122904 
L 729.780225 307.476313 
L 732.037303 308.636692 
L 732.789663 308.053017 
L 735.799101 309.455196 
L 737.30382 310.055502 
L 738.05618 304.995702 
L 738.808539 301.133684 
L 739.560899 296.540473 
L 741.817978 299.260576 
L 744.075056 301.592725 
L 746.332135 303.592252 
L 747.836854 304.764196 
L 747.836854 304.764196 
" clip-path="url(#p628260365c)" style="fill: none; stroke: #ff0000; stroke-width: 5; stroke-linecap: square"/>
   </g>
   <g id="patch_7">
    <path d="M 447.645393 336.640156 
L 447.645393 31.720156 
" style="fill: none; stroke: #000000; stroke-width: 5; stroke-linejoin: miter; stroke-linecap: square"/>
   </g>
   <g id="patch_8">
    <path d="M 447.645393 336.640156 
L 748.589213 336.640156 
" style="fill: none; stroke: #000000; stroke-width: 5; stroke-linejoin: miter; stroke-linecap: square"/>
   </g>
   <g id="patch_9">
    <path d="M 522.881348 330.541756 
L 598.117303 330.541756 
L 598.117303 319.869556 
L 522.881348 319.869556 
z
" style="fill: #8c5a2b; stroke: #8c5a2b; stroke-linejoin: miter"/>
   </g>
   <g id="text_22">
    <!-- Familiar | Expert -->
    <g transform="translate(520.429569 21.720156) scale(0.19 -0.19)">
     <defs>
      <path id="DejaVuSans-45" d="M 628 4666 
L 3578 4666 
L 3578 4134 
L 1259 4134 
L 1259 2753 
L 3481 2753 
L 3481 2222 
L 1259 2222 
L 1259 531 
L 3634 531 
L 3634 0 
L 628 0 
L 628 4666 
z
" transform="scale(0.015625)"/>
      <path id="DejaVuSans-78" d="M 3513 3500 
L 2247 1797 
L 3578 0 
L 2900 0 
L 1881 1375 
L 863 0 
L 184 0 
L 1544 1831 
L 300 3500 
L 978 3500 
L 1906 2253 
L 2834 3500 
L 3513 3500 
z
" transform="scale(0.015625)"/>
      <path id="DejaVuSans-70" d="M 1159 525 
L 1159 -1331 
L 581 -1331 
L 581 3500 
L 1159 3500 
L 1159 2969 
Q 1341 3281 1617 3432 
Q 1894 3584 2278 3584 
Q 2916 3584 3314 3078 
Q 3713 2572 3713 1747 
Q 3713 922 3314 415 
Q 2916 -91 2278 -91 
Q 1894 -91 1617 61 
Q 1341 213 1159 525 
z
M 3116 1747 
Q 3116 2381 2855 2742 
Q 2594 3103 2138 3103 
Q 1681 3103 1420 2742 
Q 1159 2381 1159 1747 
Q 1159 1113 1420 752 
Q 1681 391 2138 391 
Q 2594 391 2855 752 
Q 3116 1113 3116 1747 
z
" transform="scale(0.015625)"/>
     </defs>
     <use xlink:href="#DejaVuSans-46"/>
     <use xlink:href="#DejaVuSans-61" transform="translate(48.394531 0)"/>
     <use xlink:href="#DejaVuSans-6d" transform="translate(109.673828 0)"/>
     <use xlink:href="#DejaVuSans-69" transform="translate(207.085938 0)"/>
     <use xlink:href="#DejaVuSans-6c" transform="translate(234.869141 0)"/>
     <use xlink:href="#DejaVuSans-69" transform="translate(262.652344 0)"/>
     <use xlink:href="#DejaVuSans-61" transform="translate(290.435547 0)"/>
     <use xlink:href="#DejaVuSans-72" transform="translate(351.714844 0)"/>
     <use xlink:href="#DejaVuSans-20" transform="translate(392.828125 0)"/>
     <use xlink:href="#DejaVuSans-7c" transform="translate(424.615234 0)"/>
     <use xlink:href="#DejaVuSans-20" transform="translate(458.306641 0)"/>
     <use xlink:href="#DejaVuSans-45" transform="translate(490.09375 0)"/>
     <use xlink:href="#DejaVuSans-78" transform="translate(553.277344 0)"/>
     <use xlink:href="#DejaVuSans-70" transform="translate(612.457031 0)"/>
     <use xlink:href="#DejaVuSans-65" transform="translate(675.933594 0)"/>
     <use xlink:href="#DejaVuSans-72" transform="translate(737.457031 0)"/>
     <use xlink:href="#DejaVuSans-74" transform="translate(778.570312 0)"/>
    </g>
   </g>
  </g>
  <g id="axes_3">
   <g id="patch_10">
    <path d="M 793.730787 336.640156 
L 1094.674607 336.640156 
L 1094.674607 31.720156 
L 793.730787 31.720156 
z
" style="fill: #ffffff"/>
   </g>
   <g id="matplotlib.axis_5">
    <g id="xtick_11">
     <g id="line2d_24">
      <g>
       <use xlink:href="#md26f8569bb" x="793.730787" y="336.640156" style="stroke: #000000; stroke-width: 1.6"/>
      </g>
     </g>
     <g id="text_23">
      <!-- -1 -->
      <g transform="translate(777.778287 369.455156) scale(0.32 -0.32)">
       <use xlink:href="#DejaVuSans-2d"/>
       <use xlink:href="#DejaVuSans-31" transform="translate(36.083984 0)"/>
      </g>
     </g>
    </g>
    <g id="xtick_12">
     <g id="line2d_25">
      <g>
       <use xlink:href="#md26f8569bb" x="868.966742" y="336.640156" style="stroke: #000000; stroke-width: 1.6"/>
      </g>
     </g>
     <g id="text_24">
      <!-- 0 -->
      <g transform="translate(858.786742 369.455156) scale(0.32 -0.32)">
       <use xlink:href="#DejaVuSans-30"/>
      </g>
     </g>
    </g>
    <g id="xtick_13">
     <g id="line2d_26">
      <g>
       <use xlink:href="#md26f8569bb" x="944.202697" y="336.640156" style="stroke: #000000; stroke-width: 1.6"/>
      </g>
     </g>
     <g id="text_25">
      <!-- 1 -->
      <g transform="translate(934.022697 369.455156) scale(0.32 -0.32)">
       <use xlink:href="#DejaVuSans-31"/>
      </g>
     </g>
    </g>
    <g id="xtick_14">
     <g id="line2d_27">
      <g>
       <use xlink:href="#md26f8569bb" x="1019.438652" y="336.640156" style="stroke: #000000; stroke-width: 1.6"/>
      </g>
     </g>
     <g id="text_26">
      <!-- 2 -->
      <g transform="translate(1009.258652 369.455156) scale(0.32 -0.32)">
       <use xlink:href="#DejaVuSans-32"/>
      </g>
     </g>
    </g>
    <g id="xtick_15">
     <g id="line2d_28">
      <g>
       <use xlink:href="#md26f8569bb" x="1094.674607" y="336.640156" style="stroke: #000000; stroke-width: 1.6"/>
      </g>
     </g>
     <g id="text_27">
      <!-- 3 -->
      <g transform="translate(1084.494607 369.455156) scale(0.32 -0.32)">
       <use xlink:href="#DejaVuSans-33"/>
      </g>
     </g>
    </g>
    <g id="text_28">
     <!-- Time (s) -->
     <g transform="translate(879.150197 404.425156) scale(0.32 -0.32)">
      <use xlink:href="#DejaVuSans-54"/>
      <use xlink:href="#DejaVuSans-69" transform="translate(57.958984 0)"/>
      <use xlink:href="#DejaVuSans-6d" transform="translate(85.742188 0)"/>
      <use xlink:href="#DejaVuSans-65" transform="translate(183.154297 0)"/>
      <use xlink:href="#DejaVuSans-20" transform="translate(244.677734 0)"/>
      <use xlink:href="#DejaVuSans-28" transform="translate(276.464844 0)"/>
      <use xlink:href="#DejaVuSans-73" transform="translate(315.478516 0)"/>
      <use xlink:href="#DejaVuSans-29" transform="translate(367.578125 0)"/>
     </g>
    </g>
   </g>
   <g id="matplotlib.axis_6">
    <g id="ytick_7">
     <g id="line2d_29">
      <g>
       <use xlink:href="#m31ab51ed2c" x="793.730787" y="315.612186" style="stroke: #000000; stroke-width: 1.6"/>
      </g>
     </g>
    </g>
    <g id="ytick_8">
     <g id="line2d_30">
      <g>
       <use xlink:href="#m31ab51ed2c" x="793.730787" y="207.645678" style="stroke: #000000; stroke-width: 1.6"/>
      </g>
     </g>
    </g>
    <g id="ytick_9">
     <g id="line2d_31">
      <g>
       <use xlink:href="#m31ab51ed2c" x="793.730787" y="99.679169" style="stroke: #000000; stroke-width: 1.6"/>
      </g>
     </g>
    </g>
   </g>
   <g id="line2d_32">
    <path d="M 794.483146 310.826528 
L 798.244944 311.909136 
L 802.006742 312.746836 
L 802.759101 311.422289 
L 803.511461 311.394154 
L 805.01618 311.805412 
L 805.768539 308.703037 
L 808.777978 309.984642 
L 811.787416 311.028517 
L 812.539775 310.043026 
L 813.292135 310.321484 
L 814.044494 309.853754 
L 817.053933 310.921907 
L 820.81573 311.982938 
L 824.577528 312.803943 
L 826.082247 313.077747 
L 826.834607 310.764923 
L 830.596404 311.861467 
L 831.348764 312.049003 
L 832.101124 310.44799 
L 832.853483 310.463227 
L 835.862921 311.418327 
L 836.615281 311.62802 
L 837.36764 310.847686 
L 841.129438 311.925507 
L 844.891236 312.759504 
L 849.405393 313.515203 
L 853.919551 314.070711 
L 854.67191 312.919829 
L 856.176629 313.182334 
L 856.928989 312.473844 
L 859.186067 312.921451 
L 859.938427 312.071197 
L 860.690787 312.248246 
L 861.443146 305.520652 
L 862.195506 303.836372 
L 862.947865 304.425163 
L 863.700225 304.479699 
L 865.957303 306.067471 
L 868.214382 307.428787 
L 871.22382 308.946757 
L 874.233258 310.183153 
L 877.242697 311.190205 
L 881.004494 312.190542 
L 884.766292 312.964583 
L 889.280449 313.665955 
L 894.546966 314.253061 
L 901.318202 314.755598 
L 909.594157 315.124959 
L 920.879551 315.386458 
L 938.93618 315.546276 
L 951.726292 315.584628 
L 952.478652 315.414645 
L 955.48809 315.451288 
L 956.240449 310.079201 
L 956.992809 307.098861 
L 958.497528 307.92891 
L 959.249888 305.21971 
L 960.754607 306.232977 
L 961.506966 304.703406 
L 962.259326 305.248845 
L 963.011685 303.796259 
L 963.764045 304.387055 
L 964.516404 304.571594 
L 965.268764 303.423667 
L 966.021124 303.383248 
L 968.278202 305.127401 
L 969.030562 305.65164 
L 969.782921 304.461157 
L 972.04 306.051573 
L 972.79236 306.529604 
L 973.544719 305.613898 
L 975.801798 307.039904 
L 978.811236 308.630009 
L 981.820674 309.92516 
L 984.830112 310.980068 
L 988.59191 312.027942 
L 992.353708 312.838767 
L 993.858427 313.109175 
L 994.610787 310.433632 
L 996.115506 310.938541 
L 997.620225 303.164609 
L 999.877303 304.939944 
L 1002.134382 306.462073 
L 1004.391461 307.767108 
L 1005.14382 305.422149 
L 1007.400899 306.875503 
L 1008.153258 306.234781 
L 1010.410337 307.572234 
L 1013.419775 309.063595 
L 1016.429213 310.278318 
L 1019.438652 311.267718 
L 1020.943371 311.691304 
L 1021.69573 310.604456 
L 1022.44809 310.854842 
L 1023.200449 310.075944 
L 1026.209888 311.102883 
L 1029.971685 312.122974 
L 1033.733483 312.9123 
L 1036.742921 313.413112 
L 1037.495281 313.374401 
L 1038.24764 313.48629 
L 1039 312.899268 
L 1041.257079 313.286198 
L 1042.009438 312.320915 
L 1042.761798 309.73365 
L 1045.771236 310.824082 
L 1048.028315 311.506986 
L 1048.780674 310.391022 
L 1051.790112 311.359515 
L 1052.542472 306.744166 
L 1053.294831 303.187552 
L 1055.55191 304.959616 
L 1057.808989 306.47894 
L 1060.066067 307.78157 
L 1062.323146 308.846754 
L 1065.332584 310.1017 
L 1068.342022 311.123861 
L 1072.10382 312.139205 
L 1075.865618 312.92486 
L 1078.875056 313.423342 
L 1079.627416 309.765624 
L 1081.132135 310.335663 
L 1081.884494 307.343091 
L 1082.636854 302.668778 
L 1084.893933 304.514832 
L 1087.151011 306.097593 
L 1087.903371 304.464101 
L 1088.65573 299.698676 
L 1089.40809 297.221614 
L 1090.160449 291.669387 
L 1092.417528 295.08423 
L 1093.922247 297.085706 
L 1093.922247 297.085706 
" clip-path="url(#p74aa02d435)" style="fill: none; stroke: #000000; stroke-width: 5; stroke-linecap: square"/>
   </g>
   <g id="line2d_33">
    <path d="M 794.483146 300.44407 
L 795.235506 290.193953 
L 795.987865 289.193418 
L 796.740225 287.52862 
L 797.492584 287.472239 
L 799.749663 291.4857 
L 800.502022 292.692024 
L 801.254382 287.934217 
L 802.006742 284.788427 
L 804.26382 289.184668 
L 806.520899 292.953892 
L 808.777978 296.185532 
L 811.035056 298.95626 
L 811.787416 299.789057 
L 813.292135 300.438633 
L 815.549213 302.602762 
L 816.301573 303.253234 
L 817.053933 303.551787 
L 819.311011 305.271902 
L 820.063371 305.527636 
L 820.81573 301.15619 
L 821.56809 301.87899 
L 822.320449 295.031412 
L 824.577528 297.966746 
L 826.082247 299.687177 
L 826.834607 300.036145 
L 827.586966 300.814948 
L 829.091685 302.111027 
L 831.348764 304.036631 
L 833.605843 305.687594 
L 835.862921 307.103089 
L 838.87236 308.681474 
L 840.377079 307.321324 
L 841.129438 304.918434 
L 841.881798 305.453122 
L 842.634157 305.10662 
L 843.386517 302.886344 
L 844.138876 301.752575 
L 846.395955 303.729303 
L 847.148315 302.802685 
L 847.900674 303.259429 
L 850.157753 305.021241 
L 852.414831 306.531775 
L 853.167191 304.236618 
L 854.67191 305.345736 
L 855.42427 303.11684 
L 857.681348 304.89899 
L 859.938427 306.426959 
L 860.690787 299.835175 
L 861.443146 295.873967 
L 863.700225 298.689129 
L 865.957303 301.102781 
L 868.214382 303.172185 
L 869.719101 248.165098 
L 870.471461 226.660749 
L 871.22382 217.327802 
L 871.97618 211.125262 
L 872.728539 213.538871 
L 873.480899 212.608809 
L 874.985618 215.970411 
L 875.737978 207.733413 
L 876.490337 209.030771 
L 877.242697 208.541599 
L 878.747416 218.980984 
L 879.499775 222.432866 
L 880.252135 221.737016 
L 881.004494 208.900762 
L 881.756854 202.372305 
L 882.509213 196.819457 
L 883.261573 200.525357 
L 884.013933 198.904496 
L 884.766292 204.739878 
L 885.518652 206.050967 
L 886.271011 201.016419 
L 887.023371 201.229966 
L 887.77573 202.24273 
L 888.52809 207.278759 
L 889.280449 205.677993 
L 890.032809 198.424704 
L 890.785169 201.813013 
L 891.537528 203.841035 
L 892.289888 200.520562 
L 893.042247 200.900285 
L 893.794607 206.63588 
L 894.546966 206.729811 
L 895.299326 204.164055 
L 896.051685 208.789584 
L 896.804045 211.60001 
L 897.556404 212.098256 
L 898.308764 215.094405 
L 899.061124 212.551229 
L 899.813483 213.28191 
L 900.565843 209.151948 
L 901.318202 197.51258 
L 902.070562 194.336628 
L 903.575281 201.360981 
L 905.08 212.500478 
L 905.83236 214.159653 
L 906.584719 209.29597 
L 907.337079 212.204736 
L 908.841798 204.298545 
L 911.098876 220.174661 
L 911.851236 219.292992 
L 912.603596 215.52097 
L 913.355955 220.52553 
L 914.108315 213.40373 
L 914.860674 212.182349 
L 916.365393 215.755319 
L 917.117753 212.583228 
L 917.870112 214.283661 
L 918.622472 213.341444 
L 919.374831 210.951621 
L 920.127191 211.714567 
L 920.879551 205.12339 
L 921.63191 203.354389 
L 923.136629 195.463152 
L 923.888989 197.761779 
L 924.641348 202.047403 
L 926.146067 201.682175 
L 926.898427 198.943969 
L 927.650787 199.975154 
L 928.403146 201.295815 
L 929.155506 197.487933 
L 929.907865 195.085376 
L 930.660225 195.987163 
L 931.412584 196.082623 
L 932.164944 202.059099 
L 932.917303 205.048733 
L 933.669663 209.658237 
L 934.422022 210.370899 
L 935.174382 209.424217 
L 935.926742 214.380408 
L 936.679101 213.364201 
L 937.431461 202.585982 
L 938.93618 195.516058 
L 939.688539 194.51754 
L 940.440899 193.996723 
L 941.193258 196.335659 
L 943.450337 213.347477 
L 945.707416 227.932984 
L 947.964494 240.438231 
L 950.221573 251.159924 
L 952.478652 260.352428 
L 954.73573 268.233855 
L 956.992809 274.991191 
L 959.249888 280.784764 
L 961.506966 285.752028 
L 963.764045 290.010834 
L 966.021124 293.662229 
L 968.278202 296.792844 
L 970.535281 299.476953 
L 972.79236 301.778242 
L 975.049438 303.751308 
L 977.306517 305.442966 
L 978.058876 304.485742 
L 978.811236 303.210659 
L 981.068315 304.979428 
L 983.325393 306.495925 
L 985.582472 307.796133 
L 988.59191 309.245963 
L 991.601348 310.426858 
L 994.610787 311.388704 
L 998.372584 312.344137 
L 1002.134382 313.083432 
L 1002.886742 313.20987 
L 1003.639101 312.367584 
L 1007.400899 313.101575 
L 1010.410337 313.567278 
L 1011.162697 312.117126 
L 1014.924494 312.907776 
L 1015.676854 308.424753 
L 1016.429213 308.273302 
L 1019.438652 309.63462 
L 1020.191011 309.370339 
L 1022.44809 310.260582 
L 1023.952809 307.074355 
L 1024.705169 302.088303 
L 1025.457528 294.325033 
L 1026.209888 293.88483 
L 1028.466966 296.983695 
L 1030.724045 299.640583 
L 1032.981124 301.918533 
L 1035.238202 303.871591 
L 1037.495281 305.546094 
L 1039.75236 306.981771 
L 1042.761798 308.58266 
L 1043.514157 304.244322 
L 1044.266517 304.812715 
L 1045.018876 304.36937 
L 1045.771236 303.706661 
L 1048.028315 305.404688 
L 1050.285393 306.860532 
L 1051.037753 306.566793 
L 1053.294831 307.856892 
L 1054.047191 308.005804 
L 1057.056629 309.41674 
L 1060.066067 310.565957 
L 1063.075506 311.502002 
L 1066.084944 312.264415 
L 1066.837303 309.544297 
L 1069.846742 310.669853 
L 1072.85618 311.586625 
L 1076.617978 312.497284 
L 1077.370337 310.440292 
L 1078.122697 301.887366 
L 1078.875056 302.573607 
L 1079.627416 301.890567 
L 1081.884494 303.847613 
L 1084.141573 305.525536 
L 1086.398652 306.964145 
L 1087.151011 303.47585 
L 1087.903371 304.082667 
L 1088.65573 299.88384 
L 1089.40809 300.006911 
L 1090.160449 300.787174 
L 1090.912809 299.249236 
L 1093.169888 301.583001 
L 1093.922247 302.284461 
L 1093.922247 302.284461 
" clip-path="url(#p74aa02d435)" style="fill: none; stroke: #ff0000; stroke-width: 5; stroke-linecap: square"/>
   </g>
   <g id="line2d_34">
    <path d="M 794.483146 306.739381 
L 797.492584 308.385232 
L 799.749663 309.415977 
L 800.502022 305.65724 
L 802.759101 307.077065 
L 805.768539 308.660277 
L 808.777978 309.949813 
L 811.787416 311.000147 
L 813.292135 311.449821 
L 814.044494 310.075205 
L 817.053933 311.102281 
L 820.81573 312.122508 
L 823.825169 312.769822 
L 824.577528 310.506638 
L 827.586966 311.453686 
L 828.339326 311.290339 
L 829.844045 311.71172 
L 830.596404 311.370075 
L 832.101124 307.3994 
L 834.358202 308.570749 
L 835.862921 304.300866 
L 836.615281 304.866432 
L 837.36764 302.584001 
L 839.624719 304.442147 
L 841.881798 306.035275 
L 842.634157 306.514121 
L 843.386517 304.142256 
L 846.395955 306.255933 
L 848.653034 307.590369 
L 849.405393 307.107507 
L 852.414831 308.685072 
L 853.919551 309.360466 
L 854.67191 305.432961 
L 856.176629 306.425436 
L 856.928989 305.837734 
L 857.681348 306.326457 
L 858.433708 305.284175 
L 859.186067 305.124454 
L 859.938427 305.309338 
L 862.195506 306.778783 
L 865.204944 308.417324 
L 868.214382 309.751926 
L 871.22382 310.838968 
L 874.985618 311.918761 
L 878.747416 312.754285 
L 883.261573 313.511366 
L 888.52809 314.145106 
L 894.546966 314.638895 
L 902.070562 315.029441 
L 912.603596 315.327996 
L 928.403146 315.515402 
L 946.459775 315.583927 
L 947.212135 314.51293 
L 947.964494 314.567893 
L 948.716854 313.082146 
L 949.469213 313.208648 
L 950.221573 312.514362 
L 950.973933 310.73244 
L 951.726292 310.453115 
L 954.73573 311.410091 
L 957.745169 312.189553 
L 958.497528 309.703202 
L 959.249888 308.988891 
L 960.002247 308.996738 
L 960.754607 309.327511 
L 961.506966 307.474459 
L 964.516404 308.976329 
L 966.773483 309.922769 
L 967.525843 308.67383 
L 968.278202 308.793412 
L 969.030562 306.84693 
L 971.28764 308.097076 
L 972.04 306.486113 
L 972.79236 302.632416 
L 975.049438 304.483656 
L 977.306517 306.070863 
L 979.563596 307.431695 
L 981.068315 308.229292 
L 981.820674 306.061318 
L 982.573034 304.642762 
L 984.077753 294.194086 
L 984.830112 288.710406 
L 985.582472 287.779127 
L 987.087191 290.492851 
L 987.839551 290.128427 
L 990.096629 293.76305 
L 992.353708 296.879284 
L 994.610787 299.551065 
L 997.620225 302.449234 
L 998.372584 300.704641 
L 1000.629663 302.83083 
L 1001.382022 301.943712 
L 1002.886742 303.276389 
L 1003.639101 303.640691 
L 1005.14382 304.807912 
L 1005.89618 304.552484 
L 1008.153258 306.129874 
L 1010.410337 307.482289 
L 1011.162697 307.888784 
L 1011.915056 307.234349 
L 1012.667416 307.653241 
L 1013.419775 306.24549 
L 1015.676854 307.581416 
L 1018.686292 309.071074 
L 1020.191011 309.708832 
L 1021.69573 307.471301 
L 1024.705169 308.981385 
L 1027.714607 310.211357 
L 1030.724045 311.213178 
L 1034.485843 312.208317 
L 1035.990562 312.540195 
L 1036.742921 310.790351 
L 1040.504719 311.881142 
L 1042.009438 312.244919 
L 1042.761798 308.723282 
L 1043.514157 309.067727 
L 1044.266517 307.339744 
L 1045.018876 296.23882 
L 1045.771236 296.927917 
L 1048.028315 299.592761 
L 1050.285393 301.877531 
L 1052.542472 303.836436 
L 1054.799551 305.515953 
L 1057.056629 306.955928 
L 1060.066067 308.56161 
L 1060.818427 307.378504 
L 1063.827865 308.905801 
L 1064.580225 309.24112 
L 1065.332584 308.050692 
L 1067.589663 309.12915 
L 1068.342022 305.606734 
L 1070.599101 307.033761 
L 1073.608539 308.625006 
L 1076.617978 309.921085 
L 1079.627416 310.97675 
L 1083.389213 312.025374 
L 1087.151011 312.83678 
L 1088.65573 313.107382 
L 1089.40809 311.449633 
L 1091.665169 312.043317 
L 1092.417528 311.398025 
L 1093.922247 311.808906 
L 1093.922247 311.808906 
" clip-path="url(#p74aa02d435)" style="fill: none; stroke: #0000ff; stroke-width: 5; stroke-linecap: square"/>
   </g>
   <g id="patch_11">
    <path d="M 793.730787 336.640156 
L 793.730787 31.720156 
" style="fill: none; stroke: #000000; stroke-width: 5; stroke-linejoin: miter; stroke-linecap: square"/>
   </g>
   <g id="patch_12">
    <path d="M 793.730787 336.640156 
L 1094.674607 336.640156 
" style="fill: none; stroke: #000000; stroke-width: 5; stroke-linejoin: miter; stroke-linecap: square"/>
   </g>
   <g id="patch_13">
    <path d="M 868.966742 330.541756 
L 944.202697 330.541756 
L 944.202697 319.869556 
L 868.966742 319.869556 
z
" style="fill: #8c5a2b; stroke: #8c5a2b; stroke-linejoin: miter"/>
   </g>
   <g id="text_29">
    <!-- Novel | Naive -->
    <g transform="translate(880.90004 21.720156) scale(0.19 -0.19)">
     <use xlink:href="#DejaVuSans-4e"/>
     <use xlink:href="#DejaVuSans-6f" transform="translate(74.804688 0)"/>
     <use xlink:href="#DejaVuSans-76" transform="translate(135.986328 0)"/>
     <use xlink:href="#DejaVuSans-65" transform="translate(195.166016 0)"/>
     <use xlink:href="#DejaVuSans-6c" transform="translate(256.689453 0)"/>
     <use xlink:href="#DejaVuSans-20" transform="translate(284.472656 0)"/>
     <use xlink:href="#DejaVuSans-7c" transform="translate(316.259766 0)"/>
     <use xlink:href="#DejaVuSans-20" transform="translate(349.951172 0)"/>
     <use xlink:href="#DejaVuSans-4e" transform="translate(381.738281 0)"/>
     <use xlink:href="#DejaVuSans-61" transform="translate(456.542969 0)"/>
     <use xlink:href="#DejaVuSans-69" transform="translate(517.822266 0)"/>
     <use xlink:href="#DejaVuSans-76" transform="translate(545.605469 0)"/>
     <use xlink:href="#DejaVuSans-65" transform="translate(604.785156 0)"/>
    </g>
   </g>
  </g>
  <g id="axes_4">
   <g id="patch_14">
    <path d="M 1139.81618 336.640156 
L 1440.76 336.640156 
L 1440.76 31.720156 
L 1139.81618 31.720156 
z
" style="fill: #ffffff"/>
   </g>
   <g id="matplotlib.axis_7">
    <g id="xtick_16">
     <g id="line2d_35">
      <g>
       <use xlink:href="#md26f8569bb" x="1139.81618" y="336.640156" style="stroke: #000000; stroke-width: 1.6"/>
      </g>
     </g>
     <g id="text_30">
      <!-- -1 -->
      <g transform="translate(1123.86368 369.455156) scale(0.32 -0.32)">
       <use xlink:href="#DejaVuSans-2d"/>
       <use xlink:href="#DejaVuSans-31" transform="translate(36.083984 0)"/>
      </g>
     </g>
    </g>
    <g id="xtick_17">
     <g id="line2d_36">
      <g>
       <use xlink:href="#md26f8569bb" x="1215.052135" y="336.640156" style="stroke: #000000; stroke-width: 1.6"/>
      </g>
     </g>
     <g id="text_31">
      <!-- 0 -->
      <g transform="translate(1204.872135 369.455156) scale(0.32 -0.32)">
       <use xlink:href="#DejaVuSans-30"/>
      </g>
     </g>
    </g>
    <g id="xtick_18">
     <g id="line2d_37">
      <g>
       <use xlink:href="#md26f8569bb" x="1290.28809" y="336.640156" style="stroke: #000000; stroke-width: 1.6"/>
      </g>
     </g>
     <g id="text_32">
      <!-- 1 -->
      <g transform="translate(1280.10809 369.455156) scale(0.32 -0.32)">
       <use xlink:href="#DejaVuSans-31"/>
      </g>
     </g>
    </g>
    <g id="xtick_19">
     <g id="line2d_38">
      <g>
       <use xlink:href="#md26f8569bb" x="1365.524045" y="336.640156" style="stroke: #000000; stroke-width: 1.6"/>
      </g>
     </g>
     <g id="text_33">
      <!-- 2 -->
      <g transform="translate(1355.344045 369.455156) scale(0.32 -0.32)">
       <use xlink:href="#DejaVuSans-32"/>
      </g>
     </g>
    </g>
    <g id="xtick_20">
     <g id="line2d_39">
      <g>
       <use xlink:href="#md26f8569bb" x="1440.76" y="336.640156" style="stroke: #000000; stroke-width: 1.6"/>
      </g>
     </g>
     <g id="text_34">
      <!-- 3 -->
      <g transform="translate(1430.58 369.455156) scale(0.32 -0.32)">
       <use xlink:href="#DejaVuSans-33"/>
      </g>
     </g>
    </g>
    <g id="text_35">
     <!-- Time (s) -->
     <g transform="translate(1225.23559 404.425156) scale(0.32 -0.32)">
      <use xlink:href="#DejaVuSans-54"/>
      <use xlink:href="#DejaVuSans-69" transform="translate(57.958984 0)"/>
      <use xlink:href="#DejaVuSans-6d" transform="translate(85.742188 0)"/>
      <use xlink:href="#DejaVuSans-65" transform="translate(183.154297 0)"/>
      <use xlink:href="#DejaVuSans-20" transform="translate(244.677734 0)"/>
      <use xlink:href="#DejaVuSans-28" transform="translate(276.464844 0)"/>
      <use xlink:href="#DejaVuSans-73" transform="translate(315.478516 0)"/>
      <use xlink:href="#DejaVuSans-29" transform="translate(367.578125 0)"/>
     </g>
    </g>
   </g>
   <g id="matplotlib.axis_8">
    <g id="ytick_10">
     <g id="line2d_40">
      <g>
       <use xlink:href="#m31ab51ed2c" x="1139.81618" y="315.612186" style="stroke: #000000; stroke-width: 1.6"/>
      </g>
     </g>
    </g>
    <g id="ytick_11">
     <g id="line2d_41">
      <g>
       <use xlink:href="#m31ab51ed2c" x="1139.81618" y="207.645678" style="stroke: #000000; stroke-width: 1.6"/>
      </g>
     </g>
    </g>
    <g id="ytick_12">
     <g id="line2d_42">
      <g>
       <use xlink:href="#m31ab51ed2c" x="1139.81618" y="99.679169" style="stroke: #000000; stroke-width: 1.6"/>
      </g>
     </g>
    </g>
   </g>
   <g id="line2d_43">
    <path d="M 1140.568539 313.324203 
L 1145.835056 314.014403 
L 1151.853933 314.552184 
L 1159.377528 314.977524 
L 1169.158202 315.286388 
L 1183.453034 315.489245 
L 1209.033258 315.590693 
L 1214.299775 315.597177 
L 1215.052135 299.304995 
L 1217.309213 301.630809 
L 1219.566292 303.624903 
L 1221.823371 305.334589 
L 1224.080449 306.800432 
L 1227.089888 308.434958 
L 1230.099326 309.766289 
L 1233.108764 310.850667 
L 1236.870562 311.927814 
L 1240.63236 312.761289 
L 1245.146517 313.516515 
L 1250.413034 314.148701 
L 1256.43191 314.641281 
L 1263.955506 315.030869 
L 1274.488539 315.328693 
L 1290.28809 315.515639 
L 1301.573483 315.567457 
L 1302.325843 312.942899 
L 1303.830562 313.120928 
L 1308.344719 313.780883 
L 1313.611236 314.333319 
L 1319.630112 314.76376 
L 1320.382472 312.868183 
L 1321.134831 307.209781 
L 1321.887191 302.398312 
L 1322.639551 301.469471 
L 1324.896629 303.486576 
L 1327.153708 305.215991 
L 1327.906067 304.47033 
L 1328.658427 304.370369 
L 1330.915506 305.973733 
L 1333.172584 307.348418 
L 1336.182022 308.881295 
L 1339.191461 310.129834 
L 1342.200899 311.146777 
L 1345.962697 312.156938 
L 1349.724494 312.938581 
L 1354.238652 313.646841 
L 1359.505169 314.239712 
L 1366.276404 314.747186 
L 1374.55236 315.120174 
L 1378.314157 315.231477 
L 1379.066517 314.528138 
L 1383.580674 314.815312 
L 1384.333034 313.786219 
L 1389.599551 314.337045 
L 1396.370787 314.808529 
L 1403.894382 315.131007 
L 1404.646742 313.36013 
L 1409.913258 314.039491 
L 1415.932135 314.568829 
L 1423.45573 314.98749 
L 1433.236404 315.291503 
L 1440.00764 315.410076 
L 1440.00764 315.410076 
" clip-path="url(#p2a9238c49d)" style="fill: none; stroke: #000000; stroke-width: 5; stroke-linecap: square"/>
   </g>
   <g id="line2d_44">
    <path d="M 1140.568539 308.971301 
L 1142.825618 309.912552 
L 1143.577978 308.224 
L 1145.835056 309.27774 
L 1146.587416 308.349941 
L 1147.339775 301.898557 
L 1149.596854 303.854464 
L 1151.853933 305.53141 
L 1153.358652 306.514287 
L 1154.111011 306.41304 
L 1156.36809 307.725069 
L 1157.120449 308.119425 
L 1157.872809 307.672856 
L 1160.129888 308.805204 
L 1160.882247 305.739489 
L 1163.139326 307.147582 
L 1166.148764 308.717714 
L 1167.653483 309.389925 
L 1168.405843 309.371022 
L 1171.415281 310.52872 
L 1172.16764 310.782893 
L 1172.92 310.539517 
L 1175.929438 311.480466 
L 1178.186517 312.069752 
L 1178.938876 308.233524 
L 1181.948315 309.60222 
L 1182.700674 307.15548 
L 1185.710112 308.724147 
L 1186.462472 309.068549 
L 1187.214831 305.973154 
L 1187.967191 304.547322 
L 1190.22427 306.125449 
L 1191.728989 307.050407 
L 1192.481348 306.082346 
L 1194.738427 307.44154 
L 1195.490787 307.850072 
L 1196.243146 306.948681 
L 1196.995506 307.381856 
L 1197.747865 306.477016 
L 1198.500225 306.933775 
L 1199.252584 302.014588 
L 1200.004944 302.694468 
L 1200.757303 303.134874 
L 1201.509663 293.516819 
L 1203.766742 296.668172 
L 1206.02382 299.370062 
L 1208.280899 301.686595 
L 1210.537978 303.672733 
L 1211.290337 304.269706 
L 1212.042697 301.67261 
L 1214.299775 303.660742 
L 1215.052135 250.975054 
L 1215.804494 207.415895 
L 1216.556854 173.918651 
L 1217.309213 163.549572 
L 1218.061573 145.136265 
L 1218.813933 136.118616 
L 1219.566292 128.518488 
L 1220.318652 136.635033 
L 1221.071011 134.797094 
L 1221.823371 129.085422 
L 1222.57573 127.362739 
L 1223.32809 116.579516 
L 1224.080449 114.250998 
L 1224.832809 118.351269 
L 1225.585169 118.741071 
L 1226.337528 124.672524 
L 1227.842247 114.364452 
L 1228.594607 118.936721 
L 1229.346966 122.599745 
L 1230.099326 125.440594 
L 1230.851685 134.837121 
L 1231.604045 137.433687 
L 1232.356404 134.149412 
L 1233.108764 133.690913 
L 1233.861124 132.496086 
L 1234.613483 141.030604 
L 1235.365843 146.570517 
L 1236.118202 129.983164 
L 1236.870562 135.384573 
L 1237.622921 135.593978 
L 1238.375281 124.913269 
L 1239.12764 118.657734 
L 1239.88 127.058349 
L 1240.63236 133.903713 
L 1241.384719 137.730386 
L 1242.137079 146.624477 
L 1242.889438 151.01482 
L 1244.394157 154.848379 
L 1245.146517 160.878968 
L 1245.898876 156.948799 
L 1247.403596 135.123139 
L 1248.155955 128.101159 
L 1248.908315 137.439704 
L 1249.660674 136.829106 
L 1250.413034 144.546324 
L 1251.165393 147.432189 
L 1251.917753 155.544856 
L 1252.670112 152.434271 
L 1253.422472 155.712528 
L 1254.927191 147.238084 
L 1255.679551 154.493874 
L 1256.43191 159.839361 
L 1257.18427 155.470545 
L 1257.936629 152.881589 
L 1258.688989 151.469699 
L 1259.441348 159.676821 
L 1260.193708 156.611524 
L 1260.946067 151.359366 
L 1261.698427 144.339204 
L 1262.450787 141.940025 
L 1263.203146 142.89554 
L 1263.955506 141.305392 
L 1264.707865 136.95046 
L 1266.212584 147.383843 
L 1266.964944 136.943477 
L 1267.717303 132.107587 
L 1268.469663 124.674181 
L 1269.222022 121.102169 
L 1269.974382 121.833348 
L 1270.726742 131.522296 
L 1271.479101 131.689067 
L 1272.231461 140.885231 
L 1272.98382 143.265521 
L 1273.73618 134.402561 
L 1274.488539 134.355857 
L 1275.240899 130.790891 
L 1275.993258 132.315897 
L 1276.745618 136.897771 
L 1277.497978 129.436291 
L 1278.250337 133.114245 
L 1279.002697 132.483103 
L 1279.755056 137.172027 
L 1280.507416 140.097308 
L 1281.259775 136.835622 
L 1282.012135 141.523967 
L 1282.764494 140.129243 
L 1283.516854 135.4172 
L 1284.269213 137.229591 
L 1285.021573 126.972454 
L 1285.773933 130.611137 
L 1286.526292 132.549242 
L 1287.278652 125.697218 
L 1288.031011 123.063682 
L 1288.783371 126.039641 
L 1291.792809 160.555852 
L 1294.049888 182.670771 
L 1296.306966 201.631545 
L 1298.564045 217.888036 
L 1300.821124 231.825942 
L 1303.078202 243.775958 
L 1305.335281 254.0216 
L 1307.59236 262.805961 
L 1309.849438 270.337452 
L 1312.106517 276.794762 
L 1314.363596 282.331098 
L 1316.620674 287.077815 
L 1318.877753 291.147532 
L 1321.134831 294.636805 
L 1323.39191 297.62842 
L 1325.648989 300.193356 
L 1327.906067 302.392467 
L 1330.163146 304.27793 
L 1332.420225 305.894479 
L 1334.677303 307.280468 
L 1337.686742 308.82595 
L 1340.69618 310.084755 
L 1343.705618 311.110059 
L 1344.457978 311.335165 
L 1345.210337 308.977634 
L 1348.219775 310.208302 
L 1351.229213 311.210689 
L 1354.991011 312.206392 
L 1358.752809 312.976848 
L 1361.009888 313.352713 
L 1361.762247 307.589447 
L 1364.019326 308.733691 
L 1364.771685 307.055503 
L 1367.781124 308.642714 
L 1370.038202 309.636735 
L 1370.790562 308.456543 
L 1373.8 309.78387 
L 1376.057079 310.615134 
L 1376.809438 307.22365 
L 1377.561798 302.949204 
L 1379.818876 304.755262 
L 1380.571236 305.298108 
L 1381.323596 301.327266 
L 1382.075955 300.225029 
L 1384.333034 302.419622 
L 1386.590112 304.301213 
L 1388.847191 305.914442 
L 1391.10427 307.297583 
L 1394.113708 308.83989 
L 1397.123146 310.096109 
L 1399.380225 310.88284 
L 1400.132584 308.546871 
L 1403.142022 309.857443 
L 1404.646742 310.411765 
L 1405.399101 310.513215 
L 1406.151461 310.768164 
L 1406.90382 309.382404 
L 1407.65618 307.282426 
L 1410.665618 308.827545 
L 1413.675056 310.086053 
L 1414.427416 310.36236 
L 1415.179775 308.853807 
L 1415.932135 309.191726 
L 1416.684494 307.490976 
L 1419.693933 308.997409 
L 1422.703371 310.22441 
L 1423.45573 307.953677 
L 1426.465169 309.374283 
L 1429.474607 310.531375 
L 1432.484045 311.473834 
L 1433.236404 308.979076 
L 1436.245843 310.209477 
L 1436.998202 306.960639 
L 1437.750562 306.817917 
L 1438.502921 305.951329 
L 1439.255281 306.434372 
L 1440.00764 305.50747 
L 1440.00764 305.50747 
" clip-path="url(#p2a9238c49d)" style="fill: none; stroke: #ff0000; stroke-width: 5; stroke-linecap: square"/>
   </g>
   <g id="line2d_45">
    <path d="M 1140.568539 314.094188 
L 1146.587416 314.605115 
L 1154.111011 315.009216 
L 1163.891685 315.302656 
L 1175.929438 315.475954 
L 1176.681798 312.452518 
L 1177.434157 307.757665 
L 1178.186517 307.372167 
L 1181.195955 308.900639 
L 1181.948315 308.720755 
L 1182.700674 309.065327 
L 1183.453034 304.020548 
L 1185.710112 305.673805 
L 1186.462472 305.064559 
L 1188.719551 306.568915 
L 1190.976629 307.858712 
L 1193.986067 309.296934 
L 1196.995506 310.468374 
L 1200.004944 311.422519 
L 1203.766742 312.370302 
L 1207.528539 313.103678 
L 1209.033258 313.348258 
L 1209.785618 311.280747 
L 1213.547416 312.260602 
L 1217.309213 313.018794 
L 1221.823371 313.705805 
L 1227.089888 314.280889 
L 1233.861124 314.773137 
L 1242.137079 315.134935 
L 1253.422472 315.39108 
L 1271.479101 315.547626 
L 1292.545169 315.596832 
L 1293.297528 312.83309 
L 1297.811685 313.569295 
L 1303.078202 314.185559 
L 1303.830562 313.773841 
L 1304.582921 312.304222 
L 1308.344719 313.052547 
L 1312.858876 313.730616 
L 1315.115955 313.998975 
L 1315.868315 312.338549 
L 1319.630112 313.079108 
L 1324.14427 313.750141 
L 1325.648989 313.931691 
L 1326.401348 311.444301 
L 1328.658427 312.038746 
L 1329.410787 310.761957 
L 1330.915506 311.234854 
L 1331.667865 309.48139 
L 1332.420225 309.787929 
L 1333.172584 309.310289 
L 1336.182022 310.479252 
L 1339.191461 311.43138 
L 1342.953258 312.377158 
L 1347.467416 313.234143 
L 1348.219775 312.522932 
L 1348.972135 310.917868 
L 1349.724494 304.992838 
L 1350.476854 302.291432 
L 1351.229213 300.61928 
L 1353.486292 302.757644 
L 1355.743371 304.591023 
L 1358.000449 306.162917 
L 1360.257528 307.51062 
L 1363.266966 309.01341 
L 1366.276404 310.237442 
L 1369.285843 311.234424 
L 1373.04764 312.224758 
L 1376.809438 312.991059 
L 1381.323596 313.685417 
L 1386.590112 314.266652 
L 1393.361348 314.764164 
L 1397.123146 314.956003 
L 1397.875506 311.62623 
L 1398.627865 306.679424 
L 1400.884944 307.953459 
L 1403.894382 309.374106 
L 1406.90382 310.531231 
L 1409.913258 311.473717 
L 1413.675056 312.409918 
L 1418.189213 313.258225 
L 1421.951011 313.790736 
L 1422.703371 312.177839 
L 1423.45573 308.674127 
L 1425.712809 309.663668 
L 1426.465169 309.04185 
L 1429.474607 310.260607 
L 1432.484045 311.253292 
L 1436.245843 312.239357 
L 1440.00764 313.002355 
L 1440.00764 313.002355 
" clip-path="url(#p2a9238c49d)" style="fill: none; stroke: #0000ff; stroke-width: 5; stroke-linecap: square"/>
   </g>
   <g id="patch_15">
    <path d="M 1139.81618 336.640156 
L 1139.81618 31.720156 
" style="fill: none; stroke: #000000; stroke-width: 5; stroke-linejoin: miter; stroke-linecap: square"/>
   </g>
   <g id="patch_16">
    <path d="M 1139.81618 336.640156 
L 1440.76 336.640156 
" style="fill: none; stroke: #000000; stroke-width: 5; stroke-linejoin: miter; stroke-linecap: square"/>
   </g>
   <g id="patch_17">
    <path d="M 1215.052135 330.541756 
L 1290.28809 330.541756 
L 1290.28809 319.869556 
L 1215.052135 319.869556 
z
" style="fill: #8c5a2b; stroke: #8c5a2b; stroke-linejoin: miter"/>
   </g>
   <g id="text_36">
    <!-- Novel | Expert -->
    <g transform="translate(1222.890043 21.720156) scale(0.19 -0.19)">
     <use xlink:href="#DejaVuSans-4e"/>
     <use xlink:href="#DejaVuSans-6f" transform="translate(74.804688 0)"/>
     <use xlink:href="#DejaVuSans-76" transform="translate(135.986328 0)"/>
     <use xlink:href="#DejaVuSans-65" transform="translate(195.166016 0)"/>
     <use xlink:href="#DejaVuSans-6c" transform="translate(256.689453 0)"/>
     <use xlink:href="#DejaVuSans-20" transform="translate(284.472656 0)"/>
     <use xlink:href="#DejaVuSans-7c" transform="translate(316.259766 0)"/>
     <use xlink:href="#DejaVuSans-20" transform="translate(349.951172 0)"/>
     <use xlink:href="#DejaVuSans-45" transform="translate(381.738281 0)"/>
     <use xlink:href="#DejaVuSans-78" transform="translate(444.921875 0)"/>
     <use xlink:href="#DejaVuSans-70" transform="translate(504.101562 0)"/>
     <use xlink:href="#DejaVuSans-65" transform="translate(567.578125 0)"/>
     <use xlink:href="#DejaVuSans-72" transform="translate(629.101562 0)"/>
     <use xlink:href="#DejaVuSans-74" transform="translate(670.214844 0)"/>
    </g>
   </g>
  </g>
 </g>
 <defs>
  <clipPath id="p5e64a61435">
   <rect x="101.56" y="31.720156" width="300.94382" height="304.92"/>
  </clipPath>
  <clipPath id="p628260365c">
   <rect x="447.645393" y="31.720156" width="300.94382" height="304.92"/>
  </clipPath>
  <clipPath id="p74aa02d435">
   <rect x="793.730787" y="31.720156" width="300.94382" height="304.92"/>
  </clipPath>
  <clipPath id="p2a9238c49d">
   <rect x="1139.81618" y="31.720156" width="300.94382" height="304.92"/>
  </clipPath>
 </defs>
</svg>
