<?xml version="1.0" encoding="utf-8" standalone="no"?>
<!DOCTYPE svg PUBLIC "-//W3C//DTD SVG 1.1//EN"
  "http://www.w3.org/Graphics/SVG/1.1/DTD/svg11.dtd">
<svg xmlns:xlink="http://www.w3.org/1999/xlink" width="1478.5pt" height="418.280156pt" viewBox="0 0 1478.5 418.280156" xmlns="http://www.w3.org/2000/svg" version="1.1">
 <metadata>
  <rdf:RDF xmlns:dc="http://purl.org/dc/elements/1.1/" xmlns:cc="http://creativecommons.org/ns#" xmlns:rdf="http://www.w3.org/1999/02/22-rdf-syntax-ns#">
   <cc:Work>
    <dc:type rdf:resource="http://purl.org/dc/dcmitype/StillImage"/>
    <dc:date>2026-03-25T17:17:24.613029</dc:date>
    <dc:format>image/svg+xml</dc:format>
    <dc:creator>
     <cc:Agent>
      <dc:title>Matplotlib v3.10.7, https://matplotlib.org/</dc:title>
     </cc:Agent>
    </dc:creator>
   </cc:Work>
  </rdf:RDF>
 </metadata>
 <defs>
  <style type="text/css">*{stroke-linejoin: round; stroke-linecap: butt}</style>
 </defs>
 <g id="figure_1">
  <g id="patch_1">
   <path d="M 0 418.280156 
L 1478.5 418.280156 
L 1478.5 -0 
L 0 -0 
z
" style="fill: #ffffff"/>
  </g>
  <g id="axes_1">
   <g id="patch_2">
    <path d="M 121.92 336.640156 
L 422.86382 336.640156 
L 422.86382 31.720156 
L 121.92 31.720156 
z
" style="fill: #ffffff"/>
   </g>
   <g id="matplotlib.axis_1">
    <g id="xtick_1">
     <g id="line2d_1">
      <defs>
       <path id="m1cbb2657b6" d="M 0 0 
L 0 5 
" style="stroke: #000000; stroke-width: 1.6"/>
      </defs>
      <g>
       <use xlink:href="#m1cbb2657b6" x="121.92" y="336.640156" style="stroke: #000000; stroke-width: 1.6"/>
      </g>
     </g>
     <g id="text_1">
      <!-- -1 -->
      <g transform="translate(105.9675 369.455156) scale(0.32 -0.32)">
       <defs>
        <path id="DejaVuSans-2d" d="M 313 2009 
L 1997 2009 
L 1997 1497 
L 313 1497 
L 313 2009 
z
" transform="scale(0.015625)"/>
        <path id="DejaVuSans-31" d="M 794 531 
L 1825 531 
L 1825 4091 
L 703 3866 
L 703 4441 
L 1819 4666 
L 2450 4666 
L 2450 531 
L 3481 531 
L 3481 0 
L 794 0 
L 794 531 
z
" transform="scale(0.015625)"/>
       </defs>
       <use xlink:href="#DejaVuSans-2d"/>
       <use xlink:href="#DejaVuSans-31" transform="translate(36.083984 0)"/>
      </g>
     </g>
    </g>
    <g id="xtick_2">
     <g id="line2d_2">
      <g>
       <use xlink:href="#m1cbb2657b6" x="197.155955" y="336.640156" style="stroke: #000000; stroke-width: 1.6"/>
      </g>
     </g>
     <g id="text_2">
      <!-- 0 -->
      <g transform="translate(186.975955 369.455156) scale(0.32 -0.32)">
       <defs>
        <path id="DejaVuSans-30" d="M 2034 4250 
Q 1547 4250 1301 3770 
Q 1056 3291 1056 2328 
Q 1056 1369 1301 889 
Q 1547 409 2034 409 
Q 2525 409 2770 889 
Q 3016 1369 3016 2328 
Q 3016 3291 2770 3770 
Q 2525 4250 2034 4250 
z
M 2034 4750 
Q 2819 4750 3233 4129 
Q 3647 3509 3647 2328 
Q 3647 1150 3233 529 
Q 2819 -91 2034 -91 
Q 1250 -91 836 529 
Q 422 1150 422 2328 
Q 422 3509 836 4129 
Q 1250 4750 2034 4750 
z
" transform="scale(0.015625)"/>
       </defs>
       <use xlink:href="#DejaVuSans-30"/>
      </g>
     </g>
    </g>
    <g id="xtick_3">
     <g id="line2d_3">
      <g>
       <use xlink:href="#m1cbb2657b6" x="272.39191" y="336.640156" style="stroke: #000000; stroke-width: 1.6"/>
      </g>
     </g>
     <g id="text_3">
      <!-- 1 -->
      <g transform="translate(262.21191 369.455156) scale(0.32 -0.32)">
       <use xlink:href="#DejaVuSans-31"/>
      </g>
     </g>
    </g>
    <g id="xtick_4">
     <g id="line2d_4">
      <g>
       <use xlink:href="#m1cbb2657b6" x="347.627865" y="336.640156" style="stroke: #000000; stroke-width: 1.6"/>
      </g>
     </g>
     <g id="text_4">
      <!-- 2 -->
      <g transform="translate(337.447865 369.455156) scale(0.32 -0.32)">
       <defs>
        <path id="DejaVuSans-32" d="M 1228 531 
L 3431 531 
L 3431 0 
L 469 0 
L 469 531 
Q 828 903 1448 1529 
Q 2069 2156 2228 2338 
Q 2531 2678 2651 2914 
Q 2772 3150 2772 3378 
Q 2772 3750 2511 3984 
Q 2250 4219 1831 4219 
Q 1534 4219 1204 4116 
Q 875 4013 500 3803 
L 500 4441 
Q 881 4594 1212 4672 
Q 1544 4750 1819 4750 
Q 2544 4750 2975 4387 
Q 3406 4025 3406 3419 
Q 3406 3131 3298 2873 
Q 3191 2616 2906 2266 
Q 2828 2175 2409 1742 
Q 1991 1309 1228 531 
z
" transform="scale(0.015625)"/>
       </defs>
       <use xlink:href="#DejaVuSans-32"/>
      </g>
     </g>
    </g>
    <g id="xtick_5">
     <g id="line2d_5">
      <g>
       <use xlink:href="#m1cbb2657b6" x="422.86382" y="336.640156" style="stroke: #000000; stroke-width: 1.6"/>
      </g>
     </g>
     <g id="text_5">
      <!-- 3 -->
      <g transform="translate(412.68382 369.455156) scale(0.32 -0.32)">
       <defs>
        <path id="DejaVuSans-33" d="M 2597 2516 
Q 3050 2419 3304 2112 
Q 3559 1806 3559 1356 
Q 3559 666 3084 287 
Q 2609 -91 1734 -91 
Q 1441 -91 1130 -33 
Q 819 25 488 141 
L 488 750 
Q 750 597 1062 519 
Q 1375 441 1716 441 
Q 2309 441 2620 675 
Q 2931 909 2931 1356 
Q 2931 1769 2642 2001 
Q 2353 2234 1838 2234 
L 1294 2234 
L 1294 2753 
L 1863 2753 
Q 2328 2753 2575 2939 
Q 2822 3125 2822 3475 
Q 2822 3834 2567 4026 
Q 2313 4219 1838 4219 
Q 1578 4219 1281 4162 
Q 984 4106 628 3988 
L 628 4550 
Q 988 4650 1302 4700 
Q 1616 4750 1894 4750 
Q 2613 4750 3031 4423 
Q 3450 4097 3450 3541 
Q 3450 3153 3228 2886 
Q 3006 2619 2597 2516 
z
" transform="scale(0.015625)"/>
       </defs>
       <use xlink:href="#DejaVuSans-33"/>
      </g>
     </g>
    </g>
    <g id="text_6">
     <!-- Time (s) -->
     <g transform="translate(207.33941 404.425156) scale(0.32 -0.32)">
      <defs>
       <path id="DejaVuSans-54" d="M -19 4666 
L 3928 4666 
L 3928 4134 
L 2272 4134 
L 2272 0 
L 1638 0 
L 1638 4134 
L -19 4134 
L -19 4666 
z
" transform="scale(0.015625)"/>
       <path id="DejaVuSans-69" d="M 603 3500 
L 1178 3500 
L 1178 0 
L 603 0 
L 603 3500 
z
M 603 4863 
L 1178 4863 
L 1178 4134 
L 603 4134 
L 603 4863 
z
" transform="scale(0.015625)"/>
       <path id="DejaVuSans-6d" d="M 3328 2828 
Q 3544 3216 3844 3400 
Q 4144 3584 4550 3584 
Q 5097 3584 5394 3201 
Q 5691 2819 5691 2113 
L 5691 0 
L 5113 0 
L 5113 2094 
Q 5113 2597 4934 2840 
Q 4756 3084 4391 3084 
Q 3944 3084 3684 2787 
Q 3425 2491 3425 1978 
L 3425 0 
L 2847 0 
L 2847 2094 
Q 2847 2600 2669 2842 
Q 2491 3084 2119 3084 
Q 1678 3084 1418 2786 
Q 1159 2488 1159 1978 
L 1159 0 
L 581 0 
L 581 3500 
L 1159 3500 
L 1159 2956 
Q 1356 3278 1631 3431 
Q 1906 3584 2284 3584 
Q 2666 3584 2933 3390 
Q 3200 3197 3328 2828 
z
" transform="scale(0.015625)"/>
       <path id="DejaVuSans-65" d="M 3597 1894 
L 3597 1613 
L 953 1613 
Q 991 1019 1311 708 
Q 1631 397 2203 397 
Q 2534 397 2845 478 
Q 3156 559 3463 722 
L 3463 178 
Q 3153 47 2828 -22 
Q 2503 -91 2169 -91 
Q 1331 -91 842 396 
Q 353 884 353 1716 
Q 353 2575 817 3079 
Q 1281 3584 2069 3584 
Q 2775 3584 3186 3129 
Q 3597 2675 3597 1894 
z
M 3022 2063 
Q 3016 2534 2758 2815 
Q 2500 3097 2075 3097 
Q 1594 3097 1305 2825 
Q 1016 2553 972 2059 
L 3022 2063 
z
" transform="scale(0.015625)"/>
       <path id="DejaVuSans-20" transform="scale(0.015625)"/>
       <path id="DejaVuSans-28" d="M 1984 4856 
Q 1566 4138 1362 3434 
Q 1159 2731 1159 2009 
Q 1159 1288 1364 580 
Q 1569 -128 1984 -844 
L 1484 -844 
Q 1016 -109 783 600 
Q 550 1309 550 2009 
Q 550 2706 781 3412 
Q 1013 4119 1484 4856 
L 1984 4856 
z
" transform="scale(0.015625)"/>
       <path id="DejaVuSans-73" d="M 2834 3397 
L 2834 2853 
Q 2591 2978 2328 3040 
Q 2066 3103 1784 3103 
Q 1356 3103 1142 2972 
Q 928 2841 928 2578 
Q 928 2378 1081 2264 
Q 1234 2150 1697 2047 
L 1894 2003 
Q 2506 1872 2764 1633 
Q 3022 1394 3022 966 
Q 3022 478 2636 193 
Q 2250 -91 1575 -91 
Q 1294 -91 989 -36 
Q 684 19 347 128 
L 347 722 
Q 666 556 975 473 
Q 1284 391 1588 391 
Q 1994 391 2212 530 
Q 2431 669 2431 922 
Q 2431 1156 2273 1281 
Q 2116 1406 1581 1522 
L 1381 1569 
Q 847 1681 609 1914 
Q 372 2147 372 2553 
Q 372 3047 722 3315 
Q 1072 3584 1716 3584 
Q 2034 3584 2315 3537 
Q 2597 3491 2834 3397 
z
" transform="scale(0.015625)"/>
       <path id="DejaVuSans-29" d="M 513 4856 
L 1013 4856 
Q 1481 4119 1714 3412 
Q 1947 2706 1947 2009 
Q 1947 1309 1714 600 
Q 1481 -109 1013 -844 
L 513 -844 
Q 928 -128 1133 580 
Q 1338 1288 1338 2009 
Q 1338 2731 1133 3434 
Q 928 4138 513 4856 
z
" transform="scale(0.015625)"/>
      </defs>
      <use xlink:href="#DejaVuSans-54"/>
      <use xlink:href="#DejaVuSans-69" transform="translate(57.958984 0)"/>
      <use xlink:href="#DejaVuSans-6d" transform="translate(85.742188 0)"/>
      <use xlink:href="#DejaVuSans-65" transform="translate(183.154297 0)"/>
      <use xlink:href="#DejaVuSans-20" transform="translate(244.677734 0)"/>
      <use xlink:href="#DejaVuSans-28" transform="translate(276.464844 0)"/>
      <use xlink:href="#DejaVuSans-73" transform="translate(315.478516 0)"/>
      <use xlink:href="#DejaVuSans-29" transform="translate(367.578125 0)"/>
     </g>
    </g>
   </g>
   <g id="matplotlib.axis_2">
    <g id="ytick_1">
     <g id="line2d_6">
      <defs>
       <path id="ma40151b3f5" d="M 0 0 
L -5 0 
" style="stroke: #000000; stroke-width: 1.6"/>
      </defs>
      <g>
       <use xlink:href="#ma40151b3f5" x="121.92" y="315.61231" style="stroke: #000000; stroke-width: 1.6"/>
      </g>
     </g>
     <g id="text_7">
      <!-- 0.00 -->
      <g transform="translate(42.17 327.76981) scale(0.32 -0.32)">
       <defs>
        <path id="DejaVuSans-2e" d="M 684 794 
L 1344 794 
L 1344 0 
L 684 0 
L 684 794 
z
" transform="scale(0.015625)"/>
       </defs>
       <use xlink:href="#DejaVuSans-30"/>
       <use xlink:href="#DejaVuSans-2e" transform="translate(63.623047 0)"/>
       <use xlink:href="#DejaVuSans-30" transform="translate(95.410156 0)"/>
       <use xlink:href="#DejaVuSans-30" transform="translate(159.033203 0)"/>
      </g>
     </g>
    </g>
    <g id="ytick_2">
     <g id="line2d_7">
      <g>
       <use xlink:href="#ma40151b3f5" x="121.92" y="217.284082" style="stroke: #000000; stroke-width: 1.6"/>
      </g>
     </g>
     <g id="text_8">
      <!-- 0.05 -->
      <g transform="translate(42.17 229.441582) scale(0.32 -0.32)">
       <defs>
        <path id="DejaVuSans-35" d="M 691 4666 
L 3169 4666 
L 3169 4134 
L 1269 4134 
L 1269 2991 
Q 1406 3038 1543 3061 
Q 1681 3084 1819 3084 
Q 2600 3084 3056 2656 
Q 3513 2228 3513 1497 
Q 3513 744 3044 326 
Q 2575 -91 1722 -91 
Q 1428 -91 1123 -41 
Q 819 9 494 109 
L 494 744 
Q 775 591 1075 516 
Q 1375 441 1709 441 
Q 2250 441 2565 725 
Q 2881 1009 2881 1497 
Q 2881 1984 2565 2268 
Q 2250 2553 1709 2553 
Q 1456 2553 1204 2497 
Q 953 2441 691 2322 
L 691 4666 
z
" transform="scale(0.015625)"/>
       </defs>
       <use xlink:href="#DejaVuSans-30"/>
       <use xlink:href="#DejaVuSans-2e" transform="translate(63.623047 0)"/>
       <use xlink:href="#DejaVuSans-30" transform="translate(95.410156 0)"/>
       <use xlink:href="#DejaVuSans-35" transform="translate(159.033203 0)"/>
      </g>
     </g>
    </g>
    <g id="ytick_3">
     <g id="line2d_8">
      <g>
       <use xlink:href="#ma40151b3f5" x="121.92" y="118.955853" style="stroke: #000000; stroke-width: 1.6"/>
      </g>
     </g>
     <g id="text_9">
      <!-- 0.10 -->
      <g transform="translate(42.17 131.113353) scale(0.32 -0.32)">
       <use xlink:href="#DejaVuSans-30"/>
       <use xlink:href="#DejaVuSans-2e" transform="translate(63.623047 0)"/>
       <use xlink:href="#DejaVuSans-31" transform="translate(95.410156 0)"/>
       <use xlink:href="#DejaVuSans-30" transform="translate(159.033203 0)"/>
      </g>
     </g>
    </g>
    <g id="text_10">
     <!-- Neural Activity -->
     <g transform="translate(31.515 301.885156) rotate(-90) scale(0.32 -0.32)">
      <defs>
       <path id="DejaVuSans-4e" d="M 628 4666 
L 1478 4666 
L 3547 763 
L 3547 4666 
L 4159 4666 
L 4159 0 
L 3309 0 
L 1241 3903 
L 1241 0 
L 628 0 
L 628 4666 
z
" transform="scale(0.015625)"/>
       <path id="DejaVuSans-75" d="M 544 1381 
L 544 3500 
L 1119 3500 
L 1119 1403 
Q 1119 906 1312 657 
Q 1506 409 1894 409 
Q 2359 409 2629 706 
Q 2900 1003 2900 1516 
L 2900 3500 
L 3475 3500 
L 3475 0 
L 2900 0 
L 2900 538 
Q 2691 219 2414 64 
Q 2138 -91 1772 -91 
Q 1169 -91 856 284 
Q 544 659 544 1381 
z
M 1991 3584 
L 1991 3584 
z
" transform="scale(0.015625)"/>
       <path id="DejaVuSans-72" d="M 2631 2963 
Q 2534 3019 2420 3045 
Q 2306 3072 2169 3072 
Q 1681 3072 1420 2755 
Q 1159 2438 1159 1844 
L 1159 0 
L 581 0 
L 581 3500 
L 1159 3500 
L 1159 2956 
Q 1341 3275 1631 3429 
Q 1922 3584 2338 3584 
Q 2397 3584 2469 3576 
Q 2541 3569 2628 3553 
L 2631 2963 
z
" transform="scale(0.015625)"/>
       <path id="DejaVuSans-61" d="M 2194 1759 
Q 1497 1759 1228 1600 
Q 959 1441 959 1056 
Q 959 750 1161 570 
Q 1363 391 1709 391 
Q 2188 391 2477 730 
Q 2766 1069 2766 1631 
L 2766 1759 
L 2194 1759 
z
M 3341 1997 
L 3341 0 
L 2766 0 
L 2766 531 
Q 2569 213 2275 61 
Q 1981 -91 1556 -91 
Q 1019 -91 701 211 
Q 384 513 384 1019 
Q 384 1609 779 1909 
Q 1175 2209 1959 2209 
L 2766 2209 
L 2766 2266 
Q 2766 2663 2505 2880 
Q 2244 3097 1772 3097 
Q 1472 3097 1187 3025 
Q 903 2953 641 2809 
L 641 3341 
Q 956 3463 1253 3523 
Q 1550 3584 1831 3584 
Q 2591 3584 2966 3190 
Q 3341 2797 3341 1997 
z
" transform="scale(0.015625)"/>
       <path id="DejaVuSans-6c" d="M 603 4863 
L 1178 4863 
L 1178 0 
L 603 0 
L 603 4863 
z
" transform="scale(0.015625)"/>
       <path id="DejaVuSans-41" d="M 2188 4044 
L 1331 1722 
L 3047 1722 
L 2188 4044 
z
M 1831 4666 
L 2547 4666 
L 4325 0 
L 3669 0 
L 3244 1197 
L 1141 1197 
L 716 0 
L 50 0 
L 1831 4666 
z
" transform="scale(0.015625)"/>
       <path id="DejaVuSans-63" d="M 3122 3366 
L 3122 2828 
Q 2878 2963 2633 3030 
Q 2388 3097 2138 3097 
Q 1578 3097 1268 2742 
Q 959 2388 959 1747 
Q 959 1106 1268 751 
Q 1578 397 2138 397 
Q 2388 397 2633 464 
Q 2878 531 3122 666 
L 3122 134 
Q 2881 22 2623 -34 
Q 2366 -91 2075 -91 
Q 1284 -91 818 406 
Q 353 903 353 1747 
Q 353 2603 823 3093 
Q 1294 3584 2113 3584 
Q 2378 3584 2631 3529 
Q 2884 3475 3122 3366 
z
" transform="scale(0.015625)"/>
       <path id="DejaVuSans-74" d="M 1172 4494 
L 1172 3500 
L 2356 3500 
L 2356 3053 
L 1172 3053 
L 1172 1153 
Q 1172 725 1289 603 
Q 1406 481 1766 481 
L 2356 481 
L 2356 0 
L 1766 0 
Q 1100 0 847 248 
Q 594 497 594 1153 
L 594 3053 
L 172 3053 
L 172 3500 
L 594 3500 
L 594 4494 
L 1172 4494 
z
" transform="scale(0.015625)"/>
       <path id="DejaVuSans-76" d="M 191 3500 
L 800 3500 
L 1894 563 
L 2988 3500 
L 3597 3500 
L 2284 0 
L 1503 0 
L 191 3500 
z
" transform="scale(0.015625)"/>
       <path id="DejaVuSans-79" d="M 2059 -325 
Q 1816 -950 1584 -1140 
Q 1353 -1331 966 -1331 
L 506 -1331 
L 506 -850 
L 844 -850 
Q 1081 -850 1212 -737 
Q 1344 -625 1503 -206 
L 1606 56 
L 191 3500 
L 800 3500 
L 1894 763 
L 2988 3500 
L 3597 3500 
L 2059 -325 
z
" transform="scale(0.015625)"/>
      </defs>
      <use xlink:href="#DejaVuSans-4e"/>
      <use xlink:href="#DejaVuSans-65" transform="translate(74.804688 0)"/>
      <use xlink:href="#DejaVuSans-75" transform="translate(136.328125 0)"/>
      <use xlink:href="#DejaVuSans-72" transform="translate(199.707031 0)"/>
      <use xlink:href="#DejaVuSans-61" transform="translate(240.820312 0)"/>
      <use xlink:href="#DejaVuSans-6c" transform="translate(302.099609 0)"/>
      <use xlink:href="#DejaVuSans-20" transform="translate(329.882812 0)"/>
      <use xlink:href="#DejaVuSans-41" transform="translate(361.669922 0)"/>
      <use xlink:href="#DejaVuSans-63" transform="translate(428.328125 0)"/>
      <use xlink:href="#DejaVuSans-74" transform="translate(483.308594 0)"/>
      <use xlink:href="#DejaVuSans-69" transform="translate(522.517578 0)"/>
      <use xlink:href="#DejaVuSans-76" transform="translate(550.300781 0)"/>
      <use xlink:href="#DejaVuSans-69" transform="translate(609.480469 0)"/>
      <use xlink:href="#DejaVuSans-74" transform="translate(637.263672 0)"/>
      <use xlink:href="#DejaVuSans-79" transform="translate(676.472656 0)"/>
     </g>
    </g>
   </g>
   <g id="line2d_9">
    <path d="M 122.67236 302.63734 
L 124.929438 304.487896 
L 127.186517 306.074515 
L 128.691236 307.004451 
L 129.443596 305.97936 
L 131.700674 307.35326 
L 134.710112 308.885262 
L 135.462472 309.221615 
L 136.214831 305.434254 
L 136.967191 302.982965 
L 137.719551 302.647112 
L 139.976629 304.496273 
L 142.233708 306.081698 
L 144.490787 307.441001 
L 146.747865 308.606435 
L 147.500225 308.826781 
L 150.509663 310.085454 
L 153.519101 311.110651 
L 155.77618 311.7527 
L 156.528539 310.987201 
L 160.290337 312.033489 
L 164.052135 312.843086 
L 164.804494 312.981548 
L 165.556854 311.442218 
L 166.309213 308.641544 
L 167.061573 308.990082 
L 167.813933 307.881135 
L 168.566292 308.267694 
L 169.318652 306.061384 
L 170.071011 304.599631 
L 170.823371 298.674156 
L 173.080449 301.089961 
L 173.832809 300.205372 
L 174.585169 300.975719 
L 175.337528 301.387095 
L 176.089888 299.381726 
L 178.346966 301.696614 
L 180.604045 303.68134 
L 182.861124 305.382995 
L 185.118202 306.841951 
L 185.870562 306.721236 
L 186.622921 306.403475 
L 188.88 307.716885 
L 191.889438 309.181437 
L 194.898876 310.374324 
L 197.908315 311.345938 
L 201.670112 312.311073 
L 205.43191 313.057876 
L 209.946067 313.734566 
L 215.212584 314.301012 
L 221.98382 314.785865 
L 230.259775 315.142228 
L 241.545169 315.394525 
L 259.601798 315.548719 
L 276.153708 315.591736 
L 276.906067 308.565503 
L 279.163146 309.570554 
L 279.915506 309.073306 
L 282.924944 310.286251 
L 284.429663 310.805541 
L 285.182022 309.425461 
L 286.686742 310.028679 
L 287.439101 309.90921 
L 288.191461 308.348083 
L 288.94382 305.382768 
L 289.69618 305.894246 
L 290.448539 305.811491 
L 292.705618 307.209333 
L 295.715056 308.768033 
L 297.972135 309.744199 
L 298.724494 307.99625 
L 299.476854 308.377053 
L 300.229213 302.922523 
L 300.981573 299.104729 
L 301.733933 298.545086 
L 303.238652 300.209141 
L 303.991011 298.308509 
L 306.24809 300.776464 
L 307.000449 299.079196 
L 307.752809 294.348676 
L 308.505169 286.876622 
L 309.257528 283.339944 
L 310.009888 284.953563 
L 310.762247 285.0149 
L 311.514607 282.66336 
L 313.771685 287.362704 
L 316.028764 291.391805 
L 318.285843 294.846256 
L 319.790562 296.870947 
L 320.542921 293.462888 
L 321.295281 291.932194 
L 323.55236 295.309572 
L 324.304719 296.324709 
L 325.057079 297.019176 
L 326.561798 298.832008 
L 327.314157 297.048272 
L 329.571236 299.695968 
L 331.828315 301.966037 
L 334.085393 303.912337 
L 335.590112 305.053085 
L 336.342472 300.394364 
L 337.847191 301.757105 
L 338.599551 302.449866 
L 339.35191 297.860092 
L 340.10427 297.206217 
L 342.361348 299.831386 
L 343.113708 300.620433 
L 343.866067 300.558707 
L 346.123146 302.705728 
L 348.380225 304.546529 
L 350.637303 306.124787 
L 352.894382 307.477945 
L 353.646742 307.884663 
L 354.399101 304.164967 
L 355.151461 297.759167 
L 355.90382 294.23928 
L 358.160899 297.287609 
L 360.417978 299.90117 
L 362.675056 302.141972 
L 364.932135 304.063179 
L 367.189213 305.710375 
L 369.446292 307.122639 
L 372.45573 308.69742 
L 373.20809 309.043165 
L 373.960449 308.519483 
L 376.969888 309.835158 
L 379.979326 310.906784 
L 381.484045 311.365572 
L 382.236404 308.880344 
L 385.245843 310.071647 
L 388.255281 311.099405 
L 392.017079 312.120311 
L 395.778876 312.910268 
L 400.293034 313.626061 
L 402.550112 313.90935 
L 403.302472 307.891516 
L 404.054831 308.277556 
L 404.807191 306.11068 
L 407.06427 307.465851 
L 407.816629 307.873174 
L 408.568989 305.034813 
L 410.826067 306.543429 
L 413.083146 307.836878 
L 416.092584 309.279173 
L 416.844944 309.59583 
L 417.597303 308.886749 
L 420.606742 310.134299 
L 421.359101 308.066008 
L 422.111461 308.443323 
L 422.111461 308.443323 
" clip-path="url(#p3df0fe28cd)" style="fill: none; stroke: #000000; stroke-width: 5; stroke-linecap: square"/>
   </g>
   <g id="line2d_10">
    <path d="M 122.67236 305.921479 
L 124.929438 307.303634 
L 127.938876 308.844841 
L 130.948315 310.100165 
L 132.453034 310.637599 
L 133.205393 310.564721 
L 135.462472 311.284634 
L 136.214831 306.553341 
L 136.967191 307.00629 
L 137.719551 295.161465 
L 138.47191 292.757667 
L 139.22427 291.358834 
L 139.976629 287.537091 
L 140.728989 278.003089 
L 141.481348 265.185287 
L 143.738427 272.377443 
L 145.995506 278.543819 
L 148.252584 283.830714 
L 150.509663 288.363565 
L 152.766742 292.249918 
L 153.519101 292.163956 
L 154.271461 291.145401 
L 155.02382 292.368746 
L 155.77618 292.317303 
L 158.033258 295.623931 
L 160.290337 298.474777 
L 161.795056 300.145687 
L 162.547416 291.174639 
L 163.299775 285.482324 
L 164.052135 286.988824 
L 164.804494 284.455184 
L 165.556854 286.013041 
L 166.309213 284.944825 
L 167.061573 286.4782 
L 167.813933 284.339466 
L 169.318652 287.38857 
L 170.071011 276.085114 
L 171.57573 279.939017 
L 172.32809 281.226291 
L 174.585169 286.130599 
L 176.842247 290.335429 
L 177.594607 290.748402 
L 178.346966 283.762483 
L 180.604045 288.305067 
L 182.861124 292.199762 
L 185.118202 295.538977 
L 185.870562 293.086988 
L 188.12764 296.299662 
L 190.384719 299.05413 
L 192.641798 301.41574 
L 193.394157 296.863031 
L 195.651236 299.537147 
L 196.403596 297.310979 
L 197.155955 298.226045 
L 197.908315 297.659872 
L 200.165393 300.220341 
L 202.422472 302.415622 
L 204.679551 304.2978 
L 205.43191 303.618885 
L 206.18427 304.218557 
L 206.936629 302.396514 
L 207.688989 292.828661 
L 208.441348 285.425912 
L 209.193708 274.306938 
L 211.450787 280.198116 
L 213.707865 285.249069 
L 215.964944 289.579628 
L 217.469663 292.117815 
L 218.222022 290.863336 
L 218.974382 284.915911 
L 219.726742 281.584127 
L 221.98382 286.437398 
L 224.240899 290.598469 
L 226.497978 294.166069 
L 228.755056 297.22484 
L 229.507416 297.100462 
L 231.764494 299.740715 
L 234.021573 302.004402 
L 234.773933 295.452019 
L 237.031011 298.327381 
L 237.783371 297.961673 
L 238.53573 292.42473 
L 239.28809 293.58411 
L 240.040449 294.213626 
L 242.297528 297.265615 
L 244.554607 299.882315 
L 245.306966 300.668815 
L 246.059326 296.14609 
L 247.564045 298.044047 
L 250.573483 301.253229 
L 251.325843 296.789879 
L 252.078202 295.076494 
L 254.335281 298.005417 
L 256.59236 300.5166 
L 257.344719 301.271386 
L 258.097079 294.73703 
L 258.849438 293.836361 
L 261.106517 296.942156 
L 263.363596 299.604986 
L 265.620674 301.888031 
L 267.877753 303.845456 
L 269.382472 304.992725 
L 270.134831 301.572024 
L 272.39191 303.57452 
L 274.648989 305.29141 
L 276.906067 306.763429 
L 279.915506 308.404842 
L 280.667865 308.765216 
L 281.420225 308.287783 
L 282.172584 301.601342 
L 282.924944 293.27667 
L 284.429663 295.454396 
L 285.182022 285.956155 
L 285.934382 281.792413 
L 288.191461 286.615977 
L 290.448539 290.751578 
L 292.705618 294.297342 
L 294.210337 296.375552 
L 294.962697 290.923983 
L 295.715056 288.852857 
L 296.467416 282.9928 
L 298.724494 287.645157 
L 299.476854 289.043515 
L 300.229213 288.736099 
L 302.486292 292.569318 
L 304.743371 295.855826 
L 307.000449 298.673594 
L 307.752809 296.535036 
L 308.505169 291.359453 
L 309.257528 282.27067 
L 310.009888 282.144388 
L 312.266966 286.91775 
L 314.524045 291.010313 
L 316.028764 293.409009 
L 316.781124 291.678071 
L 318.285843 294.011658 
L 319.038202 294.457048 
L 321.295281 297.474318 
L 322.04764 298.381218 
L 322.8 296.399334 
L 323.55236 297.359983 
L 324.304719 290.581916 
L 325.057079 289.158179 
L 327.314157 292.9312 
L 328.818876 295.142608 
L 329.571236 290.799351 
L 330.323596 283.246702 
L 332.580674 287.862848 
L 334.837753 291.820617 
L 337.094831 295.213907 
L 339.35191 298.12323 
L 340.10427 298.997684 
L 340.856629 293.744185 
L 343.113708 296.862174 
L 344.618427 298.690314 
L 345.370787 294.197608 
L 347.627865 297.25188 
L 349.132584 299.042023 
L 349.884944 291.260211 
L 350.637303 281.44854 
L 351.389663 282.526785 
L 352.142022 282.701598 
L 352.894382 280.067101 
L 354.399101 283.532761 
L 355.151461 284.187444 
L 357.408539 288.669416 
L 359.665618 292.512148 
L 361.922697 295.806807 
L 364.179775 298.631568 
L 366.436854 301.053446 
L 367.941573 302.472936 
L 368.693933 300.375188 
L 369.446292 298.882241 
L 371.703371 301.268368 
L 373.960449 303.314174 
L 375.465169 304.513243 
L 376.217528 304.702227 
L 378.474607 306.258278 
L 380.731685 307.592397 
L 383.741124 309.080041 
L 386.750562 310.291737 
L 389.00764 311.050583 
L 389.76 310.949369 
L 392.769438 311.814316 
L 393.521798 309.528408 
L 396.531236 310.656934 
L 397.283596 310.904703 
L 398.035955 307.595969 
L 398.788315 306.808745 
L 399.540674 298.825569 
L 401.797753 301.219778 
L 404.054831 303.272514 
L 406.31191 305.032478 
L 407.816629 306.064013 
L 408.568989 305.571307 
L 409.321348 305.335629 
L 411.578427 306.801341 
L 412.330787 293.346157 
L 413.083146 293.649531 
L 415.340225 296.781972 
L 417.597303 299.467651 
L 418.349663 298.566872 
L 420.606742 300.99798 
L 422.111461 302.422878 
L 422.111461 302.422878 
" clip-path="url(#p3df0fe28cd)" style="fill: none; stroke: #ff0000; stroke-width: 5; stroke-linecap: square"/>
   </g>
   <g id="patch_3">
    <path d="M 121.92 336.640156 
L 121.92 31.720156 
" style="fill: none; stroke: #000000; stroke-width: 5; stroke-linejoin: miter; stroke-linecap: square"/>
   </g>
   <g id="patch_4">
    <path d="M 121.92 336.640156 
L 422.86382 336.640156 
" style="fill: none; stroke: #000000; stroke-width: 5; stroke-linejoin: miter; stroke-linecap: square"/>
   </g>
   <g id="text_11">
    <!-- A -->
    <g transform="translate(85.806742 16.444681) scale(0.12 -0.12)">
     <defs>
      <path id="DejaVuSans-Bold-41" d="M 3419 850 
L 1538 850 
L 1241 0 
L 31 0 
L 1759 4666 
L 3194 4666 
L 4922 0 
L 3713 0 
L 3419 850 
z
M 1838 1716 
L 3116 1716 
L 2478 3572 
L 1838 1716 
z
" transform="scale(0.015625)"/>
     </defs>
     <use xlink:href="#DejaVuSans-Bold-41"/>
    </g>
   </g>
   <g id="patch_5">
    <path d="M 197.155955 330.541756 
L 272.39191 330.541756 
L 272.39191 319.869556 
L 197.155955 319.869556 
z
" style="fill: #8c5a2b; stroke: #8c5a2b; stroke-linejoin: miter"/>
   </g>
   <g id="text_12">
    <!-- Familiar | Naive -->
    <g transform="translate(198.799566 21.720156) scale(0.19 -0.19)">
     <defs>
      <path id="DejaVuSans-46" d="M 628 4666 
L 3309 4666 
L 3309 4134 
L 1259 4134 
L 1259 2759 
L 3109 2759 
L 3109 2228 
L 1259 2228 
L 1259 0 
L 628 0 
L 628 4666 
z
" transform="scale(0.015625)"/>
      <path id="DejaVuSans-7c" d="M 1344 4891 
L 1344 -1509 
L 813 -1509 
L 813 4891 
L 1344 4891 
z
" transform="scale(0.015625)"/>
     </defs>
     <use xlink:href="#DejaVuSans-46"/>
     <use xlink:href="#DejaVuSans-61" transform="translate(48.394531 0)"/>
     <use xlink:href="#DejaVuSans-6d" transform="translate(109.673828 0)"/>
     <use xlink:href="#DejaVuSans-69" transform="translate(207.085938 0)"/>
     <use xlink:href="#DejaVuSans-6c" transform="translate(234.869141 0)"/>
     <use xlink:href="#DejaVuSans-69" transform="translate(262.652344 0)"/>
     <use xlink:href="#DejaVuSans-61" transform="translate(290.435547 0)"/>
     <use xlink:href="#DejaVuSans-72" transform="translate(351.714844 0)"/>
     <use xlink:href="#DejaVuSans-20" transform="translate(392.828125 0)"/>
     <use xlink:href="#DejaVuSans-7c" transform="translate(424.615234 0)"/>
     <use xlink:href="#DejaVuSans-20" transform="translate(458.306641 0)"/>
     <use xlink:href="#DejaVuSans-4e" transform="translate(490.09375 0)"/>
     <use xlink:href="#DejaVuSans-61" transform="translate(564.898438 0)"/>
     <use xlink:href="#DejaVuSans-69" transform="translate(626.177734 0)"/>
     <use xlink:href="#DejaVuSans-76" transform="translate(653.960938 0)"/>
     <use xlink:href="#DejaVuSans-65" transform="translate(713.140625 0)"/>
    </g>
   </g>
   <g id="legend_1">
    <g id="line2d_11">
     <path d="M 130.92 46.867813 
L 145.92 46.867813 
L 160.92 46.867813 
" style="fill: none; stroke: #000000; stroke-width: 5; stroke-linecap: square"/>
    </g>
    <g id="text_13">
     <!-- Nonoccluded (NO) -->
     <g transform="translate(172.92 52.117813) scale(0.15 -0.15)">
      <defs>
       <path id="DejaVuSans-6f" d="M 1959 3097 
Q 1497 3097 1228 2736 
Q 959 2375 959 1747 
Q 959 1119 1226 758 
Q 1494 397 1959 397 
Q 2419 397 2687 759 
Q 2956 1122 2956 1747 
Q 2956 2369 2687 2733 
Q 2419 3097 1959 3097 
z
M 1959 3584 
Q 2709 3584 3137 3096 
Q 3566 2609 3566 1747 
Q 3566 888 3137 398 
Q 2709 -91 1959 -91 
Q 1206 -91 779 398 
Q 353 888 353 1747 
Q 353 2609 779 3096 
Q 1206 3584 1959 3584 
z
" transform="scale(0.015625)"/>
       <path id="DejaVuSans-6e" d="M 3513 2113 
L 3513 0 
L 2938 0 
L 2938 2094 
Q 2938 2591 2744 2837 
Q 2550 3084 2163 3084 
Q 1697 3084 1428 2787 
Q 1159 2491 1159 1978 
L 1159 0 
L 581 0 
L 581 3500 
L 1159 3500 
L 1159 2956 
Q 1366 3272 1645 3428 
Q 1925 3584 2291 3584 
Q 2894 3584 3203 3211 
Q 3513 2838 3513 2113 
z
" transform="scale(0.015625)"/>
       <path id="DejaVuSans-64" d="M 2906 2969 
L 2906 4863 
L 3481 4863 
L 3481 0 
L 2906 0 
L 2906 525 
Q 2725 213 2448 61 
Q 2172 -91 1784 -91 
Q 1150 -91 751 415 
Q 353 922 353 1747 
Q 353 2572 751 3078 
Q 1150 3584 1784 3584 
Q 2172 3584 2448 3432 
Q 2725 3281 2906 2969 
z
M 947 1747 
Q 947 1113 1208 752 
Q 1469 391 1925 391 
Q 2381 391 2643 752 
Q 2906 1113 2906 1747 
Q 2906 2381 2643 2742 
Q 2381 3103 1925 3103 
Q 1469 3103 1208 2742 
Q 947 2381 947 1747 
z
" transform="scale(0.015625)"/>
       <path id="DejaVuSans-4f" d="M 2522 4238 
Q 1834 4238 1429 3725 
Q 1025 3213 1025 2328 
Q 1025 1447 1429 934 
Q 1834 422 2522 422 
Q 3209 422 3611 934 
Q 4013 1447 4013 2328 
Q 4013 3213 3611 3725 
Q 3209 4238 2522 4238 
z
M 2522 4750 
Q 3503 4750 4090 4092 
Q 4678 3434 4678 2328 
Q 4678 1225 4090 567 
Q 3503 -91 2522 -91 
Q 1538 -91 948 565 
Q 359 1222 359 2328 
Q 359 3434 948 4092 
Q 1538 4750 2522 4750 
z
" transform="scale(0.015625)"/>
      </defs>
      <use xlink:href="#DejaVuSans-4e"/>
      <use xlink:href="#DejaVuSans-6f" transform="translate(74.804688 0)"/>
      <use xlink:href="#DejaVuSans-6e" transform="translate(135.986328 0)"/>
      <use xlink:href="#DejaVuSans-6f" transform="translate(199.365234 0)"/>
      <use xlink:href="#DejaVuSans-63" transform="translate(260.546875 0)"/>
      <use xlink:href="#DejaVuSans-63" transform="translate(315.527344 0)"/>
      <use xlink:href="#DejaVuSans-6c" transform="translate(370.507812 0)"/>
      <use xlink:href="#DejaVuSans-75" transform="translate(398.291016 0)"/>
      <use xlink:href="#DejaVuSans-64" transform="translate(461.669922 0)"/>
      <use xlink:href="#DejaVuSans-65" transform="translate(525.146484 0)"/>
      <use xlink:href="#DejaVuSans-64" transform="translate(586.669922 0)"/>
      <use xlink:href="#DejaVuSans-20" transform="translate(650.146484 0)"/>
      <use xlink:href="#DejaVuSans-28" transform="translate(681.933594 0)"/>
      <use xlink:href="#DejaVuSans-4e" transform="translate(720.947266 0)"/>
      <use xlink:href="#DejaVuSans-4f" transform="translate(795.751953 0)"/>
      <use xlink:href="#DejaVuSans-29" transform="translate(874.462891 0)"/>
     </g>
    </g>
    <g id="line2d_12">
     <path d="M 130.92 68.885 
L 145.92 68.885 
L 160.92 68.885 
" style="fill: none; stroke: #ff0000; stroke-width: 5; stroke-linecap: square"/>
    </g>
    <g id="text_14">
     <!-- Occluded (O) -->
     <g transform="translate(172.92 74.135) scale(0.15 -0.15)">
      <use xlink:href="#DejaVuSans-4f"/>
      <use xlink:href="#DejaVuSans-63" transform="translate(78.710938 0)"/>
      <use xlink:href="#DejaVuSans-63" transform="translate(133.691406 0)"/>
      <use xlink:href="#DejaVuSans-6c" transform="translate(188.671875 0)"/>
      <use xlink:href="#DejaVuSans-75" transform="translate(216.455078 0)"/>
      <use xlink:href="#DejaVuSans-64" transform="translate(279.833984 0)"/>
      <use xlink:href="#DejaVuSans-65" transform="translate(343.310547 0)"/>
      <use xlink:href="#DejaVuSans-64" transform="translate(404.833984 0)"/>
      <use xlink:href="#DejaVuSans-20" transform="translate(468.310547 0)"/>
      <use xlink:href="#DejaVuSans-28" transform="translate(500.097656 0)"/>
      <use xlink:href="#DejaVuSans-4f" transform="translate(539.111328 0)"/>
      <use xlink:href="#DejaVuSans-29" transform="translate(617.822266 0)"/>
     </g>
    </g>
    <g id="line2d_13">
     <path d="M 130.92 90.902188 
L 145.92 90.902188 
L 160.92 90.902188 
" style="fill: none; stroke: #0000ff; stroke-width: 5; stroke-linecap: square"/>
    </g>
    <g id="text_15">
     <!-- No feedback -->
     <g transform="translate(172.92 96.152188) scale(0.15 -0.15)">
      <defs>
       <path id="DejaVuSans-66" d="M 2375 4863 
L 2375 4384 
L 1825 4384 
Q 1516 4384 1395 4259 
Q 1275 4134 1275 3809 
L 1275 3500 
L 2222 3500 
L 2222 3053 
L 1275 3053 
L 1275 0 
L 697 0 
L 697 3053 
L 147 3053 
L 147 3500 
L 697 3500 
L 697 3744 
Q 697 4328 969 4595 
Q 1241 4863 1831 4863 
L 2375 4863 
z
" transform="scale(0.015625)"/>
       <path id="DejaVuSans-62" d="M 3116 1747 
Q 3116 2381 2855 2742 
Q 2594 3103 2138 3103 
Q 1681 3103 1420 2742 
Q 1159 2381 1159 1747 
Q 1159 1113 1420 752 
Q 1681 391 2138 391 
Q 2594 391 2855 752 
Q 3116 1113 3116 1747 
z
M 1159 2969 
Q 1341 3281 1617 3432 
Q 1894 3584 2278 3584 
Q 2916 3584 3314 3078 
Q 3713 2572 3713 1747 
Q 3713 922 3314 415 
Q 2916 -91 2278 -91 
Q 1894 -91 1617 61 
Q 1341 213 1159 525 
L 1159 0 
L 581 0 
L 581 4863 
L 1159 4863 
L 1159 2969 
z
" transform="scale(0.015625)"/>
       <path id="DejaVuSans-6b" d="M 581 4863 
L 1159 4863 
L 1159 1991 
L 2875 3500 
L 3609 3500 
L 1753 1863 
L 3688 0 
L 2938 0 
L 1159 1709 
L 1159 0 
L 581 0 
L 581 4863 
z
" transform="scale(0.015625)"/>
      </defs>
      <use xlink:href="#DejaVuSans-4e"/>
      <use xlink:href="#DejaVuSans-6f" transform="translate(74.804688 0)"/>
      <use xlink:href="#DejaVuSans-20" transform="translate(135.986328 0)"/>
      <use xlink:href="#DejaVuSans-66" transform="translate(167.773438 0)"/>
      <use xlink:href="#DejaVuSans-65" transform="translate(202.978516 0)"/>
      <use xlink:href="#DejaVuSans-65" transform="translate(264.501953 0)"/>
      <use xlink:href="#DejaVuSans-64" transform="translate(326.025391 0)"/>
      <use xlink:href="#DejaVuSans-62" transform="translate(389.501953 0)"/>
      <use xlink:href="#DejaVuSans-61" transform="translate(452.978516 0)"/>
      <use xlink:href="#DejaVuSans-63" transform="translate(514.257812 0)"/>
      <use xlink:href="#DejaVuSans-6b" transform="translate(569.238281 0)"/>
     </g>
    </g>
   </g>
  </g>
  <g id="axes_2">
   <g id="patch_6">
    <path d="M 468.005393 336.640156 
L 768.949213 336.640156 
L 768.949213 31.720156 
L 468.005393 31.720156 
z
" style="fill: #ffffff"/>
   </g>
   <g id="matplotlib.axis_3">
    <g id="xtick_6">
     <g id="line2d_14">
      <g>
       <use xlink:href="#m1cbb2657b6" x="468.005393" y="336.640156" style="stroke: #000000; stroke-width: 1.6"/>
      </g>
     </g>
     <g id="text_16">
      <!-- -1 -->
      <g transform="translate(452.052893 369.455156) scale(0.32 -0.32)">
       <use xlink:href="#DejaVuSans-2d"/>
       <use xlink:href="#DejaVuSans-31" transform="translate(36.083984 0)"/>
      </g>
     </g>
    </g>
    <g id="xtick_7">
     <g id="line2d_15">
      <g>
       <use xlink:href="#m1cbb2657b6" x="543.241348" y="336.640156" style="stroke: #000000; stroke-width: 1.6"/>
      </g>
     </g>
     <g id="text_17">
      <!-- 0 -->
      <g transform="translate(533.061348 369.455156) scale(0.32 -0.32)">
       <use xlink:href="#DejaVuSans-30"/>
      </g>
     </g>
    </g>
    <g id="xtick_8">
     <g id="line2d_16">
      <g>
       <use xlink:href="#m1cbb2657b6" x="618.477303" y="336.640156" style="stroke: #000000; stroke-width: 1.6"/>
      </g>
     </g>
     <g id="text_18">
      <!-- 1 -->
      <g transform="translate(608.297303 369.455156) scale(0.32 -0.32)">
       <use xlink:href="#DejaVuSans-31"/>
      </g>
     </g>
    </g>
    <g id="xtick_9">
     <g id="line2d_17">
      <g>
       <use xlink:href="#m1cbb2657b6" x="693.713258" y="336.640156" style="stroke: #000000; stroke-width: 1.6"/>
      </g>
     </g>
     <g id="text_19">
      <!-- 2 -->
      <g transform="translate(683.533258 369.455156) scale(0.32 -0.32)">
       <use xlink:href="#DejaVuSans-32"/>
      </g>
     </g>
    </g>
    <g id="xtick_10">
     <g id="line2d_18">
      <g>
       <use xlink:href="#m1cbb2657b6" x="768.949213" y="336.640156" style="stroke: #000000; stroke-width: 1.6"/>
      </g>
     </g>
     <g id="text_20">
      <!-- 3 -->
      <g transform="translate(758.769213 369.455156) scale(0.32 -0.32)">
       <use xlink:href="#DejaVuSans-33"/>
      </g>
     </g>
    </g>
    <g id="text_21">
     <!-- Time (s) -->
     <g transform="translate(553.424803 404.425156) scale(0.32 -0.32)">
      <use xlink:href="#DejaVuSans-54"/>
      <use xlink:href="#DejaVuSans-69" transform="translate(57.958984 0)"/>
      <use xlink:href="#DejaVuSans-6d" transform="translate(85.742188 0)"/>
      <use xlink:href="#DejaVuSans-65" transform="translate(183.154297 0)"/>
      <use xlink:href="#DejaVuSans-20" transform="translate(244.677734 0)"/>
      <use xlink:href="#DejaVuSans-28" transform="translate(276.464844 0)"/>
      <use xlink:href="#DejaVuSans-73" transform="translate(315.478516 0)"/>
      <use xlink:href="#DejaVuSans-29" transform="translate(367.578125 0)"/>
     </g>
    </g>
   </g>
   <g id="matplotlib.axis_4">
    <g id="ytick_4">
     <g id="line2d_19">
      <g>
       <use xlink:href="#ma40151b3f5" x="468.005393" y="315.61231" style="stroke: #000000; stroke-width: 1.6"/>
      </g>
     </g>
    </g>
    <g id="ytick_5">
     <g id="line2d_20">
      <g>
       <use xlink:href="#ma40151b3f5" x="468.005393" y="217.284082" style="stroke: #000000; stroke-width: 1.6"/>
      </g>
     </g>
    </g>
    <g id="ytick_6">
     <g id="line2d_21">
      <g>
       <use xlink:href="#ma40151b3f5" x="468.005393" y="118.955853" style="stroke: #000000; stroke-width: 1.6"/>
      </g>
     </g>
    </g>
   </g>
   <g id="line2d_22">
    <path d="M 468.757753 313.39585 
L 474.02427 314.064473 
L 476.281348 314.285234 
L 477.033708 312.348172 
L 480.795506 313.086583 
L 485.309663 313.755668 
L 490.57618 314.315748 
L 494.337978 314.609055 
L 495.090337 312.273194 
L 498.852135 313.028566 
L 503.366292 313.713021 
L 508.632809 314.285966 
L 515.404045 314.776382 
L 522.175281 315.085467 
L 522.92764 311.293148 
L 526.689438 312.270225 
L 530.451236 313.026269 
L 534.965393 313.711332 
L 540.23191 314.284786 
L 547.003146 314.775639 
L 555.279101 315.136411 
L 566.564494 315.39183 
L 584.621124 315.547932 
L 624.49618 315.608063 
L 644.057528 315.611191 
L 644.809888 313.831656 
L 645.562247 296.211784 
L 646.314607 291.841864 
L 647.066966 291.824023 
L 647.819326 284.07492 
L 650.076404 288.572941 
L 652.333483 292.429431 
L 653.838202 294.689763 
L 655.342921 294.809624 
L 657.6 297.776608 
L 659.857079 300.320426 
L 662.114157 302.501431 
L 662.866517 295.245447 
L 663.618876 296.26379 
L 664.371236 288.528652 
L 665.123596 288.46591 
L 666.628315 291.112683 
L 667.380674 290.809825 
L 669.637753 294.34728 
L 671.894831 297.380205 
L 674.15191 299.980558 
L 676.408989 302.210037 
L 678.666067 304.121537 
L 680.923146 305.760408 
L 683.180225 307.165536 
L 686.189663 308.73236 
L 689.199101 310.008548 
L 692.208539 311.048011 
L 692.960899 311.276226 
L 693.713258 310.727451 
L 697.475056 311.8325 
L 701.236854 312.687565 
L 705.751011 313.462354 
L 708.760449 313.861157 
L 709.512809 306.405112 
L 711.769888 307.718289 
L 714.779326 309.182581 
L 717.788764 310.375256 
L 720.798202 311.346697 
L 724.56 312.31166 
L 725.31236 312.240546 
L 727.569438 312.721444 
L 728.321798 312.698916 
L 732.835955 313.470698 
L 738.102472 314.116743 
L 739.607191 314.262561 
L 740.359551 308.830137 
L 743.368989 310.088188 
L 746.378427 311.112878 
L 750.140225 312.130736 
L 753.902022 312.918334 
L 758.41618 313.631991 
L 759.920899 313.825072 
L 760.673258 310.584418 
L 764.435056 311.716488 
L 765.939775 312.096331 
L 766.692135 310.124271 
L 767.444494 300.530081 
L 768.196854 297.413269 
L 768.196854 297.413269 
" clip-path="url(#p7f7932d594)" style="fill: none; stroke: #000000; stroke-width: 5; stroke-linecap: square"/>
   </g>
   <g id="line2d_23">
    <path d="M 468.757753 291.519312 
L 470.262472 293.868382 
L 471.014831 292.989995 
L 471.767191 294.121111 
L 472.519551 285.197142 
L 474.776629 289.535106 
L 477.033708 293.254367 
L 478.538427 292.626848 
L 479.290787 291.678389 
L 480.043146 292.875086 
L 480.795506 290.969972 
L 483.052584 294.484586 
L 485.309663 297.497928 
L 487.566742 300.081495 
L 489.82382 302.296578 
L 492.080899 304.195735 
L 494.337978 305.824025 
L 495.842697 306.778382 
L 496.595056 292.943764 
L 498.852135 296.176867 
L 500.356854 298.071823 
L 501.109213 295.094809 
L 501.861573 293.0502 
L 502.613933 294.178305 
L 503.366292 290.365002 
L 504.118652 291.627367 
L 504.871011 285.054911 
L 505.623371 276.968992 
L 506.37573 273.755472 
L 508.632809 279.725306 
L 509.385169 279.384986 
L 511.642247 284.55191 
L 512.394607 286.10493 
L 516.908764 293.76476 
L 517.661124 292.642536 
L 519.918202 295.918602 
L 522.175281 298.727418 
L 524.43236 301.135628 
L 525.937079 302.547105 
L 526.689438 298.169173 
L 527.441798 299.041331 
L 528.946517 294.124699 
L 529.698876 295.199081 
L 530.451236 292.861343 
L 531.203596 280.542047 
L 533.460674 285.543945 
L 534.965393 288.262063 
L 535.717753 279.221319 
L 536.470112 281.040869 
L 537.222472 269.53314 
L 537.974831 264.779814 
L 540.23191 272.029801 
L 542.488989 278.245757 
L 543.241348 234.479408 
L 543.993708 202.952919 
L 545.498427 153.719812 
L 546.250787 119.872189 
L 547.755506 68.869305 
L 548.507865 63.838729 
L 549.260225 56.554845 
L 550.012584 52.749122 
L 550.764944 57.514554 
L 551.517303 68.902155 
L 552.269663 70.156692 
L 553.022022 66.721227 
L 555.279101 102.219329 
L 556.031461 112.888979 
L 556.78382 111.577885 
L 557.53618 115.490656 
L 558.288539 100.055866 
L 559.793258 109.136561 
L 560.545618 104.407627 
L 561.297978 103.435669 
L 562.050337 107.811517 
L 562.802697 110.841942 
L 563.555056 119.803632 
L 564.307416 119.837464 
L 565.059775 115.186186 
L 565.812135 97.982264 
L 566.564494 93.465302 
L 568.069213 115.124633 
L 568.821573 117.02304 
L 569.573933 117.204198 
L 570.326292 109.001308 
L 571.831011 126.33131 
L 572.583371 119.753024 
L 573.33573 123.270219 
L 574.08809 115.345058 
L 574.840449 122.700064 
L 575.592809 128.421513 
L 576.345169 127.125261 
L 577.097528 131.516641 
L 577.849888 130.422484 
L 579.354607 148.478496 
L 580.106966 140.265364 
L 580.859326 130.586485 
L 581.611685 135.995889 
L 582.364045 144.867074 
L 583.116404 141.977045 
L 583.868764 136.502059 
L 584.621124 144.24168 
L 585.373483 146.67499 
L 586.125843 141.681396 
L 586.878202 135.499653 
L 587.630562 133.53833 
L 588.382921 128.295095 
L 589.88764 100.127544 
L 590.64 99.615763 
L 591.39236 106.58432 
L 592.144719 117.035729 
L 592.897079 119.617376 
L 593.649438 109.57265 
L 594.401798 109.114436 
L 595.154157 98.503145 
L 595.906517 102.000134 
L 596.658876 103.928945 
L 597.411236 101.281906 
L 598.163596 100.068526 
L 598.915955 92.370428 
L 599.668315 89.278875 
L 600.420674 93.709962 
L 601.173034 92.716802 
L 601.925393 101.427884 
L 602.677753 106.619251 
L 603.430112 105.393182 
L 604.182472 92.766033 
L 604.934831 93.941024 
L 606.439551 112.636378 
L 607.19191 104.726778 
L 607.94427 101.85379 
L 608.696629 94.715913 
L 609.448989 105.760729 
L 610.201348 112.862884 
L 610.953708 118.306149 
L 611.706067 126.393479 
L 612.458427 124.050851 
L 613.210787 120.273831 
L 613.963146 112.727485 
L 614.715506 114.574873 
L 615.467865 111.074045 
L 616.220225 100.991898 
L 616.972584 100.051705 
L 617.724944 105.372801 
L 619.982022 135.358217 
L 622.239101 161.066964 
L 624.49618 183.109006 
L 626.753258 202.007306 
L 629.010337 218.210229 
L 631.267416 232.102202 
L 633.524494 244.012837 
L 635.781573 254.224709 
L 638.038652 262.980118 
L 640.29573 270.486787 
L 642.552809 276.922816 
L 644.809888 282.440909 
L 647.066966 287.171984 
L 649.324045 291.228284 
L 651.581124 294.706056 
L 653.838202 297.687811 
L 654.590562 298.584037 
L 655.342921 290.561894 
L 657.6 294.13471 
L 659.857079 297.197951 
L 662.114157 299.8243 
L 664.371236 302.076065 
L 666.628315 304.006672 
L 668.885393 305.661927 
L 671.142472 307.0811 
L 674.15191 308.663587 
L 677.161348 309.952532 
L 680.170787 311.002386 
L 682.427865 311.659877 
L 683.180225 305.790769 
L 683.932584 306.281846 
L 684.684944 302.540949 
L 686.942022 304.405253 
L 689.199101 306.003659 
L 691.45618 307.374093 
L 694.465618 308.902232 
L 697.475056 310.146909 
L 700.484494 311.160707 
L 703.493933 311.986452 
L 704.246292 300.08052 
L 705.751011 292.940671 
L 707.25573 295.151156 
L 708.00809 294.078243 
L 708.760449 293.936367 
L 711.017528 297.027898 
L 711.769888 297.957118 
L 712.522247 288.821095 
L 713.274607 287.205984 
L 714.026966 288.6263 
L 714.779326 288.628925 
L 717.036404 292.477432 
L 719.293483 295.777045 
L 721.550562 298.606052 
L 723.055281 300.264163 
L 723.80764 297.527588 
L 726.064719 300.106921 
L 726.817079 299.499208 
L 728.321798 301.070236 
L 729.074157 299.571737 
L 730.578876 301.135694 
L 731.331236 301.550974 
L 733.588315 303.556472 
L 735.845393 305.275936 
L 738.102472 306.750162 
L 739.607191 307.614221 
L 740.359551 304.754644 
L 741.11191 305.297527 
L 741.86427 297.194283 
L 744.121348 299.821155 
L 746.378427 302.073369 
L 748.635506 304.004361 
L 750.892584 305.659945 
L 751.644944 301.832704 
L 752.397303 302.521684 
L 753.149663 300.750936 
L 755.406742 302.870539 
L 757.66382 304.687835 
L 758.41618 297.435177 
L 759.168539 292.316717 
L 759.920899 283.555267 
L 762.177978 288.127405 
L 764.435056 292.047442 
L 765.187416 292.051288 
L 767.444494 295.41168 
L 768.196854 296.421712 
L 768.196854 296.421712 
" clip-path="url(#p7f7932d594)" style="fill: none; stroke: #ff0000; stroke-width: 5; stroke-linecap: square"/>
   </g>
   <g id="patch_7">
    <path d="M 468.005393 336.640156 
L 468.005393 31.720156 
" style="fill: none; stroke: #000000; stroke-width: 5; stroke-linejoin: miter; stroke-linecap: square"/>
   </g>
   <g id="patch_8">
    <path d="M 468.005393 336.640156 
L 768.949213 336.640156 
" style="fill: none; stroke: #000000; stroke-width: 5; stroke-linejoin: miter; stroke-linecap: square"/>
   </g>
   <g id="patch_9">
    <path d="M 543.241348 330.541756 
L 618.477303 330.541756 
L 618.477303 319.869556 
L 543.241348 319.869556 
z
" style="fill: #8c5a2b; stroke: #8c5a2b; stroke-linejoin: miter"/>
   </g>
   <g id="text_22">
    <!-- Familiar | Expert -->
    <g transform="translate(540.789569 21.720156) scale(0.19 -0.19)">
     <defs>
      <path id="DejaVuSans-45" d="M 628 4666 
L 3578 4666 
L 3578 4134 
L 1259 4134 
L 1259 2753 
L 3481 2753 
L 3481 2222 
L 1259 2222 
L 1259 531 
L 3634 531 
L 3634 0 
L 628 0 
L 628 4666 
z
" transform="scale(0.015625)"/>
      <path id="DejaVuSans-78" d="M 3513 3500 
L 2247 1797 
L 3578 0 
L 2900 0 
L 1881 1375 
L 863 0 
L 184 0 
L 1544 1831 
L 300 3500 
L 978 3500 
L 1906 2253 
L 2834 3500 
L 3513 3500 
z
" transform="scale(0.015625)"/>
      <path id="DejaVuSans-70" d="M 1159 525 
L 1159 -1331 
L 581 -1331 
L 581 3500 
L 1159 3500 
L 1159 2969 
Q 1341 3281 1617 3432 
Q 1894 3584 2278 3584 
Q 2916 3584 3314 3078 
Q 3713 2572 3713 1747 
Q 3713 922 3314 415 
Q 2916 -91 2278 -91 
Q 1894 -91 1617 61 
Q 1341 213 1159 525 
z
M 3116 1747 
Q 3116 2381 2855 2742 
Q 2594 3103 2138 3103 
Q 1681 3103 1420 2742 
Q 1159 2381 1159 1747 
Q 1159 1113 1420 752 
Q 1681 391 2138 391 
Q 2594 391 2855 752 
Q 3116 1113 3116 1747 
z
" transform="scale(0.015625)"/>
     </defs>
     <use xlink:href="#DejaVuSans-46"/>
     <use xlink:href="#DejaVuSans-61" transform="translate(48.394531 0)"/>
     <use xlink:href="#DejaVuSans-6d" transform="translate(109.673828 0)"/>
     <use xlink:href="#DejaVuSans-69" transform="translate(207.085938 0)"/>
     <use xlink:href="#DejaVuSans-6c" transform="translate(234.869141 0)"/>
     <use xlink:href="#DejaVuSans-69" transform="translate(262.652344 0)"/>
     <use xlink:href="#DejaVuSans-61" transform="translate(290.435547 0)"/>
     <use xlink:href="#DejaVuSans-72" transform="translate(351.714844 0)"/>
     <use xlink:href="#DejaVuSans-20" transform="translate(392.828125 0)"/>
     <use xlink:href="#DejaVuSans-7c" transform="translate(424.615234 0)"/>
     <use xlink:href="#DejaVuSans-20" transform="translate(458.306641 0)"/>
     <use xlink:href="#DejaVuSans-45" transform="translate(490.09375 0)"/>
     <use xlink:href="#DejaVuSans-78" transform="translate(553.277344 0)"/>
     <use xlink:href="#DejaVuSans-70" transform="translate(612.457031 0)"/>
     <use xlink:href="#DejaVuSans-65" transform="translate(675.933594 0)"/>
     <use xlink:href="#DejaVuSans-72" transform="translate(737.457031 0)"/>
     <use xlink:href="#DejaVuSans-74" transform="translate(778.570312 0)"/>
    </g>
   </g>
  </g>
  <g id="axes_3">
   <g id="patch_10">
    <path d="M 814.090787 336.640156 
L 1115.034607 336.640156 
L 1115.034607 31.720156 
L 814.090787 31.720156 
z
" style="fill: #ffffff"/>
   </g>
   <g id="matplotlib.axis_5">
    <g id="xtick_11">
     <g id="line2d_24">
      <g>
       <use xlink:href="#m1cbb2657b6" x="814.090787" y="336.640156" style="stroke: #000000; stroke-width: 1.6"/>
      </g>
     </g>
     <g id="text_23">
      <!-- -1 -->
      <g transform="translate(798.138287 369.455156) scale(0.32 -0.32)">
       <use xlink:href="#DejaVuSans-2d"/>
       <use xlink:href="#DejaVuSans-31" transform="translate(36.083984 0)"/>
      </g>
     </g>
    </g>
    <g id="xtick_12">
     <g id="line2d_25">
      <g>
       <use xlink:href="#m1cbb2657b6" x="889.326742" y="336.640156" style="stroke: #000000; stroke-width: 1.6"/>
      </g>
     </g>
     <g id="text_24">
      <!-- 0 -->
      <g transform="translate(879.146742 369.455156) scale(0.32 -0.32)">
       <use xlink:href="#DejaVuSans-30"/>
      </g>
     </g>
    </g>
    <g id="xtick_13">
     <g id="line2d_26">
      <g>
       <use xlink:href="#m1cbb2657b6" x="964.562697" y="336.640156" style="stroke: #000000; stroke-width: 1.6"/>
      </g>
     </g>
     <g id="text_25">
      <!-- 1 -->
      <g transform="translate(954.382697 369.455156) scale(0.32 -0.32)">
       <use xlink:href="#DejaVuSans-31"/>
      </g>
     </g>
    </g>
    <g id="xtick_14">
     <g id="line2d_27">
      <g>
       <use xlink:href="#m1cbb2657b6" x="1039.798652" y="336.640156" style="stroke: #000000; stroke-width: 1.6"/>
      </g>
     </g>
     <g id="text_26">
      <!-- 2 -->
      <g transform="translate(1029.618652 369.455156) scale(0.32 -0.32)">
       <use xlink:href="#DejaVuSans-32"/>
      </g>
     </g>
    </g>
    <g id="xtick_15">
     <g id="line2d_28">
      <g>
       <use xlink:href="#m1cbb2657b6" x="1115.034607" y="336.640156" style="stroke: #000000; stroke-width: 1.6"/>
      </g>
     </g>
     <g id="text_27">
      <!-- 3 -->
      <g transform="translate(1104.854607 369.455156) scale(0.32 -0.32)">
       <use xlink:href="#DejaVuSans-33"/>
      </g>
     </g>
    </g>
    <g id="text_28">
     <!-- Time (s) -->
     <g transform="translate(899.510197 404.425156) scale(0.32 -0.32)">
      <use xlink:href="#DejaVuSans-54"/>
      <use xlink:href="#DejaVuSans-69" transform="translate(57.958984 0)"/>
      <use xlink:href="#DejaVuSans-6d" transform="translate(85.742188 0)"/>
      <use xlink:href="#DejaVuSans-65" transform="translate(183.154297 0)"/>
      <use xlink:href="#DejaVuSans-20" transform="translate(244.677734 0)"/>
      <use xlink:href="#DejaVuSans-28" transform="translate(276.464844 0)"/>
      <use xlink:href="#DejaVuSans-73" transform="translate(315.478516 0)"/>
      <use xlink:href="#DejaVuSans-29" transform="translate(367.578125 0)"/>
     </g>
    </g>
   </g>
   <g id="matplotlib.axis_6">
    <g id="ytick_7">
     <g id="line2d_29">
      <g>
       <use xlink:href="#ma40151b3f5" x="814.090787" y="315.61231" style="stroke: #000000; stroke-width: 1.6"/>
      </g>
     </g>
    </g>
    <g id="ytick_8">
     <g id="line2d_30">
      <g>
       <use xlink:href="#ma40151b3f5" x="814.090787" y="217.284082" style="stroke: #000000; stroke-width: 1.6"/>
      </g>
     </g>
    </g>
    <g id="ytick_9">
     <g id="line2d_31">
      <g>
       <use xlink:href="#ma40151b3f5" x="814.090787" y="118.955853" style="stroke: #000000; stroke-width: 1.6"/>
      </g>
     </g>
    </g>
   </g>
   <g id="line2d_32">
    <path d="M 814.843146 307.768278 
L 817.852584 309.223298 
L 820.109663 310.134531 
L 820.862022 306.929539 
L 822.366742 307.776109 
L 823.119101 303.095452 
L 823.871461 300.548457 
L 825.37618 302.017183 
L 826.128539 298.434183 
L 828.385618 300.884214 
L 829.890337 302.320204 
L 830.642697 301.878321 
L 832.147416 303.217385 
L 832.899775 299.630959 
L 833.652135 296.940845 
L 834.404494 292.091528 
L 836.661573 295.44618 
L 838.918652 298.322375 
L 841.17573 300.788353 
L 843.432809 302.90262 
L 844.185169 301.288191 
L 846.442247 303.331169 
L 847.194607 301.66646 
L 849.451685 303.655487 
L 850.956404 304.821277 
L 851.708764 303.603707 
L 852.461124 296.799295 
L 854.718202 299.482502 
L 856.975281 301.783017 
L 857.72764 296.216601 
L 859.984719 298.982915 
L 862.241798 301.354684 
L 864.498876 303.388179 
L 866.755955 305.131645 
L 869.013034 306.62645 
L 871.270112 307.908059 
L 873.527191 309.006878 
L 874.279551 308.946554 
L 875.03191 307.57768 
L 876.536629 308.361057 
L 877.288989 302.781785 
L 879.546067 304.611739 
L 880.298427 303.22912 
L 881.050787 303.84828 
L 881.803146 292.59154 
L 883.307865 280.143526 
L 884.060225 280.573623 
L 886.317303 285.571015 
L 888.574382 289.855655 
L 890.831461 293.5292 
L 893.088539 296.678804 
L 895.345618 299.379196 
L 897.602697 301.694444 
L 899.859775 303.67948 
L 902.116854 305.3814 
L 904.373933 306.840584 
L 907.383371 308.467685 
L 910.392809 309.792968 
L 913.402247 310.87242 
L 917.164045 311.944674 
L 920.925843 312.774363 
L 925.44 313.526158 
L 930.706517 314.155473 
L 936.725393 314.645814 
L 944.248989 315.033633 
L 954.782022 315.330104 
L 970.581573 315.516201 
L 971.333933 313.648327 
L 972.086292 308.802614 
L 975.09573 310.06577 
L 975.84809 310.343097 
L 976.600449 303.351393 
L 977.352809 298.950259 
L 978.857528 300.57481 
L 979.609888 296.865839 
L 980.362247 297.803163 
L 981.114607 296.328528 
L 981.866966 290.479914 
L 982.619326 291.736534 
L 983.371685 292.388979 
L 984.876404 294.653255 
L 985.628764 294.632735 
L 986.381124 295.681714 
L 987.133483 292.397378 
L 987.885843 293.558124 
L 988.638202 293.770204 
L 989.390562 294.862309 
L 990.142921 292.02441 
L 990.895281 290.12012 
L 993.15236 293.755945 
L 993.904719 294.631057 
L 996.161798 297.623509 
L 998.418876 300.189163 
L 1000.675955 302.38889 
L 1001.428315 302.018222 
L 1003.685393 303.95708 
L 1005.190112 305.093466 
L 1005.942472 303.032803 
L 1008.199551 304.826956 
L 1010.456629 306.365217 
L 1012.713708 307.684083 
L 1014.218427 308.457086 
L 1014.970787 303.49731 
L 1015.723146 304.10306 
L 1016.475506 302.260205 
L 1017.227865 291.993075 
L 1017.980225 286.826816 
L 1020.237303 290.932347 
L 1022.494382 294.45233 
L 1023.246742 294.915009 
L 1023.999101 295.949873 
L 1024.751461 293.160994 
L 1025.50382 288.610428 
L 1027.760899 292.461573 
L 1030.017978 295.763446 
L 1032.275056 298.59439 
L 1034.532135 301.021572 
L 1036.789213 303.102576 
L 1039.046292 304.886778 
L 1041.303371 306.416508 
L 1042.05573 304.134974 
L 1042.80809 298.155501 
L 1043.560449 298.613781 
L 1045.817528 301.038196 
L 1048.074607 303.11683 
L 1050.331685 304.898998 
L 1052.588764 306.426984 
L 1054.845843 307.737042 
L 1056.350562 308.504881 
L 1057.102921 308.499241 
L 1057.855281 305.843008 
L 1060.11236 307.236355 
L 1061.617079 308.053011 
L 1062.369438 307.188016 
L 1063.121798 303.755041 
L 1065.378876 305.446184 
L 1067.635955 306.896128 
L 1068.388315 307.331938 
L 1069.140674 304.76264 
L 1071.397753 306.310075 
L 1072.150112 306.775186 
L 1072.902472 299.274551 
L 1073.654831 294.354156 
L 1075.91191 297.3861 
L 1077.416629 299.163157 
L 1078.168989 298.368326 
L 1080.426067 300.82775 
L 1081.930787 302.269245 
L 1082.683146 302.310629 
L 1084.940225 304.207781 
L 1087.197303 305.834353 
L 1089.454382 307.228935 
L 1092.46382 308.783999 
L 1095.473258 310.050608 
L 1098.482697 311.082269 
L 1099.235056 311.308771 
L 1099.987416 304.363528 
L 1101.492135 305.460284 
L 1102.996854 290.606781 
L 1103.749213 287.611477 
L 1106.006292 291.605096 
L 1107.511011 293.945801 
L 1108.263371 286.259181 
L 1109.76809 274.753012 
L 1110.520449 262.770399 
L 1112.777528 270.30698 
L 1114.282247 274.72425 
L 1114.282247 274.72425 
" clip-path="url(#pee34230d4f)" style="fill: none; stroke: #000000; stroke-width: 5; stroke-linecap: square"/>
   </g>
   <g id="line2d_33">
    <path d="M 814.843146 287.408301 
L 815.595506 276.03159 
L 816.347865 270.368618 
L 817.100225 269.982569 
L 817.852584 271.714027 
L 820.109663 277.97502 
L 820.862022 277.854807 
L 822.366742 262.843366 
L 824.62382 270.369541 
L 826.880899 276.822292 
L 829.137978 282.354722 
L 831.395056 287.098086 
L 832.147416 288.523798 
L 832.899775 285.503055 
L 833.652135 280.332944 
L 835.909213 285.364663 
L 838.166292 289.678735 
L 840.423371 293.377512 
L 841.17573 289.793261 
L 841.92809 289.588764 
L 842.680449 279.930097 
L 843.432809 277.324688 
L 845.689888 282.785463 
L 847.946966 287.467395 
L 848.699326 287.150943 
L 850.956404 291.210247 
L 853.213483 294.690592 
L 855.470562 297.674553 
L 857.72764 300.232927 
L 859.23236 301.732418 
L 859.984719 298.68492 
L 860.737079 291.766587 
L 862.994157 295.167586 
L 863.746517 290.779734 
L 864.498876 290.375399 
L 865.251236 291.637245 
L 866.003596 291.608327 
L 868.260674 295.031895 
L 870.517753 297.967177 
L 872.022472 299.687578 
L 872.774831 293.192884 
L 873.527191 292.315805 
L 875.78427 295.63847 
L 878.041348 298.487238 
L 880.298427 300.929703 
L 881.803146 282.845247 
L 882.555506 283.282295 
L 884.812584 287.893364 
L 887.069663 291.84678 
L 889.326742 295.236341 
L 891.58382 298.142465 
L 893.840899 300.634103 
L 895.345618 302.094478 
L 896.097978 300.031287 
L 898.355056 302.253532 
L 900.612135 304.158828 
L 901.364494 298.949476 
L 902.116854 299.635429 
L 902.869213 296.078687 
L 905.126292 298.864669 
L 905.878652 299.702052 
L 906.631011 297.426912 
L 907.383371 296.350933 
L 908.88809 298.108096 
L 909.640449 298.017252 
L 911.897528 300.526747 
L 914.154607 302.678326 
L 916.411685 304.523036 
L 918.668764 306.104644 
L 920.173483 306.903288 
L 920.925843 305.160161 
L 921.678202 294.154688 
L 923.935281 297.215081 
L 926.19236 299.838987 
L 928.449438 302.088658 
L 930.706517 304.01747 
L 932.963596 305.671184 
L 935.220674 307.089037 
L 936.725393 307.920056 
L 937.477753 306.56633 
L 938.982472 307.448313 
L 939.734831 302.501929 
L 940.487191 303.157447 
L 941.239551 298.618407 
L 941.99191 299.468103 
L 942.74427 299.331377 
L 943.496629 295.625133 
L 944.248989 296.624492 
L 945.001348 297.206567 
L 945.753708 298.126855 
L 947.258427 290.182758 
L 948.763146 292.662139 
L 949.515506 289.295206 
L 950.267865 285.412502 
L 951.020225 286.167712 
L 953.277303 290.367249 
L 955.534382 293.967827 
L 957.039101 296.078165 
L 957.791461 288.02657 
L 958.54382 286.727294 
L 959.29618 288.171545 
L 960.048539 285.239543 
L 962.305618 289.57146 
L 964.562697 293.285538 
L 966.819775 296.469895 
L 967.572135 297.288477 
L 968.324494 297.346889 
L 969.076854 293.137552 
L 971.333933 296.308006 
L 973.591011 299.061282 
L 975.09573 300.675007 
L 975.84809 300.274797 
L 976.600449 294.385476 
L 977.352809 295.446817 
L 978.105169 294.151261 
L 980.362247 297.212144 
L 981.114607 298.132153 
L 981.866966 296.343871 
L 984.124045 299.092033 
L 986.381124 301.448238 
L 987.885843 302.829236 
L 988.638202 293.924935 
L 990.895281 297.018098 
L 993.15236 299.670098 
L 995.409438 301.943857 
L 996.161798 302.62728 
L 996.914157 302.142335 
L 997.666517 300.042828 
L 998.418876 289.785775 
L 999.171236 285.414002 
L 1001.428315 289.721037 
L 1003.685393 293.41378 
L 1005.942472 296.579847 
L 1008.199551 299.294354 
L 1010.456629 301.621702 
L 1012.713708 303.617113 
L 1013.466067 302.566774 
L 1015.723146 304.427394 
L 1017.980225 306.022643 
L 1020.237303 307.390369 
L 1023.246742 308.915488 
L 1023.999101 303.819532 
L 1026.25618 305.501478 
L 1028.513258 306.943535 
L 1030.770337 308.179919 
L 1031.522697 306.694226 
L 1032.275056 306.530975 
L 1034.532135 307.826201 
L 1035.284494 308.215506 
L 1036.036854 308.062776 
L 1036.789213 305.366445 
L 1039.046292 306.827762 
L 1039.798652 307.266989 
L 1040.551011 305.464395 
L 1042.05573 306.453817 
L 1042.80809 299.765133 
L 1043.560449 295.972593 
L 1044.312809 290.890792 
L 1045.065169 288.402041 
L 1045.817528 274.830013 
L 1048.074607 280.646586 
L 1050.331685 285.633574 
L 1052.588764 289.909292 
L 1054.845843 293.575185 
L 1057.102921 296.718231 
L 1059.36 299.412999 
L 1061.617079 301.723426 
L 1063.121798 303.077593 
L 1063.874157 297.052847 
L 1064.626517 297.980819 
L 1065.378876 291.293768 
L 1066.131236 291.231804 
L 1066.883596 289.933922 
L 1069.140674 293.596304 
L 1070.645393 295.742866 
L 1071.397753 294.587262 
L 1073.654831 297.58596 
L 1075.159551 299.270092 
L 1077.416629 301.600902 
L 1079.673708 303.599279 
L 1081.930787 305.312638 
L 1084.187865 306.78163 
L 1084.940225 307.223164 
L 1085.692584 305.028767 
L 1086.444944 305.424266 
L 1087.197303 300.569895 
L 1089.454382 302.715319 
L 1091.711461 304.554753 
L 1093.21618 305.632864 
L 1093.968539 304.905578 
L 1096.225618 306.432625 
L 1097.730337 307.327645 
L 1098.482697 293.201299 
L 1099.235056 294.236306 
L 1099.987416 291.298484 
L 1102.244494 294.766244 
L 1104.501573 297.739416 
L 1106.758652 300.288539 
L 1107.511011 300.251534 
L 1108.263371 301.019574 
L 1109.01573 293.000561 
L 1109.76809 288.693939 
L 1110.520449 285.788477 
L 1112.777528 290.042104 
L 1114.282247 292.535199 
L 1114.282247 292.535199 
" clip-path="url(#pee34230d4f)" style="fill: none; stroke: #ff0000; stroke-width: 5; stroke-linecap: square"/>
   </g>
   <g id="line2d_34">
    <path d="M 814.843146 298.425716 
L 817.100225 300.876954 
L 819.357303 302.978584 
L 820.109663 303.610271 
L 820.862022 297.050722 
L 823.119101 299.698069 
L 825.37618 301.967838 
L 827.633258 303.913881 
L 829.890337 305.582369 
L 830.642697 306.083866 
L 831.395056 306.048734 
L 833.652135 307.41274 
L 834.404494 304.975462 
L 836.661573 306.492543 
L 838.918652 307.793249 
L 841.92809 309.243637 
L 844.185169 310.151969 
L 844.937528 306.108094 
L 847.194607 307.463634 
L 847.946966 307.871068 
L 848.699326 307.855395 
L 850.204045 308.611694 
L 850.956404 307.857497 
L 852.461124 300.637611 
L 854.718202 302.773378 
L 856.222921 294.921366 
L 856.975281 295.955914 
L 857.72764 291.668983 
L 859.984719 295.083901 
L 862.241798 298.011765 
L 862.994157 298.668533 
L 863.746517 294.27828 
L 864.498876 294.904527 
L 866.755955 297.857975 
L 869.013034 300.390188 
L 869.765393 300.126269 
L 872.022472 302.334966 
L 874.279551 304.228648 
L 875.03191 296.863181 
L 876.536629 298.691222 
L 877.288989 297.129092 
L 878.041348 298.053254 
L 878.793708 296.271123 
L 879.546067 296.354206 
L 880.298427 297.015834 
L 882.555506 299.668158 
L 884.812584 301.942193 
L 887.069663 303.891894 
L 889.326742 305.563519 
L 891.58382 306.996728 
L 894.593258 308.594865 
L 897.602697 309.896557 
L 900.612135 310.956793 
L 904.373933 312.00996 
L 908.13573 312.82488 
L 912.649888 313.563293 
L 917.916404 314.181405 
L 923.935281 314.663019 
L 931.458876 315.043934 
L 941.99191 315.335127 
L 957.791461 315.517912 
L 966.819775 315.561301 
L 967.572135 312.94329 
L 968.324494 312.357108 
L 969.076854 309.413299 
L 969.829213 309.723249 
L 970.581573 308.544758 
L 971.333933 305.45736 
L 972.086292 305.119887 
L 974.343371 306.616369 
L 976.600449 307.899416 
L 978.105169 308.651423 
L 978.857528 304.149375 
L 979.609888 302.598619 
L 980.362247 302.834884 
L 981.114607 303.473755 
L 981.866966 300.231522 
L 986.381124 303.979086 
L 987.133483 304.560747 
L 987.885843 301.818758 
L 988.638202 302.0772 
L 989.390562 298.687742 
L 991.64764 301.10161 
L 992.4 297.793343 
L 993.15236 290.709484 
L 995.409438 294.261251 
L 997.666517 297.306448 
L 999.923596 299.917322 
L 1001.428315 301.447584 
L 1002.180674 297.560903 
L 1002.933034 295.073172 
L 1004.437753 277.122908 
L 1005.190112 268.126239 
L 1005.942472 267.183618 
L 1007.447191 271.905416 
L 1008.199551 270.890575 
L 1010.456629 277.269014 
L 1012.713708 282.73773 
L 1014.970787 287.426468 
L 1016.475506 289.976942 
L 1017.980225 292.476391 
L 1018.732584 289.26982 
L 1020.989663 293.02692 
L 1021.742022 291.078185 
L 1023.999101 294.549742 
L 1025.50382 296.603344 
L 1026.25618 296.17383 
L 1027.008539 297.145753 
L 1027.760899 297.717042 
L 1030.017978 300.269356 
L 1031.522697 301.765294 
L 1032.275056 300.296631 
L 1033.027416 301.062414 
L 1033.779775 298.428993 
L 1036.036854 300.879764 
L 1038.293933 302.980994 
L 1040.551011 304.782535 
L 1042.05573 300.716481 
L 1044.312809 302.841 
L 1046.569888 304.662509 
L 1048.826966 306.224225 
L 1051.084045 307.5632 
L 1054.093483 309.05626 
L 1056.350562 309.991316 
L 1057.102921 306.318282 
L 1059.36 307.643842 
L 1062.369438 309.121944 
L 1063.121798 302.174704 
L 1063.874157 302.846585 
L 1064.626517 299.380306 
L 1065.378876 278.99956 
L 1066.131236 279.653947 
L 1068.388315 284.782511 
L 1070.645393 289.179613 
L 1072.902472 292.949577 
L 1075.159551 296.18185 
L 1077.416629 298.95312 
L 1079.673708 301.329137 
L 1080.426067 302.043297 
L 1081.178427 299.475171 
L 1081.930787 299.771241 
L 1084.187865 302.030575 
L 1084.940225 302.709662 
L 1085.692584 300.189991 
L 1087.949663 302.3896 
L 1088.702022 296.593144 
L 1090.959101 299.305753 
L 1093.21618 301.631475 
L 1095.473258 303.625492 
L 1097.730337 305.335112 
L 1099.987416 306.800897 
L 1102.996854 308.435359 
L 1106.006292 309.766639 
L 1107.511011 310.336592 
L 1108.263371 310.173126 
L 1109.01573 310.445085 
L 1109.76809 307.448425 
L 1112.025169 308.6128 
L 1112.777528 305.764971 
L 1114.282247 306.725087 
L 1114.282247 306.725087 
" clip-path="url(#pee34230d4f)" style="fill: none; stroke: #0000ff; stroke-width: 5; stroke-linecap: square"/>
   </g>
   <g id="patch_11">
    <path d="M 814.090787 336.640156 
L 814.090787 31.720156 
" style="fill: none; stroke: #000000; stroke-width: 5; stroke-linejoin: miter; stroke-linecap: square"/>
   </g>
   <g id="patch_12">
    <path d="M 814.090787 336.640156 
L 1115.034607 336.640156 
" style="fill: none; stroke: #000000; stroke-width: 5; stroke-linejoin: miter; stroke-linecap: square"/>
   </g>
   <g id="patch_13">
    <path d="M 889.326742 330.541756 
L 964.562697 330.541756 
L 964.562697 319.869556 
L 889.326742 319.869556 
z
" style="fill: #8c5a2b; stroke: #8c5a2b; stroke-linejoin: miter"/>
   </g>
   <g id="text_29">
    <!-- Novel | Naive -->
    <g transform="translate(901.26004 21.720156) scale(0.19 -0.19)">
     <use xlink:href="#DejaVuSans-4e"/>
     <use xlink:href="#DejaVuSans-6f" transform="translate(74.804688 0)"/>
     <use xlink:href="#DejaVuSans-76" transform="translate(135.986328 0)"/>
     <use xlink:href="#DejaVuSans-65" transform="translate(195.166016 0)"/>
     <use xlink:href="#DejaVuSans-6c" transform="translate(256.689453 0)"/>
     <use xlink:href="#DejaVuSans-20" transform="translate(284.472656 0)"/>
     <use xlink:href="#DejaVuSans-7c" transform="translate(316.259766 0)"/>
     <use xlink:href="#DejaVuSans-20" transform="translate(349.951172 0)"/>
     <use xlink:href="#DejaVuSans-4e" transform="translate(381.738281 0)"/>
     <use xlink:href="#DejaVuSans-61" transform="translate(456.542969 0)"/>
     <use xlink:href="#DejaVuSans-69" transform="translate(517.822266 0)"/>
     <use xlink:href="#DejaVuSans-76" transform="translate(545.605469 0)"/>
     <use xlink:href="#DejaVuSans-65" transform="translate(604.785156 0)"/>
    </g>
   </g>
  </g>
  <g id="axes_4">
   <g id="patch_14">
    <path d="M 1160.17618 336.640156 
L 1461.12 336.640156 
L 1461.12 31.720156 
L 1160.17618 31.720156 
z
" style="fill: #ffffff"/>
   </g>
   <g id="matplotlib.axis_7">
    <g id="xtick_16">
     <g id="line2d_35">
      <g>
       <use xlink:href="#m1cbb2657b6" x="1160.17618" y="336.640156" style="stroke: #000000; stroke-width: 1.6"/>
      </g>
     </g>
     <g id="text_30">
      <!-- -1 -->
      <g transform="translate(1144.22368 369.455156) scale(0.32 -0.32)">
       <use xlink:href="#DejaVuSans-2d"/>
       <use xlink:href="#DejaVuSans-31" transform="translate(36.083984 0)"/>
      </g>
     </g>
    </g>
    <g id="xtick_17">
     <g id="line2d_36">
      <g>
       <use xlink:href="#m1cbb2657b6" x="1235.412135" y="336.640156" style="stroke: #000000; stroke-width: 1.6"/>
      </g>
     </g>
     <g id="text_31">
      <!-- 0 -->
      <g transform="translate(1225.232135 369.455156) scale(0.32 -0.32)">
       <use xlink:href="#DejaVuSans-30"/>
      </g>
     </g>
    </g>
    <g id="xtick_18">
     <g id="line2d_37">
      <g>
       <use xlink:href="#m1cbb2657b6" x="1310.64809" y="336.640156" style="stroke: #000000; stroke-width: 1.6"/>
      </g>
     </g>
     <g id="text_32">
      <!-- 1 -->
      <g transform="translate(1300.46809 369.455156) scale(0.32 -0.32)">
       <use xlink:href="#DejaVuSans-31"/>
      </g>
     </g>
    </g>
    <g id="xtick_19">
     <g id="line2d_38">
      <g>
       <use xlink:href="#m1cbb2657b6" x="1385.884045" y="336.640156" style="stroke: #000000; stroke-width: 1.6"/>
      </g>
     </g>
     <g id="text_33">
      <!-- 2 -->
      <g transform="translate(1375.704045 369.455156) scale(0.32 -0.32)">
       <use xlink:href="#DejaVuSans-32"/>
      </g>
     </g>
    </g>
    <g id="xtick_20">
     <g id="line2d_39">
      <g>
       <use xlink:href="#m1cbb2657b6" x="1461.12" y="336.640156" style="stroke: #000000; stroke-width: 1.6"/>
      </g>
     </g>
     <g id="text_34">
      <!-- 3 -->
      <g transform="translate(1450.94 369.455156) scale(0.32 -0.32)">
       <use xlink:href="#DejaVuSans-33"/>
      </g>
     </g>
    </g>
    <g id="text_35">
     <!-- Time (s) -->
     <g transform="translate(1245.59559 404.425156) scale(0.32 -0.32)">
      <use xlink:href="#DejaVuSans-54"/>
      <use xlink:href="#DejaVuSans-69" transform="translate(57.958984 0)"/>
      <use xlink:href="#DejaVuSans-6d" transform="translate(85.742188 0)"/>
      <use xlink:href="#DejaVuSans-65" transform="translate(183.154297 0)"/>
      <use xlink:href="#DejaVuSans-20" transform="translate(244.677734 0)"/>
      <use xlink:href="#DejaVuSans-28" transform="translate(276.464844 0)"/>
      <use xlink:href="#DejaVuSans-73" transform="translate(315.478516 0)"/>
      <use xlink:href="#DejaVuSans-29" transform="translate(367.578125 0)"/>
     </g>
    </g>
   </g>
   <g id="matplotlib.axis_8">
    <g id="ytick_10">
     <g id="line2d_40">
      <g>
       <use xlink:href="#ma40151b3f5" x="1160.17618" y="315.61231" style="stroke: #000000; stroke-width: 1.6"/>
      </g>
     </g>
    </g>
    <g id="ytick_11">
     <g id="line2d_41">
      <g>
       <use xlink:href="#ma40151b3f5" x="1160.17618" y="217.284082" style="stroke: #000000; stroke-width: 1.6"/>
      </g>
     </g>
    </g>
    <g id="ytick_12">
     <g id="line2d_42">
      <g>
       <use xlink:href="#ma40151b3f5" x="1160.17618" y="118.955853" style="stroke: #000000; stroke-width: 1.6"/>
      </g>
     </g>
    </g>
   </g>
   <g id="line2d_43">
    <path d="M 1160.928539 312.306904 
L 1164.690337 313.054649 
L 1169.204494 313.732195 
L 1174.471011 314.299355 
L 1181.242247 314.784821 
L 1189.518202 315.141634 
L 1200.803596 315.39425 
L 1201.555955 315.405153 
L 1202.308315 313.086089 
L 1206.822472 313.755306 
L 1212.088989 314.315495 
L 1218.860225 314.794993 
L 1227.13618 315.14742 
L 1230.145618 315.233654 
L 1230.897978 310.89643 
L 1234.659775 311.963252 
L 1238.421573 312.788739 
L 1242.93573 313.536726 
L 1248.202247 314.162853 
L 1254.221124 314.65071 
L 1261.744719 315.036565 
L 1272.277753 315.331533 
L 1288.077303 315.516688 
L 1318.171685 315.600021 
L 1321.933483 315.602801 
L 1322.685843 313.197557 
L 1326.44764 313.74382 
L 1327.2 311.851874 
L 1330.961798 312.702557 
L 1335.475955 313.473374 
L 1336.228315 312.548094 
L 1339.990112 313.241278 
L 1340.742472 310.130048 
L 1341.494831 300.616171 
L 1342.247191 293.304629 
L 1342.999551 292.638734 
L 1345.256629 295.91534 
L 1347.513708 298.724622 
L 1348.266067 298.478374 
L 1349.018427 296.387713 
L 1349.770787 296.488054 
L 1352.027865 299.215652 
L 1354.284944 301.554226 
L 1356.542022 303.559261 
L 1358.799101 305.278327 
L 1361.05618 306.752211 
L 1364.065618 308.395704 
L 1367.075056 309.73434 
L 1370.084494 310.824666 
L 1373.846292 311.907723 
L 1377.60809 312.745771 
L 1382.122247 313.505141 
L 1387.388764 314.140795 
L 1393.40764 314.636077 
L 1398.674157 314.93057 
L 1399.426517 312.892879 
L 1403.940674 313.613278 
L 1404.693034 310.636307 
L 1407.702472 311.559325 
L 1411.46427 312.476187 
L 1412.216629 312.632994 
L 1412.968989 312.321464 
L 1416.730787 313.065916 
L 1421.244944 313.740477 
L 1424.254382 314.08769 
L 1425.006742 312.236186 
L 1428.768539 312.999929 
L 1431.777978 313.48451 
L 1432.530337 311.840983 
L 1436.292135 312.694129 
L 1440.806292 313.467179 
L 1446.072809 314.114285 
L 1452.091685 314.61849 
L 1459.615281 315.017273 
L 1460.36764 315.047025 
L 1460.36764 315.047025 
" clip-path="url(#p74f7f1aaf9)" style="fill: none; stroke: #000000; stroke-width: 5; stroke-linecap: square"/>
   </g>
   <g id="line2d_44">
    <path d="M 1160.928539 307.34232 
L 1163.185618 308.521828 
L 1163.937978 307.397474 
L 1164.690337 307.808216 
L 1165.442697 306.023327 
L 1166.195056 306.502776 
L 1166.947416 298.823477 
L 1167.699775 289.228699 
L 1169.956854 292.991663 
L 1172.213933 296.217933 
L 1174.471011 298.984056 
L 1176.72809 301.35566 
L 1178.985169 303.389015 
L 1180.489888 304.580787 
L 1181.242247 300.809879 
L 1183.499326 302.921076 
L 1185.756404 304.731163 
L 1188.013483 306.283087 
L 1190.270562 307.613668 
L 1192.52764 308.754475 
L 1193.28 308.390711 
L 1196.289438 309.730273 
L 1198.546517 310.569198 
L 1199.298876 306.932115 
L 1202.308315 308.542238 
L 1203.060674 304.106964 
L 1204.565393 305.127387 
L 1206.822472 306.6228 
L 1207.574831 304.25772 
L 1208.327191 300.257577 
L 1210.58427 302.447547 
L 1212.088989 303.731112 
L 1212.841348 301.632054 
L 1215.098427 303.625988 
L 1217.355506 305.335538 
L 1218.107865 304.799629 
L 1218.860225 303.199486 
L 1219.612584 295.452391 
L 1220.364944 292.816978 
L 1221.117303 292.401629 
L 1221.869663 283.059929 
L 1224.126742 287.702712 
L 1226.38382 291.683318 
L 1228.640899 295.09619 
L 1230.897978 298.022301 
L 1231.650337 298.901801 
L 1232.402697 295.141696 
L 1233.155056 292.603316 
L 1234.659775 294.846693 
L 1235.412135 254.649483 
L 1236.164494 227.322645 
L 1236.916854 210.456145 
L 1237.669213 210.399024 
L 1239.173933 185.812383 
L 1239.926292 181.099376 
L 1240.678652 187.825017 
L 1241.431011 180.889851 
L 1242.93573 168.792285 
L 1243.68809 155.776402 
L 1244.440449 152.367369 
L 1245.192809 156.446177 
L 1245.945169 159.413202 
L 1246.697528 167.223154 
L 1247.449888 164.794679 
L 1248.202247 157.641257 
L 1248.954607 164.834548 
L 1249.706966 168.788857 
L 1250.459326 174.588079 
L 1251.211685 181.639289 
L 1251.964045 183.893873 
L 1252.716404 181.088123 
L 1254.221124 170.435762 
L 1255.725843 184.590475 
L 1256.478202 170.538238 
L 1257.230562 177.791939 
L 1257.982921 182.938457 
L 1258.735281 171.197243 
L 1259.48764 161.955039 
L 1261.744719 183.870415 
L 1264.001798 202.660106 
L 1265.506517 213.602445 
L 1266.258876 208.884559 
L 1267.011236 192.629321 
L 1267.763596 181.262541 
L 1268.515955 174.206085 
L 1269.268315 181.276402 
L 1270.020674 180.596532 
L 1270.773034 186.035401 
L 1271.525393 189.322662 
L 1272.277753 195.637145 
L 1273.030112 198.463305 
L 1273.782472 204.320754 
L 1275.287191 204.518308 
L 1276.79191 215.349973 
L 1278.296629 204.674301 
L 1279.048989 203.743691 
L 1279.801348 209.337124 
L 1280.553708 213.686731 
L 1281.306067 207.427889 
L 1282.058427 198.16126 
L 1282.810787 192.044265 
L 1283.563146 192.634947 
L 1284.315506 189.426325 
L 1285.067865 183.056567 
L 1285.820225 187.361031 
L 1286.572584 193.004619 
L 1287.324944 178.0389 
L 1288.077303 171.392174 
L 1288.829663 163.477621 
L 1289.582022 158.626416 
L 1290.334382 162.235465 
L 1291.086742 169.904303 
L 1291.839101 172.047194 
L 1292.591461 179.225452 
L 1293.34382 184.324672 
L 1294.09618 174.555082 
L 1294.848539 177.476056 
L 1295.600899 172.603444 
L 1296.353258 173.849996 
L 1297.105618 179.527167 
L 1297.857978 168.330292 
L 1298.610337 173.136178 
L 1299.362697 172.351473 
L 1300.867416 181.607391 
L 1301.619775 180.970057 
L 1302.372135 183.745828 
L 1303.876854 177.401492 
L 1304.629213 181.454219 
L 1305.381573 170.021035 
L 1306.133933 172.300748 
L 1306.886292 176.836582 
L 1307.638652 167.292399 
L 1308.391011 165.376922 
L 1309.143371 162.913708 
L 1311.400449 184.692351 
L 1313.657528 203.364811 
L 1315.914607 219.374114 
L 1318.171685 233.100087 
L 1320.428764 244.868399 
L 1322.685843 254.95825 
L 1324.942921 263.609035 
L 1327.2 271.026004 
L 1329.457079 277.385128 
L 1331.714157 282.83728 
L 1332.466517 283.504333 
L 1334.723596 288.083735 
L 1336.980674 292.01 
L 1339.237753 295.376281 
L 1339.990112 292.418492 
L 1340.742472 293.578183 
L 1341.494831 289.65644 
L 1343.75191 293.358397 
L 1346.008989 296.532362 
L 1348.266067 299.253641 
L 1349.770787 300.848612 
L 1350.523146 298.496062 
L 1351.275506 294.97036 
L 1352.027865 289.743021 
L 1354.284944 293.43263 
L 1356.542022 296.596007 
L 1358.799101 299.308207 
L 1361.05618 301.63358 
L 1363.313258 303.627297 
L 1364.817978 304.795835 
L 1365.570337 301.589883 
L 1367.827416 303.589832 
L 1370.084494 305.304538 
L 1372.341573 306.774685 
L 1373.846292 307.636353 
L 1374.598652 307.673459 
L 1377.60809 309.146066 
L 1380.617528 310.345514 
L 1381.369888 309.77255 
L 1382.122247 306.601315 
L 1384.379326 307.886508 
L 1385.131685 300.574766 
L 1387.388764 302.719496 
L 1389.645843 304.558333 
L 1391.902921 306.134908 
L 1394.16 307.486622 
L 1396.417079 308.645549 
L 1397.169438 303.237178 
L 1397.921798 294.139168 
L 1398.674157 293.211228 
L 1400.931236 296.406182 
L 1401.683596 294.113639 
L 1402.435955 292.629939 
L 1404.693034 295.9078 
L 1406.950112 298.718156 
L 1409.207191 301.127685 
L 1411.46427 303.193555 
L 1413.721348 304.96478 
L 1415.978427 306.483384 
L 1418.235506 307.785398 
L 1419.740225 308.529064 
L 1420.492584 307.134409 
L 1423.502022 308.707007 
L 1424.254382 309.052272 
L 1425.006742 309.058101 
L 1425.759101 308.199527 
L 1426.511461 307.541926 
L 1427.26382 305.313479 
L 1428.01618 301.518923 
L 1430.273258 303.528992 
L 1432.530337 305.252375 
L 1434.787416 306.729961 
L 1436.292135 307.59599 
L 1437.044494 302.079924 
L 1439.301573 304.009981 
L 1441.558652 305.664764 
L 1443.063371 306.634649 
L 1443.81573 306.694144 
L 1445.320449 307.563665 
L 1446.072809 307.285155 
L 1449.082247 308.82979 
L 1451.339326 309.797147 
L 1452.091685 309.48622 
L 1455.101124 310.622572 
L 1455.853483 310.872058 
L 1456.605843 308.158657 
L 1457.358202 307.093802 
L 1458.110562 305.256917 
L 1458.862921 305.375527 
L 1459.615281 305.887366 
L 1460.36764 304.282456 
L 1460.36764 304.282456 
" clip-path="url(#p74f7f1aaf9)" style="fill: none; stroke: #ff0000; stroke-width: 5; stroke-linecap: square"/>
   </g>
   <g id="line2d_45">
    <path d="M 1160.928539 312.711744 
L 1165.442697 313.480127 
L 1170.709213 314.123327 
L 1176.72809 314.624489 
L 1184.251685 315.020865 
L 1188.765843 315.177543 
L 1189.518202 314.565305 
L 1196.289438 314.952435 
L 1197.041798 309.751808 
L 1197.794157 301.354624 
L 1198.546517 300.755068 
L 1200.803596 302.874083 
L 1201.555955 303.510995 
L 1202.308315 302.784956 
L 1203.060674 303.426324 
L 1203.813034 292.801932 
L 1206.070112 296.055264 
L 1206.822472 294.664966 
L 1209.079551 297.652581 
L 1211.336629 300.214088 
L 1213.593708 302.41026 
L 1215.850787 304.293203 
L 1218.107865 305.907591 
L 1220.364944 307.291728 
L 1223.374382 308.835144 
L 1226.38382 310.092267 
L 1229.393258 311.1162 
L 1230.145618 307.035181 
L 1233.155056 308.626185 
L 1236.164494 309.922067 
L 1239.173933 310.977572 
L 1242.93573 312.026038 
L 1246.697528 312.837321 
L 1251.211685 313.572439 
L 1256.478202 314.187792 
L 1262.497079 314.667255 
L 1270.020674 315.046471 
L 1280.553708 315.336364 
L 1296.353258 315.518333 
L 1312.905169 315.581905 
L 1313.657528 309.608198 
L 1316.666966 310.721924 
L 1320.428764 311.828223 
L 1323.438202 312.530147 
L 1324.190562 312.298889 
L 1324.942921 309.896045 
L 1327.95236 310.956377 
L 1331.714157 312.009638 
L 1335.475955 312.824631 
L 1336.228315 309.756593 
L 1339.237753 310.842792 
L 1342.999551 311.921748 
L 1346.008989 312.606324 
L 1346.761348 308.978888 
L 1349.018427 309.92498 
L 1349.770787 307.779715 
L 1351.275506 308.543394 
L 1352.027865 305.19374 
L 1352.780225 305.714668 
L 1353.532584 303.11725 
L 1355.789663 304.899358 
L 1358.046742 306.427294 
L 1360.30382 307.737308 
L 1363.313258 309.198071 
L 1366.322697 310.387873 
L 1367.827416 310.897255 
L 1368.579775 309.137982 
L 1369.332135 306.020122 
L 1370.084494 295.211637 
L 1370.836854 290.367806 
L 1371.589213 287.578792 
L 1373.846292 291.577072 
L 1376.103371 295.0051 
L 1378.360449 297.944206 
L 1380.617528 300.464119 
L 1382.874607 302.62463 
L 1385.131685 304.476999 
L 1387.388764 306.065173 
L 1389.645843 307.426834 
L 1392.655281 308.945189 
L 1395.664719 310.181898 
L 1398.674157 311.189206 
L 1402.435955 312.189797 
L 1406.197753 312.964035 
L 1410.71191 313.665584 
L 1415.978427 314.252839 
L 1417.483146 314.385387 
L 1418.235506 307.153312 
L 1418.987865 297.807455 
L 1421.244944 300.346873 
L 1423.502022 302.524107 
L 1425.759101 304.390813 
L 1428.01618 305.991279 
L 1430.273258 307.363479 
L 1433.282697 308.893585 
L 1436.292135 310.139867 
L 1439.301573 311.154972 
L 1442.311011 311.98178 
L 1443.063371 310.753636 
L 1443.81573 303.862573 
L 1446.072809 305.53838 
L 1446.825169 304.698325 
L 1449.082247 306.254932 
L 1451.339326 307.589528 
L 1454.348764 309.077704 
L 1457.358202 310.289833 
L 1460.36764 311.27712 
L 1460.36764 311.27712 
" clip-path="url(#p74f7f1aaf9)" style="fill: none; stroke: #0000ff; stroke-width: 5; stroke-linecap: square"/>
   </g>
   <g id="patch_15">
    <path d="M 1160.17618 336.640156 
L 1160.17618 31.720156 
" style="fill: none; stroke: #000000; stroke-width: 5; stroke-linejoin: miter; stroke-linecap: square"/>
   </g>
   <g id="patch_16">
    <path d="M 1160.17618 336.640156 
L 1461.12 336.640156 
" style="fill: none; stroke: #000000; stroke-width: 5; stroke-linejoin: miter; stroke-linecap: square"/>
   </g>
   <g id="patch_17">
    <path d="M 1235.412135 330.541756 
L 1310.64809 330.541756 
L 1310.64809 319.869556 
L 1235.412135 319.869556 
z
" style="fill: #8c5a2b; stroke: #8c5a2b; stroke-linejoin: miter"/>
   </g>
   <g id="text_36">
    <!-- Novel | Expert -->
    <g transform="translate(1243.250043 21.720156) scale(0.19 -0.19)">
     <use xlink:href="#DejaVuSans-4e"/>
     <use xlink:href="#DejaVuSans-6f" transform="translate(74.804688 0)"/>
     <use xlink:href="#DejaVuSans-76" transform="translate(135.986328 0)"/>
     <use xlink:href="#DejaVuSans-65" transform="translate(195.166016 0)"/>
     <use xlink:href="#DejaVuSans-6c" transform="translate(256.689453 0)"/>
     <use xlink:href="#DejaVuSans-20" transform="translate(284.472656 0)"/>
     <use xlink:href="#DejaVuSans-7c" transform="translate(316.259766 0)"/>
     <use xlink:href="#DejaVuSans-20" transform="translate(349.951172 0)"/>
     <use xlink:href="#DejaVuSans-45" transform="translate(381.738281 0)"/>
     <use xlink:href="#DejaVuSans-78" transform="translate(444.921875 0)"/>
     <use xlink:href="#DejaVuSans-70" transform="translate(504.101562 0)"/>
     <use xlink:href="#DejaVuSans-65" transform="translate(567.578125 0)"/>
     <use xlink:href="#DejaVuSans-72" transform="translate(629.101562 0)"/>
     <use xlink:href="#DejaVuSans-74" transform="translate(670.214844 0)"/>
    </g>
   </g>
  </g>
 </g>
 <defs>
  <clipPath id="p3df0fe28cd">
   <rect x="121.92" y="31.720156" width="300.94382" height="304.92"/>
  </clipPath>
  <clipPath id="p7f7932d594">
   <rect x="468.005393" y="31.720156" width="300.94382" height="304.92"/>
  </clipPath>
  <clipPath id="pee34230d4f">
   <rect x="814.090787" y="31.720156" width="300.94382" height="304.92"/>
  </clipPath>
  <clipPath id="p74f7f1aaf9">
   <rect x="1160.17618" y="31.720156" width="300.94382" height="304.92"/>
  </clipPath>
 </defs>
</svg>
