<?xml version="1.0" encoding="utf-8" standalone="no"?>
<!DOCTYPE svg PUBLIC "-//W3C//DTD SVG 1.1//EN"
  "http://www.w3.org/Graphics/SVG/1.1/DTD/svg11.dtd">
<svg xmlns:xlink="http://www.w3.org/1999/xlink" width="872.39952pt" height="404.39952pt" viewBox="0 0 872.39952 404.39952" xmlns="http://www.w3.org/2000/svg" version="1.1">
 <metadata>
  <rdf:RDF xmlns:dc="http://purl.org/dc/elements/1.1/" xmlns:cc="http://creativecommons.org/ns#" xmlns:rdf="http://www.w3.org/1999/02/22-rdf-syntax-ns#">
   <cc:Work>
    <dc:type rdf:resource="http://purl.org/dc/dcmitype/StillImage"/>
    <dc:date>2026-03-25T17:17:29.824260</dc:date>
    <dc:format>image/svg+xml</dc:format>
    <dc:creator>
     <cc:Agent>
      <dc:title>Matplotlib v3.10.7, https://matplotlib.org/</dc:title>
     </cc:Agent>
    </dc:creator>
   </cc:Work>
  </rdf:RDF>
 </metadata>
 <defs>
  <style type="text/css">*{stroke-linejoin: round; stroke-linecap: butt}</style>
 </defs>
 <g id="figure_1">
  <g id="patch_1">
   <path d="M 0 404.39952 
L 872.39952 404.39952 
L 872.39952 0 
L 0 0 
z
" style="fill: #ffffff"/>
  </g>
  <g id="axes_1">
   <g id="patch_2">
    <path d="M 101.56 322.75952 
L 460.90351 322.75952 
L 460.90351 31.720156 
L 101.56 31.720156 
z
" style="fill: #ffffff"/>
   </g>
   <g id="matplotlib.axis_1">
    <g id="xtick_1">
     <g id="line2d_1">
      <defs>
       <path id="m7a0d7035d1" d="M 0 0 
L 0 5 
" style="stroke: #000000; stroke-width: 1.6"/>
      </defs>
      <g>
       <use xlink:href="#m7a0d7035d1" x="101.56" y="322.75952" style="stroke: #000000; stroke-width: 1.6"/>
      </g>
     </g>
     <g id="text_1">
      <!-- -1 -->
      <g transform="translate(85.6075 355.57452) scale(0.32 -0.32)">
       <defs>
        <path id="DejaVuSans-2d" d="M 313 2009 
L 1997 2009 
L 1997 1497 
L 313 1497 
L 313 2009 
z
" transform="scale(0.015625)"/>
        <path id="DejaVuSans-31" d="M 794 531 
L 1825 531 
L 1825 4091 
L 703 3866 
L 703 4441 
L 1819 4666 
L 2450 4666 
L 2450 531 
L 3481 531 
L 3481 0 
L 794 0 
L 794 531 
z
" transform="scale(0.015625)"/>
       </defs>
       <use xlink:href="#DejaVuSans-2d"/>
       <use xlink:href="#DejaVuSans-31" transform="translate(36.083984 0)"/>
      </g>
     </g>
    </g>
    <g id="xtick_2">
     <g id="line2d_2">
      <g>
       <use xlink:href="#m7a0d7035d1" x="191.395877" y="322.75952" style="stroke: #000000; stroke-width: 1.6"/>
      </g>
     </g>
     <g id="text_2">
      <!-- 0 -->
      <g transform="translate(181.215877 355.57452) scale(0.32 -0.32)">
       <defs>
        <path id="DejaVuSans-30" d="M 2034 4250 
Q 1547 4250 1301 3770 
Q 1056 3291 1056 2328 
Q 1056 1369 1301 889 
Q 1547 409 2034 409 
Q 2525 409 2770 889 
Q 3016 1369 3016 2328 
Q 3016 3291 2770 3770 
Q 2525 4250 2034 4250 
z
M 2034 4750 
Q 2819 4750 3233 4129 
Q 3647 3509 3647 2328 
Q 3647 1150 3233 529 
Q 2819 -91 2034 -91 
Q 1250 -91 836 529 
Q 422 1150 422 2328 
Q 422 3509 836 4129 
Q 1250 4750 2034 4750 
z
" transform="scale(0.015625)"/>
       </defs>
       <use xlink:href="#DejaVuSans-30"/>
      </g>
     </g>
    </g>
    <g id="xtick_3">
     <g id="line2d_3">
      <g>
       <use xlink:href="#m7a0d7035d1" x="281.231755" y="322.75952" style="stroke: #000000; stroke-width: 1.6"/>
      </g>
     </g>
     <g id="text_3">
      <!-- 1 -->
      <g transform="translate(271.051755 355.57452) scale(0.32 -0.32)">
       <use xlink:href="#DejaVuSans-31"/>
      </g>
     </g>
    </g>
    <g id="xtick_4">
     <g id="line2d_4">
      <g>
       <use xlink:href="#m7a0d7035d1" x="371.067632" y="322.75952" style="stroke: #000000; stroke-width: 1.6"/>
      </g>
     </g>
     <g id="text_4">
      <!-- 2 -->
      <g transform="translate(360.887632 355.57452) scale(0.32 -0.32)">
       <defs>
        <path id="DejaVuSans-32" d="M 1228 531 
L 3431 531 
L 3431 0 
L 469 0 
L 469 531 
Q 828 903 1448 1529 
Q 2069 2156 2228 2338 
Q 2531 2678 2651 2914 
Q 2772 3150 2772 3378 
Q 2772 3750 2511 3984 
Q 2250 4219 1831 4219 
Q 1534 4219 1204 4116 
Q 875 4013 500 3803 
L 500 4441 
Q 881 4594 1212 4672 
Q 1544 4750 1819 4750 
Q 2544 4750 2975 4387 
Q 3406 4025 3406 3419 
Q 3406 3131 3298 2873 
Q 3191 2616 2906 2266 
Q 2828 2175 2409 1742 
Q 1991 1309 1228 531 
z
" transform="scale(0.015625)"/>
       </defs>
       <use xlink:href="#DejaVuSans-32"/>
      </g>
     </g>
    </g>
    <g id="xtick_5">
     <g id="line2d_5">
      <g>
       <use xlink:href="#m7a0d7035d1" x="460.90351" y="322.75952" style="stroke: #000000; stroke-width: 1.6"/>
      </g>
     </g>
     <g id="text_5">
      <!-- 3 -->
      <g transform="translate(450.72351 355.57452) scale(0.32 -0.32)">
       <defs>
        <path id="DejaVuSans-33" d="M 2597 2516 
Q 3050 2419 3304 2112 
Q 3559 1806 3559 1356 
Q 3559 666 3084 287 
Q 2609 -91 1734 -91 
Q 1441 -91 1130 -33 
Q 819 25 488 141 
L 488 750 
Q 750 597 1062 519 
Q 1375 441 1716 441 
Q 2309 441 2620 675 
Q 2931 909 2931 1356 
Q 2931 1769 2642 2001 
Q 2353 2234 1838 2234 
L 1294 2234 
L 1294 2753 
L 1863 2753 
Q 2328 2753 2575 2939 
Q 2822 3125 2822 3475 
Q 2822 3834 2567 4026 
Q 2313 4219 1838 4219 
Q 1578 4219 1281 4162 
Q 984 4106 628 3988 
L 628 4550 
Q 988 4650 1302 4700 
Q 1616 4750 1894 4750 
Q 2613 4750 3031 4423 
Q 3450 4097 3450 3541 
Q 3450 3153 3228 2886 
Q 3006 2619 2597 2516 
z
" transform="scale(0.015625)"/>
       </defs>
       <use xlink:href="#DejaVuSans-33"/>
      </g>
     </g>
    </g>
    <g id="text_6">
     <!-- Time (s) -->
     <g transform="translate(216.179255 390.54452) scale(0.32 -0.32)">
      <defs>
       <path id="DejaVuSans-54" d="M -19 4666 
L 3928 4666 
L 3928 4134 
L 2272 4134 
L 2272 0 
L 1638 0 
L 1638 4134 
L -19 4134 
L -19 4666 
z
" transform="scale(0.015625)"/>
       <path id="DejaVuSans-69" d="M 603 3500 
L 1178 3500 
L 1178 0 
L 603 0 
L 603 3500 
z
M 603 4863 
L 1178 4863 
L 1178 4134 
L 603 4134 
L 603 4863 
z
" transform="scale(0.015625)"/>
       <path id="DejaVuSans-6d" d="M 3328 2828 
Q 3544 3216 3844 3400 
Q 4144 3584 4550 3584 
Q 5097 3584 5394 3201 
Q 5691 2819 5691 2113 
L 5691 0 
L 5113 0 
L 5113 2094 
Q 5113 2597 4934 2840 
Q 4756 3084 4391 3084 
Q 3944 3084 3684 2787 
Q 3425 2491 3425 1978 
L 3425 0 
L 2847 0 
L 2847 2094 
Q 2847 2600 2669 2842 
Q 2491 3084 2119 3084 
Q 1678 3084 1418 2786 
Q 1159 2488 1159 1978 
L 1159 0 
L 581 0 
L 581 3500 
L 1159 3500 
L 1159 2956 
Q 1356 3278 1631 3431 
Q 1906 3584 2284 3584 
Q 2666 3584 2933 3390 
Q 3200 3197 3328 2828 
z
" transform="scale(0.015625)"/>
       <path id="DejaVuSans-65" d="M 3597 1894 
L 3597 1613 
L 953 1613 
Q 991 1019 1311 708 
Q 1631 397 2203 397 
Q 2534 397 2845 478 
Q 3156 559 3463 722 
L 3463 178 
Q 3153 47 2828 -22 
Q 2503 -91 2169 -91 
Q 1331 -91 842 396 
Q 353 884 353 1716 
Q 353 2575 817 3079 
Q 1281 3584 2069 3584 
Q 2775 3584 3186 3129 
Q 3597 2675 3597 1894 
z
M 3022 2063 
Q 3016 2534 2758 2815 
Q 2500 3097 2075 3097 
Q 1594 3097 1305 2825 
Q 1016 2553 972 2059 
L 3022 2063 
z
" transform="scale(0.015625)"/>
       <path id="DejaVuSans-20" transform="scale(0.015625)"/>
       <path id="DejaVuSans-28" d="M 1984 4856 
Q 1566 4138 1362 3434 
Q 1159 2731 1159 2009 
Q 1159 1288 1364 580 
Q 1569 -128 1984 -844 
L 1484 -844 
Q 1016 -109 783 600 
Q 550 1309 550 2009 
Q 550 2706 781 3412 
Q 1013 4119 1484 4856 
L 1984 4856 
z
" transform="scale(0.015625)"/>
       <path id="DejaVuSans-73" d="M 2834 3397 
L 2834 2853 
Q 2591 2978 2328 3040 
Q 2066 3103 1784 3103 
Q 1356 3103 1142 2972 
Q 928 2841 928 2578 
Q 928 2378 1081 2264 
Q 1234 2150 1697 2047 
L 1894 2003 
Q 2506 1872 2764 1633 
Q 3022 1394 3022 966 
Q 3022 478 2636 193 
Q 2250 -91 1575 -91 
Q 1294 -91 989 -36 
Q 684 19 347 128 
L 347 722 
Q 666 556 975 473 
Q 1284 391 1588 391 
Q 1994 391 2212 530 
Q 2431 669 2431 922 
Q 2431 1156 2273 1281 
Q 2116 1406 1581 1522 
L 1381 1569 
Q 847 1681 609 1914 
Q 372 2147 372 2553 
Q 372 3047 722 3315 
Q 1072 3584 1716 3584 
Q 2034 3584 2315 3537 
Q 2597 3491 2834 3397 
z
" transform="scale(0.015625)"/>
       <path id="DejaVuSans-29" d="M 513 4856 
L 1013 4856 
Q 1481 4119 1714 3412 
Q 1947 2706 1947 2009 
Q 1947 1309 1714 600 
Q 1481 -109 1013 -844 
L 513 -844 
Q 928 -128 1133 580 
Q 1338 1288 1338 2009 
Q 1338 2731 1133 3434 
Q 928 4138 513 4856 
z
" transform="scale(0.015625)"/>
      </defs>
      <use xlink:href="#DejaVuSans-54"/>
      <use xlink:href="#DejaVuSans-69" transform="translate(57.958984 0)"/>
      <use xlink:href="#DejaVuSans-6d" transform="translate(85.742188 0)"/>
      <use xlink:href="#DejaVuSans-65" transform="translate(183.154297 0)"/>
      <use xlink:href="#DejaVuSans-20" transform="translate(244.677734 0)"/>
      <use xlink:href="#DejaVuSans-28" transform="translate(276.464844 0)"/>
      <use xlink:href="#DejaVuSans-73" transform="translate(315.478516 0)"/>
      <use xlink:href="#DejaVuSans-29" transform="translate(367.578125 0)"/>
     </g>
    </g>
   </g>
   <g id="matplotlib.axis_2">
    <g id="ytick_1">
     <g id="line2d_6">
      <defs>
       <path id="m349bcef1e6" d="M 0 0 
L -5 0 
" style="stroke: #000000; stroke-width: 1.6"/>
      </defs>
      <g>
       <use xlink:href="#m349bcef1e6" x="101.56" y="302.689869" style="stroke: #000000; stroke-width: 1.6"/>
      </g>
     </g>
     <g id="text_7">
      <!-- 0.0 -->
      <g transform="translate(42.17 314.847369) scale(0.32 -0.32)">
       <defs>
        <path id="DejaVuSans-2e" d="M 684 794 
L 1344 794 
L 1344 0 
L 684 0 
L 684 794 
z
" transform="scale(0.015625)"/>
       </defs>
       <use xlink:href="#DejaVuSans-30"/>
       <use xlink:href="#DejaVuSans-2e" transform="translate(63.623047 0)"/>
       <use xlink:href="#DejaVuSans-30" transform="translate(95.410156 0)"/>
      </g>
     </g>
    </g>
    <g id="ytick_2">
     <g id="line2d_7">
      <g>
       <use xlink:href="#m349bcef1e6" x="101.56" y="220.821902" style="stroke: #000000; stroke-width: 1.6"/>
      </g>
     </g>
     <g id="text_8">
      <!-- 0.1 -->
      <g transform="translate(42.17 232.979402) scale(0.32 -0.32)">
       <use xlink:href="#DejaVuSans-30"/>
       <use xlink:href="#DejaVuSans-2e" transform="translate(63.623047 0)"/>
       <use xlink:href="#DejaVuSans-31" transform="translate(95.410156 0)"/>
      </g>
     </g>
    </g>
    <g id="ytick_3">
     <g id="line2d_8">
      <g>
       <use xlink:href="#m349bcef1e6" x="101.56" y="138.953934" style="stroke: #000000; stroke-width: 1.6"/>
      </g>
     </g>
     <g id="text_9">
      <!-- 0.2 -->
      <g transform="translate(42.17 151.111434) scale(0.32 -0.32)">
       <use xlink:href="#DejaVuSans-30"/>
       <use xlink:href="#DejaVuSans-2e" transform="translate(63.623047 0)"/>
       <use xlink:href="#DejaVuSans-32" transform="translate(95.410156 0)"/>
      </g>
     </g>
    </g>
    <g id="ytick_4">
     <g id="line2d_9">
      <g>
       <use xlink:href="#m349bcef1e6" x="101.56" y="57.085967" style="stroke: #000000; stroke-width: 1.6"/>
      </g>
     </g>
     <g id="text_10">
      <!-- 0.3 -->
      <g transform="translate(42.17 69.243467) scale(0.32 -0.32)">
       <use xlink:href="#DejaVuSans-30"/>
       <use xlink:href="#DejaVuSans-2e" transform="translate(63.623047 0)"/>
       <use xlink:href="#DejaVuSans-33" transform="translate(95.410156 0)"/>
      </g>
     </g>
    </g>
    <g id="text_11">
     <!-- Neural Activity -->
     <g transform="translate(31.515 294.944838) rotate(-90) scale(0.32 -0.32)">
      <defs>
       <path id="DejaVuSans-4e" d="M 628 4666 
L 1478 4666 
L 3547 763 
L 3547 4666 
L 4159 4666 
L 4159 0 
L 3309 0 
L 1241 3903 
L 1241 0 
L 628 0 
L 628 4666 
z
" transform="scale(0.015625)"/>
       <path id="DejaVuSans-75" d="M 544 1381 
L 544 3500 
L 1119 3500 
L 1119 1403 
Q 1119 906 1312 657 
Q 1506 409 1894 409 
Q 2359 409 2629 706 
Q 2900 1003 2900 1516 
L 2900 3500 
L 3475 3500 
L 3475 0 
L 2900 0 
L 2900 538 
Q 2691 219 2414 64 
Q 2138 -91 1772 -91 
Q 1169 -91 856 284 
Q 544 659 544 1381 
z
M 1991 3584 
L 1991 3584 
z
" transform="scale(0.015625)"/>
       <path id="DejaVuSans-72" d="M 2631 2963 
Q 2534 3019 2420 3045 
Q 2306 3072 2169 3072 
Q 1681 3072 1420 2755 
Q 1159 2438 1159 1844 
L 1159 0 
L 581 0 
L 581 3500 
L 1159 3500 
L 1159 2956 
Q 1341 3275 1631 3429 
Q 1922 3584 2338 3584 
Q 2397 3584 2469 3576 
Q 2541 3569 2628 3553 
L 2631 2963 
z
" transform="scale(0.015625)"/>
       <path id="DejaVuSans-61" d="M 2194 1759 
Q 1497 1759 1228 1600 
Q 959 1441 959 1056 
Q 959 750 1161 570 
Q 1363 391 1709 391 
Q 2188 391 2477 730 
Q 2766 1069 2766 1631 
L 2766 1759 
L 2194 1759 
z
M 3341 1997 
L 3341 0 
L 2766 0 
L 2766 531 
Q 2569 213 2275 61 
Q 1981 -91 1556 -91 
Q 1019 -91 701 211 
Q 384 513 384 1019 
Q 384 1609 779 1909 
Q 1175 2209 1959 2209 
L 2766 2209 
L 2766 2266 
Q 2766 2663 2505 2880 
Q 2244 3097 1772 3097 
Q 1472 3097 1187 3025 
Q 903 2953 641 2809 
L 641 3341 
Q 956 3463 1253 3523 
Q 1550 3584 1831 3584 
Q 2591 3584 2966 3190 
Q 3341 2797 3341 1997 
z
" transform="scale(0.015625)"/>
       <path id="DejaVuSans-6c" d="M 603 4863 
L 1178 4863 
L 1178 0 
L 603 0 
L 603 4863 
z
" transform="scale(0.015625)"/>
       <path id="DejaVuSans-41" d="M 2188 4044 
L 1331 1722 
L 3047 1722 
L 2188 4044 
z
M 1831 4666 
L 2547 4666 
L 4325 0 
L 3669 0 
L 3244 1197 
L 1141 1197 
L 716 0 
L 50 0 
L 1831 4666 
z
" transform="scale(0.015625)"/>
       <path id="DejaVuSans-63" d="M 3122 3366 
L 3122 2828 
Q 2878 2963 2633 3030 
Q 2388 3097 2138 3097 
Q 1578 3097 1268 2742 
Q 959 2388 959 1747 
Q 959 1106 1268 751 
Q 1578 397 2138 397 
Q 2388 397 2633 464 
Q 2878 531 3122 666 
L 3122 134 
Q 2881 22 2623 -34 
Q 2366 -91 2075 -91 
Q 1284 -91 818 406 
Q 353 903 353 1747 
Q 353 2603 823 3093 
Q 1294 3584 2113 3584 
Q 2378 3584 2631 3529 
Q 2884 3475 3122 3366 
z
" transform="scale(0.015625)"/>
       <path id="DejaVuSans-74" d="M 1172 4494 
L 1172 3500 
L 2356 3500 
L 2356 3053 
L 1172 3053 
L 1172 1153 
Q 1172 725 1289 603 
Q 1406 481 1766 481 
L 2356 481 
L 2356 0 
L 1766 0 
Q 1100 0 847 248 
Q 594 497 594 1153 
L 594 3053 
L 172 3053 
L 172 3500 
L 594 3500 
L 594 4494 
L 1172 4494 
z
" transform="scale(0.015625)"/>
       <path id="DejaVuSans-76" d="M 191 3500 
L 800 3500 
L 1894 563 
L 2988 3500 
L 3597 3500 
L 2284 0 
L 1503 0 
L 191 3500 
z
" transform="scale(0.015625)"/>
       <path id="DejaVuSans-79" d="M 2059 -325 
Q 1816 -950 1584 -1140 
Q 1353 -1331 966 -1331 
L 506 -1331 
L 506 -850 
L 844 -850 
Q 1081 -850 1212 -737 
Q 1344 -625 1503 -206 
L 1606 56 
L 191 3500 
L 800 3500 
L 1894 763 
L 2988 3500 
L 3597 3500 
L 2059 -325 
z
" transform="scale(0.015625)"/>
      </defs>
      <use xlink:href="#DejaVuSans-4e"/>
      <use xlink:href="#DejaVuSans-65" transform="translate(74.804688 0)"/>
      <use xlink:href="#DejaVuSans-75" transform="translate(136.328125 0)"/>
      <use xlink:href="#DejaVuSans-72" transform="translate(199.707031 0)"/>
      <use xlink:href="#DejaVuSans-61" transform="translate(240.820312 0)"/>
      <use xlink:href="#DejaVuSans-6c" transform="translate(302.099609 0)"/>
      <use xlink:href="#DejaVuSans-20" transform="translate(329.882812 0)"/>
      <use xlink:href="#DejaVuSans-41" transform="translate(361.669922 0)"/>
      <use xlink:href="#DejaVuSans-63" transform="translate(428.328125 0)"/>
      <use xlink:href="#DejaVuSans-74" transform="translate(483.308594 0)"/>
      <use xlink:href="#DejaVuSans-69" transform="translate(522.517578 0)"/>
      <use xlink:href="#DejaVuSans-76" transform="translate(550.300781 0)"/>
      <use xlink:href="#DejaVuSans-69" transform="translate(609.480469 0)"/>
      <use xlink:href="#DejaVuSans-74" transform="translate(637.263672 0)"/>
      <use xlink:href="#DejaVuSans-79" transform="translate(676.472656 0)"/>
     </g>
    </g>
   </g>
   <g id="line2d_10">
    <path d="M 102.458359 300.787933 
L 103.356718 299.892105 
L 108.74687 300.633256 
L 114.137023 301.178069 
L 117.730458 301.447648 
L 118.628817 299.864886 
L 119.527176 299.475648 
L 122.222252 299.934077 
L 123.120611 299.366934 
L 127.612404 300.118645 
L 128.510763 300.247206 
L 130.307481 300.382598 
L 136.595992 301.078616 
L 142.884504 301.564671 
L 143.782862 301.289853 
L 147.376298 301.549547 
L 148.274656 301.362197 
L 156.359885 301.853105 
L 157.258244 301.894943 
L 158.156603 301.184965 
L 161.750038 301.464115 
L 162.648397 300.356982 
L 164.445114 300.584439 
L 166.241832 300.191203 
L 168.038549 300.434823 
L 168.936908 298.866735 
L 169.835267 299.057892 
L 170.733626 298.792164 
L 174.327061 299.489669 
L 175.22542 296.840253 
L 178.818855 297.92532 
L 180.615572 298.389864 
L 181.513931 298.277889 
L 186.904084 299.410543 
L 187.802442 299.160885 
L 190.497519 299.664207 
L 191.395877 284.746053 
L 192.294236 267.633048 
L 193.192595 254.421377 
L 194.989313 225.421107 
L 197.684389 187.186119 
L 199.481106 167.950932 
L 201.277824 149.877531 
L 203.074542 137.610499 
L 203.9729 130.445143 
L 204.871259 127.634551 
L 205.769618 122.501132 
L 206.667977 113.712967 
L 207.566335 107.522932 
L 208.464694 104.371614 
L 209.363053 100.245623 
L 210.261412 95.366534 
L 212.058129 87.792174 
L 212.956488 82.061709 
L 213.854847 78.053441 
L 214.753206 74.809165 
L 215.651564 71.026804 
L 216.549923 68.808292 
L 217.448282 68.34711 
L 218.346641 66.746297 
L 219.245 64.431289 
L 220.143358 63.9491 
L 221.940076 63.902279 
L 222.838435 62.254279 
L 223.736793 61.359242 
L 224.635152 61.825742 
L 225.533511 58.670448 
L 226.43187 56.994511 
L 228.228587 52.236525 
L 229.126946 53.406801 
L 230.025305 51.791837 
L 230.923664 53.218591 
L 231.822022 54.174282 
L 232.720381 56.466819 
L 233.61874 57.714805 
L 234.517099 60.838357 
L 235.415457 60.072779 
L 236.313816 60.55226 
L 237.212175 60.618136 
L 238.110534 61.61306 
L 239.907251 64.835012 
L 240.80561 65.506484 
L 241.703969 65.92936 
L 242.602328 65.718312 
L 243.500686 65.175762 
L 244.399045 65.187619 
L 245.297404 67.635258 
L 246.195763 68.124718 
L 247.094122 69.557986 
L 247.99248 69.440532 
L 248.890839 70.838789 
L 249.789198 72.940578 
L 250.687557 73.003575 
L 251.585915 71.058937 
L 252.484274 70.301947 
L 254.280992 74.505403 
L 255.179351 74.056006 
L 256.077709 74.207302 
L 256.976068 74.790842 
L 257.874427 74.728479 
L 258.772786 73.732164 
L 259.671144 75.543172 
L 260.569503 75.007209 
L 261.467862 77.725037 
L 262.366221 78.472487 
L 263.26458 81.301914 
L 264.162938 82.996516 
L 265.061297 85.28044 
L 265.959656 88.300566 
L 266.858015 89.127775 
L 267.756373 91.667591 
L 268.654732 90.322841 
L 269.553091 91.157979 
L 270.45145 93.979135 
L 271.349808 92.93412 
L 272.248167 93.333964 
L 273.146526 95.367998 
L 274.044885 96.237197 
L 274.943244 99.605686 
L 275.841602 100.913851 
L 276.739961 101.870201 
L 277.63832 102.17278 
L 278.536679 104.046699 
L 279.435037 103.313583 
L 280.333396 102.199789 
L 282.130114 121.74757 
L 283.926831 139.389446 
L 285.723549 155.311248 
L 287.520266 169.680668 
L 289.316984 182.649061 
L 291.113702 194.353048 
L 292.910419 204.915896 
L 294.707137 214.448863 
L 296.503854 223.052361 
L 298.300572 230.817019 
L 300.097289 237.824626 
L 301.894007 244.148987 
L 303.690724 249.856724 
L 305.487442 255.007958 
L 307.284159 259.656944 
L 309.080877 263.852657 
L 310.877595 267.639285 
L 312.674312 271.056718 
L 314.47103 274.140951 
L 316.267747 276.924473 
L 318.962824 280.599263 
L 321.6579 283.749937 
L 324.352976 286.451244 
L 327.048053 288.767279 
L 329.743129 290.752989 
L 332.438205 292.455486 
L 335.133281 293.915166 
L 337.828358 295.166658 
L 341.421793 296.562168 
L 345.015228 297.698819 
L 348.608663 298.624628 
L 353.100457 299.544263 
L 358.49061 300.37756 
L 364.779121 301.075097 
L 371.965991 301.618596 
L 380.949579 302.048459 
L 389.034808 302.285621 
L 389.933167 302.187029 
L 403.408548 302.456908 
L 422.274083 302.610531 
L 423.172441 302.051994 
L 434.851106 302.362421 
L 451.021563 302.559802 
L 451.919922 301.747883 
L 452.818281 301.794983 
L 453.71664 301.406738 
L 455.513357 301.531843 
L 456.411716 300.762568 
L 460.005151 301.12007 
L 460.005151 301.12007 
" clip-path="url(#pdfe69ab4f1)" style="fill: none; stroke: #000000; stroke-width: 5; stroke-linecap: square"/>
   </g>
   <g id="line2d_11">
    <path d="M 102.458359 299.632272 
L 103.356718 298.843196 
L 104.255076 298.724404 
L 105.153435 298.922677 
L 106.051794 298.675586 
L 106.950153 298.876301 
L 107.848511 298.256211 
L 108.74687 298.102021 
L 109.645229 298.103572 
L 110.543588 297.705441 
L 111.441947 297.036426 
L 112.340305 297.038438 
L 114.137023 297.589453 
L 115.93374 297.555456 
L 116.832099 297.812177 
L 118.628817 297.746256 
L 119.527176 297.993436 
L 120.425534 297.923581 
L 123.120611 298.603373 
L 124.018969 298.407004 
L 126.714046 299.017848 
L 127.612404 298.159216 
L 131.20584 298.999624 
L 132.104198 298.087384 
L 133.002557 298.317508 
L 133.900916 298.1828 
L 134.799275 297.57279 
L 135.697633 297.484115 
L 139.291069 298.44975 
L 140.189427 298.661756 
L 141.087786 298.295909 
L 141.986145 298.515607 
L 142.884504 298.375314 
L 146.477939 299.175638 
L 147.376298 299.215091 
L 148.274656 299.38883 
L 149.173015 299.332258 
L 152.76645 299.890155 
L 153.664809 299.812236 
L 154.563168 299.432758 
L 155.461527 298.886123 
L 156.359885 298.797284 
L 157.258244 298.594192 
L 160.851679 299.353914 
L 161.750038 299.029094 
L 162.648397 299.212133 
L 163.546755 299.18925 
L 164.445114 299.364281 
L 165.343473 298.780546 
L 166.241832 298.789154 
L 168.936908 299.345494 
L 169.835267 299.199995 
L 170.733626 299.374489 
L 171.631984 298.877792 
L 172.530343 298.923343 
L 173.428702 299.111669 
L 174.327061 298.886599 
L 175.22542 299.076763 
L 177.022137 299.042769 
L 178.818855 298.373216 
L 180.615572 298.79409 
L 181.513931 298.678295 
L 182.41229 297.63236 
L 187.802442 298.949277 
L 188.700801 298.935726 
L 189.59916 298.762044 
L 194.090954 299.650593 
L 196.78603 300.08407 
L 197.684389 299.98845 
L 203.074542 300.704078 
L 209.363053 301.303117 
L 211.159771 301.332606 
L 212.058129 301.393804 
L 212.956488 301.312484 
L 215.651564 301.508934 
L 216.549923 301.446374 
L 218.346641 301.567614 
L 219.245 301.361981 
L 227.330228 301.852968 
L 228.228587 301.681182 
L 229.126946 301.731617 
L 230.025305 301.519397 
L 242.602328 302.110703 
L 243.500686 301.734334 
L 247.99248 301.950494 
L 248.890839 301.065359 
L 250.687557 301.165128 
L 252.484274 300.747274 
L 253.382633 300.487935 
L 254.280992 300.598032 
L 255.179351 300.587831 
L 257.874427 300.887634 
L 258.772786 300.765075 
L 259.671144 300.861314 
L 260.569503 300.661355 
L 261.467862 300.762781 
L 263.26458 300.293096 
L 264.162938 300.412935 
L 265.959656 300.178029 
L 266.858015 299.396209 
L 267.756373 299.379292 
L 270.45145 299.851463 
L 271.349808 299.810957 
L 274.044885 299.962124 
L 274.943244 299.926503 
L 275.841602 299.601267 
L 281.231755 300.419463 
L 282.130114 300.340796 
L 283.926831 300.569831 
L 285.723549 300.677318 
L 287.520266 300.808862 
L 288.418625 300.749016 
L 289.316984 300.846058 
L 290.215343 300.692385 
L 293.808778 301.062905 
L 295.605495 300.280042 
L 297.402213 300.515 
L 298.300572 300.472775 
L 299.19893 300.58363 
L 301.894007 300.498125 
L 302.792366 300.196203 
L 303.690724 300.320886 
L 304.589083 300.045345 
L 309.080877 300.643587 
L 309.979236 300.2325 
L 310.877595 300.133246 
L 311.775953 300.261077 
L 312.674312 299.86733 
L 318.064465 300.615044 
L 320.759541 300.822496 
L 321.6579 300.560142 
L 322.556259 299.921153 
L 323.454617 300.028437 
L 324.352976 299.85617 
L 325.251335 299.997855 
L 326.149694 299.280039 
L 327.048053 298.722429 
L 329.743129 299.288285 
L 330.641488 299.008491 
L 335.133281 299.841289 
L 336.03164 299.983718 
L 336.929999 299.989918 
L 337.828358 300.124915 
L 338.726717 300.124319 
L 344.116869 300.803954 
L 348.608663 301.218372 
L 349.507022 301.042072 
L 353.100457 301.347728 
L 353.998816 300.908932 
L 354.897175 300.997978 
L 356.693892 300.588712 
L 357.592251 300.545893 
L 358.49061 300.653092 
L 359.388968 300.585137 
L 365.67748 301.220056 
L 366.575839 300.880869 
L 367.474197 300.845946 
L 371.067632 301.118078 
L 374.661068 301.317223 
L 376.457785 300.428769 
L 377.356144 300.45481 
L 378.254503 299.844775 
L 381.847938 300.372522 
L 382.746297 300.346803 
L 384.543014 300.575252 
L 385.441373 300.310365 
L 390.831526 300.940715 
L 394.424961 301.265172 
L 395.323319 301.076525 
L 398.018396 301.260899 
L 398.916755 301.332347 
L 399.815113 301.156578 
L 400.713472 301.233243 
L 401.611831 300.857597 
L 402.51019 300.813575 
L 407.900342 301.2385 
L 408.798701 300.797625 
L 412.392136 301.148624 
L 415.087212 300.831068 
L 415.985571 300.924008 
L 416.88393 300.498657 
L 419.579006 300.762745 
L 420.477365 300.667216 
L 424.969159 301.124779 
L 425.867518 300.73824 
L 431.25767 301.247664 
L 432.156029 300.875761 
L 438.444541 301.42301 
L 439.342899 301.351499 
L 440.241258 301.418417 
L 441.139617 300.901124 
L 442.037976 300.990561 
L 442.936334 300.080282 
L 445.631411 300.452475 
L 447.428128 299.830835 
L 451.021563 300.361168 
L 453.71664 300.625893 
L 454.614999 300.189491 
L 455.513357 300.167443 
L 456.411716 300.001977 
L 458.208434 300.264047 
L 459.106792 300.1052 
L 460.005151 300.234434 
L 460.005151 300.234434 
" clip-path="url(#pdfe69ab4f1)" style="fill: none; stroke: #ff0000; stroke-width: 5; stroke-linecap: square"/>
   </g>
   <g id="line2d_12">
    <path d="M 102.458359 301.077706 
L 103.356718 299.906261 
L 108.74687 300.643662 
L 109.645229 300.745972 
L 110.543588 300.486839 
L 116.832099 301.151411 
L 117.730458 301.228334 
L 118.628817 299.19115 
L 119.527176 298.844155 
L 121.323893 299.219112 
L 122.222252 299.21244 
L 123.120611 298.667612 
L 127.612404 299.577523 
L 129.409122 299.779225 
L 134.799275 300.550278 
L 135.697633 300.185629 
L 141.087786 300.849023 
L 142.884504 301.028505 
L 143.782862 300.71513 
L 149.173015 301.238255 
L 150.071374 300.794414 
L 156.359885 301.366202 
L 157.258244 301.432386 
L 158.156603 300.632605 
L 160.851679 300.926022 
L 161.750038 300.451812 
L 162.648397 299.328616 
L 164.445114 299.656338 
L 165.343473 299.285594 
L 166.241832 299.329472 
L 168.038549 299.657111 
L 168.936908 298.616588 
L 172.530343 299.338384 
L 174.327061 299.596306 
L 175.22542 297.496725 
L 178.818855 298.46002 
L 180.615572 298.872431 
L 181.513931 298.920019 
L 186.005725 299.772831 
L 190.497519 300.398185 
L 194.989313 224.46067 
L 196.78603 197.21939 
L 198.582748 176.153787 
L 200.379465 159.289103 
L 201.277824 151.181634 
L 203.074542 138.53818 
L 203.9729 130.983509 
L 204.871259 127.477205 
L 205.769618 122.039853 
L 206.667977 113.160755 
L 207.566335 107.104948 
L 208.464694 104.343739 
L 209.363053 101.039357 
L 210.261412 95.299316 
L 211.159771 91.453592 
L 212.058129 88.704606 
L 212.956488 82.10814 
L 213.854847 78.784154 
L 214.753206 76.085039 
L 215.651564 72.1821 
L 216.549923 70.806656 
L 217.448282 70.231801 
L 218.346641 69.148725 
L 219.245 67.27699 
L 220.143358 66.211261 
L 221.940076 66.160048 
L 222.838435 64.437413 
L 223.736793 63.579828 
L 224.635152 63.813737 
L 225.533511 59.858804 
L 226.43187 57.809472 
L 227.330228 56.44691 
L 228.228587 53.673307 
L 229.126946 55.329749 
L 230.025305 53.498735 
L 230.923664 54.622557 
L 231.822022 54.557242 
L 232.720381 55.528451 
L 234.517099 60.830379 
L 235.415457 59.546429 
L 236.313816 60.062825 
L 239.008893 63.458835 
L 239.907251 65.568457 
L 241.703969 66.681714 
L 242.602328 65.706918 
L 243.500686 64.905694 
L 244.399045 63.580853 
L 245.297404 66.810221 
L 246.195763 66.73766 
L 247.094122 67.677053 
L 247.99248 67.580947 
L 248.890839 68.442558 
L 249.789198 70.551203 
L 250.687557 70.419841 
L 251.585915 68.977471 
L 252.484274 68.093707 
L 254.280992 73.289697 
L 255.179351 72.741241 
L 256.077709 73.41735 
L 256.976068 73.580967 
L 257.874427 73.624689 
L 258.772786 72.303287 
L 259.671144 74.77125 
L 260.569503 75.234139 
L 262.366221 80.569201 
L 263.26458 83.770926 
L 264.162938 85.14676 
L 265.061297 86.943372 
L 265.959656 90.318156 
L 266.858015 90.906039 
L 267.756373 93.387055 
L 268.654732 93.111352 
L 269.553091 94.443952 
L 270.45145 98.065063 
L 271.349808 97.862921 
L 272.248167 98.414805 
L 273.146526 99.921281 
L 274.044885 100.249954 
L 274.943244 102.252758 
L 275.841602 102.286977 
L 276.739961 102.616358 
L 277.63832 104.293576 
L 278.536679 107.360694 
L 280.333396 104.618564 
L 282.130114 123.930521 
L 283.926831 141.359568 
L 285.723549 157.089281 
L 287.520266 171.285336 
L 289.316984 184.097274 
L 291.113702 195.660054 
L 292.910419 206.095463 
L 294.707137 215.513415 
L 296.503854 224.013122 
L 298.300572 231.684107 
L 300.097289 238.607173 
L 301.894007 244.855234 
L 303.690724 250.494112 
L 305.487442 255.5832 
L 307.284159 260.1761 
L 309.080877 264.321192 
L 310.877595 268.062137 
L 312.674312 271.438339 
L 314.47103 274.485364 
L 316.267747 277.235303 
L 318.962824 280.865762 
L 321.6579 283.978426 
L 324.352976 286.647146 
L 327.048053 288.93524 
L 329.743129 290.896994 
L 332.438205 292.578954 
L 335.133281 294.021023 
L 337.828358 295.257419 
L 341.421793 296.636093 
L 345.015228 297.759031 
L 348.608663 298.67367 
L 353.100457 299.582212 
L 358.49061 300.405455 
L 364.779121 301.094578 
L 365.67748 301.174342 
L 366.575839 300.550782 
L 372.86435 301.196065 
L 380.05122 301.698849 
L 389.034808 302.096509 
L 400.713472 302.385272 
L 415.087212 302.555808 
L 415.985571 302.271097 
L 429.460953 302.495856 
L 431.25767 302.42164 
L 433.054388 302.447793 
L 433.952747 302.176319 
L 439.342899 302.312363 
L 440.241258 302.073323 
L 447.428128 302.28084 
L 448.326487 302.114575 
L 451.021563 302.196626 
L 451.919922 301.778214 
L 455.513357 301.947321 
L 456.411716 301.358958 
L 457.310075 301.425503 
L 458.208434 301.290722 
L 460.005151 301.427138 
L 460.005151 301.427138 
" clip-path="url(#pdfe69ab4f1)" style="fill: none; stroke: #0000ff; stroke-width: 5; stroke-linecap: square"/>
   </g>
   <g id="patch_3">
    <path d="M 101.56 322.75952 
L 101.56 31.720156 
" style="fill: none; stroke: #000000; stroke-width: 5; stroke-linejoin: miter; stroke-linecap: square"/>
   </g>
   <g id="patch_4">
    <path d="M 101.56 322.75952 
L 460.90351 322.75952 
" style="fill: none; stroke: #000000; stroke-width: 5; stroke-linejoin: miter; stroke-linecap: square"/>
   </g>
   <g id="patch_5">
    <path d="M 191.395877 316.938733 
L 281.231755 316.938733 
L 281.231755 306.752355 
L 191.395877 306.752355 
z
" style="fill: #8c5a2b; stroke: #8c5a2b; stroke-linejoin: miter"/>
   </g>
   <g id="text_12">
    <!-- Novel | Naive -->
    <g transform="translate(217.929099 21.720156) scale(0.19 -0.19)">
     <defs>
      <path id="DejaVuSans-6f" d="M 1959 3097 
Q 1497 3097 1228 2736 
Q 959 2375 959 1747 
Q 959 1119 1226 758 
Q 1494 397 1959 397 
Q 2419 397 2687 759 
Q 2956 1122 2956 1747 
Q 2956 2369 2687 2733 
Q 2419 3097 1959 3097 
z
M 1959 3584 
Q 2709 3584 3137 3096 
Q 3566 2609 3566 1747 
Q 3566 888 3137 398 
Q 2709 -91 1959 -91 
Q 1206 -91 779 398 
Q 353 888 353 1747 
Q 353 2609 779 3096 
Q 1206 3584 1959 3584 
z
" transform="scale(0.015625)"/>
      <path id="DejaVuSans-7c" d="M 1344 4891 
L 1344 -1509 
L 813 -1509 
L 813 4891 
L 1344 4891 
z
" transform="scale(0.015625)"/>
     </defs>
     <use xlink:href="#DejaVuSans-4e"/>
     <use xlink:href="#DejaVuSans-6f" transform="translate(74.804688 0)"/>
     <use xlink:href="#DejaVuSans-76" transform="translate(135.986328 0)"/>
     <use xlink:href="#DejaVuSans-65" transform="translate(195.166016 0)"/>
     <use xlink:href="#DejaVuSans-6c" transform="translate(256.689453 0)"/>
     <use xlink:href="#DejaVuSans-20" transform="translate(284.472656 0)"/>
     <use xlink:href="#DejaVuSans-7c" transform="translate(316.259766 0)"/>
     <use xlink:href="#DejaVuSans-20" transform="translate(349.951172 0)"/>
     <use xlink:href="#DejaVuSans-4e" transform="translate(381.738281 0)"/>
     <use xlink:href="#DejaVuSans-61" transform="translate(456.542969 0)"/>
     <use xlink:href="#DejaVuSans-69" transform="translate(517.822266 0)"/>
     <use xlink:href="#DejaVuSans-76" transform="translate(545.605469 0)"/>
     <use xlink:href="#DejaVuSans-65" transform="translate(604.785156 0)"/>
    </g>
   </g>
   <g id="legend_1">
    <g id="line2d_13">
     <path d="M 110.56 46.867812 
L 125.56 46.867812 
L 140.56 46.867812 
" style="fill: none; stroke: #000000; stroke-width: 5; stroke-linecap: square"/>
    </g>
    <g id="text_13">
     <!-- Nonoccluded (NO) -->
     <g transform="translate(152.56 52.117812) scale(0.15 -0.15)">
      <defs>
       <path id="DejaVuSans-6e" d="M 3513 2113 
L 3513 0 
L 2938 0 
L 2938 2094 
Q 2938 2591 2744 2837 
Q 2550 3084 2163 3084 
Q 1697 3084 1428 2787 
Q 1159 2491 1159 1978 
L 1159 0 
L 581 0 
L 581 3500 
L 1159 3500 
L 1159 2956 
Q 1366 3272 1645 3428 
Q 1925 3584 2291 3584 
Q 2894 3584 3203 3211 
Q 3513 2838 3513 2113 
z
" transform="scale(0.015625)"/>
       <path id="DejaVuSans-64" d="M 2906 2969 
L 2906 4863 
L 3481 4863 
L 3481 0 
L 2906 0 
L 2906 525 
Q 2725 213 2448 61 
Q 2172 -91 1784 -91 
Q 1150 -91 751 415 
Q 353 922 353 1747 
Q 353 2572 751 3078 
Q 1150 3584 1784 3584 
Q 2172 3584 2448 3432 
Q 2725 3281 2906 2969 
z
M 947 1747 
Q 947 1113 1208 752 
Q 1469 391 1925 391 
Q 2381 391 2643 752 
Q 2906 1113 2906 1747 
Q 2906 2381 2643 2742 
Q 2381 3103 1925 3103 
Q 1469 3103 1208 2742 
Q 947 2381 947 1747 
z
" transform="scale(0.015625)"/>
       <path id="DejaVuSans-4f" d="M 2522 4238 
Q 1834 4238 1429 3725 
Q 1025 3213 1025 2328 
Q 1025 1447 1429 934 
Q 1834 422 2522 422 
Q 3209 422 3611 934 
Q 4013 1447 4013 2328 
Q 4013 3213 3611 3725 
Q 3209 4238 2522 4238 
z
M 2522 4750 
Q 3503 4750 4090 4092 
Q 4678 3434 4678 2328 
Q 4678 1225 4090 567 
Q 3503 -91 2522 -91 
Q 1538 -91 948 565 
Q 359 1222 359 2328 
Q 359 3434 948 4092 
Q 1538 4750 2522 4750 
z
" transform="scale(0.015625)"/>
      </defs>
      <use xlink:href="#DejaVuSans-4e"/>
      <use xlink:href="#DejaVuSans-6f" transform="translate(74.804688 0)"/>
      <use xlink:href="#DejaVuSans-6e" transform="translate(135.986328 0)"/>
      <use xlink:href="#DejaVuSans-6f" transform="translate(199.365234 0)"/>
      <use xlink:href="#DejaVuSans-63" transform="translate(260.546875 0)"/>
      <use xlink:href="#DejaVuSans-63" transform="translate(315.527344 0)"/>
      <use xlink:href="#DejaVuSans-6c" transform="translate(370.507812 0)"/>
      <use xlink:href="#DejaVuSans-75" transform="translate(398.291016 0)"/>
      <use xlink:href="#DejaVuSans-64" transform="translate(461.669922 0)"/>
      <use xlink:href="#DejaVuSans-65" transform="translate(525.146484 0)"/>
      <use xlink:href="#DejaVuSans-64" transform="translate(586.669922 0)"/>
      <use xlink:href="#DejaVuSans-20" transform="translate(650.146484 0)"/>
      <use xlink:href="#DejaVuSans-28" transform="translate(681.933594 0)"/>
      <use xlink:href="#DejaVuSans-4e" transform="translate(720.947266 0)"/>
      <use xlink:href="#DejaVuSans-4f" transform="translate(795.751953 0)"/>
      <use xlink:href="#DejaVuSans-29" transform="translate(874.462891 0)"/>
     </g>
    </g>
    <g id="line2d_14">
     <path d="M 110.56 68.885 
L 125.56 68.885 
L 140.56 68.885 
" style="fill: none; stroke: #ff0000; stroke-width: 5; stroke-linecap: square"/>
    </g>
    <g id="text_14">
     <!-- Occluded (O) -->
     <g transform="translate(152.56 74.135) scale(0.15 -0.15)">
      <use xlink:href="#DejaVuSans-4f"/>
      <use xlink:href="#DejaVuSans-63" transform="translate(78.710938 0)"/>
      <use xlink:href="#DejaVuSans-63" transform="translate(133.691406 0)"/>
      <use xlink:href="#DejaVuSans-6c" transform="translate(188.671875 0)"/>
      <use xlink:href="#DejaVuSans-75" transform="translate(216.455078 0)"/>
      <use xlink:href="#DejaVuSans-64" transform="translate(279.833984 0)"/>
      <use xlink:href="#DejaVuSans-65" transform="translate(343.310547 0)"/>
      <use xlink:href="#DejaVuSans-64" transform="translate(404.833984 0)"/>
      <use xlink:href="#DejaVuSans-20" transform="translate(468.310547 0)"/>
      <use xlink:href="#DejaVuSans-28" transform="translate(500.097656 0)"/>
      <use xlink:href="#DejaVuSans-4f" transform="translate(539.111328 0)"/>
      <use xlink:href="#DejaVuSans-29" transform="translate(617.822266 0)"/>
     </g>
    </g>
    <g id="line2d_15">
     <path d="M 110.56 90.902187 
L 125.56 90.902187 
L 140.56 90.902187 
" style="fill: none; stroke: #0000ff; stroke-width: 5; stroke-linecap: square"/>
    </g>
    <g id="text_15">
     <!-- No feedback -->
     <g transform="translate(152.56 96.152187) scale(0.15 -0.15)">
      <defs>
       <path id="DejaVuSans-66" d="M 2375 4863 
L 2375 4384 
L 1825 4384 
Q 1516 4384 1395 4259 
Q 1275 4134 1275 3809 
L 1275 3500 
L 2222 3500 
L 2222 3053 
L 1275 3053 
L 1275 0 
L 697 0 
L 697 3053 
L 147 3053 
L 147 3500 
L 697 3500 
L 697 3744 
Q 697 4328 969 4595 
Q 1241 4863 1831 4863 
L 2375 4863 
z
" transform="scale(0.015625)"/>
       <path id="DejaVuSans-62" d="M 3116 1747 
Q 3116 2381 2855 2742 
Q 2594 3103 2138 3103 
Q 1681 3103 1420 2742 
Q 1159 2381 1159 1747 
Q 1159 1113 1420 752 
Q 1681 391 2138 391 
Q 2594 391 2855 752 
Q 3116 1113 3116 1747 
z
M 1159 2969 
Q 1341 3281 1617 3432 
Q 1894 3584 2278 3584 
Q 2916 3584 3314 3078 
Q 3713 2572 3713 1747 
Q 3713 922 3314 415 
Q 2916 -91 2278 -91 
Q 1894 -91 1617 61 
Q 1341 213 1159 525 
L 1159 0 
L 581 0 
L 581 4863 
L 1159 4863 
L 1159 2969 
z
" transform="scale(0.015625)"/>
       <path id="DejaVuSans-6b" d="M 581 4863 
L 1159 4863 
L 1159 1991 
L 2875 3500 
L 3609 3500 
L 1753 1863 
L 3688 0 
L 2938 0 
L 1159 1709 
L 1159 0 
L 581 0 
L 581 4863 
z
" transform="scale(0.015625)"/>
      </defs>
      <use xlink:href="#DejaVuSans-4e"/>
      <use xlink:href="#DejaVuSans-6f" transform="translate(74.804688 0)"/>
      <use xlink:href="#DejaVuSans-20" transform="translate(135.986328 0)"/>
      <use xlink:href="#DejaVuSans-66" transform="translate(167.773438 0)"/>
      <use xlink:href="#DejaVuSans-65" transform="translate(202.978516 0)"/>
      <use xlink:href="#DejaVuSans-65" transform="translate(264.501953 0)"/>
      <use xlink:href="#DejaVuSans-64" transform="translate(326.025391 0)"/>
      <use xlink:href="#DejaVuSans-62" transform="translate(389.501953 0)"/>
      <use xlink:href="#DejaVuSans-61" transform="translate(452.978516 0)"/>
      <use xlink:href="#DejaVuSans-63" transform="translate(514.257812 0)"/>
      <use xlink:href="#DejaVuSans-6b" transform="translate(569.238281 0)"/>
     </g>
    </g>
   </g>
  </g>
  <g id="axes_2">
   <g id="patch_6">
    <path d="M 495.67601 322.75952 
L 855.01952 322.75952 
L 855.01952 31.720156 
L 495.67601 31.720156 
z
" style="fill: #ffffff"/>
   </g>
   <g id="matplotlib.axis_3">
    <g id="xtick_6">
     <g id="line2d_16">
      <g>
       <use xlink:href="#m7a0d7035d1" x="495.67601" y="322.75952" style="stroke: #000000; stroke-width: 1.6"/>
      </g>
     </g>
     <g id="text_16">
      <!-- -1 -->
      <g transform="translate(479.72351 355.57452) scale(0.32 -0.32)">
       <use xlink:href="#DejaVuSans-2d"/>
       <use xlink:href="#DejaVuSans-31" transform="translate(36.083984 0)"/>
      </g>
     </g>
    </g>
    <g id="xtick_7">
     <g id="line2d_17">
      <g>
       <use xlink:href="#m7a0d7035d1" x="585.511887" y="322.75952" style="stroke: #000000; stroke-width: 1.6"/>
      </g>
     </g>
     <g id="text_17">
      <!-- 0 -->
      <g transform="translate(575.331887 355.57452) scale(0.32 -0.32)">
       <use xlink:href="#DejaVuSans-30"/>
      </g>
     </g>
    </g>
    <g id="xtick_8">
     <g id="line2d_18">
      <g>
       <use xlink:href="#m7a0d7035d1" x="675.347765" y="322.75952" style="stroke: #000000; stroke-width: 1.6"/>
      </g>
     </g>
     <g id="text_18">
      <!-- 1 -->
      <g transform="translate(665.167765 355.57452) scale(0.32 -0.32)">
       <use xlink:href="#DejaVuSans-31"/>
      </g>
     </g>
    </g>
    <g id="xtick_9">
     <g id="line2d_19">
      <g>
       <use xlink:href="#m7a0d7035d1" x="765.183642" y="322.75952" style="stroke: #000000; stroke-width: 1.6"/>
      </g>
     </g>
     <g id="text_19">
      <!-- 2 -->
      <g transform="translate(755.003642 355.57452) scale(0.32 -0.32)">
       <use xlink:href="#DejaVuSans-32"/>
      </g>
     </g>
    </g>
    <g id="xtick_10">
     <g id="line2d_20">
      <g>
       <use xlink:href="#m7a0d7035d1" x="855.01952" y="322.75952" style="stroke: #000000; stroke-width: 1.6"/>
      </g>
     </g>
     <g id="text_20">
      <!-- 3 -->
      <g transform="translate(844.83952 355.57452) scale(0.32 -0.32)">
       <use xlink:href="#DejaVuSans-33"/>
      </g>
     </g>
    </g>
    <g id="text_21">
     <!-- Time (s) -->
     <g transform="translate(610.295265 390.54452) scale(0.32 -0.32)">
      <use xlink:href="#DejaVuSans-54"/>
      <use xlink:href="#DejaVuSans-69" transform="translate(57.958984 0)"/>
      <use xlink:href="#DejaVuSans-6d" transform="translate(85.742188 0)"/>
      <use xlink:href="#DejaVuSans-65" transform="translate(183.154297 0)"/>
      <use xlink:href="#DejaVuSans-20" transform="translate(244.677734 0)"/>
      <use xlink:href="#DejaVuSans-28" transform="translate(276.464844 0)"/>
      <use xlink:href="#DejaVuSans-73" transform="translate(315.478516 0)"/>
      <use xlink:href="#DejaVuSans-29" transform="translate(367.578125 0)"/>
     </g>
    </g>
   </g>
   <g id="matplotlib.axis_4">
    <g id="ytick_5">
     <g id="line2d_21">
      <g>
       <use xlink:href="#m349bcef1e6" x="495.67601" y="302.689869" style="stroke: #000000; stroke-width: 1.6"/>
      </g>
     </g>
    </g>
    <g id="ytick_6">
     <g id="line2d_22">
      <g>
       <use xlink:href="#m349bcef1e6" x="495.67601" y="220.821902" style="stroke: #000000; stroke-width: 1.6"/>
      </g>
     </g>
    </g>
    <g id="ytick_7">
     <g id="line2d_23">
      <g>
       <use xlink:href="#m349bcef1e6" x="495.67601" y="138.953934" style="stroke: #000000; stroke-width: 1.6"/>
      </g>
     </g>
    </g>
    <g id="ytick_8">
     <g id="line2d_24">
      <g>
       <use xlink:href="#m349bcef1e6" x="495.67601" y="57.085967" style="stroke: #000000; stroke-width: 1.6"/>
      </g>
     </g>
    </g>
   </g>
   <g id="line2d_25">
    <path d="M 496.574369 302.655353 
L 497.472728 302.268023 
L 511.846468 302.504203 
L 535.203796 302.640942 
L 537.000514 302.645713 
L 537.898872 302.052652 
L 541.492308 302.170852 
L 542.390666 301.226178 
L 549.577536 301.718827 
L 552.272613 301.857322 
L 553.170972 301.774299 
L 562.154559 302.141683 
L 563.052918 301.869547 
L 572.934865 302.22327 
L 584.613529 302.450344 
L 585.511887 286.749004 
L 588.206964 248.169467 
L 590.003681 227.237519 
L 591.800399 207.305985 
L 592.698758 199.665492 
L 593.597116 193.71677 
L 594.495475 186.740113 
L 595.393834 177.651224 
L 596.292193 171.697355 
L 598.08891 157.896507 
L 598.987269 152.780459 
L 599.885628 146.39421 
L 600.783987 136.59902 
L 601.682345 129.863628 
L 602.580704 125.418918 
L 603.479063 121.829696 
L 604.377422 116.550166 
L 605.275781 113.519438 
L 606.174139 111.475412 
L 607.970857 103.38817 
L 608.869216 100.12912 
L 610.665933 95.243371 
L 611.564292 93.842357 
L 612.462651 91.62304 
L 613.36101 87.772386 
L 614.259368 86.434711 
L 615.157727 83.759239 
L 616.056086 82.388699 
L 616.954445 79.026773 
L 617.852803 77.145449 
L 618.751162 76.762148 
L 619.649521 74.596288 
L 620.54788 74.484006 
L 621.446238 75.0167 
L 622.344597 74.116198 
L 623.242956 75.23958 
L 624.141315 74.198738 
L 625.039674 75.54627 
L 625.938032 76.562787 
L 626.836391 78.175044 
L 627.73475 78.330121 
L 628.633109 79.287496 
L 629.531467 78.29689 
L 630.429826 78.886994 
L 631.328185 80.799572 
L 632.226544 81.846685 
L 633.124903 83.45211 
L 634.023261 84.808572 
L 634.92162 84.550557 
L 635.819979 83.959405 
L 636.718338 83.050705 
L 637.616696 83.324871 
L 638.515055 83.999272 
L 639.413414 86.3165 
L 641.210132 88.004148 
L 642.10849 88.207388 
L 643.006849 89.101815 
L 643.905208 90.799808 
L 644.803567 90.64234 
L 645.701925 90.910455 
L 646.600284 92.483455 
L 647.498643 94.522027 
L 648.397002 94.50629 
L 649.295361 92.373881 
L 650.193719 95.516756 
L 651.092078 95.934874 
L 651.990437 95.163368 
L 652.888796 96.537836 
L 653.787154 100.509799 
L 654.685513 100.480899 
L 656.482231 103.533073 
L 657.380589 104.772263 
L 658.278948 104.593824 
L 659.177307 106.723879 
L 660.075666 108.36345 
L 660.974025 108.404488 
L 661.872383 109.728988 
L 662.770742 109.467789 
L 663.669101 110.062992 
L 664.56746 111.374146 
L 666.364177 109.894935 
L 667.262536 109.793474 
L 668.160895 110.792558 
L 669.059254 112.806268 
L 669.957612 113.925064 
L 670.855971 114.401739 
L 671.75433 115.027744 
L 672.652689 117.07471 
L 673.551047 116.375386 
L 674.449406 116.113517 
L 676.246124 134.304714 
L 678.042841 150.72227 
L 679.839559 165.53911 
L 681.636276 178.911312 
L 683.432994 190.979716 
L 685.229712 201.871463 
L 687.026429 211.701257 
L 688.823147 220.572651 
L 690.619864 228.57908 
L 692.416582 235.804883 
L 694.213299 242.326171 
L 696.010017 248.211633 
L 697.806734 253.52326 
L 699.603452 258.317006 
L 701.400169 262.643361 
L 703.196887 266.547895 
L 704.993605 270.071739 
L 706.790322 273.252005 
L 708.58704 276.1222 
L 711.282116 279.911414 
L 713.977192 283.160192 
L 716.672269 285.945613 
L 719.367345 288.333763 
L 722.062421 290.381304 
L 724.757498 292.136814 
L 727.452574 293.641944 
L 730.14765 294.932405 
L 733.741085 296.371366 
L 737.33452 297.543409 
L 740.927956 298.498046 
L 745.419749 299.446316 
L 749.911543 300.18007 
L 755.301696 300.844936 
L 761.590207 301.401484 
L 769.675436 301.877865 
L 779.557383 302.228001 
L 793.931123 302.486589 
L 816.390093 302.633481 
L 833.458909 302.668591 
L 834.357268 301.996979 
L 845.137573 302.315459 
L 854.121161 302.465696 
L 854.121161 302.465696 
" clip-path="url(#pa83ec184bb)" style="fill: none; stroke: #000000; stroke-width: 5; stroke-linecap: square"/>
   </g>
   <g id="line2d_26">
    <path d="M 496.574369 300.752088 
L 499.269445 301.028464 
L 500.167804 300.815398 
L 501.964521 300.745831 
L 502.86288 300.843033 
L 503.761239 300.231171 
L 504.659598 299.945091 
L 506.456315 300.212707 
L 507.354674 300.113365 
L 510.948109 300.52391 
L 516.338262 301.075165 
L 519.033338 301.259843 
L 519.931697 301.331344 
L 520.830056 300.987847 
L 521.728414 301.050253 
L 522.626773 300.990734 
L 528.915285 301.482374 
L 535.203796 301.84663 
L 536.102155 301.756064 
L 542.390666 302.001299 
L 543.289025 301.954654 
L 544.187384 301.772708 
L 545.085743 301.077216 
L 547.780819 301.296808 
L 548.679178 301.10984 
L 551.374254 301.335191 
L 552.272613 300.516107 
L 553.170972 300.624795 
L 554.06933 300.390121 
L 554.967689 300.505108 
L 555.866048 300.313113 
L 557.662765 300.544847 
L 558.561124 300.440527 
L 561.256201 300.76134 
L 562.154559 300.441914 
L 563.052918 300.542151 
L 563.951277 300.142127 
L 564.849636 300.269515 
L 565.747994 299.16822 
L 566.646353 298.729744 
L 567.544712 298.927751 
L 569.34143 298.859831 
L 572.036506 299.40609 
L 572.934865 299.175319 
L 573.833223 299.120351 
L 575.629941 299.468379 
L 576.5283 299.202291 
L 578.325017 299.476122 
L 579.223376 299.307839 
L 582.816811 299.935185 
L 583.71517 299.929022 
L 589.105323 300.660393 
L 590.90204 300.794663 
L 591.800399 300.889423 
L 592.698758 300.664964 
L 598.987269 301.275803 
L 599.885628 301.188519 
L 600.783987 300.944491 
L 603.479063 301.126918 
L 606.174139 301.294497 
L 607.072498 300.936583 
L 607.970857 300.267017 
L 613.36101 300.908851 
L 614.259368 300.38833 
L 615.157727 300.37612 
L 621.446238 301.074092 
L 627.73475 301.536642 
L 635.819979 301.963048 
L 636.718338 301.999389 
L 637.616696 301.805604 
L 640.311773 301.931722 
L 641.210132 301.600327 
L 643.006849 301.706557 
L 643.905208 301.288444 
L 646.600284 301.488322 
L 647.498643 301.120885 
L 649.295361 301.273861 
L 651.092078 301.156354 
L 654.685513 301.440812 
L 655.583872 301.370448 
L 659.177307 301.615192 
L 660.075666 301.176757 
L 661.872383 301.194888 
L 664.56746 301.40811 
L 665.465818 301.224629 
L 667.262536 301.36749 
L 668.160895 301.316334 
L 669.059254 301.377124 
L 669.957612 301.155694 
L 672.652689 301.374506 
L 673.551047 301.082667 
L 674.449406 301.000396 
L 681.636276 301.569038 
L 684.331353 301.728897 
L 685.229712 301.658118 
L 686.12807 300.789695 
L 687.026429 300.884704 
L 689.721505 300.449398 
L 690.619864 299.691373 
L 695.111658 300.359966 
L 696.010017 300.476461 
L 696.908376 300.224115 
L 697.806734 300.347402 
L 698.705093 299.883569 
L 700.501811 299.730701 
L 701.400169 299.87866 
L 702.298528 299.870852 
L 706.790322 300.508567 
L 708.58704 300.488288 
L 709.485398 300.182059 
L 710.383757 300.162814 
L 711.282116 299.981061 
L 712.180475 299.230137 
L 714.875551 299.506211 
L 717.570627 299.896853 
L 718.468986 299.772035 
L 721.164063 300.188191 
L 722.062421 299.394591 
L 722.96078 298.790754 
L 723.859139 298.744691 
L 728.350933 299.637166 
L 731.046009 300.072558 
L 733.741085 300.23791 
L 739.131238 300.876625 
L 740.029597 300.967288 
L 740.927956 300.07546 
L 744.521391 300.493297 
L 746.318108 300.707463 
L 748.114826 300.603958 
L 749.013185 300.172007 
L 754.403337 300.839009 
L 756.200055 300.945519 
L 757.996772 301.115594 
L 758.895131 300.763506 
L 759.79349 300.221134 
L 761.590207 300.240593 
L 762.488566 299.923806 
L 765.183642 300.157563 
L 770.573795 300.828391 
L 772.370513 300.821085 
L 775.963948 301.135957 
L 776.862307 301.040928 
L 777.760665 301.123375 
L 778.659024 301.023057 
L 779.557383 300.488568 
L 781.3541 300.703195 
L 782.252459 300.543917 
L 784.049177 300.753147 
L 784.947536 300.253651 
L 785.845894 299.270017 
L 789.439329 299.904378 
L 790.337688 299.796144 
L 795.727841 300.562715 
L 799.321276 300.957289 
L 800.219635 300.961766 
L 801.117993 300.833702 
L 805.609787 301.23774 
L 806.508146 300.667725 
L 808.304864 300.775073 
L 810.101581 300.917709 
L 810.99994 300.735606 
L 811.898299 300.307938 
L 812.796658 300.427034 
L 813.695016 299.657092 
L 814.593375 299.808731 
L 816.390093 299.625571 
L 821.780245 300.437329 
L 822.678604 299.757119 
L 823.576963 299.745435 
L 825.37368 300.032517 
L 826.272039 299.374987 
L 827.170398 299.388279 
L 831.662192 300.116669 
L 832.560551 299.955574 
L 834.357268 300.222168 
L 835.255627 300.108598 
L 836.153986 300.172725 
L 837.052344 299.828435 
L 841.544138 300.435331 
L 843.340856 300.596676 
L 844.239215 300.587018 
L 845.137573 300.69216 
L 846.035932 300.489111 
L 850.527726 300.956769 
L 851.426085 300.594864 
L 853.222802 300.748409 
L 854.121161 300.186011 
L 854.121161 300.186011 
" clip-path="url(#pa83ec184bb)" style="fill: none; stroke: #ff0000; stroke-width: 5; stroke-linecap: square"/>
   </g>
   <g id="line2d_27">
    <path d="M 496.574369 302.68391 
L 515.439903 302.68784 
L 516.338262 302.450049 
L 537.000514 302.616159 
L 537.898872 301.870893 
L 545.984101 302.17371 
L 546.88246 301.334047 
L 551.374254 301.64076 
L 552.272613 301.54107 
L 553.170972 301.59851 
L 554.06933 300.941077 
L 559.459483 301.404346 
L 560.357842 301.318662 
L 568.443071 301.825667 
L 574.731582 302.086364 
L 575.629941 301.562663 
L 584.613529 302.014969 
L 586.410246 272.227937 
L 589.105323 234.721324 
L 590.90204 213.276739 
L 592.698758 197.411932 
L 593.597116 191.973799 
L 594.495475 185.206676 
L 595.393834 175.744843 
L 596.292193 169.788265 
L 598.08891 155.636151 
L 598.987269 151.226759 
L 599.885628 144.588644 
L 600.783987 136.02258 
L 601.682345 128.818796 
L 603.479063 120.649172 
L 604.377422 115.795896 
L 605.275781 113.093769 
L 606.174139 111.225254 
L 607.970857 102.752904 
L 608.869216 100.230167 
L 609.767574 96.660146 
L 610.665933 94.031909 
L 611.564292 92.722853 
L 615.157727 84.497198 
L 617.852803 78.332707 
L 618.751162 77.730868 
L 619.649521 73.919448 
L 621.446238 74.289305 
L 622.344597 73.690296 
L 623.242956 75.120076 
L 624.141315 74.584479 
L 625.938032 77.202493 
L 626.836391 78.482246 
L 627.73475 78.49547 
L 628.633109 79.914734 
L 629.531467 78.806991 
L 630.429826 79.128027 
L 631.328185 80.375135 
L 633.124903 83.903361 
L 634.023261 85.478507 
L 634.92162 85.72525 
L 635.819979 85.365932 
L 636.718338 84.758823 
L 637.616696 85.491439 
L 638.515055 86.377131 
L 639.413414 88.495316 
L 640.311773 89.589932 
L 641.210132 89.643975 
L 642.10849 90.281485 
L 643.006849 89.43039 
L 643.905208 90.681207 
L 644.803567 89.890035 
L 645.701925 89.837407 
L 647.498643 92.888276 
L 648.397002 95.138237 
L 649.295361 94.01078 
L 650.193719 97.650898 
L 651.092078 99.517583 
L 651.990437 99.126742 
L 652.888796 99.864579 
L 653.787154 102.713354 
L 654.685513 101.439713 
L 655.583872 102.236314 
L 656.482231 102.561241 
L 657.380589 102.705486 
L 658.278948 103.095716 
L 660.075666 106.40305 
L 661.872383 109.215155 
L 663.669101 110.776796 
L 664.56746 113.41539 
L 665.465818 113.694729 
L 666.364177 112.486184 
L 667.262536 112.98062 
L 668.160895 114.054425 
L 669.059254 115.657313 
L 669.957612 117.784525 
L 671.75433 118.923096 
L 672.652689 119.915166 
L 673.551047 119.150783 
L 674.449406 118.928293 
L 676.246124 136.845055 
L 678.042841 153.014929 
L 679.839559 167.60823 
L 681.636276 180.778692 
L 683.432994 192.665034 
L 685.229712 203.392457 
L 687.026429 213.073956 
L 688.823147 221.811506 
L 690.619864 229.697149 
L 692.416582 236.813946 
L 694.213299 243.236853 
L 696.010017 249.033523 
L 697.806734 254.265019 
L 699.603452 258.986441 
L 701.400169 263.247527 
L 703.196887 267.093154 
L 704.993605 270.563833 
L 706.790322 273.696123 
L 708.58704 276.523016 
L 711.282116 280.255065 
L 713.977192 283.45483 
L 716.672269 286.19823 
L 719.367345 288.550351 
L 722.062421 290.567 
L 724.757498 292.296024 
L 727.452574 293.778447 
L 730.14765 295.049438 
L 733.741085 296.466691 
L 737.33452 297.621052 
L 740.927956 298.561286 
L 745.419749 299.49525 
L 750.809902 300.341531 
L 756.200055 300.963625 
L 763.386925 301.544643 
L 771.472154 301.968091 
L 782.252459 302.299849 
L 797.524558 302.526794 
L 823.576963 302.653025 
L 833.458909 302.668912 
L 834.357268 301.533095 
L 842.442497 301.960813 
L 853.222802 302.295916 
L 854.121161 302.315614 
L 854.121161 302.315614 
" clip-path="url(#pa83ec184bb)" style="fill: none; stroke: #0000ff; stroke-width: 5; stroke-linecap: square"/>
   </g>
   <g id="patch_7">
    <path d="M 495.67601 322.75952 
L 495.67601 31.720156 
" style="fill: none; stroke: #000000; stroke-width: 5; stroke-linejoin: miter; stroke-linecap: square"/>
   </g>
   <g id="patch_8">
    <path d="M 495.67601 322.75952 
L 855.01952 322.75952 
" style="fill: none; stroke: #000000; stroke-width: 5; stroke-linejoin: miter; stroke-linecap: square"/>
   </g>
   <g id="patch_9">
    <path d="M 585.511887 316.938733 
L 675.347765 316.938733 
L 675.347765 306.752355 
L 585.511887 306.752355 
z
" style="fill: #8c5a2b; stroke: #8c5a2b; stroke-linejoin: miter"/>
   </g>
   <g id="text_22">
    <!-- Novel | Expert -->
    <g transform="translate(607.949718 21.720156) scale(0.19 -0.19)">
     <defs>
      <path id="DejaVuSans-45" d="M 628 4666 
L 3578 4666 
L 3578 4134 
L 1259 4134 
L 1259 2753 
L 3481 2753 
L 3481 2222 
L 1259 2222 
L 1259 531 
L 3634 531 
L 3634 0 
L 628 0 
L 628 4666 
z
" transform="scale(0.015625)"/>
      <path id="DejaVuSans-78" d="M 3513 3500 
L 2247 1797 
L 3578 0 
L 2900 0 
L 1881 1375 
L 863 0 
L 184 0 
L 1544 1831 
L 300 3500 
L 978 3500 
L 1906 2253 
L 2834 3500 
L 3513 3500 
z
" transform="scale(0.015625)"/>
      <path id="DejaVuSans-70" d="M 1159 525 
L 1159 -1331 
L 581 -1331 
L 581 3500 
L 1159 3500 
L 1159 2969 
Q 1341 3281 1617 3432 
Q 1894 3584 2278 3584 
Q 2916 3584 3314 3078 
Q 3713 2572 3713 1747 
Q 3713 922 3314 415 
Q 2916 -91 2278 -91 
Q 1894 -91 1617 61 
Q 1341 213 1159 525 
z
M 3116 1747 
Q 3116 2381 2855 2742 
Q 2594 3103 2138 3103 
Q 1681 3103 1420 2742 
Q 1159 2381 1159 1747 
Q 1159 1113 1420 752 
Q 1681 391 2138 391 
Q 2594 391 2855 752 
Q 3116 1113 3116 1747 
z
" transform="scale(0.015625)"/>
     </defs>
     <use xlink:href="#DejaVuSans-4e"/>
     <use xlink:href="#DejaVuSans-6f" transform="translate(74.804688 0)"/>
     <use xlink:href="#DejaVuSans-76" transform="translate(135.986328 0)"/>
     <use xlink:href="#DejaVuSans-65" transform="translate(195.166016 0)"/>
     <use xlink:href="#DejaVuSans-6c" transform="translate(256.689453 0)"/>
     <use xlink:href="#DejaVuSans-20" transform="translate(284.472656 0)"/>
     <use xlink:href="#DejaVuSans-7c" transform="translate(316.259766 0)"/>
     <use xlink:href="#DejaVuSans-20" transform="translate(349.951172 0)"/>
     <use xlink:href="#DejaVuSans-45" transform="translate(381.738281 0)"/>
     <use xlink:href="#DejaVuSans-78" transform="translate(444.921875 0)"/>
     <use xlink:href="#DejaVuSans-70" transform="translate(504.101562 0)"/>
     <use xlink:href="#DejaVuSans-65" transform="translate(567.578125 0)"/>
     <use xlink:href="#DejaVuSans-72" transform="translate(629.101562 0)"/>
     <use xlink:href="#DejaVuSans-74" transform="translate(670.214844 0)"/>
    </g>
   </g>
  </g>
 </g>
 <defs>
  <clipPath id="pdfe69ab4f1">
   <rect x="101.56" y="31.720156" width="359.34351" height="291.039364"/>
  </clipPath>
  <clipPath id="pa83ec184bb">
   <rect x="495.67601" y="31.720156" width="359.34351" height="291.039364"/>
  </clipPath>
 </defs>
</svg>
