<?xml version="1.0" encoding="utf-8" standalone="no"?>
<!DOCTYPE svg PUBLIC "-//W3C//DTD SVG 1.1//EN"
  "http://www.w3.org/Graphics/SVG/1.1/DTD/svg11.dtd">
<svg xmlns:xlink="http://www.w3.org/1999/xlink" width="872.39952pt" height="404.39952pt" viewBox="0 0 872.39952 404.39952" xmlns="http://www.w3.org/2000/svg" version="1.1">
 <metadata>
  <rdf:RDF xmlns:dc="http://purl.org/dc/elements/1.1/" xmlns:cc="http://creativecommons.org/ns#" xmlns:rdf="http://www.w3.org/1999/02/22-rdf-syntax-ns#">
   <cc:Work>
    <dc:type rdf:resource="http://purl.org/dc/dcmitype/StillImage"/>
    <dc:date>2026-03-25T17:17:40.031749</dc:date>
    <dc:format>image/svg+xml</dc:format>
    <dc:creator>
     <cc:Agent>
      <dc:title>Matplotlib v3.10.7, https://matplotlib.org/</dc:title>
     </cc:Agent>
    </dc:creator>
   </cc:Work>
  </rdf:RDF>
 </metadata>
 <defs>
  <style type="text/css">*{stroke-linejoin: round; stroke-linecap: butt}</style>
 </defs>
 <g id="figure_1">
  <g id="patch_1">
   <path d="M 0 404.39952 
L 872.39952 404.39952 
L 872.39952 0 
L 0 0 
z
" style="fill: #ffffff"/>
  </g>
  <g id="axes_1">
   <g id="patch_2">
    <path d="M 101.56 322.75952 
L 460.90351 322.75952 
L 460.90351 31.720156 
L 101.56 31.720156 
z
" style="fill: #ffffff"/>
   </g>
   <g id="matplotlib.axis_1">
    <g id="xtick_1">
     <g id="line2d_1">
      <defs>
       <path id="mf56c5a6dc2" d="M 0 0 
L 0 5 
" style="stroke: #000000; stroke-width: 1.6"/>
      </defs>
      <g>
       <use xlink:href="#mf56c5a6dc2" x="101.56" y="322.75952" style="stroke: #000000; stroke-width: 1.6"/>
      </g>
     </g>
     <g id="text_1">
      <!-- -1 -->
      <g transform="translate(85.6075 355.57452) scale(0.32 -0.32)">
       <defs>
        <path id="DejaVuSans-2d" d="M 313 2009 
L 1997 2009 
L 1997 1497 
L 313 1497 
L 313 2009 
z
" transform="scale(0.015625)"/>
        <path id="DejaVuSans-31" d="M 794 531 
L 1825 531 
L 1825 4091 
L 703 3866 
L 703 4441 
L 1819 4666 
L 2450 4666 
L 2450 531 
L 3481 531 
L 3481 0 
L 794 0 
L 794 531 
z
" transform="scale(0.015625)"/>
       </defs>
       <use xlink:href="#DejaVuSans-2d"/>
       <use xlink:href="#DejaVuSans-31" transform="translate(36.083984 0)"/>
      </g>
     </g>
    </g>
    <g id="xtick_2">
     <g id="line2d_2">
      <g>
       <use xlink:href="#mf56c5a6dc2" x="191.395877" y="322.75952" style="stroke: #000000; stroke-width: 1.6"/>
      </g>
     </g>
     <g id="text_2">
      <!-- 0 -->
      <g transform="translate(181.215877 355.57452) scale(0.32 -0.32)">
       <defs>
        <path id="DejaVuSans-30" d="M 2034 4250 
Q 1547 4250 1301 3770 
Q 1056 3291 1056 2328 
Q 1056 1369 1301 889 
Q 1547 409 2034 409 
Q 2525 409 2770 889 
Q 3016 1369 3016 2328 
Q 3016 3291 2770 3770 
Q 2525 4250 2034 4250 
z
M 2034 4750 
Q 2819 4750 3233 4129 
Q 3647 3509 3647 2328 
Q 3647 1150 3233 529 
Q 2819 -91 2034 -91 
Q 1250 -91 836 529 
Q 422 1150 422 2328 
Q 422 3509 836 4129 
Q 1250 4750 2034 4750 
z
" transform="scale(0.015625)"/>
       </defs>
       <use xlink:href="#DejaVuSans-30"/>
      </g>
     </g>
    </g>
    <g id="xtick_3">
     <g id="line2d_3">
      <g>
       <use xlink:href="#mf56c5a6dc2" x="281.231755" y="322.75952" style="stroke: #000000; stroke-width: 1.6"/>
      </g>
     </g>
     <g id="text_3">
      <!-- 1 -->
      <g transform="translate(271.051755 355.57452) scale(0.32 -0.32)">
       <use xlink:href="#DejaVuSans-31"/>
      </g>
     </g>
    </g>
    <g id="xtick_4">
     <g id="line2d_4">
      <g>
       <use xlink:href="#mf56c5a6dc2" x="371.067632" y="322.75952" style="stroke: #000000; stroke-width: 1.6"/>
      </g>
     </g>
     <g id="text_4">
      <!-- 2 -->
      <g transform="translate(360.887632 355.57452) scale(0.32 -0.32)">
       <defs>
        <path id="DejaVuSans-32" d="M 1228 531 
L 3431 531 
L 3431 0 
L 469 0 
L 469 531 
Q 828 903 1448 1529 
Q 2069 2156 2228 2338 
Q 2531 2678 2651 2914 
Q 2772 3150 2772 3378 
Q 2772 3750 2511 3984 
Q 2250 4219 1831 4219 
Q 1534 4219 1204 4116 
Q 875 4013 500 3803 
L 500 4441 
Q 881 4594 1212 4672 
Q 1544 4750 1819 4750 
Q 2544 4750 2975 4387 
Q 3406 4025 3406 3419 
Q 3406 3131 3298 2873 
Q 3191 2616 2906 2266 
Q 2828 2175 2409 1742 
Q 1991 1309 1228 531 
z
" transform="scale(0.015625)"/>
       </defs>
       <use xlink:href="#DejaVuSans-32"/>
      </g>
     </g>
    </g>
    <g id="xtick_5">
     <g id="line2d_5">
      <g>
       <use xlink:href="#mf56c5a6dc2" x="460.90351" y="322.75952" style="stroke: #000000; stroke-width: 1.6"/>
      </g>
     </g>
     <g id="text_5">
      <!-- 3 -->
      <g transform="translate(450.72351 355.57452) scale(0.32 -0.32)">
       <defs>
        <path id="DejaVuSans-33" d="M 2597 2516 
Q 3050 2419 3304 2112 
Q 3559 1806 3559 1356 
Q 3559 666 3084 287 
Q 2609 -91 1734 -91 
Q 1441 -91 1130 -33 
Q 819 25 488 141 
L 488 750 
Q 750 597 1062 519 
Q 1375 441 1716 441 
Q 2309 441 2620 675 
Q 2931 909 2931 1356 
Q 2931 1769 2642 2001 
Q 2353 2234 1838 2234 
L 1294 2234 
L 1294 2753 
L 1863 2753 
Q 2328 2753 2575 2939 
Q 2822 3125 2822 3475 
Q 2822 3834 2567 4026 
Q 2313 4219 1838 4219 
Q 1578 4219 1281 4162 
Q 984 4106 628 3988 
L 628 4550 
Q 988 4650 1302 4700 
Q 1616 4750 1894 4750 
Q 2613 4750 3031 4423 
Q 3450 4097 3450 3541 
Q 3450 3153 3228 2886 
Q 3006 2619 2597 2516 
z
" transform="scale(0.015625)"/>
       </defs>
       <use xlink:href="#DejaVuSans-33"/>
      </g>
     </g>
    </g>
    <g id="text_6">
     <!-- Time (s) -->
     <g transform="translate(216.179255 390.54452) scale(0.32 -0.32)">
      <defs>
       <path id="DejaVuSans-54" d="M -19 4666 
L 3928 4666 
L 3928 4134 
L 2272 4134 
L 2272 0 
L 1638 0 
L 1638 4134 
L -19 4134 
L -19 4666 
z
" transform="scale(0.015625)"/>
       <path id="DejaVuSans-69" d="M 603 3500 
L 1178 3500 
L 1178 0 
L 603 0 
L 603 3500 
z
M 603 4863 
L 1178 4863 
L 1178 4134 
L 603 4134 
L 603 4863 
z
" transform="scale(0.015625)"/>
       <path id="DejaVuSans-6d" d="M 3328 2828 
Q 3544 3216 3844 3400 
Q 4144 3584 4550 3584 
Q 5097 3584 5394 3201 
Q 5691 2819 5691 2113 
L 5691 0 
L 5113 0 
L 5113 2094 
Q 5113 2597 4934 2840 
Q 4756 3084 4391 3084 
Q 3944 3084 3684 2787 
Q 3425 2491 3425 1978 
L 3425 0 
L 2847 0 
L 2847 2094 
Q 2847 2600 2669 2842 
Q 2491 3084 2119 3084 
Q 1678 3084 1418 2786 
Q 1159 2488 1159 1978 
L 1159 0 
L 581 0 
L 581 3500 
L 1159 3500 
L 1159 2956 
Q 1356 3278 1631 3431 
Q 1906 3584 2284 3584 
Q 2666 3584 2933 3390 
Q 3200 3197 3328 2828 
z
" transform="scale(0.015625)"/>
       <path id="DejaVuSans-65" d="M 3597 1894 
L 3597 1613 
L 953 1613 
Q 991 1019 1311 708 
Q 1631 397 2203 397 
Q 2534 397 2845 478 
Q 3156 559 3463 722 
L 3463 178 
Q 3153 47 2828 -22 
Q 2503 -91 2169 -91 
Q 1331 -91 842 396 
Q 353 884 353 1716 
Q 353 2575 817 3079 
Q 1281 3584 2069 3584 
Q 2775 3584 3186 3129 
Q 3597 2675 3597 1894 
z
M 3022 2063 
Q 3016 2534 2758 2815 
Q 2500 3097 2075 3097 
Q 1594 3097 1305 2825 
Q 1016 2553 972 2059 
L 3022 2063 
z
" transform="scale(0.015625)"/>
       <path id="DejaVuSans-20" transform="scale(0.015625)"/>
       <path id="DejaVuSans-28" d="M 1984 4856 
Q 1566 4138 1362 3434 
Q 1159 2731 1159 2009 
Q 1159 1288 1364 580 
Q 1569 -128 1984 -844 
L 1484 -844 
Q 1016 -109 783 600 
Q 550 1309 550 2009 
Q 550 2706 781 3412 
Q 1013 4119 1484 4856 
L 1984 4856 
z
" transform="scale(0.015625)"/>
       <path id="DejaVuSans-73" d="M 2834 3397 
L 2834 2853 
Q 2591 2978 2328 3040 
Q 2066 3103 1784 3103 
Q 1356 3103 1142 2972 
Q 928 2841 928 2578 
Q 928 2378 1081 2264 
Q 1234 2150 1697 2047 
L 1894 2003 
Q 2506 1872 2764 1633 
Q 3022 1394 3022 966 
Q 3022 478 2636 193 
Q 2250 -91 1575 -91 
Q 1294 -91 989 -36 
Q 684 19 347 128 
L 347 722 
Q 666 556 975 473 
Q 1284 391 1588 391 
Q 1994 391 2212 530 
Q 2431 669 2431 922 
Q 2431 1156 2273 1281 
Q 2116 1406 1581 1522 
L 1381 1569 
Q 847 1681 609 1914 
Q 372 2147 372 2553 
Q 372 3047 722 3315 
Q 1072 3584 1716 3584 
Q 2034 3584 2315 3537 
Q 2597 3491 2834 3397 
z
" transform="scale(0.015625)"/>
       <path id="DejaVuSans-29" d="M 513 4856 
L 1013 4856 
Q 1481 4119 1714 3412 
Q 1947 2706 1947 2009 
Q 1947 1309 1714 600 
Q 1481 -109 1013 -844 
L 513 -844 
Q 928 -128 1133 580 
Q 1338 1288 1338 2009 
Q 1338 2731 1133 3434 
Q 928 4138 513 4856 
z
" transform="scale(0.015625)"/>
      </defs>
      <use xlink:href="#DejaVuSans-54"/>
      <use xlink:href="#DejaVuSans-69" transform="translate(57.958984 0)"/>
      <use xlink:href="#DejaVuSans-6d" transform="translate(85.742188 0)"/>
      <use xlink:href="#DejaVuSans-65" transform="translate(183.154297 0)"/>
      <use xlink:href="#DejaVuSans-20" transform="translate(244.677734 0)"/>
      <use xlink:href="#DejaVuSans-28" transform="translate(276.464844 0)"/>
      <use xlink:href="#DejaVuSans-73" transform="translate(315.478516 0)"/>
      <use xlink:href="#DejaVuSans-29" transform="translate(367.578125 0)"/>
     </g>
    </g>
   </g>
   <g id="matplotlib.axis_2">
    <g id="ytick_1">
     <g id="line2d_6">
      <defs>
       <path id="m27df2f145b" d="M 0 0 
L -5 0 
" style="stroke: #000000; stroke-width: 1.6"/>
      </defs>
      <g>
       <use xlink:href="#m27df2f145b" x="101.56" y="302.711369" style="stroke: #000000; stroke-width: 1.6"/>
      </g>
     </g>
     <g id="text_7">
      <!-- 0.0 -->
      <g transform="translate(42.17 314.868869) scale(0.32 -0.32)">
       <defs>
        <path id="DejaVuSans-2e" d="M 684 794 
L 1344 794 
L 1344 0 
L 684 0 
L 684 794 
z
" transform="scale(0.015625)"/>
       </defs>
       <use xlink:href="#DejaVuSans-30"/>
       <use xlink:href="#DejaVuSans-2e" transform="translate(63.623047 0)"/>
       <use xlink:href="#DejaVuSans-30" transform="translate(95.410156 0)"/>
      </g>
     </g>
    </g>
    <g id="ytick_2">
     <g id="line2d_7">
      <g>
       <use xlink:href="#m27df2f145b" x="101.56" y="182.720302" style="stroke: #000000; stroke-width: 1.6"/>
      </g>
     </g>
     <g id="text_8">
      <!-- 0.2 -->
      <g transform="translate(42.17 194.877802) scale(0.32 -0.32)">
       <use xlink:href="#DejaVuSans-30"/>
       <use xlink:href="#DejaVuSans-2e" transform="translate(63.623047 0)"/>
       <use xlink:href="#DejaVuSans-32" transform="translate(95.410156 0)"/>
      </g>
     </g>
    </g>
    <g id="ytick_3">
     <g id="line2d_8">
      <g>
       <use xlink:href="#m27df2f145b" x="101.56" y="62.729235" style="stroke: #000000; stroke-width: 1.6"/>
      </g>
     </g>
     <g id="text_9">
      <!-- 0.4 -->
      <g transform="translate(42.17 74.886735) scale(0.32 -0.32)">
       <defs>
        <path id="DejaVuSans-34" d="M 2419 4116 
L 825 1625 
L 2419 1625 
L 2419 4116 
z
M 2253 4666 
L 3047 4666 
L 3047 1625 
L 3713 1625 
L 3713 1100 
L 3047 1100 
L 3047 0 
L 2419 0 
L 2419 1100 
L 313 1100 
L 313 1709 
L 2253 4666 
z
" transform="scale(0.015625)"/>
       </defs>
       <use xlink:href="#DejaVuSans-30"/>
       <use xlink:href="#DejaVuSans-2e" transform="translate(63.623047 0)"/>
       <use xlink:href="#DejaVuSans-34" transform="translate(95.410156 0)"/>
      </g>
     </g>
    </g>
    <g id="text_10">
     <!-- Neural Activity -->
     <g transform="translate(31.515 294.944838) rotate(-90) scale(0.32 -0.32)">
      <defs>
       <path id="DejaVuSans-4e" d="M 628 4666 
L 1478 4666 
L 3547 763 
L 3547 4666 
L 4159 4666 
L 4159 0 
L 3309 0 
L 1241 3903 
L 1241 0 
L 628 0 
L 628 4666 
z
" transform="scale(0.015625)"/>
       <path id="DejaVuSans-75" d="M 544 1381 
L 544 3500 
L 1119 3500 
L 1119 1403 
Q 1119 906 1312 657 
Q 1506 409 1894 409 
Q 2359 409 2629 706 
Q 2900 1003 2900 1516 
L 2900 3500 
L 3475 3500 
L 3475 0 
L 2900 0 
L 2900 538 
Q 2691 219 2414 64 
Q 2138 -91 1772 -91 
Q 1169 -91 856 284 
Q 544 659 544 1381 
z
M 1991 3584 
L 1991 3584 
z
" transform="scale(0.015625)"/>
       <path id="DejaVuSans-72" d="M 2631 2963 
Q 2534 3019 2420 3045 
Q 2306 3072 2169 3072 
Q 1681 3072 1420 2755 
Q 1159 2438 1159 1844 
L 1159 0 
L 581 0 
L 581 3500 
L 1159 3500 
L 1159 2956 
Q 1341 3275 1631 3429 
Q 1922 3584 2338 3584 
Q 2397 3584 2469 3576 
Q 2541 3569 2628 3553 
L 2631 2963 
z
" transform="scale(0.015625)"/>
       <path id="DejaVuSans-61" d="M 2194 1759 
Q 1497 1759 1228 1600 
Q 959 1441 959 1056 
Q 959 750 1161 570 
Q 1363 391 1709 391 
Q 2188 391 2477 730 
Q 2766 1069 2766 1631 
L 2766 1759 
L 2194 1759 
z
M 3341 1997 
L 3341 0 
L 2766 0 
L 2766 531 
Q 2569 213 2275 61 
Q 1981 -91 1556 -91 
Q 1019 -91 701 211 
Q 384 513 384 1019 
Q 384 1609 779 1909 
Q 1175 2209 1959 2209 
L 2766 2209 
L 2766 2266 
Q 2766 2663 2505 2880 
Q 2244 3097 1772 3097 
Q 1472 3097 1187 3025 
Q 903 2953 641 2809 
L 641 3341 
Q 956 3463 1253 3523 
Q 1550 3584 1831 3584 
Q 2591 3584 2966 3190 
Q 3341 2797 3341 1997 
z
" transform="scale(0.015625)"/>
       <path id="DejaVuSans-6c" d="M 603 4863 
L 1178 4863 
L 1178 0 
L 603 0 
L 603 4863 
z
" transform="scale(0.015625)"/>
       <path id="DejaVuSans-41" d="M 2188 4044 
L 1331 1722 
L 3047 1722 
L 2188 4044 
z
M 1831 4666 
L 2547 4666 
L 4325 0 
L 3669 0 
L 3244 1197 
L 1141 1197 
L 716 0 
L 50 0 
L 1831 4666 
z
" transform="scale(0.015625)"/>
       <path id="DejaVuSans-63" d="M 3122 3366 
L 3122 2828 
Q 2878 2963 2633 3030 
Q 2388 3097 2138 3097 
Q 1578 3097 1268 2742 
Q 959 2388 959 1747 
Q 959 1106 1268 751 
Q 1578 397 2138 397 
Q 2388 397 2633 464 
Q 2878 531 3122 666 
L 3122 134 
Q 2881 22 2623 -34 
Q 2366 -91 2075 -91 
Q 1284 -91 818 406 
Q 353 903 353 1747 
Q 353 2603 823 3093 
Q 1294 3584 2113 3584 
Q 2378 3584 2631 3529 
Q 2884 3475 3122 3366 
z
" transform="scale(0.015625)"/>
       <path id="DejaVuSans-74" d="M 1172 4494 
L 1172 3500 
L 2356 3500 
L 2356 3053 
L 1172 3053 
L 1172 1153 
Q 1172 725 1289 603 
Q 1406 481 1766 481 
L 2356 481 
L 2356 0 
L 1766 0 
Q 1100 0 847 248 
Q 594 497 594 1153 
L 594 3053 
L 172 3053 
L 172 3500 
L 594 3500 
L 594 4494 
L 1172 4494 
z
" transform="scale(0.015625)"/>
       <path id="DejaVuSans-76" d="M 191 3500 
L 800 3500 
L 1894 563 
L 2988 3500 
L 3597 3500 
L 2284 0 
L 1503 0 
L 191 3500 
z
" transform="scale(0.015625)"/>
       <path id="DejaVuSans-79" d="M 2059 -325 
Q 1816 -950 1584 -1140 
Q 1353 -1331 966 -1331 
L 506 -1331 
L 506 -850 
L 844 -850 
Q 1081 -850 1212 -737 
Q 1344 -625 1503 -206 
L 1606 56 
L 191 3500 
L 800 3500 
L 1894 763 
L 2988 3500 
L 3597 3500 
L 2059 -325 
z
" transform="scale(0.015625)"/>
      </defs>
      <use xlink:href="#DejaVuSans-4e"/>
      <use xlink:href="#DejaVuSans-65" transform="translate(74.804688 0)"/>
      <use xlink:href="#DejaVuSans-75" transform="translate(136.328125 0)"/>
      <use xlink:href="#DejaVuSans-72" transform="translate(199.707031 0)"/>
      <use xlink:href="#DejaVuSans-61" transform="translate(240.820312 0)"/>
      <use xlink:href="#DejaVuSans-6c" transform="translate(302.099609 0)"/>
      <use xlink:href="#DejaVuSans-20" transform="translate(329.882812 0)"/>
      <use xlink:href="#DejaVuSans-41" transform="translate(361.669922 0)"/>
      <use xlink:href="#DejaVuSans-63" transform="translate(428.328125 0)"/>
      <use xlink:href="#DejaVuSans-74" transform="translate(483.308594 0)"/>
      <use xlink:href="#DejaVuSans-69" transform="translate(522.517578 0)"/>
      <use xlink:href="#DejaVuSans-76" transform="translate(550.300781 0)"/>
      <use xlink:href="#DejaVuSans-69" transform="translate(609.480469 0)"/>
      <use xlink:href="#DejaVuSans-74" transform="translate(637.263672 0)"/>
      <use xlink:href="#DejaVuSans-79" transform="translate(676.472656 0)"/>
     </g>
    </g>
   </g>
   <g id="line2d_9">
    <path d="M 102.458359 299.88558 
L 103.356718 299.17513 
L 106.051794 299.610939 
L 111.441947 300.432268 
L 114.137023 300.757325 
L 115.035382 300.606946 
L 115.93374 300.220307 
L 117.730458 300.463185 
L 118.628817 299.66437 
L 119.527176 299.603016 
L 122.222252 300.046345 
L 123.120611 299.459074 
L 127.612404 300.194805 
L 128.510763 300.320633 
L 129.409122 300.128898 
L 134.799275 300.813016 
L 140.189427 301.315905 
L 141.087786 301.162052 
L 142.884504 301.313111 
L 143.782862 301.005368 
L 145.57958 301.106684 
L 147.376298 301.263141 
L 148.274656 300.849313 
L 154.563168 301.411026 
L 157.258244 301.596488 
L 158.156603 301.284269 
L 160.851679 301.487809 
L 161.750038 301.410899 
L 162.648397 300.742263 
L 165.343473 301.023107 
L 166.241832 300.815555 
L 168.038549 301.000397 
L 168.936908 299.825679 
L 173.428702 300.478477 
L 174.327061 300.360709 
L 175.22542 298.408496 
L 179.717213 299.381888 
L 180.615572 299.548362 
L 181.513931 299.295877 
L 182.41229 298.762752 
L 186.904084 299.656005 
L 190.497519 300.213574 
L 192.294236 280.17642 
L 194.989313 260.384903 
L 195.887671 255.261997 
L 196.78603 249.224508 
L 197.684389 245.349036 
L 200.379465 235.547879 
L 201.277824 231.586667 
L 202.176183 229.833518 
L 203.074542 227.641507 
L 203.9729 224.648644 
L 204.871259 224.71936 
L 205.769618 222.75553 
L 206.667977 219.047339 
L 207.566335 217.205782 
L 208.464694 216.795766 
L 210.261412 214.379436 
L 211.159771 213.507899 
L 212.058129 211.998044 
L 212.956488 209.528235 
L 213.854847 208.17113 
L 215.651564 204.587733 
L 216.549923 203.823914 
L 217.448282 204.245786 
L 218.346641 203.510915 
L 219.245 202.279444 
L 220.143358 202.644027 
L 221.041717 203.148164 
L 221.940076 202.99158 
L 222.838435 202.064087 
L 223.736793 202.22701 
L 224.635152 202.71417 
L 225.533511 200.885156 
L 227.330228 199.461787 
L 228.228587 198.278538 
L 229.126946 199.261915 
L 230.025305 198.302605 
L 231.822022 200.70227 
L 232.720381 202.308669 
L 233.61874 203.243966 
L 234.517099 204.813987 
L 235.415457 203.913502 
L 236.313816 204.217651 
L 237.212175 203.860533 
L 238.110534 204.273973 
L 239.907251 205.799259 
L 242.602328 205.438725 
L 243.500686 205.095598 
L 244.399045 205.895534 
L 245.297404 207.702243 
L 246.195763 207.472386 
L 247.094122 208.162833 
L 247.99248 208.267861 
L 249.789198 210.868829 
L 250.687557 210.869759 
L 251.585915 209.345984 
L 252.484274 208.298641 
L 254.280992 210.451624 
L 255.179351 209.695825 
L 256.077709 209.494469 
L 256.976068 209.578031 
L 257.874427 209.051383 
L 258.772786 208.09328 
L 259.671144 208.721228 
L 260.569503 207.966197 
L 261.467862 209.003429 
L 262.366221 208.993318 
L 263.26458 210.202922 
L 264.162938 211.146944 
L 265.061297 211.900625 
L 265.959656 213.404552 
L 266.858015 213.723953 
L 267.756373 214.963077 
L 268.654732 213.625872 
L 269.553091 213.866251 
L 270.45145 214.414883 
L 271.349808 213.123451 
L 272.248167 212.911671 
L 273.146526 214.047609 
L 274.044885 214.807646 
L 274.943244 216.789561 
L 275.841602 217.818881 
L 276.739961 218.466032 
L 277.63832 218.210704 
L 278.536679 218.457252 
L 279.435037 217.928593 
L 280.333396 217.234918 
L 282.130114 225.568877 
L 283.926831 233.090273 
L 285.723549 239.878331 
L 287.520266 246.004555 
L 289.316984 251.533468 
L 291.113702 256.523315 
L 292.910419 261.02665 
L 294.707137 265.090913 
L 296.503854 268.758908 
L 298.300572 272.069272 
L 300.097289 275.056876 
L 301.894007 277.753189 
L 304.589083 281.31285 
L 307.284159 284.364816 
L 309.979236 286.981494 
L 312.674312 289.224968 
L 315.369388 291.148466 
L 318.064465 292.797624 
L 320.759541 294.211573 
L 323.454617 295.423857 
L 327.048053 296.775645 
L 330.641488 297.876685 
L 335.133281 298.970383 
L 339.625075 299.816666 
L 345.015228 300.583496 
L 351.303739 301.225396 
L 358.49061 301.725545 
L 365.67748 302.057353 
L 366.575839 301.617418 
L 375.559426 302.05638 
L 376.457785 302.08913 
L 377.356144 301.595995 
L 386.339732 302.043554 
L 389.034808 302.138801 
L 389.933167 301.366014 
L 398.018396 301.86346 
L 407.900342 302.229078 
L 410.595419 302.297865 
L 411.493777 302.073696 
L 412.392136 301.997189 
L 422.274083 302.305143 
L 423.172441 301.560521 
L 431.25767 301.986048 
L 433.054388 302.056767 
L 433.952747 301.957588 
L 439.342899 302.157271 
L 440.241258 302.024213 
L 445.631411 302.206246 
L 446.52977 301.866698 
L 451.021563 302.057779 
L 451.919922 301.501793 
L 452.818281 301.562272 
L 453.71664 300.494624 
L 455.513357 300.710756 
L 456.411716 299.87198 
L 460.005151 300.398669 
L 460.005151 300.398669 
" clip-path="url(#pe8802a8d2d)" style="fill: none; stroke: #000000; stroke-width: 5; stroke-linecap: square"/>
   </g>
   <g id="line2d_10">
    <path d="M 102.458359 299.426545 
L 103.356718 298.046385 
L 104.255076 297.556599 
L 105.153435 297.354595 
L 106.051794 296.906835 
L 106.950153 297.197062 
L 107.848511 297.005004 
L 108.74687 297.024357 
L 109.645229 296.901986 
L 111.441947 295.048902 
L 112.340305 295.189682 
L 114.137023 295.923047 
L 116.832099 296.517322 
L 117.730458 296.827024 
L 118.628817 296.838823 
L 119.527176 297.13245 
L 120.425534 297.193823 
L 123.120611 297.980763 
L 124.018969 297.652894 
L 126.714046 298.374359 
L 127.612404 297.941515 
L 131.20584 298.826293 
L 132.104198 298.251534 
L 133.002557 298.442266 
L 135.697633 296.982275 
L 140.189427 298.259667 
L 141.087786 297.886182 
L 141.986145 298.127442 
L 142.884504 297.895031 
L 147.376298 298.984579 
L 150.969733 299.631487 
L 153.664809 300.070755 
L 156.359885 299.356805 
L 157.258244 299.002473 
L 159.95332 299.531455 
L 160.851679 299.451532 
L 161.750038 299.044967 
L 163.546755 299.310293 
L 164.445114 299.480347 
L 165.343473 298.950317 
L 166.241832 298.868317 
L 170.733626 299.737689 
L 171.631984 299.266824 
L 172.530343 299.06595 
L 173.428702 299.248221 
L 174.327061 299.058371 
L 175.22542 299.11835 
L 177.022137 299.437826 
L 177.920496 299.151698 
L 179.717213 299.423882 
L 180.615572 299.588257 
L 181.513931 298.931138 
L 182.41229 297.7862 
L 183.310649 297.883162 
L 187.802442 298.975395 
L 190.497519 299.508238 
L 193.192595 296.073064 
L 194.090954 295.255306 
L 194.989313 294.727265 
L 196.78603 294.589125 
L 197.684389 293.750568 
L 198.582748 293.281485 
L 199.481106 292.623745 
L 201.277824 291.954361 
L 202.176183 292.144277 
L 203.074542 292.672632 
L 204.871259 292.956403 
L 205.769618 291.649485 
L 207.566335 289.728272 
L 208.464694 289.418631 
L 209.363053 288.721241 
L 210.261412 288.818493 
L 211.159771 288.255652 
L 212.058129 287.409849 
L 212.956488 286.756816 
L 213.854847 286.429245 
L 214.753206 286.698039 
L 215.651564 286.283398 
L 216.549923 285.502712 
L 217.448282 285.584423 
L 218.346641 285.986512 
L 219.245 285.320856 
L 220.143358 285.303789 
L 221.041717 285.955139 
L 221.940076 285.665596 
L 222.838435 285.837285 
L 223.736793 286.566985 
L 224.635152 287.047651 
L 225.533511 286.936124 
L 226.43187 287.174648 
L 228.228587 286.635986 
L 229.126946 286.218609 
L 230.025305 285.065899 
L 230.923664 284.618555 
L 232.720381 284.5078 
L 233.61874 285.417979 
L 234.517099 285.824157 
L 235.415457 285.890456 
L 236.313816 285.618683 
L 238.110534 285.63841 
L 239.008893 285.369089 
L 239.907251 285.987784 
L 240.80561 286.823963 
L 241.703969 287.427835 
L 242.602328 287.501911 
L 243.500686 286.909384 
L 244.399045 287.699483 
L 245.297404 287.474846 
L 246.195763 287.376515 
L 247.99248 288.10724 
L 248.890839 287.137129 
L 249.789198 287.128658 
L 250.687557 287.008339 
L 251.585915 286.477795 
L 252.484274 286.172241 
L 253.382633 285.406159 
L 254.280992 285.284207 
L 255.179351 284.818079 
L 256.077709 285.127235 
L 257.874427 285.53206 
L 258.772786 285.16781 
L 259.671144 285.095962 
L 260.569503 284.473908 
L 261.467862 284.84891 
L 262.366221 284.585932 
L 263.26458 283.883655 
L 265.959656 282.938738 
L 266.858015 282.74575 
L 267.756373 282.785584 
L 268.654732 283.512254 
L 269.553091 283.895015 
L 270.45145 283.959649 
L 271.349808 284.182209 
L 272.248167 284.13714 
L 273.146526 283.419435 
L 274.943244 282.841421 
L 275.841602 282.319507 
L 278.536679 283.778694 
L 279.435037 284.477458 
L 282.130114 287.078071 
L 284.82519 289.307769 
L 287.520266 291.219459 
L 290.215343 292.858493 
L 292.910419 294.263759 
L 294.707137 295.087402 
L 295.605495 295.224963 
L 299.19893 296.613644 
L 302.792366 297.744734 
L 306.385801 298.666014 
L 309.080877 299.242983 
L 309.979236 299.027345 
L 314.47103 299.860741 
L 319.861182 300.615896 
L 320.759541 300.72067 
L 321.6579 300.432701 
L 322.556259 299.969522 
L 325.251335 300.360578 
L 327.048053 300.035387 
L 332.438205 300.744277 
L 338.726717 301.337675 
L 346.811946 301.845599 
L 356.693892 302.218919 
L 365.67748 302.416521 
L 366.575839 302.035016 
L 368.372556 302.008485 
L 373.762709 302.154641 
L 374.661068 302.110254 
L 377.356144 300.857879 
L 378.254503 299.761692 
L 380.05122 299.946578 
L 384.543014 300.572027 
L 385.441373 300.350179 
L 390.831526 300.975677 
L 394.424961 301.297637 
L 396.221678 301.35423 
L 398.916755 301.547792 
L 399.815113 301.085801 
L 400.713472 301.167079 
L 401.611831 300.706147 
L 402.51019 300.549577 
L 403.408548 300.521604 
L 407.900342 300.993829 
L 408.798701 300.600314 
L 412.392136 300.991901 
L 413.290495 300.924438 
L 416.88393 301.176135 
L 420.477365 301.377445 
L 424.969159 301.679204 
L 425.867518 301.504519 
L 426.765877 301.564862 
L 427.664235 301.381824 
L 433.952747 301.7412 
L 440.241258 302.009838 
L 441.139617 300.987755 
L 442.037976 301.073936 
L 442.936334 300.269252 
L 445.631411 300.617559 
L 446.52977 300.576496 
L 451.021563 301.042361 
L 451.919922 300.792007 
L 452.818281 300.887975 
L 454.614999 299.958433 
L 456.411716 299.465311 
L 460.005151 300.067435 
L 460.005151 300.067435 
" clip-path="url(#pe8802a8d2d)" style="fill: none; stroke: #ff0000; stroke-width: 5; stroke-linecap: square"/>
   </g>
   <g id="line2d_11">
    <path d="M 102.458359 300.489509 
L 103.356718 299.742154 
L 108.74687 300.528723 
L 109.645229 300.637855 
L 110.543588 300.119097 
L 111.441947 300.036069 
L 116.832099 300.744777 
L 117.730458 300.843107 
L 118.628817 299.072114 
L 119.527176 298.488495 
L 121.323893 298.900226 
L 123.120611 298.086765 
L 127.612404 299.132939 
L 128.510763 299.31186 
L 129.409122 299.356027 
L 133.900916 300.115069 
L 134.799275 300.244884 
L 135.697633 299.936735 
L 141.087786 300.671758 
L 142.884504 300.87062 
L 143.782862 300.486456 
L 149.173015 301.075854 
L 150.071374 300.94901 
L 151.868091 301.12084 
L 152.76645 300.917627 
L 157.258244 301.323406 
L 158.156603 300.423242 
L 159.95332 300.646335 
L 160.851679 300.421754 
L 162.648397 299.214279 
L 164.445114 299.555245 
L 165.343473 299.291215 
L 166.241832 299.336191 
L 168.038549 299.665271 
L 168.936908 298.8945 
L 173.428702 299.757949 
L 174.327061 299.306823 
L 175.22542 298.045477 
L 179.717213 299.100991 
L 180.615572 299.28151 
L 181.513931 299.199267 
L 186.005725 299.993771 
L 190.497519 300.608544 
L 191.395877 291.426936 
L 192.294236 283.504097 
L 194.989313 265.726103 
L 196.78603 256.895976 
L 198.582748 251.514524 
L 199.481106 249.495682 
L 200.379465 247.880366 
L 201.277824 245.828061 
L 202.176183 245.014893 
L 203.074542 243.354667 
L 203.9729 240.576061 
L 204.871259 240.268376 
L 205.769618 238.954335 
L 206.667977 235.435534 
L 207.566335 233.933376 
L 208.464694 234.306234 
L 209.363053 234.023358 
L 210.261412 232.220328 
L 211.159771 231.563173 
L 212.058129 231.798492 
L 212.956488 228.906759 
L 213.854847 228.302122 
L 214.753206 228.077978 
L 215.651564 227.216686 
L 216.549923 227.562379 
L 217.448282 227.775192 
L 218.346641 227.450057 
L 219.245 226.140029 
L 220.143358 225.981996 
L 221.041717 226.362234 
L 221.940076 226.103777 
L 222.838435 224.933867 
L 223.736793 224.664325 
L 224.635152 224.891071 
L 225.533511 222.608887 
L 226.43187 221.69433 
L 227.330228 221.462319 
L 228.228587 220.163109 
L 229.126946 221.494092 
L 230.025305 220.43325 
L 230.923664 221.196174 
L 231.822022 221.238326 
L 232.720381 221.740702 
L 233.61874 223.932986 
L 234.517099 225.223944 
L 235.415457 224.233112 
L 236.313816 224.603265 
L 239.907251 227.44961 
L 240.80561 227.470386 
L 241.703969 227.690758 
L 242.602328 226.976315 
L 243.500686 226.719048 
L 244.399045 225.8202 
L 245.297404 227.764951 
L 246.195763 227.585793 
L 247.094122 227.883729 
L 247.99248 227.430988 
L 248.890839 227.891337 
L 249.789198 229.31952 
L 250.687557 228.778456 
L 251.585915 227.634534 
L 252.484274 226.702303 
L 254.280992 230.132093 
L 256.077709 229.009422 
L 256.976068 228.404034 
L 257.874427 228.155443 
L 258.772786 227.288242 
L 259.671144 228.872603 
L 260.569503 229.332031 
L 261.467862 231.05803 
L 263.26458 233.715749 
L 264.162938 233.701789 
L 265.061297 234.846846 
L 265.959656 236.417811 
L 266.858015 236.29409 
L 267.756373 237.314424 
L 268.654732 236.581378 
L 269.553091 237.026399 
L 270.45145 238.409994 
L 271.349808 237.736532 
L 272.248167 237.763978 
L 273.146526 238.307344 
L 274.044885 238.351075 
L 274.943244 239.086987 
L 275.841602 238.355375 
L 276.739961 237.433948 
L 277.63832 237.691855 
L 278.536679 239.268152 
L 280.333396 237.047931 
L 282.130114 243.45012 
L 283.926831 249.228093 
L 285.723549 254.442715 
L 287.520266 259.148908 
L 289.316984 263.39625 
L 291.113702 267.229474 
L 292.910419 270.68896 
L 294.707137 273.811147 
L 296.503854 276.62892 
L 299.19893 280.348929 
L 301.894007 283.538375 
L 304.589083 286.272924 
L 307.284159 288.617458 
L 309.979236 290.627603 
L 312.674312 292.351051 
L 315.369388 293.828691 
L 318.064465 295.095583 
L 321.6579 296.508265 
L 325.251335 297.658903 
L 328.84477 298.596104 
L 333.336564 299.527056 
L 338.726717 300.370607 
L 344.116869 300.990694 
L 351.303739 301.569838 
L 359.388968 301.99192 
L 365.67748 302.208951 
L 366.575839 300.99412 
L 373.762709 301.572111 
L 381.847938 301.993352 
L 392.628243 302.323382 
L 398.916755 302.374624 
L 399.815113 302.096956 
L 401.611831 302.156861 
L 402.51019 301.95814 
L 411.493777 302.260383 
L 412.392136 302.171937 
L 415.087212 302.248873 
L 415.985571 301.579473 
L 417.782289 301.689833 
L 418.680648 301.52864 
L 419.579006 301.587777 
L 420.477365 301.279547 
L 422.274083 301.41915 
L 423.172441 301.006206 
L 424.0708 300.730425 
L 429.460953 301.255193 
L 430.359312 300.870851 
L 433.054388 301.133355 
L 433.952747 300.79909 
L 439.342899 301.305668 
L 440.241258 301.237212 
L 447.428128 301.733383 
L 448.326487 301.562866 
L 451.021563 301.726672 
L 451.919922 300.99516 
L 455.513357 301.313506 
L 456.411716 300.551561 
L 457.310075 300.659551 
L 458.208434 299.905814 
L 459.106792 300.046092 
L 460.005151 299.982073 
L 460.005151 299.982073 
" clip-path="url(#pe8802a8d2d)" style="fill: none; stroke: #0000ff; stroke-width: 5; stroke-linecap: square"/>
   </g>
   <g id="patch_3">
    <path d="M 101.56 322.75952 
L 101.56 31.720156 
" style="fill: none; stroke: #000000; stroke-width: 5; stroke-linejoin: miter; stroke-linecap: square"/>
   </g>
   <g id="patch_4">
    <path d="M 101.56 322.75952 
L 460.90351 322.75952 
" style="fill: none; stroke: #000000; stroke-width: 5; stroke-linejoin: miter; stroke-linecap: square"/>
   </g>
   <g id="patch_5">
    <path d="M 191.395877 316.938733 
L 281.231755 316.938733 
L 281.231755 306.752355 
L 191.395877 306.752355 
z
" style="fill: #8c5a2b; stroke: #8c5a2b; stroke-linejoin: miter"/>
   </g>
   <g id="text_11">
    <!-- Novel | Naive -->
    <g transform="translate(217.929099 21.720156) scale(0.19 -0.19)">
     <defs>
      <path id="DejaVuSans-6f" d="M 1959 3097 
Q 1497 3097 1228 2736 
Q 959 2375 959 1747 
Q 959 1119 1226 758 
Q 1494 397 1959 397 
Q 2419 397 2687 759 
Q 2956 1122 2956 1747 
Q 2956 2369 2687 2733 
Q 2419 3097 1959 3097 
z
M 1959 3584 
Q 2709 3584 3137 3096 
Q 3566 2609 3566 1747 
Q 3566 888 3137 398 
Q 2709 -91 1959 -91 
Q 1206 -91 779 398 
Q 353 888 353 1747 
Q 353 2609 779 3096 
Q 1206 3584 1959 3584 
z
" transform="scale(0.015625)"/>
      <path id="DejaVuSans-7c" d="M 1344 4891 
L 1344 -1509 
L 813 -1509 
L 813 4891 
L 1344 4891 
z
" transform="scale(0.015625)"/>
     </defs>
     <use xlink:href="#DejaVuSans-4e"/>
     <use xlink:href="#DejaVuSans-6f" transform="translate(74.804688 0)"/>
     <use xlink:href="#DejaVuSans-76" transform="translate(135.986328 0)"/>
     <use xlink:href="#DejaVuSans-65" transform="translate(195.166016 0)"/>
     <use xlink:href="#DejaVuSans-6c" transform="translate(256.689453 0)"/>
     <use xlink:href="#DejaVuSans-20" transform="translate(284.472656 0)"/>
     <use xlink:href="#DejaVuSans-7c" transform="translate(316.259766 0)"/>
     <use xlink:href="#DejaVuSans-20" transform="translate(349.951172 0)"/>
     <use xlink:href="#DejaVuSans-4e" transform="translate(381.738281 0)"/>
     <use xlink:href="#DejaVuSans-61" transform="translate(456.542969 0)"/>
     <use xlink:href="#DejaVuSans-69" transform="translate(517.822266 0)"/>
     <use xlink:href="#DejaVuSans-76" transform="translate(545.605469 0)"/>
     <use xlink:href="#DejaVuSans-65" transform="translate(604.785156 0)"/>
    </g>
   </g>
   <g id="legend_1">
    <g id="line2d_12">
     <path d="M 110.56 46.867812 
L 125.56 46.867812 
L 140.56 46.867812 
" style="fill: none; stroke: #000000; stroke-width: 5; stroke-linecap: square"/>
    </g>
    <g id="text_12">
     <!-- Nonoccluded (NO) -->
     <g transform="translate(152.56 52.117812) scale(0.15 -0.15)">
      <defs>
       <path id="DejaVuSans-6e" d="M 3513 2113 
L 3513 0 
L 2938 0 
L 2938 2094 
Q 2938 2591 2744 2837 
Q 2550 3084 2163 3084 
Q 1697 3084 1428 2787 
Q 1159 2491 1159 1978 
L 1159 0 
L 581 0 
L 581 3500 
L 1159 3500 
L 1159 2956 
Q 1366 3272 1645 3428 
Q 1925 3584 2291 3584 
Q 2894 3584 3203 3211 
Q 3513 2838 3513 2113 
z
" transform="scale(0.015625)"/>
       <path id="DejaVuSans-64" d="M 2906 2969 
L 2906 4863 
L 3481 4863 
L 3481 0 
L 2906 0 
L 2906 525 
Q 2725 213 2448 61 
Q 2172 -91 1784 -91 
Q 1150 -91 751 415 
Q 353 922 353 1747 
Q 353 2572 751 3078 
Q 1150 3584 1784 3584 
Q 2172 3584 2448 3432 
Q 2725 3281 2906 2969 
z
M 947 1747 
Q 947 1113 1208 752 
Q 1469 391 1925 391 
Q 2381 391 2643 752 
Q 2906 1113 2906 1747 
Q 2906 2381 2643 2742 
Q 2381 3103 1925 3103 
Q 1469 3103 1208 2742 
Q 947 2381 947 1747 
z
" transform="scale(0.015625)"/>
       <path id="DejaVuSans-4f" d="M 2522 4238 
Q 1834 4238 1429 3725 
Q 1025 3213 1025 2328 
Q 1025 1447 1429 934 
Q 1834 422 2522 422 
Q 3209 422 3611 934 
Q 4013 1447 4013 2328 
Q 4013 3213 3611 3725 
Q 3209 4238 2522 4238 
z
M 2522 4750 
Q 3503 4750 4090 4092 
Q 4678 3434 4678 2328 
Q 4678 1225 4090 567 
Q 3503 -91 2522 -91 
Q 1538 -91 948 565 
Q 359 1222 359 2328 
Q 359 3434 948 4092 
Q 1538 4750 2522 4750 
z
" transform="scale(0.015625)"/>
      </defs>
      <use xlink:href="#DejaVuSans-4e"/>
      <use xlink:href="#DejaVuSans-6f" transform="translate(74.804688 0)"/>
      <use xlink:href="#DejaVuSans-6e" transform="translate(135.986328 0)"/>
      <use xlink:href="#DejaVuSans-6f" transform="translate(199.365234 0)"/>
      <use xlink:href="#DejaVuSans-63" transform="translate(260.546875 0)"/>
      <use xlink:href="#DejaVuSans-63" transform="translate(315.527344 0)"/>
      <use xlink:href="#DejaVuSans-6c" transform="translate(370.507812 0)"/>
      <use xlink:href="#DejaVuSans-75" transform="translate(398.291016 0)"/>
      <use xlink:href="#DejaVuSans-64" transform="translate(461.669922 0)"/>
      <use xlink:href="#DejaVuSans-65" transform="translate(525.146484 0)"/>
      <use xlink:href="#DejaVuSans-64" transform="translate(586.669922 0)"/>
      <use xlink:href="#DejaVuSans-20" transform="translate(650.146484 0)"/>
      <use xlink:href="#DejaVuSans-28" transform="translate(681.933594 0)"/>
      <use xlink:href="#DejaVuSans-4e" transform="translate(720.947266 0)"/>
      <use xlink:href="#DejaVuSans-4f" transform="translate(795.751953 0)"/>
      <use xlink:href="#DejaVuSans-29" transform="translate(874.462891 0)"/>
     </g>
    </g>
    <g id="line2d_13">
     <path d="M 110.56 68.885 
L 125.56 68.885 
L 140.56 68.885 
" style="fill: none; stroke: #ff0000; stroke-width: 5; stroke-linecap: square"/>
    </g>
    <g id="text_13">
     <!-- Occluded (O) -->
     <g transform="translate(152.56 74.135) scale(0.15 -0.15)">
      <use xlink:href="#DejaVuSans-4f"/>
      <use xlink:href="#DejaVuSans-63" transform="translate(78.710938 0)"/>
      <use xlink:href="#DejaVuSans-63" transform="translate(133.691406 0)"/>
      <use xlink:href="#DejaVuSans-6c" transform="translate(188.671875 0)"/>
      <use xlink:href="#DejaVuSans-75" transform="translate(216.455078 0)"/>
      <use xlink:href="#DejaVuSans-64" transform="translate(279.833984 0)"/>
      <use xlink:href="#DejaVuSans-65" transform="translate(343.310547 0)"/>
      <use xlink:href="#DejaVuSans-64" transform="translate(404.833984 0)"/>
      <use xlink:href="#DejaVuSans-20" transform="translate(468.310547 0)"/>
      <use xlink:href="#DejaVuSans-28" transform="translate(500.097656 0)"/>
      <use xlink:href="#DejaVuSans-4f" transform="translate(539.111328 0)"/>
      <use xlink:href="#DejaVuSans-29" transform="translate(617.822266 0)"/>
     </g>
    </g>
    <g id="line2d_14">
     <path d="M 110.56 90.902187 
L 125.56 90.902187 
L 140.56 90.902187 
" style="fill: none; stroke: #0000ff; stroke-width: 5; stroke-linecap: square"/>
    </g>
    <g id="text_14">
     <!-- No feedback -->
     <g transform="translate(152.56 96.152187) scale(0.15 -0.15)">
      <defs>
       <path id="DejaVuSans-66" d="M 2375 4863 
L 2375 4384 
L 1825 4384 
Q 1516 4384 1395 4259 
Q 1275 4134 1275 3809 
L 1275 3500 
L 2222 3500 
L 2222 3053 
L 1275 3053 
L 1275 0 
L 697 0 
L 697 3053 
L 147 3053 
L 147 3500 
L 697 3500 
L 697 3744 
Q 697 4328 969 4595 
Q 1241 4863 1831 4863 
L 2375 4863 
z
" transform="scale(0.015625)"/>
       <path id="DejaVuSans-62" d="M 3116 1747 
Q 3116 2381 2855 2742 
Q 2594 3103 2138 3103 
Q 1681 3103 1420 2742 
Q 1159 2381 1159 1747 
Q 1159 1113 1420 752 
Q 1681 391 2138 391 
Q 2594 391 2855 752 
Q 3116 1113 3116 1747 
z
M 1159 2969 
Q 1341 3281 1617 3432 
Q 1894 3584 2278 3584 
Q 2916 3584 3314 3078 
Q 3713 2572 3713 1747 
Q 3713 922 3314 415 
Q 2916 -91 2278 -91 
Q 1894 -91 1617 61 
Q 1341 213 1159 525 
L 1159 0 
L 581 0 
L 581 4863 
L 1159 4863 
L 1159 2969 
z
" transform="scale(0.015625)"/>
       <path id="DejaVuSans-6b" d="M 581 4863 
L 1159 4863 
L 1159 1991 
L 2875 3500 
L 3609 3500 
L 1753 1863 
L 3688 0 
L 2938 0 
L 1159 1709 
L 1159 0 
L 581 0 
L 581 4863 
z
" transform="scale(0.015625)"/>
      </defs>
      <use xlink:href="#DejaVuSans-4e"/>
      <use xlink:href="#DejaVuSans-6f" transform="translate(74.804688 0)"/>
      <use xlink:href="#DejaVuSans-20" transform="translate(135.986328 0)"/>
      <use xlink:href="#DejaVuSans-66" transform="translate(167.773438 0)"/>
      <use xlink:href="#DejaVuSans-65" transform="translate(202.978516 0)"/>
      <use xlink:href="#DejaVuSans-65" transform="translate(264.501953 0)"/>
      <use xlink:href="#DejaVuSans-64" transform="translate(326.025391 0)"/>
      <use xlink:href="#DejaVuSans-62" transform="translate(389.501953 0)"/>
      <use xlink:href="#DejaVuSans-61" transform="translate(452.978516 0)"/>
      <use xlink:href="#DejaVuSans-63" transform="translate(514.257812 0)"/>
      <use xlink:href="#DejaVuSans-6b" transform="translate(569.238281 0)"/>
     </g>
    </g>
   </g>
  </g>
  <g id="axes_2">
   <g id="patch_6">
    <path d="M 495.67601 322.75952 
L 855.01952 322.75952 
L 855.01952 31.720156 
L 495.67601 31.720156 
z
" style="fill: #ffffff"/>
   </g>
   <g id="matplotlib.axis_3">
    <g id="xtick_6">
     <g id="line2d_15">
      <g>
       <use xlink:href="#mf56c5a6dc2" x="495.67601" y="322.75952" style="stroke: #000000; stroke-width: 1.6"/>
      </g>
     </g>
     <g id="text_15">
      <!-- -1 -->
      <g transform="translate(479.72351 355.57452) scale(0.32 -0.32)">
       <use xlink:href="#DejaVuSans-2d"/>
       <use xlink:href="#DejaVuSans-31" transform="translate(36.083984 0)"/>
      </g>
     </g>
    </g>
    <g id="xtick_7">
     <g id="line2d_16">
      <g>
       <use xlink:href="#mf56c5a6dc2" x="585.511887" y="322.75952" style="stroke: #000000; stroke-width: 1.6"/>
      </g>
     </g>
     <g id="text_16">
      <!-- 0 -->
      <g transform="translate(575.331887 355.57452) scale(0.32 -0.32)">
       <use xlink:href="#DejaVuSans-30"/>
      </g>
     </g>
    </g>
    <g id="xtick_8">
     <g id="line2d_17">
      <g>
       <use xlink:href="#mf56c5a6dc2" x="675.347765" y="322.75952" style="stroke: #000000; stroke-width: 1.6"/>
      </g>
     </g>
     <g id="text_17">
      <!-- 1 -->
      <g transform="translate(665.167765 355.57452) scale(0.32 -0.32)">
       <use xlink:href="#DejaVuSans-31"/>
      </g>
     </g>
    </g>
    <g id="xtick_9">
     <g id="line2d_18">
      <g>
       <use xlink:href="#mf56c5a6dc2" x="765.183642" y="322.75952" style="stroke: #000000; stroke-width: 1.6"/>
      </g>
     </g>
     <g id="text_18">
      <!-- 2 -->
      <g transform="translate(755.003642 355.57452) scale(0.32 -0.32)">
       <use xlink:href="#DejaVuSans-32"/>
      </g>
     </g>
    </g>
    <g id="xtick_10">
     <g id="line2d_19">
      <g>
       <use xlink:href="#mf56c5a6dc2" x="855.01952" y="322.75952" style="stroke: #000000; stroke-width: 1.6"/>
      </g>
     </g>
     <g id="text_19">
      <!-- 3 -->
      <g transform="translate(844.83952 355.57452) scale(0.32 -0.32)">
       <use xlink:href="#DejaVuSans-33"/>
      </g>
     </g>
    </g>
    <g id="text_20">
     <!-- Time (s) -->
     <g transform="translate(610.295265 390.54452) scale(0.32 -0.32)">
      <use xlink:href="#DejaVuSans-54"/>
      <use xlink:href="#DejaVuSans-69" transform="translate(57.958984 0)"/>
      <use xlink:href="#DejaVuSans-6d" transform="translate(85.742188 0)"/>
      <use xlink:href="#DejaVuSans-65" transform="translate(183.154297 0)"/>
      <use xlink:href="#DejaVuSans-20" transform="translate(244.677734 0)"/>
      <use xlink:href="#DejaVuSans-28" transform="translate(276.464844 0)"/>
      <use xlink:href="#DejaVuSans-73" transform="translate(315.478516 0)"/>
      <use xlink:href="#DejaVuSans-29" transform="translate(367.578125 0)"/>
     </g>
    </g>
   </g>
   <g id="matplotlib.axis_4">
    <g id="ytick_4">
     <g id="line2d_20">
      <g>
       <use xlink:href="#m27df2f145b" x="495.67601" y="302.711369" style="stroke: #000000; stroke-width: 1.6"/>
      </g>
     </g>
    </g>
    <g id="ytick_5">
     <g id="line2d_21">
      <g>
       <use xlink:href="#m27df2f145b" x="495.67601" y="182.720302" style="stroke: #000000; stroke-width: 1.6"/>
      </g>
     </g>
    </g>
    <g id="ytick_6">
     <g id="line2d_22">
      <g>
       <use xlink:href="#m27df2f145b" x="495.67601" y="62.729235" style="stroke: #000000; stroke-width: 1.6"/>
      </g>
     </g>
    </g>
   </g>
   <g id="line2d_23">
    <path d="M 496.574369 302.542405 
L 497.472728 302.078571 
L 509.151392 302.386527 
L 526.220208 302.588789 
L 537.000514 302.645132 
L 537.898872 302.413735 
L 541.492308 302.468945 
L 542.390666 301.507728 
L 550.475895 301.952775 
L 551.374254 301.990705 
L 552.272613 301.679725 
L 561.256201 302.093686 
L 562.154559 302.12457 
L 563.052918 301.418686 
L 571.138147 301.896657 
L 581.020094 302.247961 
L 584.613529 302.33392 
L 585.511887 280.282485 
L 587.308605 245.645622 
L 589.105323 222.079369 
L 590.003681 214.051417 
L 590.90204 203.577634 
L 592.698758 191.364211 
L 594.495475 180.591992 
L 595.393834 169.10213 
L 597.190552 154.314406 
L 598.987269 139.301743 
L 599.885628 129.905788 
L 600.783987 119.270798 
L 601.682345 111.966239 
L 602.580704 105.592729 
L 603.479063 100.186192 
L 604.377422 96.273748 
L 606.174139 92.536797 
L 607.072498 92.338454 
L 608.869216 88.69911 
L 609.767574 88.670895 
L 610.665933 83.444357 
L 611.564292 81.840229 
L 612.462651 77.396729 
L 613.36101 70.894466 
L 616.056086 60.784936 
L 616.954445 56.28161 
L 617.852803 54.599668 
L 618.751162 53.584349 
L 619.649521 51.791837 
L 620.54788 53.279315 
L 621.446238 57.456562 
L 622.344597 59.46022 
L 623.242956 59.694735 
L 624.141315 58.404938 
L 625.039674 58.188482 
L 625.938032 60.55262 
L 626.836391 61.871489 
L 627.73475 63.574672 
L 628.633109 64.720159 
L 629.531467 65.204172 
L 630.429826 65.141931 
L 631.328185 68.674907 
L 632.226544 69.171418 
L 633.124903 68.892632 
L 634.023261 70.268253 
L 634.92162 69.906074 
L 635.819979 67.838459 
L 636.718338 67.426521 
L 637.616696 69.099862 
L 638.515055 72.709292 
L 639.413414 72.908834 
L 640.311773 73.741633 
L 641.210132 73.583645 
L 643.006849 76.725244 
L 643.905208 78.743992 
L 644.803567 79.654373 
L 646.600284 87.931841 
L 647.498643 88.554657 
L 648.397002 87.159583 
L 649.295361 84.214433 
L 650.193719 87.659045 
L 651.092078 87.145136 
L 651.990437 88.28735 
L 652.888796 91.080717 
L 653.787154 97.20251 
L 654.685513 97.849661 
L 655.583872 96.739023 
L 656.482231 96.385105 
L 658.278948 93.783681 
L 659.177307 95.353265 
L 660.075666 93.843133 
L 660.974025 94.429384 
L 661.872383 94.820046 
L 662.770742 96.180611 
L 663.669101 96.300747 
L 664.56746 94.421159 
L 665.465818 95.066451 
L 666.364177 94.792778 
L 667.262536 91.738149 
L 668.160895 93.374335 
L 669.059254 92.000825 
L 669.957612 93.81996 
L 670.855971 93.939971 
L 671.75433 93.334677 
L 672.652689 93.073879 
L 673.551047 94.605324 
L 674.449406 96.394635 
L 676.246124 116.51051 
L 678.042841 134.665103 
L 679.839559 151.049623 
L 681.636276 165.83664 
L 683.432994 179.181925 
L 685.229712 191.226043 
L 687.026429 202.095869 
L 688.823147 211.905881 
L 690.619864 220.759418 
L 692.416582 228.749736 
L 694.213299 235.960998 
L 696.010017 242.469161 
L 697.806734 248.34278 
L 699.603452 253.643718 
L 701.400169 258.427814 
L 703.196887 262.745461 
L 704.993605 266.642141 
L 706.790322 270.15889 
L 708.58704 273.332757 
L 710.383757 276.197175 
L 713.078834 279.978763 
L 715.77391 283.221002 
L 718.468986 286.000816 
L 721.164063 288.384159 
L 723.859139 290.427578 
L 726.554215 292.179554 
L 729.249291 293.681656 
L 731.944368 294.969518 
L 735.537803 296.405584 
L 739.131238 297.575268 
L 742.724673 298.527983 
L 747.216467 299.474345 
L 751.708261 300.206622 
L 757.098414 300.87015 
L 763.386925 301.425577 
L 771.472154 301.900999 
L 781.3541 302.250431 
L 795.727841 302.508498 
L 818.18681 302.655095 
L 833.458909 302.68784 
L 834.357268 301.855954 
L 844.239215 302.224809 
L 854.121161 302.434614 
L 854.121161 302.434614 
" clip-path="url(#p84333a7196)" style="fill: none; stroke: #000000; stroke-width: 5; stroke-linecap: square"/>
   </g>
   <g id="line2d_24">
    <path d="M 496.574369 301.148856 
L 499.269445 301.333578 
L 500.167804 300.958491 
L 503.761239 301.283639 
L 504.659598 300.489247 
L 510.948109 301.159579 
L 511.846468 301.237168 
L 512.744827 300.244543 
L 516.338262 300.702124 
L 517.236621 299.65566 
L 519.931697 300.09148 
L 520.830056 299.367251 
L 525.32185 300.123754 
L 528.915285 300.60374 
L 529.813643 300.495286 
L 535.203796 301.070673 
L 541.492308 301.56561 
L 542.390666 301.210734 
L 543.289025 301.285765 
L 544.187384 301.236622 
L 545.984101 301.380409 
L 546.88246 301.095366 
L 547.780819 301.176166 
L 548.679178 301.097051 
L 551.374254 301.327293 
L 552.272613 299.997943 
L 557.662765 300.716752 
L 558.561124 300.62018 
L 562.154559 301.008083 
L 563.052918 300.242386 
L 563.951277 300.365835 
L 564.849636 300.112538 
L 565.747994 300.24248 
L 566.646353 299.030802 
L 568.443071 299.353409 
L 569.34143 296.782687 
L 572.934865 297.882421 
L 575.629941 298.55812 
L 576.5283 298.618094 
L 581.020094 299.544071 
L 581.918452 299.10313 
L 584.613529 299.617755 
L 587.308605 260.215418 
L 588.206964 252.130604 
L 589.105323 241.364057 
L 590.003681 233.153689 
L 590.90204 223.910895 
L 591.800399 218.865374 
L 592.698758 212.004284 
L 593.597116 204.172102 
L 594.495475 198.184418 
L 595.393834 189.887157 
L 596.292193 183.806568 
L 597.190552 179.343186 
L 598.08891 174.000686 
L 598.987269 170.020405 
L 599.885628 163.817329 
L 600.783987 158.511805 
L 603.479063 148.64665 
L 605.275781 145.295944 
L 606.174139 142.140632 
L 607.072498 141.060712 
L 607.970857 139.415496 
L 608.869216 139.66975 
L 609.767574 139.639587 
L 610.665933 134.733905 
L 611.564292 134.964004 
L 612.462651 134.031791 
L 613.36101 130.704776 
L 614.259368 128.416879 
L 615.157727 129.081052 
L 616.056086 129.301692 
L 616.954445 128.526538 
L 617.852803 129.554123 
L 618.751162 129.847034 
L 619.649521 129.816084 
L 620.54788 130.190885 
L 621.446238 131.925216 
L 622.344597 132.423944 
L 623.242956 131.102822 
L 624.141315 129.422937 
L 625.039674 128.075549 
L 625.938032 129.588935 
L 626.836391 130.032379 
L 627.73475 132.555416 
L 629.531467 136.392674 
L 630.429826 135.561359 
L 631.328185 137.012558 
L 632.226544 136.434156 
L 633.124903 135.48106 
L 634.023261 137.645852 
L 634.92162 139.217563 
L 635.819979 139.131328 
L 636.718338 139.971315 
L 637.616696 140.146754 
L 638.515055 142.973414 
L 639.413414 142.456751 
L 640.311773 142.220502 
L 641.210132 141.214087 
L 642.10849 141.630353 
L 643.006849 142.6451 
L 644.803567 142.949937 
L 646.600284 146.516402 
L 647.498643 145.17132 
L 648.397002 145.140978 
L 649.295361 144.086465 
L 650.193719 143.347321 
L 651.092078 142.376416 
L 651.990437 144.547109 
L 652.888796 145.088446 
L 653.787154 147.930124 
L 654.685513 148.369956 
L 655.583872 146.760947 
L 656.482231 147.285155 
L 657.380589 147.285548 
L 659.177307 149.78865 
L 660.075666 148.455762 
L 660.974025 149.226858 
L 661.872383 149.52002 
L 662.770742 150.887362 
L 663.669101 151.894242 
L 664.56746 151.570469 
L 665.465818 153.287483 
L 666.364177 153.916932 
L 667.262536 152.666338 
L 668.160895 153.012461 
L 669.059254 151.111792 
L 669.957612 151.740688 
L 670.855971 151.932594 
L 671.75433 151.249397 
L 672.652689 150.852978 
L 673.551047 151.856032 
L 674.449406 153.429942 
L 676.246124 167.984885 
L 678.042841 181.120714 
L 679.839559 192.975803 
L 681.636276 203.675027 
L 683.432994 213.331074 
L 685.229712 222.045656 
L 687.026429 229.910563 
L 688.823147 237.008644 
L 690.619864 243.414659 
L 692.416582 249.196088 
L 694.213299 254.41383 
L 696.010017 259.122839 
L 697.806734 263.372724 
L 699.603452 267.208241 
L 701.400169 270.669797 
L 703.196887 273.793851 
L 704.993605 276.613308 
L 707.688681 280.335544 
L 710.383757 283.526896 
L 713.078834 286.263082 
L 715.77391 288.60902 
L 718.468986 290.620368 
L 721.164063 292.344848 
L 723.859139 293.823373 
L 726.554215 295.091024 
L 730.14765 296.504551 
L 733.741085 297.655877 
L 737.33452 298.59364 
L 741.826314 299.525149 
L 747.216467 300.369205 
L 752.60662 300.989663 
L 759.79349 301.569154 
L 760.691849 301.336443 
L 768.777078 301.844823 
L 778.659024 302.218478 
L 783.150818 302.329979 
L 784.049177 302.232673 
L 793.032765 302.363002 
L 805.609787 302.541479 
L 806.508146 302.346065 
L 822.678604 302.566265 
L 833.458909 302.604452 
L 834.357268 302.354846 
L 845.137573 302.518718 
L 846.035932 301.344056 
L 849.629367 301.597684 
L 850.527726 300.618126 
L 851.426085 300.722789 
L 852.324444 300.536756 
L 853.222802 300.645487 
L 854.121161 300.500832 
L 854.121161 300.500832 
" clip-path="url(#p84333a7196)" style="fill: none; stroke: #ff0000; stroke-width: 5; stroke-linecap: square"/>
   </g>
   <g id="line2d_25">
    <path d="M 496.574369 302.61695 
L 515.439903 302.679214 
L 516.338262 302.402156 
L 534.305437 302.600521 
L 537.000514 302.61633 
L 537.898872 301.810666 
L 545.085743 302.060797 
L 545.984101 302.093325 
L 546.88246 301.478196 
L 553.170972 301.850198 
L 554.06933 301.198508 
L 561.256201 301.707707 
L 570.239788 302.110439 
L 581.020094 302.363909 
L 584.613529 302.42836 
L 585.511887 293.042534 
L 586.410246 288.3579 
L 588.206964 280.478909 
L 589.105323 279.796272 
L 590.003681 278.651848 
L 590.90204 278.510291 
L 592.698758 279.532798 
L 593.597116 280.691728 
L 594.495475 281.128932 
L 595.393834 277.587899 
L 596.292193 276.482636 
L 597.190552 273.323254 
L 598.08891 270.737755 
L 598.987269 268.788707 
L 599.885628 264.967621 
L 600.783987 260.598972 
L 601.682345 257.074088 
L 603.479063 253.00662 
L 604.377422 251.659384 
L 605.275781 252.142141 
L 606.174139 253.47328 
L 607.072498 253.440935 
L 607.970857 252.706194 
L 608.869216 252.312216 
L 609.767574 251.666384 
L 611.564292 249.998299 
L 612.462651 248.017394 
L 613.36101 247.156219 
L 614.259368 245.803851 
L 616.056086 241.294142 
L 617.852803 237.647713 
L 618.751162 236.279634 
L 619.649521 233.27526 
L 620.54788 234.273996 
L 621.446238 237.260923 
L 622.344597 239.186829 
L 623.242956 240.260862 
L 624.141315 240.546429 
L 625.039674 242.223927 
L 625.938032 243.369244 
L 626.836391 243.794727 
L 627.73475 242.829691 
L 628.633109 242.08402 
L 629.531467 240.987566 
L 630.429826 241.035118 
L 631.328185 242.396095 
L 632.226544 244.144295 
L 634.023261 246.362715 
L 634.92162 245.932163 
L 636.718338 243.400646 
L 637.616696 244.747989 
L 638.515055 247.01953 
L 639.413414 248.317395 
L 640.311773 248.950438 
L 641.210132 248.284746 
L 642.10849 249.126481 
L 643.006849 247.615048 
L 643.905208 247.220676 
L 644.803567 246.372048 
L 645.701925 247.309098 
L 646.600284 249.309868 
L 648.397002 250.953166 
L 649.295361 249.447629 
L 650.193719 252.110815 
L 651.092078 253.704009 
L 651.990437 253.104227 
L 652.888796 255.141003 
L 653.787154 257.519521 
L 654.685513 255.914423 
L 655.583872 255.001239 
L 656.482231 253.325099 
L 657.380589 251.378622 
L 658.278948 250.186697 
L 659.177307 250.096139 
L 660.075666 249.716201 
L 660.974025 250.519154 
L 661.872383 250.531371 
L 662.770742 251.791509 
L 663.669101 251.68274 
L 664.56746 252.845123 
L 665.465818 252.81921 
L 666.364177 251.042638 
L 667.262536 250.538572 
L 668.160895 252.25416 
L 669.059254 252.848623 
L 669.957612 254.648398 
L 670.855971 254.709696 
L 671.75433 253.942878 
L 672.652689 252.930482 
L 673.551047 252.255536 
L 674.449406 252.687626 
L 676.246124 257.56494 
L 678.042841 261.966717 
L 679.839559 265.93932 
L 681.636276 269.524595 
L 683.432994 272.760305 
L 685.229712 275.680535 
L 687.924788 279.535809 
L 690.619864 282.841225 
L 693.31494 285.675206 
L 696.010017 288.104989 
L 698.705093 290.188224 
L 701.400169 291.974338 
L 704.095246 293.505708 
L 706.790322 294.818666 
L 710.383757 296.282714 
L 713.977192 297.47519 
L 717.570627 298.446468 
L 722.062421 299.41127 
L 726.554215 300.157816 
L 731.944368 300.834273 
L 738.232879 301.400523 
L 745.419749 301.841727 
L 746.318108 301.712387 
L 755.301696 302.113242 
L 766.98036 302.404325 
L 784.947536 302.601298 
L 803.81307 302.673883 
L 804.711429 301.959101 
L 805.609787 301.996714 
L 806.508146 301.823633 
L 811.898299 302.058801 
L 812.796658 301.903344 
L 822.678604 302.251765 
L 832.560551 302.449946 
L 833.458909 302.07273 
L 834.357268 300.298423 
L 837.052344 300.595409 
L 843.340856 301.233715 
L 850.527726 301.731063 
L 854.121161 301.912904 
L 854.121161 301.912904 
" clip-path="url(#p84333a7196)" style="fill: none; stroke: #0000ff; stroke-width: 5; stroke-linecap: square"/>
   </g>
   <g id="patch_7">
    <path d="M 495.67601 322.75952 
L 495.67601 31.720156 
" style="fill: none; stroke: #000000; stroke-width: 5; stroke-linejoin: miter; stroke-linecap: square"/>
   </g>
   <g id="patch_8">
    <path d="M 495.67601 322.75952 
L 855.01952 322.75952 
" style="fill: none; stroke: #000000; stroke-width: 5; stroke-linejoin: miter; stroke-linecap: square"/>
   </g>
   <g id="patch_9">
    <path d="M 585.511887 316.938733 
L 675.347765 316.938733 
L 675.347765 306.752355 
L 585.511887 306.752355 
z
" style="fill: #8c5a2b; stroke: #8c5a2b; stroke-linejoin: miter"/>
   </g>
   <g id="text_21">
    <!-- Novel | Expert -->
    <g transform="translate(607.949718 21.720156) scale(0.19 -0.19)">
     <defs>
      <path id="DejaVuSans-45" d="M 628 4666 
L 3578 4666 
L 3578 4134 
L 1259 4134 
L 1259 2753 
L 3481 2753 
L 3481 2222 
L 1259 2222 
L 1259 531 
L 3634 531 
L 3634 0 
L 628 0 
L 628 4666 
z
" transform="scale(0.015625)"/>
      <path id="DejaVuSans-78" d="M 3513 3500 
L 2247 1797 
L 3578 0 
L 2900 0 
L 1881 1375 
L 863 0 
L 184 0 
L 1544 1831 
L 300 3500 
L 978 3500 
L 1906 2253 
L 2834 3500 
L 3513 3500 
z
" transform="scale(0.015625)"/>
      <path id="DejaVuSans-70" d="M 1159 525 
L 1159 -1331 
L 581 -1331 
L 581 3500 
L 1159 3500 
L 1159 2969 
Q 1341 3281 1617 3432 
Q 1894 3584 2278 3584 
Q 2916 3584 3314 3078 
Q 3713 2572 3713 1747 
Q 3713 922 3314 415 
Q 2916 -91 2278 -91 
Q 1894 -91 1617 61 
Q 1341 213 1159 525 
z
M 3116 1747 
Q 3116 2381 2855 2742 
Q 2594 3103 2138 3103 
Q 1681 3103 1420 2742 
Q 1159 2381 1159 1747 
Q 1159 1113 1420 752 
Q 1681 391 2138 391 
Q 2594 391 2855 752 
Q 3116 1113 3116 1747 
z
" transform="scale(0.015625)"/>
     </defs>
     <use xlink:href="#DejaVuSans-4e"/>
     <use xlink:href="#DejaVuSans-6f" transform="translate(74.804688 0)"/>
     <use xlink:href="#DejaVuSans-76" transform="translate(135.986328 0)"/>
     <use xlink:href="#DejaVuSans-65" transform="translate(195.166016 0)"/>
     <use xlink:href="#DejaVuSans-6c" transform="translate(256.689453 0)"/>
     <use xlink:href="#DejaVuSans-20" transform="translate(284.472656 0)"/>
     <use xlink:href="#DejaVuSans-7c" transform="translate(316.259766 0)"/>
     <use xlink:href="#DejaVuSans-20" transform="translate(349.951172 0)"/>
     <use xlink:href="#DejaVuSans-45" transform="translate(381.738281 0)"/>
     <use xlink:href="#DejaVuSans-78" transform="translate(444.921875 0)"/>
     <use xlink:href="#DejaVuSans-70" transform="translate(504.101562 0)"/>
     <use xlink:href="#DejaVuSans-65" transform="translate(567.578125 0)"/>
     <use xlink:href="#DejaVuSans-72" transform="translate(629.101562 0)"/>
     <use xlink:href="#DejaVuSans-74" transform="translate(670.214844 0)"/>
    </g>
   </g>
  </g>
 </g>
 <defs>
  <clipPath id="pe8802a8d2d">
   <rect x="101.56" y="31.720156" width="359.34351" height="291.039364"/>
  </clipPath>
  <clipPath id="p84333a7196">
   <rect x="495.67601" y="31.720156" width="359.34351" height="291.039364"/>
  </clipPath>
 </defs>
</svg>
