<?xml version="1.0" encoding="utf-8" standalone="no"?>
<!DOCTYPE svg PUBLIC "-//W3C//DTD SVG 1.1//EN"
  "http://www.w3.org/Graphics/SVG/1.1/DTD/svg11.dtd">
<svg xmlns:xlink="http://www.w3.org/1999/xlink" width="1478.5pt" height="418.280156pt" viewBox="0 0 1478.5 418.280156" xmlns="http://www.w3.org/2000/svg" version="1.1">
 <metadata>
  <rdf:RDF xmlns:dc="http://purl.org/dc/elements/1.1/" xmlns:cc="http://creativecommons.org/ns#" xmlns:rdf="http://www.w3.org/1999/02/22-rdf-syntax-ns#">
   <cc:Work>
    <dc:type rdf:resource="http://purl.org/dc/dcmitype/StillImage"/>
    <dc:date>2026-03-25T17:17:45.087280</dc:date>
    <dc:format>image/svg+xml</dc:format>
    <dc:creator>
     <cc:Agent>
      <dc:title>Matplotlib v3.10.7, https://matplotlib.org/</dc:title>
     </cc:Agent>
    </dc:creator>
   </cc:Work>
  </rdf:RDF>
 </metadata>
 <defs>
  <style type="text/css">*{stroke-linejoin: round; stroke-linecap: butt}</style>
 </defs>
 <g id="figure_1">
  <g id="patch_1">
   <path d="M 0 418.280156 
L 1478.5 418.280156 
L 1478.5 -0 
L 0 -0 
z
" style="fill: #ffffff"/>
  </g>
  <g id="axes_1">
   <g id="patch_2">
    <path d="M 121.92 336.640156 
L 422.86382 336.640156 
L 422.86382 31.720156 
L 121.92 31.720156 
z
" style="fill: #ffffff"/>
   </g>
   <g id="matplotlib.axis_1">
    <g id="xtick_1">
     <g id="line2d_1">
      <defs>
       <path id="m3d920c8db9" d="M 0 0 
L 0 5 
" style="stroke: #000000; stroke-width: 1.6"/>
      </defs>
      <g>
       <use xlink:href="#m3d920c8db9" x="121.92" y="336.640156" style="stroke: #000000; stroke-width: 1.6"/>
      </g>
     </g>
     <g id="text_1">
      <!-- -1 -->
      <g transform="translate(105.9675 369.455156) scale(0.32 -0.32)">
       <defs>
        <path id="DejaVuSans-2d" d="M 313 2009 
L 1997 2009 
L 1997 1497 
L 313 1497 
L 313 2009 
z
" transform="scale(0.015625)"/>
        <path id="DejaVuSans-31" d="M 794 531 
L 1825 531 
L 1825 4091 
L 703 3866 
L 703 4441 
L 1819 4666 
L 2450 4666 
L 2450 531 
L 3481 531 
L 3481 0 
L 794 0 
L 794 531 
z
" transform="scale(0.015625)"/>
       </defs>
       <use xlink:href="#DejaVuSans-2d"/>
       <use xlink:href="#DejaVuSans-31" transform="translate(36.083984 0)"/>
      </g>
     </g>
    </g>
    <g id="xtick_2">
     <g id="line2d_2">
      <g>
       <use xlink:href="#m3d920c8db9" x="197.155955" y="336.640156" style="stroke: #000000; stroke-width: 1.6"/>
      </g>
     </g>
     <g id="text_2">
      <!-- 0 -->
      <g transform="translate(186.975955 369.455156) scale(0.32 -0.32)">
       <defs>
        <path id="DejaVuSans-30" d="M 2034 4250 
Q 1547 4250 1301 3770 
Q 1056 3291 1056 2328 
Q 1056 1369 1301 889 
Q 1547 409 2034 409 
Q 2525 409 2770 889 
Q 3016 1369 3016 2328 
Q 3016 3291 2770 3770 
Q 2525 4250 2034 4250 
z
M 2034 4750 
Q 2819 4750 3233 4129 
Q 3647 3509 3647 2328 
Q 3647 1150 3233 529 
Q 2819 -91 2034 -91 
Q 1250 -91 836 529 
Q 422 1150 422 2328 
Q 422 3509 836 4129 
Q 1250 4750 2034 4750 
z
" transform="scale(0.015625)"/>
       </defs>
       <use xlink:href="#DejaVuSans-30"/>
      </g>
     </g>
    </g>
    <g id="xtick_3">
     <g id="line2d_3">
      <g>
       <use xlink:href="#m3d920c8db9" x="272.39191" y="336.640156" style="stroke: #000000; stroke-width: 1.6"/>
      </g>
     </g>
     <g id="text_3">
      <!-- 1 -->
      <g transform="translate(262.21191 369.455156) scale(0.32 -0.32)">
       <use xlink:href="#DejaVuSans-31"/>
      </g>
     </g>
    </g>
    <g id="xtick_4">
     <g id="line2d_4">
      <g>
       <use xlink:href="#m3d920c8db9" x="347.627865" y="336.640156" style="stroke: #000000; stroke-width: 1.6"/>
      </g>
     </g>
     <g id="text_4">
      <!-- 2 -->
      <g transform="translate(337.447865 369.455156) scale(0.32 -0.32)">
       <defs>
        <path id="DejaVuSans-32" d="M 1228 531 
L 3431 531 
L 3431 0 
L 469 0 
L 469 531 
Q 828 903 1448 1529 
Q 2069 2156 2228 2338 
Q 2531 2678 2651 2914 
Q 2772 3150 2772 3378 
Q 2772 3750 2511 3984 
Q 2250 4219 1831 4219 
Q 1534 4219 1204 4116 
Q 875 4013 500 3803 
L 500 4441 
Q 881 4594 1212 4672 
Q 1544 4750 1819 4750 
Q 2544 4750 2975 4387 
Q 3406 4025 3406 3419 
Q 3406 3131 3298 2873 
Q 3191 2616 2906 2266 
Q 2828 2175 2409 1742 
Q 1991 1309 1228 531 
z
" transform="scale(0.015625)"/>
       </defs>
       <use xlink:href="#DejaVuSans-32"/>
      </g>
     </g>
    </g>
    <g id="xtick_5">
     <g id="line2d_5">
      <g>
       <use xlink:href="#m3d920c8db9" x="422.86382" y="336.640156" style="stroke: #000000; stroke-width: 1.6"/>
      </g>
     </g>
     <g id="text_5">
      <!-- 3 -->
      <g transform="translate(412.68382 369.455156) scale(0.32 -0.32)">
       <defs>
        <path id="DejaVuSans-33" d="M 2597 2516 
Q 3050 2419 3304 2112 
Q 3559 1806 3559 1356 
Q 3559 666 3084 287 
Q 2609 -91 1734 -91 
Q 1441 -91 1130 -33 
Q 819 25 488 141 
L 488 750 
Q 750 597 1062 519 
Q 1375 441 1716 441 
Q 2309 441 2620 675 
Q 2931 909 2931 1356 
Q 2931 1769 2642 2001 
Q 2353 2234 1838 2234 
L 1294 2234 
L 1294 2753 
L 1863 2753 
Q 2328 2753 2575 2939 
Q 2822 3125 2822 3475 
Q 2822 3834 2567 4026 
Q 2313 4219 1838 4219 
Q 1578 4219 1281 4162 
Q 984 4106 628 3988 
L 628 4550 
Q 988 4650 1302 4700 
Q 1616 4750 1894 4750 
Q 2613 4750 3031 4423 
Q 3450 4097 3450 3541 
Q 3450 3153 3228 2886 
Q 3006 2619 2597 2516 
z
" transform="scale(0.015625)"/>
       </defs>
       <use xlink:href="#DejaVuSans-33"/>
      </g>
     </g>
    </g>
    <g id="text_6">
     <!-- Time (s) -->
     <g transform="translate(207.33941 404.425156) scale(0.32 -0.32)">
      <defs>
       <path id="DejaVuSans-54" d="M -19 4666 
L 3928 4666 
L 3928 4134 
L 2272 4134 
L 2272 0 
L 1638 0 
L 1638 4134 
L -19 4134 
L -19 4666 
z
" transform="scale(0.015625)"/>
       <path id="DejaVuSans-69" d="M 603 3500 
L 1178 3500 
L 1178 0 
L 603 0 
L 603 3500 
z
M 603 4863 
L 1178 4863 
L 1178 4134 
L 603 4134 
L 603 4863 
z
" transform="scale(0.015625)"/>
       <path id="DejaVuSans-6d" d="M 3328 2828 
Q 3544 3216 3844 3400 
Q 4144 3584 4550 3584 
Q 5097 3584 5394 3201 
Q 5691 2819 5691 2113 
L 5691 0 
L 5113 0 
L 5113 2094 
Q 5113 2597 4934 2840 
Q 4756 3084 4391 3084 
Q 3944 3084 3684 2787 
Q 3425 2491 3425 1978 
L 3425 0 
L 2847 0 
L 2847 2094 
Q 2847 2600 2669 2842 
Q 2491 3084 2119 3084 
Q 1678 3084 1418 2786 
Q 1159 2488 1159 1978 
L 1159 0 
L 581 0 
L 581 3500 
L 1159 3500 
L 1159 2956 
Q 1356 3278 1631 3431 
Q 1906 3584 2284 3584 
Q 2666 3584 2933 3390 
Q 3200 3197 3328 2828 
z
" transform="scale(0.015625)"/>
       <path id="DejaVuSans-65" d="M 3597 1894 
L 3597 1613 
L 953 1613 
Q 991 1019 1311 708 
Q 1631 397 2203 397 
Q 2534 397 2845 478 
Q 3156 559 3463 722 
L 3463 178 
Q 3153 47 2828 -22 
Q 2503 -91 2169 -91 
Q 1331 -91 842 396 
Q 353 884 353 1716 
Q 353 2575 817 3079 
Q 1281 3584 2069 3584 
Q 2775 3584 3186 3129 
Q 3597 2675 3597 1894 
z
M 3022 2063 
Q 3016 2534 2758 2815 
Q 2500 3097 2075 3097 
Q 1594 3097 1305 2825 
Q 1016 2553 972 2059 
L 3022 2063 
z
" transform="scale(0.015625)"/>
       <path id="DejaVuSans-20" transform="scale(0.015625)"/>
       <path id="DejaVuSans-28" d="M 1984 4856 
Q 1566 4138 1362 3434 
Q 1159 2731 1159 2009 
Q 1159 1288 1364 580 
Q 1569 -128 1984 -844 
L 1484 -844 
Q 1016 -109 783 600 
Q 550 1309 550 2009 
Q 550 2706 781 3412 
Q 1013 4119 1484 4856 
L 1984 4856 
z
" transform="scale(0.015625)"/>
       <path id="DejaVuSans-73" d="M 2834 3397 
L 2834 2853 
Q 2591 2978 2328 3040 
Q 2066 3103 1784 3103 
Q 1356 3103 1142 2972 
Q 928 2841 928 2578 
Q 928 2378 1081 2264 
Q 1234 2150 1697 2047 
L 1894 2003 
Q 2506 1872 2764 1633 
Q 3022 1394 3022 966 
Q 3022 478 2636 193 
Q 2250 -91 1575 -91 
Q 1294 -91 989 -36 
Q 684 19 347 128 
L 347 722 
Q 666 556 975 473 
Q 1284 391 1588 391 
Q 1994 391 2212 530 
Q 2431 669 2431 922 
Q 2431 1156 2273 1281 
Q 2116 1406 1581 1522 
L 1381 1569 
Q 847 1681 609 1914 
Q 372 2147 372 2553 
Q 372 3047 722 3315 
Q 1072 3584 1716 3584 
Q 2034 3584 2315 3537 
Q 2597 3491 2834 3397 
z
" transform="scale(0.015625)"/>
       <path id="DejaVuSans-29" d="M 513 4856 
L 1013 4856 
Q 1481 4119 1714 3412 
Q 1947 2706 1947 2009 
Q 1947 1309 1714 600 
Q 1481 -109 1013 -844 
L 513 -844 
Q 928 -128 1133 580 
Q 1338 1288 1338 2009 
Q 1338 2731 1133 3434 
Q 928 4138 513 4856 
z
" transform="scale(0.015625)"/>
      </defs>
      <use xlink:href="#DejaVuSans-54"/>
      <use xlink:href="#DejaVuSans-69" transform="translate(57.958984 0)"/>
      <use xlink:href="#DejaVuSans-6d" transform="translate(85.742188 0)"/>
      <use xlink:href="#DejaVuSans-65" transform="translate(183.154297 0)"/>
      <use xlink:href="#DejaVuSans-20" transform="translate(244.677734 0)"/>
      <use xlink:href="#DejaVuSans-28" transform="translate(276.464844 0)"/>
      <use xlink:href="#DejaVuSans-73" transform="translate(315.478516 0)"/>
      <use xlink:href="#DejaVuSans-29" transform="translate(367.578125 0)"/>
     </g>
    </g>
   </g>
   <g id="matplotlib.axis_2">
    <g id="ytick_1">
     <g id="line2d_6">
      <defs>
       <path id="m7ab0066b56" d="M 0 0 
L -5 0 
" style="stroke: #000000; stroke-width: 1.6"/>
      </defs>
      <g>
       <use xlink:href="#m7ab0066b56" x="121.92" y="315.612139" style="stroke: #000000; stroke-width: 1.6"/>
      </g>
     </g>
     <g id="text_7">
      <!-- 0.00 -->
      <g transform="translate(42.17 327.769639) scale(0.32 -0.32)">
       <defs>
        <path id="DejaVuSans-2e" d="M 684 794 
L 1344 794 
L 1344 0 
L 684 0 
L 684 794 
z
" transform="scale(0.015625)"/>
       </defs>
       <use xlink:href="#DejaVuSans-30"/>
       <use xlink:href="#DejaVuSans-2e" transform="translate(63.623047 0)"/>
       <use xlink:href="#DejaVuSans-30" transform="translate(95.410156 0)"/>
       <use xlink:href="#DejaVuSans-30" transform="translate(159.033203 0)"/>
      </g>
     </g>
    </g>
    <g id="ytick_2">
     <g id="line2d_7">
      <g>
       <use xlink:href="#m7ab0066b56" x="121.92" y="235.152982" style="stroke: #000000; stroke-width: 1.6"/>
      </g>
     </g>
     <g id="text_8">
      <!-- 0.05 -->
      <g transform="translate(42.17 247.310482) scale(0.32 -0.32)">
       <defs>
        <path id="DejaVuSans-35" d="M 691 4666 
L 3169 4666 
L 3169 4134 
L 1269 4134 
L 1269 2991 
Q 1406 3038 1543 3061 
Q 1681 3084 1819 3084 
Q 2600 3084 3056 2656 
Q 3513 2228 3513 1497 
Q 3513 744 3044 326 
Q 2575 -91 1722 -91 
Q 1428 -91 1123 -41 
Q 819 9 494 109 
L 494 744 
Q 775 591 1075 516 
Q 1375 441 1709 441 
Q 2250 441 2565 725 
Q 2881 1009 2881 1497 
Q 2881 1984 2565 2268 
Q 2250 2553 1709 2553 
Q 1456 2553 1204 2497 
Q 953 2441 691 2322 
L 691 4666 
z
" transform="scale(0.015625)"/>
       </defs>
       <use xlink:href="#DejaVuSans-30"/>
       <use xlink:href="#DejaVuSans-2e" transform="translate(63.623047 0)"/>
       <use xlink:href="#DejaVuSans-30" transform="translate(95.410156 0)"/>
       <use xlink:href="#DejaVuSans-35" transform="translate(159.033203 0)"/>
      </g>
     </g>
    </g>
    <g id="ytick_3">
     <g id="line2d_8">
      <g>
       <use xlink:href="#m7ab0066b56" x="121.92" y="154.693825" style="stroke: #000000; stroke-width: 1.6"/>
      </g>
     </g>
     <g id="text_9">
      <!-- 0.10 -->
      <g transform="translate(42.17 166.851325) scale(0.32 -0.32)">
       <use xlink:href="#DejaVuSans-30"/>
       <use xlink:href="#DejaVuSans-2e" transform="translate(63.623047 0)"/>
       <use xlink:href="#DejaVuSans-31" transform="translate(95.410156 0)"/>
       <use xlink:href="#DejaVuSans-30" transform="translate(159.033203 0)"/>
      </g>
     </g>
    </g>
    <g id="ytick_4">
     <g id="line2d_9">
      <g>
       <use xlink:href="#m7ab0066b56" x="121.92" y="74.234668" style="stroke: #000000; stroke-width: 1.6"/>
      </g>
     </g>
     <g id="text_10">
      <!-- 0.15 -->
      <g transform="translate(42.17 86.392168) scale(0.32 -0.32)">
       <use xlink:href="#DejaVuSans-30"/>
       <use xlink:href="#DejaVuSans-2e" transform="translate(63.623047 0)"/>
       <use xlink:href="#DejaVuSans-31" transform="translate(95.410156 0)"/>
       <use xlink:href="#DejaVuSans-35" transform="translate(159.033203 0)"/>
      </g>
     </g>
    </g>
    <g id="text_11">
     <!-- Neural Activity -->
     <g transform="translate(31.515 301.885156) rotate(-90) scale(0.32 -0.32)">
      <defs>
       <path id="DejaVuSans-4e" d="M 628 4666 
L 1478 4666 
L 3547 763 
L 3547 4666 
L 4159 4666 
L 4159 0 
L 3309 0 
L 1241 3903 
L 1241 0 
L 628 0 
L 628 4666 
z
" transform="scale(0.015625)"/>
       <path id="DejaVuSans-75" d="M 544 1381 
L 544 3500 
L 1119 3500 
L 1119 1403 
Q 1119 906 1312 657 
Q 1506 409 1894 409 
Q 2359 409 2629 706 
Q 2900 1003 2900 1516 
L 2900 3500 
L 3475 3500 
L 3475 0 
L 2900 0 
L 2900 538 
Q 2691 219 2414 64 
Q 2138 -91 1772 -91 
Q 1169 -91 856 284 
Q 544 659 544 1381 
z
M 1991 3584 
L 1991 3584 
z
" transform="scale(0.015625)"/>
       <path id="DejaVuSans-72" d="M 2631 2963 
Q 2534 3019 2420 3045 
Q 2306 3072 2169 3072 
Q 1681 3072 1420 2755 
Q 1159 2438 1159 1844 
L 1159 0 
L 581 0 
L 581 3500 
L 1159 3500 
L 1159 2956 
Q 1341 3275 1631 3429 
Q 1922 3584 2338 3584 
Q 2397 3584 2469 3576 
Q 2541 3569 2628 3553 
L 2631 2963 
z
" transform="scale(0.015625)"/>
       <path id="DejaVuSans-61" d="M 2194 1759 
Q 1497 1759 1228 1600 
Q 959 1441 959 1056 
Q 959 750 1161 570 
Q 1363 391 1709 391 
Q 2188 391 2477 730 
Q 2766 1069 2766 1631 
L 2766 1759 
L 2194 1759 
z
M 3341 1997 
L 3341 0 
L 2766 0 
L 2766 531 
Q 2569 213 2275 61 
Q 1981 -91 1556 -91 
Q 1019 -91 701 211 
Q 384 513 384 1019 
Q 384 1609 779 1909 
Q 1175 2209 1959 2209 
L 2766 2209 
L 2766 2266 
Q 2766 2663 2505 2880 
Q 2244 3097 1772 3097 
Q 1472 3097 1187 3025 
Q 903 2953 641 2809 
L 641 3341 
Q 956 3463 1253 3523 
Q 1550 3584 1831 3584 
Q 2591 3584 2966 3190 
Q 3341 2797 3341 1997 
z
" transform="scale(0.015625)"/>
       <path id="DejaVuSans-6c" d="M 603 4863 
L 1178 4863 
L 1178 0 
L 603 0 
L 603 4863 
z
" transform="scale(0.015625)"/>
       <path id="DejaVuSans-41" d="M 2188 4044 
L 1331 1722 
L 3047 1722 
L 2188 4044 
z
M 1831 4666 
L 2547 4666 
L 4325 0 
L 3669 0 
L 3244 1197 
L 1141 1197 
L 716 0 
L 50 0 
L 1831 4666 
z
" transform="scale(0.015625)"/>
       <path id="DejaVuSans-63" d="M 3122 3366 
L 3122 2828 
Q 2878 2963 2633 3030 
Q 2388 3097 2138 3097 
Q 1578 3097 1268 2742 
Q 959 2388 959 1747 
Q 959 1106 1268 751 
Q 1578 397 2138 397 
Q 2388 397 2633 464 
Q 2878 531 3122 666 
L 3122 134 
Q 2881 22 2623 -34 
Q 2366 -91 2075 -91 
Q 1284 -91 818 406 
Q 353 903 353 1747 
Q 353 2603 823 3093 
Q 1294 3584 2113 3584 
Q 2378 3584 2631 3529 
Q 2884 3475 3122 3366 
z
" transform="scale(0.015625)"/>
       <path id="DejaVuSans-74" d="M 1172 4494 
L 1172 3500 
L 2356 3500 
L 2356 3053 
L 1172 3053 
L 1172 1153 
Q 1172 725 1289 603 
Q 1406 481 1766 481 
L 2356 481 
L 2356 0 
L 1766 0 
Q 1100 0 847 248 
Q 594 497 594 1153 
L 594 3053 
L 172 3053 
L 172 3500 
L 594 3500 
L 594 4494 
L 1172 4494 
z
" transform="scale(0.015625)"/>
       <path id="DejaVuSans-76" d="M 191 3500 
L 800 3500 
L 1894 563 
L 2988 3500 
L 3597 3500 
L 2284 0 
L 1503 0 
L 191 3500 
z
" transform="scale(0.015625)"/>
       <path id="DejaVuSans-79" d="M 2059 -325 
Q 1816 -950 1584 -1140 
Q 1353 -1331 966 -1331 
L 506 -1331 
L 506 -850 
L 844 -850 
Q 1081 -850 1212 -737 
Q 1344 -625 1503 -206 
L 1606 56 
L 191 3500 
L 800 3500 
L 1894 763 
L 2988 3500 
L 3597 3500 
L 2059 -325 
z
" transform="scale(0.015625)"/>
      </defs>
      <use xlink:href="#DejaVuSans-4e"/>
      <use xlink:href="#DejaVuSans-65" transform="translate(74.804688 0)"/>
      <use xlink:href="#DejaVuSans-75" transform="translate(136.328125 0)"/>
      <use xlink:href="#DejaVuSans-72" transform="translate(199.707031 0)"/>
      <use xlink:href="#DejaVuSans-61" transform="translate(240.820312 0)"/>
      <use xlink:href="#DejaVuSans-6c" transform="translate(302.099609 0)"/>
      <use xlink:href="#DejaVuSans-20" transform="translate(329.882812 0)"/>
      <use xlink:href="#DejaVuSans-41" transform="translate(361.669922 0)"/>
      <use xlink:href="#DejaVuSans-63" transform="translate(428.328125 0)"/>
      <use xlink:href="#DejaVuSans-74" transform="translate(483.308594 0)"/>
      <use xlink:href="#DejaVuSans-69" transform="translate(522.517578 0)"/>
      <use xlink:href="#DejaVuSans-76" transform="translate(550.300781 0)"/>
      <use xlink:href="#DejaVuSans-69" transform="translate(609.480469 0)"/>
      <use xlink:href="#DejaVuSans-74" transform="translate(637.263672 0)"/>
      <use xlink:href="#DejaVuSans-79" transform="translate(676.472656 0)"/>
     </g>
    </g>
   </g>
   <g id="line2d_10">
    <path d="M 122.67236 301.283999 
L 123.424719 302.000406 
L 124.177079 301.788911 
L 125.681798 303.136677 
L 126.434157 302.97896 
L 128.691236 304.780768 
L 130.948315 306.325592 
L 133.205393 307.650086 
L 136.214831 309.126997 
L 136.967191 307.094358 
L 139.976629 308.674354 
L 140.728989 308.528535 
L 141.481348 306.048148 
L 143.738427 307.412213 
L 146.747865 308.933249 
L 147.500225 309.267193 
L 148.252584 307.497999 
L 150.509663 308.655279 
L 151.262022 308.571328 
L 152.014382 307.055835 
L 152.766742 307.48365 
L 153.519101 305.691648 
L 155.77618 307.106558 
L 158.785618 308.684291 
L 161.795056 309.969363 
L 164.804494 311.016063 
L 165.556854 311.245867 
L 166.309213 307.441816 
L 169.318652 308.95736 
L 172.32809 310.19178 
L 173.080449 310.462798 
L 173.832809 306.713443 
L 176.089888 307.982621 
L 179.099326 309.397849 
L 179.851685 306.505552 
L 180.604045 303.171366 
L 182.861124 304.945731 
L 185.118202 306.467028 
L 187.375281 307.77135 
L 190.384719 309.225768 
L 193.394157 310.4104 
L 194.146517 310.670487 
L 194.898876 310.367827 
L 195.651236 310.630043 
L 196.403596 308.850254 
L 197.155955 253.692704 
L 198.660674 194.173081 
L 199.413034 170.521381 
L 200.165393 160.541891 
L 200.917753 157.679074 
L 201.670112 149.626356 
L 202.422472 139.780044 
L 203.174831 132.473087 
L 203.927191 121.564075 
L 204.679551 112.582254 
L 205.43191 101.447986 
L 206.936629 122.323348 
L 207.688989 130.603432 
L 208.441348 130.185663 
L 209.193708 129.229932 
L 209.946067 125.150964 
L 210.698427 121.689567 
L 211.450787 114.066416 
L 212.203146 113.811378 
L 212.955506 115.356422 
L 213.707865 115.812233 
L 214.460225 116.45431 
L 215.212584 109.362083 
L 215.964944 117.631041 
L 216.717303 115.162374 
L 217.469663 109.206677 
L 218.222022 106.169128 
L 218.974382 103.909687 
L 219.726742 92.981683 
L 221.231461 100.951603 
L 221.98382 98.241434 
L 222.73618 91.702923 
L 223.488539 94.164696 
L 224.240899 97.337677 
L 224.993258 91.505483 
L 225.745618 89.645839 
L 226.497978 90.419679 
L 227.250337 97.121222 
L 228.002697 88.682399 
L 229.507416 99.89395 
L 230.259775 102.256979 
L 231.012135 101.111181 
L 231.764494 98.540281 
L 232.516854 96.475475 
L 233.269213 98.575745 
L 234.021573 104.391635 
L 234.773933 99.116465 
L 235.526292 96.928097 
L 236.278652 96.389871 
L 237.031011 100.178961 
L 237.783371 97.463829 
L 238.53573 97.203109 
L 239.28809 95.210647 
L 240.040449 87.48591 
L 240.792809 84.720902 
L 241.545169 83.281245 
L 243.049888 100.71124 
L 243.802247 100.904628 
L 244.554607 109.326067 
L 245.306966 110.15995 
L 246.059326 116.40266 
L 246.811685 110.277661 
L 247.564045 120.544393 
L 248.316404 119.617184 
L 249.068764 119.315065 
L 249.821124 113.244282 
L 250.573483 110.983714 
L 251.325843 104.148563 
L 252.078202 101.974438 
L 252.830562 98.56366 
L 253.582921 97.092687 
L 254.335281 107.120746 
L 255.08764 112.117139 
L 255.84 115.151619 
L 256.59236 120.555195 
L 257.344719 122.439945 
L 258.097079 123.306319 
L 258.849438 122.12809 
L 259.601798 120.118243 
L 260.354157 105.114065 
L 261.106517 101.766783 
L 261.858876 106.145005 
L 262.611236 106.360501 
L 263.363596 115.455741 
L 264.115955 121.14151 
L 264.868315 125.026802 
L 265.620674 121.189479 
L 266.373034 130.489413 
L 267.125393 135.657962 
L 268.630112 140.327357 
L 269.382472 137.222799 
L 270.134831 135.229702 
L 270.887191 122.178253 
L 271.639551 121.540012 
L 273.896629 149.219558 
L 276.153708 172.95131 
L 278.410787 193.298314 
L 280.667865 210.743332 
L 282.924944 225.700248 
L 285.182022 238.523936 
L 287.439101 249.518648 
L 289.69618 258.945237 
L 291.953258 267.027359 
L 294.210337 273.956765 
L 296.467416 279.897865 
L 298.724494 284.991615 
L 300.981573 289.35887 
L 303.238652 293.103244 
L 304.743371 295.113162 
L 307.000449 298.03683 
L 309.257528 300.543509 
L 311.514607 302.692671 
L 313.771685 304.535311 
L 316.028764 306.115143 
L 318.285843 307.469653 
L 321.295281 308.980033 
L 324.304719 310.210248 
L 326.561798 310.980693 
L 327.314157 310.900836 
L 331.075955 311.966623 
L 332.580674 312.322061 
L 333.333034 311.961071 
L 335.590112 312.481805 
L 336.342472 308.780946 
L 338.599551 309.755246 
L 339.35191 305.635356 
L 341.608989 307.058294 
L 344.618427 308.64498 
L 347.627865 309.937345 
L 350.637303 310.989984 
L 351.389663 310.762497 
L 352.142022 302.106476 
L 352.894382 299.604291 
L 355.151461 301.887411 
L 355.90382 299.677921 
L 358.160899 301.95054 
L 360.417978 303.899025 
L 362.675056 305.569608 
L 364.932135 307.001924 
L 367.941573 308.599065 
L 370.951011 309.899947 
L 373.960449 310.959523 
L 377.722247 312.012033 
L 381.484045 312.826446 
L 382.236404 312.965731 
L 382.988764 308.148538 
L 385.998202 309.53299 
L 389.00764 310.660635 
L 392.017079 311.579108 
L 395.778876 312.491456 
L 400.293034 313.31815 
L 402.550112 313.645331 
L 403.302472 308.172455 
L 404.807191 308.897825 
L 405.559551 309.022371 
L 408.568989 310.244732 
L 410.826067 311.010259 
L 411.578427 309.201746 
L 412.330787 308.933094 
L 413.083146 306.260214 
L 415.340225 307.594033 
L 418.349663 309.081342 
L 421.359101 310.292764 
L 422.111461 310.558733 
L 422.111461 310.558733 
" clip-path="url(#p3665a98a35)" style="fill: none; stroke: #000000; stroke-width: 5; stroke-linecap: square"/>
   </g>
   <g id="line2d_11">
    <path d="M 122.67236 305.94612 
L 124.929438 307.324737 
L 125.681798 304.784321 
L 127.938876 306.328639 
L 130.195955 307.652699 
L 133.205393 309.129126 
L 134.710112 309.76122 
L 135.462472 309.100535 
L 136.214831 302.344779 
L 136.967191 298.849399 
L 137.719551 291.906822 
L 139.22427 288.678166 
L 139.976629 288.182355 
L 140.728989 285.661331 
L 141.481348 279.206263 
L 142.986067 282.755838 
L 143.738427 282.858482 
L 145.995506 287.52997 
L 148.252584 291.535189 
L 150.509663 294.969164 
L 152.766742 297.913369 
L 153.519101 298.798308 
L 154.271461 299.260633 
L 155.02382 300.078209 
L 155.77618 298.779814 
L 156.528539 298.344954 
L 158.785618 300.807686 
L 161.042697 302.919171 
L 161.795056 303.55382 
L 163.299775 303.500473 
L 164.052135 304.106057 
L 164.804494 299.769118 
L 165.556854 300.561269 
L 166.309213 299.275347 
L 167.061573 300.092188 
L 167.813933 292.992593 
L 168.566292 292.902424 
L 169.318652 294.03791 
L 170.071011 288.139224 
L 172.32809 292.05755 
L 174.585169 295.417023 
L 176.842247 298.297352 
L 177.594607 299.163091 
L 178.346966 297.845743 
L 180.604045 300.379674 
L 182.861124 302.552206 
L 184.365843 303.825549 
L 185.118202 303.971099 
L 185.870562 298.171816 
L 186.622921 297.487707 
L 188.88 300.046402 
L 191.137079 302.266465 
L 192.641798 303.567668 
L 193.394157 300.429238 
L 194.898876 301.149731 
L 195.651236 301.872852 
L 196.403596 297.023331 
L 197.155955 293.967036 
L 197.908315 291.904723 
L 200.165393 295.285993 
L 202.422472 298.18501 
L 204.679551 300.670554 
L 206.936629 302.801598 
L 207.688989 298.816606 
L 208.441348 295.772133 
L 209.193708 291.674073 
L 211.450787 295.088241 
L 212.203146 296.114436 
L 212.955506 296.615784 
L 215.212584 299.32514 
L 217.469663 301.648074 
L 218.222022 302.346277 
L 218.974382 300.049168 
L 219.726742 297.25916 
L 221.98382 299.876754 
L 223.488539 301.410954 
L 224.240899 301.251072 
L 224.993258 300.211739 
L 227.250337 302.408222 
L 229.507416 304.291431 
L 230.259775 304.857467 
L 231.012135 303.808475 
L 231.764494 304.398658 
L 232.516854 304.556003 
L 234.021573 305.633977 
L 234.773933 298.919752 
L 237.031011 301.300504 
L 237.783371 299.862627 
L 238.53573 293.541666 
L 240.792809 296.689467 
L 243.049888 299.388312 
L 245.306966 301.702236 
L 246.059326 299.033318 
L 246.811685 295.622145 
L 247.564045 294.988851 
L 249.821124 297.930249 
L 251.325843 299.654233 
L 252.078202 298.922411 
L 254.335281 301.302785 
L 256.59236 303.343656 
L 257.344719 302.197983 
L 258.849438 295.115736 
L 259.601798 295.288144 
L 261.858876 298.186855 
L 264.115955 300.672136 
L 266.373034 302.802954 
L 268.630112 304.629865 
L 269.382472 305.178978 
L 270.134831 298.936131 
L 272.39191 301.314548 
L 273.14427 302.029428 
L 273.896629 302.439978 
L 276.153708 304.318657 
L 276.906067 304.883331 
L 277.658427 304.079943 
L 279.915506 305.724722 
L 280.667865 306.219093 
L 281.420225 299.736745 
L 282.172584 295.228001 
L 282.924944 294.970594 
L 284.429663 296.983146 
L 285.934382 289.484479 
L 288.191461 293.210938 
L 290.448539 296.405911 
L 292.705618 299.145201 
L 294.210337 300.750728 
L 294.962697 298.358375 
L 295.715056 298.512066 
L 296.467416 292.524271 
L 297.219775 289.140145 
L 299.476854 292.915714 
L 301.733933 296.152793 
L 303.991011 298.928182 
L 306.24809 301.307732 
L 307.752809 302.702411 
L 308.505169 302.415368 
L 309.257528 299.494454 
L 311.514607 301.780342 
L 313.019326 303.128943 
L 313.771685 301.779309 
L 316.028764 303.752217 
L 316.781124 303.581412 
L 318.285843 304.754408 
L 319.038202 303.798942 
L 319.790562 300.942309 
L 322.04764 303.034594 
L 322.8 301.29415 
L 323.55236 302.010049 
L 324.304719 299.394099 
L 326.561798 301.707198 
L 327.314157 298.975378 
L 328.066517 298.087916 
L 328.818876 298.964128 
L 329.571236 299.094985 
L 330.323596 294.456217 
L 332.580674 297.47358 
L 333.333034 298.079236 
L 335.590112 300.579866 
L 336.342472 301.33148 
L 337.094831 300.406963 
L 337.847191 301.167223 
L 338.599551 301.713569 
L 339.35191 299.043446 
L 340.10427 298.437052 
L 340.856629 293.56694 
L 343.113708 296.711136 
L 344.618427 298.553984 
L 345.370787 297.37193 
L 347.627865 299.973441 
L 349.884944 302.20391 
L 350.637303 299.282956 
L 351.389663 299.892294 
L 352.142022 297.691683 
L 352.894382 296.341167 
L 355.151461 299.089691 
L 357.408539 301.446206 
L 358.160899 301.781604 
L 360.417978 303.754185 
L 362.675056 305.445426 
L 364.932135 306.895454 
L 367.941573 308.512345 
L 368.693933 305.923015 
L 369.446292 306.407471 
L 370.198652 302.997411 
L 370.951011 296.738182 
L 373.20809 299.43008 
L 374.712809 300.903609 
L 375.465169 301.639035 
L 376.217528 301.649373 
L 378.474607 303.640813 
L 380.731685 305.348224 
L 382.988764 306.812116 
L 385.998202 308.444466 
L 389.00764 309.774025 
L 390.51236 310.343241 
L 391.264719 308.71703 
L 392.769438 309.389303 
L 393.521798 308.824144 
L 395.026517 309.485974 
L 395.778876 307.573561 
L 397.283596 308.357322 
L 398.035955 307.882505 
L 398.788315 308.268987 
L 399.540674 303.226034 
L 401.797753 304.992602 
L 403.302472 306.028007 
L 404.054831 305.133696 
L 405.559551 306.155344 
L 406.31191 304.731394 
L 407.816629 305.792267 
L 408.568989 305.224667 
L 409.321348 304.3512 
L 411.578427 305.957291 
L 412.330787 299.251144 
L 413.083146 300.069193 
L 413.835506 298.850395 
L 416.092584 301.241038 
L 417.597303 302.64222 
L 418.349663 302.661222 
L 420.606742 304.508347 
L 422.111461 305.590967 
L 422.111461 305.590967 
" clip-path="url(#p3665a98a35)" style="fill: none; stroke: #ff0000; stroke-width: 5; stroke-linecap: square"/>
   </g>
   <g id="patch_3">
    <path d="M 121.92 336.640156 
L 121.92 31.720156 
" style="fill: none; stroke: #000000; stroke-width: 5; stroke-linejoin: miter; stroke-linecap: square"/>
   </g>
   <g id="patch_4">
    <path d="M 121.92 336.640156 
L 422.86382 336.640156 
" style="fill: none; stroke: #000000; stroke-width: 5; stroke-linejoin: miter; stroke-linecap: square"/>
   </g>
   <g id="text_12">
    <!-- A -->
    <g transform="translate(85.806742 16.444681) scale(0.12 -0.12)">
     <defs>
      <path id="DejaVuSans-Bold-41" d="M 3419 850 
L 1538 850 
L 1241 0 
L 31 0 
L 1759 4666 
L 3194 4666 
L 4922 0 
L 3713 0 
L 3419 850 
z
M 1838 1716 
L 3116 1716 
L 2478 3572 
L 1838 1716 
z
" transform="scale(0.015625)"/>
     </defs>
     <use xlink:href="#DejaVuSans-Bold-41"/>
    </g>
   </g>
   <g id="patch_5">
    <path d="M 197.155955 330.541756 
L 272.39191 330.541756 
L 272.39191 319.869556 
L 197.155955 319.869556 
z
" style="fill: #8c5a2b; stroke: #8c5a2b; stroke-linejoin: miter"/>
   </g>
   <g id="text_13">
    <!-- Familiar | Naive -->
    <g transform="translate(198.799566 21.720156) scale(0.19 -0.19)">
     <defs>
      <path id="DejaVuSans-46" d="M 628 4666 
L 3309 4666 
L 3309 4134 
L 1259 4134 
L 1259 2759 
L 3109 2759 
L 3109 2228 
L 1259 2228 
L 1259 0 
L 628 0 
L 628 4666 
z
" transform="scale(0.015625)"/>
      <path id="DejaVuSans-7c" d="M 1344 4891 
L 1344 -1509 
L 813 -1509 
L 813 4891 
L 1344 4891 
z
" transform="scale(0.015625)"/>
     </defs>
     <use xlink:href="#DejaVuSans-46"/>
     <use xlink:href="#DejaVuSans-61" transform="translate(48.394531 0)"/>
     <use xlink:href="#DejaVuSans-6d" transform="translate(109.673828 0)"/>
     <use xlink:href="#DejaVuSans-69" transform="translate(207.085938 0)"/>
     <use xlink:href="#DejaVuSans-6c" transform="translate(234.869141 0)"/>
     <use xlink:href="#DejaVuSans-69" transform="translate(262.652344 0)"/>
     <use xlink:href="#DejaVuSans-61" transform="translate(290.435547 0)"/>
     <use xlink:href="#DejaVuSans-72" transform="translate(351.714844 0)"/>
     <use xlink:href="#DejaVuSans-20" transform="translate(392.828125 0)"/>
     <use xlink:href="#DejaVuSans-7c" transform="translate(424.615234 0)"/>
     <use xlink:href="#DejaVuSans-20" transform="translate(458.306641 0)"/>
     <use xlink:href="#DejaVuSans-4e" transform="translate(490.09375 0)"/>
     <use xlink:href="#DejaVuSans-61" transform="translate(564.898438 0)"/>
     <use xlink:href="#DejaVuSans-69" transform="translate(626.177734 0)"/>
     <use xlink:href="#DejaVuSans-76" transform="translate(653.960938 0)"/>
     <use xlink:href="#DejaVuSans-65" transform="translate(713.140625 0)"/>
    </g>
   </g>
   <g id="legend_1">
    <g id="line2d_12">
     <path d="M 130.92 46.867813 
L 145.92 46.867813 
L 160.92 46.867813 
" style="fill: none; stroke: #000000; stroke-width: 5; stroke-linecap: square"/>
    </g>
    <g id="text_14">
     <!-- Nonoccluded (NO) -->
     <g transform="translate(172.92 52.117813) scale(0.15 -0.15)">
      <defs>
       <path id="DejaVuSans-6f" d="M 1959 3097 
Q 1497 3097 1228 2736 
Q 959 2375 959 1747 
Q 959 1119 1226 758 
Q 1494 397 1959 397 
Q 2419 397 2687 759 
Q 2956 1122 2956 1747 
Q 2956 2369 2687 2733 
Q 2419 3097 1959 3097 
z
M 1959 3584 
Q 2709 3584 3137 3096 
Q 3566 2609 3566 1747 
Q 3566 888 3137 398 
Q 2709 -91 1959 -91 
Q 1206 -91 779 398 
Q 353 888 353 1747 
Q 353 2609 779 3096 
Q 1206 3584 1959 3584 
z
" transform="scale(0.015625)"/>
       <path id="DejaVuSans-6e" d="M 3513 2113 
L 3513 0 
L 2938 0 
L 2938 2094 
Q 2938 2591 2744 2837 
Q 2550 3084 2163 3084 
Q 1697 3084 1428 2787 
Q 1159 2491 1159 1978 
L 1159 0 
L 581 0 
L 581 3500 
L 1159 3500 
L 1159 2956 
Q 1366 3272 1645 3428 
Q 1925 3584 2291 3584 
Q 2894 3584 3203 3211 
Q 3513 2838 3513 2113 
z
" transform="scale(0.015625)"/>
       <path id="DejaVuSans-64" d="M 2906 2969 
L 2906 4863 
L 3481 4863 
L 3481 0 
L 2906 0 
L 2906 525 
Q 2725 213 2448 61 
Q 2172 -91 1784 -91 
Q 1150 -91 751 415 
Q 353 922 353 1747 
Q 353 2572 751 3078 
Q 1150 3584 1784 3584 
Q 2172 3584 2448 3432 
Q 2725 3281 2906 2969 
z
M 947 1747 
Q 947 1113 1208 752 
Q 1469 391 1925 391 
Q 2381 391 2643 752 
Q 2906 1113 2906 1747 
Q 2906 2381 2643 2742 
Q 2381 3103 1925 3103 
Q 1469 3103 1208 2742 
Q 947 2381 947 1747 
z
" transform="scale(0.015625)"/>
       <path id="DejaVuSans-4f" d="M 2522 4238 
Q 1834 4238 1429 3725 
Q 1025 3213 1025 2328 
Q 1025 1447 1429 934 
Q 1834 422 2522 422 
Q 3209 422 3611 934 
Q 4013 1447 4013 2328 
Q 4013 3213 3611 3725 
Q 3209 4238 2522 4238 
z
M 2522 4750 
Q 3503 4750 4090 4092 
Q 4678 3434 4678 2328 
Q 4678 1225 4090 567 
Q 3503 -91 2522 -91 
Q 1538 -91 948 565 
Q 359 1222 359 2328 
Q 359 3434 948 4092 
Q 1538 4750 2522 4750 
z
" transform="scale(0.015625)"/>
      </defs>
      <use xlink:href="#DejaVuSans-4e"/>
      <use xlink:href="#DejaVuSans-6f" transform="translate(74.804688 0)"/>
      <use xlink:href="#DejaVuSans-6e" transform="translate(135.986328 0)"/>
      <use xlink:href="#DejaVuSans-6f" transform="translate(199.365234 0)"/>
      <use xlink:href="#DejaVuSans-63" transform="translate(260.546875 0)"/>
      <use xlink:href="#DejaVuSans-63" transform="translate(315.527344 0)"/>
      <use xlink:href="#DejaVuSans-6c" transform="translate(370.507812 0)"/>
      <use xlink:href="#DejaVuSans-75" transform="translate(398.291016 0)"/>
      <use xlink:href="#DejaVuSans-64" transform="translate(461.669922 0)"/>
      <use xlink:href="#DejaVuSans-65" transform="translate(525.146484 0)"/>
      <use xlink:href="#DejaVuSans-64" transform="translate(586.669922 0)"/>
      <use xlink:href="#DejaVuSans-20" transform="translate(650.146484 0)"/>
      <use xlink:href="#DejaVuSans-28" transform="translate(681.933594 0)"/>
      <use xlink:href="#DejaVuSans-4e" transform="translate(720.947266 0)"/>
      <use xlink:href="#DejaVuSans-4f" transform="translate(795.751953 0)"/>
      <use xlink:href="#DejaVuSans-29" transform="translate(874.462891 0)"/>
     </g>
    </g>
    <g id="line2d_13">
     <path d="M 130.92 68.885 
L 145.92 68.885 
L 160.92 68.885 
" style="fill: none; stroke: #ff0000; stroke-width: 5; stroke-linecap: square"/>
    </g>
    <g id="text_15">
     <!-- Occluded (O) -->
     <g transform="translate(172.92 74.135) scale(0.15 -0.15)">
      <use xlink:href="#DejaVuSans-4f"/>
      <use xlink:href="#DejaVuSans-63" transform="translate(78.710938 0)"/>
      <use xlink:href="#DejaVuSans-63" transform="translate(133.691406 0)"/>
      <use xlink:href="#DejaVuSans-6c" transform="translate(188.671875 0)"/>
      <use xlink:href="#DejaVuSans-75" transform="translate(216.455078 0)"/>
      <use xlink:href="#DejaVuSans-64" transform="translate(279.833984 0)"/>
      <use xlink:href="#DejaVuSans-65" transform="translate(343.310547 0)"/>
      <use xlink:href="#DejaVuSans-64" transform="translate(404.833984 0)"/>
      <use xlink:href="#DejaVuSans-20" transform="translate(468.310547 0)"/>
      <use xlink:href="#DejaVuSans-28" transform="translate(500.097656 0)"/>
      <use xlink:href="#DejaVuSans-4f" transform="translate(539.111328 0)"/>
      <use xlink:href="#DejaVuSans-29" transform="translate(617.822266 0)"/>
     </g>
    </g>
    <g id="line2d_14">
     <path d="M 130.92 90.902188 
L 145.92 90.902188 
L 160.92 90.902188 
" style="fill: none; stroke: #0000ff; stroke-width: 5; stroke-linecap: square"/>
    </g>
    <g id="text_16">
     <!-- No feedback -->
     <g transform="translate(172.92 96.152188) scale(0.15 -0.15)">
      <defs>
       <path id="DejaVuSans-66" d="M 2375 4863 
L 2375 4384 
L 1825 4384 
Q 1516 4384 1395 4259 
Q 1275 4134 1275 3809 
L 1275 3500 
L 2222 3500 
L 2222 3053 
L 1275 3053 
L 1275 0 
L 697 0 
L 697 3053 
L 147 3053 
L 147 3500 
L 697 3500 
L 697 3744 
Q 697 4328 969 4595 
Q 1241 4863 1831 4863 
L 2375 4863 
z
" transform="scale(0.015625)"/>
       <path id="DejaVuSans-62" d="M 3116 1747 
Q 3116 2381 2855 2742 
Q 2594 3103 2138 3103 
Q 1681 3103 1420 2742 
Q 1159 2381 1159 1747 
Q 1159 1113 1420 752 
Q 1681 391 2138 391 
Q 2594 391 2855 752 
Q 3116 1113 3116 1747 
z
M 1159 2969 
Q 1341 3281 1617 3432 
Q 1894 3584 2278 3584 
Q 2916 3584 3314 3078 
Q 3713 2572 3713 1747 
Q 3713 922 3314 415 
Q 2916 -91 2278 -91 
Q 1894 -91 1617 61 
Q 1341 213 1159 525 
L 1159 0 
L 581 0 
L 581 4863 
L 1159 4863 
L 1159 2969 
z
" transform="scale(0.015625)"/>
       <path id="DejaVuSans-6b" d="M 581 4863 
L 1159 4863 
L 1159 1991 
L 2875 3500 
L 3609 3500 
L 1753 1863 
L 3688 0 
L 2938 0 
L 1159 1709 
L 1159 0 
L 581 0 
L 581 4863 
z
" transform="scale(0.015625)"/>
      </defs>
      <use xlink:href="#DejaVuSans-4e"/>
      <use xlink:href="#DejaVuSans-6f" transform="translate(74.804688 0)"/>
      <use xlink:href="#DejaVuSans-20" transform="translate(135.986328 0)"/>
      <use xlink:href="#DejaVuSans-66" transform="translate(167.773438 0)"/>
      <use xlink:href="#DejaVuSans-65" transform="translate(202.978516 0)"/>
      <use xlink:href="#DejaVuSans-65" transform="translate(264.501953 0)"/>
      <use xlink:href="#DejaVuSans-64" transform="translate(326.025391 0)"/>
      <use xlink:href="#DejaVuSans-62" transform="translate(389.501953 0)"/>
      <use xlink:href="#DejaVuSans-61" transform="translate(452.978516 0)"/>
      <use xlink:href="#DejaVuSans-63" transform="translate(514.257812 0)"/>
      <use xlink:href="#DejaVuSans-6b" transform="translate(569.238281 0)"/>
     </g>
    </g>
   </g>
  </g>
  <g id="axes_2">
   <g id="patch_6">
    <path d="M 468.005393 336.640156 
L 768.949213 336.640156 
L 768.949213 31.720156 
L 468.005393 31.720156 
z
" style="fill: #ffffff"/>
   </g>
   <g id="matplotlib.axis_3">
    <g id="xtick_6">
     <g id="line2d_15">
      <g>
       <use xlink:href="#m3d920c8db9" x="468.005393" y="336.640156" style="stroke: #000000; stroke-width: 1.6"/>
      </g>
     </g>
     <g id="text_17">
      <!-- -1 -->
      <g transform="translate(452.052893 369.455156) scale(0.32 -0.32)">
       <use xlink:href="#DejaVuSans-2d"/>
       <use xlink:href="#DejaVuSans-31" transform="translate(36.083984 0)"/>
      </g>
     </g>
    </g>
    <g id="xtick_7">
     <g id="line2d_16">
      <g>
       <use xlink:href="#m3d920c8db9" x="543.241348" y="336.640156" style="stroke: #000000; stroke-width: 1.6"/>
      </g>
     </g>
     <g id="text_18">
      <!-- 0 -->
      <g transform="translate(533.061348 369.455156) scale(0.32 -0.32)">
       <use xlink:href="#DejaVuSans-30"/>
      </g>
     </g>
    </g>
    <g id="xtick_8">
     <g id="line2d_17">
      <g>
       <use xlink:href="#m3d920c8db9" x="618.477303" y="336.640156" style="stroke: #000000; stroke-width: 1.6"/>
      </g>
     </g>
     <g id="text_19">
      <!-- 1 -->
      <g transform="translate(608.297303 369.455156) scale(0.32 -0.32)">
       <use xlink:href="#DejaVuSans-31"/>
      </g>
     </g>
    </g>
    <g id="xtick_9">
     <g id="line2d_18">
      <g>
       <use xlink:href="#m3d920c8db9" x="693.713258" y="336.640156" style="stroke: #000000; stroke-width: 1.6"/>
      </g>
     </g>
     <g id="text_20">
      <!-- 2 -->
      <g transform="translate(683.533258 369.455156) scale(0.32 -0.32)">
       <use xlink:href="#DejaVuSans-32"/>
      </g>
     </g>
    </g>
    <g id="xtick_10">
     <g id="line2d_19">
      <g>
       <use xlink:href="#m3d920c8db9" x="768.949213" y="336.640156" style="stroke: #000000; stroke-width: 1.6"/>
      </g>
     </g>
     <g id="text_21">
      <!-- 3 -->
      <g transform="translate(758.769213 369.455156) scale(0.32 -0.32)">
       <use xlink:href="#DejaVuSans-33"/>
      </g>
     </g>
    </g>
    <g id="text_22">
     <!-- Time (s) -->
     <g transform="translate(553.424803 404.425156) scale(0.32 -0.32)">
      <use xlink:href="#DejaVuSans-54"/>
      <use xlink:href="#DejaVuSans-69" transform="translate(57.958984 0)"/>
      <use xlink:href="#DejaVuSans-6d" transform="translate(85.742188 0)"/>
      <use xlink:href="#DejaVuSans-65" transform="translate(183.154297 0)"/>
      <use xlink:href="#DejaVuSans-20" transform="translate(244.677734 0)"/>
      <use xlink:href="#DejaVuSans-28" transform="translate(276.464844 0)"/>
      <use xlink:href="#DejaVuSans-73" transform="translate(315.478516 0)"/>
      <use xlink:href="#DejaVuSans-29" transform="translate(367.578125 0)"/>
     </g>
    </g>
   </g>
   <g id="matplotlib.axis_4">
    <g id="ytick_5">
     <g id="line2d_20">
      <g>
       <use xlink:href="#m7ab0066b56" x="468.005393" y="315.612139" style="stroke: #000000; stroke-width: 1.6"/>
      </g>
     </g>
    </g>
    <g id="ytick_6">
     <g id="line2d_21">
      <g>
       <use xlink:href="#m7ab0066b56" x="468.005393" y="235.152982" style="stroke: #000000; stroke-width: 1.6"/>
      </g>
     </g>
    </g>
    <g id="ytick_7">
     <g id="line2d_22">
      <g>
       <use xlink:href="#m7ab0066b56" x="468.005393" y="154.693825" style="stroke: #000000; stroke-width: 1.6"/>
      </g>
     </g>
    </g>
    <g id="ytick_8">
     <g id="line2d_23">
      <g>
       <use xlink:href="#m7ab0066b56" x="468.005393" y="74.234668" style="stroke: #000000; stroke-width: 1.6"/>
      </g>
     </g>
    </g>
   </g>
   <g id="line2d_24">
    <path d="M 468.757753 313.318435 
L 474.02427 314.01036 
L 480.043146 314.549486 
L 487.566742 314.975889 
L 494.337978 315.211143 
L 495.090337 311.439937 
L 495.842697 308.752787 
L 498.852135 310.025154 
L 501.861573 311.061505 
L 505.623371 312.090946 
L 509.385169 312.887507 
L 513.899326 313.609284 
L 519.165843 314.213471 
L 522.175281 314.472915 
L 522.92764 312.391824 
L 527.441798 313.244912 
L 528.946517 313.475716 
L 529.698876 313.18523 
L 534.213034 313.828138 
L 539.479551 314.366304 
L 546.250787 314.826952 
L 555.279101 315.187855 
L 567.316854 315.4254 
L 586.878202 315.562929 
L 635.029213 315.610292 
L 644.809888 315.611191 
L 645.562247 311.973295 
L 647.066966 312.328083 
L 647.819326 310.356689 
L 650.828764 311.331543 
L 654.590562 312.299895 
L 655.342921 310.935827 
L 659.104719 311.993698 
L 659.857079 312.17462 
L 660.609438 311.599507 
L 661.361798 307.60892 
L 662.114157 308.009081 
L 662.866517 303.076931 
L 663.618876 301.720362 
L 664.371236 297.667115 
L 665.123596 295.724865 
L 665.875955 290.965089 
L 666.628315 292.197441 
L 667.380674 292.753064 
L 669.637753 296.013339 
L 671.894831 298.808618 
L 674.15191 301.20522 
L 676.408989 303.260008 
L 678.666067 305.021731 
L 680.923146 306.532189 
L 683.180225 307.827217 
L 684.684944 308.586247 
L 686.189663 309.178028 
L 689.199101 310.371516 
L 692.208539 311.343619 
L 692.960899 311.557045 
L 693.713258 309.832487 
L 696.722697 310.904576 
L 700.484494 311.969517 
L 704.246292 312.793548 
L 708.00809 313.431167 
L 708.760449 312.384799 
L 709.512809 310.108542 
L 712.522247 311.129425 
L 716.284045 312.143501 
L 720.045843 312.928173 
L 723.055281 313.426032 
L 723.80764 313.158002 
L 724.56 313.280709 
L 725.31236 312.212121 
L 727.569438 312.697049 
L 728.321798 311.375189 
L 732.083596 312.333668 
L 735.845393 313.075321 
L 739.607191 313.649198 
L 740.359551 309.287129 
L 743.368989 310.460379 
L 746.378427 311.415998 
L 750.140225 312.365245 
L 753.902022 313.099755 
L 758.41618 313.765306 
L 759.920899 313.945372 
L 760.673258 312.22477 
L 761.425618 308.922716 
L 764.435056 310.163563 
L 766.692135 310.940666 
L 767.444494 308.595107 
L 768.196854 304.425077 
L 768.196854 304.425077 
" clip-path="url(#p3a6b288572)" style="fill: none; stroke: #000000; stroke-width: 5; stroke-linecap: square"/>
   </g>
   <g id="line2d_25">
    <path d="M 468.757753 297.114586 
L 471.014831 299.752801 
L 471.767191 300.545767 
L 472.519551 295.625416 
L 474.776629 298.476023 
L 477.033708 300.920063 
L 478.538427 301.589429 
L 480.043146 302.956644 
L 480.795506 299.73725 
L 481.547865 300.530995 
L 482.300225 300.081435 
L 484.557303 302.296503 
L 486.814382 304.195646 
L 489.071461 305.823923 
L 489.82382 305.122112 
L 492.080899 306.618253 
L 494.337978 307.901006 
L 495.842697 308.652842 
L 496.595056 299.584044 
L 498.099775 298.560572 
L 498.852135 299.413151 
L 499.604494 298.812771 
L 501.109213 300.450711 
L 501.861573 300.61155 
L 502.613933 301.361579 
L 503.366292 298.274782 
L 504.118652 299.141649 
L 504.871011 295.920916 
L 505.623371 290.914773 
L 506.37573 287.572103 
L 508.632809 291.571314 
L 509.385169 292.216582 
L 511.642247 295.553375 
L 513.899326 298.414259 
L 516.156404 300.867106 
L 516.908764 301.604358 
L 517.661124 297.46197 
L 522.175281 302.199429 
L 524.43236 304.112418 
L 525.937079 305.233641 
L 526.689438 302.115729 
L 527.441798 302.790549 
L 528.194157 302.147886 
L 528.946517 299.722384 
L 529.698876 300.516871 
L 530.451236 298.924373 
L 531.203596 289.726188 
L 531.955955 288.87789 
L 533.460674 291.484481 
L 534.213034 291.15884 
L 534.965393 292.381505 
L 535.717753 285.598333 
L 536.470112 287.099025 
L 537.222472 278.752643 
L 537.974831 273.071484 
L 540.23191 279.138846 
L 542.488989 284.340851 
L 543.993708 217.641272 
L 544.746067 196.796698 
L 545.498427 171.010307 
L 546.250787 139.487168 
L 547.755506 91.43664 
L 549.260225 72.459971 
L 550.012584 62.441863 
L 550.764944 59.968412 
L 551.517303 64.195257 
L 552.269663 59.517996 
L 553.022022 52.749122 
L 553.774382 59.068588 
L 554.526742 66.403959 
L 555.279101 76.277979 
L 556.031461 83.89745 
L 556.78382 88.085473 
L 557.53618 94.076958 
L 558.288539 85.345715 
L 559.040899 90.973923 
L 559.793258 92.137393 
L 560.545618 84.787251 
L 561.297978 80.305153 
L 562.050337 81.787468 
L 562.802697 81.351631 
L 563.555056 85.791863 
L 564.307416 85.847205 
L 565.059775 83.15893 
L 565.812135 71.590287 
L 566.564494 68.915751 
L 568.069213 90.818709 
L 568.821573 95.001169 
L 569.573933 94.454239 
L 570.326292 86.952647 
L 571.078652 89.090492 
L 571.831011 94.579791 
L 572.583371 92.924038 
L 573.33573 94.088924 
L 574.08809 91.709757 
L 574.840449 98.529634 
L 575.592809 102.204202 
L 576.345169 97.415153 
L 577.097528 100.033243 
L 577.849888 99.610067 
L 579.354607 119.925802 
L 580.106966 116.172908 
L 580.859326 107.33713 
L 581.611685 107.875739 
L 582.364045 112.545735 
L 583.868764 102.446387 
L 584.621124 108.293544 
L 585.373483 109.619422 
L 586.125843 103.210804 
L 586.878202 99.857551 
L 587.630562 101.11202 
L 588.382921 98.986309 
L 589.88764 83.928118 
L 590.64 79.997075 
L 591.39236 84.404407 
L 592.144719 91.394006 
L 592.897079 91.422996 
L 593.649438 81.990903 
L 594.401798 80.482428 
L 595.154157 75.313723 
L 595.906517 81.257203 
L 596.658876 83.619057 
L 597.411236 82.663842 
L 598.163596 83.467943 
L 598.915955 79.812367 
L 599.668315 78.722511 
L 600.420674 84.361677 
L 601.173034 83.787603 
L 601.925393 91.176639 
L 602.677753 93.378675 
L 603.430112 90.814752 
L 604.182472 82.631135 
L 604.934831 84.843074 
L 606.439551 94.418798 
L 607.19191 87.655919 
L 607.94427 86.011004 
L 608.696629 83.243694 
L 609.448989 94.862117 
L 610.201348 99.009616 
L 610.953708 101.335933 
L 611.706067 101.924011 
L 612.458427 97.376379 
L 613.210787 93.769623 
L 613.963146 88.397508 
L 614.715506 89.220888 
L 615.467865 88.664487 
L 616.220225 85.173764 
L 616.972584 85.125351 
L 617.724944 88.503398 
L 619.982022 120.894781 
L 622.239101 148.666345 
L 624.49618 172.477 
L 626.753258 192.891647 
L 629.010337 210.394658 
L 631.267416 225.401306 
L 633.524494 238.267633 
L 635.781573 249.298895 
L 638.038652 258.756819 
L 640.29573 266.865812 
L 642.552809 273.818261 
L 644.809888 279.779114 
L 647.066966 284.889798 
L 649.324045 289.271573 
L 651.581124 293.028396 
L 653.838202 296.249402 
L 654.590562 297.217539 
L 655.342921 294.167831 
L 657.6 297.226326 
L 659.857079 299.848603 
L 662.114157 302.096877 
L 664.371236 304.024492 
L 666.628315 305.67718 
L 668.885393 307.094154 
L 671.894831 308.674187 
L 674.90427 309.961133 
L 677.913708 311.00936 
L 681.675506 312.050597 
L 682.427865 312.228674 
L 683.180225 310.423406 
L 683.932584 310.682842 
L 684.684944 308.52424 
L 687.694382 309.839001 
L 690.70382 310.909882 
L 694.465618 311.973622 
L 698.227416 312.796724 
L 698.979775 311.911722 
L 702.741573 312.748827 
L 703.493933 312.891992 
L 704.246292 307.552981 
L 705.751011 303.954443 
L 707.25573 305.091069 
L 708.00809 301.043674 
L 708.760449 299.482911 
L 711.017528 301.783344 
L 711.769888 302.474783 
L 712.522247 295.972488 
L 713.274607 295.070103 
L 714.026966 296.097205 
L 714.779326 295.480984 
L 717.036404 298.35219 
L 718.541124 300.035036 
L 719.293483 298.005587 
L 721.550562 300.490785 
L 723.055281 301.965117 
L 723.80764 300.522373 
L 726.064719 302.674551 
L 726.817079 301.768706 
L 728.321798 303.118442 
L 729.074157 302.013807 
L 731.331236 303.95327 
L 732.083596 304.536214 
L 732.835955 303.006389 
L 733.588315 303.567851 
L 734.340674 303.541048 
L 736.597753 305.262688 
L 738.854831 306.738779 
L 741.11191 308.004342 
L 741.86427 303.061179 
L 744.121348 304.851259 
L 746.378427 306.38603 
L 748.635506 307.701904 
L 750.892584 308.830101 
L 751.644944 306.476696 
L 753.902022 307.77964 
L 756.911461 309.232519 
L 757.66382 309.5515 
L 758.41618 304.312754 
L 759.168539 301.477339 
L 759.920899 297.204769 
L 761.425618 298.999487 
L 762.177978 298.968633 
L 764.435056 301.342414 
L 766.692135 303.377634 
L 768.196854 304.570499 
L 768.196854 304.570499 
" clip-path="url(#p3a6b288572)" style="fill: none; stroke: #ff0000; stroke-width: 5; stroke-linecap: square"/>
   </g>
   <g id="patch_7">
    <path d="M 468.005393 336.640156 
L 468.005393 31.720156 
" style="fill: none; stroke: #000000; stroke-width: 5; stroke-linejoin: miter; stroke-linecap: square"/>
   </g>
   <g id="patch_8">
    <path d="M 468.005393 336.640156 
L 768.949213 336.640156 
" style="fill: none; stroke: #000000; stroke-width: 5; stroke-linejoin: miter; stroke-linecap: square"/>
   </g>
   <g id="patch_9">
    <path d="M 543.241348 330.541756 
L 618.477303 330.541756 
L 618.477303 319.869556 
L 543.241348 319.869556 
z
" style="fill: #8c5a2b; stroke: #8c5a2b; stroke-linejoin: miter"/>
   </g>
   <g id="text_23">
    <!-- Familiar | Expert -->
    <g transform="translate(540.789569 21.720156) scale(0.19 -0.19)">
     <defs>
      <path id="DejaVuSans-45" d="M 628 4666 
L 3578 4666 
L 3578 4134 
L 1259 4134 
L 1259 2753 
L 3481 2753 
L 3481 2222 
L 1259 2222 
L 1259 531 
L 3634 531 
L 3634 0 
L 628 0 
L 628 4666 
z
" transform="scale(0.015625)"/>
      <path id="DejaVuSans-78" d="M 3513 3500 
L 2247 1797 
L 3578 0 
L 2900 0 
L 1881 1375 
L 863 0 
L 184 0 
L 1544 1831 
L 300 3500 
L 978 3500 
L 1906 2253 
L 2834 3500 
L 3513 3500 
z
" transform="scale(0.015625)"/>
      <path id="DejaVuSans-70" d="M 1159 525 
L 1159 -1331 
L 581 -1331 
L 581 3500 
L 1159 3500 
L 1159 2969 
Q 1341 3281 1617 3432 
Q 1894 3584 2278 3584 
Q 2916 3584 3314 3078 
Q 3713 2572 3713 1747 
Q 3713 922 3314 415 
Q 2916 -91 2278 -91 
Q 1894 -91 1617 61 
Q 1341 213 1159 525 
z
M 3116 1747 
Q 3116 2381 2855 2742 
Q 2594 3103 2138 3103 
Q 1681 3103 1420 2742 
Q 1159 2381 1159 1747 
Q 1159 1113 1420 752 
Q 1681 391 2138 391 
Q 2594 391 2855 752 
Q 3116 1113 3116 1747 
z
" transform="scale(0.015625)"/>
     </defs>
     <use xlink:href="#DejaVuSans-46"/>
     <use xlink:href="#DejaVuSans-61" transform="translate(48.394531 0)"/>
     <use xlink:href="#DejaVuSans-6d" transform="translate(109.673828 0)"/>
     <use xlink:href="#DejaVuSans-69" transform="translate(207.085938 0)"/>
     <use xlink:href="#DejaVuSans-6c" transform="translate(234.869141 0)"/>
     <use xlink:href="#DejaVuSans-69" transform="translate(262.652344 0)"/>
     <use xlink:href="#DejaVuSans-61" transform="translate(290.435547 0)"/>
     <use xlink:href="#DejaVuSans-72" transform="translate(351.714844 0)"/>
     <use xlink:href="#DejaVuSans-20" transform="translate(392.828125 0)"/>
     <use xlink:href="#DejaVuSans-7c" transform="translate(424.615234 0)"/>
     <use xlink:href="#DejaVuSans-20" transform="translate(458.306641 0)"/>
     <use xlink:href="#DejaVuSans-45" transform="translate(490.09375 0)"/>
     <use xlink:href="#DejaVuSans-78" transform="translate(553.277344 0)"/>
     <use xlink:href="#DejaVuSans-70" transform="translate(612.457031 0)"/>
     <use xlink:href="#DejaVuSans-65" transform="translate(675.933594 0)"/>
     <use xlink:href="#DejaVuSans-72" transform="translate(737.457031 0)"/>
     <use xlink:href="#DejaVuSans-74" transform="translate(778.570312 0)"/>
    </g>
   </g>
  </g>
  <g id="axes_3">
   <g id="patch_10">
    <path d="M 814.090787 336.640156 
L 1115.034607 336.640156 
L 1115.034607 31.720156 
L 814.090787 31.720156 
z
" style="fill: #ffffff"/>
   </g>
   <g id="matplotlib.axis_5">
    <g id="xtick_11">
     <g id="line2d_26">
      <g>
       <use xlink:href="#m3d920c8db9" x="814.090787" y="336.640156" style="stroke: #000000; stroke-width: 1.6"/>
      </g>
     </g>
     <g id="text_24">
      <!-- -1 -->
      <g transform="translate(798.138287 369.455156) scale(0.32 -0.32)">
       <use xlink:href="#DejaVuSans-2d"/>
       <use xlink:href="#DejaVuSans-31" transform="translate(36.083984 0)"/>
      </g>
     </g>
    </g>
    <g id="xtick_12">
     <g id="line2d_27">
      <g>
       <use xlink:href="#m3d920c8db9" x="889.326742" y="336.640156" style="stroke: #000000; stroke-width: 1.6"/>
      </g>
     </g>
     <g id="text_25">
      <!-- 0 -->
      <g transform="translate(879.146742 369.455156) scale(0.32 -0.32)">
       <use xlink:href="#DejaVuSans-30"/>
      </g>
     </g>
    </g>
    <g id="xtick_13">
     <g id="line2d_28">
      <g>
       <use xlink:href="#m3d920c8db9" x="964.562697" y="336.640156" style="stroke: #000000; stroke-width: 1.6"/>
      </g>
     </g>
     <g id="text_26">
      <!-- 1 -->
      <g transform="translate(954.382697 369.455156) scale(0.32 -0.32)">
       <use xlink:href="#DejaVuSans-31"/>
      </g>
     </g>
    </g>
    <g id="xtick_14">
     <g id="line2d_29">
      <g>
       <use xlink:href="#m3d920c8db9" x="1039.798652" y="336.640156" style="stroke: #000000; stroke-width: 1.6"/>
      </g>
     </g>
     <g id="text_27">
      <!-- 2 -->
      <g transform="translate(1029.618652 369.455156) scale(0.32 -0.32)">
       <use xlink:href="#DejaVuSans-32"/>
      </g>
     </g>
    </g>
    <g id="xtick_15">
     <g id="line2d_30">
      <g>
       <use xlink:href="#m3d920c8db9" x="1115.034607" y="336.640156" style="stroke: #000000; stroke-width: 1.6"/>
      </g>
     </g>
     <g id="text_28">
      <!-- 3 -->
      <g transform="translate(1104.854607 369.455156) scale(0.32 -0.32)">
       <use xlink:href="#DejaVuSans-33"/>
      </g>
     </g>
    </g>
    <g id="text_29">
     <!-- Time (s) -->
     <g transform="translate(899.510197 404.425156) scale(0.32 -0.32)">
      <use xlink:href="#DejaVuSans-54"/>
      <use xlink:href="#DejaVuSans-69" transform="translate(57.958984 0)"/>
      <use xlink:href="#DejaVuSans-6d" transform="translate(85.742188 0)"/>
      <use xlink:href="#DejaVuSans-65" transform="translate(183.154297 0)"/>
      <use xlink:href="#DejaVuSans-20" transform="translate(244.677734 0)"/>
      <use xlink:href="#DejaVuSans-28" transform="translate(276.464844 0)"/>
      <use xlink:href="#DejaVuSans-73" transform="translate(315.478516 0)"/>
      <use xlink:href="#DejaVuSans-29" transform="translate(367.578125 0)"/>
     </g>
    </g>
   </g>
   <g id="matplotlib.axis_6">
    <g id="ytick_9">
     <g id="line2d_31">
      <g>
       <use xlink:href="#m7ab0066b56" x="814.090787" y="315.612139" style="stroke: #000000; stroke-width: 1.6"/>
      </g>
     </g>
    </g>
    <g id="ytick_10">
     <g id="line2d_32">
      <g>
       <use xlink:href="#m7ab0066b56" x="814.090787" y="235.152982" style="stroke: #000000; stroke-width: 1.6"/>
      </g>
     </g>
    </g>
    <g id="ytick_11">
     <g id="line2d_33">
      <g>
       <use xlink:href="#m7ab0066b56" x="814.090787" y="154.693825" style="stroke: #000000; stroke-width: 1.6"/>
      </g>
     </g>
    </g>
    <g id="ytick_12">
     <g id="line2d_34">
      <g>
       <use xlink:href="#m7ab0066b56" x="814.090787" y="74.234668" style="stroke: #000000; stroke-width: 1.6"/>
      </g>
     </g>
    </g>
   </g>
   <g id="line2d_35">
    <path d="M 814.843146 302.550824 
L 817.100225 304.413694 
L 819.357303 306.010873 
L 820.862022 306.946996 
L 821.614382 305.816254 
L 822.366742 299.113104 
L 823.119101 299.640817 
L 823.871461 300.439383 
L 824.62382 300.125227 
L 825.37618 298.577462 
L 826.128539 293.298939 
L 828.385618 296.48136 
L 830.642697 299.209887 
L 831.395056 299.261222 
L 832.147416 290.829699 
L 832.899775 288.638325 
L 833.652135 288.878736 
L 834.404494 288.240543 
L 836.661573 292.144418 
L 838.918652 295.491503 
L 841.17573 298.36121 
L 843.432809 300.821626 
L 845.689888 302.931121 
L 846.442247 303.565172 
L 847.194607 298.635323 
L 849.451685 301.056642 
L 851.708764 303.13262 
L 852.461124 303.174059 
L 854.718202 304.94804 
L 856.975281 306.469007 
L 857.72764 306.926164 
L 858.48 306.916954 
L 861.489438 308.529857 
L 863.746517 309.539967 
L 864.498876 307.151264 
L 867.508315 308.720704 
L 868.260674 309.065276 
L 869.013034 307.777418 
L 872.022472 309.23071 
L 875.03191 310.414426 
L 875.78427 310.36961 
L 877.288989 310.880757 
L 878.041348 307.496088 
L 881.050787 309.001565 
L 881.803146 302.725964 
L 884.060225 304.563856 
L 884.812584 305.11627 
L 885.564944 299.179453 
L 887.822022 301.523166 
L 890.079101 303.532606 
L 892.33618 305.25545 
L 894.593258 306.732573 
L 897.602697 308.379677 
L 900.612135 309.721254 
L 903.621573 310.813977 
L 907.383371 311.899412 
L 911.145169 312.739302 
L 915.659326 313.50034 
L 920.925843 314.137391 
L 926.944719 314.633761 
L 934.468315 315.026348 
L 945.001348 315.326463 
L 960.048539 315.509728 
L 967.572135 315.550822 
L 968.324494 314.065444 
L 972.086292 314.415336 
L 972.838652 311.547746 
L 975.84809 312.301666 
L 976.600449 307.498957 
L 977.352809 305.409597 
L 978.857528 306.404345 
L 979.609888 300.9063 
L 981.866966 303.003721 
L 982.619326 303.634142 
L 983.371685 298.771409 
L 984.124045 299.613445 
L 984.876404 288.815992 
L 985.628764 281.962398 
L 986.381124 279.515555 
L 988.638202 284.663829 
L 990.895281 289.077834 
L 992.4 291.664928 
L 993.15236 289.437943 
L 995.409438 293.171039 
L 997.666517 296.371701 
L 999.923596 299.115869 
L 1002.180674 301.46865 
L 1002.933034 302.175825 
L 1003.685393 302.481119 
L 1004.437753 303.045809 
L 1005.190112 302.912295 
L 1005.942472 301.47751 
L 1006.694831 299.575584 
L 1007.447191 300.001954 
L 1009.70427 302.228358 
L 1011.961348 304.13722 
L 1012.713708 304.710966 
L 1013.466067 304.445645 
L 1014.218427 305.00397 
L 1014.970787 303.47194 
L 1016.475506 304.655609 
L 1017.227865 298.392525 
L 1017.980225 293.959324 
L 1018.732584 295.041965 
L 1019.484944 292.951057 
L 1021.742022 296.183096 
L 1023.999101 298.954165 
L 1024.751461 299.787063 
L 1025.50382 299.424637 
L 1027.760899 301.733381 
L 1028.513258 293.418982 
L 1029.265618 289.275697 
L 1030.770337 291.843501 
L 1031.522697 290.844911 
L 1032.275056 292.083273 
L 1033.027416 290.697656 
L 1035.284494 294.251086 
L 1037.541573 297.297707 
L 1038.293933 298.21343 
L 1039.046292 295.41459 
L 1039.798652 290.788114 
L 1042.05573 294.328642 
L 1042.80809 295.098897 
L 1043.560449 294.594699 
L 1045.817528 297.592312 
L 1048.074607 300.162391 
L 1050.331685 302.365912 
L 1052.588764 304.255155 
L 1054.845843 305.874946 
L 1057.102921 307.263713 
L 1057.855281 306.363347 
L 1058.60764 306.825787 
L 1059.36 302.998843 
L 1060.11236 303.629508 
L 1060.864719 297.480233 
L 1062.369438 299.248094 
L 1063.121798 298.44434 
L 1065.378876 300.892898 
L 1067.635955 302.99223 
L 1069.893034 304.792145 
L 1072.150112 306.335346 
L 1072.902472 305.937131 
L 1073.654831 302.235093 
L 1075.159551 303.539356 
L 1075.91191 298.933579 
L 1078.168989 301.31236 
L 1080.426067 303.351867 
L 1081.178427 303.964881 
L 1081.930787 300.556343 
L 1082.683146 299.597477 
L 1083.435506 297.273761 
L 1084.187865 293.6613 
L 1086.444944 296.79204 
L 1087.197303 297.670266 
L 1087.949663 295.833096 
L 1090.206742 298.654082 
L 1090.959101 298.082783 
L 1093.21618 300.582909 
L 1095.473258 302.726454 
L 1097.730337 304.564276 
L 1099.987416 306.139978 
L 1101.492135 307.063515 
L 1102.244494 303.856963 
L 1102.996854 292.44491 
L 1105.253933 295.749137 
L 1106.006292 290.591528 
L 1107.511011 293.031037 
L 1108.263371 291.901553 
L 1109.01573 283.06023 
L 1109.76809 283.857953 
L 1110.520449 278.044666 
L 1111.272809 278.754735 
L 1113.529888 284.011522 
L 1114.282247 285.591553 
L 1114.282247 285.591553 
" clip-path="url(#p7ee4328468)" style="fill: none; stroke: #000000; stroke-width: 5; stroke-linecap: square"/>
   </g>
   <g id="line2d_36">
    <path d="M 814.843146 294.834023 
L 815.595506 285.386883 
L 816.347865 283.886784 
L 817.100225 283.790735 
L 817.852584 280.976385 
L 819.357303 284.353374 
L 820.109663 284.425262 
L 820.862022 280.042583 
L 821.614382 273.470933 
L 822.366742 269.991837 
L 823.119101 271.371898 
L 825.37618 277.681664 
L 826.128539 279.045782 
L 826.880899 280.874101 
L 827.633258 281.555003 
L 828.385618 282.40996 
L 829.137978 284.070069 
L 829.890337 284.75579 
L 832.147416 289.156676 
L 834.404494 292.929887 
L 836.661573 296.164944 
L 837.413933 294.699975 
L 838.918652 296.738912 
L 839.671011 293.92484 
L 840.423371 292.795068 
L 841.17573 293.935922 
L 841.92809 293.994748 
L 842.680449 290.437186 
L 844.937528 294.027764 
L 847.194607 297.106237 
L 849.451685 299.745643 
L 851.708764 302.008602 
L 853.213483 303.334947 
L 853.965843 302.717154 
L 856.222921 304.556302 
L 857.72764 305.634246 
L 858.48 302.652182 
L 859.23236 302.283196 
L 859.984719 302.949643 
L 860.737079 300.188308 
L 862.241798 301.542654 
L 862.994157 302.246129 
L 863.746517 301.734973 
L 865.251236 303.087996 
L 866.003596 303.292548 
L 867.508315 304.493708 
L 868.260674 304.145974 
L 870.517753 305.781336 
L 872.022472 306.739839 
L 872.774831 302.684207 
L 873.527191 300.899808 
L 874.279551 301.635425 
L 875.03191 299.528023 
L 876.536629 301.096225 
L 878.041348 296.311466 
L 880.298427 299.064225 
L 881.050787 296.821114 
L 881.803146 292.596675 
L 882.555506 292.938936 
L 884.812584 296.172703 
L 887.069663 298.945253 
L 887.822022 299.778599 
L 888.574382 299.545932 
L 889.326742 297.525213 
L 890.831461 299.288688 
L 891.58382 299.339754 
L 893.840899 301.660604 
L 895.345618 303.020878 
L 896.097978 297.192409 
L 896.850337 297.30882 
L 899.107416 299.919331 
L 901.364494 302.157518 
L 902.116854 302.830249 
L 902.869213 301.26266 
L 903.621573 301.980134 
L 904.373933 302.492001 
L 906.631011 304.36326 
L 907.383371 304.737554 
L 908.13573 302.808809 
L 908.88809 303.448976 
L 909.640449 302.043692 
L 910.392809 302.265495 
L 912.649888 304.169061 
L 913.402247 304.3486 
L 915.659326 305.955063 
L 917.916404 307.332403 
L 918.668764 307.74639 
L 919.421124 306.184029 
L 920.173483 306.655434 
L 920.925843 305.643426 
L 921.678202 299.15348 
L 922.430562 296.598084 
L 924.68764 299.309963 
L 925.44 300.125073 
L 926.19236 298.377953 
L 926.944719 295.97769 
L 929.201798 298.778055 
L 931.458876 301.179016 
L 932.211236 301.900673 
L 932.963596 299.23518 
L 935.220674 301.570945 
L 937.477753 303.573571 
L 938.982472 304.747332 
L 939.734831 301.799657 
L 940.487191 302.117334 
L 941.239551 299.932593 
L 943.496629 302.168888 
L 944.248989 302.123823 
L 945.001348 300.923139 
L 945.753708 301.657589 
L 947.258427 299.286924 
L 948.763146 300.878633 
L 949.515506 299.977724 
L 951.020225 293.042713 
L 953.277303 296.261679 
L 955.534382 299.02154 
L 957.039101 300.639124 
L 957.791461 300.360117 
L 958.54382 299.724168 
L 959.29618 300.518568 
L 960.048539 300.84032 
L 963.057978 303.541879 
L 964.562697 304.71873 
L 965.315056 303.278189 
L 967.572135 305.037319 
L 968.324494 305.56606 
L 969.076854 303.651543 
L 971.333933 305.357424 
L 973.591011 306.820002 
L 975.09573 307.677235 
L 975.84809 305.700232 
L 976.600449 300.794518 
L 977.352809 301.535399 
L 978.105169 299.822574 
L 980.362247 302.074562 
L 982.619326 304.00536 
L 984.876404 305.660778 
L 987.133483 307.080091 
L 987.885843 307.506694 
L 988.638202 302.706846 
L 990.142921 303.965112 
L 990.895281 302.617401 
L 993.15236 304.470776 
L 995.409438 306.059813 
L 996.914157 306.991165 
L 997.666517 306.733483 
L 998.418876 298.292847 
L 999.171236 292.207427 
L 1001.428315 295.545524 
L 1002.180674 296.090449 
L 1004.437753 298.874729 
L 1005.942472 294.985422 
L 1008.199551 297.927308 
L 1010.456629 300.449607 
L 1012.713708 302.612164 
L 1014.970787 304.466286 
L 1017.227865 306.055963 
L 1017.980225 306.533772 
L 1018.732584 304.041373 
L 1019.484944 304.619911 
L 1020.237303 302.516542 
L 1022.494382 304.384302 
L 1023.246742 304.945695 
L 1023.999101 300.707688 
L 1024.751461 301.452911 
L 1025.50382 300.035031 
L 1027.760899 302.256716 
L 1030.017978 304.161533 
L 1030.770337 304.734063 
L 1031.522697 304.267986 
L 1032.275056 299.579027 
L 1034.532135 301.865749 
L 1035.284494 302.553069 
L 1036.036854 301.130426 
L 1038.293933 303.195881 
L 1039.798652 304.406467 
L 1040.551011 303.970671 
L 1042.05573 305.105714 
L 1042.80809 303.680991 
L 1043.560449 300.389305 
L 1044.312809 298.494324 
L 1045.065169 298.059414 
L 1045.817528 292.921399 
L 1046.569888 292.249743 
L 1047.322247 293.417864 
L 1048.074607 293.941139 
L 1048.826966 294.80588 
L 1049.579326 293.776432 
L 1051.836404 296.890751 
L 1054.093483 299.56089 
L 1056.350562 301.850199 
L 1058.60764 303.812996 
L 1060.864719 305.495849 
L 1063.121798 306.938686 
L 1064.626517 307.784348 
L 1065.378876 306.580176 
L 1066.131236 305.617159 
L 1066.883596 305.264721 
L 1069.140674 306.740522 
L 1069.893034 305.219196 
L 1072.150112 306.701491 
L 1072.902472 307.147023 
L 1073.654831 307.204174 
L 1076.66427 308.763799 
L 1077.416629 309.106217 
L 1078.921348 309.636769 
L 1081.930787 310.745163 
L 1084.940225 311.647956 
L 1085.692584 309.399027 
L 1088.702022 310.55152 
L 1091.711461 311.490234 
L 1092.46382 311.54663 
L 1093.21618 310.820292 
L 1097.730337 312.064528 
L 1098.482697 302.891922 
L 1099.987416 297.205515 
L 1102.244494 299.83076 
L 1104.501573 302.081579 
L 1106.758652 304.011374 
L 1107.511011 300.633995 
L 1108.263371 300.858589 
L 1109.01573 297.596248 
L 1109.76809 297.962569 
L 1110.520449 295.421379 
L 1112.777528 298.301085 
L 1114.282247 299.988913 
L 1114.282247 299.988913 
" clip-path="url(#p7ee4328468)" style="fill: none; stroke: #ff0000; stroke-width: 5; stroke-linecap: square"/>
   </g>
   <g id="line2d_37">
    <path d="M 814.843146 304.763135 
L 817.100225 306.310474 
L 819.357303 307.637124 
L 820.862022 308.414688 
L 821.614382 307.159933 
L 822.366742 301.196586 
L 824.62382 303.252605 
L 826.880899 305.015384 
L 827.633258 305.545221 
L 828.385618 296.361637 
L 830.642697 299.107242 
L 831.395056 299.932486 
L 832.147416 291.126361 
L 833.652135 293.513725 
L 834.404494 292.009937 
L 835.156854 290.216567 
L 837.413933 293.838611 
L 839.671011 296.94406 
L 841.17573 298.764198 
L 841.92809 298.777896 
L 844.185169 301.17888 
L 846.442247 303.237423 
L 847.194607 303.856159 
L 847.946966 303.021181 
L 850.204045 304.816967 
L 852.461124 306.356629 
L 854.718202 307.676696 
L 855.470562 308.073468 
L 856.222921 307.087948 
L 856.975281 305.801228 
L 857.72764 306.291773 
L 858.48 306.514389 
L 860.737079 307.811957 
L 862.994157 308.924458 
L 863.746517 302.616185 
L 864.498876 298.734289 
L 865.251236 299.108303 
L 867.508315 301.462164 
L 869.765393 303.480305 
L 872.022472 305.210608 
L 874.279551 306.694127 
L 875.03191 305.166064 
L 875.78427 304.707522 
L 876.536629 305.252752 
L 877.288989 305.660464 
L 878.041348 299.36553 
L 878.793708 295.916585 
L 879.546067 295.427367 
L 881.803146 298.306221 
L 884.060225 300.774479 
L 886.317303 302.890701 
L 888.574382 304.705097 
L 890.831461 306.260714 
L 893.088539 307.594461 
L 896.097978 309.08169 
L 899.107416 310.293048 
L 902.116854 311.279706 
L 905.878652 312.259784 
L 909.640449 313.018151 
L 914.154607 313.70532 
L 919.421124 314.280536 
L 926.19236 314.772897 
L 934.468315 315.134778 
L 945.753708 315.390982 
L 963.810337 315.547563 
L 967.572135 315.562171 
L 968.324494 308.884834 
L 971.333933 310.132707 
L 974.343371 311.149108 
L 978.105169 312.158731 
L 978.857528 312.331402 
L 979.609888 308.164502 
L 982.619326 309.545993 
L 983.371685 306.397968 
L 984.124045 306.858677 
L 984.876404 299.490862 
L 987.133483 301.79016 
L 989.390562 303.761519 
L 991.64764 305.451714 
L 992.4 305.959736 
L 993.15236 297.84779 
L 994.657079 299.579815 
L 995.409438 296.789614 
L 997.666517 299.474176 
L 998.418876 297.977126 
L 1000.675955 300.492319 
L 1002.933034 302.648784 
L 1003.685393 299.334233 
L 1004.437753 289.304265 
L 1005.190112 283.957156 
L 1005.942472 283.344155 
L 1006.694831 283.271899 
L 1007.447191 284.888911 
L 1008.199551 280.26464 
L 1010.456629 285.306077 
L 1011.961348 288.260918 
L 1012.713708 289.084392 
L 1013.466067 289.216467 
L 1015.723146 292.98115 
L 1017.980225 296.208897 
L 1018.732584 294.284063 
L 1019.484944 294.226838 
L 1020.237303 295.296103 
L 1020.989663 292.8105 
L 1021.742022 291.044055 
L 1023.999101 294.54808 
L 1025.50382 296.601826 
L 1026.25618 294.664858 
L 1027.008539 295.712222 
L 1027.760899 294.658418 
L 1028.513258 294.293101 
L 1030.770337 297.333731 
L 1031.522697 292.798975 
L 1032.275056 290.138133 
L 1033.027416 286.102437 
L 1036.036854 291.483718 
L 1038.293933 294.925035 
L 1039.046292 294.825605 
L 1041.303371 297.790285 
L 1043.560449 300.332127 
L 1045.817528 302.511439 
L 1048.074607 304.379926 
L 1050.331685 305.981921 
L 1052.588764 307.355432 
L 1055.598202 308.886999 
L 1058.60764 310.134471 
L 1059.36 309.286367 
L 1062.369438 310.459759 
L 1063.874157 305.925508 
L 1064.626517 306.40984 
L 1065.378876 296.915876 
L 1066.131236 296.111258 
L 1066.883596 297.086302 
L 1067.635955 293.279152 
L 1069.893034 296.464395 
L 1070.645393 293.006479 
L 1072.902472 296.230613 
L 1075.159551 298.994904 
L 1077.416629 301.364938 
L 1079.673708 303.353281 
L 1080.426067 303.966224 
L 1081.178427 304.008494 
L 1081.930787 300.081661 
L 1082.683146 300.858186 
L 1083.435506 300.785304 
L 1084.187865 294.061881 
L 1086.444944 297.135487 
L 1088.702022 299.77072 
L 1090.959101 302.030104 
L 1092.46382 303.206141 
L 1094.720899 304.975546 
L 1096.977978 306.49259 
L 1099.235056 307.793266 
L 1102.244494 309.243618 
L 1103.749213 309.864549 
L 1104.501573 309.187342 
L 1107.511011 310.379102 
L 1108.263371 310.640754 
L 1109.01573 307.631544 
L 1110.520449 308.409652 
L 1111.272809 306.294794 
L 1112.025169 306.760661 
L 1112.777528 301.462561 
L 1114.282247 302.842145 
L 1114.282247 302.842145 
" clip-path="url(#p7ee4328468)" style="fill: none; stroke: #0000ff; stroke-width: 5; stroke-linecap: square"/>
   </g>
   <g id="patch_11">
    <path d="M 814.090787 336.640156 
L 814.090787 31.720156 
" style="fill: none; stroke: #000000; stroke-width: 5; stroke-linejoin: miter; stroke-linecap: square"/>
   </g>
   <g id="patch_12">
    <path d="M 814.090787 336.640156 
L 1115.034607 336.640156 
" style="fill: none; stroke: #000000; stroke-width: 5; stroke-linejoin: miter; stroke-linecap: square"/>
   </g>
   <g id="patch_13">
    <path d="M 889.326742 330.541756 
L 964.562697 330.541756 
L 964.562697 319.869556 
L 889.326742 319.869556 
z
" style="fill: #8c5a2b; stroke: #8c5a2b; stroke-linejoin: miter"/>
   </g>
   <g id="text_30">
    <!-- Novel | Naive -->
    <g transform="translate(901.26004 21.720156) scale(0.19 -0.19)">
     <use xlink:href="#DejaVuSans-4e"/>
     <use xlink:href="#DejaVuSans-6f" transform="translate(74.804688 0)"/>
     <use xlink:href="#DejaVuSans-76" transform="translate(135.986328 0)"/>
     <use xlink:href="#DejaVuSans-65" transform="translate(195.166016 0)"/>
     <use xlink:href="#DejaVuSans-6c" transform="translate(256.689453 0)"/>
     <use xlink:href="#DejaVuSans-20" transform="translate(284.472656 0)"/>
     <use xlink:href="#DejaVuSans-7c" transform="translate(316.259766 0)"/>
     <use xlink:href="#DejaVuSans-20" transform="translate(349.951172 0)"/>
     <use xlink:href="#DejaVuSans-4e" transform="translate(381.738281 0)"/>
     <use xlink:href="#DejaVuSans-61" transform="translate(456.542969 0)"/>
     <use xlink:href="#DejaVuSans-69" transform="translate(517.822266 0)"/>
     <use xlink:href="#DejaVuSans-76" transform="translate(545.605469 0)"/>
     <use xlink:href="#DejaVuSans-65" transform="translate(604.785156 0)"/>
    </g>
   </g>
  </g>
  <g id="axes_4">
   <g id="patch_14">
    <path d="M 1160.17618 336.640156 
L 1461.12 336.640156 
L 1461.12 31.720156 
L 1160.17618 31.720156 
z
" style="fill: #ffffff"/>
   </g>
   <g id="matplotlib.axis_7">
    <g id="xtick_16">
     <g id="line2d_38">
      <g>
       <use xlink:href="#m3d920c8db9" x="1160.17618" y="336.640156" style="stroke: #000000; stroke-width: 1.6"/>
      </g>
     </g>
     <g id="text_31">
      <!-- -1 -->
      <g transform="translate(1144.22368 369.455156) scale(0.32 -0.32)">
       <use xlink:href="#DejaVuSans-2d"/>
       <use xlink:href="#DejaVuSans-31" transform="translate(36.083984 0)"/>
      </g>
     </g>
    </g>
    <g id="xtick_17">
     <g id="line2d_39">
      <g>
       <use xlink:href="#m3d920c8db9" x="1235.412135" y="336.640156" style="stroke: #000000; stroke-width: 1.6"/>
      </g>
     </g>
     <g id="text_32">
      <!-- 0 -->
      <g transform="translate(1225.232135 369.455156) scale(0.32 -0.32)">
       <use xlink:href="#DejaVuSans-30"/>
      </g>
     </g>
    </g>
    <g id="xtick_18">
     <g id="line2d_40">
      <g>
       <use xlink:href="#m3d920c8db9" x="1310.64809" y="336.640156" style="stroke: #000000; stroke-width: 1.6"/>
      </g>
     </g>
     <g id="text_33">
      <!-- 1 -->
      <g transform="translate(1300.46809 369.455156) scale(0.32 -0.32)">
       <use xlink:href="#DejaVuSans-31"/>
      </g>
     </g>
    </g>
    <g id="xtick_19">
     <g id="line2d_41">
      <g>
       <use xlink:href="#m3d920c8db9" x="1385.884045" y="336.640156" style="stroke: #000000; stroke-width: 1.6"/>
      </g>
     </g>
     <g id="text_34">
      <!-- 2 -->
      <g transform="translate(1375.704045 369.455156) scale(0.32 -0.32)">
       <use xlink:href="#DejaVuSans-32"/>
      </g>
     </g>
    </g>
    <g id="xtick_20">
     <g id="line2d_42">
      <g>
       <use xlink:href="#m3d920c8db9" x="1461.12" y="336.640156" style="stroke: #000000; stroke-width: 1.6"/>
      </g>
     </g>
     <g id="text_35">
      <!-- 3 -->
      <g transform="translate(1450.94 369.455156) scale(0.32 -0.32)">
       <use xlink:href="#DejaVuSans-33"/>
      </g>
     </g>
    </g>
    <g id="text_36">
     <!-- Time (s) -->
     <g transform="translate(1245.59559 404.425156) scale(0.32 -0.32)">
      <use xlink:href="#DejaVuSans-54"/>
      <use xlink:href="#DejaVuSans-69" transform="translate(57.958984 0)"/>
      <use xlink:href="#DejaVuSans-6d" transform="translate(85.742188 0)"/>
      <use xlink:href="#DejaVuSans-65" transform="translate(183.154297 0)"/>
      <use xlink:href="#DejaVuSans-20" transform="translate(244.677734 0)"/>
      <use xlink:href="#DejaVuSans-28" transform="translate(276.464844 0)"/>
      <use xlink:href="#DejaVuSans-73" transform="translate(315.478516 0)"/>
      <use xlink:href="#DejaVuSans-29" transform="translate(367.578125 0)"/>
     </g>
    </g>
   </g>
   <g id="matplotlib.axis_8">
    <g id="ytick_13">
     <g id="line2d_43">
      <g>
       <use xlink:href="#m7ab0066b56" x="1160.17618" y="315.612139" style="stroke: #000000; stroke-width: 1.6"/>
      </g>
     </g>
    </g>
    <g id="ytick_14">
     <g id="line2d_44">
      <g>
       <use xlink:href="#m7ab0066b56" x="1160.17618" y="235.152982" style="stroke: #000000; stroke-width: 1.6"/>
      </g>
     </g>
    </g>
    <g id="ytick_15">
     <g id="line2d_45">
      <g>
       <use xlink:href="#m7ab0066b56" x="1160.17618" y="154.693825" style="stroke: #000000; stroke-width: 1.6"/>
      </g>
     </g>
    </g>
    <g id="ytick_16">
     <g id="line2d_46">
      <g>
       <use xlink:href="#m7ab0066b56" x="1160.17618" y="74.234668" style="stroke: #000000; stroke-width: 1.6"/>
      </g>
     </g>
    </g>
   </g>
   <g id="line2d_47">
    <path d="M 1160.928539 313.615484 
L 1166.195056 314.2178 
L 1172.213933 314.687106 
L 1180.489888 315.08598 
L 1191.022921 315.355544 
L 1200.051236 315.473485 
L 1200.803596 315.086244 
L 1201.555955 315.112538 
L 1202.308315 313.314065 
L 1203.060674 307.640455 
L 1206.070112 309.119153 
L 1209.079551 310.323562 
L 1212.088989 311.30456 
L 1215.850787 312.279017 
L 1219.612584 313.033033 
L 1224.126742 313.716259 
L 1229.393258 314.288175 
L 1236.164494 314.777712 
L 1244.440449 315.137517 
L 1255.725843 315.39225 
L 1273.782472 315.547934 
L 1313.657528 315.607903 
L 1335.475955 315.611182 
L 1336.228315 313.895013 
L 1339.990112 314.28346 
L 1340.742472 312.012853 
L 1341.494831 308.711489 
L 1344.50427 309.991517 
L 1347.513708 311.034107 
L 1351.275506 312.069745 
L 1352.027865 312.246865 
L 1352.780225 307.69618 
L 1353.532584 308.091979 
L 1354.284944 306.473539 
L 1356.542022 307.776932 
L 1359.551461 309.230314 
L 1362.560899 310.414103 
L 1365.570337 311.378306 
L 1369.332135 312.33608 
L 1373.093933 313.077187 
L 1377.60809 313.748717 
L 1382.874607 314.310842 
L 1389.645843 314.791997 
L 1397.921798 315.145642 
L 1403.940674 315.302655 
L 1404.693034 313.64677 
L 1409.959551 314.239648 
L 1411.46427 314.373466 
L 1412.216629 312.872727 
L 1412.968989 309.735449 
L 1415.978427 310.825539 
L 1419.740225 311.908359 
L 1423.502022 312.746224 
L 1424.254382 312.88952 
L 1425.006742 312.060731 
L 1427.26382 312.567251 
L 1428.01618 310.31573 
L 1431.025618 311.298181 
L 1432.530337 311.718792 
L 1433.282697 308.614981 
L 1436.292135 309.91291 
L 1439.301573 310.970082 
L 1440.053933 310.810556 
L 1443.81573 311.896766 
L 1447.577528 312.737254 
L 1452.091685 313.498835 
L 1457.358202 314.13634 
L 1460.36764 314.410091 
L 1460.36764 314.410091 
" clip-path="url(#p579df5ee1e)" style="fill: none; stroke: #000000; stroke-width: 5; stroke-linecap: square"/>
   </g>
   <g id="line2d_48">
    <path d="M 1160.928539 307.728587 
L 1162.433258 308.497233 
L 1163.185618 305.57604 
L 1163.937978 302.013716 
L 1164.690337 302.693638 
L 1165.442697 302.636005 
L 1166.195056 303.284812 
L 1166.947416 301.022506 
L 1167.699775 295.247238 
L 1169.956854 298.151782 
L 1172.213933 300.642066 
L 1174.471011 302.777174 
L 1176.72809 304.607761 
L 1177.480449 305.15798 
L 1178.232809 303.315493 
L 1180.489888 305.069303 
L 1181.242247 301.48392 
L 1181.994607 302.190331 
L 1182.746966 301.952301 
L 1185.004045 303.900536 
L 1187.261124 305.570903 
L 1189.518202 307.003035 
L 1192.52764 308.599969 
L 1193.28 308.738015 
L 1196.289438 310.013122 
L 1197.041798 310.293073 
L 1197.794157 310.021226 
L 1198.546517 310.300772 
L 1199.298876 309.538422 
L 1202.308315 310.665058 
L 1205.317753 311.582711 
L 1206.822472 311.97558 
L 1207.574831 307.116693 
L 1208.327191 304.443999 
L 1210.58427 306.036855 
L 1212.088989 306.970445 
L 1212.841348 306.299797 
L 1215.098427 307.62797 
L 1217.355506 308.766712 
L 1218.107865 308.986837 
L 1218.860225 308.269057 
L 1220.364944 302.018299 
L 1221.117303 300.291056 
L 1221.869663 292.89407 
L 1224.126742 296.134237 
L 1226.38382 298.912272 
L 1227.13618 299.747266 
L 1228.640899 301.131574 
L 1229.393258 301.855602 
L 1230.145618 299.971522 
L 1231.650337 301.496482 
L 1232.402697 300.049718 
L 1233.155056 299.556571 
L 1234.659775 301.121989 
L 1235.412135 264.443319 
L 1236.164494 237.624699 
L 1236.916854 219.918673 
L 1237.669213 216.573111 
L 1239.173933 193.157056 
L 1239.926292 185.194354 
L 1240.678652 189.965119 
L 1242.183371 176.323614 
L 1242.93573 172.033562 
L 1243.68809 161.847255 
L 1244.440449 156.618664 
L 1245.192809 154.870845 
L 1245.945169 150.760057 
L 1246.697528 155.516675 
L 1247.449888 150.987375 
L 1248.202247 145.308248 
L 1250.459326 157.948799 
L 1251.211685 165.831963 
L 1251.964045 169.688361 
L 1252.716404 167.980107 
L 1253.468764 166.729582 
L 1254.221124 163.498728 
L 1255.725843 178.329792 
L 1256.478202 167.553981 
L 1257.230562 172.008108 
L 1257.982921 174.146948 
L 1258.735281 164.75514 
L 1259.48764 157.150524 
L 1260.24 160.022824 
L 1260.99236 167.036689 
L 1261.744719 172.591762 
L 1262.497079 179.742785 
L 1263.249438 185.715075 
L 1264.754157 189.510747 
L 1265.506517 195.815814 
L 1266.258876 188.663628 
L 1267.011236 178.731999 
L 1267.763596 166.562462 
L 1268.515955 159.858474 
L 1269.268315 167.646155 
L 1270.020674 166.083152 
L 1270.773034 168.830463 
L 1271.525393 170.066373 
L 1272.277753 175.874829 
L 1273.030112 175.449855 
L 1273.782472 177.319258 
L 1274.534831 178.424304 
L 1275.287191 178.980826 
L 1276.79191 192.302383 
L 1277.54427 191.313969 
L 1278.296629 188.646663 
L 1279.048989 187.982968 
L 1279.801348 194.364431 
L 1280.553708 194.213413 
L 1281.306067 187.904774 
L 1282.810787 179.190675 
L 1283.563146 178.946608 
L 1284.315506 177.643666 
L 1285.067865 172.274919 
L 1286.572584 182.325866 
L 1287.324944 173.126667 
L 1288.829663 159.825395 
L 1289.582022 157.316049 
L 1290.334382 157.837118 
L 1291.086742 164.119189 
L 1291.839101 160.565858 
L 1292.591461 168.31817 
L 1293.34382 171.430917 
L 1294.09618 163.398173 
L 1294.848539 163.707702 
L 1295.600899 160.93212 
L 1296.353258 161.435601 
L 1297.105618 163.635203 
L 1297.857978 157.434875 
L 1298.610337 159.888052 
L 1299.362697 159.748268 
L 1300.115056 164.186425 
L 1300.867416 167.322947 
L 1301.619775 166.052028 
L 1302.372135 168.832885 
L 1303.124494 166.678663 
L 1303.876854 163.30311 
L 1304.629213 165.209308 
L 1305.381573 154.384917 
L 1306.133933 153.767261 
L 1306.886292 154.590774 
L 1307.638652 147.20434 
L 1308.391011 145.000674 
L 1309.143371 145.938289 
L 1312.152809 177.005389 
L 1314.409888 196.77417 
L 1316.666966 213.723428 
L 1318.924045 228.25531 
L 1321.181124 240.714576 
L 1323.438202 251.396845 
L 1325.695281 260.555557 
L 1327.95236 268.408008 
L 1330.209438 275.140501 
L 1332.466517 280.91277 
L 1334.723596 285.861769 
L 1336.980674 290.104916 
L 1339.237753 293.742883 
L 1340.742472 295.875136 
L 1341.494831 294.468011 
L 1343.75191 297.483693 
L 1346.008989 300.069264 
L 1348.266067 302.286066 
L 1349.770787 303.585358 
L 1350.523146 302.075836 
L 1351.275506 299.73963 
L 1352.027865 292.717159 
L 1354.284944 295.982555 
L 1356.542022 298.782225 
L 1358.799101 301.182593 
L 1361.05618 303.240608 
L 1363.313258 305.005098 
L 1364.817978 306.039284 
L 1365.570337 306.243812 
L 1367.827416 307.57997 
L 1370.836854 309.069888 
L 1373.846292 310.283434 
L 1376.85573 311.271876 
L 1380.617528 312.253726 
L 1381.369888 311.749162 
L 1382.122247 308.637148 
L 1384.379326 309.631956 
L 1385.131685 306.225637 
L 1387.388764 307.564387 
L 1390.398202 309.057196 
L 1393.40764 310.273097 
L 1396.417079 311.263457 
L 1397.169438 308.678155 
L 1397.921798 301.026691 
L 1398.674157 301.253681 
L 1400.931236 303.301558 
L 1401.683596 298.193473 
L 1402.435955 294.292568 
L 1404.693034 297.333274 
L 1406.950112 299.940297 
L 1409.207191 302.175494 
L 1411.46427 304.091896 
L 1412.968989 305.21512 
L 1413.721348 305.002786 
L 1415.978427 306.515946 
L 1418.235506 307.813291 
L 1418.987865 308.203233 
L 1419.740225 308.251453 
L 1420.492584 306.318472 
L 1422.749663 307.643982 
L 1424.254382 308.420877 
L 1425.006742 308.297877 
L 1425.759101 308.357103 
L 1426.511461 308.719855 
L 1427.26382 308.40443 
L 1428.01618 303.38217 
L 1428.768539 302.574175 
L 1431.025618 304.433714 
L 1433.282697 306.028038 
L 1435.539775 307.39497 
L 1436.292135 307.805829 
L 1437.044494 304.426647 
L 1439.301573 306.021979 
L 1441.558652 307.389776 
L 1444.56809 308.914973 
L 1446.825169 309.870156 
L 1447.577528 308.751722 
L 1450.586966 310.024287 
L 1453.596404 311.060799 
L 1455.853483 311.709934 
L 1456.605843 311.809778 
L 1457.358202 309.962794 
L 1458.110562 309.158132 
L 1458.862921 308.103274 
L 1459.615281 308.478717 
L 1460.36764 307.279747 
L 1460.36764 307.279747 
" clip-path="url(#p579df5ee1e)" style="fill: none; stroke: #ff0000; stroke-width: 5; stroke-linecap: square"/>
   </g>
   <g id="line2d_49">
    <path d="M 1160.928539 313.652086 
L 1166.195056 314.243361 
L 1172.966292 314.749467 
L 1181.242247 315.121451 
L 1192.52764 315.384808 
L 1194.784719 315.417231 
L 1195.537079 310.680429 
L 1196.289438 310.927015 
L 1197.794157 305.793467 
L 1199.298876 306.750788 
L 1200.051236 305.092892 
L 1201.555955 306.118519 
L 1202.308315 305.228655 
L 1203.060674 303.493339 
L 1203.813034 297.329212 
L 1206.070112 299.936815 
L 1208.327191 302.172507 
L 1210.58427 304.089335 
L 1212.841348 305.732776 
L 1215.098427 307.14182 
L 1218.107865 308.713012 
L 1221.117303 309.992758 
L 1224.126742 311.035118 
L 1227.888539 312.070528 
L 1229.393258 312.415835 
L 1230.145618 308.031509 
L 1233.155056 309.437668 
L 1236.164494 310.582994 
L 1239.173933 311.515869 
L 1242.93573 312.442524 
L 1247.449888 313.282181 
L 1251.964045 313.899405 
L 1257.982921 314.475876 
L 1264.754157 314.89601 
L 1273.782472 315.225171 
L 1286.572584 315.45034 
L 1308.391011 315.575583 
L 1324.190562 315.599689 
L 1324.942921 313.039853 
L 1329.457079 313.721273 
L 1334.723596 314.291676 
L 1335.475955 314.3577 
L 1336.228315 312.290614 
L 1339.990112 313.042007 
L 1344.50427 313.722856 
L 1349.018427 314.223342 
L 1349.770787 311.523654 
L 1350.523146 311.728079 
L 1351.275506 311.002469 
L 1352.027865 305.205267 
L 1352.780225 305.725611 
L 1353.532584 302.106137 
L 1355.789663 304.032431 
L 1358.046742 305.683988 
L 1360.30382 307.099991 
L 1363.313258 308.678942 
L 1366.322697 309.965007 
L 1368.579775 310.770429 
L 1369.332135 310.814638 
L 1370.084494 306.698801 
L 1370.836854 305.201964 
L 1371.589213 302.856098 
L 1372.341573 302.793238 
L 1374.598652 304.621534 
L 1376.85573 306.18907 
L 1379.112809 307.533035 
L 1382.122247 309.031659 
L 1385.131685 310.252297 
L 1388.141124 311.246515 
L 1391.902921 312.234102 
L 1395.664719 312.998279 
L 1400.178876 313.690711 
L 1405.445393 314.270334 
L 1412.216629 314.766467 
L 1417.483146 315.021575 
L 1418.235506 310.671865 
L 1418.987865 303.594887 
L 1421.244944 305.308848 
L 1423.502022 306.778355 
L 1426.511461 308.416967 
L 1429.520899 309.751626 
L 1432.530337 310.838715 
L 1433.282697 309.795734 
L 1436.292135 310.874641 
L 1440.053933 311.946353 
L 1442.311011 312.469186 
L 1443.063371 312.42998 
L 1443.81573 310.37606 
L 1444.56809 309.444232 
L 1447.577528 310.58834 
L 1450.586966 311.520223 
L 1454.348764 312.445893 
L 1458.862921 313.284657 
L 1460.36764 313.511587 
L 1460.36764 313.511587 
" clip-path="url(#p579df5ee1e)" style="fill: none; stroke: #0000ff; stroke-width: 5; stroke-linecap: square"/>
   </g>
   <g id="patch_15">
    <path d="M 1160.17618 336.640156 
L 1160.17618 31.720156 
" style="fill: none; stroke: #000000; stroke-width: 5; stroke-linejoin: miter; stroke-linecap: square"/>
   </g>
   <g id="patch_16">
    <path d="M 1160.17618 336.640156 
L 1461.12 336.640156 
" style="fill: none; stroke: #000000; stroke-width: 5; stroke-linejoin: miter; stroke-linecap: square"/>
   </g>
   <g id="patch_17">
    <path d="M 1235.412135 330.541756 
L 1310.64809 330.541756 
L 1310.64809 319.869556 
L 1235.412135 319.869556 
z
" style="fill: #8c5a2b; stroke: #8c5a2b; stroke-linejoin: miter"/>
   </g>
   <g id="text_37">
    <!-- Novel | Expert -->
    <g transform="translate(1243.250043 21.720156) scale(0.19 -0.19)">
     <use xlink:href="#DejaVuSans-4e"/>
     <use xlink:href="#DejaVuSans-6f" transform="translate(74.804688 0)"/>
     <use xlink:href="#DejaVuSans-76" transform="translate(135.986328 0)"/>
     <use xlink:href="#DejaVuSans-65" transform="translate(195.166016 0)"/>
     <use xlink:href="#DejaVuSans-6c" transform="translate(256.689453 0)"/>
     <use xlink:href="#DejaVuSans-20" transform="translate(284.472656 0)"/>
     <use xlink:href="#DejaVuSans-7c" transform="translate(316.259766 0)"/>
     <use xlink:href="#DejaVuSans-20" transform="translate(349.951172 0)"/>
     <use xlink:href="#DejaVuSans-45" transform="translate(381.738281 0)"/>
     <use xlink:href="#DejaVuSans-78" transform="translate(444.921875 0)"/>
     <use xlink:href="#DejaVuSans-70" transform="translate(504.101562 0)"/>
     <use xlink:href="#DejaVuSans-65" transform="translate(567.578125 0)"/>
     <use xlink:href="#DejaVuSans-72" transform="translate(629.101562 0)"/>
     <use xlink:href="#DejaVuSans-74" transform="translate(670.214844 0)"/>
    </g>
   </g>
  </g>
 </g>
 <defs>
  <clipPath id="p3665a98a35">
   <rect x="121.92" y="31.720156" width="300.94382" height="304.92"/>
  </clipPath>
  <clipPath id="p3a6b288572">
   <rect x="468.005393" y="31.720156" width="300.94382" height="304.92"/>
  </clipPath>
  <clipPath id="p7ee4328468">
   <rect x="814.090787" y="31.720156" width="300.94382" height="304.92"/>
  </clipPath>
  <clipPath id="p579df5ee1e">
   <rect x="1160.17618" y="31.720156" width="300.94382" height="304.92"/>
  </clipPath>
 </defs>
</svg>
