<?xml version="1.0" encoding="utf-8" standalone="no"?>
<!DOCTYPE svg PUBLIC "-//W3C//DTD SVG 1.1//EN"
  "http://www.w3.org/Graphics/SVG/1.1/DTD/svg11.dtd">
<svg xmlns:xlink="http://www.w3.org/1999/xlink" width="872.39952pt" height="404.39952pt" viewBox="0 0 872.39952 404.39952" xmlns="http://www.w3.org/2000/svg" version="1.1">
 <metadata>
  <rdf:RDF xmlns:dc="http://purl.org/dc/elements/1.1/" xmlns:cc="http://creativecommons.org/ns#" xmlns:rdf="http://www.w3.org/1999/02/22-rdf-syntax-ns#">
   <cc:Work>
    <dc:type rdf:resource="http://purl.org/dc/dcmitype/StillImage"/>
    <dc:date>2026-03-25T17:17:55.663459</dc:date>
    <dc:format>image/svg+xml</dc:format>
    <dc:creator>
     <cc:Agent>
      <dc:title>Matplotlib v3.10.7, https://matplotlib.org/</dc:title>
     </cc:Agent>
    </dc:creator>
   </cc:Work>
  </rdf:RDF>
 </metadata>
 <defs>
  <style type="text/css">*{stroke-linejoin: round; stroke-linecap: butt}</style>
 </defs>
 <g id="figure_1">
  <g id="patch_1">
   <path d="M 0 404.39952 
L 872.39952 404.39952 
L 872.39952 0 
L 0 0 
z
" style="fill: #ffffff"/>
  </g>
  <g id="axes_1">
   <g id="patch_2">
    <path d="M 101.56 322.75952 
L 460.90351 322.75952 
L 460.90351 31.720156 
L 101.56 31.720156 
z
" style="fill: #ffffff"/>
   </g>
   <g id="matplotlib.axis_1">
    <g id="xtick_1">
     <g id="line2d_1">
      <defs>
       <path id="m41d50bb1c3" d="M 0 0 
L 0 5 
" style="stroke: #000000; stroke-width: 1.6"/>
      </defs>
      <g>
       <use xlink:href="#m41d50bb1c3" x="101.56" y="322.75952" style="stroke: #000000; stroke-width: 1.6"/>
      </g>
     </g>
     <g id="text_1">
      <!-- -1 -->
      <g transform="translate(85.6075 355.57452) scale(0.32 -0.32)">
       <defs>
        <path id="DejaVuSans-2d" d="M 313 2009 
L 1997 2009 
L 1997 1497 
L 313 1497 
L 313 2009 
z
" transform="scale(0.015625)"/>
        <path id="DejaVuSans-31" d="M 794 531 
L 1825 531 
L 1825 4091 
L 703 3866 
L 703 4441 
L 1819 4666 
L 2450 4666 
L 2450 531 
L 3481 531 
L 3481 0 
L 794 0 
L 794 531 
z
" transform="scale(0.015625)"/>
       </defs>
       <use xlink:href="#DejaVuSans-2d"/>
       <use xlink:href="#DejaVuSans-31" transform="translate(36.083984 0)"/>
      </g>
     </g>
    </g>
    <g id="xtick_2">
     <g id="line2d_2">
      <g>
       <use xlink:href="#m41d50bb1c3" x="191.395877" y="322.75952" style="stroke: #000000; stroke-width: 1.6"/>
      </g>
     </g>
     <g id="text_2">
      <!-- 0 -->
      <g transform="translate(181.215877 355.57452) scale(0.32 -0.32)">
       <defs>
        <path id="DejaVuSans-30" d="M 2034 4250 
Q 1547 4250 1301 3770 
Q 1056 3291 1056 2328 
Q 1056 1369 1301 889 
Q 1547 409 2034 409 
Q 2525 409 2770 889 
Q 3016 1369 3016 2328 
Q 3016 3291 2770 3770 
Q 2525 4250 2034 4250 
z
M 2034 4750 
Q 2819 4750 3233 4129 
Q 3647 3509 3647 2328 
Q 3647 1150 3233 529 
Q 2819 -91 2034 -91 
Q 1250 -91 836 529 
Q 422 1150 422 2328 
Q 422 3509 836 4129 
Q 1250 4750 2034 4750 
z
" transform="scale(0.015625)"/>
       </defs>
       <use xlink:href="#DejaVuSans-30"/>
      </g>
     </g>
    </g>
    <g id="xtick_3">
     <g id="line2d_3">
      <g>
       <use xlink:href="#m41d50bb1c3" x="281.231755" y="322.75952" style="stroke: #000000; stroke-width: 1.6"/>
      </g>
     </g>
     <g id="text_3">
      <!-- 1 -->
      <g transform="translate(271.051755 355.57452) scale(0.32 -0.32)">
       <use xlink:href="#DejaVuSans-31"/>
      </g>
     </g>
    </g>
    <g id="xtick_4">
     <g id="line2d_4">
      <g>
       <use xlink:href="#m41d50bb1c3" x="371.067632" y="322.75952" style="stroke: #000000; stroke-width: 1.6"/>
      </g>
     </g>
     <g id="text_4">
      <!-- 2 -->
      <g transform="translate(360.887632 355.57452) scale(0.32 -0.32)">
       <defs>
        <path id="DejaVuSans-32" d="M 1228 531 
L 3431 531 
L 3431 0 
L 469 0 
L 469 531 
Q 828 903 1448 1529 
Q 2069 2156 2228 2338 
Q 2531 2678 2651 2914 
Q 2772 3150 2772 3378 
Q 2772 3750 2511 3984 
Q 2250 4219 1831 4219 
Q 1534 4219 1204 4116 
Q 875 4013 500 3803 
L 500 4441 
Q 881 4594 1212 4672 
Q 1544 4750 1819 4750 
Q 2544 4750 2975 4387 
Q 3406 4025 3406 3419 
Q 3406 3131 3298 2873 
Q 3191 2616 2906 2266 
Q 2828 2175 2409 1742 
Q 1991 1309 1228 531 
z
" transform="scale(0.015625)"/>
       </defs>
       <use xlink:href="#DejaVuSans-32"/>
      </g>
     </g>
    </g>
    <g id="xtick_5">
     <g id="line2d_5">
      <g>
       <use xlink:href="#m41d50bb1c3" x="460.90351" y="322.75952" style="stroke: #000000; stroke-width: 1.6"/>
      </g>
     </g>
     <g id="text_5">
      <!-- 3 -->
      <g transform="translate(450.72351 355.57452) scale(0.32 -0.32)">
       <defs>
        <path id="DejaVuSans-33" d="M 2597 2516 
Q 3050 2419 3304 2112 
Q 3559 1806 3559 1356 
Q 3559 666 3084 287 
Q 2609 -91 1734 -91 
Q 1441 -91 1130 -33 
Q 819 25 488 141 
L 488 750 
Q 750 597 1062 519 
Q 1375 441 1716 441 
Q 2309 441 2620 675 
Q 2931 909 2931 1356 
Q 2931 1769 2642 2001 
Q 2353 2234 1838 2234 
L 1294 2234 
L 1294 2753 
L 1863 2753 
Q 2328 2753 2575 2939 
Q 2822 3125 2822 3475 
Q 2822 3834 2567 4026 
Q 2313 4219 1838 4219 
Q 1578 4219 1281 4162 
Q 984 4106 628 3988 
L 628 4550 
Q 988 4650 1302 4700 
Q 1616 4750 1894 4750 
Q 2613 4750 3031 4423 
Q 3450 4097 3450 3541 
Q 3450 3153 3228 2886 
Q 3006 2619 2597 2516 
z
" transform="scale(0.015625)"/>
       </defs>
       <use xlink:href="#DejaVuSans-33"/>
      </g>
     </g>
    </g>
    <g id="text_6">
     <!-- Time (s) -->
     <g transform="translate(216.179255 390.54452) scale(0.32 -0.32)">
      <defs>
       <path id="DejaVuSans-54" d="M -19 4666 
L 3928 4666 
L 3928 4134 
L 2272 4134 
L 2272 0 
L 1638 0 
L 1638 4134 
L -19 4134 
L -19 4666 
z
" transform="scale(0.015625)"/>
       <path id="DejaVuSans-69" d="M 603 3500 
L 1178 3500 
L 1178 0 
L 603 0 
L 603 3500 
z
M 603 4863 
L 1178 4863 
L 1178 4134 
L 603 4134 
L 603 4863 
z
" transform="scale(0.015625)"/>
       <path id="DejaVuSans-6d" d="M 3328 2828 
Q 3544 3216 3844 3400 
Q 4144 3584 4550 3584 
Q 5097 3584 5394 3201 
Q 5691 2819 5691 2113 
L 5691 0 
L 5113 0 
L 5113 2094 
Q 5113 2597 4934 2840 
Q 4756 3084 4391 3084 
Q 3944 3084 3684 2787 
Q 3425 2491 3425 1978 
L 3425 0 
L 2847 0 
L 2847 2094 
Q 2847 2600 2669 2842 
Q 2491 3084 2119 3084 
Q 1678 3084 1418 2786 
Q 1159 2488 1159 1978 
L 1159 0 
L 581 0 
L 581 3500 
L 1159 3500 
L 1159 2956 
Q 1356 3278 1631 3431 
Q 1906 3584 2284 3584 
Q 2666 3584 2933 3390 
Q 3200 3197 3328 2828 
z
" transform="scale(0.015625)"/>
       <path id="DejaVuSans-65" d="M 3597 1894 
L 3597 1613 
L 953 1613 
Q 991 1019 1311 708 
Q 1631 397 2203 397 
Q 2534 397 2845 478 
Q 3156 559 3463 722 
L 3463 178 
Q 3153 47 2828 -22 
Q 2503 -91 2169 -91 
Q 1331 -91 842 396 
Q 353 884 353 1716 
Q 353 2575 817 3079 
Q 1281 3584 2069 3584 
Q 2775 3584 3186 3129 
Q 3597 2675 3597 1894 
z
M 3022 2063 
Q 3016 2534 2758 2815 
Q 2500 3097 2075 3097 
Q 1594 3097 1305 2825 
Q 1016 2553 972 2059 
L 3022 2063 
z
" transform="scale(0.015625)"/>
       <path id="DejaVuSans-20" transform="scale(0.015625)"/>
       <path id="DejaVuSans-28" d="M 1984 4856 
Q 1566 4138 1362 3434 
Q 1159 2731 1159 2009 
Q 1159 1288 1364 580 
Q 1569 -128 1984 -844 
L 1484 -844 
Q 1016 -109 783 600 
Q 550 1309 550 2009 
Q 550 2706 781 3412 
Q 1013 4119 1484 4856 
L 1984 4856 
z
" transform="scale(0.015625)"/>
       <path id="DejaVuSans-73" d="M 2834 3397 
L 2834 2853 
Q 2591 2978 2328 3040 
Q 2066 3103 1784 3103 
Q 1356 3103 1142 2972 
Q 928 2841 928 2578 
Q 928 2378 1081 2264 
Q 1234 2150 1697 2047 
L 1894 2003 
Q 2506 1872 2764 1633 
Q 3022 1394 3022 966 
Q 3022 478 2636 193 
Q 2250 -91 1575 -91 
Q 1294 -91 989 -36 
Q 684 19 347 128 
L 347 722 
Q 666 556 975 473 
Q 1284 391 1588 391 
Q 1994 391 2212 530 
Q 2431 669 2431 922 
Q 2431 1156 2273 1281 
Q 2116 1406 1581 1522 
L 1381 1569 
Q 847 1681 609 1914 
Q 372 2147 372 2553 
Q 372 3047 722 3315 
Q 1072 3584 1716 3584 
Q 2034 3584 2315 3537 
Q 2597 3491 2834 3397 
z
" transform="scale(0.015625)"/>
       <path id="DejaVuSans-29" d="M 513 4856 
L 1013 4856 
Q 1481 4119 1714 3412 
Q 1947 2706 1947 2009 
Q 1947 1309 1714 600 
Q 1481 -109 1013 -844 
L 513 -844 
Q 928 -128 1133 580 
Q 1338 1288 1338 2009 
Q 1338 2731 1133 3434 
Q 928 4138 513 4856 
z
" transform="scale(0.015625)"/>
      </defs>
      <use xlink:href="#DejaVuSans-54"/>
      <use xlink:href="#DejaVuSans-69" transform="translate(57.958984 0)"/>
      <use xlink:href="#DejaVuSans-6d" transform="translate(85.742188 0)"/>
      <use xlink:href="#DejaVuSans-65" transform="translate(183.154297 0)"/>
      <use xlink:href="#DejaVuSans-20" transform="translate(244.677734 0)"/>
      <use xlink:href="#DejaVuSans-28" transform="translate(276.464844 0)"/>
      <use xlink:href="#DejaVuSans-73" transform="translate(315.478516 0)"/>
      <use xlink:href="#DejaVuSans-29" transform="translate(367.578125 0)"/>
     </g>
    </g>
   </g>
   <g id="matplotlib.axis_2">
    <g id="ytick_1">
     <g id="line2d_6">
      <defs>
       <path id="m0e4b6c3665" d="M 0 0 
L -5 0 
" style="stroke: #000000; stroke-width: 1.6"/>
      </defs>
      <g>
       <use xlink:href="#m0e4b6c3665" x="101.56" y="302.706543" style="stroke: #000000; stroke-width: 1.6"/>
      </g>
     </g>
     <g id="text_7">
      <!-- 0.0 -->
      <g transform="translate(42.17 314.864043) scale(0.32 -0.32)">
       <defs>
        <path id="DejaVuSans-2e" d="M 684 794 
L 1344 794 
L 1344 0 
L 684 0 
L 684 794 
z
" transform="scale(0.015625)"/>
       </defs>
       <use xlink:href="#DejaVuSans-30"/>
       <use xlink:href="#DejaVuSans-2e" transform="translate(63.623047 0)"/>
       <use xlink:href="#DejaVuSans-30" transform="translate(95.410156 0)"/>
      </g>
     </g>
    </g>
    <g id="ytick_2">
     <g id="line2d_7">
      <g>
       <use xlink:href="#m0e4b6c3665" x="101.56" y="168.170265" style="stroke: #000000; stroke-width: 1.6"/>
      </g>
     </g>
     <g id="text_8">
      <!-- 0.1 -->
      <g transform="translate(42.17 180.327765) scale(0.32 -0.32)">
       <use xlink:href="#DejaVuSans-30"/>
       <use xlink:href="#DejaVuSans-2e" transform="translate(63.623047 0)"/>
       <use xlink:href="#DejaVuSans-31" transform="translate(95.410156 0)"/>
      </g>
     </g>
    </g>
    <g id="ytick_3">
     <g id="line2d_8">
      <g>
       <use xlink:href="#m0e4b6c3665" x="101.56" y="33.633987" style="stroke: #000000; stroke-width: 1.6"/>
      </g>
     </g>
     <g id="text_9">
      <!-- 0.2 -->
      <g transform="translate(42.17 45.791487) scale(0.32 -0.32)">
       <use xlink:href="#DejaVuSans-30"/>
       <use xlink:href="#DejaVuSans-2e" transform="translate(63.623047 0)"/>
       <use xlink:href="#DejaVuSans-32" transform="translate(95.410156 0)"/>
      </g>
     </g>
    </g>
    <g id="text_10">
     <!-- Neural Activity -->
     <g transform="translate(31.515 294.944838) rotate(-90) scale(0.32 -0.32)">
      <defs>
       <path id="DejaVuSans-4e" d="M 628 4666 
L 1478 4666 
L 3547 763 
L 3547 4666 
L 4159 4666 
L 4159 0 
L 3309 0 
L 1241 3903 
L 1241 0 
L 628 0 
L 628 4666 
z
" transform="scale(0.015625)"/>
       <path id="DejaVuSans-75" d="M 544 1381 
L 544 3500 
L 1119 3500 
L 1119 1403 
Q 1119 906 1312 657 
Q 1506 409 1894 409 
Q 2359 409 2629 706 
Q 2900 1003 2900 1516 
L 2900 3500 
L 3475 3500 
L 3475 0 
L 2900 0 
L 2900 538 
Q 2691 219 2414 64 
Q 2138 -91 1772 -91 
Q 1169 -91 856 284 
Q 544 659 544 1381 
z
M 1991 3584 
L 1991 3584 
z
" transform="scale(0.015625)"/>
       <path id="DejaVuSans-72" d="M 2631 2963 
Q 2534 3019 2420 3045 
Q 2306 3072 2169 3072 
Q 1681 3072 1420 2755 
Q 1159 2438 1159 1844 
L 1159 0 
L 581 0 
L 581 3500 
L 1159 3500 
L 1159 2956 
Q 1341 3275 1631 3429 
Q 1922 3584 2338 3584 
Q 2397 3584 2469 3576 
Q 2541 3569 2628 3553 
L 2631 2963 
z
" transform="scale(0.015625)"/>
       <path id="DejaVuSans-61" d="M 2194 1759 
Q 1497 1759 1228 1600 
Q 959 1441 959 1056 
Q 959 750 1161 570 
Q 1363 391 1709 391 
Q 2188 391 2477 730 
Q 2766 1069 2766 1631 
L 2766 1759 
L 2194 1759 
z
M 3341 1997 
L 3341 0 
L 2766 0 
L 2766 531 
Q 2569 213 2275 61 
Q 1981 -91 1556 -91 
Q 1019 -91 701 211 
Q 384 513 384 1019 
Q 384 1609 779 1909 
Q 1175 2209 1959 2209 
L 2766 2209 
L 2766 2266 
Q 2766 2663 2505 2880 
Q 2244 3097 1772 3097 
Q 1472 3097 1187 3025 
Q 903 2953 641 2809 
L 641 3341 
Q 956 3463 1253 3523 
Q 1550 3584 1831 3584 
Q 2591 3584 2966 3190 
Q 3341 2797 3341 1997 
z
" transform="scale(0.015625)"/>
       <path id="DejaVuSans-6c" d="M 603 4863 
L 1178 4863 
L 1178 0 
L 603 0 
L 603 4863 
z
" transform="scale(0.015625)"/>
       <path id="DejaVuSans-41" d="M 2188 4044 
L 1331 1722 
L 3047 1722 
L 2188 4044 
z
M 1831 4666 
L 2547 4666 
L 4325 0 
L 3669 0 
L 3244 1197 
L 1141 1197 
L 716 0 
L 50 0 
L 1831 4666 
z
" transform="scale(0.015625)"/>
       <path id="DejaVuSans-63" d="M 3122 3366 
L 3122 2828 
Q 2878 2963 2633 3030 
Q 2388 3097 2138 3097 
Q 1578 3097 1268 2742 
Q 959 2388 959 1747 
Q 959 1106 1268 751 
Q 1578 397 2138 397 
Q 2388 397 2633 464 
Q 2878 531 3122 666 
L 3122 134 
Q 2881 22 2623 -34 
Q 2366 -91 2075 -91 
Q 1284 -91 818 406 
Q 353 903 353 1747 
Q 353 2603 823 3093 
Q 1294 3584 2113 3584 
Q 2378 3584 2631 3529 
Q 2884 3475 3122 3366 
z
" transform="scale(0.015625)"/>
       <path id="DejaVuSans-74" d="M 1172 4494 
L 1172 3500 
L 2356 3500 
L 2356 3053 
L 1172 3053 
L 1172 1153 
Q 1172 725 1289 603 
Q 1406 481 1766 481 
L 2356 481 
L 2356 0 
L 1766 0 
Q 1100 0 847 248 
Q 594 497 594 1153 
L 594 3053 
L 172 3053 
L 172 3500 
L 594 3500 
L 594 4494 
L 1172 4494 
z
" transform="scale(0.015625)"/>
       <path id="DejaVuSans-76" d="M 191 3500 
L 800 3500 
L 1894 563 
L 2988 3500 
L 3597 3500 
L 2284 0 
L 1503 0 
L 191 3500 
z
" transform="scale(0.015625)"/>
       <path id="DejaVuSans-79" d="M 2059 -325 
Q 1816 -950 1584 -1140 
Q 1353 -1331 966 -1331 
L 506 -1331 
L 506 -850 
L 844 -850 
Q 1081 -850 1212 -737 
Q 1344 -625 1503 -206 
L 1606 56 
L 191 3500 
L 800 3500 
L 1894 763 
L 2988 3500 
L 3597 3500 
L 2059 -325 
z
" transform="scale(0.015625)"/>
      </defs>
      <use xlink:href="#DejaVuSans-4e"/>
      <use xlink:href="#DejaVuSans-65" transform="translate(74.804688 0)"/>
      <use xlink:href="#DejaVuSans-75" transform="translate(136.328125 0)"/>
      <use xlink:href="#DejaVuSans-72" transform="translate(199.707031 0)"/>
      <use xlink:href="#DejaVuSans-61" transform="translate(240.820312 0)"/>
      <use xlink:href="#DejaVuSans-6c" transform="translate(302.099609 0)"/>
      <use xlink:href="#DejaVuSans-20" transform="translate(329.882812 0)"/>
      <use xlink:href="#DejaVuSans-41" transform="translate(361.669922 0)"/>
      <use xlink:href="#DejaVuSans-63" transform="translate(428.328125 0)"/>
      <use xlink:href="#DejaVuSans-74" transform="translate(483.308594 0)"/>
      <use xlink:href="#DejaVuSans-69" transform="translate(522.517578 0)"/>
      <use xlink:href="#DejaVuSans-76" transform="translate(550.300781 0)"/>
      <use xlink:href="#DejaVuSans-69" transform="translate(609.480469 0)"/>
      <use xlink:href="#DejaVuSans-74" transform="translate(637.263672 0)"/>
      <use xlink:href="#DejaVuSans-79" transform="translate(676.472656 0)"/>
     </g>
    </g>
   </g>
   <g id="line2d_9">
    <path d="M 102.458359 296.743169 
L 106.051794 297.849338 
L 109.645229 298.750319 
L 111.441947 299.136051 
L 112.340305 297.485542 
L 113.238664 297.450484 
L 115.035382 297.96295 
L 115.93374 294.097103 
L 118.628817 295.325025 
L 122.222252 296.69425 
L 123.120611 296.994865 
L 124.018969 295.766853 
L 124.917328 296.113837 
L 125.815687 295.531002 
L 129.409122 296.86202 
L 133.002557 297.946143 
L 137.494351 299.023036 
L 140.189427 299.548396 
L 141.087786 296.666404 
L 144.681221 297.786812 
L 146.477939 298.266486 
L 147.376298 296.271476 
L 148.274656 296.290462 
L 151.868091 297.480605 
L 152.76645 297.741902 
L 153.664809 296.769534 
L 157.258244 297.870812 
L 161.750038 298.964747 
L 166.241832 299.811212 
L 171.631984 300.578209 
L 173.428702 300.785721 
L 174.327061 299.351616 
L 176.123778 299.678721 
L 177.022137 298.795878 
L 179.717213 299.353637 
L 180.615572 298.294142 
L 181.513931 298.514762 
L 182.41229 290.131556 
L 183.310649 288.032786 
L 184.209007 288.766475 
L 185.107366 288.834432 
L 187.802442 290.812943 
L 190.497519 292.509269 
L 193.192595 293.963656 
L 195.887671 295.21061 
L 199.481106 296.601059 
L 203.074542 297.733588 
L 206.667977 298.656041 
L 211.159771 299.572342 
L 216.549923 300.402617 
L 222.838435 301.097626 
L 230.025305 301.639155 
L 239.008893 302.067458 
L 250.687557 302.378474 
L 267.756373 302.582745 
L 290.215343 302.672203 
L 291.113702 302.460388 
L 294.707137 302.506049 
L 295.605495 295.81193 
L 296.503854 292.09815 
L 298.300572 293.132468 
L 299.19893 289.756554 
L 300.995648 291.019179 
L 301.894007 289.113191 
L 302.792366 289.792859 
L 303.690724 287.982802 
L 304.589083 288.718989 
L 305.487442 288.948941 
L 306.385801 287.518518 
L 307.284159 287.468152 
L 309.979236 289.641528 
L 310.877595 290.294779 
L 311.775953 288.811326 
L 314.47103 290.793132 
L 315.369388 291.388803 
L 316.267747 290.247748 
L 318.962824 292.024685 
L 321.6579 293.548185 
L 324.352976 294.854396 
L 327.946411 296.310921 
L 331.539846 297.497269 
L 335.133281 298.463557 
L 339.625075 299.423402 
L 340.523434 299.587559 
L 341.421793 296.253584 
L 343.21851 296.882748 
L 345.015228 287.195707 
L 347.710304 289.40794 
L 350.405381 291.304653 
L 353.100457 292.930848 
L 353.998816 290.008811 
L 356.693892 291.819826 
L 357.592251 291.021427 
L 360.287327 292.688016 
L 362.982404 294.116909 
L 365.67748 295.342006 
L 369.270915 296.708083 
L 372.86435 297.82076 
L 373.762709 296.466446 
L 374.661068 296.778451 
L 375.559426 295.807872 
L 379.152861 297.087533 
L 382.746297 298.129824 
L 387.23809 299.165166 
L 391.729884 299.966293 
L 392.628243 299.918054 
L 393.526602 300.057479 
L 394.424961 299.325995 
L 397.120037 299.808146 
L 398.018396 298.605313 
L 398.916755 295.381342 
L 402.51019 296.740121 
L 405.205266 297.591083 
L 406.103625 296.200488 
L 409.69706 297.407321 
L 410.595419 291.656167 
L 411.493777 287.224297 
L 414.188854 289.432453 
L 416.88393 291.325671 
L 419.579006 292.948868 
L 421.375724 293.900242 
L 428.562594 296.819312 
L 432.156029 297.911356 
L 436.647823 298.996119 
L 441.139617 299.835487 
L 442.037976 299.97904 
L 442.936334 295.421184 
L 444.733052 296.131506 
L 445.631411 292.402483 
L 446.52977 286.577857 
L 449.224846 288.878211 
L 451.919922 290.850478 
L 452.818281 288.814995 
L 453.71664 282.876833 
L 454.614999 279.790185 
L 455.513357 272.871596 
L 457.310075 275.780503 
L 460.005151 279.620831 
L 460.005151 279.620831 
" clip-path="url(#p7b74e65683)" style="fill: none; stroke: #000000; stroke-width: 5; stroke-linecap: square"/>
   </g>
   <g id="line2d_10">
    <path d="M 102.458359 283.805664 
L 103.356718 271.033068 
L 104.255076 269.786308 
L 105.153435 267.711816 
L 106.051794 267.64156 
L 107.848511 271.060395 
L 109.645229 274.145896 
L 110.543588 268.217228 
L 111.441947 264.297281 
L 113.238664 268.042186 
L 115.035382 271.421961 
L 116.832099 274.472208 
L 118.628817 277.225056 
L 121.323893 280.859354 
L 123.120611 282.989456 
L 124.917328 283.798889 
L 127.612404 286.495594 
L 128.510763 287.306142 
L 129.409122 287.678167 
L 132.104198 289.821589 
L 133.002557 290.140258 
L 133.900916 284.693031 
L 134.799275 285.593708 
L 135.697633 277.06099 
L 138.39271 280.718688 
L 140.189427 282.862504 
L 141.087786 283.297352 
L 141.986145 284.267812 
L 142.884504 284.997389 
L 145.57958 287.523159 
L 148.274656 289.688689 
L 150.969733 291.54536 
L 153.664809 293.137224 
L 155.461527 294.070232 
L 157.258244 292.37536 
L 158.156603 289.381137 
L 159.054962 290.047407 
L 159.95332 289.615633 
L 160.851679 286.848963 
L 161.750038 285.436182 
L 164.445114 287.899368 
L 165.343473 286.744717 
L 166.241832 287.313862 
L 168.936908 289.509244 
L 171.631984 291.391509 
L 172.530343 288.53153 
L 174.327061 289.913594 
L 175.22542 287.136184 
L 177.920496 289.356907 
L 180.615572 291.260899 
L 181.513931 283.046924 
L 182.41229 278.110891 
L 185.107366 281.618845 
L 187.802442 284.626479 
L 190.497519 287.205148 
L 192.294236 218.661219 
L 193.192595 191.864806 
L 194.090954 180.23509 
L 194.989313 172.506149 
L 195.887671 175.513731 
L 196.78603 174.354786 
L 198.582748 178.543655 
L 199.481106 168.279592 
L 200.379465 169.89622 
L 201.277824 169.286666 
L 203.074542 182.295107 
L 203.9729 186.596472 
L 204.871259 185.729379 
L 205.769618 169.734216 
L 206.667977 161.599154 
L 207.566335 154.679791 
L 208.464694 159.297685 
L 209.363053 157.277943 
L 210.261412 164.54937 
L 211.159771 166.183108 
L 212.058129 159.909594 
L 212.956488 160.175694 
L 213.854847 161.437692 
L 214.753206 167.71305 
L 215.651564 165.718347 
L 216.549923 156.680077 
L 217.448282 160.902224 
L 218.346641 163.429328 
L 219.245 159.291711 
L 220.143358 159.764881 
L 221.041717 166.911964 
L 221.940076 167.029011 
L 222.838435 163.831841 
L 223.736793 169.595678 
L 224.635152 173.09773 
L 225.533511 173.71859 
L 226.43187 177.45207 
L 227.330228 174.283037 
L 228.228587 175.193532 
L 229.126946 170.047217 
L 230.025305 155.543486 
L 230.923664 151.585955 
L 232.720381 160.33895 
L 234.517099 174.219797 
L 235.415457 176.287282 
L 236.313816 170.226682 
L 237.212175 173.851274 
L 239.008893 163.999427 
L 240.80561 177.523379 
L 241.703969 183.782539 
L 242.602328 182.683898 
L 243.500686 177.983609 
L 244.399045 184.219754 
L 245.297404 175.345332 
L 246.195763 173.823378 
L 247.99248 178.27563 
L 248.890839 174.322911 
L 249.789198 176.441808 
L 250.687557 175.267718 
L 251.585915 172.289777 
L 252.484274 173.240478 
L 253.382633 165.027261 
L 254.280992 162.822922 
L 255.179351 157.570916 
L 256.077709 152.989709 
L 256.976068 155.854011 
L 257.874427 161.194296 
L 259.671144 160.739188 
L 260.569503 157.327129 
L 261.467862 158.612081 
L 262.366221 160.257748 
L 263.26458 155.512773 
L 264.162938 152.518964 
L 265.061297 153.642675 
L 265.959656 153.761627 
L 266.858015 161.20887 
L 267.756373 164.934231 
L 268.654732 170.678101 
L 269.553091 171.566144 
L 270.45145 170.38649 
L 271.349808 176.562363 
L 272.248167 175.296075 
L 273.146526 161.865415 
L 274.044885 157.120951 
L 274.943244 153.055635 
L 275.841602 151.811389 
L 276.739961 151.162402 
L 277.63832 154.076933 
L 279.435037 168.568326 
L 281.231755 181.646802 
L 283.028473 193.45013 
L 284.82519 204.102632 
L 286.621908 213.716516 
L 288.418625 222.39305 
L 290.215343 230.223616 
L 292.01206 237.290704 
L 293.808778 243.66875 
L 295.605495 249.424935 
L 297.402213 254.619895 
L 299.19893 259.308346 
L 300.995648 263.539673 
L 302.792366 267.358445 
L 304.589083 270.804885 
L 306.385801 273.915297 
L 308.182518 276.722446 
L 310.877595 280.428431 
L 313.572671 283.605847 
L 316.267747 286.330085 
L 318.962824 288.665776 
L 320.759541 290.034752 
L 321.6579 288.841961 
L 322.556259 287.25309 
L 325.251335 289.45714 
L 327.946411 291.346836 
L 330.641488 292.967015 
L 333.336564 294.356116 
L 336.929999 295.905069 
L 340.523434 297.1667 
L 344.116869 298.194307 
L 348.608663 299.215061 
L 351.303739 299.713033 
L 352.202098 298.663467 
L 356.693892 299.578088 
L 360.287327 300.158397 
L 361.185686 298.351374 
L 365.67748 299.336596 
L 366.575839 293.750334 
L 367.474197 293.561613 
L 370.169274 294.865909 
L 371.067632 295.257941 
L 371.965991 294.928623 
L 374.661068 296.037948 
L 376.457785 292.067614 
L 377.356144 285.85453 
L 378.254503 276.180776 
L 379.152861 275.632242 
L 381.847938 279.493715 
L 384.543014 282.804445 
L 387.23809 285.642982 
L 389.933167 288.076673 
L 392.628243 290.163258 
L 395.323319 291.952246 
L 398.018396 293.486078 
L 398.916755 293.947101 
L 399.815113 288.54113 
L 400.713472 289.249401 
L 401.611831 288.696952 
L 402.51019 287.871155 
L 405.205266 289.987054 
L 407.900342 291.80117 
L 408.798701 291.435144 
L 411.493777 293.042728 
L 412.392136 293.228285 
L 415.087212 294.580122 
L 418.680648 296.087523 
L 422.274083 297.31531 
L 425.867518 298.31535 
L 426.765877 298.53491 
L 427.664235 295.14539 
L 431.25767 296.547937 
L 434.851106 297.69032 
L 438.444541 298.620799 
L 439.342899 298.825086 
L 440.241258 296.261884 
L 441.139617 285.604145 
L 442.037976 286.459264 
L 442.936334 285.608133 
L 445.631411 288.046793 
L 448.326487 290.137642 
L 451.021563 291.930281 
L 451.919922 287.583543 
L 452.818281 288.339693 
L 453.71664 283.107565 
L 454.614999 283.260923 
L 455.513357 284.233204 
L 456.411716 282.31679 
L 459.106792 285.224878 
L 460.005151 286.098961 
L 460.005151 286.098961 
" clip-path="url(#p7b74e65683)" style="fill: none; stroke: #ff0000; stroke-width: 5; stroke-linecap: square"/>
   </g>
   <g id="line2d_11">
    <path d="M 102.458359 291.650205 
L 105.153435 293.227116 
L 107.848511 294.57912 
L 108.74687 294.985491 
L 109.645229 290.301756 
L 112.340305 292.07099 
L 115.035382 293.587887 
L 117.730458 294.888435 
L 121.323893 296.338645 
L 124.917328 297.51985 
L 125.815687 295.806951 
L 129.409122 297.086783 
L 133.002557 298.129213 
L 137.494351 299.164693 
L 138.39271 296.344557 
L 141.986145 297.524666 
L 142.884504 297.321121 
L 144.681221 297.8462 
L 145.57958 297.420479 
L 147.376298 292.47265 
L 150.071374 293.932259 
L 151.868091 288.611589 
L 152.76645 289.316337 
L 153.664809 286.472216 
L 156.359885 288.787639 
L 159.054962 290.772823 
L 159.95332 291.36951 
L 160.851679 288.413946 
L 163.546755 290.434165 
L 166.241832 292.184513 
L 167.140191 292.710615 
L 168.038549 292.108924 
L 170.733626 293.62041 
L 173.428702 294.91632 
L 174.327061 290.022285 
L 176.123778 291.259 
L 177.022137 290.526669 
L 177.920496 291.135663 
L 178.818855 289.836883 
L 179.717213 289.637856 
L 180.615572 289.868239 
L 183.310649 291.699303 
L 186.005725 293.269211 
L 188.700801 294.61521 
L 192.294236 296.116102 
L 195.887671 297.338588 
L 199.481106 298.33431 
L 203.9729 299.323393 
L 208.464694 300.088726 
L 213.854847 300.782207 
L 220.143358 301.362708 
L 228.228587 301.859592 
L 238.110534 302.224797 
L 251.585915 302.483354 
L 273.146526 302.641374 
L 283.926831 302.671328 
L 284.82519 301.336767 
L 285.723549 301.405256 
L 286.621908 299.553878 
L 287.520266 299.711511 
L 288.418625 298.846367 
L 289.316984 296.625927 
L 290.215343 296.277861 
L 293.808778 297.470342 
L 297.402213 298.441625 
L 298.300572 295.3434 
L 299.19893 294.453303 
L 300.097289 294.463081 
L 300.995648 294.875255 
L 301.894007 292.56618 
L 305.487442 294.43765 
L 308.182518 295.617001 
L 309.080877 294.060707 
L 309.979236 294.209718 
L 310.877595 291.784221 
L 313.572671 293.342018 
L 314.47103 291.334609 
L 315.369388 286.532546 
L 318.064465 288.839363 
L 320.759541 290.817169 
L 323.454617 292.512892 
L 325.251335 293.506773 
L 326.149694 290.805276 
L 327.048053 289.037623 
L 327.946411 282.913697 
L 329.743129 269.184431 
L 330.641488 268.02397 
L 332.438205 271.405522 
L 333.336564 270.951417 
L 335.133281 274.047543 
L 336.929999 276.841796 
L 339.625075 280.530756 
L 341.421793 282.692897 
L 345.015228 286.304284 
L 345.913587 284.130359 
L 348.608663 286.779788 
L 349.507022 285.674357 
L 351.303739 287.334996 
L 352.202098 287.78895 
L 353.998816 289.243415 
L 354.897175 288.925128 
L 357.592251 290.890702 
L 360.287327 292.575937 
L 361.185686 293.082468 
L 362.084045 292.266981 
L 362.982404 292.788959 
L 363.880762 291.034771 
L 366.575839 292.699458 
L 369.270915 294.126719 
L 371.965991 295.350417 
L 373.762709 292.562246 
L 376.457785 294.009076 
L 379.152861 295.249552 
L 382.746297 296.632778 
L 386.339732 297.759423 
L 389.933167 298.677083 
L 390.831526 298.878556 
L 391.729884 296.698089 
L 395.323319 297.812619 
L 398.018396 298.510615 
L 398.916755 294.122329 
L 399.815113 294.551539 
L 400.713472 292.398312 
L 401.611831 278.565533 
L 402.51019 279.424211 
L 405.205266 282.744853 
L 407.900342 285.59189 
L 410.595419 288.032867 
L 413.290495 290.125701 
L 415.985571 291.920043 
L 418.680648 293.458468 
L 419.579006 293.920871 
L 420.477365 292.446611 
L 423.172441 293.909934 
L 424.969159 294.767604 
L 425.867518 293.28422 
L 428.562594 294.628079 
L 429.460953 290.238821 
L 432.156029 292.01703 
L 434.851106 293.541623 
L 437.546182 294.84877 
L 441.139617 296.306339 
L 444.733052 297.493537 
L 448.326487 298.460517 
L 452.818281 299.421049 
L 453.71664 299.585324 
L 454.614999 297.519616 
L 457.310075 298.259401 
L 458.208434 297.455307 
L 460.005151 297.967303 
L 460.005151 297.967303 
" clip-path="url(#p7b74e65683)" style="fill: none; stroke: #0000ff; stroke-width: 5; stroke-linecap: square"/>
   </g>
   <g id="patch_3">
    <path d="M 101.56 322.75952 
L 101.56 31.720156 
" style="fill: none; stroke: #000000; stroke-width: 5; stroke-linejoin: miter; stroke-linecap: square"/>
   </g>
   <g id="patch_4">
    <path d="M 101.56 322.75952 
L 460.90351 322.75952 
" style="fill: none; stroke: #000000; stroke-width: 5; stroke-linejoin: miter; stroke-linecap: square"/>
   </g>
   <g id="patch_5">
    <path d="M 191.395877 316.938733 
L 281.231755 316.938733 
L 281.231755 306.752355 
L 191.395877 306.752355 
z
" style="fill: #8c5a2b; stroke: #8c5a2b; stroke-linejoin: miter"/>
   </g>
   <g id="text_11">
    <!-- Novel | Naive -->
    <g transform="translate(217.929099 21.720156) scale(0.19 -0.19)">
     <defs>
      <path id="DejaVuSans-6f" d="M 1959 3097 
Q 1497 3097 1228 2736 
Q 959 2375 959 1747 
Q 959 1119 1226 758 
Q 1494 397 1959 397 
Q 2419 397 2687 759 
Q 2956 1122 2956 1747 
Q 2956 2369 2687 2733 
Q 2419 3097 1959 3097 
z
M 1959 3584 
Q 2709 3584 3137 3096 
Q 3566 2609 3566 1747 
Q 3566 888 3137 398 
Q 2709 -91 1959 -91 
Q 1206 -91 779 398 
Q 353 888 353 1747 
Q 353 2609 779 3096 
Q 1206 3584 1959 3584 
z
" transform="scale(0.015625)"/>
      <path id="DejaVuSans-7c" d="M 1344 4891 
L 1344 -1509 
L 813 -1509 
L 813 4891 
L 1344 4891 
z
" transform="scale(0.015625)"/>
     </defs>
     <use xlink:href="#DejaVuSans-4e"/>
     <use xlink:href="#DejaVuSans-6f" transform="translate(74.804688 0)"/>
     <use xlink:href="#DejaVuSans-76" transform="translate(135.986328 0)"/>
     <use xlink:href="#DejaVuSans-65" transform="translate(195.166016 0)"/>
     <use xlink:href="#DejaVuSans-6c" transform="translate(256.689453 0)"/>
     <use xlink:href="#DejaVuSans-20" transform="translate(284.472656 0)"/>
     <use xlink:href="#DejaVuSans-7c" transform="translate(316.259766 0)"/>
     <use xlink:href="#DejaVuSans-20" transform="translate(349.951172 0)"/>
     <use xlink:href="#DejaVuSans-4e" transform="translate(381.738281 0)"/>
     <use xlink:href="#DejaVuSans-61" transform="translate(456.542969 0)"/>
     <use xlink:href="#DejaVuSans-69" transform="translate(517.822266 0)"/>
     <use xlink:href="#DejaVuSans-76" transform="translate(545.605469 0)"/>
     <use xlink:href="#DejaVuSans-65" transform="translate(604.785156 0)"/>
    </g>
   </g>
   <g id="legend_1">
    <g id="line2d_12">
     <path d="M 110.56 46.867812 
L 125.56 46.867812 
L 140.56 46.867812 
" style="fill: none; stroke: #000000; stroke-width: 5; stroke-linecap: square"/>
    </g>
    <g id="text_12">
     <!-- Nonoccluded (NO) -->
     <g transform="translate(152.56 52.117812) scale(0.15 -0.15)">
      <defs>
       <path id="DejaVuSans-6e" d="M 3513 2113 
L 3513 0 
L 2938 0 
L 2938 2094 
Q 2938 2591 2744 2837 
Q 2550 3084 2163 3084 
Q 1697 3084 1428 2787 
Q 1159 2491 1159 1978 
L 1159 0 
L 581 0 
L 581 3500 
L 1159 3500 
L 1159 2956 
Q 1366 3272 1645 3428 
Q 1925 3584 2291 3584 
Q 2894 3584 3203 3211 
Q 3513 2838 3513 2113 
z
" transform="scale(0.015625)"/>
       <path id="DejaVuSans-64" d="M 2906 2969 
L 2906 4863 
L 3481 4863 
L 3481 0 
L 2906 0 
L 2906 525 
Q 2725 213 2448 61 
Q 2172 -91 1784 -91 
Q 1150 -91 751 415 
Q 353 922 353 1747 
Q 353 2572 751 3078 
Q 1150 3584 1784 3584 
Q 2172 3584 2448 3432 
Q 2725 3281 2906 2969 
z
M 947 1747 
Q 947 1113 1208 752 
Q 1469 391 1925 391 
Q 2381 391 2643 752 
Q 2906 1113 2906 1747 
Q 2906 2381 2643 2742 
Q 2381 3103 1925 3103 
Q 1469 3103 1208 2742 
Q 947 2381 947 1747 
z
" transform="scale(0.015625)"/>
       <path id="DejaVuSans-4f" d="M 2522 4238 
Q 1834 4238 1429 3725 
Q 1025 3213 1025 2328 
Q 1025 1447 1429 934 
Q 1834 422 2522 422 
Q 3209 422 3611 934 
Q 4013 1447 4013 2328 
Q 4013 3213 3611 3725 
Q 3209 4238 2522 4238 
z
M 2522 4750 
Q 3503 4750 4090 4092 
Q 4678 3434 4678 2328 
Q 4678 1225 4090 567 
Q 3503 -91 2522 -91 
Q 1538 -91 948 565 
Q 359 1222 359 2328 
Q 359 3434 948 4092 
Q 1538 4750 2522 4750 
z
" transform="scale(0.015625)"/>
      </defs>
      <use xlink:href="#DejaVuSans-4e"/>
      <use xlink:href="#DejaVuSans-6f" transform="translate(74.804688 0)"/>
      <use xlink:href="#DejaVuSans-6e" transform="translate(135.986328 0)"/>
      <use xlink:href="#DejaVuSans-6f" transform="translate(199.365234 0)"/>
      <use xlink:href="#DejaVuSans-63" transform="translate(260.546875 0)"/>
      <use xlink:href="#DejaVuSans-63" transform="translate(315.527344 0)"/>
      <use xlink:href="#DejaVuSans-6c" transform="translate(370.507812 0)"/>
      <use xlink:href="#DejaVuSans-75" transform="translate(398.291016 0)"/>
      <use xlink:href="#DejaVuSans-64" transform="translate(461.669922 0)"/>
      <use xlink:href="#DejaVuSans-65" transform="translate(525.146484 0)"/>
      <use xlink:href="#DejaVuSans-64" transform="translate(586.669922 0)"/>
      <use xlink:href="#DejaVuSans-20" transform="translate(650.146484 0)"/>
      <use xlink:href="#DejaVuSans-28" transform="translate(681.933594 0)"/>
      <use xlink:href="#DejaVuSans-4e" transform="translate(720.947266 0)"/>
      <use xlink:href="#DejaVuSans-4f" transform="translate(795.751953 0)"/>
      <use xlink:href="#DejaVuSans-29" transform="translate(874.462891 0)"/>
     </g>
    </g>
    <g id="line2d_13">
     <path d="M 110.56 68.885 
L 125.56 68.885 
L 140.56 68.885 
" style="fill: none; stroke: #ff0000; stroke-width: 5; stroke-linecap: square"/>
    </g>
    <g id="text_13">
     <!-- Occluded (O) -->
     <g transform="translate(152.56 74.135) scale(0.15 -0.15)">
      <use xlink:href="#DejaVuSans-4f"/>
      <use xlink:href="#DejaVuSans-63" transform="translate(78.710938 0)"/>
      <use xlink:href="#DejaVuSans-63" transform="translate(133.691406 0)"/>
      <use xlink:href="#DejaVuSans-6c" transform="translate(188.671875 0)"/>
      <use xlink:href="#DejaVuSans-75" transform="translate(216.455078 0)"/>
      <use xlink:href="#DejaVuSans-64" transform="translate(279.833984 0)"/>
      <use xlink:href="#DejaVuSans-65" transform="translate(343.310547 0)"/>
      <use xlink:href="#DejaVuSans-64" transform="translate(404.833984 0)"/>
      <use xlink:href="#DejaVuSans-20" transform="translate(468.310547 0)"/>
      <use xlink:href="#DejaVuSans-28" transform="translate(500.097656 0)"/>
      <use xlink:href="#DejaVuSans-4f" transform="translate(539.111328 0)"/>
      <use xlink:href="#DejaVuSans-29" transform="translate(617.822266 0)"/>
     </g>
    </g>
    <g id="line2d_14">
     <path d="M 110.56 90.902187 
L 125.56 90.902187 
L 140.56 90.902187 
" style="fill: none; stroke: #0000ff; stroke-width: 5; stroke-linecap: square"/>
    </g>
    <g id="text_14">
     <!-- No feedback -->
     <g transform="translate(152.56 96.152187) scale(0.15 -0.15)">
      <defs>
       <path id="DejaVuSans-66" d="M 2375 4863 
L 2375 4384 
L 1825 4384 
Q 1516 4384 1395 4259 
Q 1275 4134 1275 3809 
L 1275 3500 
L 2222 3500 
L 2222 3053 
L 1275 3053 
L 1275 0 
L 697 0 
L 697 3053 
L 147 3053 
L 147 3500 
L 697 3500 
L 697 3744 
Q 697 4328 969 4595 
Q 1241 4863 1831 4863 
L 2375 4863 
z
" transform="scale(0.015625)"/>
       <path id="DejaVuSans-62" d="M 3116 1747 
Q 3116 2381 2855 2742 
Q 2594 3103 2138 3103 
Q 1681 3103 1420 2742 
Q 1159 2381 1159 1747 
Q 1159 1113 1420 752 
Q 1681 391 2138 391 
Q 2594 391 2855 752 
Q 3116 1113 3116 1747 
z
M 1159 2969 
Q 1341 3281 1617 3432 
Q 1894 3584 2278 3584 
Q 2916 3584 3314 3078 
Q 3713 2572 3713 1747 
Q 3713 922 3314 415 
Q 2916 -91 2278 -91 
Q 1894 -91 1617 61 
Q 1341 213 1159 525 
L 1159 0 
L 581 0 
L 581 4863 
L 1159 4863 
L 1159 2969 
z
" transform="scale(0.015625)"/>
       <path id="DejaVuSans-6b" d="M 581 4863 
L 1159 4863 
L 1159 1991 
L 2875 3500 
L 3609 3500 
L 1753 1863 
L 3688 0 
L 2938 0 
L 1159 1709 
L 1159 0 
L 581 0 
L 581 4863 
z
" transform="scale(0.015625)"/>
      </defs>
      <use xlink:href="#DejaVuSans-4e"/>
      <use xlink:href="#DejaVuSans-6f" transform="translate(74.804688 0)"/>
      <use xlink:href="#DejaVuSans-20" transform="translate(135.986328 0)"/>
      <use xlink:href="#DejaVuSans-66" transform="translate(167.773438 0)"/>
      <use xlink:href="#DejaVuSans-65" transform="translate(202.978516 0)"/>
      <use xlink:href="#DejaVuSans-65" transform="translate(264.501953 0)"/>
      <use xlink:href="#DejaVuSans-64" transform="translate(326.025391 0)"/>
      <use xlink:href="#DejaVuSans-62" transform="translate(389.501953 0)"/>
      <use xlink:href="#DejaVuSans-61" transform="translate(452.978516 0)"/>
      <use xlink:href="#DejaVuSans-63" transform="translate(514.257812 0)"/>
      <use xlink:href="#DejaVuSans-6b" transform="translate(569.238281 0)"/>
     </g>
    </g>
   </g>
  </g>
  <g id="axes_2">
   <g id="patch_6">
    <path d="M 495.67601 322.75952 
L 855.01952 322.75952 
L 855.01952 31.720156 
L 495.67601 31.720156 
z
" style="fill: #ffffff"/>
   </g>
   <g id="matplotlib.axis_3">
    <g id="xtick_6">
     <g id="line2d_15">
      <g>
       <use xlink:href="#m41d50bb1c3" x="495.67601" y="322.75952" style="stroke: #000000; stroke-width: 1.6"/>
      </g>
     </g>
     <g id="text_15">
      <!-- -1 -->
      <g transform="translate(479.72351 355.57452) scale(0.32 -0.32)">
       <use xlink:href="#DejaVuSans-2d"/>
       <use xlink:href="#DejaVuSans-31" transform="translate(36.083984 0)"/>
      </g>
     </g>
    </g>
    <g id="xtick_7">
     <g id="line2d_16">
      <g>
       <use xlink:href="#m41d50bb1c3" x="585.511887" y="322.75952" style="stroke: #000000; stroke-width: 1.6"/>
      </g>
     </g>
     <g id="text_16">
      <!-- 0 -->
      <g transform="translate(575.331887 355.57452) scale(0.32 -0.32)">
       <use xlink:href="#DejaVuSans-30"/>
      </g>
     </g>
    </g>
    <g id="xtick_8">
     <g id="line2d_17">
      <g>
       <use xlink:href="#m41d50bb1c3" x="675.347765" y="322.75952" style="stroke: #000000; stroke-width: 1.6"/>
      </g>
     </g>
     <g id="text_17">
      <!-- 1 -->
      <g transform="translate(665.167765 355.57452) scale(0.32 -0.32)">
       <use xlink:href="#DejaVuSans-31"/>
      </g>
     </g>
    </g>
    <g id="xtick_9">
     <g id="line2d_18">
      <g>
       <use xlink:href="#m41d50bb1c3" x="765.183642" y="322.75952" style="stroke: #000000; stroke-width: 1.6"/>
      </g>
     </g>
     <g id="text_18">
      <!-- 2 -->
      <g transform="translate(755.003642 355.57452) scale(0.32 -0.32)">
       <use xlink:href="#DejaVuSans-32"/>
      </g>
     </g>
    </g>
    <g id="xtick_10">
     <g id="line2d_19">
      <g>
       <use xlink:href="#m41d50bb1c3" x="855.01952" y="322.75952" style="stroke: #000000; stroke-width: 1.6"/>
      </g>
     </g>
     <g id="text_19">
      <!-- 3 -->
      <g transform="translate(844.83952 355.57452) scale(0.32 -0.32)">
       <use xlink:href="#DejaVuSans-33"/>
      </g>
     </g>
    </g>
    <g id="text_20">
     <!-- Time (s) -->
     <g transform="translate(610.295265 390.54452) scale(0.32 -0.32)">
      <use xlink:href="#DejaVuSans-54"/>
      <use xlink:href="#DejaVuSans-69" transform="translate(57.958984 0)"/>
      <use xlink:href="#DejaVuSans-6d" transform="translate(85.742188 0)"/>
      <use xlink:href="#DejaVuSans-65" transform="translate(183.154297 0)"/>
      <use xlink:href="#DejaVuSans-20" transform="translate(244.677734 0)"/>
      <use xlink:href="#DejaVuSans-28" transform="translate(276.464844 0)"/>
      <use xlink:href="#DejaVuSans-73" transform="translate(315.478516 0)"/>
      <use xlink:href="#DejaVuSans-29" transform="translate(367.578125 0)"/>
     </g>
    </g>
   </g>
   <g id="matplotlib.axis_4">
    <g id="ytick_4">
     <g id="line2d_20">
      <g>
       <use xlink:href="#m0e4b6c3665" x="495.67601" y="302.706543" style="stroke: #000000; stroke-width: 1.6"/>
      </g>
     </g>
    </g>
    <g id="ytick_5">
     <g id="line2d_21">
      <g>
       <use xlink:href="#m0e4b6c3665" x="495.67601" y="168.170265" style="stroke: #000000; stroke-width: 1.6"/>
      </g>
     </g>
    </g>
    <g id="ytick_6">
     <g id="line2d_22">
      <g>
       <use xlink:href="#m0e4b6c3665" x="495.67601" y="33.633987" style="stroke: #000000; stroke-width: 1.6"/>
      </g>
     </g>
    </g>
   </g>
   <g id="line2d_23">
    <path d="M 496.574369 299.855504 
L 501.964521 300.610767 
L 508.253033 301.242985 
L 515.439903 301.735589 
L 524.423491 302.125197 
L 537.000514 302.423035 
L 555.866048 302.609991 
L 584.613529 302.68784 
L 585.511887 282.386271 
L 588.206964 285.28445 
L 590.90204 287.769276 
L 593.597116 289.899704 
L 596.292193 291.726281 
L 598.987269 293.29234 
L 601.682345 294.635041 
L 605.275781 296.132255 
L 608.869216 297.351745 
L 612.462651 298.345026 
L 616.954445 299.331685 
L 621.446238 300.095142 
L 626.836391 300.786924 
L 633.124903 301.366001 
L 641.210132 301.861667 
L 651.092078 302.225978 
L 664.56746 302.483901 
L 686.12807 302.641534 
L 688.823147 302.650806 
L 689.721505 299.380363 
L 691.518223 299.602204 
L 696.908376 300.424569 
L 703.196887 301.112955 
L 710.383757 301.649325 
L 711.282116 299.28726 
L 712.180475 292.236367 
L 713.078834 286.240831 
L 713.977192 285.083408 
L 716.672269 287.596908 
L 719.367345 289.751919 
L 720.265704 288.822757 
L 721.164063 288.698196 
L 723.859139 290.696136 
L 726.554215 292.409121 
L 729.249291 293.877791 
L 731.944368 295.136993 
L 735.537803 296.541097 
L 739.131238 297.684749 
L 742.724673 298.616261 
L 747.216467 299.541561 
L 752.60662 300.37999 
L 757.996772 300.996313 
L 765.183642 301.571942 
L 773.268871 301.991461 
L 780.455742 302.232143 
L 781.3541 301.355719 
L 786.744253 301.713563 
L 787.642612 300.431218 
L 793.931123 301.117598 
L 801.117993 301.652405 
L 810.101581 302.075391 
L 810.99994 302.106949 
L 811.898299 299.900272 
L 817.288451 300.643676 
L 823.576963 301.265966 
L 830.763833 301.750835 
L 839.747421 302.134325 
L 852.324444 302.427487 
L 854.121161 302.454695 
L 854.121161 302.454695 
" clip-path="url(#pd589a5ad62)" style="fill: none; stroke: #000000; stroke-width: 5; stroke-linecap: square"/>
   </g>
   <g id="line2d_24">
    <path d="M 496.574369 294.431384 
L 499.269445 295.60427 
L 500.167804 293.500178 
L 502.86288 294.813236 
L 503.761239 293.657112 
L 504.659598 285.618089 
L 507.354674 288.055331 
L 510.04975 290.144961 
L 511.846468 291.369716 
L 512.744827 291.243554 
L 515.439903 292.878463 
L 516.338262 293.369867 
L 517.236621 292.813401 
L 519.931697 294.224412 
L 520.830056 290.404247 
L 523.525132 292.158861 
L 526.220208 293.663225 
L 528.915285 294.953029 
L 529.813643 294.929474 
L 533.407079 296.372072 
L 534.305437 296.688796 
L 535.203796 296.385526 
L 538.797231 297.558036 
L 541.492308 298.292341 
L 542.390666 293.512045 
L 545.085743 294.82341 
L 545.984101 295.217567 
L 546.88246 292.168703 
L 549.577536 293.671663 
L 551.374254 294.552564 
L 552.272613 290.695415 
L 553.170972 288.918697 
L 555.866048 290.885189 
L 557.662765 292.037772 
L 558.561124 290.831478 
L 561.256201 292.52516 
L 562.154559 293.034229 
L 563.052918 291.911012 
L 563.951277 292.450789 
L 564.849636 291.323274 
L 565.747994 291.892438 
L 566.646353 285.762675 
L 567.544712 286.609869 
L 568.443071 287.158655 
L 569.34143 275.173667 
L 572.036506 279.100545 
L 574.731582 282.46735 
L 577.426659 285.353965 
L 580.121735 287.828877 
L 581.020094 288.572761 
L 581.918452 285.336539 
L 584.613529 287.813936 
L 585.511887 222.162684 
L 586.410246 167.883935 
L 587.308605 126.143263 
L 588.206964 113.22243 
L 589.105323 90.277742 
L 590.003681 79.040916 
L 590.90204 69.570452 
L 591.800399 79.68442 
L 592.698758 77.394177 
L 593.597116 70.276905 
L 594.495475 68.130282 
L 595.393834 54.693387 
L 596.292193 51.791837 
L 597.190552 56.901154 
L 598.08891 57.386884 
L 598.987269 64.778025 
L 600.783987 51.933211 
L 601.682345 57.630682 
L 602.580704 62.195149 
L 603.479063 65.735111 
L 604.377422 77.444055 
L 605.275781 80.679616 
L 606.174139 76.587106 
L 607.072498 76.015773 
L 607.970857 74.526908 
L 608.869216 85.161708 
L 609.767574 92.064954 
L 610.665933 71.395574 
L 611.564292 78.12623 
L 612.462651 78.387168 
L 613.36101 65.078015 
L 614.259368 57.283038 
L 615.157727 67.750984 
L 616.056086 76.280941 
L 616.954445 81.049331 
L 617.852803 92.132193 
L 618.751162 97.602966 
L 620.54788 102.379937 
L 621.446238 109.89461 
L 622.344597 104.997254 
L 624.141315 77.800459 
L 625.039674 69.050421 
L 625.938032 80.687114 
L 626.836391 79.926252 
L 627.73475 89.542621 
L 628.633109 93.138676 
L 629.531467 103.247812 
L 630.429826 99.371734 
L 631.328185 103.456747 
L 633.124903 92.896803 
L 634.023261 101.938191 
L 634.92162 108.599163 
L 635.819979 103.155213 
L 636.718338 99.929134 
L 637.616696 98.169788 
L 638.515055 108.396623 
L 639.413414 104.576979 
L 640.311773 98.032303 
L 641.210132 89.28453 
L 642.10849 86.294932 
L 643.006849 87.485591 
L 643.905208 85.504119 
L 644.803567 80.07747 
L 646.600284 93.078433 
L 647.498643 80.06877 
L 648.397002 74.042802 
L 649.295361 64.78009 
L 650.193719 60.329031 
L 651.092078 61.240148 
L 651.990437 73.313475 
L 652.888796 73.521287 
L 653.787154 84.98056 
L 654.685513 87.946622 
L 655.583872 76.902553 
L 656.482231 76.844355 
L 657.380589 72.402077 
L 658.278948 74.302376 
L 659.177307 80.011815 
L 660.075666 70.71412 
L 660.974025 75.297192 
L 661.872383 74.510729 
L 662.770742 80.353564 
L 663.669101 83.998735 
L 664.56746 79.934371 
L 665.465818 85.776484 
L 666.364177 84.038529 
L 667.262536 78.166886 
L 668.160895 80.425294 
L 669.059254 67.643951 
L 669.957612 72.178086 
L 670.855971 74.593145 
L 671.75433 66.054888 
L 672.652689 62.773258 
L 673.551047 66.481578 
L 677.144483 109.491977 
L 678.9412 128.330402 
L 680.737918 145.332088 
L 682.534635 160.676099 
L 684.331353 174.524067 
L 686.12807 187.021859 
L 687.924788 198.301116 
L 689.721505 208.480648 
L 691.518223 217.667671 
L 693.31494 225.958963 
L 695.111658 233.441856 
L 696.908376 240.195166 
L 698.705093 246.290027 
L 700.501811 251.790636 
L 702.298528 256.75494 
L 704.095246 261.235221 
L 705.891963 265.278678 
L 707.688681 268.927896 
L 709.485398 272.221316 
L 711.282116 275.193626 
L 713.977192 279.117658 
L 716.672269 282.482025 
L 719.367345 285.366547 
L 722.062421 287.839665 
L 724.757498 289.960055 
L 727.452574 291.778023 
L 730.14765 293.336704 
L 732.842727 294.673077 
L 736.436162 296.163236 
L 740.029597 297.376978 
L 740.927956 294.439276 
L 744.521391 295.972802 
L 748.114826 297.22187 
L 751.708261 298.239243 
L 756.200055 299.249831 
L 759.79349 299.89103 
L 760.691849 292.709466 
L 763.386925 294.1353 
L 764.285284 292.044122 
L 766.98036 293.564849 
L 769.675436 294.868684 
L 770.573795 295.260577 
L 771.472154 293.789947 
L 774.16723 295.061677 
L 777.760665 296.479753 
L 778.659024 292.253649 
L 779.557383 286.927293 
L 782.252459 289.177809 
L 783.150818 289.854246 
L 784.049177 284.906208 
L 784.947536 283.532719 
L 787.642612 286.267385 
L 790.337688 288.612022 
L 793.032765 290.622254 
L 795.727841 292.345776 
L 798.422917 293.823481 
L 801.117993 295.090428 
L 804.711429 296.50317 
L 805.609787 296.813339 
L 806.508146 293.902505 
L 809.203222 295.158181 
L 811.898299 296.226336 
L 812.796658 296.352752 
L 813.695016 296.670442 
L 814.593375 294.943656 
L 815.491734 292.326889 
L 818.18681 293.807287 
L 820.881887 295.076544 
L 823.576963 296.164773 
L 824.475322 294.284976 
L 825.37368 294.706054 
L 826.272039 292.586762 
L 828.967116 294.030095 
L 831.662192 295.267574 
L 833.458909 295.992873 
L 834.357268 293.163331 
L 837.052344 294.524432 
L 840.64578 296.042162 
L 844.239215 297.278363 
L 845.137573 297.549773 
L 846.035932 294.441073 
L 849.629367 295.974266 
L 850.527726 291.925913 
L 851.426085 291.748068 
L 852.324444 290.668219 
L 853.222802 291.270135 
L 854.121161 290.115129 
L 854.121161 290.115129 
" clip-path="url(#pd589a5ad62)" style="fill: none; stroke: #ff0000; stroke-width: 5; stroke-linecap: square"/>
   </g>
   <g id="line2d_25">
    <path d="M 496.574369 300.814976 
L 502.86288 301.385591 
L 510.948109 301.874014 
L 520.830056 302.233 
L 534.305437 302.487155 
L 538.797231 302.536785 
L 539.69559 298.769303 
L 540.593949 292.919081 
L 541.492308 292.438714 
L 544.187384 293.903164 
L 545.085743 294.343333 
L 545.984101 294.119181 
L 546.88246 294.548549 
L 547.780819 288.262287 
L 550.475895 290.322399 
L 551.374254 289.563221 
L 554.06933 291.437789 
L 556.764407 293.044995 
L 559.459483 294.422974 
L 563.052918 295.959525 
L 566.646353 297.211055 
L 570.239788 298.230434 
L 574.731582 299.243015 
L 578.325017 299.885478 
L 579.223376 297.309168 
L 582.816811 298.310348 
L 587.308605 299.304851 
L 591.800399 300.074379 
L 597.190552 300.77166 
L 603.479063 301.355343 
L 611.564292 301.85495 
L 621.446238 302.222157 
L 634.92162 302.482131 
L 656.482231 302.641017 
L 678.042841 302.68741 
L 678.9412 299.243531 
L 683.432994 300.02693 
L 688.823147 300.736782 
L 690.619864 300.928833 
L 691.518223 300.415794 
L 692.416582 298.584513 
L 696.908376 299.516995 
L 702.298528 300.361932 
L 704.993605 300.696332 
L 705.891963 298.627287 
L 710.383757 299.550092 
L 715.77391 300.386262 
L 717.570627 300.612489 
L 718.468986 297.512972 
L 721.164063 298.253705 
L 722.062421 296.662707 
L 723.859139 297.251981 
L 724.757498 295.067002 
L 725.655856 295.448979 
L 726.554215 294.853795 
L 730.14765 296.310431 
L 733.741085 297.49687 
L 737.33452 298.463232 
L 741.826314 299.42315 
L 743.623032 299.743281 
L 744.521391 298.857045 
L 745.419749 296.856988 
L 746.318108 289.47385 
L 747.216467 286.107648 
L 748.114826 284.023992 
L 750.809902 286.688591 
L 753.504978 288.973152 
L 756.200055 290.931877 
L 758.895131 292.61124 
L 761.590207 294.051083 
L 764.285284 295.285568 
L 767.878719 296.662113 
L 771.472154 297.783317 
L 775.065589 298.696545 
L 779.557383 299.603684 
L 784.947536 300.425657 
L 791.236047 301.113715 
L 798.422917 301.649828 
L 802.914711 301.888877 
L 803.81307 297.739671 
L 804.711429 291.575492 
L 807.406505 293.163059 
L 810.101581 294.524198 
L 813.695016 296.041973 
L 817.288451 297.278209 
L 820.881887 298.285132 
L 825.37368 299.285339 
L 829.865474 300.059281 
L 832.560551 300.436847 
L 833.458909 298.427028 
L 834.357268 294.061078 
L 837.052344 295.294138 
L 837.950703 294.519295 
L 841.544138 296.037979 
L 845.137573 297.274956 
L 848.731009 298.282482 
L 853.222802 299.283289 
L 854.121161 299.454452 
L 854.121161 299.454452 
" clip-path="url(#pd589a5ad62)" style="fill: none; stroke: #0000ff; stroke-width: 5; stroke-linecap: square"/>
   </g>
   <g id="patch_7">
    <path d="M 495.67601 322.75952 
L 495.67601 31.720156 
" style="fill: none; stroke: #000000; stroke-width: 5; stroke-linejoin: miter; stroke-linecap: square"/>
   </g>
   <g id="patch_8">
    <path d="M 495.67601 322.75952 
L 855.01952 322.75952 
" style="fill: none; stroke: #000000; stroke-width: 5; stroke-linejoin: miter; stroke-linecap: square"/>
   </g>
   <g id="patch_9">
    <path d="M 585.511887 316.938733 
L 675.347765 316.938733 
L 675.347765 306.752355 
L 585.511887 306.752355 
z
" style="fill: #8c5a2b; stroke: #8c5a2b; stroke-linejoin: miter"/>
   </g>
   <g id="text_21">
    <!-- Novel | Expert -->
    <g transform="translate(607.949718 21.720156) scale(0.19 -0.19)">
     <defs>
      <path id="DejaVuSans-45" d="M 628 4666 
L 3578 4666 
L 3578 4134 
L 1259 4134 
L 1259 2753 
L 3481 2753 
L 3481 2222 
L 1259 2222 
L 1259 531 
L 3634 531 
L 3634 0 
L 628 0 
L 628 4666 
z
" transform="scale(0.015625)"/>
      <path id="DejaVuSans-78" d="M 3513 3500 
L 2247 1797 
L 3578 0 
L 2900 0 
L 1881 1375 
L 863 0 
L 184 0 
L 1544 1831 
L 300 3500 
L 978 3500 
L 1906 2253 
L 2834 3500 
L 3513 3500 
z
" transform="scale(0.015625)"/>
      <path id="DejaVuSans-70" d="M 1159 525 
L 1159 -1331 
L 581 -1331 
L 581 3500 
L 1159 3500 
L 1159 2969 
Q 1341 3281 1617 3432 
Q 1894 3584 2278 3584 
Q 2916 3584 3314 3078 
Q 3713 2572 3713 1747 
Q 3713 922 3314 415 
Q 2916 -91 2278 -91 
Q 1894 -91 1617 61 
Q 1341 213 1159 525 
z
M 3116 1747 
Q 3116 2381 2855 2742 
Q 2594 3103 2138 3103 
Q 1681 3103 1420 2742 
Q 1159 2381 1159 1747 
Q 1159 1113 1420 752 
Q 1681 391 2138 391 
Q 2594 391 2855 752 
Q 3116 1113 3116 1747 
z
" transform="scale(0.015625)"/>
     </defs>
     <use xlink:href="#DejaVuSans-4e"/>
     <use xlink:href="#DejaVuSans-6f" transform="translate(74.804688 0)"/>
     <use xlink:href="#DejaVuSans-76" transform="translate(135.986328 0)"/>
     <use xlink:href="#DejaVuSans-65" transform="translate(195.166016 0)"/>
     <use xlink:href="#DejaVuSans-6c" transform="translate(256.689453 0)"/>
     <use xlink:href="#DejaVuSans-20" transform="translate(284.472656 0)"/>
     <use xlink:href="#DejaVuSans-7c" transform="translate(316.259766 0)"/>
     <use xlink:href="#DejaVuSans-20" transform="translate(349.951172 0)"/>
     <use xlink:href="#DejaVuSans-45" transform="translate(381.738281 0)"/>
     <use xlink:href="#DejaVuSans-78" transform="translate(444.921875 0)"/>
     <use xlink:href="#DejaVuSans-70" transform="translate(504.101562 0)"/>
     <use xlink:href="#DejaVuSans-65" transform="translate(567.578125 0)"/>
     <use xlink:href="#DejaVuSans-72" transform="translate(629.101562 0)"/>
     <use xlink:href="#DejaVuSans-74" transform="translate(670.214844 0)"/>
    </g>
   </g>
  </g>
 </g>
 <defs>
  <clipPath id="p7b74e65683">
   <rect x="101.56" y="31.720156" width="359.34351" height="291.039364"/>
  </clipPath>
  <clipPath id="pd589a5ad62">
   <rect x="495.67601" y="31.720156" width="359.34351" height="291.039364"/>
  </clipPath>
 </defs>
</svg>
