<?xml version="1.0" encoding="utf-8" standalone="no"?>
<!DOCTYPE svg PUBLIC "-//W3C//DTD SVG 1.1//EN"
  "http://www.w3.org/Graphics/SVG/1.1/DTD/svg11.dtd">
<svg xmlns:xlink="http://www.w3.org/1999/xlink" width="1458.14pt" height="418.280156pt" viewBox="0 0 1458.14 418.280156" xmlns="http://www.w3.org/2000/svg" version="1.1">
 <metadata>
  <rdf:RDF xmlns:dc="http://purl.org/dc/elements/1.1/" xmlns:cc="http://creativecommons.org/ns#" xmlns:rdf="http://www.w3.org/1999/02/22-rdf-syntax-ns#">
   <cc:Work>
    <dc:type rdf:resource="http://purl.org/dc/dcmitype/StillImage"/>
    <dc:date>2026-03-25T17:17:39.914776</dc:date>
    <dc:format>image/svg+xml</dc:format>
    <dc:creator>
     <cc:Agent>
      <dc:title>Matplotlib v3.10.7, https://matplotlib.org/</dc:title>
     </cc:Agent>
    </dc:creator>
   </cc:Work>
  </rdf:RDF>
 </metadata>
 <defs>
  <style type="text/css">*{stroke-linejoin: round; stroke-linecap: butt}</style>
 </defs>
 <g id="figure_1">
  <g id="patch_1">
   <path d="M 0 418.280156 
L 1458.14 418.280156 
L 1458.14 -0 
L 0 -0 
z
" style="fill: #ffffff"/>
  </g>
  <g id="axes_1">
   <g id="patch_2">
    <path d="M 101.56 336.640156 
L 402.50382 336.640156 
L 402.50382 31.720156 
L 101.56 31.720156 
z
" style="fill: #ffffff"/>
   </g>
   <g id="matplotlib.axis_1">
    <g id="xtick_1">
     <g id="line2d_1">
      <defs>
       <path id="m48ea32176a" d="M 0 0 
L 0 5 
" style="stroke: #000000; stroke-width: 1.6"/>
      </defs>
      <g>
       <use xlink:href="#m48ea32176a" x="101.56" y="336.640156" style="stroke: #000000; stroke-width: 1.6"/>
      </g>
     </g>
     <g id="text_1">
      <!-- -1 -->
      <g transform="translate(85.6075 369.455156) scale(0.32 -0.32)">
       <defs>
        <path id="DejaVuSans-2d" d="M 313 2009 
L 1997 2009 
L 1997 1497 
L 313 1497 
L 313 2009 
z
" transform="scale(0.015625)"/>
        <path id="DejaVuSans-31" d="M 794 531 
L 1825 531 
L 1825 4091 
L 703 3866 
L 703 4441 
L 1819 4666 
L 2450 4666 
L 2450 531 
L 3481 531 
L 3481 0 
L 794 0 
L 794 531 
z
" transform="scale(0.015625)"/>
       </defs>
       <use xlink:href="#DejaVuSans-2d"/>
       <use xlink:href="#DejaVuSans-31" transform="translate(36.083984 0)"/>
      </g>
     </g>
    </g>
    <g id="xtick_2">
     <g id="line2d_2">
      <g>
       <use xlink:href="#m48ea32176a" x="176.795955" y="336.640156" style="stroke: #000000; stroke-width: 1.6"/>
      </g>
     </g>
     <g id="text_2">
      <!-- 0 -->
      <g transform="translate(166.615955 369.455156) scale(0.32 -0.32)">
       <defs>
        <path id="DejaVuSans-30" d="M 2034 4250 
Q 1547 4250 1301 3770 
Q 1056 3291 1056 2328 
Q 1056 1369 1301 889 
Q 1547 409 2034 409 
Q 2525 409 2770 889 
Q 3016 1369 3016 2328 
Q 3016 3291 2770 3770 
Q 2525 4250 2034 4250 
z
M 2034 4750 
Q 2819 4750 3233 4129 
Q 3647 3509 3647 2328 
Q 3647 1150 3233 529 
Q 2819 -91 2034 -91 
Q 1250 -91 836 529 
Q 422 1150 422 2328 
Q 422 3509 836 4129 
Q 1250 4750 2034 4750 
z
" transform="scale(0.015625)"/>
       </defs>
       <use xlink:href="#DejaVuSans-30"/>
      </g>
     </g>
    </g>
    <g id="xtick_3">
     <g id="line2d_3">
      <g>
       <use xlink:href="#m48ea32176a" x="252.03191" y="336.640156" style="stroke: #000000; stroke-width: 1.6"/>
      </g>
     </g>
     <g id="text_3">
      <!-- 1 -->
      <g transform="translate(241.85191 369.455156) scale(0.32 -0.32)">
       <use xlink:href="#DejaVuSans-31"/>
      </g>
     </g>
    </g>
    <g id="xtick_4">
     <g id="line2d_4">
      <g>
       <use xlink:href="#m48ea32176a" x="327.267865" y="336.640156" style="stroke: #000000; stroke-width: 1.6"/>
      </g>
     </g>
     <g id="text_4">
      <!-- 2 -->
      <g transform="translate(317.087865 369.455156) scale(0.32 -0.32)">
       <defs>
        <path id="DejaVuSans-32" d="M 1228 531 
L 3431 531 
L 3431 0 
L 469 0 
L 469 531 
Q 828 903 1448 1529 
Q 2069 2156 2228 2338 
Q 2531 2678 2651 2914 
Q 2772 3150 2772 3378 
Q 2772 3750 2511 3984 
Q 2250 4219 1831 4219 
Q 1534 4219 1204 4116 
Q 875 4013 500 3803 
L 500 4441 
Q 881 4594 1212 4672 
Q 1544 4750 1819 4750 
Q 2544 4750 2975 4387 
Q 3406 4025 3406 3419 
Q 3406 3131 3298 2873 
Q 3191 2616 2906 2266 
Q 2828 2175 2409 1742 
Q 1991 1309 1228 531 
z
" transform="scale(0.015625)"/>
       </defs>
       <use xlink:href="#DejaVuSans-32"/>
      </g>
     </g>
    </g>
    <g id="xtick_5">
     <g id="line2d_5">
      <g>
       <use xlink:href="#m48ea32176a" x="402.50382" y="336.640156" style="stroke: #000000; stroke-width: 1.6"/>
      </g>
     </g>
     <g id="text_5">
      <!-- 3 -->
      <g transform="translate(392.32382 369.455156) scale(0.32 -0.32)">
       <defs>
        <path id="DejaVuSans-33" d="M 2597 2516 
Q 3050 2419 3304 2112 
Q 3559 1806 3559 1356 
Q 3559 666 3084 287 
Q 2609 -91 1734 -91 
Q 1441 -91 1130 -33 
Q 819 25 488 141 
L 488 750 
Q 750 597 1062 519 
Q 1375 441 1716 441 
Q 2309 441 2620 675 
Q 2931 909 2931 1356 
Q 2931 1769 2642 2001 
Q 2353 2234 1838 2234 
L 1294 2234 
L 1294 2753 
L 1863 2753 
Q 2328 2753 2575 2939 
Q 2822 3125 2822 3475 
Q 2822 3834 2567 4026 
Q 2313 4219 1838 4219 
Q 1578 4219 1281 4162 
Q 984 4106 628 3988 
L 628 4550 
Q 988 4650 1302 4700 
Q 1616 4750 1894 4750 
Q 2613 4750 3031 4423 
Q 3450 4097 3450 3541 
Q 3450 3153 3228 2886 
Q 3006 2619 2597 2516 
z
" transform="scale(0.015625)"/>
       </defs>
       <use xlink:href="#DejaVuSans-33"/>
      </g>
     </g>
    </g>
    <g id="text_6">
     <!-- Time (s) -->
     <g transform="translate(186.97941 404.425156) scale(0.32 -0.32)">
      <defs>
       <path id="DejaVuSans-54" d="M -19 4666 
L 3928 4666 
L 3928 4134 
L 2272 4134 
L 2272 0 
L 1638 0 
L 1638 4134 
L -19 4134 
L -19 4666 
z
" transform="scale(0.015625)"/>
       <path id="DejaVuSans-69" d="M 603 3500 
L 1178 3500 
L 1178 0 
L 603 0 
L 603 3500 
z
M 603 4863 
L 1178 4863 
L 1178 4134 
L 603 4134 
L 603 4863 
z
" transform="scale(0.015625)"/>
       <path id="DejaVuSans-6d" d="M 3328 2828 
Q 3544 3216 3844 3400 
Q 4144 3584 4550 3584 
Q 5097 3584 5394 3201 
Q 5691 2819 5691 2113 
L 5691 0 
L 5113 0 
L 5113 2094 
Q 5113 2597 4934 2840 
Q 4756 3084 4391 3084 
Q 3944 3084 3684 2787 
Q 3425 2491 3425 1978 
L 3425 0 
L 2847 0 
L 2847 2094 
Q 2847 2600 2669 2842 
Q 2491 3084 2119 3084 
Q 1678 3084 1418 2786 
Q 1159 2488 1159 1978 
L 1159 0 
L 581 0 
L 581 3500 
L 1159 3500 
L 1159 2956 
Q 1356 3278 1631 3431 
Q 1906 3584 2284 3584 
Q 2666 3584 2933 3390 
Q 3200 3197 3328 2828 
z
" transform="scale(0.015625)"/>
       <path id="DejaVuSans-65" d="M 3597 1894 
L 3597 1613 
L 953 1613 
Q 991 1019 1311 708 
Q 1631 397 2203 397 
Q 2534 397 2845 478 
Q 3156 559 3463 722 
L 3463 178 
Q 3153 47 2828 -22 
Q 2503 -91 2169 -91 
Q 1331 -91 842 396 
Q 353 884 353 1716 
Q 353 2575 817 3079 
Q 1281 3584 2069 3584 
Q 2775 3584 3186 3129 
Q 3597 2675 3597 1894 
z
M 3022 2063 
Q 3016 2534 2758 2815 
Q 2500 3097 2075 3097 
Q 1594 3097 1305 2825 
Q 1016 2553 972 2059 
L 3022 2063 
z
" transform="scale(0.015625)"/>
       <path id="DejaVuSans-20" transform="scale(0.015625)"/>
       <path id="DejaVuSans-28" d="M 1984 4856 
Q 1566 4138 1362 3434 
Q 1159 2731 1159 2009 
Q 1159 1288 1364 580 
Q 1569 -128 1984 -844 
L 1484 -844 
Q 1016 -109 783 600 
Q 550 1309 550 2009 
Q 550 2706 781 3412 
Q 1013 4119 1484 4856 
L 1984 4856 
z
" transform="scale(0.015625)"/>
       <path id="DejaVuSans-73" d="M 2834 3397 
L 2834 2853 
Q 2591 2978 2328 3040 
Q 2066 3103 1784 3103 
Q 1356 3103 1142 2972 
Q 928 2841 928 2578 
Q 928 2378 1081 2264 
Q 1234 2150 1697 2047 
L 1894 2003 
Q 2506 1872 2764 1633 
Q 3022 1394 3022 966 
Q 3022 478 2636 193 
Q 2250 -91 1575 -91 
Q 1294 -91 989 -36 
Q 684 19 347 128 
L 347 722 
Q 666 556 975 473 
Q 1284 391 1588 391 
Q 1994 391 2212 530 
Q 2431 669 2431 922 
Q 2431 1156 2273 1281 
Q 2116 1406 1581 1522 
L 1381 1569 
Q 847 1681 609 1914 
Q 372 2147 372 2553 
Q 372 3047 722 3315 
Q 1072 3584 1716 3584 
Q 2034 3584 2315 3537 
Q 2597 3491 2834 3397 
z
" transform="scale(0.015625)"/>
       <path id="DejaVuSans-29" d="M 513 4856 
L 1013 4856 
Q 1481 4119 1714 3412 
Q 1947 2706 1947 2009 
Q 1947 1309 1714 600 
Q 1481 -109 1013 -844 
L 513 -844 
Q 928 -128 1133 580 
Q 1338 1288 1338 2009 
Q 1338 2731 1133 3434 
Q 928 4138 513 4856 
z
" transform="scale(0.015625)"/>
      </defs>
      <use xlink:href="#DejaVuSans-54"/>
      <use xlink:href="#DejaVuSans-69" transform="translate(57.958984 0)"/>
      <use xlink:href="#DejaVuSans-6d" transform="translate(85.742188 0)"/>
      <use xlink:href="#DejaVuSans-65" transform="translate(183.154297 0)"/>
      <use xlink:href="#DejaVuSans-20" transform="translate(244.677734 0)"/>
      <use xlink:href="#DejaVuSans-28" transform="translate(276.464844 0)"/>
      <use xlink:href="#DejaVuSans-73" transform="translate(315.478516 0)"/>
      <use xlink:href="#DejaVuSans-29" transform="translate(367.578125 0)"/>
     </g>
    </g>
   </g>
   <g id="matplotlib.axis_2">
    <g id="ytick_1">
     <g id="line2d_6">
      <defs>
       <path id="m80e9e68a5d" d="M 0 0 
L -5 0 
" style="stroke: #000000; stroke-width: 1.6"/>
      </defs>
      <g>
       <use xlink:href="#m80e9e68a5d" x="101.56" y="315.62004" style="stroke: #000000; stroke-width: 1.6"/>
      </g>
     </g>
     <g id="text_7">
      <!-- 0.0 -->
      <g transform="translate(42.17 327.77754) scale(0.32 -0.32)">
       <defs>
        <path id="DejaVuSans-2e" d="M 684 794 
L 1344 794 
L 1344 0 
L 684 0 
L 684 794 
z
" transform="scale(0.015625)"/>
       </defs>
       <use xlink:href="#DejaVuSans-30"/>
       <use xlink:href="#DejaVuSans-2e" transform="translate(63.623047 0)"/>
       <use xlink:href="#DejaVuSans-30" transform="translate(95.410156 0)"/>
      </g>
     </g>
    </g>
    <g id="ytick_2">
     <g id="line2d_7">
      <g>
       <use xlink:href="#m80e9e68a5d" x="101.56" y="192.176903" style="stroke: #000000; stroke-width: 1.6"/>
      </g>
     </g>
     <g id="text_8">
      <!-- 0.2 -->
      <g transform="translate(42.17 204.334403) scale(0.32 -0.32)">
       <use xlink:href="#DejaVuSans-30"/>
       <use xlink:href="#DejaVuSans-2e" transform="translate(63.623047 0)"/>
       <use xlink:href="#DejaVuSans-32" transform="translate(95.410156 0)"/>
      </g>
     </g>
    </g>
    <g id="ytick_3">
     <g id="line2d_8">
      <g>
       <use xlink:href="#m80e9e68a5d" x="101.56" y="68.733765" style="stroke: #000000; stroke-width: 1.6"/>
      </g>
     </g>
     <g id="text_9">
      <!-- 0.4 -->
      <g transform="translate(42.17 80.891265) scale(0.32 -0.32)">
       <defs>
        <path id="DejaVuSans-34" d="M 2419 4116 
L 825 1625 
L 2419 1625 
L 2419 4116 
z
M 2253 4666 
L 3047 4666 
L 3047 1625 
L 3713 1625 
L 3713 1100 
L 3047 1100 
L 3047 0 
L 2419 0 
L 2419 1100 
L 313 1100 
L 313 1709 
L 2253 4666 
z
" transform="scale(0.015625)"/>
       </defs>
       <use xlink:href="#DejaVuSans-30"/>
       <use xlink:href="#DejaVuSans-2e" transform="translate(63.623047 0)"/>
       <use xlink:href="#DejaVuSans-34" transform="translate(95.410156 0)"/>
      </g>
     </g>
    </g>
    <g id="text_10">
     <!-- Neural Activity -->
     <g transform="translate(31.515 301.885156) rotate(-90) scale(0.32 -0.32)">
      <defs>
       <path id="DejaVuSans-4e" d="M 628 4666 
L 1478 4666 
L 3547 763 
L 3547 4666 
L 4159 4666 
L 4159 0 
L 3309 0 
L 1241 3903 
L 1241 0 
L 628 0 
L 628 4666 
z
" transform="scale(0.015625)"/>
       <path id="DejaVuSans-75" d="M 544 1381 
L 544 3500 
L 1119 3500 
L 1119 1403 
Q 1119 906 1312 657 
Q 1506 409 1894 409 
Q 2359 409 2629 706 
Q 2900 1003 2900 1516 
L 2900 3500 
L 3475 3500 
L 3475 0 
L 2900 0 
L 2900 538 
Q 2691 219 2414 64 
Q 2138 -91 1772 -91 
Q 1169 -91 856 284 
Q 544 659 544 1381 
z
M 1991 3584 
L 1991 3584 
z
" transform="scale(0.015625)"/>
       <path id="DejaVuSans-72" d="M 2631 2963 
Q 2534 3019 2420 3045 
Q 2306 3072 2169 3072 
Q 1681 3072 1420 2755 
Q 1159 2438 1159 1844 
L 1159 0 
L 581 0 
L 581 3500 
L 1159 3500 
L 1159 2956 
Q 1341 3275 1631 3429 
Q 1922 3584 2338 3584 
Q 2397 3584 2469 3576 
Q 2541 3569 2628 3553 
L 2631 2963 
z
" transform="scale(0.015625)"/>
       <path id="DejaVuSans-61" d="M 2194 1759 
Q 1497 1759 1228 1600 
Q 959 1441 959 1056 
Q 959 750 1161 570 
Q 1363 391 1709 391 
Q 2188 391 2477 730 
Q 2766 1069 2766 1631 
L 2766 1759 
L 2194 1759 
z
M 3341 1997 
L 3341 0 
L 2766 0 
L 2766 531 
Q 2569 213 2275 61 
Q 1981 -91 1556 -91 
Q 1019 -91 701 211 
Q 384 513 384 1019 
Q 384 1609 779 1909 
Q 1175 2209 1959 2209 
L 2766 2209 
L 2766 2266 
Q 2766 2663 2505 2880 
Q 2244 3097 1772 3097 
Q 1472 3097 1187 3025 
Q 903 2953 641 2809 
L 641 3341 
Q 956 3463 1253 3523 
Q 1550 3584 1831 3584 
Q 2591 3584 2966 3190 
Q 3341 2797 3341 1997 
z
" transform="scale(0.015625)"/>
       <path id="DejaVuSans-6c" d="M 603 4863 
L 1178 4863 
L 1178 0 
L 603 0 
L 603 4863 
z
" transform="scale(0.015625)"/>
       <path id="DejaVuSans-41" d="M 2188 4044 
L 1331 1722 
L 3047 1722 
L 2188 4044 
z
M 1831 4666 
L 2547 4666 
L 4325 0 
L 3669 0 
L 3244 1197 
L 1141 1197 
L 716 0 
L 50 0 
L 1831 4666 
z
" transform="scale(0.015625)"/>
       <path id="DejaVuSans-63" d="M 3122 3366 
L 3122 2828 
Q 2878 2963 2633 3030 
Q 2388 3097 2138 3097 
Q 1578 3097 1268 2742 
Q 959 2388 959 1747 
Q 959 1106 1268 751 
Q 1578 397 2138 397 
Q 2388 397 2633 464 
Q 2878 531 3122 666 
L 3122 134 
Q 2881 22 2623 -34 
Q 2366 -91 2075 -91 
Q 1284 -91 818 406 
Q 353 903 353 1747 
Q 353 2603 823 3093 
Q 1294 3584 2113 3584 
Q 2378 3584 2631 3529 
Q 2884 3475 3122 3366 
z
" transform="scale(0.015625)"/>
       <path id="DejaVuSans-74" d="M 1172 4494 
L 1172 3500 
L 2356 3500 
L 2356 3053 
L 1172 3053 
L 1172 1153 
Q 1172 725 1289 603 
Q 1406 481 1766 481 
L 2356 481 
L 2356 0 
L 1766 0 
Q 1100 0 847 248 
Q 594 497 594 1153 
L 594 3053 
L 172 3053 
L 172 3500 
L 594 3500 
L 594 4494 
L 1172 4494 
z
" transform="scale(0.015625)"/>
       <path id="DejaVuSans-76" d="M 191 3500 
L 800 3500 
L 1894 563 
L 2988 3500 
L 3597 3500 
L 2284 0 
L 1503 0 
L 191 3500 
z
" transform="scale(0.015625)"/>
       <path id="DejaVuSans-79" d="M 2059 -325 
Q 1816 -950 1584 -1140 
Q 1353 -1331 966 -1331 
L 506 -1331 
L 506 -850 
L 844 -850 
Q 1081 -850 1212 -737 
Q 1344 -625 1503 -206 
L 1606 56 
L 191 3500 
L 800 3500 
L 1894 763 
L 2988 3500 
L 3597 3500 
L 2059 -325 
z
" transform="scale(0.015625)"/>
      </defs>
      <use xlink:href="#DejaVuSans-4e"/>
      <use xlink:href="#DejaVuSans-65" transform="translate(74.804688 0)"/>
      <use xlink:href="#DejaVuSans-75" transform="translate(136.328125 0)"/>
      <use xlink:href="#DejaVuSans-72" transform="translate(199.707031 0)"/>
      <use xlink:href="#DejaVuSans-61" transform="translate(240.820312 0)"/>
      <use xlink:href="#DejaVuSans-6c" transform="translate(302.099609 0)"/>
      <use xlink:href="#DejaVuSans-20" transform="translate(329.882812 0)"/>
      <use xlink:href="#DejaVuSans-41" transform="translate(361.669922 0)"/>
      <use xlink:href="#DejaVuSans-63" transform="translate(428.328125 0)"/>
      <use xlink:href="#DejaVuSans-74" transform="translate(483.308594 0)"/>
      <use xlink:href="#DejaVuSans-69" transform="translate(522.517578 0)"/>
      <use xlink:href="#DejaVuSans-76" transform="translate(550.300781 0)"/>
      <use xlink:href="#DejaVuSans-69" transform="translate(609.480469 0)"/>
      <use xlink:href="#DejaVuSans-74" transform="translate(637.263672 0)"/>
      <use xlink:href="#DejaVuSans-79" transform="translate(676.472656 0)"/>
     </g>
    </g>
   </g>
   <g id="line2d_9">
    <path d="M 102.31236 313.610435 
L 103.064719 312.973768 
L 106.826517 313.545047 
L 112.093034 314.170995 
L 115.854831 314.498797 
L 116.607191 314.281659 
L 117.359551 314.348578 
L 118.11191 313.616291 
L 118.86427 313.479419 
L 119.616629 313.58645 
L 120.368989 312.42837 
L 121.121348 311.880827 
L 121.873708 312.067788 
L 122.626067 311.329364 
L 124.130787 311.747705 
L 124.883146 311.580974 
L 127.892584 312.330195 
L 128.644944 312.037542 
L 129.397303 312.216667 
L 130.902022 311.561769 
L 133.159101 312.14058 
L 133.911461 311.302486 
L 134.66382 311.518363 
L 135.41618 311.571682 
L 139.177978 312.487498 
L 141.435056 312.934277 
L 142.939775 312.493765 
L 143.692135 312.650079 
L 144.444494 312.596947 
L 145.196854 312.748102 
L 145.949213 310.616553 
L 146.701573 310.436258 
L 149.711011 311.397818 
L 153.472809 312.352966 
L 154.225169 312.516319 
L 154.977528 311.704318 
L 157.234607 312.262798 
L 157.986966 312.362117 
L 158.739326 311.388395 
L 160.244045 310.487407 
L 161.748764 310.987839 
L 162.501124 310.53768 
L 164.005843 311.03321 
L 164.758202 310.781704 
L 165.510562 309.376612 
L 168.52 310.534729 
L 169.27236 310.277719 
L 170.777079 310.798595 
L 171.529438 309.523834 
L 174.538876 310.654642 
L 176.043596 311.138769 
L 176.795955 298.584889 
L 177.548315 288.957892 
L 178.300674 282.142767 
L 179.805393 271.620476 
L 180.557753 266.718513 
L 181.310112 263.254169 
L 182.814831 255.049256 
L 183.567191 252.167984 
L 185.07191 245.250913 
L 185.82427 242.219335 
L 186.576629 241.741677 
L 187.328989 240.01268 
L 188.081348 235.869163 
L 188.833708 232.606831 
L 189.586067 230.725731 
L 190.338427 230.02939 
L 191.843146 225.732729 
L 193.347865 222.719248 
L 194.100225 221.977712 
L 194.852584 220.213922 
L 195.604944 219.429693 
L 196.357303 218.356597 
L 197.109663 217.00086 
L 197.862022 216.303269 
L 198.614382 216.75122 
L 199.366742 213.363209 
L 200.119101 212.484956 
L 201.62382 211.718431 
L 202.37618 211.208426 
L 203.128539 210.513667 
L 203.880899 211.35537 
L 204.633258 210.205284 
L 205.385618 209.376136 
L 206.137978 209.050857 
L 206.890337 209.08336 
L 207.642697 208.54958 
L 208.395056 209.298658 
L 209.147416 210.233667 
L 209.899775 208.90968 
L 210.652135 209.109959 
L 211.404494 209.463114 
L 212.156854 209.336652 
L 212.909213 209.945904 
L 213.661573 211.106834 
L 214.413933 211.257917 
L 215.166292 211.767075 
L 215.918652 211.62679 
L 216.671011 211.648974 
L 217.423371 211.104957 
L 218.17573 211.358635 
L 218.92809 210.454373 
L 219.680449 209.319471 
L 220.432809 209.364004 
L 221.185169 208.894504 
L 222.689888 210.47789 
L 223.442247 211.436426 
L 224.194607 214.328826 
L 224.946966 214.687591 
L 225.699326 215.722409 
L 226.451685 215.891343 
L 227.204045 218.033093 
L 227.956404 219.570971 
L 228.708764 220.468593 
L 229.461124 221.053013 
L 230.213483 221.907739 
L 230.965843 221.838199 
L 231.718202 222.964446 
L 232.470562 223.155058 
L 233.222921 222.673887 
L 233.975281 224.515568 
L 234.72764 223.3411 
L 235.48 224.767912 
L 236.23236 225.399734 
L 236.984719 227.481748 
L 237.737079 228.170041 
L 238.489438 226.65385 
L 239.241798 227.787933 
L 240.746517 225.839583 
L 241.498876 227.820436 
L 242.251236 227.162981 
L 243.003596 228.509382 
L 243.755955 227.7292 
L 244.508315 228.595882 
L 245.260674 228.11255 
L 246.013034 227.831721 
L 246.765393 228.530978 
L 247.517753 228.288428 
L 248.270112 230.48904 
L 249.022472 230.689705 
L 249.774831 232.008377 
L 250.527191 232.272273 
L 251.279551 234.393577 
L 253.536629 245.978501 
L 255.793708 255.911123 
L 258.050787 264.42711 
L 260.307865 271.728507 
L 262.564944 277.988537 
L 264.822022 283.355733 
L 267.079101 287.957429 
L 269.33618 291.902809 
L 271.593258 295.285479 
L 273.850337 298.185697 
L 276.107416 300.67227 
L 278.364494 302.804196 
L 280.621573 304.632057 
L 282.878652 306.199218 
L 285.13573 307.542863 
L 288.145169 309.04113 
L 291.154607 310.261477 
L 294.164045 311.255457 
L 297.925843 312.242809 
L 301.68764 313.006803 
L 306.201798 313.699071 
L 311.468315 314.278556 
L 315.230112 314.582025 
L 315.982472 313.955176 
L 322.001348 314.515535 
L 329.524944 314.958733 
L 331.782022 314.953307 
L 332.534382 314.824722 
L 340.810337 315.167663 
L 345.324494 315.287501 
L 346.076854 314.966046 
L 351.343371 315.163332 
L 352.09573 314.921901 
L 361.124045 315.242794 
L 361.876404 315.261656 
L 362.628764 314.964948 
L 372.409438 315.283754 
L 378.428315 315.396941 
L 379.180674 314.391358 
L 382.190112 314.619271 
L 382.942472 314.316684 
L 389.713708 314.798601 
L 391.970787 314.915759 
L 392.723146 314.304505 
L 398.742022 314.747287 
L 399.494382 314.674766 
L 401.751461 314.809586 
L 401.751461 314.809586 
" clip-path="url(#pc8b377d5ac)" style="fill: none; stroke: #000000; stroke-width: 5; stroke-linecap: square"/>
   </g>
   <g id="line2d_10">
    <path d="M 102.31236 314.242248 
L 109.083596 314.751688 
L 115.102472 315.043958 
L 115.854831 314.6522 
L 116.607191 314.644356 
L 117.359551 314.481437 
L 118.86427 313.899752 
L 119.616629 313.978328 
L 121.121348 311.363772 
L 122.626067 311.778759 
L 123.378427 311.750859 
L 124.130787 311.944318 
L 124.883146 311.41854 
L 128.644944 312.369 
L 131.654382 312.972048 
L 133.159101 312.748508 
L 133.911461 312.275834 
L 134.66382 312.443045 
L 135.41618 312.061425 
L 136.168539 312.234606 
L 136.920899 311.822262 
L 139.177978 312.36392 
L 141.435056 312.629459 
L 142.187416 312.165108 
L 142.939775 311.548568 
L 143.692135 311.752142 
L 144.444494 311.13992 
L 145.196854 311.363926 
L 145.949213 311.130899 
L 147.453933 310.095693 
L 148.958652 310.634318 
L 149.711011 309.779365 
L 150.463371 310.071399 
L 152.720449 309.751398 
L 154.977528 310.588414 
L 155.729888 310.636449 
L 156.482247 310.85203 
L 157.234607 310.942894 
L 157.986966 310.408238 
L 160.996404 311.374995 
L 163.253483 311.980444 
L 164.005843 311.84591 
L 164.758202 311.849268 
L 165.510562 311.592261 
L 166.262921 311.728024 
L 167.015281 311.715106 
L 168.52 312.095837 
L 169.27236 311.689106 
L 170.024719 311.885653 
L 170.777079 311.839599 
L 172.281798 312.208192 
L 173.034157 311.741324 
L 175.291236 312.294526 
L 176.043596 311.894468 
L 177.548315 308.937061 
L 178.300674 308.119751 
L 179.053034 307.854191 
L 179.805393 307.120935 
L 180.557753 306.13929 
L 181.310112 305.376797 
L 182.062472 305.212388 
L 182.814831 304.61984 
L 183.567191 304.359001 
L 184.319551 303.973868 
L 185.07191 303.456862 
L 185.82427 302.802971 
L 186.576629 301.948519 
L 188.081348 299.008143 
L 188.833708 297.942851 
L 189.586067 297.800091 
L 190.338427 298.484979 
L 191.090787 299.341732 
L 191.843146 299.795966 
L 192.595506 299.345872 
L 193.347865 299.108357 
L 194.100225 299.047459 
L 194.852584 299.376986 
L 195.604944 299.046499 
L 196.357303 298.552398 
L 197.109663 298.788395 
L 197.862022 298.341859 
L 199.366742 296.040463 
L 200.119101 295.611746 
L 203.128539 297.715151 
L 204.633258 297.008149 
L 205.385618 296.916808 
L 206.137978 297.073917 
L 206.890337 296.278136 
L 207.642697 296.388807 
L 208.395056 296.990285 
L 209.147416 296.435514 
L 209.899775 296.82058 
L 211.404494 296.309947 
L 212.156854 296.581458 
L 212.909213 297.466638 
L 213.661573 297.889217 
L 214.413933 296.841248 
L 215.166292 296.929337 
L 215.918652 297.193211 
L 216.671011 297.802476 
L 217.423371 297.327978 
L 218.17573 296.142198 
L 218.92809 296.286777 
L 220.432809 295.731416 
L 221.185169 295.076373 
L 221.937528 295.87188 
L 222.689888 296.105485 
L 223.442247 296.019248 
L 224.194607 296.222442 
L 224.946966 296.772501 
L 225.699326 296.2676 
L 226.451685 296.303596 
L 227.204045 295.867937 
L 227.956404 295.888796 
L 229.461124 296.513888 
L 230.213483 296.557667 
L 230.965843 296.34178 
L 231.718202 296.304378 
L 232.470562 297.270162 
L 233.222921 297.602335 
L 233.975281 298.467632 
L 234.72764 297.961082 
L 235.48 297.792161 
L 236.23236 297.791152 
L 236.984719 297.599316 
L 237.737079 297.119428 
L 238.489438 297.083182 
L 239.241798 297.336453 
L 240.746517 298.760064 
L 241.498876 298.897984 
L 242.251236 298.832748 
L 243.003596 299.000931 
L 243.755955 298.436077 
L 244.508315 298.905957 
L 245.260674 299.579325 
L 246.765393 300.172232 
L 247.517753 299.62219 
L 248.270112 299.215674 
L 249.022472 299.765819 
L 249.774831 298.858911 
L 250.527191 299.200398 
L 255.793708 304.066238 
L 258.050787 305.7141 
L 260.307865 307.126935 
L 261.812584 307.955013 
L 263.317303 308.587416 
L 264.069663 308.939047 
L 264.822022 308.880655 
L 267.079101 309.775795 
L 270.088539 310.859866 
L 273.850337 311.936708 
L 275.355056 312.295834 
L 276.107416 312.00079 
L 279.869213 312.819533 
L 284.383371 313.561411 
L 287.392809 313.943273 
L 288.897528 312.807029 
L 289.649888 312.590792 
L 292.659326 313.152699 
L 293.411685 312.667355 
L 295.668764 313.088481 
L 296.421124 312.732705 
L 299.430562 313.214609 
L 300.182921 313.33488 
L 300.935281 313.249967 
L 303.19236 313.544145 
L 303.944719 313.141366 
L 306.201798 313.364855 
L 308.458876 313.682783 
L 309.211236 313.650594 
L 309.963596 312.777675 
L 314.477753 313.530641 
L 317.487191 313.918211 
L 318.239551 313.673053 
L 319.74427 313.862885 
L 320.496629 313.247078 
L 322.001348 313.478442 
L 322.753708 313.226315 
L 327.267865 313.860433 
L 328.772584 314.031994 
L 329.524944 313.845127 
L 330.277303 313.121274 
L 331.029663 313.162325 
L 331.782022 312.774456 
L 332.534382 312.525594 
L 334.039101 312.827302 
L 335.54382 312.765204 
L 340.057978 313.521473 
L 343.819775 313.941039 
L 347.581573 314.320861 
L 348.333933 314.117157 
L 359.619326 314.823415 
L 361.124045 314.823036 
L 366.390562 314.998465 
L 367.142921 314.809569 
L 372.409438 315.054058 
L 373.161798 314.787284 
L 376.923596 314.975669 
L 378.428315 314.821468 
L 379.180674 314.547838 
L 381.437753 314.700761 
L 382.942472 314.688356 
L 388.208989 314.969411 
L 389.713708 314.953495 
L 391.218427 315.018483 
L 391.970787 314.005526 
L 392.723146 313.788556 
L 393.475506 313.72008 
L 394.227865 313.815078 
L 394.980225 313.616324 
L 397.237303 313.900591 
L 397.989663 313.70288 
L 401.751461 314.136578 
L 401.751461 314.136578 
" clip-path="url(#pc8b377d5ac)" style="fill: none; stroke: #ff0000; stroke-width: 5; stroke-linecap: square"/>
   </g>
   <g id="patch_3">
    <path d="M 101.56 336.640156 
L 101.56 31.720156 
" style="fill: none; stroke: #000000; stroke-width: 5; stroke-linejoin: miter; stroke-linecap: square"/>
   </g>
   <g id="patch_4">
    <path d="M 101.56 336.640156 
L 402.50382 336.640156 
" style="fill: none; stroke: #000000; stroke-width: 5; stroke-linejoin: miter; stroke-linecap: square"/>
   </g>
   <g id="text_11">
    <!-- A -->
    <g transform="translate(65.446742 16.444681) scale(0.12 -0.12)">
     <defs>
      <path id="DejaVuSans-Bold-41" d="M 3419 850 
L 1538 850 
L 1241 0 
L 31 0 
L 1759 4666 
L 3194 4666 
L 4922 0 
L 3713 0 
L 3419 850 
z
M 1838 1716 
L 3116 1716 
L 2478 3572 
L 1838 1716 
z
" transform="scale(0.015625)"/>
     </defs>
     <use xlink:href="#DejaVuSans-Bold-41"/>
    </g>
   </g>
   <g id="patch_5">
    <path d="M 176.795955 330.541756 
L 252.03191 330.541756 
L 252.03191 319.869556 
L 176.795955 319.869556 
z
" style="fill: #8c5a2b; stroke: #8c5a2b; stroke-linejoin: miter"/>
   </g>
   <g id="text_12">
    <!-- Familiar | Naive -->
    <g transform="translate(178.439566 21.720156) scale(0.19 -0.19)">
     <defs>
      <path id="DejaVuSans-46" d="M 628 4666 
L 3309 4666 
L 3309 4134 
L 1259 4134 
L 1259 2759 
L 3109 2759 
L 3109 2228 
L 1259 2228 
L 1259 0 
L 628 0 
L 628 4666 
z
" transform="scale(0.015625)"/>
      <path id="DejaVuSans-7c" d="M 1344 4891 
L 1344 -1509 
L 813 -1509 
L 813 4891 
L 1344 4891 
z
" transform="scale(0.015625)"/>
     </defs>
     <use xlink:href="#DejaVuSans-46"/>
     <use xlink:href="#DejaVuSans-61" transform="translate(48.394531 0)"/>
     <use xlink:href="#DejaVuSans-6d" transform="translate(109.673828 0)"/>
     <use xlink:href="#DejaVuSans-69" transform="translate(207.085938 0)"/>
     <use xlink:href="#DejaVuSans-6c" transform="translate(234.869141 0)"/>
     <use xlink:href="#DejaVuSans-69" transform="translate(262.652344 0)"/>
     <use xlink:href="#DejaVuSans-61" transform="translate(290.435547 0)"/>
     <use xlink:href="#DejaVuSans-72" transform="translate(351.714844 0)"/>
     <use xlink:href="#DejaVuSans-20" transform="translate(392.828125 0)"/>
     <use xlink:href="#DejaVuSans-7c" transform="translate(424.615234 0)"/>
     <use xlink:href="#DejaVuSans-20" transform="translate(458.306641 0)"/>
     <use xlink:href="#DejaVuSans-4e" transform="translate(490.09375 0)"/>
     <use xlink:href="#DejaVuSans-61" transform="translate(564.898438 0)"/>
     <use xlink:href="#DejaVuSans-69" transform="translate(626.177734 0)"/>
     <use xlink:href="#DejaVuSans-76" transform="translate(653.960938 0)"/>
     <use xlink:href="#DejaVuSans-65" transform="translate(713.140625 0)"/>
    </g>
   </g>
   <g id="legend_1">
    <g id="line2d_11">
     <path d="M 110.56 46.867813 
L 125.56 46.867813 
L 140.56 46.867813 
" style="fill: none; stroke: #000000; stroke-width: 5; stroke-linecap: square"/>
    </g>
    <g id="text_13">
     <!-- Nonoccluded (NO) -->
     <g transform="translate(152.56 52.117813) scale(0.15 -0.15)">
      <defs>
       <path id="DejaVuSans-6f" d="M 1959 3097 
Q 1497 3097 1228 2736 
Q 959 2375 959 1747 
Q 959 1119 1226 758 
Q 1494 397 1959 397 
Q 2419 397 2687 759 
Q 2956 1122 2956 1747 
Q 2956 2369 2687 2733 
Q 2419 3097 1959 3097 
z
M 1959 3584 
Q 2709 3584 3137 3096 
Q 3566 2609 3566 1747 
Q 3566 888 3137 398 
Q 2709 -91 1959 -91 
Q 1206 -91 779 398 
Q 353 888 353 1747 
Q 353 2609 779 3096 
Q 1206 3584 1959 3584 
z
" transform="scale(0.015625)"/>
       <path id="DejaVuSans-6e" d="M 3513 2113 
L 3513 0 
L 2938 0 
L 2938 2094 
Q 2938 2591 2744 2837 
Q 2550 3084 2163 3084 
Q 1697 3084 1428 2787 
Q 1159 2491 1159 1978 
L 1159 0 
L 581 0 
L 581 3500 
L 1159 3500 
L 1159 2956 
Q 1366 3272 1645 3428 
Q 1925 3584 2291 3584 
Q 2894 3584 3203 3211 
Q 3513 2838 3513 2113 
z
" transform="scale(0.015625)"/>
       <path id="DejaVuSans-64" d="M 2906 2969 
L 2906 4863 
L 3481 4863 
L 3481 0 
L 2906 0 
L 2906 525 
Q 2725 213 2448 61 
Q 2172 -91 1784 -91 
Q 1150 -91 751 415 
Q 353 922 353 1747 
Q 353 2572 751 3078 
Q 1150 3584 1784 3584 
Q 2172 3584 2448 3432 
Q 2725 3281 2906 2969 
z
M 947 1747 
Q 947 1113 1208 752 
Q 1469 391 1925 391 
Q 2381 391 2643 752 
Q 2906 1113 2906 1747 
Q 2906 2381 2643 2742 
Q 2381 3103 1925 3103 
Q 1469 3103 1208 2742 
Q 947 2381 947 1747 
z
" transform="scale(0.015625)"/>
       <path id="DejaVuSans-4f" d="M 2522 4238 
Q 1834 4238 1429 3725 
Q 1025 3213 1025 2328 
Q 1025 1447 1429 934 
Q 1834 422 2522 422 
Q 3209 422 3611 934 
Q 4013 1447 4013 2328 
Q 4013 3213 3611 3725 
Q 3209 4238 2522 4238 
z
M 2522 4750 
Q 3503 4750 4090 4092 
Q 4678 3434 4678 2328 
Q 4678 1225 4090 567 
Q 3503 -91 2522 -91 
Q 1538 -91 948 565 
Q 359 1222 359 2328 
Q 359 3434 948 4092 
Q 1538 4750 2522 4750 
z
" transform="scale(0.015625)"/>
      </defs>
      <use xlink:href="#DejaVuSans-4e"/>
      <use xlink:href="#DejaVuSans-6f" transform="translate(74.804688 0)"/>
      <use xlink:href="#DejaVuSans-6e" transform="translate(135.986328 0)"/>
      <use xlink:href="#DejaVuSans-6f" transform="translate(199.365234 0)"/>
      <use xlink:href="#DejaVuSans-63" transform="translate(260.546875 0)"/>
      <use xlink:href="#DejaVuSans-63" transform="translate(315.527344 0)"/>
      <use xlink:href="#DejaVuSans-6c" transform="translate(370.507812 0)"/>
      <use xlink:href="#DejaVuSans-75" transform="translate(398.291016 0)"/>
      <use xlink:href="#DejaVuSans-64" transform="translate(461.669922 0)"/>
      <use xlink:href="#DejaVuSans-65" transform="translate(525.146484 0)"/>
      <use xlink:href="#DejaVuSans-64" transform="translate(586.669922 0)"/>
      <use xlink:href="#DejaVuSans-20" transform="translate(650.146484 0)"/>
      <use xlink:href="#DejaVuSans-28" transform="translate(681.933594 0)"/>
      <use xlink:href="#DejaVuSans-4e" transform="translate(720.947266 0)"/>
      <use xlink:href="#DejaVuSans-4f" transform="translate(795.751953 0)"/>
      <use xlink:href="#DejaVuSans-29" transform="translate(874.462891 0)"/>
     </g>
    </g>
    <g id="line2d_12">
     <path d="M 110.56 68.885 
L 125.56 68.885 
L 140.56 68.885 
" style="fill: none; stroke: #ff0000; stroke-width: 5; stroke-linecap: square"/>
    </g>
    <g id="text_14">
     <!-- Occluded (O) -->
     <g transform="translate(152.56 74.135) scale(0.15 -0.15)">
      <use xlink:href="#DejaVuSans-4f"/>
      <use xlink:href="#DejaVuSans-63" transform="translate(78.710938 0)"/>
      <use xlink:href="#DejaVuSans-63" transform="translate(133.691406 0)"/>
      <use xlink:href="#DejaVuSans-6c" transform="translate(188.671875 0)"/>
      <use xlink:href="#DejaVuSans-75" transform="translate(216.455078 0)"/>
      <use xlink:href="#DejaVuSans-64" transform="translate(279.833984 0)"/>
      <use xlink:href="#DejaVuSans-65" transform="translate(343.310547 0)"/>
      <use xlink:href="#DejaVuSans-64" transform="translate(404.833984 0)"/>
      <use xlink:href="#DejaVuSans-20" transform="translate(468.310547 0)"/>
      <use xlink:href="#DejaVuSans-28" transform="translate(500.097656 0)"/>
      <use xlink:href="#DejaVuSans-4f" transform="translate(539.111328 0)"/>
      <use xlink:href="#DejaVuSans-29" transform="translate(617.822266 0)"/>
     </g>
    </g>
    <g id="line2d_13">
     <path d="M 110.56 90.902188 
L 125.56 90.902188 
L 140.56 90.902188 
" style="fill: none; stroke: #0000ff; stroke-width: 5; stroke-linecap: square"/>
    </g>
    <g id="text_15">
     <!-- No feedback -->
     <g transform="translate(152.56 96.152188) scale(0.15 -0.15)">
      <defs>
       <path id="DejaVuSans-66" d="M 2375 4863 
L 2375 4384 
L 1825 4384 
Q 1516 4384 1395 4259 
Q 1275 4134 1275 3809 
L 1275 3500 
L 2222 3500 
L 2222 3053 
L 1275 3053 
L 1275 0 
L 697 0 
L 697 3053 
L 147 3053 
L 147 3500 
L 697 3500 
L 697 3744 
Q 697 4328 969 4595 
Q 1241 4863 1831 4863 
L 2375 4863 
z
" transform="scale(0.015625)"/>
       <path id="DejaVuSans-62" d="M 3116 1747 
Q 3116 2381 2855 2742 
Q 2594 3103 2138 3103 
Q 1681 3103 1420 2742 
Q 1159 2381 1159 1747 
Q 1159 1113 1420 752 
Q 1681 391 2138 391 
Q 2594 391 2855 752 
Q 3116 1113 3116 1747 
z
M 1159 2969 
Q 1341 3281 1617 3432 
Q 1894 3584 2278 3584 
Q 2916 3584 3314 3078 
Q 3713 2572 3713 1747 
Q 3713 922 3314 415 
Q 2916 -91 2278 -91 
Q 1894 -91 1617 61 
Q 1341 213 1159 525 
L 1159 0 
L 581 0 
L 581 4863 
L 1159 4863 
L 1159 2969 
z
" transform="scale(0.015625)"/>
       <path id="DejaVuSans-6b" d="M 581 4863 
L 1159 4863 
L 1159 1991 
L 2875 3500 
L 3609 3500 
L 1753 1863 
L 3688 0 
L 2938 0 
L 1159 1709 
L 1159 0 
L 581 0 
L 581 4863 
z
" transform="scale(0.015625)"/>
      </defs>
      <use xlink:href="#DejaVuSans-4e"/>
      <use xlink:href="#DejaVuSans-6f" transform="translate(74.804688 0)"/>
      <use xlink:href="#DejaVuSans-20" transform="translate(135.986328 0)"/>
      <use xlink:href="#DejaVuSans-66" transform="translate(167.773438 0)"/>
      <use xlink:href="#DejaVuSans-65" transform="translate(202.978516 0)"/>
      <use xlink:href="#DejaVuSans-65" transform="translate(264.501953 0)"/>
      <use xlink:href="#DejaVuSans-64" transform="translate(326.025391 0)"/>
      <use xlink:href="#DejaVuSans-62" transform="translate(389.501953 0)"/>
      <use xlink:href="#DejaVuSans-61" transform="translate(452.978516 0)"/>
      <use xlink:href="#DejaVuSans-63" transform="translate(514.257812 0)"/>
      <use xlink:href="#DejaVuSans-6b" transform="translate(569.238281 0)"/>
     </g>
    </g>
   </g>
  </g>
  <g id="axes_2">
   <g id="patch_6">
    <path d="M 447.645393 336.640156 
L 748.589213 336.640156 
L 748.589213 31.720156 
L 447.645393 31.720156 
z
" style="fill: #ffffff"/>
   </g>
   <g id="matplotlib.axis_3">
    <g id="xtick_6">
     <g id="line2d_14">
      <g>
       <use xlink:href="#m48ea32176a" x="447.645393" y="336.640156" style="stroke: #000000; stroke-width: 1.6"/>
      </g>
     </g>
     <g id="text_16">
      <!-- -1 -->
      <g transform="translate(431.692893 369.455156) scale(0.32 -0.32)">
       <use xlink:href="#DejaVuSans-2d"/>
       <use xlink:href="#DejaVuSans-31" transform="translate(36.083984 0)"/>
      </g>
     </g>
    </g>
    <g id="xtick_7">
     <g id="line2d_15">
      <g>
       <use xlink:href="#m48ea32176a" x="522.881348" y="336.640156" style="stroke: #000000; stroke-width: 1.6"/>
      </g>
     </g>
     <g id="text_17">
      <!-- 0 -->
      <g transform="translate(512.701348 369.455156) scale(0.32 -0.32)">
       <use xlink:href="#DejaVuSans-30"/>
      </g>
     </g>
    </g>
    <g id="xtick_8">
     <g id="line2d_16">
      <g>
       <use xlink:href="#m48ea32176a" x="598.117303" y="336.640156" style="stroke: #000000; stroke-width: 1.6"/>
      </g>
     </g>
     <g id="text_18">
      <!-- 1 -->
      <g transform="translate(587.937303 369.455156) scale(0.32 -0.32)">
       <use xlink:href="#DejaVuSans-31"/>
      </g>
     </g>
    </g>
    <g id="xtick_9">
     <g id="line2d_17">
      <g>
       <use xlink:href="#m48ea32176a" x="673.353258" y="336.640156" style="stroke: #000000; stroke-width: 1.6"/>
      </g>
     </g>
     <g id="text_19">
      <!-- 2 -->
      <g transform="translate(663.173258 369.455156) scale(0.32 -0.32)">
       <use xlink:href="#DejaVuSans-32"/>
      </g>
     </g>
    </g>
    <g id="xtick_10">
     <g id="line2d_18">
      <g>
       <use xlink:href="#m48ea32176a" x="748.589213" y="336.640156" style="stroke: #000000; stroke-width: 1.6"/>
      </g>
     </g>
     <g id="text_20">
      <!-- 3 -->
      <g transform="translate(738.409213 369.455156) scale(0.32 -0.32)">
       <use xlink:href="#DejaVuSans-33"/>
      </g>
     </g>
    </g>
    <g id="text_21">
     <!-- Time (s) -->
     <g transform="translate(533.064803 404.425156) scale(0.32 -0.32)">
      <use xlink:href="#DejaVuSans-54"/>
      <use xlink:href="#DejaVuSans-69" transform="translate(57.958984 0)"/>
      <use xlink:href="#DejaVuSans-6d" transform="translate(85.742188 0)"/>
      <use xlink:href="#DejaVuSans-65" transform="translate(183.154297 0)"/>
      <use xlink:href="#DejaVuSans-20" transform="translate(244.677734 0)"/>
      <use xlink:href="#DejaVuSans-28" transform="translate(276.464844 0)"/>
      <use xlink:href="#DejaVuSans-73" transform="translate(315.478516 0)"/>
      <use xlink:href="#DejaVuSans-29" transform="translate(367.578125 0)"/>
     </g>
    </g>
   </g>
   <g id="matplotlib.axis_4">
    <g id="ytick_4">
     <g id="line2d_19">
      <g>
       <use xlink:href="#m80e9e68a5d" x="447.645393" y="315.62004" style="stroke: #000000; stroke-width: 1.6"/>
      </g>
     </g>
    </g>
    <g id="ytick_5">
     <g id="line2d_20">
      <g>
       <use xlink:href="#m80e9e68a5d" x="447.645393" y="192.176903" style="stroke: #000000; stroke-width: 1.6"/>
      </g>
     </g>
    </g>
    <g id="ytick_6">
     <g id="line2d_21">
      <g>
       <use xlink:href="#m80e9e68a5d" x="447.645393" y="68.733765" style="stroke: #000000; stroke-width: 1.6"/>
      </g>
     </g>
    </g>
   </g>
   <g id="line2d_22">
    <path d="M 448.397753 312.168182 
L 449.150112 312.161747 
L 450.654831 312.498931 
L 451.407191 311.950993 
L 455.168989 312.781002 
L 459.683146 313.533086 
L 463.444944 314.005195 
L 464.197303 312.96418 
L 464.949663 311.6974 
L 468.711461 312.584776 
L 473.225618 313.388843 
L 473.977978 313.500403 
L 474.730337 311.68233 
L 478.492135 312.573116 
L 483.006292 313.380271 
L 488.272809 314.055926 
L 491.282247 314.34606 
L 492.786966 312.58666 
L 496.548764 313.272869 
L 497.301124 313.139333 
L 499.558202 313.493144 
L 500.310562 313.076574 
L 501.062921 312.446784 
L 503.32 312.89937 
L 504.07236 312.869702 
L 504.824719 312.127284 
L 508.586517 312.917412 
L 510.091236 313.180919 
L 510.843596 312.694897 
L 511.595955 311.450495 
L 515.357753 312.393726 
L 519.87191 313.248403 
L 524.386067 313.876669 
L 530.404944 314.463453 
L 537.17618 314.891102 
L 546.204494 315.226151 
L 558.994607 315.455347 
L 580.060674 315.580872 
L 601.879101 315.611191 
L 602.631461 314.692806 
L 610.907416 315.09263 
L 611.659775 313.212366 
L 614.669213 313.658975 
L 615.421573 313.492791 
L 617.678652 313.79619 
L 618.431011 313.347431 
L 623.697528 314.032992 
L 626.706966 314.32738 
L 627.459326 312.127438 
L 629.716404 312.62557 
L 630.468764 310.734536 
L 631.221124 310.014155 
L 634.230562 311.054011 
L 634.982921 309.521664 
L 635.735281 307.379038 
L 638.744719 308.907693 
L 641.754157 310.152791 
L 642.506517 309.898158 
L 643.258876 310.184252 
L 644.011236 309.240863 
L 644.763596 309.183944 
L 645.515955 308.27652 
L 646.268315 308.643696 
L 647.020674 306.336966 
L 649.277753 307.660965 
L 652.287191 309.137324 
L 653.039551 309.46146 
L 653.79191 308.550544 
L 656.801348 309.861892 
L 659.810787 310.929993 
L 660.563146 311.164495 
L 661.315506 310.958683 
L 662.067865 309.840081 
L 665.077303 310.912228 
L 665.829663 310.298516 
L 668.839101 311.285626 
L 672.600899 312.266154 
L 674.105618 312.593158 
L 674.857978 312.547118 
L 679.372135 313.36116 
L 684.638652 314.04258 
L 688.400449 314.339336 
L 689.152809 312.113695 
L 690.657528 312.455564 
L 691.409888 311.156657 
L 692.162247 310.543926 
L 693.666966 311.038847 
L 694.419326 309.756162 
L 697.428764 310.843875 
L 698.181124 310.173677 
L 701.190562 311.183944 
L 704.2 312.006812 
L 704.95236 311.513611 
L 705.704719 311.718933 
L 706.457079 311.069294 
L 710.218876 312.09876 
L 712.475955 312.600982 
L 713.228315 311.611989 
L 713.980674 311.568708 
L 717.742472 312.485196 
L 719.247191 312.790844 
L 719.999551 310.793737 
L 720.75191 311.035052 
L 721.50427 310.713101 
L 724.513708 311.623308 
L 725.266067 309.657355 
L 728.275506 310.763396 
L 732.037303 311.862062 
L 735.799101 312.712188 
L 740.313258 313.482502 
L 741.065618 311.654498 
L 744.827416 312.551579 
L 745.579775 311.733084 
L 747.836854 312.263193 
L 747.836854 312.263193 
" clip-path="url(#pfdc6db758c)" style="fill: none; stroke: #000000; stroke-width: 5; stroke-linecap: square"/>
   </g>
   <g id="line2d_23">
    <path d="M 448.397753 315.160486 
L 451.407191 315.245731 
L 452.159551 313.937435 
L 458.178427 314.503766 
L 459.683146 314.612602 
L 460.435506 314.468871 
L 464.197303 314.729287 
L 464.949663 314.6493 
L 465.702022 314.697837 
L 466.454382 314.018071 
L 472.473258 314.557261 
L 475.482697 314.7544 
L 476.235056 314.181708 
L 479.244494 314.44851 
L 479.996854 314.336671 
L 480.749213 313.999298 
L 481.501573 313.079121 
L 482.253933 313.206167 
L 483.006292 312.102029 
L 483.758652 312.27793 
L 484.511011 312.21288 
L 485.263371 311.868538 
L 486.01573 310.412164 
L 486.76809 310.408199 
L 487.520449 310.668791 
L 489.025169 309.570845 
L 491.282247 310.433612 
L 492.034607 309.793949 
L 492.786966 309.449417 
L 493.539326 309.757949 
L 494.291685 309.844131 
L 496.548764 310.66792 
L 497.301124 310.708774 
L 501.062921 311.819796 
L 504.07236 312.524718 
L 504.824719 311.609984 
L 505.577079 311.649728 
L 506.329438 310.164789 
L 507.081798 310.437552 
L 507.834157 310.414615 
L 508.586517 309.300893 
L 510.091236 309.917011 
L 510.843596 308.65635 
L 511.595955 307.97508 
L 514.605393 309.393173 
L 515.357753 307.926839 
L 516.110112 308.311499 
L 516.862472 307.495431 
L 517.614831 304.769878 
L 519.119551 305.6994 
L 521.376629 307.114332 
L 522.128989 307.539617 
L 523.633708 271.873772 
L 525.890787 224.244535 
L 527.395506 193.708543 
L 528.900225 168.139672 
L 530.404944 147.374257 
L 531.157303 141.180621 
L 532.662022 125.374022 
L 533.414382 120.265549 
L 534.919101 108.431105 
L 536.42382 98.407614 
L 537.17618 96.266075 
L 537.928539 90.278807 
L 538.680899 87.779368 
L 540.185618 77.303998 
L 540.937978 72.750468 
L 542.442697 68.250116 
L 543.195056 67.276975 
L 543.947416 65.251947 
L 544.699775 62.423707 
L 545.452135 57.648505 
L 546.204494 55.093625 
L 546.956854 55.716608 
L 547.709213 55.339908 
L 548.461573 55.144136 
L 549.213933 54.719536 
L 549.966292 53.273088 
L 550.718652 54.332204 
L 551.471011 55.987853 
L 552.223371 56.005309 
L 553.72809 52.749122 
L 554.480449 54.052222 
L 555.232809 54.851609 
L 555.985169 53.16171 
L 556.737528 53.575695 
L 557.489888 53.750277 
L 558.242247 57.791393 
L 558.994607 60.195586 
L 559.746966 60.109573 
L 560.499326 59.53219 
L 561.251685 60.146123 
L 562.004045 61.781869 
L 562.756404 61.887306 
L 563.508764 61.255015 
L 564.261124 62.892306 
L 565.013483 64.987453 
L 565.765843 64.553418 
L 566.518202 65.758696 
L 567.270562 67.413333 
L 568.022921 68.667376 
L 568.775281 67.802137 
L 569.52764 65.842409 
L 570.28 66.995411 
L 571.03236 68.990529 
L 571.784719 70.469794 
L 572.537079 71.631698 
L 573.289438 69.191802 
L 574.041798 69.006202 
L 574.794157 68.159928 
L 576.298876 72.650218 
L 577.051236 73.412705 
L 577.803596 75.363456 
L 578.555955 75.02498 
L 579.308315 75.525548 
L 580.060674 77.821269 
L 580.813034 76.883206 
L 581.565393 80.038243 
L 582.317753 80.48635 
L 583.070112 81.217567 
L 583.822472 80.287212 
L 584.574831 82.110415 
L 585.327191 84.31558 
L 586.079551 85.295564 
L 586.83191 84.774632 
L 587.58427 85.882991 
L 588.336629 85.37019 
L 589.088989 89.669086 
L 589.841348 90.036 
L 591.346067 93.907666 
L 592.098427 94.352573 
L 592.850787 94.183951 
L 593.603146 93.293843 
L 594.355506 94.482291 
L 595.107865 95.108512 
L 596.612584 95.265472 
L 597.364944 96.606373 
L 599.622022 127.843203 
L 601.879101 154.624875 
L 604.13618 177.586819 
L 606.393258 197.273813 
L 608.650337 214.152947 
L 610.907416 228.624697 
L 613.164494 241.03241 
L 615.421573 251.670469 
L 617.678652 260.79128 
L 619.93573 268.611229 
L 622.192809 275.315859 
L 624.449888 281.064245 
L 626.706966 285.992765 
L 628.964045 290.218354 
L 631.221124 293.84127 
L 633.478202 296.947469 
L 635.735281 299.610645 
L 637.99236 301.893985 
L 640.249438 303.851665 
L 642.506517 305.530131 
L 644.763596 306.969205 
L 647.773034 308.573881 
L 650.782472 309.880899 
L 653.79191 310.945475 
L 657.553708 312.002951 
L 661.315506 312.821206 
L 665.829663 313.56264 
L 671.09618 314.183281 
L 677.115056 314.666865 
L 684.638652 315.049339 
L 695.171685 315.341724 
L 710.971236 315.525256 
L 737.30382 315.582131 
L 738.05618 315.366244 
L 738.808539 315.009252 
L 747.836854 315.289994 
L 747.836854 315.289994 
" clip-path="url(#pfdc6db758c)" style="fill: none; stroke: #ff0000; stroke-width: 5; stroke-linecap: square"/>
   </g>
   <g id="patch_7">
    <path d="M 447.645393 336.640156 
L 447.645393 31.720156 
" style="fill: none; stroke: #000000; stroke-width: 5; stroke-linejoin: miter; stroke-linecap: square"/>
   </g>
   <g id="patch_8">
    <path d="M 447.645393 336.640156 
L 748.589213 336.640156 
" style="fill: none; stroke: #000000; stroke-width: 5; stroke-linejoin: miter; stroke-linecap: square"/>
   </g>
   <g id="patch_9">
    <path d="M 522.881348 330.541756 
L 598.117303 330.541756 
L 598.117303 319.869556 
L 522.881348 319.869556 
z
" style="fill: #8c5a2b; stroke: #8c5a2b; stroke-linejoin: miter"/>
   </g>
   <g id="text_22">
    <!-- Familiar | Expert -->
    <g transform="translate(520.429569 21.720156) scale(0.19 -0.19)">
     <defs>
      <path id="DejaVuSans-45" d="M 628 4666 
L 3578 4666 
L 3578 4134 
L 1259 4134 
L 1259 2753 
L 3481 2753 
L 3481 2222 
L 1259 2222 
L 1259 531 
L 3634 531 
L 3634 0 
L 628 0 
L 628 4666 
z
" transform="scale(0.015625)"/>
      <path id="DejaVuSans-78" d="M 3513 3500 
L 2247 1797 
L 3578 0 
L 2900 0 
L 1881 1375 
L 863 0 
L 184 0 
L 1544 1831 
L 300 3500 
L 978 3500 
L 1906 2253 
L 2834 3500 
L 3513 3500 
z
" transform="scale(0.015625)"/>
      <path id="DejaVuSans-70" d="M 1159 525 
L 1159 -1331 
L 581 -1331 
L 581 3500 
L 1159 3500 
L 1159 2969 
Q 1341 3281 1617 3432 
Q 1894 3584 2278 3584 
Q 2916 3584 3314 3078 
Q 3713 2572 3713 1747 
Q 3713 922 3314 415 
Q 2916 -91 2278 -91 
Q 1894 -91 1617 61 
Q 1341 213 1159 525 
z
M 3116 1747 
Q 3116 2381 2855 2742 
Q 2594 3103 2138 3103 
Q 1681 3103 1420 2742 
Q 1159 2381 1159 1747 
Q 1159 1113 1420 752 
Q 1681 391 2138 391 
Q 2594 391 2855 752 
Q 3116 1113 3116 1747 
z
" transform="scale(0.015625)"/>
     </defs>
     <use xlink:href="#DejaVuSans-46"/>
     <use xlink:href="#DejaVuSans-61" transform="translate(48.394531 0)"/>
     <use xlink:href="#DejaVuSans-6d" transform="translate(109.673828 0)"/>
     <use xlink:href="#DejaVuSans-69" transform="translate(207.085938 0)"/>
     <use xlink:href="#DejaVuSans-6c" transform="translate(234.869141 0)"/>
     <use xlink:href="#DejaVuSans-69" transform="translate(262.652344 0)"/>
     <use xlink:href="#DejaVuSans-61" transform="translate(290.435547 0)"/>
     <use xlink:href="#DejaVuSans-72" transform="translate(351.714844 0)"/>
     <use xlink:href="#DejaVuSans-20" transform="translate(392.828125 0)"/>
     <use xlink:href="#DejaVuSans-7c" transform="translate(424.615234 0)"/>
     <use xlink:href="#DejaVuSans-20" transform="translate(458.306641 0)"/>
     <use xlink:href="#DejaVuSans-45" transform="translate(490.09375 0)"/>
     <use xlink:href="#DejaVuSans-78" transform="translate(553.277344 0)"/>
     <use xlink:href="#DejaVuSans-70" transform="translate(612.457031 0)"/>
     <use xlink:href="#DejaVuSans-65" transform="translate(675.933594 0)"/>
     <use xlink:href="#DejaVuSans-72" transform="translate(737.457031 0)"/>
     <use xlink:href="#DejaVuSans-74" transform="translate(778.570312 0)"/>
    </g>
   </g>
  </g>
  <g id="axes_3">
   <g id="patch_10">
    <path d="M 793.730787 336.640156 
L 1094.674607 336.640156 
L 1094.674607 31.720156 
L 793.730787 31.720156 
z
" style="fill: #ffffff"/>
   </g>
   <g id="matplotlib.axis_5">
    <g id="xtick_11">
     <g id="line2d_24">
      <g>
       <use xlink:href="#m48ea32176a" x="793.730787" y="336.640156" style="stroke: #000000; stroke-width: 1.6"/>
      </g>
     </g>
     <g id="text_23">
      <!-- -1 -->
      <g transform="translate(777.778287 369.455156) scale(0.32 -0.32)">
       <use xlink:href="#DejaVuSans-2d"/>
       <use xlink:href="#DejaVuSans-31" transform="translate(36.083984 0)"/>
      </g>
     </g>
    </g>
    <g id="xtick_12">
     <g id="line2d_25">
      <g>
       <use xlink:href="#m48ea32176a" x="868.966742" y="336.640156" style="stroke: #000000; stroke-width: 1.6"/>
      </g>
     </g>
     <g id="text_24">
      <!-- 0 -->
      <g transform="translate(858.786742 369.455156) scale(0.32 -0.32)">
       <use xlink:href="#DejaVuSans-30"/>
      </g>
     </g>
    </g>
    <g id="xtick_13">
     <g id="line2d_26">
      <g>
       <use xlink:href="#m48ea32176a" x="944.202697" y="336.640156" style="stroke: #000000; stroke-width: 1.6"/>
      </g>
     </g>
     <g id="text_25">
      <!-- 1 -->
      <g transform="translate(934.022697 369.455156) scale(0.32 -0.32)">
       <use xlink:href="#DejaVuSans-31"/>
      </g>
     </g>
    </g>
    <g id="xtick_14">
     <g id="line2d_27">
      <g>
       <use xlink:href="#m48ea32176a" x="1019.438652" y="336.640156" style="stroke: #000000; stroke-width: 1.6"/>
      </g>
     </g>
     <g id="text_26">
      <!-- 2 -->
      <g transform="translate(1009.258652 369.455156) scale(0.32 -0.32)">
       <use xlink:href="#DejaVuSans-32"/>
      </g>
     </g>
    </g>
    <g id="xtick_15">
     <g id="line2d_28">
      <g>
       <use xlink:href="#m48ea32176a" x="1094.674607" y="336.640156" style="stroke: #000000; stroke-width: 1.6"/>
      </g>
     </g>
     <g id="text_27">
      <!-- 3 -->
      <g transform="translate(1084.494607 369.455156) scale(0.32 -0.32)">
       <use xlink:href="#DejaVuSans-33"/>
      </g>
     </g>
    </g>
    <g id="text_28">
     <!-- Time (s) -->
     <g transform="translate(879.150197 404.425156) scale(0.32 -0.32)">
      <use xlink:href="#DejaVuSans-54"/>
      <use xlink:href="#DejaVuSans-69" transform="translate(57.958984 0)"/>
      <use xlink:href="#DejaVuSans-6d" transform="translate(85.742188 0)"/>
      <use xlink:href="#DejaVuSans-65" transform="translate(183.154297 0)"/>
      <use xlink:href="#DejaVuSans-20" transform="translate(244.677734 0)"/>
      <use xlink:href="#DejaVuSans-28" transform="translate(276.464844 0)"/>
      <use xlink:href="#DejaVuSans-73" transform="translate(315.478516 0)"/>
      <use xlink:href="#DejaVuSans-29" transform="translate(367.578125 0)"/>
     </g>
    </g>
   </g>
   <g id="matplotlib.axis_6">
    <g id="ytick_7">
     <g id="line2d_29">
      <g>
       <use xlink:href="#m80e9e68a5d" x="793.730787" y="315.62004" style="stroke: #000000; stroke-width: 1.6"/>
      </g>
     </g>
    </g>
    <g id="ytick_8">
     <g id="line2d_30">
      <g>
       <use xlink:href="#m80e9e68a5d" x="793.730787" y="192.176903" style="stroke: #000000; stroke-width: 1.6"/>
      </g>
     </g>
    </g>
    <g id="ytick_9">
     <g id="line2d_31">
      <g>
       <use xlink:href="#m80e9e68a5d" x="793.730787" y="68.733765" style="stroke: #000000; stroke-width: 1.6"/>
      </g>
     </g>
    </g>
   </g>
   <g id="line2d_32">
    <path d="M 794.483146 312.712955 
L 795.235506 311.982065 
L 797.492584 312.430413 
L 802.006742 313.275371 
L 804.26382 313.60978 
L 805.01618 313.455074 
L 805.768539 313.057312 
L 807.273258 313.307178 
L 808.025618 312.48538 
L 808.777978 312.422262 
L 811.035056 312.878345 
L 811.787416 312.274179 
L 815.549213 313.031076 
L 816.301573 313.160524 
L 817.053933 312.963273 
L 821.56809 313.667072 
L 826.082247 314.184429 
L 826.834607 314.02615 
L 828.339326 314.181555 
L 829.091685 313.864959 
L 830.596404 313.969189 
L 832.101124 314.130147 
L 832.853483 313.704414 
L 838.12 314.282287 
L 840.377079 314.473084 
L 841.129438 314.151883 
L 843.386517 314.361279 
L 844.138876 314.282156 
L 844.891236 313.594284 
L 847.148315 313.883208 
L 847.900674 313.669685 
L 849.405393 313.859845 
L 850.157753 312.651331 
L 853.919551 313.32291 
L 854.67191 313.201753 
L 855.42427 311.193376 
L 859.186067 312.194771 
L 859.938427 312.366035 
L 860.690787 312.106286 
L 861.443146 311.557824 
L 865.204944 312.476775 
L 868.214382 313.050386 
L 869.719101 292.436775 
L 871.97618 272.075868 
L 872.728539 266.805579 
L 873.480899 260.594395 
L 874.233258 256.607427 
L 876.490337 246.524297 
L 877.242697 242.449123 
L 877.995056 240.645537 
L 878.747416 238.390464 
L 879.499775 235.311498 
L 880.252135 235.384248 
L 881.004494 233.36392 
L 881.756854 229.549047 
L 882.509213 227.654509 
L 883.261573 227.232696 
L 884.766292 224.746851 
L 885.518652 223.85024 
L 886.271011 222.296948 
L 887.023371 219.756084 
L 887.77573 218.359935 
L 889.280449 214.673446 
L 890.032809 213.887653 
L 890.785169 214.321661 
L 891.537528 213.565649 
L 892.289888 212.298749 
L 893.042247 212.673821 
L 893.794607 213.192462 
L 894.546966 213.031372 
L 895.299326 212.077197 
L 896.051685 212.244807 
L 896.804045 212.745982 
L 897.556404 210.864349 
L 899.061124 209.40003 
L 899.813483 208.18274 
L 900.565843 209.194407 
L 901.318202 208.207499 
L 902.822921 210.676201 
L 903.575281 212.328814 
L 904.32764 213.291019 
L 905.08 214.90621 
L 905.83236 213.979818 
L 906.584719 214.292717 
L 907.337079 213.925325 
L 908.089438 214.35066 
L 909.594157 215.919827 
L 911.851236 215.548921 
L 912.603596 215.195922 
L 913.355955 216.018872 
L 914.108315 217.877559 
L 914.860674 217.641089 
L 915.613034 218.3514 
L 916.365393 218.459449 
L 917.870112 221.135245 
L 918.622472 221.136202 
L 919.374831 219.568589 
L 920.127191 218.491115 
L 921.63191 220.706038 
L 922.38427 219.928495 
L 923.136629 219.721346 
L 923.888989 219.807312 
L 924.641348 219.265513 
L 925.393708 218.279846 
L 926.146067 218.925859 
L 926.898427 218.149107 
L 927.650787 219.216179 
L 928.403146 219.205777 
L 929.155506 220.45018 
L 929.907865 221.421362 
L 930.660225 222.196725 
L 931.412584 223.74392 
L 932.164944 224.07251 
L 932.917303 225.347283 
L 933.669663 223.971607 
L 934.422022 224.218902 
L 935.174382 224.783318 
L 935.926742 223.454732 
L 936.679101 223.236859 
L 937.431461 224.405477 
L 938.18382 225.18738 
L 938.93618 227.226314 
L 939.688539 228.285246 
L 940.440899 228.951015 
L 941.193258 228.688342 
L 941.945618 228.941983 
L 942.697978 228.398114 
L 943.450337 227.684483 
L 945.707416 240.2263 
L 947.964494 250.979334 
L 950.221573 260.198716 
L 952.478652 268.103184 
L 954.73573 274.880278 
L 956.992809 280.690787 
L 959.249888 285.67257 
L 961.506966 289.943828 
L 963.764045 293.605899 
L 966.021124 296.745668 
L 968.278202 299.437626 
L 970.535281 301.745643 
L 972.79236 303.724479 
L 975.049438 305.421083 
L 977.306517 306.87571 
L 980.315955 308.497729 
L 983.325393 309.818873 
L 986.334831 310.894954 
L 990.096629 311.963859 
L 993.858427 312.790957 
L 998.372584 313.540404 
L 1003.639101 314.167753 
L 1009.657978 314.656563 
L 1014.924494 314.947208 
L 1015.676854 314.494617 
L 1023.200449 314.946208 
L 1023.952809 314.979899 
L 1024.705169 314.472578 
L 1031.476404 314.896853 
L 1034.485843 315.031 
L 1035.238202 314.23598 
L 1042.009438 314.747737 
L 1050.285393 315.123874 
L 1052.542472 315.19464 
L 1053.294831 314.964022 
L 1054.047191 314.885313 
L 1062.323146 315.202128 
L 1063.075506 314.436083 
L 1069.846742 314.873852 
L 1071.351461 314.946605 
L 1072.10382 314.844574 
L 1076.617978 315.050001 
L 1077.370337 314.913115 
L 1081.884494 315.100385 
L 1082.636854 314.751069 
L 1086.398652 314.947647 
L 1087.151011 314.375666 
L 1087.903371 314.437884 
L 1088.65573 313.33952 
L 1090.160449 313.561871 
L 1090.912809 312.698964 
L 1093.922247 313.240805 
L 1093.922247 313.240805 
" clip-path="url(#p3a70c34e7a)" style="fill: none; stroke: #000000; stroke-width: 5; stroke-linecap: square"/>
   </g>
   <g id="line2d_33">
    <path d="M 794.483146 312.240714 
L 795.235506 310.820848 
L 795.987865 310.316971 
L 796.740225 310.109155 
L 797.492584 309.648513 
L 798.244944 309.94709 
L 798.997303 309.749506 
L 799.749663 309.769416 
L 800.502022 309.643525 
L 802.006742 307.737129 
L 802.759101 307.881959 
L 804.26382 308.636422 
L 806.520899 309.247794 
L 807.273258 309.566407 
L 808.025618 309.578544 
L 808.777978 309.880619 
L 809.530337 309.943757 
L 811.787416 310.753338 
L 812.539775 310.416036 
L 814.796854 311.158257 
L 815.549213 310.71296 
L 818.558652 311.623193 
L 819.311011 311.031898 
L 820.063371 311.228118 
L 822.320449 309.726123 
L 826.082247 311.040266 
L 826.834607 310.656036 
L 827.586966 310.904236 
L 828.339326 310.665139 
L 831.348764 311.584242 
L 834.358202 312.284789 
L 837.36764 312.903457 
L 839.624719 312.168967 
L 840.377079 311.804442 
L 842.634157 312.348641 
L 843.386517 312.26642 
L 844.138876 311.848158 
L 845.643596 312.121117 
L 846.395955 312.296063 
L 847.148315 311.750785 
L 847.900674 311.666426 
L 851.662472 312.560809 
L 852.414831 312.076397 
L 853.167191 311.869744 
L 853.919551 312.057259 
L 854.67191 311.861948 
L 855.42427 311.923652 
L 856.928989 312.25232 
L 857.681348 311.95796 
L 859.186067 312.237974 
L 859.938427 312.407078 
L 860.690787 311.731055 
L 861.443146 310.553177 
L 862.195506 310.652928 
L 865.204944 311.574297 
L 868.214382 312.324757 
L 870.471461 308.790755 
L 871.22382 307.94947 
L 871.97618 307.406239 
L 873.480899 307.264124 
L 874.233258 306.401442 
L 874.985618 305.918864 
L 875.737978 305.242202 
L 877.242697 304.553559 
L 877.995056 304.748939 
L 878.747416 305.292494 
L 880.252135 305.584429 
L 881.004494 304.239913 
L 882.509213 302.263427 
L 883.261573 301.944878 
L 884.013933 301.227424 
L 884.766292 301.327474 
L 885.518652 300.748441 
L 886.271011 299.878304 
L 887.023371 299.206485 
L 887.77573 298.869489 
L 888.52809 299.146016 
L 889.280449 298.719446 
L 890.032809 297.916301 
L 890.785169 298.000362 
L 891.537528 298.414019 
L 892.289888 297.729213 
L 893.042247 297.711654 
L 893.794607 298.381744 
L 894.546966 298.083871 
L 895.299326 298.260499 
L 896.051685 299.011192 
L 896.804045 299.505687 
L 897.556404 299.390951 
L 898.308764 299.636337 
L 899.813483 299.082178 
L 900.565843 298.652793 
L 901.318202 297.46692 
L 902.070562 297.006707 
L 903.575281 296.892765 
L 904.32764 297.829129 
L 905.08 298.246993 
L 905.83236 298.315199 
L 906.584719 298.035608 
L 908.089438 298.055902 
L 908.841798 297.778833 
L 909.594157 298.415327 
L 910.346517 299.275563 
L 911.098876 299.896808 
L 911.851236 299.973015 
L 912.603596 299.363441 
L 913.355955 300.176272 
L 914.108315 299.945172 
L 914.860674 299.844011 
L 916.365393 300.59576 
L 917.117753 299.597738 
L 917.870112 299.589024 
L 918.622472 299.465243 
L 919.374831 298.919436 
L 920.127191 298.605091 
L 920.879551 297.816969 
L 921.63191 297.691509 
L 922.38427 297.211971 
L 923.136629 297.530021 
L 924.641348 297.946493 
L 925.393708 297.571763 
L 926.146067 297.497848 
L 926.898427 296.857898 
L 927.650787 297.243689 
L 928.403146 296.973145 
L 929.155506 296.250664 
L 931.412584 295.278562 
L 932.164944 295.080022 
L 932.917303 295.121002 
L 933.669663 295.868579 
L 934.422022 296.262351 
L 935.174382 296.328845 
L 935.926742 296.557808 
L 936.679101 296.511442 
L 937.431461 295.773088 
L 938.93618 295.178446 
L 939.688539 294.641516 
L 941.945618 296.142684 
L 942.697978 296.861551 
L 944.955056 299.536981 
L 947.212135 301.830827 
L 949.469213 303.797514 
L 951.726292 305.483702 
L 953.983371 306.929398 
L 955.48809 307.776736 
L 956.240449 307.918254 
L 959.249888 309.346888 
L 962.259326 310.510518 
L 965.268764 311.458303 
L 967.525843 312.051871 
L 968.278202 311.830029 
L 972.04 312.687402 
L 976.554157 313.464281 
L 977.306517 313.572069 
L 978.058876 313.275816 
L 978.811236 312.799312 
L 981.068315 313.201618 
L 982.573034 312.867072 
L 987.087191 313.596356 
L 992.353708 314.206826 
L 998.372584 314.682485 
L 1005.89618 315.058691 
L 1014.924494 315.31671 
L 1015.676854 314.924229 
L 1017.181573 314.896935 
L 1021.69573 315.047296 
L 1022.44809 315.001631 
L 1024.705169 313.713226 
L 1025.457528 312.585502 
L 1026.962247 312.775708 
L 1030.724045 313.41915 
L 1031.476404 313.19092 
L 1035.990562 313.834413 
L 1039 314.165636 
L 1040.504719 314.223857 
L 1042.761798 314.422988 
L 1043.514157 313.947705 
L 1044.266517 314.031322 
L 1045.018876 313.557129 
L 1045.771236 313.396055 
L 1046.523596 313.367277 
L 1050.285393 313.853088 
L 1051.037753 313.448251 
L 1054.047191 313.851104 
L 1054.799551 313.7817 
L 1057.808989 314.040638 
L 1060.818427 314.24774 
L 1064.580225 314.55818 
L 1065.332584 314.37847 
L 1066.084944 314.440549 
L 1066.837303 314.252245 
L 1072.10382 314.62196 
L 1077.370337 314.898326 
L 1078.122697 313.846839 
L 1078.875056 313.935499 
L 1079.627416 313.107665 
L 1081.884494 313.465992 
L 1082.636854 313.423748 
L 1086.398652 313.903016 
L 1087.151011 313.645459 
L 1087.903371 313.744189 
L 1089.40809 312.787903 
L 1090.912809 312.280595 
L 1093.922247 312.900042 
L 1093.922247 312.900042 
" clip-path="url(#p3a70c34e7a)" style="fill: none; stroke: #ff0000; stroke-width: 5; stroke-linecap: square"/>
   </g>
   <g id="line2d_34">
    <path d="M 794.483146 313.334258 
L 795.235506 312.565402 
L 799.749663 313.374601 
L 800.502022 313.486873 
L 801.254382 312.95319 
L 802.006742 312.867773 
L 806.520899 313.596871 
L 807.273258 313.698029 
L 808.025618 311.876086 
L 808.777978 311.275677 
L 810.282697 311.699252 
L 811.787416 310.862389 
L 815.549213 311.938661 
L 816.301573 312.12273 
L 817.053933 312.168166 
L 820.81573 312.949046 
L 821.56809 313.082596 
L 822.320449 312.765581 
L 826.834607 313.521751 
L 828.339326 313.726334 
L 829.091685 313.331118 
L 833.605843 313.937472 
L 834.358202 313.806979 
L 835.862921 313.983753 
L 836.615281 313.774693 
L 840.377079 314.192146 
L 841.129438 313.266085 
L 842.634157 313.495596 
L 843.386517 313.264554 
L 844.891236 312.022341 
L 846.395955 312.373116 
L 847.148315 312.101491 
L 847.900674 312.14776 
L 849.405393 312.486307 
L 850.157753 311.693362 
L 853.919551 312.581652 
L 854.67191 312.117547 
L 855.42427 310.819913 
L 859.186067 311.905794 
L 859.938427 312.091506 
L 860.690787 312.006897 
L 864.452584 312.824259 
L 868.214382 313.456718 
L 869.719101 295.860186 
L 871.97618 277.57073 
L 873.480899 268.486566 
L 874.985618 262.950293 
L 875.737978 260.87337 
L 876.490337 259.211582 
L 877.242697 257.100233 
L 877.995056 256.263672 
L 878.747416 254.555682 
L 879.499775 251.697136 
L 880.252135 251.3806 
L 881.004494 250.028754 
L 881.756854 246.40872 
L 882.509213 244.863346 
L 883.261573 245.24693 
L 884.013933 244.955916 
L 884.766292 243.101014 
L 885.518652 242.424953 
L 886.271011 242.667043 
L 887.023371 239.692116 
L 887.77573 239.070084 
L 888.52809 238.839491 
L 889.280449 237.953421 
L 890.032809 238.309059 
L 890.785169 238.527995 
L 891.537528 238.193505 
L 892.289888 236.845789 
L 893.042247 236.683209 
L 893.794607 237.074386 
L 894.546966 236.808494 
L 895.299326 235.604926 
L 896.051685 235.32763 
L 896.804045 235.560899 
L 897.556404 233.213058 
L 898.308764 232.27219 
L 899.061124 232.033504 
L 899.813483 230.696916 
L 900.565843 232.066191 
L 901.318202 230.974829 
L 902.070562 231.759702 
L 902.822921 231.803067 
L 903.575281 232.319896 
L 904.32764 234.57525 
L 905.08 235.903349 
L 905.83236 234.88401 
L 906.584719 235.264813 
L 909.594157 238.193045 
L 910.346517 238.21442 
L 911.098876 238.441131 
L 911.851236 237.706135 
L 912.603596 237.441466 
L 913.355955 236.516758 
L 914.108315 238.517459 
L 914.860674 238.333147 
L 915.613034 238.639654 
L 916.365393 238.173887 
L 917.117753 238.64748 
L 917.870112 240.116752 
L 918.622472 239.560122 
L 919.374831 238.38329 
L 920.127191 237.42424 
L 921.63191 240.952702 
L 923.136629 239.797732 
L 923.888989 239.174928 
L 924.641348 238.919185 
L 925.393708 238.027035 
L 926.146067 239.656978 
L 926.898427 240.129623 
L 927.650787 241.905277 
L 929.155506 244.639458 
L 929.907865 244.625096 
L 930.660225 245.803096 
L 931.412584 247.419256 
L 932.164944 247.291976 
L 932.917303 248.341665 
L 933.669663 247.587529 
L 934.422022 248.045353 
L 935.174382 249.468753 
L 935.926742 248.775917 
L 936.679101 248.804152 
L 937.431461 249.363151 
L 938.18382 249.408139 
L 938.93618 250.165223 
L 939.688539 249.412563 
L 940.440899 248.464627 
L 941.193258 248.729953 
L 941.945618 250.3516 
L 943.450337 248.067505 
L 945.707416 257.702187 
L 947.964494 265.962726 
L 950.221573 273.045099 
L 952.478652 279.117352 
L 954.73573 284.32355 
L 956.992809 288.787215 
L 959.249888 292.614247 
L 961.506966 295.895451 
L 963.764045 298.708671 
L 966.021124 301.120656 
L 968.278202 303.188631 
L 970.535281 304.961662 
L 972.79236 306.481813 
L 975.049438 307.785153 
L 978.058876 309.238476 
L 981.068315 310.422217 
L 984.077753 311.386381 
L 987.839551 312.344116 
L 991.601348 313.085193 
L 996.115506 313.756695 
L 1001.382022 314.318797 
L 1008.153258 314.799932 
L 1014.924494 315.103168 
L 1015.676854 313.853387 
L 1020.943371 314.38632 
L 1027.714607 314.842489 
L 1036.742921 315.199883 
L 1042.761798 315.273607 
L 1043.514157 314.98795 
L 1045.018876 315.049579 
L 1045.771236 314.845141 
L 1053.294831 315.15608 
L 1054.047191 315.065089 
L 1056.30427 315.144239 
L 1057.056629 314.45558 
L 1058.561348 314.569115 
L 1059.313708 314.403285 
L 1060.066067 314.464123 
L 1060.818427 314.147026 
L 1062.323146 314.290645 
L 1063.075506 313.865821 
L 1063.827865 313.582105 
L 1068.342022 314.121971 
L 1069.094382 313.726571 
L 1071.351461 313.996627 
L 1072.10382 313.652746 
L 1076.617978 314.173898 
L 1077.370337 314.103472 
L 1083.389213 314.613918 
L 1084.141573 314.438496 
L 1086.398652 314.607014 
L 1087.151011 313.854457 
L 1090.160449 314.181961 
L 1090.912809 313.398095 
L 1091.665169 313.509193 
L 1092.417528 312.733771 
L 1093.169888 312.878085 
L 1093.922247 312.812224 
L 1093.922247 312.812224 
" clip-path="url(#p3a70c34e7a)" style="fill: none; stroke: #0000ff; stroke-width: 5; stroke-linecap: square"/>
   </g>
   <g id="patch_11">
    <path d="M 793.730787 336.640156 
L 793.730787 31.720156 
" style="fill: none; stroke: #000000; stroke-width: 5; stroke-linejoin: miter; stroke-linecap: square"/>
   </g>
   <g id="patch_12">
    <path d="M 793.730787 336.640156 
L 1094.674607 336.640156 
" style="fill: none; stroke: #000000; stroke-width: 5; stroke-linejoin: miter; stroke-linecap: square"/>
   </g>
   <g id="patch_13">
    <path d="M 868.966742 330.541756 
L 944.202697 330.541756 
L 944.202697 319.869556 
L 868.966742 319.869556 
z
" style="fill: #8c5a2b; stroke: #8c5a2b; stroke-linejoin: miter"/>
   </g>
   <g id="text_29">
    <!-- Novel | Naive -->
    <g transform="translate(880.90004 21.720156) scale(0.19 -0.19)">
     <use xlink:href="#DejaVuSans-4e"/>
     <use xlink:href="#DejaVuSans-6f" transform="translate(74.804688 0)"/>
     <use xlink:href="#DejaVuSans-76" transform="translate(135.986328 0)"/>
     <use xlink:href="#DejaVuSans-65" transform="translate(195.166016 0)"/>
     <use xlink:href="#DejaVuSans-6c" transform="translate(256.689453 0)"/>
     <use xlink:href="#DejaVuSans-20" transform="translate(284.472656 0)"/>
     <use xlink:href="#DejaVuSans-7c" transform="translate(316.259766 0)"/>
     <use xlink:href="#DejaVuSans-20" transform="translate(349.951172 0)"/>
     <use xlink:href="#DejaVuSans-4e" transform="translate(381.738281 0)"/>
     <use xlink:href="#DejaVuSans-61" transform="translate(456.542969 0)"/>
     <use xlink:href="#DejaVuSans-69" transform="translate(517.822266 0)"/>
     <use xlink:href="#DejaVuSans-76" transform="translate(545.605469 0)"/>
     <use xlink:href="#DejaVuSans-65" transform="translate(604.785156 0)"/>
    </g>
   </g>
  </g>
  <g id="axes_4">
   <g id="patch_14">
    <path d="M 1139.81618 336.640156 
L 1440.76 336.640156 
L 1440.76 31.720156 
L 1139.81618 31.720156 
z
" style="fill: #ffffff"/>
   </g>
   <g id="matplotlib.axis_7">
    <g id="xtick_16">
     <g id="line2d_35">
      <g>
       <use xlink:href="#m48ea32176a" x="1139.81618" y="336.640156" style="stroke: #000000; stroke-width: 1.6"/>
      </g>
     </g>
     <g id="text_30">
      <!-- -1 -->
      <g transform="translate(1123.86368 369.455156) scale(0.32 -0.32)">
       <use xlink:href="#DejaVuSans-2d"/>
       <use xlink:href="#DejaVuSans-31" transform="translate(36.083984 0)"/>
      </g>
     </g>
    </g>
    <g id="xtick_17">
     <g id="line2d_36">
      <g>
       <use xlink:href="#m48ea32176a" x="1215.052135" y="336.640156" style="stroke: #000000; stroke-width: 1.6"/>
      </g>
     </g>
     <g id="text_31">
      <!-- 0 -->
      <g transform="translate(1204.872135 369.455156) scale(0.32 -0.32)">
       <use xlink:href="#DejaVuSans-30"/>
      </g>
     </g>
    </g>
    <g id="xtick_18">
     <g id="line2d_37">
      <g>
       <use xlink:href="#m48ea32176a" x="1290.28809" y="336.640156" style="stroke: #000000; stroke-width: 1.6"/>
      </g>
     </g>
     <g id="text_32">
      <!-- 1 -->
      <g transform="translate(1280.10809 369.455156) scale(0.32 -0.32)">
       <use xlink:href="#DejaVuSans-31"/>
      </g>
     </g>
    </g>
    <g id="xtick_19">
     <g id="line2d_38">
      <g>
       <use xlink:href="#m48ea32176a" x="1365.524045" y="336.640156" style="stroke: #000000; stroke-width: 1.6"/>
      </g>
     </g>
     <g id="text_33">
      <!-- 2 -->
      <g transform="translate(1355.344045 369.455156) scale(0.32 -0.32)">
       <use xlink:href="#DejaVuSans-32"/>
      </g>
     </g>
    </g>
    <g id="xtick_20">
     <g id="line2d_39">
      <g>
       <use xlink:href="#m48ea32176a" x="1440.76" y="336.640156" style="stroke: #000000; stroke-width: 1.6"/>
      </g>
     </g>
     <g id="text_34">
      <!-- 3 -->
      <g transform="translate(1430.58 369.455156) scale(0.32 -0.32)">
       <use xlink:href="#DejaVuSans-33"/>
      </g>
     </g>
    </g>
    <g id="text_35">
     <!-- Time (s) -->
     <g transform="translate(1225.23559 404.425156) scale(0.32 -0.32)">
      <use xlink:href="#DejaVuSans-54"/>
      <use xlink:href="#DejaVuSans-69" transform="translate(57.958984 0)"/>
      <use xlink:href="#DejaVuSans-6d" transform="translate(85.742188 0)"/>
      <use xlink:href="#DejaVuSans-65" transform="translate(183.154297 0)"/>
      <use xlink:href="#DejaVuSans-20" transform="translate(244.677734 0)"/>
      <use xlink:href="#DejaVuSans-28" transform="translate(276.464844 0)"/>
      <use xlink:href="#DejaVuSans-73" transform="translate(315.478516 0)"/>
      <use xlink:href="#DejaVuSans-29" transform="translate(367.578125 0)"/>
     </g>
    </g>
   </g>
   <g id="matplotlib.axis_8">
    <g id="ytick_10">
     <g id="line2d_40">
      <g>
       <use xlink:href="#m80e9e68a5d" x="1139.81618" y="315.62004" style="stroke: #000000; stroke-width: 1.6"/>
      </g>
     </g>
    </g>
    <g id="ytick_11">
     <g id="line2d_41">
      <g>
       <use xlink:href="#m80e9e68a5d" x="1139.81618" y="192.176903" style="stroke: #000000; stroke-width: 1.6"/>
      </g>
     </g>
    </g>
    <g id="ytick_12">
     <g id="line2d_42">
      <g>
       <use xlink:href="#m80e9e68a5d" x="1139.81618" y="68.733765" style="stroke: #000000; stroke-width: 1.6"/>
      </g>
     </g>
    </g>
   </g>
   <g id="line2d_43">
    <path d="M 1140.568539 315.446216 
L 1141.320899 314.969037 
L 1151.101573 315.285853 
L 1165.396404 315.493934 
L 1174.424719 315.551897 
L 1175.177079 315.313844 
L 1178.186517 315.370641 
L 1178.938876 314.381771 
L 1185.710112 314.839622 
L 1186.462472 314.878643 
L 1187.214831 314.558717 
L 1194.738427 314.984587 
L 1195.490787 315.016359 
L 1196.243146 314.290168 
L 1203.014382 314.781889 
L 1211.290337 315.1433 
L 1214.299775 315.231732 
L 1215.052135 292.545891 
L 1216.556854 256.912545 
L 1218.061573 232.668306 
L 1218.813933 224.409395 
L 1219.566292 213.634288 
L 1221.071011 201.069491 
L 1222.57573 189.987362 
L 1223.32809 178.166943 
L 1224.832809 162.953786 
L 1226.337528 147.509217 
L 1228.594607 119.387287 
L 1229.346966 112.830416 
L 1230.099326 107.268336 
L 1230.851685 103.243333 
L 1232.356404 99.398873 
L 1233.108764 99.194823 
L 1234.613483 95.450778 
L 1235.365843 95.421751 
L 1236.118202 90.044848 
L 1236.870562 88.39457 
L 1237.622921 83.823234 
L 1238.375281 77.133904 
L 1240.63236 66.733529 
L 1241.384719 62.100645 
L 1242.137079 60.370315 
L 1242.889438 59.325785 
L 1243.641798 57.481704 
L 1244.394157 59.011976 
L 1245.146517 63.3094 
L 1245.898876 65.370702 
L 1246.651236 65.611964 
L 1247.403596 64.285061 
L 1248.155955 64.062377 
L 1248.908315 66.49453 
L 1249.660674 67.851342 
L 1250.413034 69.603525 
L 1251.165393 70.781966 
L 1251.917753 71.279904 
L 1252.670112 71.215873 
L 1253.422472 74.85049 
L 1254.174831 75.361285 
L 1254.927191 75.074479 
L 1255.679551 76.489675 
L 1256.43191 76.117077 
L 1257.18427 73.989978 
L 1257.936629 73.566188 
L 1258.688989 75.287671 
L 1259.441348 79.000942 
L 1260.193708 79.206224 
L 1260.946067 80.062983 
L 1261.698427 79.90045 
L 1263.203146 83.13243 
L 1263.955506 85.209257 
L 1264.707865 86.145829 
L 1266.212584 94.661434 
L 1266.964944 95.302169 
L 1267.717303 93.866959 
L 1268.469663 90.837079 
L 1269.222022 94.38079 
L 1269.974382 93.852097 
L 1270.726742 95.027172 
L 1271.479101 97.900901 
L 1272.231461 104.198815 
L 1272.98382 104.864584 
L 1273.73618 103.721994 
L 1274.488539 103.357894 
L 1275.993258 100.681629 
L 1276.745618 102.296368 
L 1277.497978 100.74279 
L 1278.250337 101.345908 
L 1279.002697 101.747809 
L 1279.755056 103.147517 
L 1280.507416 103.271109 
L 1281.259775 101.337447 
L 1282.012135 102.001303 
L 1282.764494 101.719757 
L 1283.516854 98.577247 
L 1284.269213 100.260506 
L 1285.021573 98.84748 
L 1285.773933 100.718951 
L 1286.526292 100.842415 
L 1287.278652 100.219707 
L 1288.031011 99.951405 
L 1288.783371 101.526909 
L 1289.53573 103.367698 
L 1291.792809 133.64018 
L 1294.049888 159.595077 
L 1296.306966 181.848135 
L 1298.564045 200.927348 
L 1300.821124 217.285404 
L 1303.078202 231.310381 
L 1305.335281 243.335051 
L 1307.59236 253.644701 
L 1309.849438 262.483938 
L 1312.106517 270.062474 
L 1314.363596 276.560124 
L 1316.620674 282.131046 
L 1318.877753 286.907416 
L 1321.134831 291.002556 
L 1323.39191 294.513626 
L 1325.648989 297.523928 
L 1327.906067 300.104887 
L 1330.163146 302.317736 
L 1332.420225 304.214978 
L 1334.677303 305.841626 
L 1336.934382 307.236273 
L 1339.94382 308.79141 
L 1342.953258 310.058078 
L 1345.962697 311.089788 
L 1349.724494 312.114618 
L 1353.486292 312.907611 
L 1358.000449 313.626156 
L 1363.266966 314.227636 
L 1369.285843 314.696291 
L 1377.561798 315.094612 
L 1388.094831 315.363802 
L 1404.646742 315.537139 
L 1422.703371 315.595834 
L 1423.45573 314.740015 
L 1431.731685 315.119482 
L 1440.00764 315.335323 
L 1440.00764 315.335323 
" clip-path="url(#p9f7b42e520)" style="fill: none; stroke: #000000; stroke-width: 5; stroke-linecap: square"/>
   </g>
   <g id="line2d_44">
    <path d="M 1140.568539 314.012575 
L 1142.825618 314.202611 
L 1143.577978 313.816733 
L 1146.587416 314.151235 
L 1147.339775 313.333989 
L 1152.606292 314.023606 
L 1153.358652 314.103427 
L 1154.111011 313.082245 
L 1157.120449 313.55299 
L 1157.872809 312.47642 
L 1160.129888 312.924779 
L 1160.882247 312.179714 
L 1164.644045 312.957981 
L 1167.653483 313.451776 
L 1168.405843 313.340202 
L 1172.92 313.932143 
L 1178.186517 314.441319 
L 1178.938876 314.076232 
L 1179.691236 314.153423 
L 1180.443596 314.102865 
L 1181.948315 314.25079 
L 1182.700674 313.957546 
L 1183.453034 314.04067 
L 1184.205393 313.959279 
L 1186.462472 314.196145 
L 1187.214831 312.82855 
L 1191.728989 313.568039 
L 1192.481348 313.468689 
L 1195.490787 313.867752 
L 1196.243146 313.080026 
L 1196.995506 313.207026 
L 1197.747865 312.946442 
L 1198.500225 313.080122 
L 1199.252584 311.833585 
L 1200.757303 312.165474 
L 1201.509663 309.520793 
L 1204.519101 310.652166 
L 1206.77618 311.347304 
L 1207.528539 311.409004 
L 1211.290337 312.361621 
L 1212.042697 311.907994 
L 1214.299775 312.437425 
L 1216.556854 271.901506 
L 1217.309213 263.584097 
L 1218.061573 252.507803 
L 1219.566292 234.552524 
L 1220.318652 229.361846 
L 1222.57573 208.085911 
L 1223.32809 199.549943 
L 1224.080449 193.294419 
L 1224.832809 188.702629 
L 1225.585169 183.206428 
L 1226.337528 179.111637 
L 1227.842247 167.271941 
L 1230.099326 157.122972 
L 1231.604045 153.675868 
L 1232.356404 150.429779 
L 1233.108764 149.318791 
L 1233.861124 147.626243 
L 1234.613483 147.887812 
L 1235.365843 147.856781 
L 1236.118202 142.809966 
L 1236.870562 143.046684 
L 1237.622921 142.087652 
L 1238.375281 138.664921 
L 1239.12764 136.311203 
L 1239.88 136.994484 
L 1240.63236 137.221471 
L 1241.384719 136.424016 
L 1242.137079 137.481164 
L 1242.889438 137.782502 
L 1243.641798 137.750662 
L 1244.394157 138.136246 
L 1245.146517 139.920472 
L 1245.898876 140.433549 
L 1246.651236 139.074419 
L 1247.403596 137.346204 
L 1248.155955 135.960053 
L 1248.908315 137.516978 
L 1249.660674 137.973179 
L 1250.413034 140.568803 
L 1251.917753 144.516457 
L 1252.670112 143.661225 
L 1253.422472 145.154175 
L 1254.174831 144.559132 
L 1254.927191 143.578615 
L 1255.679551 145.805688 
L 1256.43191 147.422616 
L 1257.18427 147.3339 
L 1257.936629 148.198053 
L 1258.688989 148.37854 
L 1259.441348 151.28652 
L 1260.193708 150.754994 
L 1260.946067 150.511948 
L 1261.698427 149.476579 
L 1262.450787 149.90482 
L 1263.203146 150.948761 
L 1264.707865 151.262368 
L 1266.212584 154.931438 
L 1266.964944 153.547659 
L 1267.717303 153.516444 
L 1268.469663 152.431593 
L 1269.222022 151.671185 
L 1269.974382 150.672347 
L 1270.726742 152.90549 
L 1271.479101 153.462401 
L 1272.231461 156.385832 
L 1272.98382 156.838318 
L 1273.73618 155.183019 
L 1274.488539 155.722307 
L 1275.240899 155.722712 
L 1276.745618 158.297826 
L 1277.497978 156.926593 
L 1278.250337 157.719872 
L 1279.002697 158.021468 
L 1279.755056 159.428147 
L 1280.507416 160.463995 
L 1281.259775 160.130908 
L 1282.012135 161.897319 
L 1282.764494 162.544877 
L 1283.516854 161.258304 
L 1284.269213 161.614384 
L 1285.021573 159.659035 
L 1285.773933 160.306023 
L 1286.526292 160.503451 
L 1287.278652 159.800598 
L 1288.031011 159.392775 
L 1288.783371 160.424686 
L 1289.53573 162.043877 
L 1291.792809 183.947679 
L 1294.049888 202.727448 
L 1296.306966 218.828764 
L 1298.564045 232.633623 
L 1300.821124 244.469562 
L 1303.078202 254.6174 
L 1305.335281 263.317901 
L 1307.59236 270.777495 
L 1309.849438 277.173166 
L 1312.106517 282.656651 
L 1314.363596 287.358055 
L 1316.620674 291.38892 
L 1318.877753 294.844883 
L 1321.134831 297.807941 
L 1323.39191 300.348392 
L 1325.648989 302.526512 
L 1327.906067 304.393977 
L 1330.163146 305.995094 
L 1332.420225 307.367853 
L 1335.429663 308.898582 
L 1338.439101 310.145371 
L 1341.448539 311.160889 
L 1345.210337 312.169634 
L 1348.972135 312.950182 
L 1353.486292 313.657449 
L 1358.752809 314.24949 
L 1361.009888 314.444965 
L 1361.762247 314.205558 
L 1367.781124 314.681644 
L 1375.304719 315.058188 
L 1380.571236 315.227678 
L 1381.323596 315.127572 
L 1388.094831 315.242788 
L 1399.380225 315.445263 
L 1400.132584 315.244227 
L 1412.922697 315.462905 
L 1422.703371 315.510047 
L 1423.45573 315.25326 
L 1432.484045 315.421847 
L 1433.236404 314.21339 
L 1436.245843 314.474315 
L 1436.998202 313.466576 
L 1437.750562 313.574249 
L 1438.502921 313.382865 
L 1439.255281 313.494724 
L 1440.00764 313.345908 
L 1440.00764 313.345908 
" clip-path="url(#p9f7b42e520)" style="fill: none; stroke: #ff0000; stroke-width: 5; stroke-linecap: square"/>
   </g>
   <g id="line2d_45">
    <path d="M 1140.568539 315.522905 
L 1156.36809 315.58696 
L 1157.120449 315.301931 
L 1171.415281 315.500001 
L 1174.424719 315.522267 
L 1175.177079 314.693424 
L 1180.443596 314.915525 
L 1181.948315 314.984216 
L 1182.700674 314.351389 
L 1187.967191 314.734094 
L 1188.719551 314.063655 
L 1194.738427 314.587503 
L 1202.262022 315.001822 
L 1211.290337 315.262583 
L 1214.299775 315.328889 
L 1215.052135 305.673039 
L 1215.804494 300.85363 
L 1217.309213 292.747965 
L 1218.061573 292.04569 
L 1218.813933 290.868341 
L 1219.566292 290.722712 
L 1221.071011 291.774636 
L 1221.823371 292.966908 
L 1222.57573 293.416689 
L 1223.32809 289.773783 
L 1224.080449 288.636723 
L 1224.832809 285.386447 
L 1225.585169 282.726564 
L 1226.337528 280.721444 
L 1228.594607 268.669802 
L 1230.099326 264.485315 
L 1230.851685 263.09932 
L 1231.604045 263.595966 
L 1232.356404 264.965401 
L 1233.108764 264.932126 
L 1233.861124 264.176247 
L 1234.613483 263.770934 
L 1235.365843 263.106522 
L 1236.870562 261.390447 
L 1237.622921 259.352552 
L 1238.375281 258.466602 
L 1239.12764 257.075327 
L 1240.63236 252.435876 
L 1242.137079 248.684542 
L 1242.889438 247.277104 
L 1243.641798 244.186296 
L 1244.394157 245.213765 
L 1245.146517 248.286624 
L 1245.898876 250.267937 
L 1246.651236 251.37287 
L 1247.403596 251.666652 
L 1248.155955 253.392411 
L 1248.908315 254.570678 
L 1249.660674 255.008401 
L 1250.413034 254.015602 
L 1251.165393 253.248479 
L 1251.917753 252.12048 
L 1252.670112 252.1694 
L 1253.422472 253.569532 
L 1254.174831 255.368027 
L 1255.679551 257.650269 
L 1256.43191 257.207331 
L 1257.936629 254.602983 
L 1258.688989 255.989088 
L 1259.441348 258.32598 
L 1260.193708 259.661184 
L 1260.946067 260.31244 
L 1261.698427 259.627595 
L 1262.450787 260.493547 
L 1263.203146 258.938631 
L 1263.955506 258.532914 
L 1264.707865 257.659871 
L 1265.460225 258.623879 
L 1266.212584 260.68221 
L 1267.717303 262.372785 
L 1268.469663 260.823934 
L 1269.222022 263.563739 
L 1269.974382 265.202768 
L 1270.726742 264.58573 
L 1271.479101 266.681103 
L 1272.231461 269.128049 
L 1272.98382 267.476774 
L 1273.73618 266.537318 
L 1274.488539 264.812957 
L 1275.240899 262.810481 
L 1275.993258 261.584265 
L 1276.745618 261.491102 
L 1277.497978 261.100233 
L 1278.250337 261.926287 
L 1279.002697 261.938855 
L 1279.755056 263.235246 
L 1280.507416 263.123348 
L 1281.259775 264.319172 
L 1282.012135 264.292514 
L 1282.764494 262.464831 
L 1283.516854 261.946263 
L 1284.269213 263.711207 
L 1285.021573 264.322772 
L 1285.773933 266.174327 
L 1286.526292 266.237388 
L 1287.278652 265.448509 
L 1288.031011 264.406987 
L 1288.783371 263.712624 
L 1289.53573 264.157144 
L 1291.792809 271.49704 
L 1294.049888 277.790082 
L 1296.306966 283.185579 
L 1298.564045 287.811545 
L 1300.821124 291.777733 
L 1303.078202 295.178244 
L 1305.335281 298.093757 
L 1307.59236 300.593443 
L 1309.849438 302.736612 
L 1312.106517 304.574111 
L 1314.363596 306.149538 
L 1316.620674 307.500269 
L 1319.630112 309.006437 
L 1322.639551 310.233219 
L 1325.648989 311.232441 
L 1329.410787 312.224999 
L 1333.172584 312.993023 
L 1337.686742 313.688941 
L 1342.953258 314.271482 
L 1348.972135 314.725379 
L 1349.724494 314.592318 
L 1357.24809 315.004705 
L 1367.028764 315.304163 
L 1381.323596 315.500843 
L 1397.875506 315.581476 
L 1398.627865 314.84613 
L 1399.380225 314.884825 
L 1400.132584 314.706764 
L 1404.646742 314.948698 
L 1405.399101 314.788769 
L 1413.675056 315.147213 
L 1421.951011 315.351096 
L 1422.703371 314.963028 
L 1423.45573 313.137675 
L 1425.712809 313.443205 
L 1430.979326 314.099875 
L 1436.998202 314.611532 
L 1440.00764 314.798604 
L 1440.00764 314.798604 
" clip-path="url(#p9f7b42e520)" style="fill: none; stroke: #0000ff; stroke-width: 5; stroke-linecap: square"/>
   </g>
   <g id="patch_15">
    <path d="M 1139.81618 336.640156 
L 1139.81618 31.720156 
" style="fill: none; stroke: #000000; stroke-width: 5; stroke-linejoin: miter; stroke-linecap: square"/>
   </g>
   <g id="patch_16">
    <path d="M 1139.81618 336.640156 
L 1440.76 336.640156 
" style="fill: none; stroke: #000000; stroke-width: 5; stroke-linejoin: miter; stroke-linecap: square"/>
   </g>
   <g id="patch_17">
    <path d="M 1215.052135 330.541756 
L 1290.28809 330.541756 
L 1290.28809 319.869556 
L 1215.052135 319.869556 
z
" style="fill: #8c5a2b; stroke: #8c5a2b; stroke-linejoin: miter"/>
   </g>
   <g id="text_36">
    <!-- Novel | Expert -->
    <g transform="translate(1222.890043 21.720156) scale(0.19 -0.19)">
     <use xlink:href="#DejaVuSans-4e"/>
     <use xlink:href="#DejaVuSans-6f" transform="translate(74.804688 0)"/>
     <use xlink:href="#DejaVuSans-76" transform="translate(135.986328 0)"/>
     <use xlink:href="#DejaVuSans-65" transform="translate(195.166016 0)"/>
     <use xlink:href="#DejaVuSans-6c" transform="translate(256.689453 0)"/>
     <use xlink:href="#DejaVuSans-20" transform="translate(284.472656 0)"/>
     <use xlink:href="#DejaVuSans-7c" transform="translate(316.259766 0)"/>
     <use xlink:href="#DejaVuSans-20" transform="translate(349.951172 0)"/>
     <use xlink:href="#DejaVuSans-45" transform="translate(381.738281 0)"/>
     <use xlink:href="#DejaVuSans-78" transform="translate(444.921875 0)"/>
     <use xlink:href="#DejaVuSans-70" transform="translate(504.101562 0)"/>
     <use xlink:href="#DejaVuSans-65" transform="translate(567.578125 0)"/>
     <use xlink:href="#DejaVuSans-72" transform="translate(629.101562 0)"/>
     <use xlink:href="#DejaVuSans-74" transform="translate(670.214844 0)"/>
    </g>
   </g>
  </g>
 </g>
 <defs>
  <clipPath id="pc8b377d5ac">
   <rect x="101.56" y="31.720156" width="300.94382" height="304.92"/>
  </clipPath>
  <clipPath id="pfdc6db758c">
   <rect x="447.645393" y="31.720156" width="300.94382" height="304.92"/>
  </clipPath>
  <clipPath id="p3a70c34e7a">
   <rect x="793.730787" y="31.720156" width="300.94382" height="304.92"/>
  </clipPath>
  <clipPath id="p9f7b42e520">
   <rect x="1139.81618" y="31.720156" width="300.94382" height="304.92"/>
  </clipPath>
 </defs>
</svg>
