<?xml version="1.0" encoding="utf-8" standalone="no"?>
<!DOCTYPE svg PUBLIC "-//W3C//DTD SVG 1.1//EN"
  "http://www.w3.org/Graphics/SVG/1.1/DTD/svg11.dtd">
<svg xmlns:xlink="http://www.w3.org/1999/xlink" width="1458.14pt" height="418.280156pt" viewBox="0 0 1458.14 418.280156" xmlns="http://www.w3.org/2000/svg" version="1.1">
 <metadata>
  <rdf:RDF xmlns:dc="http://purl.org/dc/elements/1.1/" xmlns:cc="http://creativecommons.org/ns#" xmlns:rdf="http://www.w3.org/1999/02/22-rdf-syntax-ns#">
   <cc:Work>
    <dc:type rdf:resource="http://purl.org/dc/dcmitype/StillImage"/>
    <dc:date>2026-03-25T17:17:29.705332</dc:date>
    <dc:format>image/svg+xml</dc:format>
    <dc:creator>
     <cc:Agent>
      <dc:title>Matplotlib v3.10.7, https://matplotlib.org/</dc:title>
     </cc:Agent>
    </dc:creator>
   </cc:Work>
  </rdf:RDF>
 </metadata>
 <defs>
  <style type="text/css">*{stroke-linejoin: round; stroke-linecap: butt}</style>
 </defs>
 <g id="figure_1">
  <g id="patch_1">
   <path d="M 0 418.280156 
L 1458.14 418.280156 
L 1458.14 -0 
L 0 -0 
z
" style="fill: #ffffff"/>
  </g>
  <g id="axes_1">
   <g id="patch_2">
    <path d="M 101.56 336.640156 
L 402.50382 336.640156 
L 402.50382 31.720156 
L 101.56 31.720156 
z
" style="fill: #ffffff"/>
   </g>
   <g id="matplotlib.axis_1">
    <g id="xtick_1">
     <g id="line2d_1">
      <defs>
       <path id="m367c58fad6" d="M 0 0 
L 0 5 
" style="stroke: #000000; stroke-width: 1.6"/>
      </defs>
      <g>
       <use xlink:href="#m367c58fad6" x="101.56" y="336.640156" style="stroke: #000000; stroke-width: 1.6"/>
      </g>
     </g>
     <g id="text_1">
      <!-- -1 -->
      <g transform="translate(85.6075 369.455156) scale(0.32 -0.32)">
       <defs>
        <path id="DejaVuSans-2d" d="M 313 2009 
L 1997 2009 
L 1997 1497 
L 313 1497 
L 313 2009 
z
" transform="scale(0.015625)"/>
        <path id="DejaVuSans-31" d="M 794 531 
L 1825 531 
L 1825 4091 
L 703 3866 
L 703 4441 
L 1819 4666 
L 2450 4666 
L 2450 531 
L 3481 531 
L 3481 0 
L 794 0 
L 794 531 
z
" transform="scale(0.015625)"/>
       </defs>
       <use xlink:href="#DejaVuSans-2d"/>
       <use xlink:href="#DejaVuSans-31" transform="translate(36.083984 0)"/>
      </g>
     </g>
    </g>
    <g id="xtick_2">
     <g id="line2d_2">
      <g>
       <use xlink:href="#m367c58fad6" x="176.795955" y="336.640156" style="stroke: #000000; stroke-width: 1.6"/>
      </g>
     </g>
     <g id="text_2">
      <!-- 0 -->
      <g transform="translate(166.615955 369.455156) scale(0.32 -0.32)">
       <defs>
        <path id="DejaVuSans-30" d="M 2034 4250 
Q 1547 4250 1301 3770 
Q 1056 3291 1056 2328 
Q 1056 1369 1301 889 
Q 1547 409 2034 409 
Q 2525 409 2770 889 
Q 3016 1369 3016 2328 
Q 3016 3291 2770 3770 
Q 2525 4250 2034 4250 
z
M 2034 4750 
Q 2819 4750 3233 4129 
Q 3647 3509 3647 2328 
Q 3647 1150 3233 529 
Q 2819 -91 2034 -91 
Q 1250 -91 836 529 
Q 422 1150 422 2328 
Q 422 3509 836 4129 
Q 1250 4750 2034 4750 
z
" transform="scale(0.015625)"/>
       </defs>
       <use xlink:href="#DejaVuSans-30"/>
      </g>
     </g>
    </g>
    <g id="xtick_3">
     <g id="line2d_3">
      <g>
       <use xlink:href="#m367c58fad6" x="252.03191" y="336.640156" style="stroke: #000000; stroke-width: 1.6"/>
      </g>
     </g>
     <g id="text_3">
      <!-- 1 -->
      <g transform="translate(241.85191 369.455156) scale(0.32 -0.32)">
       <use xlink:href="#DejaVuSans-31"/>
      </g>
     </g>
    </g>
    <g id="xtick_4">
     <g id="line2d_4">
      <g>
       <use xlink:href="#m367c58fad6" x="327.267865" y="336.640156" style="stroke: #000000; stroke-width: 1.6"/>
      </g>
     </g>
     <g id="text_4">
      <!-- 2 -->
      <g transform="translate(317.087865 369.455156) scale(0.32 -0.32)">
       <defs>
        <path id="DejaVuSans-32" d="M 1228 531 
L 3431 531 
L 3431 0 
L 469 0 
L 469 531 
Q 828 903 1448 1529 
Q 2069 2156 2228 2338 
Q 2531 2678 2651 2914 
Q 2772 3150 2772 3378 
Q 2772 3750 2511 3984 
Q 2250 4219 1831 4219 
Q 1534 4219 1204 4116 
Q 875 4013 500 3803 
L 500 4441 
Q 881 4594 1212 4672 
Q 1544 4750 1819 4750 
Q 2544 4750 2975 4387 
Q 3406 4025 3406 3419 
Q 3406 3131 3298 2873 
Q 3191 2616 2906 2266 
Q 2828 2175 2409 1742 
Q 1991 1309 1228 531 
z
" transform="scale(0.015625)"/>
       </defs>
       <use xlink:href="#DejaVuSans-32"/>
      </g>
     </g>
    </g>
    <g id="xtick_5">
     <g id="line2d_5">
      <g>
       <use xlink:href="#m367c58fad6" x="402.50382" y="336.640156" style="stroke: #000000; stroke-width: 1.6"/>
      </g>
     </g>
     <g id="text_5">
      <!-- 3 -->
      <g transform="translate(392.32382 369.455156) scale(0.32 -0.32)">
       <defs>
        <path id="DejaVuSans-33" d="M 2597 2516 
Q 3050 2419 3304 2112 
Q 3559 1806 3559 1356 
Q 3559 666 3084 287 
Q 2609 -91 1734 -91 
Q 1441 -91 1130 -33 
Q 819 25 488 141 
L 488 750 
Q 750 597 1062 519 
Q 1375 441 1716 441 
Q 2309 441 2620 675 
Q 2931 909 2931 1356 
Q 2931 1769 2642 2001 
Q 2353 2234 1838 2234 
L 1294 2234 
L 1294 2753 
L 1863 2753 
Q 2328 2753 2575 2939 
Q 2822 3125 2822 3475 
Q 2822 3834 2567 4026 
Q 2313 4219 1838 4219 
Q 1578 4219 1281 4162 
Q 984 4106 628 3988 
L 628 4550 
Q 988 4650 1302 4700 
Q 1616 4750 1894 4750 
Q 2613 4750 3031 4423 
Q 3450 4097 3450 3541 
Q 3450 3153 3228 2886 
Q 3006 2619 2597 2516 
z
" transform="scale(0.015625)"/>
       </defs>
       <use xlink:href="#DejaVuSans-33"/>
      </g>
     </g>
    </g>
    <g id="text_6">
     <!-- Time (s) -->
     <g transform="translate(186.97941 404.425156) scale(0.32 -0.32)">
      <defs>
       <path id="DejaVuSans-54" d="M -19 4666 
L 3928 4666 
L 3928 4134 
L 2272 4134 
L 2272 0 
L 1638 0 
L 1638 4134 
L -19 4134 
L -19 4666 
z
" transform="scale(0.015625)"/>
       <path id="DejaVuSans-69" d="M 603 3500 
L 1178 3500 
L 1178 0 
L 603 0 
L 603 3500 
z
M 603 4863 
L 1178 4863 
L 1178 4134 
L 603 4134 
L 603 4863 
z
" transform="scale(0.015625)"/>
       <path id="DejaVuSans-6d" d="M 3328 2828 
Q 3544 3216 3844 3400 
Q 4144 3584 4550 3584 
Q 5097 3584 5394 3201 
Q 5691 2819 5691 2113 
L 5691 0 
L 5113 0 
L 5113 2094 
Q 5113 2597 4934 2840 
Q 4756 3084 4391 3084 
Q 3944 3084 3684 2787 
Q 3425 2491 3425 1978 
L 3425 0 
L 2847 0 
L 2847 2094 
Q 2847 2600 2669 2842 
Q 2491 3084 2119 3084 
Q 1678 3084 1418 2786 
Q 1159 2488 1159 1978 
L 1159 0 
L 581 0 
L 581 3500 
L 1159 3500 
L 1159 2956 
Q 1356 3278 1631 3431 
Q 1906 3584 2284 3584 
Q 2666 3584 2933 3390 
Q 3200 3197 3328 2828 
z
" transform="scale(0.015625)"/>
       <path id="DejaVuSans-65" d="M 3597 1894 
L 3597 1613 
L 953 1613 
Q 991 1019 1311 708 
Q 1631 397 2203 397 
Q 2534 397 2845 478 
Q 3156 559 3463 722 
L 3463 178 
Q 3153 47 2828 -22 
Q 2503 -91 2169 -91 
Q 1331 -91 842 396 
Q 353 884 353 1716 
Q 353 2575 817 3079 
Q 1281 3584 2069 3584 
Q 2775 3584 3186 3129 
Q 3597 2675 3597 1894 
z
M 3022 2063 
Q 3016 2534 2758 2815 
Q 2500 3097 2075 3097 
Q 1594 3097 1305 2825 
Q 1016 2553 972 2059 
L 3022 2063 
z
" transform="scale(0.015625)"/>
       <path id="DejaVuSans-20" transform="scale(0.015625)"/>
       <path id="DejaVuSans-28" d="M 1984 4856 
Q 1566 4138 1362 3434 
Q 1159 2731 1159 2009 
Q 1159 1288 1364 580 
Q 1569 -128 1984 -844 
L 1484 -844 
Q 1016 -109 783 600 
Q 550 1309 550 2009 
Q 550 2706 781 3412 
Q 1013 4119 1484 4856 
L 1984 4856 
z
" transform="scale(0.015625)"/>
       <path id="DejaVuSans-73" d="M 2834 3397 
L 2834 2853 
Q 2591 2978 2328 3040 
Q 2066 3103 1784 3103 
Q 1356 3103 1142 2972 
Q 928 2841 928 2578 
Q 928 2378 1081 2264 
Q 1234 2150 1697 2047 
L 1894 2003 
Q 2506 1872 2764 1633 
Q 3022 1394 3022 966 
Q 3022 478 2636 193 
Q 2250 -91 1575 -91 
Q 1294 -91 989 -36 
Q 684 19 347 128 
L 347 722 
Q 666 556 975 473 
Q 1284 391 1588 391 
Q 1994 391 2212 530 
Q 2431 669 2431 922 
Q 2431 1156 2273 1281 
Q 2116 1406 1581 1522 
L 1381 1569 
Q 847 1681 609 1914 
Q 372 2147 372 2553 
Q 372 3047 722 3315 
Q 1072 3584 1716 3584 
Q 2034 3584 2315 3537 
Q 2597 3491 2834 3397 
z
" transform="scale(0.015625)"/>
       <path id="DejaVuSans-29" d="M 513 4856 
L 1013 4856 
Q 1481 4119 1714 3412 
Q 1947 2706 1947 2009 
Q 1947 1309 1714 600 
Q 1481 -109 1013 -844 
L 513 -844 
Q 928 -128 1133 580 
Q 1338 1288 1338 2009 
Q 1338 2731 1133 3434 
Q 928 4138 513 4856 
z
" transform="scale(0.015625)"/>
      </defs>
      <use xlink:href="#DejaVuSans-54"/>
      <use xlink:href="#DejaVuSans-69" transform="translate(57.958984 0)"/>
      <use xlink:href="#DejaVuSans-6d" transform="translate(85.742188 0)"/>
      <use xlink:href="#DejaVuSans-65" transform="translate(183.154297 0)"/>
      <use xlink:href="#DejaVuSans-20" transform="translate(244.677734 0)"/>
      <use xlink:href="#DejaVuSans-28" transform="translate(276.464844 0)"/>
      <use xlink:href="#DejaVuSans-73" transform="translate(315.478516 0)"/>
      <use xlink:href="#DejaVuSans-29" transform="translate(367.578125 0)"/>
     </g>
    </g>
   </g>
   <g id="matplotlib.axis_2">
    <g id="ytick_1">
     <g id="line2d_6">
      <defs>
       <path id="m5187711a15" d="M 0 0 
L -5 0 
" style="stroke: #000000; stroke-width: 1.6"/>
      </defs>
      <g>
       <use xlink:href="#m5187711a15" x="101.56" y="315.613317" style="stroke: #000000; stroke-width: 1.6"/>
      </g>
     </g>
     <g id="text_7">
      <!-- 0.0 -->
      <g transform="translate(42.17 327.770817) scale(0.32 -0.32)">
       <defs>
        <path id="DejaVuSans-2e" d="M 684 794 
L 1344 794 
L 1344 0 
L 684 0 
L 684 794 
z
" transform="scale(0.015625)"/>
       </defs>
       <use xlink:href="#DejaVuSans-30"/>
       <use xlink:href="#DejaVuSans-2e" transform="translate(63.623047 0)"/>
       <use xlink:href="#DejaVuSans-30" transform="translate(95.410156 0)"/>
      </g>
     </g>
    </g>
    <g id="ytick_2">
     <g id="line2d_7">
      <g>
       <use xlink:href="#m5187711a15" x="101.56" y="229.840793" style="stroke: #000000; stroke-width: 1.6"/>
      </g>
     </g>
     <g id="text_8">
      <!-- 0.1 -->
      <g transform="translate(42.17 241.998293) scale(0.32 -0.32)">
       <use xlink:href="#DejaVuSans-30"/>
       <use xlink:href="#DejaVuSans-2e" transform="translate(63.623047 0)"/>
       <use xlink:href="#DejaVuSans-31" transform="translate(95.410156 0)"/>
      </g>
     </g>
    </g>
    <g id="ytick_3">
     <g id="line2d_8">
      <g>
       <use xlink:href="#m5187711a15" x="101.56" y="144.06827" style="stroke: #000000; stroke-width: 1.6"/>
      </g>
     </g>
     <g id="text_9">
      <!-- 0.2 -->
      <g transform="translate(42.17 156.22577) scale(0.32 -0.32)">
       <use xlink:href="#DejaVuSans-30"/>
       <use xlink:href="#DejaVuSans-2e" transform="translate(63.623047 0)"/>
       <use xlink:href="#DejaVuSans-32" transform="translate(95.410156 0)"/>
      </g>
     </g>
    </g>
    <g id="ytick_4">
     <g id="line2d_9">
      <g>
       <use xlink:href="#m5187711a15" x="101.56" y="58.295747" style="stroke: #000000; stroke-width: 1.6"/>
      </g>
     </g>
     <g id="text_10">
      <!-- 0.3 -->
      <g transform="translate(42.17 70.453247) scale(0.32 -0.32)">
       <use xlink:href="#DejaVuSans-30"/>
       <use xlink:href="#DejaVuSans-2e" transform="translate(63.623047 0)"/>
       <use xlink:href="#DejaVuSans-33" transform="translate(95.410156 0)"/>
      </g>
     </g>
    </g>
    <g id="text_11">
     <!-- Neural Activity -->
     <g transform="translate(31.515 301.885156) rotate(-90) scale(0.32 -0.32)">
      <defs>
       <path id="DejaVuSans-4e" d="M 628 4666 
L 1478 4666 
L 3547 763 
L 3547 4666 
L 4159 4666 
L 4159 0 
L 3309 0 
L 1241 3903 
L 1241 0 
L 628 0 
L 628 4666 
z
" transform="scale(0.015625)"/>
       <path id="DejaVuSans-75" d="M 544 1381 
L 544 3500 
L 1119 3500 
L 1119 1403 
Q 1119 906 1312 657 
Q 1506 409 1894 409 
Q 2359 409 2629 706 
Q 2900 1003 2900 1516 
L 2900 3500 
L 3475 3500 
L 3475 0 
L 2900 0 
L 2900 538 
Q 2691 219 2414 64 
Q 2138 -91 1772 -91 
Q 1169 -91 856 284 
Q 544 659 544 1381 
z
M 1991 3584 
L 1991 3584 
z
" transform="scale(0.015625)"/>
       <path id="DejaVuSans-72" d="M 2631 2963 
Q 2534 3019 2420 3045 
Q 2306 3072 2169 3072 
Q 1681 3072 1420 2755 
Q 1159 2438 1159 1844 
L 1159 0 
L 581 0 
L 581 3500 
L 1159 3500 
L 1159 2956 
Q 1341 3275 1631 3429 
Q 1922 3584 2338 3584 
Q 2397 3584 2469 3576 
Q 2541 3569 2628 3553 
L 2631 2963 
z
" transform="scale(0.015625)"/>
       <path id="DejaVuSans-61" d="M 2194 1759 
Q 1497 1759 1228 1600 
Q 959 1441 959 1056 
Q 959 750 1161 570 
Q 1363 391 1709 391 
Q 2188 391 2477 730 
Q 2766 1069 2766 1631 
L 2766 1759 
L 2194 1759 
z
M 3341 1997 
L 3341 0 
L 2766 0 
L 2766 531 
Q 2569 213 2275 61 
Q 1981 -91 1556 -91 
Q 1019 -91 701 211 
Q 384 513 384 1019 
Q 384 1609 779 1909 
Q 1175 2209 1959 2209 
L 2766 2209 
L 2766 2266 
Q 2766 2663 2505 2880 
Q 2244 3097 1772 3097 
Q 1472 3097 1187 3025 
Q 903 2953 641 2809 
L 641 3341 
Q 956 3463 1253 3523 
Q 1550 3584 1831 3584 
Q 2591 3584 2966 3190 
Q 3341 2797 3341 1997 
z
" transform="scale(0.015625)"/>
       <path id="DejaVuSans-6c" d="M 603 4863 
L 1178 4863 
L 1178 0 
L 603 0 
L 603 4863 
z
" transform="scale(0.015625)"/>
       <path id="DejaVuSans-41" d="M 2188 4044 
L 1331 1722 
L 3047 1722 
L 2188 4044 
z
M 1831 4666 
L 2547 4666 
L 4325 0 
L 3669 0 
L 3244 1197 
L 1141 1197 
L 716 0 
L 50 0 
L 1831 4666 
z
" transform="scale(0.015625)"/>
       <path id="DejaVuSans-63" d="M 3122 3366 
L 3122 2828 
Q 2878 2963 2633 3030 
Q 2388 3097 2138 3097 
Q 1578 3097 1268 2742 
Q 959 2388 959 1747 
Q 959 1106 1268 751 
Q 1578 397 2138 397 
Q 2388 397 2633 464 
Q 2878 531 3122 666 
L 3122 134 
Q 2881 22 2623 -34 
Q 2366 -91 2075 -91 
Q 1284 -91 818 406 
Q 353 903 353 1747 
Q 353 2603 823 3093 
Q 1294 3584 2113 3584 
Q 2378 3584 2631 3529 
Q 2884 3475 3122 3366 
z
" transform="scale(0.015625)"/>
       <path id="DejaVuSans-74" d="M 1172 4494 
L 1172 3500 
L 2356 3500 
L 2356 3053 
L 1172 3053 
L 1172 1153 
Q 1172 725 1289 603 
Q 1406 481 1766 481 
L 2356 481 
L 2356 0 
L 1766 0 
Q 1100 0 847 248 
Q 594 497 594 1153 
L 594 3053 
L 172 3053 
L 172 3500 
L 594 3500 
L 594 4494 
L 1172 4494 
z
" transform="scale(0.015625)"/>
       <path id="DejaVuSans-76" d="M 191 3500 
L 800 3500 
L 1894 563 
L 2988 3500 
L 3597 3500 
L 2284 0 
L 1503 0 
L 191 3500 
z
" transform="scale(0.015625)"/>
       <path id="DejaVuSans-79" d="M 2059 -325 
Q 1816 -950 1584 -1140 
Q 1353 -1331 966 -1331 
L 506 -1331 
L 506 -850 
L 844 -850 
Q 1081 -850 1212 -737 
Q 1344 -625 1503 -206 
L 1606 56 
L 191 3500 
L 800 3500 
L 1894 763 
L 2988 3500 
L 3597 3500 
L 2059 -325 
z
" transform="scale(0.015625)"/>
      </defs>
      <use xlink:href="#DejaVuSans-4e"/>
      <use xlink:href="#DejaVuSans-65" transform="translate(74.804688 0)"/>
      <use xlink:href="#DejaVuSans-75" transform="translate(136.328125 0)"/>
      <use xlink:href="#DejaVuSans-72" transform="translate(199.707031 0)"/>
      <use xlink:href="#DejaVuSans-61" transform="translate(240.820312 0)"/>
      <use xlink:href="#DejaVuSans-6c" transform="translate(302.099609 0)"/>
      <use xlink:href="#DejaVuSans-20" transform="translate(329.882812 0)"/>
      <use xlink:href="#DejaVuSans-41" transform="translate(361.669922 0)"/>
      <use xlink:href="#DejaVuSans-63" transform="translate(428.328125 0)"/>
      <use xlink:href="#DejaVuSans-74" transform="translate(483.308594 0)"/>
      <use xlink:href="#DejaVuSans-69" transform="translate(522.517578 0)"/>
      <use xlink:href="#DejaVuSans-76" transform="translate(550.300781 0)"/>
      <use xlink:href="#DejaVuSans-69" transform="translate(609.480469 0)"/>
      <use xlink:href="#DejaVuSans-74" transform="translate(637.263672 0)"/>
      <use xlink:href="#DejaVuSans-79" transform="translate(676.472656 0)"/>
     </g>
    </g>
   </g>
   <g id="line2d_10">
    <path d="M 102.31236 314.674398 
L 103.064719 314.38151 
L 107.578876 314.647257 
L 115.102472 315.034901 
L 117.359551 315.117398 
L 118.11191 314.334657 
L 118.86427 314.143445 
L 119.616629 314.216939 
L 120.368989 312.375993 
L 121.121348 311.804824 
L 121.873708 311.995249 
L 122.626067 310.713562 
L 124.130787 311.191288 
L 124.883146 311.161996 
L 127.892584 311.987688 
L 128.644944 311.271732 
L 129.397303 311.488811 
L 130.149663 311.385578 
L 130.902022 310.953728 
L 133.159101 311.618302 
L 133.911461 310.564229 
L 134.66382 310.660372 
L 135.41618 310.362001 
L 138.425618 311.336087 
L 139.930337 311.753117 
L 140.682697 311.400535 
L 141.435056 311.611174 
L 142.187416 310.83219 
L 142.939775 310.34666 
L 145.196854 311.037165 
L 145.949213 308.881271 
L 146.701573 308.602521 
L 149.711011 309.90298 
L 152.720449 310.962212 
L 154.225169 311.415695 
L 154.977528 310.717991 
L 157.986966 311.626044 
L 158.739326 310.618559 
L 159.491685 310.245238 
L 160.244045 309.630586 
L 161.748764 310.213902 
L 162.501124 309.443372 
L 164.005843 310.044941 
L 164.758202 309.887991 
L 165.510562 308.422336 
L 168.52 309.756218 
L 169.27236 309.258574 
L 170.777079 309.878162 
L 171.529438 307.334264 
L 174.538876 308.869977 
L 176.043596 309.527453 
L 177.548315 271.450564 
L 179.053034 243.260118 
L 180.557753 218.221512 
L 183.567191 178.215078 
L 185.82427 150.988595 
L 186.576629 146.063206 
L 187.328989 139.920174 
L 188.081348 130.73662 
L 188.833708 123.604164 
L 189.586067 118.611099 
L 190.338427 115.045248 
L 191.843146 102.286245 
L 192.595506 97.640314 
L 193.347865 93.912961 
L 194.100225 91.00181 
L 194.852584 86.961882 
L 197.109663 77.862326 
L 197.862022 75.13489 
L 198.614382 75.456385 
L 199.366742 69.655682 
L 200.119101 66.80726 
L 201.62382 62.524006 
L 203.128539 59.168481 
L 203.880899 60.404056 
L 204.633258 58.087711 
L 206.137978 55.590693 
L 206.890337 54.59934 
L 207.642697 53.827412 
L 208.395056 54.487173 
L 209.147416 55.387013 
L 209.899775 53.374552 
L 210.652135 53.586514 
L 211.404494 54.572883 
L 212.156854 53.907805 
L 212.909213 54.156193 
L 213.661573 55.039112 
L 215.166292 55.209228 
L 215.918652 54.74167 
L 216.671011 54.726665 
L 217.423371 55.077353 
L 218.17573 56.021339 
L 218.92809 55.406901 
L 219.680449 55.001765 
L 220.432809 56.130771 
L 221.185169 56.179467 
L 221.937528 57.061057 
L 222.689888 58.40954 
L 223.442247 60.454925 
L 224.194607 64.609831 
L 224.946966 65.13833 
L 225.699326 67.066027 
L 226.451685 67.567608 
L 227.956404 75.022748 
L 228.708764 77.189017 
L 229.461124 78.574182 
L 230.213483 80.536337 
L 230.965843 81.352436 
L 231.718202 83.27686 
L 232.470562 83.82678 
L 233.222921 83.226861 
L 233.975281 85.674544 
L 234.72764 84.433755 
L 235.48 85.914701 
L 236.23236 86.973232 
L 236.984719 90.606848 
L 237.737079 92.815499 
L 238.489438 91.049637 
L 239.241798 93.964776 
L 239.994157 94.095884 
L 240.746517 93.421426 
L 241.498876 97.131166 
L 242.251236 96.831577 
L 243.003596 99.136368 
L 243.755955 98.075383 
L 244.508315 99.71052 
L 245.260674 99.515072 
L 246.013034 98.762188 
L 246.765393 99.570567 
L 247.517753 99.105565 
L 248.270112 101.863458 
L 249.022472 101.873236 
L 249.774831 103.777198 
L 250.527191 105.325105 
L 251.279551 109.309473 
L 253.536629 138.733563 
L 255.793708 163.96103 
L 258.050787 185.590438 
L 260.307865 204.134948 
L 262.564944 220.034556 
L 264.822022 233.666483 
L 267.079101 245.354155 
L 269.33618 255.374871 
L 271.593258 263.966379 
L 273.850337 271.332528 
L 276.107416 277.648079 
L 278.364494 283.062873 
L 280.621573 287.705381 
L 282.878652 291.685752 
L 285.13573 295.098421 
L 287.392809 298.02436 
L 289.649888 300.532986 
L 291.906966 302.683817 
L 294.164045 304.527888 
L 296.421124 306.108947 
L 298.678202 307.464509 
L 301.68764 308.976062 
L 304.697079 310.207232 
L 307.706517 311.210027 
L 311.468315 312.206136 
L 315.230112 312.976905 
L 319.74427 313.675312 
L 325.010787 314.259936 
L 331.782022 314.760349 
L 340.057978 315.128149 
L 351.343371 315.388543 
L 369.4 315.547685 
L 378.428315 315.577852 
L 379.180674 314.25319 
L 380.685393 314.385803 
L 381.437753 314.048324 
L 387.456629 314.575068 
L 391.970787 314.850109 
L 392.723146 314.738819 
L 400.999101 315.115903 
L 401.751461 315.140773 
L 401.751461 315.140773 
" clip-path="url(#p014ccd8e52)" style="fill: none; stroke: #000000; stroke-width: 5; stroke-linecap: square"/>
   </g>
   <g id="line2d_11">
    <path d="M 102.31236 313.771519 
L 103.064719 313.863609 
L 103.817079 313.729583 
L 109.083596 314.297835 
L 114.350112 314.677482 
L 115.102472 314.555418 
L 115.854831 314.120489 
L 119.616629 314.418421 
L 120.368989 313.786355 
L 121.121348 313.001624 
L 124.130787 313.486077 
L 124.883146 312.864091 
L 126.387865 313.132141 
L 127.140225 313.112983 
L 127.892584 313.238 
L 130.149663 313.32816 
L 131.654382 313.550963 
L 132.406742 313.173964 
L 133.159101 313.221647 
L 133.911461 312.97428 
L 134.66382 313.106232 
L 135.41618 312.906908 
L 136.168539 313.042229 
L 136.920899 312.671682 
L 138.425618 312.958492 
L 139.930337 312.506358 
L 140.682697 312.661706 
L 141.435056 312.498639 
L 142.187416 312.654372 
L 142.939775 312.396513 
L 143.692135 312.557353 
L 144.444494 312.054395 
L 145.949213 312.40139 
L 147.453933 311.230365 
L 148.958652 311.657703 
L 149.711011 311.18828 
L 150.463371 311.409532 
L 151.21573 310.908573 
L 151.96809 310.960421 
L 152.720449 310.647011 
L 154.977528 311.355331 
L 156.482247 311.151633 
L 157.234607 311.374718 
L 157.986966 311.29567 
L 159.491685 311.621159 
L 162.501124 312.317005 
L 163.253483 312.48182 
L 164.005843 312.102669 
L 164.758202 311.900993 
L 166.262921 312.194698 
L 167.015281 311.974539 
L 167.76764 312.156478 
L 168.52 311.956462 
L 169.27236 311.472123 
L 170.024719 311.679183 
L 170.777079 311.230563 
L 172.281798 311.657882 
L 173.034157 311.386477 
L 173.786517 311.597819 
L 174.538876 311.529775 
L 175.291236 311.733952 
L 176.043596 311.445544 
L 176.795955 311.382306 
L 178.300674 311.723025 
L 179.805393 312.102329 
L 180.557753 312.109338 
L 184.319551 312.902005 
L 186.576629 313.288706 
L 188.081348 312.368634 
L 191.843146 313.102643 
L 196.357303 313.767741 
L 197.862022 313.947684 
L 198.614382 313.882393 
L 199.366742 313.536454 
L 200.119101 313.448695 
L 203.880899 313.938374 
L 206.137978 314.052987 
L 206.890337 313.508018 
L 208.395056 313.713285 
L 209.147416 313.4836 
L 209.899775 313.590086 
L 210.652135 313.566099 
L 213.661573 313.945846 
L 214.413933 313.468554 
L 217.423371 313.866395 
L 218.17573 313.069273 
L 219.680449 313.317317 
L 220.432809 313.290299 
L 221.185169 312.351355 
L 224.946966 313.089273 
L 226.451685 313.287908 
L 227.204045 312.890356 
L 229.461124 313.278718 
L 230.213483 313.279627 
L 233.975281 313.807552 
L 236.23236 313.003373 
L 242.251236 313.874058 
L 243.003596 313.961021 
L 243.755955 313.431335 
L 246.765393 313.836079 
L 248.270112 313.3356 
L 249.022472 313.449486 
L 249.774831 312.686927 
L 252.03191 313.104303 
L 252.78427 313.009514 
L 255.793708 313.492503 
L 256.546067 313.094079 
L 257.298427 313.220041 
L 258.050787 312.450896 
L 258.803146 312.128512 
L 261.060225 312.625532 
L 261.812584 312.667807 
L 262.564944 312.421773 
L 264.069663 312.668075 
L 264.822022 312.064387 
L 265.574382 312.241833 
L 266.326742 312.127252 
L 267.831461 312.365444 
L 270.088539 312.752388 
L 270.840899 312.774011 
L 271.593258 312.915976 
L 272.345618 312.626611 
L 275.355056 313.180626 
L 276.107416 312.956764 
L 276.859775 312.371526 
L 277.612135 312.009466 
L 278.364494 311.492885 
L 282.126292 312.41043 
L 285.13573 312.938433 
L 287.392809 313.319938 
L 288.145169 312.423156 
L 288.897528 312.094215 
L 289.649888 311.931214 
L 292.659326 312.614221 
L 293.411685 311.670071 
L 294.164045 311.367926 
L 295.668764 311.781852 
L 296.421124 311.233378 
L 297.173483 311.452375 
L 297.925843 311.303288 
L 299.430562 311.351596 
L 300.182921 311.564682 
L 300.935281 311.303292 
L 303.19236 311.91801 
L 303.944719 311.399021 
L 305.449438 311.809915 
L 306.954157 311.554008 
L 309.211236 312.132967 
L 309.963596 311.605041 
L 312.220674 312.15646 
L 312.973034 312.039763 
L 316.734831 312.848169 
L 317.487191 312.986426 
L 318.239551 312.346305 
L 318.99191 312.332538 
L 319.74427 312.496577 
L 320.496629 312.016819 
L 322.001348 312.367477 
L 322.753708 311.851399 
L 323.506067 311.725671 
L 325.010787 312.104717 
L 325.763146 312.088776 
L 329.524944 312.886094 
L 330.277303 312.674591 
L 331.029663 312.811705 
L 331.782022 312.597669 
L 334.039101 313.027776 
L 334.791461 313.036218 
L 335.54382 312.511108 
L 337.800899 312.950255 
L 338.553258 312.849529 
L 343.067416 313.581679 
L 343.819775 313.328462 
L 344.572135 313.375501 
L 345.324494 313.288674 
L 346.076854 313.404907 
L 346.829213 313.365819 
L 348.333933 313.487262 
L 354.352809 313.998697 
L 355.857528 314.156123 
L 356.609888 313.877552 
L 357.362247 313.815165 
L 358.866966 313.990485 
L 360.371685 313.506855 
L 363.381124 313.897591 
L 364.133483 313.284883 
L 364.885843 313.166751 
L 366.390562 313.405292 
L 367.142921 313.339558 
L 372.409438 314.025466 
L 373.161798 313.585545 
L 376.923596 314.044266 
L 377.675955 313.912539 
L 378.428315 313.571758 
L 381.437753 313.950455 
L 382.190112 313.882117 
L 385.199551 314.124194 
L 388.208989 314.36331 
L 388.961348 314.055997 
L 391.218427 314.27811 
L 391.970787 313.834804 
L 393.475506 313.736686 
L 394.227865 313.830518 
L 394.980225 313.701161 
L 395.732584 313.688075 
L 396.484944 313.460973 
L 397.237303 313.56859 
L 397.989663 313.498793 
L 401.751461 313.977138 
L 401.751461 313.977138 
" clip-path="url(#p014ccd8e52)" style="fill: none; stroke: #ff0000; stroke-width: 5; stroke-linecap: square"/>
   </g>
   <g id="patch_3">
    <path d="M 101.56 336.640156 
L 101.56 31.720156 
" style="fill: none; stroke: #000000; stroke-width: 5; stroke-linejoin: miter; stroke-linecap: square"/>
   </g>
   <g id="patch_4">
    <path d="M 101.56 336.640156 
L 402.50382 336.640156 
" style="fill: none; stroke: #000000; stroke-width: 5; stroke-linejoin: miter; stroke-linecap: square"/>
   </g>
   <g id="text_12">
    <!-- A -->
    <g transform="translate(65.446742 16.444681) scale(0.12 -0.12)">
     <defs>
      <path id="DejaVuSans-Bold-41" d="M 3419 850 
L 1538 850 
L 1241 0 
L 31 0 
L 1759 4666 
L 3194 4666 
L 4922 0 
L 3713 0 
L 3419 850 
z
M 1838 1716 
L 3116 1716 
L 2478 3572 
L 1838 1716 
z
" transform="scale(0.015625)"/>
     </defs>
     <use xlink:href="#DejaVuSans-Bold-41"/>
    </g>
   </g>
   <g id="patch_5">
    <path d="M 176.795955 330.541756 
L 252.03191 330.541756 
L 252.03191 319.869556 
L 176.795955 319.869556 
z
" style="fill: #8c5a2b; stroke: #8c5a2b; stroke-linejoin: miter"/>
   </g>
   <g id="text_13">
    <!-- Familiar | Naive -->
    <g transform="translate(178.439566 21.720156) scale(0.19 -0.19)">
     <defs>
      <path id="DejaVuSans-46" d="M 628 4666 
L 3309 4666 
L 3309 4134 
L 1259 4134 
L 1259 2759 
L 3109 2759 
L 3109 2228 
L 1259 2228 
L 1259 0 
L 628 0 
L 628 4666 
z
" transform="scale(0.015625)"/>
      <path id="DejaVuSans-7c" d="M 1344 4891 
L 1344 -1509 
L 813 -1509 
L 813 4891 
L 1344 4891 
z
" transform="scale(0.015625)"/>
     </defs>
     <use xlink:href="#DejaVuSans-46"/>
     <use xlink:href="#DejaVuSans-61" transform="translate(48.394531 0)"/>
     <use xlink:href="#DejaVuSans-6d" transform="translate(109.673828 0)"/>
     <use xlink:href="#DejaVuSans-69" transform="translate(207.085938 0)"/>
     <use xlink:href="#DejaVuSans-6c" transform="translate(234.869141 0)"/>
     <use xlink:href="#DejaVuSans-69" transform="translate(262.652344 0)"/>
     <use xlink:href="#DejaVuSans-61" transform="translate(290.435547 0)"/>
     <use xlink:href="#DejaVuSans-72" transform="translate(351.714844 0)"/>
     <use xlink:href="#DejaVuSans-20" transform="translate(392.828125 0)"/>
     <use xlink:href="#DejaVuSans-7c" transform="translate(424.615234 0)"/>
     <use xlink:href="#DejaVuSans-20" transform="translate(458.306641 0)"/>
     <use xlink:href="#DejaVuSans-4e" transform="translate(490.09375 0)"/>
     <use xlink:href="#DejaVuSans-61" transform="translate(564.898438 0)"/>
     <use xlink:href="#DejaVuSans-69" transform="translate(626.177734 0)"/>
     <use xlink:href="#DejaVuSans-76" transform="translate(653.960938 0)"/>
     <use xlink:href="#DejaVuSans-65" transform="translate(713.140625 0)"/>
    </g>
   </g>
   <g id="legend_1">
    <g id="line2d_12">
     <path d="M 110.56 46.867813 
L 125.56 46.867813 
L 140.56 46.867813 
" style="fill: none; stroke: #000000; stroke-width: 5; stroke-linecap: square"/>
    </g>
    <g id="text_14">
     <!-- Nonoccluded (NO) -->
     <g transform="translate(152.56 52.117813) scale(0.15 -0.15)">
      <defs>
       <path id="DejaVuSans-6f" d="M 1959 3097 
Q 1497 3097 1228 2736 
Q 959 2375 959 1747 
Q 959 1119 1226 758 
Q 1494 397 1959 397 
Q 2419 397 2687 759 
Q 2956 1122 2956 1747 
Q 2956 2369 2687 2733 
Q 2419 3097 1959 3097 
z
M 1959 3584 
Q 2709 3584 3137 3096 
Q 3566 2609 3566 1747 
Q 3566 888 3137 398 
Q 2709 -91 1959 -91 
Q 1206 -91 779 398 
Q 353 888 353 1747 
Q 353 2609 779 3096 
Q 1206 3584 1959 3584 
z
" transform="scale(0.015625)"/>
       <path id="DejaVuSans-6e" d="M 3513 2113 
L 3513 0 
L 2938 0 
L 2938 2094 
Q 2938 2591 2744 2837 
Q 2550 3084 2163 3084 
Q 1697 3084 1428 2787 
Q 1159 2491 1159 1978 
L 1159 0 
L 581 0 
L 581 3500 
L 1159 3500 
L 1159 2956 
Q 1366 3272 1645 3428 
Q 1925 3584 2291 3584 
Q 2894 3584 3203 3211 
Q 3513 2838 3513 2113 
z
" transform="scale(0.015625)"/>
       <path id="DejaVuSans-64" d="M 2906 2969 
L 2906 4863 
L 3481 4863 
L 3481 0 
L 2906 0 
L 2906 525 
Q 2725 213 2448 61 
Q 2172 -91 1784 -91 
Q 1150 -91 751 415 
Q 353 922 353 1747 
Q 353 2572 751 3078 
Q 1150 3584 1784 3584 
Q 2172 3584 2448 3432 
Q 2725 3281 2906 2969 
z
M 947 1747 
Q 947 1113 1208 752 
Q 1469 391 1925 391 
Q 2381 391 2643 752 
Q 2906 1113 2906 1747 
Q 2906 2381 2643 2742 
Q 2381 3103 1925 3103 
Q 1469 3103 1208 2742 
Q 947 2381 947 1747 
z
" transform="scale(0.015625)"/>
       <path id="DejaVuSans-4f" d="M 2522 4238 
Q 1834 4238 1429 3725 
Q 1025 3213 1025 2328 
Q 1025 1447 1429 934 
Q 1834 422 2522 422 
Q 3209 422 3611 934 
Q 4013 1447 4013 2328 
Q 4013 3213 3611 3725 
Q 3209 4238 2522 4238 
z
M 2522 4750 
Q 3503 4750 4090 4092 
Q 4678 3434 4678 2328 
Q 4678 1225 4090 567 
Q 3503 -91 2522 -91 
Q 1538 -91 948 565 
Q 359 1222 359 2328 
Q 359 3434 948 4092 
Q 1538 4750 2522 4750 
z
" transform="scale(0.015625)"/>
      </defs>
      <use xlink:href="#DejaVuSans-4e"/>
      <use xlink:href="#DejaVuSans-6f" transform="translate(74.804688 0)"/>
      <use xlink:href="#DejaVuSans-6e" transform="translate(135.986328 0)"/>
      <use xlink:href="#DejaVuSans-6f" transform="translate(199.365234 0)"/>
      <use xlink:href="#DejaVuSans-63" transform="translate(260.546875 0)"/>
      <use xlink:href="#DejaVuSans-63" transform="translate(315.527344 0)"/>
      <use xlink:href="#DejaVuSans-6c" transform="translate(370.507812 0)"/>
      <use xlink:href="#DejaVuSans-75" transform="translate(398.291016 0)"/>
      <use xlink:href="#DejaVuSans-64" transform="translate(461.669922 0)"/>
      <use xlink:href="#DejaVuSans-65" transform="translate(525.146484 0)"/>
      <use xlink:href="#DejaVuSans-64" transform="translate(586.669922 0)"/>
      <use xlink:href="#DejaVuSans-20" transform="translate(650.146484 0)"/>
      <use xlink:href="#DejaVuSans-28" transform="translate(681.933594 0)"/>
      <use xlink:href="#DejaVuSans-4e" transform="translate(720.947266 0)"/>
      <use xlink:href="#DejaVuSans-4f" transform="translate(795.751953 0)"/>
      <use xlink:href="#DejaVuSans-29" transform="translate(874.462891 0)"/>
     </g>
    </g>
    <g id="line2d_13">
     <path d="M 110.56 68.885 
L 125.56 68.885 
L 140.56 68.885 
" style="fill: none; stroke: #ff0000; stroke-width: 5; stroke-linecap: square"/>
    </g>
    <g id="text_15">
     <!-- Occluded (O) -->
     <g transform="translate(152.56 74.135) scale(0.15 -0.15)">
      <use xlink:href="#DejaVuSans-4f"/>
      <use xlink:href="#DejaVuSans-63" transform="translate(78.710938 0)"/>
      <use xlink:href="#DejaVuSans-63" transform="translate(133.691406 0)"/>
      <use xlink:href="#DejaVuSans-6c" transform="translate(188.671875 0)"/>
      <use xlink:href="#DejaVuSans-75" transform="translate(216.455078 0)"/>
      <use xlink:href="#DejaVuSans-64" transform="translate(279.833984 0)"/>
      <use xlink:href="#DejaVuSans-65" transform="translate(343.310547 0)"/>
      <use xlink:href="#DejaVuSans-64" transform="translate(404.833984 0)"/>
      <use xlink:href="#DejaVuSans-20" transform="translate(468.310547 0)"/>
      <use xlink:href="#DejaVuSans-28" transform="translate(500.097656 0)"/>
      <use xlink:href="#DejaVuSans-4f" transform="translate(539.111328 0)"/>
      <use xlink:href="#DejaVuSans-29" transform="translate(617.822266 0)"/>
     </g>
    </g>
    <g id="line2d_14">
     <path d="M 110.56 90.902188 
L 125.56 90.902188 
L 140.56 90.902188 
" style="fill: none; stroke: #0000ff; stroke-width: 5; stroke-linecap: square"/>
    </g>
    <g id="text_16">
     <!-- No feedback -->
     <g transform="translate(152.56 96.152188) scale(0.15 -0.15)">
      <defs>
       <path id="DejaVuSans-66" d="M 2375 4863 
L 2375 4384 
L 1825 4384 
Q 1516 4384 1395 4259 
Q 1275 4134 1275 3809 
L 1275 3500 
L 2222 3500 
L 2222 3053 
L 1275 3053 
L 1275 0 
L 697 0 
L 697 3053 
L 147 3053 
L 147 3500 
L 697 3500 
L 697 3744 
Q 697 4328 969 4595 
Q 1241 4863 1831 4863 
L 2375 4863 
z
" transform="scale(0.015625)"/>
       <path id="DejaVuSans-62" d="M 3116 1747 
Q 3116 2381 2855 2742 
Q 2594 3103 2138 3103 
Q 1681 3103 1420 2742 
Q 1159 2381 1159 1747 
Q 1159 1113 1420 752 
Q 1681 391 2138 391 
Q 2594 391 2855 752 
Q 3116 1113 3116 1747 
z
M 1159 2969 
Q 1341 3281 1617 3432 
Q 1894 3584 2278 3584 
Q 2916 3584 3314 3078 
Q 3713 2572 3713 1747 
Q 3713 922 3314 415 
Q 2916 -91 2278 -91 
Q 1894 -91 1617 61 
Q 1341 213 1159 525 
L 1159 0 
L 581 0 
L 581 4863 
L 1159 4863 
L 1159 2969 
z
" transform="scale(0.015625)"/>
       <path id="DejaVuSans-6b" d="M 581 4863 
L 1159 4863 
L 1159 1991 
L 2875 3500 
L 3609 3500 
L 1753 1863 
L 3688 0 
L 2938 0 
L 1159 1709 
L 1159 0 
L 581 0 
L 581 4863 
z
" transform="scale(0.015625)"/>
      </defs>
      <use xlink:href="#DejaVuSans-4e"/>
      <use xlink:href="#DejaVuSans-6f" transform="translate(74.804688 0)"/>
      <use xlink:href="#DejaVuSans-20" transform="translate(135.986328 0)"/>
      <use xlink:href="#DejaVuSans-66" transform="translate(167.773438 0)"/>
      <use xlink:href="#DejaVuSans-65" transform="translate(202.978516 0)"/>
      <use xlink:href="#DejaVuSans-65" transform="translate(264.501953 0)"/>
      <use xlink:href="#DejaVuSans-64" transform="translate(326.025391 0)"/>
      <use xlink:href="#DejaVuSans-62" transform="translate(389.501953 0)"/>
      <use xlink:href="#DejaVuSans-61" transform="translate(452.978516 0)"/>
      <use xlink:href="#DejaVuSans-63" transform="translate(514.257812 0)"/>
      <use xlink:href="#DejaVuSans-6b" transform="translate(569.238281 0)"/>
     </g>
    </g>
   </g>
  </g>
  <g id="axes_2">
   <g id="patch_6">
    <path d="M 447.645393 336.640156 
L 748.589213 336.640156 
L 748.589213 31.720156 
L 447.645393 31.720156 
z
" style="fill: #ffffff"/>
   </g>
   <g id="matplotlib.axis_3">
    <g id="xtick_6">
     <g id="line2d_15">
      <g>
       <use xlink:href="#m367c58fad6" x="447.645393" y="336.640156" style="stroke: #000000; stroke-width: 1.6"/>
      </g>
     </g>
     <g id="text_17">
      <!-- -1 -->
      <g transform="translate(431.692893 369.455156) scale(0.32 -0.32)">
       <use xlink:href="#DejaVuSans-2d"/>
       <use xlink:href="#DejaVuSans-31" transform="translate(36.083984 0)"/>
      </g>
     </g>
    </g>
    <g id="xtick_7">
     <g id="line2d_16">
      <g>
       <use xlink:href="#m367c58fad6" x="522.881348" y="336.640156" style="stroke: #000000; stroke-width: 1.6"/>
      </g>
     </g>
     <g id="text_18">
      <!-- 0 -->
      <g transform="translate(512.701348 369.455156) scale(0.32 -0.32)">
       <use xlink:href="#DejaVuSans-30"/>
      </g>
     </g>
    </g>
    <g id="xtick_8">
     <g id="line2d_17">
      <g>
       <use xlink:href="#m367c58fad6" x="598.117303" y="336.640156" style="stroke: #000000; stroke-width: 1.6"/>
      </g>
     </g>
     <g id="text_19">
      <!-- 1 -->
      <g transform="translate(587.937303 369.455156) scale(0.32 -0.32)">
       <use xlink:href="#DejaVuSans-31"/>
      </g>
     </g>
    </g>
    <g id="xtick_9">
     <g id="line2d_18">
      <g>
       <use xlink:href="#m367c58fad6" x="673.353258" y="336.640156" style="stroke: #000000; stroke-width: 1.6"/>
      </g>
     </g>
     <g id="text_20">
      <!-- 2 -->
      <g transform="translate(663.173258 369.455156) scale(0.32 -0.32)">
       <use xlink:href="#DejaVuSans-32"/>
      </g>
     </g>
    </g>
    <g id="xtick_10">
     <g id="line2d_19">
      <g>
       <use xlink:href="#m367c58fad6" x="748.589213" y="336.640156" style="stroke: #000000; stroke-width: 1.6"/>
      </g>
     </g>
     <g id="text_21">
      <!-- 3 -->
      <g transform="translate(738.409213 369.455156) scale(0.32 -0.32)">
       <use xlink:href="#DejaVuSans-33"/>
      </g>
     </g>
    </g>
    <g id="text_22">
     <!-- Time (s) -->
     <g transform="translate(533.064803 404.425156) scale(0.32 -0.32)">
      <use xlink:href="#DejaVuSans-54"/>
      <use xlink:href="#DejaVuSans-69" transform="translate(57.958984 0)"/>
      <use xlink:href="#DejaVuSans-6d" transform="translate(85.742188 0)"/>
      <use xlink:href="#DejaVuSans-65" transform="translate(183.154297 0)"/>
      <use xlink:href="#DejaVuSans-20" transform="translate(244.677734 0)"/>
      <use xlink:href="#DejaVuSans-28" transform="translate(276.464844 0)"/>
      <use xlink:href="#DejaVuSans-73" transform="translate(315.478516 0)"/>
      <use xlink:href="#DejaVuSans-29" transform="translate(367.578125 0)"/>
     </g>
    </g>
   </g>
   <g id="matplotlib.axis_4">
    <g id="ytick_5">
     <g id="line2d_20">
      <g>
       <use xlink:href="#m5187711a15" x="447.645393" y="315.613317" style="stroke: #000000; stroke-width: 1.6"/>
      </g>
     </g>
    </g>
    <g id="ytick_6">
     <g id="line2d_21">
      <g>
       <use xlink:href="#m5187711a15" x="447.645393" y="229.840793" style="stroke: #000000; stroke-width: 1.6"/>
      </g>
     </g>
    </g>
    <g id="ytick_7">
     <g id="line2d_22">
      <g>
       <use xlink:href="#m5187711a15" x="447.645393" y="144.06827" style="stroke: #000000; stroke-width: 1.6"/>
      </g>
     </g>
    </g>
    <g id="ytick_8">
     <g id="line2d_23">
      <g>
       <use xlink:href="#m5187711a15" x="447.645393" y="58.295747" style="stroke: #000000; stroke-width: 1.6"/>
      </g>
     </g>
    </g>
   </g>
   <g id="line2d_24">
    <path d="M 448.397753 311.962642 
L 449.150112 311.996077 
L 450.654831 312.348758 
L 451.407191 311.65493 
L 455.168989 312.550393 
L 459.683146 313.361786 
L 463.444944 313.871126 
L 464.197303 313.354138 
L 464.949663 312.028498 
L 467.959101 312.69346 
L 473.977978 313.575345 
L 474.730337 311.94493 
L 478.492135 312.774789 
L 483.006292 313.526738 
L 488.272809 314.156181 
L 491.282247 314.426471 
L 492.034607 313.711512 
L 492.786966 312.18307 
L 496.548764 312.959057 
L 499.558202 313.451406 
L 501.062921 312.54631 
L 504.07236 313.115221 
L 504.824719 312.316085 
L 508.586517 313.061982 
L 510.091236 313.310737 
L 510.843596 313.183685 
L 511.595955 312.224034 
L 515.357753 312.990754 
L 519.87191 313.685493 
L 525.138427 314.267045 
L 531.909663 314.76483 
L 540.185618 315.130698 
L 551.471011 315.389724 
L 569.52764 315.54803 
L 601.879101 315.606123 
L 602.631461 314.540773 
L 603.38382 314.5944 
L 604.13618 314.185173 
L 610.155056 314.665857 
L 610.907416 314.71323 
L 611.659775 313.063678 
L 616.173933 313.72839 
L 617.678652 313.91217 
L 618.431011 313.641994 
L 623.697528 314.236669 
L 624.449888 314.305501 
L 625.202247 314.020315 
L 626.706966 314.175632 
L 627.459326 312.146472 
L 629.716404 312.640931 
L 630.468764 311.10958 
L 631.221124 310.674954 
L 634.230562 311.590989 
L 634.982921 310.695144 
L 635.735281 308.881111 
L 638.744719 310.129893 
L 641.754157 311.114116 
L 642.506517 311.107937 
L 643.258876 311.333206 
L 644.011236 310.75735 
L 644.763596 310.710854 
L 645.515955 310.34108 
L 646.268315 310.604692 
L 647.020674 308.575573 
L 650.030112 309.881031 
L 653.039551 310.944335 
L 653.79191 310.051292 
L 656.801348 311.083013 
L 660.563146 312.107854 
L 661.315506 311.88733 
L 662.067865 311.085666 
L 665.077303 311.885041 
L 665.829663 310.866819 
L 667.334382 311.329603 
L 668.839101 311.666336 
L 672.600899 312.559218 
L 677.115056 313.368274 
L 682.381573 314.04552 
L 687.64809 314.518466 
L 688.400449 314.390901 
L 689.152809 312.865634 
L 690.657528 313.039683 
L 691.409888 311.455935 
L 692.162247 311.196634 
L 693.666966 311.627261 
L 694.419326 310.259434 
L 697.428764 311.252546 
L 698.181124 310.838393 
L 701.942921 311.918573 
L 702.695281 311.630273 
L 704.2 312.01862 
L 704.95236 311.835068 
L 705.704719 312.023981 
L 706.457079 311.333273 
L 710.218876 312.301501 
L 712.475955 312.773849 
L 713.228315 311.563484 
L 713.980674 311.168347 
L 717.742472 312.173885 
L 719.247191 312.509229 
L 719.999551 311.000314 
L 720.75191 311.230965 
L 721.50427 310.722018 
L 724.513708 311.629324 
L 725.266067 309.892117 
L 728.275506 310.953364 
L 732.037303 312.007534 
L 733.542022 312.359098 
L 734.294382 311.940028 
L 738.05618 312.770996 
L 738.808539 312.913112 
L 739.560899 312.518301 
L 740.313258 312.673052 
L 741.065618 311.520311 
L 744.075056 312.237652 
L 744.827416 312.406435 
L 745.579775 311.970259 
L 747.084494 312.325457 
L 747.836854 312.202931 
L 747.836854 312.202931 
" clip-path="url(#pc0ca11f89f)" style="fill: none; stroke: #000000; stroke-width: 5; stroke-linecap: square"/>
   </g>
   <g id="line2d_25">
    <path d="M 448.397753 311.409311 
L 449.902472 311.721397 
L 450.654831 311.754507 
L 451.407191 311.926026 
L 452.159551 311.180884 
L 452.91191 311.402506 
L 455.168989 310.762742 
L 456.673708 311.143904 
L 457.426067 311.367374 
L 458.178427 310.626058 
L 458.930787 310.795748 
L 459.683146 310.306846 
L 461.187865 310.824227 
L 461.940225 310.862741 
L 464.949663 311.734818 
L 468.711461 312.612208 
L 473.225618 313.407226 
L 475.482697 313.716091 
L 476.235056 313.676635 
L 476.987416 313.773469 
L 477.739775 313.578944 
L 479.996854 313.869096 
L 480.749213 313.794524 
L 481.501573 313.565487 
L 482.253933 313.667879 
L 483.006292 313.250238 
L 483.758652 313.368392 
L 484.511011 312.939914 
L 485.263371 312.655886 
L 486.01573 311.610004 
L 489.777528 312.51563 
L 492.034607 312.957438 
L 492.786966 312.681152 
L 493.539326 312.803233 
L 494.291685 312.733212 
L 495.044045 312.437947 
L 496.548764 312.702184 
L 497.301124 312.728061 
L 501.815281 313.492389 
L 503.32 312.717532 
L 504.824719 312.999872 
L 506.329438 312.739634 
L 507.834157 312.171202 
L 508.586517 312.029932 
L 510.091236 312.379312 
L 510.843596 311.741403 
L 512.348315 312.118915 
L 513.853034 311.797751 
L 514.605393 311.976444 
L 515.357753 310.997988 
L 516.110112 311.206426 
L 516.862472 311.085208 
L 519.87191 311.925144 
L 520.62427 311.903562 
L 521.376629 311.718628 
L 522.128989 311.913362 
L 522.881348 311.850153 
L 525.138427 312.322978 
L 525.890787 311.696656 
L 526.643146 310.619269 
L 527.395506 309.8232 
L 528.900225 310.283767 
L 529.652584 310.550245 
L 530.404944 310.552721 
L 531.909663 311.046129 
L 532.662022 311.0547 
L 535.671461 311.900295 
L 536.42382 311.691694 
L 537.17618 311.887775 
L 537.928539 311.404194 
L 539.433258 311.814584 
L 541.690337 311.920146 
L 544.699775 312.605206 
L 545.452135 311.707087 
L 546.204494 311.902398 
L 546.956854 311.858189 
L 550.718652 312.70767 
L 551.471011 312.852953 
L 552.223371 312.471939 
L 554.480449 312.829996 
L 558.994607 313.56732 
L 560.499326 313.277301 
L 565.013483 313.896131 
L 565.765843 313.967768 
L 566.518202 313.761111 
L 567.270562 313.726484 
L 568.022921 313.820826 
L 568.775281 313.568114 
L 571.784719 313.947487 
L 572.537079 313.950446 
L 573.289438 313.77922 
L 574.041798 313.870925 
L 574.794157 313.287377 
L 575.546517 313.285387 
L 577.051236 313.412505 
L 578.555955 312.146883 
L 579.308315 311.607282 
L 580.060674 311.432586 
L 580.813034 311.641623 
L 581.565393 310.886348 
L 582.317753 310.289489 
L 583.070112 310.555681 
L 583.822472 310.507211 
L 584.574831 310.762516 
L 586.079551 311.125443 
L 586.83191 310.597385 
L 588.336629 311.086438 
L 589.088989 311.079264 
L 592.850787 312.104953 
L 595.107865 312.555911 
L 595.860225 312.470912 
L 596.612584 311.873075 
L 599.622022 312.566867 
L 601.879101 312.945863 
L 602.631461 313.079236 
L 603.38382 312.762317 
L 604.888539 313.04029 
L 605.640899 312.919142 
L 607.145618 313.181825 
L 607.897978 312.692789 
L 608.650337 312.838816 
L 609.402697 312.612512 
L 610.155056 312.762553 
L 610.907416 311.573501 
L 611.659775 310.854263 
L 615.421573 311.930852 
L 616.926292 312.289893 
L 617.678652 311.292084 
L 618.431011 311.10915 
L 619.93573 311.469083 
L 620.68809 311.020492 
L 621.440449 310.942538 
L 625.202247 311.999157 
L 626.706966 312.351538 
L 627.459326 311.79372 
L 631.221124 312.657786 
L 631.973483 312.805563 
L 632.725843 312.748163 
L 633.478202 312.891421 
L 634.230562 312.731221 
L 634.982921 312.211279 
L 638.744719 312.980885 
L 639.497079 312.81149 
L 640.249438 312.951582 
L 641.001798 312.510991 
L 643.258876 312.95346 
L 644.011236 312.859104 
L 648.525393 313.588717 
L 651.534831 313.896063 
L 656.801348 314.414095 
L 657.553708 314.179179 
L 662.067865 314.559094 
L 662.820225 314.343605 
L 663.572584 314.407091 
L 664.324944 313.861386 
L 665.077303 313.948983 
L 665.829663 313.785233 
L 670.34382 314.269507 
L 671.848539 314.30588 
L 672.600899 313.956288 
L 678.619775 314.514011 
L 683.133933 314.805226 
L 683.886292 314.162528 
L 684.638652 314.131092 
L 685.391011 313.956208 
L 686.89573 314.117776 
L 688.400449 313.52596 
L 690.657528 313.82367 
L 691.409888 313.731101 
L 692.162247 313.825212 
L 692.914607 312.680929 
L 693.666966 312.827548 
L 694.419326 312.613545 
L 695.171685 312.763534 
L 695.924045 312.749475 
L 698.933483 313.280699 
L 699.685843 313.146283 
L 701.942921 313.498144 
L 702.695281 313.414462 
L 705.704719 313.822336 
L 706.457079 313.654019 
L 707.209438 313.751984 
L 707.961798 313.50978 
L 710.218876 313.809797 
L 710.971236 313.789291 
L 716.237753 314.339532 
L 720.75191 314.676968 
L 721.50427 313.764439 
L 723.008989 313.926869 
L 723.761348 313.489475 
L 724.513708 313.253431 
L 725.266067 313.23597 
L 726.018427 312.977156 
L 729.027865 313.466147 
L 729.780225 312.966611 
L 730.532584 313.098947 
L 731.284944 312.640125 
L 733.542022 313.013596 
L 736.551461 313.495828 
L 739.560899 311.981299 
L 740.313258 311.996444 
L 743.322697 312.667351 
L 744.827416 312.16945 
L 745.579775 312.341643 
L 746.332135 312.227164 
L 747.836854 312.479646 
L 747.836854 312.479646 
" clip-path="url(#pc0ca11f89f)" style="fill: none; stroke: #ff0000; stroke-width: 5; stroke-linecap: square"/>
   </g>
   <g id="patch_7">
    <path d="M 447.645393 336.640156 
L 447.645393 31.720156 
" style="fill: none; stroke: #000000; stroke-width: 5; stroke-linejoin: miter; stroke-linecap: square"/>
   </g>
   <g id="patch_8">
    <path d="M 447.645393 336.640156 
L 748.589213 336.640156 
" style="fill: none; stroke: #000000; stroke-width: 5; stroke-linejoin: miter; stroke-linecap: square"/>
   </g>
   <g id="patch_9">
    <path d="M 522.881348 330.541756 
L 598.117303 330.541756 
L 598.117303 319.869556 
L 522.881348 319.869556 
z
" style="fill: #8c5a2b; stroke: #8c5a2b; stroke-linejoin: miter"/>
   </g>
   <g id="text_23">
    <!-- Familiar | Expert -->
    <g transform="translate(520.429569 21.720156) scale(0.19 -0.19)">
     <defs>
      <path id="DejaVuSans-45" d="M 628 4666 
L 3578 4666 
L 3578 4134 
L 1259 4134 
L 1259 2753 
L 3481 2753 
L 3481 2222 
L 1259 2222 
L 1259 531 
L 3634 531 
L 3634 0 
L 628 0 
L 628 4666 
z
" transform="scale(0.015625)"/>
      <path id="DejaVuSans-78" d="M 3513 3500 
L 2247 1797 
L 3578 0 
L 2900 0 
L 1881 1375 
L 863 0 
L 184 0 
L 1544 1831 
L 300 3500 
L 978 3500 
L 1906 2253 
L 2834 3500 
L 3513 3500 
z
" transform="scale(0.015625)"/>
      <path id="DejaVuSans-70" d="M 1159 525 
L 1159 -1331 
L 581 -1331 
L 581 3500 
L 1159 3500 
L 1159 2969 
Q 1341 3281 1617 3432 
Q 1894 3584 2278 3584 
Q 2916 3584 3314 3078 
Q 3713 2572 3713 1747 
Q 3713 922 3314 415 
Q 2916 -91 2278 -91 
Q 1894 -91 1617 61 
Q 1341 213 1159 525 
z
M 3116 1747 
Q 3116 2381 2855 2742 
Q 2594 3103 2138 3103 
Q 1681 3103 1420 2742 
Q 1159 2381 1159 1747 
Q 1159 1113 1420 752 
Q 1681 391 2138 391 
Q 2594 391 2855 752 
Q 3116 1113 3116 1747 
z
" transform="scale(0.015625)"/>
     </defs>
     <use xlink:href="#DejaVuSans-46"/>
     <use xlink:href="#DejaVuSans-61" transform="translate(48.394531 0)"/>
     <use xlink:href="#DejaVuSans-6d" transform="translate(109.673828 0)"/>
     <use xlink:href="#DejaVuSans-69" transform="translate(207.085938 0)"/>
     <use xlink:href="#DejaVuSans-6c" transform="translate(234.869141 0)"/>
     <use xlink:href="#DejaVuSans-69" transform="translate(262.652344 0)"/>
     <use xlink:href="#DejaVuSans-61" transform="translate(290.435547 0)"/>
     <use xlink:href="#DejaVuSans-72" transform="translate(351.714844 0)"/>
     <use xlink:href="#DejaVuSans-20" transform="translate(392.828125 0)"/>
     <use xlink:href="#DejaVuSans-7c" transform="translate(424.615234 0)"/>
     <use xlink:href="#DejaVuSans-20" transform="translate(458.306641 0)"/>
     <use xlink:href="#DejaVuSans-45" transform="translate(490.09375 0)"/>
     <use xlink:href="#DejaVuSans-78" transform="translate(553.277344 0)"/>
     <use xlink:href="#DejaVuSans-70" transform="translate(612.457031 0)"/>
     <use xlink:href="#DejaVuSans-65" transform="translate(675.933594 0)"/>
     <use xlink:href="#DejaVuSans-72" transform="translate(737.457031 0)"/>
     <use xlink:href="#DejaVuSans-74" transform="translate(778.570312 0)"/>
    </g>
   </g>
  </g>
  <g id="axes_3">
   <g id="patch_10">
    <path d="M 793.730787 336.640156 
L 1094.674607 336.640156 
L 1094.674607 31.720156 
L 793.730787 31.720156 
z
" style="fill: #ffffff"/>
   </g>
   <g id="matplotlib.axis_5">
    <g id="xtick_11">
     <g id="line2d_26">
      <g>
       <use xlink:href="#m367c58fad6" x="793.730787" y="336.640156" style="stroke: #000000; stroke-width: 1.6"/>
      </g>
     </g>
     <g id="text_24">
      <!-- -1 -->
      <g transform="translate(777.778287 369.455156) scale(0.32 -0.32)">
       <use xlink:href="#DejaVuSans-2d"/>
       <use xlink:href="#DejaVuSans-31" transform="translate(36.083984 0)"/>
      </g>
     </g>
    </g>
    <g id="xtick_12">
     <g id="line2d_27">
      <g>
       <use xlink:href="#m367c58fad6" x="868.966742" y="336.640156" style="stroke: #000000; stroke-width: 1.6"/>
      </g>
     </g>
     <g id="text_25">
      <!-- 0 -->
      <g transform="translate(858.786742 369.455156) scale(0.32 -0.32)">
       <use xlink:href="#DejaVuSans-30"/>
      </g>
     </g>
    </g>
    <g id="xtick_13">
     <g id="line2d_28">
      <g>
       <use xlink:href="#m367c58fad6" x="944.202697" y="336.640156" style="stroke: #000000; stroke-width: 1.6"/>
      </g>
     </g>
     <g id="text_26">
      <!-- 1 -->
      <g transform="translate(934.022697 369.455156) scale(0.32 -0.32)">
       <use xlink:href="#DejaVuSans-31"/>
      </g>
     </g>
    </g>
    <g id="xtick_14">
     <g id="line2d_29">
      <g>
       <use xlink:href="#m367c58fad6" x="1019.438652" y="336.640156" style="stroke: #000000; stroke-width: 1.6"/>
      </g>
     </g>
     <g id="text_27">
      <!-- 2 -->
      <g transform="translate(1009.258652 369.455156) scale(0.32 -0.32)">
       <use xlink:href="#DejaVuSans-32"/>
      </g>
     </g>
    </g>
    <g id="xtick_15">
     <g id="line2d_30">
      <g>
       <use xlink:href="#m367c58fad6" x="1094.674607" y="336.640156" style="stroke: #000000; stroke-width: 1.6"/>
      </g>
     </g>
     <g id="text_28">
      <!-- 3 -->
      <g transform="translate(1084.494607 369.455156) scale(0.32 -0.32)">
       <use xlink:href="#DejaVuSans-33"/>
      </g>
     </g>
    </g>
    <g id="text_29">
     <!-- Time (s) -->
     <g transform="translate(879.150197 404.425156) scale(0.32 -0.32)">
      <use xlink:href="#DejaVuSans-54"/>
      <use xlink:href="#DejaVuSans-69" transform="translate(57.958984 0)"/>
      <use xlink:href="#DejaVuSans-6d" transform="translate(85.742188 0)"/>
      <use xlink:href="#DejaVuSans-65" transform="translate(183.154297 0)"/>
      <use xlink:href="#DejaVuSans-20" transform="translate(244.677734 0)"/>
      <use xlink:href="#DejaVuSans-28" transform="translate(276.464844 0)"/>
      <use xlink:href="#DejaVuSans-73" transform="translate(315.478516 0)"/>
      <use xlink:href="#DejaVuSans-29" transform="translate(367.578125 0)"/>
     </g>
    </g>
   </g>
   <g id="matplotlib.axis_6">
    <g id="ytick_9">
     <g id="line2d_31">
      <g>
       <use xlink:href="#m5187711a15" x="793.730787" y="315.613317" style="stroke: #000000; stroke-width: 1.6"/>
      </g>
     </g>
    </g>
    <g id="ytick_10">
     <g id="line2d_32">
      <g>
       <use xlink:href="#m5187711a15" x="793.730787" y="229.840793" style="stroke: #000000; stroke-width: 1.6"/>
      </g>
     </g>
    </g>
    <g id="ytick_11">
     <g id="line2d_33">
      <g>
       <use xlink:href="#m5187711a15" x="793.730787" y="144.06827" style="stroke: #000000; stroke-width: 1.6"/>
      </g>
     </g>
    </g>
    <g id="ytick_12">
     <g id="line2d_34">
      <g>
       <use xlink:href="#m5187711a15" x="793.730787" y="58.295747" style="stroke: #000000; stroke-width: 1.6"/>
      </g>
     </g>
    </g>
   </g>
   <g id="line2d_35">
    <path d="M 794.483146 313.620671 
L 795.235506 312.682118 
L 799.749663 313.458617 
L 804.26382 314.029414 
L 807.273258 314.31185 
L 808.025618 312.653601 
L 808.777978 312.245799 
L 811.035056 312.726091 
L 811.787416 312.1319 
L 815.549213 312.919463 
L 816.301573 313.054155 
L 817.053933 313.068778 
L 821.56809 313.742847 
L 826.834607 314.307098 
L 828.339326 314.434455 
L 829.091685 314.146529 
L 832.101124 314.418609 
L 832.853483 314.222324 
L 838.87236 314.690504 
L 840.377079 314.780478 
L 841.129438 314.036639 
L 844.138876 314.329103 
L 844.891236 313.169167 
L 846.395955 313.407472 
L 847.900674 312.995481 
L 849.405393 313.25072 
L 850.157753 311.607845 
L 850.910112 311.808118 
L 851.662472 311.529718 
L 854.67191 312.260489 
L 855.42427 309.484713 
L 858.433708 310.621531 
L 859.938427 311.10823 
L 860.690787 310.990915 
L 865.204944 312.177589 
L 865.957303 311.916024 
L 868.214382 312.44335 
L 872.728539 220.866637 
L 873.480899 206.373954 
L 874.985618 184.259082 
L 877.242697 155.51285 
L 878.747416 142.660762 
L 879.499775 135.153666 
L 880.252135 132.209028 
L 881.004494 126.830779 
L 881.756854 117.623477 
L 882.509213 111.138218 
L 883.261573 107.836604 
L 884.013933 103.513831 
L 884.766292 98.402042 
L 886.271011 90.466435 
L 887.023371 84.462666 
L 887.77573 80.26323 
L 888.52809 76.864224 
L 889.280449 72.901469 
L 890.032809 70.577149 
L 890.785169 70.093972 
L 891.537528 68.41681 
L 892.289888 65.991391 
L 893.042247 65.486206 
L 894.546966 65.437152 
L 895.299326 63.710553 
L 896.051685 62.772829 
L 896.804045 63.261578 
L 897.556404 59.955797 
L 898.308764 58.199929 
L 899.813483 53.215018 
L 900.565843 54.44111 
L 901.318202 52.749122 
L 902.070562 54.243923 
L 902.822921 55.245194 
L 903.575281 57.64707 
L 904.32764 58.954577 
L 905.08 62.227101 
L 905.83236 61.42501 
L 906.584719 61.927359 
L 907.337079 61.996377 
L 908.089438 63.038752 
L 909.594157 66.414369 
L 910.346517 67.117867 
L 911.098876 67.560911 
L 911.851236 67.339798 
L 912.603596 66.771371 
L 913.355955 66.783794 
L 914.108315 69.348169 
L 914.860674 69.860972 
L 915.613034 71.362598 
L 916.365393 71.239542 
L 917.117753 72.704486 
L 917.870112 74.906517 
L 918.622472 74.972518 
L 919.374831 72.935134 
L 920.127191 72.142041 
L 921.63191 76.545974 
L 922.38427 76.075144 
L 923.136629 76.233655 
L 923.888989 76.845027 
L 924.641348 76.77969 
L 925.393708 75.735857 
L 926.146067 77.633237 
L 926.898427 77.071712 
L 927.650787 79.919163 
L 928.403146 80.702261 
L 929.155506 83.666633 
L 929.907865 85.442056 
L 930.660225 87.834908 
L 931.412584 90.999074 
L 932.164944 91.865735 
L 932.917303 94.526684 
L 933.669663 93.117798 
L 934.422022 93.992766 
L 935.174382 96.948473 
L 935.926742 95.853618 
L 936.679101 96.272532 
L 937.431461 98.403576 
L 938.18382 99.314229 
L 938.93618 102.843373 
L 939.688539 104.213929 
L 940.440899 105.21589 
L 941.193258 105.5329 
L 941.945618 107.496192 
L 942.697978 106.728112 
L 943.450337 105.561197 
L 945.707416 135.519883 
L 947.964494 161.205719 
L 950.221573 183.228107 
L 952.478652 202.109552 
L 954.73573 218.298038 
L 956.992809 232.177631 
L 959.249888 244.077649 
L 961.506966 254.280426 
L 963.764045 263.028032 
L 966.021124 270.528008 
L 968.278202 276.958302 
L 970.535281 282.471475 
L 972.79236 287.198333 
L 975.049438 291.25102 
L 977.306517 294.725694 
L 979.563596 297.704791 
L 981.820674 300.258996 
L 984.077753 302.448906 
L 986.334831 304.326481 
L 988.59191 305.936266 
L 990.848989 307.316456 
L 993.858427 308.855473 
L 996.867865 310.109011 
L 999.877303 311.130026 
L 1003.639101 312.144232 
L 1007.400899 312.929005 
L 1011.915056 313.640101 
L 1017.181573 314.235347 
L 1023.952809 314.744852 
L 1032.228764 315.119334 
L 1034.485843 315.189788 
L 1035.238202 315.086495 
L 1045.771236 315.356399 
L 1062.323146 315.530195 
L 1063.075506 314.94502 
L 1072.85618 315.270252 
L 1086.398652 315.477046 
L 1087.151011 314.626405 
L 1087.903371 314.67575 
L 1088.65573 314.268989 
L 1090.160449 314.400061 
L 1090.912809 313.594096 
L 1093.922247 313.968649 
L 1093.922247 313.968649 
" clip-path="url(#pf4938fbecd)" style="fill: none; stroke: #000000; stroke-width: 5; stroke-linecap: square"/>
   </g>
   <g id="line2d_36">
    <path d="M 794.483146 312.409893 
L 795.235506 311.583183 
L 795.987865 311.458725 
L 796.740225 311.666455 
L 797.492584 311.40758 
L 798.244944 311.617867 
L 798.997303 310.968203 
L 799.749663 310.806659 
L 800.502022 310.808284 
L 801.254382 310.391165 
L 802.006742 309.690243 
L 802.759101 309.692351 
L 804.26382 310.269645 
L 805.768539 310.234027 
L 806.520899 310.502992 
L 808.025618 310.433926 
L 808.777978 310.692896 
L 809.530337 310.619708 
L 811.787416 311.331922 
L 812.539775 311.126187 
L 814.796854 311.766165 
L 815.549213 310.866582 
L 818.558652 311.747071 
L 819.311011 310.791324 
L 820.063371 311.032423 
L 820.81573 310.891291 
L 821.56809 310.252187 
L 822.320449 310.159283 
L 825.329888 311.170972 
L 826.082247 311.393089 
L 826.834607 311.009794 
L 827.586966 311.23997 
L 828.339326 311.092987 
L 831.348764 311.93148 
L 832.101124 311.972815 
L 832.853483 312.15484 
L 833.605843 312.09557 
L 836.615281 312.680075 
L 837.36764 312.59844 
L 838.12 312.200863 
L 838.87236 311.628157 
L 839.624719 311.535081 
L 840.377079 311.322303 
L 843.386517 312.118259 
L 844.138876 311.777948 
L 844.891236 311.969716 
L 845.643596 311.945742 
L 846.395955 312.129121 
L 847.148315 311.517546 
L 847.900674 311.526563 
L 850.157753 312.109437 
L 850.910112 311.956999 
L 851.662472 312.139815 
L 852.414831 311.619429 
L 853.167191 311.667152 
L 853.919551 311.864461 
L 854.67191 311.628656 
L 855.42427 311.827889 
L 856.928989 311.792274 
L 858.433708 311.090788 
L 859.938427 311.531735 
L 860.690787 311.410417 
L 861.443146 310.314598 
L 865.957303 311.694323 
L 866.709663 311.680126 
L 867.462022 311.498161 
L 871.22382 312.429088 
L 873.480899 312.883238 
L 874.233258 312.783058 
L 878.747416 313.532817 
L 884.013933 314.160426 
L 884.766292 314.233071 
L 887.023371 314.17024 
L 889.280449 314.376059 
L 890.032809 314.310515 
L 891.537528 314.437538 
L 892.289888 314.222097 
L 898.308764 314.690353 
L 899.061124 314.736502 
L 899.813483 314.556522 
L 900.565843 314.609362 
L 901.318202 314.387021 
L 911.851236 315.006528 
L 912.603596 314.612209 
L 916.365393 314.838679 
L 917.117753 313.911329 
L 918.622472 314.015856 
L 920.127191 313.578073 
L 920.879551 313.306365 
L 921.63191 313.421713 
L 922.38427 313.411025 
L 924.641348 313.725127 
L 925.393708 313.596723 
L 926.146067 313.697552 
L 926.898427 313.488056 
L 927.650787 313.594319 
L 929.155506 313.102234 
L 929.907865 313.227788 
L 931.412584 312.981679 
L 932.164944 312.162571 
L 932.917303 312.144847 
L 935.174382 312.639538 
L 935.926742 312.5971 
L 938.18382 312.755477 
L 938.93618 312.718157 
L 939.688539 312.37741 
L 944.202697 313.234628 
L 944.955056 313.152209 
L 946.459775 313.392167 
L 947.964494 313.50478 
L 949.469213 313.642598 
L 950.221573 313.579898 
L 950.973933 313.681569 
L 951.726292 313.520566 
L 954.73573 313.908758 
L 956.240449 313.088557 
L 957.745169 313.334722 
L 958.497528 313.290482 
L 959.249888 313.406624 
L 960.002247 313.400939 
L 960.754607 313.511558 
L 961.506966 313.317041 
L 962.259326 313.000719 
L 963.011685 313.131349 
L 963.764045 312.842666 
L 967.525843 313.469441 
L 968.278202 313.038748 
L 969.030562 312.93476 
L 969.782921 313.068688 
L 970.535281 312.656161 
L 975.049438 313.439536 
L 977.306517 313.656883 
L 978.058876 313.382016 
L 978.811236 312.712552 
L 979.563596 312.824952 
L 980.315955 312.644469 
L 981.068315 312.792911 
L 981.820674 312.040861 
L 982.573034 311.456656 
L 984.830112 312.0495 
L 985.582472 311.756362 
L 989.34427 312.628879 
L 990.096629 312.778101 
L 990.848989 312.784596 
L 991.601348 312.926032 
L 992.353708 312.925408 
L 996.867865 313.637457 
L 1000.629663 314.071639 
L 1001.382022 313.88693 
L 1004.391461 314.207164 
L 1005.14382 313.74744 
L 1005.89618 313.840734 
L 1007.400899 313.411948 
L 1008.153258 313.367088 
L 1008.905618 313.479399 
L 1009.657978 313.408203 
L 1014.924494 314.073404 
L 1015.676854 313.71804 
L 1016.429213 313.68145 
L 1019.438652 313.966562 
L 1022.44809 314.175205 
L 1023.952809 313.244377 
L 1024.705169 313.271661 
L 1025.457528 312.632531 
L 1028.466966 313.185448 
L 1029.219326 313.158503 
L 1030.724045 313.397847 
L 1031.476404 313.120327 
L 1035.990562 313.78074 
L 1039 314.120672 
L 1039.75236 313.923027 
L 1042.009438 314.116194 
L 1042.761798 314.19105 
L 1043.514157 314.006898 
L 1044.266517 314.087219 
L 1045.018876 313.693657 
L 1045.771236 313.647537 
L 1050.285393 314.092727 
L 1051.037753 313.630825 
L 1054.047191 313.998565 
L 1056.30427 313.665863 
L 1057.056629 313.763236 
L 1057.808989 313.317599 
L 1060.066067 313.594282 
L 1060.818427 313.494197 
L 1064.580225 313.973582 
L 1065.332584 313.568608 
L 1069.846742 314.102329 
L 1070.599101 313.712688 
L 1075.865618 314.286037 
L 1076.617978 314.211115 
L 1077.370337 314.281225 
L 1078.122697 313.739261 
L 1078.875056 313.832963 
L 1079.627416 312.87927 
L 1081.884494 313.269214 
L 1083.389213 312.617926 
L 1086.398652 313.173552 
L 1088.65573 313.450903 
L 1089.40809 312.993688 
L 1090.160449 312.970588 
L 1090.912809 312.79723 
L 1092.417528 313.071799 
L 1093.169888 312.905377 
L 1093.922247 313.040774 
L 1093.922247 313.040774 
" clip-path="url(#pf4938fbecd)" style="fill: none; stroke: #ff0000; stroke-width: 5; stroke-linecap: square"/>
   </g>
   <g id="line2d_37">
    <path d="M 794.483146 313.924265 
L 795.235506 312.696949 
L 799.749663 313.469519 
L 800.502022 313.576709 
L 801.254382 313.305217 
L 806.520899 314.001484 
L 807.273258 314.082076 
L 808.025618 311.947733 
L 808.777978 311.584187 
L 810.282697 311.977028 
L 811.035056 311.970038 
L 811.787416 311.399225 
L 815.549213 312.352533 
L 816.301573 312.515572 
L 817.806292 312.716328 
L 821.56809 313.371682 
L 822.320449 312.989641 
L 826.834607 313.684674 
L 828.339326 313.872717 
L 829.091685 313.544396 
L 833.605843 314.09247 
L 834.358202 313.627462 
L 839.624719 314.22652 
L 840.377079 314.29586 
L 841.129438 313.457935 
L 843.386517 313.765346 
L 844.138876 313.26852 
L 844.891236 312.091755 
L 846.395955 312.435107 
L 847.148315 312.046681 
L 847.900674 312.092652 
L 849.405393 312.435916 
L 850.157753 311.345767 
L 853.167191 312.101988 
L 854.67191 312.372211 
L 855.42427 310.172494 
L 858.433708 311.181732 
L 859.938427 311.613812 
L 860.690787 311.66367 
L 864.452584 312.557155 
L 868.214382 313.212334 
L 871.97618 233.653107 
L 873.480899 205.1126 
L 874.985618 183.042308 
L 877.242697 156.87915 
L 878.747416 143.632688 
L 879.499775 135.717709 
L 880.252135 132.044178 
L 881.004494 126.3475 
L 881.756854 117.044928 
L 882.509213 110.7003 
L 883.261573 107.807399 
L 884.013933 104.345421 
L 884.766292 98.331618 
L 885.518652 94.302478 
L 886.271011 91.422385 
L 887.023371 84.51131 
L 887.77573 81.028792 
L 888.52809 78.200948 
L 889.280449 74.111865 
L 890.032809 72.670821 
L 890.785169 72.06855 
L 891.537528 70.933818 
L 892.289888 68.972814 
L 893.042247 67.856256 
L 894.546966 67.802601 
L 895.299326 65.997808 
L 896.051685 65.099322 
L 896.804045 65.344387 
L 897.556404 61.20083 
L 898.308764 59.053758 
L 899.061124 57.626211 
L 899.813483 54.720326 
L 900.565843 56.455769 
L 901.318202 54.537428 
L 902.070562 55.714849 
L 902.822921 55.646419 
L 903.575281 56.663948 
L 905.08 62.218742 
L 905.83236 60.873557 
L 906.584719 61.414581 
L 908.841798 64.972559 
L 909.594157 67.182795 
L 911.098876 68.349147 
L 913.355955 65.100395 
L 914.108315 68.483783 
L 914.860674 68.407761 
L 915.613034 69.391957 
L 916.365393 69.291267 
L 917.117753 70.193971 
L 917.870112 72.403185 
L 918.622472 72.265558 
L 919.374831 70.754397 
L 920.127191 69.828483 
L 921.63191 75.272286 
L 922.38427 74.697674 
L 923.136629 75.406028 
L 923.888989 75.577448 
L 924.641348 75.623255 
L 925.393708 74.238832 
L 926.146067 76.8245 
L 926.898427 77.309466 
L 928.403146 82.898974 
L 929.155506 86.2534 
L 929.907865 87.694853 
L 930.660225 89.577151 
L 931.412584 93.11289 
L 932.164944 93.728811 
L 932.917303 96.328155 
L 933.669663 96.039302 
L 934.422022 97.435458 
L 935.174382 101.229273 
L 935.926742 101.01749 
L 936.679101 101.595694 
L 937.431461 103.17402 
L 938.18382 103.518368 
L 938.93618 105.616693 
L 939.688539 105.652544 
L 940.440899 105.997634 
L 941.193258 107.754844 
L 941.945618 110.968243 
L 943.450337 108.095332 
L 945.707416 137.692594 
L 947.964494 163.068552 
L 950.221573 184.825246 
L 952.478652 203.478894 
L 954.73573 219.472066 
L 956.992809 233.184213 
L 959.249888 244.940667 
L 961.506966 255.020355 
L 963.764045 263.662429 
L 966.021124 271.071924 
L 968.278202 277.42464 
L 970.535281 282.871297 
L 972.79236 287.541128 
L 975.049438 291.544925 
L 977.306517 294.977681 
L 979.563596 297.920838 
L 981.820674 300.444229 
L 984.077753 302.60772 
L 986.334831 304.462644 
L 988.59191 306.053009 
L 990.848989 307.416549 
L 993.858427 308.937 
L 996.867865 310.175415 
L 999.877303 311.184112 
L 1003.639101 312.186083 
L 1007.400899 312.961389 
L 1011.915056 313.663906 
L 1014.924494 314.02551 
L 1015.676854 313.37221 
L 1020.943371 314.048268 
L 1026.962247 314.575032 
L 1034.485843 314.991657 
L 1044.266517 315.294193 
L 1056.30427 315.472862 
L 1057.056629 315.174573 
L 1068.342022 315.410051 
L 1069.846742 315.332295 
L 1071.351461 315.359695 
L 1072.10382 315.075274 
L 1076.617978 315.217806 
L 1077.370337 314.967366 
L 1083.389213 315.18478 
L 1084.141573 315.010585 
L 1086.398652 315.096549 
L 1087.151011 314.658182 
L 1090.160449 314.835354 
L 1090.912809 314.21893 
L 1091.665169 314.288649 
L 1092.417528 314.147439 
L 1093.922247 314.290362 
L 1093.922247 314.290362 
" clip-path="url(#pf4938fbecd)" style="fill: none; stroke: #0000ff; stroke-width: 5; stroke-linecap: square"/>
   </g>
   <g id="patch_11">
    <path d="M 793.730787 336.640156 
L 793.730787 31.720156 
" style="fill: none; stroke: #000000; stroke-width: 5; stroke-linejoin: miter; stroke-linecap: square"/>
   </g>
   <g id="patch_12">
    <path d="M 793.730787 336.640156 
L 1094.674607 336.640156 
" style="fill: none; stroke: #000000; stroke-width: 5; stroke-linejoin: miter; stroke-linecap: square"/>
   </g>
   <g id="patch_13">
    <path d="M 868.966742 330.541756 
L 944.202697 330.541756 
L 944.202697 319.869556 
L 868.966742 319.869556 
z
" style="fill: #8c5a2b; stroke: #8c5a2b; stroke-linejoin: miter"/>
   </g>
   <g id="text_30">
    <!-- Novel | Naive -->
    <g transform="translate(880.90004 21.720156) scale(0.19 -0.19)">
     <use xlink:href="#DejaVuSans-4e"/>
     <use xlink:href="#DejaVuSans-6f" transform="translate(74.804688 0)"/>
     <use xlink:href="#DejaVuSans-76" transform="translate(135.986328 0)"/>
     <use xlink:href="#DejaVuSans-65" transform="translate(195.166016 0)"/>
     <use xlink:href="#DejaVuSans-6c" transform="translate(256.689453 0)"/>
     <use xlink:href="#DejaVuSans-20" transform="translate(284.472656 0)"/>
     <use xlink:href="#DejaVuSans-7c" transform="translate(316.259766 0)"/>
     <use xlink:href="#DejaVuSans-20" transform="translate(349.951172 0)"/>
     <use xlink:href="#DejaVuSans-4e" transform="translate(381.738281 0)"/>
     <use xlink:href="#DejaVuSans-61" transform="translate(456.542969 0)"/>
     <use xlink:href="#DejaVuSans-69" transform="translate(517.822266 0)"/>
     <use xlink:href="#DejaVuSans-76" transform="translate(545.605469 0)"/>
     <use xlink:href="#DejaVuSans-65" transform="translate(604.785156 0)"/>
    </g>
   </g>
  </g>
  <g id="axes_4">
   <g id="patch_14">
    <path d="M 1139.81618 336.640156 
L 1440.76 336.640156 
L 1440.76 31.720156 
L 1139.81618 31.720156 
z
" style="fill: #ffffff"/>
   </g>
   <g id="matplotlib.axis_7">
    <g id="xtick_16">
     <g id="line2d_38">
      <g>
       <use xlink:href="#m367c58fad6" x="1139.81618" y="336.640156" style="stroke: #000000; stroke-width: 1.6"/>
      </g>
     </g>
     <g id="text_31">
      <!-- -1 -->
      <g transform="translate(1123.86368 369.455156) scale(0.32 -0.32)">
       <use xlink:href="#DejaVuSans-2d"/>
       <use xlink:href="#DejaVuSans-31" transform="translate(36.083984 0)"/>
      </g>
     </g>
    </g>
    <g id="xtick_17">
     <g id="line2d_39">
      <g>
       <use xlink:href="#m367c58fad6" x="1215.052135" y="336.640156" style="stroke: #000000; stroke-width: 1.6"/>
      </g>
     </g>
     <g id="text_32">
      <!-- 0 -->
      <g transform="translate(1204.872135 369.455156) scale(0.32 -0.32)">
       <use xlink:href="#DejaVuSans-30"/>
      </g>
     </g>
    </g>
    <g id="xtick_18">
     <g id="line2d_40">
      <g>
       <use xlink:href="#m367c58fad6" x="1290.28809" y="336.640156" style="stroke: #000000; stroke-width: 1.6"/>
      </g>
     </g>
     <g id="text_33">
      <!-- 1 -->
      <g transform="translate(1280.10809 369.455156) scale(0.32 -0.32)">
       <use xlink:href="#DejaVuSans-31"/>
      </g>
     </g>
    </g>
    <g id="xtick_19">
     <g id="line2d_41">
      <g>
       <use xlink:href="#m367c58fad6" x="1365.524045" y="336.640156" style="stroke: #000000; stroke-width: 1.6"/>
      </g>
     </g>
     <g id="text_34">
      <!-- 2 -->
      <g transform="translate(1355.344045 369.455156) scale(0.32 -0.32)">
       <use xlink:href="#DejaVuSans-32"/>
      </g>
     </g>
    </g>
    <g id="xtick_20">
     <g id="line2d_42">
      <g>
       <use xlink:href="#m367c58fad6" x="1440.76" y="336.640156" style="stroke: #000000; stroke-width: 1.6"/>
      </g>
     </g>
     <g id="text_35">
      <!-- 3 -->
      <g transform="translate(1430.58 369.455156) scale(0.32 -0.32)">
       <use xlink:href="#DejaVuSans-33"/>
      </g>
     </g>
    </g>
    <g id="text_36">
     <!-- Time (s) -->
     <g transform="translate(1225.23559 404.425156) scale(0.32 -0.32)">
      <use xlink:href="#DejaVuSans-54"/>
      <use xlink:href="#DejaVuSans-69" transform="translate(57.958984 0)"/>
      <use xlink:href="#DejaVuSans-6d" transform="translate(85.742188 0)"/>
      <use xlink:href="#DejaVuSans-65" transform="translate(183.154297 0)"/>
      <use xlink:href="#DejaVuSans-20" transform="translate(244.677734 0)"/>
      <use xlink:href="#DejaVuSans-28" transform="translate(276.464844 0)"/>
      <use xlink:href="#DejaVuSans-73" transform="translate(315.478516 0)"/>
      <use xlink:href="#DejaVuSans-29" transform="translate(367.578125 0)"/>
     </g>
    </g>
   </g>
   <g id="matplotlib.axis_8">
    <g id="ytick_13">
     <g id="line2d_43">
      <g>
       <use xlink:href="#m5187711a15" x="1139.81618" y="315.613317" style="stroke: #000000; stroke-width: 1.6"/>
      </g>
     </g>
    </g>
    <g id="ytick_14">
     <g id="line2d_44">
      <g>
       <use xlink:href="#m5187711a15" x="1139.81618" y="229.840793" style="stroke: #000000; stroke-width: 1.6"/>
      </g>
     </g>
    </g>
    <g id="ytick_15">
     <g id="line2d_45">
      <g>
       <use xlink:href="#m5187711a15" x="1139.81618" y="144.06827" style="stroke: #000000; stroke-width: 1.6"/>
      </g>
     </g>
    </g>
    <g id="ytick_16">
     <g id="line2d_46">
      <g>
       <use xlink:href="#m5187711a15" x="1139.81618" y="58.295747" style="stroke: #000000; stroke-width: 1.6"/>
      </g>
     </g>
    </g>
   </g>
   <g id="line2d_47">
    <path d="M 1140.568539 315.577155 
L 1141.320899 315.171351 
L 1153.358652 315.418796 
L 1172.92 315.562057 
L 1174.424719 315.567055 
L 1175.177079 314.945709 
L 1178.186517 315.069546 
L 1178.938876 314.079818 
L 1184.957753 314.595962 
L 1187.214831 314.741062 
L 1187.967191 314.65408 
L 1195.490787 315.038986 
L 1196.243146 314.753871 
L 1204.519101 315.124464 
L 1214.299775 315.362368 
L 1215.052135 298.912179 
L 1217.309213 258.492655 
L 1219.566292 225.491121 
L 1220.318652 215.680258 
L 1221.071011 207.675364 
L 1221.823371 201.442928 
L 1222.57573 194.133531 
L 1223.32809 184.611163 
L 1224.080449 178.373333 
L 1225.585169 163.914277 
L 1226.337528 158.554228 
L 1227.089888 151.863398 
L 1227.842247 141.601042 
L 1228.594607 134.544417 
L 1229.346966 129.887724 
L 1230.099326 126.12732 
L 1230.851685 120.595991 
L 1231.604045 117.420718 
L 1232.356404 115.279206 
L 1233.861124 106.806256 
L 1234.613483 103.391772 
L 1236.118202 98.273004 
L 1236.870562 96.805171 
L 1237.622921 94.480008 
L 1238.375281 90.445704 
L 1239.12764 89.04423 
L 1239.88 86.241156 
L 1240.63236 84.80525 
L 1241.384719 81.282983 
L 1242.137079 79.311933 
L 1242.889438 78.91035 
L 1243.641798 76.641194 
L 1244.394157 76.523556 
L 1245.146517 77.081656 
L 1245.898876 76.138206 
L 1246.651236 77.315167 
L 1247.403596 76.224683 
L 1248.155955 77.636484 
L 1248.908315 78.701482 
L 1249.660674 80.390632 
L 1250.413034 80.553105 
L 1251.165393 81.556141 
L 1251.917753 80.51829 
L 1252.670112 81.136537 
L 1253.422472 83.140333 
L 1254.174831 84.237386 
L 1255.679551 87.340535 
L 1256.43191 87.070215 
L 1257.18427 86.450868 
L 1257.936629 85.49883 
L 1258.688989 85.786072 
L 1259.441348 86.492637 
L 1260.193708 88.920382 
L 1261.698427 90.688519 
L 1262.450787 90.901452 
L 1263.203146 91.838537 
L 1263.955506 93.617513 
L 1264.707865 93.452535 
L 1265.460225 93.733438 
L 1266.212584 95.381459 
L 1266.964944 97.517258 
L 1267.717303 97.50077 
L 1268.469663 95.266659 
L 1269.222022 98.559429 
L 1269.974382 98.997488 
L 1270.726742 98.189186 
L 1271.479101 99.629207 
L 1272.231461 103.790606 
L 1272.98382 103.760327 
L 1274.488539 106.95807 
L 1275.240899 108.256361 
L 1275.993258 108.069412 
L 1276.745618 110.301056 
L 1277.497978 112.018824 
L 1278.250337 112.061819 
L 1279.002697 113.449489 
L 1279.755056 113.175833 
L 1280.507416 113.799423 
L 1281.259775 115.17311 
L 1282.764494 113.62335 
L 1283.516854 113.51705 
L 1284.269213 114.563784 
L 1285.021573 116.673535 
L 1285.773933 117.84569 
L 1286.526292 118.345098 
L 1287.278652 119.000961 
L 1288.031011 121.145553 
L 1288.783371 120.412876 
L 1289.53573 120.138517 
L 1291.792809 148.018114 
L 1294.049888 171.921382 
L 1296.306966 192.415444 
L 1298.564045 209.986545 
L 1300.821124 225.051566 
L 1303.078202 237.967937 
L 1305.335281 249.04211 
L 1307.59236 258.536833 
L 1309.849438 266.677366 
L 1312.106517 273.656857 
L 1314.363596 279.640899 
L 1316.620674 284.771463 
L 1318.877753 289.170286 
L 1321.134831 292.941724 
L 1323.39191 296.175259 
L 1325.648989 298.947615 
L 1327.906067 301.324561 
L 1330.163146 303.362496 
L 1332.420225 305.10977 
L 1334.677303 306.607839 
L 1336.934382 307.892245 
L 1339.94382 309.324456 
L 1342.953258 310.491001 
L 1345.962697 311.441159 
L 1349.724494 312.384981 
L 1354.238652 313.240193 
L 1358.752809 313.868853 
L 1364.771685 314.456004 
L 1371.542921 314.883921 
L 1380.571236 315.219181 
L 1393.361348 315.44852 
L 1414.427416 315.574124 
L 1422.703371 315.591024 
L 1423.45573 314.88738 
L 1432.484045 315.22105 
L 1440.00764 315.378452 
L 1440.00764 315.378452 
" clip-path="url(#p05280a8d8d)" style="fill: none; stroke: #000000; stroke-width: 5; stroke-linecap: square"/>
   </g>
   <g id="line2d_48">
    <path d="M 1140.568539 313.583116 
L 1142.825618 313.872674 
L 1143.577978 313.649446 
L 1145.082697 313.576561 
L 1145.835056 313.678399 
L 1146.587416 313.037355 
L 1147.339775 312.737632 
L 1148.844494 313.018011 
L 1149.596854 312.91393 
L 1152.606292 313.344056 
L 1157.120449 313.921602 
L 1159.377528 314.115088 
L 1160.129888 314.189999 
L 1160.882247 313.83012 
L 1161.634607 313.895502 
L 1162.386966 313.833144 
L 1167.653483 314.348232 
L 1172.92 314.729861 
L 1173.67236 314.634976 
L 1178.938876 314.891907 
L 1179.691236 314.843037 
L 1180.443596 314.652413 
L 1181.195955 313.923751 
L 1183.453034 314.153816 
L 1184.205393 313.957931 
L 1186.462472 314.19403 
L 1187.214831 313.335881 
L 1187.967191 313.449753 
L 1188.719551 313.203886 
L 1189.47191 313.324357 
L 1190.22427 313.123206 
L 1191.728989 313.365992 
L 1192.481348 313.256697 
L 1194.738427 313.59281 
L 1195.490787 313.25815 
L 1196.243146 313.363167 
L 1196.995506 312.944065 
L 1197.747865 313.077528 
L 1198.500225 311.923708 
L 1199.252584 311.46432 
L 1200.004944 311.67177 
L 1201.509663 311.600612 
L 1203.766742 312.172924 
L 1204.519101 311.931146 
L 1205.271461 311.873556 
L 1206.77618 312.238183 
L 1207.528539 311.959405 
L 1209.033258 312.246295 
L 1209.785618 312.069987 
L 1212.795056 312.727252 
L 1213.547416 312.720796 
L 1218.061573 313.487049 
L 1219.566292 313.627722 
L 1220.318652 313.727002 
L 1221.071011 313.491838 
L 1226.337528 314.131809 
L 1227.089888 314.040363 
L 1227.842247 313.784696 
L 1230.099326 313.975824 
L 1231.604045 314.077351 
L 1232.356404 314.151395 
L 1233.108764 313.776411 
L 1233.861124 313.074911 
L 1238.375281 313.747356 
L 1239.12764 313.20201 
L 1239.88 313.189218 
L 1244.394157 313.831381 
L 1248.908315 314.27456 
L 1255.679551 314.769566 
L 1257.936629 314.889906 
L 1258.688989 314.686878 
L 1260.946067 314.819012 
L 1261.698427 314.471811 
L 1263.203146 314.583108 
L 1263.955506 314.145053 
L 1266.212584 314.354464 
L 1266.964944 313.969503 
L 1268.469663 314.129775 
L 1269.974382 314.006663 
L 1272.98382 314.304688 
L 1273.73618 314.230968 
L 1276.745618 314.487385 
L 1277.497978 314.02804 
L 1279.002697 314.047036 
L 1281.259775 314.270427 
L 1282.012135 314.078195 
L 1283.516854 314.227869 
L 1284.269213 314.174273 
L 1285.021573 314.237962 
L 1285.773933 314.005972 
L 1288.031011 314.235219 
L 1288.783371 313.929462 
L 1289.53573 313.843267 
L 1294.802247 314.377225 
L 1297.811685 314.606513 
L 1298.564045 314.532358 
L 1299.316404 313.622517 
L 1300.068764 313.722057 
L 1302.325843 313.26599 
L 1303.078202 312.471813 
L 1306.84 313.172293 
L 1307.59236 313.294344 
L 1308.344719 313.029962 
L 1309.097079 313.15913 
L 1309.849438 312.673175 
L 1311.354157 312.513016 
L 1312.106517 312.668031 
L 1312.858876 312.659851 
L 1316.620674 313.327981 
L 1318.125393 313.306735 
L 1318.877753 312.9859 
L 1319.630112 312.965738 
L 1320.382472 312.775317 
L 1321.134831 311.988578 
L 1323.39191 312.277819 
L 1325.648989 312.687093 
L 1326.401348 312.556321 
L 1328.658427 312.992326 
L 1329.410787 312.160876 
L 1330.163146 311.52824 
L 1330.915506 311.47998 
L 1334.677303 312.41502 
L 1336.934382 312.871177 
L 1339.191461 313.044416 
L 1343.705618 313.713594 
L 1344.457978 313.80858 
L 1345.210337 312.874218 
L 1348.219775 313.311983 
L 1349.724494 313.536363 
L 1351.229213 313.427922 
L 1351.981573 312.975369 
L 1356.49573 313.674183 
L 1358.000449 313.785773 
L 1359.505169 313.963959 
L 1360.257528 313.59508 
L 1361.009888 313.02684 
L 1362.514607 313.047226 
L 1363.266966 312.715331 
L 1365.524045 312.960236 
L 1370.038202 313.663059 
L 1371.542921 313.655404 
L 1374.55236 313.985294 
L 1375.304719 313.885732 
L 1376.057079 313.972111 
L 1376.809438 313.867009 
L 1377.561798 313.307029 
L 1379.066517 313.531892 
L 1379.818876 313.365017 
L 1381.323596 313.584226 
L 1382.075955 313.060908 
L 1382.828315 312.03036 
L 1385.837753 312.694976 
L 1386.590112 312.58158 
L 1391.10427 313.384712 
L 1394.113708 313.798104 
L 1394.866067 313.802795 
L 1395.618427 313.668623 
L 1399.380225 314.091931 
L 1400.132584 313.494731 
L 1401.637303 313.607198 
L 1403.142022 313.756637 
L 1403.894382 313.565849 
L 1404.646742 313.117783 
L 1405.399101 313.24256 
L 1406.151461 312.435897 
L 1406.90382 312.594768 
L 1408.408539 312.402872 
L 1412.922697 313.253345 
L 1413.675056 312.540694 
L 1414.427416 312.528453 
L 1415.932135 312.829227 
L 1416.684494 312.140337 
L 1417.436854 312.154263 
L 1421.198652 312.917393 
L 1421.951011 312.748614 
L 1423.45573 313.027923 
L 1424.20809 312.908936 
L 1424.960449 312.976122 
L 1425.712809 312.615411 
L 1428.722247 313.126934 
L 1430.979326 313.420292 
L 1431.731685 313.410174 
L 1432.484045 313.520331 
L 1433.236404 313.307597 
L 1436.998202 313.797559 
L 1437.750562 313.418394 
L 1439.255281 313.579262 
L 1440.00764 312.990042 
L 1440.00764 312.990042 
" clip-path="url(#p05280a8d8d)" style="fill: none; stroke: #ff0000; stroke-width: 5; stroke-linecap: square"/>
   </g>
   <g id="line2d_49">
    <path d="M 1140.568539 315.607074 
L 1156.36809 315.611191 
L 1157.120449 315.362059 
L 1173.67236 315.532026 
L 1174.424719 315.536091 
L 1175.177079 314.755281 
L 1181.948315 315.07254 
L 1182.700674 314.192831 
L 1186.462472 314.514172 
L 1187.214831 314.409727 
L 1187.967191 314.469907 
L 1188.719551 313.781119 
L 1193.233708 314.266483 
L 1193.986067 314.176712 
L 1200.004944 314.660244 
L 1206.02382 314.981029 
L 1206.77618 314.43235 
L 1213.547416 314.869013 
L 1214.299775 314.906229 
L 1215.804494 283.698554 
L 1218.061573 244.403126 
L 1219.566292 221.935776 
L 1221.071011 205.314324 
L 1221.823371 199.616828 
L 1222.57573 192.526959 
L 1223.32809 182.61386 
L 1224.080449 176.373193 
L 1225.585169 161.546118 
L 1226.337528 156.926427 
L 1227.089888 149.971718 
L 1227.842247 140.997109 
L 1228.594607 133.449754 
L 1230.099326 124.890492 
L 1230.851685 119.805748 
L 1231.604045 116.974747 
L 1232.356404 115.017117 
L 1233.861124 106.140693 
L 1234.613483 103.497637 
L 1235.365843 99.75735 
L 1236.118202 97.003764 
L 1236.870562 95.632275 
L 1240.63236 84.849064 
L 1241.384719 82.466564 
L 1242.137079 80.555815 
L 1242.889438 79.925272 
L 1243.641798 75.932072 
L 1245.146517 76.31957 
L 1245.898876 75.691992 
L 1246.651236 77.189963 
L 1247.403596 76.628821 
L 1248.908315 79.371697 
L 1249.660674 80.712486 
L 1250.413034 80.72634 
L 1251.165393 82.213294 
L 1251.917753 81.052719 
L 1252.670112 81.389066 
L 1253.422472 82.695653 
L 1254.927191 86.392152 
L 1255.679551 88.042422 
L 1256.43191 88.300933 
L 1257.18427 87.924478 
L 1257.936629 87.288414 
L 1258.688989 88.05597 
L 1259.441348 88.983904 
L 1260.193708 91.203112 
L 1260.946067 92.349935 
L 1261.698427 92.406555 
L 1262.450787 93.07447 
L 1263.203146 92.182783 
L 1263.955506 93.493255 
L 1264.707865 92.66435 
L 1265.460225 92.609212 
L 1266.964944 95.805587 
L 1267.717303 98.162857 
L 1268.469663 96.981627 
L 1269.222022 100.795355 
L 1269.974382 102.751068 
L 1270.726742 102.341587 
L 1271.479101 103.114613 
L 1272.231461 106.099256 
L 1272.98382 104.764871 
L 1273.73618 105.599464 
L 1274.488539 105.939889 
L 1275.240899 106.091012 
L 1275.993258 106.499854 
L 1277.497978 109.964926 
L 1279.002697 112.911149 
L 1280.507416 114.547271 
L 1281.259775 117.311708 
L 1282.012135 117.60437 
L 1282.764494 116.338184 
L 1283.516854 116.856202 
L 1284.269213 117.98122 
L 1285.021573 119.660555 
L 1285.773933 121.889221 
L 1287.278652 123.082094 
L 1288.031011 124.121479 
L 1288.783371 123.320641 
L 1289.53573 123.087539 
L 1291.792809 150.546535 
L 1294.049888 174.089184 
L 1296.306966 194.274072 
L 1298.564045 211.58008 
L 1300.821124 226.417821 
L 1303.078202 239.139331 
L 1305.335281 250.046443 
L 1307.59236 259.397921 
L 1309.849438 267.415644 
L 1312.106517 274.289838 
L 1314.363596 280.183597 
L 1316.620674 285.236763 
L 1318.877753 289.569222 
L 1321.134831 293.283762 
L 1323.39191 296.468517 
L 1325.648989 299.199046 
L 1327.906067 301.540132 
L 1330.163146 303.54732 
L 1332.420225 305.268233 
L 1334.677303 306.743701 
L 1337.686742 308.38896 
L 1340.69618 309.729034 
L 1343.705618 310.820531 
L 1347.467416 311.904751 
L 1351.229213 312.743699 
L 1355.743371 313.503884 
L 1361.009888 314.140222 
L 1367.028764 314.636035 
L 1374.55236 315.028182 
L 1385.085393 315.327961 
L 1400.132584 315.511021 
L 1422.703371 315.59136 
L 1423.45573 314.401372 
L 1430.226966 314.849489 
L 1439.255281 315.200575 
L 1440.00764 315.221212 
L 1440.00764 315.221212 
" clip-path="url(#p05280a8d8d)" style="fill: none; stroke: #0000ff; stroke-width: 5; stroke-linecap: square"/>
   </g>
   <g id="patch_15">
    <path d="M 1139.81618 336.640156 
L 1139.81618 31.720156 
" style="fill: none; stroke: #000000; stroke-width: 5; stroke-linejoin: miter; stroke-linecap: square"/>
   </g>
   <g id="patch_16">
    <path d="M 1139.81618 336.640156 
L 1440.76 336.640156 
" style="fill: none; stroke: #000000; stroke-width: 5; stroke-linejoin: miter; stroke-linecap: square"/>
   </g>
   <g id="patch_17">
    <path d="M 1215.052135 330.541756 
L 1290.28809 330.541756 
L 1290.28809 319.869556 
L 1215.052135 319.869556 
z
" style="fill: #8c5a2b; stroke: #8c5a2b; stroke-linejoin: miter"/>
   </g>
   <g id="text_37">
    <!-- Novel | Expert -->
    <g transform="translate(1222.890043 21.720156) scale(0.19 -0.19)">
     <use xlink:href="#DejaVuSans-4e"/>
     <use xlink:href="#DejaVuSans-6f" transform="translate(74.804688 0)"/>
     <use xlink:href="#DejaVuSans-76" transform="translate(135.986328 0)"/>
     <use xlink:href="#DejaVuSans-65" transform="translate(195.166016 0)"/>
     <use xlink:href="#DejaVuSans-6c" transform="translate(256.689453 0)"/>
     <use xlink:href="#DejaVuSans-20" transform="translate(284.472656 0)"/>
     <use xlink:href="#DejaVuSans-7c" transform="translate(316.259766 0)"/>
     <use xlink:href="#DejaVuSans-20" transform="translate(349.951172 0)"/>
     <use xlink:href="#DejaVuSans-45" transform="translate(381.738281 0)"/>
     <use xlink:href="#DejaVuSans-78" transform="translate(444.921875 0)"/>
     <use xlink:href="#DejaVuSans-70" transform="translate(504.101562 0)"/>
     <use xlink:href="#DejaVuSans-65" transform="translate(567.578125 0)"/>
     <use xlink:href="#DejaVuSans-72" transform="translate(629.101562 0)"/>
     <use xlink:href="#DejaVuSans-74" transform="translate(670.214844 0)"/>
    </g>
   </g>
  </g>
 </g>
 <defs>
  <clipPath id="p014ccd8e52">
   <rect x="101.56" y="31.720156" width="300.94382" height="304.92"/>
  </clipPath>
  <clipPath id="pc0ca11f89f">
   <rect x="447.645393" y="31.720156" width="300.94382" height="304.92"/>
  </clipPath>
  <clipPath id="pf4938fbecd">
   <rect x="793.730787" y="31.720156" width="300.94382" height="304.92"/>
  </clipPath>
  <clipPath id="p05280a8d8d">
   <rect x="1139.81618" y="31.720156" width="300.94382" height="304.92"/>
  </clipPath>
 </defs>
</svg>
