<?xml version="1.0" encoding="utf-8" standalone="no"?>
<!DOCTYPE svg PUBLIC "-//W3C//DTD SVG 1.1//EN"
  "http://www.w3.org/Graphics/SVG/1.1/DTD/svg11.dtd">
<svg xmlns:xlink="http://www.w3.org/1999/xlink" width="872.39952pt" height="404.39952pt" viewBox="0 0 872.39952 404.39952" xmlns="http://www.w3.org/2000/svg" version="1.1">
 <metadata>
  <rdf:RDF xmlns:dc="http://purl.org/dc/elements/1.1/" xmlns:cc="http://creativecommons.org/ns#" xmlns:rdf="http://www.w3.org/1999/02/22-rdf-syntax-ns#">
   <cc:Work>
    <dc:type rdf:resource="http://purl.org/dc/dcmitype/StillImage"/>
    <dc:date>2026-03-25T17:17:34.916545</dc:date>
    <dc:format>image/svg+xml</dc:format>
    <dc:creator>
     <cc:Agent>
      <dc:title>Matplotlib v3.10.7, https://matplotlib.org/</dc:title>
     </cc:Agent>
    </dc:creator>
   </cc:Work>
  </rdf:RDF>
 </metadata>
 <defs>
  <style type="text/css">*{stroke-linejoin: round; stroke-linecap: butt}</style>
 </defs>
 <g id="figure_1">
  <g id="patch_1">
   <path d="M 0 404.39952 
L 872.39952 404.39952 
L 872.39952 0 
L 0 0 
z
" style="fill: #ffffff"/>
  </g>
  <g id="axes_1">
   <g id="patch_2">
    <path d="M 101.56 322.75952 
L 460.90351 322.75952 
L 460.90351 31.720156 
L 101.56 31.720156 
z
" style="fill: #ffffff"/>
   </g>
   <g id="matplotlib.axis_1">
    <g id="xtick_1">
     <g id="line2d_1">
      <defs>
       <path id="m6c662c1b94" d="M 0 0 
L 0 5 
" style="stroke: #000000; stroke-width: 1.6"/>
      </defs>
      <g>
       <use xlink:href="#m6c662c1b94" x="101.56" y="322.75952" style="stroke: #000000; stroke-width: 1.6"/>
      </g>
     </g>
     <g id="text_1">
      <!-- -1 -->
      <g transform="translate(85.6075 355.57452) scale(0.32 -0.32)">
       <defs>
        <path id="DejaVuSans-2d" d="M 313 2009 
L 1997 2009 
L 1997 1497 
L 313 1497 
L 313 2009 
z
" transform="scale(0.015625)"/>
        <path id="DejaVuSans-31" d="M 794 531 
L 1825 531 
L 1825 4091 
L 703 3866 
L 703 4441 
L 1819 4666 
L 2450 4666 
L 2450 531 
L 3481 531 
L 3481 0 
L 794 0 
L 794 531 
z
" transform="scale(0.015625)"/>
       </defs>
       <use xlink:href="#DejaVuSans-2d"/>
       <use xlink:href="#DejaVuSans-31" transform="translate(36.083984 0)"/>
      </g>
     </g>
    </g>
    <g id="xtick_2">
     <g id="line2d_2">
      <g>
       <use xlink:href="#m6c662c1b94" x="191.395877" y="322.75952" style="stroke: #000000; stroke-width: 1.6"/>
      </g>
     </g>
     <g id="text_2">
      <!-- 0 -->
      <g transform="translate(181.215877 355.57452) scale(0.32 -0.32)">
       <defs>
        <path id="DejaVuSans-30" d="M 2034 4250 
Q 1547 4250 1301 3770 
Q 1056 3291 1056 2328 
Q 1056 1369 1301 889 
Q 1547 409 2034 409 
Q 2525 409 2770 889 
Q 3016 1369 3016 2328 
Q 3016 3291 2770 3770 
Q 2525 4250 2034 4250 
z
M 2034 4750 
Q 2819 4750 3233 4129 
Q 3647 3509 3647 2328 
Q 3647 1150 3233 529 
Q 2819 -91 2034 -91 
Q 1250 -91 836 529 
Q 422 1150 422 2328 
Q 422 3509 836 4129 
Q 1250 4750 2034 4750 
z
" transform="scale(0.015625)"/>
       </defs>
       <use xlink:href="#DejaVuSans-30"/>
      </g>
     </g>
    </g>
    <g id="xtick_3">
     <g id="line2d_3">
      <g>
       <use xlink:href="#m6c662c1b94" x="281.231755" y="322.75952" style="stroke: #000000; stroke-width: 1.6"/>
      </g>
     </g>
     <g id="text_3">
      <!-- 1 -->
      <g transform="translate(271.051755 355.57452) scale(0.32 -0.32)">
       <use xlink:href="#DejaVuSans-31"/>
      </g>
     </g>
    </g>
    <g id="xtick_4">
     <g id="line2d_4">
      <g>
       <use xlink:href="#m6c662c1b94" x="371.067632" y="322.75952" style="stroke: #000000; stroke-width: 1.6"/>
      </g>
     </g>
     <g id="text_4">
      <!-- 2 -->
      <g transform="translate(360.887632 355.57452) scale(0.32 -0.32)">
       <defs>
        <path id="DejaVuSans-32" d="M 1228 531 
L 3431 531 
L 3431 0 
L 469 0 
L 469 531 
Q 828 903 1448 1529 
Q 2069 2156 2228 2338 
Q 2531 2678 2651 2914 
Q 2772 3150 2772 3378 
Q 2772 3750 2511 3984 
Q 2250 4219 1831 4219 
Q 1534 4219 1204 4116 
Q 875 4013 500 3803 
L 500 4441 
Q 881 4594 1212 4672 
Q 1544 4750 1819 4750 
Q 2544 4750 2975 4387 
Q 3406 4025 3406 3419 
Q 3406 3131 3298 2873 
Q 3191 2616 2906 2266 
Q 2828 2175 2409 1742 
Q 1991 1309 1228 531 
z
" transform="scale(0.015625)"/>
       </defs>
       <use xlink:href="#DejaVuSans-32"/>
      </g>
     </g>
    </g>
    <g id="xtick_5">
     <g id="line2d_5">
      <g>
       <use xlink:href="#m6c662c1b94" x="460.90351" y="322.75952" style="stroke: #000000; stroke-width: 1.6"/>
      </g>
     </g>
     <g id="text_5">
      <!-- 3 -->
      <g transform="translate(450.72351 355.57452) scale(0.32 -0.32)">
       <defs>
        <path id="DejaVuSans-33" d="M 2597 2516 
Q 3050 2419 3304 2112 
Q 3559 1806 3559 1356 
Q 3559 666 3084 287 
Q 2609 -91 1734 -91 
Q 1441 -91 1130 -33 
Q 819 25 488 141 
L 488 750 
Q 750 597 1062 519 
Q 1375 441 1716 441 
Q 2309 441 2620 675 
Q 2931 909 2931 1356 
Q 2931 1769 2642 2001 
Q 2353 2234 1838 2234 
L 1294 2234 
L 1294 2753 
L 1863 2753 
Q 2328 2753 2575 2939 
Q 2822 3125 2822 3475 
Q 2822 3834 2567 4026 
Q 2313 4219 1838 4219 
Q 1578 4219 1281 4162 
Q 984 4106 628 3988 
L 628 4550 
Q 988 4650 1302 4700 
Q 1616 4750 1894 4750 
Q 2613 4750 3031 4423 
Q 3450 4097 3450 3541 
Q 3450 3153 3228 2886 
Q 3006 2619 2597 2516 
z
" transform="scale(0.015625)"/>
       </defs>
       <use xlink:href="#DejaVuSans-33"/>
      </g>
     </g>
    </g>
    <g id="text_6">
     <!-- Time (s) -->
     <g transform="translate(216.179255 390.54452) scale(0.32 -0.32)">
      <defs>
       <path id="DejaVuSans-54" d="M -19 4666 
L 3928 4666 
L 3928 4134 
L 2272 4134 
L 2272 0 
L 1638 0 
L 1638 4134 
L -19 4134 
L -19 4666 
z
" transform="scale(0.015625)"/>
       <path id="DejaVuSans-69" d="M 603 3500 
L 1178 3500 
L 1178 0 
L 603 0 
L 603 3500 
z
M 603 4863 
L 1178 4863 
L 1178 4134 
L 603 4134 
L 603 4863 
z
" transform="scale(0.015625)"/>
       <path id="DejaVuSans-6d" d="M 3328 2828 
Q 3544 3216 3844 3400 
Q 4144 3584 4550 3584 
Q 5097 3584 5394 3201 
Q 5691 2819 5691 2113 
L 5691 0 
L 5113 0 
L 5113 2094 
Q 5113 2597 4934 2840 
Q 4756 3084 4391 3084 
Q 3944 3084 3684 2787 
Q 3425 2491 3425 1978 
L 3425 0 
L 2847 0 
L 2847 2094 
Q 2847 2600 2669 2842 
Q 2491 3084 2119 3084 
Q 1678 3084 1418 2786 
Q 1159 2488 1159 1978 
L 1159 0 
L 581 0 
L 581 3500 
L 1159 3500 
L 1159 2956 
Q 1356 3278 1631 3431 
Q 1906 3584 2284 3584 
Q 2666 3584 2933 3390 
Q 3200 3197 3328 2828 
z
" transform="scale(0.015625)"/>
       <path id="DejaVuSans-65" d="M 3597 1894 
L 3597 1613 
L 953 1613 
Q 991 1019 1311 708 
Q 1631 397 2203 397 
Q 2534 397 2845 478 
Q 3156 559 3463 722 
L 3463 178 
Q 3153 47 2828 -22 
Q 2503 -91 2169 -91 
Q 1331 -91 842 396 
Q 353 884 353 1716 
Q 353 2575 817 3079 
Q 1281 3584 2069 3584 
Q 2775 3584 3186 3129 
Q 3597 2675 3597 1894 
z
M 3022 2063 
Q 3016 2534 2758 2815 
Q 2500 3097 2075 3097 
Q 1594 3097 1305 2825 
Q 1016 2553 972 2059 
L 3022 2063 
z
" transform="scale(0.015625)"/>
       <path id="DejaVuSans-20" transform="scale(0.015625)"/>
       <path id="DejaVuSans-28" d="M 1984 4856 
Q 1566 4138 1362 3434 
Q 1159 2731 1159 2009 
Q 1159 1288 1364 580 
Q 1569 -128 1984 -844 
L 1484 -844 
Q 1016 -109 783 600 
Q 550 1309 550 2009 
Q 550 2706 781 3412 
Q 1013 4119 1484 4856 
L 1984 4856 
z
" transform="scale(0.015625)"/>
       <path id="DejaVuSans-73" d="M 2834 3397 
L 2834 2853 
Q 2591 2978 2328 3040 
Q 2066 3103 1784 3103 
Q 1356 3103 1142 2972 
Q 928 2841 928 2578 
Q 928 2378 1081 2264 
Q 1234 2150 1697 2047 
L 1894 2003 
Q 2506 1872 2764 1633 
Q 3022 1394 3022 966 
Q 3022 478 2636 193 
Q 2250 -91 1575 -91 
Q 1294 -91 989 -36 
Q 684 19 347 128 
L 347 722 
Q 666 556 975 473 
Q 1284 391 1588 391 
Q 1994 391 2212 530 
Q 2431 669 2431 922 
Q 2431 1156 2273 1281 
Q 2116 1406 1581 1522 
L 1381 1569 
Q 847 1681 609 1914 
Q 372 2147 372 2553 
Q 372 3047 722 3315 
Q 1072 3584 1716 3584 
Q 2034 3584 2315 3537 
Q 2597 3491 2834 3397 
z
" transform="scale(0.015625)"/>
       <path id="DejaVuSans-29" d="M 513 4856 
L 1013 4856 
Q 1481 4119 1714 3412 
Q 1947 2706 1947 2009 
Q 1947 1309 1714 600 
Q 1481 -109 1013 -844 
L 513 -844 
Q 928 -128 1133 580 
Q 1338 1288 1338 2009 
Q 1338 2731 1133 3434 
Q 928 4138 513 4856 
z
" transform="scale(0.015625)"/>
      </defs>
      <use xlink:href="#DejaVuSans-54"/>
      <use xlink:href="#DejaVuSans-69" transform="translate(57.958984 0)"/>
      <use xlink:href="#DejaVuSans-6d" transform="translate(85.742188 0)"/>
      <use xlink:href="#DejaVuSans-65" transform="translate(183.154297 0)"/>
      <use xlink:href="#DejaVuSans-20" transform="translate(244.677734 0)"/>
      <use xlink:href="#DejaVuSans-28" transform="translate(276.464844 0)"/>
      <use xlink:href="#DejaVuSans-73" transform="translate(315.478516 0)"/>
      <use xlink:href="#DejaVuSans-29" transform="translate(367.578125 0)"/>
     </g>
    </g>
   </g>
   <g id="matplotlib.axis_2">
    <g id="ytick_1">
     <g id="line2d_6">
      <defs>
       <path id="m45a333f03d" d="M 0 0 
L -5 0 
" style="stroke: #000000; stroke-width: 1.6"/>
      </defs>
      <g>
       <use xlink:href="#m45a333f03d" x="101.56" y="302.724297" style="stroke: #000000; stroke-width: 1.6"/>
      </g>
     </g>
     <g id="text_7">
      <!-- 0.0 -->
      <g transform="translate(42.17 314.881797) scale(0.32 -0.32)">
       <defs>
        <path id="DejaVuSans-2e" d="M 684 794 
L 1344 794 
L 1344 0 
L 684 0 
L 684 794 
z
" transform="scale(0.015625)"/>
       </defs>
       <use xlink:href="#DejaVuSans-30"/>
       <use xlink:href="#DejaVuSans-2e" transform="translate(63.623047 0)"/>
       <use xlink:href="#DejaVuSans-30" transform="translate(95.410156 0)"/>
      </g>
     </g>
    </g>
    <g id="ytick_2">
     <g id="line2d_7">
      <g>
       <use xlink:href="#m45a333f03d" x="101.56" y="171.402199" style="stroke: #000000; stroke-width: 1.6"/>
      </g>
     </g>
     <g id="text_8">
      <!-- 0.2 -->
      <g transform="translate(42.17 183.559699) scale(0.32 -0.32)">
       <use xlink:href="#DejaVuSans-30"/>
       <use xlink:href="#DejaVuSans-2e" transform="translate(63.623047 0)"/>
       <use xlink:href="#DejaVuSans-32" transform="translate(95.410156 0)"/>
      </g>
     </g>
    </g>
    <g id="ytick_3">
     <g id="line2d_8">
      <g>
       <use xlink:href="#m45a333f03d" x="101.56" y="40.080102" style="stroke: #000000; stroke-width: 1.6"/>
      </g>
     </g>
     <g id="text_9">
      <!-- 0.4 -->
      <g transform="translate(42.17 52.237602) scale(0.32 -0.32)">
       <defs>
        <path id="DejaVuSans-34" d="M 2419 4116 
L 825 1625 
L 2419 1625 
L 2419 4116 
z
M 2253 4666 
L 3047 4666 
L 3047 1625 
L 3713 1625 
L 3713 1100 
L 3047 1100 
L 3047 0 
L 2419 0 
L 2419 1100 
L 313 1100 
L 313 1709 
L 2253 4666 
z
" transform="scale(0.015625)"/>
       </defs>
       <use xlink:href="#DejaVuSans-30"/>
       <use xlink:href="#DejaVuSans-2e" transform="translate(63.623047 0)"/>
       <use xlink:href="#DejaVuSans-34" transform="translate(95.410156 0)"/>
      </g>
     </g>
    </g>
    <g id="text_10">
     <!-- Neural Activity -->
     <g transform="translate(31.515 294.944838) rotate(-90) scale(0.32 -0.32)">
      <defs>
       <path id="DejaVuSans-4e" d="M 628 4666 
L 1478 4666 
L 3547 763 
L 3547 4666 
L 4159 4666 
L 4159 0 
L 3309 0 
L 1241 3903 
L 1241 0 
L 628 0 
L 628 4666 
z
" transform="scale(0.015625)"/>
       <path id="DejaVuSans-75" d="M 544 1381 
L 544 3500 
L 1119 3500 
L 1119 1403 
Q 1119 906 1312 657 
Q 1506 409 1894 409 
Q 2359 409 2629 706 
Q 2900 1003 2900 1516 
L 2900 3500 
L 3475 3500 
L 3475 0 
L 2900 0 
L 2900 538 
Q 2691 219 2414 64 
Q 2138 -91 1772 -91 
Q 1169 -91 856 284 
Q 544 659 544 1381 
z
M 1991 3584 
L 1991 3584 
z
" transform="scale(0.015625)"/>
       <path id="DejaVuSans-72" d="M 2631 2963 
Q 2534 3019 2420 3045 
Q 2306 3072 2169 3072 
Q 1681 3072 1420 2755 
Q 1159 2438 1159 1844 
L 1159 0 
L 581 0 
L 581 3500 
L 1159 3500 
L 1159 2956 
Q 1341 3275 1631 3429 
Q 1922 3584 2338 3584 
Q 2397 3584 2469 3576 
Q 2541 3569 2628 3553 
L 2631 2963 
z
" transform="scale(0.015625)"/>
       <path id="DejaVuSans-61" d="M 2194 1759 
Q 1497 1759 1228 1600 
Q 959 1441 959 1056 
Q 959 750 1161 570 
Q 1363 391 1709 391 
Q 2188 391 2477 730 
Q 2766 1069 2766 1631 
L 2766 1759 
L 2194 1759 
z
M 3341 1997 
L 3341 0 
L 2766 0 
L 2766 531 
Q 2569 213 2275 61 
Q 1981 -91 1556 -91 
Q 1019 -91 701 211 
Q 384 513 384 1019 
Q 384 1609 779 1909 
Q 1175 2209 1959 2209 
L 2766 2209 
L 2766 2266 
Q 2766 2663 2505 2880 
Q 2244 3097 1772 3097 
Q 1472 3097 1187 3025 
Q 903 2953 641 2809 
L 641 3341 
Q 956 3463 1253 3523 
Q 1550 3584 1831 3584 
Q 2591 3584 2966 3190 
Q 3341 2797 3341 1997 
z
" transform="scale(0.015625)"/>
       <path id="DejaVuSans-6c" d="M 603 4863 
L 1178 4863 
L 1178 0 
L 603 0 
L 603 4863 
z
" transform="scale(0.015625)"/>
       <path id="DejaVuSans-41" d="M 2188 4044 
L 1331 1722 
L 3047 1722 
L 2188 4044 
z
M 1831 4666 
L 2547 4666 
L 4325 0 
L 3669 0 
L 3244 1197 
L 1141 1197 
L 716 0 
L 50 0 
L 1831 4666 
z
" transform="scale(0.015625)"/>
       <path id="DejaVuSans-63" d="M 3122 3366 
L 3122 2828 
Q 2878 2963 2633 3030 
Q 2388 3097 2138 3097 
Q 1578 3097 1268 2742 
Q 959 2388 959 1747 
Q 959 1106 1268 751 
Q 1578 397 2138 397 
Q 2388 397 2633 464 
Q 2878 531 3122 666 
L 3122 134 
Q 2881 22 2623 -34 
Q 2366 -91 2075 -91 
Q 1284 -91 818 406 
Q 353 903 353 1747 
Q 353 2603 823 3093 
Q 1294 3584 2113 3584 
Q 2378 3584 2631 3529 
Q 2884 3475 3122 3366 
z
" transform="scale(0.015625)"/>
       <path id="DejaVuSans-74" d="M 1172 4494 
L 1172 3500 
L 2356 3500 
L 2356 3053 
L 1172 3053 
L 1172 1153 
Q 1172 725 1289 603 
Q 1406 481 1766 481 
L 2356 481 
L 2356 0 
L 1766 0 
Q 1100 0 847 248 
Q 594 497 594 1153 
L 594 3053 
L 172 3053 
L 172 3500 
L 594 3500 
L 594 4494 
L 1172 4494 
z
" transform="scale(0.015625)"/>
       <path id="DejaVuSans-76" d="M 191 3500 
L 800 3500 
L 1894 563 
L 2988 3500 
L 3597 3500 
L 2284 0 
L 1503 0 
L 191 3500 
z
" transform="scale(0.015625)"/>
       <path id="DejaVuSans-79" d="M 2059 -325 
Q 1816 -950 1584 -1140 
Q 1353 -1331 966 -1331 
L 506 -1331 
L 506 -850 
L 844 -850 
Q 1081 -850 1212 -737 
Q 1344 -625 1503 -206 
L 1606 56 
L 191 3500 
L 800 3500 
L 1894 763 
L 2988 3500 
L 3597 3500 
L 2059 -325 
z
" transform="scale(0.015625)"/>
      </defs>
      <use xlink:href="#DejaVuSans-4e"/>
      <use xlink:href="#DejaVuSans-65" transform="translate(74.804688 0)"/>
      <use xlink:href="#DejaVuSans-75" transform="translate(136.328125 0)"/>
      <use xlink:href="#DejaVuSans-72" transform="translate(199.707031 0)"/>
      <use xlink:href="#DejaVuSans-61" transform="translate(240.820312 0)"/>
      <use xlink:href="#DejaVuSans-6c" transform="translate(302.099609 0)"/>
      <use xlink:href="#DejaVuSans-20" transform="translate(329.882812 0)"/>
      <use xlink:href="#DejaVuSans-41" transform="translate(361.669922 0)"/>
      <use xlink:href="#DejaVuSans-63" transform="translate(428.328125 0)"/>
      <use xlink:href="#DejaVuSans-74" transform="translate(483.308594 0)"/>
      <use xlink:href="#DejaVuSans-69" transform="translate(522.517578 0)"/>
      <use xlink:href="#DejaVuSans-76" transform="translate(550.300781 0)"/>
      <use xlink:href="#DejaVuSans-69" transform="translate(609.480469 0)"/>
      <use xlink:href="#DejaVuSans-74" transform="translate(637.263672 0)"/>
      <use xlink:href="#DejaVuSans-79" transform="translate(676.472656 0)"/>
     </g>
    </g>
   </g>
   <g id="line2d_9">
    <path d="M 102.458359 301.400067 
L 103.356718 300.670933 
L 109.645229 301.290356 
L 116.832099 301.772992 
L 117.730458 301.820557 
L 118.628817 300.414512 
L 119.527176 300.045411 
L 122.222252 300.427487 
L 123.120611 300.005726 
L 128.510763 300.725897 
L 134.799275 301.32874 
L 141.986145 301.798456 
L 142.884504 301.844748 
L 143.782862 301.67556 
L 147.376298 301.870094 
L 148.274656 301.801614 
L 157.258244 302.171852 
L 158.156603 301.534471 
L 161.750038 301.755176 
L 162.648397 300.787 
L 164.445114 300.975886 
L 165.343473 300.711448 
L 166.241832 300.59227 
L 168.038549 300.800143 
L 168.936908 299.511158 
L 169.835267 299.671815 
L 170.733626 299.281451 
L 174.327061 299.920078 
L 175.22542 297.697915 
L 178.818855 298.630277 
L 180.615572 299.029444 
L 181.513931 298.982659 
L 186.005725 299.829089 
L 186.904084 299.97385 
L 187.802442 299.700196 
L 190.497519 300.131508 
L 191.395877 286.943749 
L 192.294236 271.168558 
L 193.192595 258.251255 
L 194.989313 229.662263 
L 197.684389 191.138603 
L 199.481106 171.268946 
L 201.277824 152.996138 
L 203.074542 140.097834 
L 203.9729 132.90655 
L 204.871259 129.412787 
L 205.769618 124.124121 
L 206.667977 115.551389 
L 207.566335 109.134246 
L 208.464694 105.5263 
L 209.363053 101.220287 
L 210.261412 96.141552 
L 212.058129 88.278903 
L 212.956488 82.728214 
L 213.854847 78.634657 
L 214.753206 75.523889 
L 215.651564 71.808336 
L 216.549923 69.384756 
L 217.448282 68.62444 
L 218.346641 67.027943 
L 219.245 64.808286 
L 220.143358 64.066443 
L 221.041717 63.863968 
L 221.940076 63.800605 
L 222.838435 62.253264 
L 223.736793 61.214352 
L 224.635152 61.500032 
L 225.533511 58.666961 
L 226.43187 57.054007 
L 228.228587 52.427892 
L 229.126946 53.28014 
L 230.025305 51.791837 
L 230.923664 52.88237 
L 231.822022 53.544589 
L 232.720381 55.488036 
L 233.61874 56.638469 
L 234.517099 59.522242 
L 235.415457 59.075239 
L 236.313816 59.49058 
L 237.212175 59.725148 
L 238.110534 60.63892 
L 239.907251 63.649986 
L 240.80561 64.47656 
L 241.703969 65.022111 
L 242.602328 64.941802 
L 243.500686 64.497518 
L 244.399045 64.295689 
L 245.297404 66.299211 
L 246.195763 66.92648 
L 247.094122 68.247355 
L 247.99248 68.152467 
L 248.890839 69.281042 
L 249.789198 71.134201 
L 250.687557 71.256445 
L 251.585915 69.737732 
L 252.484274 69.285915 
L 254.280992 73.119192 
L 255.179351 72.892451 
L 256.077709 73.165667 
L 256.976068 73.778318 
L 257.874427 73.973866 
L 258.772786 73.227758 
L 259.671144 75.010548 
L 260.569503 74.74105 
L 261.467862 77.30298 
L 262.366221 78.213503 
L 263.26458 80.916385 
L 264.162938 82.547636 
L 265.061297 84.847759 
L 265.959656 87.686681 
L 266.858015 88.595169 
L 267.756373 90.976579 
L 268.654732 90.097425 
L 269.553091 90.989768 
L 270.45145 93.845696 
L 271.349808 93.311436 
L 272.248167 93.890332 
L 273.146526 95.713158 
L 274.044885 96.447252 
L 274.943244 99.381218 
L 275.841602 100.568382 
L 276.739961 101.443662 
L 277.63832 101.903483 
L 278.536679 103.849924 
L 279.435037 103.35443 
L 280.333396 102.444357 
L 282.130114 121.971643 
L 283.926831 139.59504 
L 285.723549 155.500145 
L 287.520266 169.854504 
L 289.316984 182.809312 
L 291.113702 194.501032 
L 292.910419 205.052807 
L 294.707137 214.575777 
L 296.503854 223.17026 
L 298.300572 230.92678 
L 300.097289 237.927041 
L 301.894007 244.244771 
L 303.690724 249.946528 
L 305.487442 255.092358 
L 307.284159 259.736471 
L 309.080877 263.927783 
L 310.877595 267.710446 
L 312.674312 271.124296 
L 314.47103 274.205298 
L 316.267747 276.985901 
L 318.962824 280.656843 
L 321.6579 283.804215 
L 324.352976 286.502692 
L 327.048053 288.816298 
L 329.743129 290.799927 
L 332.438205 292.500641 
L 335.133281 293.95879 
L 337.828358 295.208971 
L 341.421793 296.603017 
L 345.015228 297.738476 
L 348.608663 298.663315 
L 353.100457 299.581986 
L 358.49061 300.41441 
L 364.779121 301.111217 
L 371.965991 301.654146 
L 380.949579 302.083558 
L 392.628243 302.395379 
L 409.69706 302.600178 
L 422.274083 302.663767 
L 423.172441 302.414406 
L 441.139617 302.613205 
L 451.021563 302.661108 
L 451.919922 301.998545 
L 455.513357 302.076394 
L 456.411716 301.538954 
L 460.005151 301.758828 
L 460.005151 301.758828 
" clip-path="url(#p4da9a58edc)" style="fill: none; stroke: #000000; stroke-width: 5; stroke-linecap: square"/>
   </g>
   <g id="line2d_10">
    <path d="M 102.458359 300.556232 
L 103.356718 300.106678 
L 106.950153 300.293724 
L 107.848511 299.769122 
L 108.74687 299.649657 
L 109.645229 299.741387 
L 110.543588 299.586375 
L 111.441947 299.200989 
L 112.340305 299.210783 
L 114.137023 299.553351 
L 115.93374 299.462456 
L 116.832099 299.625548 
L 118.628817 299.520523 
L 119.527176 299.680712 
L 120.425534 299.622782 
L 123.120611 300.065136 
L 124.018969 299.988035 
L 126.714046 300.378294 
L 127.612404 299.672011 
L 131.20584 300.230457 
L 132.104198 299.493181 
L 133.002557 299.654737 
L 133.900916 299.625 
L 134.799275 299.163221 
L 136.595992 299.418661 
L 140.189427 300.031836 
L 141.087786 299.767928 
L 141.986145 299.915747 
L 142.884504 299.857526 
L 145.57958 300.266399 
L 146.477939 300.308343 
L 147.376298 300.211156 
L 148.274656 300.336813 
L 149.173015 300.267255 
L 150.969733 300.362915 
L 151.868091 300.337164 
L 152.76645 300.45652 
L 153.664809 300.30873 
L 154.563168 300.011012 
L 155.461527 299.570156 
L 158.156603 299.687613 
L 160.851679 300.12072 
L 161.750038 299.915791 
L 164.445114 300.231158 
L 165.343473 299.781225 
L 167.140191 299.962245 
L 168.936908 300.171825 
L 169.835267 299.992768 
L 170.733626 300.129344 
L 171.631984 299.835638 
L 173.428702 300.06826 
L 174.327061 299.908245 
L 175.22542 300.049048 
L 177.022137 299.945686 
L 178.818855 299.353804 
L 180.615572 299.682427 
L 181.513931 299.732881 
L 182.41229 299.009668 
L 186.904084 299.849988 
L 187.802442 299.993703 
L 188.700801 299.893839 
L 189.59916 299.678672 
L 194.989313 300.485483 
L 196.78603 300.703767 
L 197.684389 300.604166 
L 203.9729 301.24373 
L 210.261412 301.690362 
L 212.058129 301.702364 
L 213.854847 301.740298 
L 218.346641 301.876318 
L 219.245 301.696394 
L 227.330228 302.076461 
L 228.228587 301.881575 
L 233.61874 302.050317 
L 234.517099 301.962733 
L 242.602328 302.217498 
L 243.500686 301.920612 
L 247.99248 302.102421 
L 248.890839 301.398413 
L 252.484274 301.110412 
L 253.382633 300.974982 
L 257.874427 301.322252 
L 258.772786 301.229806 
L 259.671144 301.30453 
L 260.569503 301.233149 
L 261.467862 301.307706 
L 263.26458 300.992835 
L 264.162938 301.079408 
L 265.959656 300.961838 
L 266.858015 300.221198 
L 267.756373 300.171149 
L 270.45145 300.509598 
L 271.349808 300.424583 
L 274.943244 300.686228 
L 275.841602 300.515516 
L 281.231755 301.078224 
L 282.130114 301.006714 
L 287.520266 301.436828 
L 288.418625 301.382932 
L 289.316984 301.45 
L 290.215343 301.296266 
L 293.808778 301.561157 
L 294.707137 301.249852 
L 295.605495 301.068762 
L 297.402213 301.230176 
L 298.300572 301.165842 
L 300.995648 301.345181 
L 301.894007 301.257791 
L 302.792366 300.959283 
L 303.690724 301.047533 
L 304.589083 300.789061 
L 309.080877 301.226848 
L 310.877595 300.876598 
L 311.775953 300.968983 
L 312.674312 300.675813 
L 318.064465 301.196767 
L 320.759541 301.387995 
L 321.6579 301.32952 
L 322.556259 300.900152 
L 323.454617 300.991359 
L 324.352976 300.827518 
L 325.251335 300.922357 
L 326.149694 300.342366 
L 327.048053 299.915278 
L 329.743129 300.315914 
L 330.641488 300.018578 
L 336.03164 300.735345 
L 336.929999 300.677859 
L 337.828358 300.780181 
L 338.726717 300.720272 
L 345.015228 301.324812 
L 348.608663 301.556487 
L 349.507022 301.278725 
L 353.100457 301.546869 
L 353.998816 301.13474 
L 354.897175 301.214218 
L 356.693892 300.771595 
L 357.592251 300.708276 
L 358.49061 300.809077 
L 359.388968 300.775921 
L 365.67748 301.363673 
L 366.575839 301.114684 
L 371.965991 301.406302 
L 374.661068 301.594281 
L 376.457785 301.057838 
L 377.356144 301.141161 
L 378.254503 300.863459 
L 381.847938 301.208633 
L 383.644655 301.275956 
L 384.543014 301.348373 
L 385.441373 301.172878 
L 392.628243 301.695054 
L 394.424961 301.795405 
L 395.323319 301.653314 
L 398.018396 301.710012 
L 400.713472 301.771119 
L 401.611831 301.582468 
L 404.306907 301.70675 
L 407.900342 301.865808 
L 408.798701 301.563592 
L 412.392136 301.751355 
L 414.188854 301.532147 
L 415.087212 301.345786 
L 415.985571 301.414712 
L 416.88393 301.036315 
L 417.782289 301.120714 
L 418.680648 301.084744 
L 419.579006 301.166722 
L 420.477365 301.089602 
L 424.969159 301.405874 
L 425.867518 301.141458 
L 431.25767 301.560765 
L 432.156029 301.214484 
L 438.444541 301.669938 
L 439.342899 301.607931 
L 440.241258 301.663749 
L 441.139617 301.431196 
L 442.037976 301.495851 
L 442.936334 300.828338 
L 445.631411 301.098749 
L 446.52977 300.770208 
L 447.428128 300.577249 
L 453.71664 301.224934 
L 454.614999 300.967526 
L 455.513357 301.045829 
L 456.411716 300.933826 
L 458.208434 301.108397 
L 459.106792 300.924623 
L 460.005151 301.014607 
L 460.005151 301.014607 
" clip-path="url(#p4da9a58edc)" style="fill: none; stroke: #ff0000; stroke-width: 5; stroke-linecap: square"/>
   </g>
   <g id="line2d_11">
    <path d="M 102.458359 301.409348 
L 103.356718 300.448275 
L 109.645229 301.134866 
L 110.543588 301.094889 
L 117.730458 301.643315 
L 118.628817 300.077851 
L 119.527176 299.889039 
L 122.222252 300.293417 
L 123.120611 299.860679 
L 128.510763 300.619275 
L 134.799275 301.232198 
L 135.697633 300.976831 
L 142.884504 301.564992 
L 143.782862 301.374095 
L 148.274656 301.601695 
L 149.173015 301.657825 
L 150.071374 301.278898 
L 157.258244 301.76539 
L 158.156603 301.216504 
L 160.851679 301.431553 
L 161.750038 301.14993 
L 162.648397 300.168306 
L 164.445114 300.417515 
L 165.343473 300.122644 
L 167.140191 300.284091 
L 168.038549 300.406102 
L 168.936908 299.560697 
L 169.835267 299.718877 
L 170.733626 299.64866 
L 174.327061 300.219171 
L 175.22542 298.415238 
L 179.717213 299.39003 
L 182.41229 299.791116 
L 186.904084 300.454658 
L 187.802442 300.404154 
L 190.497519 300.735064 
L 193.192595 258.356729 
L 194.989313 229.058231 
L 196.78603 201.726218 
L 198.582748 179.95181 
L 200.379465 162.230854 
L 201.277824 153.841009 
L 203.074542 140.492726 
L 203.9729 133.024862 
L 204.871259 129.084858 
L 205.769618 123.494817 
L 206.667977 114.928366 
L 207.566335 108.670844 
L 209.363053 101.711105 
L 210.261412 96.007175 
L 211.159771 91.935926 
L 212.058129 88.749134 
L 212.956488 82.477463 
L 213.854847 78.895211 
L 214.753206 75.917842 
L 215.651564 71.881894 
L 216.549923 70.127146 
L 217.448282 69.316559 
L 218.346641 68.17775 
L 219.245 66.497558 
L 220.143358 65.354052 
L 221.041717 65.190205 
L 221.940076 65.149717 
L 222.838435 63.635173 
L 223.736793 62.754981 
L 224.635152 62.893937 
L 225.533511 59.40309 
L 226.43187 57.46293 
L 227.330228 55.976016 
L 228.228587 53.354598 
L 229.126946 54.600819 
L 230.025305 52.961369 
L 230.923664 53.882537 
L 231.822022 53.821405 
L 232.720381 54.733454 
L 234.517099 59.323778 
L 235.415457 58.350969 
L 236.313816 58.805721 
L 239.008893 61.81988 
L 239.907251 63.828314 
L 241.703969 65.053499 
L 243.500686 63.577935 
L 244.399045 62.453234 
L 245.297404 65.236034 
L 246.195763 65.27842 
L 247.094122 66.211016 
L 247.99248 66.258176 
L 248.890839 67.033011 
L 249.789198 68.858793 
L 250.687557 68.928516 
L 251.585915 67.754561 
L 252.484274 67.100327 
L 254.280992 71.575373 
L 255.179351 71.231417 
L 256.077709 72.106286 
L 256.976068 72.489888 
L 257.874427 72.645203 
L 258.772786 71.546137 
L 259.671144 73.672472 
L 260.569503 74.04942 
L 262.366221 78.83404 
L 263.26458 81.872816 
L 265.061297 85.074793 
L 265.959656 88.243425 
L 266.858015 88.996774 
L 267.756373 91.358439 
L 268.654732 91.337932 
L 269.553091 92.64051 
L 270.45145 96.080499 
L 271.349808 96.157501 
L 272.248167 96.789994 
L 273.146526 98.256714 
L 274.044885 98.625482 
L 274.943244 100.561435 
L 275.841602 100.910361 
L 276.739961 101.583675 
L 277.63832 103.295802 
L 278.536679 106.092789 
L 279.435037 105.151876 
L 280.333396 103.968353 
L 282.130114 123.347056 
L 283.926831 140.83634 
L 285.723549 156.620423 
L 287.520266 170.86555 
L 289.316984 183.721783 
L 291.113702 195.324534 
L 292.910419 205.796019 
L 294.707137 215.246527 
L 296.503854 223.775607 
L 298.300572 231.473104 
L 300.097289 238.420099 
L 301.894007 244.689759 
L 303.690724 250.348128 
L 305.487442 255.454806 
L 307.284159 260.063583 
L 309.080877 264.223004 
L 310.877595 267.976881 
L 312.674312 271.364754 
L 314.47103 274.422308 
L 316.267747 277.181753 
L 318.962824 280.824758 
L 321.6579 283.948181 
L 324.352976 286.626125 
L 327.048053 288.922127 
L 329.743129 290.890661 
L 332.438205 292.578435 
L 335.133281 294.025489 
L 337.828358 295.266157 
L 341.421793 296.649595 
L 345.015228 297.776414 
L 348.608663 298.694215 
L 353.100457 299.605897 
L 358.49061 300.431986 
L 364.779121 301.123491 
L 365.67748 301.203531 
L 366.575839 301.10162 
L 373.762709 301.64778 
L 382.746297 302.079746 
L 394.424961 302.393422 
L 411.493777 302.59944 
L 433.054388 302.68784 
L 434.851106 302.590379 
L 439.342899 302.620673 
L 440.241258 302.447565 
L 451.021563 302.528671 
L 451.919922 302.322554 
L 455.513357 302.397075 
L 456.411716 302.035431 
L 460.005151 302.163211 
L 460.005151 302.163211 
" clip-path="url(#p4da9a58edc)" style="fill: none; stroke: #0000ff; stroke-width: 5; stroke-linecap: square"/>
   </g>
   <g id="patch_3">
    <path d="M 101.56 322.75952 
L 101.56 31.720156 
" style="fill: none; stroke: #000000; stroke-width: 5; stroke-linejoin: miter; stroke-linecap: square"/>
   </g>
   <g id="patch_4">
    <path d="M 101.56 322.75952 
L 460.90351 322.75952 
" style="fill: none; stroke: #000000; stroke-width: 5; stroke-linejoin: miter; stroke-linecap: square"/>
   </g>
   <g id="patch_5">
    <path d="M 191.395877 316.938733 
L 281.231755 316.938733 
L 281.231755 306.752355 
L 191.395877 306.752355 
z
" style="fill: #8c5a2b; stroke: #8c5a2b; stroke-linejoin: miter"/>
   </g>
   <g id="text_11">
    <!-- Novel | Naive -->
    <g transform="translate(217.929099 21.720156) scale(0.19 -0.19)">
     <defs>
      <path id="DejaVuSans-6f" d="M 1959 3097 
Q 1497 3097 1228 2736 
Q 959 2375 959 1747 
Q 959 1119 1226 758 
Q 1494 397 1959 397 
Q 2419 397 2687 759 
Q 2956 1122 2956 1747 
Q 2956 2369 2687 2733 
Q 2419 3097 1959 3097 
z
M 1959 3584 
Q 2709 3584 3137 3096 
Q 3566 2609 3566 1747 
Q 3566 888 3137 398 
Q 2709 -91 1959 -91 
Q 1206 -91 779 398 
Q 353 888 353 1747 
Q 353 2609 779 3096 
Q 1206 3584 1959 3584 
z
" transform="scale(0.015625)"/>
      <path id="DejaVuSans-7c" d="M 1344 4891 
L 1344 -1509 
L 813 -1509 
L 813 4891 
L 1344 4891 
z
" transform="scale(0.015625)"/>
     </defs>
     <use xlink:href="#DejaVuSans-4e"/>
     <use xlink:href="#DejaVuSans-6f" transform="translate(74.804688 0)"/>
     <use xlink:href="#DejaVuSans-76" transform="translate(135.986328 0)"/>
     <use xlink:href="#DejaVuSans-65" transform="translate(195.166016 0)"/>
     <use xlink:href="#DejaVuSans-6c" transform="translate(256.689453 0)"/>
     <use xlink:href="#DejaVuSans-20" transform="translate(284.472656 0)"/>
     <use xlink:href="#DejaVuSans-7c" transform="translate(316.259766 0)"/>
     <use xlink:href="#DejaVuSans-20" transform="translate(349.951172 0)"/>
     <use xlink:href="#DejaVuSans-4e" transform="translate(381.738281 0)"/>
     <use xlink:href="#DejaVuSans-61" transform="translate(456.542969 0)"/>
     <use xlink:href="#DejaVuSans-69" transform="translate(517.822266 0)"/>
     <use xlink:href="#DejaVuSans-76" transform="translate(545.605469 0)"/>
     <use xlink:href="#DejaVuSans-65" transform="translate(604.785156 0)"/>
    </g>
   </g>
   <g id="legend_1">
    <g id="line2d_12">
     <path d="M 110.56 46.867812 
L 125.56 46.867812 
L 140.56 46.867812 
" style="fill: none; stroke: #000000; stroke-width: 5; stroke-linecap: square"/>
    </g>
    <g id="text_12">
     <!-- Nonoccluded (NO) -->
     <g transform="translate(152.56 52.117812) scale(0.15 -0.15)">
      <defs>
       <path id="DejaVuSans-6e" d="M 3513 2113 
L 3513 0 
L 2938 0 
L 2938 2094 
Q 2938 2591 2744 2837 
Q 2550 3084 2163 3084 
Q 1697 3084 1428 2787 
Q 1159 2491 1159 1978 
L 1159 0 
L 581 0 
L 581 3500 
L 1159 3500 
L 1159 2956 
Q 1366 3272 1645 3428 
Q 1925 3584 2291 3584 
Q 2894 3584 3203 3211 
Q 3513 2838 3513 2113 
z
" transform="scale(0.015625)"/>
       <path id="DejaVuSans-64" d="M 2906 2969 
L 2906 4863 
L 3481 4863 
L 3481 0 
L 2906 0 
L 2906 525 
Q 2725 213 2448 61 
Q 2172 -91 1784 -91 
Q 1150 -91 751 415 
Q 353 922 353 1747 
Q 353 2572 751 3078 
Q 1150 3584 1784 3584 
Q 2172 3584 2448 3432 
Q 2725 3281 2906 2969 
z
M 947 1747 
Q 947 1113 1208 752 
Q 1469 391 1925 391 
Q 2381 391 2643 752 
Q 2906 1113 2906 1747 
Q 2906 2381 2643 2742 
Q 2381 3103 1925 3103 
Q 1469 3103 1208 2742 
Q 947 2381 947 1747 
z
" transform="scale(0.015625)"/>
       <path id="DejaVuSans-4f" d="M 2522 4238 
Q 1834 4238 1429 3725 
Q 1025 3213 1025 2328 
Q 1025 1447 1429 934 
Q 1834 422 2522 422 
Q 3209 422 3611 934 
Q 4013 1447 4013 2328 
Q 4013 3213 3611 3725 
Q 3209 4238 2522 4238 
z
M 2522 4750 
Q 3503 4750 4090 4092 
Q 4678 3434 4678 2328 
Q 4678 1225 4090 567 
Q 3503 -91 2522 -91 
Q 1538 -91 948 565 
Q 359 1222 359 2328 
Q 359 3434 948 4092 
Q 1538 4750 2522 4750 
z
" transform="scale(0.015625)"/>
      </defs>
      <use xlink:href="#DejaVuSans-4e"/>
      <use xlink:href="#DejaVuSans-6f" transform="translate(74.804688 0)"/>
      <use xlink:href="#DejaVuSans-6e" transform="translate(135.986328 0)"/>
      <use xlink:href="#DejaVuSans-6f" transform="translate(199.365234 0)"/>
      <use xlink:href="#DejaVuSans-63" transform="translate(260.546875 0)"/>
      <use xlink:href="#DejaVuSans-63" transform="translate(315.527344 0)"/>
      <use xlink:href="#DejaVuSans-6c" transform="translate(370.507812 0)"/>
      <use xlink:href="#DejaVuSans-75" transform="translate(398.291016 0)"/>
      <use xlink:href="#DejaVuSans-64" transform="translate(461.669922 0)"/>
      <use xlink:href="#DejaVuSans-65" transform="translate(525.146484 0)"/>
      <use xlink:href="#DejaVuSans-64" transform="translate(586.669922 0)"/>
      <use xlink:href="#DejaVuSans-20" transform="translate(650.146484 0)"/>
      <use xlink:href="#DejaVuSans-28" transform="translate(681.933594 0)"/>
      <use xlink:href="#DejaVuSans-4e" transform="translate(720.947266 0)"/>
      <use xlink:href="#DejaVuSans-4f" transform="translate(795.751953 0)"/>
      <use xlink:href="#DejaVuSans-29" transform="translate(874.462891 0)"/>
     </g>
    </g>
    <g id="line2d_13">
     <path d="M 110.56 68.885 
L 125.56 68.885 
L 140.56 68.885 
" style="fill: none; stroke: #ff0000; stroke-width: 5; stroke-linecap: square"/>
    </g>
    <g id="text_13">
     <!-- Occluded (O) -->
     <g transform="translate(152.56 74.135) scale(0.15 -0.15)">
      <use xlink:href="#DejaVuSans-4f"/>
      <use xlink:href="#DejaVuSans-63" transform="translate(78.710938 0)"/>
      <use xlink:href="#DejaVuSans-63" transform="translate(133.691406 0)"/>
      <use xlink:href="#DejaVuSans-6c" transform="translate(188.671875 0)"/>
      <use xlink:href="#DejaVuSans-75" transform="translate(216.455078 0)"/>
      <use xlink:href="#DejaVuSans-64" transform="translate(279.833984 0)"/>
      <use xlink:href="#DejaVuSans-65" transform="translate(343.310547 0)"/>
      <use xlink:href="#DejaVuSans-64" transform="translate(404.833984 0)"/>
      <use xlink:href="#DejaVuSans-20" transform="translate(468.310547 0)"/>
      <use xlink:href="#DejaVuSans-28" transform="translate(500.097656 0)"/>
      <use xlink:href="#DejaVuSans-4f" transform="translate(539.111328 0)"/>
      <use xlink:href="#DejaVuSans-29" transform="translate(617.822266 0)"/>
     </g>
    </g>
    <g id="line2d_14">
     <path d="M 110.56 90.902187 
L 125.56 90.902187 
L 140.56 90.902187 
" style="fill: none; stroke: #0000ff; stroke-width: 5; stroke-linecap: square"/>
    </g>
    <g id="text_14">
     <!-- No feedback -->
     <g transform="translate(152.56 96.152187) scale(0.15 -0.15)">
      <defs>
       <path id="DejaVuSans-66" d="M 2375 4863 
L 2375 4384 
L 1825 4384 
Q 1516 4384 1395 4259 
Q 1275 4134 1275 3809 
L 1275 3500 
L 2222 3500 
L 2222 3053 
L 1275 3053 
L 1275 0 
L 697 0 
L 697 3053 
L 147 3053 
L 147 3500 
L 697 3500 
L 697 3744 
Q 697 4328 969 4595 
Q 1241 4863 1831 4863 
L 2375 4863 
z
" transform="scale(0.015625)"/>
       <path id="DejaVuSans-62" d="M 3116 1747 
Q 3116 2381 2855 2742 
Q 2594 3103 2138 3103 
Q 1681 3103 1420 2742 
Q 1159 2381 1159 1747 
Q 1159 1113 1420 752 
Q 1681 391 2138 391 
Q 2594 391 2855 752 
Q 3116 1113 3116 1747 
z
M 1159 2969 
Q 1341 3281 1617 3432 
Q 1894 3584 2278 3584 
Q 2916 3584 3314 3078 
Q 3713 2572 3713 1747 
Q 3713 922 3314 415 
Q 2916 -91 2278 -91 
Q 1894 -91 1617 61 
Q 1341 213 1159 525 
L 1159 0 
L 581 0 
L 581 4863 
L 1159 4863 
L 1159 2969 
z
" transform="scale(0.015625)"/>
       <path id="DejaVuSans-6b" d="M 581 4863 
L 1159 4863 
L 1159 1991 
L 2875 3500 
L 3609 3500 
L 1753 1863 
L 3688 0 
L 2938 0 
L 1159 1709 
L 1159 0 
L 581 0 
L 581 4863 
z
" transform="scale(0.015625)"/>
      </defs>
      <use xlink:href="#DejaVuSans-4e"/>
      <use xlink:href="#DejaVuSans-6f" transform="translate(74.804688 0)"/>
      <use xlink:href="#DejaVuSans-20" transform="translate(135.986328 0)"/>
      <use xlink:href="#DejaVuSans-66" transform="translate(167.773438 0)"/>
      <use xlink:href="#DejaVuSans-65" transform="translate(202.978516 0)"/>
      <use xlink:href="#DejaVuSans-65" transform="translate(264.501953 0)"/>
      <use xlink:href="#DejaVuSans-64" transform="translate(326.025391 0)"/>
      <use xlink:href="#DejaVuSans-62" transform="translate(389.501953 0)"/>
      <use xlink:href="#DejaVuSans-61" transform="translate(452.978516 0)"/>
      <use xlink:href="#DejaVuSans-63" transform="translate(514.257812 0)"/>
      <use xlink:href="#DejaVuSans-6b" transform="translate(569.238281 0)"/>
     </g>
    </g>
   </g>
  </g>
  <g id="axes_2">
   <g id="patch_6">
    <path d="M 495.67601 322.75952 
L 855.01952 322.75952 
L 855.01952 31.720156 
L 495.67601 31.720156 
z
" style="fill: #ffffff"/>
   </g>
   <g id="matplotlib.axis_3">
    <g id="xtick_6">
     <g id="line2d_15">
      <g>
       <use xlink:href="#m6c662c1b94" x="495.67601" y="322.75952" style="stroke: #000000; stroke-width: 1.6"/>
      </g>
     </g>
     <g id="text_15">
      <!-- -1 -->
      <g transform="translate(479.72351 355.57452) scale(0.32 -0.32)">
       <use xlink:href="#DejaVuSans-2d"/>
       <use xlink:href="#DejaVuSans-31" transform="translate(36.083984 0)"/>
      </g>
     </g>
    </g>
    <g id="xtick_7">
     <g id="line2d_16">
      <g>
       <use xlink:href="#m6c662c1b94" x="585.511887" y="322.75952" style="stroke: #000000; stroke-width: 1.6"/>
      </g>
     </g>
     <g id="text_16">
      <!-- 0 -->
      <g transform="translate(575.331887 355.57452) scale(0.32 -0.32)">
       <use xlink:href="#DejaVuSans-30"/>
      </g>
     </g>
    </g>
    <g id="xtick_8">
     <g id="line2d_17">
      <g>
       <use xlink:href="#m6c662c1b94" x="675.347765" y="322.75952" style="stroke: #000000; stroke-width: 1.6"/>
      </g>
     </g>
     <g id="text_17">
      <!-- 1 -->
      <g transform="translate(665.167765 355.57452) scale(0.32 -0.32)">
       <use xlink:href="#DejaVuSans-31"/>
      </g>
     </g>
    </g>
    <g id="xtick_9">
     <g id="line2d_18">
      <g>
       <use xlink:href="#m6c662c1b94" x="765.183642" y="322.75952" style="stroke: #000000; stroke-width: 1.6"/>
      </g>
     </g>
     <g id="text_18">
      <!-- 2 -->
      <g transform="translate(755.003642 355.57452) scale(0.32 -0.32)">
       <use xlink:href="#DejaVuSans-32"/>
      </g>
     </g>
    </g>
    <g id="xtick_10">
     <g id="line2d_19">
      <g>
       <use xlink:href="#m6c662c1b94" x="855.01952" y="322.75952" style="stroke: #000000; stroke-width: 1.6"/>
      </g>
     </g>
     <g id="text_19">
      <!-- 3 -->
      <g transform="translate(844.83952 355.57452) scale(0.32 -0.32)">
       <use xlink:href="#DejaVuSans-33"/>
      </g>
     </g>
    </g>
    <g id="text_20">
     <!-- Time (s) -->
     <g transform="translate(610.295265 390.54452) scale(0.32 -0.32)">
      <use xlink:href="#DejaVuSans-54"/>
      <use xlink:href="#DejaVuSans-69" transform="translate(57.958984 0)"/>
      <use xlink:href="#DejaVuSans-6d" transform="translate(85.742188 0)"/>
      <use xlink:href="#DejaVuSans-65" transform="translate(183.154297 0)"/>
      <use xlink:href="#DejaVuSans-20" transform="translate(244.677734 0)"/>
      <use xlink:href="#DejaVuSans-28" transform="translate(276.464844 0)"/>
      <use xlink:href="#DejaVuSans-73" transform="translate(315.478516 0)"/>
      <use xlink:href="#DejaVuSans-29" transform="translate(367.578125 0)"/>
     </g>
    </g>
   </g>
   <g id="matplotlib.axis_4">
    <g id="ytick_4">
     <g id="line2d_20">
      <g>
       <use xlink:href="#m45a333f03d" x="495.67601" y="302.724297" style="stroke: #000000; stroke-width: 1.6"/>
      </g>
     </g>
    </g>
    <g id="ytick_5">
     <g id="line2d_21">
      <g>
       <use xlink:href="#m45a333f03d" x="495.67601" y="171.402199" style="stroke: #000000; stroke-width: 1.6"/>
      </g>
     </g>
    </g>
    <g id="ytick_6">
     <g id="line2d_22">
      <g>
       <use xlink:href="#m45a333f03d" x="495.67601" y="40.080102" style="stroke: #000000; stroke-width: 1.6"/>
      </g>
     </g>
    </g>
   </g>
   <g id="line2d_23">
    <path d="M 496.574369 300.703572 
L 497.472728 298.601854 
L 498.371086 298.807976 
L 499.269445 298.212938 
L 503.761239 299.233493 
L 508.253033 300.02318 
L 511.846468 300.52422 
L 512.744827 298.454345 
L 516.338262 299.246395 
L 517.236621 298.532799 
L 519.931697 299.130611 
L 520.830056 298.764953 
L 522.626773 299.150989 
L 523.525132 298.812507 
L 528.016926 299.697429 
L 533.407079 300.499271 
L 537.000514 300.912 
L 537.898872 300.300785 
L 541.492308 300.750332 
L 542.390666 299.829612 
L 545.984101 300.366558 
L 546.88246 300.366581 
L 551.374254 300.899941 
L 552.272613 300.516867 
L 554.967689 300.831702 
L 555.866048 300.542782 
L 556.764407 299.2555 
L 558.561124 299.593708 
L 559.459483 298.816821 
L 562.154559 299.374125 
L 563.052918 298.838694 
L 563.951277 299.032974 
L 564.849636 298.331151 
L 568.443071 299.146052 
L 569.34143 296.913362 
L 571.138147 297.479928 
L 572.036506 297.312692 
L 574.731582 298.084522 
L 575.629941 297.959769 
L 580.121735 299.037596 
L 581.020094 299.221932 
L 581.918452 298.924429 
L 584.613529 299.466385 
L 585.511887 286.265042 
L 586.410246 270.550562 
L 588.206964 242.288995 
L 590.003681 214.494617 
L 590.90204 200.761216 
L 592.698758 178.186211 
L 593.597116 167.41927 
L 595.393834 149.536111 
L 596.292193 142.569093 
L 597.190552 136.692197 
L 598.08891 129.14325 
L 598.987269 125.541078 
L 599.885628 120.298085 
L 600.783987 111.880844 
L 601.682345 106.049269 
L 602.580704 103.114422 
L 603.479063 99.555907 
L 604.377422 93.797322 
L 606.174139 85.358223 
L 607.072498 79.778887 
L 607.970857 75.854264 
L 608.869216 72.772888 
L 609.767574 68.408013 
L 610.665933 66.241739 
L 611.564292 66.688664 
L 612.462651 66.242482 
L 613.36101 63.352466 
L 614.259368 63.53506 
L 615.157727 63.940168 
L 616.056086 64.541156 
L 616.954445 61.897665 
L 617.852803 61.060484 
L 618.751162 62.55096 
L 619.649521 60.497439 
L 620.54788 59.135725 
L 621.446238 56.174617 
L 622.344597 53.685873 
L 623.242956 55.372464 
L 624.141315 53.458135 
L 625.039674 54.739638 
L 625.938032 55.202453 
L 626.836391 57.125588 
L 627.73475 58.466971 
L 628.633109 60.565636 
L 629.531467 59.439526 
L 630.429826 59.563277 
L 631.328185 59.810291 
L 632.226544 60.197337 
L 633.124903 61.627286 
L 634.023261 63.951811 
L 635.819979 66.509475 
L 636.718338 66.534249 
L 638.515055 64.215419 
L 639.413414 66.61219 
L 640.311773 67.073988 
L 641.210132 68.705963 
L 642.10849 67.976996 
L 643.006849 69.124338 
L 643.905208 71.073597 
L 644.803567 70.194716 
L 645.701925 68.678841 
L 646.600284 68.622405 
L 647.498643 71.310395 
L 648.397002 72.754865 
L 649.295361 71.657834 
L 650.193719 72.068891 
L 651.092078 72.785353 
L 651.990437 72.590079 
L 652.888796 71.521814 
L 653.787154 73.411604 
L 654.685513 73.813209 
L 655.583872 77.288127 
L 656.482231 80.018484 
L 657.380589 83.187214 
L 659.177307 87.749613 
L 660.075666 91.512013 
L 660.974025 90.85772 
L 661.872383 93.026049 
L 662.770742 91.315937 
L 663.669101 93.043171 
L 664.56746 96.286046 
L 665.465818 96.307513 
L 666.364177 96.863729 
L 667.262536 98.352208 
L 668.160895 98.048231 
L 669.059254 100.941455 
L 669.957612 101.187275 
L 670.855971 101.976923 
L 671.75433 103.145966 
L 672.652689 105.904912 
L 673.551047 104.594506 
L 674.449406 103.901135 
L 676.246124 123.286393 
L 678.042841 140.781587 
L 679.839559 156.571003 
L 681.636276 170.820954 
L 683.432994 183.68153 
L 685.229712 195.288195 
L 687.026429 205.763213 
L 688.823147 215.21692 
L 690.619864 223.748896 
L 692.416582 231.449 
L 694.213299 238.398343 
L 696.010017 244.670122 
L 697.806734 250.330408 
L 699.603452 255.438814 
L 701.400169 260.049147 
L 703.196887 264.209976 
L 704.993605 267.965123 
L 706.790322 271.354143 
L 708.58704 274.412732 
L 710.383757 277.173111 
L 713.078834 280.817349 
L 715.77391 283.941828 
L 718.468986 286.620679 
L 721.164063 288.917458 
L 723.859139 290.886658 
L 726.554215 292.575001 
L 729.249291 294.022545 
L 731.944368 295.263633 
L 735.537803 296.64754 
L 739.131238 297.774741 
L 742.724673 298.692852 
L 747.216467 299.604842 
L 752.60662 300.431211 
L 758.895131 301.122949 
L 766.082001 301.66193 
L 775.065589 302.088219 
L 786.744253 302.397771 
L 801.117993 302.548521 
L 823.576963 302.675538 
L 824.475322 302.208509 
L 827.170398 302.282074 
L 828.068757 301.946789 
L 833.458909 302.152757 
L 834.357268 301.795634 
L 841.544138 302.108203 
L 842.442497 301.97867 
L 845.137573 302.085015 
L 846.035932 300.860271 
L 849.629367 301.206036 
L 850.527726 300.301412 
L 851.426085 300.422556 
L 852.324444 300.335665 
L 854.121161 300.568557 
L 854.121161 300.568557 
" clip-path="url(#p244bff8bb1)" style="fill: none; stroke: #000000; stroke-width: 5; stroke-linecap: square"/>
   </g>
   <g id="line2d_24">
    <path d="M 496.574369 300.822276 
L 499.269445 301.093552 
L 500.167804 300.868112 
L 501.066163 300.796306 
L 502.86288 300.984285 
L 503.761239 300.775946 
L 504.659598 300.746358 
L 506.456315 300.939207 
L 507.354674 300.818994 
L 512.744827 301.30511 
L 513.643185 301.251447 
L 516.338262 301.461512 
L 517.236621 301.300453 
L 519.931697 301.485869 
L 520.830056 301.259927 
L 523.525132 301.410569 
L 524.423491 301.375686 
L 525.32185 301.205022 
L 532.50872 301.716379 
L 535.203796 301.860133 
L 536.102155 301.725496 
L 543.289025 301.904697 
L 544.187384 301.790005 
L 545.085743 301.171721 
L 547.780819 301.393157 
L 549.577536 301.3882 
L 551.374254 301.51847 
L 552.272613 300.82456 
L 553.170972 300.919547 
L 554.06933 300.800147 
L 554.967689 300.896354 
L 555.866048 300.58559 
L 560.357842 301.019465 
L 561.256201 301.094173 
L 562.154559 300.866241 
L 563.052918 300.920954 
L 563.951277 300.727987 
L 564.849636 300.827803 
L 565.747994 300.118648 
L 566.646353 299.951021 
L 567.544712 300.089685 
L 568.443071 300.108073 
L 572.036506 300.593366 
L 572.934865 300.366554 
L 573.833223 300.262191 
L 575.629941 300.502246 
L 576.5283 300.35238 
L 578.325017 300.490601 
L 579.223376 300.367518 
L 582.816811 300.804686 
L 585.511887 301.025226 
L 590.003681 301.38221 
L 593.597116 301.546752 
L 598.987269 301.858693 
L 600.783987 301.695019 
L 603.479063 301.80767 
L 604.377422 301.650808 
L 606.174139 301.755473 
L 607.072498 301.663003 
L 607.970857 301.258132 
L 613.36101 301.646531 
L 614.259368 301.346323 
L 615.157727 301.20204 
L 619.649521 301.546403 
L 620.54788 301.470259 
L 625.039674 301.753946 
L 625.938032 301.668894 
L 634.92162 302.092388 
L 636.718338 302.153999 
L 637.616696 301.856994 
L 640.311773 301.907575 
L 641.210132 301.641565 
L 643.006849 301.747132 
L 643.905208 301.42317 
L 646.600284 301.608743 
L 647.498643 301.529435 
L 650.193719 301.699852 
L 651.092078 301.621975 
L 659.177307 302.008666 
L 660.974025 301.758068 
L 664.56746 301.937297 
L 665.465818 301.814253 
L 667.262536 301.902982 
L 668.160895 301.754613 
L 669.059254 301.803097 
L 669.957612 301.553536 
L 672.652689 301.720515 
L 676.246124 301.531124 
L 683.432994 301.932721 
L 685.229712 301.936062 
L 686.12807 301.190379 
L 688.823147 301.366395 
L 689.721505 301.318388 
L 690.619864 300.78335 
L 696.010017 301.297523 
L 696.908376 301.054601 
L 697.806734 301.138086 
L 698.705093 300.884962 
L 699.603452 300.813962 
L 702.298528 301.039372 
L 706.790322 301.41747 
L 707.688681 301.261448 
L 708.58704 301.33459 
L 709.485398 301.102435 
L 710.383757 301.183528 
L 711.282116 301.10853 
L 712.180475 300.66625 
L 713.078834 300.769153 
L 714.875551 300.809152 
L 716.672269 300.995878 
L 718.468986 300.603941 
L 721.164063 300.906357 
L 722.062421 300.297561 
L 722.96078 299.947682 
L 728.350933 300.68323 
L 731.046009 300.974337 
L 732.842727 300.669772 
L 734.639444 300.870088 
L 735.537803 300.786814 
L 740.029597 301.22511 
L 740.927956 300.607465 
L 743.623032 300.909378 
L 745.419749 300.98679 
L 746.318108 301.073665 
L 748.114826 300.909639 
L 749.013185 300.661901 
L 754.403337 301.208246 
L 755.301696 301.139447 
L 756.200055 301.21869 
L 757.098414 301.102983 
L 757.996772 301.184049 
L 759.79349 300.486959 
L 761.590207 300.357284 
L 762.488566 300.084787 
L 763.386925 300.037429 
L 767.878719 300.613991 
L 770.573795 300.847929 
L 772.370513 300.739985 
L 773.268871 300.839201 
L 774.16723 300.804322 
L 775.963948 300.99152 
L 776.862307 300.923369 
L 778.659024 301.088107 
L 779.557383 300.856877 
L 781.3541 301.03895 
L 782.252459 300.924328 
L 784.049177 301.099825 
L 784.947536 300.749118 
L 785.845894 300.163312 
L 789.439329 300.638359 
L 790.337688 300.469676 
L 792.134406 300.624731 
L 798.422917 301.258092 
L 799.321276 301.331402 
L 801.117993 301.23182 
L 805.609787 301.495432 
L 806.508146 301.012897 
L 807.406505 301.098467 
L 809.203222 301.06864 
L 810.101581 301.151423 
L 810.99994 300.989531 
L 811.898299 300.65146 
L 812.796658 300.755102 
L 813.695016 300.280199 
L 814.593375 300.402404 
L 816.390093 300.293277 
L 820.881887 300.807526 
L 821.780245 300.903365 
L 822.678604 300.354947 
L 824.475322 300.52022 
L 825.37368 300.630424 
L 826.272039 300.213117 
L 827.170398 300.193083 
L 831.662192 300.765692 
L 833.458909 300.895298 
L 834.357268 300.986748 
L 835.255627 300.804731 
L 836.153986 300.894259 
L 837.052344 300.709271 
L 838.849062 300.803075 
L 842.442497 301.159449 
L 844.239215 301.190569 
L 845.137573 301.267255 
L 846.035932 301.069861 
L 850.527726 301.444126 
L 851.426085 301.207696 
L 852.324444 301.283526 
L 853.222802 301.238144 
L 854.121161 300.825823 
L 854.121161 300.825823 
" clip-path="url(#p244bff8bb1)" style="fill: none; stroke: #ff0000; stroke-width: 5; stroke-linecap: square"/>
   </g>
   <g id="line2d_25">
    <path d="M 496.574369 300.47306 
L 497.472728 298.757079 
L 498.371086 298.95544 
L 499.269445 298.283609 
L 503.761239 299.288178 
L 508.253033 300.065493 
L 510.04975 300.226697 
L 511.846468 300.470213 
L 512.744827 297.998169 
L 515.439903 298.672233 
L 516.338262 298.424972 
L 517.236621 296.420454 
L 519.931697 297.319539 
L 520.830056 296.900059 
L 522.626773 297.467922 
L 524.423491 297.894833 
L 527.118567 298.583636 
L 528.016926 298.23349 
L 528.915285 298.45803 
L 530.712002 298.769302 
L 535.203796 299.663997 
L 537.000514 299.962376 
L 537.898872 299.469303 
L 542.390666 300.205645 
L 545.085743 300.485203 
L 545.984101 300.597158 
L 546.88246 299.541232 
L 551.374254 300.261302 
L 552.272613 299.788215 
L 554.967689 300.206974 
L 555.866048 300.194261 
L 556.764407 299.500938 
L 558.561124 299.815215 
L 559.459483 299.390979 
L 562.154559 299.866393 
L 563.052918 299.437103 
L 563.951277 299.601462 
L 564.849636 299.354419 
L 565.747994 299.522913 
L 566.646353 299.405844 
L 568.443071 299.729393 
L 569.34143 297.560234 
L 571.138147 298.06373 
L 572.036506 298.126593 
L 574.731582 298.782341 
L 575.629941 298.237542 
L 580.121735 299.252532 
L 581.020094 299.42612 
L 581.918452 299.221304 
L 584.613529 299.720918 
L 585.511887 286.589808 
L 586.410246 270.162841 
L 588.206964 241.208715 
L 590.90204 198.734172 
L 592.698758 176.827099 
L 593.597116 166.572365 
L 595.393834 148.713294 
L 596.292193 141.873579 
L 597.190552 136.16964 
L 598.08891 128.683919 
L 598.987269 125.721539 
L 599.885628 120.49874 
L 600.783987 112.870639 
L 601.682345 106.536623 
L 602.580704 103.936045 
L 603.479063 99.883249 
L 604.377422 94.329684 
L 606.174139 86.292992 
L 607.072498 80.356999 
L 607.970857 76.100377 
L 608.869216 73.464048 
L 609.767574 68.456425 
L 610.665933 66.288977 
L 611.564292 66.720208 
L 612.462651 66.314729 
L 613.36101 64.310208 
L 614.259368 63.844321 
L 615.157727 64.584187 
L 616.056086 64.409225 
L 616.954445 62.742496 
L 617.852803 62.016935 
L 618.751162 63.649027 
L 619.649521 60.692401 
L 620.54788 59.696852 
L 621.446238 56.560841 
L 622.344597 54.241424 
L 623.242956 56.297683 
L 624.141315 54.852392 
L 625.039674 55.767631 
L 625.938032 56.266139 
L 626.836391 57.83297 
L 627.73475 58.799127 
L 628.633109 61.305384 
L 629.531467 60.009498 
L 630.429826 60.204655 
L 631.328185 60.070376 
L 632.226544 61.026376 
L 633.124903 62.312243 
L 634.023261 64.219978 
L 635.819979 66.810126 
L 636.718338 66.977045 
L 637.616696 66.162095 
L 638.515055 65.067999 
L 639.413414 67.355539 
L 640.311773 67.993297 
L 641.210132 69.065476 
L 642.10849 68.707509 
L 643.006849 68.649508 
L 643.905208 70.612719 
L 644.803567 69.601888 
L 645.701925 68.120179 
L 646.600284 68.074878 
L 647.498643 70.406173 
L 648.397002 73.228854 
L 649.295361 72.928379 
L 650.193719 73.690456 
L 651.092078 75.443658 
L 651.990437 75.438276 
L 652.888796 73.856984 
L 653.787154 75.185216 
L 654.685513 75.062972 
L 655.583872 78.247357 
L 657.380589 82.740895 
L 658.278948 85.309106 
L 659.177307 87.469373 
L 660.075666 91.077612 
L 660.974025 91.364564 
L 661.872383 93.549565 
L 662.770742 92.431714 
L 663.669101 94.076996 
L 664.56746 97.925027 
L 665.465818 98.443808 
L 666.364177 98.465842 
L 667.262536 100.070519 
L 668.160895 99.494246 
L 669.059254 101.854151 
L 670.855971 103.648075 
L 671.75433 105.012725 
L 672.652689 107.255707 
L 673.551047 105.932973 
L 674.449406 105.081312 
L 676.246124 124.351508 
L 678.042841 141.742861 
L 679.839559 157.438554 
L 681.636276 171.60392 
L 683.432994 184.388159 
L 685.229712 195.925933 
L 687.026429 206.338772 
L 688.823147 215.736356 
L 690.619864 224.21768 
L 692.416582 231.872076 
L 694.213299 238.780169 
L 696.010017 245.014723 
L 697.806734 250.641411 
L 699.603452 255.719495 
L 701.400169 260.302466 
L 703.196887 264.438595 
L 704.993605 268.171451 
L 706.790322 271.540355 
L 708.58704 274.580789 
L 710.383757 277.324779 
L 713.078834 280.947386 
L 715.77391 284.05332 
L 718.468986 286.716268 
L 721.164063 288.999413 
L 723.859139 290.956925 
L 726.554215 292.635247 
L 729.249291 294.074198 
L 731.944368 295.307918 
L 735.537803 296.68361 
L 739.131238 297.80412 
L 742.724673 298.716782 
L 747.216467 299.623359 
L 752.60662 300.444822 
L 758.895131 301.132455 
L 759.79349 301.212047 
L 760.691849 300.985701 
L 767.878719 301.570877 
L 775.963948 301.997355 
L 786.744253 302.331486 
L 797.524558 302.512038 
L 798.422917 302.379992 
L 814.593375 302.587534 
L 823.576963 302.642412 
L 824.475322 301.888961 
L 827.170398 302.008101 
L 828.068757 301.568788 
L 833.458909 301.874892 
L 834.357268 301.552446 
L 842.442497 301.985738 
L 845.137573 302.091075 
L 846.035932 301.52998 
L 849.629367 301.751518 
L 850.527726 300.356572 
L 851.426085 300.474958 
L 852.324444 300.379953 
L 854.121161 300.608527 
L 854.121161 300.608527 
" clip-path="url(#p244bff8bb1)" style="fill: none; stroke: #0000ff; stroke-width: 5; stroke-linecap: square"/>
   </g>
   <g id="patch_7">
    <path d="M 495.67601 322.75952 
L 495.67601 31.720156 
" style="fill: none; stroke: #000000; stroke-width: 5; stroke-linejoin: miter; stroke-linecap: square"/>
   </g>
   <g id="patch_8">
    <path d="M 495.67601 322.75952 
L 855.01952 322.75952 
" style="fill: none; stroke: #000000; stroke-width: 5; stroke-linejoin: miter; stroke-linecap: square"/>
   </g>
   <g id="patch_9">
    <path d="M 585.511887 316.938733 
L 675.347765 316.938733 
L 675.347765 306.752355 
L 585.511887 306.752355 
z
" style="fill: #8c5a2b; stroke: #8c5a2b; stroke-linejoin: miter"/>
   </g>
   <g id="text_21">
    <!-- Novel | Expert -->
    <g transform="translate(607.949718 21.720156) scale(0.19 -0.19)">
     <defs>
      <path id="DejaVuSans-45" d="M 628 4666 
L 3578 4666 
L 3578 4134 
L 1259 4134 
L 1259 2753 
L 3481 2753 
L 3481 2222 
L 1259 2222 
L 1259 531 
L 3634 531 
L 3634 0 
L 628 0 
L 628 4666 
z
" transform="scale(0.015625)"/>
      <path id="DejaVuSans-78" d="M 3513 3500 
L 2247 1797 
L 3578 0 
L 2900 0 
L 1881 1375 
L 863 0 
L 184 0 
L 1544 1831 
L 300 3500 
L 978 3500 
L 1906 2253 
L 2834 3500 
L 3513 3500 
z
" transform="scale(0.015625)"/>
      <path id="DejaVuSans-70" d="M 1159 525 
L 1159 -1331 
L 581 -1331 
L 581 3500 
L 1159 3500 
L 1159 2969 
Q 1341 3281 1617 3432 
Q 1894 3584 2278 3584 
Q 2916 3584 3314 3078 
Q 3713 2572 3713 1747 
Q 3713 922 3314 415 
Q 2916 -91 2278 -91 
Q 1894 -91 1617 61 
Q 1341 213 1159 525 
z
M 3116 1747 
Q 3116 2381 2855 2742 
Q 2594 3103 2138 3103 
Q 1681 3103 1420 2742 
Q 1159 2381 1159 1747 
Q 1159 1113 1420 752 
Q 1681 391 2138 391 
Q 2594 391 2855 752 
Q 3116 1113 3116 1747 
z
" transform="scale(0.015625)"/>
     </defs>
     <use xlink:href="#DejaVuSans-4e"/>
     <use xlink:href="#DejaVuSans-6f" transform="translate(74.804688 0)"/>
     <use xlink:href="#DejaVuSans-76" transform="translate(135.986328 0)"/>
     <use xlink:href="#DejaVuSans-65" transform="translate(195.166016 0)"/>
     <use xlink:href="#DejaVuSans-6c" transform="translate(256.689453 0)"/>
     <use xlink:href="#DejaVuSans-20" transform="translate(284.472656 0)"/>
     <use xlink:href="#DejaVuSans-7c" transform="translate(316.259766 0)"/>
     <use xlink:href="#DejaVuSans-20" transform="translate(349.951172 0)"/>
     <use xlink:href="#DejaVuSans-45" transform="translate(381.738281 0)"/>
     <use xlink:href="#DejaVuSans-78" transform="translate(444.921875 0)"/>
     <use xlink:href="#DejaVuSans-70" transform="translate(504.101562 0)"/>
     <use xlink:href="#DejaVuSans-65" transform="translate(567.578125 0)"/>
     <use xlink:href="#DejaVuSans-72" transform="translate(629.101562 0)"/>
     <use xlink:href="#DejaVuSans-74" transform="translate(670.214844 0)"/>
    </g>
   </g>
  </g>
 </g>
 <defs>
  <clipPath id="p4da9a58edc">
   <rect x="101.56" y="31.720156" width="359.34351" height="291.039364"/>
  </clipPath>
  <clipPath id="p244bff8bb1">
   <rect x="495.67601" y="31.720156" width="359.34351" height="291.039364"/>
  </clipPath>
 </defs>
</svg>
