<?xml version="1.0" encoding="utf-8" standalone="no"?>
<!DOCTYPE svg PUBLIC "-//W3C//DTD SVG 1.1//EN"
  "http://www.w3.org/Graphics/SVG/1.1/DTD/svg11.dtd">
<svg xmlns:xlink="http://www.w3.org/1999/xlink" width="1478.5pt" height="418.280156pt" viewBox="0 0 1478.5 418.280156" xmlns="http://www.w3.org/2000/svg" version="1.1">
 <metadata>
  <rdf:RDF xmlns:dc="http://purl.org/dc/elements/1.1/" xmlns:cc="http://creativecommons.org/ns#" xmlns:rdf="http://www.w3.org/1999/02/22-rdf-syntax-ns#">
   <cc:Work>
    <dc:type rdf:resource="http://purl.org/dc/dcmitype/StillImage"/>
    <dc:date>2026-03-25T17:17:19.605347</dc:date>
    <dc:format>image/svg+xml</dc:format>
    <dc:creator>
     <cc:Agent>
      <dc:title>Matplotlib v3.10.7, https://matplotlib.org/</dc:title>
     </cc:Agent>
    </dc:creator>
   </cc:Work>
  </rdf:RDF>
 </metadata>
 <defs>
  <style type="text/css">*{stroke-linejoin: round; stroke-linecap: butt}</style>
 </defs>
 <g id="figure_1">
  <g id="patch_1">
   <path d="M 0 418.280156 
L 1478.5 418.280156 
L 1478.5 -0 
L 0 -0 
z
" style="fill: #ffffff"/>
  </g>
  <g id="axes_1">
   <g id="patch_2">
    <path d="M 121.92 336.640156 
L 422.86382 336.640156 
L 422.86382 31.720156 
L 121.92 31.720156 
z
" style="fill: #ffffff"/>
   </g>
   <g id="matplotlib.axis_1">
    <g id="xtick_1">
     <g id="line2d_1">
      <defs>
       <path id="mee5668eb45" d="M 0 0 
L 0 5 
" style="stroke: #000000; stroke-width: 1.6"/>
      </defs>
      <g>
       <use xlink:href="#mee5668eb45" x="121.92" y="336.640156" style="stroke: #000000; stroke-width: 1.6"/>
      </g>
     </g>
     <g id="text_1">
      <!-- -1 -->
      <g transform="translate(105.9675 369.455156) scale(0.32 -0.32)">
       <defs>
        <path id="DejaVuSans-2d" d="M 313 2009 
L 1997 2009 
L 1997 1497 
L 313 1497 
L 313 2009 
z
" transform="scale(0.015625)"/>
        <path id="DejaVuSans-31" d="M 794 531 
L 1825 531 
L 1825 4091 
L 703 3866 
L 703 4441 
L 1819 4666 
L 2450 4666 
L 2450 531 
L 3481 531 
L 3481 0 
L 794 0 
L 794 531 
z
" transform="scale(0.015625)"/>
       </defs>
       <use xlink:href="#DejaVuSans-2d"/>
       <use xlink:href="#DejaVuSans-31" transform="translate(36.083984 0)"/>
      </g>
     </g>
    </g>
    <g id="xtick_2">
     <g id="line2d_2">
      <g>
       <use xlink:href="#mee5668eb45" x="197.155955" y="336.640156" style="stroke: #000000; stroke-width: 1.6"/>
      </g>
     </g>
     <g id="text_2">
      <!-- 0 -->
      <g transform="translate(186.975955 369.455156) scale(0.32 -0.32)">
       <defs>
        <path id="DejaVuSans-30" d="M 2034 4250 
Q 1547 4250 1301 3770 
Q 1056 3291 1056 2328 
Q 1056 1369 1301 889 
Q 1547 409 2034 409 
Q 2525 409 2770 889 
Q 3016 1369 3016 2328 
Q 3016 3291 2770 3770 
Q 2525 4250 2034 4250 
z
M 2034 4750 
Q 2819 4750 3233 4129 
Q 3647 3509 3647 2328 
Q 3647 1150 3233 529 
Q 2819 -91 2034 -91 
Q 1250 -91 836 529 
Q 422 1150 422 2328 
Q 422 3509 836 4129 
Q 1250 4750 2034 4750 
z
" transform="scale(0.015625)"/>
       </defs>
       <use xlink:href="#DejaVuSans-30"/>
      </g>
     </g>
    </g>
    <g id="xtick_3">
     <g id="line2d_3">
      <g>
       <use xlink:href="#mee5668eb45" x="272.39191" y="336.640156" style="stroke: #000000; stroke-width: 1.6"/>
      </g>
     </g>
     <g id="text_3">
      <!-- 1 -->
      <g transform="translate(262.21191 369.455156) scale(0.32 -0.32)">
       <use xlink:href="#DejaVuSans-31"/>
      </g>
     </g>
    </g>
    <g id="xtick_4">
     <g id="line2d_4">
      <g>
       <use xlink:href="#mee5668eb45" x="347.627865" y="336.640156" style="stroke: #000000; stroke-width: 1.6"/>
      </g>
     </g>
     <g id="text_4">
      <!-- 2 -->
      <g transform="translate(337.447865 369.455156) scale(0.32 -0.32)">
       <defs>
        <path id="DejaVuSans-32" d="M 1228 531 
L 3431 531 
L 3431 0 
L 469 0 
L 469 531 
Q 828 903 1448 1529 
Q 2069 2156 2228 2338 
Q 2531 2678 2651 2914 
Q 2772 3150 2772 3378 
Q 2772 3750 2511 3984 
Q 2250 4219 1831 4219 
Q 1534 4219 1204 4116 
Q 875 4013 500 3803 
L 500 4441 
Q 881 4594 1212 4672 
Q 1544 4750 1819 4750 
Q 2544 4750 2975 4387 
Q 3406 4025 3406 3419 
Q 3406 3131 3298 2873 
Q 3191 2616 2906 2266 
Q 2828 2175 2409 1742 
Q 1991 1309 1228 531 
z
" transform="scale(0.015625)"/>
       </defs>
       <use xlink:href="#DejaVuSans-32"/>
      </g>
     </g>
    </g>
    <g id="xtick_5">
     <g id="line2d_5">
      <g>
       <use xlink:href="#mee5668eb45" x="422.86382" y="336.640156" style="stroke: #000000; stroke-width: 1.6"/>
      </g>
     </g>
     <g id="text_5">
      <!-- 3 -->
      <g transform="translate(412.68382 369.455156) scale(0.32 -0.32)">
       <defs>
        <path id="DejaVuSans-33" d="M 2597 2516 
Q 3050 2419 3304 2112 
Q 3559 1806 3559 1356 
Q 3559 666 3084 287 
Q 2609 -91 1734 -91 
Q 1441 -91 1130 -33 
Q 819 25 488 141 
L 488 750 
Q 750 597 1062 519 
Q 1375 441 1716 441 
Q 2309 441 2620 675 
Q 2931 909 2931 1356 
Q 2931 1769 2642 2001 
Q 2353 2234 1838 2234 
L 1294 2234 
L 1294 2753 
L 1863 2753 
Q 2328 2753 2575 2939 
Q 2822 3125 2822 3475 
Q 2822 3834 2567 4026 
Q 2313 4219 1838 4219 
Q 1578 4219 1281 4162 
Q 984 4106 628 3988 
L 628 4550 
Q 988 4650 1302 4700 
Q 1616 4750 1894 4750 
Q 2613 4750 3031 4423 
Q 3450 4097 3450 3541 
Q 3450 3153 3228 2886 
Q 3006 2619 2597 2516 
z
" transform="scale(0.015625)"/>
       </defs>
       <use xlink:href="#DejaVuSans-33"/>
      </g>
     </g>
    </g>
    <g id="text_6">
     <!-- Time (s) -->
     <g transform="translate(207.33941 404.425156) scale(0.32 -0.32)">
      <defs>
       <path id="DejaVuSans-54" d="M -19 4666 
L 3928 4666 
L 3928 4134 
L 2272 4134 
L 2272 0 
L 1638 0 
L 1638 4134 
L -19 4134 
L -19 4666 
z
" transform="scale(0.015625)"/>
       <path id="DejaVuSans-69" d="M 603 3500 
L 1178 3500 
L 1178 0 
L 603 0 
L 603 3500 
z
M 603 4863 
L 1178 4863 
L 1178 4134 
L 603 4134 
L 603 4863 
z
" transform="scale(0.015625)"/>
       <path id="DejaVuSans-6d" d="M 3328 2828 
Q 3544 3216 3844 3400 
Q 4144 3584 4550 3584 
Q 5097 3584 5394 3201 
Q 5691 2819 5691 2113 
L 5691 0 
L 5113 0 
L 5113 2094 
Q 5113 2597 4934 2840 
Q 4756 3084 4391 3084 
Q 3944 3084 3684 2787 
Q 3425 2491 3425 1978 
L 3425 0 
L 2847 0 
L 2847 2094 
Q 2847 2600 2669 2842 
Q 2491 3084 2119 3084 
Q 1678 3084 1418 2786 
Q 1159 2488 1159 1978 
L 1159 0 
L 581 0 
L 581 3500 
L 1159 3500 
L 1159 2956 
Q 1356 3278 1631 3431 
Q 1906 3584 2284 3584 
Q 2666 3584 2933 3390 
Q 3200 3197 3328 2828 
z
" transform="scale(0.015625)"/>
       <path id="DejaVuSans-65" d="M 3597 1894 
L 3597 1613 
L 953 1613 
Q 991 1019 1311 708 
Q 1631 397 2203 397 
Q 2534 397 2845 478 
Q 3156 559 3463 722 
L 3463 178 
Q 3153 47 2828 -22 
Q 2503 -91 2169 -91 
Q 1331 -91 842 396 
Q 353 884 353 1716 
Q 353 2575 817 3079 
Q 1281 3584 2069 3584 
Q 2775 3584 3186 3129 
Q 3597 2675 3597 1894 
z
M 3022 2063 
Q 3016 2534 2758 2815 
Q 2500 3097 2075 3097 
Q 1594 3097 1305 2825 
Q 1016 2553 972 2059 
L 3022 2063 
z
" transform="scale(0.015625)"/>
       <path id="DejaVuSans-20" transform="scale(0.015625)"/>
       <path id="DejaVuSans-28" d="M 1984 4856 
Q 1566 4138 1362 3434 
Q 1159 2731 1159 2009 
Q 1159 1288 1364 580 
Q 1569 -128 1984 -844 
L 1484 -844 
Q 1016 -109 783 600 
Q 550 1309 550 2009 
Q 550 2706 781 3412 
Q 1013 4119 1484 4856 
L 1984 4856 
z
" transform="scale(0.015625)"/>
       <path id="DejaVuSans-73" d="M 2834 3397 
L 2834 2853 
Q 2591 2978 2328 3040 
Q 2066 3103 1784 3103 
Q 1356 3103 1142 2972 
Q 928 2841 928 2578 
Q 928 2378 1081 2264 
Q 1234 2150 1697 2047 
L 1894 2003 
Q 2506 1872 2764 1633 
Q 3022 1394 3022 966 
Q 3022 478 2636 193 
Q 2250 -91 1575 -91 
Q 1294 -91 989 -36 
Q 684 19 347 128 
L 347 722 
Q 666 556 975 473 
Q 1284 391 1588 391 
Q 1994 391 2212 530 
Q 2431 669 2431 922 
Q 2431 1156 2273 1281 
Q 2116 1406 1581 1522 
L 1381 1569 
Q 847 1681 609 1914 
Q 372 2147 372 2553 
Q 372 3047 722 3315 
Q 1072 3584 1716 3584 
Q 2034 3584 2315 3537 
Q 2597 3491 2834 3397 
z
" transform="scale(0.015625)"/>
       <path id="DejaVuSans-29" d="M 513 4856 
L 1013 4856 
Q 1481 4119 1714 3412 
Q 1947 2706 1947 2009 
Q 1947 1309 1714 600 
Q 1481 -109 1013 -844 
L 513 -844 
Q 928 -128 1133 580 
Q 1338 1288 1338 2009 
Q 1338 2731 1133 3434 
Q 928 4138 513 4856 
z
" transform="scale(0.015625)"/>
      </defs>
      <use xlink:href="#DejaVuSans-54"/>
      <use xlink:href="#DejaVuSans-69" transform="translate(57.958984 0)"/>
      <use xlink:href="#DejaVuSans-6d" transform="translate(85.742188 0)"/>
      <use xlink:href="#DejaVuSans-65" transform="translate(183.154297 0)"/>
      <use xlink:href="#DejaVuSans-20" transform="translate(244.677734 0)"/>
      <use xlink:href="#DejaVuSans-28" transform="translate(276.464844 0)"/>
      <use xlink:href="#DejaVuSans-73" transform="translate(315.478516 0)"/>
      <use xlink:href="#DejaVuSans-29" transform="translate(367.578125 0)"/>
     </g>
    </g>
   </g>
   <g id="matplotlib.axis_2">
    <g id="ytick_1">
     <g id="line2d_6">
      <defs>
       <path id="ma95ba99bee" d="M 0 0 
L -5 0 
" style="stroke: #000000; stroke-width: 1.6"/>
      </defs>
      <g>
       <use xlink:href="#ma95ba99bee" x="121.92" y="315.61917" style="stroke: #000000; stroke-width: 1.6"/>
      </g>
     </g>
     <g id="text_7">
      <!-- 0.00 -->
      <g transform="translate(42.17 327.77667) scale(0.32 -0.32)">
       <defs>
        <path id="DejaVuSans-2e" d="M 684 794 
L 1344 794 
L 1344 0 
L 684 0 
L 684 794 
z
" transform="scale(0.015625)"/>
       </defs>
       <use xlink:href="#DejaVuSans-30"/>
       <use xlink:href="#DejaVuSans-2e" transform="translate(63.623047 0)"/>
       <use xlink:href="#DejaVuSans-30" transform="translate(95.410156 0)"/>
       <use xlink:href="#DejaVuSans-30" transform="translate(159.033203 0)"/>
      </g>
     </g>
    </g>
    <g id="ytick_2">
     <g id="line2d_7">
      <g>
       <use xlink:href="#ma95ba99bee" x="121.92" y="218.100426" style="stroke: #000000; stroke-width: 1.6"/>
      </g>
     </g>
     <g id="text_8">
      <!-- 0.01 -->
      <g transform="translate(42.17 230.257926) scale(0.32 -0.32)">
       <use xlink:href="#DejaVuSans-30"/>
       <use xlink:href="#DejaVuSans-2e" transform="translate(63.623047 0)"/>
       <use xlink:href="#DejaVuSans-30" transform="translate(95.410156 0)"/>
       <use xlink:href="#DejaVuSans-31" transform="translate(159.033203 0)"/>
      </g>
     </g>
    </g>
    <g id="ytick_3">
     <g id="line2d_8">
      <g>
       <use xlink:href="#ma95ba99bee" x="121.92" y="120.581683" style="stroke: #000000; stroke-width: 1.6"/>
      </g>
     </g>
     <g id="text_9">
      <!-- 0.02 -->
      <g transform="translate(42.17 132.739183) scale(0.32 -0.32)">
       <use xlink:href="#DejaVuSans-30"/>
       <use xlink:href="#DejaVuSans-2e" transform="translate(63.623047 0)"/>
       <use xlink:href="#DejaVuSans-30" transform="translate(95.410156 0)"/>
       <use xlink:href="#DejaVuSans-32" transform="translate(159.033203 0)"/>
      </g>
     </g>
    </g>
    <g id="text_10">
     <!-- Neural Activity -->
     <g transform="translate(31.515 301.885156) rotate(-90) scale(0.32 -0.32)">
      <defs>
       <path id="DejaVuSans-4e" d="M 628 4666 
L 1478 4666 
L 3547 763 
L 3547 4666 
L 4159 4666 
L 4159 0 
L 3309 0 
L 1241 3903 
L 1241 0 
L 628 0 
L 628 4666 
z
" transform="scale(0.015625)"/>
       <path id="DejaVuSans-75" d="M 544 1381 
L 544 3500 
L 1119 3500 
L 1119 1403 
Q 1119 906 1312 657 
Q 1506 409 1894 409 
Q 2359 409 2629 706 
Q 2900 1003 2900 1516 
L 2900 3500 
L 3475 3500 
L 3475 0 
L 2900 0 
L 2900 538 
Q 2691 219 2414 64 
Q 2138 -91 1772 -91 
Q 1169 -91 856 284 
Q 544 659 544 1381 
z
M 1991 3584 
L 1991 3584 
z
" transform="scale(0.015625)"/>
       <path id="DejaVuSans-72" d="M 2631 2963 
Q 2534 3019 2420 3045 
Q 2306 3072 2169 3072 
Q 1681 3072 1420 2755 
Q 1159 2438 1159 1844 
L 1159 0 
L 581 0 
L 581 3500 
L 1159 3500 
L 1159 2956 
Q 1341 3275 1631 3429 
Q 1922 3584 2338 3584 
Q 2397 3584 2469 3576 
Q 2541 3569 2628 3553 
L 2631 2963 
z
" transform="scale(0.015625)"/>
       <path id="DejaVuSans-61" d="M 2194 1759 
Q 1497 1759 1228 1600 
Q 959 1441 959 1056 
Q 959 750 1161 570 
Q 1363 391 1709 391 
Q 2188 391 2477 730 
Q 2766 1069 2766 1631 
L 2766 1759 
L 2194 1759 
z
M 3341 1997 
L 3341 0 
L 2766 0 
L 2766 531 
Q 2569 213 2275 61 
Q 1981 -91 1556 -91 
Q 1019 -91 701 211 
Q 384 513 384 1019 
Q 384 1609 779 1909 
Q 1175 2209 1959 2209 
L 2766 2209 
L 2766 2266 
Q 2766 2663 2505 2880 
Q 2244 3097 1772 3097 
Q 1472 3097 1187 3025 
Q 903 2953 641 2809 
L 641 3341 
Q 956 3463 1253 3523 
Q 1550 3584 1831 3584 
Q 2591 3584 2966 3190 
Q 3341 2797 3341 1997 
z
" transform="scale(0.015625)"/>
       <path id="DejaVuSans-6c" d="M 603 4863 
L 1178 4863 
L 1178 0 
L 603 0 
L 603 4863 
z
" transform="scale(0.015625)"/>
       <path id="DejaVuSans-41" d="M 2188 4044 
L 1331 1722 
L 3047 1722 
L 2188 4044 
z
M 1831 4666 
L 2547 4666 
L 4325 0 
L 3669 0 
L 3244 1197 
L 1141 1197 
L 716 0 
L 50 0 
L 1831 4666 
z
" transform="scale(0.015625)"/>
       <path id="DejaVuSans-63" d="M 3122 3366 
L 3122 2828 
Q 2878 2963 2633 3030 
Q 2388 3097 2138 3097 
Q 1578 3097 1268 2742 
Q 959 2388 959 1747 
Q 959 1106 1268 751 
Q 1578 397 2138 397 
Q 2388 397 2633 464 
Q 2878 531 3122 666 
L 3122 134 
Q 2881 22 2623 -34 
Q 2366 -91 2075 -91 
Q 1284 -91 818 406 
Q 353 903 353 1747 
Q 353 2603 823 3093 
Q 1294 3584 2113 3584 
Q 2378 3584 2631 3529 
Q 2884 3475 3122 3366 
z
" transform="scale(0.015625)"/>
       <path id="DejaVuSans-74" d="M 1172 4494 
L 1172 3500 
L 2356 3500 
L 2356 3053 
L 1172 3053 
L 1172 1153 
Q 1172 725 1289 603 
Q 1406 481 1766 481 
L 2356 481 
L 2356 0 
L 1766 0 
Q 1100 0 847 248 
Q 594 497 594 1153 
L 594 3053 
L 172 3053 
L 172 3500 
L 594 3500 
L 594 4494 
L 1172 4494 
z
" transform="scale(0.015625)"/>
       <path id="DejaVuSans-76" d="M 191 3500 
L 800 3500 
L 1894 563 
L 2988 3500 
L 3597 3500 
L 2284 0 
L 1503 0 
L 191 3500 
z
" transform="scale(0.015625)"/>
       <path id="DejaVuSans-79" d="M 2059 -325 
Q 1816 -950 1584 -1140 
Q 1353 -1331 966 -1331 
L 506 -1331 
L 506 -850 
L 844 -850 
Q 1081 -850 1212 -737 
Q 1344 -625 1503 -206 
L 1606 56 
L 191 3500 
L 800 3500 
L 1894 763 
L 2988 3500 
L 3597 3500 
L 2059 -325 
z
" transform="scale(0.015625)"/>
      </defs>
      <use xlink:href="#DejaVuSans-4e"/>
      <use xlink:href="#DejaVuSans-65" transform="translate(74.804688 0)"/>
      <use xlink:href="#DejaVuSans-75" transform="translate(136.328125 0)"/>
      <use xlink:href="#DejaVuSans-72" transform="translate(199.707031 0)"/>
      <use xlink:href="#DejaVuSans-61" transform="translate(240.820312 0)"/>
      <use xlink:href="#DejaVuSans-6c" transform="translate(302.099609 0)"/>
      <use xlink:href="#DejaVuSans-20" transform="translate(329.882812 0)"/>
      <use xlink:href="#DejaVuSans-41" transform="translate(361.669922 0)"/>
      <use xlink:href="#DejaVuSans-63" transform="translate(428.328125 0)"/>
      <use xlink:href="#DejaVuSans-74" transform="translate(483.308594 0)"/>
      <use xlink:href="#DejaVuSans-69" transform="translate(522.517578 0)"/>
      <use xlink:href="#DejaVuSans-76" transform="translate(550.300781 0)"/>
      <use xlink:href="#DejaVuSans-69" transform="translate(609.480469 0)"/>
      <use xlink:href="#DejaVuSans-74" transform="translate(637.263672 0)"/>
      <use xlink:href="#DejaVuSans-79" transform="translate(676.472656 0)"/>
     </g>
    </g>
   </g>
   <g id="line2d_9">
    <path d="M 122.67236 250.945536 
L 124.929438 260.169617 
L 127.186517 268.078109 
L 128.691236 272.713366 
L 129.443596 267.51696 
L 131.700674 274.377541 
L 133.957753 280.259628 
L 135.462472 283.707184 
L 136.214831 264.669209 
L 136.967191 252.711472 
L 137.719551 250.512046 
L 139.976629 259.797949 
L 142.233708 267.759449 
L 144.490787 274.58544 
L 146.747865 280.437876 
L 147.500225 281.222505 
L 149.757303 286.12833 
L 152.014382 290.334463 
L 154.271461 293.940697 
L 155.77618 296.054349 
L 156.528539 292.186248 
L 158.785618 295.528369 
L 161.042697 298.393819 
L 163.299775 300.850585 
L 164.804494 302.290522 
L 165.556854 294.699251 
L 166.309213 281.575383 
L 167.061573 283.277573 
L 167.813933 277.68983 
L 168.566292 279.586296 
L 169.318652 268.38791 
L 170.071011 260.859147 
L 170.823371 231.00615 
L 173.080449 243.074086 
L 173.832809 238.352158 
L 174.585169 242.21551 
L 175.337528 244.714316 
L 176.089888 234.906594 
L 178.346966 246.41823 
L 180.604045 256.288015 
L 182.861124 264.750122 
L 185.118202 272.005322 
L 185.870562 271.974724 
L 186.622921 270.405131 
L 188.88 276.853787 
L 191.137079 282.382701 
L 193.394157 287.123052 
L 195.651236 291.187312 
L 197.908315 294.671907 
L 200.165393 297.659511 
L 202.422472 300.221009 
L 204.679551 302.417171 
L 206.936629 304.300107 
L 209.193708 305.914489 
L 211.450787 307.29862 
L 214.460225 308.84203 
L 217.469663 310.099147 
L 220.479101 311.123077 
L 224.240899 312.140179 
L 228.002697 312.927193 
L 232.516854 313.64032 
L 237.783371 314.237265 
L 244.554607 314.748225 
L 252.830562 315.123776 
L 264.115955 315.389658 
L 276.153708 315.518156 
L 276.906067 281.085969 
L 279.163146 286.011268 
L 279.915506 283.427245 
L 282.172584 288.018619 
L 284.429663 291.955148 
L 285.182022 284.443775 
L 286.686742 287.483377 
L 287.439101 286.829637 
L 288.191461 279.271092 
L 288.94382 263.901423 
L 289.69618 266.487313 
L 290.448539 265.850682 
L 292.705618 272.948916 
L 294.962697 279.034763 
L 297.219775 284.252614 
L 297.972135 285.820943 
L 298.724494 277.015476 
L 299.476854 278.94566 
L 300.229213 251.350872 
L 300.981573 232.147158 
L 301.733933 229.803121 
L 303.238652 238.170188 
L 303.991011 228.674193 
L 306.24809 241.074721 
L 307.000449 232.757178 
L 307.752809 208.941326 
L 308.505169 171.653398 
L 309.257528 154.745104 
L 310.009888 162.788811 
L 310.762247 163.176564 
L 311.514607 151.029346 
L 313.771685 174.503973 
L 316.028764 194.630533 
L 318.285843 211.886537 
L 319.790562 222.000463 
L 320.542921 204.734996 
L 321.295281 197.799991 
L 323.55236 214.603959 
L 324.304719 219.654719 
L 325.057079 223.377143 
L 326.561798 232.370742 
L 327.314157 223.481824 
L 329.571236 236.622919 
L 331.828315 247.889764 
L 334.085393 257.549674 
L 335.590112 263.211449 
L 336.342472 240.610859 
L 337.847191 247.411816 
L 338.599551 250.822183 
L 339.35191 227.98167 
L 340.10427 224.888284 
L 342.361348 237.828782 
L 343.113708 241.718304 
L 343.866067 241.085438 
L 346.123146 251.715815 
L 348.380225 260.830034 
L 350.637303 268.644331 
L 352.894382 275.344117 
L 353.646742 277.357868 
L 354.399101 258.518843 
L 355.151461 226.494543 
L 355.90382 209.222164 
L 358.160899 224.39704 
L 360.417978 237.407597 
L 362.675056 248.562523 
L 364.932135 258.126481 
L 367.189213 266.326378 
L 369.446292 273.356763 
L 371.703371 279.384439 
L 373.20809 282.917326 
L 373.960449 279.459326 
L 376.217528 284.616626 
L 378.474607 289.038366 
L 380.731685 292.829454 
L 381.484045 293.96894 
L 382.236404 281.483481 
L 384.493483 286.352085 
L 386.750562 290.526305 
L 389.00764 294.105175 
L 391.264719 297.17361 
L 393.521798 299.804409 
L 395.778876 302.059989 
L 398.035955 303.993867 
L 400.293034 305.651927 
L 402.550112 307.073505 
L 403.302472 277.409782 
L 404.054831 279.320251 
L 404.807191 268.394281 
L 407.06427 275.129733 
L 407.816629 277.154206 
L 408.568989 263.052202 
L 410.826067 270.549569 
L 413.083146 276.977622 
L 415.340225 282.488874 
L 416.844944 285.719078 
L 417.597303 281.774177 
L 419.854382 286.601319 
L 420.606742 288.052212 
L 421.359101 277.495626 
L 422.111461 279.401804 
L 422.111461 279.401804 
" clip-path="url(#p99260fdcab)" style="fill: none; stroke: #000000; stroke-width: 5; stroke-linecap: square"/>
   </g>
   <g id="line2d_10">
    <path d="M 122.67236 267.339064 
L 124.929438 274.225016 
L 127.186517 280.128857 
L 129.443596 285.190665 
L 131.700674 289.530532 
L 132.453034 290.834964 
L 133.205393 290.161564 
L 135.462472 293.792456 
L 136.214831 270.119556 
L 136.967191 272.394537 
L 137.719551 213.199088 
L 138.47191 201.876419 
L 139.22427 195.487197 
L 139.976629 176.050807 
L 140.728989 129.55764 
L 141.481348 66.167004 
L 143.738427 101.745128 
L 145.995506 132.248914 
L 148.252584 158.402101 
L 150.509663 180.825189 
L 152.766742 200.050191 
L 153.519101 199.39635 
L 154.271461 194.668333 
L 155.02382 200.715876 
L 155.77618 200.735003 
L 158.033258 217.120356 
L 160.290337 231.168757 
L 161.795056 239.40268 
L 162.547416 195.113403 
L 163.299775 167.007365 
L 164.052135 174.437955 
L 164.804494 161.741132 
L 165.556854 169.43504 
L 166.309213 164.633167 
L 167.061573 172.182469 
L 167.813933 161.239053 
L 169.318652 176.291121 
L 170.071011 119.760353 
L 171.57573 138.856589 
L 172.32809 145.281604 
L 174.585169 169.576022 
L 176.842247 190.40543 
L 177.594607 192.162924 
L 178.346966 157.664467 
L 180.604045 180.192763 
L 182.861124 199.50796 
L 185.118202 216.068327 
L 185.870562 204.412453 
L 188.12764 220.273312 
L 190.384719 233.87202 
L 192.641798 245.531214 
L 193.394157 222.960291 
L 195.651236 236.175768 
L 196.403596 225.162192 
L 197.155955 229.685044 
L 197.908315 231.666849 
L 200.165393 243.640553 
L 202.422472 253.906505 
L 204.679551 262.708275 
L 205.43191 262.50217 
L 206.18427 265.158019 
L 206.936629 259.307132 
L 207.688989 214.162103 
L 208.441348 179.76246 
L 209.193708 126.260205 
L 211.450787 153.267531 
L 213.707865 176.422939 
L 215.964944 196.275808 
L 217.469663 207.911783 
L 218.222022 203.998679 
L 218.974382 176.888208 
L 219.726742 162.3292 
L 221.98382 184.192193 
L 224.240899 202.936968 
L 226.497978 219.00827 
L 228.755056 232.787394 
L 229.507416 234.365879 
L 231.764494 245.954637 
L 234.021573 255.890544 
L 234.773933 226.109487 
L 237.031011 238.875816 
L 237.783371 239.741085 
L 238.53573 214.253542 
L 240.792809 228.710821 
L 243.049888 241.106136 
L 245.306966 251.733557 
L 246.059326 231.209036 
L 248.316404 243.248036 
L 250.573483 253.569971 
L 251.325843 233.428693 
L 252.078202 226.197111 
L 254.335281 238.950926 
L 256.59236 249.885737 
L 257.344719 253.172409 
L 258.097079 223.193629 
L 258.849438 220.221281 
L 261.106517 233.827408 
L 263.363596 245.49296 
L 265.620674 255.494712 
L 267.877753 264.069965 
L 269.382472 269.096013 
L 270.134831 254.929122 
L 272.39191 263.585038 
L 273.14427 266.186744 
L 273.896629 267.812134 
L 276.153708 274.630615 
L 276.906067 276.680045 
L 277.658427 277.838988 
L 279.915506 283.227388 
L 280.667865 284.846976 
L 281.420225 282.411862 
L 282.172584 248.289936 
L 282.924944 205.728936 
L 284.429663 216.443237 
L 285.182022 168.112535 
L 285.934382 147.582038 
L 288.191461 171.548336 
L 290.448539 192.096443 
L 292.705618 209.71388 
L 294.210337 220.039647 
L 294.962697 192.638211 
L 295.715056 182.427814 
L 296.467416 153.653849 
L 298.724494 176.754164 
L 299.476854 183.697416 
L 300.229213 181.35554 
L 302.486292 200.504898 
L 304.743371 216.923074 
L 307.000449 230.999611 
L 307.752809 219.873816 
L 308.505169 193.90982 
L 309.257528 149.323756 
L 310.009888 149.293495 
L 312.266966 173.015692 
L 314.524045 193.354529 
L 316.028764 205.275338 
L 316.781124 196.565783 
L 318.285843 208.173494 
L 319.038202 210.276282 
L 321.295281 225.300813 
L 322.04764 229.816735 
L 322.8 220.141422 
L 323.55236 224.915313 
L 324.304719 190.671128 
L 325.057079 183.790925 
L 327.314157 202.592937 
L 328.818876 213.612997 
L 329.571236 192.256616 
L 330.323596 155.344725 
L 332.580674 178.203874 
L 334.837753 197.802734 
L 337.094831 214.606302 
L 339.35191 229.013265 
L 340.10427 233.343557 
L 340.856629 207.417043 
L 342.361348 217.966748 
L 344.618427 231.619367 
L 345.370787 209.1278 
L 347.627865 224.316137 
L 349.132584 233.218188 
L 349.884944 194.734705 
L 350.637303 146.297551 
L 351.389663 151.431576 
L 352.142022 152.586661 
L 352.894382 139.857895 
L 354.399101 156.994623 
L 355.151461 159.712726 
L 357.408539 181.948895 
L 359.665618 201.013625 
L 361.922697 217.359244 
L 364.179775 231.373568 
L 366.436854 243.3891 
L 367.941573 250.431532 
L 368.693933 240.250902 
L 369.446292 232.369471 
L 371.703371 244.242962 
L 373.960449 254.422997 
L 375.465169 260.389628 
L 376.217528 261.449055 
L 378.474607 269.175068 
L 380.731685 275.799159 
L 382.988764 281.47849 
L 385.245843 286.347805 
L 387.502921 290.522633 
L 389.00764 292.969546 
L 389.76 292.032843 
L 392.017079 295.396843 
L 392.769438 296.40796 
L 393.521798 284.843573 
L 395.778876 289.232944 
L 397.283596 291.805604 
L 398.035955 274.987602 
L 398.788315 270.656856 
L 399.540674 231.867192 
L 401.797753 243.812323 
L 404.054831 254.053776 
L 406.31191 262.834544 
L 407.816629 267.981048 
L 408.568989 265.520728 
L 409.321348 263.712892 
L 411.578427 271.116022 
L 412.330787 204.830658 
L 413.083146 206.724057 
L 415.340225 222.255217 
L 417.597303 235.571261 
L 418.349663 231.065148 
L 420.606742 243.124664 
L 422.111461 250.192881 
L 422.111461 250.192881 
" clip-path="url(#p99260fdcab)" style="fill: none; stroke: #ff0000; stroke-width: 5; stroke-linecap: square"/>
   </g>
   <g id="patch_3">
    <path d="M 121.92 336.640156 
L 121.92 31.720156 
" style="fill: none; stroke: #000000; stroke-width: 5; stroke-linejoin: miter; stroke-linecap: square"/>
   </g>
   <g id="patch_4">
    <path d="M 121.92 336.640156 
L 422.86382 336.640156 
" style="fill: none; stroke: #000000; stroke-width: 5; stroke-linejoin: miter; stroke-linecap: square"/>
   </g>
   <g id="text_11">
    <!-- A -->
    <g transform="translate(85.806742 16.444681) scale(0.12 -0.12)">
     <defs>
      <path id="DejaVuSans-Bold-41" d="M 3419 850 
L 1538 850 
L 1241 0 
L 31 0 
L 1759 4666 
L 3194 4666 
L 4922 0 
L 3713 0 
L 3419 850 
z
M 1838 1716 
L 3116 1716 
L 2478 3572 
L 1838 1716 
z
" transform="scale(0.015625)"/>
     </defs>
     <use xlink:href="#DejaVuSans-Bold-41"/>
    </g>
   </g>
   <g id="patch_5">
    <path d="M 197.155955 330.541756 
L 272.39191 330.541756 
L 272.39191 319.869556 
L 197.155955 319.869556 
z
" style="fill: #8c5a2b; stroke: #8c5a2b; stroke-linejoin: miter"/>
   </g>
   <g id="text_12">
    <!-- Familiar | Naive -->
    <g transform="translate(198.799566 21.720156) scale(0.19 -0.19)">
     <defs>
      <path id="DejaVuSans-46" d="M 628 4666 
L 3309 4666 
L 3309 4134 
L 1259 4134 
L 1259 2759 
L 3109 2759 
L 3109 2228 
L 1259 2228 
L 1259 0 
L 628 0 
L 628 4666 
z
" transform="scale(0.015625)"/>
      <path id="DejaVuSans-7c" d="M 1344 4891 
L 1344 -1509 
L 813 -1509 
L 813 4891 
L 1344 4891 
z
" transform="scale(0.015625)"/>
     </defs>
     <use xlink:href="#DejaVuSans-46"/>
     <use xlink:href="#DejaVuSans-61" transform="translate(48.394531 0)"/>
     <use xlink:href="#DejaVuSans-6d" transform="translate(109.673828 0)"/>
     <use xlink:href="#DejaVuSans-69" transform="translate(207.085938 0)"/>
     <use xlink:href="#DejaVuSans-6c" transform="translate(234.869141 0)"/>
     <use xlink:href="#DejaVuSans-69" transform="translate(262.652344 0)"/>
     <use xlink:href="#DejaVuSans-61" transform="translate(290.435547 0)"/>
     <use xlink:href="#DejaVuSans-72" transform="translate(351.714844 0)"/>
     <use xlink:href="#DejaVuSans-20" transform="translate(392.828125 0)"/>
     <use xlink:href="#DejaVuSans-7c" transform="translate(424.615234 0)"/>
     <use xlink:href="#DejaVuSans-20" transform="translate(458.306641 0)"/>
     <use xlink:href="#DejaVuSans-4e" transform="translate(490.09375 0)"/>
     <use xlink:href="#DejaVuSans-61" transform="translate(564.898438 0)"/>
     <use xlink:href="#DejaVuSans-69" transform="translate(626.177734 0)"/>
     <use xlink:href="#DejaVuSans-76" transform="translate(653.960938 0)"/>
     <use xlink:href="#DejaVuSans-65" transform="translate(713.140625 0)"/>
    </g>
   </g>
   <g id="legend_1">
    <g id="line2d_11">
     <path d="M 130.92 46.867813 
L 145.92 46.867813 
L 160.92 46.867813 
" style="fill: none; stroke: #000000; stroke-width: 5; stroke-linecap: square"/>
    </g>
    <g id="text_13">
     <!-- Nonoccluded (NO) -->
     <g transform="translate(172.92 52.117813) scale(0.15 -0.15)">
      <defs>
       <path id="DejaVuSans-6f" d="M 1959 3097 
Q 1497 3097 1228 2736 
Q 959 2375 959 1747 
Q 959 1119 1226 758 
Q 1494 397 1959 397 
Q 2419 397 2687 759 
Q 2956 1122 2956 1747 
Q 2956 2369 2687 2733 
Q 2419 3097 1959 3097 
z
M 1959 3584 
Q 2709 3584 3137 3096 
Q 3566 2609 3566 1747 
Q 3566 888 3137 398 
Q 2709 -91 1959 -91 
Q 1206 -91 779 398 
Q 353 888 353 1747 
Q 353 2609 779 3096 
Q 1206 3584 1959 3584 
z
" transform="scale(0.015625)"/>
       <path id="DejaVuSans-6e" d="M 3513 2113 
L 3513 0 
L 2938 0 
L 2938 2094 
Q 2938 2591 2744 2837 
Q 2550 3084 2163 3084 
Q 1697 3084 1428 2787 
Q 1159 2491 1159 1978 
L 1159 0 
L 581 0 
L 581 3500 
L 1159 3500 
L 1159 2956 
Q 1366 3272 1645 3428 
Q 1925 3584 2291 3584 
Q 2894 3584 3203 3211 
Q 3513 2838 3513 2113 
z
" transform="scale(0.015625)"/>
       <path id="DejaVuSans-64" d="M 2906 2969 
L 2906 4863 
L 3481 4863 
L 3481 0 
L 2906 0 
L 2906 525 
Q 2725 213 2448 61 
Q 2172 -91 1784 -91 
Q 1150 -91 751 415 
Q 353 922 353 1747 
Q 353 2572 751 3078 
Q 1150 3584 1784 3584 
Q 2172 3584 2448 3432 
Q 2725 3281 2906 2969 
z
M 947 1747 
Q 947 1113 1208 752 
Q 1469 391 1925 391 
Q 2381 391 2643 752 
Q 2906 1113 2906 1747 
Q 2906 2381 2643 2742 
Q 2381 3103 1925 3103 
Q 1469 3103 1208 2742 
Q 947 2381 947 1747 
z
" transform="scale(0.015625)"/>
       <path id="DejaVuSans-4f" d="M 2522 4238 
Q 1834 4238 1429 3725 
Q 1025 3213 1025 2328 
Q 1025 1447 1429 934 
Q 1834 422 2522 422 
Q 3209 422 3611 934 
Q 4013 1447 4013 2328 
Q 4013 3213 3611 3725 
Q 3209 4238 2522 4238 
z
M 2522 4750 
Q 3503 4750 4090 4092 
Q 4678 3434 4678 2328 
Q 4678 1225 4090 567 
Q 3503 -91 2522 -91 
Q 1538 -91 948 565 
Q 359 1222 359 2328 
Q 359 3434 948 4092 
Q 1538 4750 2522 4750 
z
" transform="scale(0.015625)"/>
      </defs>
      <use xlink:href="#DejaVuSans-4e"/>
      <use xlink:href="#DejaVuSans-6f" transform="translate(74.804688 0)"/>
      <use xlink:href="#DejaVuSans-6e" transform="translate(135.986328 0)"/>
      <use xlink:href="#DejaVuSans-6f" transform="translate(199.365234 0)"/>
      <use xlink:href="#DejaVuSans-63" transform="translate(260.546875 0)"/>
      <use xlink:href="#DejaVuSans-63" transform="translate(315.527344 0)"/>
      <use xlink:href="#DejaVuSans-6c" transform="translate(370.507812 0)"/>
      <use xlink:href="#DejaVuSans-75" transform="translate(398.291016 0)"/>
      <use xlink:href="#DejaVuSans-64" transform="translate(461.669922 0)"/>
      <use xlink:href="#DejaVuSans-65" transform="translate(525.146484 0)"/>
      <use xlink:href="#DejaVuSans-64" transform="translate(586.669922 0)"/>
      <use xlink:href="#DejaVuSans-20" transform="translate(650.146484 0)"/>
      <use xlink:href="#DejaVuSans-28" transform="translate(681.933594 0)"/>
      <use xlink:href="#DejaVuSans-4e" transform="translate(720.947266 0)"/>
      <use xlink:href="#DejaVuSans-4f" transform="translate(795.751953 0)"/>
      <use xlink:href="#DejaVuSans-29" transform="translate(874.462891 0)"/>
     </g>
    </g>
    <g id="line2d_12">
     <path d="M 130.92 68.885 
L 145.92 68.885 
L 160.92 68.885 
" style="fill: none; stroke: #ff0000; stroke-width: 5; stroke-linecap: square"/>
    </g>
    <g id="text_14">
     <!-- Occluded (O) -->
     <g transform="translate(172.92 74.135) scale(0.15 -0.15)">
      <use xlink:href="#DejaVuSans-4f"/>
      <use xlink:href="#DejaVuSans-63" transform="translate(78.710938 0)"/>
      <use xlink:href="#DejaVuSans-63" transform="translate(133.691406 0)"/>
      <use xlink:href="#DejaVuSans-6c" transform="translate(188.671875 0)"/>
      <use xlink:href="#DejaVuSans-75" transform="translate(216.455078 0)"/>
      <use xlink:href="#DejaVuSans-64" transform="translate(279.833984 0)"/>
      <use xlink:href="#DejaVuSans-65" transform="translate(343.310547 0)"/>
      <use xlink:href="#DejaVuSans-64" transform="translate(404.833984 0)"/>
      <use xlink:href="#DejaVuSans-20" transform="translate(468.310547 0)"/>
      <use xlink:href="#DejaVuSans-28" transform="translate(500.097656 0)"/>
      <use xlink:href="#DejaVuSans-4f" transform="translate(539.111328 0)"/>
      <use xlink:href="#DejaVuSans-29" transform="translate(617.822266 0)"/>
     </g>
    </g>
    <g id="line2d_13">
     <path d="M 130.92 90.902188 
L 145.92 90.902188 
L 160.92 90.902188 
" style="fill: none; stroke: #0000ff; stroke-width: 5; stroke-linecap: square"/>
    </g>
    <g id="text_15">
     <!-- No feedback -->
     <g transform="translate(172.92 96.152188) scale(0.15 -0.15)">
      <defs>
       <path id="DejaVuSans-66" d="M 2375 4863 
L 2375 4384 
L 1825 4384 
Q 1516 4384 1395 4259 
Q 1275 4134 1275 3809 
L 1275 3500 
L 2222 3500 
L 2222 3053 
L 1275 3053 
L 1275 0 
L 697 0 
L 697 3053 
L 147 3053 
L 147 3500 
L 697 3500 
L 697 3744 
Q 697 4328 969 4595 
Q 1241 4863 1831 4863 
L 2375 4863 
z
" transform="scale(0.015625)"/>
       <path id="DejaVuSans-62" d="M 3116 1747 
Q 3116 2381 2855 2742 
Q 2594 3103 2138 3103 
Q 1681 3103 1420 2742 
Q 1159 2381 1159 1747 
Q 1159 1113 1420 752 
Q 1681 391 2138 391 
Q 2594 391 2855 752 
Q 3116 1113 3116 1747 
z
M 1159 2969 
Q 1341 3281 1617 3432 
Q 1894 3584 2278 3584 
Q 2916 3584 3314 3078 
Q 3713 2572 3713 1747 
Q 3713 922 3314 415 
Q 2916 -91 2278 -91 
Q 1894 -91 1617 61 
Q 1341 213 1159 525 
L 1159 0 
L 581 0 
L 581 4863 
L 1159 4863 
L 1159 2969 
z
" transform="scale(0.015625)"/>
       <path id="DejaVuSans-6b" d="M 581 4863 
L 1159 4863 
L 1159 1991 
L 2875 3500 
L 3609 3500 
L 1753 1863 
L 3688 0 
L 2938 0 
L 1159 1709 
L 1159 0 
L 581 0 
L 581 4863 
z
" transform="scale(0.015625)"/>
      </defs>
      <use xlink:href="#DejaVuSans-4e"/>
      <use xlink:href="#DejaVuSans-6f" transform="translate(74.804688 0)"/>
      <use xlink:href="#DejaVuSans-20" transform="translate(135.986328 0)"/>
      <use xlink:href="#DejaVuSans-66" transform="translate(167.773438 0)"/>
      <use xlink:href="#DejaVuSans-65" transform="translate(202.978516 0)"/>
      <use xlink:href="#DejaVuSans-65" transform="translate(264.501953 0)"/>
      <use xlink:href="#DejaVuSans-64" transform="translate(326.025391 0)"/>
      <use xlink:href="#DejaVuSans-62" transform="translate(389.501953 0)"/>
      <use xlink:href="#DejaVuSans-61" transform="translate(452.978516 0)"/>
      <use xlink:href="#DejaVuSans-63" transform="translate(514.257812 0)"/>
      <use xlink:href="#DejaVuSans-6b" transform="translate(569.238281 0)"/>
     </g>
    </g>
   </g>
  </g>
  <g id="axes_2">
   <g id="patch_6">
    <path d="M 468.005393 336.640156 
L 768.949213 336.640156 
L 768.949213 31.720156 
L 468.005393 31.720156 
z
" style="fill: #ffffff"/>
   </g>
   <g id="matplotlib.axis_3">
    <g id="xtick_6">
     <g id="line2d_14">
      <g>
       <use xlink:href="#mee5668eb45" x="468.005393" y="336.640156" style="stroke: #000000; stroke-width: 1.6"/>
      </g>
     </g>
     <g id="text_16">
      <!-- -1 -->
      <g transform="translate(452.052893 369.455156) scale(0.32 -0.32)">
       <use xlink:href="#DejaVuSans-2d"/>
       <use xlink:href="#DejaVuSans-31" transform="translate(36.083984 0)"/>
      </g>
     </g>
    </g>
    <g id="xtick_7">
     <g id="line2d_15">
      <g>
       <use xlink:href="#mee5668eb45" x="543.241348" y="336.640156" style="stroke: #000000; stroke-width: 1.6"/>
      </g>
     </g>
     <g id="text_17">
      <!-- 0 -->
      <g transform="translate(533.061348 369.455156) scale(0.32 -0.32)">
       <use xlink:href="#DejaVuSans-30"/>
      </g>
     </g>
    </g>
    <g id="xtick_8">
     <g id="line2d_16">
      <g>
       <use xlink:href="#mee5668eb45" x="618.477303" y="336.640156" style="stroke: #000000; stroke-width: 1.6"/>
      </g>
     </g>
     <g id="text_18">
      <!-- 1 -->
      <g transform="translate(608.297303 369.455156) scale(0.32 -0.32)">
       <use xlink:href="#DejaVuSans-31"/>
      </g>
     </g>
    </g>
    <g id="xtick_9">
     <g id="line2d_17">
      <g>
       <use xlink:href="#mee5668eb45" x="693.713258" y="336.640156" style="stroke: #000000; stroke-width: 1.6"/>
      </g>
     </g>
     <g id="text_19">
      <!-- 2 -->
      <g transform="translate(683.533258 369.455156) scale(0.32 -0.32)">
       <use xlink:href="#DejaVuSans-32"/>
      </g>
     </g>
    </g>
    <g id="xtick_10">
     <g id="line2d_18">
      <g>
       <use xlink:href="#mee5668eb45" x="768.949213" y="336.640156" style="stroke: #000000; stroke-width: 1.6"/>
      </g>
     </g>
     <g id="text_20">
      <!-- 3 -->
      <g transform="translate(758.769213 369.455156) scale(0.32 -0.32)">
       <use xlink:href="#DejaVuSans-33"/>
      </g>
     </g>
    </g>
    <g id="text_21">
     <!-- Time (s) -->
     <g transform="translate(553.424803 404.425156) scale(0.32 -0.32)">
      <use xlink:href="#DejaVuSans-54"/>
      <use xlink:href="#DejaVuSans-69" transform="translate(57.958984 0)"/>
      <use xlink:href="#DejaVuSans-6d" transform="translate(85.742188 0)"/>
      <use xlink:href="#DejaVuSans-65" transform="translate(183.154297 0)"/>
      <use xlink:href="#DejaVuSans-20" transform="translate(244.677734 0)"/>
      <use xlink:href="#DejaVuSans-28" transform="translate(276.464844 0)"/>
      <use xlink:href="#DejaVuSans-73" transform="translate(315.478516 0)"/>
      <use xlink:href="#DejaVuSans-29" transform="translate(367.578125 0)"/>
     </g>
    </g>
   </g>
   <g id="matplotlib.axis_4">
    <g id="ytick_4">
     <g id="line2d_19">
      <g>
       <use xlink:href="#ma95ba99bee" x="468.005393" y="315.61917" style="stroke: #000000; stroke-width: 1.6"/>
      </g>
     </g>
    </g>
    <g id="ytick_5">
     <g id="line2d_20">
      <g>
       <use xlink:href="#ma95ba99bee" x="468.005393" y="218.100426" style="stroke: #000000; stroke-width: 1.6"/>
      </g>
     </g>
    </g>
    <g id="ytick_6">
     <g id="line2d_21">
      <g>
       <use xlink:href="#ma95ba99bee" x="468.005393" y="120.581683" style="stroke: #000000; stroke-width: 1.6"/>
      </g>
     </g>
    </g>
   </g>
   <g id="line2d_22">
    <path d="M 468.757753 308.926077 
L 471.767191 310.167604 
L 474.776629 311.178836 
L 476.281348 311.611769 
L 477.033708 284.091567 
L 479.290787 288.588192 
L 481.547865 292.443486 
L 483.804944 295.748919 
L 486.062022 298.582915 
L 488.319101 301.012711 
L 490.57618 303.095959 
L 492.833258 304.882082 
L 495.090337 306.41346 
L 497.347416 307.726424 
L 500.356854 309.19048 
L 503.366292 310.382962 
L 506.37573 311.354245 
L 510.137528 312.319053 
L 513.899326 313.065602 
L 518.413483 313.742063 
L 522.175281 314.166701 
L 522.92764 286.366223 
L 525.184719 290.538425 
L 527.441798 294.115567 
L 529.698876 297.182518 
L 531.955955 299.812045 
L 534.213034 302.066537 
L 536.470112 303.999482 
L 538.727191 305.65674 
L 540.98427 307.077631 
L 543.993708 308.662034 
L 547.003146 309.952539 
L 550.012584 311.003664 
L 553.774382 312.047779 
L 557.53618 312.855696 
L 562.050337 313.587763 
L 567.316854 314.200562 
L 573.33573 314.678037 
L 580.859326 315.055679 
L 591.39236 315.344369 
L 607.19191 315.525583 
L 638.038652 315.607744 
L 643.305169 315.611191 
L 644.057528 303.622503 
L 644.809888 283.726488 
L 645.562247 171.830364 
L 646.314607 117.678999 
L 647.066966 103.506173 
L 647.819326 81.284554 
L 650.076404 114.706541 
L 652.333483 143.361712 
L 653.838202 160.156807 
L 654.590562 149.555224 
L 656.84764 173.240103 
L 659.104719 193.546925 
L 661.361798 210.957479 
L 662.114157 216.190563 
L 662.866517 189.003066 
L 663.618876 195.333872 
L 664.371236 166.883403 
L 665.123596 172.432591 
L 667.380674 192.854584 
L 669.637753 210.36388 
L 671.894831 225.375913 
L 674.15191 238.24686 
L 676.408989 249.282083 
L 678.666067 258.743412 
L 680.170787 264.288799 
L 682.427865 271.526003 
L 684.684944 277.814793 
L 686.942022 283.206642 
L 689.199101 287.829479 
L 689.951461 278.748121 
L 692.208539 284.006856 
L 692.960899 285.587473 
L 693.713258 281.154989 
L 694.465618 270.351278 
L 696.722697 276.807613 
L 698.979775 282.343114 
L 701.236854 287.089112 
L 703.493933 291.158211 
L 705.751011 294.646956 
L 708.00809 297.638118 
L 708.760449 298.537171 
L 709.512809 277.789075 
L 710.265169 279.68058 
L 711.017528 272.379974 
L 713.274607 278.546963 
L 715.531685 283.834386 
L 717.788764 288.367691 
L 720.045843 292.254434 
L 722.302921 295.586833 
L 724.56 298.443945 
L 726.817079 300.893563 
L 727.569438 301.629843 
L 728.321798 291.713141 
L 730.578876 295.12274 
L 732.835955 298.046044 
L 735.093034 300.552411 
L 735.845393 289.623556 
L 738.102472 293.331181 
L 739.607191 295.50426 
L 740.359551 284.646293 
L 742.616629 289.063799 
L 744.873708 292.851258 
L 747.130787 296.098532 
L 749.387865 298.882664 
L 751.644944 301.269709 
L 753.902022 303.316301 
L 756.159101 305.070999 
L 758.41618 306.575433 
L 759.920899 307.457197 
L 760.673258 282.9656 
L 762.930337 287.622817 
L 765.187416 291.615798 
L 765.939775 292.815967 
L 766.692135 279.130759 
L 767.444494 210.855514 
L 768.196854 194.587257 
L 768.196854 194.587257 
" clip-path="url(#pe0ee57900a)" style="fill: none; stroke: #000000; stroke-width: 5; stroke-linecap: square"/>
   </g>
   <g id="line2d_23">
    <path d="M 468.757753 194.487553 
L 470.262472 206.297887 
L 471.014831 207.007266 
L 471.767191 212.437859 
L 472.519551 183.464531 
L 473.27191 180.948188 
L 475.528989 200.155644 
L 477.033708 211.413339 
L 477.786067 204.33995 
L 478.538427 165.063769 
L 480.043146 130.187468 
L 482.300225 156.63468 
L 484.557303 179.309843 
L 486.814382 198.750964 
L 489.071461 215.419299 
L 489.82382 220.429289 
L 490.57618 221.184378 
L 492.833258 234.653139 
L 495.090337 246.200917 
L 495.842697 249.67183 
L 496.595056 194.189277 
L 498.852135 211.50822 
L 500.356854 221.659038 
L 501.109213 217.528499 
L 502.613933 227.092347 
L 503.366292 222.184013 
L 504.118652 226.855776 
L 505.623371 140.368057 
L 506.37573 134.725051 
L 508.632809 160.525069 
L 510.889888 182.50533 
L 513.146966 201.490692 
L 515.404045 217.768267 
L 516.908764 227.308738 
L 517.661124 221.359155 
L 519.918202 234.802994 
L 522.175281 246.329402 
L 524.43236 256.211852 
L 525.937079 262.004069 
L 526.689438 264.077785 
L 527.441798 260.190002 
L 528.194157 243.899739 
L 529.698876 250.892388 
L 530.451236 226.25521 
L 531.203596 168.569975 
L 533.460674 189.542872 
L 534.213034 186.990963 
L 534.965393 193.422372 
L 536.470112 124.947472 
L 537.222472 76.703559 
L 539.479551 110.778897 
L 541.736629 139.994254 
L 543.993708 165.042762 
L 545.498427 179.723961 
L 546.250787 164.135547 
L 547.003146 138.849596 
L 547.755506 88.777048 
L 548.507865 100.119152 
L 549.260225 99.84271 
L 550.012584 96.014424 
L 551.517303 117.425879 
L 552.269663 118.348843 
L 553.022022 96.82624 
L 555.279101 128.031586 
L 557.53618 154.786282 
L 558.288539 136.594736 
L 560.545618 162.128103 
L 562.802697 184.019768 
L 565.059775 202.789138 
L 565.812135 191.550534 
L 568.069213 209.245823 
L 570.326292 224.417321 
L 571.831011 233.309508 
L 572.583371 225.80687 
L 574.840449 238.616349 
L 577.097528 249.598882 
L 579.354607 259.015023 
L 581.611685 267.088192 
L 583.868764 274.009923 
L 586.125843 279.944444 
L 588.382921 285.032554 
L 589.135281 264.386496 
L 589.88764 259.776978 
L 590.64 261.331859 
L 592.897079 269.074588 
L 594.401798 273.612689 
L 595.154157 244.043 
L 595.906517 245.393583 
L 596.658876 238.910755 
L 597.411236 229.395851 
L 598.163596 200.182037 
L 598.915955 175.694061 
L 599.668315 162.481072 
L 600.420674 163.810161 
L 602.677753 185.46193 
L 603.430112 191.969793 
L 604.182472 164.712263 
L 604.934831 169.392508 
L 606.439551 183.649607 
L 607.19191 177.045919 
L 607.94427 179.163502 
L 609.448989 191.591894 
L 611.706067 209.281288 
L 613.963146 224.447728 
L 615.467865 233.336946 
L 616.220225 199.691038 
L 618.477303 216.225284 
L 620.734382 230.401343 
L 622.991461 242.555541 
L 623.74382 220.930015 
L 624.49618 212.924235 
L 626.753258 227.571103 
L 627.505618 231.973507 
L 628.257978 183.816473 
L 629.010337 168.181768 
L 629.762697 169.816254 
L 630.515056 146.361761 
L 631.267416 105.086338 
L 632.019775 93.461416 
L 634.276854 125.14668 
L 636.533933 152.312816 
L 638.791011 175.604393 
L 640.29573 189.25584 
L 641.04809 194.700302 
L 641.800449 189.569891 
L 642.552809 189.705642 
L 644.809888 207.664068 
L 647.066966 223.061166 
L 647.819326 215.775909 
L 650.076404 230.016061 
L 652.333483 242.22521 
L 653.085843 233.881938 
L 653.838202 237.968801 
L 654.590562 227.947667 
L 655.342921 178.848179 
L 657.6 198.355155 
L 659.857079 215.079935 
L 660.609438 210.629278 
L 661.361798 209.013647 
L 663.618876 224.218267 
L 665.875955 237.254318 
L 668.133034 248.431105 
L 670.390112 258.013803 
L 672.647191 266.229771 
L 674.90427 273.273938 
L 677.161348 279.313428 
L 677.913708 281.128716 
L 678.666067 276.307251 
L 680.923146 281.914115 
L 682.427865 285.200358 
L 683.180225 249.57302 
L 683.932584 222.744699 
L 684.684944 201.539345 
L 686.189663 212.428886 
L 688.446742 227.146404 
L 690.70382 239.76484 
L 691.45618 243.557555 
L 692.208539 234.943867 
L 692.960899 221.36435 
L 695.217978 234.807444 
L 697.475056 246.333221 
L 699.732135 256.215131 
L 701.989213 264.687633 
L 703.493933 269.653461 
L 704.246292 232.360479 
L 705.751011 201.224748 
L 707.25573 212.378208 
L 708.00809 187.342887 
L 708.760449 183.606939 
L 711.017528 202.435189 
L 711.769888 208.094389 
L 712.522247 187.373748 
L 713.274607 161.425019 
L 714.026966 169.13473 
L 714.779326 175.20526 
L 717.036404 195.231798 
L 719.293483 212.402048 
L 721.550562 227.12339 
L 723.055281 235.751732 
L 723.80764 205.365651 
L 726.064719 221.09056 
L 728.321798 234.572707 
L 730.578876 246.131961 
L 732.835955 256.042574 
L 735.093034 264.539689 
L 737.350112 271.824901 
L 738.102472 263.484104 
L 739.607191 268.567278 
L 740.359551 262.826588 
L 741.11191 265.466217 
L 741.86427 222.478538 
L 744.121348 235.762722 
L 746.378427 247.152248 
L 748.635506 256.917343 
L 750.892584 265.289692 
L 751.644944 231.304862 
L 752.397303 235.520583 
L 753.149663 225.20259 
L 755.406742 238.098258 
L 757.66382 249.154683 
L 758.41618 226.393331 
L 759.168539 214.342039 
L 759.920899 161.311092 
L 760.673258 164.376387 
L 762.930337 185.947398 
L 764.435056 198.590392 
L 765.187416 189.405932 
L 767.444494 207.407098 
L 768.196854 212.817701 
L 768.196854 212.817701 
" clip-path="url(#pe0ee57900a)" style="fill: none; stroke: #ff0000; stroke-width: 5; stroke-linecap: square"/>
   </g>
   <g id="patch_7">
    <path d="M 468.005393 336.640156 
L 468.005393 31.720156 
" style="fill: none; stroke: #000000; stroke-width: 5; stroke-linejoin: miter; stroke-linecap: square"/>
   </g>
   <g id="patch_8">
    <path d="M 468.005393 336.640156 
L 768.949213 336.640156 
" style="fill: none; stroke: #000000; stroke-width: 5; stroke-linejoin: miter; stroke-linecap: square"/>
   </g>
   <g id="patch_9">
    <path d="M 543.241348 330.541756 
L 618.477303 330.541756 
L 618.477303 319.869556 
L 543.241348 319.869556 
z
" style="fill: #8c5a2b; stroke: #8c5a2b; stroke-linejoin: miter"/>
   </g>
   <g id="text_22">
    <!-- Familiar | Expert -->
    <g transform="translate(540.789569 21.720156) scale(0.19 -0.19)">
     <defs>
      <path id="DejaVuSans-45" d="M 628 4666 
L 3578 4666 
L 3578 4134 
L 1259 4134 
L 1259 2753 
L 3481 2753 
L 3481 2222 
L 1259 2222 
L 1259 531 
L 3634 531 
L 3634 0 
L 628 0 
L 628 4666 
z
" transform="scale(0.015625)"/>
      <path id="DejaVuSans-78" d="M 3513 3500 
L 2247 1797 
L 3578 0 
L 2900 0 
L 1881 1375 
L 863 0 
L 184 0 
L 1544 1831 
L 300 3500 
L 978 3500 
L 1906 2253 
L 2834 3500 
L 3513 3500 
z
" transform="scale(0.015625)"/>
      <path id="DejaVuSans-70" d="M 1159 525 
L 1159 -1331 
L 581 -1331 
L 581 3500 
L 1159 3500 
L 1159 2969 
Q 1341 3281 1617 3432 
Q 1894 3584 2278 3584 
Q 2916 3584 3314 3078 
Q 3713 2572 3713 1747 
Q 3713 922 3314 415 
Q 2916 -91 2278 -91 
Q 1894 -91 1617 61 
Q 1341 213 1159 525 
z
M 3116 1747 
Q 3116 2381 2855 2742 
Q 2594 3103 2138 3103 
Q 1681 3103 1420 2742 
Q 1159 2381 1159 1747 
Q 1159 1113 1420 752 
Q 1681 391 2138 391 
Q 2594 391 2855 752 
Q 3116 1113 3116 1747 
z
" transform="scale(0.015625)"/>
     </defs>
     <use xlink:href="#DejaVuSans-46"/>
     <use xlink:href="#DejaVuSans-61" transform="translate(48.394531 0)"/>
     <use xlink:href="#DejaVuSans-6d" transform="translate(109.673828 0)"/>
     <use xlink:href="#DejaVuSans-69" transform="translate(207.085938 0)"/>
     <use xlink:href="#DejaVuSans-6c" transform="translate(234.869141 0)"/>
     <use xlink:href="#DejaVuSans-69" transform="translate(262.652344 0)"/>
     <use xlink:href="#DejaVuSans-61" transform="translate(290.435547 0)"/>
     <use xlink:href="#DejaVuSans-72" transform="translate(351.714844 0)"/>
     <use xlink:href="#DejaVuSans-20" transform="translate(392.828125 0)"/>
     <use xlink:href="#DejaVuSans-7c" transform="translate(424.615234 0)"/>
     <use xlink:href="#DejaVuSans-20" transform="translate(458.306641 0)"/>
     <use xlink:href="#DejaVuSans-45" transform="translate(490.09375 0)"/>
     <use xlink:href="#DejaVuSans-78" transform="translate(553.277344 0)"/>
     <use xlink:href="#DejaVuSans-70" transform="translate(612.457031 0)"/>
     <use xlink:href="#DejaVuSans-65" transform="translate(675.933594 0)"/>
     <use xlink:href="#DejaVuSans-72" transform="translate(737.457031 0)"/>
     <use xlink:href="#DejaVuSans-74" transform="translate(778.570312 0)"/>
    </g>
   </g>
  </g>
  <g id="axes_3">
   <g id="patch_10">
    <path d="M 814.090787 336.640156 
L 1115.034607 336.640156 
L 1115.034607 31.720156 
L 814.090787 31.720156 
z
" style="fill: #ffffff"/>
   </g>
   <g id="matplotlib.axis_5">
    <g id="xtick_11">
     <g id="line2d_24">
      <g>
       <use xlink:href="#mee5668eb45" x="814.090787" y="336.640156" style="stroke: #000000; stroke-width: 1.6"/>
      </g>
     </g>
     <g id="text_23">
      <!-- -1 -->
      <g transform="translate(798.138287 369.455156) scale(0.32 -0.32)">
       <use xlink:href="#DejaVuSans-2d"/>
       <use xlink:href="#DejaVuSans-31" transform="translate(36.083984 0)"/>
      </g>
     </g>
    </g>
    <g id="xtick_12">
     <g id="line2d_25">
      <g>
       <use xlink:href="#mee5668eb45" x="889.326742" y="336.640156" style="stroke: #000000; stroke-width: 1.6"/>
      </g>
     </g>
     <g id="text_24">
      <!-- 0 -->
      <g transform="translate(879.146742 369.455156) scale(0.32 -0.32)">
       <use xlink:href="#DejaVuSans-30"/>
      </g>
     </g>
    </g>
    <g id="xtick_13">
     <g id="line2d_26">
      <g>
       <use xlink:href="#mee5668eb45" x="964.562697" y="336.640156" style="stroke: #000000; stroke-width: 1.6"/>
      </g>
     </g>
     <g id="text_25">
      <!-- 1 -->
      <g transform="translate(954.382697 369.455156) scale(0.32 -0.32)">
       <use xlink:href="#DejaVuSans-31"/>
      </g>
     </g>
    </g>
    <g id="xtick_14">
     <g id="line2d_27">
      <g>
       <use xlink:href="#mee5668eb45" x="1039.798652" y="336.640156" style="stroke: #000000; stroke-width: 1.6"/>
      </g>
     </g>
     <g id="text_26">
      <!-- 2 -->
      <g transform="translate(1029.618652 369.455156) scale(0.32 -0.32)">
       <use xlink:href="#DejaVuSans-32"/>
      </g>
     </g>
    </g>
    <g id="xtick_15">
     <g id="line2d_28">
      <g>
       <use xlink:href="#mee5668eb45" x="1115.034607" y="336.640156" style="stroke: #000000; stroke-width: 1.6"/>
      </g>
     </g>
     <g id="text_27">
      <!-- 3 -->
      <g transform="translate(1104.854607 369.455156) scale(0.32 -0.32)">
       <use xlink:href="#DejaVuSans-33"/>
      </g>
     </g>
    </g>
    <g id="text_28">
     <!-- Time (s) -->
     <g transform="translate(899.510197 404.425156) scale(0.32 -0.32)">
      <use xlink:href="#DejaVuSans-54"/>
      <use xlink:href="#DejaVuSans-69" transform="translate(57.958984 0)"/>
      <use xlink:href="#DejaVuSans-6d" transform="translate(85.742188 0)"/>
      <use xlink:href="#DejaVuSans-65" transform="translate(183.154297 0)"/>
      <use xlink:href="#DejaVuSans-20" transform="translate(244.677734 0)"/>
      <use xlink:href="#DejaVuSans-28" transform="translate(276.464844 0)"/>
      <use xlink:href="#DejaVuSans-73" transform="translate(315.478516 0)"/>
      <use xlink:href="#DejaVuSans-29" transform="translate(367.578125 0)"/>
     </g>
    </g>
   </g>
   <g id="matplotlib.axis_6">
    <g id="ytick_7">
     <g id="line2d_29">
      <g>
       <use xlink:href="#ma95ba99bee" x="814.090787" y="315.61917" style="stroke: #000000; stroke-width: 1.6"/>
      </g>
     </g>
    </g>
    <g id="ytick_8">
     <g id="line2d_30">
      <g>
       <use xlink:href="#ma95ba99bee" x="814.090787" y="218.100426" style="stroke: #000000; stroke-width: 1.6"/>
      </g>
     </g>
    </g>
    <g id="ytick_9">
     <g id="line2d_31">
      <g>
       <use xlink:href="#ma95ba99bee" x="814.090787" y="120.581683" style="stroke: #000000; stroke-width: 1.6"/>
      </g>
     </g>
    </g>
   </g>
   <g id="line2d_32">
    <path d="M 814.843146 276.7176 
L 817.100225 282.265939 
L 819.357303 287.022946 
L 820.109663 288.452757 
L 820.862022 272.219638 
L 822.366742 276.451094 
L 823.119101 253.05183 
L 823.871461 240.176896 
L 825.37618 247.532518 
L 826.128539 230.017759 
L 828.385618 242.226658 
L 829.890337 249.382427 
L 830.642697 246.962831 
L 832.147416 253.656828 
L 832.899775 235.776272 
L 833.652135 222.073057 
L 834.404494 197.708598 
L 836.661573 214.525598 
L 838.918652 228.944078 
L 841.17573 241.306115 
L 843.432809 251.905014 
L 844.185169 243.368215 
L 846.442247 253.673012 
L 847.194607 245.759525 
L 849.451685 255.723255 
L 850.956404 261.563108 
L 851.708764 255.290728 
L 852.461124 221.245973 
L 854.718202 234.705951 
L 856.975281 246.246201 
L 857.72764 218.345792 
L 859.984719 232.219406 
L 862.241798 244.114304 
L 864.498876 254.312685 
L 866.755955 263.056525 
L 869.013034 270.553274 
L 871.270112 276.9808 
L 873.527191 282.4916 
L 874.279551 281.933151 
L 875.03191 275.283071 
L 876.536629 279.215845 
L 877.288989 251.260305 
L 879.546067 260.439493 
L 880.298427 253.607761 
L 881.050787 256.708332 
L 881.803146 201.052233 
L 883.307865 138.363992 
L 884.060225 140.528084 
L 886.317303 165.500448 
L 888.574382 186.911131 
L 890.831461 205.268117 
L 893.088539 221.006941 
L 895.345618 234.501013 
L 897.602697 246.070493 
L 899.859775 255.989875 
L 902.116854 264.494505 
L 904.373933 271.786161 
L 906.631011 278.037846 
L 908.88809 283.397885 
L 911.145169 287.993446 
L 913.402247 291.933564 
L 915.659326 295.311726 
L 917.916404 298.208075 
L 920.173483 300.691333 
L 922.430562 302.820416 
L 924.68764 304.645839 
L 926.944719 306.210911 
L 929.201798 307.552764 
L 932.211236 309.049032 
L 935.220674 310.267752 
L 938.230112 311.260407 
L 941.99191 312.246442 
L 945.753708 313.009418 
L 950.267865 313.700762 
L 955.534382 314.279474 
L 962.305618 314.774828 
L 970.581573 315.138908 
L 971.333933 305.252374 
L 972.086292 280.652135 
L 974.343371 285.639312 
L 975.84809 288.562349 
L 976.600449 254.234824 
L 977.352809 232.589994 
L 978.857528 240.685337 
L 979.609888 222.482879 
L 980.362247 227.139692 
L 981.114607 219.480414 
L 981.866966 190.239736 
L 982.619326 196.508711 
L 983.371685 200.16667 
L 984.876404 211.423293 
L 985.628764 211.625734 
L 986.381124 216.825405 
L 987.133483 199.890809 
L 987.885843 205.677232 
L 988.638202 206.737108 
L 989.390562 212.181216 
L 990.142921 198.11051 
L 990.895281 188.10091 
L 993.15236 206.288205 
L 994.657079 216.245292 
L 996.914157 230.41849 
L 999.171236 242.570236 
L 1000.675955 249.69251 
L 1001.428315 247.531982 
L 1003.685393 257.242916 
L 1005.190112 262.934602 
L 1005.942472 252.543557 
L 1008.199551 261.539722 
L 1010.456629 269.252802 
L 1012.713708 275.865809 
L 1014.218427 279.741764 
L 1014.970787 255.168069 
L 1015.723146 258.190623 
L 1016.475506 248.565965 
L 1017.227865 197.378371 
L 1017.980225 172.054756 
L 1020.237303 192.530633 
L 1022.494382 210.086148 
L 1023.246742 212.271856 
L 1023.999101 217.439221 
L 1024.751461 203.283461 
L 1025.50382 180.713724 
L 1027.760899 199.95462 
L 1030.017978 216.451275 
L 1032.275056 230.595102 
L 1034.532135 242.721667 
L 1036.789213 253.118679 
L 1039.046292 262.032814 
L 1041.303371 269.675567 
L 1042.05573 258.371258 
L 1042.80809 228.166601 
L 1043.560449 230.637107 
L 1045.817528 242.757678 
L 1048.074607 253.149549 
L 1050.331685 262.059279 
L 1052.588764 269.698259 
L 1054.845843 276.247731 
L 1056.350562 280.086448 
L 1057.102921 279.26688 
L 1057.855281 266.00799 
L 1060.11236 273.083786 
L 1061.617079 277.230986 
L 1062.369438 273.23875 
L 1063.121798 256.511735 
L 1065.378876 264.941937 
L 1067.635955 272.169777 
L 1068.388315 274.342248 
L 1069.140674 261.590854 
L 1071.397753 269.296642 
L 1072.150112 271.612769 
L 1072.902472 234.54339 
L 1073.654831 210.352627 
L 1075.91191 225.366268 
L 1077.416629 234.165927 
L 1078.168989 230.039157 
L 1080.426067 242.245009 
L 1081.930787 249.398988 
L 1082.683146 249.594041 
L 1084.940225 259.010877 
L 1087.197303 267.084637 
L 1089.454382 274.006876 
L 1091.711461 279.94183 
L 1093.968539 285.030311 
L 1096.225618 289.393049 
L 1098.482697 293.133549 
L 1099.235056 294.257829 
L 1099.987416 259.82708 
L 1101.492135 265.26681 
L 1102.996854 191.535485 
L 1103.749213 175.864097 
L 1106.006292 195.796662 
L 1107.511011 207.479355 
L 1108.263371 169.092689 
L 1109.76809 112.323369 
L 1110.520449 52.749122 
L 1112.777528 90.24098 
L 1114.282247 112.215365 
L 1114.282247 112.215365 
" clip-path="url(#p3464c25d82)" style="fill: none; stroke: #000000; stroke-width: 5; stroke-linecap: square"/>
   </g>
   <g id="line2d_33">
    <path d="M 814.843146 175.65597 
L 815.595506 119.919781 
L 816.347865 91.566337 
L 817.100225 89.911135 
L 817.852584 98.675909 
L 820.109663 129.617455 
L 820.862022 128.462224 
L 822.366742 54.119744 
L 824.62382 91.416118 
L 826.880899 123.393082 
L 829.137978 150.80934 
L 831.395056 174.315355 
L 832.147416 181.380543 
L 832.899775 166.154271 
L 833.652135 140.068637 
L 835.909213 165.106537 
L 838.166292 186.573412 
L 840.423371 204.978561 
L 841.17573 187.614888 
L 841.92809 186.076909 
L 842.680449 138.517952 
L 843.432809 125.054006 
L 845.689888 152.233365 
L 847.946966 175.536268 
L 848.699326 173.995755 
L 850.956404 194.194799 
L 853.213483 211.512952 
L 855.470562 226.361099 
L 857.72764 239.091535 
L 859.23236 246.552982 
L 859.984719 231.348438 
L 860.737079 196.623345 
L 862.994157 213.595133 
L 863.746517 191.958413 
L 864.498876 190.230172 
L 865.251236 196.499619 
L 866.003596 195.609824 
L 868.260674 212.726163 
L 870.517753 227.401276 
L 872.022472 236.002527 
L 872.774831 203.275786 
L 873.527191 199.432978 
L 875.78427 216.004034 
L 878.041348 230.211645 
L 880.298427 242.392893 
L 881.803146 153.16888 
L 882.555506 155.002855 
L 884.812584 177.910757 
L 887.069663 197.551422 
L 889.326742 214.390846 
L 891.58382 228.828535 
L 893.840899 241.207047 
L 895.345618 248.462234 
L 896.097978 243.324208 
L 898.355056 253.63528 
L 900.612135 262.475732 
L 901.364494 240.963219 
L 902.116854 244.696015 
L 902.869213 229.913142 
L 905.126292 242.136959 
L 905.878652 245.811071 
L 906.631011 236.947805 
L 907.383371 233.044473 
L 908.88809 241.095505 
L 909.640449 241.862978 
L 911.897528 252.382458 
L 914.154607 261.401601 
L 916.411685 269.134385 
L 918.668764 275.764275 
L 920.173483 279.650128 
L 920.925843 273.714577 
L 921.678202 221.883258 
L 923.935281 235.252342 
L 926.19236 246.714657 
L 928.449438 256.542165 
L 930.706517 264.968025 
L 932.963596 272.192151 
L 935.220674 278.385935 
L 936.725393 282.016175 
L 937.477753 278.605566 
L 938.982472 282.214393 
L 939.734831 260.00667 
L 940.487191 262.787295 
L 941.239551 242.821906 
L 941.99191 246.46177 
L 942.74427 247.996611 
L 943.496629 231.177985 
L 944.248989 235.400045 
L 945.001348 238.632424 
L 945.753708 242.481762 
L 947.258427 204.392354 
L 948.763146 215.236966 
L 949.515506 199.5424 
L 950.267865 180.955145 
L 951.020225 185.127317 
L 953.277303 203.738712 
L 955.534382 219.69567 
L 957.039101 229.048213 
L 957.791461 191.177639 
L 958.54382 186.173262 
L 959.29618 192.645558 
L 960.048539 178.930745 
L 962.305618 198.425932 
L 964.562697 215.140622 
L 966.819775 229.471378 
L 967.572135 229.978642 
L 968.324494 228.312887 
L 969.076854 205.357213 
L 969.829213 209.176508 
L 972.086292 224.357896 
L 974.343371 237.374048 
L 975.09573 241.286307 
L 975.84809 238.125077 
L 976.600449 209.09624 
L 977.352809 214.422389 
L 978.105169 207.65435 
L 980.362247 223.052838 
L 981.114607 227.681151 
L 981.866966 218.619518 
L 984.124045 232.454098 
L 986.381124 244.315519 
L 987.885843 251.26763 
L 988.638202 207.06511 
L 990.895281 222.547644 
L 993.15236 235.821974 
L 995.409438 247.203054 
L 996.161798 250.62386 
L 996.914157 248.142479 
L 997.666517 237.390378 
L 998.418876 186.341508 
L 999.171236 164.933831 
L 1001.428315 186.425337 
L 1003.685393 204.85161 
L 1005.942472 220.649831 
L 1008.199551 234.194836 
L 1010.456629 245.807983 
L 1012.713708 255.764806 
L 1013.466067 250.555949 
L 1015.723146 259.835594 
L 1017.980225 267.791727 
L 1020.237303 274.613114 
L 1022.494382 280.461601 
L 1023.246742 282.219479 
L 1023.999101 256.780648 
L 1026.25618 265.172492 
L 1028.513258 272.36745 
L 1030.770337 278.536226 
L 1031.522697 271.360281 
L 1032.275056 270.547897 
L 1034.532135 276.976191 
L 1035.284494 278.908342 
L 1036.036854 278.885537 
L 1036.789213 265.362095 
L 1039.046292 272.530016 
L 1039.798652 274.684472 
L 1040.551011 265.671755 
L 1042.05573 270.541631 
L 1042.80809 236.556228 
L 1043.560449 217.752156 
L 1044.312809 192.423482 
L 1045.065169 180.693116 
L 1045.817528 113.483395 
L 1048.074607 142.313016 
L 1050.331685 167.030816 
L 1052.588764 188.223237 
L 1054.845843 206.393086 
L 1057.102921 221.971464 
L 1059.36 235.327978 
L 1061.617079 246.779513 
L 1063.121798 253.491378 
L 1063.874157 223.846644 
L 1064.626517 228.435269 
L 1065.378876 194.837451 
L 1066.131236 194.670994 
L 1066.883596 187.999471 
L 1069.140674 206.201235 
L 1070.645393 216.86949 
L 1071.397753 211.122865 
L 1073.654831 226.026649 
L 1074.407191 230.506278 
L 1078.921348 252.678527 
L 1081.178427 261.655442 
L 1083.435506 269.35202 
L 1084.940225 273.86307 
L 1085.692584 262.443408 
L 1086.444944 264.242608 
L 1087.197303 240.337596 
L 1089.454382 251.074634 
L 1091.711461 260.280306 
L 1093.21618 265.675847 
L 1093.968539 261.975324 
L 1096.225618 269.626283 
L 1097.730337 274.11059 
L 1098.482697 204.33926 
L 1099.235056 209.031511 
L 1099.987416 194.538604 
L 1102.244494 211.807722 
L 1104.501573 226.613836 
L 1106.758652 239.308226 
L 1107.511011 239.805142 
L 1108.263371 243.595846 
L 1109.01573 203.91071 
L 1109.76809 182.261302 
L 1110.520449 167.478592 
L 1112.777528 188.607148 
L 1114.282247 200.990829 
L 1114.282247 200.990829 
" clip-path="url(#p3464c25d82)" style="fill: none; stroke: #ff0000; stroke-width: 5; stroke-linecap: square"/>
   </g>
   <g id="line2d_34">
    <path d="M 814.843146 230.393642 
L 817.100225 242.548934 
L 819.357303 252.970577 
L 820.109663 256.103007 
L 820.862022 223.57527 
L 823.119101 236.703032 
L 825.37618 247.958447 
L 827.633258 257.608558 
L 829.890337 265.88232 
L 830.642697 268.369165 
L 831.395056 268.194946 
L 833.652135 274.95883 
L 834.404494 262.872757 
L 836.661573 270.395717 
L 838.918652 276.845708 
L 841.17573 282.375774 
L 843.432809 287.117114 
L 844.185169 288.542218 
L 844.937528 268.489299 
L 847.194607 275.2112 
L 847.946966 277.231599 
L 848.699326 277.153874 
L 850.204045 280.904242 
L 850.956404 277.164296 
L 852.461124 241.362048 
L 854.718202 251.952968 
L 856.222921 213.016119 
L 856.975281 218.146275 
L 857.72764 196.88809 
L 859.984719 213.822114 
L 862.241798 228.340914 
L 862.994157 231.597725 
L 863.746517 209.82717 
L 864.498876 212.932627 
L 866.755955 227.578296 
L 869.013034 240.135128 
L 869.765393 238.8264 
L 872.022472 249.778967 
L 874.279551 259.169433 
L 875.03191 222.645277 
L 876.536629 231.710234 
L 877.288989 223.963877 
L 878.041348 228.546643 
L 878.793708 219.709348 
L 879.546067 220.121341 
L 880.298427 223.402246 
L 882.555506 236.554694 
L 884.812584 247.83127 
L 887.069663 257.499522 
L 889.326742 265.788842 
L 891.58382 272.895894 
L 893.840899 278.989302 
L 896.097978 284.213638 
L 898.355056 288.692852 
L 900.612135 292.533217 
L 902.869213 295.82585 
L 905.126292 298.648873 
L 907.383371 301.069261 
L 909.640449 303.144442 
L 911.897528 304.92365 
L 914.154607 306.449099 
L 916.411685 307.75698 
L 919.421124 309.215368 
L 922.430562 310.403233 
L 925.44 311.370757 
L 929.201798 312.331829 
L 932.963596 313.075489 
L 937.477753 313.74933 
L 942.74427 314.313391 
L 949.515506 314.796204 
L 957.791461 315.151067 
L 966.819775 315.366226 
L 967.572135 302.383933 
L 968.324494 299.477152 
L 969.076854 284.879277 
L 969.829213 286.416273 
L 970.581573 280.572322 
L 971.333933 265.262419 
L 972.086292 263.588943 
L 974.343371 271.009756 
L 976.600449 277.372177 
L 978.105169 281.101259 
L 978.857528 258.776331 
L 979.609888 251.086387 
L 980.362247 252.257978 
L 981.114607 255.426038 
L 981.866966 239.348333 
L 982.619326 242.538648 
L 983.371685 245.199016 
L 984.124045 248.720026 
L 987.133483 260.816261 
L 987.885843 247.219179 
L 988.638202 248.500751 
L 989.390562 231.692978 
L 991.64764 243.662958 
L 992.4 227.257797 
L 993.15236 192.130102 
L 995.409438 209.742734 
L 997.666517 224.843373 
L 999.923596 237.790273 
L 1001.428315 245.378593 
L 1002.180674 226.105173 
L 1002.933034 213.768919 
L 1004.437753 124.756475 
L 1005.190112 80.143456 
L 1005.942472 75.46915 
L 1007.447191 98.883781 
L 1008.199551 93.851349 
L 1010.456629 125.480994 
L 1012.713708 152.599466 
L 1014.970787 175.850155 
L 1016.475506 188.497545 
L 1017.980225 200.891906 
L 1018.732584 184.991039 
L 1020.989663 203.621889 
L 1021.742022 193.958427 
L 1023.246742 205.820348 
L 1025.50382 221.356794 
L 1026.25618 219.226905 
L 1027.008539 224.046515 
L 1027.760899 226.879444 
L 1030.017978 239.535952 
L 1031.522697 246.954067 
L 1032.275056 239.671203 
L 1033.027416 243.4686 
L 1033.779775 230.40989 
L 1036.036854 242.562866 
L 1038.293933 252.982524 
L 1040.551011 261.916077 
L 1042.05573 241.753175 
L 1044.312809 252.288317 
L 1046.569888 261.320883 
L 1048.826966 269.065179 
L 1051.084045 275.704941 
L 1053.341124 281.397709 
L 1055.598202 286.278544 
L 1056.350562 287.745576 
L 1057.102921 269.531592 
L 1059.36 276.104833 
L 1061.617079 281.740566 
L 1062.369438 283.434497 
L 1063.121798 248.984266 
L 1063.874157 252.316013 
L 1064.626517 235.127299 
L 1065.378876 134.06249 
L 1066.131236 137.307485 
L 1068.388315 162.739204 
L 1070.645393 184.543717 
L 1072.902472 203.238359 
L 1075.159551 219.266675 
L 1077.416629 233.008953 
L 1079.673708 244.791237 
L 1080.426067 248.332636 
L 1081.178427 235.597717 
L 1081.930787 237.065882 
L 1084.187865 248.269552 
L 1084.940225 251.637032 
L 1085.692584 239.142395 
L 1087.949663 250.049896 
L 1088.702022 221.306215 
L 1090.959101 234.757601 
L 1093.21618 246.29048 
L 1095.473258 256.178484 
L 1097.730337 264.656213 
L 1099.987416 271.924804 
L 1102.244494 278.156713 
L 1104.501573 283.499795 
L 1106.758652 288.080823 
L 1107.511011 289.457741 
L 1108.263371 288.647139 
L 1109.01573 289.995742 
L 1109.76809 275.135791 
L 1112.025169 280.909735 
L 1112.777528 266.787814 
L 1114.282247 271.548872 
L 1114.282247 271.548872 
" clip-path="url(#p3464c25d82)" style="fill: none; stroke: #0000ff; stroke-width: 5; stroke-linecap: square"/>
   </g>
   <g id="patch_11">
    <path d="M 814.090787 336.640156 
L 814.090787 31.720156 
" style="fill: none; stroke: #000000; stroke-width: 5; stroke-linejoin: miter; stroke-linecap: square"/>
   </g>
   <g id="patch_12">
    <path d="M 814.090787 336.640156 
L 1115.034607 336.640156 
" style="fill: none; stroke: #000000; stroke-width: 5; stroke-linejoin: miter; stroke-linecap: square"/>
   </g>
   <g id="patch_13">
    <path d="M 889.326742 330.541756 
L 964.562697 330.541756 
L 964.562697 319.869556 
L 889.326742 319.869556 
z
" style="fill: #8c5a2b; stroke: #8c5a2b; stroke-linejoin: miter"/>
   </g>
   <g id="text_29">
    <!-- Novel | Naive -->
    <g transform="translate(901.26004 21.720156) scale(0.19 -0.19)">
     <use xlink:href="#DejaVuSans-4e"/>
     <use xlink:href="#DejaVuSans-6f" transform="translate(74.804688 0)"/>
     <use xlink:href="#DejaVuSans-76" transform="translate(135.986328 0)"/>
     <use xlink:href="#DejaVuSans-65" transform="translate(195.166016 0)"/>
     <use xlink:href="#DejaVuSans-6c" transform="translate(256.689453 0)"/>
     <use xlink:href="#DejaVuSans-20" transform="translate(284.472656 0)"/>
     <use xlink:href="#DejaVuSans-7c" transform="translate(316.259766 0)"/>
     <use xlink:href="#DejaVuSans-20" transform="translate(349.951172 0)"/>
     <use xlink:href="#DejaVuSans-4e" transform="translate(381.738281 0)"/>
     <use xlink:href="#DejaVuSans-61" transform="translate(456.542969 0)"/>
     <use xlink:href="#DejaVuSans-69" transform="translate(517.822266 0)"/>
     <use xlink:href="#DejaVuSans-76" transform="translate(545.605469 0)"/>
     <use xlink:href="#DejaVuSans-65" transform="translate(604.785156 0)"/>
    </g>
   </g>
  </g>
  <g id="axes_4">
   <g id="patch_14">
    <path d="M 1160.17618 336.640156 
L 1461.12 336.640156 
L 1461.12 31.720156 
L 1160.17618 31.720156 
z
" style="fill: #ffffff"/>
   </g>
   <g id="matplotlib.axis_7">
    <g id="xtick_16">
     <g id="line2d_35">
      <g>
       <use xlink:href="#mee5668eb45" x="1160.17618" y="336.640156" style="stroke: #000000; stroke-width: 1.6"/>
      </g>
     </g>
     <g id="text_30">
      <!-- -1 -->
      <g transform="translate(1144.22368 369.455156) scale(0.32 -0.32)">
       <use xlink:href="#DejaVuSans-2d"/>
       <use xlink:href="#DejaVuSans-31" transform="translate(36.083984 0)"/>
      </g>
     </g>
    </g>
    <g id="xtick_17">
     <g id="line2d_36">
      <g>
       <use xlink:href="#mee5668eb45" x="1235.412135" y="336.640156" style="stroke: #000000; stroke-width: 1.6"/>
      </g>
     </g>
     <g id="text_31">
      <!-- 0 -->
      <g transform="translate(1225.232135 369.455156) scale(0.32 -0.32)">
       <use xlink:href="#DejaVuSans-30"/>
      </g>
     </g>
    </g>
    <g id="xtick_18">
     <g id="line2d_37">
      <g>
       <use xlink:href="#mee5668eb45" x="1310.64809" y="336.640156" style="stroke: #000000; stroke-width: 1.6"/>
      </g>
     </g>
     <g id="text_32">
      <!-- 1 -->
      <g transform="translate(1300.46809 369.455156) scale(0.32 -0.32)">
       <use xlink:href="#DejaVuSans-31"/>
      </g>
     </g>
    </g>
    <g id="xtick_19">
     <g id="line2d_38">
      <g>
       <use xlink:href="#mee5668eb45" x="1385.884045" y="336.640156" style="stroke: #000000; stroke-width: 1.6"/>
      </g>
     </g>
     <g id="text_33">
      <!-- 2 -->
      <g transform="translate(1375.704045 369.455156) scale(0.32 -0.32)">
       <use xlink:href="#DejaVuSans-32"/>
      </g>
     </g>
    </g>
    <g id="xtick_20">
     <g id="line2d_39">
      <g>
       <use xlink:href="#mee5668eb45" x="1461.12" y="336.640156" style="stroke: #000000; stroke-width: 1.6"/>
      </g>
     </g>
     <g id="text_34">
      <!-- 3 -->
      <g transform="translate(1450.94 369.455156) scale(0.32 -0.32)">
       <use xlink:href="#DejaVuSans-33"/>
      </g>
     </g>
    </g>
    <g id="text_35">
     <!-- Time (s) -->
     <g transform="translate(1245.59559 404.425156) scale(0.32 -0.32)">
      <use xlink:href="#DejaVuSans-54"/>
      <use xlink:href="#DejaVuSans-69" transform="translate(57.958984 0)"/>
      <use xlink:href="#DejaVuSans-6d" transform="translate(85.742188 0)"/>
      <use xlink:href="#DejaVuSans-65" transform="translate(183.154297 0)"/>
      <use xlink:href="#DejaVuSans-20" transform="translate(244.677734 0)"/>
      <use xlink:href="#DejaVuSans-28" transform="translate(276.464844 0)"/>
      <use xlink:href="#DejaVuSans-73" transform="translate(315.478516 0)"/>
      <use xlink:href="#DejaVuSans-29" transform="translate(367.578125 0)"/>
     </g>
    </g>
   </g>
   <g id="matplotlib.axis_8">
    <g id="ytick_10">
     <g id="line2d_40">
      <g>
       <use xlink:href="#ma95ba99bee" x="1160.17618" y="315.61917" style="stroke: #000000; stroke-width: 1.6"/>
      </g>
     </g>
    </g>
    <g id="ytick_11">
     <g id="line2d_41">
      <g>
       <use xlink:href="#ma95ba99bee" x="1160.17618" y="218.100426" style="stroke: #000000; stroke-width: 1.6"/>
      </g>
     </g>
    </g>
    <g id="ytick_12">
     <g id="line2d_42">
      <g>
       <use xlink:href="#ma95ba99bee" x="1160.17618" y="120.581683" style="stroke: #000000; stroke-width: 1.6"/>
      </g>
     </g>
    </g>
   </g>
   <g id="line2d_43">
    <path d="M 1160.928539 295.350851 
L 1163.185618 298.241622 
L 1165.442697 300.720095 
L 1167.699775 302.845076 
L 1169.956854 304.666982 
L 1172.213933 306.229039 
L 1174.471011 307.568307 
L 1177.480449 309.061692 
L 1180.489888 310.278063 
L 1183.499326 311.268806 
L 1187.261124 312.252941 
L 1191.022921 313.014446 
L 1195.537079 313.704458 
L 1200.803596 314.282055 
L 1201.555955 314.348911 
L 1202.308315 290.811055 
L 1204.565393 294.349314 
L 1206.822472 297.382928 
L 1209.079551 299.983872 
L 1211.336629 302.213856 
L 1213.593708 304.125789 
L 1215.850787 305.765032 
L 1216.603146 306.25774 
L 1217.355506 294.77976 
L 1219.612584 297.751982 
L 1221.869663 300.30029 
L 1224.126742 302.485147 
L 1226.38382 304.358387 
L 1228.640899 305.964457 
L 1229.393258 288.88991 
L 1230.145618 290.226374 
L 1230.897978 250.532299 
L 1233.155056 259.815318 
L 1235.412135 267.774343 
L 1237.669213 274.59821 
L 1239.926292 280.448825 
L 1242.183371 285.464998 
L 1244.440449 289.765737 
L 1246.697528 293.453086 
L 1248.954607 296.614526 
L 1251.211685 299.325063 
L 1253.468764 301.649011 
L 1255.725843 303.641506 
L 1257.982921 305.349821 
L 1260.24 306.814487 
L 1263.249438 308.447701 
L 1266.258876 309.777964 
L 1269.268315 310.861471 
L 1273.030112 311.937753 
L 1276.79191 312.77056 
L 1281.306067 313.52518 
L 1286.572584 314.156859 
L 1292.591461 314.649043 
L 1300.115056 315.038319 
L 1310.64809 315.335903 
L 1321.933483 315.487935 
L 1322.685843 310.624877 
L 1325.695281 311.551287 
L 1326.44764 311.754682 
L 1327.2 281.412622 
L 1328.704719 284.460418 
L 1330.961798 288.904436 
L 1333.218876 292.714626 
L 1335.475955 295.981388 
L 1336.228315 286.703595 
L 1336.980674 269.174024 
L 1339.237753 275.79826 
L 1339.990112 277.789306 
L 1340.742472 267.34434 
L 1342.247191 190.989675 
L 1342.999551 185.951848 
L 1343.75191 187.971716 
L 1346.008989 206.17744 
L 1347.513708 216.84801 
L 1348.266067 218.304595 
L 1349.018427 200.699192 
L 1349.770787 194.114159 
L 1352.027865 211.443819 
L 1354.284944 226.301838 
L 1356.542022 239.04073 
L 1358.799101 249.962731 
L 1361.05618 259.326981 
L 1363.313258 267.355652 
L 1365.570337 274.239238 
L 1367.827416 280.141054 
L 1368.579775 281.914959 
L 1369.332135 273.342218 
L 1371.589213 279.371971 
L 1373.846292 284.541728 
L 1376.103371 288.974149 
L 1378.360449 292.774398 
L 1380.617528 296.032634 
L 1382.874607 298.826164 
L 1385.131685 301.221267 
L 1387.388764 303.274768 
L 1389.645843 305.035389 
L 1391.902921 306.544901 
L 1394.16 307.839118 
L 1397.169438 309.282269 
L 1398.674157 309.900117 
L 1399.426517 293.501571 
L 1401.683596 296.656094 
L 1403.940674 299.360703 
L 1404.693034 281.97833 
L 1406.950112 286.776357 
L 1409.207191 290.890065 
L 1411.46427 294.417055 
L 1412.216629 295.477161 
L 1412.968989 290.150409 
L 1415.226067 293.782892 
L 1417.483146 296.897292 
L 1419.740225 299.567501 
L 1421.997303 301.85687 
L 1424.254382 303.819719 
L 1425.006742 303.091074 
L 1427.26382 304.877894 
L 1429.520899 306.40987 
L 1431.777978 307.723347 
L 1432.530337 283.75739 
L 1434.787416 288.301678 
L 1437.044494 292.197836 
L 1439.301573 295.538307 
L 1441.558652 298.402342 
L 1443.81573 300.857891 
L 1446.072809 302.963218 
L 1448.329888 304.768274 
L 1450.586966 306.315882 
L 1452.844045 307.642764 
L 1455.853483 309.122338 
L 1458.862921 310.32746 
L 1460.36764 310.843402 
L 1460.36764 310.843402 
" clip-path="url(#p0e71a485c8)" style="fill: none; stroke: #000000; stroke-width: 5; stroke-linecap: square"/>
   </g>
   <g id="line2d_44">
    <path d="M 1160.928539 269.085132 
L 1163.185618 275.722052 
L 1164.690337 279.612021 
L 1165.442697 261.703841 
L 1166.195056 264.105281 
L 1166.947416 204.167625 
L 1167.699775 171.808503 
L 1169.956854 192.319501 
L 1172.213933 209.905122 
L 1174.471011 224.982593 
L 1176.72809 237.90964 
L 1178.985169 248.992962 
L 1180.489888 255.489018 
L 1181.242247 252.5226 
L 1182.746966 239.6414 
L 1185.004045 250.477733 
L 1187.261124 259.768532 
L 1189.518202 267.734232 
L 1191.775281 274.563825 
L 1194.03236 280.419344 
L 1196.289438 285.43972 
L 1197.041798 286.948693 
L 1197.794157 273.797928 
L 1198.546517 275.888991 
L 1199.298876 275.586265 
L 1201.555955 281.295959 
L 1202.308315 273.014675 
L 1203.060674 259.223099 
L 1205.317753 267.266593 
L 1207.574831 274.16288 
L 1208.327191 247.967906 
L 1210.58427 257.616668 
L 1212.088989 263.271913 
L 1212.841348 253.39533 
L 1215.098427 262.270008 
L 1216.603146 267.471549 
L 1217.355506 256.451693 
L 1218.107865 259.410069 
L 1218.860225 214.616301 
L 1219.612584 196.257099 
L 1220.364944 172.163842 
L 1221.117303 176.093875 
L 1221.869663 176.337939 
L 1224.126742 196.202933 
L 1226.38382 213.234681 
L 1227.888539 222.773263 
L 1229.393258 231.825741 
L 1230.145618 230.535514 
L 1231.650337 238.831168 
L 1232.402697 228.192948 
L 1233.155056 197.153088 
L 1234.659775 208.703537 
L 1235.412135 208.296457 
L 1237.669213 223.60337 
L 1238.421573 228.204165 
L 1239.173933 220.163419 
L 1240.678652 229.47036 
L 1241.431011 219.339659 
L 1242.183371 224.153639 
L 1242.93573 208.379641 
L 1243.68809 198.54558 
L 1244.440449 199.951223 
L 1246.697528 216.448369 
L 1247.449888 221.406909 
L 1248.202247 211.383886 
L 1250.459326 226.250451 
L 1252.716404 238.996663 
L 1253.468764 215.540436 
L 1254.221124 199.460788 
L 1256.478202 216.027884 
L 1258.735281 230.232098 
L 1259.48764 216.494179 
L 1261.744719 230.631884 
L 1264.001798 242.753191 
L 1266.258876 253.145708 
L 1267.011236 244.667488 
L 1269.268315 254.786973 
L 1271.525393 263.463165 
L 1273.782472 270.901919 
L 1276.039551 277.279721 
L 1278.296629 282.747885 
L 1280.553708 287.436154 
L 1282.810787 291.455757 
L 1284.315506 293.81169 
L 1285.067865 290.676294 
L 1286.572584 293.108226 
L 1287.324944 250.368502 
L 1288.077303 236.412831 
L 1288.829663 230.683607 
L 1289.582022 222.479092 
L 1291.839101 235.763203 
L 1293.34382 243.549163 
L 1294.09618 239.008406 
L 1294.848539 242.838945 
L 1295.600899 240.60793 
L 1297.105618 247.921524 
L 1297.857978 220.734812 
L 1300.115056 234.267702 
L 1302.372135 245.870459 
L 1303.124494 241.396247 
L 1304.629213 248.632987 
L 1305.381573 240.342963 
L 1306.886292 247.682396 
L 1307.638652 231.858882 
L 1308.391011 236.046893 
L 1309.143371 210.835061 
L 1311.400449 225.779896 
L 1313.657528 238.593225 
L 1315.162247 246.103257 
L 1315.914607 236.816622 
L 1318.171685 248.05584 
L 1319.676404 254.643266 
L 1320.428764 242.627948 
L 1321.181124 179.301024 
L 1321.933483 150.356541 
L 1322.685843 158.619672 
L 1323.438202 164.053862 
L 1325.695281 185.670865 
L 1326.44764 165.591705 
L 1328.704719 186.989374 
L 1330.961798 205.335207 
L 1332.466517 191.927997 
L 1334.723596 209.569456 
L 1336.980674 224.694807 
L 1339.237753 237.662905 
L 1339.990112 206.891777 
L 1340.742472 212.328147 
L 1341.494831 178.404735 
L 1342.247191 167.983932 
L 1344.50427 189.040412 
L 1346.761348 207.093709 
L 1349.018427 222.572148 
L 1349.770787 216.56304 
L 1350.523146 188.642187 
L 1352.027865 112.840288 
L 1354.284944 141.761621 
L 1356.542022 166.558054 
L 1358.799101 187.817901 
L 1361.05618 206.045558 
L 1363.313258 221.673497 
L 1364.817978 230.833199 
L 1365.570337 231.997639 
L 1367.827416 243.924165 
L 1370.084494 254.149666 
L 1371.589213 260.142948 
L 1372.341573 256.892295 
L 1374.598652 265.268213 
L 1376.85573 272.449521 
L 1379.112809 278.606592 
L 1380.617528 282.215319 
L 1381.369888 268.25666 
L 1383.626966 275.011738 
L 1384.379326 277.042109 
L 1385.131685 236.798558 
L 1387.388764 248.04035 
L 1389.645843 257.678786 
L 1391.902921 265.942539 
L 1394.16 273.027672 
L 1395.664719 277.180344 
L 1397.169438 246.703382 
L 1397.921798 200.27611 
L 1398.674157 175.45837 
L 1400.931236 195.448807 
L 1401.683596 201.457324 
L 1402.435955 202.074955 
L 1403.188315 171.610885 
L 1405.445393 192.150064 
L 1407.702472 209.759854 
L 1409.959551 224.858041 
L 1412.216629 237.802852 
L 1414.473708 248.901405 
L 1416.730787 258.417027 
L 1418.987865 266.575487 
L 1421.244944 273.570339 
L 1423.502022 279.567555 
L 1425.006742 283.082587 
L 1425.759101 276.510936 
L 1426.511461 244.060815 
L 1427.26382 244.235655 
L 1428.01618 238.852148 
L 1430.273258 249.80105 
L 1432.530337 259.18836 
L 1434.787416 267.236803 
L 1436.292135 271.954085 
L 1437.044494 247.298194 
L 1439.301573 257.042473 
L 1440.053933 259.971309 
L 1440.806292 249.100177 
L 1441.558652 252.42613 
L 1442.311011 241.404321 
L 1444.56809 251.989215 
L 1445.320449 255.170712 
L 1446.072809 248.590978 
L 1448.329888 258.150875 
L 1450.586966 266.347294 
L 1452.844045 273.374696 
L 1455.101124 279.399815 
L 1455.853483 277.12537 
L 1456.605843 251.024233 
L 1457.358202 254.253978 
L 1458.110562 254.481749 
L 1459.615281 260.442649 
L 1460.36764 259.922701 
L 1460.36764 259.922701 
" clip-path="url(#p0e71a485c8)" style="fill: none; stroke: #ff0000; stroke-width: 5; stroke-linecap: square"/>
   </g>
   <g id="line2d_45">
    <path d="M 1160.928539 301.223807 
L 1163.185618 303.276947 
L 1165.442697 305.037256 
L 1167.699775 306.546502 
L 1169.956854 307.840492 
L 1172.966292 309.283388 
L 1175.97573 310.458636 
L 1178.985169 311.415883 
L 1182.746966 312.366747 
L 1186.508764 313.102507 
L 1188.765843 313.461446 
L 1189.518202 310.440055 
L 1192.52764 311.400749 
L 1196.289438 312.355036 
L 1197.041798 286.554467 
L 1197.794157 244.859585 
L 1198.546517 241.865861 
L 1200.803596 252.384928 
L 1201.555955 255.54664 
L 1202.308315 251.992149 
L 1203.060674 255.1735 
L 1203.813034 202.483506 
L 1206.070112 218.619482 
L 1206.822472 211.708654 
L 1209.079551 226.5289 
L 1211.336629 239.235405 
L 1213.593708 250.129642 
L 1215.850787 259.470083 
L 1218.107865 267.478347 
L 1220.364944 274.344432 
L 1222.622022 280.231244 
L 1224.879101 285.278449 
L 1227.13618 289.605793 
L 1229.393258 293.315952 
L 1230.145618 273.080938 
L 1232.402697 279.147954 
L 1234.659775 284.349661 
L 1236.916854 288.809478 
L 1239.173933 292.633212 
L 1241.431011 295.911583 
L 1243.68809 298.722378 
L 1245.945169 301.132284 
L 1248.202247 303.198478 
L 1250.459326 304.969979 
L 1252.716404 306.48882 
L 1254.973483 307.791037 
L 1257.982921 309.243107 
L 1260.99236 310.425827 
L 1264.001798 311.38916 
L 1267.763596 312.346069 
L 1271.525393 313.086507 
L 1276.039551 313.75743 
L 1281.306067 314.319047 
L 1288.077303 314.799769 
L 1296.353258 315.153094 
L 1307.638652 315.403241 
L 1312.905169 315.468379 
L 1313.657528 285.755611 
L 1315.914607 290.014903 
L 1318.171685 293.666714 
L 1320.428764 296.797682 
L 1322.685843 299.482097 
L 1323.438202 300.288951 
L 1324.190562 299.162084 
L 1324.942921 287.262808 
L 1327.2 291.307133 
L 1329.457079 294.774637 
L 1331.714157 297.747591 
L 1333.971236 300.296525 
L 1335.475955 301.790483 
L 1336.228315 286.571452 
L 1338.485393 290.714385 
L 1340.742472 294.26643 
L 1342.999551 297.311865 
L 1345.256629 299.922944 
L 1346.008989 300.707756 
L 1346.761348 282.641374 
L 1349.018427 287.344833 
L 1349.770787 276.730633 
L 1351.275506 280.522265 
L 1352.027865 263.973195 
L 1352.780225 266.555493 
L 1353.532584 253.714636 
L 1355.789663 262.543771 
L 1358.046742 270.113653 
L 1360.30382 276.603878 
L 1362.560899 282.168435 
L 1364.817978 286.939347 
L 1367.075056 291.029807 
L 1367.827416 292.259275 
L 1368.579775 283.471638 
L 1369.332135 268.020156 
L 1370.084494 214.344836 
L 1370.836854 190.313583 
L 1371.589213 176.476987 
L 1373.846292 196.322145 
L 1376.103371 213.336882 
L 1378.360449 227.924898 
L 1380.617528 240.432295 
L 1382.874607 251.155824 
L 1385.131685 260.349911 
L 1387.388764 268.232687 
L 1389.645843 274.99119 
L 1391.902921 280.785756 
L 1394.16 285.753871 
L 1396.417079 290.013409 
L 1398.674157 293.665431 
L 1400.931236 296.796584 
L 1403.188315 299.481157 
L 1405.445393 301.78284 
L 1407.702472 303.756247 
L 1409.959551 305.448197 
L 1412.216629 306.898832 
L 1415.226067 308.516401 
L 1417.483146 309.529434 
L 1418.235506 273.658004 
L 1418.987865 227.280057 
L 1421.244944 239.879425 
L 1423.502022 250.681809 
L 1425.759101 259.943504 
L 1428.01618 267.884251 
L 1430.273258 274.692446 
L 1432.530337 280.529624 
L 1434.787416 285.534272 
L 1437.044494 289.825132 
L 1439.301573 293.504007 
L 1441.558652 296.658181 
L 1442.311011 297.606231 
L 1443.063371 291.522849 
L 1443.81573 257.2445 
L 1446.072809 265.570185 
L 1446.825169 261.396192 
L 1449.082247 269.129744 
L 1451.339326 275.760302 
L 1453.596404 281.445174 
L 1455.853483 286.319241 
L 1458.110562 290.498146 
L 1460.36764 294.081032 
L 1460.36764 294.081032 
" clip-path="url(#p0e71a485c8)" style="fill: none; stroke: #0000ff; stroke-width: 5; stroke-linecap: square"/>
   </g>
   <g id="patch_15">
    <path d="M 1160.17618 336.640156 
L 1160.17618 31.720156 
" style="fill: none; stroke: #000000; stroke-width: 5; stroke-linejoin: miter; stroke-linecap: square"/>
   </g>
   <g id="patch_16">
    <path d="M 1160.17618 336.640156 
L 1461.12 336.640156 
" style="fill: none; stroke: #000000; stroke-width: 5; stroke-linejoin: miter; stroke-linecap: square"/>
   </g>
   <g id="patch_17">
    <path d="M 1235.412135 330.541756 
L 1310.64809 330.541756 
L 1310.64809 319.869556 
L 1235.412135 319.869556 
z
" style="fill: #8c5a2b; stroke: #8c5a2b; stroke-linejoin: miter"/>
   </g>
   <g id="text_36">
    <!-- Novel | Expert -->
    <g transform="translate(1243.250043 21.720156) scale(0.19 -0.19)">
     <use xlink:href="#DejaVuSans-4e"/>
     <use xlink:href="#DejaVuSans-6f" transform="translate(74.804688 0)"/>
     <use xlink:href="#DejaVuSans-76" transform="translate(135.986328 0)"/>
     <use xlink:href="#DejaVuSans-65" transform="translate(195.166016 0)"/>
     <use xlink:href="#DejaVuSans-6c" transform="translate(256.689453 0)"/>
     <use xlink:href="#DejaVuSans-20" transform="translate(284.472656 0)"/>
     <use xlink:href="#DejaVuSans-7c" transform="translate(316.259766 0)"/>
     <use xlink:href="#DejaVuSans-20" transform="translate(349.951172 0)"/>
     <use xlink:href="#DejaVuSans-45" transform="translate(381.738281 0)"/>
     <use xlink:href="#DejaVuSans-78" transform="translate(444.921875 0)"/>
     <use xlink:href="#DejaVuSans-70" transform="translate(504.101562 0)"/>
     <use xlink:href="#DejaVuSans-65" transform="translate(567.578125 0)"/>
     <use xlink:href="#DejaVuSans-72" transform="translate(629.101562 0)"/>
     <use xlink:href="#DejaVuSans-74" transform="translate(670.214844 0)"/>
    </g>
   </g>
  </g>
 </g>
 <defs>
  <clipPath id="p99260fdcab">
   <rect x="121.92" y="31.720156" width="300.94382" height="304.92"/>
  </clipPath>
  <clipPath id="pe0ee57900a">
   <rect x="468.005393" y="31.720156" width="300.94382" height="304.92"/>
  </clipPath>
  <clipPath id="p3464c25d82">
   <rect x="814.090787" y="31.720156" width="300.94382" height="304.92"/>
  </clipPath>
  <clipPath id="p0e71a485c8">
   <rect x="1160.17618" y="31.720156" width="300.94382" height="304.92"/>
  </clipPath>
 </defs>
</svg>
