<?xml version="1.0" encoding="utf-8" standalone="no"?>
<!DOCTYPE svg PUBLIC "-//W3C//DTD SVG 1.1//EN"
  "http://www.w3.org/Graphics/SVG/1.1/DTD/svg11.dtd">
<svg xmlns:xlink="http://www.w3.org/1999/xlink" width="872.39952pt" height="404.39952pt" viewBox="0 0 872.39952 404.39952" xmlns="http://www.w3.org/2000/svg" version="1.1">
 <metadata>
  <rdf:RDF xmlns:dc="http://purl.org/dc/elements/1.1/" xmlns:cc="http://creativecommons.org/ns#" xmlns:rdf="http://www.w3.org/1999/02/22-rdf-syntax-ns#">
   <cc:Work>
    <dc:type rdf:resource="http://purl.org/dc/dcmitype/StillImage"/>
    <dc:date>2026-03-25T17:17:24.740924</dc:date>
    <dc:format>image/svg+xml</dc:format>
    <dc:creator>
     <cc:Agent>
      <dc:title>Matplotlib v3.10.7, https://matplotlib.org/</dc:title>
     </cc:Agent>
    </dc:creator>
   </cc:Work>
  </rdf:RDF>
 </metadata>
 <defs>
  <style type="text/css">*{stroke-linejoin: round; stroke-linecap: butt}</style>
 </defs>
 <g id="figure_1">
  <g id="patch_1">
   <path d="M 0 404.39952 
L 872.39952 404.39952 
L 872.39952 0 
L 0 0 
z
" style="fill: #ffffff"/>
  </g>
  <g id="axes_1">
   <g id="patch_2">
    <path d="M 142.28 322.75952 
L 481.26351 322.75952 
L 481.26351 31.720156 
L 142.28 31.720156 
z
" style="fill: #ffffff"/>
   </g>
   <g id="matplotlib.axis_1">
    <g id="xtick_1">
     <g id="line2d_1">
      <defs>
       <path id="ma85b2d146d" d="M 0 0 
L 0 5 
" style="stroke: #000000; stroke-width: 1.6"/>
      </defs>
      <g>
       <use xlink:href="#ma85b2d146d" x="142.28" y="322.75952" style="stroke: #000000; stroke-width: 1.6"/>
      </g>
     </g>
     <g id="text_1">
      <!-- -1 -->
      <g transform="translate(126.3275 355.57452) scale(0.32 -0.32)">
       <defs>
        <path id="DejaVuSans-2d" d="M 313 2009 
L 1997 2009 
L 1997 1497 
L 313 1497 
L 313 2009 
z
" transform="scale(0.015625)"/>
        <path id="DejaVuSans-31" d="M 794 531 
L 1825 531 
L 1825 4091 
L 703 3866 
L 703 4441 
L 1819 4666 
L 2450 4666 
L 2450 531 
L 3481 531 
L 3481 0 
L 794 0 
L 794 531 
z
" transform="scale(0.015625)"/>
       </defs>
       <use xlink:href="#DejaVuSans-2d"/>
       <use xlink:href="#DejaVuSans-31" transform="translate(36.083984 0)"/>
      </g>
     </g>
    </g>
    <g id="xtick_2">
     <g id="line2d_2">
      <g>
       <use xlink:href="#ma85b2d146d" x="227.025877" y="322.75952" style="stroke: #000000; stroke-width: 1.6"/>
      </g>
     </g>
     <g id="text_2">
      <!-- 0 -->
      <g transform="translate(216.845877 355.57452) scale(0.32 -0.32)">
       <defs>
        <path id="DejaVuSans-30" d="M 2034 4250 
Q 1547 4250 1301 3770 
Q 1056 3291 1056 2328 
Q 1056 1369 1301 889 
Q 1547 409 2034 409 
Q 2525 409 2770 889 
Q 3016 1369 3016 2328 
Q 3016 3291 2770 3770 
Q 2525 4250 2034 4250 
z
M 2034 4750 
Q 2819 4750 3233 4129 
Q 3647 3509 3647 2328 
Q 3647 1150 3233 529 
Q 2819 -91 2034 -91 
Q 1250 -91 836 529 
Q 422 1150 422 2328 
Q 422 3509 836 4129 
Q 1250 4750 2034 4750 
z
" transform="scale(0.015625)"/>
       </defs>
       <use xlink:href="#DejaVuSans-30"/>
      </g>
     </g>
    </g>
    <g id="xtick_3">
     <g id="line2d_3">
      <g>
       <use xlink:href="#ma85b2d146d" x="311.771755" y="322.75952" style="stroke: #000000; stroke-width: 1.6"/>
      </g>
     </g>
     <g id="text_3">
      <!-- 1 -->
      <g transform="translate(301.591755 355.57452) scale(0.32 -0.32)">
       <use xlink:href="#DejaVuSans-31"/>
      </g>
     </g>
    </g>
    <g id="xtick_4">
     <g id="line2d_4">
      <g>
       <use xlink:href="#ma85b2d146d" x="396.517632" y="322.75952" style="stroke: #000000; stroke-width: 1.6"/>
      </g>
     </g>
     <g id="text_4">
      <!-- 2 -->
      <g transform="translate(386.337632 355.57452) scale(0.32 -0.32)">
       <defs>
        <path id="DejaVuSans-32" d="M 1228 531 
L 3431 531 
L 3431 0 
L 469 0 
L 469 531 
Q 828 903 1448 1529 
Q 2069 2156 2228 2338 
Q 2531 2678 2651 2914 
Q 2772 3150 2772 3378 
Q 2772 3750 2511 3984 
Q 2250 4219 1831 4219 
Q 1534 4219 1204 4116 
Q 875 4013 500 3803 
L 500 4441 
Q 881 4594 1212 4672 
Q 1544 4750 1819 4750 
Q 2544 4750 2975 4387 
Q 3406 4025 3406 3419 
Q 3406 3131 3298 2873 
Q 3191 2616 2906 2266 
Q 2828 2175 2409 1742 
Q 1991 1309 1228 531 
z
" transform="scale(0.015625)"/>
       </defs>
       <use xlink:href="#DejaVuSans-32"/>
      </g>
     </g>
    </g>
    <g id="xtick_5">
     <g id="line2d_5">
      <g>
       <use xlink:href="#ma85b2d146d" x="481.26351" y="322.75952" style="stroke: #000000; stroke-width: 1.6"/>
      </g>
     </g>
     <g id="text_5">
      <!-- 3 -->
      <g transform="translate(471.08351 355.57452) scale(0.32 -0.32)">
       <defs>
        <path id="DejaVuSans-33" d="M 2597 2516 
Q 3050 2419 3304 2112 
Q 3559 1806 3559 1356 
Q 3559 666 3084 287 
Q 2609 -91 1734 -91 
Q 1441 -91 1130 -33 
Q 819 25 488 141 
L 488 750 
Q 750 597 1062 519 
Q 1375 441 1716 441 
Q 2309 441 2620 675 
Q 2931 909 2931 1356 
Q 2931 1769 2642 2001 
Q 2353 2234 1838 2234 
L 1294 2234 
L 1294 2753 
L 1863 2753 
Q 2328 2753 2575 2939 
Q 2822 3125 2822 3475 
Q 2822 3834 2567 4026 
Q 2313 4219 1838 4219 
Q 1578 4219 1281 4162 
Q 984 4106 628 3988 
L 628 4550 
Q 988 4650 1302 4700 
Q 1616 4750 1894 4750 
Q 2613 4750 3031 4423 
Q 3450 4097 3450 3541 
Q 3450 3153 3228 2886 
Q 3006 2619 2597 2516 
z
" transform="scale(0.015625)"/>
       </defs>
       <use xlink:href="#DejaVuSans-33"/>
      </g>
     </g>
    </g>
    <g id="text_6">
     <!-- Time (s) -->
     <g transform="translate(246.719255 390.54452) scale(0.32 -0.32)">
      <defs>
       <path id="DejaVuSans-54" d="M -19 4666 
L 3928 4666 
L 3928 4134 
L 2272 4134 
L 2272 0 
L 1638 0 
L 1638 4134 
L -19 4134 
L -19 4666 
z
" transform="scale(0.015625)"/>
       <path id="DejaVuSans-69" d="M 603 3500 
L 1178 3500 
L 1178 0 
L 603 0 
L 603 3500 
z
M 603 4863 
L 1178 4863 
L 1178 4134 
L 603 4134 
L 603 4863 
z
" transform="scale(0.015625)"/>
       <path id="DejaVuSans-6d" d="M 3328 2828 
Q 3544 3216 3844 3400 
Q 4144 3584 4550 3584 
Q 5097 3584 5394 3201 
Q 5691 2819 5691 2113 
L 5691 0 
L 5113 0 
L 5113 2094 
Q 5113 2597 4934 2840 
Q 4756 3084 4391 3084 
Q 3944 3084 3684 2787 
Q 3425 2491 3425 1978 
L 3425 0 
L 2847 0 
L 2847 2094 
Q 2847 2600 2669 2842 
Q 2491 3084 2119 3084 
Q 1678 3084 1418 2786 
Q 1159 2488 1159 1978 
L 1159 0 
L 581 0 
L 581 3500 
L 1159 3500 
L 1159 2956 
Q 1356 3278 1631 3431 
Q 1906 3584 2284 3584 
Q 2666 3584 2933 3390 
Q 3200 3197 3328 2828 
z
" transform="scale(0.015625)"/>
       <path id="DejaVuSans-65" d="M 3597 1894 
L 3597 1613 
L 953 1613 
Q 991 1019 1311 708 
Q 1631 397 2203 397 
Q 2534 397 2845 478 
Q 3156 559 3463 722 
L 3463 178 
Q 3153 47 2828 -22 
Q 2503 -91 2169 -91 
Q 1331 -91 842 396 
Q 353 884 353 1716 
Q 353 2575 817 3079 
Q 1281 3584 2069 3584 
Q 2775 3584 3186 3129 
Q 3597 2675 3597 1894 
z
M 3022 2063 
Q 3016 2534 2758 2815 
Q 2500 3097 2075 3097 
Q 1594 3097 1305 2825 
Q 1016 2553 972 2059 
L 3022 2063 
z
" transform="scale(0.015625)"/>
       <path id="DejaVuSans-20" transform="scale(0.015625)"/>
       <path id="DejaVuSans-28" d="M 1984 4856 
Q 1566 4138 1362 3434 
Q 1159 2731 1159 2009 
Q 1159 1288 1364 580 
Q 1569 -128 1984 -844 
L 1484 -844 
Q 1016 -109 783 600 
Q 550 1309 550 2009 
Q 550 2706 781 3412 
Q 1013 4119 1484 4856 
L 1984 4856 
z
" transform="scale(0.015625)"/>
       <path id="DejaVuSans-73" d="M 2834 3397 
L 2834 2853 
Q 2591 2978 2328 3040 
Q 2066 3103 1784 3103 
Q 1356 3103 1142 2972 
Q 928 2841 928 2578 
Q 928 2378 1081 2264 
Q 1234 2150 1697 2047 
L 1894 2003 
Q 2506 1872 2764 1633 
Q 3022 1394 3022 966 
Q 3022 478 2636 193 
Q 2250 -91 1575 -91 
Q 1294 -91 989 -36 
Q 684 19 347 128 
L 347 722 
Q 666 556 975 473 
Q 1284 391 1588 391 
Q 1994 391 2212 530 
Q 2431 669 2431 922 
Q 2431 1156 2273 1281 
Q 2116 1406 1581 1522 
L 1381 1569 
Q 847 1681 609 1914 
Q 372 2147 372 2553 
Q 372 3047 722 3315 
Q 1072 3584 1716 3584 
Q 2034 3584 2315 3537 
Q 2597 3491 2834 3397 
z
" transform="scale(0.015625)"/>
       <path id="DejaVuSans-29" d="M 513 4856 
L 1013 4856 
Q 1481 4119 1714 3412 
Q 1947 2706 1947 2009 
Q 1947 1309 1714 600 
Q 1481 -109 1013 -844 
L 513 -844 
Q 928 -128 1133 580 
Q 1338 1288 1338 2009 
Q 1338 2731 1133 3434 
Q 928 4138 513 4856 
z
" transform="scale(0.015625)"/>
      </defs>
      <use xlink:href="#DejaVuSans-54"/>
      <use xlink:href="#DejaVuSans-69" transform="translate(57.958984 0)"/>
      <use xlink:href="#DejaVuSans-6d" transform="translate(85.742188 0)"/>
      <use xlink:href="#DejaVuSans-65" transform="translate(183.154297 0)"/>
      <use xlink:href="#DejaVuSans-20" transform="translate(244.677734 0)"/>
      <use xlink:href="#DejaVuSans-28" transform="translate(276.464844 0)"/>
      <use xlink:href="#DejaVuSans-73" transform="translate(315.478516 0)"/>
      <use xlink:href="#DejaVuSans-29" transform="translate(367.578125 0)"/>
     </g>
    </g>
   </g>
   <g id="matplotlib.axis_2">
    <g id="ytick_1">
     <g id="line2d_6">
      <defs>
       <path id="m7cb3100a04" d="M 0 0 
L -5 0 
" style="stroke: #000000; stroke-width: 1.6"/>
      </defs>
      <g>
       <use xlink:href="#m7cb3100a04" x="142.28" y="302.702455" style="stroke: #000000; stroke-width: 1.6"/>
      </g>
     </g>
     <g id="text_7">
      <!-- 0.000 -->
      <g transform="translate(42.17 314.859955) scale(0.32 -0.32)">
       <defs>
        <path id="DejaVuSans-2e" d="M 684 794 
L 1344 794 
L 1344 0 
L 684 0 
L 684 794 
z
" transform="scale(0.015625)"/>
       </defs>
       <use xlink:href="#DejaVuSans-30"/>
       <use xlink:href="#DejaVuSans-2e" transform="translate(63.623047 0)"/>
       <use xlink:href="#DejaVuSans-30" transform="translate(95.410156 0)"/>
       <use xlink:href="#DejaVuSans-30" transform="translate(159.033203 0)"/>
       <use xlink:href="#DejaVuSans-30" transform="translate(222.65625 0)"/>
      </g>
     </g>
    </g>
    <g id="ytick_2">
     <g id="line2d_7">
      <g>
       <use xlink:href="#m7cb3100a04" x="142.28" y="227.136264" style="stroke: #000000; stroke-width: 1.6"/>
      </g>
     </g>
     <g id="text_8">
      <!-- 0.025 -->
      <g transform="translate(42.17 239.293764) scale(0.32 -0.32)">
       <defs>
        <path id="DejaVuSans-35" d="M 691 4666 
L 3169 4666 
L 3169 4134 
L 1269 4134 
L 1269 2991 
Q 1406 3038 1543 3061 
Q 1681 3084 1819 3084 
Q 2600 3084 3056 2656 
Q 3513 2228 3513 1497 
Q 3513 744 3044 326 
Q 2575 -91 1722 -91 
Q 1428 -91 1123 -41 
Q 819 9 494 109 
L 494 744 
Q 775 591 1075 516 
Q 1375 441 1709 441 
Q 2250 441 2565 725 
Q 2881 1009 2881 1497 
Q 2881 1984 2565 2268 
Q 2250 2553 1709 2553 
Q 1456 2553 1204 2497 
Q 953 2441 691 2322 
L 691 4666 
z
" transform="scale(0.015625)"/>
       </defs>
       <use xlink:href="#DejaVuSans-30"/>
       <use xlink:href="#DejaVuSans-2e" transform="translate(63.623047 0)"/>
       <use xlink:href="#DejaVuSans-30" transform="translate(95.410156 0)"/>
       <use xlink:href="#DejaVuSans-32" transform="translate(159.033203 0)"/>
       <use xlink:href="#DejaVuSans-35" transform="translate(222.65625 0)"/>
      </g>
     </g>
    </g>
    <g id="ytick_3">
     <g id="line2d_8">
      <g>
       <use xlink:href="#m7cb3100a04" x="142.28" y="151.570074" style="stroke: #000000; stroke-width: 1.6"/>
      </g>
     </g>
     <g id="text_9">
      <!-- 0.050 -->
      <g transform="translate(42.17 163.727574) scale(0.32 -0.32)">
       <use xlink:href="#DejaVuSans-30"/>
       <use xlink:href="#DejaVuSans-2e" transform="translate(63.623047 0)"/>
       <use xlink:href="#DejaVuSans-30" transform="translate(95.410156 0)"/>
       <use xlink:href="#DejaVuSans-35" transform="translate(159.033203 0)"/>
       <use xlink:href="#DejaVuSans-30" transform="translate(222.65625 0)"/>
      </g>
     </g>
    </g>
    <g id="ytick_4">
     <g id="line2d_9">
      <g>
       <use xlink:href="#m7cb3100a04" x="142.28" y="76.003883" style="stroke: #000000; stroke-width: 1.6"/>
      </g>
     </g>
     <g id="text_10">
      <!-- 0.075 -->
      <g transform="translate(42.17 88.161383) scale(0.32 -0.32)">
       <defs>
        <path id="DejaVuSans-37" d="M 525 4666 
L 3525 4666 
L 3525 4397 
L 1831 0 
L 1172 0 
L 2766 4134 
L 525 4134 
L 525 4666 
z
" transform="scale(0.015625)"/>
       </defs>
       <use xlink:href="#DejaVuSans-30"/>
       <use xlink:href="#DejaVuSans-2e" transform="translate(63.623047 0)"/>
       <use xlink:href="#DejaVuSans-30" transform="translate(95.410156 0)"/>
       <use xlink:href="#DejaVuSans-37" transform="translate(159.033203 0)"/>
       <use xlink:href="#DejaVuSans-35" transform="translate(222.65625 0)"/>
      </g>
     </g>
    </g>
    <g id="text_11">
     <!-- Neural Activity -->
     <g transform="translate(31.515 294.944838) rotate(-90) scale(0.32 -0.32)">
      <defs>
       <path id="DejaVuSans-4e" d="M 628 4666 
L 1478 4666 
L 3547 763 
L 3547 4666 
L 4159 4666 
L 4159 0 
L 3309 0 
L 1241 3903 
L 1241 0 
L 628 0 
L 628 4666 
z
" transform="scale(0.015625)"/>
       <path id="DejaVuSans-75" d="M 544 1381 
L 544 3500 
L 1119 3500 
L 1119 1403 
Q 1119 906 1312 657 
Q 1506 409 1894 409 
Q 2359 409 2629 706 
Q 2900 1003 2900 1516 
L 2900 3500 
L 3475 3500 
L 3475 0 
L 2900 0 
L 2900 538 
Q 2691 219 2414 64 
Q 2138 -91 1772 -91 
Q 1169 -91 856 284 
Q 544 659 544 1381 
z
M 1991 3584 
L 1991 3584 
z
" transform="scale(0.015625)"/>
       <path id="DejaVuSans-72" d="M 2631 2963 
Q 2534 3019 2420 3045 
Q 2306 3072 2169 3072 
Q 1681 3072 1420 2755 
Q 1159 2438 1159 1844 
L 1159 0 
L 581 0 
L 581 3500 
L 1159 3500 
L 1159 2956 
Q 1341 3275 1631 3429 
Q 1922 3584 2338 3584 
Q 2397 3584 2469 3576 
Q 2541 3569 2628 3553 
L 2631 2963 
z
" transform="scale(0.015625)"/>
       <path id="DejaVuSans-61" d="M 2194 1759 
Q 1497 1759 1228 1600 
Q 959 1441 959 1056 
Q 959 750 1161 570 
Q 1363 391 1709 391 
Q 2188 391 2477 730 
Q 2766 1069 2766 1631 
L 2766 1759 
L 2194 1759 
z
M 3341 1997 
L 3341 0 
L 2766 0 
L 2766 531 
Q 2569 213 2275 61 
Q 1981 -91 1556 -91 
Q 1019 -91 701 211 
Q 384 513 384 1019 
Q 384 1609 779 1909 
Q 1175 2209 1959 2209 
L 2766 2209 
L 2766 2266 
Q 2766 2663 2505 2880 
Q 2244 3097 1772 3097 
Q 1472 3097 1187 3025 
Q 903 2953 641 2809 
L 641 3341 
Q 956 3463 1253 3523 
Q 1550 3584 1831 3584 
Q 2591 3584 2966 3190 
Q 3341 2797 3341 1997 
z
" transform="scale(0.015625)"/>
       <path id="DejaVuSans-6c" d="M 603 4863 
L 1178 4863 
L 1178 0 
L 603 0 
L 603 4863 
z
" transform="scale(0.015625)"/>
       <path id="DejaVuSans-41" d="M 2188 4044 
L 1331 1722 
L 3047 1722 
L 2188 4044 
z
M 1831 4666 
L 2547 4666 
L 4325 0 
L 3669 0 
L 3244 1197 
L 1141 1197 
L 716 0 
L 50 0 
L 1831 4666 
z
" transform="scale(0.015625)"/>
       <path id="DejaVuSans-63" d="M 3122 3366 
L 3122 2828 
Q 2878 2963 2633 3030 
Q 2388 3097 2138 3097 
Q 1578 3097 1268 2742 
Q 959 2388 959 1747 
Q 959 1106 1268 751 
Q 1578 397 2138 397 
Q 2388 397 2633 464 
Q 2878 531 3122 666 
L 3122 134 
Q 2881 22 2623 -34 
Q 2366 -91 2075 -91 
Q 1284 -91 818 406 
Q 353 903 353 1747 
Q 353 2603 823 3093 
Q 1294 3584 2113 3584 
Q 2378 3584 2631 3529 
Q 2884 3475 3122 3366 
z
" transform="scale(0.015625)"/>
       <path id="DejaVuSans-74" d="M 1172 4494 
L 1172 3500 
L 2356 3500 
L 2356 3053 
L 1172 3053 
L 1172 1153 
Q 1172 725 1289 603 
Q 1406 481 1766 481 
L 2356 481 
L 2356 0 
L 1766 0 
Q 1100 0 847 248 
Q 594 497 594 1153 
L 594 3053 
L 172 3053 
L 172 3500 
L 594 3500 
L 594 4494 
L 1172 4494 
z
" transform="scale(0.015625)"/>
       <path id="DejaVuSans-76" d="M 191 3500 
L 800 3500 
L 1894 563 
L 2988 3500 
L 3597 3500 
L 2284 0 
L 1503 0 
L 191 3500 
z
" transform="scale(0.015625)"/>
       <path id="DejaVuSans-79" d="M 2059 -325 
Q 1816 -950 1584 -1140 
Q 1353 -1331 966 -1331 
L 506 -1331 
L 506 -850 
L 844 -850 
Q 1081 -850 1212 -737 
Q 1344 -625 1503 -206 
L 1606 56 
L 191 3500 
L 800 3500 
L 1894 763 
L 2988 3500 
L 3597 3500 
L 2059 -325 
z
" transform="scale(0.015625)"/>
      </defs>
      <use xlink:href="#DejaVuSans-4e"/>
      <use xlink:href="#DejaVuSans-65" transform="translate(74.804688 0)"/>
      <use xlink:href="#DejaVuSans-75" transform="translate(136.328125 0)"/>
      <use xlink:href="#DejaVuSans-72" transform="translate(199.707031 0)"/>
      <use xlink:href="#DejaVuSans-61" transform="translate(240.820312 0)"/>
      <use xlink:href="#DejaVuSans-6c" transform="translate(302.099609 0)"/>
      <use xlink:href="#DejaVuSans-20" transform="translate(329.882812 0)"/>
      <use xlink:href="#DejaVuSans-41" transform="translate(361.669922 0)"/>
      <use xlink:href="#DejaVuSans-63" transform="translate(428.328125 0)"/>
      <use xlink:href="#DejaVuSans-74" transform="translate(483.308594 0)"/>
      <use xlink:href="#DejaVuSans-69" transform="translate(522.517578 0)"/>
      <use xlink:href="#DejaVuSans-76" transform="translate(550.300781 0)"/>
      <use xlink:href="#DejaVuSans-69" transform="translate(609.480469 0)"/>
      <use xlink:href="#DejaVuSans-74" transform="translate(637.263672 0)"/>
      <use xlink:href="#DejaVuSans-79" transform="translate(676.472656 0)"/>
     </g>
    </g>
   </g>
   <g id="line2d_10">
    <path d="M 143.127459 290.646027 
L 145.669835 292.365576 
L 148.212211 293.839874 
L 149.05967 294.283003 
L 149.907129 289.356869 
L 151.602047 290.658063 
L 152.449505 283.463803 
L 153.296964 279.549023 
L 154.991882 281.806483 
L 155.83934 276.299343 
L 158.381717 280.065088 
L 160.076634 282.272232 
L 160.924093 281.593049 
L 162.619011 283.651217 
L 163.466469 278.13881 
L 164.313928 274.004053 
L 165.161387 266.550559 
L 166.856304 270.075369 
L 169.398681 274.72881 
L 171.941057 278.718552 
L 174.483433 282.139257 
L 175.330892 283.167416 
L 176.178351 280.686009 
L 178.720727 283.826105 
L 179.568186 281.267414 
L 182.110562 284.324588 
L 183.80548 286.11643 
L 184.652939 284.245 
L 185.500398 273.786488 
L 188.042774 277.91063 
L 190.58515 281.446565 
L 191.432609 272.890877 
L 193.974985 277.142755 
L 196.517362 280.788209 
L 199.059738 283.91373 
L 201.602114 286.593471 
L 204.144491 288.891015 
L 206.686867 290.860873 
L 209.229243 292.549778 
L 210.076702 292.457059 
L 210.924161 290.353074 
L 212.619078 291.557139 
L 213.466537 282.981691 
L 216.008913 285.794366 
L 216.856372 283.669253 
L 217.703831 284.620914 
L 218.55129 267.319088 
L 220.246207 248.186251 
L 221.093666 248.847317 
L 222.788584 254.098192 
L 224.483501 258.837109 
L 226.178419 263.113979 
L 227.873336 266.973857 
L 229.568254 270.457398 
L 232.11063 275.05635 
L 234.653006 278.999377 
L 237.195383 282.380029 
L 239.737759 285.278514 
L 242.280135 287.763606 
L 244.822512 289.894258 
L 247.364888 291.721028 
L 249.907264 293.287254 
L 252.449641 294.630098 
L 255.839476 296.12747 
L 259.229311 297.347088 
L 262.619146 298.340476 
L 266.85644 299.327239 
L 271.093734 300.090777 
L 276.178486 300.782632 
L 282.110698 301.361771 
L 289.737827 301.85749 
L 299.059873 302.221839 
L 311.771755 302.47979 
L 318.551425 302.554734 
L 319.398884 299.683774 
L 320.246343 292.235821 
L 322.788719 293.728625 
L 324.483637 294.603574 
L 325.331095 283.857189 
L 326.178554 277.092562 
L 327.873472 279.589527 
L 328.720931 273.888768 
L 329.568389 275.329453 
L 330.415848 273.062911 
L 331.263307 264.073478 
L 332.110766 266.004928 
L 332.958224 267.007748 
L 334.653142 270.487984 
L 335.500601 270.456444 
L 336.348059 272.068744 
L 337.195518 267.020658 
L 338.042977 268.804747 
L 338.890436 269.130717 
L 339.737895 270.809303 
L 340.585353 266.447399 
L 341.432812 263.520468 
L 343.12773 267.340713 
L 343.975188 269.108802 
L 344.822647 270.453865 
L 347.365024 275.053321 
L 349.9074 278.996781 
L 352.449776 282.377803 
L 353.297235 281.80808 
L 355.839611 284.788142 
L 357.534529 286.534788 
L 358.381988 283.36751 
L 360.924364 286.125158 
L 363.46674 288.489494 
L 366.009117 290.516618 
L 367.704034 291.704737 
L 368.551493 284.081466 
L 369.398952 285.012517 
L 370.24641 282.180012 
L 371.093869 266.399236 
L 371.941328 258.458596 
L 373.636246 262.772372 
L 375.331163 266.665558 
L 377.026081 270.179158 
L 377.873539 270.890304 
L 378.720998 272.480911 
L 379.568457 268.194349 
L 380.415916 261.200043 
L 382.110833 265.246528 
L 383.805751 268.898483 
L 385.500668 272.194369 
L 388.043045 276.545585 
L 390.585421 280.276209 
L 393.127797 283.474753 
L 395.670174 286.217106 
L 398.21255 288.56833 
L 399.060009 285.061568 
L 399.907468 275.871003 
L 400.754926 276.575388 
L 403.297303 280.301761 
L 405.839679 283.496662 
L 408.382055 286.235888 
L 410.924432 288.584432 
L 413.466808 290.598016 
L 415.161726 291.7782 
L 416.009184 291.769531 
L 416.856643 287.686849 
L 419.399019 289.828451 
L 421.093937 291.083666 
L 421.941396 289.754153 
L 422.788855 284.477604 
L 425.331231 287.076924 
L 427.873607 289.305515 
L 428.721066 289.975363 
L 429.568525 286.026303 
L 432.110901 288.40474 
L 432.95836 289.119626 
L 433.805819 277.591005 
L 434.653277 270.028262 
L 437.195654 274.688419 
L 438.890571 277.41979 
L 439.73803 276.198119 
L 442.280406 279.978301 
L 443.975324 282.193907 
L 444.822783 282.257514 
L 447.365159 285.173475 
L 449.907535 287.673546 
L 452.449912 289.817046 
L 454.992288 291.654827 
L 457.534664 293.230496 
L 460.077041 294.581435 
L 463.466876 296.087833 
L 464.314334 285.41286 
L 466.009252 287.098596 
L 467.70417 264.268475 
L 468.551628 259.664636 
L 470.246546 263.860823 
L 471.941463 267.647884 
L 472.788922 269.400613 
L 473.636381 257.586131 
L 475.331299 239.900927 
L 476.178757 221.48342 
L 477.873675 229.402279 
L 479.568592 236.549047 
L 480.416051 239.85672 
L 480.416051 239.85672 
" clip-path="url(#pe7ed35d279)" style="fill: none; stroke: #000000; stroke-width: 5; stroke-linecap: square"/>
   </g>
   <g id="line2d_11">
    <path d="M 143.127459 259.35235 
L 143.974918 241.866126 
L 144.822376 233.162028 
L 145.669835 232.568665 
L 146.517294 235.229949 
L 148.212211 241.808519 
L 149.05967 244.853215 
L 149.907129 244.668445 
L 151.602047 221.595572 
L 153.296964 229.503498 
L 154.991882 236.640401 
L 156.686799 243.08145 
L 158.381717 248.894503 
L 160.076634 254.140779 
L 161.771552 258.875543 
L 162.619011 261.06689 
L 163.466469 256.42395 
L 164.313928 248.47739 
L 166.008846 253.764332 
L 167.703763 258.535799 
L 169.398681 262.84205 
L 171.093598 266.72844 
L 171.941057 268.527143 
L 172.788516 263.018079 
L 173.635975 262.703763 
L 174.483433 247.858207 
L 175.330892 243.853643 
L 177.02581 249.591405 
L 178.720727 254.769736 
L 180.415645 259.443178 
L 181.263104 258.956786 
L 182.958021 263.22199 
L 184.652939 267.071337 
L 186.347856 270.545372 
L 188.890233 275.131777 
L 191.432609 279.064047 
L 193.127527 281.368793 
L 193.974985 276.68473 
L 194.822444 266.05112 
L 196.517362 269.624627 
L 197.36482 271.27852 
L 198.212279 264.534307 
L 199.059738 263.912837 
L 199.907197 265.852318 
L 200.754655 265.807871 
L 202.449573 269.405092 
L 204.144491 272.651585 
L 206.686867 276.93759 
L 207.534326 278.225835 
L 208.381784 268.243365 
L 209.229243 266.895278 
L 210.924161 270.386478 
L 213.466537 274.995545 
L 216.008913 278.947245 
L 216.856372 280.135006 
L 218.55129 252.338848 
L 219.398749 253.0106 
L 221.093666 257.855557 
L 222.788584 262.228131 
L 224.483501 266.174377 
L 226.178419 269.735867 
L 227.873336 272.950111 
L 230.415713 277.193541 
L 232.958089 280.831751 
L 233.805548 281.925287 
L 234.653006 278.754123 
L 237.195383 282.169755 
L 239.737759 285.098232 
L 240.585218 277.091357 
L 241.432677 278.145682 
L 242.280135 272.6789 
L 244.822512 276.961009 
L 245.669971 278.248082 
L 246.517429 274.751147 
L 247.364888 273.097347 
L 249.059806 275.798141 
L 249.907264 275.658511 
L 252.449641 279.515655 
L 254.992017 282.822673 
L 257.534393 285.658027 
L 260.07677 288.088989 
L 260.924229 288.611997 
L 261.771687 289.316521 
L 262.619146 286.6373 
L 263.466605 269.721677 
L 265.161522 272.937303 
L 267.703899 277.182557 
L 270.246275 280.822335 
L 272.788651 283.942988 
L 275.331028 286.618558 
L 277.873404 288.912523 
L 280.41578 290.879313 
L 281.263239 288.798609 
L 282.958157 290.154235 
L 283.805615 282.551546 
L 284.653074 283.559091 
L 285.500533 276.582499 
L 286.347992 277.888498 
L 287.195451 277.678348 
L 288.042909 271.981779 
L 288.890368 273.517813 
L 289.737827 274.412473 
L 290.585286 275.826973 
L 292.280203 263.616743 
L 293.975121 267.4276 
L 294.822579 262.25256 
L 295.670038 256.284768 
L 296.517497 257.445541 
L 298.212415 261.858091 
L 299.907332 265.840418 
L 301.60225 269.434467 
L 303.297167 272.678098 
L 304.144626 260.302641 
L 304.992085 258.305629 
L 305.839544 260.52547 
L 306.687002 256.018928 
L 308.38192 260.570573 
L 310.076837 264.678432 
L 311.771755 268.385776 
L 313.466673 271.731655 
L 314.314131 273.280194 
L 315.16159 274.538371 
L 316.009049 274.628152 
L 316.856508 268.158319 
L 319.398884 273.031368 
L 321.94126 277.263205 
L 323.636178 279.743532 
L 324.483637 279.128402 
L 325.331095 270.076402 
L 326.178554 271.707704 
L 327.026013 269.71641 
L 328.720931 272.932548 
L 330.415848 275.835117 
L 331.263307 273.086493 
L 333.805683 277.31047 
L 336.348059 280.932004 
L 338.042977 283.054624 
L 338.890436 269.368541 
L 340.585353 272.618599 
L 343.12773 276.90931 
L 345.670106 280.588059 
L 347.365024 282.744213 
L 348.212482 281.998844 
L 349.059941 278.771861 
L 349.9074 263.006574 
L 350.754859 256.287073 
L 352.449776 260.812575 
L 354.144694 264.896838 
L 355.839611 268.582886 
L 357.534529 271.909547 
L 360.076905 276.301387 
L 362.619281 280.06684 
L 365.161658 283.295246 
L 366.009117 284.265607 
L 366.856575 282.651215 
L 369.398952 285.511024 
L 371.941328 287.962951 
L 374.483704 290.065173 
L 377.026081 291.867565 
L 377.873539 292.40931 
L 378.720998 284.576728 
L 381.263375 287.161911 
L 383.805751 289.37838 
L 386.348127 291.278726 
L 387.195586 288.995187 
L 388.043045 288.744268 
L 390.585421 290.735055 
L 391.43288 291.333425 
L 392.280339 291.098675 
L 393.127797 286.954363 
L 395.670174 289.200435 
L 396.517632 289.875535 
L 397.365091 287.104914 
L 399.060009 288.625674 
L 399.907468 278.345039 
L 400.754926 272.515832 
L 401.602385 264.705006 
L 402.449844 260.879748 
L 403.297303 240.019278 
L 404.99222 246.130886 
L 406.687138 251.646613 
L 408.382055 256.62456 
L 410.076973 261.117156 
L 411.77189 265.171723 
L 413.466808 268.830969 
L 415.161726 272.13344 
L 417.704102 276.493346 
L 420.246478 280.23142 
L 422.788855 283.436353 
L 423.636313 274.176202 
L 424.483772 275.602514 
L 425.331231 265.324387 
L 426.17869 265.229148 
L 427.026148 263.234278 
L 428.721066 267.082428 
L 430.415983 270.555382 
L 431.263442 272.162736 
L 432.110901 270.386552 
L 434.653277 274.995607 
L 436.348195 277.58415 
L 438.890571 281.166651 
L 441.432948 284.238195 
L 443.975324 286.871661 
L 446.5177 289.129529 
L 447.365159 289.808175 
L 448.212618 286.435345 
L 449.060077 287.043235 
L 449.907535 279.581973 
L 452.449912 282.879532 
L 454.992288 285.706777 
L 456.687206 287.363855 
L 457.534664 286.246001 
L 460.077041 288.593103 
L 461.771958 289.968765 
L 462.619417 268.2563 
L 463.466876 269.847124 
L 464.314334 265.331636 
L 466.009252 268.975292 
L 467.70417 272.26369 
L 470.246546 276.605022 
L 471.941463 279.149524 
L 472.788922 279.092647 
L 473.636381 280.273138 
L 474.48384 267.947761 
L 475.331299 261.328401 
L 476.178757 256.862649 
L 477.873675 261.332032 
L 479.568592 265.36565 
L 480.416051 267.232491 
L 480.416051 267.232491 
" clip-path="url(#pe7ed35d279)" style="fill: none; stroke: #ff0000; stroke-width: 5; stroke-linecap: square"/>
   </g>
   <g id="line2d_12">
    <path d="M 143.127459 276.286329 
L 145.669835 280.053929 
L 148.212211 283.284175 
L 149.05967 284.255089 
L 149.907129 274.172937 
L 152.449505 278.24196 
L 154.991882 281.730638 
L 157.534258 284.721743 
L 160.076634 287.286242 
L 160.924093 288.057053 
L 161.771552 288.003055 
L 164.313928 290.099558 
L 165.161387 286.353414 
L 167.703763 288.685197 
L 170.24614 290.684408 
L 172.788516 292.398482 
L 175.330892 293.868087 
L 176.178351 294.309806 
L 177.02581 288.094292 
L 179.568186 290.177783 
L 180.415645 290.804017 
L 181.263104 290.779927 
L 182.958021 291.942374 
L 183.80548 290.783157 
L 185.500398 279.686054 
L 188.042774 282.968769 
L 189.737691 270.900075 
L 190.58515 272.490195 
L 191.432609 265.9011 
L 193.127527 269.489234 
L 194.822444 272.727522 
L 196.517362 275.650078 
L 197.36482 276.659544 
L 198.212279 269.91164 
L 199.059738 270.874193 
L 201.602114 275.4137 
L 204.144491 279.305759 
L 204.991949 278.900112 
L 207.534326 282.294921 
L 210.076702 285.205547 
L 210.924161 273.884683 
L 212.619078 276.694417 
L 213.466537 274.293393 
L 214.313996 275.713847 
L 215.161455 272.974678 
L 216.008913 273.102378 
L 216.856372 274.119313 
L 219.398749 278.195987 
L 221.941125 281.691222 
L 224.483501 284.68795 
L 227.025877 287.257269 
L 229.568254 289.46014 
L 232.11063 291.348825 
L 234.653006 292.968136 
L 237.195383 294.356494 
L 240.585218 295.904617 
L 243.975053 297.165573 
L 247.364888 298.19263 
L 251.602182 299.212839 
L 255.839476 300.002256 
L 260.924229 300.717561 
L 266.85644 301.31633 
L 274.483569 301.82885 
L 283.805615 302.205548 
L 296.517497 302.472242 
L 314.314131 302.624053 
L 315.16159 298.60012 
L 316.009049 297.699147 
L 316.856508 293.174455 
L 317.703966 293.650855 
L 318.551425 291.839491 
L 319.398884 287.094101 
L 320.246343 286.575398 
L 322.788719 288.875521 
L 325.331095 290.847588 
L 327.026013 292.003438 
L 327.873472 285.083702 
L 328.720931 282.700162 
L 329.568389 283.063304 
L 330.415848 284.045262 
L 331.263307 279.061888 
L 335.500601 283.880886 
L 337.195518 285.71599 
L 338.042977 281.501499 
L 338.890436 281.898729 
L 339.737895 276.689068 
L 342.280271 280.39923 
L 343.12773 275.314359 
L 343.975188 264.426332 
L 345.670106 268.158254 
L 347.365024 271.526316 
L 349.9074 275.972816 
L 352.449776 279.785132 
L 353.297235 280.930998 
L 354.144694 274.957094 
L 354.992153 271.133404 
L 356.68707 243.543502 
L 357.534529 229.715449 
L 358.381988 228.266622 
L 360.076905 235.524117 
L 360.924364 233.964287 
L 362.619281 240.666258 
L 364.314199 246.714791 
L 366.009117 252.173592 
L 367.704034 257.100158 
L 368.551493 259.380272 
L 370.24641 263.300401 
L 371.941328 267.142102 
L 372.788787 262.21354 
L 374.483704 266.161211 
L 375.331163 267.988275 
L 376.178622 264.993032 
L 377.873539 268.6697 
L 380.415916 273.485308 
L 381.263375 272.825137 
L 382.110833 274.319002 
L 382.958292 275.197084 
L 385.500668 279.120039 
L 387.195586 281.419325 
L 388.043045 279.161961 
L 388.890504 280.338985 
L 389.737962 276.291365 
L 392.280339 280.058247 
L 394.822715 283.287879 
L 397.365091 286.056883 
L 399.060009 279.807279 
L 401.602385 283.072705 
L 404.144761 285.872399 
L 406.687138 288.272787 
L 409.229514 290.330818 
L 411.77189 292.095323 
L 414.314267 293.608165 
L 415.161726 294.062879 
L 416.009184 288.417354 
L 418.551561 290.454766 
L 421.093937 292.201593 
L 421.941396 292.726637 
L 422.788855 282.048596 
L 423.636313 283.08129 
L 424.483772 277.753552 
L 425.331231 246.427954 
L 426.17869 247.433758 
L 427.873607 252.822458 
L 429.568525 257.685761 
L 431.263442 262.07489 
L 432.95836 266.036079 
L 434.653277 269.61105 
L 436.348195 272.837464 
L 438.890571 277.096959 
L 441.432948 280.748944 
L 442.280406 281.84662 
L 443.127865 277.899361 
L 443.975324 278.354427 
L 446.5177 281.827066 
L 447.365159 282.870836 
L 448.212618 278.998054 
L 450.754994 282.378894 
L 451.602453 273.469631 
L 454.144829 277.638962 
L 456.687206 281.213642 
L 459.229582 284.278484 
L 461.771958 286.906203 
L 464.314334 289.159144 
L 466.856711 291.090758 
L 469.399087 292.746876 
L 471.941463 294.166791 
L 472.788922 294.593575 
L 473.636381 294.342324 
L 474.48384 294.760331 
L 475.331299 290.154407 
L 477.873675 291.944072 
L 478.721134 287.566905 
L 480.416051 289.042621 
L 480.416051 289.042621 
" clip-path="url(#pe7ed35d279)" style="fill: none; stroke: #0000ff; stroke-width: 5; stroke-linecap: square"/>
   </g>
   <g id="patch_3">
    <path d="M 142.28 322.75952 
L 142.28 31.720156 
" style="fill: none; stroke: #000000; stroke-width: 5; stroke-linejoin: miter; stroke-linecap: square"/>
   </g>
   <g id="patch_4">
    <path d="M 142.28 322.75952 
L 481.26351 322.75952 
" style="fill: none; stroke: #000000; stroke-width: 5; stroke-linejoin: miter; stroke-linecap: square"/>
   </g>
   <g id="patch_5">
    <path d="M 227.025877 316.938733 
L 311.771755 316.938733 
L 311.771755 306.752355 
L 227.025877 306.752355 
z
" style="fill: #8c5a2b; stroke: #8c5a2b; stroke-linejoin: miter"/>
   </g>
   <g id="text_12">
    <!-- Novel | Naive -->
    <g transform="translate(248.469099 21.720156) scale(0.19 -0.19)">
     <defs>
      <path id="DejaVuSans-6f" d="M 1959 3097 
Q 1497 3097 1228 2736 
Q 959 2375 959 1747 
Q 959 1119 1226 758 
Q 1494 397 1959 397 
Q 2419 397 2687 759 
Q 2956 1122 2956 1747 
Q 2956 2369 2687 2733 
Q 2419 3097 1959 3097 
z
M 1959 3584 
Q 2709 3584 3137 3096 
Q 3566 2609 3566 1747 
Q 3566 888 3137 398 
Q 2709 -91 1959 -91 
Q 1206 -91 779 398 
Q 353 888 353 1747 
Q 353 2609 779 3096 
Q 1206 3584 1959 3584 
z
" transform="scale(0.015625)"/>
      <path id="DejaVuSans-7c" d="M 1344 4891 
L 1344 -1509 
L 813 -1509 
L 813 4891 
L 1344 4891 
z
" transform="scale(0.015625)"/>
     </defs>
     <use xlink:href="#DejaVuSans-4e"/>
     <use xlink:href="#DejaVuSans-6f" transform="translate(74.804688 0)"/>
     <use xlink:href="#DejaVuSans-76" transform="translate(135.986328 0)"/>
     <use xlink:href="#DejaVuSans-65" transform="translate(195.166016 0)"/>
     <use xlink:href="#DejaVuSans-6c" transform="translate(256.689453 0)"/>
     <use xlink:href="#DejaVuSans-20" transform="translate(284.472656 0)"/>
     <use xlink:href="#DejaVuSans-7c" transform="translate(316.259766 0)"/>
     <use xlink:href="#DejaVuSans-20" transform="translate(349.951172 0)"/>
     <use xlink:href="#DejaVuSans-4e" transform="translate(381.738281 0)"/>
     <use xlink:href="#DejaVuSans-61" transform="translate(456.542969 0)"/>
     <use xlink:href="#DejaVuSans-69" transform="translate(517.822266 0)"/>
     <use xlink:href="#DejaVuSans-76" transform="translate(545.605469 0)"/>
     <use xlink:href="#DejaVuSans-65" transform="translate(604.785156 0)"/>
    </g>
   </g>
   <g id="legend_1">
    <g id="line2d_13">
     <path d="M 151.28 46.867812 
L 166.28 46.867812 
L 181.28 46.867812 
" style="fill: none; stroke: #000000; stroke-width: 5; stroke-linecap: square"/>
    </g>
    <g id="text_13">
     <!-- Nonoccluded (NO) -->
     <g transform="translate(193.28 52.117812) scale(0.15 -0.15)">
      <defs>
       <path id="DejaVuSans-6e" d="M 3513 2113 
L 3513 0 
L 2938 0 
L 2938 2094 
Q 2938 2591 2744 2837 
Q 2550 3084 2163 3084 
Q 1697 3084 1428 2787 
Q 1159 2491 1159 1978 
L 1159 0 
L 581 0 
L 581 3500 
L 1159 3500 
L 1159 2956 
Q 1366 3272 1645 3428 
Q 1925 3584 2291 3584 
Q 2894 3584 3203 3211 
Q 3513 2838 3513 2113 
z
" transform="scale(0.015625)"/>
       <path id="DejaVuSans-64" d="M 2906 2969 
L 2906 4863 
L 3481 4863 
L 3481 0 
L 2906 0 
L 2906 525 
Q 2725 213 2448 61 
Q 2172 -91 1784 -91 
Q 1150 -91 751 415 
Q 353 922 353 1747 
Q 353 2572 751 3078 
Q 1150 3584 1784 3584 
Q 2172 3584 2448 3432 
Q 2725 3281 2906 2969 
z
M 947 1747 
Q 947 1113 1208 752 
Q 1469 391 1925 391 
Q 2381 391 2643 752 
Q 2906 1113 2906 1747 
Q 2906 2381 2643 2742 
Q 2381 3103 1925 3103 
Q 1469 3103 1208 2742 
Q 947 2381 947 1747 
z
" transform="scale(0.015625)"/>
       <path id="DejaVuSans-4f" d="M 2522 4238 
Q 1834 4238 1429 3725 
Q 1025 3213 1025 2328 
Q 1025 1447 1429 934 
Q 1834 422 2522 422 
Q 3209 422 3611 934 
Q 4013 1447 4013 2328 
Q 4013 3213 3611 3725 
Q 3209 4238 2522 4238 
z
M 2522 4750 
Q 3503 4750 4090 4092 
Q 4678 3434 4678 2328 
Q 4678 1225 4090 567 
Q 3503 -91 2522 -91 
Q 1538 -91 948 565 
Q 359 1222 359 2328 
Q 359 3434 948 4092 
Q 1538 4750 2522 4750 
z
" transform="scale(0.015625)"/>
      </defs>
      <use xlink:href="#DejaVuSans-4e"/>
      <use xlink:href="#DejaVuSans-6f" transform="translate(74.804688 0)"/>
      <use xlink:href="#DejaVuSans-6e" transform="translate(135.986328 0)"/>
      <use xlink:href="#DejaVuSans-6f" transform="translate(199.365234 0)"/>
      <use xlink:href="#DejaVuSans-63" transform="translate(260.546875 0)"/>
      <use xlink:href="#DejaVuSans-63" transform="translate(315.527344 0)"/>
      <use xlink:href="#DejaVuSans-6c" transform="translate(370.507812 0)"/>
      <use xlink:href="#DejaVuSans-75" transform="translate(398.291016 0)"/>
      <use xlink:href="#DejaVuSans-64" transform="translate(461.669922 0)"/>
      <use xlink:href="#DejaVuSans-65" transform="translate(525.146484 0)"/>
      <use xlink:href="#DejaVuSans-64" transform="translate(586.669922 0)"/>
      <use xlink:href="#DejaVuSans-20" transform="translate(650.146484 0)"/>
      <use xlink:href="#DejaVuSans-28" transform="translate(681.933594 0)"/>
      <use xlink:href="#DejaVuSans-4e" transform="translate(720.947266 0)"/>
      <use xlink:href="#DejaVuSans-4f" transform="translate(795.751953 0)"/>
      <use xlink:href="#DejaVuSans-29" transform="translate(874.462891 0)"/>
     </g>
    </g>
    <g id="line2d_14">
     <path d="M 151.28 68.885 
L 166.28 68.885 
L 181.28 68.885 
" style="fill: none; stroke: #ff0000; stroke-width: 5; stroke-linecap: square"/>
    </g>
    <g id="text_14">
     <!-- Occluded (O) -->
     <g transform="translate(193.28 74.135) scale(0.15 -0.15)">
      <use xlink:href="#DejaVuSans-4f"/>
      <use xlink:href="#DejaVuSans-63" transform="translate(78.710938 0)"/>
      <use xlink:href="#DejaVuSans-63" transform="translate(133.691406 0)"/>
      <use xlink:href="#DejaVuSans-6c" transform="translate(188.671875 0)"/>
      <use xlink:href="#DejaVuSans-75" transform="translate(216.455078 0)"/>
      <use xlink:href="#DejaVuSans-64" transform="translate(279.833984 0)"/>
      <use xlink:href="#DejaVuSans-65" transform="translate(343.310547 0)"/>
      <use xlink:href="#DejaVuSans-64" transform="translate(404.833984 0)"/>
      <use xlink:href="#DejaVuSans-20" transform="translate(468.310547 0)"/>
      <use xlink:href="#DejaVuSans-28" transform="translate(500.097656 0)"/>
      <use xlink:href="#DejaVuSans-4f" transform="translate(539.111328 0)"/>
      <use xlink:href="#DejaVuSans-29" transform="translate(617.822266 0)"/>
     </g>
    </g>
    <g id="line2d_15">
     <path d="M 151.28 90.902187 
L 166.28 90.902187 
L 181.28 90.902187 
" style="fill: none; stroke: #0000ff; stroke-width: 5; stroke-linecap: square"/>
    </g>
    <g id="text_15">
     <!-- No feedback -->
     <g transform="translate(193.28 96.152187) scale(0.15 -0.15)">
      <defs>
       <path id="DejaVuSans-66" d="M 2375 4863 
L 2375 4384 
L 1825 4384 
Q 1516 4384 1395 4259 
Q 1275 4134 1275 3809 
L 1275 3500 
L 2222 3500 
L 2222 3053 
L 1275 3053 
L 1275 0 
L 697 0 
L 697 3053 
L 147 3053 
L 147 3500 
L 697 3500 
L 697 3744 
Q 697 4328 969 4595 
Q 1241 4863 1831 4863 
L 2375 4863 
z
" transform="scale(0.015625)"/>
       <path id="DejaVuSans-62" d="M 3116 1747 
Q 3116 2381 2855 2742 
Q 2594 3103 2138 3103 
Q 1681 3103 1420 2742 
Q 1159 2381 1159 1747 
Q 1159 1113 1420 752 
Q 1681 391 2138 391 
Q 2594 391 2855 752 
Q 3116 1113 3116 1747 
z
M 1159 2969 
Q 1341 3281 1617 3432 
Q 1894 3584 2278 3584 
Q 2916 3584 3314 3078 
Q 3713 2572 3713 1747 
Q 3713 922 3314 415 
Q 2916 -91 2278 -91 
Q 1894 -91 1617 61 
Q 1341 213 1159 525 
L 1159 0 
L 581 0 
L 581 4863 
L 1159 4863 
L 1159 2969 
z
" transform="scale(0.015625)"/>
       <path id="DejaVuSans-6b" d="M 581 4863 
L 1159 4863 
L 1159 1991 
L 2875 3500 
L 3609 3500 
L 1753 1863 
L 3688 0 
L 2938 0 
L 1159 1709 
L 1159 0 
L 581 0 
L 581 4863 
z
" transform="scale(0.015625)"/>
      </defs>
      <use xlink:href="#DejaVuSans-4e"/>
      <use xlink:href="#DejaVuSans-6f" transform="translate(74.804688 0)"/>
      <use xlink:href="#DejaVuSans-20" transform="translate(135.986328 0)"/>
      <use xlink:href="#DejaVuSans-66" transform="translate(167.773438 0)"/>
      <use xlink:href="#DejaVuSans-65" transform="translate(202.978516 0)"/>
      <use xlink:href="#DejaVuSans-65" transform="translate(264.501953 0)"/>
      <use xlink:href="#DejaVuSans-64" transform="translate(326.025391 0)"/>
      <use xlink:href="#DejaVuSans-62" transform="translate(389.501953 0)"/>
      <use xlink:href="#DejaVuSans-61" transform="translate(452.978516 0)"/>
      <use xlink:href="#DejaVuSans-63" transform="translate(514.257812 0)"/>
      <use xlink:href="#DejaVuSans-6b" transform="translate(569.238281 0)"/>
     </g>
    </g>
   </g>
  </g>
  <g id="axes_2">
   <g id="patch_6">
    <path d="M 516.03601 322.75952 
L 855.01952 322.75952 
L 855.01952 31.720156 
L 516.03601 31.720156 
z
" style="fill: #ffffff"/>
   </g>
   <g id="matplotlib.axis_3">
    <g id="xtick_6">
     <g id="line2d_16">
      <g>
       <use xlink:href="#ma85b2d146d" x="516.03601" y="322.75952" style="stroke: #000000; stroke-width: 1.6"/>
      </g>
     </g>
     <g id="text_16">
      <!-- -1 -->
      <g transform="translate(500.08351 355.57452) scale(0.32 -0.32)">
       <use xlink:href="#DejaVuSans-2d"/>
       <use xlink:href="#DejaVuSans-31" transform="translate(36.083984 0)"/>
      </g>
     </g>
    </g>
    <g id="xtick_7">
     <g id="line2d_17">
      <g>
       <use xlink:href="#ma85b2d146d" x="600.781887" y="322.75952" style="stroke: #000000; stroke-width: 1.6"/>
      </g>
     </g>
     <g id="text_17">
      <!-- 0 -->
      <g transform="translate(590.601887 355.57452) scale(0.32 -0.32)">
       <use xlink:href="#DejaVuSans-30"/>
      </g>
     </g>
    </g>
    <g id="xtick_8">
     <g id="line2d_18">
      <g>
       <use xlink:href="#ma85b2d146d" x="685.527765" y="322.75952" style="stroke: #000000; stroke-width: 1.6"/>
      </g>
     </g>
     <g id="text_18">
      <!-- 1 -->
      <g transform="translate(675.347765 355.57452) scale(0.32 -0.32)">
       <use xlink:href="#DejaVuSans-31"/>
      </g>
     </g>
    </g>
    <g id="xtick_9">
     <g id="line2d_19">
      <g>
       <use xlink:href="#ma85b2d146d" x="770.273642" y="322.75952" style="stroke: #000000; stroke-width: 1.6"/>
      </g>
     </g>
     <g id="text_19">
      <!-- 2 -->
      <g transform="translate(760.093642 355.57452) scale(0.32 -0.32)">
       <use xlink:href="#DejaVuSans-32"/>
      </g>
     </g>
    </g>
    <g id="xtick_10">
     <g id="line2d_20">
      <g>
       <use xlink:href="#ma85b2d146d" x="855.01952" y="322.75952" style="stroke: #000000; stroke-width: 1.6"/>
      </g>
     </g>
     <g id="text_20">
      <!-- 3 -->
      <g transform="translate(844.83952 355.57452) scale(0.32 -0.32)">
       <use xlink:href="#DejaVuSans-33"/>
      </g>
     </g>
    </g>
    <g id="text_21">
     <!-- Time (s) -->
     <g transform="translate(620.475265 390.54452) scale(0.32 -0.32)">
      <use xlink:href="#DejaVuSans-54"/>
      <use xlink:href="#DejaVuSans-69" transform="translate(57.958984 0)"/>
      <use xlink:href="#DejaVuSans-6d" transform="translate(85.742188 0)"/>
      <use xlink:href="#DejaVuSans-65" transform="translate(183.154297 0)"/>
      <use xlink:href="#DejaVuSans-20" transform="translate(244.677734 0)"/>
      <use xlink:href="#DejaVuSans-28" transform="translate(276.464844 0)"/>
      <use xlink:href="#DejaVuSans-73" transform="translate(315.478516 0)"/>
      <use xlink:href="#DejaVuSans-29" transform="translate(367.578125 0)"/>
     </g>
    </g>
   </g>
   <g id="matplotlib.axis_4">
    <g id="ytick_5">
     <g id="line2d_21">
      <g>
       <use xlink:href="#m7cb3100a04" x="516.03601" y="302.702455" style="stroke: #000000; stroke-width: 1.6"/>
      </g>
     </g>
    </g>
    <g id="ytick_6">
     <g id="line2d_22">
      <g>
       <use xlink:href="#m7cb3100a04" x="516.03601" y="227.136264" style="stroke: #000000; stroke-width: 1.6"/>
      </g>
     </g>
    </g>
    <g id="ytick_7">
     <g id="line2d_23">
      <g>
       <use xlink:href="#m7cb3100a04" x="516.03601" y="151.570074" style="stroke: #000000; stroke-width: 1.6"/>
      </g>
     </g>
    </g>
    <g id="ytick_8">
     <g id="line2d_24">
      <g>
       <use xlink:href="#m7cb3100a04" x="516.03601" y="76.003883" style="stroke: #000000; stroke-width: 1.6"/>
      </g>
     </g>
    </g>
   </g>
   <g id="line2d_25">
    <path d="M 516.883469 297.621982 
L 520.273304 298.564377 
L 524.510598 299.500489 
L 529.59535 300.348716 
L 534.680103 300.972241 
L 541.459773 301.554595 
L 549.086902 301.979017 
L 559.256408 302.311538 
L 562.646243 302.384051 
L 563.493701 298.819605 
L 567.730995 299.69798 
L 572.815748 300.49389 
L 578.747959 301.160131 
L 585.52763 301.679246 
L 594.002217 302.089822 
L 594.849676 302.120453 
L 595.697135 295.454057 
L 599.08697 296.798589 
L 602.476805 297.89372 
L 606.714099 298.981548 
L 610.951393 299.823288 
L 616.036145 300.586003 
L 621.968357 301.224458 
L 628.748027 301.721921 
L 637.222615 302.115373 
L 649.087038 302.41615 
L 666.036213 302.599818 
L 698.239647 302.68784 
L 699.087105 298.990933 
L 703.324399 299.83055 
L 704.171858 296.922593 
L 707.561693 297.994721 
L 711.798987 299.059701 
L 713.493905 299.414869 
L 714.341363 297.992696 
L 718.578657 299.058134 
L 719.426116 294.276113 
L 720.273575 279.6531 
L 721.121034 268.41512 
L 721.968492 267.391626 
L 723.66341 270.83443 
L 726.205786 275.379609 
L 727.053245 276.745752 
L 727.900704 276.367265 
L 728.748163 273.153879 
L 729.595621 273.308105 
L 732.137998 277.500476 
L 734.680374 281.094909 
L 737.22275 284.176686 
L 739.765127 286.818924 
L 742.307503 289.084312 
L 744.849879 291.026599 
L 747.392256 292.691869 
L 749.934632 294.119629 
L 753.324467 295.71169 
L 756.714302 297.008433 
L 760.104137 298.064639 
L 764.341431 299.113801 
L 768.578725 299.925623 
L 773.663478 300.661229 
L 779.595689 301.276991 
L 784.680442 301.654608 
L 785.5279 298.522637 
L 789.765194 299.468191 
L 790.612653 299.629905 
L 791.460112 295.054243 
L 794.849947 296.472938 
L 798.239782 297.628475 
L 799.9347 298.123188 
L 800.782158 297.644362 
L 804.171993 298.582606 
L 808.409287 299.514595 
L 813.49404 300.359085 
L 814.341499 297.513286 
L 817.731334 298.475845 
L 821.968628 299.431985 
L 822.816087 296.905852 
L 826.205922 297.981086 
L 830.443216 299.04915 
L 834.680509 299.875597 
L 839.765262 300.624455 
L 845.697473 301.25131 
L 852.477144 301.739736 
L 854.172061 301.833601 
L 854.172061 301.833601 
" clip-path="url(#p0e821ba7c0)" style="fill: none; stroke: #000000; stroke-width: 5; stroke-linecap: square"/>
   </g>
   <g id="line2d_26">
    <path d="M 516.883469 289.99132 
L 519.425845 291.804247 
L 520.273304 290.076094 
L 521.120763 290.707412 
L 521.968221 287.964003 
L 522.81568 288.700925 
L 523.663139 276.897695 
L 524.510598 262.150336 
L 526.205515 266.10417 
L 527.900433 269.672503 
L 529.59535 272.892923 
L 532.137727 277.144508 
L 534.680103 280.78971 
L 537.222479 283.915015 
L 538.917397 285.746791 
L 539.764856 279.950833 
L 542.307232 283.195784 
L 544.849608 285.977923 
L 547.391985 288.36326 
L 549.934361 290.408388 
L 552.476737 292.16183 
L 553.324196 291.602718 
L 555.866572 293.185819 
L 558.408949 294.543129 
L 559.256408 294.951095 
L 560.103866 289.360828 
L 562.646243 291.263679 
L 563.493701 291.835618 
L 564.34116 285.018517 
L 565.188619 285.902715 
L 566.883536 287.392703 
L 568.578454 288.885404 
L 569.425913 285.250231 
L 570.273372 279.101935 
L 572.815748 282.46796 
L 574.510665 284.440824 
L 575.358124 281.214532 
L 577.900501 284.279247 
L 580.442877 286.906858 
L 581.290336 286.083156 
L 582.137794 283.623705 
L 582.985253 271.716271 
L 583.832712 267.665591 
L 584.680171 267.027191 
L 585.52763 252.668818 
L 587.222547 257.547097 
L 588.917465 261.949744 
L 590.612382 265.923133 
L 592.3073 269.509117 
L 594.002217 272.745468 
L 596.544594 277.018081 
L 597.392052 271.238727 
L 598.239511 267.337189 
L 599.934429 270.785302 
L 600.781887 209.001416 
L 601.629346 166.999539 
L 602.476805 141.075404 
L 603.324264 140.987608 
L 605.019181 103.197466 
L 605.86664 95.953484 
L 606.714099 106.290924 
L 607.561558 95.631441 
L 608.409016 86.923222 
L 609.256475 77.037249 
L 610.103934 57.031586 
L 610.951393 51.791837 
L 611.798852 58.061043 
L 612.64631 62.621417 
L 613.493769 74.625463 
L 614.341228 70.892852 
L 615.188687 59.897903 
L 616.036145 70.95413 
L 616.883604 77.031979 
L 617.731063 85.945495 
L 618.578522 96.783341 
L 619.425981 100.24868 
L 620.273439 95.936188 
L 621.968357 79.563304 
L 623.663274 101.319371 
L 624.510733 79.720812 
L 625.358192 90.869891 
L 626.205651 98.780187 
L 627.05311 80.733716 
L 627.900568 66.52827 
L 629.595486 89.555258 
L 631.290403 110.337111 
L 632.985321 129.092741 
L 634.680238 145.911328 
L 635.527697 138.659846 
L 636.375156 113.675232 
L 637.222615 96.204272 
L 638.070074 85.358364 
L 638.917532 96.225576 
L 639.764991 95.180603 
L 640.61245 103.54025 
L 641.459909 108.592833 
L 642.307367 118.298315 
L 643.154826 122.642178 
L 644.002285 131.64519 
L 644.849744 131.728865 
L 645.697203 131.948833 
L 647.39212 148.597312 
L 649.087038 132.188598 
L 649.934496 130.758232 
L 650.781955 139.355448 
L 651.629414 146.040877 
L 652.476873 136.420917 
L 653.324332 122.177929 
L 654.17179 112.775989 
L 655.019249 113.68388 
L 655.866708 108.752165 
L 656.714167 98.961724 
L 657.561625 105.577768 
L 658.409084 114.252072 
L 659.256543 91.249474 
L 660.104002 81.033328 
L 660.951461 68.868508 
L 661.798919 61.412112 
L 662.646378 66.959289 
L 663.493837 78.746441 
L 664.341296 82.040106 
L 665.188754 93.073227 
L 666.036213 100.910827 
L 666.883672 85.894779 
L 667.731131 90.384372 
L 668.578589 82.895074 
L 669.426048 84.811049 
L 670.273507 93.536969 
L 671.120966 76.327156 
L 671.968425 83.713896 
L 672.815883 82.507789 
L 673.663342 90.14025 
L 674.510801 96.734314 
L 675.35826 95.754718 
L 676.205718 100.021133 
L 677.053177 94.781338 
L 677.900636 90.269765 
L 678.748095 96.498885 
L 679.595554 78.925862 
L 680.443012 82.429823 
L 681.290471 89.401488 
L 682.13793 74.731895 
L 682.985389 71.78777 
L 683.832847 68.001762 
L 685.527765 90.885092 
L 687.222683 111.537273 
L 688.9176 130.175886 
L 690.612518 146.997232 
L 692.307435 162.17849 
L 694.002353 175.879578 
L 695.69727 188.244819 
L 697.392188 199.404438 
L 699.087105 209.475996 
L 700.782023 218.565577 
L 702.47694 226.76892 
L 704.171858 234.172444 
L 705.866776 240.854124 
L 707.561693 246.884337 
L 709.256611 252.326602 
L 710.104069 253.351875 
L 711.798987 258.163558 
L 713.493905 262.506104 
L 715.188822 266.42525 
L 716.88374 269.96228 
L 717.731198 271.599288 
L 718.578657 267.05311 
L 719.426116 268.835577 
L 720.273575 262.807782 
L 721.968492 266.697514 
L 723.66341 270.207998 
L 726.205786 274.842521 
L 728.748163 278.816046 
L 729.595621 280.010366 
L 730.44308 276.394453 
L 731.290539 270.975381 
L 732.137998 262.940859 
L 733.832915 266.817616 
L 735.527833 270.316389 
L 738.070209 274.935452 
L 740.612585 278.895721 
L 743.154962 282.291156 
L 745.697338 285.202318 
L 746.544797 286.077324 
L 747.392256 281.149714 
L 749.934632 284.223675 
L 752.477008 286.859211 
L 755.019385 289.118854 
L 756.714302 290.443256 
L 757.561761 290.500287 
L 760.104137 292.240622 
L 762.646514 293.732741 
L 764.341431 294.607288 
L 765.18889 293.726632 
L 766.036349 288.852382 
L 768.578725 290.827748 
L 769.426184 279.58946 
L 771.96856 282.885951 
L 774.510936 285.71228 
L 777.053313 288.135505 
L 779.595689 290.213116 
L 782.138065 291.994409 
L 782.985524 283.681638 
L 783.832983 269.697822 
L 784.680442 268.27156 
L 786.375359 271.628573 
L 787.222818 273.182266 
L 788.070277 269.658583 
L 788.917736 267.378108 
L 790.612653 270.822233 
L 793.155029 275.369149 
L 795.697406 279.267562 
L 798.239782 282.609964 
L 800.782158 285.475657 
L 803.324535 287.932629 
L 805.866911 290.039175 
L 808.409287 291.815369 
L 809.256746 289.671757 
L 811.799122 291.530261 
L 813.49404 292.61955 
L 814.341499 292.62851 
L 815.188958 291.308865 
L 816.036416 290.29812 
L 816.883875 286.872953 
L 817.731334 281.040647 
L 820.27371 284.130163 
L 822.816087 286.779036 
L 825.358463 289.050113 
L 827.05338 290.381217 
L 827.900839 281.902917 
L 830.443216 284.869451 
L 832.985592 287.412884 
L 834.680509 288.903618 
L 835.527968 288.995062 
L 837.222886 290.331533 
L 838.070344 289.903457 
L 840.612721 291.728914 
L 843.155097 293.294015 
L 844.002556 293.764437 
L 844.850015 293.286537 
L 847.392391 294.629482 
L 849.087309 295.416597 
L 849.934767 291.246046 
L 850.782226 289.609343 
L 851.629685 286.786016 
L 852.477144 286.968322 
L 853.324602 287.755028 
L 854.172061 285.28825 
L 854.172061 285.28825 
" clip-path="url(#p0e821ba7c0)" style="fill: none; stroke: #ff0000; stroke-width: 5; stroke-linecap: square"/>
   </g>
   <g id="line2d_27">
    <path d="M 516.883469 298.244228 
L 521.120763 299.252764 
L 525.358057 300.03315 
L 530.442809 300.740271 
L 536.375021 301.332189 
L 544.00215 301.838845 
L 548.239443 302.03421 
L 549.086902 301.093187 
L 555.866572 301.634834 
L 556.714031 301.688215 
L 557.56149 293.694751 
L 558.408949 280.788117 
L 559.256408 279.866588 
L 561.798784 283.123555 
L 562.646243 284.102501 
L 563.493701 282.986564 
L 564.34116 283.972359 
L 565.188619 267.642465 
L 566.883536 271.060815 
L 567.730995 272.642898 
L 568.578454 270.505983 
L 571.12083 275.098005 
L 573.663207 279.035091 
L 576.205583 282.41065 
L 578.747959 285.304769 
L 581.290336 287.786115 
L 583.832712 289.91356 
L 586.375088 291.737577 
L 588.917465 293.301443 
L 591.459841 294.642262 
L 594.002217 295.791848 
L 594.849676 289.519242 
L 597.392052 291.399498 
L 599.934429 293.011582 
L 602.476805 294.393743 
L 605.86664 295.934957 
L 609.256475 297.190285 
L 612.64631 298.212758 
L 616.883604 299.228414 
L 621.120898 300.014308 
L 626.205651 300.72642 
L 632.137862 301.322516 
L 639.764991 301.832749 
L 649.087038 302.207766 
L 661.798919 302.47327 
L 681.290471 302.632013 
L 688.070141 302.655722 
L 688.9176 293.47402 
L 691.459976 294.790225 
L 694.849812 296.257895 
L 698.239647 297.453321 
L 699.934564 297.965112 
L 700.782023 297.609663 
L 701.629482 293.916446 
L 704.171858 295.169551 
L 707.561693 296.566858 
L 710.951528 297.704973 
L 713.493905 298.417739 
L 714.341363 293.702105 
L 716.88374 294.98578 
L 720.273575 296.417175 
L 723.66341 297.583055 
L 725.358327 298.082196 
L 726.205786 292.506758 
L 728.748163 293.960919 
L 729.595621 290.663606 
L 731.290539 291.837394 
L 732.137998 286.688912 
L 732.985456 287.489589 
L 733.832915 283.497306 
L 736.375291 286.236441 
L 738.917668 288.584908 
L 741.460044 290.598425 
L 744.00242 292.324762 
L 746.544797 293.804881 
L 749.087173 295.073897 
L 749.934632 295.455325 
L 750.782091 292.751287 
L 751.629549 287.959078 
L 752.477008 271.346228 
L 753.324467 263.901166 
L 754.171926 259.614398 
L 755.866843 263.815484 
L 757.561761 267.606964 
L 759.256678 271.028777 
L 761.799055 275.546238 
L 764.341431 279.419394 
L 766.883807 282.740141 
L 769.426184 285.587267 
L 771.96856 288.028321 
L 774.510936 290.121221 
L 777.053313 291.91562 
L 779.595689 293.454092 
L 782.138065 294.77314 
L 785.5279 296.243979 
L 788.917736 297.441986 
L 792.307571 298.417771 
L 796.544865 299.387048 
L 800.782158 300.137056 
L 805.866911 300.816651 
L 806.71437 289.700812 
L 807.561829 275.336049 
L 810.104205 279.239185 
L 812.646581 282.585635 
L 815.188958 285.454798 
L 817.731334 287.914745 
L 820.27371 290.023843 
L 822.816087 291.83213 
L 825.358463 293.38251 
L 827.900839 294.711768 
L 831.290674 296.19399 
L 833.833051 297.12226 
L 834.680509 295.23458 
L 835.527968 284.642882 
L 838.070344 287.21863 
L 838.917803 285.927449 
L 841.46018 288.319984 
L 844.002556 290.371284 
L 846.544932 292.130018 
L 849.087309 293.637912 
L 851.629685 294.930743 
L 854.172061 296.039184 
L 854.172061 296.039184 
" clip-path="url(#p0e821ba7c0)" style="fill: none; stroke: #0000ff; stroke-width: 5; stroke-linecap: square"/>
   </g>
   <g id="patch_7">
    <path d="M 516.03601 322.75952 
L 516.03601 31.720156 
" style="fill: none; stroke: #000000; stroke-width: 5; stroke-linejoin: miter; stroke-linecap: square"/>
   </g>
   <g id="patch_8">
    <path d="M 516.03601 322.75952 
L 855.01952 322.75952 
" style="fill: none; stroke: #000000; stroke-width: 5; stroke-linejoin: miter; stroke-linecap: square"/>
   </g>
   <g id="patch_9">
    <path d="M 600.781887 316.938733 
L 685.527765 316.938733 
L 685.527765 306.752355 
L 600.781887 306.752355 
z
" style="fill: #8c5a2b; stroke: #8c5a2b; stroke-linejoin: miter"/>
   </g>
   <g id="text_22">
    <!-- Novel | Expert -->
    <g transform="translate(618.129718 21.720156) scale(0.19 -0.19)">
     <defs>
      <path id="DejaVuSans-45" d="M 628 4666 
L 3578 4666 
L 3578 4134 
L 1259 4134 
L 1259 2753 
L 3481 2753 
L 3481 2222 
L 1259 2222 
L 1259 531 
L 3634 531 
L 3634 0 
L 628 0 
L 628 4666 
z
" transform="scale(0.015625)"/>
      <path id="DejaVuSans-78" d="M 3513 3500 
L 2247 1797 
L 3578 0 
L 2900 0 
L 1881 1375 
L 863 0 
L 184 0 
L 1544 1831 
L 300 3500 
L 978 3500 
L 1906 2253 
L 2834 3500 
L 3513 3500 
z
" transform="scale(0.015625)"/>
      <path id="DejaVuSans-70" d="M 1159 525 
L 1159 -1331 
L 581 -1331 
L 581 3500 
L 1159 3500 
L 1159 2969 
Q 1341 3281 1617 3432 
Q 1894 3584 2278 3584 
Q 2916 3584 3314 3078 
Q 3713 2572 3713 1747 
Q 3713 922 3314 415 
Q 2916 -91 2278 -91 
Q 1894 -91 1617 61 
Q 1341 213 1159 525 
z
M 3116 1747 
Q 3116 2381 2855 2742 
Q 2594 3103 2138 3103 
Q 1681 3103 1420 2742 
Q 1159 2381 1159 1747 
Q 1159 1113 1420 752 
Q 1681 391 2138 391 
Q 2594 391 2855 752 
Q 3116 1113 3116 1747 
z
" transform="scale(0.015625)"/>
     </defs>
     <use xlink:href="#DejaVuSans-4e"/>
     <use xlink:href="#DejaVuSans-6f" transform="translate(74.804688 0)"/>
     <use xlink:href="#DejaVuSans-76" transform="translate(135.986328 0)"/>
     <use xlink:href="#DejaVuSans-65" transform="translate(195.166016 0)"/>
     <use xlink:href="#DejaVuSans-6c" transform="translate(256.689453 0)"/>
     <use xlink:href="#DejaVuSans-20" transform="translate(284.472656 0)"/>
     <use xlink:href="#DejaVuSans-7c" transform="translate(316.259766 0)"/>
     <use xlink:href="#DejaVuSans-20" transform="translate(349.951172 0)"/>
     <use xlink:href="#DejaVuSans-45" transform="translate(381.738281 0)"/>
     <use xlink:href="#DejaVuSans-78" transform="translate(444.921875 0)"/>
     <use xlink:href="#DejaVuSans-70" transform="translate(504.101562 0)"/>
     <use xlink:href="#DejaVuSans-65" transform="translate(567.578125 0)"/>
     <use xlink:href="#DejaVuSans-72" transform="translate(629.101562 0)"/>
     <use xlink:href="#DejaVuSans-74" transform="translate(670.214844 0)"/>
    </g>
   </g>
  </g>
 </g>
 <defs>
  <clipPath id="pe7ed35d279">
   <rect x="142.28" y="31.720156" width="338.98351" height="291.039364"/>
  </clipPath>
  <clipPath id="p0e821ba7c0">
   <rect x="516.03601" y="31.720156" width="338.98351" height="291.039364"/>
  </clipPath>
 </defs>
</svg>
