<?xml version="1.0" encoding="utf-8" standalone="no"?>
<!DOCTYPE svg PUBLIC "-//W3C//DTD SVG 1.1//EN"
  "http://www.w3.org/Graphics/SVG/1.1/DTD/svg11.dtd">
<svg xmlns:xlink="http://www.w3.org/1999/xlink" width="872.39952pt" height="404.39952pt" viewBox="0 0 872.39952 404.39952" xmlns="http://www.w3.org/2000/svg" version="1.1">
 <metadata>
  <rdf:RDF xmlns:dc="http://purl.org/dc/elements/1.1/" xmlns:cc="http://creativecommons.org/ns#" xmlns:rdf="http://www.w3.org/1999/02/22-rdf-syntax-ns#">
   <cc:Work>
    <dc:type rdf:resource="http://purl.org/dc/dcmitype/StillImage"/>
    <dc:date>2026-03-25T17:17:19.727579</dc:date>
    <dc:format>image/svg+xml</dc:format>
    <dc:creator>
     <cc:Agent>
      <dc:title>Matplotlib v3.10.7, https://matplotlib.org/</dc:title>
     </cc:Agent>
    </dc:creator>
   </cc:Work>
  </rdf:RDF>
 </metadata>
 <defs>
  <style type="text/css">*{stroke-linejoin: round; stroke-linecap: butt}</style>
 </defs>
 <g id="figure_1">
  <g id="patch_1">
   <path d="M 0 404.39952 
L 872.39952 404.39952 
L 872.39952 0 
L 0 0 
z
" style="fill: #ffffff"/>
  </g>
  <g id="axes_1">
   <g id="patch_2">
    <path d="M 121.92 322.75952 
L 471.08351 322.75952 
L 471.08351 31.720156 
L 121.92 31.720156 
z
" style="fill: #ffffff"/>
   </g>
   <g id="matplotlib.axis_1">
    <g id="xtick_1">
     <g id="line2d_1">
      <defs>
       <path id="m88bd51d7ac" d="M 0 0 
L 0 5 
" style="stroke: #000000; stroke-width: 1.6"/>
      </defs>
      <g>
       <use xlink:href="#m88bd51d7ac" x="121.92" y="322.75952" style="stroke: #000000; stroke-width: 1.6"/>
      </g>
     </g>
     <g id="text_1">
      <!-- -1 -->
      <g transform="translate(105.9675 355.57452) scale(0.32 -0.32)">
       <defs>
        <path id="DejaVuSans-2d" d="M 313 2009 
L 1997 2009 
L 1997 1497 
L 313 1497 
L 313 2009 
z
" transform="scale(0.015625)"/>
        <path id="DejaVuSans-31" d="M 794 531 
L 1825 531 
L 1825 4091 
L 703 3866 
L 703 4441 
L 1819 4666 
L 2450 4666 
L 2450 531 
L 3481 531 
L 3481 0 
L 794 0 
L 794 531 
z
" transform="scale(0.015625)"/>
       </defs>
       <use xlink:href="#DejaVuSans-2d"/>
       <use xlink:href="#DejaVuSans-31" transform="translate(36.083984 0)"/>
      </g>
     </g>
    </g>
    <g id="xtick_2">
     <g id="line2d_2">
      <g>
       <use xlink:href="#m88bd51d7ac" x="209.210878" y="322.75952" style="stroke: #000000; stroke-width: 1.6"/>
      </g>
     </g>
     <g id="text_2">
      <!-- 0 -->
      <g transform="translate(199.030878 355.57452) scale(0.32 -0.32)">
       <defs>
        <path id="DejaVuSans-30" d="M 2034 4250 
Q 1547 4250 1301 3770 
Q 1056 3291 1056 2328 
Q 1056 1369 1301 889 
Q 1547 409 2034 409 
Q 2525 409 2770 889 
Q 3016 1369 3016 2328 
Q 3016 3291 2770 3770 
Q 2525 4250 2034 4250 
z
M 2034 4750 
Q 2819 4750 3233 4129 
Q 3647 3509 3647 2328 
Q 3647 1150 3233 529 
Q 2819 -91 2034 -91 
Q 1250 -91 836 529 
Q 422 1150 422 2328 
Q 422 3509 836 4129 
Q 1250 4750 2034 4750 
z
" transform="scale(0.015625)"/>
       </defs>
       <use xlink:href="#DejaVuSans-30"/>
      </g>
     </g>
    </g>
    <g id="xtick_3">
     <g id="line2d_3">
      <g>
       <use xlink:href="#m88bd51d7ac" x="296.501755" y="322.75952" style="stroke: #000000; stroke-width: 1.6"/>
      </g>
     </g>
     <g id="text_3">
      <!-- 1 -->
      <g transform="translate(286.321755 355.57452) scale(0.32 -0.32)">
       <use xlink:href="#DejaVuSans-31"/>
      </g>
     </g>
    </g>
    <g id="xtick_4">
     <g id="line2d_4">
      <g>
       <use xlink:href="#m88bd51d7ac" x="383.792633" y="322.75952" style="stroke: #000000; stroke-width: 1.6"/>
      </g>
     </g>
     <g id="text_4">
      <!-- 2 -->
      <g transform="translate(373.612633 355.57452) scale(0.32 -0.32)">
       <defs>
        <path id="DejaVuSans-32" d="M 1228 531 
L 3431 531 
L 3431 0 
L 469 0 
L 469 531 
Q 828 903 1448 1529 
Q 2069 2156 2228 2338 
Q 2531 2678 2651 2914 
Q 2772 3150 2772 3378 
Q 2772 3750 2511 3984 
Q 2250 4219 1831 4219 
Q 1534 4219 1204 4116 
Q 875 4013 500 3803 
L 500 4441 
Q 881 4594 1212 4672 
Q 1544 4750 1819 4750 
Q 2544 4750 2975 4387 
Q 3406 4025 3406 3419 
Q 3406 3131 3298 2873 
Q 3191 2616 2906 2266 
Q 2828 2175 2409 1742 
Q 1991 1309 1228 531 
z
" transform="scale(0.015625)"/>
       </defs>
       <use xlink:href="#DejaVuSans-32"/>
      </g>
     </g>
    </g>
    <g id="xtick_5">
     <g id="line2d_5">
      <g>
       <use xlink:href="#m88bd51d7ac" x="471.08351" y="322.75952" style="stroke: #000000; stroke-width: 1.6"/>
      </g>
     </g>
     <g id="text_5">
      <!-- 3 -->
      <g transform="translate(460.90351 355.57452) scale(0.32 -0.32)">
       <defs>
        <path id="DejaVuSans-33" d="M 2597 2516 
Q 3050 2419 3304 2112 
Q 3559 1806 3559 1356 
Q 3559 666 3084 287 
Q 2609 -91 1734 -91 
Q 1441 -91 1130 -33 
Q 819 25 488 141 
L 488 750 
Q 750 597 1062 519 
Q 1375 441 1716 441 
Q 2309 441 2620 675 
Q 2931 909 2931 1356 
Q 2931 1769 2642 2001 
Q 2353 2234 1838 2234 
L 1294 2234 
L 1294 2753 
L 1863 2753 
Q 2328 2753 2575 2939 
Q 2822 3125 2822 3475 
Q 2822 3834 2567 4026 
Q 2313 4219 1838 4219 
Q 1578 4219 1281 4162 
Q 984 4106 628 3988 
L 628 4550 
Q 988 4650 1302 4700 
Q 1616 4750 1894 4750 
Q 2613 4750 3031 4423 
Q 3450 4097 3450 3541 
Q 3450 3153 3228 2886 
Q 3006 2619 2597 2516 
z
" transform="scale(0.015625)"/>
       </defs>
       <use xlink:href="#DejaVuSans-33"/>
      </g>
     </g>
    </g>
    <g id="text_6">
     <!-- Time (s) -->
     <g transform="translate(231.449255 390.54452) scale(0.32 -0.32)">
      <defs>
       <path id="DejaVuSans-54" d="M -19 4666 
L 3928 4666 
L 3928 4134 
L 2272 4134 
L 2272 0 
L 1638 0 
L 1638 4134 
L -19 4134 
L -19 4666 
z
" transform="scale(0.015625)"/>
       <path id="DejaVuSans-69" d="M 603 3500 
L 1178 3500 
L 1178 0 
L 603 0 
L 603 3500 
z
M 603 4863 
L 1178 4863 
L 1178 4134 
L 603 4134 
L 603 4863 
z
" transform="scale(0.015625)"/>
       <path id="DejaVuSans-6d" d="M 3328 2828 
Q 3544 3216 3844 3400 
Q 4144 3584 4550 3584 
Q 5097 3584 5394 3201 
Q 5691 2819 5691 2113 
L 5691 0 
L 5113 0 
L 5113 2094 
Q 5113 2597 4934 2840 
Q 4756 3084 4391 3084 
Q 3944 3084 3684 2787 
Q 3425 2491 3425 1978 
L 3425 0 
L 2847 0 
L 2847 2094 
Q 2847 2600 2669 2842 
Q 2491 3084 2119 3084 
Q 1678 3084 1418 2786 
Q 1159 2488 1159 1978 
L 1159 0 
L 581 0 
L 581 3500 
L 1159 3500 
L 1159 2956 
Q 1356 3278 1631 3431 
Q 1906 3584 2284 3584 
Q 2666 3584 2933 3390 
Q 3200 3197 3328 2828 
z
" transform="scale(0.015625)"/>
       <path id="DejaVuSans-65" d="M 3597 1894 
L 3597 1613 
L 953 1613 
Q 991 1019 1311 708 
Q 1631 397 2203 397 
Q 2534 397 2845 478 
Q 3156 559 3463 722 
L 3463 178 
Q 3153 47 2828 -22 
Q 2503 -91 2169 -91 
Q 1331 -91 842 396 
Q 353 884 353 1716 
Q 353 2575 817 3079 
Q 1281 3584 2069 3584 
Q 2775 3584 3186 3129 
Q 3597 2675 3597 1894 
z
M 3022 2063 
Q 3016 2534 2758 2815 
Q 2500 3097 2075 3097 
Q 1594 3097 1305 2825 
Q 1016 2553 972 2059 
L 3022 2063 
z
" transform="scale(0.015625)"/>
       <path id="DejaVuSans-20" transform="scale(0.015625)"/>
       <path id="DejaVuSans-28" d="M 1984 4856 
Q 1566 4138 1362 3434 
Q 1159 2731 1159 2009 
Q 1159 1288 1364 580 
Q 1569 -128 1984 -844 
L 1484 -844 
Q 1016 -109 783 600 
Q 550 1309 550 2009 
Q 550 2706 781 3412 
Q 1013 4119 1484 4856 
L 1984 4856 
z
" transform="scale(0.015625)"/>
       <path id="DejaVuSans-73" d="M 2834 3397 
L 2834 2853 
Q 2591 2978 2328 3040 
Q 2066 3103 1784 3103 
Q 1356 3103 1142 2972 
Q 928 2841 928 2578 
Q 928 2378 1081 2264 
Q 1234 2150 1697 2047 
L 1894 2003 
Q 2506 1872 2764 1633 
Q 3022 1394 3022 966 
Q 3022 478 2636 193 
Q 2250 -91 1575 -91 
Q 1294 -91 989 -36 
Q 684 19 347 128 
L 347 722 
Q 666 556 975 473 
Q 1284 391 1588 391 
Q 1994 391 2212 530 
Q 2431 669 2431 922 
Q 2431 1156 2273 1281 
Q 2116 1406 1581 1522 
L 1381 1569 
Q 847 1681 609 1914 
Q 372 2147 372 2553 
Q 372 3047 722 3315 
Q 1072 3584 1716 3584 
Q 2034 3584 2315 3537 
Q 2597 3491 2834 3397 
z
" transform="scale(0.015625)"/>
       <path id="DejaVuSans-29" d="M 513 4856 
L 1013 4856 
Q 1481 4119 1714 3412 
Q 1947 2706 1947 2009 
Q 1947 1309 1714 600 
Q 1481 -109 1013 -844 
L 513 -844 
Q 928 -128 1133 580 
Q 1338 1288 1338 2009 
Q 1338 2731 1133 3434 
Q 928 4138 513 4856 
z
" transform="scale(0.015625)"/>
      </defs>
      <use xlink:href="#DejaVuSans-54"/>
      <use xlink:href="#DejaVuSans-69" transform="translate(57.958984 0)"/>
      <use xlink:href="#DejaVuSans-6d" transform="translate(85.742188 0)"/>
      <use xlink:href="#DejaVuSans-65" transform="translate(183.154297 0)"/>
      <use xlink:href="#DejaVuSans-20" transform="translate(244.677734 0)"/>
      <use xlink:href="#DejaVuSans-28" transform="translate(276.464844 0)"/>
      <use xlink:href="#DejaVuSans-73" transform="translate(315.478516 0)"/>
      <use xlink:href="#DejaVuSans-29" transform="translate(367.578125 0)"/>
     </g>
    </g>
   </g>
   <g id="matplotlib.axis_2">
    <g id="ytick_1">
     <g id="line2d_6">
      <defs>
       <path id="m0d8859a231" d="M 0 0 
L -5 0 
" style="stroke: #000000; stroke-width: 1.6"/>
      </defs>
      <g>
       <use xlink:href="#m0d8859a231" x="121.92" y="302.813159" style="stroke: #000000; stroke-width: 1.6"/>
      </g>
     </g>
     <g id="text_7">
      <!-- 0.00 -->
      <g transform="translate(42.17 314.970659) scale(0.32 -0.32)">
       <defs>
        <path id="DejaVuSans-2e" d="M 684 794 
L 1344 794 
L 1344 0 
L 684 0 
L 684 794 
z
" transform="scale(0.015625)"/>
       </defs>
       <use xlink:href="#DejaVuSans-30"/>
       <use xlink:href="#DejaVuSans-2e" transform="translate(63.623047 0)"/>
       <use xlink:href="#DejaVuSans-30" transform="translate(95.410156 0)"/>
       <use xlink:href="#DejaVuSans-30" transform="translate(159.033203 0)"/>
      </g>
     </g>
    </g>
    <g id="ytick_2">
     <g id="line2d_7">
      <g>
       <use xlink:href="#m0d8859a231" x="121.92" y="209.69002" style="stroke: #000000; stroke-width: 1.6"/>
      </g>
     </g>
     <g id="text_8">
      <!-- 0.01 -->
      <g transform="translate(42.17 221.84752) scale(0.32 -0.32)">
       <use xlink:href="#DejaVuSans-30"/>
       <use xlink:href="#DejaVuSans-2e" transform="translate(63.623047 0)"/>
       <use xlink:href="#DejaVuSans-30" transform="translate(95.410156 0)"/>
       <use xlink:href="#DejaVuSans-31" transform="translate(159.033203 0)"/>
      </g>
     </g>
    </g>
    <g id="ytick_3">
     <g id="line2d_8">
      <g>
       <use xlink:href="#m0d8859a231" x="121.92" y="116.566882" style="stroke: #000000; stroke-width: 1.6"/>
      </g>
     </g>
     <g id="text_9">
      <!-- 0.02 -->
      <g transform="translate(42.17 128.724382) scale(0.32 -0.32)">
       <use xlink:href="#DejaVuSans-30"/>
       <use xlink:href="#DejaVuSans-2e" transform="translate(63.623047 0)"/>
       <use xlink:href="#DejaVuSans-30" transform="translate(95.410156 0)"/>
       <use xlink:href="#DejaVuSans-32" transform="translate(159.033203 0)"/>
      </g>
     </g>
    </g>
    <g id="text_10">
     <!-- Neural Activity -->
     <g transform="translate(31.515 294.944838) rotate(-90) scale(0.32 -0.32)">
      <defs>
       <path id="DejaVuSans-4e" d="M 628 4666 
L 1478 4666 
L 3547 763 
L 3547 4666 
L 4159 4666 
L 4159 0 
L 3309 0 
L 1241 3903 
L 1241 0 
L 628 0 
L 628 4666 
z
" transform="scale(0.015625)"/>
       <path id="DejaVuSans-75" d="M 544 1381 
L 544 3500 
L 1119 3500 
L 1119 1403 
Q 1119 906 1312 657 
Q 1506 409 1894 409 
Q 2359 409 2629 706 
Q 2900 1003 2900 1516 
L 2900 3500 
L 3475 3500 
L 3475 0 
L 2900 0 
L 2900 538 
Q 2691 219 2414 64 
Q 2138 -91 1772 -91 
Q 1169 -91 856 284 
Q 544 659 544 1381 
z
M 1991 3584 
L 1991 3584 
z
" transform="scale(0.015625)"/>
       <path id="DejaVuSans-72" d="M 2631 2963 
Q 2534 3019 2420 3045 
Q 2306 3072 2169 3072 
Q 1681 3072 1420 2755 
Q 1159 2438 1159 1844 
L 1159 0 
L 581 0 
L 581 3500 
L 1159 3500 
L 1159 2956 
Q 1341 3275 1631 3429 
Q 1922 3584 2338 3584 
Q 2397 3584 2469 3576 
Q 2541 3569 2628 3553 
L 2631 2963 
z
" transform="scale(0.015625)"/>
       <path id="DejaVuSans-61" d="M 2194 1759 
Q 1497 1759 1228 1600 
Q 959 1441 959 1056 
Q 959 750 1161 570 
Q 1363 391 1709 391 
Q 2188 391 2477 730 
Q 2766 1069 2766 1631 
L 2766 1759 
L 2194 1759 
z
M 3341 1997 
L 3341 0 
L 2766 0 
L 2766 531 
Q 2569 213 2275 61 
Q 1981 -91 1556 -91 
Q 1019 -91 701 211 
Q 384 513 384 1019 
Q 384 1609 779 1909 
Q 1175 2209 1959 2209 
L 2766 2209 
L 2766 2266 
Q 2766 2663 2505 2880 
Q 2244 3097 1772 3097 
Q 1472 3097 1187 3025 
Q 903 2953 641 2809 
L 641 3341 
Q 956 3463 1253 3523 
Q 1550 3584 1831 3584 
Q 2591 3584 2966 3190 
Q 3341 2797 3341 1997 
z
" transform="scale(0.015625)"/>
       <path id="DejaVuSans-6c" d="M 603 4863 
L 1178 4863 
L 1178 0 
L 603 0 
L 603 4863 
z
" transform="scale(0.015625)"/>
       <path id="DejaVuSans-41" d="M 2188 4044 
L 1331 1722 
L 3047 1722 
L 2188 4044 
z
M 1831 4666 
L 2547 4666 
L 4325 0 
L 3669 0 
L 3244 1197 
L 1141 1197 
L 716 0 
L 50 0 
L 1831 4666 
z
" transform="scale(0.015625)"/>
       <path id="DejaVuSans-63" d="M 3122 3366 
L 3122 2828 
Q 2878 2963 2633 3030 
Q 2388 3097 2138 3097 
Q 1578 3097 1268 2742 
Q 959 2388 959 1747 
Q 959 1106 1268 751 
Q 1578 397 2138 397 
Q 2388 397 2633 464 
Q 2878 531 3122 666 
L 3122 134 
Q 2881 22 2623 -34 
Q 2366 -91 2075 -91 
Q 1284 -91 818 406 
Q 353 903 353 1747 
Q 353 2603 823 3093 
Q 1294 3584 2113 3584 
Q 2378 3584 2631 3529 
Q 2884 3475 3122 3366 
z
" transform="scale(0.015625)"/>
       <path id="DejaVuSans-74" d="M 1172 4494 
L 1172 3500 
L 2356 3500 
L 2356 3053 
L 1172 3053 
L 1172 1153 
Q 1172 725 1289 603 
Q 1406 481 1766 481 
L 2356 481 
L 2356 0 
L 1766 0 
Q 1100 0 847 248 
Q 594 497 594 1153 
L 594 3053 
L 172 3053 
L 172 3500 
L 594 3500 
L 594 4494 
L 1172 4494 
z
" transform="scale(0.015625)"/>
       <path id="DejaVuSans-76" d="M 191 3500 
L 800 3500 
L 1894 563 
L 2988 3500 
L 3597 3500 
L 2284 0 
L 1503 0 
L 191 3500 
z
" transform="scale(0.015625)"/>
       <path id="DejaVuSans-79" d="M 2059 -325 
Q 1816 -950 1584 -1140 
Q 1353 -1331 966 -1331 
L 506 -1331 
L 506 -850 
L 844 -850 
Q 1081 -850 1212 -737 
Q 1344 -625 1503 -206 
L 1606 56 
L 191 3500 
L 800 3500 
L 1894 763 
L 2988 3500 
L 3597 3500 
L 2059 -325 
z
" transform="scale(0.015625)"/>
      </defs>
      <use xlink:href="#DejaVuSans-4e"/>
      <use xlink:href="#DejaVuSans-65" transform="translate(74.804688 0)"/>
      <use xlink:href="#DejaVuSans-75" transform="translate(136.328125 0)"/>
      <use xlink:href="#DejaVuSans-72" transform="translate(199.707031 0)"/>
      <use xlink:href="#DejaVuSans-61" transform="translate(240.820312 0)"/>
      <use xlink:href="#DejaVuSans-6c" transform="translate(302.099609 0)"/>
      <use xlink:href="#DejaVuSans-20" transform="translate(329.882812 0)"/>
      <use xlink:href="#DejaVuSans-41" transform="translate(361.669922 0)"/>
      <use xlink:href="#DejaVuSans-63" transform="translate(428.328125 0)"/>
      <use xlink:href="#DejaVuSans-74" transform="translate(483.308594 0)"/>
      <use xlink:href="#DejaVuSans-69" transform="translate(522.517578 0)"/>
      <use xlink:href="#DejaVuSans-76" transform="translate(550.300781 0)"/>
      <use xlink:href="#DejaVuSans-69" transform="translate(609.480469 0)"/>
      <use xlink:href="#DejaVuSans-74" transform="translate(637.263672 0)"/>
      <use xlink:href="#DejaVuSans-79" transform="translate(676.472656 0)"/>
     </g>
    </g>
   </g>
   <g id="line2d_9">
    <path d="M 122.792909 265.665057 
L 124.538726 269.286998 
L 126.284544 272.555801 
L 128.030361 275.505895 
L 128.90327 276.871258 
L 129.776179 261.369838 
L 131.521997 265.410563 
L 132.394905 243.066008 
L 133.267814 230.771406 
L 135.013632 237.795476 
L 135.88654 221.070186 
L 137.632358 229.040122 
L 139.378176 236.232995 
L 140.251084 239.562002 
L 141.123993 237.251468 
L 142.869811 243.643736 
L 143.742719 226.569137 
L 144.615628 213.483587 
L 145.488537 190.217342 
L 147.234354 201.195436 
L 148.980172 211.103172 
L 150.72599 220.0449 
L 152.471807 228.114807 
L 154.217625 235.397898 
L 155.963442 241.970885 
L 156.836351 233.818878 
L 158.582169 240.545823 
L 159.455077 243.659191 
L 160.327986 236.1024 
L 162.073804 242.606699 
L 163.819621 248.476827 
L 164.69253 251.193645 
L 165.565439 245.203989 
L 166.438348 212.693784 
L 168.184165 221.480425 
L 169.929983 229.410362 
L 171.6758 236.567139 
L 172.548709 209.924326 
L 174.294527 218.980986 
L 176.040344 227.154627 
L 177.786162 234.531337 
L 179.531979 241.188814 
L 181.277797 247.197191 
L 183.023614 252.619748 
L 184.769432 257.513604 
L 186.515249 261.930316 
L 188.261067 265.916394 
L 190.006884 269.51383 
L 190.879793 271.178797 
L 191.752702 270.64552 
L 192.625611 264.295189 
L 194.371428 268.050695 
L 195.244337 241.355236 
L 196.990155 247.347386 
L 197.863063 250.120677 
L 198.735972 243.596882 
L 199.608881 246.557695 
L 200.48179 193.410265 
L 202.227607 133.547663 
L 203.100516 135.61421 
L 204.846334 151.9161 
L 206.592151 166.628567 
L 208.337969 179.906566 
L 210.083786 191.889964 
L 211.829604 202.704975 
L 213.575421 212.465525 
L 215.321239 221.274421 
L 217.067056 229.224453 
L 218.812874 236.399351 
L 220.558692 242.8747 
L 222.304509 248.718702 
L 224.050327 253.992911 
L 225.796144 258.752887 
L 227.541962 263.048764 
L 229.287779 266.925793 
L 231.033597 270.424813 
L 232.779414 273.582678 
L 235.398141 277.751676 
L 238.016867 281.32607 
L 240.635593 284.390667 
L 243.25432 287.018175 
L 245.873046 289.270935 
L 248.491772 291.202395 
L 251.110499 292.858381 
L 253.729225 294.278182 
L 256.347951 295.495483 
L 259.839586 296.852866 
L 263.331222 297.958464 
L 266.822857 298.85898 
L 271.187401 299.753491 
L 276.424853 300.564022 
L 282.535215 301.242503 
L 289.518485 301.771154 
L 298.247573 302.189272 
L 303.485025 302.354545 
L 304.357934 292.913641 
L 305.230843 269.422245 
L 306.97666 272.677861 
L 308.722478 275.616054 
L 309.595387 276.97591 
L 310.468295 244.19568 
L 311.341204 223.526479 
L 313.087022 231.256929 
L 313.959931 213.874937 
L 314.832839 218.321846 
L 315.705748 211.007806 
L 316.578657 183.085135 
L 317.451566 189.07154 
L 318.324474 192.564618 
L 320.070292 203.313855 
L 320.943201 203.507171 
L 321.816109 208.47247 
L 322.689018 192.301192 
L 323.561927 197.826794 
L 324.434836 198.838898 
L 325.307745 204.037615 
L 326.180653 190.601138 
L 327.053562 181.042716 
L 328.79938 192.915336 
L 329.672288 198.410229 
L 331.418106 207.918506 
L 333.163924 217.170736 
L 334.909741 225.520868 
L 336.655559 233.056867 
L 338.401376 239.858108 
L 339.274285 237.794965 
L 341.020103 244.134238 
L 342.76592 249.855433 
L 343.638829 252.50332 
L 344.511738 242.580646 
L 346.257555 248.45332 
L 348.003373 253.753404 
L 349.74919 258.536731 
L 351.495008 262.853684 
L 353.240825 266.749736 
L 354.113734 268.552909 
L 354.986643 245.086859 
L 355.859552 247.973173 
L 356.73246 238.782342 
L 357.605369 189.902001 
L 358.478278 165.719834 
L 360.224096 179.086434 
L 361.969913 191.149795 
L 363.715731 202.036981 
L 364.588639 204.124169 
L 365.461548 209.058619 
L 366.334457 195.540922 
L 367.207366 173.988503 
L 368.953183 186.548909 
L 370.699001 197.884676 
L 372.444818 208.115204 
L 374.190636 217.348259 
L 375.936454 225.681089 
L 377.682271 233.201472 
L 379.428089 239.988615 
L 381.173906 246.114009 
L 382.919724 251.642179 
L 384.665541 256.63135 
L 385.53845 258.940439 
L 386.411359 248.145666 
L 387.284268 219.302468 
L 388.157176 221.661617 
L 389.902994 229.573896 
L 391.648811 236.714724 
L 393.394629 243.159323 
L 395.140447 248.975572 
L 396.886264 254.224739 
L 398.632082 258.962108 
L 400.377899 263.237588 
L 402.123717 267.096207 
L 402.996626 268.882055 
L 403.869534 268.099429 
L 404.742443 255.438176 
L 406.488261 260.057236 
L 408.234078 264.225941 
L 409.106987 266.155302 
L 409.979896 262.343014 
L 410.852805 246.36996 
L 412.598622 251.873174 
L 414.34444 256.839826 
L 416.090257 261.322224 
L 416.963166 263.396772 
L 417.836075 251.220141 
L 419.581892 256.250459 
L 421.32771 260.790324 
L 422.200619 225.391826 
L 423.073527 202.291449 
L 424.819345 212.092319 
L 426.565162 220.937597 
L 427.438071 225.031377 
L 428.31098 221.090619 
L 430.056798 229.058569 
L 431.802615 236.249642 
L 432.675524 239.577817 
L 433.548433 239.764078 
L 435.29425 245.911366 
L 437.040068 251.459292 
L 438.785885 256.466294 
L 440.531703 260.985114 
L 442.27752 265.063349 
L 444.023338 268.743957 
L 445.769156 272.065703 
L 447.514973 275.063582 
L 450.133699 279.021367 
L 452.752426 282.41467 
L 453.625335 249.535868 
L 455.371152 254.730405 
L 457.11697 184.322479 
L 457.989878 169.35747 
L 459.735696 182.369398 
L 461.481513 194.112664 
L 462.354422 199.547688 
L 463.227331 162.89128 
L 464.973149 108.680807 
L 465.846057 51.791837 
L 467.591875 76.266423 
L 469.337692 98.354749 
L 470.210601 108.577671 
L 470.210601 108.577671 
" clip-path="url(#p11d0a90c13)" style="fill: none; stroke: #000000; stroke-width: 5; stroke-linecap: square"/>
   </g>
   <g id="line2d_10">
    <path d="M 122.792909 169.158725 
L 123.665818 115.934814 
L 124.538726 88.859386 
L 125.411635 87.278792 
L 126.284544 95.648499 
L 128.030361 115.847063 
L 128.90327 125.195371 
L 129.776179 124.092212 
L 131.521997 53.100679 
L 133.267814 77.447654 
L 135.013632 99.420806 
L 136.759449 119.251558 
L 138.505267 137.148822 
L 140.251084 153.301106 
L 141.996902 167.878538 
L 142.869811 174.625266 
L 143.742719 160.08531 
L 144.615628 135.175472 
L 146.361446 151.520153 
L 148.107263 166.271222 
L 149.853081 179.584069 
L 151.598898 191.598906 
L 152.471807 197.159616 
L 153.344716 180.578601 
L 154.217625 179.109946 
L 155.090533 133.694684 
L 155.963442 120.837617 
L 157.70926 138.580227 
L 159.455077 154.59295 
L 161.200895 169.044418 
L 162.073804 167.573343 
L 163.819621 180.759229 
L 165.565439 192.65949 
L 167.311256 203.399473 
L 169.057074 213.092306 
L 170.802891 221.840085 
L 172.548709 229.734967 
L 174.294527 236.860092 
L 175.167435 222.340885 
L 176.040344 189.181007 
L 177.786162 200.260148 
L 178.65907 205.3878 
L 179.531979 184.726344 
L 180.404888 183.076003 
L 181.277797 189.062858 
L 182.150705 188.21317 
L 183.896523 199.38667 
L 185.642341 209.470758 
L 187.388158 218.57164 
L 189.133976 226.785193 
L 190.006884 195.533593 
L 190.879793 191.863997 
L 192.625611 202.681541 
L 194.371428 212.444372 
L 196.117246 221.255332 
L 197.863063 229.20722 
L 198.735972 232.887518 
L 200.48179 147.685229 
L 201.354699 149.436538 
L 203.100516 164.390758 
L 204.846334 177.886947 
L 206.592151 190.067251 
L 208.337969 201.059985 
L 210.083786 210.980921 
L 211.829604 219.934565 
L 213.575421 228.015226 
L 215.321239 235.308027 
L 216.194148 238.683286 
L 217.067056 233.776854 
L 218.812874 240.507897 
L 220.558692 246.58266 
L 222.304509 252.065133 
L 223.177418 231.522285 
L 224.050327 235.086828 
L 224.923235 220.970284 
L 226.669053 228.94996 
L 228.414871 236.151622 
L 229.287779 227.687864 
L 230.160688 223.960473 
L 231.906506 231.648608 
L 232.779414 232.381488 
L 234.525232 239.248577 
L 236.27105 245.446128 
L 238.016867 251.039418 
L 239.762685 256.087359 
L 241.508502 260.643125 
L 243.25432 264.754702 
L 245.000137 268.465402 
L 245.873046 262.797393 
L 246.745955 213.302343 
L 248.491772 222.029646 
L 250.23759 229.906037 
L 251.983407 237.01448 
L 253.729225 243.429853 
L 255.475043 249.219728 
L 257.22086 254.445088 
L 258.966678 259.160979 
L 260.712495 263.417071 
L 262.458313 267.258192 
L 264.20413 270.724802 
L 265.077039 267.467924 
L 266.822857 270.914085 
L 267.695765 249.707363 
L 268.568674 252.362652 
L 269.441583 233.297193 
L 270.314492 236.772992 
L 271.187401 238.23865 
L 272.060309 222.178115 
L 272.933218 226.209868 
L 273.806127 229.296549 
L 274.679036 232.972381 
L 276.424853 196.599832 
L 278.170671 206.955629 
L 279.04358 191.968487 
L 279.916488 174.219043 
L 280.789397 178.203156 
L 282.535215 190.352629 
L 284.281032 201.317532 
L 286.02685 211.21336 
L 287.772667 220.144342 
L 288.645576 183.980763 
L 289.518485 179.201955 
L 290.391394 185.382517 
L 291.264302 172.285891 
L 293.01012 185.012303 
L 294.755937 196.497884 
L 296.501755 206.863628 
L 298.247573 216.218709 
L 299.120481 220.548432 
L 299.99339 221.032832 
L 300.866299 219.44216 
L 301.739208 197.521201 
L 302.612116 201.168343 
L 304.357934 211.078715 
L 306.103752 220.022828 
L 307.849569 228.094894 
L 308.722478 231.83081 
L 309.595387 228.812071 
L 310.468295 201.091693 
L 311.341204 206.177768 
L 312.214113 199.714795 
L 313.959931 209.766889 
L 315.705748 218.8389 
L 316.578657 210.185715 
L 318.324474 219.216893 
L 320.070292 227.367535 
L 321.816109 234.723482 
L 323.561927 241.36223 
L 324.434836 199.152115 
L 326.180653 209.259073 
L 327.926471 218.380604 
L 329.672288 226.612779 
L 331.418106 234.042318 
L 333.163924 240.747478 
L 334.036832 238.377944 
L 334.909741 228.110488 
L 335.78265 179.362619 
L 336.655559 158.919881 
L 338.401376 172.949479 
L 340.147194 185.611192 
L 341.893011 197.038388 
L 343.638829 207.351428 
L 345.384646 216.658947 
L 347.130464 225.058983 
L 348.876282 232.640014 
L 350.622099 239.4819 
L 352.367917 245.656699 
L 353.240825 240.682628 
L 354.986643 246.740357 
L 356.73246 252.207457 
L 358.478278 257.141512 
L 360.224096 261.594497 
L 361.969913 265.613315 
L 363.715731 269.240299 
L 364.588639 270.918942 
L 365.461548 246.626752 
L 367.207366 252.104928 
L 368.953183 257.048978 
L 370.699001 261.510987 
L 372.444818 265.537949 
L 373.317727 267.401709 
L 374.190636 260.549216 
L 375.063545 259.77345 
L 376.809362 263.969825 
L 378.55518 267.757052 
L 379.428089 267.735275 
L 380.300997 254.821395 
L 382.046815 259.500596 
L 383.792633 263.723571 
L 384.665541 255.117097 
L 386.411359 259.767466 
L 387.284268 227.313937 
L 388.157176 209.357448 
L 389.030085 185.17045 
L 389.902994 173.968825 
L 390.775903 109.788545 
L 392.52172 128.608452 
L 394.267538 145.593409 
L 396.013355 160.922345 
L 397.759173 174.756702 
L 399.50499 187.24221 
L 401.250808 198.510382 
L 402.996626 208.679905 
L 404.742443 217.857905 
L 406.488261 226.141049 
L 408.234078 233.616581 
L 409.979896 240.363249 
L 410.852805 243.485744 
L 411.725713 215.177231 
L 412.598622 219.559026 
L 413.471531 187.475612 
L 414.34444 187.316657 
L 415.217348 180.94585 
L 416.963166 192.827915 
L 418.708984 203.551481 
L 419.581892 208.514568 
L 420.454801 203.026969 
L 422.200619 212.756124 
L 423.946436 221.536686 
L 429.183889 242.709532 
L 430.929706 248.569639 
L 432.675524 253.858384 
L 434.421341 258.631476 
L 436.167159 262.939193 
L 437.040068 252.034267 
L 437.912977 253.752368 
L 438.785885 230.924862 
L 440.531703 237.933972 
L 442.27752 244.259698 
L 444.023338 249.968665 
L 445.769156 255.121004 
L 446.642064 251.587281 
L 448.387882 256.581806 
L 450.133699 261.089365 
L 451.006608 263.175556 
L 451.879517 196.549131 
L 452.752426 201.029882 
L 453.625335 187.190234 
L 455.371152 198.463471 
L 457.11697 208.637565 
L 458.862787 217.819693 
L 460.608605 226.106558 
L 461.481513 229.94189 
L 462.354422 230.416408 
L 463.227331 234.036248 
L 464.10024 196.139898 
L 464.973149 175.466325 
L 465.846057 161.349938 
L 467.591875 175.142606 
L 469.337692 187.590491 
L 470.210601 193.351629 
L 470.210601 193.351629 
" clip-path="url(#p11d0a90c13)" style="fill: none; stroke: #ff0000; stroke-width: 5; stroke-linecap: square"/>
   </g>
   <g id="line2d_11">
    <path d="M 122.792909 221.429126 
L 124.538726 229.364067 
L 126.284544 236.525358 
L 128.030361 242.988418 
L 128.90327 245.979655 
L 129.776179 214.918089 
L 131.521997 223.487859 
L 133.267814 231.222077 
L 135.013632 238.202207 
L 136.759449 244.501777 
L 138.505267 250.187136 
L 140.251084 255.318171 
L 141.123993 257.692922 
L 141.996902 257.526557 
L 143.742719 261.942002 
L 144.615628 263.985562 
L 145.488537 252.444263 
L 147.234354 257.355231 
L 148.980172 261.78738 
L 150.72599 265.78739 
L 152.471807 269.397404 
L 154.217625 272.65544 
L 155.963442 275.595819 
L 156.836351 276.956686 
L 157.70926 257.807642 
L 159.455077 262.195681 
L 161.200895 266.155888 
L 162.073804 266.081666 
L 163.819621 269.662988 
L 164.69253 266.091618 
L 166.438348 231.903137 
L 168.184165 238.816864 
L 169.057074 242.016677 
L 170.802891 204.834885 
L 171.6758 209.733803 
L 172.548709 189.433818 
L 174.294527 200.488311 
L 176.040344 210.464978 
L 177.786162 219.468924 
L 178.65907 222.578935 
L 179.531979 201.789677 
L 180.404888 204.755157 
L 182.150705 214.315808 
L 183.896523 222.944302 
L 185.642341 230.73152 
L 186.515249 229.481782 
L 188.261067 236.631591 
L 190.006884 243.084295 
L 191.752702 248.907864 
L 192.625611 214.030014 
L 194.371428 222.686374 
L 195.244337 215.289179 
L 196.117246 219.66538 
L 196.990155 211.226421 
L 197.863063 211.619843 
L 198.735972 214.752864 
L 200.48179 223.338748 
L 202.227607 231.087506 
L 203.973425 238.080763 
L 205.719242 244.392174 
L 207.46506 250.088223 
L 209.210878 255.228907 
L 210.956695 259.868374 
L 212.702513 264.055491 
L 214.44833 267.834363 
L 216.194148 271.244797 
L 217.939965 274.322713 
L 220.558692 278.386162 
L 223.177418 281.870061 
L 225.796144 284.85707 
L 228.414871 287.418058 
L 231.033597 289.613784 
L 233.652323 291.496345 
L 236.27105 293.110406 
L 238.889776 294.494261 
L 242.381411 296.037365 
L 245.873046 297.294233 
L 249.364681 298.31796 
L 253.729225 299.33486 
L 258.093769 300.121717 
L 263.331222 300.834702 
L 269.441583 301.431529 
L 277.297762 301.942388 
L 286.899758 302.317864 
L 299.120481 302.571616 
L 299.99339 290.174494 
L 300.866299 287.398734 
L 301.739208 273.458851 
L 302.612116 274.926567 
L 303.485025 269.346029 
L 304.357934 254.726211 
L 305.230843 253.128167 
L 306.97666 257.972454 
L 308.722478 262.344423 
L 310.468295 266.290129 
L 312.214113 269.851124 
L 313.087022 248.53248 
L 313.959931 241.189156 
L 314.832839 242.307939 
L 315.705748 245.3332 
L 316.578657 229.980189 
L 317.451566 233.026703 
L 318.324474 235.567156 
L 319.197383 238.929458 
L 322.689018 250.480462 
L 323.561927 237.496261 
L 324.434836 238.720067 
L 325.307745 222.669895 
L 327.053562 230.483869 
L 327.926471 234.100335 
L 328.79938 218.434627 
L 329.672288 184.890294 
L 331.418106 196.387774 
L 333.163924 206.764255 
L 334.909741 216.129032 
L 336.655559 224.58074 
L 338.401376 232.208401 
L 339.274285 235.738638 
L 340.147194 217.333957 
L 341.020103 205.553754 
L 342.76592 120.553497 
L 343.638829 77.951386 
L 344.511738 73.487772 
L 346.257555 95.847001 
L 347.130464 91.041403 
L 348.876282 111.689148 
L 350.622099 130.323752 
L 352.367917 147.141481 
L 354.113734 162.319476 
L 354.986643 169.344158 
L 356.73246 181.421473 
L 358.478278 193.257165 
L 359.351187 178.073021 
L 361.097004 190.235191 
L 361.969913 195.864095 
L 362.842822 186.636209 
L 364.588639 197.96346 
L 367.207366 212.799609 
L 368.080275 210.765723 
L 368.953183 215.368092 
L 369.826092 218.073328 
L 371.57191 226.335467 
L 373.317727 233.792044 
L 374.190636 237.243099 
L 375.063545 230.288506 
L 375.936454 233.914738 
L 376.809362 221.444641 
L 378.55518 229.378073 
L 380.300997 236.537994 
L 382.046815 242.999827 
L 383.792633 248.831626 
L 384.665541 251.530704 
L 386.411359 232.276634 
L 388.157176 239.153948 
L 389.902994 245.360723 
L 391.648811 250.962338 
L 393.394629 256.017795 
L 395.140447 260.580343 
L 396.886264 264.698043 
L 398.632082 268.414268 
L 400.377899 271.76816 
L 402.123717 274.795047 
L 402.996626 276.195952 
L 403.869534 258.802954 
L 405.615352 263.09395 
L 407.361169 266.966573 
L 409.106987 270.461616 
L 409.979896 272.079193 
L 410.852805 239.181788 
L 411.725713 242.363358 
L 412.598622 225.949416 
L 413.471531 129.440049 
L 414.34444 132.538777 
L 416.090257 149.140537 
L 417.836075 164.123628 
L 419.581892 177.645861 
L 421.32771 189.849678 
L 423.073527 200.863616 
L 424.819345 210.803701 
L 426.565162 219.774622 
L 428.31098 227.870885 
L 430.056798 235.177757 
L 430.929706 238.55953 
L 431.802615 226.398631 
L 432.675524 227.800618 
L 434.421341 235.114346 
L 436.167159 241.714982 
L 437.040068 229.783534 
L 438.785885 236.903924 
L 439.658794 240.199385 
L 440.531703 212.75131 
L 442.27752 221.53234 
L 444.023338 229.457221 
L 445.769156 236.609423 
L 447.514973 243.064287 
L 449.260791 248.889803 
L 451.006608 254.14733 
L 452.752426 258.892249 
L 454.498243 263.174537 
L 456.244061 267.039302 
L 457.989878 270.527253 
L 459.735696 273.67513 
L 462.354422 277.830943 
L 463.227331 277.056879 
L 464.10024 278.344694 
L 464.973149 264.154547 
L 466.718966 267.923762 
L 467.591875 269.668233 
L 468.464784 256.18285 
L 470.210601 260.729306 
L 470.210601 260.729306 
" clip-path="url(#p11d0a90c13)" style="fill: none; stroke: #0000ff; stroke-width: 5; stroke-linecap: square"/>
   </g>
   <g id="patch_3">
    <path d="M 121.92 322.75952 
L 121.92 31.720156 
" style="fill: none; stroke: #000000; stroke-width: 5; stroke-linejoin: miter; stroke-linecap: square"/>
   </g>
   <g id="patch_4">
    <path d="M 121.92 322.75952 
L 471.08351 322.75952 
" style="fill: none; stroke: #000000; stroke-width: 5; stroke-linejoin: miter; stroke-linecap: square"/>
   </g>
   <g id="patch_5">
    <path d="M 209.210878 316.938733 
L 296.501755 316.938733 
L 296.501755 306.752355 
L 209.210878 306.752355 
z
" style="fill: #8c5a2b; stroke: #8c5a2b; stroke-linejoin: miter"/>
   </g>
   <g id="text_11">
    <!-- Novel | Naive -->
    <g transform="translate(233.199099 21.720156) scale(0.19 -0.19)">
     <defs>
      <path id="DejaVuSans-6f" d="M 1959 3097 
Q 1497 3097 1228 2736 
Q 959 2375 959 1747 
Q 959 1119 1226 758 
Q 1494 397 1959 397 
Q 2419 397 2687 759 
Q 2956 1122 2956 1747 
Q 2956 2369 2687 2733 
Q 2419 3097 1959 3097 
z
M 1959 3584 
Q 2709 3584 3137 3096 
Q 3566 2609 3566 1747 
Q 3566 888 3137 398 
Q 2709 -91 1959 -91 
Q 1206 -91 779 398 
Q 353 888 353 1747 
Q 353 2609 779 3096 
Q 1206 3584 1959 3584 
z
" transform="scale(0.015625)"/>
      <path id="DejaVuSans-7c" d="M 1344 4891 
L 1344 -1509 
L 813 -1509 
L 813 4891 
L 1344 4891 
z
" transform="scale(0.015625)"/>
     </defs>
     <use xlink:href="#DejaVuSans-4e"/>
     <use xlink:href="#DejaVuSans-6f" transform="translate(74.804688 0)"/>
     <use xlink:href="#DejaVuSans-76" transform="translate(135.986328 0)"/>
     <use xlink:href="#DejaVuSans-65" transform="translate(195.166016 0)"/>
     <use xlink:href="#DejaVuSans-6c" transform="translate(256.689453 0)"/>
     <use xlink:href="#DejaVuSans-20" transform="translate(284.472656 0)"/>
     <use xlink:href="#DejaVuSans-7c" transform="translate(316.259766 0)"/>
     <use xlink:href="#DejaVuSans-20" transform="translate(349.951172 0)"/>
     <use xlink:href="#DejaVuSans-4e" transform="translate(381.738281 0)"/>
     <use xlink:href="#DejaVuSans-61" transform="translate(456.542969 0)"/>
     <use xlink:href="#DejaVuSans-69" transform="translate(517.822266 0)"/>
     <use xlink:href="#DejaVuSans-76" transform="translate(545.605469 0)"/>
     <use xlink:href="#DejaVuSans-65" transform="translate(604.785156 0)"/>
    </g>
   </g>
   <g id="legend_1">
    <g id="line2d_12">
     <path d="M 130.92 46.867812 
L 145.92 46.867812 
L 160.92 46.867812 
" style="fill: none; stroke: #000000; stroke-width: 5; stroke-linecap: square"/>
    </g>
    <g id="text_12">
     <!-- Nonoccluded (NO) -->
     <g transform="translate(172.92 52.117812) scale(0.15 -0.15)">
      <defs>
       <path id="DejaVuSans-6e" d="M 3513 2113 
L 3513 0 
L 2938 0 
L 2938 2094 
Q 2938 2591 2744 2837 
Q 2550 3084 2163 3084 
Q 1697 3084 1428 2787 
Q 1159 2491 1159 1978 
L 1159 0 
L 581 0 
L 581 3500 
L 1159 3500 
L 1159 2956 
Q 1366 3272 1645 3428 
Q 1925 3584 2291 3584 
Q 2894 3584 3203 3211 
Q 3513 2838 3513 2113 
z
" transform="scale(0.015625)"/>
       <path id="DejaVuSans-64" d="M 2906 2969 
L 2906 4863 
L 3481 4863 
L 3481 0 
L 2906 0 
L 2906 525 
Q 2725 213 2448 61 
Q 2172 -91 1784 -91 
Q 1150 -91 751 415 
Q 353 922 353 1747 
Q 353 2572 751 3078 
Q 1150 3584 1784 3584 
Q 2172 3584 2448 3432 
Q 2725 3281 2906 2969 
z
M 947 1747 
Q 947 1113 1208 752 
Q 1469 391 1925 391 
Q 2381 391 2643 752 
Q 2906 1113 2906 1747 
Q 2906 2381 2643 2742 
Q 2381 3103 1925 3103 
Q 1469 3103 1208 2742 
Q 947 2381 947 1747 
z
" transform="scale(0.015625)"/>
       <path id="DejaVuSans-4f" d="M 2522 4238 
Q 1834 4238 1429 3725 
Q 1025 3213 1025 2328 
Q 1025 1447 1429 934 
Q 1834 422 2522 422 
Q 3209 422 3611 934 
Q 4013 1447 4013 2328 
Q 4013 3213 3611 3725 
Q 3209 4238 2522 4238 
z
M 2522 4750 
Q 3503 4750 4090 4092 
Q 4678 3434 4678 2328 
Q 4678 1225 4090 567 
Q 3503 -91 2522 -91 
Q 1538 -91 948 565 
Q 359 1222 359 2328 
Q 359 3434 948 4092 
Q 1538 4750 2522 4750 
z
" transform="scale(0.015625)"/>
      </defs>
      <use xlink:href="#DejaVuSans-4e"/>
      <use xlink:href="#DejaVuSans-6f" transform="translate(74.804688 0)"/>
      <use xlink:href="#DejaVuSans-6e" transform="translate(135.986328 0)"/>
      <use xlink:href="#DejaVuSans-6f" transform="translate(199.365234 0)"/>
      <use xlink:href="#DejaVuSans-63" transform="translate(260.546875 0)"/>
      <use xlink:href="#DejaVuSans-63" transform="translate(315.527344 0)"/>
      <use xlink:href="#DejaVuSans-6c" transform="translate(370.507812 0)"/>
      <use xlink:href="#DejaVuSans-75" transform="translate(398.291016 0)"/>
      <use xlink:href="#DejaVuSans-64" transform="translate(461.669922 0)"/>
      <use xlink:href="#DejaVuSans-65" transform="translate(525.146484 0)"/>
      <use xlink:href="#DejaVuSans-64" transform="translate(586.669922 0)"/>
      <use xlink:href="#DejaVuSans-20" transform="translate(650.146484 0)"/>
      <use xlink:href="#DejaVuSans-28" transform="translate(681.933594 0)"/>
      <use xlink:href="#DejaVuSans-4e" transform="translate(720.947266 0)"/>
      <use xlink:href="#DejaVuSans-4f" transform="translate(795.751953 0)"/>
      <use xlink:href="#DejaVuSans-29" transform="translate(874.462891 0)"/>
     </g>
    </g>
    <g id="line2d_13">
     <path d="M 130.92 68.885 
L 145.92 68.885 
L 160.92 68.885 
" style="fill: none; stroke: #ff0000; stroke-width: 5; stroke-linecap: square"/>
    </g>
    <g id="text_13">
     <!-- Occluded (O) -->
     <g transform="translate(172.92 74.135) scale(0.15 -0.15)">
      <use xlink:href="#DejaVuSans-4f"/>
      <use xlink:href="#DejaVuSans-63" transform="translate(78.710938 0)"/>
      <use xlink:href="#DejaVuSans-63" transform="translate(133.691406 0)"/>
      <use xlink:href="#DejaVuSans-6c" transform="translate(188.671875 0)"/>
      <use xlink:href="#DejaVuSans-75" transform="translate(216.455078 0)"/>
      <use xlink:href="#DejaVuSans-64" transform="translate(279.833984 0)"/>
      <use xlink:href="#DejaVuSans-65" transform="translate(343.310547 0)"/>
      <use xlink:href="#DejaVuSans-64" transform="translate(404.833984 0)"/>
      <use xlink:href="#DejaVuSans-20" transform="translate(468.310547 0)"/>
      <use xlink:href="#DejaVuSans-28" transform="translate(500.097656 0)"/>
      <use xlink:href="#DejaVuSans-4f" transform="translate(539.111328 0)"/>
      <use xlink:href="#DejaVuSans-29" transform="translate(617.822266 0)"/>
     </g>
    </g>
    <g id="line2d_14">
     <path d="M 130.92 90.902187 
L 145.92 90.902187 
L 160.92 90.902187 
" style="fill: none; stroke: #0000ff; stroke-width: 5; stroke-linecap: square"/>
    </g>
    <g id="text_14">
     <!-- No feedback -->
     <g transform="translate(172.92 96.152187) scale(0.15 -0.15)">
      <defs>
       <path id="DejaVuSans-66" d="M 2375 4863 
L 2375 4384 
L 1825 4384 
Q 1516 4384 1395 4259 
Q 1275 4134 1275 3809 
L 1275 3500 
L 2222 3500 
L 2222 3053 
L 1275 3053 
L 1275 0 
L 697 0 
L 697 3053 
L 147 3053 
L 147 3500 
L 697 3500 
L 697 3744 
Q 697 4328 969 4595 
Q 1241 4863 1831 4863 
L 2375 4863 
z
" transform="scale(0.015625)"/>
       <path id="DejaVuSans-62" d="M 3116 1747 
Q 3116 2381 2855 2742 
Q 2594 3103 2138 3103 
Q 1681 3103 1420 2742 
Q 1159 2381 1159 1747 
Q 1159 1113 1420 752 
Q 1681 391 2138 391 
Q 2594 391 2855 752 
Q 3116 1113 3116 1747 
z
M 1159 2969 
Q 1341 3281 1617 3432 
Q 1894 3584 2278 3584 
Q 2916 3584 3314 3078 
Q 3713 2572 3713 1747 
Q 3713 922 3314 415 
Q 2916 -91 2278 -91 
Q 1894 -91 1617 61 
Q 1341 213 1159 525 
L 1159 0 
L 581 0 
L 581 4863 
L 1159 4863 
L 1159 2969 
z
" transform="scale(0.015625)"/>
       <path id="DejaVuSans-6b" d="M 581 4863 
L 1159 4863 
L 1159 1991 
L 2875 3500 
L 3609 3500 
L 1753 1863 
L 3688 0 
L 2938 0 
L 1159 1709 
L 1159 0 
L 581 0 
L 581 4863 
z
" transform="scale(0.015625)"/>
      </defs>
      <use xlink:href="#DejaVuSans-4e"/>
      <use xlink:href="#DejaVuSans-6f" transform="translate(74.804688 0)"/>
      <use xlink:href="#DejaVuSans-20" transform="translate(135.986328 0)"/>
      <use xlink:href="#DejaVuSans-66" transform="translate(167.773438 0)"/>
      <use xlink:href="#DejaVuSans-65" transform="translate(202.978516 0)"/>
      <use xlink:href="#DejaVuSans-65" transform="translate(264.501953 0)"/>
      <use xlink:href="#DejaVuSans-64" transform="translate(326.025391 0)"/>
      <use xlink:href="#DejaVuSans-62" transform="translate(389.501953 0)"/>
      <use xlink:href="#DejaVuSans-61" transform="translate(452.978516 0)"/>
      <use xlink:href="#DejaVuSans-63" transform="translate(514.257812 0)"/>
      <use xlink:href="#DejaVuSans-6b" transform="translate(569.238281 0)"/>
     </g>
    </g>
   </g>
  </g>
  <g id="axes_2">
   <g id="patch_6">
    <path d="M 505.85601 322.75952 
L 855.01952 322.75952 
L 855.01952 31.720156 
L 505.85601 31.720156 
z
" style="fill: #ffffff"/>
   </g>
   <g id="matplotlib.axis_3">
    <g id="xtick_6">
     <g id="line2d_15">
      <g>
       <use xlink:href="#m88bd51d7ac" x="505.85601" y="322.75952" style="stroke: #000000; stroke-width: 1.6"/>
      </g>
     </g>
     <g id="text_15">
      <!-- -1 -->
      <g transform="translate(489.90351 355.57452) scale(0.32 -0.32)">
       <use xlink:href="#DejaVuSans-2d"/>
       <use xlink:href="#DejaVuSans-31" transform="translate(36.083984 0)"/>
      </g>
     </g>
    </g>
    <g id="xtick_7">
     <g id="line2d_16">
      <g>
       <use xlink:href="#m88bd51d7ac" x="593.146888" y="322.75952" style="stroke: #000000; stroke-width: 1.6"/>
      </g>
     </g>
     <g id="text_16">
      <!-- 0 -->
      <g transform="translate(582.966888 355.57452) scale(0.32 -0.32)">
       <use xlink:href="#DejaVuSans-30"/>
      </g>
     </g>
    </g>
    <g id="xtick_8">
     <g id="line2d_17">
      <g>
       <use xlink:href="#m88bd51d7ac" x="680.437765" y="322.75952" style="stroke: #000000; stroke-width: 1.6"/>
      </g>
     </g>
     <g id="text_17">
      <!-- 1 -->
      <g transform="translate(670.257765 355.57452) scale(0.32 -0.32)">
       <use xlink:href="#DejaVuSans-31"/>
      </g>
     </g>
    </g>
    <g id="xtick_9">
     <g id="line2d_18">
      <g>
       <use xlink:href="#m88bd51d7ac" x="767.728643" y="322.75952" style="stroke: #000000; stroke-width: 1.6"/>
      </g>
     </g>
     <g id="text_18">
      <!-- 2 -->
      <g transform="translate(757.548643 355.57452) scale(0.32 -0.32)">
       <use xlink:href="#DejaVuSans-32"/>
      </g>
     </g>
    </g>
    <g id="xtick_10">
     <g id="line2d_19">
      <g>
       <use xlink:href="#m88bd51d7ac" x="855.01952" y="322.75952" style="stroke: #000000; stroke-width: 1.6"/>
      </g>
     </g>
     <g id="text_19">
      <!-- 3 -->
      <g transform="translate(844.83952 355.57452) scale(0.32 -0.32)">
       <use xlink:href="#DejaVuSans-33"/>
      </g>
     </g>
    </g>
    <g id="text_20">
     <!-- Time (s) -->
     <g transform="translate(615.385265 390.54452) scale(0.32 -0.32)">
      <use xlink:href="#DejaVuSans-54"/>
      <use xlink:href="#DejaVuSans-69" transform="translate(57.958984 0)"/>
      <use xlink:href="#DejaVuSans-6d" transform="translate(85.742188 0)"/>
      <use xlink:href="#DejaVuSans-65" transform="translate(183.154297 0)"/>
      <use xlink:href="#DejaVuSans-20" transform="translate(244.677734 0)"/>
      <use xlink:href="#DejaVuSans-28" transform="translate(276.464844 0)"/>
      <use xlink:href="#DejaVuSans-73" transform="translate(315.478516 0)"/>
      <use xlink:href="#DejaVuSans-29" transform="translate(367.578125 0)"/>
     </g>
    </g>
   </g>
   <g id="matplotlib.axis_4">
    <g id="ytick_4">
     <g id="line2d_20">
      <g>
       <use xlink:href="#m0d8859a231" x="505.85601" y="302.813159" style="stroke: #000000; stroke-width: 1.6"/>
      </g>
     </g>
    </g>
    <g id="ytick_5">
     <g id="line2d_21">
      <g>
       <use xlink:href="#m0d8859a231" x="505.85601" y="209.69002" style="stroke: #000000; stroke-width: 1.6"/>
      </g>
     </g>
    </g>
    <g id="ytick_6">
     <g id="line2d_22">
      <g>
       <use xlink:href="#m0d8859a231" x="505.85601" y="116.566882" style="stroke: #000000; stroke-width: 1.6"/>
      </g>
     </g>
    </g>
   </g>
   <g id="line2d_23">
    <path d="M 506.728919 283.458424 
L 509.347645 286.218895 
L 511.966371 288.585652 
L 514.585098 290.614851 
L 517.203824 292.354636 
L 519.82255 293.846284 
L 522.441277 295.125184 
L 525.932912 296.551256 
L 529.424547 297.7128 
L 532.916182 298.658885 
L 537.280726 299.598661 
L 542.518179 300.450208 
L 547.755631 301.076173 
L 553.865993 301.600157 
L 554.738901 279.123257 
L 557.357628 282.502031 
L 559.976354 285.398906 
L 562.59508 287.882614 
L 565.213807 290.012083 
L 567.832533 291.837836 
L 570.451259 293.403192 
L 571.324168 293.87369 
L 572.197077 282.913074 
L 574.815803 285.751325 
L 577.43453 288.18477 
L 580.053256 290.271145 
L 582.671982 292.05995 
L 585.290709 293.593627 
L 586.163617 277.288706 
L 587.036526 278.56493 
L 587.909435 240.660044 
L 589.655252 246.719976 
L 591.40107 252.189062 
L 593.146888 257.124913 
L 594.892705 261.579515 
L 596.638523 265.599794 
L 598.38434 269.228099 
L 600.130158 272.502643 
L 601.875975 275.457919 
L 604.494702 279.359462 
L 607.113428 282.704548 
L 609.732154 285.572541 
L 612.350881 288.031484 
L 614.969607 290.139721 
L 617.588333 291.947271 
L 620.20706 293.497019 
L 622.825786 294.825734 
L 626.317421 296.307352 
L 629.809056 297.514139 
L 633.300691 298.497074 
L 637.665235 299.473455 
L 642.029779 300.22896 
L 647.267232 300.913535 
L 653.377593 301.486581 
L 661.233772 301.977084 
L 670.835768 302.3376 
L 683.9294 302.592837 
L 693.531397 302.68784 
L 694.404305 298.043982 
L 698.768849 299.122861 
L 699.641758 270.148453 
L 700.514667 271.492856 
L 702.260484 274.546587 
L 704.879211 278.578108 
L 707.497937 282.034633 
L 709.243755 284.06054 
L 710.116663 275.200939 
L 710.989572 258.461503 
L 712.73539 262.785789 
L 714.481207 266.688456 
L 715.354116 256.714292 
L 717.099934 183.801272 
L 717.972842 178.990522 
L 718.845751 180.919346 
L 720.591569 192.803995 
L 722.337386 203.529894 
L 723.210295 208.494056 
L 724.083204 209.884986 
L 724.956113 193.073137 
L 725.829021 186.784921 
L 727.574839 198.09768 
L 729.320656 208.307444 
L 731.066474 217.521758 
L 732.812292 225.837676 
L 734.558109 233.342786 
L 736.303927 240.116149 
L 738.049744 246.229106 
L 739.795562 251.746053 
L 741.541379 256.725094 
L 743.287197 261.21868 
L 745.033014 265.274145 
L 746.778832 268.9342 
L 747.651741 270.628148 
L 748.524649 262.441818 
L 750.270467 266.378028 
L 752.016285 269.930452 
L 753.762102 273.136516 
L 756.380828 277.369148 
L 758.999555 280.998103 
L 761.618281 284.109476 
L 764.237007 286.777089 
L 766.855734 289.064234 
L 769.47446 291.025175 
L 772.093186 292.706437 
L 774.711913 294.147908 
L 777.330639 295.38379 
L 780.822274 296.761891 
L 782.568092 297.35189 
L 783.441 281.692499 
L 786.059727 284.704833 
L 788.678453 287.287534 
L 789.551362 270.688662 
L 791.297179 273.820802 
L 793.915906 277.955839 
L 796.534632 281.501115 
L 798.28045 283.579041 
L 799.153358 278.492389 
L 801.772085 281.96114 
L 804.390811 284.93516 
L 807.009537 287.485011 
L 809.628264 289.671188 
L 812.24699 291.545563 
L 813.119899 290.849761 
L 815.738625 292.556041 
L 818.357351 294.018964 
L 820.976078 295.273236 
L 821.848987 272.387532 
L 823.594804 275.35403 
L 826.21353 279.27039 
L 828.832257 282.62818 
L 831.450983 285.507066 
L 834.069709 287.975347 
L 836.688436 290.091589 
L 839.307162 291.906004 
L 841.925888 293.461636 
L 844.544615 294.795398 
L 848.03625 296.282643 
L 851.527885 297.494013 
L 854.146611 298.252657 
L 854.146611 298.252657 
" clip-path="url(#pcdd5250cb4)" style="fill: none; stroke: #000000; stroke-width: 5; stroke-linecap: square"/>
   </g>
   <g id="line2d_24">
    <path d="M 506.728919 258.376618 
L 508.474736 262.709182 
L 510.220554 266.619321 
L 511.093463 268.429014 
L 511.966371 251.328034 
L 512.83928 253.621231 
L 513.712189 196.385233 
L 514.585098 165.48468 
L 516.330915 178.874203 
L 518.076733 190.958257 
L 519.82255 201.864115 
L 521.568368 211.706649 
L 523.314186 220.589541 
L 525.060003 228.606344 
L 526.805821 235.84151 
L 528.551638 242.371246 
L 529.424547 245.393341 
L 530.297456 242.560633 
L 532.043273 230.260046 
L 533.789091 237.333977 
L 535.534908 243.718201 
L 537.280726 249.479959 
L 539.026543 254.679946 
L 540.772361 259.372937 
L 542.518179 263.608362 
L 544.263996 267.43083 
L 546.009814 270.880608 
L 547.755631 273.994032 
L 548.62854 275.434989 
L 549.501449 262.876987 
L 550.374358 264.873797 
L 551.247266 264.584716 
L 552.993084 268.31199 
L 553.865993 270.037049 
L 554.738901 262.129039 
L 555.61181 248.959111 
L 557.357628 254.209882 
L 559.103445 258.948705 
L 560.849263 263.225489 
L 561.722172 238.21124 
L 563.467989 244.509929 
L 565.213807 250.194495 
L 566.086715 252.825427 
L 566.959624 243.394026 
L 568.705442 249.187391 
L 570.451259 254.415904 
L 571.324168 256.835767 
L 572.197077 246.312625 
L 573.069986 249.137653 
L 573.942894 206.36294 
L 574.815803 188.831269 
L 575.688712 165.824002 
L 576.561621 169.576891 
L 577.43453 169.809955 
L 579.180347 182.777772 
L 580.926165 194.481231 
L 582.671982 205.043596 
L 583.544891 209.932071 
L 586.163617 222.796674 
L 587.036526 221.564603 
L 588.782344 229.486336 
L 589.655252 219.327627 
L 590.528161 189.686873 
L 592.273979 200.716691 
L 593.146888 200.32796 
L 594.892705 210.320273 
L 596.638523 219.338338 
L 597.511431 211.660024 
L 599.257249 220.547461 
L 600.130158 210.873396 
L 601.003066 215.470388 
L 601.875975 200.407394 
L 602.748884 191.016599 
L 603.621793 192.358883 
L 605.36761 203.12818 
L 607.113428 212.847465 
L 607.986337 203.276224 
L 609.732154 212.981078 
L 611.477972 221.739715 
L 613.223789 229.644371 
L 614.096698 207.245421 
L 614.969607 191.890554 
L 616.715424 202.705513 
L 618.461242 212.466011 
L 620.20706 221.274863 
L 621.079968 208.156174 
L 622.825786 217.385231 
L 624.571603 225.714453 
L 626.317421 233.231575 
L 628.063239 240.015783 
L 628.936147 243.155655 
L 629.809056 235.059586 
L 631.554874 241.66556 
L 633.300691 247.627451 
L 635.046509 253.008058 
L 636.792326 257.864058 
L 638.538144 262.246598 
L 640.283961 266.20184 
L 642.029779 269.771443 
L 643.775596 272.993012 
L 645.521414 275.900478 
L 648.14014 279.7389 
L 649.885958 281.98864 
L 650.758867 278.99457 
L 652.504684 281.316884 
L 653.377593 240.50363 
L 654.250502 227.177003 
L 655.123411 221.706021 
L 655.996319 213.87132 
L 657.742137 222.543152 
L 659.487954 230.369484 
L 660.360863 233.99167 
L 661.233772 229.655585 
L 662.106681 233.313463 
L 662.97959 231.183011 
L 664.725407 238.166948 
L 665.598316 212.205663 
L 667.344133 221.039901 
L 669.089951 229.012794 
L 670.835768 236.208334 
L 671.708677 231.935794 
L 673.454495 238.846343 
L 674.327404 230.929987 
L 676.073221 237.938599 
L 676.94613 222.828321 
L 677.819039 226.82756 
L 678.691947 202.752138 
L 680.437765 212.508091 
L 682.183583 221.312833 
L 683.9294 229.259118 
L 685.675218 236.430638 
L 686.548126 227.562594 
L 688.293944 234.899526 
L 690.039762 241.521107 
L 690.91267 244.585712 
L 691.785579 233.111978 
L 692.658488 172.63948 
L 693.531397 144.999654 
L 694.404305 152.890329 
L 695.277214 158.079576 
L 697.023032 172.191098 
L 697.895941 178.722204 
L 698.768849 159.548101 
L 700.514667 173.516444 
L 702.260484 186.122876 
L 704.006302 197.500187 
L 705.752119 184.697299 
L 707.497937 196.213599 
L 709.243755 206.607062 
L 710.989572 215.987163 
L 712.73539 224.452704 
L 713.608298 228.370731 
L 714.481207 198.986595 
L 715.354116 204.177923 
L 716.227025 171.783591 
L 717.099934 161.8325 
L 718.845751 175.578117 
L 720.591569 187.983532 
L 722.337386 199.179425 
L 724.083204 209.283712 
L 724.956113 213.960181 
L 725.829021 208.221931 
L 726.70193 181.559595 
L 728.447748 109.174426 
L 730.193565 128.054193 
L 731.939383 145.093199 
L 733.6852 160.470892 
L 735.431018 174.349264 
L 737.176835 186.874502 
L 738.922653 198.178519 
L 740.66847 208.3804 
L 742.414288 217.587593 
L 743.287197 221.84887 
L 744.160106 222.960823 
L 745.905923 230.746432 
L 747.651741 237.77294 
L 749.397558 244.11436 
L 751.143376 249.837498 
L 752.016285 246.733367 
L 753.762102 252.201144 
L 755.50792 257.135814 
L 757.253737 261.589359 
L 758.999555 265.608679 
L 760.745372 269.236117 
L 761.618281 270.914969 
L 762.49119 257.585489 
L 764.237007 261.995188 
L 765.982825 265.974939 
L 766.855734 227.545344 
L 768.601551 234.883959 
L 770.347369 241.507057 
L 772.093186 247.484407 
L 773.839004 252.878964 
L 775.584821 257.747552 
L 777.330639 262.14145 
L 779.076457 266.106943 
L 780.822274 237.003713 
L 781.695183 192.669125 
L 782.568092 168.970032 
L 784.313909 182.019738 
L 786.059727 193.797097 
L 786.932636 194.386888 
L 787.805544 165.29597 
L 789.551362 178.703896 
L 791.297179 190.804549 
L 793.042997 201.725395 
L 794.788815 211.581449 
L 796.534632 220.476544 
L 798.28045 228.50437 
L 800.026267 235.749479 
L 801.772085 242.288187 
L 803.517902 248.189373 
L 805.26372 253.515194 
L 807.009537 258.321746 
L 808.755355 262.659656 
L 810.501172 266.574624 
L 812.24699 270.107882 
L 813.119899 271.743145 
L 813.992808 265.467708 
L 814.865716 234.480259 
L 815.738625 234.647218 
L 816.611534 229.50637 
L 818.357351 236.653784 
L 820.103169 243.104325 
L 821.848987 248.925938 
L 823.594804 254.17994 
L 825.340622 258.92168 
L 826.21353 261.116255 
L 827.086439 237.571714 
L 828.832257 243.932756 
L 830.578074 249.673595 
L 831.450983 239.292474 
L 832.323892 242.468511 
L 833.196801 231.943504 
L 834.942618 238.853298 
L 836.688436 245.089383 
L 837.561345 238.806227 
L 839.307162 245.046903 
L 841.05298 250.679116 
L 842.798797 255.762187 
L 844.544615 260.349656 
L 846.290432 264.489849 
L 848.03625 268.226372 
L 848.909159 266.054447 
L 849.782067 241.129804 
L 850.654976 244.213971 
L 851.527885 244.431475 
L 853.273702 250.12369 
L 854.146611 249.627179 
L 854.146611 249.627179 
" clip-path="url(#pcdd5250cb4)" style="fill: none; stroke: #ff0000; stroke-width: 5; stroke-linecap: square"/>
   </g>
   <g id="line2d_25">
    <path d="M 506.728919 289.06666 
L 509.347645 291.027255 
L 511.966371 292.70822 
L 514.585098 294.149437 
L 517.203824 295.385101 
L 520.695459 296.762959 
L 524.187094 297.885234 
L 527.678729 298.799334 
L 532.043273 299.707338 
L 537.280726 300.530095 
L 539.026543 300.752694 
L 539.899452 297.86749 
L 543.391087 298.784881 
L 547.755631 299.696155 
L 548.62854 275.058532 
L 549.501449 235.243024 
L 550.374358 232.384241 
L 552.120175 239.251062 
L 553.865993 245.448366 
L 554.738901 242.054092 
L 555.61181 245.092045 
L 556.484719 194.777024 
L 558.230537 205.310552 
L 559.103445 210.18568 
L 559.976354 203.586354 
L 561.722172 213.260974 
L 563.467989 221.992318 
L 565.213807 229.872352 
L 566.959624 236.984082 
L 568.705442 243.402417 
L 570.451259 249.194963 
L 572.197077 254.422738 
L 573.942894 259.140802 
L 575.688712 263.398858 
L 577.43453 267.241755 
L 579.180347 270.709967 
L 580.926165 273.84003 
L 583.544891 277.972322 
L 586.163617 281.515247 
L 587.036526 262.192316 
L 588.782344 266.152848 
L 590.528161 269.72723 
L 592.273979 272.953107 
L 594.019796 275.864464 
L 596.638523 279.708025 
L 599.257249 283.003392 
L 601.875975 285.828761 
L 604.494702 288.251162 
L 607.113428 290.328069 
L 609.732154 292.108755 
L 612.350881 293.635471 
L 614.969607 294.944439 
L 618.461242 296.404038 
L 621.952877 297.59289 
L 625.444512 298.561218 
L 629.809056 299.523088 
L 634.1736 300.267365 
L 639.411053 300.941767 
L 645.521414 301.506296 
L 653.377593 301.98951 
L 662.97959 302.344667 
L 676.073221 302.596111 
L 683.056491 302.669165 
L 683.9294 274.295684 
L 686.548126 278.362991 
L 689.166853 281.850198 
L 691.785579 284.84004 
L 694.404305 287.403456 
L 695.277214 288.173942 
L 696.150123 287.097868 
L 697.023032 275.734945 
L 699.641758 279.596974 
L 702.260484 282.908183 
L 704.879211 285.747132 
L 707.497937 288.181175 
L 709.243755 289.607793 
L 710.116663 275.074752 
L 712.73539 279.030944 
L 715.354116 282.422883 
L 717.972842 285.331046 
L 720.591569 287.824432 
L 721.464477 288.573869 
L 722.337386 271.32182 
L 724.083204 274.392227 
L 724.956113 275.813273 
L 725.829021 265.677502 
L 727.574839 269.298229 
L 728.447748 253.495099 
L 729.320656 255.961001 
L 730.193565 243.698938 
L 731.939383 249.462574 
L 733.6852 254.664257 
L 735.431018 259.358779 
L 737.176835 263.595582 
L 738.922653 267.419295 
L 740.66847 270.870198 
L 742.414288 273.984637 
L 745.033014 278.096306 
L 746.778832 280.506199 
L 747.651741 272.11466 
L 748.524649 257.359645 
L 749.397558 206.103711 
L 750.270467 183.155654 
L 751.143376 169.942735 
L 752.889193 182.897604 
L 754.635011 194.589372 
L 756.380828 205.14119 
L 758.126646 214.664211 
L 759.872464 223.258733 
L 761.618281 231.015293 
L 763.364099 238.015587 
L 765.109916 244.333351 
L 766.855734 250.035133 
L 768.601551 255.18099 
L 770.347369 259.825127 
L 772.093186 264.016463 
L 773.839004 267.799141 
L 775.584821 271.213009 
L 777.330639 274.294023 
L 779.949365 278.361564 
L 782.568092 281.848973 
L 785.186818 284.838991 
L 787.805544 287.402559 
L 790.424271 289.600495 
L 793.042997 291.484951 
L 795.661723 293.100638 
L 798.28045 294.485886 
L 801.772085 296.030544 
L 804.390811 296.997915 
L 805.26372 262.74337 
L 806.136629 218.455884 
L 807.882446 226.680721 
L 809.628264 234.103635 
L 811.374081 240.802815 
L 813.119899 246.848827 
L 814.865716 252.305351 
L 816.611534 257.229866 
L 818.357351 261.674239 
L 820.103169 265.685286 
L 821.848987 269.305256 
L 823.594804 272.572277 
L 825.340622 275.520764 
L 827.959348 279.413343 
L 830.578074 282.750742 
L 833.196801 285.612144 
L 834.069709 279.802968 
L 834.942618 247.069697 
L 836.688436 252.504682 
L 837.561345 255.020105 
L 838.434253 251.034253 
L 840.180071 256.082697 
L 841.925888 260.638919 
L 843.671706 264.750908 
L 845.417523 268.461979 
L 847.163341 271.81122 
L 848.909159 274.833909 
L 851.527885 278.824452 
L 854.146611 282.245841 
L 854.146611 282.245841 
" clip-path="url(#pcdd5250cb4)" style="fill: none; stroke: #0000ff; stroke-width: 5; stroke-linecap: square"/>
   </g>
   <g id="patch_7">
    <path d="M 505.85601 322.75952 
L 505.85601 31.720156 
" style="fill: none; stroke: #000000; stroke-width: 5; stroke-linejoin: miter; stroke-linecap: square"/>
   </g>
   <g id="patch_8">
    <path d="M 505.85601 322.75952 
L 855.01952 322.75952 
" style="fill: none; stroke: #000000; stroke-width: 5; stroke-linejoin: miter; stroke-linecap: square"/>
   </g>
   <g id="patch_9">
    <path d="M 593.146888 316.938733 
L 680.437765 316.938733 
L 680.437765 306.752355 
L 593.146888 306.752355 
z
" style="fill: #8c5a2b; stroke: #8c5a2b; stroke-linejoin: miter"/>
   </g>
   <g id="text_21">
    <!-- Novel | Expert -->
    <g transform="translate(613.039718 21.720156) scale(0.19 -0.19)">
     <defs>
      <path id="DejaVuSans-45" d="M 628 4666 
L 3578 4666 
L 3578 4134 
L 1259 4134 
L 1259 2753 
L 3481 2753 
L 3481 2222 
L 1259 2222 
L 1259 531 
L 3634 531 
L 3634 0 
L 628 0 
L 628 4666 
z
" transform="scale(0.015625)"/>
      <path id="DejaVuSans-78" d="M 3513 3500 
L 2247 1797 
L 3578 0 
L 2900 0 
L 1881 1375 
L 863 0 
L 184 0 
L 1544 1831 
L 300 3500 
L 978 3500 
L 1906 2253 
L 2834 3500 
L 3513 3500 
z
" transform="scale(0.015625)"/>
      <path id="DejaVuSans-70" d="M 1159 525 
L 1159 -1331 
L 581 -1331 
L 581 3500 
L 1159 3500 
L 1159 2969 
Q 1341 3281 1617 3432 
Q 1894 3584 2278 3584 
Q 2916 3584 3314 3078 
Q 3713 2572 3713 1747 
Q 3713 922 3314 415 
Q 2916 -91 2278 -91 
Q 1894 -91 1617 61 
Q 1341 213 1159 525 
z
M 3116 1747 
Q 3116 2381 2855 2742 
Q 2594 3103 2138 3103 
Q 1681 3103 1420 2742 
Q 1159 2381 1159 1747 
Q 1159 1113 1420 752 
Q 1681 391 2138 391 
Q 2594 391 2855 752 
Q 3116 1113 3116 1747 
z
" transform="scale(0.015625)"/>
     </defs>
     <use xlink:href="#DejaVuSans-4e"/>
     <use xlink:href="#DejaVuSans-6f" transform="translate(74.804688 0)"/>
     <use xlink:href="#DejaVuSans-76" transform="translate(135.986328 0)"/>
     <use xlink:href="#DejaVuSans-65" transform="translate(195.166016 0)"/>
     <use xlink:href="#DejaVuSans-6c" transform="translate(256.689453 0)"/>
     <use xlink:href="#DejaVuSans-20" transform="translate(284.472656 0)"/>
     <use xlink:href="#DejaVuSans-7c" transform="translate(316.259766 0)"/>
     <use xlink:href="#DejaVuSans-20" transform="translate(349.951172 0)"/>
     <use xlink:href="#DejaVuSans-45" transform="translate(381.738281 0)"/>
     <use xlink:href="#DejaVuSans-78" transform="translate(444.921875 0)"/>
     <use xlink:href="#DejaVuSans-70" transform="translate(504.101562 0)"/>
     <use xlink:href="#DejaVuSans-65" transform="translate(567.578125 0)"/>
     <use xlink:href="#DejaVuSans-72" transform="translate(629.101562 0)"/>
     <use xlink:href="#DejaVuSans-74" transform="translate(670.214844 0)"/>
    </g>
   </g>
  </g>
 </g>
 <defs>
  <clipPath id="p11d0a90c13">
   <rect x="121.92" y="31.720156" width="349.16351" height="291.039364"/>
  </clipPath>
  <clipPath id="pcdd5250cb4">
   <rect x="505.85601" y="31.720156" width="349.16351" height="291.039364"/>
  </clipPath>
 </defs>
</svg>
