<?xml version="1.0" encoding="utf-8" standalone="no"?>
<!DOCTYPE svg PUBLIC "-//W3C//DTD SVG 1.1//EN"
  "http://www.w3.org/Graphics/SVG/1.1/DTD/svg11.dtd">
<svg xmlns:xlink="http://www.w3.org/1999/xlink" width="1458.14pt" height="418.280156pt" viewBox="0 0 1458.14 418.280156" xmlns="http://www.w3.org/2000/svg" version="1.1">
 <metadata>
  <rdf:RDF xmlns:dc="http://purl.org/dc/elements/1.1/" xmlns:cc="http://creativecommons.org/ns#" xmlns:rdf="http://www.w3.org/1999/02/22-rdf-syntax-ns#">
   <cc:Work>
    <dc:type rdf:resource="http://purl.org/dc/dcmitype/StillImage"/>
    <dc:date>2026-03-25T17:17:34.795068</dc:date>
    <dc:format>image/svg+xml</dc:format>
    <dc:creator>
     <cc:Agent>
      <dc:title>Matplotlib v3.10.7, https://matplotlib.org/</dc:title>
     </cc:Agent>
    </dc:creator>
   </cc:Work>
  </rdf:RDF>
 </metadata>
 <defs>
  <style type="text/css">*{stroke-linejoin: round; stroke-linecap: butt}</style>
 </defs>
 <g id="figure_1">
  <g id="patch_1">
   <path d="M 0 418.280156 
L 1458.14 418.280156 
L 1458.14 -0 
L 0 -0 
z
" style="fill: #ffffff"/>
  </g>
  <g id="axes_1">
   <g id="patch_2">
    <path d="M 101.56 336.640156 
L 402.50382 336.640156 
L 402.50382 31.720156 
L 101.56 31.720156 
z
" style="fill: #ffffff"/>
   </g>
   <g id="matplotlib.axis_1">
    <g id="xtick_1">
     <g id="line2d_1">
      <defs>
       <path id="mdf534c0f2d" d="M 0 0 
L 0 5 
" style="stroke: #000000; stroke-width: 1.6"/>
      </defs>
      <g>
       <use xlink:href="#mdf534c0f2d" x="101.56" y="336.640156" style="stroke: #000000; stroke-width: 1.6"/>
      </g>
     </g>
     <g id="text_1">
      <!-- -1 -->
      <g transform="translate(85.6075 369.455156) scale(0.32 -0.32)">
       <defs>
        <path id="DejaVuSans-2d" d="M 313 2009 
L 1997 2009 
L 1997 1497 
L 313 1497 
L 313 2009 
z
" transform="scale(0.015625)"/>
        <path id="DejaVuSans-31" d="M 794 531 
L 1825 531 
L 1825 4091 
L 703 3866 
L 703 4441 
L 1819 4666 
L 2450 4666 
L 2450 531 
L 3481 531 
L 3481 0 
L 794 0 
L 794 531 
z
" transform="scale(0.015625)"/>
       </defs>
       <use xlink:href="#DejaVuSans-2d"/>
       <use xlink:href="#DejaVuSans-31" transform="translate(36.083984 0)"/>
      </g>
     </g>
    </g>
    <g id="xtick_2">
     <g id="line2d_2">
      <g>
       <use xlink:href="#mdf534c0f2d" x="176.795955" y="336.640156" style="stroke: #000000; stroke-width: 1.6"/>
      </g>
     </g>
     <g id="text_2">
      <!-- 0 -->
      <g transform="translate(166.615955 369.455156) scale(0.32 -0.32)">
       <defs>
        <path id="DejaVuSans-30" d="M 2034 4250 
Q 1547 4250 1301 3770 
Q 1056 3291 1056 2328 
Q 1056 1369 1301 889 
Q 1547 409 2034 409 
Q 2525 409 2770 889 
Q 3016 1369 3016 2328 
Q 3016 3291 2770 3770 
Q 2525 4250 2034 4250 
z
M 2034 4750 
Q 2819 4750 3233 4129 
Q 3647 3509 3647 2328 
Q 3647 1150 3233 529 
Q 2819 -91 2034 -91 
Q 1250 -91 836 529 
Q 422 1150 422 2328 
Q 422 3509 836 4129 
Q 1250 4750 2034 4750 
z
" transform="scale(0.015625)"/>
       </defs>
       <use xlink:href="#DejaVuSans-30"/>
      </g>
     </g>
    </g>
    <g id="xtick_3">
     <g id="line2d_3">
      <g>
       <use xlink:href="#mdf534c0f2d" x="252.03191" y="336.640156" style="stroke: #000000; stroke-width: 1.6"/>
      </g>
     </g>
     <g id="text_3">
      <!-- 1 -->
      <g transform="translate(241.85191 369.455156) scale(0.32 -0.32)">
       <use xlink:href="#DejaVuSans-31"/>
      </g>
     </g>
    </g>
    <g id="xtick_4">
     <g id="line2d_4">
      <g>
       <use xlink:href="#mdf534c0f2d" x="327.267865" y="336.640156" style="stroke: #000000; stroke-width: 1.6"/>
      </g>
     </g>
     <g id="text_4">
      <!-- 2 -->
      <g transform="translate(317.087865 369.455156) scale(0.32 -0.32)">
       <defs>
        <path id="DejaVuSans-32" d="M 1228 531 
L 3431 531 
L 3431 0 
L 469 0 
L 469 531 
Q 828 903 1448 1529 
Q 2069 2156 2228 2338 
Q 2531 2678 2651 2914 
Q 2772 3150 2772 3378 
Q 2772 3750 2511 3984 
Q 2250 4219 1831 4219 
Q 1534 4219 1204 4116 
Q 875 4013 500 3803 
L 500 4441 
Q 881 4594 1212 4672 
Q 1544 4750 1819 4750 
Q 2544 4750 2975 4387 
Q 3406 4025 3406 3419 
Q 3406 3131 3298 2873 
Q 3191 2616 2906 2266 
Q 2828 2175 2409 1742 
Q 1991 1309 1228 531 
z
" transform="scale(0.015625)"/>
       </defs>
       <use xlink:href="#DejaVuSans-32"/>
      </g>
     </g>
    </g>
    <g id="xtick_5">
     <g id="line2d_5">
      <g>
       <use xlink:href="#mdf534c0f2d" x="402.50382" y="336.640156" style="stroke: #000000; stroke-width: 1.6"/>
      </g>
     </g>
     <g id="text_5">
      <!-- 3 -->
      <g transform="translate(392.32382 369.455156) scale(0.32 -0.32)">
       <defs>
        <path id="DejaVuSans-33" d="M 2597 2516 
Q 3050 2419 3304 2112 
Q 3559 1806 3559 1356 
Q 3559 666 3084 287 
Q 2609 -91 1734 -91 
Q 1441 -91 1130 -33 
Q 819 25 488 141 
L 488 750 
Q 750 597 1062 519 
Q 1375 441 1716 441 
Q 2309 441 2620 675 
Q 2931 909 2931 1356 
Q 2931 1769 2642 2001 
Q 2353 2234 1838 2234 
L 1294 2234 
L 1294 2753 
L 1863 2753 
Q 2328 2753 2575 2939 
Q 2822 3125 2822 3475 
Q 2822 3834 2567 4026 
Q 2313 4219 1838 4219 
Q 1578 4219 1281 4162 
Q 984 4106 628 3988 
L 628 4550 
Q 988 4650 1302 4700 
Q 1616 4750 1894 4750 
Q 2613 4750 3031 4423 
Q 3450 4097 3450 3541 
Q 3450 3153 3228 2886 
Q 3006 2619 2597 2516 
z
" transform="scale(0.015625)"/>
       </defs>
       <use xlink:href="#DejaVuSans-33"/>
      </g>
     </g>
    </g>
    <g id="text_6">
     <!-- Time (s) -->
     <g transform="translate(186.97941 404.425156) scale(0.32 -0.32)">
      <defs>
       <path id="DejaVuSans-54" d="M -19 4666 
L 3928 4666 
L 3928 4134 
L 2272 4134 
L 2272 0 
L 1638 0 
L 1638 4134 
L -19 4134 
L -19 4666 
z
" transform="scale(0.015625)"/>
       <path id="DejaVuSans-69" d="M 603 3500 
L 1178 3500 
L 1178 0 
L 603 0 
L 603 3500 
z
M 603 4863 
L 1178 4863 
L 1178 4134 
L 603 4134 
L 603 4863 
z
" transform="scale(0.015625)"/>
       <path id="DejaVuSans-6d" d="M 3328 2828 
Q 3544 3216 3844 3400 
Q 4144 3584 4550 3584 
Q 5097 3584 5394 3201 
Q 5691 2819 5691 2113 
L 5691 0 
L 5113 0 
L 5113 2094 
Q 5113 2597 4934 2840 
Q 4756 3084 4391 3084 
Q 3944 3084 3684 2787 
Q 3425 2491 3425 1978 
L 3425 0 
L 2847 0 
L 2847 2094 
Q 2847 2600 2669 2842 
Q 2491 3084 2119 3084 
Q 1678 3084 1418 2786 
Q 1159 2488 1159 1978 
L 1159 0 
L 581 0 
L 581 3500 
L 1159 3500 
L 1159 2956 
Q 1356 3278 1631 3431 
Q 1906 3584 2284 3584 
Q 2666 3584 2933 3390 
Q 3200 3197 3328 2828 
z
" transform="scale(0.015625)"/>
       <path id="DejaVuSans-65" d="M 3597 1894 
L 3597 1613 
L 953 1613 
Q 991 1019 1311 708 
Q 1631 397 2203 397 
Q 2534 397 2845 478 
Q 3156 559 3463 722 
L 3463 178 
Q 3153 47 2828 -22 
Q 2503 -91 2169 -91 
Q 1331 -91 842 396 
Q 353 884 353 1716 
Q 353 2575 817 3079 
Q 1281 3584 2069 3584 
Q 2775 3584 3186 3129 
Q 3597 2675 3597 1894 
z
M 3022 2063 
Q 3016 2534 2758 2815 
Q 2500 3097 2075 3097 
Q 1594 3097 1305 2825 
Q 1016 2553 972 2059 
L 3022 2063 
z
" transform="scale(0.015625)"/>
       <path id="DejaVuSans-20" transform="scale(0.015625)"/>
       <path id="DejaVuSans-28" d="M 1984 4856 
Q 1566 4138 1362 3434 
Q 1159 2731 1159 2009 
Q 1159 1288 1364 580 
Q 1569 -128 1984 -844 
L 1484 -844 
Q 1016 -109 783 600 
Q 550 1309 550 2009 
Q 550 2706 781 3412 
Q 1013 4119 1484 4856 
L 1984 4856 
z
" transform="scale(0.015625)"/>
       <path id="DejaVuSans-73" d="M 2834 3397 
L 2834 2853 
Q 2591 2978 2328 3040 
Q 2066 3103 1784 3103 
Q 1356 3103 1142 2972 
Q 928 2841 928 2578 
Q 928 2378 1081 2264 
Q 1234 2150 1697 2047 
L 1894 2003 
Q 2506 1872 2764 1633 
Q 3022 1394 3022 966 
Q 3022 478 2636 193 
Q 2250 -91 1575 -91 
Q 1294 -91 989 -36 
Q 684 19 347 128 
L 347 722 
Q 666 556 975 473 
Q 1284 391 1588 391 
Q 1994 391 2212 530 
Q 2431 669 2431 922 
Q 2431 1156 2273 1281 
Q 2116 1406 1581 1522 
L 1381 1569 
Q 847 1681 609 1914 
Q 372 2147 372 2553 
Q 372 3047 722 3315 
Q 1072 3584 1716 3584 
Q 2034 3584 2315 3537 
Q 2597 3491 2834 3397 
z
" transform="scale(0.015625)"/>
       <path id="DejaVuSans-29" d="M 513 4856 
L 1013 4856 
Q 1481 4119 1714 3412 
Q 1947 2706 1947 2009 
Q 1947 1309 1714 600 
Q 1481 -109 1013 -844 
L 513 -844 
Q 928 -128 1133 580 
Q 1338 1288 1338 2009 
Q 1338 2731 1133 3434 
Q 928 4138 513 4856 
z
" transform="scale(0.015625)"/>
      </defs>
      <use xlink:href="#DejaVuSans-54"/>
      <use xlink:href="#DejaVuSans-69" transform="translate(57.958984 0)"/>
      <use xlink:href="#DejaVuSans-6d" transform="translate(85.742188 0)"/>
      <use xlink:href="#DejaVuSans-65" transform="translate(183.154297 0)"/>
      <use xlink:href="#DejaVuSans-20" transform="translate(244.677734 0)"/>
      <use xlink:href="#DejaVuSans-28" transform="translate(276.464844 0)"/>
      <use xlink:href="#DejaVuSans-73" transform="translate(315.478516 0)"/>
      <use xlink:href="#DejaVuSans-29" transform="translate(367.578125 0)"/>
     </g>
    </g>
   </g>
   <g id="matplotlib.axis_2">
    <g id="ytick_1">
     <g id="line2d_6">
      <defs>
       <path id="m0259a373d4" d="M 0 0 
L -5 0 
" style="stroke: #000000; stroke-width: 1.6"/>
      </defs>
      <g>
       <use xlink:href="#m0259a373d4" x="101.56" y="315.628759" style="stroke: #000000; stroke-width: 1.6"/>
      </g>
     </g>
     <g id="text_7">
      <!-- 0.0 -->
      <g transform="translate(42.17 327.786259) scale(0.32 -0.32)">
       <defs>
        <path id="DejaVuSans-2e" d="M 684 794 
L 1344 794 
L 1344 0 
L 684 0 
L 684 794 
z
" transform="scale(0.015625)"/>
       </defs>
       <use xlink:href="#DejaVuSans-30"/>
       <use xlink:href="#DejaVuSans-2e" transform="translate(63.623047 0)"/>
       <use xlink:href="#DejaVuSans-30" transform="translate(95.410156 0)"/>
      </g>
     </g>
    </g>
    <g id="ytick_2">
     <g id="line2d_7">
      <g>
       <use xlink:href="#m0259a373d4" x="101.56" y="219.659464" style="stroke: #000000; stroke-width: 1.6"/>
      </g>
     </g>
     <g id="text_8">
      <!-- 0.2 -->
      <g transform="translate(42.17 231.816964) scale(0.32 -0.32)">
       <use xlink:href="#DejaVuSans-30"/>
       <use xlink:href="#DejaVuSans-2e" transform="translate(63.623047 0)"/>
       <use xlink:href="#DejaVuSans-32" transform="translate(95.410156 0)"/>
      </g>
     </g>
    </g>
    <g id="ytick_3">
     <g id="line2d_8">
      <g>
       <use xlink:href="#m0259a373d4" x="101.56" y="123.690168" style="stroke: #000000; stroke-width: 1.6"/>
      </g>
     </g>
     <g id="text_9">
      <!-- 0.4 -->
      <g transform="translate(42.17 135.847668) scale(0.32 -0.32)">
       <defs>
        <path id="DejaVuSans-34" d="M 2419 4116 
L 825 1625 
L 2419 1625 
L 2419 4116 
z
M 2253 4666 
L 3047 4666 
L 3047 1625 
L 3713 1625 
L 3713 1100 
L 3047 1100 
L 3047 0 
L 2419 0 
L 2419 1100 
L 313 1100 
L 313 1709 
L 2253 4666 
z
" transform="scale(0.015625)"/>
       </defs>
       <use xlink:href="#DejaVuSans-30"/>
       <use xlink:href="#DejaVuSans-2e" transform="translate(63.623047 0)"/>
       <use xlink:href="#DejaVuSans-34" transform="translate(95.410156 0)"/>
      </g>
     </g>
    </g>
    <g id="text_10">
     <!-- Neural Activity -->
     <g transform="translate(31.515 301.885156) rotate(-90) scale(0.32 -0.32)">
      <defs>
       <path id="DejaVuSans-4e" d="M 628 4666 
L 1478 4666 
L 3547 763 
L 3547 4666 
L 4159 4666 
L 4159 0 
L 3309 0 
L 1241 3903 
L 1241 0 
L 628 0 
L 628 4666 
z
" transform="scale(0.015625)"/>
       <path id="DejaVuSans-75" d="M 544 1381 
L 544 3500 
L 1119 3500 
L 1119 1403 
Q 1119 906 1312 657 
Q 1506 409 1894 409 
Q 2359 409 2629 706 
Q 2900 1003 2900 1516 
L 2900 3500 
L 3475 3500 
L 3475 0 
L 2900 0 
L 2900 538 
Q 2691 219 2414 64 
Q 2138 -91 1772 -91 
Q 1169 -91 856 284 
Q 544 659 544 1381 
z
M 1991 3584 
L 1991 3584 
z
" transform="scale(0.015625)"/>
       <path id="DejaVuSans-72" d="M 2631 2963 
Q 2534 3019 2420 3045 
Q 2306 3072 2169 3072 
Q 1681 3072 1420 2755 
Q 1159 2438 1159 1844 
L 1159 0 
L 581 0 
L 581 3500 
L 1159 3500 
L 1159 2956 
Q 1341 3275 1631 3429 
Q 1922 3584 2338 3584 
Q 2397 3584 2469 3576 
Q 2541 3569 2628 3553 
L 2631 2963 
z
" transform="scale(0.015625)"/>
       <path id="DejaVuSans-61" d="M 2194 1759 
Q 1497 1759 1228 1600 
Q 959 1441 959 1056 
Q 959 750 1161 570 
Q 1363 391 1709 391 
Q 2188 391 2477 730 
Q 2766 1069 2766 1631 
L 2766 1759 
L 2194 1759 
z
M 3341 1997 
L 3341 0 
L 2766 0 
L 2766 531 
Q 2569 213 2275 61 
Q 1981 -91 1556 -91 
Q 1019 -91 701 211 
Q 384 513 384 1019 
Q 384 1609 779 1909 
Q 1175 2209 1959 2209 
L 2766 2209 
L 2766 2266 
Q 2766 2663 2505 2880 
Q 2244 3097 1772 3097 
Q 1472 3097 1187 3025 
Q 903 2953 641 2809 
L 641 3341 
Q 956 3463 1253 3523 
Q 1550 3584 1831 3584 
Q 2591 3584 2966 3190 
Q 3341 2797 3341 1997 
z
" transform="scale(0.015625)"/>
       <path id="DejaVuSans-6c" d="M 603 4863 
L 1178 4863 
L 1178 0 
L 603 0 
L 603 4863 
z
" transform="scale(0.015625)"/>
       <path id="DejaVuSans-41" d="M 2188 4044 
L 1331 1722 
L 3047 1722 
L 2188 4044 
z
M 1831 4666 
L 2547 4666 
L 4325 0 
L 3669 0 
L 3244 1197 
L 1141 1197 
L 716 0 
L 50 0 
L 1831 4666 
z
" transform="scale(0.015625)"/>
       <path id="DejaVuSans-63" d="M 3122 3366 
L 3122 2828 
Q 2878 2963 2633 3030 
Q 2388 3097 2138 3097 
Q 1578 3097 1268 2742 
Q 959 2388 959 1747 
Q 959 1106 1268 751 
Q 1578 397 2138 397 
Q 2388 397 2633 464 
Q 2878 531 3122 666 
L 3122 134 
Q 2881 22 2623 -34 
Q 2366 -91 2075 -91 
Q 1284 -91 818 406 
Q 353 903 353 1747 
Q 353 2603 823 3093 
Q 1294 3584 2113 3584 
Q 2378 3584 2631 3529 
Q 2884 3475 3122 3366 
z
" transform="scale(0.015625)"/>
       <path id="DejaVuSans-74" d="M 1172 4494 
L 1172 3500 
L 2356 3500 
L 2356 3053 
L 1172 3053 
L 1172 1153 
Q 1172 725 1289 603 
Q 1406 481 1766 481 
L 2356 481 
L 2356 0 
L 1766 0 
Q 1100 0 847 248 
Q 594 497 594 1153 
L 594 3053 
L 172 3053 
L 172 3500 
L 594 3500 
L 594 4494 
L 1172 4494 
z
" transform="scale(0.015625)"/>
       <path id="DejaVuSans-76" d="M 191 3500 
L 800 3500 
L 1894 563 
L 2988 3500 
L 3597 3500 
L 2284 0 
L 1503 0 
L 191 3500 
z
" transform="scale(0.015625)"/>
       <path id="DejaVuSans-79" d="M 2059 -325 
Q 1816 -950 1584 -1140 
Q 1353 -1331 966 -1331 
L 506 -1331 
L 506 -850 
L 844 -850 
Q 1081 -850 1212 -737 
Q 1344 -625 1503 -206 
L 1606 56 
L 191 3500 
L 800 3500 
L 1894 763 
L 2988 3500 
L 3597 3500 
L 2059 -325 
z
" transform="scale(0.015625)"/>
      </defs>
      <use xlink:href="#DejaVuSans-4e"/>
      <use xlink:href="#DejaVuSans-65" transform="translate(74.804688 0)"/>
      <use xlink:href="#DejaVuSans-75" transform="translate(136.328125 0)"/>
      <use xlink:href="#DejaVuSans-72" transform="translate(199.707031 0)"/>
      <use xlink:href="#DejaVuSans-61" transform="translate(240.820312 0)"/>
      <use xlink:href="#DejaVuSans-6c" transform="translate(302.099609 0)"/>
      <use xlink:href="#DejaVuSans-20" transform="translate(329.882812 0)"/>
      <use xlink:href="#DejaVuSans-41" transform="translate(361.669922 0)"/>
      <use xlink:href="#DejaVuSans-63" transform="translate(428.328125 0)"/>
      <use xlink:href="#DejaVuSans-74" transform="translate(483.308594 0)"/>
      <use xlink:href="#DejaVuSans-69" transform="translate(522.517578 0)"/>
      <use xlink:href="#DejaVuSans-76" transform="translate(550.300781 0)"/>
      <use xlink:href="#DejaVuSans-69" transform="translate(609.480469 0)"/>
      <use xlink:href="#DejaVuSans-74" transform="translate(637.263672 0)"/>
      <use xlink:href="#DejaVuSans-79" transform="translate(676.472656 0)"/>
     </g>
    </g>
   </g>
   <g id="line2d_9">
    <path d="M 102.31236 315.313142 
L 103.817079 315.292408 
L 116.607191 315.471076 
L 117.359551 315.47896 
L 118.11191 315.086909 
L 118.86427 314.969884 
L 119.616629 315.002828 
L 120.368989 313.883948 
L 121.121348 313.58936 
L 121.873708 313.69133 
L 122.626067 312.913868 
L 124.883146 313.208444 
L 127.892584 313.657398 
L 128.644944 313.233887 
L 130.149663 313.361521 
L 130.902022 313.147177 
L 133.159101 313.501113 
L 133.911461 312.921824 
L 134.66382 312.908664 
L 135.41618 312.671544 
L 139.930337 313.454934 
L 140.682697 313.094865 
L 141.435056 313.22156 
L 142.187416 312.713809 
L 142.939775 312.401278 
L 145.196854 312.861598 
L 145.949213 311.702125 
L 146.701573 311.494989 
L 150.463371 312.430127 
L 154.225169 313.153719 
L 154.977528 312.829196 
L 157.986966 313.348498 
L 158.739326 312.781026 
L 159.491685 312.590239 
L 160.244045 312.178193 
L 161.748764 312.514623 
L 162.501124 312.027066 
L 164.005843 312.378232 
L 164.758202 312.315464 
L 165.510562 311.51521 
L 168.52 312.278248 
L 169.27236 311.989023 
L 170.777079 312.343897 
L 171.529438 310.692121 
L 174.538876 311.607836 
L 176.043596 311.999877 
L 178.300674 277.514339 
L 180.557753 250.606158 
L 183.567191 221.858592 
L 185.82427 202.557697 
L 187.328989 194.081839 
L 188.081348 187.828742 
L 188.833708 182.886218 
L 189.586067 179.274388 
L 190.338427 176.516172 
L 191.843146 167.524779 
L 192.595506 164.183701 
L 193.347865 161.455359 
L 194.100225 159.223245 
L 194.852584 156.414662 
L 196.357303 151.858066 
L 197.862022 147.904167 
L 198.614382 147.895144 
L 199.366742 144.234792 
L 200.119101 142.195492 
L 201.62382 138.993945 
L 202.37618 137.686661 
L 203.128539 136.634356 
L 203.880899 137.299116 
L 204.633258 135.82526 
L 206.890337 133.301543 
L 207.642697 132.768005 
L 208.395056 133.058348 
L 209.147416 133.505398 
L 209.899775 132.263396 
L 210.652135 132.362756 
L 211.404494 133.00977 
L 212.156854 132.621424 
L 212.909213 132.693985 
L 213.661573 133.100135 
L 214.413933 133.167033 
L 215.166292 133.116866 
L 215.918652 132.815654 
L 216.671011 132.780618 
L 217.423371 133.142936 
L 218.17573 133.829534 
L 218.92809 133.639522 
L 219.680449 133.579803 
L 220.432809 134.445315 
L 221.185169 134.651915 
L 221.937528 135.181635 
L 222.689888 136.039081 
L 223.442247 137.319466 
L 224.194607 139.818957 
L 224.946966 140.256253 
L 225.699326 141.51799 
L 226.451685 141.932262 
L 227.204045 144.125407 
L 227.956404 146.687363 
L 228.708764 148.160819 
L 229.461124 149.1755 
L 230.213483 150.527587 
L 230.965843 151.230959 
L 231.718202 152.511086 
L 232.470562 152.93361 
L 233.222921 152.645268 
L 233.975281 154.10398 
L 234.72764 153.423747 
L 235.48 154.275144 
L 236.23236 154.955878 
L 236.984719 157.226117 
L 237.737079 158.774594 
L 238.489438 157.906422 
L 239.241798 159.871245 
L 239.994157 160.220049 
L 240.746517 159.977498 
L 241.498876 162.321628 
L 242.251236 162.276824 
L 243.003596 163.773705 
L 243.755955 163.193289 
L 244.508315 164.250985 
L 245.260674 164.260624 
L 246.013034 163.778724 
L 246.765393 164.188878 
L 247.517753 163.880501 
L 248.270112 165.439246 
L 249.022472 165.454633 
L 250.527191 167.742176 
L 251.279551 170.290246 
L 253.536629 191.019164 
L 255.793708 208.79161 
L 258.050787 224.029264 
L 260.307865 237.093643 
L 262.564944 248.294712 
L 264.822022 257.898232 
L 267.079101 266.13205 
L 269.33618 273.191522 
L 271.593258 279.244136 
L 273.850337 284.433494 
L 276.107416 288.882719 
L 278.364494 292.697374 
L 280.621573 295.967963 
L 282.878652 298.772084 
L 285.13573 301.176268 
L 287.392809 303.237556 
L 289.649888 305.004852 
L 291.906966 306.520087 
L 294.164045 307.819211 
L 297.173483 309.267834 
L 300.182921 310.447746 
L 303.19236 311.408791 
L 306.954157 312.363429 
L 310.715955 313.102109 
L 315.230112 313.771439 
L 320.496629 314.331723 
L 327.267865 314.811303 
L 335.54382 315.16379 
L 346.829213 315.413343 
L 364.885843 315.56586 
L 378.428315 315.603775 
L 379.180674 314.919649 
L 380.685393 314.988787 
L 381.437753 314.747993 
L 389.713708 315.12778 
L 400.999101 315.39666 
L 401.751461 315.408265 
L 401.751461 315.408265 
" clip-path="url(#p992ba949d5)" style="fill: none; stroke: #000000; stroke-width: 5; stroke-linecap: square"/>
   </g>
   <g id="line2d_10">
    <path d="M 102.31236 314.604177 
L 103.064719 314.655406 
L 103.817079 314.494733 
L 110.588315 314.902617 
L 114.350112 315.035068 
L 115.102472 314.956331 
L 115.854831 314.759278 
L 119.616629 314.95533 
L 121.121348 314.456254 
L 124.130787 314.673746 
L 124.883146 314.348046 
L 127.892584 314.517083 
L 129.397303 314.311304 
L 131.654382 314.499206 
L 132.406742 314.292162 
L 133.159101 314.358992 
L 133.911461 314.275457 
L 134.66382 314.343122 
L 135.41618 314.275702 
L 136.168539 314.343355 
L 136.920899 314.162542 
L 138.425618 314.305498 
L 139.930337 313.914919 
L 140.682697 314.000611 
L 141.435056 313.915585 
L 142.187416 314.001244 
L 142.939775 313.946877 
L 143.692135 314.030971 
L 144.444494 313.817843 
L 145.949213 313.994407 
L 146.701573 313.634995 
L 147.453933 313.414791 
L 148.958652 313.630653 
L 149.711011 313.511564 
L 150.463371 313.617423 
L 151.21573 313.306813 
L 151.96809 313.389765 
L 152.720449 313.211174 
L 154.977528 313.555982 
L 156.482247 313.411436 
L 158.739326 313.681643 
L 159.491685 313.624126 
L 163.253483 314.013975 
L 164.758202 313.653467 
L 166.262921 313.823285 
L 167.015281 313.694684 
L 167.76764 313.791388 
L 168.52 313.662335 
L 169.27236 313.404436 
L 170.024719 313.515652 
L 170.777079 313.217447 
L 172.281798 313.45255 
L 173.034157 313.362652 
L 173.786517 313.475957 
L 174.538876 313.41606 
L 175.291236 313.526695 
L 176.795955 313.382688 
L 179.805393 313.75722 
L 180.557753 313.725928 
L 185.82427 314.299941 
L 186.576629 314.366382 
L 188.081348 314.022957 
L 194.100225 314.563437 
L 198.614382 314.831036 
L 200.119101 314.635785 
L 205.385618 314.872478 
L 206.137978 314.854221 
L 206.890337 314.520819 
L 208.395056 314.628844 
L 209.147416 314.529094 
L 212.909213 314.699027 
L 213.661573 314.745514 
L 214.413933 314.546763 
L 217.423371 314.747466 
L 218.17573 314.36046 
L 220.432809 314.49166 
L 221.185169 313.948975 
L 226.451685 314.455703 
L 227.204045 314.176962 
L 230.965843 314.429069 
L 233.975281 314.651604 
L 236.23236 314.125376 
L 241.498876 314.549354 
L 243.003596 314.654596 
L 243.755955 314.342603 
L 246.765393 314.581177 
L 248.270112 314.297061 
L 249.022472 314.363646 
L 249.774831 313.971094 
L 252.03191 314.207518 
L 252.78427 314.110301 
L 255.793708 314.391966 
L 256.546067 314.123152 
L 257.298427 314.198433 
L 258.050787 313.722315 
L 258.803146 313.504413 
L 261.812584 313.898466 
L 262.564944 313.85821 
L 264.069663 314.020494 
L 264.822022 313.797922 
L 265.574382 313.889463 
L 267.079101 313.902685 
L 270.088539 314.179283 
L 270.840899 314.133628 
L 271.593258 314.208385 
L 272.345618 313.97323 
L 275.355056 314.28032 
L 276.107416 314.259313 
L 276.859775 313.931462 
L 278.364494 313.417743 
L 283.631011 314.084725 
L 287.392809 314.431581 
L 288.145169 313.997142 
L 289.649888 313.886105 
L 292.659326 314.209356 
L 293.411685 313.701096 
L 294.164045 313.496322 
L 295.668764 313.704234 
L 296.421124 313.442439 
L 297.173483 313.551755 
L 297.925843 313.453389 
L 300.182921 313.624263 
L 300.935281 313.472784 
L 303.19236 313.78028 
L 303.944719 313.568265 
L 305.449438 313.769163 
L 307.706517 313.742105 
L 309.211236 313.926054 
L 309.963596 313.724098 
L 312.220674 313.986571 
L 312.973034 313.891369 
L 317.487191 314.351618 
L 318.239551 313.981353 
L 319.74427 314.060443 
L 320.496629 313.855651 
L 322.001348 314.028529 
L 322.753708 313.752821 
L 323.506067 313.662766 
L 325.763146 313.852351 
L 329.524944 314.254208 
L 332.534382 314.322541 
L 334.791461 314.50884 
L 335.54382 314.171282 
L 337.048539 314.247916 
L 337.800899 314.316958 
L 338.553258 314.194056 
L 343.067416 314.57412 
L 343.819775 314.414351 
L 347.581573 314.367703 
L 350.591011 314.595308 
L 351.343371 314.49369 
L 353.600449 314.604637 
L 358.866966 314.628618 
L 360.371685 314.30089 
L 363.381124 314.547201 
L 364.133483 314.202496 
L 364.885843 314.096487 
L 367.142921 314.218209 
L 372.409438 314.603795 
L 373.161798 314.384963 
L 376.923596 314.665534 
L 377.675955 314.634463 
L 378.428315 314.462644 
L 382.190112 314.650571 
L 386.70427 314.8507 
L 395.732584 314.664968 
L 396.484944 314.515102 
L 401.751461 314.812153 
L 401.751461 314.812153 
" clip-path="url(#p992ba949d5)" style="fill: none; stroke: #ff0000; stroke-width: 5; stroke-linecap: square"/>
   </g>
   <g id="patch_3">
    <path d="M 101.56 336.640156 
L 101.56 31.720156 
" style="fill: none; stroke: #000000; stroke-width: 5; stroke-linejoin: miter; stroke-linecap: square"/>
   </g>
   <g id="patch_4">
    <path d="M 101.56 336.640156 
L 402.50382 336.640156 
" style="fill: none; stroke: #000000; stroke-width: 5; stroke-linejoin: miter; stroke-linecap: square"/>
   </g>
   <g id="text_11">
    <!-- A -->
    <g transform="translate(65.446742 16.444681) scale(0.12 -0.12)">
     <defs>
      <path id="DejaVuSans-Bold-41" d="M 3419 850 
L 1538 850 
L 1241 0 
L 31 0 
L 1759 4666 
L 3194 4666 
L 4922 0 
L 3713 0 
L 3419 850 
z
M 1838 1716 
L 3116 1716 
L 2478 3572 
L 1838 1716 
z
" transform="scale(0.015625)"/>
     </defs>
     <use xlink:href="#DejaVuSans-Bold-41"/>
    </g>
   </g>
   <g id="patch_5">
    <path d="M 176.795955 330.541756 
L 252.03191 330.541756 
L 252.03191 319.869556 
L 176.795955 319.869556 
z
" style="fill: #8c5a2b; stroke: #8c5a2b; stroke-linejoin: miter"/>
   </g>
   <g id="text_12">
    <!-- Familiar | Naive -->
    <g transform="translate(178.439566 21.720156) scale(0.19 -0.19)">
     <defs>
      <path id="DejaVuSans-46" d="M 628 4666 
L 3309 4666 
L 3309 4134 
L 1259 4134 
L 1259 2759 
L 3109 2759 
L 3109 2228 
L 1259 2228 
L 1259 0 
L 628 0 
L 628 4666 
z
" transform="scale(0.015625)"/>
      <path id="DejaVuSans-7c" d="M 1344 4891 
L 1344 -1509 
L 813 -1509 
L 813 4891 
L 1344 4891 
z
" transform="scale(0.015625)"/>
     </defs>
     <use xlink:href="#DejaVuSans-46"/>
     <use xlink:href="#DejaVuSans-61" transform="translate(48.394531 0)"/>
     <use xlink:href="#DejaVuSans-6d" transform="translate(109.673828 0)"/>
     <use xlink:href="#DejaVuSans-69" transform="translate(207.085938 0)"/>
     <use xlink:href="#DejaVuSans-6c" transform="translate(234.869141 0)"/>
     <use xlink:href="#DejaVuSans-69" transform="translate(262.652344 0)"/>
     <use xlink:href="#DejaVuSans-61" transform="translate(290.435547 0)"/>
     <use xlink:href="#DejaVuSans-72" transform="translate(351.714844 0)"/>
     <use xlink:href="#DejaVuSans-20" transform="translate(392.828125 0)"/>
     <use xlink:href="#DejaVuSans-7c" transform="translate(424.615234 0)"/>
     <use xlink:href="#DejaVuSans-20" transform="translate(458.306641 0)"/>
     <use xlink:href="#DejaVuSans-4e" transform="translate(490.09375 0)"/>
     <use xlink:href="#DejaVuSans-61" transform="translate(564.898438 0)"/>
     <use xlink:href="#DejaVuSans-69" transform="translate(626.177734 0)"/>
     <use xlink:href="#DejaVuSans-76" transform="translate(653.960938 0)"/>
     <use xlink:href="#DejaVuSans-65" transform="translate(713.140625 0)"/>
    </g>
   </g>
   <g id="legend_1">
    <g id="line2d_11">
     <path d="M 110.56 46.867813 
L 125.56 46.867813 
L 140.56 46.867813 
" style="fill: none; stroke: #000000; stroke-width: 5; stroke-linecap: square"/>
    </g>
    <g id="text_13">
     <!-- Nonoccluded (NO) -->
     <g transform="translate(152.56 52.117813) scale(0.15 -0.15)">
      <defs>
       <path id="DejaVuSans-6f" d="M 1959 3097 
Q 1497 3097 1228 2736 
Q 959 2375 959 1747 
Q 959 1119 1226 758 
Q 1494 397 1959 397 
Q 2419 397 2687 759 
Q 2956 1122 2956 1747 
Q 2956 2369 2687 2733 
Q 2419 3097 1959 3097 
z
M 1959 3584 
Q 2709 3584 3137 3096 
Q 3566 2609 3566 1747 
Q 3566 888 3137 398 
Q 2709 -91 1959 -91 
Q 1206 -91 779 398 
Q 353 888 353 1747 
Q 353 2609 779 3096 
Q 1206 3584 1959 3584 
z
" transform="scale(0.015625)"/>
       <path id="DejaVuSans-6e" d="M 3513 2113 
L 3513 0 
L 2938 0 
L 2938 2094 
Q 2938 2591 2744 2837 
Q 2550 3084 2163 3084 
Q 1697 3084 1428 2787 
Q 1159 2491 1159 1978 
L 1159 0 
L 581 0 
L 581 3500 
L 1159 3500 
L 1159 2956 
Q 1366 3272 1645 3428 
Q 1925 3584 2291 3584 
Q 2894 3584 3203 3211 
Q 3513 2838 3513 2113 
z
" transform="scale(0.015625)"/>
       <path id="DejaVuSans-64" d="M 2906 2969 
L 2906 4863 
L 3481 4863 
L 3481 0 
L 2906 0 
L 2906 525 
Q 2725 213 2448 61 
Q 2172 -91 1784 -91 
Q 1150 -91 751 415 
Q 353 922 353 1747 
Q 353 2572 751 3078 
Q 1150 3584 1784 3584 
Q 2172 3584 2448 3432 
Q 2725 3281 2906 2969 
z
M 947 1747 
Q 947 1113 1208 752 
Q 1469 391 1925 391 
Q 2381 391 2643 752 
Q 2906 1113 2906 1747 
Q 2906 2381 2643 2742 
Q 2381 3103 1925 3103 
Q 1469 3103 1208 2742 
Q 947 2381 947 1747 
z
" transform="scale(0.015625)"/>
       <path id="DejaVuSans-4f" d="M 2522 4238 
Q 1834 4238 1429 3725 
Q 1025 3213 1025 2328 
Q 1025 1447 1429 934 
Q 1834 422 2522 422 
Q 3209 422 3611 934 
Q 4013 1447 4013 2328 
Q 4013 3213 3611 3725 
Q 3209 4238 2522 4238 
z
M 2522 4750 
Q 3503 4750 4090 4092 
Q 4678 3434 4678 2328 
Q 4678 1225 4090 567 
Q 3503 -91 2522 -91 
Q 1538 -91 948 565 
Q 359 1222 359 2328 
Q 359 3434 948 4092 
Q 1538 4750 2522 4750 
z
" transform="scale(0.015625)"/>
      </defs>
      <use xlink:href="#DejaVuSans-4e"/>
      <use xlink:href="#DejaVuSans-6f" transform="translate(74.804688 0)"/>
      <use xlink:href="#DejaVuSans-6e" transform="translate(135.986328 0)"/>
      <use xlink:href="#DejaVuSans-6f" transform="translate(199.365234 0)"/>
      <use xlink:href="#DejaVuSans-63" transform="translate(260.546875 0)"/>
      <use xlink:href="#DejaVuSans-63" transform="translate(315.527344 0)"/>
      <use xlink:href="#DejaVuSans-6c" transform="translate(370.507812 0)"/>
      <use xlink:href="#DejaVuSans-75" transform="translate(398.291016 0)"/>
      <use xlink:href="#DejaVuSans-64" transform="translate(461.669922 0)"/>
      <use xlink:href="#DejaVuSans-65" transform="translate(525.146484 0)"/>
      <use xlink:href="#DejaVuSans-64" transform="translate(586.669922 0)"/>
      <use xlink:href="#DejaVuSans-20" transform="translate(650.146484 0)"/>
      <use xlink:href="#DejaVuSans-28" transform="translate(681.933594 0)"/>
      <use xlink:href="#DejaVuSans-4e" transform="translate(720.947266 0)"/>
      <use xlink:href="#DejaVuSans-4f" transform="translate(795.751953 0)"/>
      <use xlink:href="#DejaVuSans-29" transform="translate(874.462891 0)"/>
     </g>
    </g>
    <g id="line2d_12">
     <path d="M 110.56 68.885 
L 125.56 68.885 
L 140.56 68.885 
" style="fill: none; stroke: #ff0000; stroke-width: 5; stroke-linecap: square"/>
    </g>
    <g id="text_14">
     <!-- Occluded (O) -->
     <g transform="translate(152.56 74.135) scale(0.15 -0.15)">
      <use xlink:href="#DejaVuSans-4f"/>
      <use xlink:href="#DejaVuSans-63" transform="translate(78.710938 0)"/>
      <use xlink:href="#DejaVuSans-63" transform="translate(133.691406 0)"/>
      <use xlink:href="#DejaVuSans-6c" transform="translate(188.671875 0)"/>
      <use xlink:href="#DejaVuSans-75" transform="translate(216.455078 0)"/>
      <use xlink:href="#DejaVuSans-64" transform="translate(279.833984 0)"/>
      <use xlink:href="#DejaVuSans-65" transform="translate(343.310547 0)"/>
      <use xlink:href="#DejaVuSans-64" transform="translate(404.833984 0)"/>
      <use xlink:href="#DejaVuSans-20" transform="translate(468.310547 0)"/>
      <use xlink:href="#DejaVuSans-28" transform="translate(500.097656 0)"/>
      <use xlink:href="#DejaVuSans-4f" transform="translate(539.111328 0)"/>
      <use xlink:href="#DejaVuSans-29" transform="translate(617.822266 0)"/>
     </g>
    </g>
    <g id="line2d_13">
     <path d="M 110.56 90.902188 
L 125.56 90.902188 
L 140.56 90.902188 
" style="fill: none; stroke: #0000ff; stroke-width: 5; stroke-linecap: square"/>
    </g>
    <g id="text_15">
     <!-- No feedback -->
     <g transform="translate(152.56 96.152188) scale(0.15 -0.15)">
      <defs>
       <path id="DejaVuSans-66" d="M 2375 4863 
L 2375 4384 
L 1825 4384 
Q 1516 4384 1395 4259 
Q 1275 4134 1275 3809 
L 1275 3500 
L 2222 3500 
L 2222 3053 
L 1275 3053 
L 1275 0 
L 697 0 
L 697 3053 
L 147 3053 
L 147 3500 
L 697 3500 
L 697 3744 
Q 697 4328 969 4595 
Q 1241 4863 1831 4863 
L 2375 4863 
z
" transform="scale(0.015625)"/>
       <path id="DejaVuSans-62" d="M 3116 1747 
Q 3116 2381 2855 2742 
Q 2594 3103 2138 3103 
Q 1681 3103 1420 2742 
Q 1159 2381 1159 1747 
Q 1159 1113 1420 752 
Q 1681 391 2138 391 
Q 2594 391 2855 752 
Q 3116 1113 3116 1747 
z
M 1159 2969 
Q 1341 3281 1617 3432 
Q 1894 3584 2278 3584 
Q 2916 3584 3314 3078 
Q 3713 2572 3713 1747 
Q 3713 922 3314 415 
Q 2916 -91 2278 -91 
Q 1894 -91 1617 61 
Q 1341 213 1159 525 
L 1159 0 
L 581 0 
L 581 4863 
L 1159 4863 
L 1159 2969 
z
" transform="scale(0.015625)"/>
       <path id="DejaVuSans-6b" d="M 581 4863 
L 1159 4863 
L 1159 1991 
L 2875 3500 
L 3609 3500 
L 1753 1863 
L 3688 0 
L 2938 0 
L 1159 1709 
L 1159 0 
L 581 0 
L 581 4863 
z
" transform="scale(0.015625)"/>
      </defs>
      <use xlink:href="#DejaVuSans-4e"/>
      <use xlink:href="#DejaVuSans-6f" transform="translate(74.804688 0)"/>
      <use xlink:href="#DejaVuSans-20" transform="translate(135.986328 0)"/>
      <use xlink:href="#DejaVuSans-66" transform="translate(167.773438 0)"/>
      <use xlink:href="#DejaVuSans-65" transform="translate(202.978516 0)"/>
      <use xlink:href="#DejaVuSans-65" transform="translate(264.501953 0)"/>
      <use xlink:href="#DejaVuSans-64" transform="translate(326.025391 0)"/>
      <use xlink:href="#DejaVuSans-62" transform="translate(389.501953 0)"/>
      <use xlink:href="#DejaVuSans-61" transform="translate(452.978516 0)"/>
      <use xlink:href="#DejaVuSans-63" transform="translate(514.257812 0)"/>
      <use xlink:href="#DejaVuSans-6b" transform="translate(569.238281 0)"/>
     </g>
    </g>
   </g>
  </g>
  <g id="axes_2">
   <g id="patch_6">
    <path d="M 447.645393 336.640156 
L 748.589213 336.640156 
L 748.589213 31.720156 
L 447.645393 31.720156 
z
" style="fill: #ffffff"/>
   </g>
   <g id="matplotlib.axis_3">
    <g id="xtick_6">
     <g id="line2d_14">
      <g>
       <use xlink:href="#mdf534c0f2d" x="447.645393" y="336.640156" style="stroke: #000000; stroke-width: 1.6"/>
      </g>
     </g>
     <g id="text_16">
      <!-- -1 -->
      <g transform="translate(431.692893 369.455156) scale(0.32 -0.32)">
       <use xlink:href="#DejaVuSans-2d"/>
       <use xlink:href="#DejaVuSans-31" transform="translate(36.083984 0)"/>
      </g>
     </g>
    </g>
    <g id="xtick_7">
     <g id="line2d_15">
      <g>
       <use xlink:href="#mdf534c0f2d" x="522.881348" y="336.640156" style="stroke: #000000; stroke-width: 1.6"/>
      </g>
     </g>
     <g id="text_17">
      <!-- 0 -->
      <g transform="translate(512.701348 369.455156) scale(0.32 -0.32)">
       <use xlink:href="#DejaVuSans-30"/>
      </g>
     </g>
    </g>
    <g id="xtick_8">
     <g id="line2d_16">
      <g>
       <use xlink:href="#mdf534c0f2d" x="598.117303" y="336.640156" style="stroke: #000000; stroke-width: 1.6"/>
      </g>
     </g>
     <g id="text_18">
      <!-- 1 -->
      <g transform="translate(587.937303 369.455156) scale(0.32 -0.32)">
       <use xlink:href="#DejaVuSans-31"/>
      </g>
     </g>
    </g>
    <g id="xtick_9">
     <g id="line2d_17">
      <g>
       <use xlink:href="#mdf534c0f2d" x="673.353258" y="336.640156" style="stroke: #000000; stroke-width: 1.6"/>
      </g>
     </g>
     <g id="text_19">
      <!-- 2 -->
      <g transform="translate(663.173258 369.455156) scale(0.32 -0.32)">
       <use xlink:href="#DejaVuSans-32"/>
      </g>
     </g>
    </g>
    <g id="xtick_10">
     <g id="line2d_18">
      <g>
       <use xlink:href="#mdf534c0f2d" x="748.589213" y="336.640156" style="stroke: #000000; stroke-width: 1.6"/>
      </g>
     </g>
     <g id="text_20">
      <!-- 3 -->
      <g transform="translate(738.409213 369.455156) scale(0.32 -0.32)">
       <use xlink:href="#DejaVuSans-33"/>
      </g>
     </g>
    </g>
    <g id="text_21">
     <!-- Time (s) -->
     <g transform="translate(533.064803 404.425156) scale(0.32 -0.32)">
      <use xlink:href="#DejaVuSans-54"/>
      <use xlink:href="#DejaVuSans-69" transform="translate(57.958984 0)"/>
      <use xlink:href="#DejaVuSans-6d" transform="translate(85.742188 0)"/>
      <use xlink:href="#DejaVuSans-65" transform="translate(183.154297 0)"/>
      <use xlink:href="#DejaVuSans-20" transform="translate(244.677734 0)"/>
      <use xlink:href="#DejaVuSans-28" transform="translate(276.464844 0)"/>
      <use xlink:href="#DejaVuSans-73" transform="translate(315.478516 0)"/>
      <use xlink:href="#DejaVuSans-29" transform="translate(367.578125 0)"/>
     </g>
    </g>
   </g>
   <g id="matplotlib.axis_4">
    <g id="ytick_4">
     <g id="line2d_19">
      <g>
       <use xlink:href="#m0259a373d4" x="447.645393" y="315.628759" style="stroke: #000000; stroke-width: 1.6"/>
      </g>
     </g>
    </g>
    <g id="ytick_5">
     <g id="line2d_20">
      <g>
       <use xlink:href="#m0259a373d4" x="447.645393" y="219.659464" style="stroke: #000000; stroke-width: 1.6"/>
      </g>
     </g>
    </g>
    <g id="ytick_6">
     <g id="line2d_21">
      <g>
       <use xlink:href="#m0259a373d4" x="447.645393" y="123.690168" style="stroke: #000000; stroke-width: 1.6"/>
      </g>
     </g>
    </g>
   </g>
   <g id="line2d_22">
    <path d="M 448.397753 315.595907 
L 464.197303 315.611191 
L 464.949663 314.708685 
L 465.702022 314.754689 
L 466.454382 313.412586 
L 467.206742 313.322436 
L 467.959101 313.437752 
L 468.711461 313.262512 
L 469.46382 313.239186 
L 473.977978 313.872203 
L 474.730337 313.70105 
L 479.244494 314.211716 
L 479.996854 313.850457 
L 482.253933 314.104088 
L 483.006292 313.986265 
L 485.263371 314.220526 
L 486.76809 313.720259 
L 487.520449 313.815684 
L 489.025169 313.290262 
L 491.282247 313.609568 
L 492.034607 312.158162 
L 492.786966 311.871561 
L 496.548764 312.721511 
L 501.062921 313.491665 
L 504.07236 313.888083 
L 504.824719 312.622251 
L 505.577079 312.308249 
L 506.329438 311.383203 
L 507.834157 311.797145 
L 508.586517 311.24421 
L 510.843596 311.869557 
L 511.595955 311.124513 
L 514.605393 311.960023 
L 516.110112 312.21606 
L 516.862472 312.386695 
L 517.614831 310.054961 
L 520.62427 311.088866 
L 522.128989 311.531506 
L 523.633708 277.144449 
L 525.890787 236.218607 
L 527.395506 211.596146 
L 528.900225 189.888092 
L 531.909663 152.531035 
L 533.414382 139.672949 
L 534.166742 131.354096 
L 534.919101 124.964372 
L 536.42382 116.154053 
L 537.17618 108.859076 
L 537.928539 103.102236 
L 539.433258 94.570349 
L 540.185618 91.245673 
L 540.937978 87.039298 
L 541.690337 84.19096 
L 542.442697 80.268165 
L 543.195056 77.059696 
L 543.947416 74.857126 
L 544.699775 74.820717 
L 545.452135 69.722203 
L 546.204494 67.832816 
L 547.709213 63.330291 
L 548.461573 61.436471 
L 549.213933 60.109838 
L 549.966292 61.469448 
L 550.718652 58.941742 
L 551.471011 57.828473 
L 552.223371 55.991483 
L 553.72809 53.691241 
L 554.480449 54.068547 
L 555.232809 54.131097 
L 555.985169 52.749122 
L 556.737528 53.135951 
L 557.489888 53.939642 
L 558.994607 54.358647 
L 559.746966 54.962445 
L 560.499326 54.824816 
L 561.251685 54.525678 
L 562.004045 54.391424 
L 562.756404 54.797502 
L 563.508764 56.178191 
L 564.261124 57.826328 
L 565.013483 58.010662 
L 565.765843 58.376641 
L 566.518202 59.882774 
L 568.022921 61.129838 
L 568.775281 62.663629 
L 569.52764 63.444009 
L 570.28 65.9984 
L 571.03236 67.229362 
L 571.784719 68.9063 
L 572.537079 69.528059 
L 574.041798 76.460303 
L 575.546517 79.273934 
L 576.298876 81.137594 
L 577.051236 82.127835 
L 577.803596 83.362601 
L 578.555955 83.592125 
L 579.308315 83.511641 
L 580.060674 85.571577 
L 580.813034 84.574486 
L 581.565393 85.499974 
L 582.317753 86.676494 
L 583.822472 92.066682 
L 584.574831 91.509332 
L 585.327191 94.199607 
L 586.079551 94.277888 
L 586.83191 94.144393 
L 587.58427 96.877955 
L 588.336629 97.018272 
L 589.088989 99.013583 
L 589.841348 98.520143 
L 590.593708 99.576925 
L 591.346067 99.936783 
L 592.098427 99.043972 
L 592.850787 98.438973 
L 593.603146 98.518842 
L 594.355506 99.846104 
L 595.107865 100.541424 
L 595.860225 101.530621 
L 596.612584 103.239178 
L 597.364944 106.093866 
L 599.622022 135.978776 
L 601.879101 161.601353 
L 604.13618 183.569513 
L 606.393258 202.404467 
L 608.650337 218.553087 
L 610.907416 232.398504 
L 613.164494 244.269225 
L 615.421573 254.446883 
L 617.678652 263.172954 
L 619.93573 270.654464 
L 622.192809 277.068924 
L 624.449888 282.568522 
L 626.706966 287.28374 
L 628.964045 291.326449 
L 631.221124 294.792566 
L 633.478202 297.764329 
L 635.735281 300.312243 
L 637.99236 302.496761 
L 640.249438 304.369713 
L 642.506517 305.975534 
L 644.763596 307.352325 
L 647.773034 308.887552 
L 650.782472 310.138004 
L 653.79191 311.156505 
L 657.553708 312.168214 
L 661.315506 312.951056 
L 665.829663 313.660401 
L 671.09618 314.254182 
L 677.867416 314.762433 
L 686.143371 315.135993 
L 697.428764 315.400465 
L 714.733034 315.558591 
L 747.836854 315.60466 
L 747.836854 315.60466 
" clip-path="url(#pb572623d9e)" style="fill: none; stroke: #000000; stroke-width: 5; stroke-linecap: square"/>
   </g>
   <g id="line2d_23">
    <path d="M 448.397753 313.567371 
L 449.150112 313.670441 
L 449.902472 313.633807 
L 451.407191 313.807504 
L 452.159551 313.545512 
L 452.91191 313.649675 
L 455.168989 313.280047 
L 457.426067 313.615032 
L 458.178427 313.351553 
L 458.930787 313.465413 
L 459.683146 313.293404 
L 461.187865 313.521101 
L 462.692584 313.627612 
L 463.444944 313.72767 
L 464.949663 313.585037 
L 465.702022 313.524072 
L 469.46382 313.954397 
L 473.225618 314.33317 
L 474.730337 314.379888 
L 476.987416 314.558008 
L 477.739775 314.438204 
L 480.749213 314.659045 
L 484.511011 314.511566 
L 485.263371 314.555129 
L 486.01573 314.051654 
L 492.034607 314.574777 
L 494.291685 314.607432 
L 495.044045 314.394999 
L 495.796404 314.456687 
L 496.548764 314.344924 
L 501.815281 314.71641 
L 503.32 314.141162 
L 504.824719 314.273587 
L 505.577079 314.096345 
L 508.586517 313.859118 
L 510.091236 314.031658 
L 510.843596 313.854982 
L 512.348315 314.027925 
L 513.853034 313.876862 
L 514.605393 313.964457 
L 515.357753 313.556439 
L 519.119551 313.966493 
L 519.87191 314.049607 
L 521.376629 313.895424 
L 522.128989 313.98209 
L 523.633708 313.839329 
L 525.138427 314.001569 
L 525.890787 313.779708 
L 526.643146 313.333377 
L 527.395506 313.138297 
L 531.909663 313.784668 
L 535.671461 314.201836 
L 537.928539 314.129562 
L 539.433258 314.275734 
L 541.690337 314.11639 
L 544.699775 314.330822 
L 545.452135 313.882481 
L 546.204494 313.969795 
L 546.956854 313.77945 
L 551.471011 314.269347 
L 552.223371 314.130276 
L 558.242247 314.624069 
L 558.994607 314.674304 
L 561.251685 314.328823 
L 563.508764 314.415568 
L 565.013483 314.533854 
L 567.270562 314.182461 
L 568.022921 314.254775 
L 568.775281 314.204364 
L 571.784719 314.46858 
L 574.041798 314.352473 
L 574.794157 314.1429 
L 577.051236 314.3515 
L 579.308315 313.721302 
L 580.813034 313.831744 
L 582.317753 313.087581 
L 585.327191 313.49254 
L 586.079551 313.563573 
L 586.83191 313.326239 
L 588.336629 313.550735 
L 589.088989 313.519922 
L 593.603146 314.051674 
L 595.860225 314.276606 
L 596.612584 313.952304 
L 599.622022 314.263276 
L 600.374382 314.185069 
L 602.631461 314.365138 
L 603.38382 314.255619 
L 604.888539 314.3895 
L 605.640899 314.28623 
L 607.145618 314.417127 
L 607.897978 314.318829 
L 608.650337 314.384325 
L 609.402697 314.294412 
L 610.155056 314.361129 
L 610.907416 313.842365 
L 611.659775 313.54955 
L 613.164494 313.667871 
L 616.926292 314.111461 
L 617.678652 313.443035 
L 618.431011 313.319887 
L 619.93573 313.536696 
L 620.68809 313.388194 
L 622.945169 313.657928 
L 626.706966 314.061904 
L 627.459326 313.839016 
L 631.973483 314.310535 
L 635.735281 314.291878 
L 638.744719 314.539861 
L 639.497079 314.374287 
L 640.249438 314.437011 
L 641.001798 314.294609 
L 643.258876 314.484893 
L 644.011236 314.302219 
L 649.277753 314.692415 
L 650.782472 314.595397 
L 653.039551 314.73015 
L 654.54427 314.729084 
L 656.801348 314.841955 
L 657.553708 314.691884 
L 663.572584 314.980518 
L 664.324944 314.760479 
L 669.591461 314.957151 
L 671.848539 315.018765 
L 672.600899 314.870555 
L 681.629213 315.219056 
L 683.133933 315.259002 
L 683.886292 315.049716 
L 686.89573 315.090614 
L 688.400449 314.876469 
L 690.657528 314.983764 
L 692.162247 314.950971 
L 692.914607 314.416657 
L 693.666966 314.477262 
L 694.419326 314.411288 
L 698.181124 314.606715 
L 698.933483 314.657817 
L 699.685843 314.483279 
L 703.44764 314.646512 
L 705.704719 314.786605 
L 706.457079 314.716968 
L 707.209438 314.762557 
L 707.961798 314.620313 
L 713.980674 314.91769 
L 720.75191 315.180608 
L 721.50427 314.794848 
L 722.256629 314.717374 
L 723.008989 314.762944 
L 724.513708 314.353803 
L 725.266067 314.354555 
L 726.018427 314.189934 
L 729.027865 314.456827 
L 729.780225 314.192672 
L 730.532584 314.264476 
L 731.284944 314.114935 
L 734.294382 314.358675 
L 736.551461 314.519911 
L 737.30382 314.214668 
L 739.560899 313.995421 
L 743.322697 314.362334 
L 744.075056 314.197477 
L 747.836854 314.169858 
L 747.836854 314.169858 
" clip-path="url(#pb572623d9e)" style="fill: none; stroke: #ff0000; stroke-width: 5; stroke-linecap: square"/>
   </g>
   <g id="patch_7">
    <path d="M 447.645393 336.640156 
L 447.645393 31.720156 
" style="fill: none; stroke: #000000; stroke-width: 5; stroke-linejoin: miter; stroke-linecap: square"/>
   </g>
   <g id="patch_8">
    <path d="M 447.645393 336.640156 
L 748.589213 336.640156 
" style="fill: none; stroke: #000000; stroke-width: 5; stroke-linejoin: miter; stroke-linecap: square"/>
   </g>
   <g id="patch_9">
    <path d="M 522.881348 330.541756 
L 598.117303 330.541756 
L 598.117303 319.869556 
L 522.881348 319.869556 
z
" style="fill: #8c5a2b; stroke: #8c5a2b; stroke-linejoin: miter"/>
   </g>
   <g id="text_22">
    <!-- Familiar | Expert -->
    <g transform="translate(520.429569 21.720156) scale(0.19 -0.19)">
     <defs>
      <path id="DejaVuSans-45" d="M 628 4666 
L 3578 4666 
L 3578 4134 
L 1259 4134 
L 1259 2753 
L 3481 2753 
L 3481 2222 
L 1259 2222 
L 1259 531 
L 3634 531 
L 3634 0 
L 628 0 
L 628 4666 
z
" transform="scale(0.015625)"/>
      <path id="DejaVuSans-78" d="M 3513 3500 
L 2247 1797 
L 3578 0 
L 2900 0 
L 1881 1375 
L 863 0 
L 184 0 
L 1544 1831 
L 300 3500 
L 978 3500 
L 1906 2253 
L 2834 3500 
L 3513 3500 
z
" transform="scale(0.015625)"/>
      <path id="DejaVuSans-70" d="M 1159 525 
L 1159 -1331 
L 581 -1331 
L 581 3500 
L 1159 3500 
L 1159 2969 
Q 1341 3281 1617 3432 
Q 1894 3584 2278 3584 
Q 2916 3584 3314 3078 
Q 3713 2572 3713 1747 
Q 3713 922 3314 415 
Q 2916 -91 2278 -91 
Q 1894 -91 1617 61 
Q 1341 213 1159 525 
z
M 3116 1747 
Q 3116 2381 2855 2742 
Q 2594 3103 2138 3103 
Q 1681 3103 1420 2742 
Q 1159 2381 1159 1747 
Q 1159 1113 1420 752 
Q 1681 391 2138 391 
Q 2594 391 2855 752 
Q 3116 1113 3116 1747 
z
" transform="scale(0.015625)"/>
     </defs>
     <use xlink:href="#DejaVuSans-46"/>
     <use xlink:href="#DejaVuSans-61" transform="translate(48.394531 0)"/>
     <use xlink:href="#DejaVuSans-6d" transform="translate(109.673828 0)"/>
     <use xlink:href="#DejaVuSans-69" transform="translate(207.085938 0)"/>
     <use xlink:href="#DejaVuSans-6c" transform="translate(234.869141 0)"/>
     <use xlink:href="#DejaVuSans-69" transform="translate(262.652344 0)"/>
     <use xlink:href="#DejaVuSans-61" transform="translate(290.435547 0)"/>
     <use xlink:href="#DejaVuSans-72" transform="translate(351.714844 0)"/>
     <use xlink:href="#DejaVuSans-20" transform="translate(392.828125 0)"/>
     <use xlink:href="#DejaVuSans-7c" transform="translate(424.615234 0)"/>
     <use xlink:href="#DejaVuSans-20" transform="translate(458.306641 0)"/>
     <use xlink:href="#DejaVuSans-45" transform="translate(490.09375 0)"/>
     <use xlink:href="#DejaVuSans-78" transform="translate(553.277344 0)"/>
     <use xlink:href="#DejaVuSans-70" transform="translate(612.457031 0)"/>
     <use xlink:href="#DejaVuSans-65" transform="translate(675.933594 0)"/>
     <use xlink:href="#DejaVuSans-72" transform="translate(737.457031 0)"/>
     <use xlink:href="#DejaVuSans-74" transform="translate(778.570312 0)"/>
    </g>
   </g>
  </g>
  <g id="axes_3">
   <g id="patch_10">
    <path d="M 793.730787 336.640156 
L 1094.674607 336.640156 
L 1094.674607 31.720156 
L 793.730787 31.720156 
z
" style="fill: #ffffff"/>
   </g>
   <g id="matplotlib.axis_5">
    <g id="xtick_11">
     <g id="line2d_24">
      <g>
       <use xlink:href="#mdf534c0f2d" x="793.730787" y="336.640156" style="stroke: #000000; stroke-width: 1.6"/>
      </g>
     </g>
     <g id="text_23">
      <!-- -1 -->
      <g transform="translate(777.778287 369.455156) scale(0.32 -0.32)">
       <use xlink:href="#DejaVuSans-2d"/>
       <use xlink:href="#DejaVuSans-31" transform="translate(36.083984 0)"/>
      </g>
     </g>
    </g>
    <g id="xtick_12">
     <g id="line2d_25">
      <g>
       <use xlink:href="#mdf534c0f2d" x="868.966742" y="336.640156" style="stroke: #000000; stroke-width: 1.6"/>
      </g>
     </g>
     <g id="text_24">
      <!-- 0 -->
      <g transform="translate(858.786742 369.455156) scale(0.32 -0.32)">
       <use xlink:href="#DejaVuSans-30"/>
      </g>
     </g>
    </g>
    <g id="xtick_13">
     <g id="line2d_26">
      <g>
       <use xlink:href="#mdf534c0f2d" x="944.202697" y="336.640156" style="stroke: #000000; stroke-width: 1.6"/>
      </g>
     </g>
     <g id="text_25">
      <!-- 1 -->
      <g transform="translate(934.022697 369.455156) scale(0.32 -0.32)">
       <use xlink:href="#DejaVuSans-31"/>
      </g>
     </g>
    </g>
    <g id="xtick_14">
     <g id="line2d_27">
      <g>
       <use xlink:href="#mdf534c0f2d" x="1019.438652" y="336.640156" style="stroke: #000000; stroke-width: 1.6"/>
      </g>
     </g>
     <g id="text_26">
      <!-- 2 -->
      <g transform="translate(1009.258652 369.455156) scale(0.32 -0.32)">
       <use xlink:href="#DejaVuSans-32"/>
      </g>
     </g>
    </g>
    <g id="xtick_15">
     <g id="line2d_28">
      <g>
       <use xlink:href="#mdf534c0f2d" x="1094.674607" y="336.640156" style="stroke: #000000; stroke-width: 1.6"/>
      </g>
     </g>
     <g id="text_27">
      <!-- 3 -->
      <g transform="translate(1084.494607 369.455156) scale(0.32 -0.32)">
       <use xlink:href="#DejaVuSans-33"/>
      </g>
     </g>
    </g>
    <g id="text_28">
     <!-- Time (s) -->
     <g transform="translate(879.150197 404.425156) scale(0.32 -0.32)">
      <use xlink:href="#DejaVuSans-54"/>
      <use xlink:href="#DejaVuSans-69" transform="translate(57.958984 0)"/>
      <use xlink:href="#DejaVuSans-6d" transform="translate(85.742188 0)"/>
      <use xlink:href="#DejaVuSans-65" transform="translate(183.154297 0)"/>
      <use xlink:href="#DejaVuSans-20" transform="translate(244.677734 0)"/>
      <use xlink:href="#DejaVuSans-28" transform="translate(276.464844 0)"/>
      <use xlink:href="#DejaVuSans-73" transform="translate(315.478516 0)"/>
      <use xlink:href="#DejaVuSans-29" transform="translate(367.578125 0)"/>
     </g>
    </g>
   </g>
   <g id="matplotlib.axis_6">
    <g id="ytick_7">
     <g id="line2d_29">
      <g>
       <use xlink:href="#m0259a373d4" x="793.730787" y="315.628759" style="stroke: #000000; stroke-width: 1.6"/>
      </g>
     </g>
    </g>
    <g id="ytick_8">
     <g id="line2d_30">
      <g>
       <use xlink:href="#m0259a373d4" x="793.730787" y="219.659464" style="stroke: #000000; stroke-width: 1.6"/>
      </g>
     </g>
    </g>
    <g id="ytick_9">
     <g id="line2d_31">
      <g>
       <use xlink:href="#m0259a373d4" x="793.730787" y="123.690168" style="stroke: #000000; stroke-width: 1.6"/>
      </g>
     </g>
    </g>
   </g>
   <g id="line2d_32">
    <path d="M 794.483146 314.661021 
L 795.235506 314.128175 
L 801.254382 314.633241 
L 807.273258 314.968312 
L 808.025618 313.940784 
L 808.777978 313.671048 
L 811.035056 313.950266 
L 811.787416 313.642046 
L 817.053933 314.241363 
L 823.825169 314.754354 
L 828.339326 314.985991 
L 829.091685 314.86235 
L 834.358202 315.020212 
L 840.377079 315.225037 
L 841.129438 314.759242 
L 844.138876 314.920532 
L 844.891236 314.212996 
L 846.395955 314.351033 
L 847.900674 314.070689 
L 849.405393 314.2226 
L 850.157753 313.280619 
L 850.910112 313.398026 
L 851.662472 313.112751 
L 854.67191 313.579455 
L 855.42427 311.955514 
L 859.186067 312.786472 
L 859.938427 312.928586 
L 860.690787 312.894396 
L 865.204944 313.618751 
L 865.957303 313.418767 
L 868.214382 313.733967 
L 868.966742 304.096442 
L 869.719101 292.56804 
L 870.471461 283.128163 
L 871.97618 262.235521 
L 874.233258 234.082693 
L 875.737978 219.562083 
L 877.242697 206.208439 
L 878.747416 196.782446 
L 879.499775 191.527105 
L 880.252135 188.973887 
L 881.004494 185.108966 
L 881.756854 178.844071 
L 882.509213 174.154466 
L 883.261573 171.517804 
L 884.013933 168.370999 
L 884.766292 164.659495 
L 886.271011 158.913524 
L 887.023371 154.857118 
L 887.77573 151.865574 
L 888.52809 149.592246 
L 889.280449 146.876945 
L 890.032809 145.105809 
L 890.785169 144.550176 
L 891.537528 143.383467 
L 892.289888 141.761356 
L 893.042247 141.219223 
L 894.546966 141.02495 
L 895.299326 139.894164 
L 896.051685 139.134934 
L 896.804045 139.343707 
L 897.556404 137.273318 
L 898.308764 136.094582 
L 899.813483 132.713848 
L 900.565843 133.336666 
L 901.318202 132.249024 
L 902.070562 133.045978 
L 902.822921 133.529923 
L 903.575281 134.950181 
L 904.32764 135.79091 
L 905.08 137.898352 
L 905.83236 137.571685 
L 906.584719 137.875213 
L 907.337079 138.046634 
L 908.089438 138.714412 
L 909.594157 140.914879 
L 910.346517 141.518934 
L 911.098876 141.917618 
L 911.851236 141.858929 
L 912.603596 141.53425 
L 913.355955 141.386754 
L 914.108315 142.850915 
L 914.860674 143.309318 
L 915.613034 144.274605 
L 916.365393 144.205261 
L 917.117753 145.030016 
L 917.870112 146.384292 
L 918.622472 146.473627 
L 919.374831 145.363762 
L 920.127191 145.033577 
L 921.63191 147.83491 
L 922.38427 147.66921 
L 923.136629 147.868874 
L 923.888989 148.316595 
L 924.641348 148.4595 
L 925.393708 147.914249 
L 926.146067 149.2171 
L 926.898427 149.020153 
L 927.650787 150.892394 
L 928.403146 151.557798 
L 929.155506 153.533046 
L 929.907865 154.725153 
L 930.660225 156.406067 
L 931.412584 158.480732 
L 932.164944 159.144649 
L 932.917303 160.884967 
L 933.669663 160.242487 
L 934.422022 160.894606 
L 935.174382 162.981698 
L 935.926742 162.591265 
L 936.679101 163.014318 
L 937.431461 164.346427 
L 938.18382 164.882898 
L 938.93618 167.02702 
L 939.688539 167.894591 
L 940.440899 168.53424 
L 941.193258 168.870274 
L 941.945618 170.29272 
L 942.697978 169.930616 
L 943.450337 169.265541 
L 945.707416 190.140596 
L 947.964494 208.03835 
L 950.221573 223.383437 
L 952.478652 236.539933 
L 954.73573 247.819984 
L 956.992809 257.49121 
L 959.249888 265.783081 
L 961.506966 272.892319 
L 963.764045 278.987606 
L 966.021124 284.213549 
L 968.278202 288.694144 
L 970.535281 292.535694 
L 972.79236 295.829344 
L 975.049438 298.653238 
L 977.306517 301.074373 
L 979.563596 303.150192 
L 981.820674 304.929948 
L 984.077753 306.455866 
L 986.334831 307.764151 
L 989.34427 309.222987 
L 992.353708 310.411218 
L 995.363146 311.379039 
L 999.124944 312.340407 
L 1002.886742 313.084295 
L 1007.400899 313.758344 
L 1012.667416 314.322579 
L 1019.438652 314.80554 
L 1027.714607 315.160512 
L 1039 315.411824 
L 1057.056629 315.565417 
L 1062.323146 315.584525 
L 1063.075506 315.402293 
L 1080.379775 315.559153 
L 1086.398652 315.582581 
L 1087.151011 315.098385 
L 1090.160449 315.155276 
L 1090.912809 314.762519 
L 1093.922247 314.923201 
L 1093.922247 314.923201 
" clip-path="url(#p7d5ecf823e)" style="fill: none; stroke: #000000; stroke-width: 5; stroke-linecap: square"/>
   </g>
   <g id="line2d_33">
    <path d="M 794.483146 314.044352 
L 795.235506 313.715821 
L 798.244944 313.852513 
L 798.997303 313.469138 
L 799.749663 313.381833 
L 800.502022 313.448869 
L 801.254382 313.335587 
L 802.006742 313.05395 
L 802.759101 313.061107 
L 804.26382 313.311453 
L 805.768539 313.245028 
L 806.520899 313.364215 
L 808.025618 313.287463 
L 808.777978 313.404528 
L 809.530337 313.362194 
L 811.787416 313.685462 
L 812.539775 313.629118 
L 814.796854 313.914317 
L 815.549213 313.39817 
L 818.558652 313.806278 
L 819.311011 313.267482 
L 820.063371 313.385546 
L 820.81573 313.363814 
L 821.56809 313.026349 
L 823.072809 313.213023 
L 826.082247 313.661127 
L 826.834607 313.468265 
L 827.586966 313.57629 
L 828.339326 313.533743 
L 831.348764 313.863197 
L 832.101124 313.792173 
L 832.853483 313.884002 
L 834.358202 313.878699 
L 836.615281 313.971484 
L 838.12 313.645909 
L 838.87236 313.323735 
L 841.129438 313.409571 
L 843.386517 313.726083 
L 844.138876 313.576323 
L 846.395955 313.80679 
L 847.148315 313.477982 
L 848.653034 313.61027 
L 850.157753 313.76343 
L 850.910112 313.632576 
L 851.662472 313.732386 
L 852.414831 313.517747 
L 853.919551 313.687746 
L 854.67191 313.570808 
L 855.42427 313.673705 
L 856.928989 313.598169 
L 858.433708 313.165626 
L 860.690787 313.442653 
L 861.443146 312.914134 
L 865.957303 313.63326 
L 868.214382 313.514323 
L 873.480899 314.15217 
L 874.233258 314.079382 
L 880.252135 314.600871 
L 884.766292 314.873167 
L 887.023371 314.871812 
L 891.537528 315.009062 
L 892.289888 314.877575 
L 899.061124 315.155326 
L 899.813483 315.012904 
L 904.32764 315.136219 
L 905.83236 315.100041 
L 911.851236 315.258394 
L 912.603596 315.041432 
L 916.365393 315.174296 
L 917.117753 314.659812 
L 922.38427 314.433711 
L 924.641348 314.604155 
L 925.393708 314.536595 
L 927.650787 314.593525 
L 929.155506 314.363419 
L 929.907865 314.426686 
L 931.412584 314.340766 
L 932.164944 313.799512 
L 932.917303 313.762936 
L 935.174382 314.010273 
L 935.926742 313.948144 
L 938.93618 314.139353 
L 939.688539 314.014597 
L 944.202697 314.425821 
L 944.955056 314.373562 
L 949.469213 314.687886 
L 952.478652 314.637344 
L 954.73573 314.778745 
L 956.240449 314.418906 
L 958.497528 314.489851 
L 960.754607 314.620911 
L 961.506966 314.557047 
L 962.259326 314.338899 
L 963.011685 314.403392 
L 963.764045 314.214502 
L 967.525843 314.534434 
L 969.030562 314.278473 
L 969.782921 314.345988 
L 970.535281 314.131741 
L 975.801798 314.568266 
L 978.058876 314.609466 
L 978.811236 314.295687 
L 979.563596 314.36234 
L 980.315955 314.242606 
L 981.068315 314.311914 
L 982.573034 313.575947 
L 984.830112 313.86873 
L 985.582472 313.651438 
L 990.096629 314.175247 
L 990.848989 314.133236 
L 991.601348 314.208013 
L 992.353708 314.164232 
L 997.620225 314.606025 
L 1000.629663 314.775331 
L 1001.382022 314.572345 
L 1004.391461 314.768303 
L 1005.14382 314.467122 
L 1005.89618 314.525204 
L 1007.400899 314.201738 
L 1008.153258 314.155465 
L 1011.162697 314.343726 
L 1014.924494 314.634425 
L 1015.676854 314.452465 
L 1021.69573 314.759488 
L 1022.44809 314.802951 
L 1023.952809 314.410923 
L 1024.705169 314.471815 
L 1025.457528 314.268872 
L 1029.971685 314.570322 
L 1030.724045 314.623244 
L 1031.476404 314.494993 
L 1038.24764 314.914204 
L 1039 314.949932 
L 1040.504719 314.843571 
L 1044.266517 314.932184 
L 1045.018876 314.794318 
L 1049.533034 314.968362 
L 1050.285393 315.001381 
L 1051.037753 314.780524 
L 1054.047191 314.91774 
L 1055.55191 314.757544 
L 1056.30427 314.621353 
L 1057.056629 314.671723 
L 1057.808989 314.395194 
L 1060.066067 314.490494 
L 1060.818427 314.434136 
L 1064.580225 314.665265 
L 1065.332584 314.472032 
L 1069.846742 314.778458 
L 1070.599101 314.525399 
L 1075.865618 314.858241 
L 1078.875056 314.73102 
L 1079.627416 314.243206 
L 1081.884494 314.44082 
L 1083.389213 314.059712 
L 1088.65573 314.533035 
L 1089.40809 314.344923 
L 1090.160449 314.402146 
L 1090.912809 314.320296 
L 1092.417528 314.447871 
L 1093.169888 314.31357 
L 1093.922247 314.379329 
L 1093.922247 314.379329 
" clip-path="url(#p7d5ecf823e)" style="fill: none; stroke: #ff0000; stroke-width: 5; stroke-linecap: square"/>
   </g>
   <g id="line2d_34">
    <path d="M 794.483146 314.667804 
L 795.235506 313.965458 
L 800.502022 314.467214 
L 802.006742 314.497537 
L 807.273258 314.838785 
L 808.025618 313.694755 
L 808.777978 313.556772 
L 811.035056 313.852289 
L 811.787416 313.536047 
L 816.301573 314.090423 
L 821.56809 314.538344 
L 822.320449 314.351723 
L 828.339326 314.781548 
L 829.091685 314.642041 
L 833.605843 314.849389 
L 834.358202 314.572472 
L 840.377079 314.927996 
L 841.129438 314.526875 
L 843.386517 314.684031 
L 844.138876 314.478223 
L 844.891236 313.760859 
L 846.395955 313.942979 
L 847.148315 313.727489 
L 848.653034 313.845474 
L 849.405393 313.934638 
L 850.157753 313.316822 
L 850.910112 313.432419 
L 851.662472 313.381105 
L 854.67191 313.798031 
L 855.42427 312.479729 
L 859.938427 313.313933 
L 862.195506 313.592388 
L 865.204944 313.970122 
L 865.957303 313.933214 
L 868.214382 314.175042 
L 870.471461 283.205243 
L 872.728539 251.664977 
L 874.233258 233.341453 
L 875.737978 219.253677 
L 877.242697 206.825865 
L 878.747416 197.071031 
L 879.499775 191.613566 
L 880.252135 188.734238 
L 881.004494 184.649075 
L 881.756854 178.38877 
L 882.509213 173.815815 
L 884.013933 168.729685 
L 884.766292 164.561293 
L 885.518652 161.586051 
L 886.271011 159.257165 
L 887.023371 154.673871 
L 887.77573 152.055986 
L 888.52809 149.880144 
L 889.280449 146.930701 
L 890.032809 145.648343 
L 890.785169 145.055972 
L 891.537528 144.223738 
L 892.289888 142.995865 
L 893.042247 142.160198 
L 894.546966 142.010872 
L 895.299326 140.904053 
L 896.051685 140.260815 
L 896.804045 140.362363 
L 897.556404 137.811276 
L 898.308764 136.39342 
L 899.061124 135.306794 
L 899.813483 133.391079 
L 900.565843 134.301809 
L 901.318202 133.10371 
L 902.070562 133.776893 
L 902.822921 133.732218 
L 903.575281 134.398738 
L 905.08 137.753316 
L 905.83236 137.042393 
L 906.584719 137.374723 
L 908.841798 139.57745 
L 909.594157 141.0452 
L 911.098876 141.940557 
L 912.603596 140.862224 
L 913.355955 140.040301 
L 914.108315 142.073952 
L 914.860674 142.104927 
L 915.613034 142.786462 
L 916.365393 142.820926 
L 917.117753 143.38717 
L 917.870112 144.721439 
L 918.622472 144.772392 
L 919.374831 143.914474 
L 920.127191 143.436364 
L 921.63191 146.706697 
L 922.38427 146.455337 
L 923.136629 147.094685 
L 923.888989 147.375019 
L 924.641348 147.488522 
L 925.393708 146.685332 
L 926.146067 148.239243 
L 926.898427 148.514715 
L 928.403146 152.011282 
L 929.155506 154.231999 
L 930.660225 156.571982 
L 931.412584 158.887597 
L 932.164944 159.438139 
L 932.917303 161.164028 
L 933.669663 161.149041 
L 934.422022 162.100956 
L 935.174382 164.614877 
L 935.926742 164.67115 
L 936.679101 165.133372 
L 937.431461 166.20524 
L 938.18382 166.474734 
L 938.93618 167.889515 
L 939.688539 168.144507 
L 940.440899 168.63656 
L 941.193258 169.887772 
L 941.945618 171.931791 
L 942.697978 171.244178 
L 943.450337 170.379267 
L 945.707416 191.095472 
L 947.964494 208.857042 
L 950.221573 224.085358 
L 952.478652 237.141743 
L 954.73573 248.335962 
L 956.992809 257.933594 
L 959.249888 266.162367 
L 961.506966 273.217513 
L 963.764045 279.26642 
L 966.021124 284.4526 
L 968.278202 288.899101 
L 970.535281 292.711419 
L 972.79236 295.980004 
L 975.049438 298.782407 
L 977.306517 301.18512 
L 979.563596 303.245144 
L 981.820674 305.011358 
L 984.077753 306.525664 
L 986.334831 307.823994 
L 989.34427 309.27173 
L 992.353708 310.450919 
L 995.363146 311.411376 
L 999.124944 312.365429 
L 1002.886742 313.103656 
L 1007.400899 313.772577 
L 1012.667416 314.332518 
L 1014.924494 314.517394 
L 1015.676854 314.442918 
L 1022.44809 314.881384 
L 1031.476404 315.224907 
L 1044.266517 315.4599 
L 1065.332584 315.5886 
L 1076.617978 315.553032 
L 1077.370337 315.426525 
L 1086.398652 315.485797 
L 1087.151011 315.335169 
L 1090.160449 315.389628 
L 1090.912809 315.12534 
L 1093.922247 315.218722 
L 1093.922247 315.218722 
" clip-path="url(#p7d5ecf823e)" style="fill: none; stroke: #0000ff; stroke-width: 5; stroke-linecap: square"/>
   </g>
   <g id="patch_11">
    <path d="M 793.730787 336.640156 
L 793.730787 31.720156 
" style="fill: none; stroke: #000000; stroke-width: 5; stroke-linejoin: miter; stroke-linecap: square"/>
   </g>
   <g id="patch_12">
    <path d="M 793.730787 336.640156 
L 1094.674607 336.640156 
" style="fill: none; stroke: #000000; stroke-width: 5; stroke-linejoin: miter; stroke-linecap: square"/>
   </g>
   <g id="patch_13">
    <path d="M 868.966742 330.541756 
L 944.202697 330.541756 
L 944.202697 319.869556 
L 868.966742 319.869556 
z
" style="fill: #8c5a2b; stroke: #8c5a2b; stroke-linejoin: miter"/>
   </g>
   <g id="text_29">
    <!-- Novel | Naive -->
    <g transform="translate(880.90004 21.720156) scale(0.19 -0.19)">
     <use xlink:href="#DejaVuSans-4e"/>
     <use xlink:href="#DejaVuSans-6f" transform="translate(74.804688 0)"/>
     <use xlink:href="#DejaVuSans-76" transform="translate(135.986328 0)"/>
     <use xlink:href="#DejaVuSans-65" transform="translate(195.166016 0)"/>
     <use xlink:href="#DejaVuSans-6c" transform="translate(256.689453 0)"/>
     <use xlink:href="#DejaVuSans-20" transform="translate(284.472656 0)"/>
     <use xlink:href="#DejaVuSans-7c" transform="translate(316.259766 0)"/>
     <use xlink:href="#DejaVuSans-20" transform="translate(349.951172 0)"/>
     <use xlink:href="#DejaVuSans-4e" transform="translate(381.738281 0)"/>
     <use xlink:href="#DejaVuSans-61" transform="translate(456.542969 0)"/>
     <use xlink:href="#DejaVuSans-69" transform="translate(517.822266 0)"/>
     <use xlink:href="#DejaVuSans-76" transform="translate(545.605469 0)"/>
     <use xlink:href="#DejaVuSans-65" transform="translate(604.785156 0)"/>
    </g>
   </g>
  </g>
  <g id="axes_4">
   <g id="patch_14">
    <path d="M 1139.81618 336.640156 
L 1440.76 336.640156 
L 1440.76 31.720156 
L 1139.81618 31.720156 
z
" style="fill: #ffffff"/>
   </g>
   <g id="matplotlib.axis_7">
    <g id="xtick_16">
     <g id="line2d_35">
      <g>
       <use xlink:href="#mdf534c0f2d" x="1139.81618" y="336.640156" style="stroke: #000000; stroke-width: 1.6"/>
      </g>
     </g>
     <g id="text_30">
      <!-- -1 -->
      <g transform="translate(1123.86368 369.455156) scale(0.32 -0.32)">
       <use xlink:href="#DejaVuSans-2d"/>
       <use xlink:href="#DejaVuSans-31" transform="translate(36.083984 0)"/>
      </g>
     </g>
    </g>
    <g id="xtick_17">
     <g id="line2d_36">
      <g>
       <use xlink:href="#mdf534c0f2d" x="1215.052135" y="336.640156" style="stroke: #000000; stroke-width: 1.6"/>
      </g>
     </g>
     <g id="text_31">
      <!-- 0 -->
      <g transform="translate(1204.872135 369.455156) scale(0.32 -0.32)">
       <use xlink:href="#DejaVuSans-30"/>
      </g>
     </g>
    </g>
    <g id="xtick_18">
     <g id="line2d_37">
      <g>
       <use xlink:href="#mdf534c0f2d" x="1290.28809" y="336.640156" style="stroke: #000000; stroke-width: 1.6"/>
      </g>
     </g>
     <g id="text_32">
      <!-- 1 -->
      <g transform="translate(1280.10809 369.455156) scale(0.32 -0.32)">
       <use xlink:href="#DejaVuSans-31"/>
      </g>
     </g>
    </g>
    <g id="xtick_19">
     <g id="line2d_38">
      <g>
       <use xlink:href="#mdf534c0f2d" x="1365.524045" y="336.640156" style="stroke: #000000; stroke-width: 1.6"/>
      </g>
     </g>
     <g id="text_33">
      <!-- 2 -->
      <g transform="translate(1355.344045 369.455156) scale(0.32 -0.32)">
       <use xlink:href="#DejaVuSans-32"/>
      </g>
     </g>
    </g>
    <g id="xtick_20">
     <g id="line2d_39">
      <g>
       <use xlink:href="#mdf534c0f2d" x="1440.76" y="336.640156" style="stroke: #000000; stroke-width: 1.6"/>
      </g>
     </g>
     <g id="text_34">
      <!-- 3 -->
      <g transform="translate(1430.58 369.455156) scale(0.32 -0.32)">
       <use xlink:href="#DejaVuSans-33"/>
      </g>
     </g>
    </g>
    <g id="text_35">
     <!-- Time (s) -->
     <g transform="translate(1225.23559 404.425156) scale(0.32 -0.32)">
      <use xlink:href="#DejaVuSans-54"/>
      <use xlink:href="#DejaVuSans-69" transform="translate(57.958984 0)"/>
      <use xlink:href="#DejaVuSans-6d" transform="translate(85.742188 0)"/>
      <use xlink:href="#DejaVuSans-65" transform="translate(183.154297 0)"/>
      <use xlink:href="#DejaVuSans-20" transform="translate(244.677734 0)"/>
      <use xlink:href="#DejaVuSans-28" transform="translate(276.464844 0)"/>
      <use xlink:href="#DejaVuSans-73" transform="translate(315.478516 0)"/>
      <use xlink:href="#DejaVuSans-29" transform="translate(367.578125 0)"/>
     </g>
    </g>
   </g>
   <g id="matplotlib.axis_8">
    <g id="ytick_10">
     <g id="line2d_40">
      <g>
       <use xlink:href="#m0259a373d4" x="1139.81618" y="315.628759" style="stroke: #000000; stroke-width: 1.6"/>
      </g>
     </g>
    </g>
    <g id="ytick_11">
     <g id="line2d_41">
      <g>
       <use xlink:href="#m0259a373d4" x="1139.81618" y="219.659464" style="stroke: #000000; stroke-width: 1.6"/>
      </g>
     </g>
    </g>
    <g id="ytick_12">
     <g id="line2d_42">
      <g>
       <use xlink:href="#m0259a373d4" x="1139.81618" y="123.690168" style="stroke: #000000; stroke-width: 1.6"/>
      </g>
     </g>
    </g>
   </g>
   <g id="line2d_43">
    <path d="M 1140.568539 314.152027 
L 1141.320899 312.616106 
L 1142.073258 312.766739 
L 1142.825618 312.331889 
L 1146.587416 313.077704 
L 1151.101573 313.753499 
L 1153.358652 314.020958 
L 1154.111011 312.508308 
L 1157.120449 313.087132 
L 1157.872809 312.565641 
L 1160.129888 313.002518 
L 1160.882247 312.735297 
L 1162.386966 313.01741 
L 1163.139326 312.77005 
L 1167.653483 313.527346 
L 1172.92 314.161264 
L 1174.424719 314.304345 
L 1175.177079 313.857674 
L 1178.186517 314.186199 
L 1178.938876 313.513343 
L 1181.948315 313.90574 
L 1183.453034 313.991906 
L 1186.462472 314.295532 
L 1187.214831 314.015585 
L 1189.47191 314.245664 
L 1190.22427 314.034523 
L 1190.976629 313.093786 
L 1192.481348 313.340946 
L 1193.233708 312.773203 
L 1195.490787 313.180477 
L 1196.243146 312.789187 
L 1196.995506 312.931166 
L 1197.747865 312.418278 
L 1200.757303 313.013802 
L 1201.509663 311.382167 
L 1203.014382 311.79621 
L 1203.766742 311.673995 
L 1206.02382 312.238044 
L 1206.77618 312.146875 
L 1210.537978 312.934544 
L 1211.290337 313.069255 
L 1212.042697 312.851842 
L 1214.299775 313.2479 
L 1215.052135 303.600448 
L 1216.556854 282.126485 
L 1218.813933 251.151109 
L 1220.318652 232.430266 
L 1221.823371 216.748766 
L 1223.32809 203.679875 
L 1224.080449 198.588425 
L 1224.832809 194.29363 
L 1225.585169 188.776911 
L 1226.337528 186.144468 
L 1227.089888 182.312924 
L 1227.842247 176.161662 
L 1228.594607 171.899986 
L 1229.346966 169.75522 
L 1230.099326 167.154681 
L 1230.851685 162.946347 
L 1233.861124 149.833682 
L 1234.613483 147.581833 
L 1235.365843 144.392012 
L 1236.118202 142.808914 
L 1236.870562 143.135524 
L 1237.622921 142.809457 
L 1238.375281 140.697454 
L 1239.12764 140.830892 
L 1239.88 141.126942 
L 1240.63236 141.56614 
L 1241.384719 139.634294 
L 1242.137079 139.022489 
L 1242.889438 140.111718 
L 1243.641798 138.611019 
L 1244.394157 137.615887 
L 1245.146517 135.45193 
L 1245.898876 133.633173 
L 1246.651236 134.865722 
L 1247.403596 133.466743 
L 1248.155955 134.403257 
L 1248.908315 134.741479 
L 1249.660674 136.146893 
L 1250.413034 137.127167 
L 1251.165393 138.660856 
L 1251.917753 137.837903 
L 1253.422472 138.108856 
L 1254.174831 138.391706 
L 1254.927191 139.436704 
L 1255.679551 141.13545 
L 1257.18427 143.004574 
L 1257.936629 143.022678 
L 1259.441348 141.328093 
L 1260.193708 143.079637 
L 1260.946067 143.417116 
L 1261.698427 144.609752 
L 1262.450787 144.077028 
L 1263.203146 144.915498 
L 1263.955506 146.340003 
L 1264.707865 145.697723 
L 1265.460225 144.589932 
L 1266.212584 144.548689 
L 1266.964944 146.513054 
L 1267.717303 147.568662 
L 1268.469663 146.76696 
L 1269.222022 147.067357 
L 1269.974382 147.590943 
L 1270.726742 147.448238 
L 1271.479101 146.667557 
L 1272.231461 148.048603 
L 1272.98382 148.342093 
L 1273.73618 150.88154 
L 1274.488539 152.876865 
L 1275.240899 155.192552 
L 1276.745618 158.526723 
L 1277.497978 161.276259 
L 1278.250337 160.798106 
L 1279.002697 162.382706 
L 1279.755056 161.132967 
L 1280.507416 162.395219 
L 1281.259775 164.76509 
L 1282.012135 164.780777 
L 1282.764494 165.187256 
L 1283.516854 166.275027 
L 1284.269213 166.052882 
L 1285.021573 168.167231 
L 1285.773933 168.346874 
L 1286.526292 168.923944 
L 1287.278652 169.778273 
L 1288.031011 171.794491 
L 1288.783371 170.836856 
L 1289.53573 170.330145 
L 1291.792809 191.053357 
L 1294.049888 208.820926 
L 1296.306966 224.054397 
L 1298.564045 237.115187 
L 1300.821124 248.313181 
L 1303.078202 257.914074 
L 1305.335281 266.145632 
L 1307.59236 273.203163 
L 1309.849438 279.254118 
L 1312.106517 284.44205 
L 1314.363596 288.890056 
L 1316.620674 292.703664 
L 1318.877753 295.973356 
L 1321.134831 298.776708 
L 1323.39191 301.180232 
L 1325.648989 303.240954 
L 1327.906067 305.007765 
L 1330.163146 306.522585 
L 1332.420225 307.821353 
L 1335.429663 309.269578 
L 1338.439101 310.449167 
L 1341.448539 311.409949 
L 1345.210337 312.364325 
L 1348.972135 313.102802 
L 1353.486292 313.771949 
L 1358.752809 314.332079 
L 1365.524045 314.811528 
L 1373.8 315.163918 
L 1385.085393 315.413402 
L 1401.637303 315.543539 
L 1414.427416 315.593127 
L 1415.179775 315.251825 
L 1417.436854 315.305586 
L 1418.189213 315.060562 
L 1422.703371 315.211082 
L 1423.45573 314.950099 
L 1429.474607 315.178522 
L 1430.226966 315.08386 
L 1432.484045 315.161576 
L 1433.236404 314.266542 
L 1436.245843 314.519225 
L 1436.998202 313.858131 
L 1437.750562 313.946663 
L 1438.502921 313.883164 
L 1440.00764 314.053359 
L 1440.00764 314.053359 
" clip-path="url(#p0230a826bc)" style="fill: none; stroke: #000000; stroke-width: 5; stroke-linecap: square"/>
   </g>
   <g id="line2d_44">
    <path d="M 1140.568539 314.238775 
L 1142.825618 314.437022 
L 1144.330337 314.219797 
L 1145.835056 314.357171 
L 1146.587416 314.204918 
L 1148.092135 314.255568 
L 1148.844494 314.324228 
L 1149.596854 314.236377 
L 1154.111011 314.591628 
L 1155.61573 314.606228 
L 1157.120449 314.705925 
L 1157.872809 314.588224 
L 1160.129888 314.723725 
L 1160.882247 314.558608 
L 1163.139326 314.668696 
L 1166.148764 314.626735 
L 1172.92 314.997234 
L 1173.67236 314.898842 
L 1179.691236 315.029801 
L 1180.443596 314.945985 
L 1181.195955 314.494148 
L 1184.205393 314.635932 
L 1186.462472 314.747549 
L 1187.214831 314.240444 
L 1187.967191 314.30986 
L 1188.719551 314.222603 
L 1189.47191 314.292911 
L 1190.22427 314.065807 
L 1194.738427 314.437476 
L 1195.490787 314.270904 
L 1196.243146 314.310889 
L 1196.995506 314.16987 
L 1197.747865 314.242814 
L 1198.500225 313.724569 
L 1199.252584 313.602068 
L 1202.262022 313.903253 
L 1203.766742 314.07149 
L 1205.271461 313.829469 
L 1206.77618 314.0049 
L 1207.528539 313.895379 
L 1209.033258 313.99639 
L 1209.785618 313.906442 
L 1214.299775 314.321739 
L 1220.318652 314.743598 
L 1221.823371 314.768217 
L 1226.337528 314.996182 
L 1227.842247 314.87657 
L 1230.099326 314.958895 
L 1230.851685 314.844261 
L 1233.108764 314.853173 
L 1233.861124 314.557296 
L 1238.375281 314.841136 
L 1239.88 314.516304 
L 1243.641798 314.767963 
L 1245.146517 314.758139 
L 1248.155955 314.919634 
L 1249.660674 314.896042 
L 1257.936629 315.21199 
L 1258.688989 314.99494 
L 1260.946067 315.031904 
L 1261.698427 314.837506 
L 1263.203146 314.914654 
L 1263.955506 314.677905 
L 1266.212584 314.81352 
L 1267.717303 314.799222 
L 1272.231461 314.938085 
L 1276.745618 315.105781 
L 1278.250337 314.922646 
L 1281.259775 315.053625 
L 1282.012135 314.963705 
L 1283.516854 315.028548 
L 1284.269213 314.920121 
L 1285.021573 314.955553 
L 1285.773933 314.773175 
L 1288.783371 314.844288 
L 1289.53573 314.719512 
L 1291.792809 314.800395 
L 1297.811685 315.059194 
L 1298.564045 315.052722 
L 1299.316404 314.507783 
L 1301.573483 314.636414 
L 1302.325843 314.601331 
L 1303.078202 314.210329 
L 1307.59236 314.586083 
L 1308.344719 314.408557 
L 1309.097079 314.469567 
L 1309.849438 314.284586 
L 1311.354157 314.267767 
L 1316.620674 314.673739 
L 1317.373034 314.559719 
L 1318.125393 314.613171 
L 1318.877753 314.443514 
L 1319.630112 314.502776 
L 1320.382472 314.447968 
L 1321.134831 314.124753 
L 1322.639551 314.183984 
L 1324.896629 314.365643 
L 1326.401348 314.079218 
L 1328.658427 314.300221 
L 1329.410787 313.855317 
L 1330.163146 313.599628 
L 1335.429663 314.211741 
L 1336.934382 314.349901 
L 1338.439101 314.127326 
L 1339.94382 314.273716 
L 1340.69618 314.21286 
L 1344.457978 314.533163 
L 1345.210337 314.081793 
L 1348.972135 314.359001 
L 1350.476854 314.399013 
L 1352.733933 314.196933 
L 1356.49573 314.52084 
L 1358.752809 314.443914 
L 1359.505169 314.503157 
L 1361.009888 313.993728 
L 1362.514607 313.898962 
L 1363.266966 313.699824 
L 1364.019326 313.665215 
L 1368.533483 314.163321 
L 1376.809438 314.433043 
L 1377.561798 314.264061 
L 1379.066517 314.397119 
L 1379.818876 314.313354 
L 1381.323596 314.441606 
L 1382.075955 314.185312 
L 1382.828315 313.757209 
L 1385.837753 314.10437 
L 1386.590112 313.981098 
L 1388.847191 314.171128 
L 1394.113708 314.610841 
L 1396.370787 314.592602 
L 1399.380225 314.730713 
L 1400.132584 314.37808 
L 1401.637303 314.410373 
L 1403.894382 314.361004 
L 1404.646742 314.113944 
L 1405.399101 314.189685 
L 1406.151461 313.84263 
L 1406.90382 313.931936 
L 1408.408539 313.852187 
L 1412.922697 314.298034 
L 1413.675056 313.897254 
L 1415.932135 314.098571 
L 1416.684494 313.793606 
L 1418.189213 313.871455 
L 1422.703371 314.292139 
L 1423.45573 314.35897 
L 1424.20809 314.225954 
L 1424.960449 314.29138 
L 1425.712809 314.156192 
L 1429.474607 314.424991 
L 1432.484045 314.563963 
L 1433.236404 314.419709 
L 1436.998202 314.693219 
L 1437.750562 314.520438 
L 1439.255281 314.542689 
L 1440.00764 314.241368 
L 1440.00764 314.241368 
" clip-path="url(#p0230a826bc)" style="fill: none; stroke: #ff0000; stroke-width: 5; stroke-linecap: square"/>
   </g>
   <g id="line2d_45">
    <path d="M 1140.568539 313.983571 
L 1141.320899 312.729544 
L 1142.073258 312.874504 
L 1142.825618 312.383535 
L 1146.587416 313.117667 
L 1151.101573 313.782876 
L 1152.606292 313.894792 
L 1153.358652 313.98149 
L 1154.111011 312.174937 
L 1156.36809 312.667539 
L 1157.120449 312.486842 
L 1157.872809 311.021954 
L 1160.129888 311.678999 
L 1160.882247 311.372446 
L 1163.139326 311.913665 
L 1166.148764 312.602792 
L 1166.901124 312.346908 
L 1169.158202 312.738476 
L 1173.67236 313.504136 
L 1174.424719 313.610367 
L 1175.177079 313.250032 
L 1179.691236 313.880176 
L 1181.195955 313.992445 
L 1181.948315 314.074261 
L 1182.700674 313.302597 
L 1186.462472 313.828819 
L 1187.214831 313.483091 
L 1189.47191 313.789117 
L 1190.22427 313.779826 
L 1190.976629 313.273151 
L 1192.481348 313.502822 
L 1193.233708 313.192793 
L 1195.490787 313.540223 
L 1196.243146 313.2265 
L 1196.995506 313.346613 
L 1197.747865 313.166076 
L 1198.500225 313.28921 
L 1199.252584 313.203656 
L 1200.757303 313.440104 
L 1201.509663 311.854897 
L 1203.014382 312.222849 
L 1203.766742 312.268789 
L 1206.02382 312.748005 
L 1206.77618 312.349869 
L 1210.537978 313.091617 
L 1211.290337 313.218474 
L 1212.042697 313.068796 
L 1214.299775 313.433911 
L 1215.052135 303.837785 
L 1215.804494 291.833069 
L 1217.309213 270.673591 
L 1219.566292 239.633483 
L 1221.071011 223.623943 
L 1221.823371 216.129853 
L 1223.32809 203.078566 
L 1224.080449 198.080148 
L 1224.832809 193.911748 
L 1225.585169 188.441234 
L 1226.337528 186.276347 
L 1227.089888 182.459562 
L 1227.842247 176.884997 
L 1228.594607 172.256141 
L 1229.346966 170.355657 
L 1230.099326 167.393901 
L 1230.851685 163.335393 
L 1232.356404 157.462233 
L 1233.108764 153.12425 
L 1233.861124 150.01354 
L 1234.613483 148.086928 
L 1235.365843 144.427392 
L 1236.118202 142.843435 
L 1236.870562 143.158576 
L 1237.622921 142.862255 
L 1238.375281 141.397365 
L 1239.12764 141.056898 
L 1239.88 141.597587 
L 1240.63236 141.469726 
L 1241.384719 140.251691 
L 1242.137079 139.721456 
L 1242.889438 140.914178 
L 1243.641798 138.753495 
L 1244.394157 138.025955 
L 1245.146517 135.73418 
L 1245.898876 134.039165 
L 1246.651236 135.541866 
L 1247.403596 134.485657 
L 1248.155955 135.154507 
L 1248.908315 135.518813 
L 1249.660674 136.663843 
L 1250.413034 137.369904 
L 1251.165393 139.20146 
L 1251.917753 138.254435 
L 1252.670112 138.397054 
L 1253.422472 138.298924 
L 1254.174831 138.997563 
L 1254.927191 139.937265 
L 1255.679551 141.331425 
L 1257.18427 143.224287 
L 1257.936629 143.346271 
L 1258.688989 142.750711 
L 1259.441348 141.951153 
L 1260.193708 143.622872 
L 1260.946067 144.088941 
L 1261.698427 144.872482 
L 1262.450787 144.610882 
L 1263.203146 144.568495 
L 1263.955506 146.003197 
L 1264.707865 145.264488 
L 1265.460225 144.181666 
L 1266.212584 144.14856 
L 1266.964944 145.852255 
L 1267.717303 147.91505 
L 1268.469663 147.695465 
L 1269.222022 148.252386 
L 1269.974382 149.533614 
L 1270.726742 149.529681 
L 1271.479101 148.374083 
L 1272.231461 149.344747 
L 1272.98382 149.255411 
L 1273.73618 151.582538 
L 1275.240899 154.866385 
L 1276.745618 158.321925 
L 1277.497978 160.958801 
L 1278.250337 161.168504 
L 1279.002697 162.765288 
L 1279.755056 161.94837 
L 1280.507416 163.15073 
L 1281.259775 165.962846 
L 1282.012135 166.341967 
L 1282.764494 166.35807 
L 1283.516854 167.530757 
L 1284.269213 167.10962 
L 1285.021573 168.834222 
L 1286.526292 170.14521 
L 1287.278652 171.142487 
L 1288.031011 172.781643 
L 1288.783371 171.814998 
L 1289.53573 171.19261 
L 1291.792809 191.792823 
L 1294.049888 209.454926 
L 1296.306966 224.597975 
L 1298.564045 237.581241 
L 1300.821124 248.712767 
L 1303.078202 258.256657 
L 1305.335281 266.439355 
L 1307.59236 273.454995 
L 1309.849438 279.470031 
L 1312.106517 284.627174 
L 1314.363596 289.048775 
L 1316.620674 292.839747 
L 1318.877753 296.090029 
L 1321.134831 298.876741 
L 1323.39191 301.265998 
L 1325.648989 303.314488 
L 1327.906067 305.07081 
L 1330.163146 306.576638 
L 1332.420225 307.867697 
L 1335.429663 309.307326 
L 1338.439101 310.479912 
L 1341.448539 311.434991 
L 1345.210337 312.383701 
L 1348.972135 313.117796 
L 1353.486292 313.78297 
L 1358.752809 314.339776 
L 1361.009888 314.523617 
L 1361.762247 314.358206 
L 1368.533483 314.827994 
L 1376.809438 315.173284 
L 1388.847191 315.428292 
L 1392.608989 315.473642 
L 1394.113708 315.389724 
L 1411.417978 315.55529 
L 1414.427416 315.568918 
L 1415.179775 315.018301 
L 1417.436854 315.105368 
L 1418.189213 314.784321 
L 1422.703371 315.00802 
L 1423.45573 314.772378 
L 1431.731685 315.14165 
L 1432.484045 315.166005 
L 1433.236404 314.755961 
L 1436.245843 314.917859 
L 1436.998202 313.898442 
L 1437.750562 313.984958 
L 1438.502921 313.915529 
L 1440.00764 314.082569 
L 1440.00764 314.082569 
" clip-path="url(#p0230a826bc)" style="fill: none; stroke: #0000ff; stroke-width: 5; stroke-linecap: square"/>
   </g>
   <g id="patch_15">
    <path d="M 1139.81618 336.640156 
L 1139.81618 31.720156 
" style="fill: none; stroke: #000000; stroke-width: 5; stroke-linejoin: miter; stroke-linecap: square"/>
   </g>
   <g id="patch_16">
    <path d="M 1139.81618 336.640156 
L 1440.76 336.640156 
" style="fill: none; stroke: #000000; stroke-width: 5; stroke-linejoin: miter; stroke-linecap: square"/>
   </g>
   <g id="patch_17">
    <path d="M 1215.052135 330.541756 
L 1290.28809 330.541756 
L 1290.28809 319.869556 
L 1215.052135 319.869556 
z
" style="fill: #8c5a2b; stroke: #8c5a2b; stroke-linejoin: miter"/>
   </g>
   <g id="text_36">
    <!-- Novel | Expert -->
    <g transform="translate(1222.890043 21.720156) scale(0.19 -0.19)">
     <use xlink:href="#DejaVuSans-4e"/>
     <use xlink:href="#DejaVuSans-6f" transform="translate(74.804688 0)"/>
     <use xlink:href="#DejaVuSans-76" transform="translate(135.986328 0)"/>
     <use xlink:href="#DejaVuSans-65" transform="translate(195.166016 0)"/>
     <use xlink:href="#DejaVuSans-6c" transform="translate(256.689453 0)"/>
     <use xlink:href="#DejaVuSans-20" transform="translate(284.472656 0)"/>
     <use xlink:href="#DejaVuSans-7c" transform="translate(316.259766 0)"/>
     <use xlink:href="#DejaVuSans-20" transform="translate(349.951172 0)"/>
     <use xlink:href="#DejaVuSans-45" transform="translate(381.738281 0)"/>
     <use xlink:href="#DejaVuSans-78" transform="translate(444.921875 0)"/>
     <use xlink:href="#DejaVuSans-70" transform="translate(504.101562 0)"/>
     <use xlink:href="#DejaVuSans-65" transform="translate(567.578125 0)"/>
     <use xlink:href="#DejaVuSans-72" transform="translate(629.101562 0)"/>
     <use xlink:href="#DejaVuSans-74" transform="translate(670.214844 0)"/>
    </g>
   </g>
  </g>
 </g>
 <defs>
  <clipPath id="p992ba949d5">
   <rect x="101.56" y="31.720156" width="300.94382" height="304.92"/>
  </clipPath>
  <clipPath id="pb572623d9e">
   <rect x="447.645393" y="31.720156" width="300.94382" height="304.92"/>
  </clipPath>
  <clipPath id="p7d5ecf823e">
   <rect x="793.730787" y="31.720156" width="300.94382" height="304.92"/>
  </clipPath>
  <clipPath id="p0230a826bc">
   <rect x="1139.81618" y="31.720156" width="300.94382" height="304.92"/>
  </clipPath>
 </defs>
</svg>
