<?xml version="1.0" encoding="utf-8" standalone="no"?>
<!DOCTYPE svg PUBLIC "-//W3C//DTD SVG 1.1//EN"
  "http://www.w3.org/Graphics/SVG/1.1/DTD/svg11.dtd">
<svg xmlns:xlink="http://www.w3.org/1999/xlink" width="872.39952pt" height="404.39952pt" viewBox="0 0 872.39952 404.39952" xmlns="http://www.w3.org/2000/svg" version="1.1">
 <metadata>
  <rdf:RDF xmlns:dc="http://purl.org/dc/elements/1.1/" xmlns:cc="http://creativecommons.org/ns#" xmlns:rdf="http://www.w3.org/1999/02/22-rdf-syntax-ns#">
   <cc:Work>
    <dc:type rdf:resource="http://purl.org/dc/dcmitype/StillImage"/>
    <dc:date>2026-03-25T17:17:50.367895</dc:date>
    <dc:format>image/svg+xml</dc:format>
    <dc:creator>
     <cc:Agent>
      <dc:title>Matplotlib v3.10.7, https://matplotlib.org/</dc:title>
     </cc:Agent>
    </dc:creator>
   </cc:Work>
  </rdf:RDF>
 </metadata>
 <defs>
  <style type="text/css">*{stroke-linejoin: round; stroke-linecap: butt}</style>
 </defs>
 <g id="figure_1">
  <g id="patch_1">
   <path d="M 0 404.39952 
L 872.39952 404.39952 
L 872.39952 0 
L 0 0 
z
" style="fill: #ffffff"/>
  </g>
  <g id="axes_1">
   <g id="patch_2">
    <path d="M 101.56 322.75952 
L 460.90351 322.75952 
L 460.90351 31.720156 
L 101.56 31.720156 
z
" style="fill: #ffffff"/>
   </g>
   <g id="matplotlib.axis_1">
    <g id="xtick_1">
     <g id="line2d_1">
      <defs>
       <path id="m0f24f4523b" d="M 0 0 
L 0 5 
" style="stroke: #000000; stroke-width: 1.6"/>
      </defs>
      <g>
       <use xlink:href="#m0f24f4523b" x="101.56" y="322.75952" style="stroke: #000000; stroke-width: 1.6"/>
      </g>
     </g>
     <g id="text_1">
      <!-- -1 -->
      <g transform="translate(85.6075 355.57452) scale(0.32 -0.32)">
       <defs>
        <path id="DejaVuSans-2d" d="M 313 2009 
L 1997 2009 
L 1997 1497 
L 313 1497 
L 313 2009 
z
" transform="scale(0.015625)"/>
        <path id="DejaVuSans-31" d="M 794 531 
L 1825 531 
L 1825 4091 
L 703 3866 
L 703 4441 
L 1819 4666 
L 2450 4666 
L 2450 531 
L 3481 531 
L 3481 0 
L 794 0 
L 794 531 
z
" transform="scale(0.015625)"/>
       </defs>
       <use xlink:href="#DejaVuSans-2d"/>
       <use xlink:href="#DejaVuSans-31" transform="translate(36.083984 0)"/>
      </g>
     </g>
    </g>
    <g id="xtick_2">
     <g id="line2d_2">
      <g>
       <use xlink:href="#m0f24f4523b" x="191.395877" y="322.75952" style="stroke: #000000; stroke-width: 1.6"/>
      </g>
     </g>
     <g id="text_2">
      <!-- 0 -->
      <g transform="translate(181.215877 355.57452) scale(0.32 -0.32)">
       <defs>
        <path id="DejaVuSans-30" d="M 2034 4250 
Q 1547 4250 1301 3770 
Q 1056 3291 1056 2328 
Q 1056 1369 1301 889 
Q 1547 409 2034 409 
Q 2525 409 2770 889 
Q 3016 1369 3016 2328 
Q 3016 3291 2770 3770 
Q 2525 4250 2034 4250 
z
M 2034 4750 
Q 2819 4750 3233 4129 
Q 3647 3509 3647 2328 
Q 3647 1150 3233 529 
Q 2819 -91 2034 -91 
Q 1250 -91 836 529 
Q 422 1150 422 2328 
Q 422 3509 836 4129 
Q 1250 4750 2034 4750 
z
" transform="scale(0.015625)"/>
       </defs>
       <use xlink:href="#DejaVuSans-30"/>
      </g>
     </g>
    </g>
    <g id="xtick_3">
     <g id="line2d_3">
      <g>
       <use xlink:href="#m0f24f4523b" x="281.231755" y="322.75952" style="stroke: #000000; stroke-width: 1.6"/>
      </g>
     </g>
     <g id="text_3">
      <!-- 1 -->
      <g transform="translate(271.051755 355.57452) scale(0.32 -0.32)">
       <use xlink:href="#DejaVuSans-31"/>
      </g>
     </g>
    </g>
    <g id="xtick_4">
     <g id="line2d_4">
      <g>
       <use xlink:href="#m0f24f4523b" x="371.067632" y="322.75952" style="stroke: #000000; stroke-width: 1.6"/>
      </g>
     </g>
     <g id="text_4">
      <!-- 2 -->
      <g transform="translate(360.887632 355.57452) scale(0.32 -0.32)">
       <defs>
        <path id="DejaVuSans-32" d="M 1228 531 
L 3431 531 
L 3431 0 
L 469 0 
L 469 531 
Q 828 903 1448 1529 
Q 2069 2156 2228 2338 
Q 2531 2678 2651 2914 
Q 2772 3150 2772 3378 
Q 2772 3750 2511 3984 
Q 2250 4219 1831 4219 
Q 1534 4219 1204 4116 
Q 875 4013 500 3803 
L 500 4441 
Q 881 4594 1212 4672 
Q 1544 4750 1819 4750 
Q 2544 4750 2975 4387 
Q 3406 4025 3406 3419 
Q 3406 3131 3298 2873 
Q 3191 2616 2906 2266 
Q 2828 2175 2409 1742 
Q 1991 1309 1228 531 
z
" transform="scale(0.015625)"/>
       </defs>
       <use xlink:href="#DejaVuSans-32"/>
      </g>
     </g>
    </g>
    <g id="xtick_5">
     <g id="line2d_5">
      <g>
       <use xlink:href="#m0f24f4523b" x="460.90351" y="322.75952" style="stroke: #000000; stroke-width: 1.6"/>
      </g>
     </g>
     <g id="text_5">
      <!-- 3 -->
      <g transform="translate(450.72351 355.57452) scale(0.32 -0.32)">
       <defs>
        <path id="DejaVuSans-33" d="M 2597 2516 
Q 3050 2419 3304 2112 
Q 3559 1806 3559 1356 
Q 3559 666 3084 287 
Q 2609 -91 1734 -91 
Q 1441 -91 1130 -33 
Q 819 25 488 141 
L 488 750 
Q 750 597 1062 519 
Q 1375 441 1716 441 
Q 2309 441 2620 675 
Q 2931 909 2931 1356 
Q 2931 1769 2642 2001 
Q 2353 2234 1838 2234 
L 1294 2234 
L 1294 2753 
L 1863 2753 
Q 2328 2753 2575 2939 
Q 2822 3125 2822 3475 
Q 2822 3834 2567 4026 
Q 2313 4219 1838 4219 
Q 1578 4219 1281 4162 
Q 984 4106 628 3988 
L 628 4550 
Q 988 4650 1302 4700 
Q 1616 4750 1894 4750 
Q 2613 4750 3031 4423 
Q 3450 4097 3450 3541 
Q 3450 3153 3228 2886 
Q 3006 2619 2597 2516 
z
" transform="scale(0.015625)"/>
       </defs>
       <use xlink:href="#DejaVuSans-33"/>
      </g>
     </g>
    </g>
    <g id="text_6">
     <!-- Time (s) -->
     <g transform="translate(216.179255 390.54452) scale(0.32 -0.32)">
      <defs>
       <path id="DejaVuSans-54" d="M -19 4666 
L 3928 4666 
L 3928 4134 
L 2272 4134 
L 2272 0 
L 1638 0 
L 1638 4134 
L -19 4134 
L -19 4666 
z
" transform="scale(0.015625)"/>
       <path id="DejaVuSans-69" d="M 603 3500 
L 1178 3500 
L 1178 0 
L 603 0 
L 603 3500 
z
M 603 4863 
L 1178 4863 
L 1178 4134 
L 603 4134 
L 603 4863 
z
" transform="scale(0.015625)"/>
       <path id="DejaVuSans-6d" d="M 3328 2828 
Q 3544 3216 3844 3400 
Q 4144 3584 4550 3584 
Q 5097 3584 5394 3201 
Q 5691 2819 5691 2113 
L 5691 0 
L 5113 0 
L 5113 2094 
Q 5113 2597 4934 2840 
Q 4756 3084 4391 3084 
Q 3944 3084 3684 2787 
Q 3425 2491 3425 1978 
L 3425 0 
L 2847 0 
L 2847 2094 
Q 2847 2600 2669 2842 
Q 2491 3084 2119 3084 
Q 1678 3084 1418 2786 
Q 1159 2488 1159 1978 
L 1159 0 
L 581 0 
L 581 3500 
L 1159 3500 
L 1159 2956 
Q 1356 3278 1631 3431 
Q 1906 3584 2284 3584 
Q 2666 3584 2933 3390 
Q 3200 3197 3328 2828 
z
" transform="scale(0.015625)"/>
       <path id="DejaVuSans-65" d="M 3597 1894 
L 3597 1613 
L 953 1613 
Q 991 1019 1311 708 
Q 1631 397 2203 397 
Q 2534 397 2845 478 
Q 3156 559 3463 722 
L 3463 178 
Q 3153 47 2828 -22 
Q 2503 -91 2169 -91 
Q 1331 -91 842 396 
Q 353 884 353 1716 
Q 353 2575 817 3079 
Q 1281 3584 2069 3584 
Q 2775 3584 3186 3129 
Q 3597 2675 3597 1894 
z
M 3022 2063 
Q 3016 2534 2758 2815 
Q 2500 3097 2075 3097 
Q 1594 3097 1305 2825 
Q 1016 2553 972 2059 
L 3022 2063 
z
" transform="scale(0.015625)"/>
       <path id="DejaVuSans-20" transform="scale(0.015625)"/>
       <path id="DejaVuSans-28" d="M 1984 4856 
Q 1566 4138 1362 3434 
Q 1159 2731 1159 2009 
Q 1159 1288 1364 580 
Q 1569 -128 1984 -844 
L 1484 -844 
Q 1016 -109 783 600 
Q 550 1309 550 2009 
Q 550 2706 781 3412 
Q 1013 4119 1484 4856 
L 1984 4856 
z
" transform="scale(0.015625)"/>
       <path id="DejaVuSans-73" d="M 2834 3397 
L 2834 2853 
Q 2591 2978 2328 3040 
Q 2066 3103 1784 3103 
Q 1356 3103 1142 2972 
Q 928 2841 928 2578 
Q 928 2378 1081 2264 
Q 1234 2150 1697 2047 
L 1894 2003 
Q 2506 1872 2764 1633 
Q 3022 1394 3022 966 
Q 3022 478 2636 193 
Q 2250 -91 1575 -91 
Q 1294 -91 989 -36 
Q 684 19 347 128 
L 347 722 
Q 666 556 975 473 
Q 1284 391 1588 391 
Q 1994 391 2212 530 
Q 2431 669 2431 922 
Q 2431 1156 2273 1281 
Q 2116 1406 1581 1522 
L 1381 1569 
Q 847 1681 609 1914 
Q 372 2147 372 2553 
Q 372 3047 722 3315 
Q 1072 3584 1716 3584 
Q 2034 3584 2315 3537 
Q 2597 3491 2834 3397 
z
" transform="scale(0.015625)"/>
       <path id="DejaVuSans-29" d="M 513 4856 
L 1013 4856 
Q 1481 4119 1714 3412 
Q 1947 2706 1947 2009 
Q 1947 1309 1714 600 
Q 1481 -109 1013 -844 
L 513 -844 
Q 928 -128 1133 580 
Q 1338 1288 1338 2009 
Q 1338 2731 1133 3434 
Q 928 4138 513 4856 
z
" transform="scale(0.015625)"/>
      </defs>
      <use xlink:href="#DejaVuSans-54"/>
      <use xlink:href="#DejaVuSans-69" transform="translate(57.958984 0)"/>
      <use xlink:href="#DejaVuSans-6d" transform="translate(85.742188 0)"/>
      <use xlink:href="#DejaVuSans-65" transform="translate(183.154297 0)"/>
      <use xlink:href="#DejaVuSans-20" transform="translate(244.677734 0)"/>
      <use xlink:href="#DejaVuSans-28" transform="translate(276.464844 0)"/>
      <use xlink:href="#DejaVuSans-73" transform="translate(315.478516 0)"/>
      <use xlink:href="#DejaVuSans-29" transform="translate(367.578125 0)"/>
     </g>
    </g>
   </g>
   <g id="matplotlib.axis_2">
    <g id="ytick_1">
     <g id="line2d_6">
      <defs>
       <path id="m504e9bbb7f" d="M 0 0 
L -5 0 
" style="stroke: #000000; stroke-width: 1.6"/>
      </defs>
      <g>
       <use xlink:href="#m504e9bbb7f" x="101.56" y="302.703379" style="stroke: #000000; stroke-width: 1.6"/>
      </g>
     </g>
     <g id="text_7">
      <!-- 0.0 -->
      <g transform="translate(42.17 314.860879) scale(0.32 -0.32)">
       <defs>
        <path id="DejaVuSans-2e" d="M 684 794 
L 1344 794 
L 1344 0 
L 684 0 
L 684 794 
z
" transform="scale(0.015625)"/>
       </defs>
       <use xlink:href="#DejaVuSans-30"/>
       <use xlink:href="#DejaVuSans-2e" transform="translate(63.623047 0)"/>
       <use xlink:href="#DejaVuSans-30" transform="translate(95.410156 0)"/>
      </g>
     </g>
    </g>
    <g id="ytick_2">
     <g id="line2d_7">
      <g>
       <use xlink:href="#m504e9bbb7f" x="101.56" y="229.285477" style="stroke: #000000; stroke-width: 1.6"/>
      </g>
     </g>
     <g id="text_8">
      <!-- 0.2 -->
      <g transform="translate(42.17 241.442977) scale(0.32 -0.32)">
       <use xlink:href="#DejaVuSans-30"/>
       <use xlink:href="#DejaVuSans-2e" transform="translate(63.623047 0)"/>
       <use xlink:href="#DejaVuSans-32" transform="translate(95.410156 0)"/>
      </g>
     </g>
    </g>
    <g id="ytick_3">
     <g id="line2d_8">
      <g>
       <use xlink:href="#m504e9bbb7f" x="101.56" y="155.867574" style="stroke: #000000; stroke-width: 1.6"/>
      </g>
     </g>
     <g id="text_9">
      <!-- 0.4 -->
      <g transform="translate(42.17 168.025074) scale(0.32 -0.32)">
       <defs>
        <path id="DejaVuSans-34" d="M 2419 4116 
L 825 1625 
L 2419 1625 
L 2419 4116 
z
M 2253 4666 
L 3047 4666 
L 3047 1625 
L 3713 1625 
L 3713 1100 
L 3047 1100 
L 3047 0 
L 2419 0 
L 2419 1100 
L 313 1100 
L 313 1709 
L 2253 4666 
z
" transform="scale(0.015625)"/>
       </defs>
       <use xlink:href="#DejaVuSans-30"/>
       <use xlink:href="#DejaVuSans-2e" transform="translate(63.623047 0)"/>
       <use xlink:href="#DejaVuSans-34" transform="translate(95.410156 0)"/>
      </g>
     </g>
    </g>
    <g id="ytick_4">
     <g id="line2d_9">
      <g>
       <use xlink:href="#m504e9bbb7f" x="101.56" y="82.449672" style="stroke: #000000; stroke-width: 1.6"/>
      </g>
     </g>
     <g id="text_10">
      <!-- 0.6 -->
      <g transform="translate(42.17 94.607172) scale(0.32 -0.32)">
       <defs>
        <path id="DejaVuSans-36" d="M 2113 2584 
Q 1688 2584 1439 2293 
Q 1191 2003 1191 1497 
Q 1191 994 1439 701 
Q 1688 409 2113 409 
Q 2538 409 2786 701 
Q 3034 994 3034 1497 
Q 3034 2003 2786 2293 
Q 2538 2584 2113 2584 
z
M 3366 4563 
L 3366 3988 
Q 3128 4100 2886 4159 
Q 2644 4219 2406 4219 
Q 1781 4219 1451 3797 
Q 1122 3375 1075 2522 
Q 1259 2794 1537 2939 
Q 1816 3084 2150 3084 
Q 2853 3084 3261 2657 
Q 3669 2231 3669 1497 
Q 3669 778 3244 343 
Q 2819 -91 2113 -91 
Q 1303 -91 875 529 
Q 447 1150 447 2328 
Q 447 3434 972 4092 
Q 1497 4750 2381 4750 
Q 2619 4750 2861 4703 
Q 3103 4656 3366 4563 
z
" transform="scale(0.015625)"/>
       </defs>
       <use xlink:href="#DejaVuSans-30"/>
       <use xlink:href="#DejaVuSans-2e" transform="translate(63.623047 0)"/>
       <use xlink:href="#DejaVuSans-36" transform="translate(95.410156 0)"/>
      </g>
     </g>
    </g>
    <g id="text_11">
     <!-- Neural Activity -->
     <g transform="translate(31.515 294.944838) rotate(-90) scale(0.32 -0.32)">
      <defs>
       <path id="DejaVuSans-4e" d="M 628 4666 
L 1478 4666 
L 3547 763 
L 3547 4666 
L 4159 4666 
L 4159 0 
L 3309 0 
L 1241 3903 
L 1241 0 
L 628 0 
L 628 4666 
z
" transform="scale(0.015625)"/>
       <path id="DejaVuSans-75" d="M 544 1381 
L 544 3500 
L 1119 3500 
L 1119 1403 
Q 1119 906 1312 657 
Q 1506 409 1894 409 
Q 2359 409 2629 706 
Q 2900 1003 2900 1516 
L 2900 3500 
L 3475 3500 
L 3475 0 
L 2900 0 
L 2900 538 
Q 2691 219 2414 64 
Q 2138 -91 1772 -91 
Q 1169 -91 856 284 
Q 544 659 544 1381 
z
M 1991 3584 
L 1991 3584 
z
" transform="scale(0.015625)"/>
       <path id="DejaVuSans-72" d="M 2631 2963 
Q 2534 3019 2420 3045 
Q 2306 3072 2169 3072 
Q 1681 3072 1420 2755 
Q 1159 2438 1159 1844 
L 1159 0 
L 581 0 
L 581 3500 
L 1159 3500 
L 1159 2956 
Q 1341 3275 1631 3429 
Q 1922 3584 2338 3584 
Q 2397 3584 2469 3576 
Q 2541 3569 2628 3553 
L 2631 2963 
z
" transform="scale(0.015625)"/>
       <path id="DejaVuSans-61" d="M 2194 1759 
Q 1497 1759 1228 1600 
Q 959 1441 959 1056 
Q 959 750 1161 570 
Q 1363 391 1709 391 
Q 2188 391 2477 730 
Q 2766 1069 2766 1631 
L 2766 1759 
L 2194 1759 
z
M 3341 1997 
L 3341 0 
L 2766 0 
L 2766 531 
Q 2569 213 2275 61 
Q 1981 -91 1556 -91 
Q 1019 -91 701 211 
Q 384 513 384 1019 
Q 384 1609 779 1909 
Q 1175 2209 1959 2209 
L 2766 2209 
L 2766 2266 
Q 2766 2663 2505 2880 
Q 2244 3097 1772 3097 
Q 1472 3097 1187 3025 
Q 903 2953 641 2809 
L 641 3341 
Q 956 3463 1253 3523 
Q 1550 3584 1831 3584 
Q 2591 3584 2966 3190 
Q 3341 2797 3341 1997 
z
" transform="scale(0.015625)"/>
       <path id="DejaVuSans-6c" d="M 603 4863 
L 1178 4863 
L 1178 0 
L 603 0 
L 603 4863 
z
" transform="scale(0.015625)"/>
       <path id="DejaVuSans-41" d="M 2188 4044 
L 1331 1722 
L 3047 1722 
L 2188 4044 
z
M 1831 4666 
L 2547 4666 
L 4325 0 
L 3669 0 
L 3244 1197 
L 1141 1197 
L 716 0 
L 50 0 
L 1831 4666 
z
" transform="scale(0.015625)"/>
       <path id="DejaVuSans-63" d="M 3122 3366 
L 3122 2828 
Q 2878 2963 2633 3030 
Q 2388 3097 2138 3097 
Q 1578 3097 1268 2742 
Q 959 2388 959 1747 
Q 959 1106 1268 751 
Q 1578 397 2138 397 
Q 2388 397 2633 464 
Q 2878 531 3122 666 
L 3122 134 
Q 2881 22 2623 -34 
Q 2366 -91 2075 -91 
Q 1284 -91 818 406 
Q 353 903 353 1747 
Q 353 2603 823 3093 
Q 1294 3584 2113 3584 
Q 2378 3584 2631 3529 
Q 2884 3475 3122 3366 
z
" transform="scale(0.015625)"/>
       <path id="DejaVuSans-74" d="M 1172 4494 
L 1172 3500 
L 2356 3500 
L 2356 3053 
L 1172 3053 
L 1172 1153 
Q 1172 725 1289 603 
Q 1406 481 1766 481 
L 2356 481 
L 2356 0 
L 1766 0 
Q 1100 0 847 248 
Q 594 497 594 1153 
L 594 3053 
L 172 3053 
L 172 3500 
L 594 3500 
L 594 4494 
L 1172 4494 
z
" transform="scale(0.015625)"/>
       <path id="DejaVuSans-76" d="M 191 3500 
L 800 3500 
L 1894 563 
L 2988 3500 
L 3597 3500 
L 2284 0 
L 1503 0 
L 191 3500 
z
" transform="scale(0.015625)"/>
       <path id="DejaVuSans-79" d="M 2059 -325 
Q 1816 -950 1584 -1140 
Q 1353 -1331 966 -1331 
L 506 -1331 
L 506 -850 
L 844 -850 
Q 1081 -850 1212 -737 
Q 1344 -625 1503 -206 
L 1606 56 
L 191 3500 
L 800 3500 
L 1894 763 
L 2988 3500 
L 3597 3500 
L 2059 -325 
z
" transform="scale(0.015625)"/>
      </defs>
      <use xlink:href="#DejaVuSans-4e"/>
      <use xlink:href="#DejaVuSans-65" transform="translate(74.804688 0)"/>
      <use xlink:href="#DejaVuSans-75" transform="translate(136.328125 0)"/>
      <use xlink:href="#DejaVuSans-72" transform="translate(199.707031 0)"/>
      <use xlink:href="#DejaVuSans-61" transform="translate(240.820312 0)"/>
      <use xlink:href="#DejaVuSans-6c" transform="translate(302.099609 0)"/>
      <use xlink:href="#DejaVuSans-20" transform="translate(329.882812 0)"/>
      <use xlink:href="#DejaVuSans-41" transform="translate(361.669922 0)"/>
      <use xlink:href="#DejaVuSans-63" transform="translate(428.328125 0)"/>
      <use xlink:href="#DejaVuSans-74" transform="translate(483.308594 0)"/>
      <use xlink:href="#DejaVuSans-69" transform="translate(522.517578 0)"/>
      <use xlink:href="#DejaVuSans-76" transform="translate(550.300781 0)"/>
      <use xlink:href="#DejaVuSans-69" transform="translate(609.480469 0)"/>
      <use xlink:href="#DejaVuSans-74" transform="translate(637.263672 0)"/>
      <use xlink:href="#DejaVuSans-79" transform="translate(676.472656 0)"/>
     </g>
    </g>
   </g>
   <g id="line2d_10">
    <path d="M 102.458359 302.167959 
L 103.356718 302.086988 
L 115.035382 302.38696 
L 118.628817 302.445654 
L 119.527176 301.978678 
L 130.307481 302.31178 
L 141.986145 302.502355 
L 142.884504 302.466936 
L 143.782862 302.187944 
L 144.681221 301.679854 
L 147.376298 301.825835 
L 148.274656 301.336656 
L 156.359885 301.842003 
L 157.258244 301.885072 
L 159.95332 301.408376 
L 165.343473 301.751433 
L 166.241832 301.09704 
L 168.038549 301.253658 
L 168.936908 300.231079 
L 174.327061 300.886011 
L 175.22542 300.51324 
L 179.717213 301.008692 
L 180.615572 300.610495 
L 181.513931 300.371805 
L 190.497519 301.294449 
L 192.294236 273.262734 
L 194.989313 238.658593 
L 196.78603 218.569984 
L 197.684389 210.579878 
L 198.582748 203.924861 
L 199.481106 198.13361 
L 201.277824 183.930884 
L 202.176183 179.38766 
L 203.9729 168.154071 
L 204.871259 164.484919 
L 205.769618 159.875026 
L 206.667977 153.234613 
L 207.566335 148.800813 
L 208.464694 146.08565 
L 209.363053 143.789012 
L 210.261412 140.988889 
L 212.058129 137.504624 
L 212.956488 133.748509 
L 213.854847 130.742482 
L 214.753206 128.19339 
L 216.549923 124.10743 
L 219.245 119.762868 
L 220.143358 118.932644 
L 221.041717 117.338931 
L 221.940076 116.597453 
L 222.838435 115.638136 
L 223.736793 115.309101 
L 224.635152 114.256333 
L 225.533511 112.252825 
L 226.43187 112.144715 
L 227.330228 112.225234 
L 228.228587 110.999394 
L 229.126946 111.462577 
L 230.025305 110.856844 
L 231.822022 113.61242 
L 232.720381 115.216745 
L 233.61874 116.303361 
L 234.517099 118.157405 
L 235.415457 118.059972 
L 236.313816 118.850046 
L 239.907251 122.723571 
L 240.80561 122.612386 
L 241.703969 122.217043 
L 242.602328 122.311795 
L 243.500686 122.771237 
L 244.399045 123.815515 
L 245.297404 125.440659 
L 246.195763 125.959603 
L 247.094122 126.274011 
L 248.890839 127.825244 
L 249.789198 129.257142 
L 250.687557 129.791523 
L 251.585915 129.005201 
L 252.484274 128.930699 
L 253.382633 129.494444 
L 254.280992 130.607699 
L 255.179351 129.637748 
L 256.077709 131.420178 
L 258.772786 131.703702 
L 259.671144 133.564409 
L 260.569503 132.666488 
L 261.467862 132.722939 
L 262.366221 132.947036 
L 263.26458 133.880808 
L 264.162938 133.799359 
L 265.061297 135.525382 
L 265.959656 136.51543 
L 267.756373 139.169579 
L 268.654732 139.564387 
L 269.553091 139.441562 
L 270.45145 139.927533 
L 271.349808 139.27106 
L 272.248167 139.179261 
L 273.146526 140.206725 
L 274.943244 143.093221 
L 275.841602 145.159919 
L 276.739961 145.721989 
L 277.63832 145.879286 
L 278.536679 146.712913 
L 279.435037 147.006589 
L 280.333396 146.391415 
L 282.130114 161.631834 
L 283.926831 175.386311 
L 285.723549 187.799737 
L 287.520266 199.002846 
L 289.316984 209.11365 
L 291.113702 218.238651 
L 292.910419 226.473963 
L 294.707137 233.906336 
L 296.503854 240.614047 
L 298.300572 246.667757 
L 300.097289 252.131231 
L 301.894007 257.062014 
L 303.690724 261.512047 
L 305.487442 265.528204 
L 307.284159 269.152783 
L 309.080877 272.423966 
L 310.877595 275.37621 
L 313.572671 279.273748 
L 316.267747 282.615401 
L 318.962824 285.480448 
L 321.6579 287.93687 
L 324.352976 290.042945 
L 327.048053 291.848639 
L 329.743129 293.396796 
L 332.438205 294.724148 
L 336.03164 296.204246 
L 339.625075 297.409795 
L 343.21851 298.391722 
L 347.710304 299.367101 
L 352.202098 300.121831 
L 357.592251 300.805704 
L 363.880762 301.378162 
L 371.965991 301.868162 
L 381.847938 302.228308 
L 395.323319 302.483283 
L 416.88393 302.639114 
L 439.342899 302.685553 
L 440.241258 302.388182 
L 442.037976 302.418914 
L 442.936334 302.058987 
L 454.614999 302.372586 
L 459.106792 302.447418 
L 460.005151 301.951518 
L 460.005151 301.951518 
" clip-path="url(#pa272377546)" style="fill: none; stroke: #000000; stroke-width: 5; stroke-linecap: square"/>
   </g>
   <g id="line2d_11">
    <path d="M 102.458359 301.027824 
L 103.356718 300.154511 
L 104.255076 300.047751 
L 105.153435 300.053431 
L 106.051794 299.761413 
L 106.950153 299.908511 
L 107.848511 299.9144 
L 108.74687 300.053849 
L 109.645229 299.989855 
L 111.441947 299.00616 
L 112.340305 299.059071 
L 115.035382 299.507105 
L 122.222252 300.324835 
L 123.120611 300.443762 
L 124.018969 300.366593 
L 126.714046 300.699878 
L 127.612404 300.502147 
L 131.20584 300.910462 
L 132.104198 300.746317 
L 133.002557 300.766862 
L 133.900916 300.495571 
L 134.799275 300.595701 
L 135.697633 300.151993 
L 140.189427 300.729165 
L 141.087786 300.564502 
L 141.986145 300.671446 
L 142.884504 300.404875 
L 149.173015 301.098248 
L 153.664809 301.46136 
L 154.563168 301.403881 
L 157.258244 300.773944 
L 159.95332 301.034169 
L 161.750038 300.749985 
L 164.445114 301.028588 
L 165.343473 300.698146 
L 166.241832 300.537789 
L 170.733626 301.027687 
L 171.631984 300.832119 
L 172.530343 300.757961 
L 173.428702 300.855232 
L 174.327061 300.754176 
L 176.123778 300.881761 
L 177.022137 300.972842 
L 178.818855 301.037341 
L 180.615572 301.19978 
L 181.513931 300.719637 
L 182.41229 300.047976 
L 189.59916 300.935379 
L 190.497519 301.023779 
L 193.192595 293.781318 
L 194.989313 289.725919 
L 198.582748 284.055289 
L 199.481106 282.471552 
L 201.277824 280.397651 
L 202.176183 279.671963 
L 203.074542 279.233351 
L 204.871259 277.805975 
L 205.769618 276.304744 
L 206.667977 275.045427 
L 207.566335 273.998783 
L 208.464694 273.474404 
L 209.363053 272.593243 
L 210.261412 272.268184 
L 211.159771 271.653812 
L 212.956488 270.031362 
L 213.854847 269.62824 
L 214.753206 269.436293 
L 215.651564 268.958817 
L 216.549923 268.134671 
L 218.346641 268.056949 
L 219.245 267.67323 
L 220.143358 267.470348 
L 221.041717 267.75943 
L 221.940076 267.590137 
L 222.838435 267.741707 
L 223.736793 268.191092 
L 224.635152 268.330302 
L 225.533511 268.328163 
L 226.43187 268.506304 
L 228.228587 268.050218 
L 229.126946 268.065953 
L 230.025305 267.283931 
L 230.923664 267.046334 
L 232.720381 266.991543 
L 233.61874 267.756156 
L 234.517099 267.944138 
L 239.008893 268.157598 
L 239.907251 268.420145 
L 240.80561 269.112345 
L 241.703969 269.574027 
L 242.602328 269.676547 
L 243.500686 269.387186 
L 244.399045 270.211934 
L 245.297404 270.028671 
L 246.195763 270.009627 
L 247.99248 270.688508 
L 248.890839 270.05956 
L 250.687557 269.928793 
L 251.585915 269.710718 
L 252.484274 269.612987 
L 253.382633 269.140147 
L 254.280992 269.021696 
L 255.179351 268.718479 
L 256.976068 269.324171 
L 257.874427 269.798969 
L 258.772786 269.534924 
L 259.671144 269.611259 
L 260.569503 269.508966 
L 261.467862 269.826998 
L 262.366221 269.679481 
L 263.26458 269.267547 
L 264.162938 268.992368 
L 265.959656 268.828452 
L 267.756373 268.764048 
L 268.654732 269.358367 
L 269.553091 269.614511 
L 270.45145 269.609161 
L 271.349808 269.861044 
L 272.248167 269.855902 
L 274.044885 269.459908 
L 274.943244 269.25257 
L 275.841602 269.232014 
L 278.536679 270.273642 
L 280.333396 271.604647 
L 282.130114 274.636772 
L 283.926831 277.373266 
L 286.621908 280.985972 
L 289.316984 284.083418 
L 292.01206 286.739091 
L 294.707137 289.015998 
L 297.402213 290.968162 
L 300.097289 292.641897 
L 302.792366 294.076916 
L 305.487442 295.307266 
L 309.080877 296.679199 
L 312.674312 297.796647 
L 316.267747 298.706816 
L 320.759541 299.610915 
L 326.149694 300.430134 
L 332.438205 301.115887 
L 339.625075 301.650205 
L 348.608663 302.072805 
L 360.287327 302.379679 
L 375.559426 302.564811 
L 376.457785 302.460028 
L 377.356144 302.472195 
L 378.254503 301.910313 
L 379.152861 301.827966 
L 384.543014 302.05987 
L 386.339732 302.041839 
L 398.018396 302.363783 
L 398.916755 302.380763 
L 399.815113 302.273643 
L 407.900342 302.365942 
L 408.798701 302.260505 
L 423.172441 302.508458 
L 440.241258 302.589683 
L 441.139617 302.084158 
L 442.037976 302.115119 
L 442.936334 301.535565 
L 451.021563 301.967365 
L 451.919922 301.849675 
L 453.71664 301.881554 
L 454.614999 301.60429 
L 455.513357 301.620352 
L 456.411716 301.500605 
L 460.005151 301.723712 
L 460.005151 301.723712 
" clip-path="url(#pa272377546)" style="fill: none; stroke: #ff0000; stroke-width: 5; stroke-linecap: square"/>
   </g>
   <g id="line2d_12">
    <path d="M 102.458359 301.52175 
L 103.356718 301.471506 
L 111.441947 301.926992 
L 117.730458 302.161199 
L 118.628817 301.974724 
L 119.527176 301.259336 
L 123.120611 301.445239 
L 131.20584 301.910437 
L 141.087786 302.252354 
L 141.986145 302.274905 
L 143.782862 301.630422 
L 144.681221 301.516943 
L 150.071374 301.813094 
L 150.969733 301.658868 
L 157.258244 301.973958 
L 158.156603 301.442973 
L 159.054962 301.268533 
L 160.851679 300.481089 
L 165.343473 300.983751 
L 166.241832 300.539239 
L 168.038549 300.750243 
L 168.936908 300.042034 
L 173.428702 300.644081 
L 175.22542 300.594373 
L 179.717213 301.07147 
L 180.615572 300.615315 
L 181.513931 300.502203 
L 187.802442 301.166216 
L 190.497519 301.385454 
L 191.395877 288.891369 
L 194.090954 258.150321 
L 196.78603 234.023111 
L 197.684389 227.793572 
L 198.582748 222.503105 
L 199.481106 218.688137 
L 201.277824 208.249939 
L 202.176183 205.111579 
L 203.9729 195.962215 
L 205.769618 189.273108 
L 206.667977 183.415998 
L 207.566335 179.634917 
L 208.464694 177.725855 
L 209.363053 176.455729 
L 210.261412 173.656765 
L 211.159771 172.415806 
L 212.058129 171.931257 
L 212.956488 168.317046 
L 213.854847 165.970062 
L 216.549923 162.459662 
L 217.448282 160.959399 
L 218.346641 159.856231 
L 219.245 158.534434 
L 220.143358 157.575741 
L 221.041717 156.014859 
L 221.940076 155.202664 
L 222.838435 154.048274 
L 223.736793 153.451731 
L 224.635152 152.394773 
L 225.533511 150.04838 
L 226.43187 149.795094 
L 227.330228 150.267631 
L 228.228587 148.990285 
L 229.126946 149.396261 
L 230.025305 148.806512 
L 230.923664 149.888884 
L 231.822022 150.535456 
L 232.720381 151.471088 
L 234.517099 154.868575 
L 235.415457 154.700907 
L 236.313816 155.381393 
L 237.212175 156.887837 
L 238.110534 157.85351 
L 239.008893 158.989707 
L 239.907251 159.830707 
L 240.80561 159.714589 
L 242.602328 159.11763 
L 243.500686 159.553506 
L 244.399045 159.465778 
L 245.297404 161.204961 
L 246.195763 161.69789 
L 247.094122 161.673275 
L 248.890839 162.272619 
L 249.789198 163.776732 
L 250.687557 163.968042 
L 251.585915 163.296297 
L 252.484274 163.192431 
L 253.382633 164.052664 
L 254.280992 165.679503 
L 255.179351 164.798408 
L 256.077709 166.326163 
L 256.976068 165.72927 
L 257.874427 165.582344 
L 258.772786 165.856591 
L 259.671144 168.176236 
L 260.569503 167.73757 
L 261.467862 168.121776 
L 263.26458 170.131738 
L 264.162938 169.539418 
L 265.061297 171.395727 
L 266.858015 173.371939 
L 267.756373 174.524842 
L 268.654732 175.137149 
L 269.553091 175.115357 
L 270.45145 176.155117 
L 271.349808 175.759292 
L 272.248167 175.789881 
L 273.146526 176.254956 
L 274.044885 177.221789 
L 275.841602 178.637189 
L 276.739961 178.211225 
L 277.63832 178.630527 
L 278.536679 180.207556 
L 279.435037 179.836587 
L 280.333396 178.944935 
L 282.130114 191.011395 
L 283.926831 201.901365 
L 285.723549 211.729564 
L 287.520266 220.599513 
L 289.316984 228.604639 
L 291.113702 235.82927 
L 292.910419 242.349494 
L 294.707137 248.233999 
L 296.503854 253.544765 
L 298.300572 258.337733 
L 300.097289 262.663383 
L 301.894007 266.567285 
L 303.690724 270.090554 
L 305.487442 273.270305 
L 307.284159 276.14003 
L 309.979236 279.92863 
L 312.674312 283.17688 
L 315.369388 285.961848 
L 318.064465 288.349608 
L 320.759541 290.396815 
L 323.454617 292.152039 
L 326.149694 293.656925 
L 328.84477 294.947176 
L 332.438205 296.385903 
L 336.03164 297.557756 
L 339.625075 298.512237 
L 344.116869 299.460354 
L 348.608663 300.193988 
L 353.998816 300.858747 
L 360.287327 301.415204 
L 368.372556 301.891508 
L 378.254503 302.241587 
L 381.847938 302.300496 
L 397.120037 302.534926 
L 415.087212 302.642991 
L 419.579006 302.471472 
L 439.342899 302.62835 
L 440.241258 302.375174 
L 454.614999 302.532242 
L 457.310075 302.55665 
L 458.208434 302.455239 
L 459.106792 302.467646 
L 460.005151 301.882587 
L 460.005151 301.882587 
" clip-path="url(#pa272377546)" style="fill: none; stroke: #0000ff; stroke-width: 5; stroke-linecap: square"/>
   </g>
   <g id="patch_3">
    <path d="M 101.56 322.75952 
L 101.56 31.720156 
" style="fill: none; stroke: #000000; stroke-width: 5; stroke-linejoin: miter; stroke-linecap: square"/>
   </g>
   <g id="patch_4">
    <path d="M 101.56 322.75952 
L 460.90351 322.75952 
" style="fill: none; stroke: #000000; stroke-width: 5; stroke-linejoin: miter; stroke-linecap: square"/>
   </g>
   <g id="patch_5">
    <path d="M 191.395877 316.938733 
L 281.231755 316.938733 
L 281.231755 306.752355 
L 191.395877 306.752355 
z
" style="fill: #8c5a2b; stroke: #8c5a2b; stroke-linejoin: miter"/>
   </g>
   <g id="text_12">
    <!-- Novel | Naive -->
    <g transform="translate(217.929099 21.720156) scale(0.19 -0.19)">
     <defs>
      <path id="DejaVuSans-6f" d="M 1959 3097 
Q 1497 3097 1228 2736 
Q 959 2375 959 1747 
Q 959 1119 1226 758 
Q 1494 397 1959 397 
Q 2419 397 2687 759 
Q 2956 1122 2956 1747 
Q 2956 2369 2687 2733 
Q 2419 3097 1959 3097 
z
M 1959 3584 
Q 2709 3584 3137 3096 
Q 3566 2609 3566 1747 
Q 3566 888 3137 398 
Q 2709 -91 1959 -91 
Q 1206 -91 779 398 
Q 353 888 353 1747 
Q 353 2609 779 3096 
Q 1206 3584 1959 3584 
z
" transform="scale(0.015625)"/>
      <path id="DejaVuSans-7c" d="M 1344 4891 
L 1344 -1509 
L 813 -1509 
L 813 4891 
L 1344 4891 
z
" transform="scale(0.015625)"/>
     </defs>
     <use xlink:href="#DejaVuSans-4e"/>
     <use xlink:href="#DejaVuSans-6f" transform="translate(74.804688 0)"/>
     <use xlink:href="#DejaVuSans-76" transform="translate(135.986328 0)"/>
     <use xlink:href="#DejaVuSans-65" transform="translate(195.166016 0)"/>
     <use xlink:href="#DejaVuSans-6c" transform="translate(256.689453 0)"/>
     <use xlink:href="#DejaVuSans-20" transform="translate(284.472656 0)"/>
     <use xlink:href="#DejaVuSans-7c" transform="translate(316.259766 0)"/>
     <use xlink:href="#DejaVuSans-20" transform="translate(349.951172 0)"/>
     <use xlink:href="#DejaVuSans-4e" transform="translate(381.738281 0)"/>
     <use xlink:href="#DejaVuSans-61" transform="translate(456.542969 0)"/>
     <use xlink:href="#DejaVuSans-69" transform="translate(517.822266 0)"/>
     <use xlink:href="#DejaVuSans-76" transform="translate(545.605469 0)"/>
     <use xlink:href="#DejaVuSans-65" transform="translate(604.785156 0)"/>
    </g>
   </g>
   <g id="legend_1">
    <g id="line2d_13">
     <path d="M 110.56 46.867812 
L 125.56 46.867812 
L 140.56 46.867812 
" style="fill: none; stroke: #000000; stroke-width: 5; stroke-linecap: square"/>
    </g>
    <g id="text_13">
     <!-- Nonoccluded (NO) -->
     <g transform="translate(152.56 52.117812) scale(0.15 -0.15)">
      <defs>
       <path id="DejaVuSans-6e" d="M 3513 2113 
L 3513 0 
L 2938 0 
L 2938 2094 
Q 2938 2591 2744 2837 
Q 2550 3084 2163 3084 
Q 1697 3084 1428 2787 
Q 1159 2491 1159 1978 
L 1159 0 
L 581 0 
L 581 3500 
L 1159 3500 
L 1159 2956 
Q 1366 3272 1645 3428 
Q 1925 3584 2291 3584 
Q 2894 3584 3203 3211 
Q 3513 2838 3513 2113 
z
" transform="scale(0.015625)"/>
       <path id="DejaVuSans-64" d="M 2906 2969 
L 2906 4863 
L 3481 4863 
L 3481 0 
L 2906 0 
L 2906 525 
Q 2725 213 2448 61 
Q 2172 -91 1784 -91 
Q 1150 -91 751 415 
Q 353 922 353 1747 
Q 353 2572 751 3078 
Q 1150 3584 1784 3584 
Q 2172 3584 2448 3432 
Q 2725 3281 2906 2969 
z
M 947 1747 
Q 947 1113 1208 752 
Q 1469 391 1925 391 
Q 2381 391 2643 752 
Q 2906 1113 2906 1747 
Q 2906 2381 2643 2742 
Q 2381 3103 1925 3103 
Q 1469 3103 1208 2742 
Q 947 2381 947 1747 
z
" transform="scale(0.015625)"/>
       <path id="DejaVuSans-4f" d="M 2522 4238 
Q 1834 4238 1429 3725 
Q 1025 3213 1025 2328 
Q 1025 1447 1429 934 
Q 1834 422 2522 422 
Q 3209 422 3611 934 
Q 4013 1447 4013 2328 
Q 4013 3213 3611 3725 
Q 3209 4238 2522 4238 
z
M 2522 4750 
Q 3503 4750 4090 4092 
Q 4678 3434 4678 2328 
Q 4678 1225 4090 567 
Q 3503 -91 2522 -91 
Q 1538 -91 948 565 
Q 359 1222 359 2328 
Q 359 3434 948 4092 
Q 1538 4750 2522 4750 
z
" transform="scale(0.015625)"/>
      </defs>
      <use xlink:href="#DejaVuSans-4e"/>
      <use xlink:href="#DejaVuSans-6f" transform="translate(74.804688 0)"/>
      <use xlink:href="#DejaVuSans-6e" transform="translate(135.986328 0)"/>
      <use xlink:href="#DejaVuSans-6f" transform="translate(199.365234 0)"/>
      <use xlink:href="#DejaVuSans-63" transform="translate(260.546875 0)"/>
      <use xlink:href="#DejaVuSans-63" transform="translate(315.527344 0)"/>
      <use xlink:href="#DejaVuSans-6c" transform="translate(370.507812 0)"/>
      <use xlink:href="#DejaVuSans-75" transform="translate(398.291016 0)"/>
      <use xlink:href="#DejaVuSans-64" transform="translate(461.669922 0)"/>
      <use xlink:href="#DejaVuSans-65" transform="translate(525.146484 0)"/>
      <use xlink:href="#DejaVuSans-64" transform="translate(586.669922 0)"/>
      <use xlink:href="#DejaVuSans-20" transform="translate(650.146484 0)"/>
      <use xlink:href="#DejaVuSans-28" transform="translate(681.933594 0)"/>
      <use xlink:href="#DejaVuSans-4e" transform="translate(720.947266 0)"/>
      <use xlink:href="#DejaVuSans-4f" transform="translate(795.751953 0)"/>
      <use xlink:href="#DejaVuSans-29" transform="translate(874.462891 0)"/>
     </g>
    </g>
    <g id="line2d_14">
     <path d="M 110.56 68.885 
L 125.56 68.885 
L 140.56 68.885 
" style="fill: none; stroke: #ff0000; stroke-width: 5; stroke-linecap: square"/>
    </g>
    <g id="text_14">
     <!-- Occluded (O) -->
     <g transform="translate(152.56 74.135) scale(0.15 -0.15)">
      <use xlink:href="#DejaVuSans-4f"/>
      <use xlink:href="#DejaVuSans-63" transform="translate(78.710938 0)"/>
      <use xlink:href="#DejaVuSans-63" transform="translate(133.691406 0)"/>
      <use xlink:href="#DejaVuSans-6c" transform="translate(188.671875 0)"/>
      <use xlink:href="#DejaVuSans-75" transform="translate(216.455078 0)"/>
      <use xlink:href="#DejaVuSans-64" transform="translate(279.833984 0)"/>
      <use xlink:href="#DejaVuSans-65" transform="translate(343.310547 0)"/>
      <use xlink:href="#DejaVuSans-64" transform="translate(404.833984 0)"/>
      <use xlink:href="#DejaVuSans-20" transform="translate(468.310547 0)"/>
      <use xlink:href="#DejaVuSans-28" transform="translate(500.097656 0)"/>
      <use xlink:href="#DejaVuSans-4f" transform="translate(539.111328 0)"/>
      <use xlink:href="#DejaVuSans-29" transform="translate(617.822266 0)"/>
     </g>
    </g>
    <g id="line2d_15">
     <path d="M 110.56 90.902187 
L 125.56 90.902187 
L 140.56 90.902187 
" style="fill: none; stroke: #0000ff; stroke-width: 5; stroke-linecap: square"/>
    </g>
    <g id="text_15">
     <!-- No feedback -->
     <g transform="translate(152.56 96.152187) scale(0.15 -0.15)">
      <defs>
       <path id="DejaVuSans-66" d="M 2375 4863 
L 2375 4384 
L 1825 4384 
Q 1516 4384 1395 4259 
Q 1275 4134 1275 3809 
L 1275 3500 
L 2222 3500 
L 2222 3053 
L 1275 3053 
L 1275 0 
L 697 0 
L 697 3053 
L 147 3053 
L 147 3500 
L 697 3500 
L 697 3744 
Q 697 4328 969 4595 
Q 1241 4863 1831 4863 
L 2375 4863 
z
" transform="scale(0.015625)"/>
       <path id="DejaVuSans-62" d="M 3116 1747 
Q 3116 2381 2855 2742 
Q 2594 3103 2138 3103 
Q 1681 3103 1420 2742 
Q 1159 2381 1159 1747 
Q 1159 1113 1420 752 
Q 1681 391 2138 391 
Q 2594 391 2855 752 
Q 3116 1113 3116 1747 
z
M 1159 2969 
Q 1341 3281 1617 3432 
Q 1894 3584 2278 3584 
Q 2916 3584 3314 3078 
Q 3713 2572 3713 1747 
Q 3713 922 3314 415 
Q 2916 -91 2278 -91 
Q 1894 -91 1617 61 
Q 1341 213 1159 525 
L 1159 0 
L 581 0 
L 581 4863 
L 1159 4863 
L 1159 2969 
z
" transform="scale(0.015625)"/>
       <path id="DejaVuSans-6b" d="M 581 4863 
L 1159 4863 
L 1159 1991 
L 2875 3500 
L 3609 3500 
L 1753 1863 
L 3688 0 
L 2938 0 
L 1159 1709 
L 1159 0 
L 581 0 
L 581 4863 
z
" transform="scale(0.015625)"/>
      </defs>
      <use xlink:href="#DejaVuSans-4e"/>
      <use xlink:href="#DejaVuSans-6f" transform="translate(74.804688 0)"/>
      <use xlink:href="#DejaVuSans-20" transform="translate(135.986328 0)"/>
      <use xlink:href="#DejaVuSans-66" transform="translate(167.773438 0)"/>
      <use xlink:href="#DejaVuSans-65" transform="translate(202.978516 0)"/>
      <use xlink:href="#DejaVuSans-65" transform="translate(264.501953 0)"/>
      <use xlink:href="#DejaVuSans-64" transform="translate(326.025391 0)"/>
      <use xlink:href="#DejaVuSans-62" transform="translate(389.501953 0)"/>
      <use xlink:href="#DejaVuSans-61" transform="translate(452.978516 0)"/>
      <use xlink:href="#DejaVuSans-63" transform="translate(514.257812 0)"/>
      <use xlink:href="#DejaVuSans-6b" transform="translate(569.238281 0)"/>
     </g>
    </g>
   </g>
  </g>
  <g id="axes_2">
   <g id="patch_6">
    <path d="M 495.67601 322.75952 
L 855.01952 322.75952 
L 855.01952 31.720156 
L 495.67601 31.720156 
z
" style="fill: #ffffff"/>
   </g>
   <g id="matplotlib.axis_3">
    <g id="xtick_6">
     <g id="line2d_16">
      <g>
       <use xlink:href="#m0f24f4523b" x="495.67601" y="322.75952" style="stroke: #000000; stroke-width: 1.6"/>
      </g>
     </g>
     <g id="text_16">
      <!-- -1 -->
      <g transform="translate(479.72351 355.57452) scale(0.32 -0.32)">
       <use xlink:href="#DejaVuSans-2d"/>
       <use xlink:href="#DejaVuSans-31" transform="translate(36.083984 0)"/>
      </g>
     </g>
    </g>
    <g id="xtick_7">
     <g id="line2d_17">
      <g>
       <use xlink:href="#m0f24f4523b" x="585.511887" y="322.75952" style="stroke: #000000; stroke-width: 1.6"/>
      </g>
     </g>
     <g id="text_17">
      <!-- 0 -->
      <g transform="translate(575.331887 355.57452) scale(0.32 -0.32)">
       <use xlink:href="#DejaVuSans-30"/>
      </g>
     </g>
    </g>
    <g id="xtick_8">
     <g id="line2d_18">
      <g>
       <use xlink:href="#m0f24f4523b" x="675.347765" y="322.75952" style="stroke: #000000; stroke-width: 1.6"/>
      </g>
     </g>
     <g id="text_18">
      <!-- 1 -->
      <g transform="translate(665.167765 355.57452) scale(0.32 -0.32)">
       <use xlink:href="#DejaVuSans-31"/>
      </g>
     </g>
    </g>
    <g id="xtick_9">
     <g id="line2d_19">
      <g>
       <use xlink:href="#m0f24f4523b" x="765.183642" y="322.75952" style="stroke: #000000; stroke-width: 1.6"/>
      </g>
     </g>
     <g id="text_19">
      <!-- 2 -->
      <g transform="translate(755.003642 355.57452) scale(0.32 -0.32)">
       <use xlink:href="#DejaVuSans-32"/>
      </g>
     </g>
    </g>
    <g id="xtick_10">
     <g id="line2d_20">
      <g>
       <use xlink:href="#m0f24f4523b" x="855.01952" y="322.75952" style="stroke: #000000; stroke-width: 1.6"/>
      </g>
     </g>
     <g id="text_20">
      <!-- 3 -->
      <g transform="translate(844.83952 355.57452) scale(0.32 -0.32)">
       <use xlink:href="#DejaVuSans-33"/>
      </g>
     </g>
    </g>
    <g id="text_21">
     <!-- Time (s) -->
     <g transform="translate(610.295265 390.54452) scale(0.32 -0.32)">
      <use xlink:href="#DejaVuSans-54"/>
      <use xlink:href="#DejaVuSans-69" transform="translate(57.958984 0)"/>
      <use xlink:href="#DejaVuSans-6d" transform="translate(85.742188 0)"/>
      <use xlink:href="#DejaVuSans-65" transform="translate(183.154297 0)"/>
      <use xlink:href="#DejaVuSans-20" transform="translate(244.677734 0)"/>
      <use xlink:href="#DejaVuSans-28" transform="translate(276.464844 0)"/>
      <use xlink:href="#DejaVuSans-73" transform="translate(315.478516 0)"/>
      <use xlink:href="#DejaVuSans-29" transform="translate(367.578125 0)"/>
     </g>
    </g>
   </g>
   <g id="matplotlib.axis_4">
    <g id="ytick_5">
     <g id="line2d_21">
      <g>
       <use xlink:href="#m504e9bbb7f" x="495.67601" y="302.703379" style="stroke: #000000; stroke-width: 1.6"/>
      </g>
     </g>
    </g>
    <g id="ytick_6">
     <g id="line2d_22">
      <g>
       <use xlink:href="#m504e9bbb7f" x="495.67601" y="229.285477" style="stroke: #000000; stroke-width: 1.6"/>
      </g>
     </g>
    </g>
    <g id="ytick_7">
     <g id="line2d_23">
      <g>
       <use xlink:href="#m504e9bbb7f" x="495.67601" y="155.867574" style="stroke: #000000; stroke-width: 1.6"/>
      </g>
     </g>
    </g>
    <g id="ytick_8">
     <g id="line2d_24">
      <g>
       <use xlink:href="#m504e9bbb7f" x="495.67601" y="82.449672" style="stroke: #000000; stroke-width: 1.6"/>
      </g>
     </g>
    </g>
   </g>
   <g id="line2d_25">
    <path d="M 496.574369 302.093733 
L 508.253033 302.390423 
L 525.32185 302.585284 
L 537.000514 302.642756 
L 537.898872 302.475377 
L 541.492308 302.51767 
L 542.390666 301.763121 
L 551.374254 302.140412 
L 554.06933 301.908744 
L 562.154559 302.202561 
L 563.052918 301.592812 
L 572.036506 302.038442 
L 573.833223 302.103273 
L 574.731582 301.997195 
L 584.613529 302.301701 
L 585.511887 282.709559 
L 588.206964 236.835958 
L 590.003681 213.934513 
L 590.90204 202.605176 
L 591.800399 193.86355 
L 592.698758 186.445973 
L 593.597116 180.259368 
L 594.495475 173.015094 
L 595.393834 162.502285 
L 596.292193 155.746618 
L 598.08891 140.052578 
L 599.885628 124.840845 
L 600.783987 114.957901 
L 601.682345 108.065298 
L 602.580704 102.600905 
L 604.377422 94.319256 
L 606.174139 90.641778 
L 607.072498 88.184014 
L 607.970857 85.096691 
L 608.869216 82.776269 
L 609.767574 81.794394 
L 610.665933 78.002264 
L 611.564292 75.533035 
L 613.36101 68.37452 
L 614.259368 65.807837 
L 615.157727 62.198494 
L 616.954445 56.746398 
L 617.852803 55.443452 
L 619.649521 51.791837 
L 620.54788 52.854232 
L 621.446238 55.394615 
L 622.344597 55.865937 
L 623.242956 55.983018 
L 624.141315 55.243466 
L 625.039674 56.016583 
L 625.938032 57.84658 
L 626.836391 59.292295 
L 627.73475 60.525969 
L 628.633109 61.982405 
L 629.531467 62.453968 
L 630.429826 63.216713 
L 631.328185 66.231263 
L 633.124903 68.258468 
L 634.023261 69.254784 
L 634.92162 68.997013 
L 635.819979 67.555609 
L 636.718338 67.334443 
L 637.616696 68.725523 
L 638.515055 70.945252 
L 640.311773 73.006698 
L 641.210132 73.010352 
L 642.10849 74.358241 
L 643.006849 75.224326 
L 643.905208 76.951399 
L 644.803567 77.872186 
L 645.701925 79.969669 
L 646.600284 82.524668 
L 647.498643 82.867313 
L 648.397002 82.561493 
L 649.295361 80.465979 
L 650.193719 84.140787 
L 651.092078 84.048824 
L 651.990437 84.757788 
L 652.888796 86.903276 
L 653.787154 91.56729 
L 654.685513 91.578405 
L 655.583872 90.635914 
L 656.482231 90.762929 
L 657.380589 90.159034 
L 658.278948 88.592453 
L 659.177307 90.550756 
L 660.075666 89.868268 
L 660.974025 91.046431 
L 661.872383 91.727082 
L 662.770742 93.274058 
L 663.669101 92.90367 
L 664.56746 92.106026 
L 665.465818 92.237898 
L 666.364177 92.071652 
L 667.262536 91.030349 
L 668.160895 92.799629 
L 669.059254 92.541683 
L 669.957612 94.779638 
L 670.855971 95.096792 
L 671.75433 95.27505 
L 672.652689 96.114332 
L 673.551047 97.267115 
L 674.449406 97.836723 
L 676.246124 117.811238 
L 678.042841 135.838225 
L 679.839559 152.107584 
L 681.636276 166.79068 
L 683.432994 180.042174 
L 685.229712 192.001651 
L 687.026429 202.795075 
L 688.823147 212.53613 
L 690.619864 221.327441 
L 692.416582 229.261599 
L 694.213299 236.422176 
L 696.010017 242.884597 
L 697.806734 248.716934 
L 699.603452 253.980614 
L 701.400169 258.731088 
L 703.196887 263.018387 
L 704.993605 266.887675 
L 706.790322 270.379706 
L 708.58704 273.531265 
L 710.383757 276.375546 
L 713.078834 280.130555 
L 715.77391 283.350005 
L 718.468986 286.110281 
L 721.164063 288.476872 
L 723.859139 290.505928 
L 726.554215 292.24559 
L 729.249291 293.737133 
L 731.944368 295.015944 
L 735.537803 296.441915 
L 739.131238 297.603378 
L 742.724673 298.549397 
L 747.216467 299.489107 
L 752.60662 300.340594 
L 757.996772 300.966515 
L 765.183642 301.551108 
L 773.268871 301.977161 
L 784.049177 302.31096 
L 799.321276 302.539301 
L 825.37368 302.666308 
L 833.458909 302.680015 
L 834.357268 302.017589 
L 845.137573 302.332806 
L 853.222802 302.469826 
L 854.121161 302.329103 
L 854.121161 302.329103 
" clip-path="url(#p7ad808dfda)" style="fill: none; stroke: #000000; stroke-width: 5; stroke-linecap: square"/>
   </g>
   <g id="line2d_26">
    <path d="M 496.574369 302.298223 
L 499.269445 302.356008 
L 500.167804 302.144798 
L 503.761239 302.248412 
L 504.659598 301.857858 
L 511.846468 302.142444 
L 512.744827 301.921376 
L 515.439903 301.986298 
L 516.338262 302.022152 
L 517.236621 301.813049 
L 519.931697 301.940033 
L 520.830056 301.666427 
L 528.915285 302.049841 
L 531.610361 302.100406 
L 541.492308 302.360408 
L 542.390666 302.175464 
L 545.984101 302.226844 
L 547.780819 302.189859 
L 551.374254 302.285114 
L 552.272613 301.53192 
L 557.662765 301.7867 
L 558.561124 301.675788 
L 562.154559 301.8664 
L 563.052918 301.469397 
L 565.747994 301.645394 
L 566.646353 301.09397 
L 568.443071 301.19964 
L 569.34143 300.062595 
L 574.731582 300.76216 
L 578.325017 301.043674 
L 581.020094 301.28039 
L 581.918452 301.076192 
L 584.613529 301.308269 
L 587.308605 279.301106 
L 588.206964 274.270981 
L 589.105323 268.092289 
L 590.90204 257.858367 
L 591.800399 254.690114 
L 592.698758 250.614263 
L 593.597116 246.019708 
L 594.495475 242.528743 
L 595.393834 238.122254 
L 596.292193 234.617843 
L 597.190552 231.839015 
L 598.08891 228.630267 
L 598.987269 226.228391 
L 600.783987 219.714331 
L 603.479063 214.308906 
L 605.275781 212.255254 
L 606.174139 210.568675 
L 607.970857 208.468271 
L 609.767574 208.216298 
L 610.665933 205.73416 
L 611.564292 205.809712 
L 612.462651 205.206726 
L 614.259368 202.467199 
L 615.157727 202.582804 
L 616.056086 202.825641 
L 616.954445 202.702762 
L 617.852803 203.289448 
L 618.751162 203.310836 
L 620.54788 203.662134 
L 621.446238 204.457995 
L 622.344597 204.623278 
L 623.242956 204.225419 
L 624.141315 203.34207 
L 625.039674 202.755296 
L 625.938032 203.433715 
L 626.836391 203.598178 
L 627.73475 204.811142 
L 629.531467 206.453112 
L 630.429826 206.283409 
L 631.328185 207.078733 
L 633.124903 206.726757 
L 634.92162 208.461182 
L 635.819979 208.494352 
L 636.718338 208.846088 
L 637.616696 208.93351 
L 638.515055 210.399093 
L 640.311773 210.169897 
L 641.210132 209.730892 
L 642.10849 209.991453 
L 643.006849 210.381085 
L 643.905208 210.274988 
L 644.803567 210.355803 
L 646.600284 212.095933 
L 647.498643 211.361697 
L 648.397002 211.2435 
L 649.295361 210.764033 
L 650.193719 210.434976 
L 651.092078 210.245154 
L 651.990437 211.527659 
L 652.888796 211.780792 
L 653.787154 213.266208 
L 654.685513 213.795535 
L 655.583872 213.098348 
L 656.482231 213.416586 
L 657.380589 213.408703 
L 658.278948 213.839202 
L 659.177307 214.503328 
L 660.075666 213.895342 
L 660.974025 214.26567 
L 661.872383 214.26864 
L 662.770742 215.008116 
L 663.669101 215.455343 
L 664.56746 215.329154 
L 665.465818 216.101778 
L 666.364177 216.330984 
L 667.262536 216.002327 
L 668.160895 216.162982 
L 669.059254 215.226432 
L 669.957612 215.726745 
L 670.855971 215.857534 
L 671.75433 215.635105 
L 672.652689 215.618427 
L 674.449406 216.921089 
L 676.246124 225.284865 
L 678.042841 232.833171 
L 679.839559 239.645518 
L 681.636276 245.793663 
L 683.432994 251.34236 
L 685.229712 256.350058 
L 687.026429 260.869509 
L 688.823147 264.948312 
L 690.619864 268.629432 
L 692.416582 271.951643 
L 694.213299 274.949939 
L 696.010017 277.655901 
L 698.705093 281.228297 
L 701.400169 284.291182 
L 704.095246 286.917221 
L 706.790322 289.168723 
L 709.485398 291.099103 
L 712.180475 292.754164 
L 714.875551 294.173171 
L 717.570627 295.389792 
L 721.164063 296.746418 
L 724.757498 297.851397 
L 728.350933 298.75141 
L 732.842727 299.645421 
L 738.232879 300.455499 
L 744.521391 301.133601 
L 751.708261 301.661956 
L 760.691849 302.079841 
L 772.370513 302.383291 
L 789.439329 302.582593 
L 805.609787 302.655401 
L 806.508146 302.528921 
L 830.763833 302.659705 
L 833.458909 302.665934 
L 834.357268 302.529342 
L 845.137573 302.609337 
L 846.035932 302.190466 
L 849.629367 302.285608 
L 850.527726 302.015512 
L 853.222802 302.048667 
L 854.121161 301.793212 
L 854.121161 301.793212 
" clip-path="url(#p7ad808dfda)" style="fill: none; stroke: #ff0000; stroke-width: 5; stroke-linecap: square"/>
   </g>
   <g id="line2d_27">
    <path d="M 496.574369 302.543506 
L 522.626773 302.667258 
L 537.000514 302.687482 
L 537.898872 302.135151 
L 538.797231 301.957815 
L 546.88246 302.192945 
L 552.272613 302.328163 
L 553.170972 302.032772 
L 554.06933 301.252506 
L 559.459483 301.636855 
L 560.357842 301.553694 
L 568.443071 301.978791 
L 573.833223 302.170741 
L 574.731582 301.7175 
L 576.5283 301.713111 
L 584.613529 302.079264 
L 585.511887 289.589764 
L 588.206964 262.974011 
L 590.90204 245.069575 
L 591.800399 240.527215 
L 592.698758 236.960468 
L 593.597116 235.537897 
L 594.495475 231.705184 
L 595.393834 225.392915 
L 596.292193 222.059308 
L 597.190552 216.513296 
L 599.885628 203.05208 
L 600.783987 196.774836 
L 601.682345 191.905225 
L 602.580704 188.540602 
L 604.377422 183.632415 
L 605.275781 182.986401 
L 606.174139 183.011323 
L 607.072498 181.018208 
L 607.970857 178.671738 
L 609.767574 176.200409 
L 610.665933 174.58242 
L 612.462651 170.447776 
L 613.36101 169.377953 
L 614.259368 167.627993 
L 615.157727 164.49855 
L 616.056086 162.354768 
L 618.751162 157.459611 
L 619.649521 154.714845 
L 620.54788 155.584146 
L 621.446238 157.701158 
L 622.344597 158.338486 
L 623.242956 158.592636 
L 624.141315 158.699346 
L 625.039674 160.389813 
L 625.938032 161.741224 
L 626.836391 162.809811 
L 627.73475 162.782559 
L 628.633109 163.55642 
L 629.531467 163.36977 
L 630.429826 163.951588 
L 632.226544 167.443051 
L 633.124903 168.923008 
L 634.023261 170.034043 
L 634.92162 169.726604 
L 635.819979 168.462276 
L 636.718338 167.813953 
L 637.616696 169.03533 
L 639.413414 172.176917 
L 640.311773 173.182817 
L 641.210132 172.603089 
L 642.10849 173.521622 
L 643.006849 172.794673 
L 643.905208 173.358472 
L 644.803567 173.363154 
L 645.701925 173.835111 
L 646.600284 175.433769 
L 647.498643 175.713267 
L 648.397002 176.825746 
L 649.295361 175.491609 
L 650.193719 179.37463 
L 651.092078 180.178641 
L 651.990437 179.880468 
L 652.888796 181.633666 
L 653.787154 184.311261 
L 654.685513 182.774688 
L 655.583872 181.674823 
L 656.482231 180.898173 
L 657.380589 179.816994 
L 658.278948 178.414197 
L 659.177307 179.441868 
L 660.075666 179.178605 
L 660.974025 180.562793 
L 661.872383 181.203785 
L 662.770742 182.789019 
L 663.669101 182.394508 
L 664.56746 183.233418 
L 665.465818 183.176125 
L 666.364177 182.225746 
L 667.262536 182.10245 
L 668.160895 183.862672 
L 669.059254 184.454872 
L 669.957612 186.516997 
L 670.855971 186.788716 
L 671.75433 186.791637 
L 672.652689 186.988395 
L 673.551047 186.879552 
L 674.449406 186.900973 
L 676.246124 198.191713 
L 678.042841 208.381603 
L 679.839559 217.577978 
L 681.636276 225.877705 
L 683.432994 233.368208 
L 685.229712 240.128387 
L 687.026429 246.229446 
L 688.823147 251.735658 
L 690.619864 256.70501 
L 692.416582 261.189852 
L 694.213299 265.237423 
L 696.010017 268.890354 
L 697.806734 272.187124 
L 699.603452 275.162459 
L 702.298528 279.090484 
L 704.993605 282.458274 
L 707.688681 285.345733 
L 710.383757 287.821367 
L 713.078834 289.943915 
L 715.77391 291.763733 
L 718.468986 293.324001 
L 721.164063 294.661735 
L 724.757498 296.15341 
L 728.350933 297.368389 
L 731.944368 298.357996 
L 736.436162 299.341005 
L 740.927956 300.101638 
L 746.318108 300.790861 
L 752.60662 301.367797 
L 760.691849 301.861629 
L 770.573795 302.224592 
L 784.049177 302.481561 
L 805.609787 302.638611 
L 832.560551 302.68784 
L 833.458909 302.341632 
L 834.357268 301.156694 
L 836.153986 301.307496 
L 837.052344 301.235453 
L 844.239215 301.729527 
L 853.222802 302.120298 
L 854.121161 302.149452 
L 854.121161 302.149452 
" clip-path="url(#p7ad808dfda)" style="fill: none; stroke: #0000ff; stroke-width: 5; stroke-linecap: square"/>
   </g>
   <g id="patch_7">
    <path d="M 495.67601 322.75952 
L 495.67601 31.720156 
" style="fill: none; stroke: #000000; stroke-width: 5; stroke-linejoin: miter; stroke-linecap: square"/>
   </g>
   <g id="patch_8">
    <path d="M 495.67601 322.75952 
L 855.01952 322.75952 
" style="fill: none; stroke: #000000; stroke-width: 5; stroke-linejoin: miter; stroke-linecap: square"/>
   </g>
   <g id="patch_9">
    <path d="M 585.511887 316.938733 
L 675.347765 316.938733 
L 675.347765 306.752355 
L 585.511887 306.752355 
z
" style="fill: #8c5a2b; stroke: #8c5a2b; stroke-linejoin: miter"/>
   </g>
   <g id="text_22">
    <!-- Novel | Expert -->
    <g transform="translate(607.949718 21.720156) scale(0.19 -0.19)">
     <defs>
      <path id="DejaVuSans-45" d="M 628 4666 
L 3578 4666 
L 3578 4134 
L 1259 4134 
L 1259 2753 
L 3481 2753 
L 3481 2222 
L 1259 2222 
L 1259 531 
L 3634 531 
L 3634 0 
L 628 0 
L 628 4666 
z
" transform="scale(0.015625)"/>
      <path id="DejaVuSans-78" d="M 3513 3500 
L 2247 1797 
L 3578 0 
L 2900 0 
L 1881 1375 
L 863 0 
L 184 0 
L 1544 1831 
L 300 3500 
L 978 3500 
L 1906 2253 
L 2834 3500 
L 3513 3500 
z
" transform="scale(0.015625)"/>
      <path id="DejaVuSans-70" d="M 1159 525 
L 1159 -1331 
L 581 -1331 
L 581 3500 
L 1159 3500 
L 1159 2969 
Q 1341 3281 1617 3432 
Q 1894 3584 2278 3584 
Q 2916 3584 3314 3078 
Q 3713 2572 3713 1747 
Q 3713 922 3314 415 
Q 2916 -91 2278 -91 
Q 1894 -91 1617 61 
Q 1341 213 1159 525 
z
M 3116 1747 
Q 3116 2381 2855 2742 
Q 2594 3103 2138 3103 
Q 1681 3103 1420 2742 
Q 1159 2381 1159 1747 
Q 1159 1113 1420 752 
Q 1681 391 2138 391 
Q 2594 391 2855 752 
Q 3116 1113 3116 1747 
z
" transform="scale(0.015625)"/>
     </defs>
     <use xlink:href="#DejaVuSans-4e"/>
     <use xlink:href="#DejaVuSans-6f" transform="translate(74.804688 0)"/>
     <use xlink:href="#DejaVuSans-76" transform="translate(135.986328 0)"/>
     <use xlink:href="#DejaVuSans-65" transform="translate(195.166016 0)"/>
     <use xlink:href="#DejaVuSans-6c" transform="translate(256.689453 0)"/>
     <use xlink:href="#DejaVuSans-20" transform="translate(284.472656 0)"/>
     <use xlink:href="#DejaVuSans-7c" transform="translate(316.259766 0)"/>
     <use xlink:href="#DejaVuSans-20" transform="translate(349.951172 0)"/>
     <use xlink:href="#DejaVuSans-45" transform="translate(381.738281 0)"/>
     <use xlink:href="#DejaVuSans-78" transform="translate(444.921875 0)"/>
     <use xlink:href="#DejaVuSans-70" transform="translate(504.101562 0)"/>
     <use xlink:href="#DejaVuSans-65" transform="translate(567.578125 0)"/>
     <use xlink:href="#DejaVuSans-72" transform="translate(629.101562 0)"/>
     <use xlink:href="#DejaVuSans-74" transform="translate(670.214844 0)"/>
    </g>
   </g>
  </g>
 </g>
 <defs>
  <clipPath id="pa272377546">
   <rect x="101.56" y="31.720156" width="359.34351" height="291.039364"/>
  </clipPath>
  <clipPath id="p7ad808dfda">
   <rect x="495.67601" y="31.720156" width="359.34351" height="291.039364"/>
  </clipPath>
 </defs>
</svg>
